<?xml version="1.0" encoding="utf-8"?>
<!-- Generator: Adobe Illustrator 24.0.2, SVG Export Plug-In . SVG Version: 6.00 Build 0)  -->
<svg version="1.1" id="Layer_1" xmlns="http://www.w3.org/2000/svg" xmlns:xlink="http://www.w3.org/1999/xlink" x="0px" y="0px"
	 viewBox="0 0 303.11 303.11" style="enable-background:new 0 0 303.11 303.11;" xml:space="preserve">
<style type="text/css">
	.st0{fill:#E5EBF8;}
	.st1{opacity:0.8;}
	.st2{fill:#00D4D9;}
	.st3{fill:url(#SVGID_1_);}
	.st4{fill:url(#SVGID_2_);}
	.st5{fill:#FFFFFF;}
	.st6{fill:none;stroke:#000000;stroke-miterlimit:10;}
</style>
<g>
	<path class="st0" d="M197.78,115.91l30.55,14.89l-31.34,6.27l-18.41-16.45h-54.45l-18.41,16.84l-31.34-6.27l30.55-14.89
		L68.9,129.62l82.65,117.91l82.65-117.91L197.78,115.91z M151.56,242.83l-42.7-104.59l16.45-14.89h52.88l16.45,14.89L151.56,242.83z
		"/>
	<path class="st0" d="M128.44,102.2L117.08,83l23.5,7.05c0.78,0.39,1.57,0,1.96-0.78l8.62-21.54l8.62,21.54
		c0.39,0.78,1.18,1.18,1.96,0.78l23.5-7.05l-10.58,19.19c-0.39,0.78,0,1.96,1.18,2.35l0,0c0.39,0,1.18-0.39,1.57-0.78l10.97-19.19
		c0.39,0,1.18,0,1.57,0c1.96-0.39,3.53-2.35,3.53-4.31c0-2.35-1.96-3.92-4.31-3.92c-2.35,0-3.92,1.57-4.31,3.92l-22.33,6.66
		l-8.23-20.76c1.57-0.78,3.13-2.74,3.13-4.7c0-3.13-2.35-5.88-5.48-5.88s-5.88,2.35-5.88,5.48c0,2.35,1.18,3.92,3.13,5.09
		l-8.62,20.76l-22.33-6.66c0-2.35-1.96-3.92-4.31-3.92s-4.31,1.96-4.31,4.31s1.96,4.31,4.31,4.31c0.39,0,0.78,0,0.78,0l10.97,19.19
		c0.39,0.39,0.78,0.78,1.57,0.78l0,0C128.05,104.16,128.84,102.98,128.44,102.2z"/>
</g>
</svg>
