<?xml version="1.0" encoding="utf-8"?>
<!-- Generator: Adobe Illustrator 26.3.1, SVG Export Plug-In . SVG Version: 6.00 Build 0)  -->
<svg version="1.1" id="Layer_1" xmlns="http://www.w3.org/2000/svg" xmlns:xlink="http://www.w3.org/1999/xlink" x="0px" y="0px"
	 viewBox="0 0 66.3 112.5" style="enable-background:new 0 0 66.3 112.5;" xml:space="preserve">
<style type="text/css">
	.st0{fill:#A3AAAE;}
	.st1{fill:#F9F6F2;}
	.st2{opacity:0.5;}
</style>
<g>
	<g>
		<path class="st0" d="M36.9,17.3l8.7,4.3l-9,1.8l-5.3-4.8H15.8l-5.3,4.8l-9-1.8l8.7-4.3L0,21.2L23.6,55l23.6-33.8L36.9,17.3z
			 M23.6,53.7l-12.2-30l4.7-4.3h15.1l4.7,4.3L23.6,53.7z"/>
		<path class="st0" d="M17,13.4l-3.2-5.5l6.8,2.1c0.2,0.1,0.4,0,0.5-0.2l2.5-6.2l2.5,6.2c0.1,0.2,0.3,0.3,0.5,0.2l6.8-2.1l-3.2,5.5
			c-0.2,0.3,0,0.6,0.3,0.6l0,0c0.2,0,0.3-0.1,0.4-0.2l3.2-5.5c0.2,0,0.3,0,0.5,0c0.6-0.1,1-0.7,1-1.3c0-0.6-0.6-1.1-1.2-1.1
			c-0.6,0-1.2,0.5-1.2,1.1l-6.4,2l-2.4-5.9c0.5-0.3,0.8-0.8,0.9-1.4c0-0.9-0.7-1.7-1.6-1.7C22.8,0,22,0.7,22,1.6
			c0,0.6,0.4,1.2,0.9,1.4L20.5,9l-6.4-2c0-0.6-0.6-1.1-1.2-1.1c-0.7,0-1.2,0.6-1.2,1.2c0,0.7,0.5,1.2,1.2,1.2c0.1,0,0.2,0,0.3,0
			l3.2,5.5c0.1,0.1,0.2,0.2,0.4,0.2h0C17,14,17.2,13.6,17,13.4z"/>
	</g>
	<g>
		<path class="st1" d="M28.7,37.1l-2.2,2.7v6.9h-3.7V26.7h3.7v8.2l6.6-8.2h4.5l-6.3,7.8l6.9,12.2h-4.2L28.7,37.1z"/>
		<polygon class="st1" points="52.1,26.7 48.3,26.7 41.2,46.6 45.1,46.6 50.2,32 55.3,46.6 59.1,46.6 		"/>
		<path class="st1" d="M22.8,59.5h6.3c4.4,0,6.9,1.9,6.9,5.6c0,1.7-0.7,3-2.2,3.9c1.9,0.8,2.9,2.4,2.9,4.6c0,3.9-2.8,5.9-7.1,5.9
			h-6.8V59.5z M26.5,62.9v4.5h2.6c2.4,0,3.2-1,3.2-2.4c0-1.5-0.9-2.2-3.2-2.2H26.5z M26.5,70.9V76h3.1c2.3,0,3.4-0.9,3.4-2.6
			c0-1.6-0.8-2.5-3.6-2.5H26.5z"/>
		<path class="st1" d="M39.2,59.5H43l3.8,13.9L51,59.5h3.7l4.1,13.9l3.7-13.9h3.7l-5.6,19.9h-3.7l-4.2-14.1l-4.2,14.1h-3.8
			L39.2,59.5z"/>
		<path class="st1" d="M22.8,92.2h11.8v3.5h-8.1v4.6h8.1v3.5h-8.1v4.7h8.1v3.5H22.8V92.2z"/>
		<path class="st1" d="M45.1,108c1.4,0,2.2,0.9,2.2,2.2c0,1.3-0.8,2.2-2.2,2.2c-1.4,0-2.2-0.9-2.2-2.2C42.8,108.9,43.7,108,45.1,108
			z"/>
	</g>
</g>
</svg>
