<?xml version="1.0" encoding="utf-8"?>
<!-- Generator: Adobe Illustrator 26.3.1, SVG Export Plug-In . SVG Version: 6.00 Build 0)  -->
<svg version="1.1" id="Layer_1" xmlns="http://www.w3.org/2000/svg" xmlns:xlink="http://www.w3.org/1999/xlink" x="0px" y="0px"
	 viewBox="0 0 41.9 42.2" style="enable-background:new 0 0 41.9 42.2;" xml:space="preserve">
<style type="text/css">
	.st0{fill:#A3AAAE;}
	.st1{fill:#F9F6F2;}
	.st2{opacity:0.5;}
</style>
<g>
	<g class="st2">
		<path class="st0" d="M25.3,14.6l6,3l-6.2,1.2l-3.6-3.3H10.9l-3.6,3.3l-6.2-1.2l6-3L0,17.3l16.2,23.2l16.2-23.2L25.3,14.6z
			 M16.2,39.5L7.8,19L11,16h10.4l3.2,2.9L16.2,39.5z"/>
		<path class="st0" d="M25.3,12.1c-0.2,0-0.3,0.1-0.4,0.1l-3.7-2.6l2.3-3.9c0.1,0,0.1,0,0.2,0c0.5,0,0.8-0.4,0.8-0.8S24.1,4,23.6,4
			c-0.4,0-0.8,0.3-0.8,0.8l-4.4,1.3l-1.6-4.1c0.4-0.2,0.6-0.6,0.6-1c0-0.6-0.5-1.1-1.1-1.1c-0.6,0-1.1,0.5-1.1,1.1
			c0,0.4,0.2,0.8,0.6,1l-1.6,4.1L9.6,4.8C9.6,4.4,9.2,4,8.8,4C8.3,4,8,4.4,8,4.9s0.4,0.8,0.8,0.8c0.1,0,0.1,0,0.2,0l2.3,3.9
			l-3.7,2.6c-0.1-0.1-0.3-0.1-0.4-0.1c-0.4,0-0.7,0.3-0.7,0.7s0.3,0.7,0.7,0.7c0.2,0,0.4-0.1,0.5-0.2l3.2,0.5c0.1,0,0.2,0,0.3-0.1
			c1-1.8,3-2.9,5-2.9c2.1,0,4,1.1,5,2.9c0.1,0.1,0.2,0.1,0.3,0.1c0,0,0,0,0,0l3.2-0.5c0.1,0.1,0.3,0.2,0.5,0.2
			c0.4,0,0.7-0.3,0.7-0.7S25.7,12.1,25.3,12.1z M21.7,13.1c-1.2-1.9-3.2-3-5.4-3s-4.3,1.2-5.4,3l-2.8-0.5l3.9-2.7
			c0.1-0.1,0.2-0.3,0.1-0.4L9.5,5.4l4.6,1.4c0.1,0,0.3,0,0.4-0.2l1.7-4.2l1.7,4.2c0.1,0.1,0.2,0.2,0.4,0.2l4.6-1.4l-2.4,4.2
			c-0.1,0.1,0,0.3,0.1,0.4l3.9,2.7L21.7,13.1z"/>
	</g>
	<g>
		<path d="M16.2,19.1h1.4v6.3h2.8v1.4h-4.2V19.1z"/>
		<path d="M20.8,23.7c0-1.8,1.4-3.2,3.2-3.2c1.8,0,3.2,1.4,3.2,3.2c0,1.8-1.4,3.2-3.2,3.2C22.2,26.9,20.8,25.4,20.8,23.7z
			 M25.7,23.7c0-1-0.8-1.9-1.8-1.9c-1,0-1.8,0.8-1.8,1.9c0,1,0.8,1.8,1.8,1.8C25,25.5,25.7,24.7,25.7,23.7z"/>
		<path d="M32.6,25.9c-0.4,0.6-1.2,0.9-2,0.9c-1.5,0-3-1.2-3-3.2c0-2,1.5-3.2,3-3.2c0.8,0,1.5,0.4,2,0.9v-0.8H34v5.9
			c0,1.7-1.1,3.1-3.1,3.1c-1.6,0-2.6-0.7-3.1-1.8l1.2-0.8c0.4,0.8,0.9,1.2,1.9,1.2c1.1,0,1.7-0.8,1.7-1.8V25.9z M32.6,23.7
			c0-1-0.8-1.9-1.8-1.9c-1,0-1.8,0.8-1.8,1.9c0,1.1,0.8,1.9,1.8,1.9C31.9,25.6,32.6,24.7,32.6,23.7z"/>
		<path d="M34.6,23.7c0-1.8,1.4-3.2,3.2-3.2c1.8,0,3.2,1.4,3.2,3.2c0,1.8-1.4,3.2-3.2,3.2C36,26.9,34.6,25.4,34.6,23.7z M39.5,23.7
			c0-1-0.8-1.9-1.8-1.9c-1,0-1.8,0.8-1.8,1.9c0,1,0.8,1.8,1.8,1.8C38.8,25.5,39.5,24.7,39.5,23.7z"/>
		<path d="M16.2,31.6h1.4l2.3,3.2l2.4-3.2h1.3v7.6h-1.4v-5.3l-2.3,3.1L17.6,34v5.3h-1.4V31.6z"/>
		<path d="M24.3,36.2c0-2,1.5-3.2,3-3.2c0.8,0,1.5,0.3,2,0.9v-0.7h1.4v6.1h-1.4v-0.8c-0.4,0.6-1.2,0.9-2,0.9
			C25.8,39.4,24.3,38.2,24.3,36.2z M29.3,36.2c0-1-0.8-1.9-1.8-1.9c-1,0-1.8,0.8-1.8,1.9c0,1.1,0.8,1.9,1.8,1.9
			C28.5,38.1,29.3,37.2,29.3,36.2z"/>
		<path d="M31.5,33.1h1.4v0.9c0.3-0.6,0.8-0.9,1.6-0.9c0.4,0,0.8,0.1,1.1,0.3L35,34.7c-0.2-0.1-0.4-0.2-0.8-0.2
			c-0.8,0-1.3,0.4-1.3,1.5v3.3h-1.4V33.1z"/>
		<path d="M36,31.5h1.4v4.6l2.6-2.9h1.7l-2.4,2.6l2.4,3.5h-1.6l-1.8-2.6l-1,1.1v1.6H36V31.5z"/>
	</g>
</g>
</svg>
