<?xml version="1.0" encoding="utf-8"?>
<!-- Generator: Adobe Illustrator 26.3.1, SVG Export Plug-In . SVG Version: 6.00 Build 0)  -->
<svg version="1.1" id="Layer_1" xmlns="http://www.w3.org/2000/svg" xmlns:xlink="http://www.w3.org/1999/xlink" x="0px" y="0px"
	 viewBox="0 0 49.4 83.8" style="enable-background:new 0 0 49.4 83.8;" xml:space="preserve">
<style type="text/css">
	.st0{fill:#A3AAAE;}
</style>
<g>
	<g>
		<path class="st0" d="M27.5,12.9l6.5,3.2l-6.7,1.3l-3.9-3.6H11.8l-3.9,3.6l-6.7-1.3l6.5-3.2L0,15.8L17.6,41l17.6-25.2L27.5,12.9z
			 M17.6,40L8.5,17.7l3.5-3.2h11.3l3.5,3.2L17.6,40z"/>
		<path class="st0" d="M12.7,10l-2.4-4.1l5,1.5c0.2,0,0.3,0,0.4-0.2l1.9-4.6l1.9,4.6c0.1,0.2,0.2,0.2,0.4,0.2l5-1.5L22.6,10
			c-0.1,0.2,0,0.5,0.2,0.5h0c0.1,0,0.2-0.1,0.3-0.2l2.4-4.1c0.1,0,0.2,0,0.4,0c0.4-0.1,0.8-0.5,0.7-1c0-0.5-0.4-0.8-0.9-0.8
			c-0.5,0-0.9,0.4-0.9,0.8L20,6.7l-1.8-4.4c0.4-0.2,0.6-0.6,0.6-1c0-0.7-0.5-1.2-1.2-1.3c-0.7,0-1.2,0.5-1.2,1.2
			c0,0.5,0.3,0.9,0.6,1.1l-1.8,4.4l-4.8-1.5c0-0.5-0.4-0.9-0.9-0.8c-0.5,0-0.9,0.4-0.9,0.9c0,0.5,0.4,0.9,0.9,0.9c0.1,0,0.1,0,0.2,0
			l2.4,4.1c0.1,0.1,0.2,0.2,0.3,0.2h0C12.7,10.4,12.8,10.2,12.7,10z"/>
	</g>
	<path d="M21.4,27.6l-1.6,2v5.1H17V19.9h2.8V26l4.9-6.1H28l-4.7,5.8l5.1,9.1h-3.2L21.4,27.6z"/>
	<polygon points="38.8,19.9 36,19.9 30.7,34.8 33.6,34.8 37.4,23.8 41.2,34.8 44.1,34.8 	"/>
	<path d="M17,44.3h4.7c3.3,0,5.2,1.4,5.2,4.1c0,1.3-0.5,2.3-1.6,2.9c1.4,0.6,2.2,1.8,2.2,3.4c0,2.9-2.1,4.4-5.3,4.4h-5V44.3z
		 M19.8,46.9v3.4h1.9c1.8,0,2.4-0.7,2.4-1.8c0-1.1-0.7-1.6-2.4-1.6H19.8z M19.8,52.8v3.8H22c1.7,0,2.5-0.7,2.5-1.9
		c0-1.2-0.6-1.9-2.7-1.9H19.8z"/>
	<path d="M29.2,44.3h2.9l2.8,10.4L38,44.3h2.7l3.1,10.4l2.8-10.4h2.8l-4.2,14.8h-2.7l-3.1-10.5l-3.1,10.5h-2.8L29.2,44.3z"/>
	<path d="M17,68.7h8.8v2.6h-6v3.4h6v2.6h-6v3.5h6v2.6H17V68.7z"/>
	<path d="M33.6,80.5c1,0,1.6,0.7,1.6,1.7c0,1-0.6,1.6-1.7,1.6c-1,0-1.6-0.7-1.6-1.6C31.9,81.2,32.6,80.5,33.6,80.5z"/>
</g>
<g>
</g>
<g>
</g>
<g>
</g>
<g>
</g>
<g>
</g>
<g>
</g>
<g>
</g>
<g>
</g>
<g>
</g>
<g>
</g>
<g>
</g>
<g>
</g>
<g>
</g>
<g>
</g>
<g>
</g>
</svg>
