<?xml version="1.0" encoding="utf-8"?>
<!-- Generator: Adobe Illustrator 26.3.1, SVG Export Plug-In . SVG Version: 6.00 Build 0)  -->
<svg version="1.1" id="Layer_1" xmlns="http://www.w3.org/2000/svg" xmlns:xlink="http://www.w3.org/1999/xlink" x="0px" y="0px"
	 viewBox="0 0 78.8 98.2" style="enable-background:new 0 0 78.8 98.2;" xml:space="preserve">
<style type="text/css">
	.st0{opacity:0.5;}
	.st1{fill:#FFFFFF;}
</style>
<g class="st0">
	<path class="st1" d="M61.6,35.5l14.5,7.2l-15,3l-8.8-8h-26l-8.8,8l-15-3l14.5-7.2L0,42l39.4,56.3L78.8,42L61.6,35.5z M39.4,96.1
		L19,46.1l7.8-7.1H52l7.8,7.1L39.4,96.1z"/>
	<path class="st1" d="M61.4,29.3c-0.4,0-0.7,0.1-1,0.3l-9-6.3l5.5-9.5c0.1,0,0.3,0.1,0.4,0.1c1.1,0,2-0.9,2-2s-0.9-2-2-2
		c-1.1,0-2,0.8-2,1.9L44.6,15l-4-9.9c0.9-0.5,1.4-1.4,1.4-2.4c0-1.5-1.2-2.7-2.7-2.7c-1.5,0-2.7,1.2-2.7,2.7c0,1,0.6,1.9,1.4,2.4
		l-4,9.9l-10.7-3.3c-0.1-1.1-0.9-1.9-2-1.9c-1.1,0-2,0.9-2,2s0.9,2,2,2c0.2,0,0.3,0,0.4-0.1l5.5,9.5l-9,6.3c-0.3-0.2-0.6-0.3-1-0.3
		c-0.9,0-1.7,0.7-1.7,1.7s0.7,1.7,1.7,1.7c0.5,0,0.9-0.2,1.2-0.6l7.8,1.3c0.3,0.1,0.6-0.1,0.7-0.3c2.5-4.4,7.2-7.1,12.3-7.1
		c5,0,9.7,2.7,12.3,7.1c0.1,0.2,0.4,0.4,0.6,0.4c0,0,0.1,0,0.1,0l7.8-1.3c0.3,0.3,0.7,0.6,1.2,0.6c0.9,0,1.7-0.7,1.7-1.7
		S62.3,29.3,61.4,29.3z M52.6,31.9c-2.8-4.6-7.9-7.4-13.2-7.4S29,27.3,26.2,31.9l-6.9-1.2l9.4-6.6c0.3-0.2,0.4-0.6,0.2-0.9
		l-5.8-10.1l11.3,3.4c0.4,0.1,0.7-0.1,0.9-0.4l4.2-10.3l4.2,10.3c0.1,0.3,0.5,0.5,0.9,0.4l11.3-3.4l-5.8,10.1
		c-0.2,0.3-0.1,0.7,0.2,0.9l9.4,6.6L52.6,31.9z"/>
</g>
<g>
</g>
<g>
</g>
<g>
</g>
<g>
</g>
<g>
</g>
<g>
</g>
<g>
</g>
<g>
</g>
<g>
</g>
<g>
</g>
<g>
</g>
<g>
</g>
<g>
</g>
<g>
</g>
<g>
</g>
</svg>
