<?xml version="1.0" encoding="utf-8"?>
<!-- Generator: Adobe Illustrator 24.0.2, SVG Export Plug-In . SVG Version: 6.00 Build 0)  -->
<svg version="1.1" id="Layer_1" xmlns="http://www.w3.org/2000/svg" xmlns:xlink="http://www.w3.org/1999/xlink" x="0px" y="0px"
	 viewBox="0 0 303.11 303.11" style="enable-background:new 0 0 303.11 303.11;" xml:space="preserve">
<style type="text/css">
	.st0{fill:#E5EBF8;}
	.st1{opacity:0.8;}
	.st2{fill:#00D4D9;}
	.st3{fill:url(#SVGID_1_);}
	.st4{fill:url(#SVGID_2_);}
	.st5{fill:#FFFFFF;}
	.st6{fill:none;stroke:#000000;stroke-miterlimit:10;}
</style>
<g>
	<g>
		<path class="st0" d="M185.11,193.8H158.1c-23.28,0-42.24-18.96-42.24-42.24s18.96-42.24,42.24-42.24h27.01v16.44H158.1
			c-14.24,0-25.8,11.56-25.8,25.8s11.56,25.8,25.8,25.8h27.01V193.8z"/>
	</g>
	<path class="st0" d="M81.29,158.02c0.05,0,0.05,0,0.11,0c13.42,0,24.33-10.96,24.33-24.33c0-13.42-10.9-24.33-24.33-24.33H65.62
		c-13.59,0-25.69,6.46-33.42,16.44c-5.53,7.07-8.82,16.05-8.82,25.75c0,23.28,18.96,42.24,42.24,42.24h27.01v-16.44H65.62
		c-14.24,0-25.8-11.56-25.8-25.8c0-4.44,1.15-8.66,3.12-12.33C60.25,157.31,78.72,158.02,81.29,158.02z M81.4,125.75
		c4.38,0,7.89,3.56,7.89,7.89c0,4.33-3.56,7.89-7.89,7.89l0,0h-0.16c-1.15,0-13.59-0.44-26.19-13.53c3.23-1.48,6.85-2.3,10.63-2.3
		H81.4V125.75z"/>
	<path class="st0" d="M263.29,118.14c-7.12-5.53-16.11-8.82-25.8-8.82c-23.28,0-42.24,18.96-42.24,42.24s18.96,42.24,42.24,42.24
		l0,0v-16.44l0,0c-14.24,0-25.8-11.56-25.8-25.8s11.56-25.8,25.8-25.8s25.8,11.56,25.8,25.8v42.24h16.44v-42.24
		C279.73,137.97,273.26,125.86,263.29,118.14z"/>
</g>
</svg>
