<?xml version="1.0" encoding="utf-8"?>
<!-- Generator: Adobe Illustrator 26.3.1, SVG Export Plug-In . SVG Version: 6.00 Build 0)  -->
<svg version="1.1" id="Layer_1" xmlns="http://www.w3.org/2000/svg" xmlns:xlink="http://www.w3.org/1999/xlink" x="0px" y="0px"
	 viewBox="0 0 927.7 154.2" style="enable-background:new 0 0 927.7 154.2;" xml:space="preserve">
<style type="text/css">
	.st0{fill:#FF1616;}
	.st1{fill:#879C9D;}
</style>
<g>
	<g>
		<g>
			<path class="st0" d="M295.2,154.2h-49.3c-42.5,0-77.1-34.6-77.1-77.1c0-42.5,34.6-77.1,77.1-77.1h49.3v30h-49.3
				c-26,0-47.1,21.1-47.1,47.1c0,26,21.1,47.1,47.1,47.1h49.3V154.2z"/>
		</g>
		<path class="st0" d="M105.7,88.9c0.1,0,0.1,0,0.2,0c24.5,0,44.4-20,44.4-44.4c0-24.5-19.9-44.4-44.4-44.4H77.1
			c-24.8,0-46.9,11.8-61,30C6,43,0,59.4,0,77.1c0,42.5,34.6,77.1,77.1,77.1h49.3v-30H77.1c-26,0-47.1-21.1-47.1-47.1
			c0-8.1,2.1-15.8,5.7-22.5C67.3,87.6,101,88.9,105.7,88.9z M105.9,30c8,0,14.4,6.5,14.4,14.4s-6.5,14.4-14.4,14.4l0,0l-0.3,0
			c-2.1,0-24.8-0.8-47.8-24.7c5.9-2.7,12.5-4.2,19.4-4.2H105.9z"/>
		<path class="st0" d="M437.9,16.1C424.9,6,408.5,0,390.8,0c-42.5,0-77.1,34.6-77.1,77.1c0,42.5,34.6,77.1,77.1,77.1c0,0,0,0,0,0
			v-30c0,0,0,0,0,0c-26,0-47.1-21.1-47.1-47.1c0-26,21.1-47.1,47.1-47.1c26,0,47.1,21.1,47.1,47.1v77.1h30V77.1
			C467.9,52.3,456.1,30.2,437.9,16.1z"/>
	</g>
	<g>
		<path class="st1" d="M527.6,62.3h17.1V67H522V36.7h22.2v4.8h-16.5V62.3z M527.2,49.3h15.1v4.6h-15.1V49.3z"/>
		<path class="st1" d="M550.6,67V34.9h5.4V67H550.6z"/>
		<path class="st1" d="M563.1,67V34.9h5.4V67H563.1z"/>
		<path class="st1" d="M586.2,67.3c-2.4,0-4.6-0.5-6.5-1.5c-1.9-1-3.4-2.4-4.4-4.2s-1.6-3.8-1.6-6.1c0-2.3,0.5-4.4,1.6-6.2
			s2.6-3.2,4.4-4.2c1.9-1,4.1-1.5,6.5-1.5c2.2,0,4.2,0.5,5.9,1.4c1.7,0.9,3,2.3,3.9,4l-4.1,2.4c-0.7-1.1-1.5-1.9-2.5-2.4
			c-1-0.5-2.1-0.8-3.2-0.8c-1.3,0-2.5,0.3-3.6,0.9c-1.1,0.6-1.9,1.4-2.5,2.5c-0.6,1.1-0.9,2.4-0.9,3.8c0,1.5,0.3,2.8,0.9,3.9
			c0.6,1.1,1.4,1.9,2.5,2.5c1.1,0.6,2.3,0.9,3.6,0.9c1.2,0,2.2-0.3,3.2-0.8s1.8-1.4,2.5-2.4l4.1,2.4c-0.9,1.7-2.2,3.1-3.9,4
			C590.4,66.9,588.4,67.3,586.2,67.3z"/>
		<path class="st1" d="M613.7,43.6c1.9,0,3.5,0.4,5,1.1c1.4,0.7,2.6,1.8,3.4,3.3c0.9,1.5,1.3,3.4,1.3,5.8V67h-5.4V54.5
			c0-2.1-0.5-3.6-1.4-4.6c-1-1-2.3-1.5-4.1-1.5c-1.3,0-2.4,0.3-3.4,0.8c-1,0.5-1.7,1.3-2.3,2.3c-0.5,1-0.8,2.3-0.8,3.9V67h-5.4V34.9
			h5.4v15.3l-1.1-2c0.8-1.5,1.9-2.6,3.5-3.4C609.9,44,611.7,43.6,613.7,43.6z"/>
		<path class="st1" d="M637.2,67.3c-1.7,0-3.3-0.3-4.6-0.9c-1.3-0.6-2.3-1.4-3-2.5c-0.7-1.1-1.1-2.2-1.1-3.6c0-1.3,0.3-2.5,0.9-3.5
			c0.6-1,1.6-1.9,3.1-2.5c1.4-0.6,3.3-0.9,5.6-0.9h6.7v3.6h-6.3c-1.8,0-3.1,0.3-3.7,0.9s-1,1.3-1,2.2c0,1,0.4,1.7,1.2,2.3
			c0.8,0.6,1.9,0.9,3.3,0.9c1.3,0,2.5-0.3,3.6-0.9c1.1-0.6,1.8-1.5,2.3-2.7l0.9,3.3c-0.5,1.4-1.4,2.4-2.8,3.2
			C641,67,639.3,67.3,637.2,67.3z M644.5,67v-4.7l-0.3-1v-8.2c0-1.6-0.5-2.8-1.5-3.7c-1-0.9-2.4-1.3-4.4-1.3c-1.3,0-2.5,0.2-3.8,0.6
			c-1.2,0.4-2.3,1-3.2,1.7l-2.1-3.9c1.3-1,2.8-1.7,4.5-2.2c1.7-0.5,3.5-0.7,5.3-0.7c3.4,0,6,0.8,7.8,2.4c1.8,1.6,2.7,4.1,2.7,7.5V67
			H644.5z"/>
		<path class="st1" d="M656.6,67V43.9h5.2v6.4l-0.6-1.9c0.7-1.6,1.7-2.8,3.3-3.6s3.3-1.2,5.5-1.2v5.2c-0.2,0-0.4,0-0.6-0.1
			c-0.2,0-0.4,0-0.6,0c-2.1,0-3.7,0.6-4.9,1.8c-1.2,1.2-1.8,3-1.8,5.4V67H656.6z"/>
		<path class="st1" d="M672.3,48.4v-4.3h15.4v4.3H672.3z M684.1,67.3c-2.5,0-4.5-0.7-5.9-2c-1.4-1.3-2.1-3.2-2.1-5.8V38.8h5.4v20.6
			c0,1.1,0.3,2,0.9,2.6c0.6,0.6,1.4,0.9,2.4,0.9c1.2,0,2.2-0.3,2.9-1l1.6,3.9c-0.7,0.5-1.5,0.9-2.4,1.2
			C686,67.2,685.1,67.3,684.1,67.3z"/>
		<path class="st1" d="M720.3,67.5c-2.3,0-4.5-0.4-6.5-1.1c-2-0.8-3.7-1.9-5.1-3.3c-1.5-1.4-2.6-3.1-3.4-4.9c-0.8-1.9-1.2-4-1.2-6.2
			c0-2.3,0.4-4.4,1.2-6.2c0.8-1.9,2-3.5,3.4-4.9s3.2-2.5,5.2-3.3c2-0.8,4.1-1.1,6.5-1.1c2.5,0,4.8,0.4,6.8,1.3
			c2.1,0.9,3.8,2.1,5.2,3.8l-3.6,3.4c-1.1-1.2-2.4-2.1-3.7-2.7c-1.4-0.6-2.8-0.9-4.4-0.9c-1.6,0-3,0.3-4.4,0.8s-2.5,1.3-3.4,2.2
			c-1,1-1.7,2.1-2.3,3.4c-0.5,1.3-0.8,2.7-0.8,4.3c0,1.6,0.3,3,0.8,4.3c0.5,1.3,1.3,2.4,2.3,3.4c1,1,2.1,1.7,3.4,2.2
			s2.8,0.8,4.4,0.8c1.6,0,3-0.3,4.4-0.9c1.4-0.6,2.6-1.5,3.7-2.7l3.6,3.4c-1.4,1.7-3.2,2.9-5.2,3.8C725.1,67,722.8,67.5,720.3,67.5z
			"/>
		<path class="st1" d="M750.4,43.6c1.9,0,3.5,0.4,5,1.1c1.4,0.7,2.6,1.8,3.4,3.3c0.9,1.5,1.3,3.4,1.3,5.8V67h-5.4V54.5
			c0-2.1-0.5-3.6-1.4-4.6c-1-1-2.3-1.5-4.1-1.5c-1.3,0-2.4,0.3-3.4,0.8c-1,0.5-1.7,1.3-2.3,2.3c-0.5,1-0.8,2.3-0.8,3.9V67h-5.4V34.9
			h5.4v15.3l-1.1-2c0.8-1.5,1.9-2.6,3.5-3.4C746.6,44,748.4,43.6,750.4,43.6z"/>
		<path class="st1" d="M773.9,67.3c-1.7,0-3.3-0.3-4.6-0.9c-1.3-0.6-2.3-1.4-3-2.5c-0.7-1.1-1.1-2.2-1.1-3.6c0-1.3,0.3-2.5,0.9-3.5
			c0.6-1,1.6-1.9,3.1-2.5c1.4-0.6,3.3-0.9,5.6-0.9h6.7v3.6h-6.3c-1.8,0-3.1,0.3-3.7,0.9s-1,1.3-1,2.2c0,1,0.4,1.7,1.2,2.3
			c0.8,0.6,1.9,0.9,3.3,0.9c1.3,0,2.5-0.3,3.6-0.9c1.1-0.6,1.8-1.5,2.3-2.7l0.9,3.3c-0.5,1.4-1.4,2.4-2.8,3.2
			C777.7,67,776,67.3,773.9,67.3z M781.2,67v-4.7l-0.3-1v-8.2c0-1.6-0.5-2.8-1.5-3.7c-1-0.9-2.4-1.3-4.4-1.3c-1.3,0-2.5,0.2-3.8,0.6
			c-1.2,0.4-2.3,1-3.2,1.7l-2.1-3.9c1.3-1,2.8-1.7,4.5-2.2c1.7-0.5,3.5-0.7,5.3-0.7c3.4,0,6,0.8,7.8,2.4c1.8,1.6,2.7,4.1,2.7,7.5V67
			H781.2z"/>
		<path class="st1" d="M793.3,67V43.9h5.2v6.4l-0.6-1.9c0.7-1.6,1.7-2.8,3.3-3.6s3.3-1.2,5.5-1.2v5.2c-0.2,0-0.4,0-0.6-0.1
			c-0.2,0-0.4,0-0.6,0c-2.1,0-3.7,0.6-4.9,1.8c-1.2,1.2-1.8,3-1.8,5.4V67H793.3z"/>
		<path class="st1" d="M809.1,48.4v-4.3h15.4v4.3H809.1z M820.8,67.3c-2.5,0-4.5-0.7-5.9-2c-1.4-1.3-2.1-3.2-2.1-5.8V38.8h5.4v20.6
			c0,1.1,0.3,2,0.9,2.6c0.6,0.6,1.4,0.9,2.4,0.9c1.2,0,2.2-0.3,2.9-1l1.6,3.9c-0.7,0.5-1.5,0.9-2.4,1.2
			C822.7,67.2,821.8,67.3,820.8,67.3z"/>
		<path class="st1" d="M840.6,67.3c-2.6,0-4.8-0.5-6.7-1.5c-1.9-1-3.4-2.4-4.5-4.2c-1.1-1.8-1.6-3.8-1.6-6.1c0-2.3,0.5-4.4,1.5-6.1
			c1-1.8,2.4-3.2,4.2-4.2c1.8-1,3.9-1.5,6.2-1.5c2.3,0,4.3,0.5,6,1.5s3.2,2.4,4.2,4.2c1,1.8,1.5,3.9,1.5,6.4c0,0.2,0,0.5,0,0.8
			c0,0.3,0,0.6-0.1,0.8h-19.3v-3.6h16.4l-2.2,1.1c0-1.3-0.2-2.5-0.8-3.5c-0.6-1-1.3-1.8-2.3-2.4s-2.1-0.8-3.5-0.8
			c-1.3,0-2.5,0.3-3.5,0.8c-1,0.6-1.8,1.4-2.4,2.4c-0.5,1-0.8,2.2-0.8,3.6v0.9c0,1.4,0.3,2.6,0.9,3.7c0.6,1.1,1.5,1.9,2.7,2.5
			c1.2,0.6,2.5,0.9,4,0.9c1.3,0,2.5-0.2,3.5-0.7c1-0.4,2-1.1,2.8-1.9l2.9,3.4c-1.1,1.2-2.4,2.1-4,2.8
			C844.4,67,842.6,67.3,840.6,67.3z"/>
		<path class="st1" d="M856.7,67V43.9h5.2v6.4l-0.6-1.9c0.7-1.6,1.7-2.8,3.3-3.6s3.3-1.2,5.5-1.2v5.2c-0.2,0-0.4,0-0.6-0.1
			c-0.2,0-0.4,0-0.6,0c-2.1,0-3.7,0.6-4.9,1.8c-1.2,1.2-1.8,3-1.8,5.4V67H856.7z"/>
		<path class="st1" d="M885.3,67.3c-2.6,0-4.8-0.5-6.7-1.5c-1.9-1-3.4-2.4-4.5-4.2c-1.1-1.8-1.6-3.8-1.6-6.1c0-2.3,0.5-4.4,1.5-6.1
			c1-1.8,2.4-3.2,4.2-4.2c1.8-1,3.9-1.5,6.2-1.5c2.3,0,4.3,0.5,6,1.5s3.2,2.4,4.2,4.2c1,1.8,1.5,3.9,1.5,6.4c0,0.2,0,0.5,0,0.8
			c0,0.3,0,0.6-0.1,0.8h-19.3v-3.6h16.4l-2.2,1.1c0-1.3-0.2-2.5-0.8-3.5c-0.6-1-1.3-1.8-2.3-2.4s-2.1-0.8-3.5-0.8
			c-1.3,0-2.5,0.3-3.5,0.8c-1,0.6-1.8,1.4-2.4,2.4c-0.5,1-0.8,2.2-0.8,3.6v0.9c0,1.4,0.3,2.6,0.9,3.7c0.6,1.1,1.5,1.9,2.7,2.5
			c1.2,0.6,2.5,0.9,4,0.9c1.3,0,2.5-0.2,3.5-0.7c1-0.4,2-1.1,2.8-1.9l2.9,3.4c-1.1,1.2-2.4,2.1-4,2.8
			C889.2,67,887.4,67.3,885.3,67.3z"/>
		<path class="st1" d="M911.2,67.3c-2.2,0-4.2-0.5-6-1.5c-1.8-1-3.2-2.4-4.2-4.1s-1.5-3.9-1.5-6.3c0-2.4,0.5-4.5,1.5-6.2
			c1-1.8,2.4-3.2,4.2-4.2c1.8-1,3.8-1.5,6-1.5c1.9,0,3.7,0.4,5.2,1.3c1.5,0.9,2.7,2.2,3.6,3.9c0.9,1.7,1.3,4,1.3,6.7
			c0,2.7-0.4,4.9-1.3,6.7c-0.9,1.8-2.1,3.1-3.6,3.9C915,66.9,913.2,67.3,911.2,67.3z M911.9,62.7c1.3,0,2.5-0.3,3.5-0.9
			c1-0.6,1.8-1.4,2.5-2.6c0.6-1.1,0.9-2.4,0.9-3.8c0-1.5-0.3-2.8-0.9-3.8c-0.6-1.1-1.4-1.9-2.5-2.5c-1-0.6-2.2-0.9-3.5-0.9
			c-1.3,0-2.5,0.3-3.5,0.9c-1,0.6-1.8,1.4-2.5,2.5c-0.6,1.1-0.9,2.4-0.9,3.8c0,1.4,0.3,2.7,0.9,3.8c0.6,1.1,1.4,2,2.5,2.6
			C909.4,62.4,910.6,62.7,911.9,62.7z M918.9,67v-5.5l0.1-6.2l-0.4-6.2V34.9h5.5V67H918.9z"/>
		<path class="st1" d="M517.7,119l13.7-30.3h5.5l13.7,30.3h-5.9L533,91.7h2.3L523.5,119H517.7z M524,112l1.6-4.4h16.3l1.5,4.4H524z"
			/>
		<path class="st1" d="M564.3,119.4c-2.4,0-4.6-0.5-6.5-1.5c-1.9-1-3.4-2.4-4.4-4.2s-1.6-3.8-1.6-6.1c0-2.3,0.5-4.4,1.6-6.2
			s2.6-3.2,4.4-4.2c1.9-1,4.1-1.5,6.5-1.5c2.2,0,4.2,0.5,5.9,1.4c1.7,0.9,3,2.3,3.9,4l-4.1,2.4c-0.7-1.1-1.5-1.9-2.5-2.4
			c-1-0.5-2.1-0.8-3.2-0.8c-1.3,0-2.5,0.3-3.6,0.9c-1.1,0.6-1.9,1.4-2.5,2.5s-0.9,2.4-0.9,3.8c0,1.5,0.3,2.8,0.9,3.9
			c0.6,1.1,1.4,1.9,2.5,2.5c1.1,0.6,2.3,0.9,3.6,0.9c1.2,0,2.2-0.3,3.2-0.8c1-0.5,1.8-1.4,2.5-2.4l4.1,2.4c-0.9,1.7-2.2,3.1-3.9,4
			C568.6,118.9,566.6,119.4,564.3,119.4z"/>
		<path class="st1" d="M589.2,119.4c-2.4,0-4.6-0.5-6.5-1.5c-1.9-1-3.4-2.4-4.4-4.2s-1.6-3.8-1.6-6.1c0-2.3,0.5-4.4,1.6-6.2
			s2.6-3.2,4.4-4.2c1.9-1,4.1-1.5,6.5-1.5c2.2,0,4.2,0.5,5.9,1.4c1.7,0.9,3,2.3,3.9,4l-4.1,2.4c-0.7-1.1-1.5-1.9-2.5-2.4
			c-1-0.5-2.1-0.8-3.2-0.8c-1.3,0-2.5,0.3-3.6,0.9c-1.1,0.6-1.9,1.4-2.5,2.5s-0.9,2.4-0.9,3.8c0,1.5,0.3,2.8,0.9,3.9
			c0.6,1.1,1.4,1.9,2.5,2.5c1.1,0.6,2.3,0.9,3.6,0.9c1.2,0,2.2-0.3,3.2-0.8c1-0.5,1.8-1.4,2.5-2.4l4.1,2.4c-0.9,1.7-2.2,3.1-3.9,4
			C593.4,118.9,591.4,119.4,589.2,119.4z"/>
		<path class="st1" d="M613.8,119.4c-2.3,0-4.4-0.5-6.3-1.5c-1.9-1-3.3-2.4-4.4-4.2c-1.1-1.8-1.6-3.8-1.6-6.1c0-2.3,0.5-4.4,1.6-6.2
			s2.5-3.2,4.4-4.2c1.8-1,4-1.5,6.3-1.5c2.4,0,4.5,0.5,6.4,1.5c1.9,1,3.3,2.4,4.4,4.2s1.6,3.8,1.6,6.2c0,2.3-0.5,4.4-1.6,6.1
			s-2.5,3.2-4.4,4.2C618.3,118.8,616.2,119.4,613.8,119.4z M613.8,114.8c1.3,0,2.5-0.3,3.6-0.9c1-0.6,1.9-1.4,2.4-2.6
			c0.6-1.1,0.9-2.4,0.9-3.8c0-1.5-0.3-2.8-0.9-3.8c-0.6-1.1-1.4-1.9-2.4-2.5c-1-0.6-2.2-0.9-3.5-0.9c-1.3,0-2.5,0.3-3.5,0.9
			c-1,0.6-1.9,1.4-2.5,2.5s-0.9,2.4-0.9,3.8c0,1.4,0.3,2.7,0.9,3.8s1.4,2,2.5,2.6C611.4,114.5,612.5,114.8,613.8,114.8z"/>
		<path class="st1" d="M641.2,119.4c-2,0-3.7-0.4-5.2-1.1s-2.7-1.9-3.5-3.4c-0.9-1.5-1.3-3.4-1.3-5.7V95.9h5.5v12.5
			c0,2.1,0.5,3.6,1.4,4.6c1,1,2.3,1.5,4,1.5c1.3,0,2.4-0.3,3.3-0.8c1-0.5,1.7-1.3,2.2-2.3c0.5-1,0.8-2.3,0.8-3.9V95.9h5.4V119h-5.2
			v-6.3l0.9,2c-0.8,1.5-1.9,2.6-3.4,3.4C644.6,118.9,643,119.4,641.2,119.4z"/>
		<path class="st1" d="M674,95.6c1.9,0,3.5,0.4,5,1.1c1.4,0.7,2.6,1.8,3.4,3.3c0.9,1.5,1.3,3.4,1.3,5.8V119h-5.4v-12.6
			c0-2.1-0.5-3.6-1.4-4.6c-1-1-2.3-1.5-4.1-1.5c-1.3,0-2.4,0.3-3.4,0.8c-1,0.5-1.7,1.3-2.3,2.3c-0.5,1-0.8,2.3-0.8,3.9V119h-5.4
			V95.9h5.2v6.3l-0.9-2c0.8-1.5,1.9-2.6,3.5-3.4C670.2,96,672,95.6,674,95.6z"/>
		<path class="st1" d="M687.5,100.4v-4.3h15.4v4.3H687.5z M699.3,119.4c-2.5,0-4.5-0.7-5.9-2c-1.4-1.3-2.1-3.2-2.1-5.8V90.8h5.4
			v20.6c0,1.1,0.3,2,0.9,2.6c0.6,0.6,1.4,0.9,2.4,0.9c1.2,0,2.2-0.3,2.9-1l1.6,3.9c-0.7,0.5-1.5,0.9-2.4,1.2
			C701.2,119.2,700.2,119.4,699.3,119.4z"/>
		<path class="st1" d="M715.9,119.4c-1.7,0-3.3-0.3-4.6-0.9c-1.3-0.6-2.3-1.4-3-2.5c-0.7-1.1-1.1-2.2-1.1-3.6c0-1.3,0.3-2.5,0.9-3.5
			c0.6-1,1.6-1.9,3.1-2.5s3.3-0.9,5.6-0.9h6.7v3.6h-6.3c-1.8,0-3.1,0.3-3.7,0.9c-0.7,0.6-1,1.3-1,2.2c0,1,0.4,1.7,1.2,2.3
			s1.9,0.9,3.3,0.9c1.3,0,2.5-0.3,3.6-0.9c1.1-0.6,1.8-1.5,2.3-2.7l0.9,3.3c-0.5,1.4-1.4,2.4-2.8,3.2
			C719.7,119,718,119.4,715.9,119.4z M723.2,119v-4.7l-0.3-1v-8.2c0-1.6-0.5-2.8-1.5-3.7c-1-0.9-2.4-1.3-4.4-1.3
			c-1.3,0-2.5,0.2-3.8,0.6c-1.2,0.4-2.3,1-3.2,1.7l-2.1-3.9c1.3-1,2.8-1.7,4.5-2.2c1.7-0.5,3.5-0.7,5.3-0.7c3.4,0,6,0.8,7.8,2.4
			c1.8,1.6,2.7,4.1,2.7,7.5V119H723.2z"/>
		<path class="st1" d="M748.4,95.6c1.9,0,3.5,0.4,5,1.1c1.4,0.7,2.6,1.8,3.4,3.3c0.9,1.5,1.3,3.4,1.3,5.8V119h-5.4v-12.6
			c0-2.1-0.5-3.6-1.4-4.6c-1-1-2.3-1.5-4.1-1.5c-1.3,0-2.4,0.3-3.4,0.8c-1,0.5-1.7,1.3-2.3,2.3c-0.5,1-0.8,2.3-0.8,3.9V119h-5.4
			V95.9h5.2v6.3l-0.9-2c0.8-1.5,1.9-2.6,3.5-3.4C744.6,96,746.4,95.6,748.4,95.6z"/>
		<path class="st1" d="M761.9,100.4v-4.3h15.4v4.3H761.9z M773.7,119.4c-2.5,0-4.5-0.7-5.9-2c-1.4-1.3-2.1-3.2-2.1-5.8V90.8h5.4
			v20.6c0,1.1,0.3,2,0.9,2.6c0.6,0.6,1.4,0.9,2.4,0.9c1.2,0,2.2-0.3,2.9-1l1.6,3.9c-0.7,0.5-1.5,0.9-2.4,1.2
			C775.6,119.2,774.6,119.4,773.7,119.4z"/>
		<path class="st1" d="M790.5,119.4c-2,0-3.8-0.3-5.6-0.8c-1.8-0.5-3.2-1.1-4.2-1.8l2.1-4.1c1,0.7,2.3,1.2,3.7,1.6
			c1.4,0.4,2.9,0.6,4.4,0.6c1.7,0,2.9-0.2,3.7-0.7c0.8-0.4,1.1-1.1,1.1-1.8c0-0.6-0.3-1.1-0.8-1.5c-0.5-0.3-1.2-0.6-2-0.8
			c-0.8-0.2-1.8-0.3-2.8-0.5c-1-0.1-2.1-0.3-3.1-0.6c-1-0.2-2-0.6-2.8-1.1c-0.8-0.5-1.5-1.1-2-1.9c-0.5-0.8-0.8-1.9-0.8-3.3
			c0-1.4,0.4-2.7,1.3-3.8c0.8-1.1,2-1.9,3.5-2.5c1.5-0.6,3.3-0.9,5.4-0.9c1.5,0,3.1,0.2,4.7,0.5c1.6,0.4,2.9,0.9,4,1.5l-2.1,4.1
			c-1.1-0.6-2.2-1.1-3.3-1.3c-1.1-0.2-2.2-0.4-3.3-0.4c-1.6,0-2.8,0.2-3.6,0.7c-0.8,0.5-1.2,1.1-1.2,1.8c0,0.7,0.3,1.2,0.8,1.6
			s1.2,0.6,2,0.8c0.8,0.2,1.8,0.4,2.8,0.5s2,0.4,3.1,0.6c1,0.2,1.9,0.6,2.8,1c0.9,0.4,1.5,1.1,2.1,1.9c0.5,0.8,0.8,1.9,0.8,3.2
			c0,1.5-0.4,2.7-1.3,3.8c-0.9,1.1-2.1,1.9-3.6,2.5C794.6,119.1,792.7,119.4,790.5,119.4z"/>
	</g>
</g>
<g>
</g>
<g>
</g>
<g>
</g>
<g>
</g>
<g>
</g>
<g>
</g>
<g>
</g>
<g>
</g>
<g>
</g>
<g>
</g>
<g>
</g>
<g>
</g>
<g>
</g>
<g>
</g>
<g>
</g>
</svg>
