<?xml version="1.0" encoding="UTF-8"?>
<svg id="Layer_1" xmlns="http://www.w3.org/2000/svg" version="1.1" viewBox="0 0 467.9 154.2">
  <!-- Generator: Adobe Illustrator 29.5.0, SVG Export Plug-In . SVG Version: 2.1.0 Build 137)  -->
  <defs>
    <style>
      .st0 {
        fill: #ff1616;
      }
    </style>
  </defs>
  <path class="st0" d="M295.2,154.2h-49.3c-42.5,0-77.1-34.6-77.1-77.1S203.4,0,245.9,0h49.3v30h-49.3c-26,0-47.1,21.1-47.1,47.1s21.1,47.1,47.1,47.1h49.3v30Z"/>
  <path class="st0" d="M105.7,88.9h.2c24.5,0,44.4-20,44.4-44.4S130.4.1,105.9.1h-28.8C52.3.1,30.2,11.9,16.1,30.1,6,43,0,59.4,0,77.1c0,42.5,34.6,77.1,77.1,77.1h49.3v-30h-49.3c-26,0-47.1-21.1-47.1-47.1,0-8.1,2.1-15.8,5.7-22.5,31.6,33,65.3,34.3,70,34.3ZM105.9,30c8,0,14.4,6.5,14.4,14.4s-6.5,14.4-14.4,14.4h-.3c-2.1,0-24.8-.8-47.8-24.7,5.9-2.7,12.5-4.2,19.4-4.2h28.7v.1Z"/>
  <path class="st0" d="M437.9,16.1c-13-10.1-29.4-16.1-47.1-16.1-42.5,0-77.1,34.6-77.1,77.1s34.6,77.1,77.1,77.1h0v-30h0c-26,0-47.1-21.1-47.1-47.1s21.1-47.1,47.1-47.1,47.1,21.1,47.1,47.1v77.1h30v-77.1c0-24.8-11.8-46.9-30-61Z"/>
</svg>