<?xml version="1.0" encoding="utf-8"?>
<!-- Generator: Adobe Illustrator 26.3.1, SVG Export Plug-In . SVG Version: 6.00 Build 0)  -->
<svg version="1.1" id="Layer_1" xmlns="http://www.w3.org/2000/svg" xmlns:xlink="http://www.w3.org/1999/xlink" x="0px" y="0px"
	 viewBox="0 0 1210.7 392.5" style="enable-background:new 0 0 1210.7 392.5;" xml:space="preserve">
<style type="text/css">
	.st0{fill:#C5C5C5;}
	.st1{fill:none;stroke:#000000;stroke-width:10;stroke-miterlimit:10;}
</style>
<g>
	<g>
		<g>
			<path class="st0" d="M771.2,392.5H645.7c-108.2,0-196.2-88-196.2-196.2C449.4,88,537.5,0,645.7,0h125.6v76.4H645.7
				c-66.1,0-119.9,53.8-119.9,119.9c0,66.1,53.8,119.9,119.9,119.9h125.6V392.5z"/>
		</g>
		<path class="st0" d="M289,226.2c0.2,0,0.3,0,0.4,0c62.3-0.1,113-50.8,113-113.1C402.4,50.7,351.7,0,289.3,0h-73.2
			C153,0,96.9,30,60.9,76.4c-25.7,33.2-41,74.8-41,119.9c0,108.2,88,196.2,196.2,196.2h125.6v-76.4H216.1
			c-66.1,0-119.9-53.8-119.9-119.9c0-20.7,5.3-40.2,14.5-57.2C191.2,223.1,276.8,226.2,289,226.2z M289.3,76.4
			c20.3,0,36.7,16.5,36.7,36.7s-16.5,36.7-36.7,36.7l0,0l-0.8,0c-5.3-0.1-63.2-2.1-121.8-62.8c15.1-6.9,31.8-10.7,49.4-10.7H289.3z"
			/>
		<path class="st0" d="M1134.4,41c-33.2-25.7-74.8-41-119.9-41C906.3,0,818.2,88,818.2,196.2c0,108.2,88,196.2,196.2,196.2
			c0,0,0,0,0,0v-76.4c0,0,0,0,0,0c-66.1,0-119.9-53.8-119.9-119.9c0-66.1,53.8-119.9,119.9-119.9c66.1,0,119.9,53.8,119.9,119.9
			v196.2h76.4V196.2C1210.7,133.2,1180.8,77,1134.4,41z"/>
	</g>
	<circle class="st1" cx="216.1" cy="196.2" r="158.1"/>
	<circle class="st1" cx="649.1" cy="196.2" r="158.1"/>
	<circle class="st1" cx="1014.5" cy="196.2" r="158.1"/>
	<circle class="st1" cx="292.5" cy="113.1" r="74.9"/>
	<line class="st1" x1="0" y1="38.2" x2="402.4" y2="38.2"/>
	<line class="st1" x1="0" y1="354.3" x2="402.4" y2="354.3"/>
	<line class="st1" x1="449.4" y1="354.3" x2="796.6" y2="354.3"/>
	<line class="st1" x1="449.4" y1="38.2" x2="796.6" y2="38.2"/>
	<path class="st1" d="M292.5,188c0,0-120.1,3.1-205-149.8"/>
</g>
<g>
</g>
<g>
</g>
<g>
</g>
<g>
</g>
<g>
</g>
<g>
</g>
<g>
</g>
<g>
</g>
<g>
</g>
<g>
</g>
<g>
</g>
<g>
</g>
<g>
</g>
<g>
</g>
<g>
</g>
</svg>
