<?xml version="1.0" encoding="utf-8"?>
<!-- Generator: Adobe Illustrator 26.3.1, SVG Export Plug-In . SVG Version: 6.00 Build 0)  -->
<svg version="1.1" id="Layer_1" xmlns="http://www.w3.org/2000/svg" xmlns:xlink="http://www.w3.org/1999/xlink" x="0px" y="0px"
	 viewBox="0 0 823.4 271.4" style="enable-background:new 0 0 823.4 271.4;" xml:space="preserve">
<style type="text/css">
	.st0{fill:#FFFFFF;}
</style>
<g>
	<g>
		<path class="st0" d="M519.5,271.4h-86.8c-74.8,0-135.7-60.9-135.7-135.7C297,60.9,357.9,0,432.7,0h86.8v52.8h-86.8
			c-45.7,0-82.9,37.2-82.9,82.9c0,45.7,37.2,82.9,82.9,82.9h86.8V271.4z"/>
	</g>
	<path class="st0" d="M186.1,156.4c0.1,0,0.2,0,0.3,0c43.1-0.1,78.1-35.1,78.1-78.2c0-43.1-35.1-78.2-78.2-78.2h-50.6
		C92.1,0,53.2,20.7,28.4,52.8C10.6,75.7,0,104.5,0,135.7c0,74.8,60.9,135.7,135.7,135.7h86.8v-52.8h-86.8
		c-45.7,0-82.9-37.2-82.9-82.9c0-14.3,3.6-27.8,10-39.5C118.5,154.2,177.7,156.4,186.1,156.4z M186.3,52.8c14,0,25.4,11.4,25.4,25.4
		s-11.4,25.4-25.4,25.4l0,0l-0.5,0c-3.7,0-43.7-1.5-84.2-43.4c10.4-4.7,22-7.4,34.2-7.4H186.3z"/>
	<path class="st0" d="M770.6,28.4C747.6,10.6,718.9,0,687.7,0C612.9,0,552,60.9,552,135.7c0,74.8,60.9,135.7,135.7,135.7
		c0,0,0,0,0,0v-52.8c0,0,0,0,0,0c-45.7,0-82.9-37.2-82.9-82.9c0-45.7,37.2-82.9,82.9-82.9c45.7,0,82.9,37.2,82.9,82.9v135.7h52.8
		V135.7C823.4,92.1,802.7,53.2,770.6,28.4z"/>
</g>
<g>
</g>
<g>
</g>
<g>
</g>
<g>
</g>
<g>
</g>
<g>
</g>
<g>
</g>
<g>
</g>
<g>
</g>
<g>
</g>
<g>
</g>
<g>
</g>
<g>
</g>
<g>
</g>
<g>
</g>
</svg>
