<?xml version="1.0" encoding="utf-8"?>
<!-- Generator: Adobe Illustrator 24.0.2, SVG Export Plug-In . SVG Version: 6.00 Build 0)  -->
<svg version="1.1" id="Layer_1" xmlns="http://www.w3.org/2000/svg" xmlns:xlink="http://www.w3.org/1999/xlink" x="0px" y="0px"
	 viewBox="0 0 303.11 303.11" style="enable-background:new 0 0 303.11 303.11;" xml:space="preserve">
<style type="text/css">
	.st0{fill:#E5EBF8;}
	.st1{opacity:0.8;}
	.st2{fill:#00D4D9;}
	.st3{fill:url(#SVGID_1_);}
	.st4{fill:url(#SVGID_2_);}
	.st5{fill:#FFFFFF;}
	.st6{fill:none;stroke:#000000;stroke-miterlimit:10;}
</style>
<g>
	<path class="st0" d="M206.09,160.84c1.86,3.58,3.02,6.78,3.3,10.82c11.1-12.12,10.82-31.11-0.98-42.86l0,0l-46.99-45.88
		c-4.09-4.09-9.94-6.08-15.65-5.25l-42.67,5.8c-3.39,0.46-5.76,3.58-5.29,6.97c0.46,3.39,3.58,5.76,6.97,5.29l42.67-5.85
		c1.9-0.28,3.85,0.37,5.25,1.81l46.99,45.83c5.34,5.34,6.69,13.14,4.13,19.78C205.11,159.26,206.09,160.84,206.09,160.84z"/>
	<path class="st0" d="M209.39,171.66c-0.28-4.04-1.44-7.24-3.3-10.82c0,0.05-0.98-1.58-2.28-3.48c-1.07-1.58-2.37-3.34-3.48-4.46
		l-46.3-45.88c-4.09-4.09-9.89-6.04-15.65-5.25l-42.58,5.8c-2.83,0.37-5.01,2.65-5.29,5.43l-4.78,42.86
		c-0.6,5.62,1.35,11.19,5.34,15.18l45.92,45.51c5.85,5.85,13.61,9.05,21.87,9.05h0.09c8.31-0.05,16.11-3.3,21.92-9.19l19.6-19.87
		c5.76-5.8,8.64-13.37,8.82-20.99c0,0,0.09-1.72,0.09-2.04C209.48,172.92,209.43,172.27,209.39,171.66z M116.56,138.97
		c-3.44,0-6.18-2.79-6.18-6.18c0.05-8.08,12.35-8.08,12.4,0C122.78,136.19,120,138.97,116.56,138.97z"/>
</g>
</svg>
