<?xml version="1.0" encoding="utf-8"?>
<!-- Generator: Adobe Illustrator 26.3.1, SVG Export Plug-In . SVG Version: 6.00 Build 0)  -->
<svg version="1.1" id="Layer_1" xmlns="http://www.w3.org/2000/svg" xmlns:xlink="http://www.w3.org/1999/xlink" x="0px" y="0px"
	 viewBox="0 0 794.4 699.7" style="enable-background:new 0 0 794.4 699.7;" xml:space="preserve">
<style type="text/css">
	.st0{fill:#808080;}
</style>
<g>
	<path class="st0" d="M622.9,154.1c-0.1,0-0.2,0-0.3,0c0,0.1,0,0.1,0,0.2L622.9,154.1z"/>
	<g>
		<circle class="st0" cx="17.1" cy="147.2" r="11.3"/>
		<path class="st0" d="M265.1,73.5l-55-69.9c-1.8-2.3-4.5-3.6-7.4-3.6h-80.6H39.5c-6.3,0-11.3,5.1-11.3,11.3s5.1,11.3,11.3,11.3
			h14.3h16.7c6.3,0,11.3,5.1,11.3,11.3v0c0,6.3-5.1,11.3-11.3,11.3h-29H11.3C5.1,45.3,0,50.3,0,56.6c0,6.3,5.1,11.3,11.3,11.3h27.5
			h20.8c6.3,0,11.3,5.1,11.3,11.3s-5.1,11.3-11.3,11.3H41.5H27.9c-6.3,0-11.3,5.1-11.3,11.3s5.1,11.3,11.3,11.3h18.4h24.2
			c6.3,0,11.3,5.1,11.3,11.3c0,6.3-5.1,11.3-11.3,11.3h-11H47.7c-6.3,0-11.3,5.1-11.3,11.3c0,6.3,5.1,11.3,11.3,11.3H95h16.9
			l77.4-38.7l-17.7-37c1.6-1.3,3.7-2,5.8-2l88.9-0.1c0.2,0,0.5,0,0.7,0C267.4,78.3,266.8,75.6,265.1,73.5z"/>
		<path class="st0" d="M296.4,174.3L275.6,88c-0.9-3.9-4.3-6.8-8.2-7.2L267,81l-77.7,38.8l17.9,37.5c-1.4,0.7-2.9,1.2-4.5,1.2h-90.8
			l-35.6,45.3c-6,7.6-4.7,18.7,3,24.7l97,76.1c7.6,6,18.7,4.7,24.7-3l93.7-119.3C296.4,180.1,297.1,177.1,296.4,174.3z M238.7,135.7
			c-8,0-14.5-6.5-14.5-14.5c0-8,6.5-14.5,14.5-14.5c8,0,14.5,6.5,14.5,14.5C253.3,129.2,246.8,135.7,238.7,135.7z"/>
	</g>
	<path class="st0" d="M794.4,567.3c0-0.2,0-0.3,0-0.5c0-0.5,0-1.1-0.1-1.6c0,0,0,0-0.1,0c-0.3-1.9-1.1-3.7-2.4-5.3l-70.7-89.9
		c-2.3-2.9-5.8-4.7-9.6-4.7H501.8c-8,0-14.6,6.5-14.6,14.6c0,8,6.5,14.6,14.6,14.6l39.9,0c8,0,14.6,6.5,14.6,14.6c0,1-0.1,2-0.3,2.9
		c-0.1,0.5-0.2,0.9-0.4,1.4c-1.8,5.9-7.4,10.2-13.9,10.2h-76.1c-8,0-14.6,6.5-14.6,14.6c0,8,6.5,14.6,14.6,14.6l62.1,0
		c8,0,14.6,6.5,14.6,14.6c0,8-6.5,14.6-14.6,14.6l-62.1,0c-8,0-14.6,6.5-14.6,14.6c0,8,6.5,14.6,14.6,14.6h76.1
		c6.5,0,12.1,4.3,13.9,10.2c0.4,1.4,0.7,2.8,0.7,4.3c0,8-6.5,14.6-14.6,14.6l-39.9,0c-8,0-14.6,6.5-14.6,14.6s6.5,14.6,14.6,14.6
		h209.8c3.7,0,7.3-1.7,9.6-4.7l70.7-89.9c1.3-1.6,2-3.4,2.4-5.3c0,0,0,0,0.1,0c0.1-0.5,0.1-1,0.1-1.6
		C794.4,567.6,794.4,567.4,794.4,567.3z"/>
	<g>
		<path class="st0" d="M763.3,157.5c0-17.7-14.4-32.1-32.1-32.1s-32.1,14.4-32.1,32.1c0,17.7,14.4,32.1,32.1,32.1
			S763.3,175.2,763.3,157.5z"/>
		<path class="st0" d="M651.6,240c3.5,0,6.9-0.9,10-2.6L622,154.6L451,240H651.6z"/>
		<path class="st0" d="M793.7,68.5c0,0-1-0.1-1.5-0.1l-196.4,0.1c-4.7,0-9.1,1.6-12.7,4.4l39,81.7L793.6,69l0.9-0.4L793.7,68.5z"/>
	</g>
	<path class="st0" d="M275.9,533.4l-21.7-90.7c-0.4-1.6-1.2-3.1-2.2-4.2c0,0,0,0,0,0c-0.3-0.3-0.6-0.6-0.9-0.9
		c-0.1-0.1-0.2-0.2-0.3-0.2c-0.1-0.1-0.2-0.2-0.3-0.2c-0.3-0.3-0.7-0.5-1.1-0.7c0,0,0,0,0,0c-1.4-0.7-3-1.2-4.6-1.2l-93.3-0.3
		c-3,0-5.9,1.4-7.8,3.8L25.3,588c-7.6,9.6-6,23.5,3.6,31.1l95.7,75.8c9.6,7.6,23.5,6,31.1-3.6L274,541.9
		C275.9,539.5,276.6,536.4,275.9,533.4z M222.4,488c-9.9,0-18-8.1-18-18c0-9.9,8.1-18,18-18c9.9,0,18,8.1,18,18
		C240.4,479.9,232.3,488,222.4,488z"/>
</g>
</svg>
