<?xml version="1.0" encoding="utf-8"?>
<!-- Generator: Adobe Illustrator 26.3.1, SVG Export Plug-In . SVG Version: 6.00 Build 0)  -->
<svg version="1.1" id="Layer_1" xmlns="http://www.w3.org/2000/svg" xmlns:xlink="http://www.w3.org/1999/xlink" x="0px" y="0px"
	 viewBox="0 0 304 352" style="enable-background:new 0 0 304 352;" xml:space="preserve">
<style type="text/css">
	.st0{fill:#FFFFFF;}
</style>
<g>
	<path class="st0" d="M63.3,135.6c0,7.4,6,13.3,13.3,13.3c7.3,0,13.3-6,13.3-13.3C89.9,118.1,63.4,118.1,63.3,135.6z"/>
	<path class="st0" d="M269.4,196c4,7.7,6.5,14.6,7.1,23.3c23.9-26.1,23.3-67-2.1-92.3l0,0L173.2,28.2c-8.8-8.8-21.4-13.1-33.7-11.3
		L47.6,29.4c-7.3,1-12.4,7.7-11.4,15s7.7,12.4,15,11.4l91.9-12.6c4.1-0.6,8.3,0.8,11.3,3.9l101.2,98.7c11.5,11.5,14.4,28.3,8.9,42.6
		C267.3,192.6,269.4,196,269.4,196z"/>
	<path class="st0" d="M276.5,219.3c-0.6-8.7-3.1-15.6-7.1-23.3c0,0.1-2.1-3.4-4.9-7.5c-2.3-3.4-5.1-7.2-7.5-9.6l-99.7-98.8
		c-8.8-8.8-21.3-13-33.7-11.3L31.9,81.3C25.8,82.1,21.1,87,20.5,93l-10.3,92.3c-1.3,12.1,2.9,24.1,11.5,32.7l98.9,98
		c12.6,12.6,29.3,19.5,47.1,19.5h0.2c17.9-0.1,34.7-7.1,47.2-19.8l42.2-42.8c12.4-12.5,18.6-28.8,19-45.2c0,0,0.2-3.7,0.2-4.4
		C276.7,222,276.6,220.6,276.5,219.3z M76.6,148.9c-7.4,0-13.3-6-13.3-13.3c0.1-17.4,26.6-17.4,26.7,0C90,142.9,84,148.9,76.6,148.9
		z"/>
</g>
<g>
</g>
<g>
</g>
<g>
</g>
<g>
</g>
<g>
</g>
<g>
</g>
<g>
</g>
<g>
</g>
<g>
</g>
<g>
</g>
<g>
</g>
<g>
</g>
<g>
</g>
<g>
</g>
<g>
</g>
</svg>
