<?xml version="1.0" encoding="utf-8"?>
<!-- Generator: Adobe Illustrator 26.3.1, SVG Export Plug-In . SVG Version: 6.00 Build 0)  -->
<svg version="1.1" id="Layer_1" xmlns="http://www.w3.org/2000/svg" xmlns:xlink="http://www.w3.org/1999/xlink" x="0px" y="0px"
	 viewBox="0 0 668 213.6" style="enable-background:new 0 0 668 213.6;" xml:space="preserve">
<style type="text/css">
	.st0{fill:#808080;}
</style>
<g>
	<path class="st0" d="M206,79.5L188.5,6.3c-0.3-1.3-0.9-2.5-1.8-3.4c0,0,0,0,0,0c-0.2-0.3-0.5-0.5-0.8-0.7c-0.1-0.1-0.2-0.1-0.2-0.2
		c-0.1-0.1-0.2-0.1-0.2-0.2c-0.3-0.2-0.6-0.4-0.9-0.6c0,0,0,0,0,0c-1.1-0.6-2.4-0.9-3.7-1L105.6,0c-2.5,0-4.8,1.1-6.3,3L3.9,123.5
		c-6.1,7.7-4.8,18.9,2.9,25.1l77.2,61.1c7.7,6.1,18.9,4.8,25.1-2.9l95.4-120.5C206,84.4,206.5,81.9,206,79.5z M162.8,42.8
		c-8,0-14.5-6.5-14.5-14.5s6.5-14.5,14.5-14.5s14.5,6.5,14.5,14.5S170.8,42.8,162.8,42.8z"/>
	<g>
		<g>
			<path class="st0" d="M654.9,74L654.9,74L587.3,8.1c-5.9-5.9-14.3-8.8-22.5-7.6l-61.3,8.4c-4.9,0.7-8.3,5.2-7.6,10
				c0.7,4.9,5.1,8.3,10,7.6l61.3-8.4c2.7-0.4,5.5,0.6,7.6,2.6l67.6,65.9c9.2,9.2,10.2,23.7,3,34.1c3.1,5.9,4.8,12.7,4.8,19.8
				c0,0.4,0,0.8,0,1.3l5-5C672.3,119.5,672.2,91.3,654.9,74z"/>
			<path class="st0" d="M651.6,120.1c0,0.1-4.8-7.9-8.2-11.4l-66.6-66c-5.9-5.9-14.2-8.7-22.5-7.6L493,43.6c-4,0.6-7.2,3.8-7.6,7.8
				l-6.8,61.6c-0.9,8.1,1.9,16.1,7.7,21.8l66,65.5c8.4,8.4,19.6,13,31.5,13h0.2c11.9,0,23.1-4.7,31.5-13.2l28.2-28.6
				c8.3-8.4,12.4-19.2,12.7-30.2c0,0,0.2-2.5,0.2-2.9C656.4,131.3,654.7,126.1,651.6,120.1z M522.9,88.7c-4.9,0-8.9-4-8.9-8.9
				c0.1-11.6,17.8-11.6,17.8,0C531.8,84.7,527.8,88.7,522.9,88.7z"/>
		</g>
	</g>
	<path d="M364.9,105.1l-11.4-6.6c-1.3-0.7-2.9,0.2-2.9,1.7v4.6h-46.5c-1.1,0-2,0.9-2,2s0.9,2,2,2h46.5v4.6c0,1.5,1.6,2.4,2.9,1.7
		l11.4-6.6C366.2,107.7,366.2,105.9,364.9,105.1z"/>
</g>
</svg>
