<?xml version="1.0" encoding="utf-8"?>
<!-- Generator: Adobe Illustrator 26.3.1, SVG Export Plug-In . SVG Version: 6.00 Build 0)  -->
<svg version="1.1" id="Layer_1" xmlns="http://www.w3.org/2000/svg" xmlns:xlink="http://www.w3.org/1999/xlink" x="0px" y="0px"
	 viewBox="0 0 554.2 435.8" style="enable-background:new 0 0 554.2 435.8;" xml:space="preserve">
<style type="text/css">
	.st0{fill:#C8C8C8;}
	.st1{fill:#979797;}
	.st2{fill:#EB463B;}
	.st3{fill:#293A88;}
	.st4{fill:#FF0000;}
</style>
<g>
	<rect y="359.8" class="st0" width="128.7" height="75.6"/>
	<rect x="141.9" y="359.8" class="st1" width="128.7" height="75.6"/>
	<rect x="283.9" y="359.8" class="st2" width="128.7" height="75.6"/>
	<rect x="425.8" y="359.8" class="st3" width="128.7" height="75.6"/>
</g>
<g>
	<circle class="st4" cx="165.6" cy="125.3" r="9.6"/>
	<path class="st3" d="M376.7,62.6L329.9,3.1C328.4,1.1,326,0,323.6,0h-68.6h-70.3c-5.3,0-9.6,4.3-9.6,9.6s4.3,9.6,9.6,9.6h12.2H211
		c5.3,0,9.6,4.3,9.6,9.6v0c0,5.3-4.3,9.6-9.6,9.6h-24.7h-25.7c-5.3,0-9.6,4.3-9.6,9.6c0,5.3,4.3,9.6,9.6,9.6H184h17.7
		c5.3,0,9.6,4.3,9.6,9.6s-4.3,9.6-9.6,9.6h-15.4h-11.5c-5.3,0-9.6,4.3-9.6,9.6s4.3,9.6,9.6,9.6h15.7H211c5.3,0,9.6,4.3,9.6,9.6
		c0,5.3-4.3,9.6-9.6,9.6h-9.3h-10.1c-5.3,0-9.6,4.3-9.6,9.6c0,5.3,4.3,9.6,9.6,9.6h40.3h14.4l65.9-32.9l-15-31.5
		c1.4-1.1,3.1-1.7,4.9-1.7l75.7-0.1c0.2,0,0.4,0,0.6,0C378.7,66.7,378.1,64.4,376.7,62.6z"/>
	<path class="st4" d="M403.3,148.4L385.6,75c-0.8-3.3-3.6-5.8-7-6.1l-0.3,0.2l-66.1,33l15.2,31.9c-1.2,0.6-2.5,1-3.8,1h-77.3
		L216,173.5c-5.1,6.5-4,15.9,2.5,21l82.6,64.8c6.5,5.1,15.9,4,21-2.5l79.8-101.6C403.4,153.3,403.9,150.8,403.3,148.4z M354.3,115.5
		c-6.8,0-12.4-5.5-12.4-12.4c0-6.8,5.5-12.4,12.4-12.4c6.8,0,12.4,5.5,12.4,12.4C366.6,110,361.1,115.5,354.3,115.5z"/>
</g>
<g>
</g>
<g>
</g>
<g>
</g>
<g>
</g>
<g>
</g>
<g>
</g>
<g>
</g>
<g>
</g>
<g>
</g>
<g>
</g>
<g>
</g>
<g>
</g>
<g>
</g>
<g>
</g>
<g>
</g>
</svg>
