<?xml version="1.0" encoding="utf-8"?>
<!-- Generator: Adobe Illustrator 24.0.2, SVG Export Plug-In . SVG Version: 6.00 Build 0)  -->
<svg version="1.1" id="Layer_1" xmlns="http://www.w3.org/2000/svg" xmlns:xlink="http://www.w3.org/1999/xlink" x="0px" y="0px"
	 viewBox="0 0 283.95 319" style="enable-background:new 0 0 283.95 319;" xml:space="preserve">
<style type="text/css">
	.st0{fill:none;}
	.st1{fill:#FF1500;}
	.st2{fill:#003E95;}
</style>
<g>
	<path class="st0" d="M53.3,119.1c0,7.4,6,13.3,13.3,13.3s13.3-6,13.3-13.3C79.9,101.6,53.4,101.6,53.3,119.1z"/>
	<path class="st1" d="M259.4,179.5c4,7.7,6.5,14.6,7.1,23.3c23.9-26.1,23.3-67-2.1-92.3l0,0L163.2,11.7
		c-8.8-8.8-21.4-13.1-33.7-11.3L37.6,12.9c-7.3,1-12.4,7.7-11.4,15s7.7,12.4,15,11.4l91.9-12.6c4.1-0.6,8.3,0.8,11.3,3.9l101.2,98.7
		c11.5,11.5,14.4,28.3,8.9,42.6C257.3,176.1,259.4,179.5,259.4,179.5z"/>
	<path class="st2" d="M266.5,202.8c-0.6-8.7-3.1-15.6-7.1-23.3c0,0.1-2.1-3.4-4.9-7.5c-2.3-3.4-5.1-7.2-7.5-9.6l-99.7-98.8
		c-8.8-8.8-21.3-13-33.7-11.3L21.9,64.8c-6.1,0.8-10.8,5.7-11.4,11.7L0.2,168.8c-1.3,12.1,2.9,24.1,11.5,32.7l98.9,98
		c12.6,12.6,29.3,19.5,47.1,19.5h0.2c17.9-0.1,34.7-7.1,47.2-19.8l42.2-42.8c12.4-12.5,18.6-28.8,19-45.2c0,0,0.2-3.7,0.2-4.4
		C266.7,205.5,266.6,204.1,266.5,202.8z M66.6,132.4c-7.4,0-13.3-6-13.3-13.3c0.1-17.4,26.6-17.4,26.7,0
		C80,126.4,74,132.4,66.6,132.4z"/>
</g>
</svg>
