<?xml version="1.0" encoding="utf-8"?>
<!-- Generator: Adobe Illustrator 26.3.1, SVG Export Plug-In . SVG Version: 6.00 Build 0)  -->
<svg version="1.1" id="Layer_1" xmlns="http://www.w3.org/2000/svg" xmlns:xlink="http://www.w3.org/1999/xlink" x="0px" y="0px"
	 viewBox="0 0 636.2 255.2" style="enable-background:new 0 0 636.2 255.2;" xml:space="preserve">
<g>
	<path d="M129.3,70.5H90.6l-7.4,17.9H63.4L100.6,5h19.1l37.3,83.4h-20.3L129.3,70.5z M123.2,55.9L110,24L96.8,55.9H123.2z"/>
	<path d="M213.1,30.4c5.3,4.7,8,11.9,8,21.4v36.6h-17.4v-8c-3.5,6-10,8.9-19.5,8.9c-4.9,0-9.2-0.8-12.8-2.5c-3.6-1.7-6.4-4-8.3-6.9
		c-1.9-2.9-2.9-6.3-2.9-10c0-6,2.2-10.6,6.7-14.1c4.5-3.4,11.4-5.1,20.8-5.1h14.8c0-4.1-1.2-7.2-3.7-9.4c-2.5-2.2-6.2-3.3-11.1-3.3
		c-3.4,0-6.8,0.5-10.1,1.6c-3.3,1.1-6.1,2.5-8.4,4.3l-6.7-13c3.5-2.5,7.7-4.4,12.6-5.7c4.9-1.4,9.9-2,15.1-2
		C200.1,23.4,207.7,25.7,213.1,30.4z M197.2,74.7c2.5-1.5,4.2-3.6,5.2-6.5v-6.6h-12.8c-7.6,0-11.4,2.5-11.4,7.5
		c0,2.4,0.9,4.3,2.8,5.7c1.9,1.4,4.4,2.1,7.7,2.1C191.9,76.9,194.7,76.1,197.2,74.7z"/>
	<path d="M309.3,52.5c2.8,3.5,4.2,8,4.2,13.4c0,7.2-2.7,12.8-8.2,16.7c-5.4,3.9-13.4,5.8-23.8,5.8h-39.8V5h37.4
		c9.5,0,16.9,1.9,22.1,5.7c5.2,3.8,7.8,9.1,7.8,15.8c0,4.4-1,8.1-3,11.3c-2,3.2-4.7,5.6-8.2,7.3C302.7,46.5,306.5,49,309.3,52.5z
		 M253.7,14.7v26.7h24.4c6.1,0,10.8-1.1,14.1-3.4c3.3-2.3,4.9-5.6,4.9-9.9c0-4.4-1.6-7.7-4.9-9.9c-3.3-2.3-8-3.4-14.1-3.4H253.7z
		 M296.3,75.4c3.4-2.2,5.1-5.7,5.1-10.5c0-9.3-6.8-13.9-20.4-13.9h-27.4v27.8h27.4C287.8,78.8,292.9,77.7,296.3,75.4z"/>
	<path d="M380.2,28.7c4.8,2.7,8.6,6.5,11.4,11.3c2.7,4.8,4.1,10.4,4.1,16.8c0,6.4-1.4,12-4.1,16.9c-2.7,4.9-6.5,8.7-11.4,11.4
		c-4.8,2.7-10.3,4.1-16.4,4.1c-4.7,0-9-0.9-12.9-2.7c-3.9-1.8-7.1-4.5-9.7-8v10h-11V0h11.4v34.8c2.5-3.3,5.7-5.9,9.5-7.6
		c3.8-1.7,8-2.6,12.5-2.6C369.9,24.7,375.4,26,380.2,28.7z M373.7,76.3c3.2-1.9,5.8-4.5,7.6-7.9c1.9-3.4,2.8-7.2,2.8-11.6
		c0-4.4-0.9-8.2-2.8-11.6c-1.9-3.4-4.4-6-7.6-7.8c-3.2-1.8-6.9-2.7-10.9-2.7c-4,0-7.6,0.9-10.8,2.7c-3.3,1.8-5.8,4.4-7.6,7.8
		c-1.8,3.4-2.7,7.2-2.7,11.6c0,4.4,0.9,8.2,2.7,11.6c1.8,3.4,4.4,6,7.6,7.9c3.3,1.9,6.9,2.8,10.8,2.8
		C366.9,79.1,370.5,78.2,373.7,76.3z"/>
	<path d="M428.4,83.5c-6.6-3.7-11.7-8.7-15.5-15.1c-3.8-6.4-5.7-13.7-5.7-21.7c0-8,1.9-15.3,5.7-21.7c3.8-6.4,8.9-11.5,15.5-15.1
		c6.6-3.7,13.9-5.5,22.1-5.5c6,0,11.6,1,16.7,2.9c5.1,1.9,9.4,4.8,13,8.6l-3.8,3.9c-6.7-6.6-15.2-9.9-25.6-9.9
		c-7,0-13.3,1.6-19.1,4.8c-5.7,3.2-10.2,7.6-13.5,13.2c-3.3,5.6-4.9,11.9-4.9,18.8s1.6,13.2,4.9,18.8c3.3,5.6,7.7,10,13.5,13.2
		c5.7,3.2,12.1,4.8,19.1,4.8c10.3,0,18.9-3.3,25.6-10l3.8,3.9c-3.6,3.8-7.9,6.7-13,8.7c-5.1,2-10.7,3-16.6,3
		C442.3,89,435,87.2,428.4,83.5z"/>
	<path d="M504.3,84.8c-4.8-2.7-8.5-6.5-11.2-11.3c-2.7-4.8-4.1-10.2-4.1-16.3c0-6.1,1.3-11.6,4.1-16.4c2.7-4.8,6.4-8.5,11.2-11.2
		c4.8-2.7,10.2-4,16.2-4c5,0,9.6,1,13.6,2.9c4.1,1.9,7.4,4.8,9.9,8.5l-4.4,3.2c-2.2-3.1-5-5.4-8.3-7c-3.3-1.5-6.9-2.3-10.9-2.3
		c-4.8,0-9.2,1.1-13,3.3c-3.9,2.2-6.9,5.3-9.1,9.2c-2.2,4-3.3,8.5-3.3,13.7c0,5.2,1.1,9.7,3.3,13.7c2.2,4,5.2,7.1,9.1,9.2
		c3.9,2.2,8.2,3.3,13,3.3c4,0,7.6-0.8,10.9-2.3c3.3-1.5,6.1-3.9,8.3-7l4.4,3.2c-2.5,3.7-5.9,6.6-9.9,8.5c-4.1,1.9-8.6,2.9-13.6,2.9
		C514.4,88.9,509,87.5,504.3,84.8z"/>
	<path d="M28.2,148v83.4h-8.6v-75.8H0V148H28.2z"/>
	<path d="M105.1,223.8v7.6H46.6v-6.1l34.7-34c4.4-4.3,7.3-8,8.9-11.1c1.5-3.1,2.3-6.3,2.3-9.5c0-4.9-1.7-8.8-5.1-11.5
		c-3.4-2.7-8.2-4.1-14.5-4.1c-9.8,0-17.4,3.1-22.8,9.3l-6.1-5.2c3.3-3.8,7.4-6.8,12.5-8.8c5-2.1,10.7-3.1,17.1-3.1
		c8.5,0,15.2,2,20.2,6c5,4,7.4,9.5,7.4,16.5c0,4.3-1,8.4-2.9,12.4c-1.9,4-5.5,8.5-10.8,13.7l-28.4,27.9H105.1z"/>
	<path d="M164.1,190.8c4.6,4.3,6.9,9.8,6.9,16.6c0,4.8-1.2,9-3.5,12.7c-2.3,3.7-5.7,6.6-10.2,8.8c-4.5,2.1-10,3.2-16.6,3.2
		c-6,0-11.7-1-17.1-2.9c-5.4-1.9-9.7-4.5-12.9-7.8l4.2-6.8c2.8,2.9,6.5,5.2,11.1,7c4.6,1.8,9.5,2.7,14.8,2.7
		c6.8,0,12.1-1.5,15.8-4.5c3.7-3,5.6-7.1,5.6-12.3c0-5.2-1.9-9.2-5.6-12.2c-3.7-2.9-9.4-4.4-16.9-4.4h-6v-6.3l23.1-29h-42.7V148
		h53.6v6.1l-23.6,29.7C152.9,184.2,159.6,186.6,164.1,190.8z"/>
	<path d="M253.9,209.5h-16.7v21.9h-8.6v-21.9h-47.1v-6.2l44.2-55.3h9.5l-42.7,53.9h36.2v-19.3h8.3v19.3h16.7V209.5z"/>
	<path d="M347.2,153.9c8.4,4.4,14.9,10.6,19.6,18.6c4.7,8,7,17.1,7,27.3c0,10.1-1.7,18-5.2,23.7c-3.5,5.7-8.3,8.5-14.5,8.5
		c-3.9,0-7.1-1.2-9.5-3.5c-2.4-2.3-3.8-5.5-4-9.5c-2.4,4.1-5.6,7.3-9.8,9.6c-4.1,2.3-8.8,3.4-14.1,3.4c-5.6,0-10.6-1.3-15.1-4
		c-4.5-2.7-8-6.3-10.6-11c-2.6-4.7-3.9-10-3.9-15.8c0-5.9,1.3-11.1,3.9-15.8c2.6-4.6,6.1-8.3,10.6-10.9c4.5-2.6,9.5-3.9,15.1-3.9
		c5.1,0,9.7,1.1,13.8,3.3c4.1,2.2,7.4,5.3,9.8,9.2v-12h7.7v45.2c0,3.2,0.7,5.5,2,6.9c1.3,1.4,3.1,2.1,5.4,2.1c3.7,0,6.7-2.2,8.9-6.7
		c2.2-4.4,3.3-10.6,3.3-18.6c0-9.2-2.1-17.3-6.2-24.4c-4.1-7-9.9-12.5-17.3-16.4c-7.4-3.9-15.9-5.8-25.4-5.8c-9.6,0-18.1,2-25.6,6
		c-7.4,4-13.2,9.7-17.3,16.9c-4.1,7.3-6.2,15.6-6.2,24.8s2,17.6,6.1,24.9c4.1,7.3,9.8,13,17.2,17c7.3,4.1,15.8,6.1,25.3,6.1
		c3.7,0,7.6-0.4,11.7-1.3c4.1-0.9,7.8-2.2,11.1-3.9l2,5.8c-3.4,1.7-7.4,3.1-11.9,4.1c-4.5,1-8.8,1.4-13,1.4
		c-10.8,0-20.4-2.3-28.7-6.9c-8.3-4.6-14.8-11-19.5-19.2c-4.6-8.2-7-17.5-7-27.9c0-10.5,2.3-19.8,7-27.9
		c4.7-8.1,11.3-14.5,19.7-19.1c8.5-4.6,18.1-6.9,28.9-6.9C329.3,147.3,338.8,149.5,347.2,153.9z M329.3,222.1c3.4-2,6.1-4.8,8.1-8.4
		c2-3.6,3-7.8,3-12.6c0-4.7-1-8.8-3-12.5c-2-3.6-4.7-6.4-8.1-8.3c-3.4-1.9-7.3-2.9-11.6-2.9c-4.4,0-8.3,1-11.7,3
		c-3.5,2-6.2,4.8-8.1,8.3c-1.9,3.6-2.9,7.7-2.9,12.4c0,4.7,1,8.8,2.9,12.5c1.9,3.6,4.6,6.4,8.1,8.5c3.5,2,7.4,3,11.7,3
		C322.1,225.1,325.9,224.1,329.3,222.1z"/>
	<path d="M441.6,177.2l-3.1,25h16.9v6.6h-17.8l-2.7,22.6h-6.4l2.7-22.6h-24.4l-2.9,22.6h-6.4l2.7-22.6h-16.9v-6.6h17.8l3.1-25h-17
		v-6.6H405l2.7-22.6h6.6l-2.9,22.6H436l2.7-22.6h6.4l-2.7,22.6h16.8v6.6H441.6z M435.2,177.2h-24.4l-3.2,25h24.5L435.2,177.2z"/>
	<path d="M523.5,224.9c-4.7,4.3-11.6,6.6-20.6,7.1v13.7h-6v-13.6c-5.8-0.3-11.3-1.4-16.4-3.4c-5.1-1.9-9.2-4.4-12.1-7.4l3.5-6.8
		c2.8,2.7,6.4,5,10.9,6.8c4.5,1.8,9.2,2.9,14.1,3.2v-31.3c-5.5-1.3-10.1-2.8-13.7-4.3c-3.7-1.5-6.7-3.8-9.1-6.8
		c-2.4-3-3.6-6.9-3.6-11.9c0-6.1,2.2-11.3,6.7-15.4c4.4-4.2,11-6.6,19.8-7.3v-13.7h6v13.6c4.5,0.2,8.9,0.9,13.2,2.2
		c4.2,1.3,7.9,3,11,5.2l-3,7c-3.3-2.1-6.7-3.7-10.4-4.9c-3.7-1.2-7.3-1.9-10.8-2v31.6c5.9,1.4,10.7,2.9,14.4,4.3
		c3.7,1.5,6.9,3.7,9.4,6.7c2.5,3,3.8,7,3.8,11.9C530.5,215.5,528.1,220.7,523.5,224.9z M483.7,179.3c3.1,2.1,7.4,4,13.2,5.5V155
		c-5.9,0.5-10.3,2.1-13.3,4.8c-3,2.7-4.5,6.1-4.5,10.1C479.1,174,480.7,177.2,483.7,179.3z M517,219.8c3.2-2.6,4.8-6,4.8-10
		c0-4.3-1.6-7.5-4.9-9.7c-3.3-2.1-7.9-4-14.1-5.5v29.8C509.1,224,513.8,222.5,517,219.8z"/>
	<path d="M552,229.3c-2.4-9.5-3.6-19.7-3.6-30.6c0-10.9,1.2-21.1,3.6-30.7c2.4-9.6,5.8-17.9,10.2-25.1h8.1
		c-4.7,8-8.1,16.6-10.3,25.9c-2.2,9.2-3.3,19.2-3.3,29.9c0,10.7,1.1,20.7,3.3,29.9c2.2,9.2,5.6,17.8,10.3,25.9h-8.1
		C557.8,247.2,554.4,238.8,552,229.3z"/>
	<path d="M580,254.5c4.7-8,8.1-16.6,10.4-25.8c2.2-9.2,3.3-19.2,3.3-30c0-10.8-1.1-20.8-3.3-30c-2.2-9.2-5.7-17.8-10.4-25.8h8.1
		c4.4,7.1,7.9,15.5,10.3,25.1c2.4,9.6,3.6,19.8,3.6,30.7c0,10.9-1.2,21.1-3.6,30.6c-2.4,9.5-5.8,17.9-10.4,25.1H580z"/>
	<path d="M625.5,230.2c-1.2-1.2-1.8-2.7-1.8-4.3c0-1.7,0.6-3.2,1.8-4.3c1.2-1.2,2.7-1.7,4.5-1.7c1.7,0,3.2,0.6,4.4,1.7
		c1.2,1.2,1.8,2.6,1.8,4.3c0,1.7-0.6,3.1-1.8,4.3c-1.2,1.2-2.7,1.8-4.4,1.8C628.2,232,626.7,231.4,625.5,230.2z M625,148h10
		l-1.8,58.4h-6.6L625,148z"/>
</g>
</svg>
