<?xml version="1.0" encoding="utf-8"?>
<!-- Generator: Adobe Illustrator 26.3.1, SVG Export Plug-In . SVG Version: 6.00 Build 0)  -->
<svg version="1.1" id="Layer_1" xmlns="http://www.w3.org/2000/svg" xmlns:xlink="http://www.w3.org/1999/xlink" x="0px" y="0px"
	 viewBox="0 0 898.1 200.8" style="enable-background:new 0 0 898.1 200.8;" xml:space="preserve">
<g>
	<path d="M94.3,24c9.3,4.2,16.4,10.2,21.4,17.9c5,7.7,7.5,16.9,7.5,27.4c0,10.4-2.5,19.5-7.5,27.3c-5,7.8-12.2,13.7-21.4,17.9
		c-9.3,4.1-20.2,6.2-32.8,6.2H32.9v39.2H0V17.7h61.5C74.1,17.7,85,19.8,94.3,24z M82.2,87.4c5.1-4.3,7.7-10.3,7.7-18.2
		c0-8-2.6-14.1-7.7-18.4c-5.1-4.3-12.7-6.4-22.5-6.4H32.9v49.3h26.8C69.6,93.8,77.1,91.7,82.2,87.4z"/>
	<path d="M190,53c6.4-2.7,13.8-4.1,22.2-4.1v29.2c-3.5-0.3-5.9-0.4-7.1-0.4c-9.1,0-16.2,2.5-21.3,7.6c-5.1,5.1-7.7,12.7-7.7,22.8
		v51.6h-31.7V50.6h30.3V65C178.4,59.7,183.5,55.7,190,53z"/>
	<path d="M232.7,30.3c-3.7-3.4-5.5-7.6-5.5-12.6c0-5,1.8-9.2,5.5-12.6c3.7-3.4,8.4-5.1,14.2-5.1c5.8,0,10.6,1.6,14.2,4.9
		c3.7,3.2,5.5,7.3,5.5,12.2c0,5.3-1.8,9.6-5.5,13.1c-3.7,3.5-8.4,5.2-14.2,5.2C241.1,35.3,236.3,33.6,232.7,30.3z M231.1,50.6h31.7
		v109.2h-31.7V50.6z"/>
	<path d="M313.6,154.2c-9.3-4.8-16.5-11.5-21.7-20c-5.2-8.5-7.8-18.2-7.8-29c0-10.8,2.6-20.5,7.8-29c5.2-8.5,12.5-15.2,21.7-20
		c9.3-4.8,19.7-7.2,31.4-7.2c11.5,0,21.6,2.4,30.2,7.2c8.6,4.8,14.9,11.7,18.8,20.6L369.3,90c-5.7-10-13.9-15-24.6-15
		c-8.3,0-15.1,2.7-20.5,8.1c-5.4,5.4-8.1,12.8-8.1,22.1c0,9.3,2.7,16.7,8.1,22.1c5.4,5.4,12.2,8.1,20.5,8.1c10.8,0,19-5,24.6-15
		l24.6,13.4c-3.9,8.7-10.2,15.4-18.8,20.3c-8.6,4.9-18.6,7.3-30.2,7.3C333.3,161.4,322.9,159,313.6,154.2z"/>
	<path d="M517.2,114.1h-82.6c1.5,6.8,5,12.1,10.6,16c5.5,3.9,12.5,5.9,20.7,5.9c5.7,0,10.7-0.8,15.1-2.5c4.4-1.7,8.5-4.4,12.3-8
		l16.9,18.3c-10.3,11.8-25.3,17.7-45.1,17.7c-12.3,0-23.2-2.4-32.7-7.2c-9.5-4.8-16.8-11.5-21.9-20c-5.1-8.5-7.7-18.2-7.7-29
		c0-10.7,2.5-20.3,7.6-28.9c5.1-8.6,12-15.3,20.9-20.1c8.9-4.8,18.8-7.2,29.7-7.2c10.7,0,20.4,2.3,29,6.9
		c8.7,4.6,15.5,11.2,20.4,19.8c4.9,8.6,7.4,18.6,7.4,30C517.8,106,517.6,108.8,517.2,114.1z M443.1,79c-4.9,4.1-7.9,9.6-8.9,16.6
		h53.8c-1.1-6.9-4.1-12.4-8.9-16.5c-4.9-4.1-10.8-6.2-17.9-6.2C453.9,72.9,447.9,74.9,443.1,79z"/>
	<path d="M538.9,9.1h31.7v150.7h-31.7V9.1z"/>
	<path d="M708.4,50.6l-49.3,115.9c-5,12.6-11.2,21.5-18.6,26.6c-7.4,5.1-16.3,7.7-26.7,7.7c-5.7,0-11.3-0.9-16.9-2.6
		c-5.6-1.8-10.1-4.2-13.6-7.3l11.6-22.5c2.4,2.2,5.2,3.9,8.4,5.1c3.2,1.2,6.3,1.8,9.4,1.8c4.3,0,7.8-1.1,10.6-3.1
		c2.7-2.1,5.1-5.6,7.3-10.5l0.4-1L583.8,50.6h32.7l30.7,74.1L678,50.6H708.4z"/>
	<path d="M730,158.1c-8.7-2.2-15.6-5-20.7-8.4l10.6-22.7c4.9,3.1,10.8,5.7,17.7,7.6c6.9,2,13.7,2.9,20.3,2.9
		c13.4,0,20.1-3.3,20.1-9.9c0-3.1-1.8-5.3-5.5-6.7c-3.7-1.4-9.3-2.5-16.9-3.5c-8.9-1.4-16.3-2.9-22.1-4.7
		c-5.8-1.8-10.9-4.9-15.1-9.3c-4.3-4.5-6.4-10.8-6.4-19.1c0-6.9,2-13,6-18.4c4-5.3,9.8-9.5,17.5-12.5c7.6-3,16.7-4.5,27.1-4.5
		c7.7,0,15.4,0.8,23,2.5c7.6,1.7,14,4,19,7L793.9,81c-9.6-5.4-20.1-8.1-31.5-8.1c-6.8,0-11.8,0.9-15.2,2.8c-3.4,1.9-5.1,4.3-5.1,7.3
		c0,3.4,1.8,5.8,5.5,7.1c3.7,1.4,9.5,2.6,17.5,3.9c8.9,1.5,16.2,3.1,21.9,4.8c5.7,1.7,10.6,4.8,14.8,9.2c4.2,4.5,6.3,10.7,6.3,18.7
		c0,6.8-2,12.8-6.1,18.1c-4.1,5.3-10,9.4-17.8,12.3c-7.8,2.9-17,4.4-27.7,4.4C747.5,161.4,738.6,160.3,730,158.1z"/>
	<path d="M898.1,154.5c-3.1,2.3-6.9,4-11.5,5.2c-4.5,1.1-9.3,1.7-14.3,1.7c-13,0-23-3.3-30.2-9.9c-7.1-6.6-10.7-16.4-10.7-29.2V77.4
		h-16.9V53h16.9V26.4h31.7V53h27.2v24.4h-27.2v44.5c0,4.6,1.2,8.2,3.6,10.7c2.4,2.5,5.7,3.8,10.1,3.8c5,0,9.3-1.4,12.8-4.1
		L898.1,154.5z"/>
</g>
</svg>
