<?xml version="1.0" encoding="utf-8"?>
<!-- Generator: Adobe Illustrator 26.3.1, SVG Export Plug-In . SVG Version: 6.00 Build 0)  -->
<svg version="1.1" id="Layer_1" xmlns="http://www.w3.org/2000/svg" xmlns:xlink="http://www.w3.org/1999/xlink" x="0px" y="0px"
	 viewBox="0 0 651.8 775.6" style="enable-background:new 0 0 651.8 775.6;" xml:space="preserve">
<style type="text/css">
	.st0{fill:#003E97;}
	.st1{fill:#FF1500;}
	.st2{fill:none;}
	.st3{fill:#003E95;}
</style>
<g>
	<g>
		<g>
			<path class="st0" d="M98.9,419.3c9.7,4.4,17.2,10.6,22.5,18.7c5.3,8.1,7.9,17.7,7.9,28.8c0,10.9-2.6,20.5-7.9,28.6
				c-5.3,8.2-12.7,14.4-22.5,18.7c-9.7,4.3-21.2,6.5-34.4,6.5h-30v41.1H0V412.7h64.5C77.7,412.7,89.2,414.9,98.9,419.3z M86.3,485.9
				c5.4-4.5,8.1-10.8,8.1-19.1c0-8.4-2.7-14.8-8.1-19.3c-5.4-4.5-13.3-6.7-23.6-6.7H34.5v51.8h28.1C73,492.6,80.9,490.3,86.3,485.9z
				"/>
			<path class="st0" d="M248.8,561.8L220,520.3h-1.7h-30v41.5h-34.5V412.7h64.5c13.2,0,24.7,2.2,34.4,6.6
				c9.7,4.4,17.2,10.6,22.5,18.7c5.3,8.1,7.9,17.7,7.9,28.8c0,11.1-2.7,20.6-8,28.6c-5.3,8-12.9,14.2-22.7,18.4l33.4,47.9H248.8z
				 M240,447.5c-5.4-4.5-13.3-6.7-23.6-6.7h-28.1v52h28.1c10.4,0,18.2-2.3,23.6-6.8c5.4-4.5,8.1-10.9,8.1-19.2
				C248.1,458.4,245.4,452,240,447.5z"/>
			<path class="st0" d="M310.3,412.7h34.5v149.1h-34.5V412.7z"/>
			<path class="st0" d="M410.3,554.4c-12.3-6.6-21.9-15.8-29-27.5c-7-11.7-10.5-25-10.5-39.7c0-14.8,3.5-28,10.5-39.7
				c7-11.7,16.7-20.9,29-27.5c12.3-6.6,26.1-9.9,41.4-9.9c12.9,0,24.6,2.3,35,6.8c10.4,4.5,19.2,11.1,26.3,19.6L490.9,457
				c-10.1-11.6-22.6-17.5-37.5-17.5c-9.2,0-17.5,2-24.7,6.1c-7.2,4-12.9,9.7-16.9,16.9s-6.1,15.5-6.1,24.7c0,9.2,2,17.5,6.1,24.7
				c4,7.2,9.7,12.9,16.9,16.9c7.2,4,15.5,6.1,24.7,6.1c14.9,0,27.4-5.9,37.5-17.7l22.2,20.4c-7.1,8.7-15.9,15.3-26.4,19.8
				c-10.5,4.5-22.2,6.8-35.1,6.8C436.3,564.3,422.6,561,410.3,554.4z"/>
			<path class="st0" d="M651.8,534.1v27.7H536.3V412.7H649v27.7h-78.4v32.4h69.2v26.8h-69.2v34.5H651.8z"/>
			<path class="st0" d="M0,623.9h34.5v121h74.8V773H0V623.9z"/>
			<path class="st0" d="M184.9,720.2V773h-34.5v-53.2l-57.7-95.8h36.6l39.8,66.2l39.8-66.2h33.9L184.9,720.2z"/>
			<path class="st0" d="M268.9,770.8c-11-3.2-19.8-7.3-26.5-12.5l11.7-26c6.4,4.7,14,8.4,22.8,11.3c8.8,2.8,17.6,4.3,26.4,4.3
				c9.8,0,17-1.5,21.7-4.4c4.7-2.9,7-6.8,7-11.6c0-3.5-1.4-6.5-4.2-8.8c-2.8-2.3-6.3-4.2-10.6-5.6c-4.3-1.4-10.2-3-17.6-4.7
				c-11.4-2.7-20.7-5.4-27.9-8.1c-7.2-2.7-13.5-7-18.6-13c-5.2-6-7.8-13.9-7.8-23.9c0-8.7,2.3-16.5,7-23.5s11.7-12.6,21.2-16.7
				c9.4-4.1,21-6.2,34.6-6.2c9.5,0,18.8,1.1,27.9,3.4c9.1,2.3,17,5.5,23.9,9.8l-10.6,26.2c-13.8-7.8-27.5-11.7-41.3-11.7
				c-9.7,0-16.8,1.6-21.4,4.7c-4.6,3.1-6.9,7.2-6.9,12.4c0,5.1,2.7,8.9,8,11.4c5.3,2.5,13.5,4.9,24.4,7.3
				c11.4,2.7,20.7,5.4,27.9,8.1c7.2,2.7,13.5,7,18.6,12.8c5.2,5.8,7.8,13.7,7.8,23.6c0,8.5-2.4,16.3-7.1,23.3
				c-4.8,7-11.9,12.6-21.4,16.7c-9.5,4.1-21.1,6.2-34.7,6.2C291.3,775.6,279.9,774,268.9,770.8z"/>
			<path class="st0" d="M418.7,652H371v-28.1H501V652h-47.7v121h-34.5V652z"/>
		</g>
		<path class="st1" d="M548.6,767.1c-5.1-5.1-7.7-11.5-7.7-19.1c0-7.8,2.6-14.2,7.7-19c5.1-4.8,11.4-7.2,18.9-7.2
			c7.5,0,13.8,2.4,18.9,7.2c5.1,4.8,7.7,11.2,7.7,19c0,7.7-2.6,14-7.7,19.1c-5.1,5.1-11.4,7.7-18.9,7.7
			C560,774.7,553.7,772.2,548.6,767.1z"/>
	</g>
	<g>
		<path class="st2" d="M53.3,119.1c0,7.4,6,13.3,13.3,13.3s13.3-6,13.3-13.3C79.9,101.6,53.4,101.6,53.3,119.1z"/>
		<path class="st1" d="M259.4,179.5c4,7.7,6.5,14.6,7.1,23.3c23.9-26.1,23.3-67-2.1-92.3l0,0L163.2,11.7
			c-8.8-8.8-21.4-13.1-33.7-11.3L37.6,12.9c-7.3,1-12.4,7.7-11.4,15c1,7.3,7.7,12.4,15,11.4l91.9-12.6c4.1-0.6,8.3,0.8,11.3,3.9
			l101.2,98.7c11.5,11.5,14.4,28.3,8.9,42.6C257.3,176.1,259.4,179.5,259.4,179.5z"/>
		<path class="st3" d="M266.5,202.8c-0.6-8.7-3.1-15.6-7.1-23.3c0,0.1-2.1-3.4-4.9-7.5c-2.3-3.4-5.1-7.2-7.5-9.6l-99.7-98.8
			c-8.8-8.8-21.3-13-33.7-11.3L21.9,64.8c-6.1,0.8-10.8,5.7-11.4,11.7L0.2,168.8c-1.3,12.1,2.9,24.1,11.5,32.7l98.9,98
			c12.6,12.6,29.3,19.5,47.1,19.5h0.2c17.9-0.1,34.7-7.1,47.2-19.8l42.2-42.8c12.4-12.5,18.6-28.8,19-45.2c0,0,0.2-3.7,0.2-4.4
			C266.7,205.5,266.6,204.1,266.5,202.8z M66.6,132.4c-7.4,0-13.3-6-13.3-13.3c0.1-17.4,26.6-17.4,26.7,0
			C80,126.4,74,132.4,66.6,132.4z"/>
	</g>
</g>
</svg>
