<?xml version="1.0" encoding="utf-8"?>
<!-- Generator: Adobe Illustrator 26.3.1, SVG Export Plug-In . SVG Version: 6.00 Build 0)  -->
<svg version="1.1" id="Layer_1" xmlns="http://www.w3.org/2000/svg" xmlns:xlink="http://www.w3.org/1999/xlink" x="0px" y="0px"
	 viewBox="0 0 239.1 69.5" style="enable-background:new 0 0 239.1 69.5;" xml:space="preserve">
<style type="text/css">
	.st0{fill:#FFFFFF;}
</style>
<g>
	<g>
		<path class="st0" d="M138.6,29.2V15.6h5.5c0.1,0,0.3,0,0.5,0s0.4,0,0.6,0.1c0.8,0.1,1.4,0.4,1.9,0.8c0.5,0.4,0.9,0.9,1.1,1.5
			c0.3,0.6,0.4,1.3,0.4,2c0,0.7-0.1,1.4-0.4,2c-0.3,0.6-0.6,1.1-1.1,1.5c-0.5,0.4-1.1,0.7-1.9,0.8c-0.2,0-0.4,0-0.6,0.1
			c-0.2,0-0.4,0-0.5,0h-3.5v4.9H138.6z M140.5,22.4h3.4c0.1,0,0.3,0,0.4,0c0.2,0,0.3,0,0.4-0.1c0.4-0.1,0.7-0.3,1-0.5
			s0.4-0.5,0.5-0.9c0.1-0.3,0.2-0.7,0.2-1c0-0.3-0.1-0.7-0.2-1s-0.3-0.6-0.5-0.9s-0.6-0.4-1-0.5c-0.1,0-0.3-0.1-0.4-0.1
			c-0.2,0-0.3,0-0.4,0h-3.4V22.4z"/>
		<path class="st0" d="M150.4,29.2V19h1.8v2.5l-0.2-0.3c0.1-0.3,0.3-0.6,0.5-0.9c0.2-0.3,0.4-0.5,0.7-0.7c0.3-0.2,0.5-0.3,0.9-0.4
			c0.3-0.1,0.6-0.2,1-0.2c0.3,0,0.7,0,1,0.1v1.8c-0.3-0.1-0.7-0.1-1.1-0.1s-0.8,0.2-1.1,0.4c-0.3,0.2-0.6,0.5-0.8,0.8
			s-0.3,0.6-0.4,1c-0.1,0.4-0.1,0.7-0.1,1.1v5.1H150.4z"/>
		<path class="st0" d="M157.8,17.3v-1.9h2v1.9H157.8z M157.8,29.2V19h2v10.2H157.8z"/>
		<path class="st0" d="M162.6,29.2V19h1.8v2.9h0.2v7.2H162.6z M168.7,29.2l0-6.3c0-0.7-0.2-1.3-0.6-1.7c-0.4-0.4-0.9-0.6-1.5-0.6
			c-0.6,0-1.1,0.2-1.5,0.6c-0.4,0.4-0.6,1-0.6,1.7l-0.9-0.6c0-0.7,0.2-1.3,0.5-1.8s0.8-0.9,1.3-1.2c0.5-0.3,1.2-0.5,1.9-0.5
			c0.7,0,1.3,0.2,1.8,0.5c0.5,0.3,0.9,0.7,1.2,1.3c0.3,0.5,0.4,1.2,0.4,1.9l0,6.8H168.7z M174.8,29.2l0-6.3c0-0.7-0.2-1.3-0.6-1.7
			c-0.4-0.4-0.9-0.6-1.5-0.6c-0.4,0-0.7,0.1-1,0.3c-0.3,0.2-0.6,0.4-0.8,0.8c-0.2,0.3-0.3,0.8-0.3,1.3l-1-0.5c0-0.7,0.1-1.3,0.5-1.9
			c0.3-0.5,0.7-1,1.3-1.3s1.2-0.4,1.8-0.4c1.1,0,1.9,0.3,2.6,1s0.9,1.5,0.9,2.6l0,6.8H174.8z"/>
		<path class="st0" d="M183.6,29.5c-1,0-1.9-0.2-2.7-0.7c-0.8-0.4-1.4-1.1-1.8-1.9c-0.4-0.8-0.6-1.7-0.6-2.8c0-1.1,0.2-2.1,0.6-2.9
			c0.4-0.8,1-1.4,1.7-1.9c0.7-0.4,1.6-0.7,2.6-0.7c1,0,1.9,0.2,2.6,0.7c0.7,0.5,1.3,1.2,1.6,2c0.4,0.9,0.5,1.9,0.4,3.2h-2v-0.7
			c0-1.2-0.2-2.1-0.7-2.6c-0.4-0.6-1.1-0.8-2-0.8c-1,0-1.7,0.3-2.2,0.9s-0.7,1.5-0.7,2.7c0,1.1,0.2,2,0.7,2.6
			c0.5,0.6,1.2,0.9,2.1,0.9c0.6,0,1.1-0.1,1.6-0.4c0.4-0.3,0.8-0.7,1.1-1.2l1.9,0.6c-0.4,0.9-1,1.6-1.8,2.1
			C185.5,29.2,184.6,29.5,183.6,29.5z M180,24.6v-1.5h7.3v1.5H180z"/>
		<path class="st0" d="M194.1,29.2V15.6h4.2c0.1,0,0.4,0,0.7,0c0.3,0,0.7,0,1,0.1c1.1,0.1,2,0.5,2.7,1.1c0.7,0.6,1.3,1.4,1.6,2.4
			c0.4,1,0.6,2,0.6,3.2c0,1.2-0.2,2.2-0.6,3.2c-0.4,1-0.9,1.8-1.6,2.4c-0.7,0.6-1.6,1-2.7,1.1c-0.3,0-0.6,0.1-1,0.1
			c-0.3,0-0.6,0-0.7,0H194.1z M196.1,27.3h2.2c0.2,0,0.5,0,0.8,0c0.3,0,0.6,0,0.8-0.1c0.7-0.1,1.3-0.4,1.7-0.9s0.7-1,0.9-1.7
			c0.2-0.7,0.3-1.4,0.3-2.2c0-0.8-0.1-1.5-0.3-2.2c-0.2-0.7-0.5-1.3-1-1.7c-0.4-0.5-1-0.8-1.7-0.9c-0.2,0-0.5-0.1-0.8-0.1
			c-0.3,0-0.6,0-0.8,0h-2.2V27.3z"/>
		<path class="st0" d="M207.1,29.2V19h1.8v2.5l-0.2-0.3c0.1-0.3,0.3-0.6,0.5-0.9c0.2-0.3,0.4-0.5,0.7-0.7c0.3-0.2,0.5-0.3,0.9-0.4
			c0.3-0.1,0.6-0.2,1-0.2c0.3,0,0.7,0,1,0.1v1.8c-0.3-0.1-0.7-0.1-1.1-0.1s-0.8,0.2-1.1,0.4c-0.3,0.2-0.6,0.5-0.8,0.8
			s-0.3,0.6-0.4,1c-0.1,0.4-0.1,0.7-0.1,1.1v5.1H207.1z"/>
		<path class="st0" d="M214.6,17.3v-1.9h2v1.9H214.6z M214.6,29.2V19h2v10.2H214.6z"/>
		<path class="st0" d="M222.1,29.2L218.5,19h2l2.7,7.7l2.7-7.7h2l-3.7,10.2H222.1z"/>
		<path class="st0" d="M233.7,29.5c-1,0-1.9-0.2-2.7-0.7c-0.8-0.4-1.4-1.1-1.8-1.9c-0.4-0.8-0.6-1.7-0.6-2.8c0-1.1,0.2-2.1,0.6-2.9
			c0.4-0.8,1-1.4,1.7-1.9c0.7-0.4,1.6-0.7,2.6-0.7c1,0,1.9,0.2,2.6,0.7c0.7,0.5,1.3,1.2,1.6,2c0.4,0.9,0.5,1.9,0.4,3.2h-2v-0.7
			c0-1.2-0.2-2.1-0.7-2.6c-0.4-0.6-1.1-0.8-2-0.8c-1,0-1.7,0.3-2.2,0.9s-0.7,1.5-0.7,2.7c0,1.1,0.2,2,0.7,2.6
			c0.5,0.6,1.2,0.9,2.1,0.9c0.6,0,1.1-0.1,1.6-0.4c0.4-0.3,0.8-0.7,1.1-1.2l1.9,0.6c-0.4,0.9-1,1.6-1.8,2.1
			C235.5,29.2,234.6,29.5,233.7,29.5z M230,24.6v-1.5h7.3v1.5H230z"/>
		<path class="st0" d="M138.6,51.8V38.2h1.8l4.9,10.2l4.9-10.2h1.8v13.6h-1.9v-9.3l-4.4,9.3h-0.9l-4.4-9.3v9.3H138.6z"/>
		<path class="st0" d="M159,52.1c-1,0-1.9-0.2-2.6-0.7c-0.7-0.5-1.3-1.1-1.7-1.9c-0.4-0.8-0.6-1.7-0.6-2.8c0-1.1,0.2-2,0.6-2.8
			s1-1.4,1.7-1.9c0.7-0.4,1.6-0.7,2.6-0.7c1,0,1.9,0.2,2.6,0.7c0.7,0.5,1.3,1.1,1.7,1.9s0.6,1.7,0.6,2.8c0,1.1-0.2,2-0.6,2.8
			s-1,1.4-1.7,1.9S160,52.1,159,52.1z M159,50.2c1,0,1.7-0.3,2.2-1s0.7-1.5,0.7-2.5c0-1.1-0.2-1.9-0.7-2.5c-0.5-0.6-1.2-1-2.2-1
			c-0.7,0-1.2,0.1-1.6,0.4c-0.4,0.3-0.7,0.7-1,1.2c-0.2,0.5-0.3,1.1-0.3,1.8c0,1.1,0.2,1.9,0.7,2.6C157.3,49.9,158.1,50.2,159,50.2z
			"/>
		<path class="st0" d="M164.9,43.2v-1.6h7v1.6H164.9z M171.9,51.8c-0.6,0.1-1.3,0.2-1.9,0.2s-1.2-0.1-1.6-0.4
			c-0.5-0.2-0.8-0.6-1.1-1c-0.2-0.4-0.3-0.8-0.4-1.3c0-0.4,0-0.9,0-1.5v-9h2v8.9c0,0.4,0,0.8,0,1.1c0,0.3,0.1,0.6,0.2,0.8
			c0.2,0.4,0.6,0.6,1.1,0.7c0.5,0.1,1.1,0,1.7-0.1V51.8z"/>
		<path class="st0" d="M178,52.1c-1,0-1.9-0.2-2.6-0.7c-0.7-0.5-1.3-1.1-1.7-1.9c-0.4-0.8-0.6-1.7-0.6-2.8c0-1.1,0.2-2,0.6-2.8
			s1-1.4,1.7-1.9c0.7-0.4,1.6-0.7,2.6-0.7c1,0,1.9,0.2,2.6,0.7c0.7,0.5,1.3,1.1,1.7,1.9s0.6,1.7,0.6,2.8c0,1.1-0.2,2-0.6,2.8
			s-1,1.4-1.7,1.9S179,52.1,178,52.1z M178,50.2c1,0,1.7-0.3,2.2-1s0.7-1.5,0.7-2.5c0-1.1-0.2-1.9-0.7-2.5c-0.5-0.6-1.2-1-2.2-1
			c-0.7,0-1.2,0.1-1.6,0.4c-0.4,0.3-0.7,0.7-1,1.2c-0.2,0.5-0.3,1.1-0.3,1.8c0,1.1,0.2,1.9,0.7,2.6C176.3,49.9,177,50.2,178,50.2z"
			/>
		<path class="st0" d="M185,51.8V41.6h1.8v2.5l-0.2-0.3c0.1-0.3,0.3-0.6,0.5-0.9c0.2-0.3,0.4-0.5,0.7-0.7c0.3-0.2,0.5-0.3,0.9-0.4
			c0.3-0.1,0.6-0.2,1-0.2c0.3,0,0.7,0,1,0.1v1.8c-0.3-0.1-0.7-0.1-1.1-0.1c-0.4,0-0.8,0.2-1.1,0.4c-0.3,0.2-0.6,0.5-0.8,0.8
			s-0.3,0.6-0.4,1c-0.1,0.4-0.1,0.7-0.1,1.1v5.1H185z"/>
		<path class="st0" d="M195.8,52c-1.2,0-2.2-0.3-3-0.8c-0.8-0.5-1.3-1.3-1.4-2.3l2-0.3c0.1,0.5,0.4,0.9,0.9,1.2
			c0.5,0.3,1,0.5,1.7,0.5c0.6,0,1.1-0.1,1.4-0.4c0.3-0.3,0.5-0.6,0.5-1c0-0.3-0.1-0.5-0.2-0.6c-0.1-0.2-0.4-0.3-0.8-0.5
			c-0.4-0.1-1-0.3-1.8-0.5c-0.9-0.2-1.6-0.5-2.1-0.7s-0.9-0.6-1.1-0.9c-0.2-0.3-0.3-0.8-0.3-1.3c0-0.6,0.2-1.2,0.5-1.6
			c0.3-0.5,0.8-0.8,1.4-1.1c0.6-0.3,1.3-0.4,2.1-0.4c0.8,0,1.5,0.1,2.1,0.4c0.6,0.2,1.1,0.6,1.5,1c0.4,0.4,0.6,1,0.7,1.6l-2,0.4
			c-0.1-0.5-0.3-0.9-0.7-1.2c-0.4-0.3-0.9-0.4-1.5-0.5c-0.6,0-1.1,0.1-1.5,0.3c-0.4,0.2-0.6,0.5-0.6,0.9c0,0.2,0.1,0.4,0.2,0.6
			c0.1,0.2,0.4,0.3,0.8,0.5c0.4,0.1,1,0.3,1.8,0.5c0.9,0.2,1.5,0.5,2,0.7c0.5,0.3,0.9,0.6,1.1,1s0.3,0.8,0.3,1.3
			c0,1-0.4,1.8-1.1,2.4S197.1,52,195.8,52z"/>
	</g>
	<g>
		<path class="st0" d="M116.6,18.5c-2-5-4.8-9-8.7-12.2c-3.8-3.2-8.5-5.2-14-5.9c-1.6-0.2-3.3-0.3-5-0.3c-1.7,0-2.9,0-3.4,0H63.4v11
			h11.8H82h3.5c1,0,2.2,0,3.7,0.1s2.8,0.2,4,0.5c3.2,0.6,5.9,2,7.9,4.3c2.1,2.3,3.6,5,4.6,8.3c1,3.3,1.5,6.9,1.5,10.6
			c0,3.6-0.5,7.1-1.5,10.4c-1,3.3-2.5,6.1-4.6,8.4c-2.1,2.3-4.7,3.8-8,4.4c-1.2,0.2-2.5,0.4-4,0.4c-1.5,0.1-2.7,0.1-3.7,0.1H82h-6.8
			H63.4v11h22.1c0.6,0,1.7,0,3.5,0c1.7,0,3.4-0.1,5-0.3c5.5-0.7,10.2-2.7,14-5.9c3.8-3.2,6.7-7.3,8.7-12.2c2-5,2.9-10.4,2.9-16.3
			C119.5,28.9,118.6,23.4,116.6,18.5z"/>
		<path class="st0" d="M1.9,12.2C3.2,9,5.1,6.4,7.7,4.4c2.6-2.1,5.9-3.4,10-4c0.9-0.2,1.9-0.3,2.9-0.3S22.6,0,23.3,0L52,0v11
			l-28.2,0c-0.6,0-1.4,0-2.2,0.1c-0.8,0-1.5,0.2-2.2,0.4c-1.9,0.5-3.4,1.3-4.6,2.6s-1.9,2.6-2.4,4.2c-0.5,1.6-0.7,3.1-0.7,4.6
			c0,1.5,0.2,3,0.7,4.5c0.5,1.5,1.3,2.9,2.4,4.1c1.1,1.2,2.6,2.1,4.6,2.6c0.7,0.2,1.4,0.3,2.2,0.4c0.8,0.1,1.5,0.1,2.2,0.1H52v35.1
			H40.3V45.2H23.3c-0.6,0-1.5,0-2.6-0.1c-1.1-0.1-2.1-0.2-3-0.3c-4-0.6-7.3-1.9-9.9-4c-2.6-2.1-4.6-4.7-5.9-7.8
			C0.6,29.9,0,26.4,0,22.6C0,18.8,0.6,15.3,1.9,12.2z"/>
	</g>
</g>
<g>
</g>
<g>
</g>
<g>
</g>
<g>
</g>
<g>
</g>
<g>
</g>
<g>
</g>
<g>
</g>
<g>
</g>
<g>
</g>
<g>
</g>
<g>
</g>
<g>
</g>
<g>
</g>
<g>
</g>
</svg>
