<?xml version="1.0" encoding="utf-8"?>
<!-- Generator: Adobe Illustrator 24.0.2, SVG Export Plug-In . SVG Version: 6.00 Build 0)  -->
<svg version="1.1" id="Layer_1" xmlns="http://www.w3.org/2000/svg" xmlns:xlink="http://www.w3.org/1999/xlink" x="0px" y="0px"
	 viewBox="0 0 66.05 38.4" style="enable-background:new 0 0 66.05 38.4;" xml:space="preserve">
<style type="text/css">
	.st0{fill:#2A2C1F;}
	.st1{fill:#62736D;}
</style>
<g>
	<path class="st0" d="M64.4,10.2c-1.1-2.7-2.7-5-4.8-6.8s-4.7-2.8-7.7-3.2C51,0.1,50.1,0,49.2,0c-1,0-1.6,0-1.9,0H35v6.1h6.5h3.8
		h1.9c0.5,0,1.2,0,2,0s1.6,0.1,2.2,0.3c1.8,0.3,3.2,1.1,4.4,2.4c1.1,1.2,2,2.8,2.5,4.6c0.6,1.8,0.8,3.8,0.8,5.9c0,2-0.3,3.9-0.8,5.8
		c-0.5,1.8-1.4,3.4-2.5,4.7c-1.1,1.3-2.6,2.1-4.4,2.4c-0.6,0.1-1.4,0.2-2.2,0.2s-1.5,0.1-2,0.1h-1.9h-3.8H35v6.1h12.2
		c0.3,0,1,0,1.9,0c1,0,1.9-0.1,2.7-0.2c3-0.4,5.6-1.5,7.7-3.2c2.1-1.8,3.7-4,4.8-6.8c1.1-2.7,1.6-5.7,1.6-9
		C66.1,15.9,65.5,12.9,64.4,10.2z"/>
	<path class="st1" d="M1.1,6.7C1.8,5,2.8,3.6,4.3,2.4c1.4-1.1,3.3-1.9,5.5-2.2c0.5-0.1,1-0.1,1.6-0.2c0.6,0,1.1,0,1.4,0h15.9v6.1
		L13.1,6c-0.4,0-0.8,0-1.2,0S11,6.1,10.7,6.2C9.6,6.5,8.8,7,8.2,7.7s-1,1.4-1.3,2.3c-0.3,0.9-0.4,1.7-0.4,2.5s0.1,1.7,0.4,2.5
		s0.7,1.6,1.3,2.3c0.6,0.7,1.5,1.1,2.5,1.4c0.4,0.1,0.8,0.2,1.2,0.2s0.8,0.1,1.2,0.1h15.6v19.4h-6.4V25h-9.4c-0.4,0-0.8,0-1.4-0.1
		c-0.6,0-1.1-0.1-1.6-0.2c-2.2-0.3-4-1.1-5.5-2.2c-1.4-1.1-2.5-2.6-3.2-4.3C0.4,16.5,0,14.6,0,12.5S0.4,8.5,1.1,6.7z"/>
</g>
</svg>
