<?xml version="1.0" encoding="utf-8"?>
<!-- Generator: Adobe Illustrator 26.3.1, SVG Export Plug-In . SVG Version: 6.00 Build 0)  -->
<svg version="1.1" id="Layer_1" xmlns="http://www.w3.org/2000/svg" xmlns:xlink="http://www.w3.org/1999/xlink" x="0px" y="0px"
	 viewBox="0 0 132.1 38.4" style="enable-background:new 0 0 132.1 38.4;" xml:space="preserve">
<style type="text/css">
	.st0{fill:#62736D;}
	.st1{fill:#2A2C1F;}
</style>
<g>
	<g>
		<path class="st0" d="M76.6,16.1V8.6h3c0.1,0,0.2,0,0.3,0s0.2,0,0.3,0c0.4,0.1,0.8,0.2,1,0.4c0.3,0.2,0.5,0.5,0.6,0.8
			S82,10.6,82,11c0,0.4-0.1,0.8-0.2,1.1s-0.3,0.6-0.6,0.8c-0.3,0.2-0.6,0.4-1,0.4c-0.1,0-0.2,0-0.3,0c-0.1,0-0.2,0-0.3,0h-1.9v2.7
			H76.6z M77.7,12.4h1.9c0.1,0,0.1,0,0.2,0s0.2,0,0.2,0c0.2-0.1,0.4-0.1,0.5-0.3c0.1-0.1,0.2-0.3,0.3-0.5c0.1-0.2,0.1-0.4,0.1-0.6
			s0-0.4-0.1-0.5c-0.1-0.2-0.2-0.3-0.3-0.5c-0.1-0.1-0.3-0.2-0.5-0.3c-0.1,0-0.2,0-0.2,0s-0.2,0-0.2,0h-1.9V12.4z"/>
		<path class="st0" d="M83.1,16.1v-5.6h1v1.4l-0.1-0.2c0.1-0.2,0.2-0.3,0.3-0.5c0.1-0.2,0.2-0.3,0.4-0.4c0.1-0.1,0.3-0.2,0.5-0.2
			c0.2-0.1,0.4-0.1,0.5-0.1s0.4,0,0.5,0v1c-0.2,0-0.4-0.1-0.6,0c-0.2,0-0.4,0.1-0.6,0.2c-0.2,0.1-0.3,0.3-0.4,0.4s-0.2,0.3-0.2,0.5
			c0,0.2-0.1,0.4-0.1,0.6v2.8H83.1z"/>
		<path class="st0" d="M87.2,9.6V8.5h1.1v1.1H87.2z M87.2,16.1v-5.6h1.1v5.6H87.2z"/>
		<path class="st0" d="M89.9,16.1v-5.6h1v1.6H91v4H89.9z M93.2,16.1l0-3.5c0-0.4-0.1-0.7-0.3-1c-0.2-0.2-0.5-0.3-0.8-0.3
			c-0.3,0-0.6,0.1-0.8,0.4S91,12.2,91,12.6l-0.5-0.3c0-0.4,0.1-0.7,0.3-1c0.2-0.3,0.4-0.5,0.7-0.7s0.6-0.2,1-0.2
			c0.4,0,0.7,0.1,1,0.3c0.3,0.2,0.5,0.4,0.6,0.7s0.2,0.7,0.2,1.1l0,3.8H93.2z M96.6,16.1l0-3.5c0-0.4-0.1-0.7-0.3-0.9
			s-0.5-0.3-0.8-0.3c-0.2,0-0.4,0-0.6,0.1c-0.2,0.1-0.3,0.2-0.4,0.4s-0.2,0.4-0.2,0.7l-0.5-0.3c0-0.4,0.1-0.7,0.3-1
			c0.2-0.3,0.4-0.5,0.7-0.7c0.3-0.2,0.6-0.2,1-0.2c0.6,0,1.1,0.2,1.4,0.5s0.5,0.8,0.5,1.5l0,3.8H96.6z"/>
		<path class="st0" d="M101.5,16.3c-0.6,0-1-0.1-1.5-0.4c-0.4-0.2-0.7-0.6-1-1s-0.4-0.9-0.4-1.5c0-0.6,0.1-1.1,0.3-1.6
			c0.2-0.5,0.6-0.8,1-1c0.4-0.2,0.9-0.4,1.4-0.4c0.6,0,1.1,0.1,1.5,0.4c0.4,0.3,0.7,0.6,0.9,1.1s0.3,1.1,0.2,1.7h-1.1v-0.4
			c0-0.7-0.1-1.1-0.4-1.4c-0.2-0.3-0.6-0.5-1.1-0.5c-0.5,0-1,0.2-1.2,0.5c-0.3,0.3-0.4,0.8-0.4,1.5c0,0.6,0.1,1.1,0.4,1.4
			c0.3,0.3,0.7,0.5,1.2,0.5c0.3,0,0.6-0.1,0.9-0.2s0.4-0.4,0.6-0.7l1.1,0.3c-0.2,0.5-0.5,0.9-1,1.2C102.5,16.1,102,16.3,101.5,16.3z
			 M99.5,13.6v-0.8h4v0.8H99.5z"/>
		<path class="st0" d="M107.3,16.1V8.6h2.3c0.1,0,0.2,0,0.4,0s0.4,0,0.5,0c0.6,0.1,1.1,0.3,1.5,0.6c0.4,0.3,0.7,0.8,0.9,1.3
			c0.2,0.5,0.3,1.1,0.3,1.8c0,0.6-0.1,1.2-0.3,1.8c-0.2,0.5-0.5,1-0.9,1.3s-0.9,0.6-1.5,0.6c-0.2,0-0.4,0-0.5,0c-0.2,0-0.3,0-0.4,0
			H107.3z M108.4,15.1h1.2c0.1,0,0.3,0,0.4,0s0.3,0,0.4,0c0.4-0.1,0.7-0.2,0.9-0.5s0.4-0.6,0.5-1c0.1-0.4,0.2-0.8,0.2-1.2
			c0-0.4-0.1-0.8-0.2-1.2c-0.1-0.4-0.3-0.7-0.5-0.9c-0.2-0.3-0.5-0.4-0.9-0.5c-0.1,0-0.3,0-0.4,0c-0.2,0-0.3,0-0.4,0h-1.2V15.1z"/>
		<path class="st0" d="M114.5,16.1v-5.6h1v1.4l-0.1-0.2c0.1-0.2,0.2-0.3,0.3-0.5c0.1-0.2,0.2-0.3,0.4-0.4c0.1-0.1,0.3-0.2,0.5-0.2
			c0.2-0.1,0.4-0.1,0.5-0.1s0.4,0,0.5,0v1c-0.2,0-0.4-0.1-0.6,0c-0.2,0-0.4,0.1-0.6,0.2c-0.2,0.1-0.3,0.3-0.4,0.4s-0.2,0.3-0.2,0.5
			c0,0.2-0.1,0.4-0.1,0.6v2.8H114.5z"/>
		<path class="st0" d="M118.6,9.6V8.5h1.1v1.1H118.6z M118.6,16.1v-5.6h1.1v5.6H118.6z"/>
		<path class="st0" d="M122.7,16.1l-2-5.6h1.1l1.5,4.3l1.5-4.3h1.1l-2,5.6H122.7z"/>
		<path class="st0" d="M129.1,16.3c-0.6,0-1-0.1-1.5-0.4c-0.4-0.2-0.7-0.6-1-1s-0.4-0.9-0.4-1.5c0-0.6,0.1-1.1,0.3-1.6
			c0.2-0.5,0.6-0.8,1-1c0.4-0.2,0.9-0.4,1.4-0.4c0.6,0,1.1,0.1,1.5,0.4c0.4,0.3,0.7,0.6,0.9,1.1s0.3,1.1,0.2,1.7h-1.1v-0.4
			c0-0.7-0.1-1.1-0.4-1.4c-0.2-0.3-0.6-0.5-1.1-0.5c-0.5,0-1,0.2-1.2,0.5c-0.3,0.3-0.4,0.8-0.4,1.5c0,0.6,0.1,1.1,0.4,1.4
			c0.3,0.3,0.7,0.5,1.2,0.5c0.3,0,0.6-0.1,0.9-0.2s0.4-0.4,0.6-0.7l1.1,0.3c-0.2,0.5-0.5,0.9-1,1.2
			C130.1,16.1,129.7,16.3,129.1,16.3z M127.1,13.6v-0.8h4v0.8H127.1z"/>
		<path class="st0" d="M76.6,28.6v-7.5h1l2.7,5.6l2.7-5.6h1v7.5h-1v-5.1l-2.4,5.1H80l-2.4-5.1v5.1H76.6z"/>
		<path class="st0" d="M87.9,28.8c-0.6,0-1-0.1-1.5-0.4c-0.4-0.3-0.7-0.6-1-1c-0.2-0.4-0.3-1-0.3-1.5c0-0.6,0.1-1.1,0.3-1.5
			c0.2-0.4,0.5-0.8,1-1c0.4-0.2,0.9-0.4,1.4-0.4c0.6,0,1,0.1,1.5,0.4c0.4,0.3,0.7,0.6,1,1c0.2,0.4,0.3,1,0.3,1.5
			c0,0.6-0.1,1.1-0.3,1.5c-0.2,0.4-0.5,0.8-1,1C88.9,28.6,88.4,28.8,87.9,28.8z M87.9,27.7c0.5,0,0.9-0.2,1.2-0.5
			c0.3-0.4,0.4-0.8,0.4-1.4c0-0.6-0.1-1.1-0.4-1.4s-0.7-0.5-1.2-0.5c-0.4,0-0.7,0.1-0.9,0.2c-0.2,0.2-0.4,0.4-0.5,0.7
			c-0.1,0.3-0.2,0.6-0.2,1c0,0.6,0.1,1.1,0.4,1.4C86.9,27.6,87.3,27.7,87.9,27.7z"/>
		<path class="st0" d="M91.1,23.9V23H95v0.9H91.1z M95,28.6c-0.4,0.1-0.7,0.1-1,0.1c-0.3,0-0.6-0.1-0.9-0.2
			c-0.3-0.1-0.5-0.3-0.6-0.6c-0.1-0.2-0.2-0.5-0.2-0.7s0-0.5,0-0.8v-5h1.1v4.9c0,0.2,0,0.4,0,0.6c0,0.2,0,0.3,0.1,0.4
			c0.1,0.2,0.3,0.3,0.6,0.4c0.3,0,0.6,0,1,0V28.6z"/>
		<path class="st0" d="M98.3,28.8c-0.6,0-1-0.1-1.5-0.4c-0.4-0.3-0.7-0.6-1-1c-0.2-0.4-0.3-1-0.3-1.5c0-0.6,0.1-1.1,0.3-1.5
			c0.2-0.4,0.5-0.8,1-1c0.4-0.2,0.9-0.4,1.4-0.4c0.6,0,1,0.1,1.5,0.4c0.4,0.3,0.7,0.6,1,1c0.2,0.4,0.3,1,0.3,1.5
			c0,0.6-0.1,1.1-0.3,1.5c-0.2,0.4-0.5,0.8-1,1C99.4,28.6,98.9,28.8,98.3,28.8z M98.3,27.7c0.5,0,0.9-0.2,1.2-0.5
			c0.3-0.4,0.4-0.8,0.4-1.4c0-0.6-0.1-1.1-0.4-1.4s-0.7-0.5-1.2-0.5c-0.4,0-0.7,0.1-0.9,0.2c-0.2,0.2-0.4,0.4-0.5,0.7
			c-0.1,0.3-0.2,0.6-0.2,1c0,0.6,0.1,1.1,0.4,1.4C97.4,27.6,97.8,27.7,98.3,27.7z"/>
		<path class="st0" d="M102.2,28.6V23h1v1.4l-0.1-0.2c0.1-0.2,0.2-0.3,0.3-0.5c0.1-0.2,0.2-0.3,0.4-0.4c0.1-0.1,0.3-0.2,0.5-0.2
			c0.2-0.1,0.4-0.1,0.5-0.1s0.4,0,0.5,0v1c-0.2,0-0.4-0.1-0.6,0c-0.2,0-0.4,0.1-0.6,0.2c-0.2,0.1-0.3,0.3-0.4,0.4s-0.2,0.3-0.2,0.5
			c0,0.2-0.1,0.4-0.1,0.6v2.8H102.2z"/>
		<path class="st0" d="M108.2,28.8c-0.7,0-1.2-0.2-1.7-0.5c-0.4-0.3-0.7-0.7-0.8-1.3l1.1-0.2c0.1,0.3,0.2,0.5,0.5,0.7
			c0.3,0.2,0.6,0.3,0.9,0.3c0.3,0,0.6-0.1,0.8-0.2s0.3-0.3,0.3-0.6c0-0.1,0-0.3-0.1-0.3c-0.1-0.1-0.2-0.2-0.4-0.3
			c-0.2-0.1-0.5-0.2-1-0.3c-0.5-0.1-0.9-0.3-1.1-0.4c-0.3-0.1-0.5-0.3-0.6-0.5c-0.1-0.2-0.2-0.4-0.2-0.7c0-0.3,0.1-0.6,0.3-0.9
			c0.2-0.3,0.4-0.4,0.8-0.6c0.3-0.1,0.7-0.2,1.2-0.2c0.4,0,0.8,0.1,1.1,0.2c0.3,0.1,0.6,0.3,0.8,0.6s0.3,0.5,0.4,0.9l-1.1,0.2
			c0-0.3-0.2-0.5-0.4-0.6s-0.5-0.2-0.8-0.3c-0.3,0-0.6,0-0.8,0.2c-0.2,0.1-0.3,0.3-0.3,0.5c0,0.1,0,0.2,0.1,0.3s0.2,0.2,0.5,0.2
			c0.2,0.1,0.6,0.2,1,0.3c0.5,0.1,0.8,0.3,1.1,0.4c0.3,0.1,0.5,0.3,0.6,0.5c0.1,0.2,0.2,0.4,0.2,0.7c0,0.6-0.2,1-0.6,1.3
			C109.5,28.6,108.9,28.8,108.2,28.8z"/>
	</g>
	<g>
		<path class="st1" d="M64.4,10.2c-1.1-2.7-2.7-5-4.8-6.8c-2.1-1.8-4.7-2.8-7.7-3.2C51,0.1,50.1,0,49.2,0c-1,0-1.6,0-1.9,0H35v6.1
			h6.5h3.8h1.9c0.5,0,1.2,0,2,0c0.8,0,1.6,0.1,2.2,0.3c1.8,0.3,3.2,1.1,4.4,2.4c1.1,1.2,2,2.8,2.5,4.6c0.6,1.8,0.8,3.8,0.8,5.9
			c0,2-0.3,3.9-0.8,5.8c-0.5,1.8-1.4,3.4-2.5,4.7c-1.1,1.3-2.6,2.1-4.4,2.4c-0.6,0.1-1.4,0.2-2.2,0.2c-0.8,0-1.5,0.1-2,0.1h-1.9
			h-3.8H35v6.1h12.2c0.3,0,1,0,1.9,0c1,0,1.9-0.1,2.7-0.2c3-0.4,5.6-1.5,7.7-3.2c2.1-1.8,3.7-4,4.8-6.8c1.1-2.7,1.6-5.7,1.6-9
			C66.1,15.9,65.5,12.9,64.4,10.2z"/>
		<path class="st0" d="M1.1,6.7C1.8,5,2.8,3.6,4.3,2.4c1.4-1.1,3.3-1.9,5.5-2.2c0.5-0.1,1-0.1,1.6-0.2c0.6,0,1.1,0,1.4,0l15.9,0v6.1
			L13.1,6c-0.4,0-0.8,0-1.2,0c-0.4,0-0.9,0.1-1.2,0.2C9.6,6.5,8.8,7,8.2,7.7c-0.6,0.7-1,1.4-1.3,2.3c-0.3,0.9-0.4,1.7-0.4,2.5
			c0,0.8,0.1,1.7,0.4,2.5s0.7,1.6,1.3,2.3c0.6,0.7,1.5,1.1,2.5,1.4c0.4,0.1,0.8,0.2,1.2,0.2c0.4,0,0.8,0.1,1.2,0.1h15.6v19.4h-6.4
			V25h-9.4c-0.4,0-0.8,0-1.4-0.1c-0.6,0-1.1-0.1-1.6-0.2c-2.2-0.3-4-1.1-5.5-2.2c-1.4-1.1-2.5-2.6-3.2-4.3C0.4,16.5,0,14.6,0,12.5
			C0,10.4,0.4,8.5,1.1,6.7z"/>
	</g>
</g>
<g>
</g>
<g>
</g>
<g>
</g>
<g>
</g>
<g>
</g>
<g>
</g>
<g>
</g>
<g>
</g>
<g>
</g>
<g>
</g>
<g>
</g>
<g>
</g>
<g>
</g>
<g>
</g>
<g>
</g>
</svg>
