<?xml version="1.0" encoding="utf-8"?>
<!-- Generator: Adobe Illustrator 26.3.1, SVG Export Plug-In . SVG Version: 6.00 Build 0)  -->
<svg version="1.1" id="Layer_1" xmlns="http://www.w3.org/2000/svg" xmlns:xlink="http://www.w3.org/1999/xlink" x="0px" y="0px"
	 viewBox="0 0 556.5 291.8" style="enable-background:new 0 0 556.5 291.8;" xml:space="preserve">
<style type="text/css">
	.st0{fill:#1A6979;}
	.st1{fill:#8CB3C4;}
</style>
<path class="st1" d="M295.3,38.5c0-11,4-20.2,12-27.5c8-7.3,18.7-11,32.2-11c11.7,0,21.2,3,28.4,9c7.2,6,10.8,13.7,10.8,23
	c0,11.7-4.1,21.4-12.2,28.9c-8.1,7.5-18.9,11.3-32.3,11.3c-12,0-21.4-3.3-28.4-9.9C298.7,55.8,295.3,47.8,295.3,38.5z M291,93.4
	l-38.8,195.1h67.9l39.2-195.1H291z M518.1,180c-7.4-3.6-15.5-6.3-24.3-8.1c-8.7-1.8-16.9-3.4-24.4-4.9c-7.5-1.4-13.8-3.1-18.7-5
	c-4.9-1.9-7.4-4.8-7.4-8.6c0-3.8,2.4-7.1,7.2-9.9c4.8-2.8,12.8-4.1,24.1-4.1c8.6,0,18,1,28.2,2.9c10.2,1.9,20.1,5.8,29.6,11.5
	l24.1-47.8c-9.6-5-20.8-8.9-33.8-11.7c-12.9-2.8-26.4-4.1-40.2-4.1c-19.6,0-37.3,2.7-53,8.1c-15.7,5.4-28.1,13.4-37.2,23.9
	c-9.1,10.5-13.7,23.6-13.7,39.2c0,11,2.4,19.8,7.2,26.4c4.8,6.6,11,11.7,18.7,15.5c7.7,3.7,15.8,6.5,24.4,8.3s16.8,3.3,24.4,4.5
	c7.7,1.2,14,2.7,18.9,4.5c4.9,1.8,7.4,4.6,7.4,8.4c0,4.1-2.4,7.5-7.2,10.2c-4.8,2.8-12.8,4.1-24.1,4.1c-11.5,0-23.4-1.6-35.6-4.7
	c-12.2-3.1-22.9-7.7-32-13.7L356,272.8c8.4,5.3,20.2,9.8,35.6,13.5c15.3,3.7,31.5,5.6,48.5,5.6c19.6,0,37.3-2.6,52.8-7.7
	c15.6-5.1,28-13,37.2-23.5c9.2-10.5,13.8-23.6,13.8-39.2c0-11-2.5-19.8-7.4-26.2C531.7,188.7,525.5,183.6,518.1,180z M125.6,240.6
	c-30-7.8-34.5-29-34-33.5c0,0,0,0,0,0c15.7,5,33.2,8.3,52.4,8.3c90.5,0,134.6-87,60.6-115.9C130.6,70.6,77,118.2,77,118.2
	c13.2,15.8,28.6,23.4,47.6,30.8c25.7-14,52.3-9.5,55.6,0.5c1.5,9-12.4,17.6-42.1,15.9c-55.1-2.7-89.2-51.9-89.2-51.9L0,144
	c0,0,12.7,17,36.2,34.4c0,0,0,0,0,0s-30.8,102,93,113.1c57.5,4.2,98-32.2,98-32.2l-43.8-31.1C183.5,228.1,155.6,248.4,125.6,240.6z"
	/>
</svg>
