<?xml version="1.0" encoding="utf-8"?>
<!-- Generator: Adobe Illustrator 24.0.2, SVG Export Plug-In . SVG Version: 6.00 Build 0)  -->
<svg version="1.1" id="Layer_1" xmlns="http://www.w3.org/2000/svg" xmlns:xlink="http://www.w3.org/1999/xlink" x="0px" y="0px"
	 viewBox="0 0 303.11 303.11" style="enable-background:new 0 0 303.11 303.11;" xml:space="preserve">
<style type="text/css">
	.st0{fill:#E5EBF8;}
	.st1{opacity:0.8;}
	.st2{fill:#00D4D9;}
	.st3{fill:url(#SVGID_1_);}
	.st4{fill:url(#SVGID_2_);}
	.st5{fill:#FFFFFF;}
	.st6{fill:none;stroke:#000000;stroke-miterlimit:10;}
</style>
<path class="st0" d="M245.75,151.56c6.16,0,10.64,5.79,9.17,11.78c-2.07,8.33-6.36,16.2-12.85,22.72
	c-16.73,16.73-42.6,18.77-61.57,6.09c-2.61-1.74-5.09-3.78-7.39-6.09c-0.03-0.03-0.03-0.03-0.07-0.07
	c-3.68-3.68-3.65-9.7,0.07-13.38l7.86-7.86l39.82-39.82c-11.08-5.49-24.9-3.61-34.13,5.59l-0.03,0.03l-27.34,27.34l-28.14,28.14
	c-19.04,19.04-49.92,19.04-68.96,0s-19.04-49.92,0-68.96c16.73-16.73,42.6-18.77,61.57-6.09c2.61,1.74,5.09,3.78,7.39,6.09
	c0.03,0.03,0.03,0.03,0.07,0.07c3.68,3.68,3.65,9.7-0.07,13.38l-7.86,7.86l-20.01,20.01c-3.71,3.71-9.74,3.71-13.48,0l0,0
	c-3.71-3.71-3.71-9.74,0-13.48l20.01-20.01c-11.18-5.52-25.1-3.58-34.33,5.79c-11.44,11.58-11.41,30.12,0,41.73
	c11.58,11.74,30.52,11.81,42.16,0.13l55.51-55.45c11.11-11.14,26.3-15.76,40.79-13.89c7.29,0.94,14.42,3.55,20.75,7.8
	c2.61,1.74,5.09,3.78,7.39,6.09c0.03,0.03,0.03,0.03,0.07,0.07c3.68,3.68,3.65,9.7-0.07,13.38l-47.65,47.65
	c11.11,5.49,24.93,3.61,34.16-5.62c3.95-3.95,6.56-8.77,7.83-13.85c1.04-4.22,4.82-7.16,9.17-7.16H245.75L245.75,151.56z"/>
</svg>
