<?xml version="1.0" encoding="utf-8"?>
<!-- Generator: Adobe Illustrator 26.3.1, SVG Export Plug-In . SVG Version: 6.00 Build 0)  -->
<svg version="1.1" id="Layer_1" xmlns="http://www.w3.org/2000/svg" xmlns:xlink="http://www.w3.org/1999/xlink" x="0px" y="0px"
	 viewBox="0 0 359.8 87.8" style="enable-background:new 0 0 359.8 87.8;" xml:space="preserve">
<style type="text/css">
	.st0{fill:#003311;}
	.st1{fill:url(#SVGID_1_);}
</style>
<g>
	<g>
		<path class="st0" d="M227.7,31L227.7,31c0.4,1.6,1.1,2.8,2.2,3.7c1.1,0.9,2.5,1.3,4.3,1.3c2.5,0,4.3-0.7,5.4-2.2h5.9
			c-0.9,2.2-2.3,3.9-4.2,5.2c-2,1.3-4.3,1.9-7,1.9c-1.8,0-3.5-0.3-5-0.9c-1.5-0.6-2.8-1.4-3.9-2.5c-1.1-1.1-1.9-2.3-2.5-3.8
			c-0.6-1.5-0.9-3.1-0.9-4.8c0-1.7,0.3-3.3,0.9-4.8c0.6-1.5,1.4-2.7,2.5-3.8c1.1-1.1,2.4-1.9,3.9-2.5c1.5-0.6,3.1-0.9,5-0.9
			c1.8,0,3.4,0.3,4.9,0.9c1.5,0.6,2.8,1.4,3.8,2.5s1.9,2.3,2.5,3.8c0.6,1.5,0.9,3.1,0.9,4.8V31H227.7z M234.2,22
			c-1.6,0-3,0.4-4.1,1.2c-1.1,0.8-1.9,1.9-2.3,3.3v0.1h12.7v-0.1c-0.4-1.4-1.2-2.5-2.3-3.3C237.1,22.4,235.8,22,234.2,22z"/>
		<path class="st0" d="M266.9,40.4V28.6c0-2.2-0.5-3.8-1.6-4.8c-1-1-2.4-1.6-4.2-1.6c-1.8,0-3.1,0.5-4.2,1.6c-1,1-1.6,2.7-1.6,4.8
			v11.8h-5.5V28.6c0-1.9,0.3-3.6,0.8-5s1.3-2.6,2.3-3.6c1-1,2.2-1.7,3.5-2.2c1.4-0.5,2.9-0.7,4.6-0.7c1.7,0,3.2,0.2,4.6,0.7
			c1.4,0.5,2.6,1.2,3.5,2.2c1,1,1.7,2.2,2.3,3.6c0.5,1.4,0.8,3.1,0.8,5v11.8H266.9z"/>
		<path class="st0" d="M283.2,40.4l-8.9-22.8h6l6.3,17.6h0.1l6.3-17.6h5.9l-8.9,22.8H283.2z"/>
		<path class="st0" d="M305.3,14.9c-1,0-1.9-0.4-2.6-1.1c-0.7-0.7-1.1-1.6-1.1-2.6c0-1,0.4-1.9,1.1-2.6c0.7-0.7,1.6-1.1,2.6-1.1
			c1,0,1.9,0.4,2.6,1.1c0.7,0.7,1,1.6,1,2.6c0,1-0.3,1.9-1,2.6C307.2,14.6,306.3,14.9,305.3,14.9z M302.6,40.4V17.6h5.5v22.8H302.6z
			"/>
		<path class="st0" d="M327.9,27.4v-0.2c0-1.8-0.4-3.1-1.2-3.9c-0.8-0.8-1.9-1.1-3.3-1.1c-1.4,0-2.4,0.4-3.3,1.1
			c-0.8,0.8-1.2,2.1-1.2,3.9v13.2h-5.5V27.2c0-1.7,0.2-3.2,0.7-4.5c0.5-1.3,1.2-2.3,2.1-3.2c0.9-0.8,1.9-1.5,3.2-1.9
			c1.2-0.4,2.6-0.6,4.1-0.6c1.5,0,2.8,0.2,4.1,0.6c1.2,0.4,2.3,1,3.2,1.9c0.9,0.8,1.6,1.9,2,3.2c0.5,1.3,0.7,2.8,0.7,4.5v0.1H327.9z
			"/>
		<path class="st0" d="M359.8,29c0,1.7-0.3,3.3-0.9,4.8c-0.6,1.5-1.4,2.7-2.5,3.8s-2.4,1.9-3.9,2.5c-1.5,0.6-3.2,0.9-4.9,0.9
			c-1.8,0-3.5-0.3-5-0.9c-1.5-0.6-2.8-1.4-3.9-2.5c-1.1-1.1-1.9-2.3-2.5-3.8c-0.6-1.5-0.9-3.1-0.9-4.8c0-1.7,0.3-3.3,0.9-4.8
			c0.6-1.5,1.4-2.7,2.5-3.8c1.1-1.1,2.4-1.9,3.9-2.5c1.5-0.6,3.1-0.9,5-0.9c1.8,0,3.4,0.3,4.9,0.9c1.5,0.6,2.8,1.4,3.9,2.5
			s1.9,2.3,2.5,3.8C359.5,25.7,359.8,27.3,359.8,29z M347.6,35.9c2,0,3.6-0.6,4.9-1.9c1.2-1.3,1.8-2.9,1.8-5s-0.6-3.7-1.8-5
			c-1.2-1.3-2.8-1.9-4.9-1.9c-2,0-3.7,0.6-4.9,1.9c-1.2,1.3-1.8,2.9-1.8,5s0.6,3.7,1.8,5C343.9,35.3,345.6,35.9,347.6,35.9z"/>
		<path class="st0" d="M222.3,70.3v-4.6l13.1-13.3v-0.1H223v-4.8h19.8v4.6l-13.1,13.3v0.1h13.6v4.8H222.3z"/>
		<path class="st0" d="M264.4,66.9L264.4,66.9c-0.8,1.1-1.7,2-2.8,2.7c-1.1,0.6-2.5,1-4,1c-1.3,0-2.6-0.2-3.8-0.7
			c-1.2-0.4-2.3-1.1-3.3-2.1c-1-0.9-1.7-2.1-2.3-3.6c-0.6-1.5-0.9-3.2-0.9-5.2V47.5h5.5v11.6c0,2.2,0.5,3.8,1.6,4.8
			c1,1,2.4,1.6,4.2,1.6c1.7,0,3.1-0.5,4.1-1.6c1.1-1.1,1.6-2.7,1.6-4.8V47.5h5.5v22c0,2-0.3,3.7-0.9,5.1c-0.6,1.4-1.4,2.5-2.4,3.4
			c-1,0.9-2.2,1.5-3.6,2c-1.4,0.4-2.9,0.6-4.4,0.6c-1.3,0-2.6-0.2-3.8-0.5c-1.2-0.3-2.3-0.8-3.2-1.4s-1.8-1.5-2.5-2.4
			c-0.7-1-1.2-2.2-1.5-3.5h5.5c0.9,2.1,2.7,3.1,5.5,3.1c1.9,0,3.3-0.5,4.3-1.5c1-1,1.5-2.6,1.5-4.8V66.9z"/>
		<path class="st0" d="M289.9,70.3v-13c0-1.8-0.4-3.2-1.3-4c-0.9-0.8-2-1.2-3.3-1.2c-1.4,0-2.5,0.4-3.3,1.2c-0.9,0.8-1.3,2.2-1.3,4
			v13h-5.5v-13c0-1.8,0.2-3.3,0.7-4.6c0.5-1.3,1.2-2.4,2-3.2c0.8-0.8,1.9-1.5,3-1.9c1.2-0.4,2.4-0.6,3.8-0.6c1.7,0,3.2,0.3,4.6,1
			c1.3,0.7,2.4,1.7,3.2,3h0.1c0.8-1.3,1.9-2.3,3.2-3c1.3-0.7,2.9-1,4.6-1c1.4,0,2.6,0.2,3.8,0.6c1.2,0.4,2.2,1,3,1.9
			c0.8,0.8,1.5,1.9,2,3.2c0.5,1.3,0.7,2.9,0.7,4.6v13h-5.5v-13c0-1.9-0.4-3.2-1.3-4c-0.9-0.8-2-1.2-3.3-1.2c-1.3,0-2.4,0.4-3.3,1.2
			c-0.9,0.8-1.3,2.2-1.3,4v13H289.9z"/>
		<path class="st0" d="M319.4,60.8L319.4,60.8c0.4,1.6,1.1,2.8,2.2,3.7c1.1,0.9,2.5,1.3,4.3,1.3c2.5,0,4.3-0.7,5.4-2.2h5.9
			c-0.9,2.2-2.3,3.9-4.2,5.2c-2,1.3-4.3,1.9-7,1.9c-1.8,0-3.5-0.3-5-0.9c-1.5-0.6-2.8-1.4-3.9-2.5c-1.1-1.1-1.9-2.3-2.5-3.8
			c-0.6-1.5-0.9-3.1-0.9-4.8c0-1.7,0.3-3.3,0.9-4.8c0.6-1.5,1.4-2.7,2.5-3.8c1.1-1.1,2.4-1.9,3.9-2.5c1.5-0.6,3.1-0.9,5-0.9
			c1.8,0,3.4,0.3,4.9,0.9c1.5,0.6,2.8,1.4,3.8,2.5c1.1,1.1,1.9,2.3,2.5,3.8c0.6,1.5,0.9,3.1,0.9,4.8v1.9H319.4z M325.9,51.9
			c-1.6,0-3,0.4-4.1,1.2c-1.1,0.8-1.9,1.9-2.3,3.3v0.1h12.7v-0.1c-0.4-1.4-1.2-2.5-2.3-3.3C328.8,52.3,327.5,51.9,325.9,51.9z"/>
	</g>
	<linearGradient id="SVGID_1_" gradientUnits="userSpaceOnUse" x1="0" y1="43.9198" x2="186.7622" y2="43.9198">
		<stop  offset="2.226360e-04" style="stop-color:#007A2D"/>
		<stop  offset="0.9996" style="stop-color:#5ED730"/>
	</linearGradient>
	<path class="st1" d="M178.2,43.9c5.5,0,9.6,5.2,8.3,10.6c-1.9,7.5-5.7,14.6-11.6,20.5c-15.1,15.1-38.4,16.9-55.5,5.5
		c-2.4-1.6-4.6-3.4-6.7-5.5c0,0,0,0-0.1-0.1c-3.3-3.3-3.3-8.7,0-12.1l7.1-7.1l35.9-35.9c-10-4.9-22.4-3.3-30.7,5c0,0,0,0,0,0
		l-24.6,24.6L75,75c-17.2,17.2-45,17.2-62.1,0c-17.2-17.2-17.2-45,0-62.1C27.9-2.2,51.2-4,68.3,7.4c2.4,1.6,4.6,3.4,6.7,5.5
		c0,0,0,0,0.1,0.1c3.3,3.3,3.3,8.7,0,12.1l-7.1,7.1l-18,18c-3.4,3.4-8.8,3.4-12.1,0l0,0c-3.4-3.4-3.4-8.8,0-12.1l18-18
		c-10.1-5-22.6-3.2-30.9,5.2c-10.3,10.4-10.3,27.1,0,37.6c10.4,10.6,27.5,10.6,38,0.1l50-50c10-10,23.7-14.2,36.8-12.5
		c6.6,0.9,13,3.2,18.7,7c2.4,1.6,4.6,3.4,6.7,5.5c0,0,0,0,0.1,0.1c3.3,3.3,3.3,8.7,0,12.1L132,67.9c10,4.9,22.5,3.3,30.8-5.1
		c3.6-3.6,5.9-7.9,7.1-12.5c0.9-3.8,4.4-6.5,8.3-6.5H178.2z"/>
</g>
<g>
</g>
<g>
</g>
<g>
</g>
<g>
</g>
<g>
</g>
<g>
</g>
<g>
</g>
<g>
</g>
<g>
</g>
<g>
</g>
<g>
</g>
<g>
</g>
<g>
</g>
<g>
</g>
<g>
</g>
</svg>
