<?xml version="1.0" encoding="utf-8"?>
<!-- Generator: Adobe Illustrator 26.3.1, SVG Export Plug-In . SVG Version: 6.00 Build 0)  -->
<svg version="1.1" id="Layer_1" xmlns="http://www.w3.org/2000/svg" xmlns:xlink="http://www.w3.org/1999/xlink" x="0px" y="0px"
	 viewBox="0 0 619.6 291.4" style="enable-background:new 0 0 619.6 291.4;" xml:space="preserve">
<style type="text/css">
	.st0{fill:#F8F3F1;}
</style>
<path class="st0" d="M591.3,145.7c18.4,0,31.8,17.3,27.4,35.2c-6.2,24.9-19,48.4-38.4,67.9c-50,50-127.3,56.1-184,18.2
	c-7.8-5.2-15.2-11.3-22.1-18.2c-0.1-0.1-0.1-0.1-0.2-0.2c-11-11-10.9-29,0.2-40l23.5-23.5l119-119c-33.1-16.4-74.4-10.8-102,16.7
	c0,0-0.1,0.1-0.1,0.1l-81.7,81.7l-84.1,84.1c-56.9,56.9-149.2,56.9-206.1,0c-56.9-56.9-56.9-149.2,0-206.1
	c50-50,127.3-56.1,184-18.2c7.8,5.2,15.2,11.3,22.1,18.2c0.1,0.1,0.1,0.1,0.2,0.2c11,11,10.9,29-0.2,40l-23.5,23.5l-59.8,59.8
	c-11.1,11.1-29.1,11.1-40.3,0l0,0c-11.1-11.1-11.1-29.1,0-40.3l59.8-59.8c-33.4-16.5-75-10.7-102.6,17.3c-34.2,34.6-34.1,90,0,124.7
	c34.6,35.1,91.2,35.3,126,0.4L374.3,42.7C407.5,9.4,452.9-4.4,496.2,1.2c21.8,2.8,43.1,10.6,62,23.3c7.8,5.2,15.2,11.3,22.1,18.2
	c0.1,0.1,0.1,0.1,0.2,0.2c11,11,10.9,29-0.2,40L437.9,225.3c33.2,16.4,74.5,10.8,102.1-16.8c11.8-11.8,19.6-26.2,23.4-41.4
	c3.1-12.6,14.4-21.4,27.4-21.4H591.3z"/>
<g>
</g>
<g>
</g>
<g>
</g>
<g>
</g>
<g>
</g>
<g>
</g>
<g>
</g>
<g>
</g>
<g>
</g>
<g>
</g>
<g>
</g>
<g>
</g>
<g>
</g>
<g>
</g>
<g>
</g>
</svg>
