<?xml version="1.0" encoding="utf-8"?>
<!-- Generator: Adobe Illustrator 24.0.2, SVG Export Plug-In . SVG Version: 6.00 Build 0)  -->
<svg version="1.1" id="Layer_1" xmlns="http://www.w3.org/2000/svg" xmlns:xlink="http://www.w3.org/1999/xlink" x="0px" y="0px"
	 viewBox="0 0 186.74 87.88" style="enable-background:new 0 0 186.74 87.88;" xml:space="preserve">
<style type="text/css">
	.st0{fill:url(#SVGID_1_);}
</style>
<linearGradient id="SVGID_1_" gradientUnits="userSpaceOnUse" x1="0" y1="46.2141" x2="186.7422" y2="46.2141" gradientTransform="matrix(1 0 0 -1 0 90.1521)">
	<stop  offset="2.226360e-04" style="stop-color:#007A2D"/>
	<stop  offset="0.9996" style="stop-color:#5ED730"/>
</linearGradient>
<path class="st0" d="M178.2,43.88c5.5,0,9.6,5.2,8.3,10.6c-1.9,7.5-5.7,14.6-11.6,20.5c-15.1,15.1-38.4,16.9-55.5,5.5
	c-2.4-1.6-4.6-3.4-6.7-5.5c0,0,0,0-0.1-0.1c-3.3-3.3-3.3-8.7,0-12.1l7.1-7.1l35.9-35.9c-10-4.9-22.4-3.3-30.7,5l0,0l-24.6,24.6
	L75,74.98c-17.2,17.2-45,17.2-62.1,0c-17.2-17.2-17.2-45,0-62.1c15-15.1,38.3-16.9,55.4-5.5c2.4,1.6,4.6,3.4,6.7,5.5
	c0,0,0,0,0.1,0.1c3.3,3.3,3.3,8.7,0,12.1l-7.1,7.1l-18,18c-3.4,3.4-8.8,3.4-12.1,0l0,0c-3.4-3.4-3.4-8.8,0-12.1l18-18
	c-10.1-5-22.6-3.2-30.9,5.2c-10.3,10.4-10.3,27.1,0,37.6c10.4,10.6,27.5,10.6,38,0.1l50-50c10-10,23.7-14.2,36.8-12.5
	c6.6,0.9,13,3.2,18.7,7c2.4,1.6,4.6,3.4,6.7,5.5c0,0,0,0,0.1,0.1c3.3,3.3,3.3,8.7,0,12.1L132,67.88c10,4.9,22.5,3.3,30.8-5.1
	c3.6-3.6,5.9-7.9,7.1-12.5c0.9-3.8,4.4-6.5,8.3-6.5h0V43.88z"/>
<g>
</g>
<g>
</g>
<g>
</g>
<g>
</g>
<g>
</g>
<g>
</g>
<g>
</g>
<g>
</g>
<g>
</g>
<g>
</g>
<g>
</g>
<g>
</g>
<g>
</g>
<g>
</g>
<g>
</g>
</svg>
