<?xml version="1.0" encoding="utf-8"?>
<!-- Generator: Adobe Illustrator 26.3.1, SVG Export Plug-In . SVG Version: 6.00 Build 0)  -->
<svg version="1.1" id="Layer_1" xmlns="http://www.w3.org/2000/svg" xmlns:xlink="http://www.w3.org/1999/xlink" x="0px" y="0px"
	 viewBox="0 0 1921 1871.1" style="enable-background:new 0 0 1921 1871.1;" xml:space="preserve">
<style type="text/css">
	.st0{fill:none;stroke:#000000;stroke-width:2;stroke-miterlimit:10;}
	.st1{fill:#CACACA;}
	.st2{fill:none;stroke:#000000;stroke-miterlimit:10;}
	.st3{fill:none;stroke:#000000;stroke-miterlimit:10;stroke-dasharray:6,6;}
</style>
<g>
	<g>
		<rect x="1102.3" y="629.2" class="st0" width="56.7" height="56.7"/>
		<rect x="1045.6" y="629.2" class="st0" width="56.7" height="56.7"/>
		<rect x="1045.6" y="685.9" class="st0" width="113.3" height="113.3"/>
		<rect x="1159" y="629.3" class="st0" width="170" height="170"/>
		<rect x="1045.6" y="345.9" class="st0" width="283.3" height="283.3"/>
		<rect x="592.3" y="346" class="st0" width="453.3" height="453.3"/>
		<circle class="st0" cx="819" cy="572.6" r="226.7"/>
		<circle class="st0" cx="1187.3" cy="487.6" r="141.6"/>
		<circle class="st0" cx="1244" cy="714.3" r="85"/>
		<circle class="st0" cx="1130.6" cy="657.6" r="28.3"/>
		<circle class="st0" cx="1074" cy="657.6" r="28.3"/>
		<circle class="st0" cx="1102.2" cy="742.6" r="56.7"/>
		<g>
			<g>
				<path d="M1076.4,657.6l8.9,12.2h-3.3l-7.3-10.1l-7.4,10.1h-3.2l8.9-12.2l-8.5-11.7h3.3l6.9,9.6l7-9.6h3.3L1076.4,657.6z"/>
			</g>
		</g>
		<g>
			<g>
				<path d="M1133.7,657.6l8.9,12.2h-3.3l-7.3-10.1l-7.4,10.1h-3.2l8.9-12.2l-8.5-11.7h3.3l6.9,9.6l7-9.6h3.3L1133.7,657.6z"/>
			</g>
		</g>
		<g>
			<g>
				<path d="M1083,732.4c1.1-1.7,3.2-3.9,7.3-3.9c4.8,0,7.6,3.1,7.6,7.4c0,3-1.7,5.1-3.2,6.8l-7.2,7.6h11.1v2.5h-15v-2.1l9-9.5
					c1.4-1.5,2.5-3.1,2.5-5.2c0-2.7-1.8-4.9-5-4.9c-2.7,0-4.2,1.4-5.3,3L1083,732.4z"/>
				<path d="M1113.6,740.4l8.9,12.2h-3.3l-7.3-10.1l-7.4,10.1h-3.2l8.9-12.2l-8.5-11.7h3.3l6.9,9.6l7-9.6h3.3L1113.6,740.4z"/>
			</g>
		</g>
		<g>
			<g>
				<path d="M1236.9,710.1c0,2.8-1.4,4.7-3.7,5.6c2.5,0.9,4.3,2.8,4.3,5.6c0,4.5-4,6.7-8.2,6.7c-3.3,0-6-1.2-7.7-3.1l1.7-1.8
					c1.4,1.5,3.6,2.4,6,2.4c3,0,5.5-1.4,5.5-4.3c0-2.7-2.6-4.3-5.8-4.3h-3.1v-2.4h3.1c3,0,5.2-1.4,5.2-4.3c0-2.6-2.3-4.2-5.3-4.2
					c-2.4,0-4.2,1.2-5.3,2.7l-1.9-1.6c1.4-2,3.9-3.5,7.3-3.5C1233.7,703.6,1236.9,706.2,1236.9,710.1z"/>
				<path d="M1252.6,715.6l8.9,12.2h-3.3l-7.3-10.1l-7.4,10.1h-3.2l8.9-12.2l-8.5-11.7h3.3l6.9,9.6l7-9.6h3.3L1252.6,715.6z"/>
			</g>
		</g>
		<g>
			<g>
				<path d="M1184.2,485.8h-10.5l-0.2,7.1h3.5c5.6,0,8.4,3.2,8.4,7c0,4.9-3.6,7.6-8.2,7.6c-3.4,0-6.1-1.3-8.1-3.7l1.8-1.7
					c1.5,1.8,3.9,2.9,6.3,2.9c3.5,0,5.5-2.2,5.5-4.9c0-2.6-1.7-4.7-6.4-4.7h-5.2l0.3-12.1h12.9v2.5H1184.2z"/>
				<path d="M1200.7,494.9l8.9,12.2h-3.3L1199,497l-7.4,10.1h-3.2l8.9-12.2l-8.5-11.7h3.3l6.9,9.6l7-9.6h3.3L1200.7,494.9z"/>
			</g>
		</g>
		<g>
			<g>
				<path d="M817.6,567.4c0,3-1.8,4.7-4.2,5.6c2.6,0.9,4.7,2.7,4.7,5.7c0,4.3-3.9,6.7-8.8,6.7s-8.8-2.4-8.8-6.7
					c0-3.1,2.1-4.8,4.7-5.7c-2.3-0.9-4.2-2.7-4.2-5.6c0-4.2,3.7-6.5,8.3-6.5S817.6,563.3,817.6,567.4z M803.2,578.6
					c0,2.9,2.7,4.4,6.1,4.4c3.3,0,6-1.5,6-4.4c0-2.8-2.7-4.3-6-4.3S803.2,575.8,803.2,578.6z M803.8,567.6c0,2.9,2.5,4.3,5.5,4.3
					c3.1,0,5.5-1.4,5.5-4.3c0-2.7-2.5-4.2-5.5-4.2C806.3,563.4,803.8,564.8,803.8,567.6z"/>
				<path d="M833.4,572.9l8.9,12.2H839l-7.3-10.1l-7.4,10.1h-3.2l8.9-12.2l-8.5-11.7h3.3l6.9,9.6l7-9.6h3.3L833.4,572.9z"/>
			</g>
		</g>
	</g>
	<g>
		<g>
			<g>
				<path d="M1000.9,1494.7c1.1-1.7,3.2-3.9,7.3-3.9c4.8,0,7.6,3.1,7.6,7.4c0,3-1.7,5.1-3.2,6.8l-7.2,7.6h11.1v2.5h-15v-2.1l9-9.5
					c1.4-1.5,2.5-3.1,2.5-5.2c0-2.7-1.8-4.9-5-4.9c-2.7,0-4.2,1.4-5.3,3L1000.9,1494.7z"/>
				<path d="M1031.6,1502.8l8.9,12.2h-3.3l-7.3-10.1l-7.4,10.1h-3.2l8.9-12.2l-8.5-11.7h3.3l6.9,9.6l7-9.6h3.3L1031.6,1502.8z"/>
			</g>
		</g>
		<g>
			<g>
				<path d="M279.5,1293.6H269l-0.2,7.1h3.5c5.6,0,8.4,3.2,8.4,7c0,4.9-3.6,7.6-8.2,7.6c-3.4,0-6.1-1.3-8.1-3.7l1.8-1.7
					c1.5,1.8,3.9,2.9,6.3,2.9c3.5,0,5.5-2.2,5.5-4.9c0-2.6-1.7-4.7-6.4-4.7h-5.2l0.3-12.1h12.9
					C279.5,1291.1,279.5,1293.6,279.5,1293.6z"/>
				<path d="M296,1302.8l8.9,12.2h-3.3l-7.3-10.1l-7.4,10.1h-3.2l8.9-12.2l-8.5-11.7h3.3l6.9,9.6l7-9.6h3.3L296,1302.8z"/>
			</g>
		</g>
		<g>
			<path class="st1" d="M1094.8,1253.7v0.3c1.2,5,3.6,8.8,7.2,11.7c3.6,2.9,8.2,4.3,13.7,4.3c8,0,13.7-2.3,17.4-7h18.9
				c-2.8,7.1-7.3,12.6-13.7,16.8c-6.3,4.2-13.9,6.3-22.6,6.3c-5.9,0-11.2-1-16-2.9s-9-4.6-12.5-8c-3.5-3.5-6.3-7.5-8.2-12.3
				c-1.9-4.7-2.9-9.9-2.9-15.4s1-10.7,2.9-15.4s4.7-8.8,8.2-12.3s7.7-6.1,12.5-8s10.1-2.9,16-2.9c5.7,0,11,1,15.9,2.9
				c4.8,1.9,9,4.6,12.4,8c3.5,3.5,6.1,7.5,8,12.3c1.9,4.7,2.9,9.9,2.9,15.4v6.3L1094.8,1253.7L1094.8,1253.7z M1115.7,1224.8
				c-5.2,0-9.6,1.3-13.2,3.9c-3.5,2.6-5.9,6.1-7.4,10.5v0.3h41v-0.3c-1.4-4.4-3.9-8-7.4-10.5
				C1125.2,1226.1,1120.9,1224.8,1115.7,1224.8z"/>
			<path class="st1" d="M1221.4,1284.2V1246c0-7.1-1.7-12.2-5.1-15.6s-7.9-5.1-13.5-5.1s-10.1,1.7-13.5,5.1s-5.1,8.6-5.1,15.6v38.2
				h-17.7V1246c0-6.1,0.9-11.5,2.6-16.2c1.8-4.6,4.2-8.4,7.4-11.6c3.1-3.1,7-5.5,11.4-7.1s9.4-2.4,14.9-2.4s10.4,0.8,14.9,2.3
				c4.4,1.5,8.3,3.9,11.4,7s5.6,7,7.4,11.7s2.6,10,2.6,16.2v38.2L1221.4,1284.2L1221.4,1284.2z"/>
			<path class="st1" d="M1273.9,1284.2l-28.9-73.5h19.3l20.3,56.8h0.3l20.3-56.8h18.9l-28.9,73.5H1273.9z"/>
			<path class="st1" d="M1345.1,1201.9c-3.3,0-6-1.1-8.4-3.5c-2.3-2.3-3.5-5.1-3.5-8.4c0-3.4,1.1-6.2,3.5-8.4
				c2.3-2.3,5.1-3.5,8.4-3.5c3.4,0,6.2,1.1,8.4,3.5c2.3,2.3,3.4,5.1,3.4,8.4s-1.1,6-3.4,8.4
				C1351.3,1200.8,1348.5,1201.9,1345.1,1201.9z M1336.4,1284.2v-73.5h17.7v73.5H1336.4z"/>
			<path class="st1" d="M1418,1242.2v-0.7c0-5.9-1.4-10.1-4-12.5c-2.7-2.4-6.2-3.6-10.5-3.6s-7.9,1.2-10.5,3.6s-4,6.6-4,12.5v42.7
				h-17.7v-42.7c0-5.5,0.8-10.4,2.4-14.5s3.8-7.5,6.6-10.2c2.8-2.7,6.2-4.7,10.2-6c3.9-1.4,8.4-2,13.1-2s9.1,0.6,13.1,2
				c3.9,1.4,7.4,3.4,10.2,6.1s5,6.1,6.5,10.3c1.5,4.1,2.3,9,2.3,14.6v0.5L1418,1242.2L1418,1242.2z"/>
			<path class="st1" d="M1521.2,1247.4c0,5.5-1,10.7-2.9,15.4s-4.7,8.8-8.2,12.3s-7.7,6.1-12.5,8s-10.1,2.9-15.9,2.9
				c-5.9,0-11.2-1-16-2.9s-9-4.6-12.5-8c-3.5-3.5-6.3-7.5-8.2-12.3c-1.9-4.7-2.9-9.9-2.9-15.4s1-10.7,2.9-15.4
				c1.9-4.7,4.7-8.8,8.2-12.3s7.7-6.1,12.5-8s10.1-2.9,16-2.9c5.7,0,11,1,15.9,2.9c4.8,1.9,9.1,4.6,12.5,8c3.5,3.5,6.3,7.5,8.2,12.3
				C1520.2,1236.7,1521.2,1241.9,1521.2,1247.4z M1481.6,1269.5c6.5,0,11.7-2.1,15.7-6.2c3.9-4.1,5.9-9.4,5.9-16s-1.9-11.9-5.9-16
				c-3.9-4.1-9.2-6.2-15.7-6.2s-11.8,2.1-15.8,6.2s-5.9,9.4-5.9,16s2,11.9,5.9,16C1469.8,1267.5,1475,1269.5,1481.6,1269.5z"/>
			<path class="st1" d="M1077.4,1380.4v-14.7l42.2-42.8v-0.3h-40V1307h63.9v14.7l-42.2,42.8v0.3h43.7v15.6H1077.4z"/>
			<path class="st1" d="M1213.4,1369.7h-0.3c-2.2,3.7-5.1,6.5-8.8,8.6c-3.7,2.1-8,3.1-12.8,3.1c-4.3,0-8.4-0.7-12.4-2.2
				c-3.9-1.4-7.5-3.6-10.5-6.6c-3.1-3-5.5-6.8-7.4-11.5c-1.8-4.7-2.7-10.4-2.7-16.9V1307h17.7v37.3c0,7.1,1.7,12.2,5.1,15.6
				s7.9,5.1,13.5,5.1c5.5,0,9.9-1.8,13.3-5.2s5.2-8.6,5.2-15.4V1307h17.7v70.9c0,6.4-1,11.9-2.8,16.4s-4.5,8.2-7.8,11.1
				s-7.2,5-11.7,6.3c-4.4,1.4-9.2,2-14.3,2c-4.3,0-8.3-0.5-12.1-1.4c-3.8-1-7.3-2.5-10.4-4.6s-5.8-4.7-8-7.9s-3.9-6.9-4.8-11.3h17.7
				c2.9,6.7,8.8,10,17.7,10c6,0,10.7-1.5,14-4.7c3.3-3.1,4.9-8.3,4.9-15.4L1213.4,1369.7L1213.4,1369.7z"/>
			<path class="st1" d="M1295.5,1380.4v-42c0-5.9-1.4-10.3-4.3-12.9s-6.3-4-10.6-4c-4.3,0-8,1.3-10.7,3.9c-2.8,2.7-4.2,7-4.2,13v42
				H1248v-42c0-5.8,0.8-10.7,2.4-15c1.6-4.2,3.8-7.7,6.4-10.4c2.7-2.7,5.9-4.7,9.7-6.1c3.8-1.4,7.8-2,12.2-2
				c5.5,0,10.4,1.1,14.8,3.4s7.8,5.5,10.4,9.6h0.3c2.6-4.2,6-7.4,10.4-9.6c4.3-2.3,9.3-3.4,15-3.4c4.3,0,8.4,0.6,12.2,2
				c3.8,1.4,7,3.4,9.7,6.1s4.9,6.2,6.4,10.4c1.6,4.2,2.4,9.2,2.4,15v42h-17.7v-42c0-6-1.4-10.4-4.2-13c-2.8-2.7-6.3-3.9-10.7-3.9
				c-4.3,0-7.8,1.4-10.5,4c-2.8,2.7-4.2,7-4.2,12.9v42H1295.5z"/>
			<path class="st1" d="M1390.6,1349.9v0.3c1.2,5,3.6,8.8,7.2,11.7c3.6,2.9,8.2,4.3,13.7,4.3c8,0,13.7-2.3,17.4-7h18.9
				c-2.8,7.1-7.3,12.6-13.7,16.8c-6.3,4.2-13.9,6.3-22.6,6.3c-5.9,0-11.2-1-16-2.9s-9-4.6-12.5-8c-3.5-3.5-6.3-7.5-8.2-12.3
				c-1.9-4.7-2.9-9.9-2.9-15.4s1-10.7,2.9-15.4c1.9-4.7,4.7-8.8,8.2-12.3s7.7-6.1,12.5-8s10.1-2.9,16-2.9c5.7,0,11,1,15.9,2.9
				c4.8,1.9,9,4.6,12.4,8c3.5,3.5,6.1,7.5,8,12.3c1.9,4.7,2.9,9.9,2.9,15.4v6.3L1390.6,1349.9L1390.6,1349.9z M1411.5,1321.1
				c-5.2,0-9.6,1.3-13.2,3.9s-5.9,6.1-7.4,10.5v0.3h41v-0.3c-1.4-4.4-3.9-8-7.4-10.5C1421.1,1322.4,1416.8,1321.1,1411.5,1321.1z"/>
		</g>
		<path class="st1" d="M935.5,1295.4c17.9,0,30.9,16.8,26.6,34.2c-6,24.2-18.4,47.1-37.3,66c-48.6,48.6-123.8,54.5-178.8,17.7
			c-7.6-5.1-14.8-10.9-21.5-17.7c-0.1-0.1-0.2-0.2-0.2-0.2c-10.7-10.8-10.5-28.1,0.2-38.9l22.8-22.8L863,1217.9
			c-32.2-15.9-72.3-10.5-99.2,16.2c-0.1,0.1-0.1,0.1-0.2,0.2l-79.4,79.4l-81.7,81.7c-55.3,55.3-145,55.3-200.3,0s-55.3-145,0-200.3
			c48.6-48.6,123.8-54.5,178.8-17.7c7.6,5.1,14.8,10.9,21.5,17.7c0.1,0.1,0.2,0.2,0.2,0.2c10.7,10.8,10.5,28.1-0.2,38.9l-22.8,22.8
			l-58.1,58.1c-10.8,10.8-28.3,10.8-39.1,0l0,0c-10.8-10.8-10.8-28.3,0-39.1l58.1-58.1c-32.5-16-72.9-10.4-99.7,16.8
			c-33.2,33.7-33.2,87.5,0,121.2c33.7,34.2,88.7,34.2,122.5,0.4l161.2-161.2c32.3-32.3,76.4-45.8,118.6-40.3
			c21.2,2.7,41.9,10.3,60.3,22.7c7.6,5.1,14.8,10.9,21.5,17.7c0.1,0.1,0.2,0.2,0.2,0.2c10.7,10.8,10.5,28.1-0.2,38.9l-138.5,138.5
			c32.2,16,72.4,10.5,99.3-16.4c11.5-11.5,19.1-25.5,22.7-40.2c3.1-12.2,14.1-20.8,26.6-20.8L935.5,1295.4L935.5,1295.4z"/>
		<line class="st2" x1="378.5" y1="1153.9" x2="269.9" y2="1153.9"/>
		<line class="st2" x1="378.5" y1="1437.1" x2="269.9" y2="1437.1"/>
		<g>
			<g>
				<line class="st3" x1="324.2" y1="1158" x2="324.2" y2="1432.9"/>
				<g>
					<polygon points="329.1,1158.7 319.3,1158.7 324.2,1153.8 					"/>
				</g>
				<g>
					<polygon points="329.1,1432.2 319.3,1432.2 324.2,1437.1 					"/>
				</g>
			</g>
		</g>
		<g>
			<g>
				<path d="M1633.2,1297.4c0,2.8-1.4,4.7-3.7,5.6c2.5,0.9,4.3,2.8,4.3,5.6c0,4.5-4,6.7-8.2,6.7c-3.3,0-6-1.2-7.7-3.1l1.7-1.8
					c1.4,1.5,3.6,2.4,6,2.4c3,0,5.5-1.4,5.5-4.3c0-2.7-2.6-4.3-5.8-4.3h-3.1v-2.4h3.1c3,0,5.2-1.4,5.2-4.3c0-2.6-2.3-4.2-5.3-4.2
					c-2.4,0-4.2,1.2-5.3,2.7l-1.9-1.6c1.4-2,3.9-3.5,7.3-3.5C1630,1290.8,1633.2,1293.6,1633.2,1297.4z"/>
				<path d="M1649,1302.8l8.9,12.2h-3.3l-7.3-10.1l-7.4,10.1h-3.2l8.9-12.2l-8.5-11.7h3.3l6.9,9.6l7-9.6h3.3L1649,1302.8z"/>
			</g>
		</g>
		<line class="st2" x1="1647.9" y1="1210.7" x2="1539.3" y2="1210.7"/>
		<line class="st2" x1="1647.9" y1="1382.4" x2="1539.3" y2="1382.4"/>
		<g>
			<g>
				<line class="st3" x1="1593.6" y1="1215.3" x2="1593.6" y2="1375.6"/>
				<g>
					<polygon points="1598.5,1215.9 1588.8,1215.9 1593.6,1211 					"/>
				</g>
				<g>
					<polygon points="1598.5,1375 1588.8,1375 1593.6,1379.8 					"/>
				</g>
			</g>
		</g>
		<g>
			<g>
				<line class="st3" x1="967.1" y1="1469.3" x2="1072" y2="1469.3"/>
				<g>
					<polygon points="967.8,1464.4 967.8,1474.2 962.9,1469.3 					"/>
				</g>
				<g>
					<polygon points="1071.3,1464.4 1071.3,1474.2 1076.2,1469.3 					"/>
				</g>
			</g>
		</g>
		<line class="st2" x1="962.9" y1="1437.1" x2="962.9" y2="1501.5"/>
		<line class="st2" x1="1077.4" y1="1437.1" x2="1077.4" y2="1501.5"/>
	</g>
</g>
</svg>
