<?xml version="1.0" encoding="utf-8"?>
<!-- Generator: Adobe Illustrator 26.3.1, SVG Export Plug-In . SVG Version: 6.00 Build 0)  -->
<svg version="1.1" id="Layer_1" xmlns="http://www.w3.org/2000/svg" xmlns:xlink="http://www.w3.org/1999/xlink" x="0px" y="0px"
	 viewBox="0 0 1128.3 201.8" style="enable-background:new 0 0 1128.3 201.8;" xml:space="preserve">
<style type="text/css">
	.st0{fill:#365475;}
	.st1{fill:#97B9E2;}
</style>
<g>
	<g>
		<path class="st0" d="M367,77.8c-2.6,4.4-6.4,7.7-11.3,10.1c-4.9,2.4-10.7,3.6-17.4,3.6H321v25.5h-15.3v-83h32.5
			c6.7,0,12.5,1.2,17.4,3.6c4.9,2.4,8.7,5.7,11.3,10.1c2.6,4.4,3.9,9.4,3.9,15.1C370.9,68.4,369.6,73.4,367,77.8z M353.4,54.2
			c-1.4-2.1-3.9-3.7-7.3-4.7c-3.4-1-8.2-1.5-14.4-1.5H321v29.4h10.7c6.2,0,11-0.5,14.4-1.5c3.4-1,5.9-2.6,7.3-4.7
			c1.4-2.1,2.1-4.9,2.1-8.4C355.6,59.1,354.9,56.3,353.4,54.2z"/>
		<path class="st0" d="M447.5,77.8c-2.6,4.4-6.4,7.7-11.3,10.1c-4.9,2.4-10.7,3.6-17.4,3.6h-17.2v25.5h-15.3v-83h32.5
			c6.7,0,12.5,1.2,17.4,3.6c4.9,2.4,8.7,5.7,11.3,10.1c2.6,4.4,3.9,9.4,3.9,15.1C451.4,68.4,450.1,73.4,447.5,77.8z M434,54.2
			c-1.4-2.1-3.9-3.7-7.3-4.7c-3.4-1-8.2-1.5-14.4-1.5h-10.7v29.4h10.7c6.2,0,11-0.5,14.4-1.5c3.4-1,5.9-2.6,7.3-4.7
			c1.4-2.1,2.1-4.9,2.1-8.4C436.1,59.1,435.4,56.3,434,54.2z"/>
		<path class="st0" d="M527.1,79.4c-3.3,4.6-7.9,7.9-13.9,9.9l-0.5,0.2l24.8,27.4h-21l-20.8-25.5h-13.5v25.5h-15.3v-83h32.5
			c6.7,0,12.5,1.2,17.4,3.6c4.9,2.4,8.7,5.7,11.3,10.1c2.6,4.4,3.9,9.4,3.9,15.1C532,69.1,530.3,74.7,527.1,79.4z M514.6,54.2
			c-1.4-2.1-3.9-3.7-7.3-4.7c-3.4-1-8.2-1.5-14.4-1.5h-10.7v29.4h10.7c6.2,0,11-0.5,14.4-1.5c3.4-1,5.9-2.6,7.3-4.7
			c1.4-2.1,2.1-4.9,2.1-8.4C516.7,59.1,516,56.3,514.6,54.2z"/>
		<path class="st0" d="M550.5,116.9v-83h63.9v14h-48.6v54.3h48.6v14.7H550.5z M603.5,81.8h-30V67.7h30V81.8z"/>
		<path class="st0" d="M686.2,114.5c-5.8,2.5-12,3.7-18.7,3.7c-8.2,0-15.7-1.8-22.5-5.5c-6.8-3.6-12.2-8.7-16.2-15.2
			c-4-6.5-6-13.9-6-22.2c0-8.3,2-15.7,6-22.2c4-6.5,9.4-11.5,16.2-15.2c6.8-3.6,14.3-5.5,22.5-5.5c6.6,0,12.9,1.2,18.7,3.7
			c5.8,2.5,10.8,6,14.9,10.4L690.5,57c-2.7-3.2-6-5.8-10-7.6c-4-1.8-8.3-2.7-13-2.7c-5.5,0-10.4,1.2-14.9,3.5
			c-4.5,2.3-8,5.7-10.6,10c-2.6,4.4-3.9,9.4-3.9,15.2c0,5.8,1.3,10.8,3.9,15.2c2.6,4.4,6.1,7.7,10.6,10c4.5,2.3,9.4,3.5,14.9,3.5
			c4.7,0,9-0.9,13-2.7c4-1.8,7.3-4.3,10-7.6l10.6,10.3C696.9,108.5,692,112,686.2,114.5z"/>
		<path class="st0" d="M718.9,116.9v-83h15.3v83H718.9z"/>
		<path class="st0" d="M820.9,116.9l-28.6-63.7l-28.7,63.7H746l38.7-83h15.1l38.7,83H820.9z"/>
		<path class="st0" d="M875.3,47.9v69H860v-69h-27.5v-14h70.2v14H875.3z"/>
		<path class="st0" d="M914.5,116.9v-83h15.3v83H914.5z"/>
		<path class="st0" d="M1028.7,97.6c-4,6.5-9.4,11.5-16.2,15.2c-6.8,3.6-14.3,5.5-22.5,5.5c-8.2,0-15.7-1.8-22.5-5.5
			c-6.8-3.6-12.2-8.7-16.2-15.2c-4-6.5-6-13.9-6-22.2c0-8.3,2-15.7,6-22.2c4-6.5,9.4-11.5,16.2-15.2c6.8-3.6,14.3-5.5,22.5-5.5
			c8.2,0,15.7,1.8,22.5,5.5c6.8,3.6,12.2,8.7,16.2,15.2c4,6.5,6,13.9,6,22.2C1034.7,83.7,1032.7,91.1,1028.7,97.6z M1015.5,60.2
			c-2.6-4.3-6.2-7.7-10.6-10c-4.5-2.3-9.4-3.5-14.9-3.5c-5.5,0-10.4,1.2-14.9,3.5c-4.5,2.3-8,5.7-10.6,10c-2.6,4.4-3.9,9.4-3.9,15.2
			c0,5.8,1.3,10.8,3.9,15.2c2.6,4.4,6.1,7.7,10.6,10c4.5,2.3,9.4,3.5,14.9,3.5c5.5,0,10.4-1.2,14.9-3.5c4.5-2.3,8-5.7,10.6-10
			c2.6-4.3,3.9-9.4,3.9-15.2C1019.4,69.6,1018.1,64.6,1015.5,60.2z"/>
		<path class="st0" d="M1127.5,116.9H1112l-46.6-60.6v60.6h-15.3v-83h15.9l46,60v-60h15.4V116.9z"/>
	</g>
	<g>
		<path class="st1" d="M746,141.6l27.4,59.1H766l-6.9-14.8H733l-6.8,14.8h-7.4L746,141.6z M746,157.6l-9.9,21.7h19.9L746,157.6z"/>
		<path class="st1" d="M821.5,148.9c-3.3-0.1-6.4,0.5-9.3,1.8c-2.8,1.2-5.3,2.9-7.4,4.9c-2.1,2.1-3.7,4.4-4.9,7.2
			c-1.2,2.7-1.9,5.5-2,8.4c-0.1,2.9,0.4,5.9,1.5,8.8c1.1,2.9,2.9,5.6,5.4,8.2c2.3,2.3,4.9,4,7.8,5.1c2.8,1.1,5.7,1.6,8.7,1.6
			c2.7,0,5.4-0.4,7.9-1.3c2.6-0.9,4.8-2.2,6.8-3.8c2-1.6,3.6-3.7,4.8-6.1c1.2-2.4,1.8-5.1,1.8-8.1v-7.8h6.9v7.8
			c0,4-0.8,7.7-2.4,10.9c-1.6,3.3-3.7,6-6.3,8.3c-2.6,2.3-5.6,4-9.1,5.2c-3.4,1.2-7,1.8-10.6,1.8c-3.7,0-7.4-0.7-11.1-2.1
			c-3.7-1.4-7-3.6-10-6.6c-3.2-3.3-5.6-6.8-7-10.6c-1.4-3.8-2.1-7.6-1.9-11.4c0.1-3.8,1-7.5,2.6-11c1.6-3.5,3.7-6.6,6.4-9.3
			c2.7-2.7,5.9-4.8,9.5-6.4c3.7-1.6,7.7-2.4,12-2.3H840v6.9H821.5z"/>
		<path class="st1" d="M872.9,148.7V142h41.2v6.7H872.9z M872.9,174.8V168h41.2v6.8H872.9z M872.9,200.7V194h41.2v6.7H872.9z"/>
		<path class="st1" d="M985.7,200.7l-46.5-49.5v-9.6l39.8,42.3v-41.8h6.7V200.7z"/>
		<path class="st1" d="M1038.5,200.7c-4.1,0-7.9-0.8-11.5-2.3c-3.6-1.5-6.7-3.6-9.3-6.3c-2.7-2.6-4.7-5.8-6.3-9.3
			c-1.5-3.6-2.3-7.4-2.3-11.5c0-4.1,0.8-7.9,2.3-11.5c1.5-3.6,3.6-6.7,6.3-9.3c2.6-2.6,5.8-4.7,9.3-6.3c3.6-1.5,7.4-2.3,11.5-2.3
			h13.9v6.7h-13.9c-3.1,0-6.1,0.6-8.8,1.8c-2.8,1.2-5.2,2.8-7.2,4.9c-2,2.1-3.7,4.5-4.9,7.2c-1.2,2.8-1.8,5.7-1.8,8.8
			c0,3.1,0.6,6.1,1.8,8.8s2.8,5.2,4.9,7.2c2,2,4.4,3.7,7.2,4.9c2.8,1.2,5.7,1.8,8.8,1.8h13.9v6.7H1038.5z"/>
		<path class="st1" d="M1074.1,142.1h8.1l19.8,28.9l18.2-28.9h7.9l-37.4,58.6h-7.7l15-23.6L1074.1,142.1z"/>
	</g>
	<g>
		<polygon class="st0" points="162.6,156.4 209.1,156.4 142,49.6 95.5,49.6 0,201.8 46.5,201.8 118.8,86.6 		"/>
		<polygon class="st1" points="194.4,0 148.8,0 148.8,1.4 274.5,201.8 321,201.8 		"/>
	</g>
</g>
<g>
</g>
<g>
</g>
<g>
</g>
<g>
</g>
<g>
</g>
<g>
</g>
<g>
</g>
<g>
</g>
<g>
</g>
<g>
</g>
<g>
</g>
<g>
</g>
<g>
</g>
<g>
</g>
<g>
</g>
</svg>
