<?xml version="1.0" encoding="utf-8"?>
<!-- Generator: Adobe Illustrator 26.3.1, SVG Export Plug-In . SVG Version: 6.00 Build 0)  -->
<svg version="1.1" id="Layer_1" xmlns="http://www.w3.org/2000/svg" xmlns:xlink="http://www.w3.org/1999/xlink" x="0px" y="0px"
	 viewBox="0 0 84.5 101.4" style="enable-background:new 0 0 84.5 101.4;" xml:space="preserve">
<style type="text/css">
	.st0{fill:#FFFFFF;}
	.st1{fill-rule:evenodd;clip-rule:evenodd;fill:#FFFFFF;}
</style>
<path class="st0" d="M75.8,23.4L61.1,8.7C55.5,3.1,48.1,0,40.2,0H21.1C9.5,0,0,9.5,0,21.1v59.1c0,11.6,9.5,21.1,21.1,21.1h42.2
	c11.6,0,21.1-9.5,21.1-21.1v-36C84.5,36.4,81.4,29,75.8,23.4L75.8,23.4z M69.9,29.4c1.3,1.3,2.5,2.8,3.4,4.4H54.9
	c-2.3,0-4.2-1.9-4.2-4.2V11.2c1.6,0.9,3.1,2.1,4.4,3.4L69.9,29.4L69.9,29.4z M76,80.3c0,7-5.7,12.7-12.7,12.7H21.1
	c-7,0-12.7-5.7-12.7-12.7V21.1c0-7,5.7-12.7,12.7-12.7h19.1c0.7,0,1.4,0,2,0.1v21c0,7,5.7,12.7,12.7,12.7h21c0.1,0.7,0.1,1.4,0.1,2
	V80.3L76,80.3z M57.9,68c1.7,1.6,1.7,4.3,0,6l-6.8,6.8c-2.4,2.4-5.6,3.7-8.8,3.7c-3.2,0-6.4-1.2-8.8-3.7L26.6,74
	c-1.7-1.7-1.7-4.3,0-6c1.7-1.7,4.3-1.7,6,0l5.5,5.5V54.9c0-2.3,1.9-4.2,4.2-4.2c2.3,0,4.2,1.9,4.2,4.2v18.6l5.5-5.5
	C53.6,66.4,56.3,66.4,57.9,68L57.9,68z"/>
</svg>
