<?xml version="1.0" encoding="utf-8"?>
<!-- Generator: Adobe Illustrator 26.3.1, SVG Export Plug-In . SVG Version: 6.00 Build 0)  -->
<svg version="1.1" id="Layer_1" xmlns="http://www.w3.org/2000/svg" xmlns:xlink="http://www.w3.org/1999/xlink" x="0px" y="0px"
	 viewBox="0 0 918.4 166.5" style="enable-background:new 0 0 918.4 166.5;" xml:space="preserve">
<style type="text/css">
	.st0{fill:#FFFFFF;}
	.st1{fill-rule:evenodd;clip-rule:evenodd;fill:#FFFFFF;}
</style>
<g>
	<path class="st0" d="M21.8,115.5c2.6-3.8,5.8-7.2,9.8-10.1c4-2.9,8.4-5,13.1-6.6s9.2-2.3,13.3-2.3c4.3,0,7.9,0.6,11.1,1.7
		c3.2,1.1,6.7,2.7,10.5,4.9c0.8,0.5,1.8,1.4,3.4,2.6c1.5,1.4,2.9,2,4,2c0.3,0,0.5,0,0.5-0.2s0.2-0.2,0.3-0.3l4.6-4.1v-44
		c0-1.4,0-3.7,0-7.2c-0.2-3.4-0.2-7-0.2-10.8c-0.2-3.8-0.2-7.3-0.3-10.8c-0.2-3.4-0.2-5.7-0.3-7c-0.2-0.5-0.6-0.8-1.2-0.9
		c-0.8-0.2-1.4-0.2-1.8-0.2c-2,0-3.4,0.6-4.3,1.7c-1.1,1.2-1.5,2.7-1.5,4.4c0,2.9,0.3,5.7,1.1,8.6c0.6,2.9,0.9,6,0.9,9
		c0,5-0.8,10.2-2.4,15.4s-4.1,9.9-7.2,14c-3.2,4.1-7,7.6-11.5,10.2c-4.4,2.7-9.6,4.1-15.3,4.1c-6.3,0.2-11.6-1.7-15.9-5.3
		C28.1,80.8,26,75.6,26,69v-4.1c1.4-2.9,3.1-5.5,5.3-7.8c2.1-2.3,4.9-3.4,8.4-3.4c4,0,7.3,1.2,9.9,3.8c2.6,2.6,3.8,6,3.8,9.9
		c0,6-1.7,9.8-4.9,11.8c-3.4,2-7.8,3.1-13.1,3.2c1.4,1.7,3.1,2.9,4.9,3.5c1.8,0.8,3.8,1.1,5.8,1.1c3.2,0,6-0.8,8.6-2.4
		c2.4-1.5,4.6-3.5,6.4-6.1c1.7-2.4,3.1-5.2,4-8.2c0.9-3.1,1.4-6,1.4-8.9c0-5.2-0.8-10.1-2.4-14.5c-1.7-4.4-5-8.1-9.8-11
		c-0.6-0.2-1.5-0.6-2.9-1.4c-1.4-0.6-2.6-0.9-3.7-0.9H19.9c-2.7,0-5.3-0.6-7.8-2c-2.4-1.2-4.6-2.9-6.3-5c-1.8-2-3.2-4.3-4.3-6.9
		S0,14.7,0,12.2c0-0.8,0.2-1.8,0.3-3.2s0.5-2.7,0.9-4.1s1.1-2.4,1.8-3.5C3.8,0.5,4.9,0,6.1,0c0,1.4-0.3,2.4-0.8,3.5S4.6,5.8,4.6,6.9
		c0,2.4,0.8,4,2.4,4.6c1.7,0.8,3.5,1.1,5.5,1.1c2.9,0,5.7-0.3,8.4-1.1c2.7-0.6,5.5-1.4,8.2-2.1s5.5-1.5,8.4-2.3
		c2.7-0.6,5.7-0.9,8.6-0.9c3.5,0,6.9,0.9,10.2,2.6c3.2,1.7,6.4,3.7,9.5,5.8c2.9,2.1,5.7,4.1,8.1,5.8c2.4,1.7,4.6,2.6,6.3,2.6
		c0.2,0,0.6-0.6,1.7-2c1.1-1.2,2.1-2.6,3.5-4.3c1.4-1.7,2.6-3.2,4-4.7c1.4-1.4,2.3-2.3,3.1-2.7c2.4-1.4,4.7-2.4,6.7-3.1
		c2-0.5,4.3-0.8,7-0.8c2.4,0,4.6,0.2,6.6,0.6c2,0.5,4.1,1.1,6.4,2c1.8,0.8,3.5,1.5,4.9,2.3s3.1,1.2,5,1.2c1.1,0,2-0.3,2.7-1.1
		c0.6-0.6,1.1-1.4,1.5-2.3c0.5-0.8,0.8-1.5,1.2-2.3c0.3-0.6,0.8-0.9,1.4-0.9h0.3c-0.2,0,0,0,0.3,0.2c0.3,0.2,0.5,0.2,0.5,0.3v0.3
		c0,0.8-0.3,2-0.9,3.4c-0.8,1.4-1.2,2.3-1.7,2.7c-1.1,2.3-2.4,4.4-3.8,6.7c-1.5,2.3-3.2,4.3-5,6c-1.8,1.8-4,3.4-6.3,4.4
		c-2.3,1.1-4.9,1.7-7.8,1.7c-2.6,0-5.2-0.8-7.5-2.3c-2.3-1.5-4.7-2.3-7-2.3h-1.5c-0.3,0-0.5,0.2-0.5,0.3v76.1c0,1.4-0.8,2.7-2.1,4.3
		c-1.5,1.7-3.2,3.2-5.2,4.7c-2,1.5-4,2.9-5.8,4.3c-2,1.4-3.2,2.3-4,3.1l-7.3,7.3c-0.2,0.2-0.5,0.9-1.2,2c-0.8,1.2-1.5,1.8-2.3,1.8
		c-0.2,0-0.9-0.8-2.3-2.4c-1.4-1.5-3.2-3.2-5.2-5.2c-2.1-1.8-4.4-3.5-6.7-5c-2.4-1.5-4.7-2.3-7-2.3H31.6c-1.5,0-3.1,0.5-4.4,1.4
		c-1.4,0.9-2.6,2.1-3.7,3.5c-1.1,1.4-1.8,2.9-2.4,4.6c-0.6,1.7-0.9,3.2-0.9,4.7c0,4.9,1.4,8.7,4,11.6c2.6,2.7,5.7,4.9,9.5,6.4
		c3.8,1.4,7.8,2.3,12.2,2.7c4.4,0.5,8.2,0.6,11.8,0.6c6.1,0,11.3-0.6,15.7-1.7c4.4-1.1,8.9-3.1,13.3-5.7c1.4-0.8,2.7-1.8,4-3.1
		c1.2-1.2,2.7-1.8,4.4-1.8c0,1.4-0.5,2.4-1.2,3.2c-0.9,0.8-1.8,1.7-2.6,2.4c-4.6,4.1-9.8,7.5-15.6,10.4c-6,2.7-12.1,4.1-18.3,4.1
		c-4.3,0-8.7-0.6-13.4-1.8c-4.7-1.2-8.9-3.1-12.7-5.5c-3.8-2.6-7-5.7-9.5-9.3c-2.6-3.8-3.8-8.1-3.8-13.1
		C17.9,123.9,19.2,119.4,21.8,115.5z M11.8,8.7c-0.2,0-0.8-0.2-1.7-0.3C9.2,8.2,8.7,8.1,8.9,7.9l0.3-0.3c0.8-1.1,1.7-1.5,3.1-1.5
		C12.2,7.2,12.1,7.9,11.8,8.7z M18.3,37.4h1.5h27.8c0.5,0,1.1,0.2,1.8,0.6s1.4,0.6,1.8,0.6H51c0.2,0.2,0.5,0.2,0.8,0.3
		c0.2,0.2,0.5,0.2,0.8,0.3h-0.3c0,0,0.2,0,0.3,0.2c0.2,0.2,0.3,0.3,0.5,0.3H26c-2.7,0-5.3-0.6-7.8-1.8L17,37.3
		C17.3,37.4,17.7,37.4,18.3,37.4z M24.6,129c0.6-2.6,1.7-5,3.2-7.3c0.5-0.8,1.1-1.4,1.5-2.1c0.5-0.6,1.2-0.9,2.3-0.9h14.2
		c1.7,0,3.7,0.8,6,2.3h-14c-1.7,0-3.1,0.5-4.4,1.4c-1.4,0.9-2.6,2.1-3.7,3.5c-1.1,1.4-1.8,2.9-2.4,4.6c-0.6,1.7-0.9,3.2-0.9,4.7v1.8
		C24.6,134.4,24,131.8,24.6,129z M42.6,93.3c-0.2-0.2,0-0.3,0.8-0.3c0.6,0.2,1.5,0.2,2.6,0.3c1.1,0.2,1.8,0.2,2.4,0.2h2.3
		c-0.8,0.2-1.7,0.3-2.4,0.5s-1.7,0.5-2.4,0.6h-0.2C43.8,93.9,42.8,93.5,42.6,93.3z M43.1,160.2c4.6,1.4,9.3,2,14.2,2
		c5.3,0,10.5-0.9,15.6-2.7c5-2,9.6-4.4,13.9-7.3c1.1-0.5,2.3-1.1,3.5-1.8c1.2-0.9,2.4-1.8,3.8-2.6c1.2-0.9,2.4-1.7,3.7-2.3
		c1.1-0.8,2.3-1.1,3.4-1.1c0,1.4-0.5,2.4-1.2,3.2c-0.9,0.8-1.8,1.7-2.6,2.4c-4.6,4.1-9.8,7.5-15.6,10.4c-6,2.7-12.1,4.1-18.3,4.1
		c-4.3,0-8.7-0.6-13.4-1.8C47.3,161.9,45.1,161.1,43.1,160.2z M50.9,38.5l0.2,0.2C51,38.5,51,38.5,50.9,38.5z M57.9,75.9
		c-0.9,0.8-1.8,1.7-2.7,2.4c-0.9,0.8-1.7,1.5-2.4,2.3c-0.8,0.8-1.2,1.2-1.4,1.5c0.3-1.2,0.8-2.3,1.5-3.1c0.6-0.8,1.2-1.7,2-2.7
		c0.6-1.1,1.2-2.1,1.7-3.5c0.5-1.4,0.8-3.1,0.8-5.3c0-1.1,0.2-1.4,0.5-1.1c0.2,0.3,0.5,0.9,0.8,1.7c0.2,0.9,0.5,2,0.8,3.1
		c0.2,1.1,0.3,2,0.3,2.4v0.2C59.3,74.4,58.6,75.1,57.9,75.9z M58.2,92.1c4.4-1.4,8.6-3.5,12.2-6.4c3.5-2.9,6.7-6.4,9.3-10.4
		c2.6-3.8,4.6-8.1,6.1-12.7c1.4-4.6,2.3-9.2,2.6-13.7c0.2,1.1,0.2,2.1,0.2,3.2s0,2.1,0,3.1v4v7.6l-0.3,0.6c-1.7,5.2-4,9.9-7,14
		c-3.2,4.1-7,7.6-11.6,10.4c-2,1.1-3.8,1.5-5.5,1.2c-1.7-0.2-3.8-0.3-6.1-0.3h-1.7C57.1,92.5,57.7,92.2,58.2,92.1z M71.5,131
		c0.9-1.2,1.5-2,1.8-2.3l7-7c0.8-0.6,1.7-1.4,2.7-2.3c1.1-0.9,2.3-1.8,3.5-2.6c1.1-0.8,2.3-1.5,3.5-2.1c1.1-0.6,2.1-0.9,3.1-0.9
		c0.3,0,0.5,0,0.5-0.2s0.2-0.2,0.3-0.3l4.6-4.1v-4.9c0.2-1.1,0.3-1.7,0.3-2V87.8c0,3.5,0.5,6.9,1.2,9.9c0.8,3.1,1.1,5.8,1.1,8.4v2.3
		c0,1.4-0.8,2.7-2.1,4.3c-1.5,1.7-3.2,3.2-5.2,4.7c-2,1.5-4,2.9-5.8,4.3c-2,1.4-3.2,2.3-4,3.1l-7.3,7.3c-0.2,0.2-0.5,0.9-1.2,2.1
		c-0.8,1.1-1.5,1.7-2.3,1.7c-0.3,0-1.1-0.8-2.4-2.4C70.2,133,70.6,132.3,71.5,131z M87,28.3c0.2-0.3,0.5-0.6,0.9-1.1V27
		c0.2,2,0.2,4.3,0.3,6.9c0,2.7,0,5.5,0.2,8.2c-0.5-2-0.8-4.3-1.2-6.7s-0.6-4.6-0.6-6.6C86.7,28.7,86.9,28.6,87,28.3z M99.4,62.5
		c-0.5,3.2-0.6,6.6-0.6,9.8V31.3c0.5,0.2,0.8,0.3,1.2,0.5c0.3,0.2,0.6,0.5,1.1,0.6v21.1C100.3,56.4,99.7,59.3,99.4,62.5z M102.9,68
		c0.2-4.3,0.8-8.4,1.7-12.5s2.3-7.9,4.3-11.6c2-3.7,4.7-7,8.2-9.9c0.9-0.5,2.1-1.2,3.5-2.4c1.4-1.1,2.9-2.3,4.6-3.5
		c1.5-1.2,3.1-2.3,4.6-3.4c1.5-0.9,2.9-1.4,4.1-1.4c0,1.1-0.6,2.3-2,3.7c-1.4,1.4-2.1,2.4-2.6,3.2c-1.1,2.7-1.8,5.7-2.1,8.7
		c-0.3,3.1-0.5,6.1-0.5,9V66c0,7.2,0.2,13.3,0.5,18.3c0.3,5,0.8,9.3,1.4,13c0.2,0.8,0.5,2,1.1,3.4c0.6,1.5,1.4,3.1,2.3,4.4
		c0.8,1.5,1.7,2.9,2.7,4s2,1.7,3.1,1.7l5-4.6h1.1v1.8c0,0.2-0.6,0.8-1.8,2.1c-1.4,1.4-2.6,2.7-4,4.1l-2.1,2.1
		c-0.2,0.2-0.8,0.6-1.5,1.2c-0.8,0.8-1.7,1.4-2.6,2.1c-1.1,0.8-2,1.5-2.7,2.1c-0.8,0.8-1.4,1.2-1.5,1.4c-0.6,0.5-1.1,1.2-1.5,2
		c-0.5,0.8-1.1,1.7-1.5,2.4c-0.5,0.8-1.1,1.5-1.7,2c-0.6,0.6-1.4,0.9-2.1,0.9h-0.8c-3.8-4.4-6.7-8.2-9-11.8s-4-7-5.2-10.7
		c-1.2-3.5-2-7.5-2.4-11.8c-0.5-4.3-0.6-9.5-0.6-15.4C102.6,76.7,102.8,72.4,102.9,68z M109.5,34.2c1.2,0,1.4,0.5,0.6,1.2l-3.7-1.5
		C107.2,34.1,108.3,34.2,109.5,34.2z M124.8,134.1c-0.2-0.6,0-1.1,0.3-1.5c0.3-0.5,0.8-1.1,1.4-1.7c0.6-0.5,1.2-1.4,1.8-2.4
		s1.5-2,2.6-3.1c2-2,4-3.7,6.1-5.3c2.1-1.5,3.7-2.9,4.7-4c0.2,0.2,0.6,0.5,1.2,0.6c0.5,0.2,0.8,0.3,0.9,0.2l5-4.6h1.1v1.8
		c0,0.2-0.6,0.8-1.8,2.1c-1.4,1.4-2.6,2.7-4,4.1l-2.1,2.1c-0.2,0.2-0.8,0.6-1.5,1.2c-0.8,0.8-1.7,1.4-2.6,2.1
		c-1.1,0.8-2,1.5-2.7,2.1c-0.8,0.8-1.4,1.2-1.5,1.4c-0.6,0.5-1.1,1.2-1.5,2c-0.5,0.8-1.1,1.7-1.5,2.4c-0.5,0.8-1.1,1.5-1.7,2.1
		c-0.6,0.5-1.4,0.8-2.1,0.8H126C125.2,135.6,124.8,134.7,124.8,134.1z M133.9,97.1c0.2,2.1,0.5,4.1,0.6,5.8
		c-0.5-1.2-0.9-2.4-1.4-3.7c-0.5-1.2-0.8-2.1-0.9-2.9l0.2,0.3c-0.6-3.7-1.1-7.9-1.4-12.8S130.6,73,130.6,66V47.8
		c0-1.5,0-3.4,0.2-5.5c0-2.1,0.3-4.1,0.9-6.1c0.5-2,1.4-3.5,2.7-4.9s3.2-2,5.7-2c0,1.1-0.6,2.3-2,3.7c-1.4,1.4-2.1,2.4-2.6,3.2
		c-1.1,2.7-1.8,5.7-2.1,8.7s-0.5,6.1-0.5,9v18.2c0,7.2,0.2,13.3,0.5,18.3C133.5,92.7,133.8,95,133.9,97.1z M139.4,20.3
		c-0.3,0.9-0.6,1.5-0.8,1.8c-0.3,0.5-0.5,0.5-0.6,0.2c-0.2-0.3-0.3-1.2-0.3-2.9c-2.4,0-3.4-0.2-2.9-0.3c0.5-0.2,1.4-0.9,2.9-2.4
		c1.1-1.1,1.8-2.3,2.3-3.7c0.5-1.4,1.1-2,2-2h0.3c-0.2,0,0,0,0.3,0.2s0.5,0.2,0.5,0.3v0.3c0,0.8-0.3,2-0.9,3.4
		c-0.8,1.4-1.2,2.3-1.7,2.7C140,18.6,139.7,19.5,139.4,20.3z"/>
	<path class="st0" d="M151.8,90c-0.2-3.2-0.3-6.7-0.3-10.5c0-5.5,0.9-10.5,2.9-15c1.8-4.4,5-8.2,9.6-11.5c1.4-1.1,3.7-2.6,7-4.9
		c3.2-2.3,7.3-5,12.1-8.4h0.8c2.3,1.7,4.9,3.5,7.6,5.5c2.6,2,5.2,4.3,7.5,6.6c2.3,2.3,4.3,4.9,6,7.8c1.5,2.9,2.3,6,2.3,9.5v28.7
		c0,2.6-0.9,5.5-2.9,8.4c-2,2.9-4,5-6,6.4l-14.5,9.2c-0.6,0-1.4,0.5-2.1,1.4c-0.8,0.9-1.7,2-2.4,3.1c-0.9,1.1-1.7,2.1-2.4,3.1
		c-0.8,0.9-1.4,1.4-1.7,1.4s-0.9-0.5-2-1.2c-1.1-0.8-2.3-1.8-3.7-3.1s-2.9-2.4-4.4-3.8s-2.9-2.4-4.1-3.4c-2.7-2-4.7-4.7-5.8-8.1
		c-1.1-3.2-2.1-6.4-2.9-9.5C152.1,97.1,152,93.2,151.8,90z M173.6,99.7c1.1,2.1,2.3,4.3,3.7,6.3c1.4,2,2.9,3.8,4.6,5.2
		s3.4,2.1,5,2.1c0.2,0,0.5,0,0.8-0.2c0.3,0,0.5-0.2,0.5-0.6V77.1c0-0.5,0-1.4-0.2-2.9c-0.2-1.5-0.3-2.4-0.3-2.9
		c-0.2-0.8-0.9-2-2-3.8c-1.2-1.8-2.6-3.7-4.1-5.5c-1.5-1.8-3.1-3.4-4.7-4.7c-1.7-1.4-2.9-1.8-4-1.5l-1.2,0.3c0,0.6,0,1.5,0,2.7
		c-0.2,1.4-0.2,2.7-0.2,4.1c0,1.4,0,2.7,0,4c-0.2,1.2-0.2,2.1-0.2,2.6v3.8c0,0.8,0,2.3,0.2,4.3c0,2,0,4.1,0,6.4c0,2.1,0,4.1,0.2,6.1
		c0,2,0,3.4,0,4.1C172,95.8,172.6,97.6,173.6,99.7z M177.8,98.2c0,0.6,0,1.1,0,1.5c-0.5-0.8-1.1-1.7-1.5-2.7s-0.8-2-0.8-3.1v-2.3
		c0-1.1,0-2.3,0-3.7c-0.2-1.2-0.2-2.6-0.2-4s0-2.7,0-4.1c-0.2-1.2-0.2-2.4-0.2-3.5v-8.7c0-0.6,0-1.4,0.2-2.1c0-0.8,0-1.7,0-2.6v-2.1
		c0.8,0.5,1.2,0.9,1.7,1.4c0.5,0.5,0.6,1.5,0.6,2.9v4c0,1.4,0,2.7,0,4c-0.2,1.2-0.2,2.1-0.2,2.6v3.8c0,0.8,0,2.3,0.2,4.3
		c0,2,0,4.1,0,6.4v6.3C177.8,97.1,177.8,97.7,177.8,98.2z M179,133.2c0.3-1.1,0.8-2,1.5-3.1c0.8-0.9,1.5-1.8,2.4-2.7
		c0.8-0.9,1.5-1.5,2-1.8l15.4-9.8v0.2c1.2-0.8,2.4-1.8,3.8-3.2c1.2-1.4,2.3-3.1,3.4-4.7c1.1-1.7,1.8-3.4,2.6-5.2
		c0.6-1.8,0.9-3.5,0.9-5V69c0-0.5,0-1.2,0-2c-0.2-0.8-0.2-1.2-0.2-1.4c1.7,2.9,2.4,6,2.4,9.5v28.7c0,2.6-0.9,5.5-2.9,8.4
		c-2,2.9-4,5-6,6.4l-14.5,9.2c-0.6,0-1.4,0.5-2.1,1.4c-0.8,0.9-1.7,2-2.4,3.1c-0.9,1.1-1.7,2.1-2.4,3.1c-0.8,0.9-1.4,1.4-1.7,1.4
		c-0.5,0-1.1-0.5-2.1-1.4C178.7,134.8,178.5,134.1,179,133.2z"/>
	<path class="st0" d="M215,120.6c0-0.9,0.5-1.8,1.5-2.9c0.9-1.1,2-2.1,3.1-3.2s2.1-2.3,3.2-3.5c0.9-1.2,1.4-2.4,1.4-3.8v-40
		c0-0.8,0-1.5-0.2-2.6c-0.2-1.1-0.5-2-0.9-2.9c-0.5-0.9-0.9-1.7-1.5-2.4c-0.8-0.6-1.5-0.9-2.4-0.9c-1.2,0-2.3,0.6-3.2,1.7
		c-0.9,1.2-2,1.8-3.2,1.8c0-1.5,0.5-2.9,1.4-4c0.8-1.1,1.8-2.1,3.1-3.1c1.2-0.9,2.4-1.8,3.8-2.6c1.2-0.8,2.3-1.7,3.2-2.6l7.6-7.6
		h0.3c1.4,0,2.6,0.8,3.8,2.1c1.2,1.5,2.3,3.2,3.4,4.9s2,3.4,2.9,4.7c0.8,1.5,1.5,2.3,2.1,2.3c0.9,0,1.8-0.6,2.7-2
		c0.9-1.2,1.8-2.6,2.7-4.1c0.9-1.5,1.8-2.9,2.7-4.3c0.8-1.2,1.7-1.8,2.4-1.8c0.6,1.5,1.4,2.7,2.4,3.7c0.9,0.9,2.1,1.4,3.7,1.4
		c2.6,0,4.4-0.6,5.2-1.7s1.8-2.6,3.2-4.9c0.5,0,0.6,0.3,0.8,0.8c0,0.6,0,1.1,0,1.2c0,2.6-0.3,5.2-1.1,7.8c-0.8,2.6-2,4.9-3.4,6.9
		c-1.4,2-3.2,3.7-5.3,4.9s-4.6,1.8-7.3,1.8c-1.4,0-2.6-0.2-3.7-0.5c-1.1-0.2-2.1-0.3-3.2-0.3h-0.8c-0.3,0-0.5,0.2-0.5,0.3v39.4
		c0,0.5,0.3,1.2,0.9,2.3c0.6,1.1,1.4,2,2.3,3.1c0.8,1.1,1.7,2.1,2.4,2.9c0.8,0.8,1.5,1.2,2,1.2h3.8c0.3-0.3,0.8-0.8,1.4-1.5
		c0.6-0.6,1.4-1.4,2.1-2.1c0.8-0.8,1.5-1.4,2.4-2c0.8-0.5,1.7-0.8,2.4-0.8l-0.3,0.8c0-0.2,0,0,0,0.5c-0.2,0.5-0.3,0.9-0.5,1.1
		l-22.9,22.1h-1.1c-0.2,0-0.8-0.5-1.7-1.2c-1.1-0.8-1.7-1.4-2.1-1.8c-2-1.7-3.8-3.4-5.2-5.2c-1.4-1.7-2.6-3.4-3.5-4.7
		c-1.1-1.4-1.7-2.6-2.1-3.7c-0.5-0.9-0.6-1.4-0.6-1.4h-0.8l-7.6,6.6H215z M220.1,64.1V64c0.2,0.6,0.3,1.2,0.3,1.7v1.5v0.5
		c-0.6,0.2-1.1,0.3-1.5,0.3C218.8,66.6,219.3,65.2,220.1,64.1z M225.6,122.6c0.2,0.3,0.5,0.6,0.6,1.1l-3.5,3.1h-1.5
		c0-0.8,0.5-1.8,1.4-2.9l2.3-2.3C224.9,122,225.3,122.3,225.6,122.6z M243.7,136.2c-0.5-0.5-0.8-0.6-0.8-0.6l16-15.4h3.7
		c0.3-0.3,0.8-0.8,1.4-1.5c0.6-0.6,1.4-1.4,2.1-2.1c0.8-0.8,1.5-1.4,2.4-2c0.8-0.5,1.7-0.8,2.4-0.8l-0.3,0.8c0-0.2,0,0,0,0.5
		c-0.2,0.5-0.3,0.9-0.5,1.1l-22.9,22.1h-1.1c-0.2,0-0.8-0.5-1.8-1.2C244.3,136.8,244.2,136.7,243.7,136.2z M249.7,106.4
		c-0.5-0.8-0.8-1.4-0.8-1.8V69c0.5,0.2,1.1,0.2,1.5,0.3s1.4,0.2,2.7,0.2c5.2,0,9.5-1.7,12.8-4.9c3.2-3.2,5.5-7.2,6.9-11.8
		c0.2-0.2,0.5-0.6,0.9-1.4s0.8-1.4,1.2-1.8c0.3-0.5,0.6-0.8,0.9-0.9c0.3,0,0.5,0.6,0.5,1.7c0,2.6-0.3,5.2-1.1,7.8s-2,4.9-3.4,6.9
		c-1.4,2-3.2,3.7-5.3,4.9s-4.6,1.8-7.3,1.8c-1.4,0-2.6-0.2-3.7-0.5c-1.1-0.2-2.1-0.3-3.2-0.3h-0.8c-0.3,0-0.5,0.2-0.5,0.3v37.6
		C250.8,108.1,250.1,107.4,249.7,106.4z M282.8,124.5c0-1.2,0.3-2.3,0.9-3.2s1.2-1.8,2-2.6s1.4-1.7,2-2.6s0.9-2,0.9-3.2
		c0-0.8,0-1.4,0.2-2.1c0.2-0.8,0.3-1.4,0.6-2V65.7c-0.2-0.5-0.2-1.1-0.3-2.1c-0.2-1.1-0.2-2.1-0.2-3.2c-0.2-1.1-0.2-2.1-0.2-3.2
		c-0.2-1.1-0.2-1.7-0.2-2.1c-0.2-0.3-0.5-0.6-1.1-0.8c-0.8-0.2-1.5-0.3-2.3-0.5s-1.7-0.3-2.4-0.6c-0.8-0.2-1.4-0.6-1.8-1.2v-3.2
		c0.2-0.6,0.2-1.4,0.3-2.3c0.2-0.9,0.3-1.4,0.8-1.4h6.6c0.2-0.2,0.5-0.5,0.8-1.1c0.2-0.6,0.3-1.2,0.3-1.7c0.8-3.7,1.7-6.9,2.4-9.8
		c0.8-2.7,2-5.3,3.4-7.6s3.1-4.4,5.2-6.4c2-2,4.7-4,8.1-6c1.4-0.8,2.6-1.5,4-2.1s2.7-0.9,4.1-0.9c0,1.5-0.6,2.6-1.7,3.4
		c-1.1,0.8-2,1.7-2.6,2.7c-1.4,3.1-2.1,6.1-2.3,9.2c-0.2,3.2-0.3,6.4-0.3,9.6c0,0.9,0,2,0,3.2c-0.2,1.4,0,2.6,0.2,3.7
		c0.2,1.2,0.6,2.1,1.2,2.9s1.5,1.2,2.9,1.2c1.7,0.2,3.4,0.3,4.7,0.5s2,1.5,2,4.1c0-0.2,0,0.2,0,0.6c0,0.6-0.2,1.1-0.3,1.4l-0.5,0.8
		c-0.8-0.2-1.8-0.3-2.9-0.3c-1.2,0-2.4,0.2-3.8,0.6c-1.4,0.5-2,1.2-2,2v51.9c0,1.7,0.8,3.5,2.3,5.8s3.2,3.5,4.9,3.7
		c0.8,0,1.7-0.5,2.7-1.5c1.1-1.1,1.7-1.5,1.8-1.5h0.5l0.8,0.5v0.8c-0.2,0.6-1.2,1.8-3.2,3.8c-2,2-4,4.1-6.3,6.3s-4.6,4-6.6,5.7
		c-2,1.8-3.2,2.6-3.5,2.6h-1.1c-0.8,0-1.7-0.5-2.7-1.5s-2.1-2.3-3.2-3.7c-1.1-1.4-2.3-2.9-3.5-4.4c-1.4-1.5-2.6-2.7-4-3.8h-0.8
		l-4.9,5H282.8z M290.9,126.1l0.5-0.5c0.5,0.5,0.8,0.8,1.1,1.2c0.3,0.5,0.6,0.8,0.9,1.2l-2.4,2.4h-2
		C288.9,128.9,289.5,127.5,290.9,126.1z M306.8,136.7c0.8-0.9,1.8-2.1,3.5-3.8c1.5-1.7,3.2-3.2,5-4.7c1.8-1.5,3.7-2.9,5.3-4
		c1.7-1.1,3.1-1.7,4.1-1.7c0.8,0,1.7-0.5,2.7-1.5c1.1-1.1,1.7-1.5,1.8-1.5h0.5l0.8,0.5v0.8c-0.2,0.6-1.2,1.8-3.2,3.8
		c-2,2-4,4.1-6.3,6.3c-2.3,2.1-4.6,4.1-6.6,5.8s-3.2,2.4-3.5,2.4H310c-0.8,0-1.7-0.5-2.7-1.5l-0.8-0.8H306.8z M314.1,41.5
		c-0.2-0.8-0.2-1.4-0.2-2c-0.2-0.5-0.2-1.1-0.2-1.5v-3.7c0-1.8,0-3.8,0-6.1c0-2.1,0.3-4.1,0.8-6.1c0.5-1.8,1.2-3.4,2.6-4.7
		c1.2-1.2,3.2-1.8,5.8-1.8c0,1.5-0.6,2.6-1.7,3.4c-1.1,0.8-2,1.7-2.6,2.7c-1.4,3.1-2.1,6.1-2.3,9.2c-0.2,3.2-0.3,6.4-0.3,9.6v1.1
		H314.1z M316.1,109.7c-0.5-1.1-0.8-2-0.8-2.7V55.1c0.2,0.5,0.3,0.6,0.8,0.8c0.5,0.2,0.8,0.3,1.2,0.3c1.4,0,2.9,0.3,4.7,0.8l2.4-4.1
		v-1.1c1.7,0.5,2.6,2,2.6,4.3c0-0.2,0,0.2,0,0.6c0,0.6-0.2,1.1-0.3,1.4l-0.5,0.8c-0.8-0.2-1.8-0.3-2.9-0.3c-1.2,0-2.4,0.2-3.8,0.6
		c-1.4,0.5-2,1.2-2,2v51C317,111.6,316.6,110.7,316.1,109.7z"/>
	<path class="st0" d="M327.9,90c-0.2-3.2-0.3-6.7-0.3-10.5c0-5.5,0.9-10.5,2.9-15c1.8-4.4,5-8.2,9.6-11.5c1.4-1.1,3.7-2.6,7-4.9
		c3.2-2.3,7.3-5,12.1-8.4h0.8c2.3,1.7,4.9,3.5,7.6,5.5c2.6,2,5.2,4.3,7.5,6.6c2.3,2.3,4.3,4.9,6,7.8c1.5,2.9,2.3,6,2.3,9.5v28.7
		c0,2.6-0.9,5.5-2.9,8.4c-2,2.9-4,5-6,6.4l-14.5,9.2c-0.6,0-1.4,0.5-2.1,1.4c-0.8,0.9-1.7,2-2.4,3.1c-0.9,1.1-1.7,2.1-2.4,3.1
		c-0.8,0.9-1.4,1.4-1.7,1.4c-0.3,0-0.9-0.5-2-1.2c-1.1-0.8-2.3-1.8-3.7-3.1s-2.9-2.4-4.4-3.8c-1.5-1.4-2.9-2.4-4.1-3.4
		c-2.7-2-4.7-4.7-5.8-8.1c-1.1-3.2-2.1-6.4-2.9-9.5C328.2,97.1,328,93.2,327.9,90z M349.7,99.7c1.1,2.1,2.3,4.3,3.7,6.3
		c1.4,2,2.9,3.8,4.6,5.2c1.7,1.4,3.4,2.1,5,2.1c0.2,0,0.5,0,0.8-0.2c0.3,0,0.5-0.2,0.5-0.6V77.1c0-0.5,0-1.4-0.2-2.9
		c-0.2-1.5-0.3-2.4-0.3-2.9c-0.2-0.8-0.9-2-2-3.8c-1.2-1.8-2.6-3.7-4.1-5.5s-3.1-3.4-4.7-4.7c-1.7-1.4-2.9-1.8-4-1.5l-1.2,0.3
		c0,0.6,0,1.5,0,2.7c-0.2,1.4-0.2,2.7-0.2,4.1c0,1.4,0,2.7,0,4c-0.2,1.2-0.2,2.1-0.2,2.6v3.8c0,0.8,0,2.3,0.2,4.3c0,2,0,4.1,0,6.4
		c0,2.1,0,4.1,0.2,6.1c0,2,0,3.4,0,4.1C348,95.8,348.6,97.6,349.7,99.7z M353.8,98.2c0,0.6,0,1.1,0,1.5c-0.5-0.8-1.1-1.7-1.5-2.7
		c-0.5-1.1-0.8-2-0.8-3.1v-2.3c0-1.1,0-2.3,0-3.7c-0.2-1.2-0.2-2.6-0.2-4s0-2.7,0-4.1c-0.2-1.2-0.2-2.4-0.2-3.5v-8.7
		c0-0.6,0-1.4,0.2-2.1c0-0.8,0-1.7,0-2.6v-2.1c0.8,0.5,1.2,0.9,1.7,1.4c0.5,0.5,0.6,1.5,0.6,2.9v4c0,1.4,0,2.7,0,4
		c-0.2,1.2-0.2,2.1-0.2,2.6v3.8c0,0.8,0,2.3,0.2,4.3c0,2,0,4.1,0,6.4v6.3C353.8,97.1,353.8,97.7,353.8,98.2z M355.1,133.2
		c0.3-1.1,0.8-2,1.5-3.1c0.8-0.9,1.5-1.8,2.4-2.7c0.8-0.9,1.5-1.5,2-1.8l15.4-9.8v0.2c1.2-0.8,2.4-1.8,3.8-3.2
		c1.2-1.4,2.3-3.1,3.4-4.7c1.1-1.7,1.8-3.4,2.6-5.2c0.6-1.8,0.9-3.5,0.9-5V69c0-0.5,0-1.2,0-2c-0.2-0.8-0.2-1.2-0.2-1.4
		c1.7,2.9,2.4,6,2.4,9.5v28.7c0,2.6-0.9,5.5-2.9,8.4c-2,2.9-4,5-6,6.4l-14.5,9.2c-0.6,0-1.4,0.5-2.1,1.4c-0.8,0.9-1.7,2-2.4,3.1
		c-0.9,1.1-1.7,2.1-2.4,3.1c-0.8,0.9-1.4,1.4-1.7,1.4c-0.5,0-1.1-0.5-2.1-1.4C354.8,134.8,354.6,134.1,355.1,133.2z"/>
	<path class="st0" d="M392.3,115.3c0.5-0.8,1.1-1.5,1.7-2.4c0.6-0.8,1.2-1.7,1.7-2.7c0.5-1.1,0.8-2.1,0.8-3.2V64.1
		c0-0.5-0.2-1.2-0.3-2.1c-0.3-0.9-0.8-1.8-1.2-2.7c-0.5-0.8-1.1-1.5-1.7-2.3c-0.8-0.6-1.4-0.9-2.1-0.9l-2.6,1.2h-1.2
		c0,0.2,0.8-0.8,2.3-2.7c1.4-1.8,3.2-4,5.2-6.3s4-4.3,6.1-6.3c2-1.8,3.7-2.7,4.7-2.7h0.5c1.2,0,2.4,0.9,3.8,2.9
		c1.2,2,2.4,4.1,3.7,6.4c1.1,2.4,2.1,4.6,3.1,6.6c0.9,2,1.5,2.9,2,2.9c0.2,0,1.1-0.5,2.4-1.5c1.4-1.1,2.9-2.1,4.7-3.5
		c1.7-1.4,3.4-2.6,5-3.8c1.7-1.2,2.7-2.1,3.5-2.6c0.2-0.2,0.6-0.6,1.4-1.4s1.7-1.7,2.7-2.6c1.1-0.9,2-1.8,2.7-2.6
		c0.8-0.8,1.4-1.1,1.5-1.1h0.3c0.3,0,1.1,0.6,2.1,2c1.1,1.4,2.3,2.6,3.7,3.8l2.3,2.1c0.5,0.8,1.1,1.8,1.5,3.1s1.2,2.1,2.3,2.7
		l6.9-5.8v2.7c-2,2.3-3.7,4.7-5.2,7.3c-1.7,2.6-2.4,5.5-2.4,8.7v39.2c0,0.8,0.2,1.5,0.5,2.6c0.2,1.1,0.6,2,1.1,2.9
		c0.5,1.1,1.1,1.8,1.7,2.6c0.6,0.8,1.4,1.1,2.1,1.1l4.1-3.8h1.5c0,1.5-0.8,3.1-2.3,4.6l-10.7,10.7c0,0.2-0.2,0.5-0.6,0.9
		c-0.5,0.5-1.1,1.1-1.5,1.5c-0.6,0.6-1.1,1.2-1.5,1.7c-0.5,0.5-0.8,0.8-0.9,0.9c0-0.2,0,0,0,0.3c-0.2,0.3-0.2,0.5-0.3,0.5h-0.5
		l-9.5-8.9c-1.4-1.4-2.3-3.2-2.6-5.3c-0.3-2.1-0.5-4.3-0.5-6.3v-4.4c0-2.9,0.2-7.2,0.3-12.8c0.2-5.7,0-11.1-0.3-16.8
		c-0.3-5.5-0.9-10.4-1.8-14.5c-1.1-4.1-2.6-6.3-4.7-6.3c-1.1,0-2.1,0.3-3.2,0.9c-1.1,0.8-2.1,1.5-3.1,2.4c-1.1,1.1-1.8,2.1-2.4,3.2
		c-0.8,1.1-1.1,2.1-1.2,3.1c-0.2,1.4-0.3,3.7-0.5,7.2c-0.2,3.5-0.2,7.2-0.2,11.1c-0.2,4-0.2,7.6-0.2,11.1s0,6.1,0,7.5v2
		c0,1.8,0.3,3.4,0.8,4.6c0.5,1.4,1.1,2.4,1.8,3.4c0.6,1.1,1.2,1.8,1.7,2.4c0.5,0.8,0.8,1.4,0.8,1.8c0,0.5-0.5,1.1-1.4,1.8
		c-0.9,0.8-2,1.5-3.1,2.3c-1.1,0.9-2.1,1.7-3.2,2.4c-1.1,0.8-1.8,1.5-2.3,2.1c-0.8,0.8-1.7,2-2.4,3.5c-0.8,1.5-1.5,2.3-2.1,2.3h-0.8
		c-2-3.1-4.1-5.7-6.4-7.6c-2.4-2-5.3-3.7-8.9-5v-1.1C391.6,116.8,391.9,116.1,392.3,115.3z M411.7,135.8c-0.5-0.6-0.8-1.2-1.2-1.7
		c1.7-1.7,2.9-3.2,4-4.6c0.9-1.4,2.4-3.1,4.7-4.9H419c0.3-0.3,0.9-0.8,1.7-1.4c0.8-0.5,1.5-1.1,2.3-1.7c0.8-0.6,1.4-1.2,1.8-1.8
		c0.5-0.5,0.8-0.9,0.6-1.2l0.2,0.3c1.4,2,2,3.4,1.8,4.4s-0.8,1.8-1.8,2.6c-1.1,0.8-2.4,1.7-3.8,2.4c-1.4,0.8-2.6,2-3.5,3.4
		c-0.8,0.8-1.7,2-2.4,3.5c-0.8,1.5-1.5,2.3-2.1,2.3h-0.8C412.5,136.8,412.2,136.2,411.7,135.8z M421.6,108.3
		c-0.5-1.1-0.8-2.3-0.8-3.7v-2c0-1.2,0-3.7,0-7.2c-0.2-3.5-0.2-7.2-0.2-11.3c0-4,0-7.8,0.2-11.3c0.2-3.5,0.3-5.8,0.8-6.9l-0.2,0.5
		c0.2-1.8,0.6-2.7,1.2-2.6c0.5,0.2,1.2,0.3,2,0.3c-0.2,0,0.2-0.3,0.9-0.8c0.8-0.5,1.7-0.9,2.4-1.2c0.8-0.3,1.2-0.3,1.4,0.2
		s-0.5,1.5-1.8,3.4c-2,2-3.2,4-3.7,6.1c-0.2,1.4-0.2,3.7-0.3,7.2c-0.2,3.5-0.2,7.3-0.2,11.1c-0.2,4-0.2,7.6-0.2,11.1
		c-0.2,3.5-0.2,6.1-0.2,7.5v2.4C422.6,110.4,422.1,109.3,421.6,108.3z M452.2,131.6c1.1-1.4,2-2.6,2.7-3.4l8.9-8.9
		c0.2,0.2,0.5,0.3,0.9,0.5c0.5,0.3,0.8,0.5,0.9,0.3l4.1-3.8h1.5c0,1.5-0.8,3.1-2.3,4.6l-10.7,10.7c0,0.2-0.2,0.5-0.6,0.9
		c-0.5,0.5-1.1,1.1-1.5,1.7c-0.6,0.5-1.1,1.1-1.5,1.5s-0.8,0.8-0.9,0.9c0-0.2,0,0,0,0.3c-0.2,0.3-0.2,0.5-0.3,0.5H453l-3.1-2.9
		C450.4,134.1,451.1,133,452.2,131.6z M458.8,109.7c-0.2-0.6-0.3-1.4-0.5-2.4c-0.2-0.9-0.3-1.7-0.3-2.3V65.7c0-1.1,0.3-2.4,0.8-4.3
		c0.5-1.7,1.2-2.6,2.3-2.6l6.9-5.8v2.7c-2,2.3-3.7,4.7-5.2,7.3c-1.7,2.6-2.4,5.5-2.4,8.7v36.5L458.8,109.7z M507.8,60.9
		c2.6-2.7,6-4.1,10.1-4.1c2.9,0,5.2,0.8,7.2,2.3c2,1.5,3.7,3.5,5,5.8V69c0,4.4-1.2,7.9-3.8,10.5s-6.1,4-10.4,4h-1.1V84
		c0,0.9,0.5,1.7,1.2,2.1c0.8,0.6,1.8,1.1,2.9,1.4c1.1,0.3,2.3,0.5,3.4,0.5c1.1,0.2,1.8,0.2,2.4,0.2c3.7,0,6.7-0.8,9.3-2.1
		c2.6-1.4,4.6-3.4,6.3-5.8c1.5-2.3,2.7-5,3.5-8.1c0.8-3.1,1.1-6.3,1.1-9.5c0-3.5-0.5-7-1.4-10.4c-0.9-3.2-2.3-6.1-4.1-8.7
		c-1.8-2.4-4.1-4.4-6.9-6c-2.9-1.4-6.3-2.1-10.1-2.1c-2.9,0-5.8,0.3-8.6,0.8c-2.9,0.5-5.8,0.8-8.7,0.8c-3.2,0-6.6-0.6-10.1-1.7
		c-3.5-1.1-6.6-2.6-9.5-4.6c-2.9-2-5.2-4.6-7-7.5c-1.8-2.9-2.7-6.1-2.7-9.9c0-0.2,0.2-0.6,0.3-1.7c0.2-0.9,0.3-2,0.6-3.1
		c0.2-1.1,0.5-2.1,0.9-3.1c0.5-0.9,0.9-1.4,1.5-1.4c0.3,0,0.5,0.6,0.6,1.7c0.2,1.2,0.3,2.4,0.8,3.8c0.3,1.4,0.9,2.7,1.7,3.8
		c0.8,1.2,2.1,1.8,3.8,1.8h3.8c2.7,0,5.5-0.3,8.2-1.1c2.6-0.6,5.3-1.4,8.1-2.1s5.5-1.5,8.4-2.3c2.9-0.8,5.8-1.1,8.9-1.1
		c5.5,0,10.7,1.1,15.7,3.2c4.9,2.3,9.2,5.2,12.8,9c3.7,3.8,6.6,8.1,8.7,13.1c2.1,5,3.2,10.2,3.2,15.9c0,4.7-0.9,9.5-2.7,14.5
		c-2,5-4.6,9.5-7.8,13.6c-3.2,4.1-7,7.3-11.5,9.9s-9.2,4-14.2,4c-2.7,0-5.5-0.5-8.4-1.5s-5.5-2.4-7.8-4.4c-2.3-1.8-4.3-4-5.7-6.6
		c-1.5-2.6-2.3-5.3-2.3-8.4C503.7,67.2,505,63.8,507.8,60.9z M485.8,11.3c0,0-0.2-0.2-0.6-0.6c-0.5-0.3-0.3-0.5,0.2-0.5
		C485.5,10.2,485.6,10.5,485.8,11.3z M498.5,118.2c2.3-3.8,5.2-7.2,8.7-10.1c3.5-2.9,7.3-5.2,11.8-6.9c4.3-1.7,8.6-2.4,12.7-2.4
		c3.4,0,6.6,0.2,9.8,0.6c3.1,0.5,6.1,1.2,9.3,2.4c1.1,0.5,2.1,1.1,3.4,1.8c1.1,0.8,2.3,1.7,3.7,2.4c1.2,0.8,2.4,1.5,3.8,2.1
		c1.2,0.6,2.4,0.9,3.7,0.9h1.1c2-1.1,3.4-2.6,4-4.4c0.5-1.7,0.8-3.7,0.8-5.7c0-14.8-0.2-29.6-0.5-44.1c-0.3-14.5-0.5-29.2-0.5-44
		c1.1,0,1.8,0.5,2.3,1.2c0.6,14.8,0.8,29.5,0.6,44.3s0,29.5,0.6,44.3h0.8c0.3,0,0.8-0.3,1.5-0.8c0.6-0.5,1.2-0.9,2-1.5
		c0.6-0.6,1.2-1.2,1.8-2c0.5-0.6,0.8-1.1,0.8-1.5V37.7c0-3.2,1.1-6.6,3.4-10.1c2.3-3.5,5-6.9,8.2-9.9s6.7-5.7,10.4-7.6
		c3.5-2,6.7-2.9,9.6-2.9c0,1.1-0.3,2.1-1.1,2.9c-0.8,0.9-1.7,1.8-2.6,2.7c-0.9,0.9-1.7,2-2.4,3.2c-0.8,1.4-1.1,2.9-1.1,4.9v43.5
		c0,1.2,0,3.5,0,6.7c0,3.4,0,6.9,0.2,10.5s0.2,7.2,0.3,10.4c0.2,3.2,0.2,5.5,0.3,6.7c0.2,1.1,0.5,2.4,1.1,3.8
		c0.6,1.5,1.4,2.9,2.3,4.3c0.8,1.4,1.8,2.4,2.9,3.4c1.1,1.1,2.3,1.5,3.7,1.5h0.8l6.4-6.4h0.8c0,1.4-0.5,2.9-1.5,4.3
		c-1.1,1.4-2.4,2.9-4.1,4.4c-1.7,1.7-3.5,3.4-5.5,5c-2,1.8-4,3.8-5.7,6.1c-0.6,0.5-1.4,1.4-2.1,3.1c-0.9,1.7-2,2.6-3.2,2.6
		c-0.8,0-1.5-0.2-2.3-0.6c-0.8-0.5-1.4-0.8-1.8-1.2c-5-3.8-8.6-7.8-10.8-11.9c-2.3-4.1-4-9.3-5.2-15.6c0-0.5-0.3-0.8-0.8-0.8H580
		c-0.9,0.8-2.6,2.1-4.9,4.1c-2.4,2-5,4.1-7.6,6.3c-2.7,2.3-5.3,4.3-7.6,6.3c-2.4,2-4.1,3.5-5,4.3c-0.5,0.5-0.9,1.1-1.7,2
		c-0.8,1.1-1.5,2-2.3,3.1c-0.8,1.1-1.5,2.1-2.3,2.9c-0.8,0.8-1.2,1.2-1.7,1.2c-0.2,0-0.6-0.3-1.4-1.1c-0.8-0.6-1.5-1.4-2.3-2.1
		c-0.8-0.8-1.5-1.7-2.3-2.4c-0.8-0.8-1.4-1.2-1.7-1.5c-3.5-2.1-7-4-10.8-5.5c-3.8-1.4-7.6-2.1-11.8-2.1c-5,0-9.6,1.4-13.4,4.1
		c-3.8,2.9-5.8,6.9-5.7,12.2c0,2.3,0.6,4.6,2,6.6c4.3,5.2,9.3,9,15.1,11.3c5.8,2.3,12.1,3.5,18.8,3.5c7.5,0,14.4-1.1,20.5-3.1
		c6-2,11.9-5.5,17.7-10.2h1.2v1.1c0,0.3-0.5,0.9-1.5,2l-1.2,1.4c-0.2,0.2-0.5,0.5-0.6,0.8c-0.2,0.2-0.3,0.3-0.5,0.5
		c-5.2,4.9-10.7,8.4-16.6,10.4c-6,2-12.4,3.1-19.2,3.1H525c-3.7-0.5-7.3-1.5-10.8-3.2c-3.5-1.7-6.7-3.7-9.6-6.1
		c-2.9-2.6-5.2-5.5-6.9-8.7c-1.8-3.4-2.7-7-2.7-11C494.9,126.1,496.2,122,498.5,118.2z M497.4,40.3c-0.2-0.2,0.3-0.3,1.4-0.2
		c0.9,0.2,2.1,0.2,3.5,0.3c1.4,0.2,2.3,0.3,2.9,0.3c3.2,0,6.1-0.3,9-0.8c2.9-0.5,5.7-0.8,8.2-0.8c0.6,0,1.7,0.2,3.1,0.3
		c1.4,0.3,2.4,0.6,3.5,0.8c1.1,0.3,1.7,0.6,1.8,0.8c0.2,0.3-0.6,0.5-2.3,0.5c-2.9,0-5.8,0.3-8.6,0.8c-2.9,0.5-5.8,0.8-8.7,0.8
		c-3.4,0-6.7-0.5-10.1-1.5C498.8,40.9,497.5,40.5,497.4,40.3z M504.6,133.5c-0.2,0.8-0.5,1.5-0.6,2.3c-0.2,0.6-0.5,1.1-0.6,1.4
		c-0.3,0.3-0.6,0.2-0.9-0.6l0.3,0.3c-1.1-2-1.5-4-1.1-6.4c0.5-2.3,1.4-4.3,2.7-6.1c1.2-1.5,3.1-2.6,5.3-3.4c2.3-0.8,4.6-1.1,6.9-1.1
		s4.4,0.3,6.7,0.8c2.1,0.6,4.3,1.4,6.4,2.4c-2.3-0.6-4.6-0.9-7-0.9c-3.8,0-7.3,0.8-10.5,2.3c-3.2,1.7-5.5,4-7,7
		C505,131.9,504.7,132.6,504.6,133.5z M520.8,162.6h-0.2H520.8z M520.8,162.6c1.2,0.5,2.4,0.8,3.8,0.8h8.6c5.7,0,10.8-0.6,15.4-1.8
		c4.6-1.4,9.3-3.2,14-5.8c2.4-1.4,4.9-2.6,7.5-4c2.4-1.4,5-3.1,7.6-5.2h1.2v1.1c0,0.3-0.5,0.9-1.5,2l-1.2,1.4
		c-0.2,0.2-0.5,0.5-0.6,0.8c-0.2,0.2-0.3,0.3-0.5,0.5c-5.2,4.9-10.7,8.4-16.6,10.4s-12.4,3.1-19.2,3.1h-8.1
		C527.6,165.2,524.3,164.3,520.8,162.6z M522.1,95.1c0.2,0.2,0.6,0.2,1.1,0.3c0.5,0.2,0.8,0.2,1.1,0.2c0.3,0.2,0.5,0.2,0.5,0.2
		c0,0.2-0.3,0.2-1.1,0.2C523.2,95.8,522.6,95.4,522.1,95.1z M533.6,81.6c-1.7,1.4-4,2.1-6.6,2.6c4.6-3.2,6.9-8.2,6.9-15.1v-1.2
		l2.3,3.2v4.1C536.2,78.2,535.3,80.3,533.6,81.6z M544.1,96.1c-1.5-0.3-3.1-0.6-4.7-0.8c-1.7-0.2-3.4-0.2-5-0.3
		c4-0.9,7.8-2.6,11.3-4.9c3.5-2.3,6.7-5.2,9.6-8.4c2.7-3.2,5.2-6.9,7.2-10.8c2-3.8,3.4-7.8,4.3-11.9c0,2,0,4.1,0.2,6.1
		c0,2.1,0,4.3,0,6.3c-1.8,4.7-4.3,9.2-7.5,13.1c-3.2,4-7,7.2-11.5,9.8C546.6,95,545.3,95.6,544.1,96.1z M551.1,131.8
		c1.4-1.4,2.9-2.9,4.3-4.7c0.5-0.5,0.8-0.9,1.1-1.4c0.2-0.3,0.6-0.8,1.1-1.2l-0.2,0.2c1.1-0.8,2.6-2.1,4.7-4
		c2.1-1.7,4.4-3.7,6.9-5.7c1.1,0.2,1.8,0.3,2.3,0.3h1.1c1.1-0.6,1.8-1.2,2.3-2c0.5-0.6,0.8-1.2,1.1-2c0.3-0.8,0.6-1.4,1.1-2.1
		c0.3-0.8,0.9-1.4,1.7-2c0.2,0.8,0.5,1.7,0.8,2.4c0.2,0.8,0.5,1.7,0.6,2.4c-1.2,1.1-2.7,2.3-4.6,4c-2,1.7-3.8,3.2-5.7,4.7
		c-2,1.7-3.7,3.1-5.2,4.3c-1.7,1.4-2.7,2.3-3.5,2.7c-0.5,0.5-0.9,1.1-1.7,2c-0.8,1.1-1.5,2.1-2.3,3.2c-0.8,1.1-1.5,2-2.3,2.7
		c-0.8,0.8-1.2,1.2-1.7,1.2c-0.2,0-0.6-0.3-1.4-1.1C549.9,134.5,549.8,133.2,551.1,131.8z M557.3,124.6c-0.2,0.2-0.2,0.2-0.2,0.2
		l0.3-0.2C557.3,124.6,557.3,124.6,557.3,124.6z M577.6,32.8c-0.3,1.1-0.6,2.1-0.8,3.2c0-1.1,0-3.1,0-5.7c-0.2-2.6-0.2-5.2,0-7.5
		s0.3-4.1,0.5-5.3c0.2-1.2,0.6-0.9,1.2,0.8l0.3,11.3C578.3,30.7,577.9,31.8,577.6,32.8z M602.6,134.5c1.4-0.3,2.6-0.9,3.4-2
		c0.8-1.2,1.7-2.3,2.4-3.4v0.2c0.9-1.1,2-2.3,3.1-3.7s2.3-2.6,3.5-3.8c1.1-1.1,2.3-2.1,3.5-2.9c1.1-0.8,2.1-1.1,3.2-1.1h0.8l6.4-6.4
		h0.8c0,1.4-0.5,2.9-1.5,4.3s-2.4,2.9-4.1,4.4c-1.7,1.7-3.5,3.4-5.5,5c-2,1.8-4,3.8-5.7,6.1c-0.6,0.5-1.4,1.5-2.1,3.2
		c-0.9,1.7-2,2.4-3.2,2.4c-0.8,0-1.5-0.2-2.3-0.6c-0.8-0.5-1.4-0.8-1.8-1.2C603.2,135,602.9,134.8,602.6,134.5z M611.6,101.9
		c0,1.1,0,2,0,2.6c-0.5-0.9-0.9-2-1.2-3.2c-0.5-1.1-0.8-2.1-0.9-2.9v0.2c-0.2-1.2-0.2-3.5-0.3-6.7s-0.2-6.6-0.2-10.2
		c-0.2-3.7-0.2-7.2-0.2-10.4c-0.2-3.2-0.2-5.5-0.2-6.7V20.9c0-1.4,0.3-2.6,1.1-3.5c0.6-0.9,1.4-1.8,2.1-2.6l0.3-0.3
		c3.2-1.1,5-1.4,5.3-0.9c0.2,0.5-0.2,1.4-1.1,2.7c-1.1,1.4-2.1,3.1-3.5,5s-2,4-2,5.7v43.5c0,0.9,0,2.4,0,4.6c0,2.1,0,4.6,0.2,7.2
		c0,2.6,0,5.3,0.2,8.1c0,2.9,0,5.5,0.2,7.8C611.6,99.6,611.6,100.8,611.6,101.9z"/>
	<path class="st0" d="M635.4,122.6c-1.1,1.1-2.1,2.3-2.9,3.4c-0.9,1.1-1.7,2-2.1,2.6c-0.5,0.6-0.8,0.3-0.8-0.8
		c0-3.8,1.2-7.3,3.5-10.5c2.3-3.1,4.6-5.8,7.2-8.1l0.8-2V79.7c0-2.1,0-4.6,0-7.3c-0.2-2.6-0.3-5.2-0.6-7.6s-0.9-4.6-1.7-6.3
		c-0.8-1.7-2-2.4-3.5-2.4c0-0.5-0.3-0.3-0.8,0.2c-0.6,0.5-1.2,1.1-2,1.5c-0.8,0.6-1.4,1.1-2,1.2c-0.6,0.2-0.9-0.3-0.9-1.4v-0.8
		c2.6-3.2,5.8-6.1,9.5-8.6c3.7-2.3,7.2-4.9,10.4-7.8h0.3c0.5,0,1.4,0.9,2.4,2.6c1.1,1.7,2.3,3.7,3.5,5.7c1.1,2,2.1,4,3.2,5.7
		c0.9,1.7,1.5,2.6,1.7,2.6c0.2,0,0.5,0,0.6-0.2c0.2,0,0.3,0,0.5,0h1.1c3.7-3.1,7.2-5.8,10.4-8.2c3.2-2.3,6.4-5.3,9.9-8.9h0.3
		c0.2,0,0.6,0.5,1.5,1.2c0.9,0.9,1.8,1.8,2.7,2.6l1.5,1.5c3.5,3.2,5.7,7,6.6,11.5c0.8,4.4,1.2,8.9,1.2,13.3c0,1.7,0,3.5,0,5.2
		c-0.2,1.7-0.2,3.5-0.2,5.2c0,1.5,0,3.2,0.2,4.9c0,1.8,0,3.7,0,5.7c0,4.7-0.5,9.3-1.5,13.7c-1.1,4.4-3.5,7.9-7.5,10.4
		c-4.1,2.4-7.8,4.6-11.1,6.4c-3.5,2-6.7,4.6-9.8,8.1h-0.8l-3.5-3.4H662c0,0.2-0.3,0.5-0.8,0.8c-0.2,2.4-0.3,4.9-0.3,7.3
		c-0.2,2.4-0.3,4.9-0.8,7.2l-6.6,6.4c-1.1,0.9-2,2-3.1,3.4c-1.1,1.4-2,2.6-2.9,3.8c-0.9,1.2-1.8,2.3-2.6,3.1
		c-0.9,0.8-1.7,1.2-2.4,1.2c-0.8,0-1.2-0.3-1.2-0.8v-35.9c0-0.8-0.3-1.2-0.9-1.4c-0.8-0.2-1.2-0.2-1.7-0.2
		C637.7,121,636.5,121.6,635.4,122.6z M635.8,63.7v-0.2c0.2,0.2,0.2,0.3,0.2,0.6c0,0.3,0,0.5,0.2,0.6
		C635.9,64.6,635.8,64.1,635.8,63.7z M637.6,126.1v7.9c-0.3,0.5-0.6,0.6-1.1,0.6c-0.5,0-0.8-0.3-0.8-0.8
		C635.8,131,636.4,128.4,637.6,126.1z M647.5,164.5v-3.7c0.2-0.3,0.5-0.8,0.8-1.5c0.3-0.8,0.8-1.2,1.2-1.2c1.4-1.8,3.2-4,5.8-6.4
		c2.6-2.6,4.6-4.6,6.3-6.3l2.3-2.3c0.3-1.7,0.5-3.4,0.6-4.9c0.2-1.7,0.2-3.4,0.3-5h2.4l-0.3,7c0,2.7-0.2,5.2-0.6,7.2l-6.6,6.4
		c-1.1,0.9-2,2-3.1,3.4c-1.1,1.4-2,2.6-2.9,3.8c-0.9,1.2-1.8,2.3-2.6,3.1c-0.9,0.8-1.7,1.2-2.4,1.2c-0.2,0-0.5-0.2-0.9-0.3
		C647.7,164.8,647.5,164.6,647.5,164.5z M664.6,106.6c1.7,1.2,3.5,2.3,5.5,3.4c1.8,1.1,3.5,2,5,2.7c1.4,0.8,2.1,0.9,2.1,0.6
		c0.2-6.3,0.5-12.1,0.6-17.3c0.2-5,0.2-10.5,0.2-16.3c0-1.1,0-3.1-0.2-5.7c-0.2-2.6-0.5-5.2-0.9-7.9c-0.5-2.6-1.4-5-2.6-7
		c-1.2-2-2.9-3.1-5-3.1c-2.7,0-4.7,1.2-6,3.8c-1.2,2.6-2,5.8-2.3,9.6c-0.5,3.8-0.5,7.9-0.3,12.4s0.2,8.4,0.2,12.1V95
		c0,0.3,0,0.9,0.2,1.7c0,0.9,0,1.8,0,2.7c0,0.9,0,1.8,0.2,2.6c0,0.9,0,1.5,0,1.8C661.7,104.6,662.9,105.5,664.6,106.6z M670.1,61.9
		c0.5-0.3,0.8-0.6,1.2-0.9c0.8,1.4,0.8,2.1,0.2,2.6c-0.6,0.5-1.2,1.2-2,2.6c-1.1,1.8-1.7,4.1-2,6.7c-0.5,2.7-0.6,5.7-0.6,8.7
		c-0.2,3.2-0.2,6.3,0,9.5c0.2,3.2,0.2,6.3,0.2,9v4c-1.1-0.8-1.7-1.5-1.8-2c-0.2-0.5-0.3-1.2-0.3-2.6c0-0.6,0-1.2,0-1.7
		c-0.2-0.5-0.2-1.1-0.2-1.5v-2.3c0-1.1,0-2.3,0-3.5c-0.2-1.1-0.2-2.3-0.2-3.7s0-2.6,0-4c-0.2-1.4-0.2-2.7-0.2-4.1s0-2.9,0-4.7
		c0-1.7,0.2-3.4,0.3-5c0.2-1.7,0.3-3.1,0.6-4.1s0.8-1.7,1.4-1.7c0.2,0,0.5,0,0.6-0.2c0.2,0,0.3,0,0.5,0h1.1
		C669.3,62.5,669.7,62.2,670.1,61.9z M676.8,126c2.3-1.7,4.9-3.2,7.5-4.6c0.8-0.5,1.7-1.1,2.7-1.7c1.1-0.5,2-1.1,2.9-1.5
		c4.9-3.2,7.9-7.2,9.2-12.2c1.1-4.9,1.7-9.9,1.7-15.3c0-1.1,0-2,0-3.1c-0.2-0.9-0.2-1.8-0.2-2.7V75c0-0.8,0-1.7,0.2-2.6
		c0-0.8,0-1.7,0-2.6c0-1.1,0-2.6-0.2-4.6c-0.2-2-0.3-3.7-0.3-5c-0.2-1.4,0-2.1,0.2-2.1s0.5,1.5,1.2,4.6c0.9,4.4,1.4,8.9,1.4,13.3
		c0,1.7,0,3.5,0,5.2c-0.2,1.7-0.2,3.5-0.2,5.2c0,1.5,0,3.2,0.2,4.9c0,1.8,0,3.7,0,5.7c0,4.7-0.5,9.3-1.5,13.7
		c-1.1,4.4-3.5,7.9-7.5,10.4c-4.1,2.4-7.8,4.6-11.1,6.4c-3.5,2-6.7,4.6-9.8,8.1h-0.8l-3.1-3.1C671.9,129.8,674.4,127.7,676.8,126z
		 M710.7,120.3c2-3.5,4.7-6.7,7.9-9.5c3.2-2.6,6.7-4.9,10.7-6.9c4-1.8,7.9-3.4,11.9-4.4c1.1-0.3,2.4-0.6,4.1-0.8
		c1.5-0.2,3.1-0.6,4.4-1.1s2.6-1.2,3.7-2.1s1.5-2.3,1.5-4V55c0-3.5,1.4-6.7,4.1-9.5c2.7-2.7,5.5-5,8.4-7c0.5-0.2,1.4-0.8,3.1-1.7
		c1.5-0.9,2.7-1.8,3.5-2.9c-0.8-0.9-1.8-1.4-3.2-1.4c-1.4,0.2-2.6,0-3.4-0.5c-2.3-0.6-4.6-1.5-6.7-2.9c-2.3-1.2-4.3-2.7-6-4.6
		c-1.8-1.8-3.2-4-4.3-6.3s-1.7-4.7-1.7-7.3c0-0.5,0-1.1,0.2-2c0-0.9,0.2-1.8,0.3-2.9s0.5-2,0.9-2.7c0.5-0.8,0.9-1.1,1.7-1.1
		c0.9,0,1.5,0.6,1.7,1.8s0.6,2.1,1.4,2.7c1.4,0.9,2.7,1.5,4.1,1.8s2.9,0.5,4.6,0.5h19.9l3.7,0.6c2.6,0.5,5.7,0.9,8.9,1.4
		c3.2,0.6,5.3,1.1,6.6,1.4c3.2,0.8,6.1,2,9,4s5.3,4.3,7.5,7s3.8,5.8,5.2,9c1.2,3.2,1.8,6.6,2,9.8l1.2,57c0,0.8,0.3,1.8,0.9,3.1
		c0.6,1.2,1.4,2.4,2.3,3.5c0.8,1.1,1.7,2.1,2.7,2.9s2,1.2,2.7,1.2c1.1,0,2-0.5,2.6-1.2c0.6-0.8,1.2-1.5,1.7-2.4
		c0.5-0.9,1.1-1.8,1.7-2.6c0.5-0.8,1.2-1.1,2.1-1.1c0,1.8-0.8,3.7-2.1,5.3c-1.4,1.8-2.7,3.4-4,4.6c-0.6,0.6-2,2-4.3,4.1
		c-2.3,2.1-4.6,4.3-6.9,6.4c-2.3,2.1-4.4,3.8-6.3,5.2c-2,1.4-2.9,1.7-2.9,0.8c-0.3-0.3-0.8-0.9-1.5-1.8c-0.8-0.8-1.7-1.7-2.6-2.6
		s-1.8-1.8-2.6-2.7c-0.8-0.8-1.4-1.4-1.7-1.7c-2-2.3-3.4-5.2-4.1-8.4c-0.8-3.2-1.4-6.7-1.5-10.5c-0.3-3.8-0.5-7.8-0.3-12.1
		c0-4.1-0.2-8.4-0.5-12.8c-0.2-1.1-0.6-1.8-1.2-2c-0.8-0.2-1.5-0.3-2.3-0.3c-0.5,0-0.9,0-1.7,0c-0.8,0.2-1.7,0.2-2.4,0.3
		s-1.5,0.5-2.1,0.8c-0.6,0.5-0.9,0.9-0.9,1.5v24.4c0,2-0.3,3.5-1.1,4.7c-0.8,1.4-1.7,2.4-2.7,3.5c-1.1,1.1-2.4,1.8-3.8,2.6
		c-1.5,0.8-3.1,1.7-4.6,2.6c-2.4,1.4-4.9,3.1-7.3,5c-2.6,2-4.7,3.8-6.4,5.7c-1.4,1.4-2.6,2.9-3.7,4.6c-1.1,1.7-1.5,2.6-1.7,2.6h-0.5
		c-0.2,0-0.5-0.5-1.1-1.4c-0.8-0.8-1.5-1.8-2.3-3.1c-0.9-1.1-1.8-2.3-2.7-3.4c-0.9-1.1-1.7-1.7-2.3-2.1c-3.1-1.4-6.3-2.3-9.6-3.1
		c-3.4-0.8-6.7-1.1-10.2-1.1c-2.1,0-4.4,0.3-7,0.9c-2.6,0.6-5,1.5-7.3,2.7c-2.3,1.4-4.1,3.1-5.5,5c-1.5,2-2.3,4.4-2.3,7.3
		c0,2.6,0.8,4.7,2.4,6.6c1.5,1.8,3.2,3.5,5.2,5.2c1.5,1.4,3.5,2.4,5.8,3.2c2.3,0.8,4.7,1.2,7.3,1.7c2.6,0.5,5,0.6,7.6,0.8
		s4.7,0.2,6.7,0.2c4.4,0,8.6-0.2,12.4-0.6c3.8-0.5,7.3-1.2,10.5-2.6c3.2-1.4,6.1-3.2,8.7-5.8c2.6-2.6,5-6,7-10.1h1.1
		c0,2-0.5,3.8-1.2,5.3c-0.8,1.5-1.8,3.2-2.9,4.9c-4.3,6.6-9.6,11-15.9,13.6c-6.3,2.4-13.1,3.7-20.5,3.7c-4,0-8.1-0.5-12.5-1.5
		c-4.4-1.1-8.4-2.7-11.9-4.9c-3.7-2.3-6.7-5-9-8.6c-2.3-3.5-3.5-7.6-3.5-12.5C707.7,128.1,708.7,124,710.7,120.3z M716.4,139.6
		c-1.5-1.7-2.3-3.4-2.3-5c0.2-2.3,0.9-4.1,2.1-5.8c1.2-1.5,2.7-2.7,4.4-3.8c1.7-0.9,3.7-1.7,5.8-2.1c2-0.5,4-0.6,6-0.6
		c0.5,0,1.5,0,3.5,0.2c2,0.2,4,0.5,6.1,0.8c2.1,0.3,4.1,0.6,5.8,1.1c1.7,0.5,2.6,1.1,2.6,1.7v0.2c-0.3-0.2-0.9-0.3-1.7-0.5
		c-3.2-0.8-6.6-1.1-10.2-1.1c-3.2,0-6.7,0.6-10.7,2c-4.1,1.4-7.2,3.7-9.3,6.7C717.3,134.8,716.5,137,716.4,139.6z M730.9,162.5
		c5,1.1,9.6,1.7,13.7,1.7c6.1,0,11.9-0.8,17.3-2.3c5.3-1.7,10.4-4.4,14.8-8.2c2.3-1.2,4.4-2.7,6.4-4.6c2.7-2.7,5-6.1,7-10.1h1.1
		c0,2-0.5,3.8-1.2,5.3c-0.8,1.5-1.8,3.2-2.9,4.9c-4.3,6.6-9.6,11-15.9,13.6c-6.3,2.4-13.1,3.7-20.5,3.7c-3.7,0-7.8-0.6-12.5-1.7
		C735.6,164.2,733.2,163.4,730.9,162.5z M761.1,99.3c0.5,0.2,1.8,0.8,3.8,1.8c2,1.1,3.4,1.7,3.8,2c0.8,0.5,1.7,1.1,2.7,2
		s2.1,1.8,3.2,2.7c1.1,1.1,2,1.8,3.1,2.6c0.9,0.8,1.7,1.1,2.4,1.1c2-0.2,4.1-1.1,6.6-3.1c2.4-1.8,3.7-3.8,3.7-6.1V79.7
		c0-2.9,0-6.6,0-10.7c-0.2-4.1-0.2-8.1-0.3-12.2S790,49,790,45.7c-0.2-3.4-0.2-5.8-0.3-7.2v-0.9c0-1.7-0.6-2.9-1.7-3.4
		c-1.1-0.5-2.4-0.6-4-0.6c-1.1,0-2.1,0.6-3.2,1.7c-1.2,1.2-1.8,2.3-1.8,3.2v41.7c0,2.4-0.9,4.6-2.9,6.6c-2,2-4.1,3.8-6.4,5.2
		c-2.3,1.5-4.4,2.7-6.4,3.7c-2,1.1-2.9,1.8-2.9,2.4l0.3,0.5L761.1,99.3z M764.3,135.6c-0.5-0.6-0.3-1.2,0.3-1.8
		c1.7-2.6,4.1-5.5,7.5-8.6c3.4-3.1,6.9-5.7,10.4-7.6c1.1-0.5,1.8-0.6,2.1-0.5c0.3,0.3,0.9,0.5,1.7,0.5c2-0.2,4.1-1.1,6.6-3.1
		c2.4-1.8,3.7-3.8,3.7-6.1V85.8c0-1.2,0-2.6,0-4s0-2.7-0.2-4.3v-0.3c0.5,0.5,0.8,0.6,1.2,0.6c0.3,0,0.6,0,0.9,0s0.6,0.2,0.8,0.3
		s0.2,0.8,0.2,1.5c0,0.2,0,0.3,0.2,0.8c0,0.5,0,0.8,0,0.8l-0.2,0.2c-0.6,0.3-0.9,0.8-0.9,1.4v24.4c0,2-0.3,3.5-1.1,4.7
		c-0.8,1.4-1.7,2.4-2.7,3.5c-1.1,1.1-2.4,1.8-3.8,2.6c-1.5,0.8-3.1,1.7-4.6,2.6c-2.4,1.4-4.9,3.1-7.3,5c-2.6,2-4.7,3.8-6.4,5.7
		c-1.4,1.4-2.6,3.1-3.7,4.7s-1.5,2.4-1.7,2.4h-0.5c0,0-0.5-0.5-1.2-1.4C765.1,136.7,764.8,136.2,764.3,135.6z M773.8,99.4
		c-0.8,0.5-1.4,0.8-2.1,1.2c-0.5-0.5-0.9-0.8-1.2-0.9l-3.5-1.7c1.5-0.9,3.2-2,5.2-3.1c1.8-1.1,3.5-2.4,5.2-3.8
		c1.5-1.4,2.9-3.1,4-4.9c1.1-1.7,1.5-3.8,1.5-6.1V38.5c0-0.2,0.2-0.5,0.5-0.8c0.3-0.2,0.6-0.3,0.8-0.3h1.2c0.5,0,0.6,0,0.6,0.2v1.2
		c0,0.8-0.2,1.7-0.3,2.7c-0.3,1.2-0.5,2.3-0.5,3.1v41.7c0,2.4-0.9,4.6-2.9,6.6c-2,2-4.1,3.8-6.4,5.3C775,98.7,774.4,99.1,773.8,99.4
		z M793,35.6c-0.5,0.2-0.6,0.5-0.6,1.1V55c0,0.8,0.2,1.4,0.6,2.1c0.3,0.8,0.5,1.2,0.5,1.2h8.4l0.8-0.8c-0.2,0,0-1.1,0.2-3.2
		c0.2-2,0.3-3.8,0.3-5.2c0-1.4-0.2-2.7-0.3-4.4c-0.3-1.7-0.8-3.2-1.4-4.6c-0.6-1.4-1.5-2.4-2.6-3.4c-1.2-0.9-2.7-1.4-4.6-1.4
		C793.8,35.4,793.5,35.4,793,35.6z M797.8,41.2c0.5,0.6,0.8,1.4,0.8,2.1v11.1h-2.3V39.9C796.7,40.2,797.2,40.6,797.8,41.2z
		 M822.2,133.2c0-0.2,0-0.2-0.2-0.3c3.2-2.3,6.1-4.7,8.6-7.2s4.7-4.7,6.9-7l3.2-3.1c0.6,0.3,1.2,0.5,1.7,0.5c1.1,0,2-0.5,2.6-1.2
		c0.6-0.8,1.2-1.5,1.7-2.4c0.5-0.9,1.1-1.8,1.7-2.6c0.5-0.8,1.2-1.1,2.1-1.1c0,1.8-0.8,3.7-2.1,5.3c-1.4,1.8-2.7,3.4-4,4.6
		c-0.6,0.6-2,2-4.3,4.1c-2.3,2.1-4.6,4.3-6.9,6.4s-4.4,4-6.3,5.3c-2,1.4-2.9,1.5-2.9,0.6c-0.2-0.2-0.3-0.3-0.6-0.6
		c-0.3-0.3-0.6-0.8-1.1-1.2C822.2,133.2,822.2,133.2,822.2,133.2z M832.4,48.4l1.2,55.9c-0.6-0.8-1.1-1.7-1.5-2.7
		c-0.5-0.9-0.8-1.7-0.8-2.3l-1.2-57.1c-0.2-0.8-0.2-1.8-0.2-2.9c-0.2-1.1-0.3-2-0.6-2.7l0.9,2.1C831.7,42,832.4,45.2,832.4,48.4z
		 M871.1,46.6c-4.3-2.4-7.9-5.2-11-8.1s-4.6-7-4.7-12.5c0-2,0.3-4.3,1.1-6.6c0.8-2.3,1.7-4.3,3.1-6.3s2.9-3.5,4.9-4.9
		c1.8-1.2,4-1.8,6.3-1.8c0,0.9-0.2,1.7-0.6,2.3s-0.9,1.2-1.4,1.8s-0.9,1.2-1.4,2s-0.8,1.7-0.8,2.7c0,2,0.6,3.7,2,5
		c1.2,1.4,2.7,2.6,4.6,3.7c1.8,1.1,3.7,2.1,5.7,2.9c2,0.8,3.5,1.7,4.9,2.4c2.9,1.7,6,3.7,9.3,6c3.2,2.3,6.4,4.9,9.3,7.8
		c2.9,2.9,5.2,6,7.2,9.3c2,3.4,2.9,7,2.9,11V98c0,1.8-0.5,3.7-1.2,5.7c-0.9,2-2,3.8-3.4,5.5c-1.4,1.8-2.7,3.5-4.3,4.9
		c-1.7,1.5-3.2,2.7-4.6,3.5c-3.5,2.1-6.9,4.3-9.9,6.4c-3.2,2.1-6.3,4.9-9.2,8.1h-1.1c-2.3-2.3-4.7-4.4-7.5-6.6
		c-2.9-2-5.5-4.3-7.8-6.7c-2.3-2.3-4.3-5-6-7.9c-1.7-2.9-2.4-6.3-2.4-10.1V72.8c0-3.2,0.9-6.3,2.7-9.2c1.7-2.9,3.7-5.3,5.8-7.6
		c2-2.1,4-4,5.7-5.3c1.7-1.4,2.6-2.1,2.6-2.6C871.8,47.3,871.5,46.7,871.1,46.6z M870.3,15.3c0-1.1,0.9-1.7,2.6-2.1s2.9-0.6,3.8-0.6
		c0.2,1.4-0.3,2.4-1.2,3.2c-0.9,0.8-1.7,1.7-2.3,3.1l-0.3,0.6C871.2,18.2,870.3,16.8,870.3,15.3z M876,53.8V97
		c0,1.2,0.6,2.9,1.7,4.9c1.1,2,2.4,4,4.1,5.8c1.5,2,3.2,3.7,4.9,5s3.2,2.1,4.3,2.1h0.3c0.2-0.2,0.8-0.6,1.5-1.1V70.2
		c0-1.4-0.5-3.1-1.5-5.2c-1.1-2.1-2.3-4.3-3.8-6.4c-1.5-2-3.1-3.8-4.7-5.3c-1.7-1.4-3.2-2.1-4.4-2.1C876.7,51.2,876,52.1,876,53.8z
		 M879.8,97V55.4c0.8,0.5,1.4,1.1,1.8,1.5c0.3,0.5,0.5,1.5,0.5,2.9v42.8C880.6,100.3,879.8,98.5,879.8,97z M883.5,136.8
		c-0.5-0.5-1.1-0.9-1.5-1.4c3.2-3.5,6.4-6.3,9.5-8.4c2.9-2,6.1-4.1,9.5-6.1c1.7-1.1,3.4-2.4,5.2-4.1c1.7-1.7,3.4-3.5,4.9-5.5
		s2.7-4.3,3.8-6.6c0.9-2.3,1.4-4.4,1.4-6.7V63.4c0-1.5-0.2-3.1-0.5-4.6c1.8,3.2,2.7,6.9,2.7,10.7v34.7c0,1.8-0.5,3.7-1.2,5.7
		c-0.9,2-2,3.8-3.4,5.5c-1.4,1.8-2.7,3.5-4.3,4.9c-1.7,1.5-3.2,2.7-4.6,3.5c-3.5,2.1-6.9,4.3-9.9,6.4c-3.2,2.1-6.3,4.9-9.2,8.1h-1.1
		C884.4,137.8,883.9,137.3,883.5,136.8z"/>
	<polygon class="st0" points="120,150.2 120,161.3 117.9,161.3 112.4,154.6 112.4,161.3 109.9,161.3 109.9,150.2 112,150.2 
		117.5,156.9 117.5,150.2 	"/>
	<path class="st0" d="M125.3,155.8c0-3.3,2.6-5.7,6-5.7c3.5,0,6,2.4,6,5.7s-2.6,5.7-6,5.7C127.9,161.5,125.3,159,125.3,155.8z
		 M134.8,155.8c0-2.1-1.5-3.5-3.4-3.5c-2,0-3.4,1.4-3.4,3.5s1.5,3.5,3.4,3.5C133.3,159.3,134.8,157.8,134.8,155.8z"/>
	<path class="st0" d="M149.7,161.3l-2.1-3.1h-0.1h-2.2v3.1h-2.6v-11h4.8c2.9,0,4.8,1.5,4.8,4c0,1.7-0.8,2.9-2.3,3.5l2.5,3.5H149.7z
		 M147.3,152.3h-2.1v3.8h2.1c1.6,0,2.3-0.7,2.3-1.9C149.7,153,148.9,152.3,147.3,152.3z"/>
	<polygon class="st0" points="159.8,152.3 156.2,152.3 156.2,150.2 165.8,150.2 165.8,152.3 162.3,152.3 162.3,161.3 159.8,161.3 	
		"/>
	<path class="st0" d="M169.7,155.8c0-3.3,2.6-5.7,6-5.7c3.5,0,6,2.4,6,5.7s-2.6,5.7-6,5.7C172.3,161.5,169.7,159,169.7,155.8z
		 M179.2,155.8c0-2.1-1.5-3.5-3.4-3.5c-2,0-3.4,1.4-3.4,3.5s1.5,3.5,3.4,3.5C177.7,159.3,179.2,157.8,179.2,155.8z"/>
	<polygon class="st0" points="197.2,150.2 197.2,161.3 195.1,161.3 189.6,154.6 189.6,161.3 187.1,161.3 187.1,150.2 189.2,150.2 
		194.7,156.9 194.7,150.2 	"/>
	<path class="st0" d="M207.5,156.4v-6.2h2.6v6.1c0,2.1,0.9,3,2.5,3c1.6,0,2.5-0.9,2.5-3v-6.1h2.5v6.2c0,3.2-1.9,5-5,5
		S207.5,159.7,207.5,156.4z"/>
	<path class="st0" d="M233,154.2c0,2.5-1.8,4-4.8,4H226v3h-2.6v-11h4.8C231.1,150.2,233,151.8,233,154.2z M230.4,154.2
		c0-1.2-0.8-1.9-2.3-1.9H226v3.8h2.1C229.6,156.1,230.4,155.4,230.4,154.2z"/>
	<path class="st0" d="M238.2,150.2h5c3.6,0,6.1,2.2,6.1,5.5s-2.5,5.5-6.1,5.5h-5V150.2z M243.1,159.2c2.2,0,3.6-1.3,3.6-3.4
		s-1.4-3.4-3.6-3.4h-2.3v6.8H243.1z"/>
	<path class="st0" d="M261.7,158.9h-5.1l-1,2.4h-2.6l4.9-11h2.5l4.9,11h-2.7L261.7,158.9z M260.9,157l-1.7-4.2l-1.7,4.2H260.9z"/>
	<polygon class="st0" points="271.6,152.3 268,152.3 268,150.2 277.6,150.2 277.6,152.3 274.1,152.3 274.1,161.3 271.6,161.3 	"/>
	<polygon class="st0" points="290.9,159.2 290.9,161.3 282.4,161.3 282.4,150.2 290.7,150.2 290.7,152.3 284.9,152.3 284.9,154.7 
		290,154.7 290,156.7 284.9,156.7 284.9,159.2 	"/>
	<path class="st0" d="M295.5,160.2l0.9-1.9c0.9,0.7,2.3,1.1,3.6,1.1c1.5,0,2.1-0.5,2.1-1.2c0-2.1-6.4-0.6-6.4-4.7
		c0-1.9,1.5-3.4,4.6-3.4c1.4,0,2.8,0.3,3.8,1l-0.8,1.9c-1-0.6-2.1-0.9-3.1-0.9c-1.5,0-2.1,0.6-2.1,1.3c0,2,6.4,0.6,6.4,4.7
		c0,1.8-1.5,3.4-4.7,3.4C298.2,161.5,296.4,160.9,295.5,160.2z"/>
	<path class="st0" d="M322.7,161.5l-1.3-1.2c-1,0.8-2.3,1.2-3.7,1.2c-2.4,0-4.2-1.3-4.2-3c0-1.4,0.7-2.3,2.4-3.3
		c-0.8-0.8-1.1-1.5-1.1-2.3c0-1.6,1.4-2.7,3.4-2.7c1.9,0,3.2,1,3.2,2.5c0,1.1-0.7,2-2.2,2.8l2,1.9c0.2-0.5,0.4-1.1,0.6-1.7l2,0.6
		c-0.2,0.9-0.5,1.8-1,2.5l1.3,1.2L322.7,161.5z M319.9,158.9l-2.7-2.5c-1,0.6-1.4,1.1-1.4,1.8c0,0.8,0.8,1.4,2,1.4
		C318.6,159.5,319.3,159.3,319.9,158.9z M317,152.8c0,0.4,0.2,0.7,0.9,1.4c1.1-0.6,1.4-1,1.4-1.5c0-0.5-0.4-0.9-1.1-0.9
		C317.4,151.8,317,152.2,317,152.8z"/>
	<path class="st0" d="M340.8,158.9h-5.1l-1,2.4h-2.6l4.9-11h2.5l4.9,11h-2.7L340.8,158.9z M340,157l-1.7-4.2l-1.7,4.2H340z"/>
	<path class="st0" d="M348.9,150.2h5c3.6,0,6.1,2.2,6.1,5.5s-2.5,5.5-6.1,5.5h-5V150.2z M353.8,159.2c2.2,0,3.6-1.3,3.6-3.4
		s-1.4-3.4-3.6-3.4h-2.3v6.8H353.8z"/>
	<polygon class="st0" points="375.6,150.2 370.8,161.3 368.3,161.3 363.5,150.2 366.3,150.2 369.6,158.1 373,150.2 	"/>
	<polygon class="st0" points="388.4,159.2 388.4,161.3 379.8,161.3 379.8,150.2 388.2,150.2 388.2,152.3 382.4,152.3 382.4,154.7 
		387.5,154.7 387.5,156.7 382.4,156.7 382.4,159.2 	"/>
	<path class="st0" d="M400.8,161.3l-2.1-3.1h-0.1h-2.2v3.1h-2.6v-11h4.8c2.9,0,4.8,1.5,4.8,4c0,1.7-0.8,2.9-2.3,3.5l2.5,3.5H400.8z
		 M398.4,152.3h-2.1v3.8h2.1c1.6,0,2.3-0.7,2.3-1.9C400.8,153,400,152.3,398.4,152.3z"/>
	<polygon class="st0" points="410.9,152.3 407.3,152.3 407.3,150.2 416.9,150.2 416.9,152.3 413.4,152.3 413.4,161.3 410.9,161.3 	
		"/>
	<rect x="421.7" y="150.2" class="st0" width="2.6" height="11"/>
	<path class="st0" d="M429.4,160.2l0.9-1.9c0.9,0.7,2.3,1.1,3.6,1.1c1.5,0,2.1-0.5,2.1-1.2c0-2.1-6.4-0.6-6.4-4.7
		c0-1.9,1.5-3.4,4.6-3.4c1.4,0,2.8,0.3,3.8,1l-0.8,1.9c-1-0.6-2.1-0.9-3.1-0.9c-1.5,0-2.1,0.6-2.1,1.3c0,2,6.4,0.6,6.4,4.7
		c0,1.8-1.5,3.4-4.7,3.4C432.1,161.5,430.3,160.9,429.4,160.2z"/>
	<rect x="443.6" y="150.2" class="st0" width="2.6" height="11"/>
	<polygon class="st0" points="462.3,150.2 462.3,161.3 460.2,161.3 454.7,154.6 454.7,161.3 452.2,161.3 452.2,150.2 454.3,150.2 
		459.8,156.9 459.8,150.2 	"/>
	<path class="st0" d="M475.7,155.6h2.3v4.5c-1.2,0.9-2.9,1.4-4.5,1.4c-3.5,0-6-2.4-6-5.7c0-3.3,2.6-5.7,6.1-5.7
		c1.9,0,3.5,0.7,4.6,1.9l-1.6,1.5c-0.8-0.9-1.7-1.2-2.9-1.2c-2.1,0-3.6,1.4-3.6,3.5c0,2.1,1.5,3.5,3.6,3.5c0.7,0,1.3-0.1,2-0.5
		V155.6z"/>
</g>
</svg>
