<?xml version="1.0" encoding="utf-8"?>
<!-- Generator: Adobe Illustrator 26.3.1, SVG Export Plug-In . SVG Version: 6.00 Build 0)  -->
<svg version="1.1" id="Layer_1" xmlns="http://www.w3.org/2000/svg" xmlns:xlink="http://www.w3.org/1999/xlink" x="0px" y="0px"
	 viewBox="0 0 337.5 96.7" style="enable-background:new 0 0 337.5 96.7;" xml:space="preserve">
<style type="text/css">
	.st0{fill:#FFFFFF;}
	.st1{fill-rule:evenodd;clip-rule:evenodd;fill:#FFFFFF;}
</style>
<g>
	<path class="st1" d="M260.5,95.2c0.4,0,0.8-0.1,1.1-0.3c0.3-0.2,0.6-0.4,0.8-0.7c0.2-0.3,0.4-0.6,0.5-1c0.1-0.3,0.1-0.6,0-0.9
		c-0.1-0.3-0.2-0.5-0.5-0.7c-0.2-0.2-0.6-0.3-1-0.3c-0.5,0-1,0.2-1.5,0.5c-0.4,0.4-0.7,0.8-0.9,1.4l0,0c-0.1,0.3-0.1,0.6,0,0.9
		c0.1,0.3,0.2,0.5,0.5,0.7C259.9,95.1,260.2,95.2,260.5,95.2 M270.5,91.2c-1,0-1.8,0.4-2.3,1.3h3.8
		C272.1,91.7,271.6,91.2,270.5,91.2z M274.1,93.6h-6.2c-0.1,0.5,0,1,0.2,1.3c0.3,0.3,0.7,0.5,1.3,0.5c0.3,0,0.7-0.1,1-0.2
		c0.3-0.1,0.6-0.3,0.8-0.5c0.2-0.2,0.4-0.5,0.5-0.7h2.2c-0.1,0.5-0.4,1-0.9,1.4c-0.4,0.4-1,0.7-1.7,1c-0.7,0.2-1.5,0.3-2.3,0.3
		c-0.8,0-1.5-0.1-2.1-0.4c-0.6-0.3-1-0.7-1.2-1.2c-0.2-0.5-0.3-1.1-0.1-1.8c0.2-0.7,0.5-1.3,1.1-1.8c0.5-0.5,1.1-0.9,1.9-1.2
		c0.7-0.3,1.5-0.4,2.3-0.4c0.8,0,1.5,0.1,2.1,0.4c0.6,0.3,0.9,0.7,1.1,1.2c0.2,0.5,0.2,1.1,0.1,1.8l0,0.1h0h0L274.1,93.6z
		 M282.3,94.6l3.1-4.4l2.5,0l-4.8,6.3h-2.5l-1.4-6.2h2.5L282.3,94.6z M289,96.5h-2.2l1.8-6.6h2.2L289,96.5z M291.3,88h-2.2l-0.4,1.6
		h2.2L291.3,88z M294.6,92.8c0.2,0,0.4,0,0.5,0l0.6,0c0.9,0,1.5,0.1,2,0.3c0.5,0.2,0.6,0.7,0.4,1.4c-0.2,0.9-0.8,1.5-1.7,1.8
		c-0.9,0.3-1.8,0.4-2.9,0.4c-1,0-1.9-0.2-2.7-0.5c-0.8-0.3-1-0.9-0.8-1.8l2.3,0c-0.1,0.4,0,0.6,0.3,0.8c0.3,0.1,0.7,0.2,1.2,0.2
		c0.6,0,1.1-0.1,1.4-0.2c0.3-0.1,0.5-0.4,0.6-0.6c0.1-0.3,0-0.5-0.3-0.5c-0.3-0.1-0.6-0.1-0.9-0.1c-0.3,0-0.4,0-0.5,0
		c-0.7,0-1.3,0-1.9-0.1c-0.5-0.1-1-0.2-1.3-0.5c-0.3-0.3-0.4-0.7-0.3-1.3c0.2-0.8,0.8-1.4,1.7-1.7c0.9-0.3,1.9-0.4,3-0.4
		c1,0,1.9,0.2,2.6,0.5c0.7,0.3,1,0.9,0.7,1.8l-2.2,0c0.1-0.4,0-0.7-0.4-0.8c-0.4-0.1-0.7-0.2-1.1-0.2c-1.2,0-1.9,0.2-2,0.7
		C292.9,92.5,293.4,92.8,294.6,92.8z M300.5,96.5h-2.2l1.8-6.6h2.2L300.5,96.5z M302.7,88h-2.2l-0.4,1.6h2.2L302.7,88z M305.6,95.2
		c0.4,0,0.8-0.1,1.1-0.3c0.3-0.2,0.6-0.4,0.8-0.7c0.2-0.3,0.4-0.6,0.5-1c0.1-0.3,0.1-0.6,0-0.9c-0.1-0.3-0.2-0.5-0.5-0.7
		c-0.2-0.2-0.6-0.3-1-0.3c-0.5,0-1,0.2-1.5,0.5c-0.4,0.4-0.7,0.8-0.9,1.4l0,0c-0.1,0.3-0.1,0.6,0,0.9c0.1,0.3,0.2,0.5,0.5,0.7
		C305,95.1,305.2,95.2,305.6,95.2z M310.3,93.3L310.3,93.3c-0.2,0.6-0.5,1.2-0.9,1.7c-0.4,0.5-0.9,0.9-1.4,1.2
		c-0.5,0.3-1.1,0.4-1.7,0.4c-1.4,0-2.3-0.3-2.8-0.9l-0.3,0.7h-2l2.3-8.4h2.2l-0.8,2.9c0.8-0.6,1.9-0.9,3.2-0.9
		c0.6,0,1.1,0.2,1.5,0.5c0.4,0.3,0.6,0.7,0.7,1.2C310.5,92.1,310.5,92.7,310.3,93.3L310.3,93.3L310.3,93.3z M312.3,96.5H310l2.3-8.5
		h2.2L312.3,96.5z M318.7,91.2c-1,0-1.8,0.4-2.3,1.3h3.8C320.2,91.7,319.7,91.2,318.7,91.2z M322.2,93.6H316c-0.1,0.5,0,1,0.2,1.3
		c0.3,0.3,0.7,0.5,1.3,0.5c0.3,0,0.7-0.1,1-0.2c0.3-0.1,0.6-0.3,0.8-0.5c0.2-0.2,0.4-0.5,0.5-0.7h2.2c-0.1,0.5-0.4,1-0.9,1.4
		c-0.4,0.4-1,0.7-1.7,1c-0.7,0.2-1.5,0.3-2.3,0.3c-0.8,0-1.5-0.1-2.1-0.4c-0.6-0.3-1-0.7-1.2-1.2c-0.2-0.5-0.3-1.1-0.1-1.8
		c0.2-0.7,0.5-1.3,1.1-1.8c0.5-0.5,1.1-0.9,1.9-1.2c0.7-0.3,1.5-0.4,2.3-0.4c0.8,0,1.5,0.1,2.1,0.4c0.6,0.3,0.9,0.7,1.1,1.2
		c0.2,0.5,0.2,1.1,0.1,1.8l0,0.1h0h0L322.2,93.6z M273.2,32.7c-0.8,2.2-1.5,4.4-2.3,6.6c-0.7,2.2-1.5,4.4-2.2,6.6
		c-1.9,5.4-2.7,14.9-8.4,14.9h-8.9c1.9-2.7,2.9-5.7,3.1-8.6c-0.9,0.7-2,1.3-3.2,1.9c-1.2,0.5-2.5,0.9-3.8,1.1
		c-0.2,0-0.5,0.1-0.8,0.1c-0.3,0-0.6,0-0.8,0c-1,0-2-0.2-3-0.6c-0.9-0.4-1.7-1.1-2.4-2.1c-0.3-0.4-0.5-0.9-0.7-1.4
		c-0.2,0.3-0.5,0.5-0.7,0.8c-2,2.2-5,3.3-8.9,3.3c-0.2,0-0.4,0-0.7,0c-0.2,0-0.4,0-0.7,0c-1-0.1-2.1-0.4-3.1-0.8
		c-1-0.4-1.8-1-2.4-1.9c-0.4-0.6-0.7-1.2-0.9-1.9c-0.2-0.7-0.3-1.4-0.3-2.1c0-0.2,0-0.3,0-0.5c0-0.1,0-0.3,0-0.4
		c0.1-0.6,0.2-1.2,0.3-1.8c0.1-0.6,0.3-1.1,0.5-1.7c1.4-4,2.7-7.9,4.1-11.9c1.4-4,2.7-7.9,4-11.8c1,0,2.1,0,3.1,0c1,0,2.1,0,3.1,0
		c1,0,2,0,3,0s2.1,0,3.1,0c-1.5,4.3-3,8.7-4.5,13c-1.5,4.3-3,8.7-4.4,13c-0.2,0.4-0.3,0.7-0.4,1c-0.1,0.3-0.1,0.6-0.1,0.8
		c0,0.2,0.1,0.4,0.3,0.6c0.2,0.1,0.5,0.2,1,0.2c0.3,0,0.8-0.1,1.2-0.4c0.5-0.3,1-0.7,1.6-1.2c0.7-0.7,1.4-1.5,1.8-2.4
		c0.1-0.2,0.2-0.4,0.3-0.6c0.3-0.8,0.6-1.7,0.9-2.6c0.4-1,0.7-2.1,1-3.1c0.3-1,0.7-2.1,1-3.1c0.4-1,0.7-2,1-3h11.9
		c-0.4,1.2-0.8,2.3-1.2,3.5c-0.4,1.2-0.8,2.3-1.2,3.5c-0.4,1.2-0.8,2.3-1.2,3.5c-0.4,1.2-0.8,2.3-1.2,3.5c0,0.1-0.1,0.2-0.1,0.3
		c0,0.1-0.1,0.3-0.1,0.4c0,0-0.1,0.1-0.1,0.2c0,0.1,0,0.1,0,0.2c0,0.2,0,0.3,0.1,0.5c0.1,0.1,0.2,0.3,0.4,0.3c0.1,0,0.2,0.1,0.4,0.1
		c0.1,0,0.3,0,0.4,0c1.2,0,2.4-0.9,3.4-2.6c1.1-1.7,2-3.6,2.8-5.7c0.7-1.7,1.2-3.2,1.7-4.7c0.4-1.5,0.8-2.5,1-3.1H273.2z
		 M293.2,36.8c0-0.7-0.2-1.2-0.6-1.5c-0.4-0.3-0.9-0.5-1.6-0.5c-1.5,0-2.9,0.5-4,1.8c-1.1,1.2-2,2.5-2.6,4c-0.2,0.5-0.4,1-0.5,1.5
		c-0.1,0.5-0.2,1-0.3,1.4c0.5,0,1-0.1,1.6-0.2c0.5-0.1,1.1-0.2,1.6-0.4c1.6-0.4,3-1.1,4.3-2.1C292.5,39.9,293.2,38.6,293.2,36.8z
		 M260.3,67.2c0-0.4-0.1-0.7-0.2-1c-0.1-0.2-0.4-0.4-0.9-0.4c-0.2,0-0.3,0-0.5,0.1c-0.2,0-0.3,0.1-0.5,0.2c-0.6,0.3-1.3,0.7-1.9,1.4
		c-0.6,0.7-1.2,1.4-1.7,2.2c-0.4,0.5-0.7,1.1-1,1.6c-0.3,0.5-0.5,1-0.6,1.4c0,0.1-0.1,0.3-0.2,0.5c-0.1,0.2-0.2,0.5-0.2,0.8
		c-0.1,0.2-0.1,0.5-0.2,0.7c-0.1,0.3-0.1,0.5-0.2,0.8c-0.1,0.2-0.1,0.4-0.1,0.7c0,0.2,0,0.5,0,0.7c0,0.5,0.1,0.9,0.3,1.3
		c0.2,0.3,0.5,0.5,0.9,0.5c1,0,1.9-0.4,2.6-1.2c0.8-0.8,1.4-1.7,2-2.7c0.3-0.5,0.6-1,0.8-1.5c0.2-0.5,0.4-0.9,0.6-1.3
		c0.4-1.1,0.7-2,0.9-2.8C260.2,68.4,260.3,67.8,260.3,67.2z M296.3,81.2c-1.1,0.3-2.3,0.5-3.6,0.5c-0.2,0-0.4,0-0.6,0
		c-0.2,0-0.4,0-0.6,0c-0.9-0.1-1.7-0.3-2.4-0.6c-0.8-0.3-1.4-0.8-1.9-1.5c-0.3-0.5-0.6-1-0.7-1.5c-0.2-0.5-0.2-1.1-0.2-1.6
		c0-0.3,0-0.5,0.1-0.8c0-0.3,0.1-0.5,0.1-0.8c0.1-0.5,0.2-1.1,0.4-1.6c0.2-0.5,0.4-1.1,0.5-1.5c0-0.1,0.1-0.3,0.2-0.5
		c0.1-0.2,0.2-0.5,0.4-0.8c0-0.2,0.1-0.3,0.1-0.5c0.1-0.2,0.1-0.3,0.2-0.5c0.1-0.3,0.1-0.5,0.2-0.8c0.1-0.3,0.1-0.5,0.1-0.7
		c0-0.3-0.1-0.5-0.2-0.7c-0.1-0.2-0.3-0.3-0.6-0.3c-0.3,0-0.7,0.2-1.2,0.5c-0.4,0.3-1,0.9-1.5,1.7c-0.8,1.2-1.5,2.4-2.1,3.8
		c-0.6,1.3-1.1,2.7-1.6,4.1c-0.2,0.6-0.4,1.3-0.6,1.9c-0.2,0.6-0.4,1.3-0.6,1.9c0,0.1-0.1,0.1-0.1,0.2c0,0.1-0.1,0.2-0.1,0.3h-9.5
		l0.4-1.1c-1.6,1.1-3.7,1.6-6.2,1.6c0,0-0.1,0-0.1,0c-0.1,0-0.1,0-0.1,0c-1.1,0-2.1-0.3-3.1-0.7c-1-0.5-1.7-1.2-2.2-2.3
		c-0.9,0.9-2,1.5-3.1,2.1c-1.2,0.5-2.4,0.8-3.6,0.9c-0.1,0-0.3,0.1-0.4,0.1c-0.2,0-0.3,0-0.5,0c-1.2,0-2.3-0.3-3.4-0.7
		c-1.1-0.4-2.1-1.2-2.9-2.2c-0.4-0.5-0.8-1.1-1.1-1.6c-0.5,0.6-1,1.2-1.6,1.8c-1.8,1.8-4.3,2.7-7.5,2.7c-0.2,0-0.5,0-0.7,0
		c-0.3,0-0.5,0-0.8-0.1c-0.8-0.1-1.5-0.3-2.3-0.6c-0.7-0.3-1.3-0.8-1.8-1.4c-0.3-0.5-0.6-1-0.7-1.5c-0.1-0.5-0.2-1-0.2-1.6
		c0-0.2,0-0.5,0-0.7c0-0.2,0-0.5,0.1-0.7c0.1-0.6,0.2-1.1,0.4-1.7c0.2-0.6,0.4-1.1,0.6-1.6c0-0.1,0.1-0.3,0.2-0.6
		c0.1-0.3,0.2-0.6,0.4-0.9c0-0.1,0.1-0.3,0.2-0.5c0.1-0.2,0.1-0.3,0.2-0.5c0.1-0.3,0.1-0.5,0.2-0.8c0.1-0.3,0.1-0.5,0.1-0.7
		c0-0.3-0.1-0.5-0.2-0.7c-0.1-0.2-0.3-0.3-0.6-0.3c-0.6,0-1.2,0.3-1.7,0.8c-0.5,0.6-1,1.2-1.4,1.8c-0.2,0.4-0.4,0.7-0.6,1.1
		c-0.2,0.4-0.3,0.7-0.4,0.9c-0.3,0.8-0.5,1.6-0.8,2.4c-0.3,0.8-0.5,1.6-0.8,2.4c-0.3,0.8-0.6,1.6-0.9,2.4c-0.3,0.8-0.5,1.6-0.8,2.4
		h-10.1c0.4-1,0.7-2,1.1-3.1c0.4-1,0.7-2.1,1.1-3.1c0.3-1,0.7-2,1-3.1c0.4-1,0.7-2,1-3.1c0.1-0.2,0.1-0.4,0.2-0.6
		c0-0.2,0.1-0.3,0.1-0.5c0-0.3-0.1-0.6-0.2-0.7c-0.2-0.1-0.4-0.2-0.6-0.2c-0.2,0-0.3,0-0.5,0.1c-0.2,0.1-0.4,0.1-0.5,0.2
		c-0.2,0.1-0.4,0.2-0.6,0.4c-0.2,0.2-0.4,0.3-0.5,0.5c-0.5,0.6-1.1,1.4-1.7,2.5c-0.6,1.1-1.2,2.5-1.9,4.3c0,0-0.1,0.3-0.3,1
		c-0.2,0.6-0.5,1.4-0.7,2.1c-0.2,0.7-0.4,1.3-0.6,1.9c-0.2,0.6-0.3,1-0.4,1.2h-9.5l6.2-17.9h9.5l-0.4,1.1c0.8-0.5,1.7-0.9,2.6-1.2
		c1-0.3,1.9-0.5,2.9-0.6c0.1,0,0.2,0,0.3,0c0.1,0,0.2,0,0.3,0c0.5,0,1,0,1.5,0.1c0.5,0.1,1,0.2,1.4,0.4c0.7,0.2,1.4,0.6,1.9,1.1
		c0.6,0.5,1,1.1,1.2,1.9c1-1.1,2.2-1.9,3.4-2.5c1.3-0.6,2.6-0.9,4-0.9c0.5,0,1,0,1.5,0.1c0.5,0.1,1,0.2,1.5,0.4
		c1.3,0.4,2.3,1.2,3,2.1c0.7,1,1,2.1,1,3.3c0,0.4,0,0.8-0.1,1.2c-0.1,0.4-0.2,0.8-0.4,1.3c-0.1,0.2-0.2,0.5-0.3,0.9
		c-0.1,0.4-0.3,0.8-0.4,1.2c0,0.1-0.1,0.2-0.1,0.3c0,0.1-0.1,0.2-0.1,0.3c-0.1,0.5-0.3,0.9-0.4,1.4c-0.1,0.4-0.2,0.8-0.2,1
		c0,0,0,0.1,0,0.1c0,0.1,0,0.1,0.1,0.2c0,0,0.1,0.1,0.2,0.1c0.1,0,0.2,0,0.3,0c0.2,0,0.3,0,0.5-0.1c0.2-0.1,0.3-0.1,0.5-0.2
		c0.5-0.3,1-0.7,1.4-1.2c0.5-0.5,0.9-1,1.3-1.6c0.1-0.2,0.2-0.3,0.3-0.5c0.1-1.3,0.5-2.7,1.2-3.9c0.8-1.5,1.9-2.7,3.2-3.7
		c1-0.7,2.1-1.4,3.4-1.9c1.3-0.5,2.6-0.8,4-0.8c0.1,0,0.3-0.1,0.4-0.1c0.2,0,0.3,0,0.4,0c1.1,0,2.1,0.2,3.2,0.5
		c1,0.3,1.9,0.8,2.8,1.5l0.5-1.5c1.7,0,3.3,0,5,0c1.7,0,3.3,0,5,0c-0.2,0.6-0.4,1.2-0.6,1.9c-0.2,0.6-0.4,1.3-0.6,1.9
		c-0.4,1.2-0.9,2.5-1.3,3.7c-0.4,1.2-0.8,2.5-1.3,3.8c0,0,0,0.1-0.1,0.1c0,0.1-0.1,0.1-0.1,0.2c0,0.1-0.1,0.2-0.1,0.3
		c0,0.1-0.1,0.2-0.1,0.3c0,0.1-0.1,0.1-0.1,0.2c0,0.1,0,0.1,0,0.2c0,0.1,0,0.3,0.1,0.4c0.1,0.1,0.1,0.2,0.3,0.3
		c0.1,0,0.1,0.1,0.2,0.1c0.1,0,0.2,0,0.3,0c0.2,0,0.4,0,0.6-0.1c0.2-0.1,0.4-0.2,0.6-0.3c0.4-0.2,0.7-0.5,1.1-0.9
		c0.4-0.4,0.7-0.8,1-1.2c0.3-0.4,0.6-0.7,0.8-1.1c0.1-0.2,0.3-0.4,0.3-0.6c1-3,2.1-5.9,3.1-8.9h9.5c0,0.1-0.1,0.2-0.1,0.3
		c0,0.1-0.1,0.2-0.1,0.3c-0.1,0.1-0.1,0.3-0.2,0.4c0,0.1-0.1,0.2-0.1,0.3c0.8-0.4,1.7-0.8,2.6-1.1c1-0.3,2-0.5,3-0.6
		c0.2,0,0.3-0.1,0.5-0.1c0.2,0,0.3,0,0.5,0c1,0,1.9,0.2,2.8,0.5c0.9,0.3,1.7,0.9,2.4,1.6c0.4,0.5,0.8,1,1,1.6
		c0.2,0.6,0.3,1.2,0.3,1.8c0,0.1,0,0.3,0,0.5c0,0.2,0,0.3-0.1,0.5c0,0.2-0.1,0.3-0.1,0.5c0,0.2-0.1,0.3-0.2,0.5
		c-0.1,0.3-0.2,0.7-0.4,1c-0.1,0.4-0.3,0.7-0.4,1.1c-0.1,0.3-0.3,0.7-0.4,1c-0.1,0.4-0.3,0.7-0.4,1.1c0,0.1-0.1,0.2-0.1,0.3
		c0,0.1-0.1,0.2-0.1,0.4c0,0.1-0.1,0.1-0.1,0.2c0,0.1-0.1,0.2-0.1,0.3c0,0.1-0.1,0.2-0.1,0.3c0,0.1,0,0.2,0,0.3
		c0,0.2,0.1,0.3,0.2,0.4c0.1,0.1,0.3,0.2,0.5,0.2c0.2,0,0.4,0,0.6-0.1c0.2-0.1,0.4-0.2,0.6-0.3c0.4-0.3,0.8-0.6,1.3-1
		c0.4-0.4,0.8-0.9,1.1-1.3c5.4-6.7,11-24.9,11.2-33.6c0-0.2,0.1-0.3,0.1-0.4c0-0.1,0-0.2,0-0.3c0-0.5-0.2-0.8-0.5-0.9
		c-0.4-0.1-0.8-0.2-1.2-0.2c-1.1,0.1-2,0.6-2.9,1.5c-0.8,0.9-1.5,1.8-2.1,2.8c-0.1,0.2-0.2,0.4-0.4,0.7c-0.1,0.1-0.1,0.2-0.2,0.4
		l0,0c-1,2.1-2.2,4-3.5,5.7c-1.3,1.7-3.1,3.1-5.4,4.2c-1.4,0.6-2.8,1.1-4.3,1.4c-1.5,0.3-3.1,0.4-4.7,0.4c-0.2,0-0.5,0-0.8,0
		c-0.2,0-0.5,0-0.7-0.1c-1,0-2-0.2-2.9-0.3c-1-0.2-1.9-0.4-2.8-0.7c-2.4-0.8-4.4-2.1-6-3.8c-1.6-1.7-2.3-3.7-2.3-6.1
		c0-0.6,0.1-1.2,0.2-1.8c0.1-0.6,0.3-1.2,0.5-1.8c0.8-2.5,2.5-4.4,5.1-5.8c2.5-1.4,5.2-2.3,8.1-2.7c0.6-0.1,1.2-0.1,1.8-0.2
		c0.6,0,1.2-0.1,1.8-0.1c0.9,0,1.7,0,2.6,0.1c0.8,0.1,1.6,0.2,2.3,0.4c0.1,0,0.2,0.1,0.3,0.1c0.1,0,0.2,0.1,0.3,0.1
		c1.2,0.3,2.3,0.9,3.4,1.8c1.1,0.8,1.6,2,1.7,3.4c0.1,2.2-0.9,4-2.8,5.3c-2,1.3-4.1,2.2-6.4,2.8c-1.3,0.3-2.5,0.6-3.7,0.7
		c-1.2,0.1-2.2,0.2-3.1,0.1c0.2,1.5,0.8,2.7,1.7,3.5c0.9,0.8,2.2,1.2,3.7,1.2c3.1,0,5.7-0.9,7.9-2.6c2.1-1.7,3.8-4,5-6.6l0,0
		c1.1-2.6,2.6-5,4.6-7.2c2.1-2.3,4.7-3.5,7.9-3.7c0.3,0,0.6-0.1,0.9-0.1c0.3,0,0.6,0,1,0.1c1.4,0.1,2.7,0.4,4,1
		c1.3,0.6,2.3,1.5,3,2.7c0.9-0.7,1.9-1.3,2.9-1.9c1-0.6,2.1-1,3.2-1.4c0.5-0.2,1-0.3,1.5-0.3c0.5-0.1,0.9-0.1,1.4-0.1
		c0.6,0,1.2,0.1,1.8,0.3c0.6,0.2,1.2,0.4,1.7,0.8c0.5,0.4,1,0.8,1.3,1.4c0.3,0.5,0.5,1.1,0.7,1.7c0.1,0.3,0.1,0.5,0.1,0.7
		c0,0.3,0,0.5,0,0.7c0,1.5-0.5,2.8-1.4,3.7c-0.9,0.9-2,1.3-3.1,1.3c0,0-0.1,0-0.1,0c0,0-0.1,0-0.1,0c-0.9,0-1.7-0.3-2.5-0.9
		c-0.8-0.6-1.4-1.5-1.7-2.8c-0.1-0.4-0.3-0.7-0.5-0.8c-0.2-0.2-0.4-0.3-0.7-0.2c-0.4,0-0.9,0.2-1.4,0.7c-0.5,0.5-1.1,1.1-1.7,2
		c-1,1.3-1.9,2.7-2.6,4.3C318.4,52,307,79,296.3,81.2z M225.2,20.9c0.6,0.5,1.1,1.1,1.4,1.8c0.4,0.7,0.6,1.4,0.7,2.1
		c0,0.1,0,0.2,0,0.3c0,0.1,0,0.2,0,0.3c0,1.1-0.3,2.1-1,3c-0.7,0.9-1.7,1.5-3,1.7c-0.1,0-0.2,0-0.3,0c-0.1,0-0.2,0-0.3,0
		c-0.1,0-0.2,0-0.2,0c-0.1,0-0.2,0-0.2,0c-1.5,0-2.6-0.5-3.6-1.4c-0.9-1-1.4-2-1.4-3.2c0-0.1,0-0.2,0-0.2c0-0.1,0-0.1,0-0.2
		c0.1-0.6,0.3-1.2,0.7-1.8c0.4-0.6,1-1.1,1.8-1.4c0,0-0.1,0-0.2,0c-0.1,0-0.1,0-0.2,0c-1.3,0-2.4,0.6-3.3,1.8
		c-0.9,1.2-1.6,2.6-2.2,4.1c-0.4,1-0.7,1.9-1,2.8c-0.3,0.9-0.5,1.6-0.7,2.2h5.7l-1.1,3.1h-5.8l-11.5,33.4h-11.2l11.4-33.4h-3.7
		l1.1-3.1h3.7c0.1-0.4,0.2-0.8,0.4-1.2c0.1-0.4,0.3-0.8,0.4-1.2c0.6-1.8,1.3-3.5,2.1-5.1c0.8-1.6,2.1-2.9,3.9-4.1
		c1.1-0.7,2.5-1.3,4.2-1.7c1.6-0.5,3.3-0.7,5-0.7c0.1,0,0.2,0,0.2,0c0.1,0,0.2,0,0.2,0c1.5,0,2.9,0.2,4.2,0.5
		C223.1,19.5,224.3,20.1,225.2,20.9z M268.5,16c-0.6,1.2-1.3,2.3-2.1,3.1c-0.8,0.9-2,1.3-3.5,1.3c-0.1,0-0.2,0-0.3,0
		c-0.1,0-0.2,0-0.3,0c-0.4,0-0.8-0.1-1.1-0.3c-0.4-0.1-0.7-0.4-0.9-0.7c-0.2-0.2-0.3-0.5-0.3-0.7c-0.1-0.2-0.1-0.5-0.1-0.8
		c0-0.1,0-0.1,0-0.2c0-0.1,0-0.1,0-0.2c0-0.3,0.1-0.6,0.2-1c0.1-0.3,0.2-0.6,0.3-0.9c0,0,0-0.1,0.1-0.2c0-0.1,0.1-0.2,0.1-0.4
		c0-0.1,0.1-0.1,0.1-0.2c0-0.1,0-0.2,0.1-0.2c0-0.1,0.1-0.2,0.1-0.4c0-0.1,0-0.2,0-0.3c0-0.1,0-0.3-0.1-0.4
		c-0.1-0.1-0.2-0.1-0.3-0.1c-0.3,0-0.6,0.1-0.8,0.4c-0.3,0.3-0.5,0.5-0.7,0.8c-0.1,0.2-0.2,0.3-0.3,0.4c-0.1,0.1-0.1,0.3-0.2,0.4
		c-0.2,0.5-0.3,0.9-0.5,1.4c-0.2,0.5-0.3,0.9-0.5,1.4c-0.1,0.3-0.2,0.6-0.3,1c-0.1,0.3-0.2,0.6-0.3,1h-4.6l4.6-13.3h4.6l-1.8,5.3
		c0.3-0.2,0.7-0.3,1.1-0.5c0.4-0.1,0.8-0.2,1.3-0.3c0.1,0,0.2,0,0.3,0c0.1,0,0.2,0,0.3,0c0.5,0,0.9,0.1,1.4,0.2
		c0.4,0.1,0.8,0.4,1.1,0.8c0.2,0.2,0.4,0.5,0.4,0.7c0.1,0.3,0.1,0.5,0.1,0.8c0,0.2,0,0.3,0,0.5c0,0.2-0.1,0.3-0.1,0.5
		c0,0.2-0.1,0.3-0.2,0.5c-0.1,0.2-0.1,0.3-0.2,0.5c-0.1,0.2-0.1,0.3-0.2,0.5c-0.1,0.2-0.1,0.3-0.2,0.5c0,0,0,0.1,0,0.1
		c0,0,0,0.1,0,0.1c0,0,0,0.1,0,0.1c0,0,0,0.1,0,0.2c0,0,0,0.1,0,0.1c0,0,0,0.1,0,0.1c0,0.1,0,0.1,0.1,0.2c0,0.1,0.1,0.1,0.2,0.1
		c0.1,0,0.2,0,0.2,0c0.1,0,0.2-0.1,0.2-0.1c0.2-0.1,0.4-0.3,0.7-0.5c0.2-0.2,0.4-0.4,0.6-0.7c0.1-0.2,0.2-0.3,0.3-0.5
		c0.1-0.2,0.2-0.3,0.2-0.4c0,0,0-0.1,0-0.1c0,0,0-0.1,0-0.1c0,0,0-0.1,0-0.1c0,0,0-0.1,0-0.1L268.5,16z M273.5,17
		c-0.1,0.7-0.3,1.3-0.6,2c-0.4-0.1-0.7-0.2-0.9-0.4c-0.4-0.3-0.6-0.8-0.7-1.3c0.3,0,0.7,0,1.2,0C272.8,17.1,273.2,17.1,273.5,17z
		 M273.7,12.6c0.1,0.5,0.1,1,0.1,1.6c0,0.4,0,0.7,0,1.1c-0.3,0.2-0.7,0.3-1,0.4c-0.2,0.1-0.4,0.1-0.6,0.1c-0.2,0-0.4,0.1-0.6,0.1
		c0-0.2,0.1-0.3,0.1-0.5c0-0.2,0.1-0.4,0.2-0.6c0.2-0.6,0.6-1.1,1-1.5C273.1,12.9,273.4,12.7,273.7,12.6z M259.6,0
		c6.9,0,12.6,4.9,13.9,11.5l-0.1,0c-0.2,0-0.5,0-0.7,0c-0.2,0-0.5,0-0.7,0.1c-1.1,0.1-2.2,0.5-3.1,1c-1,0.5-1.6,1.3-2,2.3
		c-0.1,0.2-0.1,0.5-0.2,0.7c0,0.2-0.1,0.5-0.1,0.7c0,0.9,0.3,1.7,0.9,2.3c0.6,0.7,1.4,1.2,2.3,1.5c0.4,0.1,0.7,0.2,1.1,0.3
		c0.4,0.1,0.8,0.1,1.1,0.1c0,0,0.1,0,0.1,0c-2.3,4.6-7.1,7.8-12.6,7.8c-5.8,0-10.7-3.5-12.9-8.4c0.2,0.1,0.3,0.2,0.5,0.3
		c0.4,0.2,0.8,0.3,1.3,0.3c0,0,0,0,0.1,0c0,0,0.1,0,0.1,0c0.7,0,1.4-0.1,1.9-0.3c0.6-0.2,1-0.5,1.4-0.8c0.4-0.4,0.8-0.8,1.1-1.3
		c0.3-0.5,0.6-1,0.8-1.5c0-0.1,0.1-0.2,0.1-0.2c0-0.1,0.1-0.1,0.1-0.2l-1.2-0.6c-0.2,0.4-0.3,0.7-0.5,1c-0.2,0.3-0.4,0.6-0.8,0.9
		c-0.1,0.1-0.1,0.1-0.2,0.2c-0.1,0-0.1,0.1-0.2,0.1c-0.1,0.1-0.3,0.1-0.4,0.2c-0.1,0-0.2,0.1-0.3,0.1c-0.1,0-0.2,0-0.3-0.1
		c-0.1-0.1-0.1-0.2-0.1-0.3c0-0.1,0-0.2,0-0.3c0-0.1,0.1-0.2,0.1-0.3c0.1-0.3,0.3-0.7,0.4-1c0.1-0.3,0.2-0.7,0.4-1.1
		c0.1-0.4,0.2-0.7,0.4-1.1c0.1-0.3,0.2-0.7,0.4-1h1.3l0.4-1.2h-1.3c0.1-0.3,0.2-0.6,0.3-0.9c0.1-0.3,0.2-0.6,0.3-0.9
		c0.1-0.3,0.2-0.6,0.3-0.9c0.1-0.3,0.2-0.6,0.3-0.9c-0.3,0-0.5,0.1-0.8,0.1c-0.3,0-0.5,0.1-0.8,0.1c-0.5,0.1-1.1,0.2-1.6,0.2
		c-0.5,0.1-1.1,0.1-1.6,0.2c-0.1,0.2-0.2,0.5-0.2,0.7c-0.1,0.2-0.2,0.5-0.2,0.7c-0.1,0.2-0.2,0.5-0.3,0.7c-0.1,0.2-0.2,0.5-0.2,0.7
		h-1l-0.4,1.2h1c-0.1,0.3-0.2,0.5-0.3,0.8c-0.1,0.3-0.2,0.5-0.3,0.8c-0.1,0.3-0.2,0.5-0.3,0.8c-0.1,0.3-0.2,0.5-0.3,0.8
		c-0.1,0.2-0.1,0.4-0.2,0.7c-0.1,0.2-0.1,0.4-0.1,0.6c-0.2-1-0.3-2-0.3-3.1C245.5,6.3,251.8,0,259.6,0z M265.3,93.3L265.3,93.3
		c-0.2,0.6-0.5,1.2-0.9,1.7c-0.4,0.5-0.9,0.9-1.4,1.2c-0.5,0.3-1.1,0.4-1.7,0.4c-1.4,0-2.3-0.3-2.8-0.9l-0.3,0.7h-2l2.3-8.4h2.2
		l-0.8,2.9c0.8-0.6,1.9-0.9,3.2-0.9c0.6,0,1.1,0.2,1.5,0.5c0.4,0.3,0.6,0.7,0.7,1.2C265.4,92.1,265.4,92.7,265.3,93.3L265.3,93.3
		L265.3,93.3z"/>
	<g>
		<path class="st0" d="M0,40.1h6.7c5.2,0,8.8,3.4,8.8,8.2c0,4.8-3.5,8.2-8.8,8.2H0V40.1z M6.6,55c4.4,0,7.2-2.8,7.2-6.7
			s-2.8-6.7-7.2-6.7H1.7V55H6.6z M18.6,40.3c0-0.6,0.5-1.2,1.2-1.2c0.7,0,1.2,0.5,1.2,1.1c0,0.7-0.5,1.2-1.2,1.2
			C19.2,41.5,18.6,41,18.6,40.3z M19,44.2h1.7v12.3H19V44.2z M23.6,55.1l0.7-1.3c1,0.8,2.6,1.4,4.4,1.4c2.3,0,3.3-0.8,3.3-2
			c0-3.2-8-0.7-8-5.6c0-2,1.7-3.5,4.9-3.5c1.6,0,3.3,0.4,4.4,1.1l-0.7,1.3c-1.1-0.7-2.4-1.1-3.6-1.1c-2.2,0-3.2,0.9-3.2,2
			c0,3.3,8,0.8,8,5.6c0,2.1-1.9,3.5-5.1,3.5C26.6,56.6,24.6,56,23.6,55.1z M43.3,55.8c-0.7,0.6-1.6,0.9-2.6,0.9
			c-2.3,0-3.6-1.3-3.6-3.6v-7.4h-2.2v-1.4h2.2v-2.7h1.7v2.7h3.7v1.4h-3.7V53c0,1.5,0.7,2.2,2.1,2.2c0.7,0,1.4-0.2,1.8-0.6L43.3,55.8
			z M52.5,44.1v1.6c-0.1,0-0.3,0-0.4,0c-2.6,0-4.1,1.6-4.1,4.5v6.3h-1.7V44.2h1.6v2.4C48.7,45,50.2,44.1,52.5,44.1z M66.8,44.2v12.3
			h-1.6v-2.2c-0.9,1.5-2.5,2.4-4.4,2.4c-3.1,0-5.2-1.8-5.2-5.3v-7.1h1.7v7c0,2.6,1.4,4,3.7,4c2.6,0,4.2-1.7,4.2-4.5v-6.5H66.8z
			 M84,50.4c0,3.7-2.6,6.3-6.1,6.3c-2,0-3.7-0.9-4.8-2.6v2.4h-1.6V39.1h1.7v7.4c1-1.6,2.7-2.4,4.7-2.4C81.3,44.1,84,46.6,84,50.4z
			 M82.3,50.4c0-2.9-2-4.8-4.6-4.8c-2.6,0-4.6,1.9-4.6,4.8c0,2.9,2,4.8,4.6,4.8C80.3,55.2,82.3,53.2,82.3,50.4z M98.5,44.2v12.3
			h-1.6v-2.2c-0.9,1.5-2.5,2.4-4.4,2.4c-3.1,0-5.2-1.8-5.2-5.3v-7.1h1.7v7c0,2.6,1.4,4,3.7,4c2.6,0,4.2-1.7,4.2-4.5v-6.5H98.5z
			 M109.6,55.8c-0.7,0.6-1.6,0.9-2.6,0.9c-2.3,0-3.6-1.3-3.6-3.6v-7.4h-2.2v-1.4h2.2v-2.7h1.7v2.7h3.7v1.4h-3.7V53
			c0,1.5,0.7,2.2,2.1,2.2c0.7,0,1.4-0.2,1.8-0.6L109.6,55.8z"/>
		<path class="st0" d="M122.9,50.9h-10.3c0.2,2.6,2.2,4.3,4.8,4.3c1.5,0,2.8-0.5,3.8-1.6l0.9,1.1c-1.1,1.3-2.8,2-4.8,2
			c-3.8,0-6.5-2.6-6.5-6.3c0-3.7,2.6-6.3,6-6.3s6,2.6,6,6.3C123,50.5,122.9,50.7,122.9,50.9z M112.6,49.6h8.7
			c-0.2-2.4-2-4.1-4.4-4.1C114.6,45.5,112.8,47.2,112.6,49.6z M137.6,39.1v17.4H136v-2.4c-1,1.7-2.7,2.6-4.8,2.6
			c-3.5,0-6.1-2.6-6.1-6.3c0-3.7,2.6-6.3,6.1-6.3c2,0,3.7,0.8,4.7,2.4v-7.4H137.6z M136,50.4c0-2.9-2-4.8-4.6-4.8
			c-2.6,0-4.6,1.9-4.6,4.8c0,2.9,2,4.8,4.6,4.8C134,55.2,136,53.2,136,50.4z M160.9,50.4c0,3.7-2.6,6.3-6.1,6.3
			c-2,0-3.7-0.9-4.8-2.6v2.4h-1.6V39.1h1.7v7.4c1-1.6,2.7-2.4,4.7-2.4C158.3,44.1,160.9,46.6,160.9,50.4z M159.2,50.4
			c0-2.9-2-4.8-4.6-4.8c-2.6,0-4.6,1.9-4.6,4.8c0,2.9,2,4.8,4.6,4.8C157.2,55.2,159.2,53.2,159.2,50.4z"/>
		<path class="st0" d="M174.3,44.2L168.1,58c-1,2.4-2.3,3.2-4.1,3.2c-1.1,0-2.2-0.4-3-1.1l0.8-1.2c0.6,0.6,1.4,0.9,2.2,0.9
			c1.1,0,1.9-0.5,2.6-2.1l0.5-1.2l-5.5-12.3h1.7l4.6,10.5l4.6-10.5H174.3z"/>
	</g>
</g>
</svg>
