<?xml version="1.0" encoding="utf-8"?>
<!-- Generator: Adobe Illustrator 26.3.1, SVG Export Plug-In . SVG Version: 6.00 Build 0)  -->
<svg version="1.1" id="Layer_1" xmlns="http://www.w3.org/2000/svg" xmlns:xlink="http://www.w3.org/1999/xlink" x="0px" y="0px"
	 viewBox="0 0 1245.85 1080" style="enable-background:new 0 0 1245.85 1080;" xml:space="preserve">
<style type="text/css">
	.st0{fill:#133155;}
	.st1{fill:#F58C48;}
</style>
<g>
	<path class="st0" d="M23.51,667.54c9.27-11.53,21.65-20.71,37.16-27.51c15.51-6.81,33.38-11.53,53.61-14.18
		c20.23-2.65,41.13-3.78,62.68-3.4v-41.41c0-21.55-4.07-37.53-12.19-47.93c-8.13-10.4-19.38-15.6-33.75-15.6
		c-14.37,0-26.38,4.26-36.02,12.77c-9.64,8.51-14.47,18.81-14.47,30.91c0,10.59,3.03,19.29,9.08,26.09
		c-3.4,5.29-7.85,9.36-13.33,12.19c-5.48,2.84-11.44,4.26-17.87,4.26c-7.57,0-14.28-2.37-20.14-7.09
		c-5.86-4.73-8.79-12.01-8.79-21.84c0-10.96,3.4-21.18,10.21-30.63c6.81-9.45,15.98-17.59,27.51-24.39
		c11.53-6.8,24.86-12.1,39.99-15.88c15.13-3.78,30.82-5.67,47.08-5.67c29.88,0,53.04,7.56,69.49,22.69
		c16.45,15.12,24.68,37.44,24.68,66.94v129.34c0,9.46,1.7,17.49,5.1,24.11c3.41,6.62,7.85,11.72,13.33,15.31
		c5.48,3.6,11.53,5.67,18.15,6.24s13.14-0.09,19.57-1.98l1.13,2.27c-6.81,6.81-15.5,11.92-26.09,15.32
		c-10.59,3.4-20.61,5.11-30.06,5.11c-20.8,0-36.97-5.58-48.5-16.73c-11.53-11.16-19-23.92-22.41-38.29
		c-2.27,7.57-6.05,14.84-11.34,21.84c-5.29,6.99-11.91,13.14-19.85,18.44c-7.94,5.29-16.73,9.55-26.38,12.76
		c-9.64,3.22-19.76,4.83-30.35,4.83c-10.97,0-21.37-1.8-31.2-5.39c-9.83-3.59-18.44-8.6-25.81-15.03
		c-7.38-6.43-13.24-14.37-17.59-23.82c-4.35-9.45-6.52-19.85-6.52-31.2C9.62,693.54,14.24,679.08,23.51,667.54z M143.49,632.94
		c-11.34,1.32-21.55,4.35-30.63,9.08s-16.45,11.44-22.12,20.14c-5.67,8.7-8.51,20.04-8.51,34.04c0,20.42,4.63,35.36,13.9,44.81
		c9.27,9.45,19.95,14.18,32.05,14.18c6.8,0,13.14-1.23,19-3.69c5.86-2.46,10.97-5.77,15.31-9.93c4.35-4.16,7.85-8.79,10.5-13.9
		c2.64-5.1,3.97-10.3,3.97-15.6v-79.99C165.99,631.33,154.84,631.62,143.49,632.94z"/>
	<path class="st0" d="M435.61,508.99c-29.12,4.16-39.71,16.64-31.77,37.44l65.23,158.84l62.4-158.84
		c3.78-10.21,2.74-18.53-3.12-24.96c-5.86-6.43-15.79-10.59-29.78-12.48v-2.84h99.84v2.84c-12.86,1.89-22.5,5.48-28.93,10.78
		c-6.43,5.3-11.91,13.43-16.45,24.39L452.06,780.15h-26.66L324.42,543.6c-4.54-9.83-10.02-17.59-16.45-23.26
		c-6.43-5.67-16.07-9.45-28.93-11.34v-2.84h156.57V508.99z"/>
	<path class="st0" d="M607.75,667.54c9.27-11.53,21.65-20.71,37.16-27.51c15.51-6.81,33.38-11.53,53.61-14.18
		c20.23-2.65,41.13-3.78,62.68-3.4v-41.41c0-21.55-4.07-37.53-12.19-47.93c-8.13-10.4-19.38-15.6-33.75-15.6
		s-26.38,4.26-36.02,12.77c-9.64,8.51-14.47,18.81-14.47,30.91c0,10.59,3.03,19.29,9.08,26.09c-3.4,5.29-7.85,9.36-13.33,12.19
		c-5.48,2.84-11.44,4.26-17.87,4.26c-7.57,0-14.28-2.37-20.14-7.09c-5.86-4.73-8.79-12.01-8.79-21.84c0-10.96,3.4-21.18,10.21-30.63
		c6.81-9.45,15.98-17.59,27.51-24.39c11.53-6.8,24.86-12.1,39.99-15.88c15.13-3.78,30.82-5.67,47.08-5.67
		c29.88,0,53.04,7.56,69.49,22.69c16.45,15.12,24.68,37.44,24.68,66.94v129.34c0,9.46,1.7,17.49,5.1,24.11
		c3.41,6.62,7.85,11.72,13.33,15.31c5.48,3.6,11.53,5.67,18.15,6.24s13.14-0.09,19.57-1.98l1.13,2.27
		c-6.81,6.81-15.5,11.92-26.09,15.32c-10.59,3.4-20.61,5.11-30.06,5.11c-20.8,0-36.97-5.58-48.5-16.73
		c-11.53-11.16-19-23.92-22.41-38.29c-2.27,7.57-6.05,14.84-11.34,21.84c-5.29,6.99-11.91,13.14-19.85,18.44
		c-7.94,5.29-16.73,9.55-26.38,12.76c-9.64,3.22-19.76,4.83-30.35,4.83c-10.97,0-21.37-1.8-31.2-5.39
		c-9.83-3.59-18.44-8.6-25.81-15.03c-7.38-6.43-13.24-14.37-17.59-23.82c-4.35-9.45-6.52-19.85-6.52-31.2
		C593.86,693.54,598.49,679.08,607.75,667.54z M727.73,632.94c-11.34,1.32-21.55,4.35-30.63,9.08s-16.45,11.44-22.12,20.14
		c-5.67,8.7-8.51,20.04-8.51,34.04c0,20.42,4.63,35.36,13.9,44.81c9.27,9.45,19.95,14.18,32.05,14.18c6.8,0,13.14-1.23,19-3.69
		c5.86-2.46,10.97-5.77,15.31-9.93c4.35-4.16,7.85-8.79,10.5-13.9c2.64-5.1,3.97-10.3,3.97-15.6v-79.99
		C750.23,631.33,739.08,631.62,727.73,632.94z"/>
	<path class="st0" d="M923.14,512.7c7.18-8.7,18.15-13.05,32.9-13.05c17.02,0,30.16,5.86,39.42,17.59
		c9.27,11.72,13.9,26.47,13.9,44.24c0,20.8-6.9,41.32-20.7,61.55c-13.81,20.23-35.45,39.24-64.96,57.01l-3.4-3.97
		c13.99-8.7,24.96-20.14,32.9-34.32c7.94-14.18,11.91-28.83,11.91-43.96c0-13.24-3.69-23.73-11.06-31.48
		c-7.38-7.75-19.76-11.82-37.16-12.19c-3.03-4.16-4.54-8.89-4.54-14.18C912.36,530.47,915.95,521.4,923.14,512.7z"/>
	<path class="st0" d="M1048.49,723.7c6.62,11.53,13.9,21.08,21.84,28.65s16.07,13.24,24.39,17.02c8.32,3.78,15.69,5.67,22.12,5.67
		c6.05,0,12.1-1.04,18.15-3.12c6.05-2.08,11.63-5.1,16.73-9.08c5.11-3.97,9.27-9.08,12.48-15.32c3.21-6.24,4.82-13.33,4.82-21.27
		c0-16.26-5.96-29.02-17.87-38.29c-11.91-9.27-26.95-17.3-45.1-24.11c-9.08-3.4-17.96-7.38-26.66-11.91
		c-8.7-4.54-16.54-10.02-23.54-16.45c-7-6.43-12.58-13.99-16.73-22.69c-4.16-8.7-6.24-18.91-6.24-30.63
		c0-25.34,9.74-45.66,29.21-60.98c19.48-15.32,45.29-22.98,77.43-22.98c13.24,0,26.56,1.8,39.99,5.39
		c13.43,3.59,25.81,8.04,37.16,13.33v79.42h-2.84c-3.03-15.88-7.47-29.31-13.33-40.28c-5.86-10.96-12.29-19.85-19.29-26.66
		c-6.99-6.8-14.27-11.82-21.84-15.03c-7.56-3.22-14.37-4.82-20.42-4.82c-11.34,0-20.99,3.88-28.93,11.63
		c-7.94,7.75-11.92,18.25-11.92,31.48c0,9.08,1.8,16.93,5.39,23.54s8.32,12.48,14.18,17.59c5.86,5.1,12.67,9.55,20.42,13.33
		c7.75,3.78,15.6,7.38,23.54,10.78c9.83,3.78,19.29,8.04,28.36,12.77c9.08,4.73,17.02,10.21,23.83,16.45
		c6.81,6.24,12.29,13.52,16.45,21.84c4.16,8.32,6.24,18.15,6.24,29.5c0,13.99-3.31,26.38-9.93,37.16
		c-6.62,10.78-15.5,19.95-26.66,27.51c-11.16,7.57-24.11,13.33-38.86,17.3c-14.75,3.98-30.25,5.96-46.52,5.96
		c-14.37,0-29.02-1.8-43.96-5.39c-14.94-3.59-27.89-8.04-38.86-13.33v-85.09h2.27C1037.05,698.46,1041.87,712.17,1048.49,723.7z"/>
</g>
<g>
	<path class="st1" d="M136.83,843.83c-2.76,0.37-5.11,1.18-7.06,2.41c-1.94,1.23-2.91,2.93-2.91,5.1v66.97l16.24-0.45
		c4.85-0.45,8.72-2.26,11.59-5.43c2.87-3.17,4.91-8.57,6.1-16.18h0.56l-0.78,25.42h-57.9v-0.56c2.84-0.45,5.23-1.27,7.17-2.46
		c1.94-1.19,2.91-2.87,2.91-5.04v-62.26c0-2.17-0.97-3.84-2.91-5.04c-1.94-1.19-4.33-2.02-7.17-2.46v-0.56h34.16V843.83z"/>
	<path class="st1" d="M189.01,913.59c0,2.17,0.97,3.84,2.91,5.04c1.94,1.19,4.29,2.02,7.05,2.46v0.56h-34.16v-0.56
		c2.84-0.45,5.23-1.27,7.17-2.46c1.94-1.19,2.91-2.87,2.91-5.04v-36.73c0-1.64-0.97-3-2.91-4.09c-1.94-1.08-4.33-1.7-7.17-1.85
		v-0.56l24.19-4.25V913.59z M176.13,844.72c1.57-1.57,3.51-2.35,5.82-2.35s4.26,0.78,5.82,2.35c1.57,1.57,2.35,3.51,2.35,5.82
		s-0.78,4.26-2.35,5.82c-1.57,1.57-3.51,2.35-5.82,2.35s-4.26-0.78-5.82-2.35c-1.57-1.57-2.35-3.51-2.35-5.82
		S174.56,846.29,176.13,844.72z"/>
	<path class="st1" d="M224.5,877.87c2.17-3.73,5-6.62,8.51-8.68c3.51-2.05,7.2-3.08,11.09-3.08c4.7,0,8.53,1.53,11.48,4.59
		c2.95,3.06,4.42,7.88,4.42,14.45v28.56c0,2.17,0.99,3.83,2.97,4.98s4.24,1.96,6.78,2.41v0.56h-23.85v-36.51
		c0-4.03-0.97-6.96-2.91-8.79c-1.94-1.83-4.26-2.74-6.94-2.74c-1.94,0-3.96,0.5-6.05,1.51c-2.09,1.01-3.92,2.44-5.49,4.31v34.16
		c0,2.17,0.84,3.84,2.52,5.04s3.71,2.02,6.1,2.46v0.56h-32.81v-0.56c2.84-0.45,5.23-1.27,7.17-2.46c1.94-1.19,2.91-2.87,2.91-5.04
		v-36.73c0-1.64-0.97-3-2.91-4.09c-1.94-1.08-4.33-1.7-7.17-1.85v-0.56l24.19-4.25V877.87z"/>
	<path class="st1" d="M277.64,881.4c1.38-3.47,3.15-6.35,5.32-8.62c2.17-2.28,4.59-3.96,7.28-5.04c2.69-1.08,5.34-1.62,7.95-1.62
		c2.39,0,4.57,0.35,6.55,1.06s3.71,1.64,5.21,2.8s2.72,2.45,3.7,3.86c0.97,1.42,1.6,2.8,1.9,4.14c0.6-2.31,1.74-4.22,3.42-5.71
		s3.66-2.65,5.94-3.47s4.72-1.31,7.33-1.46s5.15-0.04,7.61,0.34v0.56c-3.81,0-6.53,1.12-8.17,3.36c-1.64,2.24-2.46,5.38-2.46,9.41
		v40.09c0,3.73-0.75,7.11-2.24,10.13c-1.49,3.02-3.53,5.58-6.1,7.67c-2.58,2.09-5.6,3.7-9.07,4.82c-3.47,1.12-7.22,1.68-11.25,1.68
		c-3.96,0-7.41-0.52-10.36-1.57c-2.95-1.04-5.41-2.43-7.39-4.14s-3.47-3.68-4.48-5.88s-1.51-4.5-1.51-6.89
		c0-2.46,0.5-4.74,1.51-6.83c1.01-2.09,2.41-3.88,4.2-5.38c-2.09-2.17-3.77-4.96-5.04-8.4s-1.9-7.62-1.9-12.54
		C275.56,888.99,276.25,884.87,277.64,881.4z M289.9,919.58c-2.46-0.86-4.7-2.26-6.72-4.2c-1.34,1.49-2.35,3.17-3.02,5.04
		c-0.67,1.87-1.01,3.77-1.01,5.71c0,2.02,0.45,3.94,1.34,5.77c0.9,1.83,2.13,3.43,3.7,4.82c1.57,1.38,3.43,2.48,5.6,3.3
		s4.52,1.23,7.05,1.23c5.45,0,9.85-1.68,13.21-5.04s5.04-7.88,5.04-13.55v-11.98c-1.87,3.14-4.33,5.62-7.39,7.45
		s-6.46,2.74-10.19,2.74C294.9,920.87,292.36,920.44,289.9,919.58z M298.86,872.72c-1.64,0.82-3.1,2.11-4.37,3.86
		c-1.27,1.75-2.28,4.01-3.02,6.77c-0.75,2.76-1.12,6.05-1.12,9.85c0,4.03,0.39,7.41,1.18,10.13c0.78,2.72,1.83,4.93,3.14,6.61
		c1.31,1.68,2.78,2.87,4.42,3.58c1.64,0.71,3.36,1.06,5.15,1.06c2.02,0,3.99-0.49,5.94-1.46c1.94-0.97,3.58-2.43,4.93-4.37v-27.1
		c0-1.27-0.28-2.5-0.84-3.7c-0.56-1.19-1.32-2.28-2.3-3.25c-0.97-0.97-2.13-1.75-3.47-2.35c-1.34-0.6-2.84-0.9-4.48-0.9
		C302.22,871.49,300.5,871.9,298.86,872.72z"/>
	<path class="st1" d="M346.95,882.91c1.46-3.51,3.43-6.5,5.94-8.96s5.45-4.39,8.85-5.77s7-2.07,10.81-2.07
		c3.88,0,7.3,0.65,10.25,1.96c2.95,1.31,5.43,3.12,7.45,5.43s3.53,5.1,4.54,8.34c1.01,3.25,1.51,6.85,1.51,10.81h-36.84
		c0.07,7.76,2.03,13.74,5.88,17.92c3.84,4.18,8.9,6.27,15.17,6.27c1.72,0,3.64-0.19,5.77-0.56c2.13-0.37,4.27-1.08,6.44-2.13
		l0.22,0.67c-2.46,2.39-5.56,4.35-9.29,5.88c-3.73,1.53-7.5,2.3-11.31,2.3c-3.43,0-6.81-0.63-10.13-1.9
		c-3.32-1.27-6.27-3.12-8.85-5.54c-2.58-2.43-4.65-5.39-6.21-8.9c-1.57-3.51-2.35-7.54-2.35-12.09
		C344.77,890.3,345.49,886.42,346.95,882.91z M382.34,888.73c0.34-0.67,0.5-2.35,0.5-5.04c0-4.48-0.95-8.12-2.86-10.92
		s-4.57-4.2-8.01-4.2s-6.31,1.68-8.62,5.04c-2.31,3.36-3.62,8.77-3.92,16.24l20.83-0.11C381.31,889.74,382,889.4,382.34,888.73z"/>
	<path class="st1" d="M424.72,866.11v11.65c1.49-3.73,3.75-6.61,6.77-8.62c3.02-2.02,6.1-3.02,9.24-3.02c1.79,0,3.36,0.3,4.7,0.9
		c1.34,0.6,2.46,1.34,3.36,2.24c0.9,0.9,1.59,1.88,2.07,2.97c0.49,1.08,0.73,2.15,0.73,3.19c0,2.91-0.86,5-2.58,6.27
		c-1.72,1.27-3.66,1.9-5.82,1.9c-2.46,0-4.44-0.63-5.94-1.9c0.75-1.27,1.12-2.84,1.12-4.7c0-1.27-0.3-2.33-0.9-3.19
		s-1.53-1.29-2.8-1.29c-2.02,0-3.94,0.77-5.77,2.3s-3.23,3.56-4.2,6.1v32.7c0,2.17,0.97,3.84,2.91,5.04s4.29,2.02,7.06,2.46v0.56
		h-34.16v-0.56c2.84-0.45,5.21-1.27,7.11-2.46s2.86-2.87,2.86-5.04v-36.62c0-1.72-0.95-3.1-2.86-4.14s-4.27-1.64-7.11-1.79v-0.56
		L424.72,866.11z"/>
	<path class="st1" d="M477.68,913.59c0,2.17,0.97,3.84,2.91,5.04c1.94,1.19,4.29,2.02,7.05,2.46v0.56h-34.16v-0.56
		c2.84-0.45,5.23-1.27,7.17-2.46c1.94-1.19,2.91-2.87,2.91-5.04v-36.73c0-1.64-0.97-3-2.91-4.09c-1.94-1.08-4.33-1.7-7.17-1.85
		v-0.56l24.19-4.25V913.59z M464.8,844.72c1.57-1.57,3.51-2.35,5.82-2.35s4.26,0.78,5.82,2.35c1.57,1.57,2.35,3.51,2.35,5.82
		s-0.78,4.26-2.35,5.82c-1.57,1.57-3.51,2.35-5.82,2.35s-4.26-0.78-5.82-2.35c-1.57-1.57-2.35-3.51-2.35-5.82
		S463.24,846.29,464.8,844.72z"/>
	<path class="st1" d="M495.09,882.91c1.46-3.51,3.43-6.5,5.94-8.96s5.45-4.39,8.85-5.77c3.4-1.38,7-2.07,10.81-2.07
		c3.88,0,7.3,0.65,10.25,1.96c2.95,1.31,5.43,3.12,7.45,5.43s3.53,5.1,4.54,8.34c1.01,3.25,1.51,6.85,1.51,10.81h-36.84
		c0.07,7.76,2.03,13.74,5.88,17.92c3.84,4.18,8.9,6.27,15.17,6.27c1.72,0,3.64-0.19,5.77-0.56c2.13-0.37,4.27-1.08,6.44-2.13
		l0.22,0.67c-2.46,2.39-5.56,4.35-9.29,5.88s-7.5,2.3-11.31,2.3c-3.43,0-6.81-0.63-10.13-1.9c-3.32-1.27-6.27-3.12-8.85-5.54
		c-2.58-2.43-4.65-5.39-6.21-8.9c-1.57-3.51-2.35-7.54-2.35-12.09C492.91,890.3,493.64,886.42,495.09,882.91z M530.48,888.73
		c0.34-0.67,0.5-2.35,0.5-5.04c0-4.48-0.95-8.12-2.86-10.92s-4.57-4.2-8.01-4.2s-6.31,1.68-8.62,5.04
		c-2.31,3.36-3.62,8.77-3.92,16.24l20.83-0.11C529.45,889.74,530.14,889.4,530.48,888.73z"/>
	<path class="st1" d="M636.24,860.06h-0.56c-0.45-4.18-1.9-7.32-4.37-9.41c-2.46-2.09-6.35-3.32-11.65-3.7l-15.34-0.67v32.7
		c8.36,0,15.29-0.22,20.77-0.67c5.49-0.45,8.83-0.9,10.02-1.34v6.83c-1.12-0.52-4.44-0.99-9.97-1.4
		c-5.52-0.41-12.47-0.62-20.83-0.62v36.84l16.46-0.67c5.9-0.3,10.23-1.94,12.99-4.93c2.76-2.99,4.52-6.87,5.26-11.65h0.56
		l-1.12,20.27h-58.34v-0.56c2.84-0.45,5.23-1.27,7.17-2.46c1.94-1.19,2.91-2.87,2.91-5.04v-62.26c0-2.17-0.97-3.84-2.91-5.04
		c-1.94-1.19-4.33-2.02-7.17-2.46v-0.56h56.1V860.06z"/>
	<path class="st1" d="M672.18,877.87c2.09-3.66,4.76-6.53,8.01-8.62c3.25-2.09,6.78-3.14,10.58-3.14c3.66,0,6.81,1.03,9.46,3.08
		c2.65,2.05,4.39,5.28,5.21,9.69c2.09-3.96,4.82-7.07,8.17-9.35c3.36-2.28,7.06-3.42,11.09-3.42c4.4,0,8.04,1.53,10.92,4.59
		c2.88,3.06,4.31,7.88,4.31,14.45v28.56c0,2.17,0.99,3.83,2.97,4.98s4.24,1.96,6.78,2.41v0.56h-23.85v-36.51
		c0-4.03-0.93-6.96-2.8-8.79s-3.99-2.74-6.38-2.74c-1.94,0-3.88,0.56-5.82,1.68c-1.94,1.12-3.66,2.65-5.15,4.59
		c0.15,0.82,0.26,1.66,0.34,2.52c0.07,0.86,0.11,1.77,0.11,2.74v28.56c0,2.17,0.84,3.83,2.52,4.98c1.68,1.16,3.6,1.96,5.77,2.41
		v0.56h-22.51v-36.51c0-4.03-0.91-6.96-2.74-8.79s-3.94-2.74-6.33-2.74c-1.94,0-3.83,0.52-5.66,1.57s-3.49,2.46-4.98,4.26v34.16
		c0,2.17,0.84,3.84,2.52,5.04s3.71,2.02,6.1,2.46v0.56h-32.81v-0.56c2.84-0.45,5.23-1.27,7.17-2.46c1.94-1.19,2.91-2.87,2.91-5.04
		v-36.73c0-1.64-0.97-3-2.91-4.09c-1.94-1.08-4.33-1.7-7.17-1.85v-0.56l24.19-4.25V877.87z"/>
	<path class="st1" d="M774.08,873.84c1.72-2.39,3.88-4.27,6.5-5.66s5.67-2.07,9.18-2.07c2.99,0,5.92,0.56,8.79,1.68
		s5.43,2.82,7.67,5.09c2.24,2.28,4.03,5.19,5.38,8.74s2.02,7.75,2.02,12.6c0,4.7-0.65,8.85-1.96,12.43
		c-1.31,3.58-3.1,6.59-5.38,9.01c-2.28,2.43-4.91,4.26-7.89,5.49s-6.16,1.85-9.52,1.85c-2.99,0-5.77-0.5-8.34-1.51
		c-2.58-1.01-4.72-2.37-6.44-4.09v18.59c0,2.17,0.99,3.84,2.97,5.04s4.24,2.02,6.78,2.46v0.56h-23.85v-67.08
		c0-1.72-0.97-3.1-2.91-4.14s-4.33-1.64-7.17-1.79v-0.56l24.19-4.37V873.84z M778.84,872.66c-1.68,0.71-3.27,1.81-4.76,3.3v39.53
		c1.27,0.82,2.71,1.42,4.31,1.79s3.15,0.56,4.65,0.56c4.48,0,8.16-1.96,11.03-5.88c2.87-3.92,4.31-9.54,4.31-16.85
		c0-7.54-1.36-13.34-4.09-17.41c-2.72-4.07-6.18-6.1-10.36-6.1C782.22,871.6,780.52,871.95,778.84,872.66z"/>
	<path class="st1" d="M826.31,882.8c1.38-3.51,3.34-6.5,5.88-8.96s5.54-4.37,9.01-5.71s7.26-2.02,11.37-2.02
		c4.11,0,7.88,0.67,11.31,2.02s6.4,3.27,8.9,5.77s4.44,5.51,5.82,9.02c1.38,3.51,2.07,7.39,2.07,11.65c0,4.33-0.69,8.25-2.07,11.76
		c-1.38,3.51-3.3,6.5-5.77,8.96c-2.46,2.46-5.41,4.37-8.85,5.71c-3.43,1.34-7.24,2.02-11.42,2.02c-4.11,0-7.89-0.69-11.37-2.07
		c-3.47-1.38-6.46-3.3-8.96-5.77s-4.46-5.45-5.88-8.96s-2.13-7.39-2.13-11.65C824.24,890.22,824.93,886.31,826.31,882.8z
		 M842.66,913.98c2.58,4.37,5.88,6.55,9.91,6.55s7.32-2.15,9.85-6.44c2.54-4.29,3.81-10.81,3.81-19.54c0-8.51-1.27-14.91-3.81-19.21
		c-2.54-4.29-5.82-6.44-9.85-6.44s-7.33,2.13-9.91,6.38c-2.58,4.25-3.86,10.68-3.86,19.26C838.8,903.14,840.09,909.62,842.66,913.98
		z"/>
	<path class="st1" d="M909.79,866.11v11.65c1.49-3.73,3.75-6.61,6.78-8.62s6.1-3.02,9.24-3.02c1.79,0,3.36,0.3,4.7,0.9
		c1.34,0.6,2.46,1.34,3.36,2.24c0.9,0.9,1.59,1.88,2.07,2.97c0.49,1.08,0.73,2.15,0.73,3.19c0,2.91-0.86,5-2.58,6.27
		c-1.72,1.27-3.66,1.9-5.82,1.9c-2.46,0-4.44-0.63-5.93-1.9c0.75-1.27,1.12-2.84,1.12-4.7c0-1.27-0.3-2.33-0.9-3.19
		s-1.53-1.29-2.8-1.29c-2.02,0-3.94,0.77-5.77,2.3s-3.23,3.56-4.2,6.1v32.7c0,2.17,0.97,3.84,2.91,5.04s4.29,2.02,7.05,2.46v0.56
		H885.6v-0.56c2.84-0.45,5.21-1.27,7.11-2.46s2.86-2.87,2.86-5.04v-36.62c0-1.72-0.95-3.1-2.86-4.14s-4.27-1.64-7.11-1.79v-0.56
		L909.79,866.11z"/>
	<path class="st1" d="M962.76,913.59c0,2.17,0.97,3.84,2.91,5.04c1.94,1.19,4.29,2.02,7.06,2.46v0.56h-34.16v-0.56
		c2.84-0.45,5.23-1.27,7.17-2.46c1.94-1.19,2.91-2.87,2.91-5.04v-36.73c0-1.64-0.97-3-2.91-4.09c-1.94-1.08-4.33-1.7-7.17-1.85
		v-0.56l24.19-4.25V913.59z M949.88,844.72c1.57-1.57,3.51-2.35,5.82-2.35c2.31,0,4.25,0.78,5.82,2.35
		c1.57,1.57,2.35,3.51,2.35,5.82s-0.78,4.26-2.35,5.82c-1.57,1.57-3.51,2.35-5.82,2.35c-2.31,0-4.26-0.78-5.82-2.35
		c-1.57-1.57-2.35-3.51-2.35-5.82S948.31,846.29,949.88,844.72z"/>
	<path class="st1" d="M997.36,866.11v38.41c0,4.03,0.99,6.96,2.97,8.79s4.27,2.74,6.89,2.74c1.94,0,3.94-0.41,5.99-1.23
		c2.05-0.82,3.9-1.98,5.54-3.47v-0.9v-34.04c0-1.94-0.75-3.3-2.24-4.09s-3.43-1.25-5.82-1.4v-0.56l22.17-4.25v44.12
		c0,3.36,1.05,5.67,3.14,6.94c2.09,1.27,4.55,1.46,7.39,0.56l0.11,0.45c-2.99,2.84-6.61,4.26-10.86,4.26
		c-3.88,0-6.98-0.86-9.29-2.58c-2.31-1.72-3.77-3.99-4.37-6.83c-2.31,3.29-5.26,5.77-8.85,7.45c-3.58,1.68-7.24,2.52-10.97,2.52
		c-4.55,0-8.36-1.44-11.42-4.31c-3.06-2.87-4.59-7.6-4.59-14.17v-27.55c0-1.64-0.78-2.99-2.35-4.03c-1.57-1.05-3.99-1.72-7.28-2.02
		v-0.56L997.36,866.11z"/>
	<path class="st1" d="M1068.46,877.87c2.09-3.66,4.76-6.53,8.01-8.62c3.25-2.09,6.78-3.14,10.58-3.14c3.66,0,6.81,1.03,9.46,3.08
		c2.65,2.05,4.39,5.28,5.21,9.69c2.09-3.96,4.82-7.07,8.17-9.35c3.36-2.28,7.06-3.42,11.09-3.42c4.4,0,8.04,1.53,10.92,4.59
		c2.88,3.06,4.31,7.88,4.31,14.45v28.56c0,2.17,0.99,3.83,2.97,4.98s4.24,1.96,6.78,2.41v0.56h-23.85v-36.51
		c0-4.03-0.93-6.96-2.8-8.79s-3.99-2.74-6.38-2.74c-1.94,0-3.88,0.56-5.82,1.68c-1.94,1.12-3.66,2.65-5.15,4.59
		c0.15,0.82,0.26,1.66,0.34,2.52c0.07,0.86,0.11,1.77,0.11,2.74v28.56c0,2.17,0.84,3.83,2.52,4.98c1.68,1.16,3.6,1.96,5.77,2.41
		v0.56h-22.51v-36.51c0-4.03-0.91-6.96-2.74-8.79s-3.94-2.74-6.33-2.74c-1.94,0-3.83,0.52-5.66,1.57s-3.49,2.46-4.98,4.26v34.16
		c0,2.17,0.84,3.84,2.52,5.04s3.71,2.02,6.1,2.46v0.56h-32.81v-0.56c2.84-0.45,5.23-1.27,7.17-2.46c1.94-1.19,2.91-2.87,2.91-5.04
		v-36.73c0-1.64-0.97-3-2.91-4.09c-1.94-1.08-4.33-1.7-7.17-1.85v-0.56l24.19-4.25V877.87z"/>
</g>
<g>
	<path class="st0" d="M273.48,1016.36c1.33-1.6,2.9-2.76,4.7-3.5c1.8-0.73,3.56-1.1,5.3-1.1c1.78,0,3.48,0.35,5.1,1.07
		s3.05,1.75,4.3,3.13c1.24,1.38,2.23,3.05,2.96,5.03s1.1,4.23,1.1,6.76c0,2.93-0.5,5.51-1.5,7.73c-1,2.22-2.39,4.08-4.16,5.56
		c-1.78,1.49-3.89,2.62-6.33,3.4c-2.44,0.78-5.11,1.17-7.99,1.17c-1.95,0-3.95-0.17-6-0.5c-2.04-0.33-4.02-0.81-5.93-1.43v-43.17
		c0-0.98-0.51-1.77-1.53-2.37s-2.49-0.94-4.4-1.03v-0.33l14.39-2.53V1016.36z M276.48,1015.62c-1.11,0.49-2.11,1.16-3,2v25.38
		c0.58,0.18,1.32,0.33,2.23,0.47c0.91,0.13,1.72,0.2,2.43,0.2c2.8,0,5.12-1.24,6.96-3.73c1.84-2.49,2.77-6.22,2.77-11.19
		c0-4.66-0.77-8.14-2.3-10.43c-1.53-2.29-3.48-3.43-5.83-3.43C278.68,1014.89,277.59,1015.14,276.48,1015.62z"/>
	<path class="st0" d="M304.55,1021.75c0.87-2.09,2.04-3.86,3.53-5.33s3.24-2.61,5.26-3.43c2.02-0.82,4.16-1.23,6.43-1.23
		c2.31,0,4.34,0.39,6.1,1.17s3.23,1.85,4.43,3.23s2.1,3.03,2.7,4.96c0.6,1.93,0.9,4.08,0.9,6.43h-21.92
		c0.04,4.62,1.21,8.17,3.5,10.66c2.29,2.49,5.3,3.73,9.03,3.73c1.02,0,2.17-0.11,3.43-0.33c1.27-0.22,2.54-0.64,3.83-1.27l0.13,0.4
		c-1.47,1.42-3.31,2.59-5.53,3.5s-4.46,1.37-6.73,1.37c-2.04,0-4.05-0.38-6.03-1.13c-1.98-0.75-3.73-1.85-5.26-3.3
		s-2.76-3.21-3.7-5.3c-0.93-2.09-1.4-4.49-1.4-7.2C303.25,1026.15,303.69,1023.84,304.55,1021.75z M325.6,1025.22
		c0.2-0.4,0.3-1.4,0.3-3c0-2.67-0.57-4.83-1.7-6.5c-1.13-1.67-2.72-2.5-4.76-2.5s-3.75,1-5.13,3c-1.38,2-2.15,5.22-2.33,9.66
		l12.39-0.07C324.99,1025.82,325.4,1025.62,325.6,1025.22z"/>
	<path class="st0" d="M340.66,1031.65c1.09-1.35,2.54-2.43,4.36-3.23c1.82-0.8,3.92-1.35,6.3-1.67c2.38-0.31,4.83-0.44,7.36-0.4
		v-4.86c0-2.53-0.48-4.41-1.43-5.63c-0.96-1.22-2.28-1.83-3.96-1.83c-1.69,0-3.1,0.5-4.23,1.5c-1.13,1-1.7,2.21-1.7,3.63
		c0,1.24,0.35,2.26,1.07,3.06c-0.4,0.62-0.92,1.1-1.57,1.43c-0.64,0.33-1.34,0.5-2.1,0.5c-0.89,0-1.68-0.28-2.37-0.83
		c-0.69-0.55-1.03-1.41-1.03-2.56c0-1.29,0.4-2.49,1.2-3.6s1.88-2.07,3.23-2.86c1.35-0.8,2.92-1.42,4.7-1.87
		c1.78-0.44,3.62-0.67,5.53-0.67c3.51,0,6.23,0.89,8.16,2.66s2.9,4.4,2.9,7.86v15.19c0,1.11,0.2,2.05,0.6,2.83s0.92,1.38,1.57,1.8
		s1.35,0.67,2.13,0.73c0.78,0.07,1.54-0.01,2.3-0.23l0.13,0.27c-0.8,0.8-1.82,1.4-3.06,1.8c-1.24,0.4-2.42,0.6-3.53,0.6
		c-2.44,0-4.34-0.66-5.7-1.97c-1.35-1.31-2.23-2.81-2.63-4.5c-0.27,0.89-0.71,1.74-1.33,2.57c-0.62,0.82-1.4,1.54-2.33,2.17
		s-1.97,1.12-3.1,1.5c-1.13,0.38-2.32,0.57-3.56,0.57c-1.29,0-2.51-0.21-3.66-0.63c-1.15-0.42-2.17-1.01-3.03-1.77
		c-0.87-0.75-1.55-1.69-2.07-2.8s-0.77-2.33-0.77-3.66C339.02,1034.7,339.57,1033,340.66,1031.65z M354.75,1027.58
		c-1.33,0.16-2.53,0.51-3.6,1.07c-1.07,0.55-1.93,1.34-2.6,2.37c-0.67,1.02-1,2.35-1,4c0,2.4,0.54,4.15,1.63,5.26
		c1.09,1.11,2.34,1.67,3.76,1.67c0.8,0,1.54-0.14,2.23-0.43c0.69-0.29,1.29-0.68,1.8-1.17c0.51-0.49,0.92-1.03,1.23-1.63
		s0.47-1.21,0.47-1.83v-9.39C357.39,1027.39,356.08,1027.43,354.75,1027.58z"/>
	<path class="st0" d="M387.59,1011.76v22.85c0,2.4,0.59,4.14,1.77,5.23c1.18,1.09,2.54,1.63,4.1,1.63c1.15,0,2.34-0.24,3.56-0.73
		c1.22-0.49,2.32-1.18,3.3-2.07v-0.53v-20.25c0-1.16-0.44-1.97-1.33-2.43c-0.89-0.47-2.04-0.74-3.46-0.83v-0.33l13.19-2.53v26.25
		c0,2,0.62,3.38,1.87,4.13s2.71,0.87,4.4,0.33l0.07,0.27c-1.78,1.69-3.93,2.53-6.46,2.53c-2.31,0-4.15-0.51-5.53-1.53
		c-1.38-1.02-2.24-2.38-2.6-4.06c-1.38,1.95-3.13,3.43-5.26,4.43c-2.13,1-4.31,1.5-6.53,1.5c-2.71,0-4.97-0.86-6.8-2.57
		c-1.82-1.71-2.73-4.52-2.73-8.43v-16.39c0-0.98-0.47-1.78-1.4-2.4s-2.38-1.02-4.33-1.2v-0.33L387.59,1011.76z"/>
	<path class="st0" d="M417.03,1015.03l11.92-10.79h0.13v8.46h10.53v2.53h-10.53v20.39c0,2.13,0.59,3.75,1.77,4.86
		s2.74,1.67,4.7,1.67c0.62,0,1.32-0.08,2.1-0.23c0.78-0.16,1.48-0.39,2.1-0.7l0.07,0.4c-0.93,1.29-2.23,2.28-3.9,2.96
		s-3.36,1.03-5.1,1.03c-2.8,0-5.19-0.81-7.16-2.43c-1.98-1.62-2.96-4.12-2.96-7.5v-20.45h-3.66V1015.03z"/>
	<path class="st0" d="M456.33,1040.01c0,1.29,0.58,2.29,1.73,3s2.55,1.2,4.2,1.47v0.33h-20.32v-0.33c1.69-0.27,3.11-0.75,4.26-1.47
		s1.73-1.71,1.73-3v-21.85c0-0.98-0.58-1.79-1.73-2.43c-1.15-0.64-2.58-1.01-4.26-1.1v-0.33l14.39-2.53V1040.01z M448.67,999.04
		c0.93-0.93,2.09-1.4,3.46-1.4s2.53,0.47,3.46,1.4s1.4,2.09,1.4,3.46s-0.47,2.53-1.4,3.46c-0.93,0.93-2.09,1.4-3.46,1.4
		s-2.53-0.47-3.46-1.4c-0.93-0.93-1.4-2.09-1.4-3.46S447.74,999.97,448.67,999.04z"/>
	<path class="st0" d="M467.82,1043.01c1.13-0.71,1.7-1.71,1.7-3v-24.78h-5.2v-2.53h5.2v-6.46c0-1.95,0.37-3.69,1.1-5.2
		c0.73-1.51,1.73-2.79,3-3.83c1.27-1.04,2.72-1.84,4.36-2.4c1.64-0.56,3.4-0.83,5.26-0.83c2.53,0,4.64,0.53,6.33,1.6
		c1.69,1.07,2.53,2.49,2.53,4.26c0,1.29-0.39,2.29-1.17,3c-0.78,0.71-1.68,1.07-2.7,1.07s-1.89-0.32-2.6-0.97
		c-0.71-0.64-1.07-1.5-1.07-2.57c0.62-0.18,1.09-0.48,1.4-0.9c0.31-0.42,0.47-0.88,0.47-1.37c0-0.75-0.29-1.37-0.87-1.83
		c-0.58-0.47-1.35-0.7-2.33-0.7c-0.62,0-1.24,0.13-1.87,0.4c-0.62,0.27-1.19,0.69-1.7,1.27s-0.92,1.32-1.23,2.23
		s-0.47,2.01-0.47,3.3v9.93h8.79v2.53h-8.79v24.78c0,1.29,0.58,2.29,1.73,3c1.15,0.71,2.55,1.2,4.2,1.47v0.33h-20.32v-0.33
		C465.28,1044.21,466.69,1043.72,467.82,1043.01z"/>
	<path class="st0" d="M501.83,1011.76v22.85c0,2.4,0.59,4.14,1.77,5.23c1.18,1.09,2.54,1.63,4.1,1.63c1.15,0,2.34-0.24,3.56-0.73
		c1.22-0.49,2.32-1.18,3.3-2.07v-0.53v-20.25c0-1.16-0.44-1.97-1.33-2.43c-0.89-0.47-2.04-0.74-3.46-0.83v-0.33l13.19-2.53v26.25
		c0,2,0.62,3.38,1.87,4.13s2.71,0.87,4.4,0.33l0.07,0.27c-1.78,1.69-3.93,2.53-6.46,2.53c-2.31,0-4.15-0.51-5.53-1.53
		c-1.38-1.02-2.24-2.38-2.6-4.06c-1.38,1.95-3.13,3.43-5.26,4.43c-2.13,1-4.31,1.5-6.53,1.5c-2.71,0-4.97-0.86-6.8-2.57
		c-1.82-1.71-2.73-4.52-2.73-8.43v-16.39c0-0.98-0.47-1.78-1.4-2.4s-2.38-1.02-4.33-1.2v-0.33L501.83,1011.76z"/>
	<path class="st0" d="M529.6,1044.47c1.64-0.27,3.04-0.75,4.2-1.47s1.73-1.71,1.73-3v-39.5c0-0.98-0.51-1.77-1.53-2.37
		s-2.49-0.94-4.4-1.03v-0.33l14.39-2.53v45.77c0,1.29,0.57,2.29,1.7,3c1.13,0.71,2.54,1.2,4.23,1.47v0.33H529.6V1044.47z"/>
	<path class="st0" d="M581.63,1016.36c1.33-1.6,2.9-2.76,4.7-3.5c1.8-0.73,3.56-1.1,5.3-1.1c1.78,0,3.48,0.35,5.1,1.07
		s3.05,1.75,4.3,3.13c1.24,1.38,2.23,3.05,2.96,5.03s1.1,4.23,1.1,6.76c0,2.93-0.5,5.51-1.5,7.73c-1,2.22-2.39,4.08-4.16,5.56
		c-1.78,1.49-3.89,2.62-6.33,3.4c-2.44,0.78-5.11,1.17-7.99,1.17c-1.95,0-3.95-0.17-6-0.5c-2.04-0.33-4.02-0.81-5.93-1.43v-43.17
		c0-0.98-0.51-1.77-1.53-2.37s-2.49-0.94-4.4-1.03v-0.33l14.39-2.53V1016.36z M584.63,1015.62c-1.11,0.49-2.11,1.16-3,2v25.38
		c0.58,0.18,1.32,0.33,2.23,0.47c0.91,0.13,1.72,0.2,2.43,0.2c2.8,0,5.12-1.24,6.96-3.73c1.84-2.49,2.77-6.22,2.77-11.19
		c0-4.66-0.77-8.14-2.3-10.43c-1.53-2.29-3.48-3.43-5.83-3.43C586.82,1014.89,585.74,1015.14,584.63,1015.62z"/>
	<path class="st0" d="M612.7,1021.75c0.87-2.09,2.04-3.86,3.53-5.33s3.24-2.61,5.26-3.43c2.02-0.82,4.16-1.23,6.43-1.23
		c2.31,0,4.34,0.39,6.1,1.17c1.75,0.78,3.23,1.85,4.43,3.23s2.1,3.03,2.7,4.96c0.6,1.93,0.9,4.08,0.9,6.43h-21.92
		c0.04,4.62,1.21,8.17,3.5,10.66c2.29,2.49,5.3,3.73,9.03,3.73c1.02,0,2.17-0.11,3.43-0.33c1.27-0.22,2.54-0.64,3.83-1.27l0.13,0.4
		c-1.47,1.42-3.31,2.59-5.53,3.5s-4.46,1.37-6.73,1.37c-2.04,0-4.05-0.38-6.03-1.13c-1.98-0.75-3.73-1.85-5.26-3.3
		s-2.76-3.21-3.7-5.3c-0.93-2.09-1.4-4.49-1.4-7.2C611.4,1026.15,611.83,1023.84,612.7,1021.75z M633.75,1025.22
		c0.2-0.4,0.3-1.4,0.3-3c0-2.67-0.57-4.83-1.7-6.5c-1.13-1.67-2.72-2.5-4.76-2.5s-3.75,1-5.13,3c-1.38,2-2.15,5.22-2.33,9.66
		l12.39-0.07C633.14,1025.82,633.55,1025.62,633.75,1025.22z"/>
	<path class="st0" d="M648.8,1020.85c0.82-2.06,1.88-3.77,3.17-5.13c1.29-1.36,2.73-2.35,4.33-3c1.6-0.64,3.18-0.97,4.73-0.97
		c1.42,0,2.72,0.21,3.9,0.63s2.21,0.98,3.1,1.67c0.89,0.69,1.62,1.45,2.2,2.3c0.58,0.84,0.95,1.67,1.13,2.46
		c0.36-1.38,1.03-2.51,2.03-3.4c1-0.89,2.18-1.58,3.53-2.07c1.35-0.49,2.81-0.78,4.36-0.87s3.06-0.02,4.53,0.2v0.33
		c-2.27,0-3.89,0.67-4.86,2c-0.98,1.33-1.47,3.2-1.47,5.6v23.85c0,2.22-0.44,4.23-1.33,6.03c-0.89,1.8-2.1,3.32-3.63,4.56
		c-1.53,1.24-3.33,2.2-5.4,2.86s-4.3,1-6.7,1c-2.35,0-4.41-0.31-6.16-0.93c-1.75-0.62-3.22-1.44-4.4-2.46
		c-1.18-1.02-2.06-2.19-2.66-3.5c-0.6-1.31-0.9-2.68-0.9-4.1c0-1.47,0.3-2.82,0.9-4.06s1.43-2.31,2.5-3.2c-1.24-1.29-2.24-2.95-3-5
		s-1.13-4.53-1.13-7.46C647.57,1025.37,647.98,1022.92,648.8,1020.85z M656.1,1043.57c-1.47-0.51-2.8-1.34-4-2.5
		c-0.8,0.89-1.4,1.89-1.8,3c-0.4,1.11-0.6,2.24-0.6,3.4c0,1.2,0.27,2.34,0.8,3.43s1.27,2.04,2.2,2.86c0.93,0.82,2.04,1.48,3.33,1.97
		s2.69,0.73,4.2,0.73c3.24,0,5.86-1,7.86-3c2-2,3-4.69,3-8.06v-7.13c-1.11,1.87-2.58,3.34-4.4,4.43s-3.84,1.63-6.06,1.63
		C659.07,1044.34,657.56,1044.08,656.1,1043.57z M661.43,1015.69c-0.98,0.49-1.84,1.25-2.6,2.3s-1.35,2.39-1.8,4.03
		c-0.44,1.64-0.67,3.6-0.67,5.86c0,2.4,0.23,4.41,0.7,6.03c0.47,1.62,1.09,2.93,1.87,3.93c0.78,1,1.65,1.71,2.63,2.13
		c0.98,0.42,2,0.63,3.06,0.63c1.2,0,2.38-0.29,3.53-0.87c1.15-0.58,2.13-1.44,2.93-2.6v-16.12c0-0.75-0.17-1.49-0.5-2.2
		c-0.33-0.71-0.79-1.35-1.37-1.93c-0.58-0.58-1.27-1.04-2.06-1.4c-0.8-0.36-1.69-0.53-2.67-0.53
		C663.43,1014.96,662.41,1015.2,661.43,1015.69z"/>
	<path class="st0" d="M701.13,1040.01c0,1.29,0.58,2.29,1.73,3c1.16,0.71,2.55,1.2,4.2,1.47v0.33h-20.32v-0.33
		c1.69-0.27,3.11-0.75,4.26-1.47c1.15-0.71,1.73-1.71,1.73-3v-21.85c0-0.98-0.58-1.79-1.73-2.43c-1.16-0.64-2.58-1.01-4.26-1.1
		v-0.33l14.39-2.53V1040.01z M693.47,999.04c0.93-0.93,2.09-1.4,3.46-1.4s2.53,0.47,3.46,1.4s1.4,2.09,1.4,3.46s-0.47,2.53-1.4,3.46
		c-0.93,0.93-2.09,1.4-3.46,1.4s-2.53-0.47-3.46-1.4c-0.93-0.93-1.4-2.09-1.4-3.46S692.54,999.97,693.47,999.04z"/>
	<path class="st0" d="M722.25,1018.76c1.29-2.22,2.98-3.94,5.06-5.16c2.09-1.22,4.29-1.83,6.6-1.83c2.8,0,5.07,0.91,6.83,2.73
		c1.75,1.82,2.63,4.69,2.63,8.59v16.99c0,1.29,0.59,2.28,1.77,2.96s2.52,1.17,4.03,1.43v0.33h-14.19v-21.72
		c0-2.4-0.58-4.14-1.73-5.23c-1.16-1.09-2.53-1.63-4.13-1.63c-1.15,0-2.35,0.3-3.6,0.9c-1.24,0.6-2.33,1.46-3.26,2.57v20.32
		c0,1.29,0.5,2.29,1.5,3c1,0.71,2.21,1.2,3.63,1.47v0.33h-19.52v-0.33c1.69-0.27,3.11-0.75,4.26-1.47c1.15-0.71,1.73-1.71,1.73-3
		v-21.85c0-0.98-0.58-1.79-1.73-2.43c-1.16-0.64-2.58-1.01-4.26-1.1v-0.33l14.39-2.53V1018.76z"/>
	<path class="st0" d="M754.65,1038.24c0.78,1.36,1.63,2.48,2.56,3.37c0.93,0.89,1.89,1.55,2.87,2c0.98,0.44,1.84,0.67,2.6,0.67
		c0.71,0,1.42-0.12,2.13-0.37c0.71-0.24,1.37-0.6,1.97-1.07c0.6-0.47,1.09-1.07,1.47-1.8c0.38-0.73,0.57-1.57,0.57-2.5
		c0-1.91-0.7-3.41-2.1-4.5c-1.4-1.09-3.17-2.03-5.3-2.83c-1.07-0.4-2.11-0.87-3.13-1.4s-1.94-1.18-2.76-1.93
		c-0.82-0.75-1.48-1.64-1.97-2.66c-0.49-1.02-0.73-2.22-0.73-3.6c0-2.98,1.14-5.36,3.43-7.16s5.32-2.7,9.09-2.7
		c1.55,0,3.12,0.21,4.7,0.63c1.58,0.42,3.03,0.94,4.36,1.57v9.33h-0.33c-0.36-1.87-0.88-3.44-1.57-4.73
		c-0.69-1.29-1.44-2.33-2.27-3.13c-0.82-0.8-1.68-1.39-2.56-1.77c-0.89-0.38-1.69-0.57-2.4-0.57c-1.33,0-2.46,0.46-3.4,1.37
		c-0.93,0.91-1.4,2.14-1.4,3.7c0,1.07,0.21,1.99,0.63,2.77c0.42,0.78,0.98,1.46,1.67,2.06s1.49,1.12,2.4,1.57
		c0.91,0.44,1.83,0.87,2.76,1.27c1.15,0.44,2.26,0.94,3.33,1.5c1.07,0.55,2,1.2,2.8,1.93c0.8,0.73,1.44,1.59,1.93,2.56
		c0.49,0.98,0.73,2.13,0.73,3.46c0,1.64-0.39,3.1-1.17,4.36s-1.82,2.34-3.13,3.23c-1.31,0.89-2.83,1.57-4.56,2.03
		c-1.73,0.47-3.55,0.7-5.46,0.7c-1.69,0-3.41-0.21-5.16-0.63c-1.75-0.42-3.28-0.94-4.56-1.57v-9.99h0.27
		C753.31,1035.28,753.87,1036.89,754.65,1038.24z"/>
	<path class="st0" d="M811.3,1040.01c0,1.29,0.58,2.29,1.73,3c1.16,0.71,2.55,1.2,4.2,1.47v0.33h-20.32v-0.33
		c1.69-0.27,3.11-0.75,4.26-1.47c1.15-0.71,1.73-1.71,1.73-3v-21.85c0-0.98-0.58-1.79-1.73-2.43c-1.16-0.64-2.58-1.01-4.26-1.1
		v-0.33l14.39-2.53V1040.01z M803.64,999.04c0.93-0.93,2.09-1.4,3.46-1.4s2.53,0.47,3.46,1.4s1.4,2.09,1.4,3.46s-0.47,2.53-1.4,3.46
		c-0.93,0.93-2.09,1.4-3.46,1.4s-2.53-0.47-3.46-1.4c-0.93-0.93-1.4-2.09-1.4-3.46S802.71,999.97,803.64,999.04z"/>
	<path class="st0" d="M832.42,1018.76c1.29-2.22,2.98-3.94,5.06-5.16c2.09-1.22,4.29-1.83,6.6-1.83c2.8,0,5.07,0.91,6.83,2.73
		c1.75,1.82,2.63,4.69,2.63,8.59v16.99c0,1.29,0.59,2.28,1.77,2.96s2.52,1.17,4.03,1.43v0.33h-14.19v-21.72
		c0-2.4-0.58-4.14-1.73-5.23c-1.16-1.09-2.53-1.63-4.13-1.63c-1.15,0-2.35,0.3-3.6,0.9c-1.24,0.6-2.33,1.46-3.26,2.57v20.32
		c0,1.29,0.5,2.29,1.5,3c1,0.71,2.21,1.2,3.63,1.47v0.33h-19.52v-0.33c1.69-0.27,3.11-0.75,4.26-1.47c1.15-0.71,1.73-1.71,1.73-3
		v-21.85c0-0.98-0.58-1.79-1.73-2.43c-1.16-0.64-2.58-1.01-4.26-1.1v-0.33l14.39-2.53V1018.76z"/>
	<path class="st0" d="M864.83,1038.24c0.78,1.36,1.63,2.48,2.56,3.37c0.93,0.89,1.89,1.55,2.87,2c0.98,0.44,1.84,0.67,2.6,0.67
		c0.71,0,1.42-0.12,2.13-0.37c0.71-0.24,1.37-0.6,1.97-1.07c0.6-0.47,1.09-1.07,1.47-1.8c0.38-0.73,0.57-1.57,0.57-2.5
		c0-1.91-0.7-3.41-2.1-4.5c-1.4-1.09-3.17-2.03-5.3-2.83c-1.07-0.4-2.11-0.87-3.13-1.4s-1.94-1.18-2.76-1.93
		c-0.82-0.75-1.48-1.64-1.97-2.66c-0.49-1.02-0.73-2.22-0.73-3.6c0-2.98,1.14-5.36,3.43-7.16s5.32-2.7,9.09-2.7
		c1.55,0,3.12,0.21,4.7,0.63c1.58,0.42,3.03,0.94,4.36,1.57v9.33h-0.33c-0.36-1.87-0.88-3.44-1.57-4.73
		c-0.69-1.29-1.44-2.33-2.27-3.13c-0.82-0.8-1.68-1.39-2.56-1.77c-0.89-0.38-1.69-0.57-2.4-0.57c-1.33,0-2.46,0.46-3.4,1.37
		c-0.93,0.91-1.4,2.14-1.4,3.7c0,1.07,0.21,1.99,0.63,2.77c0.42,0.78,0.98,1.46,1.67,2.06s1.49,1.12,2.4,1.57
		c0.91,0.44,1.83,0.87,2.76,1.27c1.15,0.44,2.26,0.94,3.33,1.5c1.07,0.55,2,1.2,2.8,1.93c0.8,0.73,1.44,1.59,1.93,2.56
		c0.49,0.98,0.73,2.13,0.73,3.46c0,1.64-0.39,3.1-1.17,4.36s-1.82,2.34-3.13,3.23c-1.31,0.89-2.83,1.57-4.56,2.03
		c-1.73,0.47-3.55,0.7-5.46,0.7c-1.69,0-3.41-0.21-5.16-0.63c-1.75-0.42-3.28-0.94-4.56-1.57v-9.99h0.27
		C863.48,1035.28,864.05,1036.89,864.83,1038.24z"/>
	<path class="st0" d="M904.43,1040.01c0,1.29,0.58,2.29,1.73,3c1.16,0.71,2.55,1.2,4.2,1.47v0.33h-20.32v-0.33
		c1.69-0.27,3.11-0.75,4.26-1.47c1.15-0.71,1.73-1.71,1.73-3v-21.85c0-0.98-0.58-1.79-1.73-2.43c-1.16-0.64-2.58-1.01-4.26-1.1
		v-0.33l14.39-2.53V1040.01z M896.77,999.04c0.93-0.93,2.09-1.4,3.46-1.4s2.53,0.47,3.46,1.4s1.4,2.09,1.4,3.46s-0.47,2.53-1.4,3.46
		c-0.93,0.93-2.09,1.4-3.46,1.4s-2.53-0.47-3.46-1.4c-0.93-0.93-1.4-2.09-1.4-3.46S895.83,999.97,896.77,999.04z"/>
	<path class="st0" d="M914.72,1021.52c0.82-2.15,1.92-3.95,3.3-5.4s2.96-2.53,4.76-3.26c1.8-0.73,3.7-1.1,5.7-1.1
		c1.69,0,3.29,0.24,4.8,0.73s2.78,1.2,3.8,2.13v-14.19c0-0.98-0.52-1.76-1.57-2.36c-1.04-0.6-2.52-0.94-4.43-1.03v-0.4l14.39-2.53
		v50.23c-1.91,0.36-4.08,0.66-6.5,0.9c-2.42,0.25-4.79,0.37-7.09,0.37c-2.71,0-5.2-0.32-7.46-0.97c-2.26-0.64-4.21-1.65-5.83-3.03
		c-1.62-1.38-2.88-3.11-3.76-5.2c-0.89-2.09-1.33-4.55-1.33-7.39S913.9,1023.67,914.72,1021.52z M925.11,1018.09
		c-1.71,2.35-2.56,5.8-2.56,10.33c0,4.97,0.97,8.77,2.9,11.39c1.93,2.62,4.32,3.93,7.16,3.93c1.73,0,3.22-0.07,4.46-0.2v-27.65
		c-0.84-0.4-1.74-0.72-2.7-0.97s-1.85-0.37-2.7-0.37C929.01,1014.56,926.82,1015.74,925.11,1018.09z"/>
	<path class="st0" d="M955.22,1021.75c0.87-2.09,2.04-3.86,3.53-5.33s3.24-2.61,5.26-3.43c2.02-0.82,4.16-1.23,6.43-1.23
		c2.31,0,4.34,0.39,6.1,1.17c1.75,0.78,3.23,1.85,4.43,3.23s2.1,3.03,2.7,4.96c0.6,1.93,0.9,4.08,0.9,6.43h-21.92
		c0.04,4.62,1.21,8.17,3.5,10.66c2.29,2.49,5.3,3.73,9.03,3.73c1.02,0,2.17-0.11,3.43-0.33c1.27-0.22,2.54-0.64,3.83-1.27l0.13,0.4
		c-1.47,1.42-3.31,2.59-5.53,3.5s-4.46,1.37-6.73,1.37c-2.04,0-4.05-0.38-6.03-1.13s-3.73-1.85-5.26-3.3s-2.76-3.21-3.7-5.3
		c-0.93-2.09-1.4-4.49-1.4-7.2C953.92,1026.15,954.35,1023.84,955.22,1021.75z M976.27,1025.22c0.2-0.4,0.3-1.4,0.3-3
		c0-2.67-0.57-4.83-1.7-6.5c-1.13-1.67-2.72-2.5-4.76-2.5s-3.75,1-5.13,3c-1.38,2-2.15,5.22-2.33,9.66l12.39-0.07
		C975.66,1025.82,976.07,1025.62,976.27,1025.22z"/>
</g>
<g>
	<g>
		<path class="st1" d="M945.85,154.4c0.74-29.84-5.9-58.04-18.19-82.96c-7.3-14.8-24.76-21.69-39.94-15.23
			C791.96,97,714.38,172.18,670.51,266.26c-6.83,14.65-1.1,32.3,13.11,40c27.16,14.73,58.58,22.59,91.95,21.23
			C868.46,323.71,943.54,247.33,945.85,154.4z"/>
		<path class="st1" d="M318.49,71.45c-12.3,24.92-18.93,53.12-18.19,82.96c2.31,92.93,77.4,169.3,170.28,173.09
			c33.37,1.36,64.79-6.51,91.95-21.23c14.21-7.7,19.94-25.36,13.11-40C531.77,172.18,454.19,97,358.43,56.22
			C343.25,49.76,325.79,56.65,318.49,71.45z"/>
		<path class="st1" d="M623.08,157.78c0-40.12,32.53-72.65,72.65-72.65c-40.12,0-72.65-32.53-72.65-72.65
			c0,40.12-32.53,72.65-72.65,72.65C590.55,85.13,623.08,117.66,623.08,157.78z"/>
	</g>
</g>
<g>
</g>
<g>
</g>
<g>
</g>
<g>
</g>
<g>
</g>
<g>
</g>
<g>
</g>
<g>
</g>
<g>
</g>
<g>
</g>
<g>
</g>
<g>
</g>
<g>
</g>
<g>
</g>
<g>
</g>
</svg>
