<?xml version="1.0" encoding="utf-8"?>
<!-- Generator: Adobe Illustrator 26.3.1, SVG Export Plug-In . SVG Version: 6.00 Build 0)  -->
<svg version="1.1" id="Layer_1" xmlns="http://www.w3.org/2000/svg" xmlns:xlink="http://www.w3.org/1999/xlink" x="0px" y="0px"
	 viewBox="0 0 1920 1080" style="enable-background:new 0 0 1920 1080;" xml:space="preserve">
<style type="text/css">
	.st0{fill:#F58C48;}
	.st1{fill:none;stroke:#FFFFFF;stroke-width:3;stroke-miterlimit:10;stroke-dasharray:14;}
</style>
<g>
	<path class="st0" d="M1617.7,463.6c1.5-61.4-12.1-119.4-37.4-170.7c-15-30.5-50.9-44.6-82.2-31.3
		c-197.1,83.9-356.7,238.6-447,432.2c-14.1,30.1-2.3,66.5,27,82.3c55.9,30.3,120.5,46.5,189.2,43.7
		C1458.4,811.9,1612.9,654.8,1617.7,463.6z"/>
	<path class="st0" d="M339.4,292.9c-25.3,51.3-39,109.3-37.4,170.7c4.8,191.2,159.3,348.4,350.4,356.2
		c68.7,2.8,133.3-13.4,189.2-43.7c29.2-15.8,41-52.2,27-82.3c-90.3-193.6-249.9-348.3-447-432.2
		C390.3,248.2,354.4,262.4,339.4,292.9z"/>
	<path class="st0" d="M953.5,470.5c0-82.6,66.9-149.5,149.5-149.5c-82.6,0-149.5-66.9-149.5-149.5c0,82.6-66.9,149.5-149.5,149.5
		C886.6,321,953.5,388,953.5,470.5z"/>
</g>
<g>
	<path class="st1" d="M971.4,1059.8c0-479,388.3-867.3,867.3-867.3"/>
	<circle class="st1" cx="1253.2" cy="454.3" r="365.8"/>
	<path class="st1" d="M948.9,1059.8c0-479-388.3-867.3-867.3-867.3"/>
	<circle class="st1" cx="667.1" cy="454.3" r="365.8"/>
	<circle class="st1" cx="805.2" cy="470.5" r="149.5"/>
	<circle class="st1" cx="805.2" cy="171.5" r="149.5"/>
	<circle class="st1" cx="1104.2" cy="470.5" r="149.5"/>
	<circle class="st1" cx="1104.2" cy="171.5" r="149.5"/>
	<circle class="st1" cx="398" cy="321.5" r="65"/>
	<circle class="st1" cx="809.5" cy="719.9" r="65"/>
	<circle class="st1" cx="1110.2" cy="719.9" r="65"/>
	<circle class="st1" cx="1521.6" cy="321.5" r="65"/>
</g>
</svg>
