<?xml version="1.0" encoding="utf-8"?>
<!-- Generator: Adobe Illustrator 26.3.1, SVG Export Plug-In . SVG Version: 6.00 Build 0)  -->
<svg version="1.1" id="Layer_1" xmlns="http://www.w3.org/2000/svg" xmlns:xlink="http://www.w3.org/1999/xlink" x="0px" y="0px"
	 viewBox="0 0 1245.85 642.77" style="enable-background:new 0 0 1245.85 642.77;" xml:space="preserve">
<style type="text/css">
	.st0{fill:#F58C48;}
</style>
<g>
	<g>
		<path class="st0" d="M1236.43,291.61c1.41-56.71-11.21-110.32-34.57-157.68c-13.88-28.12-47.06-41.23-75.91-28.94
			C943.93,182.5,796.46,325.4,713.08,504.22C700.1,532.07,711,565.61,738,580.26c51.63,27.99,111.35,42.95,174.78,40.36
			C1089.33,613.41,1232.04,468.25,1236.43,291.61z"/>
		<path class="st0" d="M43.99,133.94C20.62,181.3,8,234.91,9.41,291.63c4.4,176.64,147.11,321.8,323.66,328.99
			c63.43,2.59,123.15-12.37,174.77-40.36c27.01-14.64,37.9-48.19,24.92-76.04C449.38,325.4,301.92,182.5,119.9,105
			C91.04,92.71,57.87,105.81,43.99,133.94z"/>
		<path class="st0" d="M622.92,298.04c0-76.26,61.82-138.09,138.09-138.09c-76.26,0-138.09-61.82-138.09-138.09
			c0,76.26-61.82,138.09-138.09,138.09C561.1,159.95,622.92,221.78,622.92,298.04z"/>
	</g>
</g>
<g>
</g>
<g>
</g>
<g>
</g>
<g>
</g>
<g>
</g>
<g>
</g>
<g>
</g>
<g>
</g>
<g>
</g>
<g>
</g>
<g>
</g>
<g>
</g>
<g>
</g>
<g>
</g>
<g>
</g>
</svg>
