<?xml version="1.0" encoding="utf-8"?>
<!-- Generator: Adobe Illustrator 26.3.1, SVG Export Plug-In . SVG Version: 6.00 Build 0)  -->
<svg version="1.1" id="Layer_1" xmlns="http://www.w3.org/2000/svg" xmlns:xlink="http://www.w3.org/1999/xlink" x="0px" y="0px"
	 viewBox="0 0 760.9 149" style="enable-background:new 0 0 760.9 149;" xml:space="preserve">
<style type="text/css">
	.st0{fill:#CC3D29;}
	.st1{fill:#384242;}
</style>
<g>
	<path class="st0" d="M0,43.7V0h148.5v43.7h-98l35.2,61.2h62.8v43.7H60.2L0,43.7z"/>
	<path class="st0" d="M305.8,0v43.7H200.9v61.2h54.3L225,52.4h50.5l30.2,52.4v43.7H157.3V0H305.8z"/>
	<g>
		<path class="st1" d="M378.2,47.9c3.7-2.5,8.4-3.8,13.9-3.8c6.2,0,11.3,1.6,15.2,4.7c3.9,3.1,6.6,7.5,8.2,13l11.6-3.1
			c-2.3-7.8-6.5-13.9-12.4-18.5s-13.5-6.9-22.5-6.9c-7.9,0-14.6,1.7-20.1,5.2c-5.5,3.4-9.8,8.2-12.7,14.4
			c-2.9,6.2-4.4,13.3-4.4,21.4c0,8.1,1.5,15.3,4.4,21.4c2.9,6.2,7.2,11,12.7,14.4c5.5,3.4,12.2,5.2,20.1,5.2
			c9.1,0,16.6-2.3,22.5-6.9s10.1-10.8,12.4-18.5l-11.6-3.1c-1.5,5.5-4.3,9.8-8.2,12.9c-3.9,3.2-9,4.7-15.2,4.7
			c-5.6,0-10.2-1.3-14-3.8c-3.7-2.5-6.5-6-8.4-10.5c-1.9-4.5-2.8-9.8-2.8-15.8c0-6,0.9-11.3,2.8-15.8
			C371.7,53.9,374.5,50.4,378.2,47.9z"/>
		<path class="st1" d="M485.1,64.2c-1.8-3.9-4.7-6.8-8.6-8.6c-3.9-1.8-8.5-2.7-13.8-2.7c-6.8,0-12.3,1.5-16.4,4.5
			c-4.1,3-6.9,7-8.3,12.1l10.7,3.3c1-3.3,2.8-5.7,5.4-7.1c2.6-1.4,5.4-2.2,8.5-2.2c4.9,0,8.4,1.1,10.4,3.4c1.8,2,2.7,4.8,2.9,8.6
			c-2.2,0.3-4.5,0.6-6.7,0.9c-3.7,0.5-7.2,1.1-10.5,1.6c-3.3,0.6-6.3,1.3-8.9,2c-3,1-5.6,2.3-7.7,3.9c-2.1,1.6-3.6,3.5-4.7,5.8
			c-1.1,2.3-1.6,4.9-1.6,7.9c0,3.2,0.8,6.1,2.3,8.8c1.5,2.7,3.7,4.8,6.7,6.4c3,1.6,6.6,2.4,11,2.4c5.5,0,10.1-1.1,13.9-3.3
			c2.8-1.7,5.3-3.9,7.4-6.9v8.6h10.1V77.3c0-2.5-0.1-4.8-0.3-6.9C486.6,68.2,486,66.1,485.1,64.2z M474.6,94.2
			c-0.4,1.9-1.4,3.8-2.8,5.6c-1.4,1.8-3.3,3.3-5.6,4.4c-2.3,1.1-5.1,1.7-8.4,1.7c-2.4,0-4.4-0.4-6-1.1c-1.6-0.8-2.7-1.8-3.5-3.1
			c-0.8-1.3-1.1-2.7-1.1-4.2c0-1.6,0.4-2.9,1.1-4s1.7-2,2.9-2.8c1.2-0.8,2.6-1.4,4.2-2c1.9-0.6,4-1.1,6.4-1.5c2.4-0.4,5.1-0.8,8-1.3
			c1.9-0.3,3.9-0.6,6.1-0.9c0,1-0.1,2.1-0.1,3.3C475.6,90.5,475.2,92.5,474.6,94.2z"/>
		<path class="st1" d="M527.7,54.3c-1.9,0.1-3.8,0.5-5.7,1.1c-1.8,0.6-3.5,1.4-5,2.5c-1.5,1-2.9,2.3-4,3.9c-0.5,0.7-1,1.4-1.4,2.2
			v-9.5h-10.2v59h11.5V83.8c0-2.3,0.2-4.5,0.7-6.6c0.5-2.1,1.2-4,2.3-5.7c1.1-1.7,2.5-3.2,4.4-4.4c2-1.3,4.1-2,6.5-2.2
			c2.4-0.2,4.5-0.1,6.4,0.4V54.6C531.5,54.3,529.6,54.2,527.7,54.3z"/>
		<path class="st1" d="M611.5,72.7h-27.4v9.2h15.3c-0.5,4.9-1.8,9-3.7,12.4c-1.9,3.4-4.5,5.9-7.7,7.6c-3.2,1.7-7.1,2.6-11.6,2.5
			c-5.6,0-10.2-1.3-14-3.8c-3.7-2.5-6.5-6-8.4-10.5c-1.9-4.5-2.8-9.8-2.7-15.8c0-6,1-11.3,2.8-15.8c1.9-4.5,4.6-8.1,8.3-10.6
			c3.7-2.5,8.3-3.8,13.9-3.7c5.4,0,9.9,1.5,13.4,4.3c3.6,2.8,6.2,6.6,7.8,11.3l11.6-2.1c-2-7.6-5.8-13.5-11.3-17.8
			c-5.5-4.3-12.9-6.4-22.2-6.4c-7.2,0-13.5,1.6-19,4.9c-5.5,3.3-9.8,8-12.9,14.1c-3.1,6.1-4.6,13.4-4.6,21.9
			c0,6.4,0.9,12.2,2.7,17.3c1.8,5.1,4.4,9.4,7.7,12.9c3.3,3.5,7.1,6.2,11.6,8.1c4.4,1.8,9.3,2.8,14.6,2.8c7.6,0,14.1-1.6,19.5-4.9
			c5.4-3.3,9.4-7.8,12.2-13.5c2.8-5.7,4.2-12.2,4.2-19.5c0-0.3,0-1-0.1-2C611.6,74.3,611.6,73.4,611.5,72.7z"/>
		<path class="st1" d="M663,85.3c0,3.5-0.4,6.5-1.2,8.9c-0.8,2.4-1.9,4.4-3.2,5.9c-1.4,1.5-3,2.6-4.8,3.3c-1.8,0.7-3.8,1-5.8,1
			c-3.1,0-5.7-0.6-7.6-1.9c-1.9-1.3-3.5-3-4.5-5c-1.1-2.1-1.8-4.3-2.2-6.8c-0.4-2.4-0.6-4.8-0.6-7.1v-29h-11.6v32.8
			c0,1.8,0.2,3.9,0.5,6.3s0.9,4.9,1.9,7.4c0.9,2.5,2.2,4.8,4,7c1.7,2.1,4,3.9,6.8,5.2c2.8,1.3,6.2,2,10.3,2c5.3,0,9.9-1.1,13.6-3.4
			c2.3-1.4,4.3-3.2,5.9-5.2v7.1h10.2v-59H663V85.3z"/>
		<polygon class="st1" points="711.6,99.3 696,54.6 684.4,54.6 705.8,113.6 717.4,113.6 738.9,54.6 727.3,54.6 		"/>
		<rect x="749.8" y="33.8" class="st1" width="11.4" height="11.1"/>
		<rect x="749.8" y="54.6" class="st1" width="11.4" height="59"/>
	</g>
</g>
<g>
</g>
<g>
</g>
<g>
</g>
<g>
</g>
<g>
</g>
<g>
</g>
<g>
</g>
<g>
</g>
<g>
</g>
<g>
</g>
<g>
</g>
<g>
</g>
<g>
</g>
<g>
</g>
<g>
</g>
</svg>
