<?xml version="1.0" encoding="utf-8"?>
<!-- Generator: Adobe Illustrator 26.3.1, SVG Export Plug-In . SVG Version: 6.00 Build 0)  -->
<svg version="1.1" id="Layer_1" xmlns="http://www.w3.org/2000/svg" xmlns:xlink="http://www.w3.org/1999/xlink" x="0px" y="0px"
	 viewBox="0 0 361.9 62.3" style="enable-background:new 0 0 361.9 62.3;" xml:space="preserve">
<style type="text/css">
	.st0{fill:#636363;}
	.st1{fill:#0068A3;}
</style>
<g>
	<g>
		<path class="st0" d="M198.9,45.7c-2,0-3.8-0.3-5.4-1c-1.6-0.7-2.9-1.7-4-3c-1-1.3-1.7-2.8-2-4.6l4.2-0.6c0.4,1.7,1.3,3,2.7,4
			c1.4,0.9,2.9,1.4,4.7,1.4c1.1,0,2.2-0.2,3.1-0.5c0.9-0.4,1.7-0.9,2.3-1.5c0.6-0.7,0.9-1.5,0.9-2.4c0-0.5-0.1-0.9-0.3-1.3
			c-0.2-0.4-0.4-0.7-0.7-1c-0.3-0.3-0.7-0.5-1.1-0.8c-0.4-0.2-0.9-0.4-1.4-0.6l-7.1-2.1c-0.7-0.2-1.4-0.5-2.1-0.8
			c-0.7-0.3-1.4-0.8-2-1.3c-0.6-0.5-1.1-1.2-1.5-2c-0.4-0.8-0.6-1.8-0.6-2.9c0-1.7,0.4-3.2,1.3-4.4c0.9-1.2,2.1-2.1,3.6-2.7
			c1.5-0.6,3.2-0.9,5.1-0.9c1.9,0,3.6,0.4,5.1,1c1.5,0.6,2.7,1.6,3.7,2.8c1,1.2,1.7,2.7,2,4.4l-4.3,0.7c-0.2-1-0.6-1.9-1.2-2.7
			c-0.6-0.8-1.4-1.3-2.3-1.7c-0.9-0.4-1.9-0.6-3-0.6c-1,0-2,0.1-2.8,0.5c-0.9,0.3-1.5,0.8-2.1,1.4c-0.5,0.6-0.8,1.3-0.8,2.1
			c0,0.8,0.2,1.4,0.7,1.9c0.5,0.5,1,0.9,1.7,1.1c0.7,0.3,1.3,0.5,2,0.7l5.2,1.5c0.6,0.2,1.4,0.4,2.2,0.7c0.8,0.3,1.6,0.7,2.4,1.3
			c0.8,0.5,1.4,1.3,1.9,2.2c0.5,0.9,0.8,2,0.8,3.4c0,1.4-0.3,2.6-0.9,3.7c-0.6,1.1-1.3,2-2.3,2.7c-1,0.7-2.1,1.3-3.4,1.6
			C201.7,45.5,200.4,45.7,198.9,45.7z"/>
		<path class="st0" d="M222.8,45.7c-2.1,0-3.9-0.5-5.4-1.4c-1.5-0.9-2.7-2.2-3.6-3.9c-0.8-1.7-1.2-3.6-1.2-5.7
			c0-2.2,0.4-4.1,1.3-5.8c0.9-1.7,2-3,3.6-3.9c1.5-0.9,3.3-1.4,5.4-1.4c2.1,0,3.9,0.5,5.4,1.4c1.5,0.9,2.7,2.2,3.6,3.9
			c0.8,1.7,1.3,3.6,1.3,5.7c0,2.2-0.4,4.1-1.3,5.8c-0.8,1.7-2,3-3.6,3.9C226.7,45.2,224.9,45.7,222.8,45.7z M222.8,41.9
			c2,0,3.5-0.7,4.5-2c1-1.3,1.5-3.1,1.5-5.2c0-2.2-0.5-3.9-1.5-5.2c-1-1.3-2.5-2-4.5-2c-1.4,0-2.5,0.3-3.4,0.9
			c-0.9,0.6-1.5,1.5-2,2.5c-0.4,1.1-0.6,2.3-0.6,3.7c0,2.2,0.5,4,1.5,5.3C219.4,41.2,220.9,41.9,222.8,41.9z"/>
		<path class="st0" d="M237.7,45.1V16.6h4v28.5H237.7z"/>
		<path class="st0" d="M255.5,45.7c-1.4,0-2.7-0.2-3.6-0.7c-1-0.5-1.8-1.1-2.4-1.8c-0.6-0.8-1.1-1.6-1.4-2.5
			c-0.3-0.9-0.5-1.8-0.7-2.6s-0.2-1.6-0.2-2.2V24.2h4.1v10.3c0,0.8,0.1,1.6,0.2,2.5c0.1,0.9,0.4,1.7,0.8,2.4
			c0.4,0.7,0.9,1.3,1.6,1.8c0.7,0.5,1.6,0.7,2.7,0.7c0.7,0,1.4-0.1,2.1-0.4c0.6-0.2,1.2-0.6,1.7-1.2c0.5-0.5,0.9-1.2,1.1-2.1
			c0.3-0.9,0.4-1.9,0.4-3.2l2.5,0.9c0,1.9-0.4,3.6-1.1,5c-0.7,1.5-1.7,2.6-3.1,3.4C259,45.2,257.4,45.7,255.5,45.7z M262.4,45.1v-6
			h-0.5V24.2h4.1v20.9H262.4z"/>
		<path class="st0" d="M269.1,27.4v-3.3h14.3v3.3H269.1z M283.4,45.1c-1.3,0.3-2.6,0.4-3.9,0.3c-1.3,0-2.4-0.3-3.4-0.7
			c-1-0.5-1.7-1.2-2.2-2.1c-0.5-0.9-0.7-1.7-0.7-2.6c0-0.9,0-1.9,0-3.1V18.4h4.1v18.3c0,0.8,0,1.6,0,2.2c0,0.6,0.2,1.1,0.4,1.6
			c0.5,0.8,1.2,1.3,2.2,1.4s2.2,0.1,3.6-0.1V45.1z"/>
		<path class="st0" d="M288.2,20.7v-3.9h4v3.9H288.2z M288.2,45.1V24.2h4v20.9H288.2z"/>
		<path class="st0" d="M307.1,45.7c-2.1,0-3.9-0.5-5.4-1.4c-1.5-0.9-2.7-2.2-3.6-3.9c-0.8-1.7-1.2-3.6-1.2-5.7
			c0-2.2,0.4-4.1,1.3-5.8c0.9-1.7,2-3,3.6-3.9c1.5-0.9,3.3-1.4,5.4-1.4c2.1,0,3.9,0.5,5.4,1.4c1.5,0.9,2.7,2.2,3.6,3.9
			c0.8,1.7,1.3,3.6,1.3,5.7c0,2.2-0.4,4.1-1.3,5.8c-0.8,1.7-2,3-3.6,3.9C311,45.2,309.2,45.7,307.1,45.7z M307.1,41.9
			c2,0,3.5-0.7,4.5-2c1-1.3,1.5-3.1,1.5-5.2c0-2.2-0.5-3.9-1.5-5.2c-1-1.3-2.5-2-4.5-2c-1.4,0-2.5,0.3-3.4,0.9
			c-0.9,0.6-1.5,1.5-2,2.5c-0.4,1.1-0.6,2.3-0.6,3.7c0,2.2,0.5,4,1.5,5.3C303.7,41.2,305.2,41.9,307.1,41.9z"/>
		<path class="st0" d="M321.6,45.1V24.2h3.6v6h0.5v14.9H321.6z M336.3,45.1V34.8c0-0.8-0.1-1.6-0.2-2.5c-0.1-0.9-0.4-1.7-0.8-2.4
			c-0.4-0.7-0.9-1.3-1.6-1.8c-0.7-0.5-1.6-0.7-2.7-0.7c-0.7,0-1.4,0.1-2.1,0.4s-1.2,0.6-1.7,1.2c-0.5,0.5-0.9,1.2-1.1,2.1
			c-0.3,0.9-0.4,1.9-0.4,3.2l-2.5-0.9c0-1.9,0.4-3.6,1.1-5c0.7-1.5,1.7-2.6,3.1-3.4c1.3-0.8,2.9-1.2,4.8-1.2c1.4,0,2.7,0.2,3.6,0.7
			c1,0.5,1.8,1.1,2.4,1.8c0.6,0.8,1.1,1.6,1.4,2.5c0.3,0.9,0.5,1.8,0.7,2.6c0.1,0.9,0.2,1.6,0.2,2.2v11.6H336.3z"/>
		<path class="st0" d="M353.5,45.7c-2.5,0-4.6-0.6-6.2-1.7c-1.6-1.1-2.6-2.7-2.9-4.7l4.1-0.6c0.3,1.1,0.9,1.9,1.8,2.6
			c0.9,0.6,2.1,0.9,3.5,0.9c1.3,0,2.3-0.3,3-0.8c0.7-0.5,1.1-1.2,1.1-2.1c0-0.5-0.1-1-0.4-1.3c-0.3-0.3-0.8-0.6-1.6-0.9
			c-0.8-0.3-2-0.7-3.7-1.1c-1.8-0.5-3.2-1-4.3-1.5c-1.1-0.5-1.8-1.2-2.2-1.9c-0.4-0.7-0.7-1.6-0.7-2.6c0-1.3,0.3-2.4,1-3.3
			c0.7-0.9,1.6-1.7,2.8-2.2c1.2-0.5,2.7-0.8,4.3-0.8c1.6,0,3,0.3,4.3,0.8c1.3,0.5,2.3,1.2,3,2.1c0.8,0.9,1.2,2,1.4,3.2l-4.1,0.8
			c-0.1-1-0.6-1.8-1.4-2.4c-0.8-0.6-1.8-0.9-3.1-0.9c-1.2-0.1-2.2,0.2-3,0.6c-0.8,0.5-1.1,1.1-1.1,1.9c0,0.5,0.1,0.9,0.4,1.2
			c0.3,0.3,0.9,0.6,1.7,0.9c0.8,0.3,2.1,0.7,3.7,1.1c1.8,0.5,3.2,1,4.2,1.5c1,0.5,1.8,1.2,2.2,2c0.4,0.8,0.7,1.7,0.7,2.7
			c0,2.1-0.8,3.7-2.3,4.9C358.2,45.1,356.1,45.7,353.5,45.7z"/>
	</g>
	<path class="st1" d="M105.2,0h14.5v62.3h-14.5V0z M147.9,0v23.9h-14.1v14.4h14.1v23.9h14.4V0H147.9z M53.5,0L34.6,44.4L15.7,0H0
		l27,62.3h15.2l19.1-44.2l19.1,44.2h15.2L69.1,0H53.5z"/>
</g>
</svg>
