<?xml version="1.0" encoding="utf-8"?>
<!-- Generator: Adobe Illustrator 26.3.1, SVG Export Plug-In . SVG Version: 6.00 Build 0)  -->
<svg version="1.1" id="Layer_1" xmlns="http://www.w3.org/2000/svg" xmlns:xlink="http://www.w3.org/1999/xlink" x="0px" y="0px"
	 viewBox="0 0 665.9 170.8" style="enable-background:new 0 0 665.9 170.8;" xml:space="preserve">
<style type="text/css">
	.st0{fill:#EA1C24;}
</style>
<g>
	<rect x="445.5" y="0" width="38.6" height="109.3"/>
	<g>
		<rect x="263.7" width="154.5" height="27.3"/>
		<polygon points="263.7,54.6 263.7,82 263.7,109.3 302.3,109.3 302.3,82 379.6,82 379.6,54.6 302.3,54.6 		"/>
	</g>
	<rect x="511.4" y="0" width="154.5" height="27.3"/>
	<rect x="181.8" y="54.6" width="54.6" height="27.3"/>
	<rect x="569.3" y="54.6" width="38.6" height="54.6"/>
	<path class="st0" d="M154.5,68.3c0,4.8-0.8,9.4-2.3,13.7c-5.4,15.2-19.5,26.3-36.3,27.3c-0.8,0-1.6,0.1-2.4,0.1H0V81.9h102.2
		c7.5,0,13.7-6.1,13.7-13.7c0-7.5-6.1-13.7-13.7-13.7H0V0h38.6v27.3h74.9c0.8,0,1.6,0,2.4,0.1c16.8,1,30.9,12,36.3,27.2
		C153.6,58.9,154.5,63.5,154.5,68.3z"/>
	<path class="st0" d="M271,145.5V165h24.1v-6.9h-12.6v-5.2h20.1v10.6c0,5.8-2,7.3-8.2,7.3h-22.9c-6.2,0-8.2-1.5-8.2-7.3v-16.2
		c0-5.8,2-7.3,8.2-7.3h22.9c6,0,8.2,1.4,8.2,7c0,0.2,0,0.5,0,0.7l-7.5,1.3v-3.5H271z M369.9,157l-16-17h9.5l10.6,11.8l10.6-11.8h8.4
		l-15.9,16.8v14h-7.2V157z M443.9,140h5.8l14.5,18.6l14.2-18.6h5.7v30.8h-6.6v-19c0-0.6,0.1-1.7,0.2-3.3c-0.7,1.4-1.3,2.5-1.8,3.2
		l-11.6,15.4h-1.4l-11.6-15.4c-0.7-1-1.4-2-1.8-3.2c0.1,1.3,0.2,2.3,0.2,3.3v19h-5.8V140z"/>
</g>
</svg>
