<?xml version="1.0" encoding="utf-8"?>
<!-- Generator: Adobe Illustrator 26.3.1, SVG Export Plug-In . SVG Version: 6.00 Build 0)  -->
<svg version="1.1" id="Layer_1" xmlns="http://www.w3.org/2000/svg" xmlns:xlink="http://www.w3.org/1999/xlink" x="0px" y="0px"
	 viewBox="0 0 1168.2 299.7" style="enable-background:new 0 0 1168.2 299.7;" xml:space="preserve">
<style type="text/css">
	.st0{fill:#EA1C24;}
</style>
<g>
	<rect x="781.5" y="0" width="67.7" height="191.7"/>
	<g>
		<rect x="462.7" width="271" height="47.9"/>
		<polygon points="462.7,95.8 462.7,143.8 462.7,191.7 530.4,191.7 530.4,143.8 665.9,143.8 665.9,95.8 530.4,95.8 		"/>
	</g>
	<rect x="897.2" y="0" width="271" height="47.9"/>
	<rect x="318.9" y="95.8" width="95.8" height="47.9"/>
	<rect x="998.8" y="95.8" width="67.7" height="95.8"/>
	<path class="st0" d="M271,119.8c0,8.4-1.4,16.5-4.1,24c-9.4,26.7-34.2,46.1-63.7,47.8c-1.4,0.1-2.8,0.1-4.1,0.1H0v-47.9h179.3
		c13.2,0,24-10.7,24-24c0-13.2-10.7-24-24-24H0V0h67.7v47.9h131.3c1.4,0,2.8,0,4.1,0.1c29.5,1.7,54.2,21.1,63.7,47.8
		C269.5,103.3,271,111.4,271,119.8z"/>
	<path class="st0" d="M475.4,255.3v34.2h42.3v-12h-22.1v-9.2H531v18.6c0,10.1-3.5,12.8-14.4,12.8h-40.2c-10.9,0-14.4-2.6-14.4-12.8
		v-28.5c0-10.1,3.5-12.8,14.4-12.8h40.2c10.6,0,14.4,2.5,14.4,12.2c0,0.4,0,0.8,0,1.3l-13.2,2.2v-6.1H475.4z M648.9,275.5l-28-29.8
		h16.7l18.5,20.7l18.6-20.7h14.8l-27.9,29.5v24.5h-12.7V275.5z M778.8,245.7h10.1l25.4,32.6l24.9-32.6h10v54h-11.6v-33.4
		c0-1,0.1-2.9,0.4-5.8c-1.2,2.4-2.2,4.4-3.1,5.6l-20.3,27h-2.5l-20.3-27.1c-1.3-1.7-2.4-3.5-3.2-5.5c0.2,2.2,0.3,4,0.3,5.8v33.4
		h-10.1V245.7z"/>
</g>
<g>
</g>
<g>
</g>
<g>
</g>
<g>
</g>
<g>
</g>
<g>
</g>
<g>
</g>
<g>
</g>
<g>
</g>
<g>
</g>
<g>
</g>
<g>
</g>
<g>
</g>
<g>
</g>
<g>
</g>
</svg>
