<?xml version="1.0" encoding="utf-8"?>
<!-- Generator: Adobe Illustrator 26.3.1, SVG Export Plug-In . SVG Version: 6.00 Build 0)  -->
<svg version="1.1" id="Layer_1" xmlns="http://www.w3.org/2000/svg" xmlns:xlink="http://www.w3.org/1999/xlink" x="0px" y="0px"
	 viewBox="0 0 74.3 52.6" style="enable-background:new 0 0 74.3 52.6;" xml:space="preserve">
<style type="text/css">
	.st0{fill:#FFFFFF;}
</style>
<path class="st0" d="M74.3,32.8c0,2.3-0.4,4.5-1.1,6.6c-2.6,7.3-9.4,12.6-17.5,13.1c-0.4,0-0.8,0-1.1,0H0V39.4h49.1
	c3.6,0,6.6-2.9,6.6-6.6c0-3.6-2.9-6.6-6.6-6.6H0V0h18.6v13.1h36c0.4,0,0.8,0,1.1,0c8.1,0.5,14.9,5.8,17.5,13.1
	C73.9,28.3,74.3,30.5,74.3,32.8z"/>
</svg>
