<?xml version="1.0" encoding="utf-8"?>
<!-- Generator: Adobe Illustrator 26.3.1, SVG Export Plug-In . SVG Version: 6.00 Build 0)  -->
<svg version="1.1" id="Layer_1" xmlns="http://www.w3.org/2000/svg" xmlns:xlink="http://www.w3.org/1999/xlink" x="0px" y="0px"
	 viewBox="0 0 484.1 79.4" style="enable-background:new 0 0 484.1 79.4;" xml:space="preserve">
<style type="text/css">
	.st0{fill:#EA1C24;}
</style>
<g>
	<rect x="323.9" y="0" width="28.1" height="79.4"/>
	<g>
		<rect x="191.7" width="112.3" height="19.9"/>
		<polygon points="191.7,39.7 191.7,59.6 191.7,79.4 219.8,79.4 219.8,59.6 275.9,59.6 275.9,39.7 219.8,39.7 		"/>
	</g>
	<rect x="371.8" y="0" width="112.3" height="19.9"/>
	<rect x="132.2" y="39.7" width="39.7" height="19.9"/>
	<rect x="413.9" y="39.7" width="28.1" height="39.7"/>
	<path class="st0" d="M112.3,49.6c0,3.5-0.6,6.8-1.7,9.9c-3.9,11.1-14.2,19.1-26.4,19.8c-0.6,0-1.1,0-1.7,0H0V59.6h74.3
		c5.5,0,9.9-4.4,9.9-9.9c0-5.5-4.4-9.9-9.9-9.9H0V0h28.1v19.9h54.4c0.6,0,1.2,0,1.7,0c12.2,0.7,22.5,8.8,26.4,19.8
		C111.7,42.8,112.3,46.2,112.3,49.6z"/>
</g>
</svg>
