<?xml version="1.0" encoding="utf-8"?>
<!-- Generator: Adobe Illustrator 24.0.2, SVG Export Plug-In . SVG Version: 6.00 Build 0)  -->
<svg version="1.1" id="Layer_1" xmlns="http://www.w3.org/2000/svg" xmlns:xlink="http://www.w3.org/1999/xlink" x="0px" y="0px"
	 viewBox="0 0 303.11 303.11" style="enable-background:new 0 0 303.11 303.11;" xml:space="preserve">
<style type="text/css">
	.st0{fill:#E5EBF8;}
	.st1{opacity:0.8;}
	.st2{fill:#00D4D9;}
	.st3{fill:url(#SVGID_1_);}
	.st4{fill:url(#SVGID_2_);}
	.st5{fill:#FFFFFF;}
	.st6{fill:none;stroke:#000000;stroke-miterlimit:10;}
</style>
<path class="st0" d="M225.31,164.56c0,4.57-0.79,8.93-2.18,13.1c-5.16,14.49-18.66,25.01-34.74,26.01c-0.79,0-1.59,0-2.18,0H77.8
	v-26.01h97.48c7.15,0,13.1-5.76,13.1-13.1c0-7.15-5.76-13.1-13.1-13.1H77.8V99.44h36.93v26.01h71.47c0.79,0,1.59,0,2.18,0
	c16.08,0.99,29.58,11.51,34.74,26.01C224.52,155.63,225.31,159.99,225.31,164.56z"/>
</svg>
