<?xml version="1.0" encoding="utf-8"?>
<!-- Generator: Adobe Illustrator 26.3.1, SVG Export Plug-In . SVG Version: 6.00 Build 0)  -->
<svg version="1.1" id="Layer_1" xmlns="http://www.w3.org/2000/svg" xmlns:xlink="http://www.w3.org/1999/xlink" x="0px" y="0px"
	 viewBox="0 0 1264.8 275.3" style="enable-background:new 0 0 1264.8 275.3;" xml:space="preserve">
<style type="text/css">
	.st0{fill:none;stroke:#000000;stroke-miterlimit:10;}
	.st1{fill:none;stroke:#000000;stroke-width:0.5;stroke-miterlimit:10;}
	.st2{fill:none;stroke:#000000;stroke-width:0.5;stroke-miterlimit:10;stroke-dasharray:6.0141,6.0141;}
	.st3{fill:none;stroke:#000000;stroke-width:0.5;stroke-miterlimit:10;stroke-dasharray:6.0654,6.0654;}
	.st4{fill:none;stroke:#000000;stroke-width:0.5;stroke-miterlimit:10;stroke-dasharray:6.2411,6.2411;}
	.st5{fill:none;stroke:#000000;stroke-width:0.5;stroke-miterlimit:10;stroke-dasharray:6.215,6.215;}
	.st6{fill:none;stroke:#000000;stroke-width:0.5;stroke-miterlimit:10;stroke-dasharray:6.3812,6.3812;}
	.st7{fill:#514240;}
	.st8{fill:#D49F66;}
	.st9{font-family:'Montserrat-Medium';}
	.st10{font-size:19.1727px;}
	.st11{fill:none;stroke:#000000;stroke-width:0.5;stroke-miterlimit:10;stroke-dasharray:5.2861,5.2861;}
</style>
<g>
	<g>
		<rect x="320.8" y="104.1" class="st7" width="30.1" height="128.6"/>
		<path class="st7" d="M502.4,116.9c9.8,9.5,14.7,23.5,14.7,42.2v73.7H487v-69.9c0-11.2-2.6-19.7-7.9-25.4
			c-5.3-5.7-12.8-8.6-22.6-8.6c-11.1,0-19.8,3.3-26.3,10c-6.4,6.7-9.6,16.3-9.6,28.8v65h-30.1V104.1H419v16.6
			c5-5.9,11.2-10.4,18.8-13.5c7.5-3,16.1-4.6,25.5-4.6C479.6,102.7,492.6,107.4,502.4,116.9z"/>
		<path class="st7" d="M632.7,225.8c-3.5,2.9-7.8,5.1-12.9,6.5c-5.1,1.4-10.4,2.2-16,2.2c-14.1,0-25.1-3.7-32.8-11.1
			c-7.7-7.4-11.6-18.1-11.6-32.3v-86H624v24.1h-34.4v61.2c0,6.3,1.5,11,4.6,14.3c3,3.3,7.5,4.9,13.2,4.9c6.7,0,12.4-1.8,16.9-5.3
			L632.7,225.8z"/>
		<path class="st7" d="M773.6,178.1H672.7c1.8,9.5,6.4,17,13.8,22.5c7.5,5.5,16.7,8.3,27.8,8.3c14.1,0,25.8-4.7,34.9-14l16.1,18.5
			c-5.8,6.9-13.1,12.1-21.9,15.7c-8.8,3.5-18.8,5.3-29.9,5.3c-14.1,0-26.6-2.8-37.3-8.4c-10.8-5.6-19.1-13.4-24.9-23.5
			c-5.9-10-8.8-21.4-8.8-34.1c0-12.5,2.8-23.8,8.6-33.8c5.7-10,13.6-17.9,23.7-23.5c10.1-5.6,21.5-8.4,34.2-8.4
			c12.5,0,23.7,2.8,33.6,8.3s17.6,13.3,23.1,23.4c5.5,10,8.3,21.6,8.3,34.8C774.1,171.3,773.9,174.2,773.6,178.1z M684.6,135.3
			c-6.7,5.7-10.7,13.3-12.2,22.8h73c-1.3-9.3-5.2-16.9-11.8-22.6c-6.6-5.8-14.8-8.7-24.6-8.7C699.4,126.8,691.3,129.6,684.6,135.3z"
			/>
		<path class="st7" d="M877.4,102.7v28.7c-2.6-0.5-4.9-0.7-7-0.7c-11.7,0-20.9,3.4-27.5,10.2c-6.6,6.8-9.9,16.7-9.9,29.5v62.4H803
			V104.1h28.7v18.8C840.3,109.4,855.6,102.7,877.4,102.7z"/>
		<rect x="902.9" y="104.1" class="st7" width="30.1" height="128.6"/>
		<path class="st7" d="M995.2,226c-10.4-5.6-18.6-13.4-24.4-23.5c-5.9-10-8.8-21.4-8.8-34.1c0-12.7,2.9-24,8.8-34
			c5.9-10,14-17.7,24.4-23.4c10.4-5.6,22.2-8.4,35.2-8.4c13.2,0,25,2.8,35.4,8.4c10.4,5.6,18.6,13.4,24.4,23.4
			c5.9,10,8.8,21.3,8.8,34c0,12.7-2.9,24-8.8,34.1c-5.9,10-14,17.9-24.4,23.5c-10.4,5.6-22.2,8.4-35.4,8.4
			C1017.4,234.4,1005.6,231.6,995.2,226z M1057.8,197.6c7.2-7.4,10.8-17.1,10.8-29.1c0-12-3.6-21.8-10.8-29.1
			c-7.2-7.4-16.4-11.1-27.5-11.1c-11.1,0-20.2,3.7-27.3,11.1c-7.1,7.4-10.7,17.1-10.7,29.1c0,12,3.6,21.8,10.7,29.1
			c7.1,7.4,16.3,11.1,27.3,11.1C1041.4,208.7,1050.6,205,1057.8,197.6z"/>
		<path class="st7" d="M1202.3,102.7v28.7c-2.6-0.5-4.9-0.7-7-0.7c-11.7,0-20.9,3.4-27.5,10.2c-6.6,6.8-9.9,16.7-9.9,29.5v62.4
			h-30.1V104.1h28.7v18.8C1165.3,109.4,1180.5,102.7,1202.3,102.7z"/>
	</g>
	<polygon class="st8" points="163.9,168.6 270.5,62 57.3,62 57.3,275.3 270.5,275.3 	"/>
	<line class="st0" x1="36.8" y1="62" x2="7.3" y2="62"/>
	<line class="st0" x1="36.8" y1="275.2" x2="7.3" y2="275.2"/>
	<g>
		<g>
			<line class="st1" x1="22" y1="65.5" x2="22" y2="68.5"/>
			<line class="st3" x1="22" y1="74.6" x2="22" y2="265.7"/>
			<line class="st1" x1="22" y1="268.7" x2="22" y2="271.7"/>
			<g>
				<polygon points="19.5,66.3 22,62 24.5,66.3 				"/>
			</g>
			<g>
				<polygon points="19.5,271 22,275.3 24.5,271 				"/>
			</g>
		</g>
	</g>
	<g>
		<text transform="matrix(1 0 0 1 2.441406e-04 168.6259)" class="st9 st10">B</text>
	</g>
	<g>
		<line class="st0" x1="1258.2" y1="102.6" x2="1228.7" y2="102.6"/>
		<line class="st0" x1="1258.2" y1="234.4" x2="1228.7" y2="234.4"/>
		<g>
			<g>
				<line class="st1" x1="1243.5" y1="106.3" x2="1243.5" y2="109.3"/>
				<line class="st4" x1="1243.5" y1="115.5" x2="1243.5" y2="224.7"/>
				<line class="st1" x1="1243.5" y1="227.9" x2="1243.5" y2="230.9"/>
				<g>
					<polygon points="1241,107 1243.5,102.7 1246,107 					"/>
				</g>
				<g>
					<polygon points="1241,230.1 1243.5,234.4 1246,230.1 					"/>
				</g>
			</g>
		</g>
		<g>
			<text transform="matrix(1 0 0 1 1250.9116 172.4285)" class="st9 st10">C</text>
		</g>
	</g>
	<line class="st0" x1="320.8" y1="12.7" x2="320.8" y2="42.2"/>
	<line class="st0" x1="270.6" y1="12.7" x2="270.6" y2="42.2"/>
	<g>
		<g>
			<line class="st1" x1="274.2" y1="27.5" x2="277.2" y2="27.5"/>
			<line class="st11" x1="282.5" y1="27.5" x2="311.5" y2="27.5"/>
			<line class="st1" x1="314.2" y1="27.5" x2="317.2" y2="27.5"/>
			<g>
				<polygon points="274.9,30 270.6,27.5 274.9,25 				"/>
			</g>
			<g>
				<polygon points="316.4,30 320.8,27.5 316.4,25 				"/>
			</g>
		</g>
	</g>
	<g>
		<text transform="matrix(1 0 0 1 289.2505 16.2964)" class="st9 st10">E</text>
	</g>
</g>
</svg>
