<?xml version="1.0" encoding="utf-8"?>
<!-- Generator: Adobe Illustrator 26.3.1, SVG Export Plug-In . SVG Version: 6.00 Build 0)  -->
<svg version="1.1" id="Layer_1" xmlns="http://www.w3.org/2000/svg" xmlns:xlink="http://www.w3.org/1999/xlink" x="0px" y="0px"
	 viewBox="0 0 685.1 438.3" style="enable-background:new 0 0 685.1 438.3;" xml:space="preserve">
<style type="text/css">
	.st0{fill:none;stroke:#000000;stroke-miterlimit:10;}
	.st1{fill:none;stroke:#000000;stroke-width:0.5;stroke-miterlimit:10;}
	.st2{fill:none;stroke:#000000;stroke-width:0.5;stroke-miterlimit:10;stroke-dasharray:6.0141,6.0141;}
	.st3{fill:none;stroke:#000000;stroke-width:0.5;stroke-miterlimit:10;stroke-dasharray:6.0654,6.0654;}
	.st4{fill:none;stroke:#000000;stroke-width:0.5;stroke-miterlimit:10;stroke-dasharray:6.2411,6.2411;}
	.st5{fill:none;stroke:#000000;stroke-width:0.5;stroke-miterlimit:10;stroke-dasharray:6.215,6.215;}
	.st6{fill:none;stroke:#000000;stroke-width:0.5;stroke-miterlimit:10;stroke-dasharray:6.3812,6.3812;}
	.st7{font-family:'Montserrat-Medium';}
	.st8{font-size:19.1727px;}
	.st9{fill:#514240;}
	.st10{fill:#D49F66;}
	.st11{fill:none;stroke:#000000;stroke-width:0.5;stroke-miterlimit:10;stroke-dasharray:5.2861,5.2861;}
</style>
<g>
	
		<rect x="472.4" y="245.2" transform="matrix(-1.333156e-08 -1 1 -1.333156e-08 227.2413 723.9047)" class="st0" width="6.3" height="6.3"/>
	
		<rect x="466.2" y="251.5" transform="matrix(-1.333069e-08 -1 1 -1.333069e-08 214.6965 730.1771)" class="st0" width="12.5" height="12.5"/>
	
		<rect x="478.7" y="245.2" transform="matrix(-1.333031e-08 -1 1 -1.333031e-08 233.5137 742.7219)" class="st0" width="18.8" height="18.8"/>
	
		<rect x="466.2" y="213.8" transform="matrix(-1.333081e-08 -1 1 -1.333081e-08 252.3308 711.3599)" class="st0" width="31.4" height="31.4"/>
	
		<rect x="416" y="213.8" transform="matrix(-1.333062e-08 -1 1 -1.333062e-08 202.1517 679.9979)" class="st0" width="50.2" height="50.2"/>
	
		<rect x="416" y="264" transform="matrix(-1.333069e-08 -1 1 -1.333069e-08 151.9726 761.539)" class="st0" width="81.5" height="81.5"/>
	
		<rect x="497.5" y="213.8" transform="matrix(-1.333076e-08 -1 1 -1.333076e-08 283.6928 843.0801)" class="st0" width="131.7" height="131.7"/>
	
		<rect x="416" y="0.5" transform="matrix(-1.333073e-08 -1 1 -1.333073e-08 415.4853 629.7466)" class="st0" width="213.3" height="213.3"/>
	
		<rect x="70.9" y="0.5" transform="matrix(-1.333076e-08 -1 1 -1.333076e-08 70.4315 416.4853)" class="st0" width="345.1" height="345.1"/>
	
		<rect x="466.2" y="245.2" transform="matrix(-1.333127e-08 -1 1 -1.333127e-08 220.9689 717.6323)" class="st0" width="6.3" height="6.3"/>
	<path class="st0" d="M70.9,345.6C70.9,154.8,225.3,0.5,416,0.5"/>
	<path class="st0" d="M629.2,213.8C629.2,95.9,533.9,0.5,416,0.5"/>
	<path class="st0" d="M629.2,213.8c0,72.8-58.9,131.8-131.7,131.8"/>
	<path class="st0" d="M416,264c0,45.1,36.5,81.5,81.5,81.5"/>
	<path class="st0" d="M416,264c0-27.7,22.4-50.2,50.2-50.2"/>
	<path class="st0" d="M497.5,245.2c0-17.3-14-31.4-31.4-31.4"/>
	<path class="st0" d="M497.5,245.2c0,10.4-8.4,18.8-18.8,18.8"/>
	<path class="st0" d="M466.2,251.5c0,6.9,5.6,12.5,12.5,12.5"/>
	<path class="st0" d="M466.2,251.5c0-3.5,2.8-6.3,6.3-6.3"/>
	<path class="st0" d="M478.7,251.5c0-3.5-2.8-6.3-6.3-6.3"/>
	<line class="st0" x1="35.7" y1="0.5" x2="6.2" y2="0.5"/>
	<line class="st0" x1="35.7" y1="345.6" x2="6.2" y2="345.6"/>
	<g>
		<g>
			<line class="st1" x1="20.9" y1="4.1" x2="20.9" y2="7.1"/>
			<line class="st2" x1="20.9" y1="13.1" x2="20.9" y2="334.9"/>
			<line class="st1" x1="20.9" y1="337.9" x2="20.9" y2="340.9"/>
			<g>
				<polygon points="18.4,4.8 20.9,0.5 23.4,4.8 				"/>
			</g>
			<g>
				<polygon points="18.4,340.1 20.9,344.5 23.4,340.1 				"/>
			</g>
		</g>
	</g>
	<line class="st0" x1="678.2" y1="0.5" x2="648.7" y2="0.5"/>
	<line class="st0" x1="678.2" y1="213.8" x2="648.7" y2="213.8"/>
	<line class="st0" x1="678.2" y1="345.6" x2="648.7" y2="345.6"/>
	<g>
		<g>
			<line class="st1" x1="663.4" y1="4.1" x2="663.4" y2="7.1"/>
			<line class="st3" x1="663.4" y1="13.2" x2="663.4" y2="204.2"/>
			<line class="st1" x1="663.4" y1="207.2" x2="663.4" y2="210.2"/>
			<g>
				<polygon points="660.9,4.8 663.4,0.5 665.9,4.8 				"/>
			</g>
			<g>
				<polygon points="660.9,209.5 663.4,213.8 665.9,209.5 				"/>
			</g>
		</g>
	</g>
	<g>
		<g>
			<line class="st1" x1="663.4" y1="217.4" x2="663.4" y2="220.4"/>
			<line class="st4" x1="663.4" y1="226.7" x2="663.4" y2="335.9"/>
			<line class="st1" x1="663.4" y1="339" x2="663.4" y2="342"/>
			<g>
				<polygon points="660.9,218.2 663.4,213.8 665.9,218.2 				"/>
			</g>
			<g>
				<polygon points="660.9,341.3 663.4,345.6 665.9,341.3 				"/>
			</g>
		</g>
	</g>
	<line class="st0" x1="416" y1="357.4" x2="416" y2="386.9"/>
	<line class="st0" x1="497.5" y1="357.4" x2="497.5" y2="386.9"/>
	<line class="st0" x1="497.5" y1="398.8" x2="497.5" y2="428.3"/>
	<g>
		<g>
			<line class="st1" x1="419.6" y1="372.2" x2="422.6" y2="372.2"/>
			<line class="st5" x1="428.8" y1="372.2" x2="487.8" y2="372.2"/>
			<line class="st1" x1="490.9" y1="372.2" x2="493.9" y2="372.2"/>
			<g>
				<polygon points="420.3,374.6 416,372.2 420.3,369.7 				"/>
			</g>
			<g>
				<polygon points="493.2,374.6 497.5,372.2 493.2,369.7 				"/>
			</g>
		</g>
	</g>
	<g>
		<g>
			<line class="st1" x1="468.8" y1="413.5" x2="471.8" y2="413.5"/>
			<line class="st6" x1="478.2" y1="413.5" x2="487.7" y2="413.5"/>
			<line class="st1" x1="490.9" y1="413.5" x2="493.9" y2="413.5"/>
			<g>
				<polygon points="469.5,416 465.2,413.5 469.5,411 				"/>
			</g>
			<g>
				<polygon points="493.2,416 497.5,413.5 493.2,411 				"/>
			</g>
		</g>
	</g>
	<g>
		<text transform="matrix(1 0 0 1 1.855469e-02 175.8602)" class="st7 st8">A</text>
	</g>
	<g>
		<text transform="matrix(1 0 0 1 670.5439 107.1668)" class="st7 st8">B</text>
	</g>
	<g>
		<text transform="matrix(1 0 0 1 670.8701 283.5726)" class="st7 st8">C</text>
	</g>
	<g>
		<text transform="matrix(1 0 0 1 448.8379 390.929)" class="st7 st8">D</text>
	</g>
	<g>
		<text transform="matrix(1 0 0 1 475.7588 433.2093)" class="st7 st8">F</text>
	</g>
</g>
</svg>
