<?xml version="1.0" encoding="utf-8"?>
<!-- Generator: Adobe Illustrator 26.3.1, SVG Export Plug-In . SVG Version: 6.00 Build 0)  -->
<svg version="1.1" id="Layer_1" xmlns="http://www.w3.org/2000/svg" xmlns:xlink="http://www.w3.org/1999/xlink" x="0px" y="0px"
	 viewBox="0 0 63.7 11.9" style="enable-background:new 0 0 63.7 11.9;" xml:space="preserve">
<style type="text/css">
	.st0{fill:#514240;}
	.st1{fill:#D39E66;}
</style>
<g>
	<g>
		<rect x="14.7" y="2.3" class="st0" width="1.7" height="7.2"/>
		<path class="st0" d="M24.8,3.1c0.5,0.5,0.8,1.3,0.8,2.3v4.1h-1.7V5.6c0-0.6-0.1-1.1-0.4-1.4c-0.3-0.3-0.7-0.5-1.3-0.5
			c-0.6,0-1.1,0.2-1.5,0.6c-0.4,0.4-0.5,0.9-0.5,1.6v3.6h-1.7V2.3h1.6v0.9c0.3-0.3,0.6-0.6,1-0.8c0.4-0.2,0.9-0.3,1.4-0.3
			C23.5,2.3,24.2,2.5,24.8,3.1z"/>
		<path class="st0" d="M32,9.1c-0.2,0.2-0.4,0.3-0.7,0.4c-0.3,0.1-0.6,0.1-0.9,0.1c-0.8,0-1.4-0.2-1.8-0.6c-0.4-0.4-0.6-1-0.6-1.8
			V2.4h3.6v1.3h-1.9v3.4c0,0.3,0.1,0.6,0.3,0.8c0.2,0.2,0.4,0.3,0.7,0.3c0.4,0,0.7-0.1,0.9-0.3L32,9.1z"/>
		<path class="st0" d="M39.9,6.5h-5.6C34.3,7,34.6,7.4,35,7.7c0.4,0.3,0.9,0.5,1.5,0.5c0.8,0,1.4-0.3,1.9-0.8l0.9,1
			c-0.3,0.4-0.7,0.7-1.2,0.9c-0.5,0.2-1,0.3-1.7,0.3c-0.8,0-1.5-0.2-2.1-0.5c-0.6-0.3-1.1-0.7-1.4-1.3c-0.3-0.6-0.5-1.2-0.5-1.9
			c0-0.7,0.2-1.3,0.5-1.9c0.3-0.6,0.8-1,1.3-1.3c0.6-0.3,1.2-0.5,1.9-0.5c0.7,0,1.3,0.2,1.9,0.5c0.5,0.3,1,0.7,1.3,1.3
			c0.3,0.6,0.5,1.2,0.5,1.9C39.9,6.1,39.9,6.2,39.9,6.5z M34.9,4.1c-0.4,0.3-0.6,0.7-0.7,1.3h4.1c-0.1-0.5-0.3-0.9-0.7-1.3
			c-0.4-0.3-0.8-0.5-1.4-0.5C35.7,3.6,35.3,3.8,34.9,4.1z"/>
		<path class="st0" d="M45.6,2.3v1.6c-0.1,0-0.3,0-0.4,0c-0.7,0-1.2,0.2-1.5,0.6c-0.4,0.4-0.5,0.9-0.5,1.6v3.5h-1.7V2.3h1.6v1
			C43.6,2.6,44.4,2.3,45.6,2.3z"/>
		<rect x="47" y="2.3" class="st0" width="1.7" height="7.2"/>
		<path class="st0" d="M52.2,9.1c-0.6-0.3-1-0.7-1.4-1.3c-0.3-0.6-0.5-1.2-0.5-1.9c0-0.7,0.2-1.3,0.5-1.9c0.3-0.6,0.8-1,1.4-1.3
			c0.6-0.3,1.2-0.5,2-0.5c0.7,0,1.4,0.2,2,0.5c0.6,0.3,1,0.7,1.4,1.3C57.8,4.6,58,5.2,58,5.9c0,0.7-0.2,1.3-0.5,1.9
			c-0.3,0.6-0.8,1-1.4,1.3c-0.6,0.3-1.2,0.5-2,0.5C53.4,9.6,52.8,9.4,52.2,9.1z M55.7,7.5c0.4-0.4,0.6-1,0.6-1.6s-0.2-1.2-0.6-1.6
			c-0.4-0.4-0.9-0.6-1.5-0.6S53,3.9,52.6,4.3c-0.4,0.4-0.6,1-0.6,1.6s0.2,1.2,0.6,1.6C53,8,53.5,8.2,54.1,8.2S55.3,8,55.7,7.5z"/>
		<path class="st0" d="M63.7,2.3v1.6c-0.1,0-0.3,0-0.4,0c-0.7,0-1.2,0.2-1.5,0.6c-0.4,0.4-0.5,0.9-0.5,1.6v3.5h-1.7V2.3h1.6v1
			C61.6,2.6,62.5,2.3,63.7,2.3z"/>
	</g>
	<polygon class="st1" points="11.9,0 0,0 0,11.9 11.9,11.9 5.9,5.9 	"/>
</g>
</svg>
