<?xml version="1.0" encoding="UTF-8"?>
<svg id="Layer_1" xmlns="http://www.w3.org/2000/svg" version="1.1" viewBox="0 0 1167.02 649.87">
  <!-- Generator: Adobe Illustrator 29.5.0, SVG Export Plug-In . SVG Version: 2.1.0 Build 137)  -->
  <defs>
    <style>
      .st0 {
        fill: #f90;
      }
    </style>
  </defs>
  <rect class="st0" x="329.87" y="592.1" width="507.29" height="57.77" rx="15.93" ry="15.93"/>
  <rect class="st0" x="1.83" width="71.23" height="57.77" rx="15.93" ry="15.93"/>
  <rect class="st0" x="1093.97" y="0" width="71.23" height="57.77" rx="15.93" ry="15.93" transform="translate(2259.16 57.77) rotate(-180)"/>
  <rect class="st0" x="1.83" y="84.59" width="83.1" height="57.77" rx="15.93" ry="15.93"/>
  <rect class="st0" x="1082.09" y="84.59" width="83.1" height="57.77" rx="15.93" ry="15.93" transform="translate(2247.29 226.94) rotate(-180)"/>
  <rect class="st0" x="16.87" y="169.17" width="103.67" height="57.77" rx="15.93" ry="15.93"/>
  <rect class="st0" x="233.32" y="169.17" width="51.05" height="57.77" rx="15.93" ry="15.93"/>
  <rect class="st0" x="1046.48" y="169.17" width="103.67" height="57.77" rx="15.93" ry="15.93" transform="translate(2196.64 396.12) rotate(-180)"/>
  <rect class="st0" x="882.66" y="169.17" width="51.05" height="57.77" rx="15.93" ry="15.93" transform="translate(1816.37 396.12) rotate(-180)"/>
  <rect class="st0" x="265.37" y="253.76" width="101.3" height="57.77" rx="15.93" ry="15.93"/>
  <rect class="st0" x="43.38" y="253.76" width="119.9" height="57.77" rx="15.93" ry="15.93"/>
  <rect class="st0" x="800.35" y="253.76" width="101.3" height="57.77" rx="15.93" ry="15.93" transform="translate(1702.01 565.29) rotate(-180)"/>
  <rect class="st0" x="1003.75" y="253.76" width="119.9" height="57.77" rx="15.93" ry="15.93" transform="translate(2127.39 565.29) rotate(-180)"/>
  <rect class="st0" x="76.22" y="338.34" width="145.62" height="57.77" rx="15.93" ry="15.93"/>
  <rect class="st0" x="322.74" y="338.34" width="185.58" height="57.77" rx="15.93" ry="15.93"/>
  <rect class="st0" x="945.18" y="338.34" width="145.62" height="57.77" rx="15.93" ry="15.93" transform="translate(2035.98 734.46) rotate(-180)"/>
  <rect class="st0" x="658.69" y="338.34" width="185.58" height="57.77" rx="15.93" ry="15.93" transform="translate(1502.97 734.46) rotate(-180)"/>
  <rect class="st0" x="129.25" y="422.93" width="424.98" height="57.77" rx="15.93" ry="15.93"/>
  <rect class="st0" x="612.79" y="422.93" width="424.98" height="57.77" rx="15.93" ry="15.93" transform="translate(1650.57 903.63) rotate(-180)"/>
  <rect class="st0" x="207.59" y="507.51" width="364.84" height="57.77" rx="15.93" ry="15.93"/>
  <rect class="st0" x="594.59" y="507.51" width="364.84" height="57.77" rx="15.93" ry="15.93" transform="translate(1554.02 1072.8) rotate(-180)"/>
</svg>