<?xml version="1.0" encoding="UTF-8"?>
<svg id="Layer_1" xmlns="http://www.w3.org/2000/svg" version="1.1" viewBox="0 0 825.75 388.42">
  <!-- Generator: Adobe Illustrator 29.5.0, SVG Export Plug-In . SVG Version: 2.1.0 Build 137)  -->
  <defs>
    <style>
      .st0 {
        fill: #657786;
      }

      .st1 {
        fill: #f90;
      }
    </style>
  </defs>
  <path class="st0" d="M82.48,342.45c2.31,3.69,3.46,8.35,3.46,13.99s-1.56,11.05-4.69,15.91c-3.13,4.87-7.92,8.76-14.38,11.68-6.46,2.92-14.61,4.38-24.45,4.38-8.41,0-16.45-1.21-24.14-3.61-7.69-2.41-13.79-5.51-18.3-9.3l6.92-15.53c4.31,3.38,9.63,6.2,15.99,8.46,6.35,2.26,12.86,3.38,19.53,3.38,5.64,0,10.2-.62,13.68-1.84,3.48-1.23,6.05-2.9,7.69-5,1.64-2.1,2.46-4.48,2.46-7.15,0-3.28-1.18-5.92-3.54-7.92s-5.41-3.59-9.15-4.77-7.89-2.28-12.45-3.31c-4.56-1.02-9.12-2.23-13.68-3.61-4.56-1.38-8.71-3.18-12.45-5.38-3.74-2.2-6.79-5.15-9.15-8.84-2.36-3.69-3.54-8.4-3.54-14.14s1.56-11.2,4.69-16.07c3.12-4.87,7.89-8.76,14.3-11.68,6.4-2.92,14.53-4.38,24.37-4.38,6.46,0,12.86.82,19.22,2.46,6.35,1.64,11.89,4,16.6,7.07l-6.3,15.53c-4.82-2.87-9.79-5-14.91-6.38-5.13-1.38-10.05-2.08-14.76-2.08-5.53,0-10.02.67-13.45,2-3.44,1.33-5.95,3.07-7.53,5.23-1.59,2.15-2.38,4.61-2.38,7.38,0,3.28,1.15,5.92,3.46,7.92s5.33,3.56,9.07,4.69c3.74,1.13,7.92,2.23,12.53,3.31s9.2,2.28,13.76,3.61c4.56,1.33,8.71,3.07,12.45,5.23,3.74,2.15,6.76,5.07,9.07,8.76h0ZM172.65,338.76v48.12h-18.14v-9.99c-1.9,2.86-4.47,5.23-7.76,7.07-4.77,2.67-10.79,4-18.06,4-6.15,0-11.53-1.05-16.14-3.15s-8.17-5.02-10.69-8.76c-2.51-3.74-3.77-7.97-3.77-12.68s1.1-8.76,3.31-12.45c2.2-3.69,5.82-6.61,10.84-8.76,5.02-2.15,11.68-3.23,19.99-3.23h21.22v-1.23c0-5.64-1.69-10.02-5.07-13.15s-8.51-4.69-15.37-4.69c-4.61,0-9.15.72-13.61,2.15-4.46,1.44-8.23,3.44-11.3,6l-7.53-13.99c4.41-3.38,9.66-5.92,15.76-7.61,6.1-1.69,12.43-2.54,18.99-2.54,11.89,0,21.09,2.84,27.6,8.53,6.51,5.69,9.76,14.48,9.76,26.37h-.03ZM153.44,351.68h-19.83c-6.56,0-10.97,1.05-13.22,3.15-2.26,2.1-3.38,4.69-3.38,7.76,0,3.49,1.38,6.25,4.15,8.3,2.77,2.05,6.61,3.08,11.53,3.08s8.94-1.08,12.68-3.23c3.74-2.15,6.43-5.33,8.07-9.53v-9.53h0ZM318.32,307.71c-5.07-2.56-10.89-3.84-17.45-3.84-8.1,0-15.22,1.85-21.37,5.53-3.78,2.27-6.9,5.01-9.36,8.21-1.97-3.27-4.49-5.97-7.62-8.05-5.69-3.79-12.38-5.69-20.06-5.69-6.76,0-12.79,1.38-18.06,4.15-3.51,1.84-6.44,4.25-8.84,7.22v-10.45h-18.3v82.1h19.22v-41.66c0-5.53.9-10.09,2.69-13.68,1.79-3.59,4.31-6.3,7.53-8.15,3.23-1.84,6.94-2.77,11.15-2.77,5.94,0,10.5,1.79,13.68,5.38,3.18,3.59,4.77,9.02,4.77,16.3v44.59h19.22v-41.66c0-5.53.9-10.09,2.69-13.68s4.3-6.3,7.53-8.15c3.23-1.84,6.94-2.77,11.15-2.77,5.94,0,10.51,1.79,13.68,5.38,3.18,3.59,4.77,9.02,4.77,16.3v44.59h19.22v-47.05c0-8.3-1.44-15.09-4.3-20.37-2.87-5.28-6.84-9.2-11.92-11.76l-.02-.02ZM427.87,338.76v48.12h-18.14v-9.99c-1.9,2.86-4.47,5.23-7.76,7.07-4.77,2.67-10.79,4-18.07,4-6.15,0-11.53-1.05-16.14-3.15s-8.17-5.02-10.69-8.76c-2.51-3.74-3.77-7.97-3.77-12.68s1.1-8.76,3.31-12.45c2.2-3.69,5.82-6.61,10.84-8.76,5.02-2.15,11.68-3.23,19.99-3.23h21.22v-1.23c0-5.64-1.69-10.02-5.07-13.15s-8.51-4.69-15.38-4.69c-4.61,0-9.15.72-13.61,2.15-4.46,1.44-8.23,3.44-11.3,6l-7.53-13.99c4.41-3.38,9.66-5.92,15.76-7.61,6.1-1.69,12.43-2.54,18.99-2.54,11.89,0,21.09,2.84,27.6,8.53s9.76,14.48,9.76,26.37h0ZM408.65,351.68h-19.83c-6.56,0-10.97,1.05-13.22,3.15-2.26,2.1-3.38,4.69-3.38,7.76,0,3.49,1.38,6.25,4.15,8.3s6.61,3.08,11.53,3.08,8.94-1.08,12.68-3.23c3.74-2.15,6.43-5.33,8.07-9.53v-9.53h0ZM470.76,316.81v-12.03h-18.29v82.1h19.22v-39.82c0-8.4,2.15-14.73,6.46-18.99,4.3-4.25,10.09-6.38,17.37-6.38.72,0,1.43.03,2.15.08s1.48.18,2.31.38v-18.3c-7.89,0-14.48,1.44-19.76,4.3-3.94,2.14-7.09,5.02-9.46,8.64v.02ZM525.95,268.19c-3.59,0-6.53,1.1-8.84,3.31s-3.46,4.95-3.46,8.23,1.15,5.9,3.46,8.15c2.31,2.26,5.25,3.38,8.84,3.38s6.66-1.15,8.92-3.46c2.25-2.31,3.38-5.15,3.38-8.53,0-3.18-1.15-5.82-3.46-7.92s-5.25-3.15-8.84-3.15h0ZM516.27,386.88h19.22v-82.1h-19.22v82.1ZM640.03,279.26h-91.32v16.91h35.67v90.71h19.99v-90.71h35.67v-16.91h0ZM716.59,323.85c3.59,6.36,5.38,13.84,5.38,22.45,0,.82-.03,1.74-.08,2.77s-.13,2-.23,2.92h-64.42c.53,2.84,1.5,5.45,2.92,7.84,2.25,3.79,5.43,6.71,9.53,8.76s8.81,3.07,14.14,3.07c4.61,0,8.76-.72,12.45-2.15s6.97-3.69,9.84-6.76l10.3,11.84c-3.69,4.3-8.33,7.61-13.91,9.92-5.59,2.31-11.97,3.46-19.14,3.46-9.12,0-17.09-1.82-23.91-5.46-6.82-3.64-12.09-8.63-15.83-14.99-3.74-6.35-5.61-13.58-5.61-21.68s1.82-15.45,5.46-21.75,8.66-11.25,15.07-14.84c6.4-3.59,13.71-5.38,21.91-5.38s15.12,1.74,21.37,5.23c6.25,3.49,11.17,8.41,14.76,14.76h0ZM703.79,339.22c-.37-3.1-1.27-5.92-2.72-8.46-2.05-3.59-4.84-6.4-8.38-8.46-3.54-2.05-7.61-3.07-12.22-3.07s-8.84,1.03-12.38,3.07c-3.54,2.05-6.3,4.9-8.3,8.53-1.37,2.49-2.26,5.29-2.69,8.38h46.69,0ZM822.52,304.78h-23.06l-39.82,36.82v-68.8h-19.22v114.08h19.22v-21.64l14.29-13.52,28.45,35.16h23.37l-37.49-47.7,34.26-34.4Z"/>
  <path class="st1" d="M491.57,215.15h-157.39c-2.91,0-5.27-2.36-5.27-5.27v-8.58c0-2.91,2.36-5.27,5.27-5.27h157.39c2.91,0,5.27,2.36,5.27,5.27v8.58c0,2.91-2.36,5.27-5.27,5.27ZM243.88,13.85V5.27c0-2.91-2.36-5.27-5.27-5.27h-13.03c-2.91,0-5.27,2.36-5.27,5.27v8.58c0,2.91,2.36,5.27,5.27,5.27h13.03c2.91,0,5.27-2.36,5.27-5.27ZM587.14,19.13h13.03c2.91,0,5.27-2.36,5.27-5.27V5.27c0-2.91-2.36-5.27-5.27-5.27h-13.03c-2.91,0-5.27,2.36-5.27,5.27v8.58c0,2.91,2.36,5.27,5.27,5.27h0ZM247.81,41.86v-8.58c0-2.91-2.36-5.27-5.27-5.27h-16.96c-2.91,0-5.27,2.36-5.27,5.27v8.58c0,2.91,2.36,5.27,5.27,5.27h16.96c2.91,0,5.27-2.36,5.27-5.27h0ZM583.21,47.13h16.96c2.91,0,5.27-2.36,5.27-5.27v-8.58c0-2.91-2.36-5.27-5.27-5.27h-16.96c-2.91,0-5.27,2.36-5.27,5.27v8.58c0,2.91,2.36,5.27,5.27,5.27ZM259.6,69.86v-8.58c0-2.91-2.36-5.27-5.27-5.27h-23.77c-2.91,0-5.27,2.36-5.27,5.27v8.58c0,2.91,2.36,5.27,5.27,5.27h23.77c2.91,0,5.27-2.36,5.27-5.27ZM313.84,69.86v-8.58c0-2.91-2.36-5.27-5.27-5.27h-6.35c-2.91,0-5.27,2.36-5.27,5.27v8.58c0,2.91,2.36,5.27,5.27,5.27h6.35c2.91,0,5.27-2.36,5.27-5.27ZM571.42,75.13h23.77c2.91,0,5.27-2.36,5.27-5.27v-8.58c0-2.91-2.36-5.27-5.27-5.27h-23.77c-2.91,0-5.27,2.36-5.27,5.27v8.58c0,2.91,2.36,5.27,5.27,5.27ZM517.19,75.13h6.35c2.91,0,5.27-2.36,5.27-5.27v-8.58c0-2.91-2.36-5.27-5.27-5.27h-6.35c-2.91,0-5.27,2.36-5.27,5.27v8.58c0,2.91,2.36,5.27,5.27,5.27ZM341.09,97.86v-8.58c0-2.91-2.36-5.27-5.27-5.27h-22.99c-2.91,0-5.27,2.36-5.27,5.27v8.58c0,2.91,2.36,5.27,5.27,5.27h22.99c2.91,0,5.27-2.36,5.27-5.27ZM273.75,97.86v-8.58c0-2.91-2.36-5.27-5.27-5.27h-29.15c-2.91,0-5.27,2.36-5.27,5.27v8.58c0,2.91,2.36,5.27,5.27,5.27h29.15c2.91,0,5.27-2.36,5.27-5.27ZM489.94,103.13h22.99c2.91,0,5.27-2.36,5.27-5.27v-8.58c0-2.91-2.36-5.27-5.27-5.27h-22.99c-2.91,0-5.27,2.36-5.27,5.27v8.58c0,2.91,2.36,5.27,5.27,5.27ZM557.27,103.13h29.15c2.91,0,5.27-2.36,5.27-5.27v-8.58c0-2.91-2.36-5.27-5.27-5.27h-29.15c-2.91,0-5.27,2.36-5.27,5.27v8.58c0,2.91,2.36,5.27,5.27,5.27ZM293.14,125.86v-8.58c0-2.91-2.36-5.27-5.27-5.27h-37.66c-2.91,0-5.27,2.36-5.27,5.27v8.58c0,2.91,2.36,5.27,5.27,5.27h37.66c2.91,0,5.27-2.36,5.27-5.27ZM387.99,125.86v-8.58c0-2.91-2.36-5.27-5.27-5.27h-50.89c-2.91,0-5.27,2.36-5.27,5.27v8.58c0,2.91,2.36,5.27,5.27,5.27h50.89c2.91,0,5.27-2.36,5.27-5.27h0ZM537.88,131.14h37.66c2.91,0,5.27-2.36,5.27-5.27v-8.58c0-2.91-2.36-5.27-5.27-5.27h-37.66c-2.91,0-5.27,2.36-5.27,5.27v8.58c0,2.91,2.36,5.27,5.27,5.27ZM443.04,131.14h50.89c2.91,0,5.27-2.36,5.27-5.27v-8.58c0-2.91-2.36-5.27-5.27-5.27h-50.89c-2.91,0-5.27,2.36-5.27,5.27v8.58c0,2.91,2.36,5.27,5.27,5.27h0ZM403.18,153.87v-8.58c0-2.91-2.36-5.27-5.27-5.27h-130.15c-2.91,0-5.27,2.36-5.27,5.27v8.58c0,2.91,2.36,5.27,5.27,5.27h130.15c2.91,0,5.27-2.36,5.27-5.27ZM427.84,159.14h130.15c2.91,0,5.27-2.36,5.27-5.27v-8.58c0-2.91-2.36-5.27-5.27-5.27h-130.15c-2.91,0-5.27,2.36-5.27,5.27v8.58c0,2.91,2.36,5.27,5.27,5.27ZM409.21,181.87v-8.58c0-2.91-2.36-5.27-5.27-5.27h-110.23c-2.91,0-5.27,2.36-5.27,5.27v8.58c0,2.91,2.36,5.27,5.27,5.27h110.23c2.91,0,5.27-2.36,5.27-5.27ZM421.82,187.14h110.23c2.91,0,5.27-2.36,5.27-5.27v-8.58c0-2.91-2.36-5.27-5.27-5.27h-110.23c-2.91,0-5.27,2.36-5.27,5.27v8.58c0,2.91,2.36,5.27,5.27,5.27h0Z"/>
</svg>