<?xml version="1.0" encoding="utf-8"?>
<!-- Generator: Adobe Illustrator 24.0.2, SVG Export Plug-In . SVG Version: 6.00 Build 0)  -->
<svg version="1.1" id="Layer_1" xmlns="http://www.w3.org/2000/svg" xmlns:xlink="http://www.w3.org/1999/xlink" x="0px" y="0px"
	 viewBox="0 0 303.11 303.11" style="enable-background:new 0 0 303.11 303.11;" xml:space="preserve">
<style type="text/css">
	.st0{fill:#E5EBF8;}
	.st1{opacity:0.8;}
	.st2{fill:#00D4D9;}
	.st3{fill:url(#SVGID_1_);}
	.st4{fill:url(#SVGID_2_);}
	.st5{fill:#FFFFFF;}
	.st6{fill:none;stroke:#000000;stroke-miterlimit:10;}
</style>
<path class="st0" d="M261.24,187.88h-20.81c-10.36-19.81-27.13-35.73-47.61-45c7.79,12.07,14.02,27.46,18.01,45h-19.01
	c-7.51-31.74-22.52-53.5-39.82-53.83c-0.14,0-0.29,0-0.43,0c-0.14,0-0.29,0-0.43,0c-17.34,0.33-32.31,22.09-39.86,53.83H92.28
	c3.99-17.53,10.22-32.93,18.01-45c-20.43,9.27-37.25,25.18-47.61,45H41.87c18.2-42.67,60.49-72.65,109.76-72.65
	S243.19,145.21,261.24,187.88z"/>
</svg>
