<?xml version="1.0" encoding="utf-8"?>
<!-- Generator: Adobe Illustrator 26.3.1, SVG Export Plug-In . SVG Version: 6.00 Build 0)  -->
<svg version="1.1" id="Layer_1" xmlns="http://www.w3.org/2000/svg" xmlns:xlink="http://www.w3.org/1999/xlink" x="0px" y="0px"
	 viewBox="0 0 907.1 527.1" style="enable-background:new 0 0 907.1 527.1;" xml:space="preserve">
<style type="text/css">
	.st0{opacity:0.5;}
	.st1{fill:#FFFFFF;}
	.st2{fill:none;stroke:#3F4F51;stroke-miterlimit:10;}
	.st3{fill:none;stroke:#3F4F51;stroke-miterlimit:10;stroke-dasharray:6.4504,6.4504;}
	.st4{fill:none;stroke:#3F4F51;stroke-miterlimit:10;stroke-dasharray:6.0189,6.0189;}
	.st5{fill:none;stroke:#3F4F51;stroke-miterlimit:10;stroke-dasharray:6.0155,6.0155;}
	.st6{fill:none;stroke:#3F4F51;stroke-miterlimit:10;stroke-dasharray:5.8452,5.8452;}
	.st7{fill:none;stroke:#3F4F51;stroke-miterlimit:10;stroke-dasharray:6.0557,6.0557;}
	.st8{fill:none;stroke:#3F4F51;stroke-miterlimit:10;stroke-dasharray:6.0494,6.0494;}
	.st9{fill:#5D7375;}
	.st10{fill:none;stroke:#95E5BE;stroke-miterlimit:10;}
	.st11{fill:#95E5BE;}
	.st12{fill:#46BDC5;}
	.st13{fill:#3C3B5A;}
	.st14{fill:#C4C4C4;}
	.st15{fill:none;stroke:#C4C4C4;stroke-miterlimit:10;}
	.st16{fill:none;stroke:#17192E;stroke-miterlimit:10;}
	.st17{fill:#17192E;}
	.st18{fill:none;stroke:#C4C4C4;stroke-miterlimit:10;stroke-dasharray:6;}
</style>
<g>
	<path class="st14" d="M746,256.8h-43.8c-21.8-41.7-57.1-75.2-100.2-94.7c16.4,25.4,29.5,57.8,37.9,94.7h-40
		c-15.8-66.8-47.4-112.6-83.8-113.3c-0.3,0-0.6,0-0.9,0c-0.3,0-0.6,0-0.9,0c-36.5,0.7-68,46.5-83.9,113.3h-40
		c8.4-36.9,21.5-69.3,37.9-94.7c-43,19.5-78.4,53-100.2,94.7h-43.8c38-89.9,127-152.9,230.7-152.9C619,103.8,708,166.9,746,256.8z"
		/>
	<g>
		<path class="st14" d="M0,301.7h48.8c11.7,0,22,2.2,30.9,6.7c9,4.5,15.9,10.7,20.9,18.8c5,8.1,7.4,17.5,7.4,28.3
			c0,10.7-2.5,20.2-7.4,28.3c-5,8.1-11.9,14.4-20.9,18.8c-9,4.5-19.3,6.7-30.9,6.7H0V301.7z M47.6,388.8c10.7,0,19.3-3,25.7-9
			c6.4-6,9.6-14.1,9.6-24.3c0-10.2-3.2-18.3-9.6-24.3c-6.4-6-15-9-25.7-9H24.9v66.6H47.6z"/>
		<path class="st14" d="M164.1,403.8c-9-4.8-16-11.4-21-19.9c-5.1-8.4-7.6-17.9-7.6-28.5c0-10.5,2.5-20,7.6-28.5
			c5.1-8.4,12.1-15.1,21-19.9c9-4.8,19-7.2,30.2-7.2c11.2,0,21.2,2.4,30.1,7.2c8.9,4.8,15.9,11.4,21,19.9c5.1,8.4,7.7,17.9,7.7,28.5
			c0,10.5-2.6,20-7.7,28.5c-5.1,8.4-12.1,15.1-21,19.9c-8.9,4.8-18.9,7.2-30.1,7.2C183.1,411,173,408.6,164.1,403.8z M211.4,385.5
			c5.1-2.9,9.1-7,12.1-12.2c2.9-5.2,4.4-11.2,4.4-17.8c0-6.7-1.5-12.6-4.4-17.8c-2.9-5.2-6.9-9.3-12.1-12.2
			c-5.1-2.9-10.9-4.4-17.2-4.4c-6.3,0-12.1,1.5-17.2,4.4c-5.1,2.9-9.1,7-12.1,12.2c-2.9,5.2-4.4,11.2-4.4,17.8
			c0,6.7,1.5,12.6,4.4,17.8c2.9,5.2,6.9,9.3,12.1,12.2c5.1,2.9,10.8,4.4,17.2,4.4C200.6,389.8,206.3,388.4,211.4,385.5z"/>
		<path class="st14" d="M385,409.2l-0.2-64.5l-31.6,53.1H342l-31.5-51.7v63.1h-23.3V301.7h20.6l40.2,66.8l39.6-66.8H408l0.3,107.5
			H385z"/>
		<polygon class="st14" points="507.5,301.7 482.9,301.7 435,409.2 460.5,409.2 495.1,326.1 529.5,409.2 555.6,409.2 		"/>
		<path class="st14" d="M582.1,301.7H607v107.5h-24.9V301.7z"/>
		<path class="st14" d="M746.4,301.7v107.5H726l-53.6-65.3v65.3h-24.6V301.7h20.6l53.4,65.3v-65.3H746.4z"/>
	</g>
	<g>
		<path class="st14" d="M294,460.2v28.7h37.7v6.7H294v30.9h-7.7v-72.9h50v6.7H294z"/>
		<path class="st14" d="M374,522.3c-5.9-3.2-10.5-7.7-13.8-13.3c-3.3-5.6-4.9-11.9-4.9-19c0-7,1.6-13.3,4.9-19
			c3.3-5.6,7.9-10.1,13.8-13.3c5.9-3.2,12.4-4.8,19.6-4.8c7.2,0,13.7,1.6,19.5,4.8c5.8,3.2,10.4,7.6,13.7,13.3c3.3,5.7,5,12,5,19
			c0,7-1.7,13.4-5,19c-3.3,5.7-7.9,10.1-13.7,13.3c-5.8,3.2-12.3,4.8-19.5,4.8C386.4,527.1,379.9,525.5,374,522.3z M409.3,516.3
			c4.7-2.6,8.3-6.2,10.9-10.8c2.6-4.6,4-9.8,4-15.5c0-5.7-1.3-10.9-4-15.5c-2.6-4.6-6.3-8.2-10.9-10.8c-4.7-2.6-9.9-3.9-15.6-3.9
			c-5.8,0-11,1.3-15.7,3.9c-4.7,2.6-8.4,6.2-11,10.8c-2.7,4.6-4,9.8-4,15.5c0,5.7,1.3,10.9,4,15.5c2.7,4.6,6.4,8.2,11,10.8
			c4.7,2.6,9.9,3.9,15.7,3.9C399.4,520.2,404.6,518.9,409.3,516.3z"/>
		<path class="st14" d="M509.4,526.5l-16.7-23.4c-1.9,0.2-3.8,0.3-5.8,0.3h-19.6v23.1h-7.7v-72.9h27.3c9.3,0,16.6,2.2,21.9,6.7
			c5.3,4.4,7.9,10.6,7.9,18.3c0,5.7-1.4,10.5-4.3,14.4c-2.9,3.9-7,6.8-12.3,8.5l17.8,25H509.4z M503.2,492c3.8-3.2,5.7-7.7,5.7-13.4
			c0-5.9-1.9-10.4-5.7-13.6c-3.8-3.2-9.3-4.7-16.6-4.7h-19.4v36.6h19.4C493.9,496.8,499.4,495.2,503.2,492z"/>
		<path class="st14" d="M596.9,519.8v6.7h-51.6v-72.9h50v6.7H553v25.9h37.7v6.6H553v27.1H596.9z"/>
		<path class="st14" d="M630,524.5c-5-1.7-8.8-4-11.5-6.9l3-5.9c2.6,2.6,6.1,4.8,10.5,6.4c4.4,1.6,8.9,2.4,13.5,2.4
			c6.5,0,11.4-1.2,14.7-3.6c3.3-2.4,4.9-5.5,4.9-9.3c0-2.9-0.9-5.2-2.7-7c-1.8-1.7-3.9-3.1-6.5-4c-2.6-0.9-6.1-2-10.7-3.1
			c-5.5-1.4-9.9-2.7-13.1-4c-3.3-1.3-6.1-3.2-8.4-5.9c-2.3-2.6-3.5-6.2-3.5-10.7c0-3.7,1-7,2.9-10.1c1.9-3,4.9-5.4,9-7.2
			c4-1.8,9-2.7,15-2.7c4.2,0,8.2,0.6,12.2,1.7c4,1.1,7.4,2.7,10.4,4.7l-2.6,6.1c-3.1-2-6.3-3.5-9.8-4.5c-3.5-1-6.9-1.5-10.2-1.5
			c-6.4,0-11.2,1.2-14.4,3.7c-3.2,2.5-4.8,5.6-4.8,9.5c0,2.9,0.9,5.3,2.7,7c1.8,1.8,4,3.1,6.7,4.1c2.7,0.9,6.3,2,10.8,3.1
			c5.3,1.3,9.7,2.6,13,3.9c3.3,1.3,6.1,3.2,8.4,5.8c2.3,2.6,3.4,6.1,3.4,10.6c0,3.7-1,7-3,10.1c-2,3-5,5.4-9.1,7.2
			c-4.1,1.8-9.1,2.7-15.1,2.7C640.1,527.1,635,526.3,630,524.5z"/>
		<path class="st14" d="M713.1,460.2h-25.6v-6.7h59v6.7h-25.6v66.3h-7.7V460.2z"/>
	</g>
	<line class="st15" x1="702.3" y1="256.8" x2="702.3" y2="42.4"/>
	<line class="st15" x1="746" y1="256.8" x2="746" y2="42.4"/>
	<line class="st15" x1="746" y1="256.8" x2="870.7" y2="256.8"/>
	<line class="st15" x1="746.4" y1="301.7" x2="870.7" y2="301.7"/>
	<line class="st15" x1="746" y1="409.2" x2="870.7" y2="409.2"/>
	<line class="st15" x1="746.4" y1="454.1" x2="870.7" y2="454.1"/>
	<g>
		<g>
			<line class="st16" x1="705.8" y1="29.8" x2="742.4" y2="29.8"/>
			<g>
				<polygon class="st17" points="706.6,32.3 702.3,29.8 706.6,27.3 				"/>
			</g>
			<g>
				<polygon class="st17" points="741.7,32.3 746,29.8 741.7,27.3 				"/>
			</g>
		</g>
	</g>
	<g>
		<g>
			<line class="st16" x1="880.8" y1="298.1" x2="880.8" y2="260.3"/>
			<g>
				<polygon class="st17" points="883.2,297.4 880.8,301.7 878.3,297.4 				"/>
			</g>
			<g>
				<polygon class="st17" points="883.2,261.1 880.8,256.8 878.3,261.1 				"/>
			</g>
		</g>
	</g>
	<g>
		<g>
			<line class="st16" x1="880.8" y1="450.5" x2="880.8" y2="412.8"/>
			<g>
				<polygon class="st17" points="883.2,449.8 880.8,454.1 878.3,449.8 				"/>
			</g>
			<g>
				<polygon class="st17" points="883.2,413.5 880.8,409.2 878.3,413.5 				"/>
			</g>
		</g>
	</g>
	<g>
		<g>
			<path d="M904.5,288.1l-5.7-7.7l-5.6,7.7h-2.1l6.7-9l-6.2-8.5h2.1l5.3,7.1l5.2-7.1h2l-6.2,8.5l6.7,9H904.5z"/>
		</g>
	</g>
	<g>
		<path d="M729.8,21.2l-5.7-7.7l-5.6,7.7h-2.1l6.7-9l-6.2-8.5h2.1l5.3,7.2l5.2-7.2h2l-6.2,8.5l6.7,9H729.8z"/>
	</g>
	<g>
		<g>
			<path d="M904.5,441.2l-5.7-7.7l-5.6,7.7h-2.1l6.7-9l-6.2-8.5h2.1l5.3,7.2l5.2-7.2h2l-6.2,8.5l6.7,9H904.5z"/>
		</g>
	</g>
	<g>
		<polygon class="st15" points="723.5,42.9 702.3,64.1 702.3,68.1 727.5,42.9 		"/>
		<polygon class="st15" points="731.4,42.9 702.3,72.1 702.3,76.1 735.4,42.9 		"/>
		<polygon class="st15" points="727.5,42.9 702.3,68.1 702.3,72.1 731.4,42.9 		"/>
		<polygon class="st15" points="739.4,42.9 702.3,80.1 702.3,84.1 743.4,42.9 		"/>
		<polygon class="st15" points="735.4,42.9 702.3,76.1 702.3,80.1 739.4,42.9 		"/>
		<polygon class="st15" points="715.5,42.9 702.3,56.2 702.3,60.2 719.5,42.9 		"/>
		<polygon class="st15" points="702.3,42.9 702.3,44.4 703.7,42.9 		"/>
		<polygon class="st15" points="707.5,42.9 702.3,48.2 702.3,52.2 711.5,42.9 		"/>
		<polygon class="st15" points="719.5,42.9 702.3,60.2 702.3,64.1 723.5,42.9 		"/>
		<polygon class="st15" points="746,42.9 743.4,42.9 702.3,84.1 702.3,86.7 703.6,86.7 746,44.3 		"/>
		<polygon class="st15" points="711.5,42.9 702.3,52.2 702.3,56.2 715.5,42.9 		"/>
		<polygon class="st15" points="703.7,42.9 702.3,44.4 702.3,48.2 707.5,42.9 		"/>
		<polygon class="st15" points="746,72.2 731.6,86.7 735.6,86.7 746,76.2 		"/>
		<polygon class="st15" points="746,68.3 727.6,86.7 731.6,86.7 746,72.2 		"/>
		<polygon class="st15" points="746,76.2 735.6,86.7 739.5,86.7 746,80.2 		"/>
		<polygon class="st15" points="746,44.3 703.6,86.7 707.6,86.7 746,48.3 		"/>
		<polygon class="st15" points="746,86.7 746,84.2 743.5,86.7 		"/>
		<polygon class="st15" points="746,84.2 746,80.2 739.5,86.7 743.5,86.7 		"/>
		<polygon class="st15" points="746,48.3 707.6,86.7 711.6,86.7 746,52.3 		"/>
		<polygon class="st15" points="746,52.3 711.6,86.7 715.6,86.7 746,56.3 		"/>
		<polygon class="st15" points="746,56.3 715.6,86.7 719.6,86.7 746,60.3 		"/>
		<polygon class="st15" points="746,60.3 719.6,86.7 723.6,86.7 746,64.3 		"/>
		<polygon class="st15" points="746,64.3 723.6,86.7 727.6,86.7 746,68.3 		"/>
	</g>
	<g>
		<polygon class="st15" points="847,256.8 825.2,278.5 825.2,282.6 851.1,256.8 		"/>
		<polygon class="st15" points="855.2,256.8 825.2,286.7 825.2,290.8 859.3,256.8 		"/>
		<polygon class="st15" points="851.1,256.8 825.2,282.6 825.2,286.7 855.2,256.8 		"/>
		<polygon class="st15" points="863.4,256.8 825.2,294.9 825.2,299 867.5,256.8 		"/>
		<polygon class="st15" points="859.3,256.8 825.2,290.8 825.2,294.9 863.4,256.8 		"/>
		<polygon class="st15" points="838.8,256.8 825.2,270.3 825.2,274.4 842.9,256.8 		"/>
		<polygon class="st15" points="825.2,256.8 825.2,258.2 826.7,256.8 		"/>
		<polygon class="st15" points="830.6,256.8 825.2,262.1 825.2,266.2 834.7,256.8 		"/>
		<polygon class="st15" points="842.9,256.8 825.2,274.4 825.2,278.5 847,256.8 		"/>
		<polygon class="st15" points="870.2,256.8 867.5,256.8 825.2,299 825.2,301.7 826.7,301.7 870.2,258.2 		"/>
		<polygon class="st15" points="834.7,256.8 825.2,266.2 825.2,270.3 838.8,256.8 		"/>
		<polygon class="st15" points="826.7,256.8 825.2,258.2 825.2,262.1 830.6,256.8 		"/>
		<polygon class="st15" points="870.2,286.9 855.4,301.7 859.4,301.7 870.2,291 		"/>
		<polygon class="st15" points="870.2,282.8 851.3,301.7 855.4,301.7 870.2,286.9 		"/>
		<polygon class="st15" points="870.2,291 859.4,301.7 863.5,301.7 870.2,295.1 		"/>
		<polygon class="st15" points="870.2,258.2 826.7,301.7 830.8,301.7 870.2,262.3 		"/>
		<polygon class="st15" points="870.2,301.7 870.2,299.1 867.6,301.7 		"/>
		<polygon class="st15" points="870.2,299.1 870.2,295.1 863.5,301.7 867.6,301.7 		"/>
		<polygon class="st15" points="870.2,262.3 830.8,301.7 834.9,301.7 870.2,266.4 		"/>
		<polygon class="st15" points="870.2,266.4 834.9,301.7 839,301.7 870.2,270.5 		"/>
		<polygon class="st15" points="870.2,270.5 839,301.7 843.1,301.7 870.2,274.6 		"/>
		<polygon class="st15" points="870.2,274.6 843.1,301.7 847.2,301.7 870.2,278.7 		"/>
		<polygon class="st15" points="870.2,278.7 847.2,301.7 851.3,301.7 870.2,282.8 		"/>
	</g>
	<g>
		<polygon class="st15" points="847,409.2 825.2,431 825.2,435.1 851.1,409.2 		"/>
		<polygon class="st15" points="855.2,409.2 825.2,439.2 825.2,443.2 859.3,409.2 		"/>
		<polygon class="st15" points="851.1,409.2 825.2,435.1 825.2,439.2 855.2,409.2 		"/>
		<polygon class="st15" points="863.4,409.2 825.2,447.3 825.2,451.4 867.5,409.2 		"/>
		<polygon class="st15" points="859.3,409.2 825.2,443.2 825.2,447.3 863.4,409.2 		"/>
		<polygon class="st15" points="838.8,409.2 825.2,422.8 825.2,426.9 842.9,409.2 		"/>
		<polygon class="st15" points="825.2,409.2 825.2,410.7 826.7,409.2 		"/>
		<polygon class="st15" points="830.6,409.2 825.2,414.6 825.2,418.7 834.7,409.2 		"/>
		<polygon class="st15" points="842.9,409.2 825.2,426.9 825.2,431 847,409.2 		"/>
		<polygon class="st15" points="870.2,409.2 867.5,409.2 825.2,451.4 825.2,454.1 826.7,454.1 870.2,410.6 		"/>
		<polygon class="st15" points="834.7,409.2 825.2,418.7 825.2,422.8 838.8,409.2 		"/>
		<polygon class="st15" points="826.7,409.2 825.2,410.7 825.2,414.6 830.6,409.2 		"/>
		<polygon class="st15" points="870.2,439.3 855.4,454.1 859.4,454.1 870.2,443.4 		"/>
		<polygon class="st15" points="870.2,435.2 851.3,454.1 855.4,454.1 870.2,439.3 		"/>
		<polygon class="st15" points="870.2,443.4 859.4,454.1 863.5,454.1 870.2,447.5 		"/>
		<polygon class="st15" points="870.2,410.6 826.7,454.1 830.8,454.1 870.2,414.7 		"/>
		<polygon class="st15" points="870.2,454.1 870.2,451.6 867.6,454.1 		"/>
		<polygon class="st15" points="870.2,451.6 870.2,447.5 863.5,454.1 867.6,454.1 		"/>
		<polygon class="st15" points="870.2,414.7 830.8,454.1 834.9,454.1 870.2,418.8 		"/>
		<polygon class="st15" points="870.2,418.8 834.9,454.1 839,454.1 870.2,422.9 		"/>
		<polygon class="st15" points="870.2,422.9 839,454.1 843.1,454.1 870.2,427 		"/>
		<polygon class="st15" points="870.2,427 843.1,454.1 847.2,454.1 870.2,431.1 		"/>
		<polygon class="st15" points="870.2,431.1 847.2,454.1 851.3,454.1 870.2,435.2 		"/>
	</g>
	<line class="st18" x1="0" y1="86.7" x2="870.7" y2="86.7"/>
	<line class="st18" x1="825.2" y1="526.5" x2="825.2" y2="42.4"/>
</g>
</svg>
