<?xml version="1.0" encoding="utf-8"?>
<!-- Generator: Adobe Illustrator 24.0.2, SVG Export Plug-In . SVG Version: 6.00 Build 0)  -->
<svg version="1.1" id="Layer_1" xmlns="http://www.w3.org/2000/svg" xmlns:xlink="http://www.w3.org/1999/xlink" x="0px" y="0px"
	 viewBox="0 0 801.78 208.16" style="enable-background:new 0 0 801.78 208.16;" xml:space="preserve">
<g>
	<path d="M216.04,102.09c0,58.58-47.49,106.07-106.07,106.07H73.25v-69.34h36.72c20.28,0,36.72-16.44,36.72-36.73
		c0-20.28-16.44-36.72-36.72-36.72H73.45L138.82,0C183.38,12.57,216.04,53.52,216.04,102.09z M0,138.82h73.25V65.58L0,138.82z"/>
	<g>
		<path d="M264.74,76.15c8.91,0,16.35,3.13,22.33,9.38c5.97,6.25,8.96,13.96,8.96,23.12c0,9.16-2.99,16.87-8.96,23.12
			c-5.97,6.25-13.41,9.38-22.33,9.38h-25.81V76.15H264.74z M264.74,128.88c5.63,0,10.21-1.87,13.74-5.62
			c3.53-3.74,5.29-8.62,5.29-14.62c0-6-1.76-10.88-5.29-14.62c-3.53-3.74-8.11-5.62-13.74-5.62h-13v40.48H264.74z"/>
		<path d="M344.11,135.33c-4.77,4.73-10.58,7.1-17.45,7.1c-6.87,0-12.67-2.37-17.41-7.1c-4.73-4.73-7.1-10.54-7.1-17.41
			s2.37-12.67,7.1-17.41c4.73-4.73,10.54-7.1,17.41-7.1c6.87,0,12.69,2.37,17.45,7.1c4.77,4.73,7.15,10.54,7.15,17.41
			S348.88,130.6,344.11,135.33z M317.7,127.12c2.38,2.41,5.37,3.62,8.96,3.62c3.59,0,6.59-1.21,9-3.62
			c2.41-2.41,3.62-5.48,3.62-9.19c0-3.71-1.21-6.78-3.62-9.19c-2.41-2.41-5.42-3.62-9-3.62c-3.59,0-6.58,1.21-8.96,3.62
			c-2.38,2.41-3.57,5.48-3.57,9.19C314.13,121.64,315.32,124.7,317.7,127.12z"/>
		<path d="M411.04,93.42c5.32,0,9.58,1.73,12.77,5.2c3.19,3.47,4.78,8.11,4.78,13.93v28.59h-11.98v-27.76c0-2.78-0.68-4.95-2.04-6.5
			c-1.36-1.55-3.28-2.32-5.76-2.32c-2.72,0-4.84,0.9-6.36,2.69c-1.52,1.8-2.27,4.4-2.27,7.8v26.09h-11.98v-27.76
			c0-2.78-0.68-4.95-2.04-6.5c-1.36-1.55-3.28-2.32-5.76-2.32c-2.66,0-4.78,0.9-6.36,2.69c-1.58,1.8-2.37,4.4-2.37,7.8v26.09h-11.98
			V94.72h11.98v4.92c2.78-4.15,7.09-6.22,12.9-6.22c5.69,0,9.9,2.23,12.63,6.68C400.31,95.65,404.92,93.42,411.04,93.42z"/>
		<path d="M474.08,94.72h11.98v46.42h-11.98v-5.48c-3.59,4.52-8.63,6.78-15.13,6.78c-6.19,0-11.5-2.37-15.92-7.1
			c-4.43-4.73-6.64-10.54-6.64-17.41s2.21-12.67,6.64-17.41c4.42-4.73,9.73-7.1,15.92-7.1c6.5,0,11.54,2.26,15.13,6.78V94.72z
			 M451.98,127.35c2.41,2.45,5.48,3.67,9.19,3.67c3.71,0,6.79-1.22,9.24-3.67c2.44-2.44,3.67-5.58,3.67-9.42
			c0-3.84-1.22-6.98-3.67-9.42c-2.45-2.44-5.52-3.67-9.24-3.67c-3.71,0-6.78,1.22-9.19,3.67c-2.41,2.45-3.62,5.59-3.62,9.42
			C448.36,121.77,449.57,124.91,451.98,127.35z"/>
		<path d="M502.86,89.15c-1.98,0-3.7-0.73-5.15-2.18c-1.45-1.45-2.18-3.17-2.18-5.15c0-1.98,0.73-3.71,2.18-5.2
			c1.45-1.49,3.17-2.23,5.15-2.23c2.04,0,3.79,0.74,5.24,2.23c1.45,1.49,2.18,3.22,2.18,5.2c0,1.98-0.73,3.7-2.18,5.15
			C506.65,88.42,504.9,89.15,502.86,89.15z M496.91,141.14V94.72h11.98v46.42H496.91z"/>
		<path d="M545.65,93.42c5.07,0,9.27,1.7,12.58,5.11c3.31,3.4,4.97,8.11,4.97,14.11v28.5h-11.98v-27.01c0-3.09-0.84-5.46-2.51-7.1
			c-1.67-1.64-3.9-2.46-6.68-2.46c-3.1,0-5.57,0.96-7.43,2.88c-1.86,1.92-2.78,4.8-2.78,8.63v25.06h-11.98V94.72h11.98v5.2
			C534.73,95.59,539.34,93.42,545.65,93.42z"/>
		<path d="M596.99,79.59c-9.22-0.74-13.83,3.47-13.83,12.63v2.51h13.83v4.55h-13.83v41.87h-4.73V99.27h-7.98v-4.55h7.98v-2.51
			c0-5.82,1.59-10.23,4.78-13.23c3.19-3,7.78-4.28,13.79-3.85V79.59z"/>
		<path d="M622.33,142.16c-6.81,0-12.58-2.34-17.31-7.01c-4.73-4.67-7.1-10.41-7.1-17.22c0-6.81,2.37-12.55,7.1-17.22
			c4.73-4.67,10.51-7.01,17.31-7.01c6.74,0,12.49,2.34,17.22,7.01c4.73,4.67,7.1,10.41,7.1,17.22c0,6.81-2.37,12.55-7.1,17.22
			C634.82,139.82,629.08,142.16,622.33,142.16z M608.36,131.95c3.81,3.84,8.46,5.76,13.97,5.76c5.51,0,10.15-1.92,13.93-5.76
			c3.77-3.84,5.66-8.51,5.66-14.02c0-5.51-1.89-10.18-5.66-14.02c-3.78-3.84-8.42-5.76-13.93-5.76c-5.51,0-10.17,1.92-13.97,5.76
			c-3.81,3.84-5.71,8.51-5.71,14.02C602.65,123.44,604.55,128.11,608.36,131.95z"/>
		<path d="M662.43,103.82c2.78-6.5,7.95-9.75,15.5-9.75v4.46c-4.4,0-8.08,1.41-11.05,4.22c-2.97,2.82-4.46,7.01-4.46,12.58v25.81
			h-4.64V94.72h4.64V103.82z"/>
		<path d="M705.42,93.7c6.81,0,12.33,2.41,16.57,7.24c4.24,4.83,6.36,10.55,6.36,17.17c0,0.25-0.02,0.62-0.05,1.11
			c-0.03,0.5-0.05,0.87-0.05,1.11H686.2c0.56,5.2,2.65,9.39,6.27,12.58c3.62,3.19,8.09,4.78,13.41,4.78c3.71,0,6.96-0.77,9.75-2.32
			c2.78-1.55,4.89-3.59,6.31-6.13l4.08,2.41c-1.92,3.22-4.64,5.77-8.17,7.66s-7.55,2.83-12.07,2.83c-7.12,0-12.97-2.27-17.55-6.82
			c-4.58-4.55-6.87-10.35-6.87-17.41c0-6.93,2.24-12.7,6.73-17.31C692.59,96,698.36,93.7,705.42,93.7z M705.42,98.15
			c-5.26,0-9.66,1.64-13.18,4.92c-3.53,3.28-5.54,7.52-6.03,12.72h37.32c-0.5-5.51-2.46-9.82-5.89-12.95
			C714.19,99.72,710.12,98.15,705.42,98.15z"/>
		<path d="M740.51,106.73c0,2.25,0.97,4.02,2.91,5.3c1.94,1.28,4.29,2.28,7.04,3c2.75,0.73,5.52,1.45,8.31,2.19
			c2.78,0.73,5.13,2.07,7.02,4c1.9,1.94,2.85,4.52,2.85,7.75c0,3.84-1.53,6.99-4.6,9.47c-3.06,2.48-7.07,3.71-12.02,3.71
			c-4.46,0-8.22-0.94-11.28-2.83c-3.06-1.89-5.18-4.38-6.36-7.47l3.99-2.32c0.87,2.54,2.49,4.53,4.87,5.99
			c2.38,1.46,5.31,2.18,8.77,2.18c3.47,0,6.33-0.76,8.59-2.27c2.26-1.51,3.39-3.66,3.39-6.45c0-2.29-0.96-4.11-2.88-5.47
			c-1.92-1.36-4.26-2.4-7.01-3.13c-2.75-0.72-5.52-1.45-8.31-2.19c-2.79-0.73-5.14-2.03-7.05-3.88c-1.92-1.86-2.88-4.33-2.88-7.43
			c0-3.71,1.47-6.84,4.41-9.38c2.94-2.54,6.73-3.81,11.37-3.81c3.71,0,6.95,0.84,9.7,2.51c2.75,1.67,4.78,3.93,6.08,6.78l-3.9,2.23
			c-0.93-2.29-2.48-4.04-4.64-5.25c-2.17-1.21-4.58-1.81-7.24-1.81c-3.16,0-5.8,0.78-7.94,2.33
			C741.58,102.03,740.51,104.12,740.51,106.73z"/>
		<path d="M801.78,99.27h-13.83v30.17c0,2.66,0.49,4.58,1.49,5.76c0.99,1.18,2.51,1.84,4.55,2c2.04,0.16,4.64,0.08,7.8-0.23v4.18
			c-6.25,0.93-10.91,0.49-13.97-1.3c-3.06-1.79-4.6-5.26-4.6-10.4V99.27H773v-4.55h10.21v-11.6l4.73-1.39v13h13.83V99.27z"/>
	</g>
</g>
</svg>
