<?xml version="1.0" encoding="utf-8"?>
<!-- Generator: Adobe Illustrator 26.3.1, SVG Export Plug-In . SVG Version: 6.00 Build 0)  -->
<svg version="1.1" id="Layer_1" xmlns="http://www.w3.org/2000/svg" xmlns:xlink="http://www.w3.org/1999/xlink" x="0px" y="0px"
	 viewBox="0 0 734 775.8" style="enable-background:new 0 0 734 775.8;" xml:space="preserve">
<style type="text/css">
	.st0{opacity:0.5;}
	.st1{fill:#FFFFFF;}
	.st2{fill:none;stroke:#3F4F51;stroke-miterlimit:10;}
	.st3{fill:none;stroke:#3F4F51;stroke-miterlimit:10;stroke-dasharray:6.4504,6.4504;}
	.st4{fill:none;stroke:#3F4F51;stroke-miterlimit:10;stroke-dasharray:6.0189,6.0189;}
	.st5{fill:none;stroke:#3F4F51;stroke-miterlimit:10;stroke-dasharray:6.0155,6.0155;}
	.st6{fill:none;stroke:#3F4F51;stroke-miterlimit:10;stroke-dasharray:5.8452,5.8452;}
	.st7{fill:none;stroke:#3F4F51;stroke-miterlimit:10;stroke-dasharray:6.0557,6.0557;}
	.st8{fill:none;stroke:#3F4F51;stroke-miterlimit:10;stroke-dasharray:6.0494,6.0494;}
	.st9{fill:#5D7375;}
	.st10{fill:none;stroke:#95E5BE;stroke-miterlimit:10;}
	.st11{fill:#95E5BE;}
	.st12{fill:#46BDC5;}
	.st13{fill:#3C3B5A;}
	.st14{fill:#C4C4C4;}
	.st15{fill:none;stroke:#C4C4C4;stroke-miterlimit:10;}
	.st16{fill:none;stroke:#17192E;stroke-miterlimit:10;}
	.st17{fill:#17192E;}
	.st18{fill:none;stroke:#C4C4C4;stroke-miterlimit:10;stroke-dasharray:6;}
</style>
<g>
	<g>
		<g>
			<path class="st2" d="M92,228c0.5-0.9,0.9-1.8,1.4-2.7h-3"/>
			<line class="st3" x1="83.9" y1="225.3" x2="35.5" y2="225.3"/>
			<path class="st2" d="M32.3,225.3h-3c-0.4,0.9-0.8,1.8-1.2,2.8"/>
			<path class="st4" d="M25.9,233.6C9.5,275.2,0.5,320.6,0.5,368c0,200.4,160.8,363.2,360.5,366.4"/>
			<path class="st2" d="M364,734.5c1,0,2,0,3,0C366,734.5,365,734.5,364,734.5"/>
			<path class="st5" d="M358,734.1c-44.8-3.7-85.8-35-118-84.9C132.9,600.8,58.4,493.1,58.4,368c0-49.3,11.6-96,32.2-137.3"/>
		</g>
	</g>
	<g>
		<g>
			<path class="st2" d="M643.6,225.3h-3c0.5,0.9,0.9,1.8,1.4,2.7"/>
			<path class="st5" d="M644.7,233.3c19.8,40.7,30.9,86.4,30.9,134.6c0,125.1-74.5,232.8-181.5,281.3c-33,51-75,82.5-121,85.1"/>
			<path class="st2" d="M370,734.4c-1,0-2,0-3,0C368,734.5,369,734.5,370,734.4"/>
			<path class="st4" d="M376,734.4c198.2-4.8,357.5-167,357.5-366.4c0-48.5-9.4-94.8-26.5-137.1"/>
			<path class="st2" d="M705.8,228.1c-0.4-0.9-0.8-1.8-1.2-2.8h-3"/>
			<line class="st3" x1="695.2" y1="225.3" x2="646.8" y2="225.3"/>
		</g>
	</g>
	<g>
		<g>
			<path class="st2" d="M550.2,228.2c-0.2-1-0.4-2-0.7-2.9h-3"/>
			<line class="st6" x1="540.7" y1="225.3" x2="496.9" y2="225.3"/>
			<path class="st2" d="M494,225.3h-3c0.2,1,0.5,1.9,0.7,2.9"/>
			<path class="st7" d="M493,234.1c8.8,40.5,13.8,85.9,13.8,133.9c0,166-59.4,301.3-133.8,308.3"/>
			<path class="st2" d="M370,676.5c-1,0-2,0.1-3,0.1C368,676.5,369,676.5,370,676.5"/>
			<path class="st8" d="M376,676.4c42-1.2,81.8-10.8,118-27.2C537.5,582,565.2,481,565.2,368c0-48.4-5.1-94.5-14.3-136.8"/>
		</g>
	</g>
	<g>
		<g>
			<path class="st2" d="M242.3,228.2c0.2-1,0.5-1.9,0.7-2.9h-3"/>
			<line class="st6" x1="234.2" y1="225.3" x2="190.3" y2="225.3"/>
			<path class="st2" d="M187.4,225.3h-3c-0.2,1-0.4,1.9-0.7,2.9"/>
			<path class="st8" d="M182.5,234.1c-8.8,41.5-13.6,86.6-13.6,133.9c0,113,27.7,214,71.1,281.3c37,16.7,77.9,26.4,121,27.2"/>
			<path class="st2" d="M364,676.5c1,0,2,0,3,0C366,676.5,365,676.5,364,676.5"/>
			<path class="st7" d="M358,675.9C285,665.7,227.2,531.7,227.2,368c0-49.1,5.2-95.6,14.5-136.8"/>
		</g>
	</g>
	<path class="st9" d="M706.1,224.7c-0.2-0.4-0.4-0.8-0.5-1.2l0,0c-0.1-0.3-0.3-0.7-0.4-1v0c-1.2-2.7-2.4-5.5-3.6-8.2
		c0-0.1-0.1-0.2-0.1-0.3l0,0c-1.3-2.8-2.6-5.6-4-8.3c0,0,0,0,0,0l0,0c-1.2-2.4-2.4-4.8-3.7-7.2v0c-0.2-0.3-0.3-0.6-0.5-0.9l0,0
		c-1.2-2.4-2.5-4.7-3.8-7.1v0c-0.1-0.1-0.1-0.3-0.2-0.4c-1.5-2.7-3-5.3-4.5-7.9c-0.1-0.1-0.2-0.3-0.2-0.4v0
		c-2.8-4.8-5.8-9.6-8.8-14.3v0c-0.2-0.3-0.4-0.6-0.6-0.9l0,0c-3-4.6-6.2-9.2-9.4-13.7l0,0c-0.2-0.3-0.4-0.5-0.6-0.8v0
		c-3.3-4.6-6.8-9.1-10.3-13.6c-0.1-0.1-0.2-0.3-0.3-0.4v0c-1.6-2-3.2-4-4.9-6l0,0c-0.2-0.3-0.4-0.5-0.6-0.8v0c-1.7-2-3.3-3.9-5-5.8
		v0c-0.2-0.3-0.4-0.5-0.7-0.8l0,0c-3.6-4.1-7.3-8.1-11.1-12l0,0c0,0,0,0,0,0c-2.2-2.3-4.4-4.5-6.6-6.7c-0.1-0.1-0.1-0.1-0.2-0.2l0,0
		c-1.8-1.8-3.7-3.6-5.5-5.3l0,0c0,0,0,0,0,0c-0.2-0.2-0.5-0.4-0.7-0.7c0,0,0,0,0,0v0c-1.9-1.8-3.8-3.5-5.7-5.2l0,0
		c-0.2-0.2-0.5-0.4-0.7-0.7l0,0c-1.9-1.7-3.8-3.4-5.8-5.1l0,0c-0.3-0.2-0.5-0.4-0.8-0.7v0c-2-1.7-3.9-3.3-5.9-5l0,0c0,0,0,0,0,0
		c-0.3-0.2-0.5-0.4-0.8-0.6c0,0,0,0,0,0l0,0c-4.4-3.6-8.9-7-13.4-10.4c-0.1-0.1-0.3-0.2-0.4-0.3v0c-4.2-3.1-8.5-6.1-12.8-9.1
		c-0.3-0.2-0.5-0.3-0.8-0.5l0,0c-0.3-0.2-0.6-0.4-0.9-0.6l0,0c-2.2-1.5-4.4-2.9-6.6-4.3l0,0c-0.3-0.2-0.6-0.4-0.9-0.5l0,0
		c-2.2-1.4-4.5-2.8-6.7-4.2l0,0c-0.3-0.2-0.6-0.4-0.9-0.5l0,0c-5.1-3.1-10.2-6-15.4-8.8c-0.1,0-0.2-0.1-0.2-0.1l0,0
		c-2.7-1.4-5.3-2.8-8-4.2c0,0,0,0-0.1,0l0,0c-2.4-1.2-4.8-2.4-7.3-3.6l0,0c-0.3-0.2-0.6-0.3-1-0.4v0c-2.5-1.2-5-2.3-7.5-3.4v0
		c-0.3-0.1-0.6-0.3-0.9-0.4c-2.8-1.2-5.6-2.4-8.4-3.6c-0.1,0-0.2-0.1-0.3-0.1l0,0c-2.6-1.1-5.2-2.1-7.8-3.1l0,0
		c-0.1,0-0.2-0.1-0.3-0.1c-5.9-2.3-11.8-4.4-17.8-6.3l0,0c0,0-0.1,0-0.1,0c-6.2-2-12.5-3.9-18.9-5.6l0,0c0,0,0,0,0,0
		c-6.6-1.8-13.2-3.3-19.9-4.7l0,0l0,0c-3.6-0.7-7.1-1.4-10.7-2c-0.3,0-0.5-0.1-0.8-0.1l0,0c-3.3-0.6-6.6-1.1-9.8-1.6
		c-0.2,0-0.5-0.1-0.7-0.1l0,0c-3.4-0.5-6.8-0.9-10.3-1.3c-0.2,0-0.4-0.1-0.6-0.1l0,0c-3.5-0.4-7.1-0.8-10.6-1.1c-0.2,0-0.4,0-0.5,0
		l0,0c-3.4-0.3-6.8-0.5-10.1-0.7l0,0c0,0,0,0,0,0c-4.2-0.2-8.5-0.4-12.8-0.5c-0.1,0-0.3,0-0.4,0l0,0C372.2,0,369.6,0,367,0
		c-1,0-2,0-3,0l0,0c-0.3,0-0.5,0-0.8,0c-8.8,0.1-17.5,0.5-26.2,1.2c-0.1,0-0.1,0-0.2,0l0,0c-14.2,1.2-28.3,3.1-42.1,5.9
		c-0.2,0-0.5,0.1-0.7,0.1l0,0c-4.7,0.9-9.3,2-14,3.1v0c0,0,0,0,0,0c-5.6,1.4-11.2,2.9-16.8,4.5l0,0c-0.5,0.1-0.9,0.3-1.4,0.4
		c-6.1,1.8-12.2,3.8-18.3,6c-0.2,0.1-0.4,0.1-0.6,0.2v0c-6.5,2.3-12.9,4.8-19.2,7.5c-0.3,0.1-0.6,0.3-1,0.4v0
		c-6.8,2.9-13.6,6-20.2,9.3v0c-0.8,0.4-1.6,0.8-2.5,1.3c-9.9,5-19.5,10.5-29,16.5c0,0,0,0,0,0v0c-3.3,2.1-6.6,4.2-9.9,6.4
		c-43.4,29.3-79.7,67.1-107,111c-0.4,0.7-0.9,1.4-1.3,2.1l0,0c-9.3,15.2-17.6,31.2-24.6,47.8v0c-0.1,0.3-0.3,0.6-0.4,1l-0.6,1.5l0,0
		l-0.2,0.6h10.5H39h10.9h1.4h10.9h1.4h10.9h1.4h10.9h1.4h6.1l0.4-0.8c2.3-4.4,4.7-8.7,7.2-12.9c0.7-1.1,1.3-2.3,2-3.4l0,0
		c8-13.3,17.1-26,27-37.9l0,0c1.5-1.8,3.1-3.7,4.7-5.5c0.1-0.1,0.2-0.2,0.3-0.3c1.6-1.8,3.2-3.6,4.8-5.4c6-6.6,12.3-12.9,18.9-18.9
		c1.8-1.6,3.6-3.2,5.4-4.8c0.1-0.1,0.2-0.2,0.3-0.3c1.8-1.6,3.6-3.1,5.5-4.7l0,0c12.7-10.6,26.2-20.1,40.5-28.6
		c0.3-0.2,0.6-0.3,0.8-0.5v0c7.5-4.4,15.2-8.5,23.1-12.3v0c0.3-0.1,0.5-0.3,0.8-0.4c-0.5,0.8-1,1.7-1.6,2.6v0
		c-8.8,14.4-16.9,30.3-24.2,47.4l0,0c-0.2,0.5-0.4,1-0.7,1.6c-5.1,12-9.8,24.6-14,37.7v0c-0.2,0.7-0.4,1.4-0.7,2.1v0
		c-1.7,5.3-3.3,10.6-4.8,16c-0.1,0.5-0.3,1-0.4,1.5l0,0c-1.5,5.5-3,11.1-4.4,16.7c0,0,0,0,0,0l0,0c-0.8,3.1-1.5,6.1-2.2,9.2
		l-0.4,1.8h2.4h1.4h10.9h1.4h10.9h1.4h10.9h1.4h10.9h1.4h8.7l0.3-1.2c0.8-3.5,1.7-7,2.6-10.4v0c0.1-0.3,0.2-0.6,0.2-0.9
		c1.4-5.5,2.9-10.9,4.5-16.1v0c0.1-0.2,0.1-0.4,0.2-0.6c1.8-6,3.7-11.9,5.7-17.6v0c0.2-0.6,0.4-1.1,0.6-1.7
		c2.2-6.3,4.5-12.3,6.9-18.1l0,0c0.3-0.8,0.7-1.6,1-2.4l0,0c3-7.1,6.2-13.9,9.5-20.3c0.5-1,1-2,1.5-2.9l0,0
		c5.6-10.6,11.5-20.1,17.7-28.6c0.8-1.1,1.6-2.1,2.4-3.1c0,0,0,0,0,0c0.8-1,1.6-2,2.4-3c6.9-8.6,14.2-15.9,21.7-21.7l0,0
		c1.7-1.3,3.5-2.6,5.2-3.8v0c6.9-4.7,14.1-8.2,21.3-10.5l0,0c0.7-0.2,1.3-0.4,2-0.6c4.3-1.2,8.7-1.9,13.1-2.2l0,0
		c0.5,0,1-0.1,1.5-0.1c0.4,0,0.9,0,1.3-0.1c0.4,0,0.8,0,1.2,0c0.4,0,0.8,0,1.3,0c2.2,0,4.5,0.2,6.7,0.5c0.4,0.1,0.8,0.1,1.2,0.2
		c6.1,0.9,12,2.6,17.9,5.2l0,0c0.1,0,0.2,0.1,0.3,0.2c2.6,1.2,5.2,2.5,7.8,4v0c0.3,0.2,0.6,0.3,0.9,0.5l0,0c2.2,1.3,4.4,2.8,6.6,4.3
		c0.3,0.2,0.5,0.4,0.8,0.6c4.2,3.1,8.4,6.7,12.5,10.7v0c0.2,0.2,0.5,0.5,0.7,0.7v0c1.8,1.8,3.5,3.6,5.3,5.6l0,0
		c0.2,0.2,0.4,0.5,0.7,0.8v0c1.7,1.9,3.3,3.9,5,5.9c0.2,0.3,0.4,0.5,0.6,0.8c3.5,4.4,6.9,9.1,10.1,14.1c0,0.1,0.1,0.1,0.1,0.2l0,0
		c1.5,2.3,3,4.7,4.5,7.2c0.1,0.1,0.2,0.3,0.2,0.4l0,0c4.3,7.2,8.4,14.9,12.3,23.2v0c0.2,0.3,0.3,0.6,0.5,1c1.1,2.5,2.3,5,3.4,7.5
		l0,0c0,0.1,0.1,0.2,0.1,0.3c1.2,2.7,2.4,5.5,3.5,8.3l0,0c0.1,0.3,0.3,0.7,0.4,1v0c2.2,5.4,4.3,11.1,6.3,16.9c0.1,0.3,0.2,0.7,0.4,1
		c1,2.9,2,5.9,2.9,8.9c0,0.1,0.1,0.3,0.1,0.4v0c2.9,9.1,5.5,18.5,8,28.3c0,0.1,0.1,0.3,0.1,0.4l0,0c0.5,1.9,0.9,3.8,1.4,5.8l0.3,1.2
		h2.2h1.4h10.9h1.4h10.9h1.4h10.9h1.4h10.9h1.4h8.9L551,225c-0.4-1.8-0.8-3.6-1.3-5.4v0c-0.1-0.4-0.2-0.8-0.3-1.1l0,0
		c-0.8-3.2-1.6-6.5-2.4-9.7c0,0,0-0.1,0-0.1l0,0c-1.6-6.1-3.3-12.1-5.1-18.1v0c-0.1-0.4-0.2-0.7-0.3-1.1v0
		c-3.7-12.2-7.8-24.1-12.2-35.5l0,0c-0.1-0.3-0.3-0.7-0.4-1v0c-1-2.6-2.1-5.2-3.1-7.7v0c-0.1-0.3-0.3-0.7-0.4-1v0
		c-1.1-2.6-2.2-5.1-3.3-7.6v0c-0.1-0.2-0.2-0.4-0.3-0.6c-1.2-2.6-2.3-5.2-3.5-7.8v0c0,0,0,0,0,0c-2.6-5.6-5.3-11.1-8.1-16.4v0
		c-0.2-0.3-0.3-0.6-0.5-0.9l0,0c-1.3-2.4-2.5-4.7-3.8-7v0c-0.2-0.3-0.3-0.6-0.5-0.8c-1.3-2.3-2.7-4.7-4-6.9v0
		c-0.1-0.2-0.2-0.3-0.3-0.5c-1-1.7-2.1-3.5-3.1-5.2c1.7,0.8,3.5,1.7,5.2,2.5l0,0c0.3,0.2,0.6,0.3,0.9,0.5c5.1,2.6,10.1,5.3,15.1,8.1
		l0,0c0.3,0.2,0.6,0.3,0.9,0.5c10,5.8,19.6,12.1,28.8,18.9l0,0c0.2,0.1,0.3,0.2,0.5,0.3c2.2,1.6,4.4,3.3,6.5,5v0
		c0.3,0.2,0.5,0.4,0.8,0.6c2,1.6,4,3.2,6,4.9l0,0c0.1,0.1,0.2,0.2,0.3,0.3c2.2,1.9,4.5,3.7,6.6,5.7c0.1,0.1,0.3,0.3,0.4,0.4l0,0
		c2.1,1.8,4.1,3.7,6.1,5.5c0.1,0.1,0.2,0.2,0.3,0.3l0,0c1.9,1.7,3.7,3.5,5.5,5.3l0,0c0.1,0.1,0.3,0.3,0.4,0.4
		c1.9,1.9,3.8,3.8,5.7,5.8v0c0.2,0.2,0.5,0.5,0.7,0.7c1.8,1.9,3.5,3.7,5.2,5.6v0c0.2,0.2,0.4,0.5,0.7,0.7l0,0
		c1.7,1.9,3.4,3.8,5.1,5.8v0c0.2,0.2,0.4,0.4,0.5,0.6c1.8,2.1,3.6,4.3,5.4,6.5c0.1,0.1,0.2,0.3,0.3,0.4v0c1.6,2,3.2,4,4.8,6.1l0,0
		c0.1,0.2,0.2,0.3,0.4,0.5c1.7,2.2,3.3,4.4,4.9,6.6l0,0c0.2,0.3,0.4,0.5,0.6,0.8c1.5,2.1,3,4.3,4.5,6.4l0,0c0.2,0.3,0.4,0.6,0.6,0.8
		v0c1.5,2.2,2.9,4.4,4.3,6.6v0c0.2,0.3,0.4,0.6,0.6,0.9v0c3,4.8,5.9,9.6,8.6,14.5l0,0c0.2,0.3,0.3,0.6,0.5,0.9l0,0
		c1.2,2.1,2.4,4.3,3.5,6.5l0.4,0.8h1.1h10.9h1.4H664h1.4h10.9h1.4h10.9h1.4h10.9h1.4h4.7L706.1,224.7z M672.9,168.7L633,208.6l0,0
		c-1.4-2.3-2.7-4.5-4.1-6.7l39.7-39.7C670,164.4,671.5,166.6,672.9,168.7L672.9,168.7z M657.7,147.1l-39.3,39.3
		c-1.5-2.1-3.1-4.2-4.6-6.2v0l39.2-39.2C654.5,143,656.1,145.1,657.7,147.1z M646.8,133.5L646.8,133.5l-39.1,39.1
		c-1.6-2-3.3-4-4.9-5.9l39-39v0C643.4,129.6,645.1,131.5,646.8,133.5z M635.3,120.4L635.3,120.4l-39,39c-1.7-1.9-3.5-3.8-5.3-5.6
		l38.9-38.9l0,0C631.8,116.7,633.5,118.5,635.3,120.4z M629.3,114.1L629.3,114.1L590.4,153c-1.8-1.8-3.6-3.7-5.4-5.5l38.9-38.9l0,0
		C625.7,110.5,627.5,112.3,629.3,114.1z M623.2,107.9l-38.9,38.9c-1.8-1.8-3.7-3.6-5.6-5.3l38.9-38.9l0,0
		C619.5,104.4,621.3,106.1,623.2,107.9z M565.7,130L565.7,130l39-39c2,1.7,3.9,3.4,5.8,5.1l-39,39
		C569.6,133.3,567.6,131.7,565.7,130z M583.4,74L544,113.4l0,0c-2.1-1.5-4.3-3-6.5-4.4v0l39.6-39.6C579.2,71,581.3,72.5,583.4,74z
		 M544.8,114l39.4-39.4v0c2.1,1.5,4.1,3.1,6.2,4.7v0l-39.3,39.3C549,117,546.9,115.5,544.8,114L544.8,114z M551.9,119.2l39.2-39.2v0
		c2,1.6,4.1,3.2,6.1,4.8l-39.1,39.1C556.1,122.3,554,120.7,551.9,119.2L551.9,119.2z M576.2,68.9l-39.6,39.6l0,0
		c-2.2-1.4-4.4-2.9-6.6-4.2l39.8-39.8c0.4,0.3,0.9,0.6,1.3,0.8C572.8,66.5,574.5,67.7,576.2,68.9z M568.9,63.9l-39.8,39.8
		c-2.2-1.4-4.5-2.7-6.8-4.1l0,0l40-40C564.6,61,566.8,62.5,568.9,63.9L568.9,63.9z M513.6,94.7c-2.4-1.3-4.7-2.5-7.1-3.7l0,0
		L547,50.4c2.3,1.3,4.6,2.6,6.9,4l0,0L513.6,94.7L513.6,94.7z M539.1,46c2.3,1.3,4.7,2.5,7,3.9l-40.6,40.6c-2.4-1.2-4.9-2.4-7.3-3.5
		L539.1,46L539.1,46z M521.8,37.4L447,112.2v0c-1.5-2.2-2.9-4.3-4.4-6.4l0,0L514.3,34v0C516.8,35.1,519.3,36.2,521.8,37.4z
		 M505.7,30.3c2.6,1,5.1,2.1,7.6,3.2l-71.4,71.4c-1.5-2.1-3.1-4.2-4.7-6.2L505.7,30.3L505.7,30.3z M418.6,79.2c-2-1.7-4-3.3-6-4.8
		l56.8-56.8c2.8,0.8,5.6,1.7,8.3,2.5l0,0L418.6,79.2L418.6,79.2z M468.2,17.2L468.2,17.2l-56.5,56.5c-2.1-1.6-4.3-3-6.5-4.4
		l54.5-54.5v0C462.6,15.6,465.4,16.4,468.2,17.2z M378.7,59L378.7,59l50.7-50.7l0,0c3.1,0.5,6.1,1.1,9.2,1.7l-51.1,51.1
		C384.6,60.2,381.7,59.5,378.7,59z M439.8,10.3c3,0.6,6,1.2,8.9,1.9l0,0l-52.4,52.4c-2.6-1.2-5.2-2.2-7.8-3.1L439.8,10.3z M367,3
		c1.6,0,3.3,0,4.9,0l0,0L200.2,174.7c1.9-5.8,4-11.4,6.1-17L361,3.1l0,0C363,3,365,3,367,3z M214.8,136.9L348.3,3.5l0,0
		c3.7-0.2,7.5-0.3,11.3-0.4L207.2,155.5C209.6,149.1,212.2,143,214.8,136.9z M226.2,113.2L335.1,4.4c3.9-0.3,7.8-0.6,11.7-0.8
		L216,134.4C219.3,127.1,222.7,120,226.2,113.2L226.2,113.2z M216.8,96.7c-10.2,5.7-20.1,11.9-29.6,18.7L291.9,10.7
		c4.4-0.9,8.9-1.8,13.4-2.5v0L216.8,96.7L216.8,96.7z M46.3,193.5c5.1-9.4,10.6-18.5,16.5-27.3L165,64c9-6,18.1-11.5,27.5-16.6
		L46.3,193.5L46.3,193.5z M160.6,66.9l-94.9,94.9l0,0C91,124.8,123.1,92.7,160.6,66.9z M44.7,196.6L195.5,45.7l0,0
		c7-3.8,14.2-7.3,21.4-10.5l0,0L34.2,217.9v0C37.4,210.7,40.9,203.6,44.7,196.6z M31.6,223.8c0.5-1.1,1-2.2,1.5-3.3L219.5,34v0
		c6.1-2.7,12.2-5.2,18.4-7.6v0L40.6,223.8H31.6z M42,223.8L240.2,25.6l0,0c5.5-2,11-3.9,16.5-5.7L52.9,223.8H42z M54.3,223.8
		L258.8,19.3c5-1.6,10.1-3,15.2-4.4L65.1,223.8H54.3z M91.1,223.8l2.9-2.9c-0.5,1-1,1.9-1.5,2.9H91.1z M95.7,217.9l-5.9,5.9H78.8
		l35.5-35.5l0,0C107.6,197.8,101.3,207.7,95.7,217.9z M118.1,183.1l-40.7,40.7H66.6L275.9,14.5c4.7-1.2,9.5-2.3,14.2-3.3L182,119.2
		C157.8,137.3,136.2,158.8,118.1,183.1z M239.3,85.4c-6.6,3-13.1,6.2-19.4,9.6L307,7.9v0c4.2-0.7,8.5-1.3,12.7-1.9l-78.4,78.4v0
		L239.3,85.4z M243.9,83.3l77.5-77.5c4.1-0.5,8.1-1,12.2-1.3l0,0L227.9,110.2l0,0c4.3-7.9,8.7-15.5,13.4-22.7L243.9,83.3L243.9,83.3
		L243.9,83.3z M199.5,176.8L373.3,3.1c3.5,0.1,7,0.2,10.5,0.3L194.5,192.7l0,0C196.1,187.3,197.8,182.1,199.5,176.8L199.5,176.8z
		 M186.3,223.8c1-4.1,1.9-8.2,3-12.2l94.6-94.6v0c-4.7,7.5-9.2,15.6-13.4,24.3L188,223.8H186.3z M201.7,223.8l58.2-58.2
		c-2.2,5.5-4.2,11.2-6.2,17.1l-41.1,41.1H201.7z M213.9,223.8l38.9-38.9c-1.7,5.1-3.4,10.4-4.9,15.8l0,0l-23.1,23.1H213.9z
		 M238.5,223.8l4.4-4.4c-0.4,1.5-0.7,2.9-1.1,4.4H238.5z M243.4,217.5L243.4,217.5l-6.3,6.3h-10.9l21.2-21.2l0,0
		C246,207.5,244.7,212.5,243.4,217.5z M260.7,163.3l-60.5,60.5h-10.9l79.8-79.8l0,0C266.2,150.2,263.4,156.6,260.7,163.3
		L260.7,163.3z M286.4,113.1L286.4,113.1l-96.6,96.6c1.3-5.1,2.7-10.1,4.1-15v0L385.2,3.5c3.4,0.2,6.8,0.4,10.2,0.6l-63.4,63.4v0
		C315.5,76.7,300.1,92.2,286.4,113.1z M335,65.9l61.7-61.7c3.3,0.3,6.6,0.6,9.9,0.9l-54.5,54.5C346.3,61,340.6,63.1,335,65.9
		L335,65.9z M365.7,58c-4,0.1-7.9,0.5-11.8,1.3l54-54l0,0c3.2,0.4,6.4,0.8,9.6,1.2L366.1,58C366,58,365.8,57.9,365.7,58z M367.5,58
		l51.3-51.3l0,0c3.1,0.4,6.3,0.9,9.4,1.5l0,0l-50.7,50.7v0c-3.1-0.5-6.1-0.8-9.2-0.8C368,57.9,367.8,58,367.5,58z M397.3,65.1
		L397.3,65.1l52.6-52.6l0,0c2.9,0.7,5.8,1.4,8.7,2.1l0,0l-54.3,54.3l0,0C402,67.5,399.6,66.2,397.3,65.1z M419.3,79.8l59.4-59.4l0,0
		c2.7,0.9,5.4,1.8,8.2,2.7v0L425,85.1v0C423.1,83.2,421.2,81.5,419.3,79.8z M425.7,85.8l62.3-62.3l0,0c2.7,0.9,5.3,1.9,8,2.9
		L431,91.3C429.2,89.4,427.5,87.5,425.7,85.8z M431.6,92.1l65.3-65.3c2.6,1,5.2,2,7.8,3.1L436.6,98C435,95.9,433.3,94,431.6,92.1
		L431.6,92.1z M447.6,113l75.2-75.2c2.5,1.2,4.9,2.3,7.3,3.5l-78.3,78.3C450.4,117.4,449,115.2,447.6,113L447.6,113z M452.3,120.6
		L531,41.8l0,0c2.4,1.2,4.8,2.5,7.2,3.7l-41,41l0,0c-0.8-0.4-1.7-0.8-2.5-1.2l-4.6-2.1l2.8,4.3c0.4,0.7,0.9,1.4,1.3,2.1l-37.8,37.8
		C455,125.1,453.6,122.8,452.3,120.6L452.3,120.6z M461.1,136.4L461.1,136.4l38.3-38.3c1.3,2.3,2.7,4.6,4,6.9v0l-38.6,38.6l0,0
		C463.5,141.2,462.3,138.7,461.1,136.4z M465.1,144.6L465.1,144.6l38.7-38.7c1.3,2.3,2.6,4.7,3.8,7.1l-39.1,39.1v0
		C467.4,149.5,466.3,147,465.1,144.6z M512.2,122c1.2,2.4,2.4,4.9,3.5,7.3l0,0l-40.1,40.1v0c-1-2.6-2-5.2-3.1-7.8L512.2,122
		L512.2,122z M482,187.7c-0.9-2.7-1.8-5.5-2.7-8.1v0l40.7-40.7c1.1,2.5,2.2,5.1,3.2,7.6L482,187.7L482,187.7z M488,207.7L488,207.7
		l42.5-42.5c1,2.7,1.9,5.3,2.8,8l-43,43C489.5,213.4,488.8,210.5,488,207.7z M530.1,164.2l-42.4,42.4c-0.8-2.8-1.6-5.7-2.4-8.4v0
		l41.8-41.8C528.1,158.9,529.1,161.5,530.1,164.2L530.1,164.2z M492.2,223.8c-0.5-2.2-1-4.3-1.6-6.4l43.1-43.1l0,0
		c0.9,2.7,1.8,5.4,2.7,8.2L495,223.8H492.2z M508.7,223.8l30.8-30.8c0.8,2.8,1.6,5.6,2.4,8.4l-22.4,22.4H508.7z M547.7,223.8h-2.1
		l1.7-1.7v0C547.4,222.7,547.6,223.2,547.7,223.8z M547,220.9l-2.9,2.9h-10.9l11.6-11.6C545.6,215.1,546.3,218,547,220.9L547,220.9z
		 M544.6,211.1l-12.7,12.7H521l21.3-21.3C543.1,205.4,543.8,208.2,544.6,211.1L544.6,211.1z M539.2,191.9l-31.9,31.9h-10.9
		l40.2-40.2C537.6,186.3,538.4,189.1,539.2,191.9L539.2,191.9z M526.7,155.2L485,197v0c-0.8-2.8-1.7-5.6-2.6-8.3v0l41.3-41.3v0
		C524.7,150,525.7,152.6,526.7,155.2z M519.6,137.9L519.6,137.9l-40.6,40.6c-0.9-2.7-1.9-5.4-2.9-8l40.1-40.1l0,0
		C517.3,132.8,518.5,135.3,519.6,137.9z M511.8,121.1L511.8,121.1l-39.6,39.6c-1.1-2.6-2.1-5.1-3.2-7.6l0,0l39.1-39.1v0
		C509.3,116.3,510.5,118.7,511.8,121.1z M498.8,97.2l-38.2,38.2v0c-1.2-2.4-2.5-4.8-3.8-7.1l0,0l37.9-37.9
		C496,92.7,497.4,94.9,498.8,97.2z M514.5,95.2L514.5,95.2l40.3-40.3l0,0c2.3,1.4,4.5,2.7,6.7,4.1l-40,40l0,0
		C519.1,97.8,516.8,96.5,514.5,95.2z M558.9,124.5L598,85.4l0,0c2,1.6,4,3.3,5.9,4.9l-39,39l0,0
		C562.9,127.7,560.9,126.1,558.9,124.5z M572.3,135.7l39-39l0,0c1.9,1.7,3.8,3.4,5.7,5.2l0,0L578,140.9l0,0
		C576.1,139.1,574.2,137.4,572.3,135.7L572.3,135.7z M597,160.1L597,160.1l39-39v0c1.7,1.9,3.4,3.8,5.1,5.7v0l-39,39l0,0
		C600.4,163.9,598.7,162,597,160.1z M608.3,173.4L608.3,173.4l39.1-39.1c1.6,2,3.3,4,4.9,6l-39.2,39.2l0,0
		C611.5,177.4,609.9,175.4,608.3,173.4z M618.9,187.3l39.3-39.3l0,0c1.6,2.1,3.1,4.1,4.6,6.2l0,0l-39.5,39.5v0
		C621.9,191.5,620.4,189.4,618.9,187.3z M624,194.5L624,194.5l39.5-39.5v0c1.5,2.1,3,4.2,4.5,6.4l-39.7,39.7l0,0
		C626.9,198.9,625.4,196.7,624,194.5z M633.5,209.5l39.9-39.9c1.4,2.2,2.8,4.4,4.2,6.7l-40.2,40.2v0
		C636.2,214.1,634.9,211.8,633.5,209.5z M638,217.3L638,217.3l40.2-40.2v0c1.4,2.3,2.7,4.5,4.1,6.8l-39.9,39.9h-0.9
		C640.4,221.6,639.2,219.5,638,217.3z M643.8,223.8l39-39c1.3,2.3,2.6,4.6,3.9,6.9l0,0l-32,32H643.8z M656.1,223.8l31.1-31.1l0,0
		c1.3,2.3,2.6,4.7,3.8,7.1l-24,24H656.1z M668.4,223.8l23.1-23.1v0c1.2,2.4,2.4,4.8,3.6,7.2l-15.9,15.9H668.4z M680.7,223.8
		l14.9-14.9c1.2,2.4,2.3,4.9,3.5,7.4l-7.5,7.5H680.7z M693,223.8l6.6-6.6c1,2.2,2,4.4,2.9,6.6H693z"/>
	<g>
		<g>
			<line class="st10" x1="682.2" y1="368" x2="726.3" y2="368"/>
			<g>
				<polygon class="st11" points="683.7,373 675.1,368 683.7,363 				"/>
			</g>
			<g>
				<polygon class="st11" points="724.9,373 733.5,368 724.9,363 				"/>
			</g>
		</g>
	</g>
	<g>
		<g>
			<line class="st10" x1="514.3" y1="368" x2="558.4" y2="368"/>
			<g>
				<polygon class="st11" points="515.8,373 507.1,368 515.8,363 				"/>
			</g>
			<g>
				<polygon class="st11" points="556.9,373 565.5,368 556.9,363 				"/>
			</g>
		</g>
	</g>
	<g>
		<g>
			<line class="st10" x1="176" y1="368" x2="220.1" y2="368"/>
			<g>
				<polygon class="st11" points="177.5,373 168.8,368 177.5,363 				"/>
			</g>
			<g>
				<polygon class="st11" points="218.6,373 227.3,368 218.6,363 				"/>
			</g>
		</g>
	</g>
	<g>
		<g>
			<line class="st10" x1="7.7" y1="368" x2="51.7" y2="368"/>
			<g>
				<polygon class="st11" points="9.1,373 0.5,368 9.1,363 				"/>
			</g>
			<g>
				<polygon class="st11" points="50.3,373 58.9,368 50.3,363 				"/>
			</g>
		</g>
	</g>
	<line class="st10" x1="0.5" y1="313.4" x2="0.5" y2="775.8"/>
	<line class="st10" x1="58.9" y1="313.4" x2="58.9" y2="775.8"/>
	<line class="st10" x1="168.8" y1="313.4" x2="168.8" y2="775.8"/>
	<line class="st10" x1="226.2" y1="313.4" x2="226.2" y2="775.8"/>
	<line class="st10" x1="507.1" y1="313.4" x2="507.1" y2="775.8"/>
	<line class="st10" x1="565.7" y1="313.4" x2="565.7" y2="775.8"/>
	<line class="st10" x1="675.1" y1="313.4" x2="675.1" y2="775.8"/>
	<line class="st10" x1="733.5" y1="313.4" x2="733.5" y2="775.8"/>
	<g>
		<path class="st11" d="M36.5,767.7l-6.8-9.2l-6.8,9.2h-2.6l8-10.8l-7.5-10.2h2.6l6.3,8.6l6.3-8.6h2.4L31,756.8l8,10.9H36.5z"/>
	</g>
	<g>
		<path class="st11" d="M198,760.4v7.3h-2.2v-7.3l-8.4-13.7h2.4l7.2,11.8l7.2-11.8h2.2L198,760.4z"/>
	</g>
	<g>
		<path class="st11" d="M537.8,760.4v7.3h-2.2v-7.3l-8.4-13.7h2.4l7.2,11.8l7.2-11.8h2.2L537.8,760.4z"/>
	</g>
	<g>
		<path class="st11" d="M710.7,767.7l-6.8-9.2l-6.8,9.2h-2.6l8-10.8l-7.5-10.2h2.6l6.3,8.6l6.3-8.6h2.4l-7.4,10.1l8,10.9H710.7z"/>
	</g>
</g>
</svg>
