<?xml version="1.0" encoding="utf-8"?>
<!-- Generator: Adobe Illustrator 26.3.1, SVG Export Plug-In . SVG Version: 6.00 Build 0)  -->
<svg version="1.1" id="Layer_1" xmlns="http://www.w3.org/2000/svg" xmlns:xlink="http://www.w3.org/1999/xlink" x="0px" y="0px"
	 viewBox="0 0 588.2 356" style="enable-background:new 0 0 588.2 356;" xml:space="preserve">
<style type="text/css">
	.st0{opacity:0.5;}
	.st1{fill:#FFFFFF;}
	.st2{fill:none;stroke:#3F4F51;stroke-miterlimit:10;}
	.st3{fill:none;stroke:#3F4F51;stroke-miterlimit:10;stroke-dasharray:6.4504,6.4504;}
	.st4{fill:none;stroke:#3F4F51;stroke-miterlimit:10;stroke-dasharray:6.0189,6.0189;}
	.st5{fill:none;stroke:#3F4F51;stroke-miterlimit:10;stroke-dasharray:6.0155,6.0155;}
	.st6{fill:none;stroke:#3F4F51;stroke-miterlimit:10;stroke-dasharray:5.8452,5.8452;}
	.st7{fill:none;stroke:#3F4F51;stroke-miterlimit:10;stroke-dasharray:6.0557,6.0557;}
	.st8{fill:none;stroke:#3F4F51;stroke-miterlimit:10;stroke-dasharray:6.0494,6.0494;}
	.st9{fill:#5D7375;}
	.st10{fill:none;stroke:#95E5BE;stroke-miterlimit:10;}
	.st11{fill:#95E5BE;}
	.st12{fill:#46BDC5;}
	.st13{fill:#3C3B5A;}
	.st14{fill:#C4C4C4;}
	.st15{fill:none;stroke:#C4C4C4;stroke-miterlimit:10;}
	.st16{fill:none;stroke:#17192E;stroke-miterlimit:10;}
	.st17{fill:#17192E;}
	.st18{fill:none;stroke:#C4C4C4;stroke-miterlimit:10;stroke-dasharray:6;}
</style>
<g class="st0">
	<path class="st1" d="M587.8,132.3h-34.5c-17.2-32.9-45-59.3-78.9-74.6c12.9,20,23.2,45.5,29.9,74.6h-31.6
		c-12.5-52.7-37.3-88.7-66.1-89.3c-0.2,0-0.5,0-0.7,0c-0.2,0-0.5,0-0.7,0c-28.7,0.6-53.6,36.6-66.1,89.3h-31.6
		c6.7-29.1,17-54.6,29.9-74.6c-33.9,15.3-61.8,41.7-78.9,74.6h-34.5C254.2,61.5,324.3,11.8,406,11.8
		C487.8,11.8,557.9,61.5,587.8,132.3z"/>
	<g>
		<path class="st1" d="M0,167.7h38.5c9.2,0,17.3,1.8,24.4,5.3c7.1,3.5,12.5,8.5,16.5,14.8c3.9,6.4,5.9,13.8,5.9,22.3
			s-2,15.9-5.9,22.3c-3.9,6.4-9.4,11.3-16.5,14.8c-7.1,3.5-15.2,5.3-24.4,5.3H0V167.7z M37.5,236.3c8.5,0,15.2-2.4,20.3-7.1
			c5-4.7,7.6-11.1,7.6-19.2c0-8.1-2.5-14.5-7.6-19.2c-5-4.7-11.8-7.1-20.3-7.1H19.6v52.5H37.5z"/>
		<path class="st1" d="M129.3,248.1c-7.1-3.8-12.6-9-16.6-15.7c-4-6.7-6-14.1-6-22.4c0-8.3,2-15.8,6-22.4c4-6.7,9.5-11.9,16.6-15.7
			c7.1-3.8,15-5.7,23.8-5.7c8.8,0,16.7,1.9,23.7,5.7c7,3.8,12.5,9,16.6,15.7c4,6.7,6,14.1,6,22.4c0,8.3-2,15.8-6,22.4
			c-4,6.7-9.6,11.9-16.6,15.7c-7,3.8-14.9,5.7-23.7,5.7C144.3,253.8,136.3,251.9,129.3,248.1z M166.6,233.7c4-2.3,7.2-5.5,9.5-9.6
			c2.3-4.1,3.4-8.8,3.4-14c0-5.2-1.1-9.9-3.4-14c-2.3-4.1-5.5-7.3-9.5-9.6c-4-2.3-8.6-3.4-13.6-3.4c-5,0-9.5,1.1-13.6,3.4
			c-4,2.3-7.2,5.5-9.5,9.6c-2.3,4.1-3.4,8.8-3.4,14c0,5.2,1.1,9.9,3.4,14c2.3,4.1,5.5,7.3,9.5,9.6c4,2.3,8.5,3.4,13.6,3.4
			C158.1,237.1,162.6,236,166.6,233.7z"/>
		<path class="st1" d="M303.3,252.4l-0.1-50.8l-24.9,41.9h-8.8l-24.8-40.8v49.7h-18.4v-84.7h16.2l31.7,52.6l31.2-52.6h16.1l0.2,84.7
			H303.3z"/>
		<polygon class="st1" points="399.9,167.7 380.5,167.7 342.8,252.4 362.9,252.4 390.1,186.9 417.2,252.4 437.8,252.4 		"/>
		<path class="st1" d="M458.7,167.7h19.6v84.7h-19.6V167.7z"/>
		<path class="st1" d="M588.2,167.7v84.7h-16.1L529.8,201v51.4h-19.4v-84.7h16.2l42.1,51.4v-51.4H588.2z"/>
	</g>
	<g>
		<path class="st1" d="M231.7,291.5v22.6h29.7v5.3h-29.7v24.4h-6.1v-57.5H265v5.3H231.7z"/>
		<path class="st1" d="M294.7,340.4c-4.6-2.5-8.2-6-10.8-10.5c-2.6-4.4-3.9-9.4-3.9-14.9c0-5.5,1.3-10.5,3.9-14.9
			c2.6-4.4,6.2-7.9,10.8-10.5c4.6-2.5,9.8-3.8,15.5-3.8c5.7,0,10.8,1.3,15.4,3.8c4.6,2.5,8.2,6,10.8,10.5c2.6,4.5,3.9,9.5,3.9,15
			c0,5.5-1.3,10.5-3.9,15c-2.6,4.5-6.2,8-10.8,10.5c-4.6,2.5-9.7,3.8-15.4,3.8C304.5,344.2,299.3,343,294.7,340.4z M322.5,335.7
			c3.7-2.1,6.5-4.9,8.6-8.5c2.1-3.6,3.1-7.7,3.1-12.2c0-4.5-1-8.6-3.1-12.2c-2.1-3.6-5-6.5-8.6-8.5c-3.7-2.1-7.8-3.1-12.3-3.1
			c-4.5,0-8.7,1-12.4,3.1s-6.6,4.9-8.7,8.5c-2.1,3.6-3.2,7.7-3.2,12.2c0,4.5,1.1,8.6,3.2,12.2c2.1,3.6,5,6.5,8.7,8.5
			s7.8,3.1,12.4,3.1C314.7,338.8,318.8,337.8,322.5,335.7z"/>
		<path class="st1" d="M401.4,343.7l-13.1-18.5c-1.5,0.2-3,0.2-4.6,0.2h-15.4v18.2h-6.1v-57.5h21.5c7.3,0,13.1,1.8,17.2,5.3
			c4.2,3.5,6.2,8.3,6.2,14.4c0,4.5-1.1,8.3-3.4,11.4c-2.3,3.1-5.5,5.3-9.7,6.7l14,19.7H401.4z M396.5,316.6c3-2.5,4.5-6,4.5-10.6
			c0-4.7-1.5-8.2-4.5-10.7c-3-2.5-7.4-3.7-13.1-3.7h-15.3v28.8h15.3C389.2,320.3,393.5,319.1,396.5,316.6z"/>
		<path class="st1" d="M470.3,338.5v5.3h-40.6v-57.5h39.4v5.3h-33.3V312h29.7v5.2h-29.7v21.3H470.3z"/>
		<path class="st1" d="M496.4,342.2c-3.9-1.4-6.9-3.2-9.1-5.4l2.4-4.7c2.1,2.1,4.8,3.8,8.3,5c3.4,1.3,7,1.9,10.7,1.9
			c5.1,0,9-0.9,11.6-2.8c2.6-1.9,3.9-4.3,3.9-7.3c0-2.3-0.7-4.1-2.1-5.5c-1.4-1.4-3.1-2.4-5.1-3.2c-2-0.7-4.8-1.5-8.5-2.4
			c-4.3-1.1-7.8-2.1-10.3-3.2c-2.6-1-4.8-2.6-6.6-4.6c-1.8-2.1-2.8-4.9-2.8-8.5c0-2.9,0.8-5.5,2.3-7.9c1.5-2.4,3.9-4.3,7.1-5.7
			c3.2-1.4,7.1-2.1,11.8-2.1c3.3,0,6.5,0.5,9.6,1.4c3.1,0.9,5.9,2.1,8.2,3.7l-2.1,4.8c-2.4-1.6-5-2.8-7.7-3.6
			c-2.7-0.8-5.4-1.2-8-1.2c-5,0-8.8,1-11.4,2.9c-2.5,1.9-3.8,4.4-3.8,7.5c0,2.3,0.7,4.1,2.1,5.5c1.4,1.4,3.1,2.5,5.3,3.2
			c2.1,0.7,4.9,1.5,8.5,2.4c4.2,1,7.6,2.1,10.2,3.1c2.6,1,4.8,2.5,6.6,4.6c1.8,2.1,2.7,4.8,2.7,8.3c0,2.9-0.8,5.5-2.3,7.9
			c-1.6,2.4-4,4.3-7.2,5.7c-3.2,1.4-7.2,2.1-11.9,2.1C504.4,344.2,500.3,343.5,496.4,342.2z"/>
		<path class="st1" d="M561.9,291.5h-20.2v-5.3h46.5v5.3H568v52.2h-6.1V291.5z"/>
	</g>
</g>
</svg>
