<?xml version="1.0" encoding="utf-8"?>
<!-- Generator: Adobe Illustrator 26.3.1, SVG Export Plug-In . SVG Version: 6.00 Build 0)  -->
<svg version="1.1" id="Layer_1" xmlns="http://www.w3.org/2000/svg" xmlns:xlink="http://www.w3.org/1999/xlink" x="0px" y="0px"
	 viewBox="0 0 746.4 421.9" style="enable-background:new 0 0 746.4 421.9;" xml:space="preserve">
<style type="text/css">
	.st0{opacity:0.5;}
	.st1{fill:#FFFFFF;}
	.st2{fill:none;stroke:#3F4F51;stroke-miterlimit:10;}
	.st3{fill:none;stroke:#3F4F51;stroke-miterlimit:10;stroke-dasharray:6.4504,6.4504;}
	.st4{fill:none;stroke:#3F4F51;stroke-miterlimit:10;stroke-dasharray:6.0189,6.0189;}
	.st5{fill:none;stroke:#3F4F51;stroke-miterlimit:10;stroke-dasharray:6.0155,6.0155;}
	.st6{fill:none;stroke:#3F4F51;stroke-miterlimit:10;stroke-dasharray:5.8452,5.8452;}
	.st7{fill:none;stroke:#3F4F51;stroke-miterlimit:10;stroke-dasharray:6.0557,6.0557;}
	.st8{fill:none;stroke:#3F4F51;stroke-miterlimit:10;stroke-dasharray:6.0494,6.0494;}
	.st9{fill:#5D7375;}
	.st10{fill:none;stroke:#95E5BE;stroke-miterlimit:10;}
	.st11{fill:#95E5BE;}
	.st12{fill:#46BDC5;}
	.st13{fill:#3C3B5A;}
	.st14{fill:#C4C4C4;}
	.st15{fill:none;stroke:#C4C4C4;stroke-miterlimit:10;}
	.st16{fill:none;stroke:#17192E;stroke-miterlimit:10;}
	.st17{fill:#17192E;}
	.st18{fill:none;stroke:#C4C4C4;stroke-miterlimit:10;stroke-dasharray:6;}
</style>
<g>
	<path class="st12" d="M746,152.9h-43.8c-21.8-41.7-57.1-75.2-100.2-94.7c16.4,25.4,29.5,57.8,37.9,94.7h-40
		c-15.8-66.8-47.4-112.6-83.8-113.3c-0.3,0-0.6,0-0.9,0c-0.3,0-0.6,0-0.9,0c-36.5,0.7-68,46.5-83.9,113.3h-40
		c8.4-36.9,21.5-69.3,37.9-94.7c-43,19.5-78.4,53-100.2,94.7h-43.8C322.6,63.1,411.6,0,515.3,0C619,0,708,63.1,746,152.9z"/>
	<g>
		<path class="st14" d="M0,197.9h48.8c11.7,0,22,2.2,30.9,6.7c9,4.5,15.9,10.7,20.9,18.8c5,8.1,7.4,17.5,7.4,28.3
			c0,10.7-2.5,20.2-7.4,28.3c-5,8.1-11.9,14.4-20.9,18.8c-9,4.5-19.3,6.7-30.9,6.7H0V197.9z M47.6,284.9c10.7,0,19.3-3,25.7-9
			c6.4-6,9.6-14.1,9.6-24.3c0-10.2-3.2-18.3-9.6-24.3c-6.4-6-15-9-25.7-9H24.9v66.6H47.6z"/>
		<path class="st14" d="M164.1,300c-9-4.8-16-11.4-21-19.9c-5.1-8.4-7.6-17.9-7.6-28.5c0-10.5,2.5-20,7.6-28.5
			c5.1-8.4,12.1-15.1,21-19.9c9-4.8,19-7.2,30.2-7.2c11.2,0,21.2,2.4,30.1,7.2c8.9,4.8,15.9,11.4,21,19.9c5.1,8.4,7.7,17.9,7.7,28.5
			c0,10.5-2.6,20-7.7,28.5c-5.1,8.4-12.1,15.1-21,19.9c-8.9,4.8-18.9,7.2-30.1,7.2C183.1,307.2,173,304.8,164.1,300z M211.4,281.6
			c5.1-2.9,9.1-7,12.1-12.2c2.9-5.2,4.4-11.2,4.4-17.8c0-6.7-1.5-12.6-4.4-17.8c-2.9-5.2-6.9-9.3-12.1-12.2
			c-5.1-2.9-10.9-4.4-17.2-4.4c-6.3,0-12.1,1.5-17.2,4.4c-5.1,2.9-9.1,7-12.1,12.2c-2.9,5.2-4.4,11.2-4.4,17.8
			c0,6.7,1.5,12.6,4.4,17.8c2.9,5.2,6.9,9.3,12.1,12.2c5.1,2.9,10.8,4.4,17.2,4.4C200.6,286,206.3,284.5,211.4,281.6z"/>
		<path class="st14" d="M385,305.3l-0.2-64.5L353.2,294H342l-31.5-51.7v63.1h-23.3V197.9h20.6l40.2,66.8l39.6-66.8H408l0.3,107.5
			H385z"/>
		<polygon class="st14" points="507.5,197.9 482.9,197.9 435,305.3 460.5,305.3 495.1,222.3 529.5,305.3 555.6,305.3 		"/>
		<path class="st14" d="M582.1,197.9H607v107.5h-24.9V197.9z"/>
		<path class="st14" d="M746.4,197.9v107.5H726l-53.6-65.3v65.3h-24.6V197.9h20.6l53.4,65.3v-65.3H746.4z"/>
	</g>
	<g>
		<path class="st14" d="M294,355v28.7h37.7v6.7H294v30.9h-7.7v-72.9h50v6.7H294z"/>
		<path class="st14" d="M374,417.1c-5.9-3.2-10.5-7.7-13.8-13.3c-3.3-5.6-4.9-11.9-4.9-19c0-7,1.6-13.3,4.9-19
			c3.3-5.6,7.9-10.1,13.8-13.3c5.9-3.2,12.4-4.8,19.6-4.8c7.2,0,13.7,1.6,19.5,4.8c5.8,3.2,10.4,7.6,13.7,13.3c3.3,5.7,5,12,5,19
			c0,7-1.7,13.4-5,19c-3.3,5.7-7.9,10.1-13.7,13.3c-5.8,3.2-12.3,4.8-19.5,4.8C386.4,421.9,379.9,420.3,374,417.1z M409.3,411.1
			c4.7-2.6,8.3-6.2,10.9-10.8c2.6-4.6,4-9.8,4-15.5c0-5.7-1.3-10.9-4-15.5c-2.6-4.6-6.3-8.2-10.9-10.8c-4.7-2.6-9.9-3.9-15.6-3.9
			c-5.8,0-11,1.3-15.7,3.9c-4.7,2.6-8.4,6.2-11,10.8c-2.7,4.6-4,9.8-4,15.5c0,5.7,1.3,10.9,4,15.5c2.7,4.6,6.4,8.2,11,10.8
			c4.7,2.6,9.9,3.9,15.7,3.9C399.4,415,404.6,413.7,409.3,411.1z"/>
		<path class="st14" d="M509.4,421.3l-16.7-23.4c-1.9,0.2-3.8,0.3-5.8,0.3h-19.6v23.1h-7.7v-72.9h27.3c9.3,0,16.6,2.2,21.9,6.7
			c5.3,4.4,7.9,10.6,7.9,18.3c0,5.7-1.4,10.5-4.3,14.4c-2.9,3.9-7,6.8-12.3,8.5l17.8,25H509.4z M503.2,386.8
			c3.8-3.2,5.7-7.7,5.7-13.4c0-5.9-1.9-10.4-5.7-13.6c-3.8-3.2-9.3-4.7-16.6-4.7h-19.4v36.6h19.4C493.9,391.6,499.4,390,503.2,386.8
			z"/>
		<path class="st14" d="M596.9,414.6v6.7h-51.6v-72.9h50v6.7H553V381h37.7v6.6H553v27.1H596.9z"/>
		<path class="st14" d="M630,419.3c-5-1.7-8.8-4-11.5-6.9l3-5.9c2.6,2.6,6.1,4.8,10.5,6.4c4.4,1.6,8.9,2.4,13.5,2.4
			c6.5,0,11.4-1.2,14.7-3.6c3.3-2.4,4.9-5.5,4.9-9.3c0-2.9-0.9-5.2-2.7-7c-1.8-1.7-3.9-3.1-6.5-4c-2.6-0.9-6.1-2-10.7-3.1
			c-5.5-1.4-9.9-2.7-13.1-4c-3.3-1.3-6.1-3.2-8.4-5.9c-2.3-2.6-3.5-6.2-3.5-10.7c0-3.7,1-7,2.9-10.1c1.9-3,4.9-5.4,9-7.2
			c4-1.8,9-2.7,15-2.7c4.2,0,8.2,0.6,12.2,1.7c4,1.1,7.4,2.7,10.4,4.7l-2.6,6.1c-3.1-2-6.3-3.5-9.8-4.5c-3.5-1-6.9-1.5-10.2-1.5
			c-6.4,0-11.2,1.2-14.4,3.7c-3.2,2.5-4.8,5.6-4.8,9.5c0,2.9,0.9,5.3,2.7,7c1.8,1.8,4,3.1,6.7,4.1c2.7,0.9,6.3,2,10.8,3.1
			c5.3,1.3,9.7,2.6,13,3.9c3.3,1.3,6.1,3.2,8.4,5.8c2.3,2.6,3.4,6.1,3.4,10.6c0,3.7-1,7-3,10.1c-2,3-5,5.4-9.1,7.2
			c-4.1,1.8-9.1,2.7-15.1,2.7C640.1,421.9,635,421,630,419.3z"/>
		<path class="st14" d="M713.1,355h-25.6v-6.7h59v6.7h-25.6v66.3h-7.7V355z"/>
	</g>
</g>
</svg>
