<?xml version="1.0" encoding="utf-8"?>
<!-- Generator: Adobe Illustrator 24.0.2, SVG Export Plug-In . SVG Version: 6.00 Build 0)  -->
<svg version="1.1" id="Layer_1" xmlns="http://www.w3.org/2000/svg" xmlns:xlink="http://www.w3.org/1999/xlink" x="0px" y="0px"
	 viewBox="0 0 845.73 148.48" style="enable-background:new 0 0 845.73 148.48;" xml:space="preserve">
<style type="text/css">
	.st0{fill:#46BDC5;}
	.st1{fill:#3C3B5A;}
</style>
<g>
	<g>
		<path d="M124.24,82.09c0,33.69-27.31,61-61,61H42.12v-39.87h21.12c11.66,0,21.12-9.46,21.12-21.12c0-11.66-9.46-21.12-21.12-21.12
			h-21l37.59-37.59C105.46,30.61,124.24,54.15,124.24,82.09z M0,103.21h42.12V61.09L0,103.21z"/>
		<g>
			<path d="M152.25,67.17c5.13,0,9.4,1.8,12.84,5.39c3.43,3.6,5.15,8.03,5.15,13.29c0,5.27-1.72,9.7-5.15,13.29
				c-3.44,3.6-7.71,5.39-12.84,5.39h-14.84V67.17H152.25z M152.25,97.5c3.24,0,5.87-1.08,7.9-3.23c2.03-2.15,3.04-4.96,3.04-8.41
				c0-3.45-1.01-6.25-3.04-8.41c-2.03-2.15-4.66-3.23-7.9-3.23h-7.47V97.5H152.25z"/>
			<path d="M197.89,101.21c-2.74,2.72-6.09,4.08-10.04,4.08c-3.95,0-7.29-1.36-10.01-4.08c-2.72-2.72-4.08-6.06-4.08-10.01
				c0-3.95,1.36-7.29,4.08-10.01c2.72-2.72,6.06-4.08,10.01-4.08c3.95,0,7.3,1.36,10.04,4.08c2.74,2.72,4.11,6.06,4.11,10.01
				C202.01,95.15,200.63,98.48,197.89,101.21z M182.71,96.48c1.37,1.39,3.09,2.08,5.15,2.08c2.06,0,3.79-0.69,5.18-2.08
				c1.39-1.39,2.08-3.15,2.08-5.29c0-2.14-0.69-3.9-2.08-5.29c-1.39-1.39-3.11-2.08-5.18-2.08c-2.06,0-3.78,0.69-5.15,2.08
				c-1.37,1.39-2.06,3.15-2.06,5.29C180.65,93.33,181.34,95.09,182.71,96.48z"/>
			<path d="M236.39,77.1c3.06,0,5.51,1,7.34,2.99c1.83,1.99,2.75,4.66,2.75,8.01v16.44h-6.89V88.58c0-1.6-0.39-2.85-1.17-3.74
				c-0.78-0.89-1.89-1.33-3.31-1.33c-1.57,0-2.79,0.52-3.66,1.55c-0.87,1.03-1.31,2.53-1.31,4.48v15h-6.89V88.58
				c0-1.6-0.39-2.85-1.17-3.74c-0.78-0.89-1.89-1.33-3.31-1.33c-1.53,0-2.75,0.52-3.66,1.55c-0.91,1.03-1.36,2.53-1.36,4.48v15
				h-6.89V77.85h6.89v2.83c1.6-2.38,4.08-3.58,7.42-3.58c3.27,0,5.69,1.28,7.26,3.84C230.21,78.38,232.86,77.1,236.39,77.1z"/>
			<path d="M272.64,77.85h6.89v26.69h-6.89v-3.15c-2.06,2.6-4.96,3.9-8.7,3.9c-3.56,0-6.61-1.36-9.16-4.08
				c-2.54-2.72-3.82-6.06-3.82-10.01c0-3.95,1.27-7.29,3.82-10.01c2.54-2.72,5.6-4.08,9.16-4.08c3.74,0,6.64,1.3,8.7,3.9V77.85z
				 M259.93,96.62c1.39,1.41,3.15,2.11,5.29,2.11c2.14,0,3.91-0.7,5.31-2.11c1.41-1.41,2.11-3.21,2.11-5.42
				c0-2.21-0.7-4.01-2.11-5.42c-1.41-1.41-3.18-2.11-5.31-2.11c-2.14,0-3.9,0.7-5.29,2.11c-1.39,1.41-2.08,3.21-2.08,5.42
				C257.85,93.4,258.54,95.21,259.93,96.62z"/>
			<path d="M289.19,74.65c-1.14,0-2.13-0.42-2.96-1.25c-0.84-0.84-1.25-1.82-1.25-2.96c0-1.14,0.42-2.14,1.25-2.99
				c0.84-0.85,1.82-1.28,2.96-1.28c1.17,0,2.18,0.43,3.02,1.28c0.84,0.85,1.25,1.85,1.25,2.99c0,1.14-0.42,2.13-1.25,2.96
				C291.37,74.23,290.36,74.65,289.19,74.65z M285.77,104.54V77.85h6.89v26.69H285.77z"/>
			<path d="M313.8,77.1c2.92,0,5.33,0.98,7.23,2.94c1.9,1.96,2.86,4.66,2.86,8.12v16.39H317V89.01c0-1.78-0.48-3.14-1.44-4.08
				c-0.96-0.94-2.24-1.41-3.84-1.41c-1.78,0-3.2,0.55-4.27,1.66c-1.07,1.1-1.6,2.76-1.6,4.97v14.41h-6.89V77.85h6.89v2.99
				C307.52,78.35,310.17,77.1,313.8,77.1z"/>
			<path d="M343.32,69.15c-5.3-0.43-7.95,1.99-7.95,7.26v1.44h7.95v2.62h-7.95v24.08h-2.72V80.47h-4.59v-2.62h4.59v-1.44
				c0-3.35,0.92-5.88,2.75-7.61c1.83-1.73,4.48-2.46,7.93-2.22V69.15z"/>
			<path d="M357.9,105.13c-3.92,0-7.23-1.34-9.96-4.03c-2.72-2.69-4.08-5.99-4.08-9.9c0-3.91,1.36-7.22,4.08-9.9
				c2.72-2.69,6.04-4.03,9.96-4.03c3.88,0,7.18,1.34,9.9,4.03c2.72,2.69,4.08,5.99,4.08,9.9c0,3.92-1.36,7.22-4.08,9.9
				C365.08,103.79,361.78,105.13,357.9,105.13z M349.86,99.26c2.19,2.21,4.87,3.31,8.04,3.31c3.17,0,5.84-1.1,8.01-3.31
				c2.17-2.21,3.26-4.89,3.26-8.06c0-3.17-1.09-5.85-3.26-8.06c-2.17-2.21-4.84-3.31-8.01-3.31c-3.17,0-5.85,1.1-8.04,3.31
				c-2.19,2.21-3.28,4.89-3.28,8.06C346.58,94.37,347.67,97.05,349.86,99.26z"/>
			<path d="M380.96,83.08c1.6-3.74,4.57-5.61,8.92-5.61v2.56c-2.53,0-4.64,0.81-6.35,2.43c-1.71,1.62-2.56,4.03-2.56,7.23v14.84
				h-2.67V77.85h2.67V83.08z"/>
			<path d="M405.68,77.26c3.91,0,7.09,1.39,9.53,4.16c2.44,2.78,3.66,6.07,3.66,9.88c0,0.14-0.01,0.36-0.03,0.64
				c-0.02,0.29-0.03,0.5-0.03,0.64h-24.18c0.32,2.99,1.52,5.4,3.6,7.23c2.08,1.83,4.65,2.75,7.71,2.75c2.14,0,4-0.44,5.61-1.33
				c1.6-0.89,2.81-2.06,3.63-3.52l2.35,1.39c-1.1,1.85-2.67,3.32-4.7,4.4c-2.03,1.09-4.34,1.63-6.94,1.63
				c-4.09,0-7.46-1.31-10.09-3.92c-2.63-2.62-3.95-5.95-3.95-10.01c0-3.99,1.29-7.3,3.87-9.96
				C398.3,78.59,401.62,77.26,405.68,77.26z M405.68,79.83c-3.03,0-5.55,0.94-7.58,2.83c-2.03,1.89-3.19,4.32-3.47,7.31h21.46
				c-0.29-3.17-1.41-5.65-3.39-7.45C410.72,80.72,408.38,79.83,405.68,79.83z"/>
			<path d="M425.86,84.76c0,1.3,0.56,2.31,1.67,3.05c1.12,0.73,2.47,1.31,4.05,1.73c1.58,0.42,3.18,0.84,4.78,1.26
				c1.6,0.42,2.95,1.19,4.04,2.3c1.09,1.11,1.64,2.6,1.64,4.46c0,2.21-0.88,4.02-2.64,5.45c-1.76,1.42-4.07,2.14-6.91,2.14
				c-2.56,0-4.72-0.54-6.49-1.63s-2.98-2.52-3.66-4.3l2.3-1.33c0.5,1.46,1.43,2.61,2.8,3.44c1.37,0.84,3.05,1.25,5.05,1.25
				c1.99,0,3.64-0.44,4.94-1.31c1.3-0.87,1.95-2.11,1.95-3.71c0-1.32-0.55-2.37-1.66-3.15c-1.1-0.78-2.45-1.38-4.03-1.8
				c-1.58-0.42-3.18-0.84-4.78-1.26c-1.6-0.42-2.95-1.17-4.06-2.23c-1.1-1.07-1.65-2.49-1.65-4.27c0-2.14,0.84-3.93,2.54-5.39
				c1.69-1.46,3.87-2.19,6.54-2.19c2.14,0,3.99,0.48,5.58,1.44c1.58,0.96,2.75,2.26,3.5,3.9l-2.24,1.28
				c-0.53-1.32-1.42-2.32-2.67-3.02c-1.25-0.69-2.63-1.04-4.16-1.04c-1.82,0-3.34,0.45-4.56,1.34
				C426.47,82.06,425.86,83.26,425.86,84.76z"/>
			<path d="M461.09,80.47h-7.95v17.35c0,1.53,0.28,2.63,0.85,3.31c0.57,0.68,1.44,1.06,2.62,1.15c1.17,0.09,2.67,0.05,4.48-0.13v2.4
				c-3.6,0.53-6.27,0.28-8.04-0.75c-1.76-1.03-2.64-3.02-2.64-5.98V80.47h-5.87v-2.62h5.87v-6.67l2.72-0.8v7.47h7.95V80.47z"/>
		</g>
	</g>
	<g>
		<path class="st0" d="M845.59,53.82h-15.4c-7.67-14.68-20.1-26.47-35.25-33.32c5.77,8.92,10.38,20.33,13.35,33.32H794.2
			c-5.57-23.52-16.68-39.63-29.51-39.88c-0.1,0-0.2,0-0.3,0c-0.1,0-0.2,0-0.3,0c-12.83,0.25-23.94,16.36-29.51,39.88h-14.09
			c2.97-12.99,7.58-24.4,13.36-33.32c-15.15,6.85-27.59,18.64-35.25,33.32h-15.4C696.57,22.19,727.89,0,764.39,0
			C800.89,0,832.21,22.19,845.59,53.82z"/>
		<g>
			<path class="st1" d="M583.04,69.63h17.19c4.11,0,7.74,0.78,10.89,2.35c3.15,1.57,5.6,3.77,7.35,6.62
				c1.75,2.85,2.62,6.16,2.62,9.94s-0.87,7.1-2.62,9.94c-1.75,2.85-4.2,5.05-7.35,6.62c-3.15,1.57-6.78,2.35-10.89,2.35h-17.19
				V69.63z M599.79,100.27c3.78,0,6.8-1.05,9.05-3.16c2.25-2.11,3.38-4.96,3.38-8.57c0-3.6-1.13-6.46-3.38-8.57
				c-2.25-2.11-5.27-3.16-9.05-3.16h-8v23.45H599.79z"/>
			<path class="st1" d="M640.78,105.57c-3.15-1.69-5.62-4.03-7.4-7c-1.78-2.97-2.68-6.31-2.68-10.02c0-3.71,0.89-7.05,2.68-10.02
				c1.78-2.97,4.25-5.3,7.4-7c3.15-1.69,6.69-2.54,10.62-2.54c3.93,0,7.46,0.85,10.59,2.54c3.13,1.69,5.6,4.03,7.4,7
				c1.8,2.97,2.7,6.31,2.7,10.02c0,3.71-0.9,7.05-2.7,10.02c-1.8,2.97-4.27,5.31-7.4,7c-3.13,1.69-6.67,2.54-10.59,2.54
				C647.48,108.11,643.94,107.26,640.78,105.57z M657.46,99.11c1.8-1.03,3.22-2.46,4.24-4.3c1.03-1.84,1.54-3.93,1.54-6.27
				c0-2.34-0.51-4.43-1.54-6.27c-1.03-1.84-2.44-3.27-4.24-4.3c-1.8-1.03-3.82-1.54-6.05-1.54c-2.23,0-4.25,0.51-6.05,1.54
				c-1.8,1.03-3.22,2.46-4.24,4.3c-1.03,1.84-1.54,3.93-1.54,6.27c0,2.34,0.51,4.43,1.54,6.27c1.03,1.84,2.44,3.27,4.24,4.3
				c1.8,1.03,3.82,1.54,6.05,1.54C653.64,100.65,655.65,100.14,657.46,99.11z"/>
			<path class="st1" d="M718.52,107.46l-0.05-22.7l-11.13,18.7h-3.94l-11.08-18.21v22.21h-8.21V69.63h7.24l14.16,23.51l13.94-23.51
				h7.19l0.11,37.83H718.52z"/>
			<polygon class="st1" points="761.65,69.63 753,69.63 736.14,107.46 745.11,107.46 757.27,78.22 769.37,107.46 778.56,107.46 			
				"/>
			<path class="st1" d="M787.91,69.63h8.75v37.83h-8.75V69.63z"/>
			<path class="st1" d="M845.73,69.63v37.83h-7.19l-18.86-22.97v22.97h-8.65V69.63h7.24l18.81,22.97V69.63H845.73z"/>
		</g>
		<g>
			<path class="st1" d="M686.52,124.94v10.08h13.27v2.35h-13.27v10.89h-2.71v-25.67h17.6v2.35H686.52z"/>
			<path class="st1" d="M714.66,146.78c-2.07-1.14-3.68-2.7-4.84-4.68c-1.16-1.98-1.74-4.2-1.74-6.67c0-2.47,0.58-4.69,1.74-6.67
				c1.16-1.98,2.77-3.54,4.84-4.68c2.07-1.14,4.37-1.7,6.91-1.7c2.54,0,4.83,0.56,6.88,1.69c2.04,1.12,3.65,2.68,4.82,4.68
				c1.17,1.99,1.76,4.22,1.76,6.69c0,2.47-0.59,4.7-1.76,6.69c-1.17,1.99-2.78,3.55-4.82,4.68c-2.04,1.12-4.33,1.69-6.88,1.69
				C719.03,148.48,716.73,147.91,714.66,146.78z M727.07,144.69c1.64-0.92,2.92-2.19,3.85-3.81c0.93-1.63,1.39-3.44,1.39-5.45
				c0-2-0.46-3.82-1.39-5.45c-0.93-1.63-2.21-2.9-3.85-3.81c-1.64-0.92-3.47-1.37-5.5-1.37c-2.03,0-3.87,0.46-5.52,1.37
				c-1.65,0.92-2.95,2.19-3.89,3.81c-0.94,1.63-1.41,3.44-1.41,5.45c0,2,0.47,3.82,1.41,5.45c0.94,1.63,2.24,2.9,3.89,3.81
				c1.65,0.92,3.49,1.37,5.52,1.37C723.6,146.06,725.44,145.6,727.07,144.69z"/>
			<path class="st1" d="M762.31,148.26l-5.87-8.25c-0.66,0.07-1.34,0.11-2.05,0.11h-6.89v8.14h-2.71v-25.67h9.61
				c3.28,0,5.84,0.78,7.7,2.35c1.86,1.56,2.79,3.72,2.79,6.45c0,2-0.51,3.7-1.52,5.08c-1.02,1.38-2.46,2.38-4.35,2.99l6.27,8.8
				H762.31z M760.15,136.13c1.34-1.12,2.02-2.7,2.02-4.73c0-2.08-0.67-3.67-2.02-4.78c-1.35-1.11-3.29-1.67-5.83-1.67h-6.82v12.87
				h6.82C756.86,137.81,758.8,137.25,760.15,136.13z"/>
			<path class="st1" d="M793.11,145.92v2.35h-18.15v-25.67h17.6v2.35h-14.89v9.13h13.27v2.31h-13.27v9.53H793.11z"/>
			<path class="st1" d="M804.75,147.57c-1.75-0.61-3.1-1.42-4.05-2.42l1.06-2.09c0.93,0.93,2.16,1.68,3.7,2.25
				c1.54,0.57,3.13,0.86,4.77,0.86c2.3,0,4.02-0.42,5.17-1.27c1.15-0.84,1.72-1.94,1.72-3.28c0-1.03-0.31-1.85-0.93-2.46
				c-0.62-0.61-1.39-1.08-2.29-1.41c-0.9-0.33-2.16-0.69-3.78-1.08c-1.93-0.49-3.47-0.96-4.62-1.41c-1.15-0.45-2.13-1.14-2.95-2.07
				c-0.82-0.93-1.23-2.19-1.23-3.78c0-1.3,0.34-2.48,1.03-3.54c0.68-1.06,1.74-1.91,3.15-2.55c1.42-0.64,3.18-0.95,5.28-0.95
				c1.47,0,2.9,0.2,4.31,0.61c1.41,0.4,2.62,0.96,3.65,1.67l-0.92,2.16c-1.08-0.71-2.22-1.24-3.45-1.6
				c-1.22-0.35-2.42-0.53-3.59-0.53c-2.25,0-3.94,0.43-5.08,1.3c-1.14,0.87-1.71,1.99-1.71,3.35c0,1.03,0.31,1.85,0.94,2.48
				c0.62,0.62,1.41,1.1,2.35,1.43c0.94,0.33,2.21,0.69,3.8,1.08c1.88,0.47,3.4,0.92,4.57,1.38c1.16,0.45,2.15,1.14,2.95,2.05
				c0.81,0.92,1.21,2.16,1.21,3.72c0,1.3-0.35,2.48-1.04,3.54c-0.7,1.06-1.77,1.91-3.21,2.53c-1.44,0.62-3.21,0.94-5.32,0.94
				C808.33,148.48,806.5,148.18,804.75,147.57z"/>
			<path class="st1" d="M834,124.94h-9.02v-2.35h20.75v2.35h-9.02v23.32H834V124.94z"/>
		</g>
		<path class="st0" d="M845.59,53.82h-15.4c-7.67-14.68-20.1-26.47-35.25-33.32c5.77,8.92,10.38,20.33,13.35,33.32H794.2
			c-5.57-23.52-16.68-39.63-29.51-39.88c-0.1,0-0.2,0-0.3,0c-0.1,0-0.2,0-0.3,0c-12.83,0.25-23.94,16.36-29.51,39.88h-14.09
			c2.97-12.99,7.58-24.4,13.36-33.32c-15.15,6.85-27.59,18.64-35.25,33.32h-15.4C696.57,22.19,727.89,0,764.39,0
			C800.89,0,832.21,22.19,845.59,53.82z"/>
		<g>
			<path class="st1" d="M583.04,69.63h17.19c4.11,0,7.74,0.78,10.89,2.35c3.15,1.57,5.6,3.77,7.35,6.62
				c1.75,2.85,2.62,6.16,2.62,9.94s-0.87,7.1-2.62,9.94c-1.75,2.85-4.2,5.05-7.35,6.62c-3.15,1.57-6.78,2.35-10.89,2.35h-17.19
				V69.63z M599.79,100.27c3.78,0,6.8-1.05,9.05-3.16c2.25-2.11,3.38-4.96,3.38-8.57c0-3.6-1.13-6.46-3.38-8.57
				c-2.25-2.11-5.27-3.16-9.05-3.16h-8v23.45H599.79z"/>
			<path class="st1" d="M640.78,105.57c-3.15-1.69-5.62-4.03-7.4-7c-1.78-2.97-2.68-6.31-2.68-10.02c0-3.71,0.89-7.05,2.68-10.02
				c1.78-2.97,4.25-5.3,7.4-7c3.15-1.69,6.69-2.54,10.62-2.54c3.93,0,7.46,0.85,10.59,2.54c3.13,1.69,5.6,4.03,7.4,7
				c1.8,2.97,2.7,6.31,2.7,10.02c0,3.71-0.9,7.05-2.7,10.02c-1.8,2.97-4.27,5.31-7.4,7c-3.13,1.69-6.67,2.54-10.59,2.54
				C647.48,108.11,643.94,107.26,640.78,105.57z M657.46,99.11c1.8-1.03,3.22-2.46,4.24-4.3c1.03-1.84,1.54-3.93,1.54-6.27
				c0-2.34-0.51-4.43-1.54-6.27c-1.03-1.84-2.44-3.27-4.24-4.3c-1.8-1.03-3.82-1.54-6.05-1.54c-2.23,0-4.25,0.51-6.05,1.54
				c-1.8,1.03-3.22,2.46-4.24,4.3c-1.03,1.84-1.54,3.93-1.54,6.27c0,2.34,0.51,4.43,1.54,6.27c1.03,1.84,2.44,3.27,4.24,4.3
				c1.8,1.03,3.82,1.54,6.05,1.54C653.64,100.65,655.65,100.14,657.46,99.11z"/>
			<path class="st1" d="M718.52,107.46l-0.05-22.7l-11.13,18.7h-3.94l-11.08-18.21v22.21h-8.21V69.63h7.24l14.16,23.51l13.94-23.51
				h7.19l0.11,37.83H718.52z"/>
			<polygon class="st1" points="761.65,69.63 753,69.63 736.14,107.46 745.11,107.46 757.27,78.22 769.37,107.46 778.56,107.46 			
				"/>
			<path class="st1" d="M787.91,69.63h8.75v37.83h-8.75V69.63z"/>
			<path class="st1" d="M845.73,69.63v37.83h-7.19l-18.86-22.97v22.97h-8.65V69.63h7.24l18.81,22.97V69.63H845.73z"/>
		</g>
		<g>
			<path class="st1" d="M686.52,124.94v10.08h13.27v2.35h-13.27v10.89h-2.71v-25.67h17.6v2.35H686.52z"/>
			<path class="st1" d="M714.66,146.78c-2.07-1.14-3.68-2.7-4.84-4.68c-1.16-1.98-1.74-4.2-1.74-6.67c0-2.47,0.58-4.69,1.74-6.67
				c1.16-1.98,2.77-3.54,4.84-4.68c2.07-1.14,4.37-1.7,6.91-1.7c2.54,0,4.83,0.56,6.88,1.69c2.04,1.12,3.65,2.68,4.82,4.68
				c1.17,1.99,1.76,4.22,1.76,6.69c0,2.47-0.59,4.7-1.76,6.69c-1.17,1.99-2.78,3.55-4.82,4.68c-2.04,1.12-4.33,1.69-6.88,1.69
				C719.03,148.48,716.73,147.91,714.66,146.78z M727.07,144.69c1.64-0.92,2.92-2.19,3.85-3.81c0.93-1.63,1.39-3.44,1.39-5.45
				c0-2-0.46-3.82-1.39-5.45c-0.93-1.63-2.21-2.9-3.85-3.81c-1.64-0.92-3.47-1.37-5.5-1.37c-2.03,0-3.87,0.46-5.52,1.37
				c-1.65,0.92-2.95,2.19-3.89,3.81c-0.94,1.63-1.41,3.44-1.41,5.45c0,2,0.47,3.82,1.41,5.45c0.94,1.63,2.24,2.9,3.89,3.81
				c1.65,0.92,3.49,1.37,5.52,1.37C723.6,146.06,725.44,145.6,727.07,144.69z"/>
			<path class="st1" d="M762.31,148.26l-5.87-8.25c-0.66,0.07-1.34,0.11-2.05,0.11h-6.89v8.14h-2.71v-25.67h9.61
				c3.28,0,5.84,0.78,7.7,2.35c1.86,1.56,2.79,3.72,2.79,6.45c0,2-0.51,3.7-1.52,5.08c-1.02,1.38-2.46,2.38-4.35,2.99l6.27,8.8
				H762.31z M760.15,136.13c1.34-1.12,2.02-2.7,2.02-4.73c0-2.08-0.67-3.67-2.02-4.78c-1.35-1.11-3.29-1.67-5.83-1.67h-6.82v12.87
				h6.82C756.86,137.81,758.8,137.25,760.15,136.13z"/>
			<path class="st1" d="M793.11,145.92v2.35h-18.15v-25.67h17.6v2.35h-14.89v9.13h13.27v2.31h-13.27v9.53H793.11z"/>
			<path class="st1" d="M804.75,147.57c-1.75-0.61-3.1-1.42-4.05-2.42l1.06-2.09c0.93,0.93,2.16,1.68,3.7,2.25
				c1.54,0.57,3.13,0.86,4.77,0.86c2.3,0,4.02-0.42,5.17-1.27c1.15-0.84,1.72-1.94,1.72-3.28c0-1.03-0.31-1.85-0.93-2.46
				c-0.62-0.61-1.39-1.08-2.29-1.41c-0.9-0.33-2.16-0.69-3.78-1.08c-1.93-0.49-3.47-0.96-4.62-1.41c-1.15-0.45-2.13-1.14-2.95-2.07
				c-0.82-0.93-1.23-2.19-1.23-3.78c0-1.3,0.34-2.48,1.03-3.54c0.68-1.06,1.74-1.91,3.15-2.55c1.42-0.64,3.18-0.95,5.28-0.95
				c1.47,0,2.9,0.2,4.31,0.61c1.41,0.4,2.62,0.96,3.65,1.67l-0.92,2.16c-1.08-0.71-2.22-1.24-3.45-1.6
				c-1.22-0.35-2.42-0.53-3.59-0.53c-2.25,0-3.94,0.43-5.08,1.3c-1.14,0.87-1.71,1.99-1.71,3.35c0,1.03,0.31,1.85,0.94,2.48
				c0.62,0.62,1.41,1.1,2.35,1.43c0.94,0.33,2.21,0.69,3.8,1.08c1.88,0.47,3.4,0.92,4.57,1.38c1.16,0.45,2.15,1.14,2.95,2.05
				c0.81,0.92,1.21,2.16,1.21,3.72c0,1.3-0.35,2.48-1.04,3.54c-0.7,1.06-1.77,1.91-3.21,2.53c-1.44,0.62-3.21,0.94-5.32,0.94
				C808.33,148.48,806.5,148.18,804.75,147.57z"/>
			<path class="st1" d="M834,124.94h-9.02v-2.35h20.75v2.35h-9.02v23.32H834V124.94z"/>
		</g>
	</g>
	<path d="M545.03,90.08l-8.65-4.99c-0.86-0.5-1.94,0.12-1.94,1.12v3.54h-27.17c-0.51,0-0.93,0.42-0.93,0.93v1.04
		c0,0.51,0.42,0.93,0.93,0.93h27.17v3.54c0,0.99,1.08,1.62,1.94,1.12l8.65-4.99C545.89,91.82,545.89,90.58,545.03,90.08z"/>
</g>
</svg>
