<?xml version="1.0" encoding="utf-8"?>
<!-- Generator: Adobe Illustrator 26.3.1, SVG Export Plug-In . SVG Version: 6.00 Build 0)  -->
<svg version="1.1" id="Layer_1" xmlns="http://www.w3.org/2000/svg" xmlns:xlink="http://www.w3.org/1999/xlink" x="0px" y="0px"
	 viewBox="0 0 738.1 216.6" style="enable-background:new 0 0 738.1 216.6;" xml:space="preserve">
<style type="text/css">
	.st0{fill:#4EED14;}
	.st1{fill:#232323;}
</style>
<g>
	<path class="st0" d="M152,70.5L152,70.5c2.3-4,2.7-8.9,1-13.3L134,9.2c-4.5-11.3-20-12.4-26-1.9L2.1,192.4
		c-7.3,12.7,6,27.3,19.4,21.3l52.3-23.8c8.3-3.8,18-2.8,25.4,2.6l26.3,19.1c12.8,9.3,30.7,5.4,38.6-8.3l25.8-45
		c5.3-9.3,4.5-20.9-2-29.4L152.9,84C149.9,80.1,149.6,74.8,152,70.5z M104.8,179.8l-7.1-5.2c-2.1-1.5-2.7-4.4-1.4-6.7l43.5-76
		c1.8-3.2,6.3-3.5,8.5-0.6l5.8,7.5c1.3,1.6,1.4,3.9,0.4,5.7l-42.1,73.6C110.7,180.9,107.2,181.6,104.8,179.8z"/>
	<g>
		<g>
			<path class="st1" d="M341.2,122.1c0,20.4-16.2,33.7-39.1,33.7h-63.7l3.9-16.2l5.8-1.9c2-0.5,4-2.3,4.4-3.9l13.8-55.5
				c0.4-1.6,0.2-1.6-1.5-2l-6.2-0.9l4-16.2h62.3c18.6,0,23.1,10.6,23.1,19.7c0,14.1-10.2,21.9-18.1,25.3
				C336.2,106.4,341.2,111.9,341.2,122.1z M309.8,120.5c0-3.4-1.2-7.2-8.6-7.2h-12.5l-6.3,25.1h11.1
				C302.2,138.4,309.8,130.1,309.8,120.5z M317,80.8c0-3.7-1.5-6.2-8.8-6.2h-9.8l-5.7,22.6h8.3C308.6,97.2,317,90.5,317,80.8z"/>
			<path class="st1" d="M486.3,94.3h-21.2l0.7-14.3c0.1-2.5-0.4-3.8-2.8-3.8h-17.7l-5.3,21.4h20.4l-4.5,18.3h-20.5l-4.8,19.3
				c-0.4,1.7,0.2,2.5,1.9,2.8l6.5,1.5l-4,16.2h-50.3l4-16.2l6.2-1.5c1.9-0.4,3-1.4,3.4-3l13.9-55.5c0.4-1.6-0.2-2.4-1.9-2.8
				l-5.6-1.5l4-16.2h86.3L486.3,94.3z"/>
			<path class="st1" d="M519.6,138.5l4.7,1l-4,16.2h-15.8c-14.2,0-18.6-7.9-15.9-19.2l8.5-31.8c0.4-1.6,0-2.5-1.3-2.8l-5.7-1l4-16.2
				h37.2l-12.7,51C518.1,137.5,518.4,138.2,519.6,138.5z M537.8,59.1L533,78.5h-29.2l4.8-19.3H537.8z"/>
			<path class="st1" d="M562.9,134.5c-1.2,5,0.8,5.7,4.3,5.7c4.5,0,8.1-0.7,11.1-1.2l-4,16.3c-4.4,1-12.7,2.2-22.3,2.2
				c-16.7,0-21.9-7.8-17.7-24l7.4-29.7c-0.1-0.9-0.5-1.6-1.5-1.7l-5.5-1l4-16.2h7.7l7.3-17.2h26l-4.3,17.2h16.1l-4,16.2h-16.2
				L562.9,134.5z"/>
		</g>
		<polygon class="st0" points="362.2,97.2 358.2,113.4 385.6,113.4 389.7,97.2 		"/>
	</g>
	<g>
		<path class="st0" d="M650.1,127.4c-2.4,0-4.6-0.4-6.7-1.3c-2.1-0.8-3.9-2.1-5.5-3.7c-1.6-1.6-2.8-3.6-3.7-6
			c-0.9-2.4-1.3-5.1-1.3-8.1c0-4,0.7-7.4,2.2-10.3s3.5-5,6.1-6.5c2.6-1.5,5.5-2.3,8.8-2.3c4.5,0,8.1,1,10.7,3.1
			c2.6,2.1,4.4,5,5.4,8.8l-6.3,1c-0.7-2.2-1.8-3.9-3.4-5.2c-1.6-1.3-3.6-1.9-6-1.9c-2.5,0-4.5,0.5-6.1,1.6c-1.6,1.1-2.9,2.7-3.7,4.7
			c-0.8,2-1.2,4.3-1.2,7c0,2.7,0.4,5,1.2,7c0.8,2,2,3.5,3.7,4.6c1.6,1.1,3.7,1.7,6.1,1.7c1.8,0,3.5-0.3,4.9-1
			c1.4-0.7,2.5-1.7,3.4-3.1c0.9-1.4,1.5-3.1,1.8-5.3H654v-4.8h13c0,0.3,0.1,0.7,0.1,1.2c0,0.5,0,0.8,0,0.9c0,3.5-0.7,6.5-2,9.2
			c-1.4,2.7-3.3,4.8-5.9,6.3C656.6,126.6,653.6,127.4,650.1,127.4z"/>
		<path class="st0" d="M679.6,126.6v-15L667.1,90h7.1l8.4,14.6l8.4-14.6h7.1l-12.4,21.6v15H679.6z"/>
		<path class="st0" d="M701.8,126.6V90h5.5l12.7,25.9L732.6,90h5.5v36.6h-5.7v-23.5l-11.2,23.5h-2.4l-11.2-23.5v23.5H701.8z"/>
	</g>
</g>
</svg>
