<?xml version="1.0" encoding="utf-8"?>
<!-- Generator: Adobe Illustrator 26.3.1, SVG Export Plug-In . SVG Version: 6.00 Build 0)  -->
<svg version="1.1" id="Layer_1" xmlns="http://www.w3.org/2000/svg" xmlns:xlink="http://www.w3.org/1999/xlink" x="0px" y="0px"
	 viewBox="0 0 107.5 120.5" style="enable-background:new 0 0 107.5 120.5;" xml:space="preserve">
<style type="text/css">
	.st0{fill:#4EED14;}
	.st1{fill:#232323;}
</style>
<path class="st0" d="M84.6,39.2L84.6,39.2c1.3-2.3,1.5-5,0.5-7.4L74.6,5.1c-2.5-6.3-11.1-6.9-14.5-1l-58.9,103
	c-4.1,7.1,3.3,15.2,10.8,11.8L41,105.7c4.6-2.1,10-1.6,14.2,1.4l14.6,10.6c7.1,5.2,17.1,3,21.5-4.6l14.3-25c3-5.2,2.5-11.6-1.1-16.3
	l-19.3-25C83.4,44.6,83.2,41.6,84.6,39.2z M58.3,100.1l-4-2.9c-1.2-0.9-1.5-2.5-0.8-3.7l24.2-42.3c1-1.8,3.5-1.9,4.7-0.3l3.2,4.2
	c0.7,0.9,0.8,2.2,0.2,3.2l-23.4,41C61.6,100.6,59.7,101.1,58.3,100.1z"/>
</svg>
