<?xml version="1.0" encoding="utf-8"?>
<!-- Generator: Adobe Illustrator 26.3.1, SVG Export Plug-In . SVG Version: 6.00 Build 0)  -->
<svg version="1.1" id="Layer_1" xmlns="http://www.w3.org/2000/svg" xmlns:xlink="http://www.w3.org/1999/xlink" x="0px" y="0px"
	 viewBox="0 0 351.3 128.7" style="enable-background:new 0 0 351.3 128.7;" xml:space="preserve">
<style type="text/css">
	.st0{fill:#4EED14;}
	.st1{fill:#232323;}
</style>
<g>
	<path class="st0" d="M90.3,41.9L90.3,41.9c1.4-2.4,1.6-5.3,0.6-7.9L79.6,5.5C77-1.3,67.7-1.9,64.1,4.3L1.2,114.3
		c-4.3,7.6,3.6,16.2,11.5,12.6l31.1-14.1c4.9-2.2,10.7-1.7,15.1,1.5l15.6,11.3c7.6,5.5,18.2,3.2,22.9-4.9L112.7,94
		c3.2-5.5,2.7-12.4-1.2-17.4L90.8,49.9C89,47.6,88.8,44.4,90.3,41.9z M62.2,106.8l-4.2-3.1c-1.3-0.9-1.6-2.6-0.9-4L83,54.7
		c1.1-1.9,3.7-2.1,5-0.4l3.4,4.4c0.8,1,0.8,2.3,0.2,3.4l-25,43.7C65.7,107.4,63.7,107.9,62.2,106.8z"/>
	<g>
		<g>
			<path class="st1" d="M202.7,72.5c0,12.1-9.6,20-23.3,20h-37.8l2.3-9.6l3.4-1.1c1.2-0.3,2.4-1.4,2.6-2.3l8.2-33
				c0.2-1,0.1-1-0.9-1.2l-3.7-0.6l2.4-9.6h37c11,0,13.7,6.3,13.7,11.7c0,8.4-6,13-10.7,15C199.7,63.2,202.7,66.5,202.7,72.5z
				 M184,71.6c0-2-0.7-4.3-5.1-4.3h-7.4l-3.7,14.9h6.6C179.5,82.2,184,77.3,184,71.6z M188.3,48c0-2.2-0.9-3.7-5.2-3.7h-5.8
				l-3.4,13.4h4.9C183.3,57.7,188.3,53.8,188.3,48z"/>
			<path class="st1" d="M288.9,56h-12.6l0.4-8.5c0.1-1.5-0.3-2.3-1.7-2.3h-10.5L261.4,58h12.1l-2.7,10.9h-12.1l-2.9,11.5
				c-0.3,1,0.1,1.5,1.1,1.7l3.8,0.9l-2.4,9.6h-29.9l2.4-9.6l3.7-0.9c1.1-0.2,1.8-0.8,2-1.8l8.2-33c0.2-1-0.1-1.4-1.1-1.7l-3.3-0.9
				l2.4-9.6h51.3L288.9,56z"/>
			<path class="st1" d="M308.6,82.3l2.8,0.6l-2.4,9.6h-9.4c-8.5,0-11.1-4.7-9.4-11.4l5-18.9c0.3-1,0-1.5-0.8-1.6l-3.4-0.6l2.4-9.6
				h22.1L308,80.7C307.8,81.6,307.9,82.1,308.6,82.3z M319.4,35.1l-2.8,11.5h-17.4l2.9-11.5H319.4z"/>
			<path class="st1" d="M334.3,79.9c-0.7,3,0.5,3.4,2.6,3.4c2.7,0,4.8-0.4,6.6-0.7l-2.4,9.7c-2.6,0.6-7.5,1.3-13.3,1.3
				c-9.9,0-13-4.6-10.5-14.2l4.4-17.7c0-0.6-0.3-0.9-0.9-1l-3.3-0.6l2.4-9.6h4.6l4.4-10.2h15.4l-2.6,10.2h9.5l-2.4,9.6h-9.6
				L334.3,79.9z"/>
		</g>
		<polygon class="st0" points="215.1,57.7 212.7,67.3 229.1,67.3 231.4,57.7 		"/>
	</g>
</g>
</svg>
