<?xml version="1.0" encoding="utf-8"?>
<!-- Generator: Adobe Illustrator 26.3.1, SVG Export Plug-In . SVG Version: 6.00 Build 0)  -->
<svg version="1.1" id="Layer_1" xmlns="http://www.w3.org/2000/svg" xmlns:xlink="http://www.w3.org/1999/xlink" x="0px" y="0px"
	 viewBox="0 0 302.8 338.4" style="enable-background:new 0 0 302.8 338.4;" xml:space="preserve">
<style type="text/css">
	.st0{fill:#4EED14;}
</style>
<g>
	<path class="st0" d="M219.1,338.4c-9.3,0-18.5-2.9-26.1-8.5l-40.1-29.1c-10.1-7.3-23.4-8.7-34.8-3.5l-79.7,36.2
		c-10.9,5-23.1,2.4-31.2-6.4c-8.1-8.8-9.4-21.3-3.5-31.6L165.2,13.1c5-8.8,14.4-13.8,24.5-13.1c10.1,0.7,18.7,7,22.4,16.5L241,89.8
		c3.1,7.8,2.4,16.4-1.7,23.7c-2.9,5.1-2.5,11.5,1.1,16.1l53,68.5c11,14.3,12.4,33.6,3.4,49.2l-39.3,68.6
		c-6.3,10.9-16.9,18.7-29.2,21.4C225.3,338.1,222.2,338.4,219.1,338.4z M132.4,286.2c8.9,0,17.7,2.8,25.1,8.2l40.1,29.1
		c8.4,6.1,18.9,8.3,29,6.1c10.1-2.2,18.8-8.5,24-17.5l39.3-68.6c7.3-12.8,6.2-28.7-2.8-40.3l-53-68.5c-5.6-7.2-6.3-17.1-1.7-25h0
		c2.9-5.1,3.4-11.3,1.2-16.8l-28.9-73.3c-2.6-6.6-8.4-10.9-15.5-11.4c-7.1-0.5-13.5,2.9-17,9.1L10.6,299.5
		c-5.1,8.9-2.1,17.3,2.5,22.3c4.5,5,12.7,8.7,22,4.5l79.7-36.2C120.4,287.5,126.4,286.2,132.4,286.2z M168.4,283.8
		c-2.5,0-4.9-0.8-6.9-2.3l-10.8-7.9c-4.9-3.5-6.3-10.2-3.3-15.4l66.3-115.9c2-3.4,5.5-5.6,9.4-5.9c3.9-0.3,7.7,1.4,10.2,4.6
		l8.8,11.4c2.9,3.8,3.3,8.9,0.9,13.1l-64.3,112.3c-1.7,2.9-4.5,5-7.8,5.7C170,283.7,169.2,283.8,168.4,283.8z M166.1,275.1
		c0.9,0.6,2,0.9,3,0.6c1.1-0.2,2-0.9,2.5-1.8l64.3-112.3c0.8-1.3,0.7-3-0.3-4.2l-8.8-11.4c-0.8-1-2-1.6-3.3-1.5
		c-1.3,0.1-2.4,0.8-3,1.9l-66.3,115.9c-1,1.7-0.5,3.8,1.1,5L166.1,275.1z"/>
</g>
<g>
</g>
<g>
</g>
<g>
</g>
<g>
</g>
<g>
</g>
<g>
</g>
<g>
</g>
<g>
</g>
<g>
</g>
<g>
</g>
<g>
</g>
<g>
</g>
<g>
</g>
<g>
</g>
<g>
</g>
</svg>
