<?xml version="1.0" encoding="utf-8"?>
<!-- Generator: Adobe Illustrator 26.3.1, SVG Export Plug-In . SVG Version: 6.00 Build 0)  -->
<svg version="1.1" id="Layer_1" xmlns="http://www.w3.org/2000/svg" xmlns:xlink="http://www.w3.org/1999/xlink" x="0px" y="0px"
	 viewBox="0 0 684.6 245.8" style="enable-background:new 0 0 684.6 245.8;" xml:space="preserve">
<style type="text/css">
	.st0{opacity:0.5;}
	.st1{fill:#E6E6E6;}
	.st2{fill:none;stroke:#FFFFFF;stroke-miterlimit:10;}
	.st3{fill:#FFFFFF;}
</style>
<g>
	<g class="st0">
		<path class="st1" d="M189.7,92.8L189.7,92.8c1.7-3.1,2-6.7,0.7-10l-14.3-36.2c-3.4-8.5-15.1-9.4-19.6-1.4L76.7,184.7
			c-5.5,9.6,4.5,20.6,14.6,16l39.4-17.9c6.3-2.9,13.6-2.1,19.2,1.9l19.8,14.4c9.6,7,23.2,4.1,29.1-6.2l19.4-33.9
			c4-7,3.4-15.7-1.5-22.1L190.4,103C188.2,100.1,187.9,96,189.7,92.8z M154.1,175.2l-5.4-3.9c-1.6-1.2-2.1-3.3-1.1-5l32.8-57.2
			c1.4-2.4,4.7-2.6,6.4-0.4l4.4,5.6c1,1.2,1.1,2.9,0.3,4.3L159.7,174C158.6,176,156,176.6,154.1,175.2z"/>
		<g>
			<g>
				<path class="st1" d="M332.3,131.7c0,15.4-12.2,25.4-29.5,25.4h-48l2.9-12.2l4.3-1.4c1.5-0.4,3-1.7,3.3-2.9l10.4-41.8
					c0.3-1.2,0.1-1.2-1.1-1.5l-4.7-0.7l3-12.2h47c14,0,17.4,8,17.4,14.8c0,10.6-7.7,16.5-13.6,19C328.6,119.9,332.3,124,332.3,131.7
					z M308.6,130.5c0-2.6-0.9-5.4-6.5-5.4h-9.4L288,144h8.3C302.9,144,308.6,137.8,308.6,130.5z M314,100.6c0-2.8-1.1-4.7-6.6-4.7
					H300l-4.3,17.1h6.3C307.7,112.9,314,107.9,314,100.6z"/>
				<path class="st1" d="M441.7,110.8h-16l0.5-10.8c0.1-1.9-0.3-2.9-2.1-2.9h-13.3l-4,16.1h15.4l-3.4,13.8h-15.4l-3.6,14.5
					c-0.3,1.3,0.2,1.9,1.4,2.1l4.9,1.1l-3.1,12.2h-37.9l3.1-12.2l4.7-1.1c1.4-0.3,2.3-1,2.6-2.2l10.4-41.8c0.3-1.2-0.2-1.8-1.4-2.1
					l-4.2-1.1l3.1-12.2h65L441.7,110.8z"/>
				<path class="st1" d="M466.7,144.1l3.6,0.8l-3,12.2h-11.9c-10.7,0-14-6-12-14.5l6.4-23.9c0.3-1.2,0-1.9-1-2.1l-4.3-0.7l3-12.2
					h28.1l-9.6,38.4C465.6,143.3,465.8,143.9,466.7,144.1z M480.4,84.3l-3.6,14.6h-22l3.6-14.6H480.4z"/>
				<path class="st1" d="M499.4,141c-0.9,3.7,0.6,4.3,3.3,4.3c3.4,0,6.1-0.5,8.3-0.9l-3,12.3c-3.3,0.8-9.6,1.7-16.8,1.7
					c-12.6,0-16.5-5.9-13.4-18.1l5.6-22.4c0-0.7-0.4-1.2-1.1-1.3l-4.2-0.7l3-12.2h5.8l5.5-13H512l-3.2,13h12.1l-3,12.2h-12.2
					L499.4,141z"/>
			</g>
			<polygon class="st1" points="348.1,112.9 345.1,125.1 365.8,125.1 368.8,112.9 			"/>
		</g>
		<g>
			<path class="st1" d="M570.2,138.3c-2.1,0-4.1-0.4-6-1.1c-1.9-0.7-3.5-1.8-4.9-3.3c-1.4-1.5-2.5-3.2-3.3-5.3
				c-0.8-2.1-1.2-4.5-1.2-7.3c0-3.6,0.7-6.6,2-9.2c1.3-2.5,3.2-4.5,5.5-5.8c2.3-1.4,4.9-2,7.8-2c4,0,7.2,0.9,9.6,2.8
				c2.4,1.9,3.9,4.5,4.8,7.9l-5.6,0.9c-0.6-1.9-1.6-3.5-3-4.6c-1.4-1.2-3.2-1.7-5.4-1.7c-2.2,0-4,0.4-5.5,1.4s-2.5,2.4-3.3,4.2
				c-0.7,1.8-1.1,3.9-1.1,6.3c0,2.4,0.4,4.5,1.1,6.2c0.7,1.8,1.8,3.1,3.3,4.1c1.5,1,3.3,1.5,5.5,1.5c1.6,0,3.1-0.3,4.3-0.9
				c1.2-0.6,2.3-1.5,3-2.8c0.8-1.2,1.3-2.8,1.6-4.7h-5.8v-4.3h11.6c0,0.2,0.1,0.6,0.1,1.1s0,0.7,0,0.8c0,3.1-0.6,5.8-1.8,8.2
				c-1.2,2.4-3,4.3-5.2,5.6C576.1,137.7,573.3,138.3,570.2,138.3z"/>
			<path class="st1" d="M596.5,137.7v-13.4L585.4,105h6.4l7.5,13l7.5-13h6.4L602,124.3v13.4H596.5z"/>
			<path class="st1" d="M616.3,137.7V105h4.9l11.3,23.1l11.3-23.1h4.9v32.7h-5.1v-20.9l-10,20.9h-2.2l-10-20.9v20.9H616.3z"/>
		</g>
	</g>
	<line class="st2" x1="199" y1="104.4" x2="157.9" y2="0.2"/>
	<line class="st2" x1="45.6" y1="239.1" x2="182.1" y2="0.6"/>
	<line class="st2" x1="18.1" y1="234" x2="179.2" y2="160.8"/>
	<line class="st2" x1="242.7" y1="170.6" x2="171.9" y2="79"/>
	<line class="st2" x1="236.3" y1="172.7" x2="167.4" y2="83.5"/>
	<line class="st2" x1="213" y1="230.6" x2="129.7" y2="170.1"/>
	<line class="st2" x1="221.9" y1="224.5" x2="129.7" y2="157.6"/>
	<line class="st2" x1="199.6" y1="75.6" x2="128.6" y2="199.7"/>
	<line class="st2" x1="208.2" y1="89.3" x2="140.9" y2="206.9"/>
	<line class="st2" x1="236.9" y1="126.2" x2="177.4" y2="230.2"/>
	<line class="st2" x1="0" y1="39.9" x2="684.6" y2="39.9"/>
	<line class="st2" x1="273" y1="84.3" x2="684.6" y2="84.3"/>
	<line class="st2" x1="254.8" y1="157.1" x2="684.6" y2="157.1"/>
	<line class="st2" x1="554.9" y1="104.3" x2="669.2" y2="104.3"/>
	<line class="st2" x1="554.9" y1="137.7" x2="669.2" y2="137.7"/>
	<line class="st2" x1="220.8" y1="15.4" x2="220.8" y2="245.8"/>
	<line class="st2" x1="254.8" y1="15.4" x2="254.8" y2="245.8"/>
	<line class="st2" x1="520.8" y1="15.4" x2="520.8" y2="245.8"/>
	<line class="st2" x1="554.9" y1="15.4" x2="554.9" y2="245.8"/>
	<line class="st2" x1="0" y1="202.9" x2="684.6" y2="202.9"/>
	<g>
		<path class="st3" d="M237.3,220.7L237.3,220.7l-4.2-6.5h3.2l2.8,4.7h0.1l2.8-4.7h3.1l-4.3,6.5v0l4.3,6.6H242l-2.9-4.6H239
			l-2.9,4.6h-3L237.3,220.7z"/>
	</g>
	<g>
		<path class="st3" d="M538.5,220.7L538.5,220.7l-4.2-6.5h3.2l2.8,4.7h0.1l2.8-4.7h3.1l-4.3,6.5v0l4.3,6.6h-3.1l-2.9-4.6h-0.1
			l-2.9,4.6h-3L538.5,220.7z"/>
	</g>
	<g>
		<path class="st3" d="M666,121.5L666,121.5l-4.2-6.5h3.2l2.8,4.7h0.1l2.8-4.7h3.1l-4.3,6.5v0l4.3,6.6h-3.1l-2.9-4.6h-0.1l-2.9,4.6
			h-3L666,121.5z"/>
	</g>
	<g class="st0">
		<path class="st1" d="M189.7,92.8L189.7,92.8c1.7-3.1,2-6.7,0.7-10l-14.3-36.2c-3.4-8.5-15.1-9.4-19.6-1.4L76.7,184.7
			c-5.5,9.6,4.5,20.6,14.6,16l39.4-17.9c6.3-2.9,13.6-2.1,19.2,1.9l19.8,14.4c9.6,7,23.2,4.1,29.1-6.2l19.4-33.9
			c4-7,3.4-15.7-1.5-22.1L190.4,103C188.2,100.1,187.9,96,189.7,92.8z M154.1,175.2l-5.4-3.9c-1.6-1.2-2.1-3.3-1.1-5l32.8-57.2
			c1.4-2.4,4.7-2.6,6.4-0.4l4.4,5.6c1,1.2,1.1,2.9,0.3,4.3L159.7,174C158.6,176,156,176.6,154.1,175.2z"/>
		<g>
			<g>
				<path class="st1" d="M332.3,131.7c0,15.4-12.2,25.4-29.5,25.4h-48l2.9-12.2l4.3-1.4c1.5-0.4,3-1.7,3.3-2.9l10.4-41.8
					c0.3-1.2,0.1-1.2-1.1-1.5l-4.7-0.7l3-12.2h47c14,0,17.4,8,17.4,14.8c0,10.6-7.7,16.5-13.6,19C328.6,119.9,332.3,124,332.3,131.7
					z M308.6,130.5c0-2.6-0.9-5.4-6.5-5.4h-9.4L288,144h8.3C302.9,144,308.6,137.8,308.6,130.5z M314,100.6c0-2.8-1.1-4.7-6.6-4.7
					H300l-4.3,17.1h6.3C307.7,112.9,314,107.9,314,100.6z"/>
				<path class="st1" d="M441.7,110.8h-16l0.5-10.8c0.1-1.9-0.3-2.9-2.1-2.9h-13.3l-4,16.1h15.4l-3.4,13.8h-15.4l-3.6,14.5
					c-0.3,1.3,0.2,1.9,1.4,2.1l4.9,1.1l-3.1,12.2h-37.9l3.1-12.2l4.7-1.1c1.4-0.3,2.3-1,2.6-2.2l10.4-41.8c0.3-1.2-0.2-1.8-1.4-2.1
					l-4.2-1.1l3.1-12.2h65L441.7,110.8z"/>
				<path class="st1" d="M466.7,144.1l3.6,0.8l-3,12.2h-11.9c-10.7,0-14-6-12-14.5l6.4-23.9c0.3-1.2,0-1.9-1-2.1l-4.3-0.7l3-12.2
					h28.1l-9.6,38.4C465.6,143.3,465.8,143.9,466.7,144.1z M480.4,84.3l-3.6,14.6h-22l3.6-14.6H480.4z"/>
				<path class="st1" d="M499.4,141c-0.9,3.7,0.6,4.3,3.3,4.3c3.4,0,6.1-0.5,8.3-0.9l-3,12.3c-3.3,0.8-9.6,1.7-16.8,1.7
					c-12.6,0-16.5-5.9-13.4-18.1l5.6-22.4c0-0.7-0.4-1.2-1.1-1.3l-4.2-0.7l3-12.2h5.8l5.5-13H512l-3.2,13h12.1l-3,12.2h-12.2
					L499.4,141z"/>
			</g>
			<polygon class="st1" points="348.1,112.9 345.1,125.1 365.8,125.1 368.8,112.9 			"/>
		</g>
		<g>
			<path class="st1" d="M570.2,138.3c-2.1,0-4.1-0.4-6-1.1c-1.9-0.7-3.5-1.8-4.9-3.3c-1.4-1.5-2.5-3.2-3.3-5.3
				c-0.8-2.1-1.2-4.5-1.2-7.3c0-3.6,0.7-6.6,2-9.2c1.3-2.5,3.2-4.5,5.5-5.8c2.3-1.4,4.9-2,7.8-2c4,0,7.2,0.9,9.6,2.8
				c2.4,1.9,3.9,4.5,4.8,7.9l-5.6,0.9c-0.6-1.9-1.6-3.5-3-4.6c-1.4-1.2-3.2-1.7-5.4-1.7c-2.2,0-4,0.4-5.5,1.4s-2.5,2.4-3.3,4.2
				c-0.7,1.8-1.1,3.9-1.1,6.3c0,2.4,0.4,4.5,1.1,6.2c0.7,1.8,1.8,3.1,3.3,4.1c1.5,1,3.3,1.5,5.5,1.5c1.6,0,3.1-0.3,4.3-0.9
				c1.2-0.6,2.3-1.5,3-2.8c0.8-1.2,1.3-2.8,1.6-4.7h-5.8v-4.3h11.6c0,0.2,0.1,0.6,0.1,1.1s0,0.7,0,0.8c0,3.1-0.6,5.8-1.8,8.2
				c-1.2,2.4-3,4.3-5.2,5.6C576.1,137.7,573.3,138.3,570.2,138.3z"/>
			<path class="st1" d="M596.5,137.7v-13.4L585.4,105h6.4l7.5,13l7.5-13h6.4L602,124.3v13.4H596.5z"/>
			<path class="st1" d="M616.3,137.7V105h4.9l11.3,23.1l11.3-23.1h4.9v32.7h-5.1v-20.9l-10,20.9h-2.2l-10-20.9v20.9H616.3z"/>
		</g>
	</g>
	<line class="st2" x1="199" y1="104.4" x2="157.9" y2="0.2"/>
	<line class="st2" x1="45.6" y1="239.1" x2="182.1" y2="0.6"/>
	<line class="st2" x1="18.1" y1="234" x2="179.2" y2="160.8"/>
	<line class="st2" x1="242.7" y1="170.6" x2="171.9" y2="79"/>
	<line class="st2" x1="236.3" y1="172.7" x2="167.4" y2="83.5"/>
	<line class="st2" x1="213" y1="230.6" x2="129.7" y2="170.1"/>
	<line class="st2" x1="221.9" y1="224.5" x2="129.7" y2="157.6"/>
	<line class="st2" x1="199.6" y1="75.6" x2="128.6" y2="199.7"/>
	<line class="st2" x1="208.2" y1="89.3" x2="140.9" y2="206.9"/>
	<line class="st2" x1="236.9" y1="126.2" x2="177.4" y2="230.2"/>
	<line class="st2" x1="0" y1="39.9" x2="684.6" y2="39.9"/>
	<line class="st2" x1="273" y1="84.3" x2="684.6" y2="84.3"/>
	<line class="st2" x1="254.8" y1="157.1" x2="684.6" y2="157.1"/>
	<line class="st2" x1="554.9" y1="104.3" x2="669.2" y2="104.3"/>
	<line class="st2" x1="554.9" y1="137.7" x2="669.2" y2="137.7"/>
	<line class="st2" x1="220.8" y1="15.4" x2="220.8" y2="245.8"/>
	<line class="st2" x1="254.8" y1="15.4" x2="254.8" y2="245.8"/>
	<line class="st2" x1="520.8" y1="15.4" x2="520.8" y2="245.8"/>
	<line class="st2" x1="554.9" y1="15.4" x2="554.9" y2="245.8"/>
	<line class="st2" x1="0" y1="202.9" x2="684.6" y2="202.9"/>
	<g>
		<path class="st3" d="M237.3,220.7L237.3,220.7l-4.2-6.5h3.2l2.8,4.7h0.1l2.8-4.7h3.1l-4.3,6.5v0l4.3,6.6H242l-2.9-4.6H239
			l-2.9,4.6h-3L237.3,220.7z"/>
	</g>
	<g>
		<path class="st3" d="M538.5,220.7L538.5,220.7l-4.2-6.5h3.2l2.8,4.7h0.1l2.8-4.7h3.1l-4.3,6.5v0l4.3,6.6h-3.1l-2.9-4.6h-0.1
			l-2.9,4.6h-3L538.5,220.7z"/>
	</g>
	<g>
		<path class="st3" d="M666,121.5L666,121.5l-4.2-6.5h3.2l2.8,4.7h0.1l2.8-4.7h3.1l-4.3,6.5v0l4.3,6.6h-3.1l-2.9-4.6h-0.1l-2.9,4.6
			h-3L666,121.5z"/>
	</g>
</g>
<g>
</g>
<g>
</g>
<g>
</g>
<g>
</g>
<g>
</g>
<g>
</g>
<g>
</g>
<g>
</g>
<g>
</g>
<g>
</g>
<g>
</g>
<g>
</g>
<g>
</g>
<g>
</g>
<g>
</g>
</svg>
