<?xml version="1.0" encoding="utf-8"?>
<!-- Generator: Adobe Illustrator 26.3.1, SVG Export Plug-In . SVG Version: 6.00 Build 0)  -->
<svg version="1.1" id="Layer_1" xmlns="http://www.w3.org/2000/svg" xmlns:xlink="http://www.w3.org/1999/xlink" x="0px" y="0px"
	 viewBox="0 0 127.2 106.5" style="enable-background:new 0 0 127.2 106.5;" xml:space="preserve">
<style type="text/css">
	.st0{fill:#EBEFF2;}
</style>
<g>
	<path class="st0" d="M127.2,33.5c-0.4,4.7-0.6,9.5-1.4,14.2c-1.5,9.6-4.5,18.8-9.7,27.1c-5.9,9.4-14.2,15.9-24.8,19.4
		c-4.3,1.4-8.6,2.2-13.1,2.8c-1.6,0.2-3.2,0.4-4.9,0.3c-1.5-0.1-3.1-0.3-4.6-0.7c-3.8-0.9-7.6-1.8-11.3-3c-4.8-1.6-9.6-3.4-14.4-5.3
		c-6.3-2.6-12.1-5.9-17.6-9.8c-4.8-3.4-9.2-7.2-13.1-11.6C7,60.8,2.8,53.9,0.2,46.1c-0.8-2.3,1.1-4.9,3.5-5c1,0,2.1,0.1,3.1,0.1
		c6.4-0.1,12.8,0,19.2-0.3c4.6-0.2,9.3-0.7,13.9-1.4c5.9-0.8,11.8-1.8,17.5-3.4c5.5-1.5,11.1-3,16.3-5.4c4.1-1.9,7.8-4.5,11.2-7.5
		c3-2.6,6-5.2,9-7.8c3.3-2.8,7-5.1,11.2-6.1c3-0.7,5.9-0.3,8.7,0.8c6.5,2.5,10.7,7.1,12.2,13.8C126.9,27.1,126.9,30.3,127.2,33.5z
		 M33.9,74.2c0,0.1,0,0.2,0,0.3c0.3,0.2,0.5,0.5,0.8,0.6c3.8,2,7.5,4,11.3,5.9c0.4,0.2,0.8,0.3,1.2,0.2c6.5-0.8,13-1.6,19.5-3
		c4.7-1,9.4-2.3,13.9-4c0.3-0.1,0.7,0.1,1.1,0.1c-0.2,0.3-0.2,0.7-0.5,0.8c-5.4,4.3-10.9,8.3-17.2,11.3c-0.2,0.1-0.3,0.2-0.7,0.5
		c0.4,0.2,0.7,0.4,1.1,0.5c1.5,0.4,3,0.8,4.5,1.1c1.6,0.3,3.3,0.8,4.9,0.8c4.7-0.1,9.3-0.8,13.7-2.2c8.3-2.5,15.2-7,20.3-14.1
		c3.1-4.3,5.3-9,6.6-14.1c0.9-3.5,1.5-7.1,2.1-10.6c0.2-1.4-0.4-2.2-1.8-2.8c-0.6-0.2-1.2-0.4-1.8-0.7c-8.2-3.3-16-7.4-23.7-11.6
		c-1.3-0.7-2.4-0.8-3.6,0c-5.9,3.5-12.2,6.1-18.7,8.2c-7.2,2.3-14.5,3.9-21.9,5c-6.3,0.9-12.7,1.7-19.1,2c-4.2,0.1-8.4,0.2-12.6,0.4
		c-0.4,0-0.7,0-1.1,0c-1.3,0.1-1.8,1.1-1.2,2.2c1.3,2.1,2.6,4.1,3.9,6.2c0.2,0.3,0.8,0.6,1.2,0.6c8,0.5,16,0.4,24-0.2
		c0.2,0,0.4,0.1,0.6,0.1c-0.3,0.4-0.7,0.6-1.1,0.7c-3.1,1-6.1,2.2-9.3,3c-2.9,0.8-5.9,1.3-8.9,1.9c-0.2,0-0.4,0.2-0.7,0.3
		c0.1,0.3,0.2,0.6,0.4,0.7c1.2,1.1,2.3,2.2,3.5,3.2c0.3,0.3,0.8,0.5,1.2,0.5c5.3,0.1,10.7,0.3,16,0.3c3.8,0,7.6-0.3,11.4-0.5
		c0.3,0,0.5,0,0.8,0.1c0,0.1,0,0.2,0,0.3C47.7,71.2,41,73.3,33.9,74.2z"/>
</g>
</svg>
