<?xml version="1.0" encoding="utf-8"?>
<!-- Generator: Adobe Illustrator 26.3.1, SVG Export Plug-In . SVG Version: 6.00 Build 0)  -->
<svg version="1.1" id="Layer_1" xmlns="http://www.w3.org/2000/svg" xmlns:xlink="http://www.w3.org/1999/xlink" x="0px" y="0px"
	 viewBox="0 0 162.1 106.5" style="enable-background:new 0 0 162.1 106.5;" xml:space="preserve">
<style type="text/css">
	.st0{fill:#EBEFF2;}
</style>
<path class="st0" d="M154.7,53.3c4.8,0,8.3,4.5,7.2,9.2c-1.6,6.5-5,12.7-10,17.8c-13.1,13.1-33.3,14.7-48.1,4.7
	c-2-1.4-4-2.9-5.8-4.7c0,0,0,0-0.1-0.1c-2.9-2.9-2.8-7.6,0-10.5l6.1-6.1l31.1-31.1c-8.7-4.3-19.5-2.8-26.7,4.4c0,0,0,0,0,0
	L87.1,58.2l-22,22c-14.9,14.9-39,14.9-53.9,0c-14.9-14.9-14.9-39,0-53.9c13.1-13.1,33.3-14.7,48.1-4.7c2,1.4,4,2.9,5.8,4.7
	c0,0,0,0,0.1,0.1c2.9,2.9,2.8,7.6,0,10.5L58.9,43L43.3,58.6c-2.9,2.9-7.6,2.9-10.5,0l0,0c-2.9-2.9-2.9-7.6,0-10.5l15.6-15.6
	c-8.7-4.3-19.6-2.8-26.8,4.5c-8.9,9.1-8.9,23.5,0,32.6c9.1,9.2,23.8,9.2,33,0.1l43.4-43.4c8.7-8.7,20.6-12.3,31.9-10.8
	c5.7,0.7,11.3,2.8,16.2,6.1c2,1.4,4,2.9,5.8,4.7c0,0,0,0,0.1,0.1c2.9,2.9,2.8,7.6,0,10.5l-37.3,37.3c8.7,4.3,19.5,2.8,26.7-4.4
	c3.1-3.1,5.1-6.9,6.1-10.8c0.8-3.3,3.8-5.6,7.2-5.6H154.7z"/>
</svg>
