<?xml version="1.0" encoding="utf-8"?>
<!-- Generator: Adobe Illustrator 26.3.1, SVG Export Plug-In . SVG Version: 6.00 Build 0)  -->
<svg version="1.1" id="Layer_1" xmlns="http://www.w3.org/2000/svg" xmlns:xlink="http://www.w3.org/1999/xlink" x="0px" y="0px"
	 viewBox="0 0 633.5 200.8" style="enable-background:new 0 0 633.5 200.8;" xml:space="preserve">
<style type="text/css">
	.st0{opacity:0.7;}
	.st1{fill:url(#SVGID_1_);}
	.st2{fill:none;stroke:url(#SVGID_00000083779503960112644650000014071322961952701630_);stroke-width:2;stroke-miterlimit:10;}
	.st3{fill:url(#SVGID_00000059298725821139607510000016420159645868435596_);}
	.st4{fill:url(#SVGID_00000145041655100480889070000013605088383997259170_);}
	.st5{fill:#BF844C;}
	.st6{fill:url(#SVGID_00000036950441868453702400000010723531451930657687_);}
	.st7{fill:none;stroke:url(#SVGID_00000100340349540329003000000017891611338991768709_);stroke-width:2;stroke-miterlimit:10;}
	.st8{fill:url(#SVGID_00000008865207886595395880000011561613983660833934_);}
	.st9{fill:url(#SVGID_00000055706138850926708240000014835525764893007027_);}
	.st10{fill:url(#SVGID_00000067237091122008054190000016357497508609409156_);}
	.st11{fill:none;stroke:url(#SVGID_00000127026090265510615730000009520172483743551137_);stroke-width:2;stroke-miterlimit:10;}
	.st12{fill:url(#SVGID_00000100365215918361153310000010623498514797786789_);}
	.st13{fill:url(#SVGID_00000065779278107017857490000007221577322005753789_);}
	.st14{fill:none;stroke:url(#SVGID_00000036934905550634347870000013342033831563351431_);stroke-miterlimit:10;}
	.st15{fill:none;stroke:url(#SVGID_00000059281800531816264190000003306783218242575035_);stroke-miterlimit:10;}
	.st16{fill:none;stroke:url(#SVGID_00000078731987616987919250000012448621848055794105_);stroke-miterlimit:10;}
	.st17{fill:url(#SVGID_00000152241774550248113660000002103749240526860208_);}
	.st18{fill:none;}
	.st19{fill:#FFFFFF;}
	.st20{fill:#FAC854;}
</style>
<g>
	<path class="st20" d="M11.4,120.6c-1.4-1-2.6-2.5-3.6-4.2c-1-1.8-1.9-3.8-2.5-5.9c-0.6-2.1-1.1-4.3-1.4-6.4c-0.3-2.1-0.4-4-0.4-5.6
		c0-2.7,0.3-5.4,0.8-8.2c0.5-2.8,1.1-5.6,1.6-8.2c0.7-3,1.4-6,2-9c0.6-3,1.4-6,2.2-9c1.7-6.6,3.8-13,6.3-19.4
		c2.5-6.4,4.8-12.8,6.8-19.4c-0.6,0.3-1.7,1-3.3,1.8c-1.6,0.9-3.3,1.8-5.1,2.7c-1.8,0.9-3.5,1.7-5,2.4c-1.6,0.7-2.6,1-3,1
		c-1,0-2.1-0.6-3-1.7c-1-1.2-1.8-2.1-2.3-2.9l0.3-0.7L0,26.5c0.3-0.3,0.7-0.7,1-1c0.3-0.3,0.7-0.6,1.1-0.9c1.3-0.7,2.6-1.3,3.9-1.9
		c1.3-0.6,2.6-1.3,3.9-2.1c3.6-2,7-4.1,10.4-6.4c3.3-2.3,6.7-4.7,10-7.3c0.5-0.3,0.9-0.7,1.4-1c0.5-0.3,1-0.4,1.6-0.4
		c1.6,1.3,3.2,2.9,4.8,4.9c1.6,2,2.3,4,2.3,6.2c0,0.5-0.1,1.1-0.4,2c-0.3,0.9-0.6,1.8-1,2.8c-0.4,1-0.8,1.9-1.2,2.9
		c-0.4,0.9-0.7,1.6-0.8,2.1l-5.4,15.2c-1.3,3.4-2.5,6.7-3.6,10.1c-1.1,3.4-2.2,6.8-3.2,10.3c0.3,0.1,1.2,0.2,2.6,0.2
		c1.4,0,2.9,0,4.6,0c1.7,0,3.3,0,4.8-0.1c1.5-0.1,2.6-0.1,3.3-0.1c2.3,0,4.6,0.1,6.8,0.2c2.2,0.1,4.4,0.3,6.8,0.7
		c0.2-0.5,0.5-1.2,0.7-2.1c0.9-3.2,2.1-7.4,3.5-12.4c1.4-5,2.9-10.2,4.7-15.4c1.7-5.3,3.6-10.2,5.5-14.8c1.9-4.6,3.8-8.1,5.6-10.6
		c0.6-0.8,1.2-1.2,1.9-1.2c0.3,0,0.6,0.1,0.9,0.2l1,1.9l0.9-0.2c0.3,0.3,0.8,1,1.2,1.9L79,10.4l1.2,0.7c0.2,0.6,0.5,1.3,1,2.1
		c0.4,0.8,0.6,1.5,0.6,2.1c0,1-0.2,2.4-0.6,4c-0.4,1.6-0.9,3.3-1.5,4.9c-0.6,1.7-1.2,3.3-1.8,4.9c-0.6,1.6-1.1,3-1.5,4.2
		c-1.6,4.9-3.1,9.8-4.6,14.7c-1.4,5-2.8,10-4.1,15.1c-2.4,8.9-4.7,17.6-6.7,26c-2,8.4-3.8,16.9-5.3,25.3c-1.5,8.4-2.7,16.9-3.6,25.5
		c-0.9,8.5-1.3,17.4-1.3,26.7c0,0.7,0,1.4-0.1,2.2c-0.1,0.8-0.3,1.4-0.6,2c-1.3-0.6-2.5-1.1-3.6-1.6c-1.1-0.5-2.1-1.4-2.9-2.5
		c-2-2.9-3.3-6.1-4-9.8c-0.7-3.6-1-7.1-1-10.5c0-5.7,0.3-11.3,1-17c0.6-5.7,1.5-11.3,2.5-16.9c1-5.6,2.2-11.2,3.5-16.7
		c1.3-5.5,2.5-11.1,3.6-16.6c0.2-1.4,0.5-2.7,1-4.1c0.4-1.3,0.8-2.6,1.1-3.9c-5,0.1-9.9,0.3-14.7,0.7c-4.9,0.3-9.8,0.6-14.7,0.7
		c-0.3,1.4-0.8,2.8-1.2,4.2c-0.5,1.4-0.8,2.8-1,4.2C18.5,87,17.6,92.9,17,98.4c-0.6,5.5-0.9,11.4-0.9,17.7c0,1,0,2.2-0.1,3.4
		c-0.1,1.2-0.2,2.3-0.4,3.4l-3.6-2.3v0.2h-0.5V120.6z M25.5,19.9c-1,0.3-2.3,0.9-3.8,1.7c-1.5,0.8-3.1,1.7-4.7,2.7
		c-1.6,1-3.2,2-4.8,2.9c-1.6,1-2.9,1.8-3.9,2.3c0.5-0.1,1.6-0.6,3.4-1.6c1.8-0.9,3.7-1.9,5.7-3c2-1.1,3.8-2.2,5.5-3.2
		C24.5,20.8,25.4,20.2,25.5,19.9z M13,21.7c-0.2,0.1-0.5,0.2-0.7,0.3c-0.2,0.1-0.3,0.3-0.3,0.5v0.2L13,21.7z M16.5,19.9l1-0.9
		c-0.8,0.3-1.6,0.8-2.4,1.4c0.2-0.1,0.5-0.2,0.7-0.3C16,20,16.2,19.9,16.5,19.9z M29.3,11.4l-0.2-0.2c-0.3,0.2-1,0.7-2,1.4
		c-1,0.7-2,1.4-3,2.1c-1,0.7-2,1.4-2.9,2c-0.9,0.6-1.6,1-1.9,1.1l-0.7,0.7c1.8-1.2,3.7-2.3,5.5-3.4C25.9,14.1,27.7,12.8,29.3,11.4z
		 M22.5,18.5l-1,0.9h0.3c0.5,0,0.7-0.2,0.7-0.7V18.5z M27,16.3l-0.2-0.3l-0.3,0.5L27,16.3z"/>
	<path class="st20" d="M84.2,76.9l3.1,1.4c1-1.4,2.2-2.9,3.6-4.7c1.3-1.7,2.8-3.4,4.3-5c1.6-1.6,3.2-3,4.9-4.1
		c1.7-1.1,3.6-1.6,5.5-1.6c1.8,0,3.8,0.5,5.7,1.6c2,1,3.7,2.4,5.3,4c1.6,1.6,2.8,3.4,3.8,5.4c1,2,1.5,3.9,1.5,5.7
		c0,3.5-0.6,7-1.9,10.7c-1.3,3.7-2.9,7.3-4.9,10.8c-2,3.5-4.2,6.8-6.8,9.9c-2.5,3.1-5,5.7-7.4,8.1c-1.5,1.4-3,2.6-4.5,3.6
		c-1.5,1-3.3,1.7-5.4,2.1c-0.6,0.1-1.2,0.2-1.8,0.3c-0.6,0.1-1.2,0.1-1.8,0.1c-2.8,0-5.3-0.5-7.6-1.6c-2.3-1-4.3-2.5-6-4.2
		c-1.7-1.8-3-3.9-3.9-6.3c-0.9-2.4-1.4-5-1.4-7.6v-2.1c0-1.7,0.4-4.1,1.3-7.1c0.9-3,2-5.9,3.4-8.7c1.4-2.8,3-5.3,4.9-7.4
		S82.1,76.9,84.2,76.9z M78.3,84l2.8-3.1c-0.7,0.3-1.2,0.8-1.6,1.4C79,82.9,78.7,83.4,78.3,84z M79.9,93.7h-0.3v0.3L79.9,93.7z
		 M81.1,116.9c3.9-1,7.6-3,11.1-5.8c3.5-2.8,6.5-6.1,9.2-9.8c2.7-3.7,4.9-7.6,6.8-11.9c1.8-4.2,3.1-8.2,3.8-12
		c0.1-0.6,0.2-1.2,0.3-1.7c0.1-0.6,0.2-1.2,0.2-1.7c0-0.8-0.2-1.6-0.5-2.3c-1.4,0-3.1,0.8-5.1,2.3c-2,1.6-4,3.4-5.8,5.5
		c-1.8,2.1-3.4,4.3-4.8,6.6c-1.3,2.3-2,4.1-2,5.5c0,1.6,0.8,3,2.4,4.2c-0.5,0.7-1,1-1.7,1c-2.4,0-4.3-0.8-5.7-2.3
		c-1.4-1.6-2.7-3.1-4-4.8c-1.3,3.2-2.4,6.5-3.5,9.8c-1,3.3-1.6,6.7-1.6,10.1c0,1.3,0.1,2.5,0.2,3.6
		C80.5,114.5,80.7,115.7,81.1,116.9z M85.1,83.5l0.2-0.3c-1.2,1.2-2.1,2.4-2.8,3.8c-0.7,1.4-1.3,2.8-1.9,4.3c0.2-0.3,0.6-0.9,1-1.6
		c0.5-0.7,1-1.5,1.5-2.3c0.5-0.9,1-1.6,1.4-2.3C84.9,84.4,85.1,83.9,85.1,83.5z M81.3,84.7c0.8-0.6,1.3-1.4,1.6-2.4L81.3,84.7z
		 M91.8,77.1c0.1-0.3,0.5-0.9,1.2-1.7c0.7-0.8,1.5-1.6,2.3-2.5c0.9-0.9,1.7-1.7,2.5-2.5c0.8-0.8,1.4-1.4,1.7-1.7h-0.3
		c-3,2.5-5.7,5.5-8,8.8L91.8,77.1z M93,85.2c1.7-2.3,3.4-4.6,5.1-6.8c1.7-2.2,3.5-4.3,5.5-6.2v-0.2h-0.2c-0.1,0-0.2,0-0.2,0.1
		c0,0.1-0.1,0.1-0.2,0.1c-0.9,0.7-1.9,1.5-3,2.5c-1.1,1-2.1,2.1-3,3.3c-0.9,1.2-1.8,2.4-2.5,3.6C93.8,82.9,93.3,84.1,93,85.2z
		 M94.1,78.5c0.5-0.7,1-1.3,1.5-1.9c0.5-0.6,1-1.2,1.5-1.7c-0.3,0.3-0.9,1-1.7,1.8C94.5,77.5,94.1,78.1,94.1,78.5z M114,95.1
		c-1.6,3.1-3.4,6.1-5.5,8.9c-2,2.8-4.1,5.6-6.3,8.4c-0.2,0.2-0.4,0.5-0.6,0.8c-0.2,0.3-0.3,0.6-0.4,1c0.8-1,2-2.3,3.5-3.9
		c1.5-1.6,2.9-3.3,4.3-5.1c1.4-1.8,2.6-3.6,3.6-5.4C113.5,98.1,114,96.5,114,95.1z M101.5,105.5c0.8-0.7,1.5-1.5,2.1-2.4
		c0.6-0.9,1.2-1.9,1.7-2.9c-0.5,0.6-1.2,1.5-2.3,2.9C102,104.3,101.5,105.2,101.5,105.5z M102.4,108.6l-0.2-0.2
		C102.2,108.6,102.3,108.6,102.4,108.6z M104.3,106.5c0.6-0.9,1.2-1.8,1.9-2.8c0.7-0.9,1.3-1.8,1.9-2.8l-4,5.4v0.2H104.3z
		 M108.3,100.5c-0.1,0.1-0.2,0.3-0.2,0.5L108.3,100.5z M110.9,104.8h0.2v-0.2L110.9,104.8z"/>
	<path class="st20" d="M154.7,1c0.2-0.7,0.6-1,1.2-1c1.3,0,2.5,0.4,3.8,1.3c1.3,0.9,2.4,2,3.4,3.3c1,1.3,1.8,2.7,2.4,4.2
		c0.6,1.5,1,2.8,1,4c0,1.7-0.4,4.4-1.3,8c-0.9,3.6-1.9,7.4-3,11.3c-1.2,4-2.3,7.8-3.5,11.4c-1.2,3.6-2,6.5-2.6,8.6
		c-0.7,2.3-1.4,4.7-2.3,7c-0.8,2.4-1.6,4.7-2.3,7l-9.4,33.4c-1.6,5.5-2.9,11.2-4,17c-1,5.8-1.6,11.5-1.6,17.3c0,1.6,0.1,3.2,0.4,4.9
		c0.3,1.6,0.7,3.2,1.1,4.9c0.2,1,0.5,2.1,0.9,3.2c0.3,1.1,0.6,2.2,0.7,3.2c-0.2,0-0.5,0-0.8,0.1c-0.3,0.1-0.5,0.1-0.8,0.1
		c-2.3,0-4.4-0.7-6.3-2.1c-1.9-1.4-3.5-3-4.8-4.9c-1.6-2.2-2.6-4.6-2.9-7.3c-0.3-2.7-0.5-5.3-0.5-8c0-5.3,0.6-11.7,1.9-19.1
		c1.3-7.4,2.8-15,4.7-22.8c1.8-7.8,3.8-15.4,5.9-22.7c2.1-7.3,4-13.7,5.7-19c0.5-1.6,1.5-4.4,3-8.5c1.6-4,3.1-8.3,4.8-12.6
		c1.6-4.4,3.1-8.4,4.3-12c1.3-3.6,1.9-5.9,1.9-6.8C155.9,3.5,155.5,2.3,154.7,1z M133.2,123.2c0.2-0.6,0.4-1.2,0.5-1.8
		c0.1-0.6,0.2-1.2,0.3-1.8c0.5-2.7,0.9-5.3,1.4-8c0.5-2.7,1-5.3,1.7-8c1-4.2,2-8.3,3-12.5c1-4.2,2-8.3,3.2-12.5
		c1.6-5.9,3.4-11.7,5.3-17.4c1.9-5.7,3.6-11.5,4.9-17.4c-0.3,0.6-0.9,1.9-1.6,3.9c-0.7,2-1.5,4.4-2.3,7.2c-0.9,2.8-1.8,5.8-2.7,9
		c-0.9,3.2-1.8,6.3-2.7,9.3s-1.6,5.6-2.3,8.1c-0.6,2.4-1.1,4.2-1.5,5.2c-1.7,6-3.3,12.1-4.6,18.2
		C134.8,110.8,133.8,116.9,133.2,123.2z M155.1,40c-0.6,0.5-0.9,1.1-0.9,1.9L155.1,40z M155.6,38.5l-0.3-0.2
		c-0.1,0.3-0.2,0.9-0.2,1.7L155.6,38.5z M156.4,35.5l-0.2-0.2v0.2H156.4z"/>
	<path class="st20" d="M190.9,87.1l1.4-1.4l-0.2,1l0.5-1h-0.3l0.3-0.5v0.5l0.3-0.7h0.2l0.7-1.2l0.3,0.2c-1.6,4-3.6,7.9-6,11.6
		c-2.4,3.7-4.7,7.4-7,11.1c-1.3,2.1-2.5,4.2-3.8,6.3c-1.3,2.1-2.6,4.2-4,6.2c-1.7,2.5-3.8,5.5-6.3,8.7c-2.5,3.3-4.7,6-6.7,8.2
		c-0.6,0.6-1.1,0.9-1.6,1c-0.5,0.1-1.1,0.2-1.8,0.2c-2.5,0-4.6-0.7-6.2-2c-1.6-1.3-2.4-3.3-2.4-6c0-4.7,0.5-9.5,1.4-14.3
		c0.9-4.8,2-9.4,3.3-13.8c0.9-3.5,1.8-6.9,2.6-10.4c0.8-3.5,1.3-7,1.6-10.6v-0.7c0-0.5-0.1-0.9-0.3-1.3c-0.2-0.4-0.3-0.8-0.3-1.3
		c0-0.3,0.2-0.6,0.6-0.8c0.4-0.2,0.7-0.3,1-0.4c3.8,0.6,7.1,1.9,9.8,4c2.7,2.1,4.1,5.2,4.1,9.4c0,3.4-0.5,6.5-1.4,9.5
		c-0.9,3-1.8,6.1-2.8,9.2l-3.8,12.8c0,0.1,0,0.2-0.1,0.2c-0.1,0-0.1,0.1-0.1,0.2v0.2l0.2,0.3c2.4-3,4.7-6.2,6.8-9.4
		c2.1-3.3,4.3-6.6,6.5-9.8c1.3-2,2.7-3.8,4.2-5.5c1.5-1.7,2.9-3.5,4.3-5.4c0.8-0.9,1.5-2,2.2-3.1c0.6-1.2,1.4-2.2,2.3-3.1l-0.9,1.6
		l1.2-1.4c-1.4,2.3-2.9,4.6-4.4,6.8c-1.6,2.3-2.9,4.7-4.1,7.2c0.6-0.7,1.2-1.4,1.7-2.1c0.6-0.7,1.1-1.4,1.6-2.3
		c0.9-1.5,1.8-3.1,2.5-4.7c0.8-1.6,1.8-3.1,3-4.3L190.9,87.1z M156.6,130.1h0.3c1.3-5.1,2.6-10.1,4.1-15.1c1.4-5,2.9-10,4.2-15.1
		c-1,1.8-1.8,3.8-2.3,5.8c-0.5,2-1,4-1.6,6c-0.9,3-1.8,6-2.8,9.1C157.8,123.9,157.1,127,156.6,130.1z M168.7,50.1l0.9,0.2v1.2
		c0.3-0.1,0.8-0.4,1.2-0.9l1.7,0.9l-0.3,1.2l2.1,0.3v1.7l0.9-0.2c1.2,0.8,1.7,1.8,1.7,2.9c0,2.1-0.3,4.1-1,6c-0.6,1.9-1,3.9-1,6
		c0,1.2,0.1,2.3,0.3,3.5c0.2,1.2,0.3,2.3,0.3,3.5c-0.6,0.3-1.1,0.5-1.6,0.5c-0.6,0-1.1-0.2-1.6-0.5c-0.5-0.3-1.1-0.5-1.6-0.3
		c-1-0.6-2-1.5-2.9-2.7c-0.9-1.2-1.8-2.5-2.5-4c-0.8-1.4-1.3-2.9-1.7-4.3c-0.4-1.4-0.6-2.8-0.6-4.1c0-0.7,0.1-1.7,0.3-2.9
		c0.2-1.3,0.6-2.5,1-3.8c0.5-1.3,1-2.4,1.6-3.4c0.6-1,1.4-1.5,2.2-1.5L168.7,50.1z M163.2,124.9c0.2-0.2,0.5-0.5,0.9-0.8
		c0.3-0.3,0.6-0.5,0.9-0.8c3.5-5.2,6.9-10.3,10.4-15.3c3.5-5,7-10.1,10.6-15.3c-1.4,1.5-2.8,3-4.2,4.5c-1.4,1.5-2.5,3.1-3.5,4.7
		c-1.5,2.4-3,4.8-4.6,7.2c-1.6,2.4-3.1,4.8-4.6,7.2c-0.9,1.5-1.9,2.9-3,4.2C165,121.8,164,123.3,163.2,124.9z M165.8,98.1h-0.3v1
		c0.1-0.1,0.2-0.3,0.2-0.4C165.6,98.5,165.7,98.3,165.8,98.1z M171.3,117.6c-0.5,0.1-0.8,0.3-1,0.7s-0.4,0.7-0.6,1L171.3,117.6z
		 M173.6,114.7c-1.2,0.2-1.7,0.8-1.7,1.6v0.3L173.6,114.7z M178.4,107.9l0.7-0.5c0.2-0.5,0.5-0.9,0.7-1.3c0.2-0.4,0.5-0.9,0.7-1.5
		c-0.2,0.6-0.5,1.1-1,1.6C179.2,106.8,178.8,107.4,178.4,107.9z M182.9,102.4l0.5-0.5c-0.2,0-0.4-0.1-0.5-0.2
		c0.2-0.5,0.4-0.9,0.6-1.3c0.2-0.4,0.4-0.8,0.6-1.3l-2.1,2.9l0.9-0.3V102.4z M186.6,96.3h-0.3l0.5-0.9v-0.7
		c-0.7,0.9-1.2,1.8-1.6,2.6l0.7-0.3l0.3-0.7c0.1,0.1,0.2,0.3,0.2,0.7C186.5,96.9,186.6,96.7,186.6,96.3z M185.9,97.5l0.5-0.5h-0.3
		C185.9,97.1,185.9,97.3,185.9,97.5z M186.9,95.6h-0.2V96C186.9,95.9,186.9,95.7,186.9,95.6z M188.1,93.4c0-0.3,0.1-0.7,0.2-1
		c0.1-0.3,0.2-0.6,0.2-1l-1.6,2.9l0.7-0.3v0.5l0.3-0.5h-0.3L188.1,93.4z M188.1,93.4v0.5l0.3-0.5c0-0.3,0.1-0.6,0.2-0.7h-0.2v0.7
		H188.1z M190.9,87.1c0,0.5-0.2,0.9-0.7,1.4l0.7-0.2l0.2-0.7L190.9,87.1z M191.4,88.2l-0.3,0.2l-0.2,0.5L191.4,88.2z M191.1,86.1
		c0.2-0.5,0.4-0.9,0.5-1.2c0.1-0.3,0.2-0.8,0.3-1.2l0.3,0.2C192.2,84.4,191.8,85.2,191.1,86.1z M192.8,85.1v-0.2h-0.2v0.3
		L192.8,85.1z M193,84.4v0.5h-0.2L193,84.4z M193.2,84.9H193v0.2L193.2,84.9z"/>
	<path class="st20" d="M237,142.4v0.3c0,0.1,0.1,0.2,0.2,0.2c0,0.9-0.6,1.5-1.8,1.6c-1.2,0.2-2.1,0.3-2.7,0.3c-3.5,0-6.2-1.3-8.3-4
		c-1.4-1.8-2.6-4.2-3.6-7c-1-2.8-1.8-5.8-2.4-9c-0.6-3.2-1.1-6.3-1.5-9.4s-0.7-5.8-1-8.1h-0.3c-1.3,1.8-2.5,3.8-3.7,5.9
		s-2.6,4-4.2,5.8c-1.6,1.8-3.3,3.3-5.2,4.5c-1.9,1.2-4.1,1.8-6.5,1.8c-3,0-5.5-0.7-7.4-2s-3.5-3-4.7-5.1s-2.1-4.4-2.5-6.9
		c-0.5-2.5-0.7-5-0.7-7.5c0-2.8,0.4-5.7,1.3-8.9c0.9-3.2,2.1-6.1,3.8-8.8c1.7-2.7,3.8-5,6.2-6.8c2.5-1.8,5.3-2.7,8.6-2.7
		c2.9,0,5.5,0.6,8,1.7c2.4,1.2,4.9,2.4,7.3,3.6c0.7-4.3,1.5-8.8,2.3-13.5c0.9-4.7,2-9.4,3.5-13.9c1.4-4.6,3.3-8.9,5.6-12.9
		c2.3-4,5.3-7.6,8.8-10.6c1-0.9,2.3-1.8,3.6-2.5c1.4-0.8,2.8-1.1,4.2-1.1c1.7,0,3.3,0.4,4.7,1.3c1.4,0.9,2.6,2,3.6,3.3
		c1,1.3,1.8,2.8,2.3,4.5c0.5,1.7,0.8,3.3,0.8,4.8c0,3-0.6,6.3-1.8,10c-1.2,3.6-2.7,7.2-4.5,10.7c-1.8,3.5-3.8,6.9-6,10.1
		c-2.2,3.2-4.3,6-6.2,8.1l-7.4,8.1c-0.7,0.7-1,1.7-1,3.1c0,2.3,0,4.7-0.1,7.1c-0.1,2.4-0.1,4.8-0.1,7.1c0,2,0,4.5,0.1,7.5
		c0.1,3.1,0.2,6.2,0.3,9.4c0.2,3.2,0.5,6.3,0.9,9.2c0.4,2.9,1,5.2,1.8,6.9c0.6,1.2,1.4,2,2.3,2.5C234.6,141.8,235.7,142.2,237,142.4
		z M185.6,93.7c-0.7,1.6-1.2,3.2-1.4,4.8c-0.2,1.6-0.4,3.1-0.4,4.8c0.2-1.6,0.5-3.2,0.8-4.8C185,96.9,185.3,95.3,185.6,93.7z
		 M188.5,96c-0.4,0.9-0.7,1.9-1,2.9c-0.3,1-0.4,2-0.4,3c0,0.2,0,0.5,0.1,0.7c0.1,0.2,0.1,0.5,0.1,0.7l1.6-7.4L188.5,96z M189,94.6
		c-0.3,0-0.5,0.2-0.5,0.5v0.2l0.2,0.3C188.9,95.2,189,94.8,189,94.6z M194.9,89.4l-0.9,0.3c-1.3,2.7-2.3,5.2-3.1,7.5
		c-0.8,2.4-1.2,5.1-1.2,8.1c0,1.7,0.2,3.5,0.5,5.2c0.3-3.7,0.7-7.3,1.1-10.8C191.7,96.2,192.9,92.7,194.9,89.4z M192.8,99.8h0.2
		v-0.3h-0.2V99.8z M215.3,88H215c-1.4-1-2.7-2.3-4-3.9c-1.3-1.6-2.9-2.3-4.9-2.3c-0.7,0-1.3,0.2-1.9,0.7c-3.6,3-6.2,6.8-7.8,11.4
		c-1.6,4.6-2.4,9.2-2.4,13.7c0,0.9,0,2,0.1,3.2c0.1,1.2,0.2,2.4,0.3,3.6c0.2,1.2,0.5,2.4,0.9,3.5c0.4,1.1,0.9,2,1.5,2.7
		c0.6-0.6,1.1-1.1,1.6-1.6c0.5-0.5,1.1-1,1.6-1.6c0.5-0.7,1.5-2.2,3.2-4.4c1.7-2.3,3.4-4.7,5.2-7.3c1.8-2.6,3.4-5,4.8-7.2
		c1.4-2.2,2.1-3.5,2.1-4V88z M194.7,88.9h-0.2c0,0.1,0.1,0.2,0.2,0.3V88.9z M225.2,82.6H225v1h0.2V82.6z M225.4,79.9l0.2-0.2h-0.2
		V79.9z M225.7,78h0.2v-0.2L225.7,78z M228.7,45.2v-0.3c0,0.1,0,0.2-0.1,0.2c-0.1,0-0.1,0.1-0.1,0.2H228.7z M229.7,78.5
		c0.2,0,0.6-0.3,1.1-0.9c0.5-0.6,1.1-1.2,1.6-2c0.6-0.8,1.1-1.5,1.6-2.2c0.5-0.7,0.8-1.2,1-1.4c1.5-1.8,3.2-4.1,5-6.8
		c1.8-2.7,3.6-5.5,5.2-8.4c1.6-2.9,3-5.8,4.1-8.7c1.1-2.9,1.6-5.6,1.6-8.1c0-1.4-0.1-2.7-0.3-4.1c-0.2-1.3-0.7-2.6-1.6-3.7
		c-1.3,0.2-2.3,0.7-3.2,1.4c-0.9,0.7-1.7,1.6-2.5,2.6c-2.3,3-4.2,6.2-5.6,9.6c-1.4,3.4-2.7,6.9-3.6,10.6c-1,3.6-1.8,7.3-2.4,11.1
		C231.1,71.2,230.4,74.9,229.7,78.5z M252.1,42.4h-0.3l0.3,1.2c-0.6,0-0.9,0.1-0.9,0.4c0,0.3-0.1,0.6-0.2,1c-0.5,2-1.1,3.9-2,5.8
		c-0.9,1.9-1.8,3.8-2.7,5.6c-2.2,4.4-4.7,8.6-7.4,12.6c-2.7,4-5.7,7.8-9.1,11.3v0.7c1.6-1.8,3.7-4.4,6.2-7.7c2.5-3.3,5-6.8,7.4-10.6
		c2.4-3.8,4.4-7.4,6.1-11c1.7-3.6,2.5-6.5,2.5-8.8V42.4z M230.4,56.1v-0.3l-0.2,0.2C230.2,56.1,230.3,56.1,230.4,56.1z M232,50.6
		c0.6-0.2,0.9-0.5,0.9-1c0-0.4,0.1-0.8,0.3-1.3C232.7,48.9,232.3,49.7,232,50.6z M232.7,38.6l0.5-0.9
		C232.8,38.1,232.7,38.4,232.7,38.6z M235.8,77.3c-0.2,0.1-0.5,0.2-0.9,0.2l-2.3,3.5c0.3-0.3,0.9-1,1.7-1.8
		C235.2,78.2,235.7,77.6,235.8,77.3z M233.2,83H233v0.3C233,83.2,233.1,83.1,233.2,83z M233.2,47.8v0.5c0.1-0.2,0.2-0.4,0.3-0.6
		c0.1-0.2,0.2-0.4,0.3-0.6c1.3-2.4,2.6-4.8,3.9-7.1c1.3-2.3,3-4.5,4.9-6.6c-0.9,0.3-1.9,1.1-2.9,2.3c-1,1.2-1.9,2.5-2.8,4
		c-0.9,1.4-1.6,2.9-2.3,4.4C234.1,45.7,233.5,46.9,233.2,47.8z M236.5,33.6c-0.6,0.6-1.2,1.2-1.7,1.9c-0.6,0.7-1.1,1.4-1.6,2.3
		C234.5,36.5,235.5,35.1,236.5,33.6z M236.5,76.4c0.1,0,0.2,0,0.2-0.1c0-0.1,0.1-0.1,0.2-0.1l-0.5-0.2l-0.5,0.3v0.9
		C236,76.8,236.2,76.5,236.5,76.4z M236.5,33.6l1.4-1.2h-0.3L236.5,33.6z M236.6,77.6l1.4-0.9c-0.1-0.2-0.1-0.4-0.1-0.4
		c0.1-0.1,0.1-0.2,0.1-0.4L236.6,77.6z M239.4,73.3c-0.1-0.1-0.3-0.2-0.7-0.2l-0.3-0.2c-0.2,0.2-0.4,0.5-0.5,0.8
		c-0.1,0.3-0.3,0.5-0.5,0.8v0.9c0.2-0.3,0.5-0.8,0.9-1.3C238.6,73.5,239,73.3,239.4,73.3z M238,77.3l0.2-0.5H238V77.3z M239.4,73.3
		v-1l0.5-0.3c0.9-1.6,1.9-3.1,2.9-4.5c1-1.4,2-2.8,3.2-4.2c-0.8,2.1-1.9,4.1-3.3,6c-1.4,1.9-2.7,3.8-4,5.8c0.9-0.6,1.6-1.4,2.1-2.5
		c0.5-1.1,1.2-1.9,2.1-2.5l0.2,0.7l0.2-0.7c0.2-0.2,0.4-0.5,0.6-0.8c0.2-0.3,0.4-0.5,0.6-0.8l0.3-0.7c0.2-0.5,0.5-0.8,0.7-1l0.3-0.9
		l0.3-0.7h-0.3l1.2-1.9l0.2,0.9c0-0.5,0.1-0.9,0.3-1.2c0.2-0.3,0.4-0.8,0.6-1.2l0.3-0.7l0.9-1c0-0.6,0.2-1.2,0.7-1.7
		c0.5-0.6,0.7-1.2,0.7-1.7l0.5-0.7l0.5-1.7c0.3-0.3,0.7-1,1-1.8c0.3-0.9,0.7-1.8,1-2.9c0.3-1.1,0.5-2.1,0.7-3.1
		c0.2-1,0.3-1.7,0.3-2.2c0-0.3-0.1-0.7-0.3-1s-0.4-0.6-0.6-0.9l-0.5,0.2c-0.7,2.2-1.4,4.4-2,6.6c-0.6,2.2-1.4,4.3-2.3,6.4
		c-0.7,1.5-1.7,3.5-3,6.1c-1.3,2.5-2.5,4.4-3.4,5.7l-0.9,1c-0.2,0.5-0.6,1.1-1.2,1.9c-0.6,0.8-0.9,1.3-0.9,1.6l-0.5,0.3v0.3
		C239.1,72.7,239.2,73.1,239.4,73.3z"/>
	<path class="st20" d="M291.4,105.3c0.2-0.6,0.5-1.1,0.9-1.5c0.3-0.4,0.7-0.9,1-1.5c-0.9,2.3-2.1,4.9-3.6,7.8
		c-1.5,2.9-3.1,5.7-4.9,8.6c-1.8,2.8-3.7,5.5-5.6,8.1c-2,2.5-3.9,4.6-5.7,6.1c-2-0.7-3.6-1.4-4.8-2c-1.2-0.6-1.8-2.2-1.8-4.6
		c0-4.7,0.4-9.4,1.3-13.9c0.9-4.6,1.8-9.2,2.7-13.8l-5.9,6.1c-0.9,0.9-1.9,2-3,3.3c-1.1,1.3-2.3,2.5-3.5,3.6
		c-1.2,1.2-2.5,2.1-3.9,2.9c-1.4,0.8-2.8,1.2-4.3,1.2c-1,0-2.2-0.2-3.5-0.7c-1.3-0.5-2.5-1.1-3.6-1.9c-1.1-0.8-2-1.7-2.7-2.8
		c-0.7-1-1-2.2-1-3.5c0-2.5,0.6-5.5,1.8-8.9c1.2-3.4,2.8-6.8,4.7-10c1.9-3.3,4-6.4,6.2-9.2c2.3-2.8,4.4-5,6.5-6.5
		c1.7-1.3,3.6-2.4,5.7-3.4c2.1-1,4.2-1.5,6.4-1.5c2.2,0,4.2,0.5,6,1.6c1.8,1,3.5,2.3,5.1,3.8c0.5,0.5,0.7,0.9,0.7,1.4
		c0,0.2-0.1,0.6-0.3,1l-5-1.4c-3.1,1-5.9,2.7-8.2,4.9c-2.4,2.2-4.5,4.7-6.4,7.4c-1.9,2.7-3.6,5.6-5,8.7c-1.4,3.1-2.8,6-4.1,8.7
		l0.3,0.3l2.8-2.1l16.6-14.9c1.5-1.4,2.7-2.9,3.5-4.4c0.8-1.6,2.2-2.7,4.2-3.6l0.2,1.7l-0.5,0.2c-0.2,0.3-0.3,0.5-0.3,0.6
		c0.1,0.1-0.1,0.3-0.4,0.6l0.5-0.2l0.2-0.9l0.5-0.3c0.2-0.5,0.6-0.7,1-0.7c0.2,0,0.5,0.2,0.9,0.5l-0.2,1.2l0.7-0.3v-0.2l0.9,0.3
		c-0.7,2.2-1.4,4.3-2.2,6.4c-0.8,2.1-1.5,4.2-2.3,6.2l-0.2,0.2c0.1,0,0.2-0.1,0.2-0.2c0.3-0.3,0.5-0.6,0.5-0.7
		c0.9-2,1.8-3.9,2.5-5.8c0.8-1.9,1.6-3.8,2.5-5.6c1,0.2,1.6,0.8,1.6,1.6c0,0.6-0.1,1.2-0.3,1.7c-0.2,0.6-0.4,1.2-0.6,1.7
		c-0.6,1.6-1.4,4-2.5,7.1c-1.1,3.1-2.2,6.4-3.3,9.8c-1.1,3.4-2.1,6.6-2.9,9.7c-0.8,3.1-1.2,5.3-1.2,6.7c1.2-0.7,2.2-1.6,3-2.7
		c0.9-1.1,1.8-2.1,2.7-3h0.3c-1.2,1.6-2.4,3.2-3.7,4.7c-1.3,1.5-2.4,3.2-3.2,5h-0.2v0.2c0.1,0,0.2-0.1,0.2-0.2
		c1.6-1.6,3.1-3.3,4.5-5.1c1.4-1.8,2.8-3.6,4.2-5.3c0.3-0.5,0.7-1,1-1.6c0.3-0.6,0.7-1.1,1.2-1.6l0.9-0.9c-1.8,3.1-4,6.2-6.4,9.1
		c-2.4,2.9-4.4,6-6.1,9.3l5.5-6.4l-1.6,2.9l1.2-0.9l0.2,0.7c0.1-0.5,0.3-0.9,0.7-1.4c0.3-0.5,0.6-0.9,0.9-1.4h0.2v-0.2l-0.2,0.2
		h-0.3c0.2-0.7,0.5-1.3,0.7-1.7c0.2-0.5,0.6-0.9,1.2-1.4v0.7l0.3-0.7l0.5-0.3l0.3-0.7c0.2-0.7,0.6-1.3,1.1-1.9
		c0.5-0.6,0.9-1.2,1.1-1.9c0.2-0.5,0.5-0.9,0.8-1.3c0.3-0.4,0.5-0.8,0.8-1.3h-0.2l0.3-0.7h-0.2l1-1.9l0.2,0.7
		c0.1-0.5,0.3-0.9,0.4-1.2s0.4-0.7,0.6-1h-0.2l0.5-0.3c0.2-0.3,0.5-0.9,0.7-1.6V105.3z M245.1,96.8c0,0.1,0,0.2-0.1,0.3
		c-0.1,0.1-0.1,0.1-0.1,0.3h0.2V96.8z M245.7,95.5c0.3-0.3,0.5-0.6,0.5-0.7c1.2-2,2.3-3.9,3.3-5.9c1-2,2.2-3.9,3.5-5.7
		c0.2-0.3,0.6-0.9,1.2-1.6c0.6-0.8,0.9-1.4,0.9-1.8l-0.3,0.7c-0.6,0.6-1.3,1.5-2.3,2.9c-0.9,1.3-1.8,2.8-2.7,4.3s-1.7,3.1-2.4,4.5
		C246.5,93.5,246,94.7,245.7,95.5c-0.2,0.2-0.3,0.5-0.3,0.9L245.7,95.5z M247.9,98.2l0.5-1.2c-0.2,0.1-0.3,0.3-0.3,0.5
		c0,0.2-0.1,0.5-0.3,0.7H247.9z M248.3,106.4c-0.1,0.1-0.2,0.3-0.2,0.7h0.2V106.4z M248.9,104.8c1.6-4.4,3.6-8.7,5.8-13
		c2.3-4.3,4.9-8.2,7.9-11.8c-1.2,0.7-2.4,1.9-3.7,3.6c-1.3,1.7-2.6,3.6-3.8,5.6c-1.2,2-2.3,4-3.2,6c-0.9,2-1.6,3.6-2.1,4.9
		c-0.3,0.9-0.6,1.9-0.9,2.9c-0.2,1-0.5,2-0.7,2.9C248.5,105.8,248.7,105.4,248.9,104.8z M254.7,85.8c-1.2,1.6-2.2,3.2-3.1,4.7
		c-0.9,1.5-1.8,3.2-2.6,5c0.9-1.6,1.9-3.2,2.9-4.7c1-1.5,1.9-3.1,2.9-4.7V85.8z M255.5,79.2l0.5-0.3h-0.2L255.5,79.2z M256.7,83.2
		c-0.1,0.1-0.2,0.2-0.3,0.2h0.3V83.2z M257.4,81.9c-0.1,0-0.2,0.1-0.2,0.2h0.2V81.9z M274.6,113h0.2v-0.3h-0.2V113z M275.3,129.2
		c-0.2,0-0.3,0.1-0.3,0.3L275.3,129.2z M275.3,109.5l0.2,0.3v-0.5L275.3,109.5z M275.5,129.1c0.2-0.2,0.5-0.4,0.8-0.6
		c0.3-0.2,0.4-0.5,0.4-1L275.5,129.1z M276.3,105.7c-0.1,0.2-0.2,0.5-0.2,0.9h0.2V105.7z M276.3,105l0.3-0.7h-0.2L276.3,105z
		 M277.9,100.7c-0.5,1-0.9,2.2-1.2,3.5c0.5-0.6,0.7-1.2,0.9-1.7C277.6,101.8,277.8,101.2,277.9,100.7z M276.7,128.2
		c0.1,0,0.2,0,0.2-0.1c0-0.1,0.1-0.1,0.2-0.1C277,128.1,276.9,128.2,276.7,128.2z M277.7,126.8c0-0.2,0-0.4,0.1-0.5
		c0.1-0.1,0.1-0.3,0.1-0.5l-1,1.6L277.7,126.8z M279.1,83c-0.7,0.7-1.2,1.6-1.4,2.6L279.1,83z M277.9,126.6l0.2-0.2
		C278.1,126.6,278,126.6,277.9,126.6z M278.2,99.3c-0.1,0.1-0.2,0.3-0.2,0.5L278.2,99.3z M278.7,126.3c-0.1,0-0.2,0-0.2,0.1
		c0,0.1-0.1,0.1-0.2,0.1h0.3V126.3z M278.7,97.5c-0.1,0.1-0.2,0.4-0.2,0.9l0.2-0.3V97.5z M280,124.7h-0.2l-0.5,0.3h0.2L280,124.7z
		 M281.3,84.4c-0.6,0.2-0.9,0.5-0.9,0.9v0.2c0,0.1,0.1,0.2,0.2,0.3L281.3,84.4z M281.5,83.3c-0.1,0.2-0.2,0.5-0.2,0.9
		C281.5,84,281.5,83.7,281.5,83.3z M282.9,120.2c0.1-0.1,0.2-0.3,0.2-0.7C283,119.7,282.9,119.9,282.9,120.2z"/>
	<path class="st20" d="M344.2,64.6c0.7,0.9,1.4,1.8,2.2,2.6c0.7,0.8,1.5,1.7,2.2,2.6l-1.4,7.3c-0.2,1.2-0.5,2.3-0.7,3.4
		c-0.2,1.1-0.5,2.2-0.7,3.4c-0.6,3.1-1,6.3-1.4,9.4c-0.3,3.2-0.6,6.3-0.9,9.4c-0.3,3.8-0.7,7.6-1,11.3c-0.3,3.8-0.7,7.5-1.1,11.3
		c-0.3,3.7-0.8,7.4-1.2,11c-0.5,3.6-1,7.2-1.7,10.8c-0.8,4-1.8,8.3-3.1,12.7c-1.3,4.4-2.9,8.8-4.8,13.2c-1.9,4.3-4.1,8.4-6.7,12.3
		c-2.5,3.9-5.4,7.2-8.5,10c-1.6,1.5-3.4,2.8-5.4,3.8c-2,1-4.1,1.6-6.4,1.6c-1.8,0-3.7-0.3-5.5-1c-1.8-0.7-3.4-1.5-4.9-2.4
		c-2.3-1.5-3.8-3.4-4.5-5.6c-0.7-2.3-1-4.7-1-7.2c0-2,0.1-4,0.3-6c0.2-2,0.5-4,1.1-5.8c0.2-1,0.8-2.6,1.6-4.7c0.8-2.1,1.7-4.4,2.8-7
		c1-2.6,2.2-5.2,3.6-7.9c1.3-2.7,2.7-5.1,4-7.4c1.3-2.3,2.7-4.1,4.1-5.5c1.4-1.4,2.7-2.1,3.8-2.1c0.8,0,1.9,0.3,3.4,1
		c1.4,0.7,2.5,1.3,3,1.9c-2.5,1.6-4.5,3.6-5.8,5.9c-1.3,2.3-2.6,4.8-3.7,7.5c-1.7,3.9-3.3,7.6-4.6,11.1c-1.3,3.5-2.5,7.3-3.4,11.4
		c0,0.1,0,0.2-0.1,0.3c-0.1,0.1-0.1,0.1-0.1,0.3c-0.2,1.2-0.4,2.3-0.6,3.3s-0.3,2.1-0.3,3.3c0,2,0.3,3.7,0.9,5.1
		c0.6,1.4,1.1,3,1.6,4.8l3.8-3.1c1.2-1,2.3-2.3,3.5-3.8c1.2-1.5,2.2-3.1,3.2-4.9c1-1.7,1.9-3.5,2.8-5.2s1.6-3.3,2.2-4.7
		c3.9-9.4,6.8-18.9,8.5-28.7c1.7-9.8,3.5-19.6,5.2-29.5c0.7-3.6,1-7.2,1-10.9c-0.8,1.4-2.1,3.3-3.7,5.8c-1.7,2.5-3.5,4.9-5.5,7.4
		c-2,2.4-4.1,4.5-6.2,6.3s-3.9,2.7-5.5,2.7c-0.6,0-1-0.1-1.3-0.3c-0.3-0.2-0.7-0.4-1.3-0.6l-1.7-0.9c-2.8-1.4-5.1-2.9-6.8-4.4
		c-1.8-1.6-2.7-4.2-2.7-8.1c0-3.6,0.6-7.4,1.9-11.5c1.3-4.1,2.5-7.9,3.5-11.3c0.9-2.9,1.9-5.9,2.9-9c1-3.1,1.5-6.2,1.5-9.2
		c0-1-0.1-2.1-0.3-3.2c-0.2-1.1-0.3-2.2-0.3-3.2c1.9,0.3,3.6,1.2,5,2.4c1.4,1.3,2.6,2.7,3.5,4.4c0.9,1.7,1.6,3.5,2,5.4
		c0.4,1.9,0.6,3.8,0.6,5.6c0,5.1-0.6,10-1.9,14.7c-1.3,4.7-2.5,9.5-3.6,14.4v1.9c5.5-5.9,10.3-12,14.2-18.5
		c3.9-6.4,7.6-13.2,10.9-20.4c0.7-1.6,1.5-3.2,2.5-4.9c1-1.6,2-3.1,3.2-4.3l2.1-1.9l0.3,2.8c-0.3,0.1-0.5,0.3-0.5,0.7
		c0.1-0.2,0.2-0.4,0.3-0.4c0.1-0.1,0.1-0.1,0.3-0.3C343.5,65.3,344,65,344.2,64.6z M290.7,176.2c0.1-0.1,0.2-0.3,0.2-0.5
		c0-0.3-0.1-0.6-0.2-0.7V176.2z M291,173.6c0-0.1,0-0.2,0.1-0.3c0.1-0.1,0.1-0.1,0.1-0.3c0-0.1,0-0.2-0.1-0.2
		c-0.1,0-0.1-0.1-0.1-0.3V173.6z M292.8,169.1c0.2-0.5,0.3-0.8,0.3-1c0,0.1-0.1,0.3-0.2,0.4c-0.1,0.2-0.2,0.4-0.3,0.6
		c-0.2,0-0.3,0.2-0.3,0.7c0.2-0.1,0.3-0.3,0.3-0.7H292.8z M293.1,166.3c0,0.5,0.1,0.8,0.2,1C293.3,166.8,293.2,166.4,293.1,166.3z
		 M294,165.5c0.1-0.1,0.2-0.4,0.2-0.9L294,165.5z M294.3,164.4c0.1-0.3,0.2-0.8,0.2-1.4L294.3,164.4z M295.9,160.8
		c0.1-0.2,0.2-0.5,0.2-0.9c-0.1,0.2-0.2,0.5-0.3,0.8c-0.1,0.3-0.3,0.5-0.5,0.8L295.9,160.8z M295.6,174.3c0-0.1,0-0.2-0.1-0.3
		c-0.1-0.1-0.1-0.1-0.1-0.3v0.7L295.6,174.3z M298.1,156.6c-0.9,0.2-1.5,0.5-1.7,1c-0.2,0.4-0.3,1.1-0.3,2c0.2-0.6,0.5-1.1,1-1.5
		C297.4,157.7,297.8,157.2,298.1,156.6z M296.1,170.8c0.3,0,0.5-0.2,0.5-0.5c0-0.1,0-0.2-0.1-0.3c-0.1-0.1-0.1-0.3-0.1-0.5
		C296.2,169.9,296.1,170.4,296.1,170.8z M298.3,154.7c-0.1,0.1-0.2,0.4-0.2,0.9c0-0.2,0-0.4,0.1-0.5
		C298.3,154.9,298.3,154.8,298.3,154.7c0.2-0.5,0.3-0.9,0.3-1.2C298.4,154,298.3,154.4,298.3,154.7z M298.1,166
		c0.1-0.1,0.2-0.3,0.2-0.7C298.2,165.4,298.1,165.6,298.1,166z M299.5,161.5l-0.3,0.9c0,0.6-0.2,1.3-0.7,2.3l0.5-0.5L299.5,161.5z
		 M299.5,153.1c-0.3,0-0.6,0.1-0.7,0.2C299.2,153.3,299.4,153.3,299.5,153.1z M300.6,151.1c-0.8,0-1.2,0.4-1.2,1.2
		c0,0.3,0.1,0.6,0.2,0.7L300.6,151.1z M300.4,160.3l-0.3,0.2L300.4,160.3z M302.7,147.3c-0.2,0.2-0.4,0.5-0.5,0.7
		c-0.1,0.2-0.3,0.5-0.7,0.7c0.2,0,0.4,0,0.4-0.1c0.1-0.1,0.2-0.1,0.4-0.1L302.7,147.3z M301.8,157.7c0-0.1,0-0.2-0.1-0.3
		c-0.1-0.1-0.1-0.1-0.1-0.3v0.7L301.8,157.7z M303.7,145c-0.1,0.1-0.2,0.3-0.2,0.5L303.7,145z M303.7,144.5l0.3-0.2
		c0-0.2,0.1-0.3,0.3-0.3c-0.2,0-0.5,0.1-0.7,0.3V144.5z M306.3,148.6c-0.1,0.1-0.2,0.2-0.3,0.2c-0.1,0-0.2,0.1-0.3,0.3
		c0.2,0,0.4-0.1,0.4-0.2c0.1-0.1,0.2-0.2,0.4-0.2c0-0.2,0.1-0.5,0.2-0.7c0.1-0.2,0.2-0.5,0.2-0.7L306.3,148.6z M309.1,144
		c-0.2,0-0.4,0.1-0.5,0.3c0.2,0,0.3,0.1,0.3,0.3v-0.5C308.9,144,308.9,144,309.1,144z M315.3,110c-0.2,0.2-0.3,0.4-0.3,0.5
		L315.3,110z M316.7,115.6c0.3,0,0.6-0.1,0.9-0.3c-0.1,0.1-0.2,0.2-0.3,0.2C317.1,115.4,316.9,115.4,316.7,115.6z M317.4,175
		c0-0.2,0.1-0.4,0.2-0.5c-0.2,0.2-0.3,0.5-0.3,0.7L317.4,175z M320.3,111.7c0.2-0.5,0.3-0.9,0.3-1.4c-0.1,0.2-0.3,0.5-0.4,0.8
		c-0.2,0.3-0.6,0.7-1.3,1.3l-0.2,0.2c-0.2,0.2-0.3,0.4-0.3,0.5c0-0.1,0.1-0.2,0.3-0.3c0.2-0.1,0.3-0.2,0.4-0.3
		c0.3,0,0.6-0.1,0.7-0.2L320.3,111.7z M320,103.1c-0.1,0.1-0.2,0.3-0.2,0.7L320,103.1z M319.8,168.9c0.2-0.5,0.4-0.9,0.6-1.3
		c0.2-0.4,0.4-0.8,0.6-1.3c-0.2,0.2-0.5,0.6-0.7,1C320.1,167.8,319.9,168.3,319.8,168.9z M322.6,100.7c0-0.2,0-0.4,0.1-0.6
		c0.1-0.2,0.1-0.4,0.1-0.6l0.7-0.3c-0.3,0-0.6,0.1-0.7,0.2l-0.3,1.2l-0.7,0.3c-0.3,0.3-0.6,1-0.9,1.9c0.1-0.3,0.3-0.8,0.7-1.3
		C321.9,100.9,322.2,100.7,322.6,100.7z M321.9,164.2c0.2-0.9,0.4-1.9,0.6-2.9c0.2-1,0.4-1.9,0.6-2.9l-1.7,5.7
		c-0.2,0.2-0.3,0.5-0.3,0.9c0-0.2,0.1-0.5,0.3-0.7L321.9,164.2z M321.7,180.5c0.1-0.2,0.2-0.6,0.2-1
		C321.8,179.7,321.7,180.1,321.7,180.5z M322.1,109c0-0.1,0-0.2,0.1-0.3c0.1-0.1,0.1-0.3,0.1-0.5C322.1,108.3,322.1,108.6,322.1,109
		z M322.9,107.8c0.3-0.2,0.6-0.4,0.7-0.5C323.5,107.2,323.3,107.4,322.9,107.8z M323.3,177.2c1-0.6,2.1-2.2,3.2-4.8
		c1.1-2.6,2.1-5.4,3-8.5c0.9-3.1,1.7-6,2.3-8.8c0.6-2.8,1.1-4.7,1.3-5.6c-0.2,0.3-0.7,1.6-1.5,3.7c-0.8,2.1-1.5,4.4-2.3,6.9
		c-0.8,2.5-1.6,4.9-2.3,7.3c-0.8,2.4-1.3,4-1.6,4.9c-0.3,0.8-0.7,1.6-1,2.4C324.1,175.6,323.7,176.4,323.3,177.2z M324.7,97.4
		c0.1-0.2,0.2-0.4,0.2-0.6c0-0.2,0.1-0.4,0.3-0.6l0.5-0.3c-0.1,0.1-0.2,0.2-0.3,0.2c-0.1,0-0.3,0.1-0.5,0.2c0,0.2,0,0.4-0.1,0.6
		C324.7,96.9,324.7,97.1,324.7,97.4c-0.2,0-0.4,0-0.5,0.1c-0.1,0.1-0.3,0.1-0.5,0.1c-0.1,0.2-0.2,0.6-0.2,1c0-0.1,0-0.2,0.1-0.3
		c0.1-0.1,0.1-0.3,0.1-0.5c0.2-0.1,0.4-0.2,0.6-0.2S324.5,97.5,324.7,97.4z M324,106c0.1-0.1,0.3-0.2,0.4-0.2s0.3-0.1,0.4-0.3
		l-0.9,0.3c-0.2,0.5-0.3,0.9-0.3,1.2c0-0.1,0.1-0.3,0.2-0.4C323.9,106.5,324,106.3,324,106z M324.5,155.1c-0.2,0.2-0.3,0.4-0.3,0.5
		c0,0.2,0.1,0.4,0.2,0.5C324.4,155.9,324.5,155.5,324.5,155.1z M325,153.1c0,0.1,0,0.2-0.1,0.2c-0.1,0-0.1,0.1-0.1,0.2v0.2
		c0,0.1,0.1,0.2,0.2,0.2V153.1z M326.4,102.7c0,0.1,0,0.2-0.1,0.3c-0.1,0.1-0.1,0.2-0.1,0.4c-0.5,0-0.7,0.1-0.7,0.3v0.2
		c0.1-0.2,0.2-0.3,0.3-0.3c0.1,0,0.2-0.1,0.3-0.2L326.4,102.7z M327.1,93c0.2-0.1,0.4-0.2,0.6-0.2s0.3-0.1,0.4-0.3
		c-0.3,0-0.6,0.1-0.7,0.2C327.3,92.8,327.2,92.9,327.1,93c-0.1,0.2-0.2,0.4-0.3,0.5c-0.1,0.1-0.2,0.3-0.4,0.5h0.5
		c0-0.2,0-0.4,0.1-0.5C327.1,93.4,327.1,93.3,327.1,93z M326.9,159l-0.5,1.6l0.5-0.7V159z M327.3,101.5c0.5-0.2,0.7-0.6,0.7-1
		c-0.2,0.2-0.4,0.4-0.4,0.5C327.5,101.1,327.4,101.3,327.3,101.5z M328.8,90.3c0.1-0.2,0.2-0.4,0.3-0.5c0.1-0.1,0.2-0.3,0.4-0.5
		l-1,0.9c0,0.2,0,0.4-0.1,0.6c-0.1,0.2-0.1,0.4-0.1,0.6L328.8,90.3z M329.2,98.1c0.2-0.2,0.5-0.4,0.7-0.5l0.2-0.2l0.3-1.2
		c-0.2,0.5-0.3,0.9-0.3,1.2l-0.9,0.2V98.1z M330,87.3c0,0.2,0,0.5-0.1,0.7c-0.1,0.2-0.1,0.5-0.1,0.7c0.1-0.2,0.2-0.5,0.2-0.7
		c0-0.2,0.1-0.5,0.3-0.7v-0.7L330,87.3z M332.1,84.9c-0.3,0.1-0.7,0.3-1,0.7L332.1,84.9z M333.3,81.3c0,0.6-0.2,1.1-0.6,1.6
		c-0.4,0.5-0.6,1.1-0.6,1.8c0.2-0.9,0.6-1.6,1-1.9c0-0.2,0-0.5,0.1-0.8C333.3,81.7,333.3,81.5,333.3,81.3z M333.1,149.2
		c0.2-0.7,0.5-1.3,0.7-1.7c-0.6,0-0.9,0.2-0.9,0.7c0,0.2,0,0.4,0.1,0.5C333.1,148.8,333.1,148.9,333.1,149.2z M333.5,145.5
		c0,0.8,0.1,1.4,0.3,1.7L333.5,145.5z"/>
	<path class="st20" d="M462.6,65.1c-0.2-0.2-0.5-0.4-0.8-0.5c-0.3-0.1-0.6-0.3-1-0.5c-2.1-0.9-3.6-1.8-4.4-2.8
		c-0.9-0.9-1.8-2.4-2.9-4.3c-1.3-2.7-2.1-5.4-2.3-8.2c-0.3-2.8-0.4-5.7-0.4-8.6c0-1.7,0-3.6,0-5.5c0-1.9,0.1-3.8,0.3-5.8
		c0.2-2,0.5-3.9,0.9-5.7c0.4-1.8,1.1-3.5,2-5c-1.5-0.9-3.1-1.4-4.9-1.4c-3.4,0-6.6,1-9.6,2.9c-3.1,1.9-5.7,4-8.1,6.2
		c-4.3,4.2-8.1,8.8-11.5,13.8c-3.4,5-6.3,10.3-8.7,15.9c-2.4,5.6-4.2,11.3-5.5,17.3c-1.3,6-1.9,11.9-1.9,17.8c0,2.2,0.1,5,0.3,8.3
		c0.2,3.4,0.8,6.6,1.8,9.7c1,3.1,2.4,5.8,4.2,8.1c1.8,2.3,4.2,3.4,7.4,3.4c2.2,0,4.8-0.8,7.9-2.3c3.1-1.6,6-3.5,8.8-5.9
		c2.8-2.4,5.2-4.9,7.2-7.6c2-2.7,2.9-5.2,2.9-7.5c0-1.6-0.4-3.2-1.1-4.7c-0.8-1.5-1.5-2.9-2.2-4.3l0.3-0.5c0.5,0,1.2,0.1,2.1,0.3
		c1.6,0.6,3.2,1.3,4.8,2.3c1.6,0.9,3,2.1,4.4,3.4c1.3,1.3,2.4,2.8,3.2,4.4c0.8,1.6,1.2,3.4,1.2,5.2c0,1.8-0.3,3.7-1,5.5
		c-0.7,1.8-1.6,3.5-2.7,5.2c-1.1,1.7-2.3,3.2-3.6,4.7s-2.6,2.7-3.9,3.9c-3.3,3-7.1,5.3-11.4,7.2c-4.3,1.8-8.7,2.7-13.3,2.7
		c-5.1,0-9.6-1-13.6-3c-4-2-7.4-4.7-10.4-8c-2.9-3.3-5.3-7.1-7.2-11.4c-1.8-4.3-3.2-8.7-4-13.2c-0.7-4.3-1-8.7-1-13.2
		c0-6.7,0.9-13.6,2.6-20.6c1.7-7,4.2-13.7,7.4-20.1c3.2-6.4,7.2-12.3,11.8-17.8c4.6-5.4,9.8-10,15.6-13.7c2.1-1.3,4.3-2.4,6.7-3.4
		c2.4-1,4.8-1.5,7.4-1.5c4.2,0,8.1,0.6,11.8,1.7c3.7,1.1,7.2,3,10.6,5.7c1.3,0.9,2.5,1.9,3.7,3c1.2,1,2.3,2.2,3.2,3.5
		c0.3,0.6,0.7,1.3,1.2,2.2c0.5,0.9,0.7,1.6,0.7,2.2c0,0.3-0.1,0.6-0.2,0.9c-1.4,4.2-2.4,8.4-3,12.6c-0.6,4.3-1,8.6-1,13
		c0,1.6,0.1,3.2,0.3,4.9c0.2,1.6,0.3,3.2,0.3,4.9C463.9,62.3,463.5,63.9,462.6,65.1z M396.2,51.8c0.5-0.3,0.7-0.7,0.8-1.1
		c0.1-0.4,0.1-0.9,0.1-1.5c-0.2,0.5-0.4,0.9-0.5,1.3C396.4,50.9,396.3,51.3,396.2,51.8z M407.6,30.5c-2.3,2.7-4.3,5.5-6.1,8.6
		c-1.7,3.1-3.2,6.3-4.3,9.6c0.3-0.3,1.1-1.4,2.2-3.2c1.1-1.8,2.3-3.7,3.5-5.7c1.2-2,2.3-4,3.3-5.8c1-1.8,1.6-3.1,1.8-3.6L407.6,30.5
		z M399.1,56.8h0.2l0.3-0.5c-0.1-0.1-0.2-0.2-0.3-0.2C399.2,56.2,399.1,56.5,399.1,56.8z M399.8,54.2l0.5,0.2l0.5-1.7L399.8,54.2z
		 M400.5,68.4c0.2-0.6,0.4-1.1,0.6-1.6c0.2-0.5,0.4-1,0.6-1.6c1.2-3.5,2.3-6.6,3.6-9.5c1.2-2.9,2.5-5.6,3.9-8.2
		c1.4-2.6,2.9-5.2,4.5-7.8c1.6-2.6,3.5-5.4,5.5-8.4c0.2-0.2,0.4-0.5,0.4-0.9c0.1-0.3,0.1-0.6,0.3-0.9c-5.3,5.4-9.5,11.4-12.6,17.9
		C404.2,54.1,401.9,61,400.5,68.4z M401.7,50.9l8.3-15.4c-0.5,0.2-1.1,1-2,2.2c-0.9,1.2-1.7,2.6-2.6,4.1c-0.9,1.5-1.6,2.9-2.3,4.3
		c-0.7,1.4-1.1,2.4-1.2,2.9c-0.1,0.3-0.1,0.7-0.1,1C401.9,50.3,401.9,50.6,401.7,50.9z M405.2,48.3l0.3-0.3L405.2,48.3z M408.9,53.4
		v0.2l0.2-0.2H408.9z M409.5,52.5c0-0.1-0.1-0.2-0.2-0.2h-0.2c0,0.1,0.1,0.2,0.2,0.2H409.5z M409.7,51.5l0.2,0.2v-0.2H409.7z
		 M445.9,103.4c-0.3,0.5-0.7,0.9-1,1.4c-0.3,0.5-0.5,0.9-0.8,1.4v0.3c0.2-0.5,0.6-0.9,1-1.2C445.7,105,445.9,104.4,445.9,103.4z
		 M446.3,102.6h-0.2v0.3C446.2,102.8,446.3,102.7,446.3,102.6z M447,113.5c0.7,0,1.4-0.4,2-1.1c0.6-0.8,1.2-1.6,1.6-2.5
		c0.5-0.9,0.8-1.9,1.1-2.9c0.3-1,0.4-1.8,0.4-2.3l-4.7,8.5L447,113.5z M447.3,107.9l1.4-1.9c-0.6,0.1-0.9,0.3-1,0.7
		C447.5,107.1,447.4,107.5,447.3,107.9z M449,105.2h-0.3c0,0.3,0.1,0.6,0.2,0.7C448.9,105.5,448.9,105.3,449,105.2z"/>
	<path class="st20" d="M515.7,73.6c0,3-0.4,6.1-1.1,9.2c-0.8,3.1-1.4,6.2-2,9.2c-1.3,7.2-2.7,14.4-4.2,21.6
		c-1.5,7.2-2.3,14.5-2.3,21.7c0,1.2,0.1,2.3,0.2,3.4c0.1,1.1,0.3,2.2,0.7,3.4c0,0.1,0,0.2,0.1,0.3c0.1,0.1,0.1,0.1,0.1,0.3
		c0,0.2,0,0.4-0.1,0.5c-0.1,0.1-0.1,0.3-0.1,0.5c-0.5,0.1-1.2,0.2-2.1,0.2c-2.4,0-4.7-0.9-6.8-2.6c-2.1-1.7-3.2-3.8-3.5-6.2
		c-0.1-1-0.2-2.1-0.2-3.2c0-1.1,0-2.2,0-3.2c0-2,0-4,0.1-6c0.1-2,0.2-4,0.4-6c0.9-7.9,1.9-15.4,3-22.5c1.1-7.2,2.8-14.6,5.1-22.2
		l-0.3-0.3l-5.4,4.5c-1.6,1.4-3.2,3.2-4.9,5.5c-1.6,2.3-2.9,4.3-4,6.2c-3.2,5.5-6,11.2-8.2,17c-2.3,5.8-4,11.8-5.3,18
		c-0.2,1.2-0.5,2.1-0.7,2.9c-3-0.3-5.4-1-7.1-2.1c-1.7-1-3-2.4-3.9-4.2c-0.9-1.7-1.4-3.7-1.6-5.9c-0.2-2.2-0.3-4.6-0.3-7.1
		c0-9.1,0.9-18.2,2.6-27.1c1.7-8.9,3.6-17.9,5.5-26.8c0.8-3.6,1.6-7.2,2.4-10.7c0.8-3.6,1.8-7.1,2.9-10.6c1-3.3,2.2-6.6,3.6-9.9
		c1.3-3.2,2.6-6.5,3.9-9.7c0.3-0.8,0.7-1.6,1-2.5c0.3-0.9,0.8-1.6,1.4-2.3c0.6,0.3,1,0.6,1.4,0.8c0.3,0.2,0.8,0.3,1.4,0.3
		c0.8,0,1.7,0.4,2.8,1.1c1,0.8,1.8,1.4,2.4,2c0.6,0.6,1,1,1.1,1.4c0.2,0.3,0.3,0.9,0.4,1.7v1.4c0,1.6-0.2,3.6-0.7,5.9
		c-0.5,2.3-1,4.7-1.7,7.2c-0.7,2.5-1.4,4.9-2.2,7.3c-0.8,2.4-1.4,4.4-1.8,6.2c-1.3,4.7-2.5,9.4-3.6,13.9c-1.2,4.6-2.3,9.2-3.5,13.9
		c-0.2,0.9-0.5,2.2-1,3.7s-0.8,3.2-1.3,4.9c-0.5,1.7-0.8,3.3-1.1,4.8c-0.3,1.5-0.4,2.7-0.4,3.5c0,0.1,0,0.2,0.1,0.3
		c0.1,0.1,0.1,0.2,0.1,0.3c1.7-2.5,3.3-4.9,4.8-6.9c1.5-2.1,3.1-4,4.9-5.8c1.7-1.8,3.6-3.5,5.5-5.1c2-1.6,4.3-3.3,6.9-5
		c0.7-0.5,1.3-0.8,1.9-1c0.6-0.2,1.3-0.3,2.1-0.3c1.6,0,3.2,0.4,4.8,1.3s3,1.8,4.2,2.7c1.3,0.9,2.1,1.8,2.6,2.8
		C515.5,70.7,515.7,72,515.7,73.6z M469.7,68.6h-0.2V69h0.2V68.6z M470,67.2c0-0.2,0-0.4,0.1-0.5c0.1-0.1,0.1-0.3,0.1-0.5l-0.5,0.9
		L470,67.2z M470.2,66c0.1-0.2,0.2-0.5,0.2-0.9h-0.2V66z M470.7,62.7c-0.1,0.2-0.2,0.5-0.2,0.9h0.3
		C470.8,63.5,470.7,63.2,470.7,62.7z M470.9,101.3c0-0.2,0-0.4-0.1-0.4c-0.1-0.1-0.1-0.2-0.1-0.4c-0.1,0.2-0.2,0.5-0.2,0.9H470.9z
		 M471.2,96.7c-0.2,0.9-0.3,1.6-0.3,2.1h0.3V96.7z M475,73.6c-0.8,3.8-1.6,7.6-2.3,11.4c-0.7,3.8-1.2,7.6-1.6,11.4
		c0.5-1.4,0.9-2.9,1.2-4.6c0.3-1.7,0.7-3.4,1-5.3c0.3-1.8,0.6-3.6,0.9-5.4c0.3-1.7,0.6-3.3,1-4.9c2-9,4.2-18,6.6-26.9
		c2.4-8.9,4.8-17.8,7.1-26.9l-0.3,0.2c-1.3,3.9-2.5,7.8-3.7,11.6c-1.2,3.8-2.3,7.7-3.4,11.6c-1.3,4.6-2.4,9.2-3.5,13.8
		C476.9,64.4,476,69,475,73.6z M471.9,57.9c-0.1,0.1-0.2,0.3-0.2,0.7h0.2V57.9z M471.9,57.7c0.2-0.2,0.3-0.5,0.3-0.7l-0.3-0.2V57.7z
		 M472.4,55.3l0.3,0.2c0-0.5,0-0.9,0.1-1.4c0.1-0.5,0.1-0.9,0.1-1.4l0.3-0.2c0.3-1.3,0.7-2.5,1-3.6c0.3-1.1,0.5-2.3,0.8-3.6
		c-0.6,1.2-1,2.3-1.3,3.6c-0.3,1.2-0.5,2.5-0.8,3.7L472.4,55.3z M473.1,67v0.7h0.2V67H473.1z M474.3,62.2c0,0.2,0,0.4-0.1,0.5
		c-0.1,0.1-0.1,0.3-0.1,0.5l-0.3,1.2h0.3l0.5-2.1L474.3,62.2z M485.6,87.1c-1,1-2.1,2.7-3.3,4.9c-1.2,2.2-2.3,4.5-3.4,7
		c-1.1,2.5-2.1,4.9-2.9,7.4c-0.8,2.4-1.4,4.3-1.7,5.7c-0.1,0.2-0.1,0.5-0.1,0.9c0.1,0.3,0,0.6-0.1,0.9c0.3-0.3,0.6-0.9,0.9-1.6
		c0.9-2.8,1.9-5.5,2.9-8.3c1-2.8,2.1-5.5,3.4-8.1l4.3-8.3V87.1z M474.7,60.8c0,0.1,0.1,0.2,0.2,0.3v-0.3H474.7z M474.7,104.5h0.2
		v-0.2L474.7,104.5z M475.2,58.6c-0.1,0.2-0.2,0.5-0.2,0.9l0.3,0.2C475.3,59.4,475.2,59,475.2,58.6z M475.5,95.8h0.3l1.6-3.3
		L475.5,95.8z M480.6,37.9c-0.8,2.7-1.6,5.3-2.3,8.1c-0.7,2.7-1.3,5.4-1.9,8.1c0.2-0.2,0.5-1.1,1-2.6c0.4-1.5,0.8-3.2,1.3-5
		c0.5-1.8,0.9-3.6,1.2-5.2C480.2,39.6,480.5,38.5,480.6,37.9l0.3-1l0.2-0.7c-0.1,0.1-0.2,0.3-0.2,0.7
		C480.7,37.4,480.6,37.7,480.6,37.9z M478.7,105.5l-0.2-0.2v0.2H478.7z M478.7,31.2c0.1,0,0.2-0.1,0.3-0.2v-0.2L478.7,31.2z
		 M479.5,28.6h0.2v-0.2L479.5,28.6z M480.1,101.3h-0.2l0.2,0.2V101.3z M481.3,90.4c0-0.1,0.1-0.2,0.2-0.3h-0.2V90.4z M481.4,35.2
		l0.2-0.5h-0.2V35.2z M481.6,57.3l-0.2,0.2h0.2V57.3z M481.8,33.6h0.2v-0.3h-0.2V33.6z M482.1,32.1h0.2v-0.2L482.1,32.1z
		 M483.3,50.6c0-0.1,0.1-0.2,0.2-0.3h-0.2V50.6z M485.4,43.5h-0.2v0.2L485.4,43.5z M486.1,40.7h-0.2v0.2L486.1,40.7z M485.9,86.8
		c0.1-0.2,0.2-0.4,0.3-0.5c0.1-0.1,0.2-0.3,0.2-0.5c-0.1,0.2-0.2,0.4-0.3,0.5C486,86.4,485.9,86.6,485.9,86.8z M486.5,39.5
		c-0.1,0-0.2,0.1-0.2,0.2h0.2V39.5z M489.6,19.1c-0.2,0.9-0.5,2.1-0.7,3.5c0.2-0.6,0.5-1.1,0.7-1.6c0.2-0.5,0.3-1.1,0.3-1.6
		L489.6,19.1z M490.1,17.8h0.2c0-0.3-0.1-0.6-0.2-0.7l0.5-0.7l-0.2-0.2c0,0.1-0.1,0.4-0.3,0.9V17.8z M504.5,114.2h-0.2v0.7l0.2-0.2
		V114.2z M505.2,109H505c0,0.1,0,0.2,0.1,0.2c0.1,0,0.1,0.1,0.1,0.2V109z M506,103.4l-0.3,1.2h0.3V103.4z M508.6,91.8
		c0.6-2.4,1.1-4.8,1.6-7.2c0.5-2.4,0.9-4.8,1.2-7.2c-1.2,3.9-2.1,7.8-2.9,11.7c-0.8,3.9-1.5,7.8-2.2,11.9c0.6-1.4,1-2.9,1.3-4.6
		C508,94.7,508.3,93.2,508.6,91.8z M511.8,76.1h-0.3v0.9L511.8,76.1z"/>
	<path class="st20" d="M554.2,82.3c0,3.1-0.8,6-2.5,8.7c-1.7,2.7-3.8,4.9-6.4,6.8c-2.6,1.9-5.4,3.4-8.4,4.5c-3,1.1-6,1.6-8.9,1.6
		c-0.3,0.7-0.5,1.6-0.5,2.9s0,2.2,0,2.9c0,0.5,0,1.2,0.1,2.1c0.1,0.9,0.2,1.8,0.4,2.8c0.2,0.9,0.5,1.7,0.9,2.4c0.4,0.7,0.9,1,1.4,1
		c1.8,0,3.4-0.5,4.7-1.6c1.3-1,2.2-2.4,2.8-4l0.2-0.2v0.5c0,0.8-0.3,1.5-0.8,2.2c-0.5,0.6-0.9,1.3-1.1,2c0.9-0.5,1.6-1.1,1.9-1.8
		c0.3-0.8,0.8-1.5,1.4-2.3c0.2,0.5,0.3,0.8,0.3,0.9c0,0.6-0.2,1.1-0.5,1.5c-0.3,0.4-0.6,0.9-0.7,1.5l1.2,0.2l-0.2,0.5l0.3,0.2v-0.2
		h0.5l-0.2-0.3h0.2l0.2-0.7h0.2l0.3-0.7v0.7c0.5-0.5,0.7-1,0.7-1.7l0.7-0.9c-0.2,2.5-1.3,4.6-3.3,6.1c-2,1.5-4.2,2.3-6.6,2.3
		c-5.3,0-9.4-1.6-12.4-4.9c-2.9-3.2-4.4-7.4-4.4-12.6c0-4.2,0.8-8.3,2.3-12.3c1.6-4,3.6-7.7,6-11.1c3.9-5.5,9.2-8.3,15.8-8.3
		c0.8,0,1.6,0.1,2.3,0.2c0.8,0.1,1.5,0.3,2.3,0.5l-3.5-6.4l1.4-0.3c3.5,1.2,6.3,3.1,8.4,5.8C553.1,75.2,554.2,78.5,554.2,82.3z
		 M522.3,90.4c-0.1,0-0.2,0.1-0.2,0.2h0.2V90.4z M523.2,87.8l-0.5,0.9l0.3,0.2L523.2,87.8z M523.4,87.5l-0.2,0.2h0.2V87.5z
		 M526.1,83.7c0-0.2,0-0.4,0.1-0.4c0.1-0.1,0.1-0.2,0.1-0.4l0.5-0.2c-0.2,0-0.4,0.1-0.5,0.2l-0.9,1.4l-0.3,0.5v0.2
		c-0.2,0.2-0.4,0.5-0.6,0.8c-0.2,0.3-0.4,0.6-0.6,1c0.6-0.2,1-0.8,1.2-1.7l0.3-0.7L526.1,83.7z M525.8,95.8
		c-0.1,0.1-0.2,0.4-0.2,0.9h0.2V95.8z M526.3,88.2v0.3v-0.2V88.2z M526.5,94.8c0.6-2,1.4-3.8,2.6-5.5c1.2-1.7,2.2-3.5,2.9-5.5
		c-1.2,1.3-2.5,2.9-3.7,5C527.1,91,526.5,92.9,526.5,94.8z M527.2,86.1c-0.1,0.2-0.2,0.5-0.2,0.7C527.1,86.7,527.2,86.5,527.2,86.1z
		 M528.2,85.1c-0.1,0.1-0.2,0.3-0.3,0.4c-0.1,0.2-0.1,0.3-0.3,0.3h0.2C528.1,85.5,528.2,85.3,528.2,85.1z M545,79.2
		c-2,0.5-3.8,1.3-5.5,2.5s-3.3,2.6-4.6,4.2c-1.3,1.6-2.5,3.4-3.4,5.4c-0.9,2-1.6,3.9-1.9,5.7c1.5-0.1,3.2-0.8,5-2.1
		c1.8-1.3,3.5-2.7,5-4.4c1.5-1.7,2.8-3.5,3.8-5.4c1-1.9,1.6-3.7,1.6-5.3V79.2z M532.7,83.3c-0.1,0-0.3,0.1-0.5,0.3l0.7-0.3v-0.2
		L532.7,83.3z M544,88.7c-0.1,0.1-0.2,0.3-0.2,0.7l-0.5,0.3l0.5-0.2v-0.2L544,88.7z M544.8,87.7c0.2-0.5,0.3-0.8,0.3-0.9l-0.3,0.7
		V87.7z M545.7,85.8c0.2,0,0.3-0.1,0.3-0.3h-0.3V85.8z M546.8,92.3l-0.3,0.3L546.8,92.3z M546.8,88.7h0.2l0.2-0.5L546.8,88.7z
		 M546.9,92.3c0.2,0,0.4-0.1,0.5-0.2C547.2,92.2,547,92.2,546.9,92.3z M550.9,85.8c-0.2,0.3-0.5,0.8-0.9,1.4
		c-0.3,0.6-0.7,1.2-1.1,1.8c-0.4,0.6-0.8,1.2-1,1.8c-0.3,0.6-0.4,1-0.4,1.2c0.9-0.9,1.6-1.9,2.2-2.9C550.1,88,550.6,86.9,550.9,85.8
		z"/>
	<path class="st20" d="M592.8,82.3c0,3.1-0.8,6-2.5,8.7c-1.7,2.7-3.8,4.9-6.4,6.8c-2.6,1.9-5.4,3.4-8.4,4.5c-3,1.1-6,1.6-8.9,1.6
		c-0.3,0.7-0.5,1.6-0.5,2.9s0,2.2,0,2.9c0,0.5,0,1.2,0.1,2.1c0.1,0.9,0.2,1.8,0.4,2.8c0.2,0.9,0.5,1.7,0.9,2.4c0.4,0.7,0.9,1,1.4,1
		c1.8,0,3.4-0.5,4.7-1.6c1.3-1,2.2-2.4,2.8-4l0.2-0.2v0.5c0,0.8-0.3,1.5-0.8,2.2c-0.5,0.6-0.9,1.3-1.1,2c0.9-0.5,1.6-1.1,1.9-1.8
		c0.3-0.8,0.8-1.5,1.4-2.3c0.2,0.5,0.3,0.8,0.3,0.9c0,0.6-0.2,1.1-0.5,1.5c-0.3,0.4-0.6,0.9-0.7,1.5l1.2,0.2l-0.2,0.5l0.3,0.2v-0.2
		h0.5l-0.2-0.3h0.2l0.2-0.7h0.2l0.3-0.7v0.7c0.5-0.5,0.7-1,0.7-1.7l0.7-0.9c-0.2,2.5-1.3,4.6-3.3,6.1c-2,1.5-4.2,2.3-6.6,2.3
		c-5.3,0-9.4-1.6-12.4-4.9c-2.9-3.2-4.4-7.4-4.4-12.6c0-4.2,0.8-8.3,2.3-12.3c1.6-4,3.6-7.7,6-11.1c3.9-5.5,9.2-8.3,15.8-8.3
		c0.8,0,1.6,0.1,2.3,0.2c0.8,0.1,1.5,0.3,2.3,0.5l-3.5-6.4l1.4-0.3c3.5,1.2,6.3,3.1,8.4,5.8C591.8,75.2,592.8,78.5,592.8,82.3z
		 M561,90.4c-0.1,0-0.2,0.1-0.2,0.2h0.2V90.4z M561.8,87.8l-0.5,0.9l0.3,0.2L561.8,87.8z M562,87.5l-0.2,0.2h0.2V87.5z M564.8,83.7
		c0-0.2,0-0.4,0.1-0.4c0.1-0.1,0.1-0.2,0.1-0.4l0.5-0.2c-0.2,0-0.4,0.1-0.5,0.2l-0.9,1.4l-0.3,0.5v0.2c-0.2,0.2-0.4,0.5-0.6,0.8
		c-0.2,0.3-0.4,0.6-0.6,1c0.6-0.2,1-0.8,1.2-1.7l0.3-0.7L564.8,83.7z M564.4,95.8c-0.1,0.1-0.2,0.4-0.2,0.9h0.2V95.8z M564.9,88.2
		v0.3v-0.2V88.2z M565.1,94.8c0.6-2,1.4-3.8,2.6-5.5c1.2-1.7,2.2-3.5,2.9-5.5c-1.2,1.3-2.5,2.9-3.7,5
		C565.7,91,565.1,92.9,565.1,94.8z M565.8,86.1c-0.1,0.2-0.2,0.5-0.2,0.7C565.7,86.7,565.8,86.5,565.8,86.1z M566.8,85.1
		c-0.1,0.1-0.2,0.3-0.3,0.4c-0.1,0.2-0.1,0.3-0.3,0.3h0.2C566.7,85.5,566.8,85.3,566.8,85.1z M583.7,79.2c-2,0.5-3.8,1.3-5.5,2.5
		s-3.3,2.6-4.6,4.2c-1.3,1.6-2.5,3.4-3.4,5.4c-0.9,2-1.6,3.9-1.9,5.7c1.5-0.1,3.2-0.8,5-2.1c1.8-1.3,3.5-2.7,5-4.4
		c1.5-1.7,2.8-3.5,3.8-5.4c1-1.9,1.6-3.7,1.6-5.3V79.2z M571.4,83.3c-0.1,0-0.3,0.1-0.5,0.3l0.7-0.3v-0.2L571.4,83.3z M582.6,88.7
		c-0.1,0.1-0.2,0.3-0.2,0.7l-0.5,0.3l0.5-0.2v-0.2L582.6,88.7z M583.5,87.7c0.2-0.5,0.3-0.8,0.3-0.9l-0.3,0.7V87.7z M584.3,85.8
		c0.2,0,0.3-0.1,0.3-0.3h-0.3V85.8z M585.4,92.3l-0.3,0.3L585.4,92.3z M585.4,88.7h0.2l0.2-0.5L585.4,88.7z M585.6,92.3
		c0.2,0,0.4-0.1,0.5-0.2C585.8,92.2,585.7,92.2,585.6,92.3z M589.5,85.8c-0.2,0.3-0.5,0.8-0.9,1.4c-0.3,0.6-0.7,1.2-1.1,1.8
		c-0.4,0.6-0.8,1.2-1,1.8c-0.3,0.6-0.4,1-0.4,1.2c0.9-0.9,1.6-1.9,2.2-2.9C588.8,88,589.2,86.9,589.5,85.8z"/>
	<path class="st20" d="M611.5,68.6c-1,8.5-3.4,16.5-6.9,24c-3.6,7.4-7.9,14.6-12.8,21.6c-1,1.4-2.1,2.7-3.3,4
		c-1.2,1.3-2.5,2.4-4.2,3.3l-6.1-2.1l0.3-0.5c1.5-1.5,2.8-3,4-4.6c1.2-1.6,2.3-3.2,3.5-4.9c8.7-13.7,14.4-28.6,17.3-44.7
		c-1.6-1.2-3.4-2.3-5.2-3.6c-1.8-1.2-3.6-2.6-5.1-4.1c-1.6-1.5-2.9-3.1-3.9-4.9c-1-1.8-1.6-3.8-1.6-6.2c0-1.2,0.2-2.3,0.7-3.6
		c0.5-1.2,1.1-2.3,2-3.4s1.8-1.9,2.9-2.5c1.1-0.6,2.3-1,3.6-1c1.5,0,2.9,0.3,4.3,1c2.9,1.3,5.2,3.1,6.8,5.6c1.7,2.5,2.7,5.2,3,8.2
		c0.2,2,0.4,3.9,0.6,5.7c0.2,1.8,0.3,3.8,0.4,5.7c3,1.7,6,3.5,9,5.4c3,1.8,5.8,3.9,8.3,6.2c2.8,2.7,4.2,5.8,4.2,9.4
		c0,2.7-0.6,5.8-1.8,9.5c-1.2,3.7-2.3,6.9-3.2,9.5c-0.8,2.3-1.7,4.9-2.7,7.7c-1,2.8-1.9,5.7-2.8,8.7c-0.9,2.9-1.6,5.9-2.3,8.7
		c-0.6,2.9-1,5.5-1,8c0,2.5,0.4,4.8,1.2,6.8l4.9,1.2l-0.2,1.4l0.2,0.2l0.9-1h1.4c0.3,0.7,0.5,1.4,0.5,2.1c0,0.8-0.3,1.5-0.9,2.1
		c-0.6,0.6-1.3,1-2.1,1.4c-0.8,0.3-1.6,0.6-2.5,0.7c-0.9,0.1-1.6,0.2-2.3,0.2c-2.8,0-5.2-0.7-7.2-2.1c-2-1.4-3.7-3.1-4.9-5.2
		c-1.3-2.1-2.2-4.4-2.8-6.9c-0.6-2.5-0.9-5-0.9-7.4c0-2.9,0.4-6.2,1.2-9.8c0.8-3.6,1.8-7.4,2.9-11.2c1.2-3.8,2.4-7.5,3.7-11.1
		c1.3-3.6,2.5-6.8,3.6-9.5c0.6-1.3,1.2-3.1,1.9-5.4c0.7-2.3,1-4.1,1-5.4c0-2.1-0.9-3.6-2.8-4.7C614.9,70.2,613.2,69.3,611.5,68.6z
		 M592,40.7l-1.1,1.6l0.3,0.3C591.6,41.7,591.8,41.1,592,40.7z M592,109.8l-0.2,0.2h0.2V109.8z M593.3,100.8c0.5-0.2,0.8-0.6,1-1.1
		c0.2-0.5,0.3-1.1,0.4-1.6L593.3,100.8z M595.8,45.4c0.2-0.5,0.4-0.9,0.4-1.4c0.1-0.5,0.2-1,0.4-1.6c-0.7,0.7-1,1.4-1,2.1
		C595.6,44.9,595.6,45.2,595.8,45.4z M603.6,57.7c0-0.3,0-0.7,0.1-1.1c0.1-0.4,0.1-0.8,0.1-1.1c0-0.8-0.1-1.8-0.2-3.1
		c-0.1-1.3-0.3-2.5-0.5-3.8c-0.2-1.3-0.5-2.5-0.9-3.6c-0.3-1.2-0.8-2-1.2-2.6c-1.8,1.6-2.8,3.6-2.8,5.9c0,1.8,0.5,3.7,1.5,5.5
		C600.7,55.4,602,56.8,603.6,57.7z M608.1,73.8c-0.1,0-0.3,0.3-0.5,0.9c-1.3,4.3-2.7,8.5-4.2,12.6c-1.5,4.1-3.2,8.2-5,12.2
		c0.9-1,1.9-2.7,2.9-4.9c1-2.3,2-4.7,3-7.3c1-2.6,1.8-5.1,2.4-7.6C607.4,77.1,607.8,75.2,608.1,73.8z M599.4,87.3
		c0.5-0.9,0.8-1.8,1.1-2.5c0.3-0.7,0.5-1.6,0.8-2.5l-0.3,0.2L599.4,87.3z M601.8,79.7c-0.6,0.7-0.8,1.4-0.5,2.3L601.8,79.7z
		 M602.4,78.3l-0.2,0.5C602.3,78.7,602.4,78.5,602.4,78.3z M602.7,77.4h-0.2c0,0.3-0.1,0.6-0.2,0.7
		C602.6,77.9,602.7,77.7,602.7,77.4z M603.1,75.4l0.5-0.7h-0.2L603.1,75.4z M603.9,73.3l-0.2-0.3v0.5L603.9,73.3z M608.4,71.9h-0.2
		v0.7h0.2V71.9z M608.8,70h-0.2v0.5h0.2V70z M621.1,85.4c-0.6,0.7-1,1.6-1.4,2.6c-0.3,1-0.6,2-0.9,2.9l-8.3,25.3l-1.9,6.9
		c0.8-1.6,1.5-3.3,2-5s1.1-3.5,1.6-5.2c1.5-4.6,3-9.2,4.6-13.7C618.4,94.8,619.8,90.1,621.1,85.4z M612.2,126.5h0.3
		c0-0.2,0-0.4-0.1-0.4c-0.1-0.1-0.1-0.2-0.1-0.4C612.3,125.8,612.2,126.1,612.2,126.5z M623.7,88.4l-8.5,24.9c-0.6,2-1,3.9-1.4,5.9
		c-0.3,2-0.8,3.9-1.2,5.9l0.3-0.3c0.8-2.7,1.5-5.3,2.2-7.9c0.6-2.6,1.4-5.2,2.3-7.9c1.2-3.5,2.4-6.9,3.8-10.4s2.4-7,2.9-10.7
		L623.7,88.4z M615.4,133.4c0.2-1.3,0.4-2.5,0.6-3.6c0.2-1.2,0.4-2.4,0.6-3.6c0.9-4.4,2.1-8.7,3.5-12.9c1.4-4.2,2.8-8.5,4.3-12.7
		c0.9-2.7,1.8-5.3,2.8-8c0.9-2.7,1.5-5.4,1.7-8.1h-0.3c-2.1,5.9-4.1,11.8-6,17.7c-1.9,5.9-3.8,11.8-5.6,17.7c-0.6,1.7-1,3.5-1.3,5.2
		c-0.3,1.7-0.4,3.5-0.4,5.4c0,0.6,0,1.1,0,1.6C615.2,132.3,615.2,132.8,615.4,133.4z M616.2,118v-0.2L616,118H616.2z M618,111.7
		l0.2-0.2H618V111.7z M618.3,110.4l0.2,0.2v-0.2H618.3z M618.5,127.3V127h-0.2C618.3,127.1,618.4,127.2,618.5,127.3z M618.6,109.3
		l0.2,0.2v-0.2H618.6z M618.8,125.3h-0.2v0.3h0.2V125.3z M619.9,121.4h0.2v-0.5h-0.2V121.4z M620.4,119.4h-0.2v0.5h0.2V119.4z
		 M621.1,102.4l-0.2,0.2h0.2V102.4z M621.1,117.1c-0.1,0-0.2,0.1-0.2,0.3h0.2V117.1z M621.4,84.4h-0.2v0.7
		C621.4,85,621.4,84.7,621.4,84.4z M621.4,115.9l-0.2,0.2h0.2V115.9z M621.8,114.3l-0.2,0.3l0.3,0.2
		C621.9,114.6,621.9,114.5,621.8,114.3z M622.3,113.1h-0.2v0.5h0.2V113.1z M623.3,110v-0.2h-0.2C623.2,110,623.2,110,623.3,110z
		 M623.7,94.9l-0.2,0.2h0.2V94.9z M623.7,108.8c-0.1,0-0.2,0.1-0.2,0.2L623.7,108.8z M624.5,87h-0.3v0.5L624.5,87z M624.4,106.7
		l0.2-0.2h-0.2V106.7z M624.7,105.7c0.1,0,0.2-0.1,0.2-0.3h-0.2V105.7z M625.1,104.5h0.2v-0.3h-0.2V104.5z M627.1,98.9H627v0.3h0.2
		V98.9z M627.3,98.1h0.2v-0.2h-0.2V98.1z M627.7,96.7l0.2,0.2v-0.2H627.7z M630.1,89.9v-0.2l-0.2,0.2H630.1z"/>
</g>
</svg>
