<?xml version="1.0" encoding="utf-8"?>
<!-- Generator: Adobe Illustrator 26.3.1, SVG Export Plug-In . SVG Version: 6.00 Build 0)  -->
<svg version="1.1" id="Layer_1" xmlns="http://www.w3.org/2000/svg" xmlns:xlink="http://www.w3.org/1999/xlink" x="0px" y="0px"
	 viewBox="0 0 106.5 106.5" style="enable-background:new 0 0 106.5 106.5;" xml:space="preserve">
<style type="text/css">
	.st0{fill:#EBEFF2;}
</style>
<path class="st0" d="M59.7,27.7c1.7-4.1,5.3-7.3,9.6-8.5c1.2-0.3,2.5-0.5,3.9-0.5c1.3,0,2.6,0.2,3.9,0.5c4.4,1.2,7.9,4.4,9.6,8.5
	l0.4,1l16.1,43.4c2.2-5.8,3.4-12.2,3.4-18.8C106.5,23.8,82.7,0,53.3,0S0,23.8,0,53.3c0,6.6,1.2,12.9,3.4,18.8l16.1-43.4l0.4-1
	c1.7-4.1,5.3-7.3,9.6-8.5c1.2-0.3,2.5-0.5,3.9-0.5c1.3,0,2.6,0.2,3.9,0.5c4.4,1.2,7.9,4.4,9.6,8.5l0.4,1l-7.1,19.2l-6.8-18.2
	l-6.2,16.8L12.1,87c9.8,11.9,24.6,19.5,41.2,19.5S84.7,98.9,94.5,87l-15-40.6l-6.2-16.8L67,46.4L51.6,87.9H37.4l21.9-59.2L59.7,27.7
	z M73.2,70.3c4.8,0,8.8,3.9,8.8,8.8c0,4.8-3.9,8.8-8.8,8.8s-8.8-3.9-8.8-8.8C64.4,74.2,68.3,70.3,73.2,70.3z"/>
</svg>
