<?xml version="1.0" encoding="utf-8"?>
<!-- Generator: Adobe Illustrator 26.3.1, SVG Export Plug-In . SVG Version: 6.00 Build 0)  -->
<svg version="1.1" id="Layer_1" xmlns="http://www.w3.org/2000/svg" xmlns:xlink="http://www.w3.org/1999/xlink" x="0px" y="0px"
	 viewBox="0 0 106.1 106.1" style="enable-background:new 0 0 106.1 106.1;" xml:space="preserve">
<style type="text/css">
	.st0{fill:#EBEFF2;}
</style>
<path class="st0" d="M59.5,27.6c1.7-4.1,5.2-7.3,9.6-8.5c1.2-0.3,2.5-0.5,3.9-0.5s2.6,0.2,3.9,0.5c4.4,1.2,7.9,4.4,9.6,8.5l0.4,1
	l16,43.2c2.2-5.8,3.4-12.1,3.4-18.7C106.1,23.8,82.4,0,53.1,0C23.8,0,0,23.8,0,53.1C0,59.7,1.2,66,3.4,71.8l16-43.2l0.4-1
	c1.7-4.1,5.2-7.3,9.6-8.5c1.2-0.3,2.5-0.5,3.9-0.5c1.3,0,2.6,0.2,3.9,0.5c4.4,1.2,7.9,4.4,9.6,8.5l0.4,1l-7.1,19.1l-6.7-18.2
	L27,46.3L12,86.7c9.7,11.9,24.5,19.4,41,19.4c16.5,0,31.3-7.6,41-19.4l-15-40.4l-6.2-16.8l-6.2,16.8L51.4,87.5H37.3l21.8-58.9
	L59.5,27.6z M72.9,70c4.8,0,8.7,3.9,8.7,8.7c0,4.8-3.9,8.7-8.7,8.7c-4.8,0-8.7-3.9-8.7-8.7C64.2,73.9,68.1,70,72.9,70z"/>
</svg>
