<?xml version="1.0" encoding="utf-8"?>
<!-- Generator: Adobe Illustrator 26.3.1, SVG Export Plug-In . SVG Version: 6.00 Build 0)  -->
<svg version="1.1" id="Layer_1" xmlns="http://www.w3.org/2000/svg" xmlns:xlink="http://www.w3.org/1999/xlink" x="0px" y="0px"
	 viewBox="0 0 106.5 106.5" style="enable-background:new 0 0 106.5 106.5;" xml:space="preserve">
<style type="text/css">
	.st0{fill:#EBEFF2;}
</style>
<path class="st0" d="M39.1,16.7L0.1,55.8c-0.7-14.5,4.5-29.2,15.5-40.2c20.8-20.8,54.5-20.8,75.3,0c5.1,5.1,9,11,11.6,17.3L59,76.4
	c-0.1,0-0.2,0-0.4,0c-0.4,0-0.8-0.1-1.2-0.3c-0.1-0.1-0.2-0.1-0.3-0.2c0,0,0,0,0,0c0.7-4,5.4-26.3,7.8-38.3l0.2-1.1
	c0.6-3.1,1.1-5.4,1.3-6.5l0-0.1l0-0.3l0-0.1c0.6-4.4-0.9-8.9-4.4-12.3C61,16,59.4,14.9,57.7,14c-2.4-1.2-5-1.8-7.6-1.8
	C46,12.2,42.1,13.8,39.1,16.7z M69.9,87.5c-2.9,2.9-6.9,4.5-11.3,4.5c0,0,0,0,0,0c-2.9,0-5.8-0.7-8.5-2.1c-1.6-0.8-2.9-1.8-4.1-3
	c-3.6-3.6-5.2-8.7-4.2-13.8c0.8-4.2,5.4-26.7,7.9-38.8c0,0,1-4.9,1.3-6.2c-0.1-0.1-0.2-0.1-0.2-0.1c-0.2-0.1-0.4-0.2-0.6-0.2l-46,46
	c2.6,6.2,6.4,12,11.5,17.1c20.8,20.8,54.5,20.8,75.3,0c11-11,16.2-25.6,15.5-40L69.9,87.5z"/>
</svg>
