<?xml version="1.0" encoding="utf-8"?>
<!-- Generator: Adobe Illustrator 26.3.1, SVG Export Plug-In . SVG Version: 6.00 Build 0)  -->
<svg version="1.1" id="Layer_1" xmlns="http://www.w3.org/2000/svg" xmlns:xlink="http://www.w3.org/1999/xlink" x="0px" y="0px"
	 viewBox="0 0 132.5 106.5" style="enable-background:new 0 0 132.5 106.5;" xml:space="preserve">
<style type="text/css">
	.st0{fill:#EBEFF2;}
</style>
<g>
	<path class="st0" d="M129.2,35.2c-2.2-5.5-5.4-10-9.6-13.6c-4.2-3.5-9.4-5.7-15.5-6.5c-1.8-0.2-3.6-0.3-5.5-0.4
		c-1.9,0-3.2-0.1-3.8-0.1H70.2v12.1h13.1h7.5h3.9c1.1,0,2.4,0,4.1,0.1c1.7,0.1,3.1,0.2,4.4,0.5c3.6,0.7,6.5,2.3,8.8,4.8
		c2.3,2.5,4,5.6,5.1,9.3c1.1,3.7,1.7,7.6,1.7,11.8c0,4-0.5,7.9-1.6,11.6c-1.1,3.7-2.8,6.8-5.1,9.4c-2.3,2.6-5.2,4.2-8.9,4.9
		c-1.3,0.2-2.8,0.4-4.4,0.5c-1.7,0.1-3,0.1-4.1,0.1h-3.9h-7.5H70.2v12.1h24.5c0.6,0,1.9,0,3.9-0.1c1.9,0,3.8-0.2,5.5-0.4
		c6.1-0.8,11.3-2.9,15.5-6.5c4.2-3.5,7.4-8.1,9.6-13.6c2.2-5.5,3.3-11.5,3.3-18C132.5,46.7,131.4,40.7,129.2,35.2z"/>
	<path class="st0" d="M2.1,28.3c1.4-3.5,3.6-6.4,6.5-8.6c2.9-2.3,6.6-3.8,11-4.4c1-0.2,2.1-0.3,3.3-0.3c1.2-0.1,2.1-0.1,2.9-0.1
		h31.8v12.1l-31.3-0.1c-0.7,0-1.5,0-2.4,0.1c-0.9,0.1-1.7,0.2-2.5,0.4c-2.1,0.5-3.8,1.5-5.1,2.8c-1.2,1.4-2.1,2.9-2.6,4.6
		c-0.5,1.7-0.8,3.4-0.8,5.1c0,1.6,0.3,3.3,0.8,5c0.5,1.7,1.4,3.2,2.6,4.6c1.2,1.4,2.9,2.3,5.1,2.8c0.7,0.2,1.6,0.4,2.5,0.4
		c0.9,0.1,1.7,0.1,2.4,0.1h31.3v38.9H44.7V64.9H25.8c-0.7,0-1.7,0-2.9-0.1c-1.2-0.1-2.3-0.2-3.3-0.3c-4.4-0.7-8.1-2.2-11-4.4
		c-2.9-2.3-5.1-5.2-6.5-8.6C0.7,47.9,0,44,0,39.8C0,35.6,0.7,31.7,2.1,28.3z"/>
</g>
</svg>
