<?xml version="1.0" encoding="UTF-8"?>
<svg id="Layer_1" xmlns="http://www.w3.org/2000/svg" version="1.1" viewBox="0 0 651.4 865.02">
  <!-- Generator: Adobe Illustrator 29.5.0, SVG Export Plug-In . SVG Version: 2.1.0 Build 137)  -->
  <defs>
    <style>
      .st0, .st1 {
        fill: #fff;
      }

      .st1 {
        opacity: .5;
      }

      .st2 {
        stroke-dasharray: 7;
      }

      .st2, .st3 {
        fill: none;
        stroke: #fff;
        stroke-miterlimit: 10;
      }

      .st3 {
        stroke-dasharray: 7 7;
      }
    </style>
  </defs>
  <path class="st1" d="M375.99,481.21V166.97c0-.11.09-.2.2-.2h0c97.52,0,176.58,79.06,176.58,176.58v281.29c0,.19.23.28.36.14,55.79-59.76,88.33-141.5,83.17-230.83-9.05-156.72-135.02-282.94-291.72-292.27-89.19-5.31-170.85,26.96-230.68,82.45-.09.08-.09.21,0,.3l124.25,124.25,34.8,34.8s.06.09.06.14v314.25c0,.11-.09.2-.2.2h0c-97.52,0-176.58-79.06-176.58-176.58V202.43c0-.19-.23-.28-.36-.14C28.98,275.36-3.53,380.43,24.06,491.9c27.03,109.2,112.87,195.01,222.07,222.02,111.66,27.61,216.88-5.07,289.95-72.21.09-.08.09-.21,0-.3l-160.05-160.05s-.06-.09-.06-.14Z"/>
  <g>
    <line class="st3" x1="413.28" y1="483.82" x2="35.66" y2="106.2"/>
    <polygon class="st0" points="415.78 479.27 418.36 488.9 408.73 486.32 415.78 479.27"/>
    <polygon class="st0" points="40.22 103.7 30.58 101.12 33.16 110.75 40.22 103.7"/>
  </g>
  <g>
    <line class="st3" x1="597.6" y1="703.28" x2="154.33" y2="260.01"/>
    <polygon class="st0" points="600.1 698.72 602.68 708.35 593.04 705.77 600.1 698.72"/>
    <polygon class="st0" points="158.89 257.51 149.25 254.93 151.83 264.56 158.89 257.51"/>
  </g>
  <g>
    <line class="st3" x1="95.95" y1="841.21" x2="95.95" y2="24.75"/>
    <polygon class="st0" points="100.94 839.75 95.95 848.39 90.96 839.75 100.94 839.75"/>
    <polygon class="st0" points="100.94 26.21 95.95 17.57 90.96 26.21 100.94 26.21"/>
  </g>
  <g>
    <line class="st3" x1="272.76" y1="841.21" x2="272.76" y2="24.75"/>
    <polygon class="st0" points="277.74 839.75 272.76 848.39 267.77 839.75 277.74 839.75"/>
    <polygon class="st0" points="277.74 26.21 272.76 17.57 267.77 26.21 277.74 26.21"/>
  </g>
  <g>
    <line class="st3" x1="375.97" y1="841.21" x2="375.97" y2="24.75"/>
    <polygon class="st0" points="380.95 839.75 375.97 848.39 370.98 839.75 380.95 839.75"/>
    <polygon class="st0" points="380.95 26.21 375.97 17.57 370.98 26.21 380.95 26.21"/>
  </g>
  <g>
    <line class="st3" x1="552.77" y1="841.21" x2="552.77" y2="24.75"/>
    <polygon class="st0" points="557.76 839.75 552.77 848.39 547.79 839.75 557.76 839.75"/>
    <polygon class="st0" points="557.76 26.21 552.77 17.57 547.79 26.21 557.76 26.21"/>
  </g>
  <circle class="st2" cx="325.53" cy="412.43" r="311.3"/>
  <circle class="st2" cx="375.97" cy="343.07" r="176.81"/>
  <circle class="st2" cx="272.76" cy="481.1" r="176.81"/>
</svg>