<?xml version="1.0" encoding="UTF-8"?>
<svg id="Layer_1" xmlns="http://www.w3.org/2000/svg" version="1.1" viewBox="0 0 1083.02 281.75">
  <!-- Generator: Adobe Illustrator 29.5.0, SVG Export Plug-In . SVG Version: 2.1.0 Build 137)  -->
  <defs>
    <style>
      .st0 {
        fill: #353535;
      }

      .st1 {
        fill: #002bff;
      }
    </style>
  </defs>
  <g>
    <path class="st0" d="M74.38,89.3c-6-2.97-12.8-4.45-20.4-4.45-8.31,0-15.65,1.63-22,4.9-4.29,2.21-7.87,5.06-10.78,8.53v-12.36H0v95.14h22.27v-48.1c0-6.41,1.1-11.73,3.3-15.94,2.2-4.21,5.31-7.39,9.35-9.53,4.04-2.14,8.67-3.21,13.9-3.21,7.13,0,12.68,2.08,16.66,6.24,3.98,4.16,5.97,10.45,5.97,18.88v51.67h22.27v-54.52c0-9.62-1.72-17.49-5.17-23.61-3.45-6.12-8.17-10.66-14.16-13.63Z"/>
    <path class="st0" d="M188.31,90.9c-7.25-4.04-15.5-6.06-24.76-6.06s-17.97,2.08-25.39,6.24c-7.42,4.16-13.24,9.89-17.46,17.19-4.22,7.3-6.32,15.71-6.32,25.21s2.17,17.76,6.5,25.12c4.33,7.37,10.45,13.16,18.35,17.37,7.9,4.22,17.13,6.32,27.7,6.32,8.31,0,15.71-1.34,22.18-4.01,6.47-2.67,11.85-6.5,16.12-11.49l-11.94-13.72c-3.33,3.56-7.13,6.18-11.4,7.84-4.28,1.67-9.09,2.49-14.43,2.49-6.18,0-11.64-1.19-16.39-3.56-4.75-2.38-8.43-5.76-11.05-10.16-1.65-2.77-2.77-5.8-3.38-9.09h74.64c.12-1.07.21-2.2.27-3.38.06-1.19.09-2.25.09-3.21,0-9.98-2.08-18.65-6.24-26.01-4.16-7.36-9.86-13.06-17.1-17.1ZM139.58,116.11c2.32-4.21,5.52-7.51,9.62-9.89,4.1-2.37,8.88-3.56,14.34-3.56s10.07,1.19,14.16,3.56c4.1,2.38,7.33,5.64,9.71,9.8,1.68,2.94,2.72,6.21,3.15,9.8h-54.1c.5-3.58,1.53-6.82,3.11-9.71Z"/>
    <polygon class="st0" points="314.44 85.92 290.39 85.92 266.98 117.03 243.71 85.92 218.95 85.92 254.48 132.7 217.35 181.05 241.93 181.05 266.59 148.17 290.93 181.05 316.05 181.05 278.84 132.39 314.44 85.92"/>
    <path class="st0" d="M370.92,163.95c-4.16,0-7.39-1.25-9.71-3.74s-3.47-6-3.47-10.51v-45.96h25.48v-17.82h-25.48v-21.02h-22.27v21.02h-15.68v17.82h15.68v46.5c0,10.57,2.85,18.56,8.55,23.96,5.7,5.41,13.78,8.11,24.23,8.11,4.04,0,7.96-.53,11.76-1.6,3.8-1.07,7.01-2.67,9.62-4.81l-6.24-15.86c-3.33,2.61-7.48,3.92-12.47,3.92Z"/>
    <path class="st0" d="M477.99,98.6c-3.17-3.79-6.9-6.78-11.22-8.95-6.41-3.21-13.66-4.81-21.73-4.81-9.03,0-17.19,1.9-24.5,5.7-7.3,3.8-13.07,9.15-17.28,16.03-4.22,6.89-6.33,14.91-6.33,24.05s2.11,17.34,6.33,24.23c4.21,6.89,9.98,12.26,17.28,16.12,7.3,3.86,15.47,5.79,24.5,5.79,8.08,0,15.32-1.63,21.73-4.9,3.85-1.96,7.23-4.57,10.16-7.82v5.05c0,9.62-2.44,16.84-7.3,21.65-4.87,4.81-12.53,7.21-22.98,7.21-6.53,0-12.98-1.04-19.33-3.12-6.36-2.08-11.61-4.84-15.77-8.28l-9.98,16.75c5.34,4.39,12.2,7.75,20.58,10.07,8.37,2.32,16.95,3.47,25.74,3.47,16.63,0,29.33-4.07,38.12-12.2,8.79-8.14,13.18-20.82,13.18-38.04v-80.7h-21.2v12.69ZM473.62,144.8c-2.44,4.1-5.85,7.3-10.24,9.62-4.4,2.32-9.38,3.47-14.96,3.47s-10.6-1.16-15.05-3.47c-4.45-2.32-7.9-5.52-10.33-9.62-2.44-4.1-3.65-8.82-3.65-14.16s1.22-10.07,3.65-14.16c2.43-4.1,5.88-7.24,10.33-9.44,4.45-2.2,9.47-3.3,15.05-3.3s10.57,1.1,14.96,3.3c4.39,2.2,7.81,5.34,10.24,9.44,2.43,4.1,3.65,8.82,3.65,14.16s-1.22,10.07-3.65,14.16Z"/>
    <path class="st0" d="M594.5,90.9c-7.25-4.04-15.5-6.06-24.76-6.06s-17.97,2.08-25.39,6.24c-7.42,4.16-13.25,9.89-17.46,17.19-4.22,7.3-6.33,15.71-6.33,25.21s2.17,17.76,6.5,25.12c4.33,7.37,10.45,13.16,18.35,17.37,7.9,4.22,17.13,6.32,27.7,6.32,8.31,0,15.71-1.34,22.18-4.01,6.47-2.67,11.85-6.5,16.12-11.49l-11.94-13.72c-3.33,3.56-7.13,6.18-11.4,7.84-4.28,1.67-9.09,2.49-14.43,2.49-6.18,0-11.64-1.19-16.39-3.56-4.75-2.38-8.43-5.76-11.04-10.16-1.65-2.77-2.77-5.8-3.38-9.09h74.64c.12-1.07.21-2.2.27-3.38.06-1.19.09-2.25.09-3.21,0-9.98-2.08-18.65-6.24-26.01-4.16-7.36-9.86-13.06-17.1-17.1ZM545.77,116.11c2.32-4.21,5.52-7.51,9.62-9.89,4.1-2.37,8.88-3.56,14.34-3.56s10.07,1.19,14.16,3.56c4.1,2.38,7.33,5.64,9.71,9.8,1.68,2.94,2.72,6.21,3.15,9.8h-54.1c.5-3.58,1.53-6.82,3.11-9.71Z"/>
    <path class="st0" d="M727.76,102.93c-3.45-6.12-8.17-10.66-14.16-13.63-6-2.97-12.8-4.45-20.4-4.45-8.31,0-15.65,1.63-22,4.9-4.29,2.21-7.87,5.06-10.78,8.53v-12.36h-21.2v95.14h22.27v-48.1c0-6.41,1.1-11.73,3.3-15.94,2.2-4.21,5.31-7.39,9.35-9.53,4.04-2.14,8.67-3.21,13.9-3.21,7.13,0,12.68,2.08,16.66,6.24,3.98,4.16,5.97,10.45,5.97,18.88v51.67h22.27v-54.52c0-9.62-1.72-17.49-5.17-23.61Z"/>
  </g>
  <path class="st1" d="M965.59,172.19V29.47c44.19,0,80.02,35.83,80.02,80.02v126.98c23.22-25.12,37.41-58.7,37.41-95.6,0-77.8-63.07-140.88-140.88-140.88-36.88,0-70.45,14.18-95.56,37.38l72.12,72.12v142.72c-44.19,0-80.02-35.83-80.02-80.02V45.28c-23.22,25.12-37.41,58.7-37.41,95.6,0,77.8,63.07,140.88,140.88,140.88,36.9,0,70.48-14.19,95.59-37.41l-72.15-72.15Z"/>
</svg>