<?xml version="1.0" encoding="utf-8"?>
<!-- Generator: Adobe Illustrator 26.3.1, SVG Export Plug-In . SVG Version: 6.00 Build 0)  -->
<svg version="1.1" id="Layer_1" xmlns="http://www.w3.org/2000/svg" xmlns:xlink="http://www.w3.org/1999/xlink" x="0px" y="0px"
	 viewBox="0 0 1920 1080" style="enable-background:new 0 0 1920 1080;" xml:space="preserve">
<style type="text/css">
	.st0{fill:url(#SVGID_1_);}
	.st1{fill:url(#SVGID_00000091722178244823879230000011283697824278794626_);}
	.st2{fill:#85EE78;}
	.st3{fill:#003323;}
</style>
<g>
	<g>
		<linearGradient id="SVGID_1_" gradientUnits="userSpaceOnUse" x1="267.0037" y1="677.1817" x2="267.0037" y2="469.8754">
			<stop  offset="0" style="stop-color:#329D80"/>
			<stop  offset="1" style="stop-color:#29866D"/>
		</linearGradient>
		<rect x="230.4" y="469.9" class="st0" width="73.1" height="207.3"/>
		
			<linearGradient id="SVGID_00000142869666354253119170000002725386464762487732_" gradientUnits="userSpaceOnUse" x1="530.6387" y1="677.1817" x2="530.6387" y2="469.8754">
			<stop  offset="0" style="stop-color:#329D80"/>
			<stop  offset="1" style="stop-color:#29866D"/>
		</linearGradient>
		
			<rect x="494.1" y="469.9" style="fill:url(#SVGID_00000142869666354253119170000002725386464762487732_);" width="73.1" height="207.3"/>
		<path class="st2" d="M567.2,469.9L567.2,469.9l-336.8,0l73.1-73.1h190.5C534.5,396.8,567.2,429.5,567.2,469.9z"/>
	</g>
	<g>
		<g>
			<path class="st3" d="M941.5,530.2c-3.8-7.7-9.6-13.2-17.5-16.6c-7.8-3.4-16.9-5.1-27.3-5.1c-13.7,0-24.6,3-32.6,8.9
				c-8.1,6-13.5,13.8-16.4,23.7l23.7,7.4c1.9-5.9,5.3-10.1,10.2-12.6c4.9-2.4,9.9-3.7,15.2-3.7c8.7,0,14.8,1.9,18.5,5.7
				c3,3.2,4.8,7.8,5.2,13.9c-4.7,0.7-9.3,1.4-13.7,2c-7.3,1-14.2,2.2-20.4,3.4c-6.3,1.2-11.7,2.6-16.4,4.1c-6.2,2.1-11.2,4.7-15.1,8
				c-3.9,3.3-6.7,7.1-8.6,11.6c-1.9,4.5-2.8,9.5-2.8,15.1c0,6.4,1.5,12.2,4.5,17.5c3,5.3,7.4,9.6,13.2,12.7
				c5.8,3.2,12.9,4.8,21.3,4.8c10.5,0,19.2-2,26.2-5.9c5.4-3,10.2-7.4,14.6-13v15.6h22.7v-71.3c0-5-0.2-9.7-0.6-13.9
				C944.8,538.5,943.5,534.3,941.5,530.2z M917.6,591.3c-0.9,2.7-2.5,5.5-5,8.5c-2.5,3-5.8,5.6-9.9,7.6c-4.2,2.1-9.2,3.1-15.1,3.1
				c-4.1,0-7.5-0.6-10.3-1.9c-2.8-1.3-4.9-3-6.3-5.2c-1.4-2.2-2.2-4.7-2.2-7.6c0-2.5,0.6-4.7,1.7-6.6c1.1-1.9,2.7-3.5,4.8-4.9
				c2.1-1.4,4.6-2.7,7.6-3.8c3.1-1,6.6-1.9,10.6-2.7c4-0.8,8.8-1.7,14.4-2.6c3.6-0.6,7.6-1.3,12.1-2c0,2-0.1,4.2-0.2,6.7
				C919.7,584.2,918.9,588,917.6,591.3z"/>
			<rect x="1069.1" y="511.8" class="st3" width="25.9" height="116.1"/>
			<rect x="1069.1" y="470.4" class="st3" width="25.9" height="23.8"/>
			<path class="st3" d="M1209.1,516.4c-8.7-5.2-18.9-7.8-30.5-7.8c-11.4,0-21.4,2.6-30.1,7.7c-8.7,5.2-15.4,12.3-20.3,21.5
				c-4.9,9.2-7.3,19.9-7.3,32c0,12,2.4,22.6,7.2,31.8c4.8,9.2,11.5,16.4,20.2,21.7c8.7,5.2,18.8,7.9,30.4,7.9
				c11.6,0,21.8-2.6,30.4-7.8s15.4-12.4,20.3-21.6c4.8-9.2,7.3-19.8,7.3-31.9c0-12-2.4-22.6-7.2-31.8
				C1224.5,528.9,1217.8,521.7,1209.1,516.4z M1201.6,596.5c-5,6.9-12.7,10.3-23,10.3c-10,0-17.5-3.4-22.6-10.1
				c-5.1-6.7-7.7-15.7-7.7-26.9c0-7.3,1.1-13.7,3.2-19.3c2.2-5.6,5.5-9.9,9.9-13c4.5-3.1,10.2-4.7,17.2-4.7
				c10.2,0,17.8,3.4,22.9,10.1c5.1,6.7,7.6,15.7,7.6,26.9C1209.1,580.8,1206.6,589.7,1201.6,596.5z"/>
			<rect x="1262.3" y="469.9" class="st3" width="25.9" height="158.1"/>
			<path class="st3" d="M1402.3,516.4c-8.7-5.2-18.9-7.8-30.5-7.8c-11.4,0-21.4,2.6-30.1,7.7c-8.7,5.2-15.4,12.3-20.3,21.5
				c-4.9,9.2-7.3,19.9-7.3,32c0,12,2.4,22.6,7.2,31.8c4.8,9.2,11.5,16.4,20.2,21.7c8.7,5.2,18.8,7.9,30.4,7.9
				c11.6,0,21.8-2.6,30.4-7.8s15.4-12.4,20.3-21.6c4.8-9.2,7.3-19.8,7.3-31.9c0-12-2.4-22.6-7.2-31.8
				C1417.7,528.9,1411,521.7,1402.3,516.4z M1394.8,596.5c-5,6.9-12.7,10.3-23,10.3c-10,0-17.5-3.4-22.6-10.1
				c-5.1-6.7-7.7-15.7-7.7-26.9c0-7.3,1.1-13.7,3.2-19.3c2.2-5.6,5.5-9.9,9.9-13c4.5-3.1,10.2-4.7,17.2-4.7
				c10.2,0,17.8,3.4,22.9,10.1c5.1,6.7,7.6,15.7,7.6,26.9C1402.3,580.8,1399.8,589.7,1394.8,596.5z"/>
			<path class="st3" d="M1533.1,520.1c-1.4-1.3-2.8-2.5-4.4-3.5c-7.5-5.3-16.8-8-27.8-8c-11,0-20.5,2.7-28.6,8
				c-8.1,5.3-14.4,12.6-18.8,21.8c-4.4,9.2-6.6,19.7-6.6,31.5c0,11.6,2.2,22,6.6,31.3c4.4,9.2,10.5,16.6,18.5,21.9
				c8,5.4,17.3,8.1,28,8.1c11.3,0,20.8-2.7,28.5-8.1c0.5-0.3,0.9-0.7,1.4-1.1v11.1c0.1,5.5-1,10.1-3.3,13.8
				c-2.3,3.7-5.6,6.5-9.8,8.4c-4.2,1.9-9,2.9-14.4,2.9c-4.6,0-8.9-1-13-3.1c-4.1-2-7.2-5.2-9.4-9.4l-23.9,11.8
				c3,5.3,6.9,9.8,11.6,13.6c4.7,3.8,10.1,6.6,16,8.7c5.9,2,12.1,3,18.5,3c8.7,0,16.7-1.2,23.9-3.5c7.2-2.4,13.2-6,18.1-10.8
				c4.9-4.8,8.2-11,9.9-18.5c0.6-2.6,1-5.2,1.2-7.9c0.2-2.7,0.4-5.5,0.4-8.4V511.8h-22.7V520.1z M1520.8,603.2
				c-4.3,3.2-9.9,4.8-16.8,4.8c-6.7,0-12.3-1.7-16.7-5.1c-4.4-3.4-7.6-7.9-9.7-13.7c-2.1-5.8-3.2-12.2-3.2-19.3
				c0-7,1.1-13.4,3.2-19.2c2.2-5.8,5.5-10.4,10-13.8c4.5-3.4,10.3-5.1,17.2-5.1c6.6,0,12,1.6,16.1,4.8c4.2,3.2,7.2,7.6,9.2,13.3
				c2,5.7,3,12.3,3,19.9c0,7.5-1,14.2-3,19.9C1528.1,595.5,1525,600,1520.8,603.2z"/>
			<polygon class="st3" points="1664.3,511.8 1632.7,594.9 1600.3,511.8 1573.3,511.8 1620.2,627.1 1601.1,679.6 1625.4,679.6 
				1690.2,511.8 			"/>
			<path class="st3" d="M995.7,531.6c0,0,0,1,0,2.4c12.3,0,12.1,7.9,12.1,7.9v55.4c0,6.5,5.3,11.8,11.8,11.8h21.9v21.5h-27.1
				c-16.7,0-30.3-13.6-30.3-30.3v-68.7h-23.5v-12.7c0-4.1,3.3-7.4,7.4-7.4h16.1v-32.1h23.7v32.1h33.7v20.1H995.7z"/>
		</g>
		<g>
			<g>
				<path class="st3" d="M684.4,636V469.9h24.5l81.8,123.4V469.9H815V636h-24.5l-81.8-123.5V636H684.4z"/>
			</g>
		</g>
	</g>
</g>
<g>
</g>
<g>
</g>
<g>
</g>
<g>
</g>
<g>
</g>
<g>
</g>
<g>
</g>
<g>
</g>
<g>
</g>
<g>
</g>
<g>
</g>
<g>
</g>
<g>
</g>
<g>
</g>
<g>
</g>
</svg>
