<?xml version="1.0" encoding="utf-8"?>
<!-- Generator: Adobe Illustrator 24.0.2, SVG Export Plug-In . SVG Version: 6.00 Build 0)  -->
<svg version="1.1" id="Layer_1" xmlns="http://www.w3.org/2000/svg" xmlns:xlink="http://www.w3.org/1999/xlink" x="0px" y="0px"
	 viewBox="0 0 1140.36 207.25" style="enable-background:new 0 0 1140.36 207.25;" xml:space="preserve">
<style type="text/css">
	.st0{fill:#FFFFFF;}
	.st1{fill:#00D4D9;}
</style>
<g>
	<g>
		<path class="st0" d="M335.75,178.53c-10.98,0-20.68-1.96-29.12-5.87c-8.44-3.91-15.06-9.57-19.86-16.98
			c-4.8-7.41-7.2-16.46-7.2-27.16v-5.35h24.49v5.35c0,9.47,2.88,16.53,8.64,21.2c5.76,4.67,13.44,7,23.05,7
			c9.74,0,17.08-1.99,22.02-5.97c4.94-3.98,7.41-9.12,7.41-15.43c0-4.25-1.17-7.72-3.5-10.39c-2.33-2.68-5.73-4.84-10.19-6.48
			c-4.46-1.65-9.85-3.22-16.15-4.73l-6.17-1.23c-9.47-2.19-17.66-4.97-24.59-8.33c-6.93-3.36-12.24-7.72-15.95-13.07
			c-3.7-5.35-5.56-12.35-5.56-20.99c0-8.64,2.06-16.05,6.17-22.22c4.12-6.17,9.94-10.91,17.49-14.2c7.54-3.29,16.39-4.94,26.55-4.94
			c10.15,0,19.21,1.72,27.16,5.14c7.95,3.43,14.23,8.58,18.83,15.43c4.59,6.86,6.89,15.43,6.89,25.72v6.79h-24.49v-6.79
			c0-5.9-1.17-10.63-3.5-14.2c-2.33-3.57-5.63-6.17-9.88-7.82c-4.25-1.65-9.26-2.47-15.02-2.47c-8.51,0-14.95,1.65-19.34,4.94
			c-4.39,3.29-6.59,7.96-6.59,13.99c0,3.84,0.99,7.1,2.98,9.77c1.99,2.68,4.94,4.87,8.85,6.58c3.91,1.72,8.81,3.19,14.71,4.42
			l6.17,1.44c9.88,2.2,18.52,4.97,25.93,8.33c7.41,3.36,13.2,7.79,17.39,13.27c4.18,5.49,6.28,12.62,6.28,21.4
			c0,8.64-2.23,16.26-6.69,22.84c-4.46,6.58-10.7,11.73-18.73,15.43C356.22,176.68,346.72,178.53,335.75,178.53z"/>
		<path class="st0" d="M411.26,175.65V31.6h58.24c9.05,0,17.01,1.78,23.87,5.35c6.86,3.57,12.28,8.61,16.26,15.13
			c3.98,6.52,5.97,14.23,5.97,23.15v2.88c0,8.78-2.03,16.46-6.07,23.05c-4.05,6.59-9.54,11.66-16.46,15.23
			c-6.93,3.57-14.78,5.35-23.56,5.35h-33.34v53.92H411.26z M436.16,99.3h30.87c7.13,0,12.86-1.92,17.18-5.76
			c4.32-3.84,6.48-9.12,6.48-15.85v-2.06c0-6.72-2.13-12-6.38-15.85c-4.25-3.84-10.02-5.76-17.29-5.76h-30.87V99.3z"/>
		<path class="st0" d="M585.36,178.53c-10.15,0-19.24-2.23-27.27-6.69c-8.03-4.46-14.41-10.97-19.14-19.55
			c-4.73-8.57-7.1-19.1-7.1-31.59V86.54c0-18.66,5.21-32.96,15.64-42.91c10.42-9.94,24.42-14.92,41.98-14.92
			c17.56,0,31.07,4.7,40.54,14.1c9.47,9.4,14.2,22.05,14.2,37.97v0.82h-24.28v-1.65c0-5.49-1.1-10.42-3.29-14.82
			c-2.2-4.39-5.56-7.85-10.08-10.39c-4.53-2.54-10.22-3.81-17.08-3.81c-10.15,0-18.14,3.12-23.97,9.36
			c-5.83,6.24-8.75,14.85-8.75,25.83v34.98c0,10.84,2.91,19.48,8.75,25.93c5.83,6.45,13.96,9.67,24.39,9.67
			c10.42,0,18.04-2.81,22.84-8.44c4.8-5.62,7.2-12.83,7.2-21.61v-2.47H583.5v-20.99h60.71v72.44h-22.64v-14.2h-3.5
			c-1.1,2.47-2.81,5.04-5.14,7.72c-2.33,2.68-5.66,4.91-9.98,6.69C598.63,177.64,592.77,178.53,585.36,178.53z"/>
	</g>
	<g>
		<path class="st1" d="M165,117.8c7.35,0,13.05,6.54,11.92,13.8c-6.64,42.85-43.68,75.65-88.39,75.65S6.78,174.45,0.14,131.6
			c-1.12-7.26,4.57-13.8,11.92-13.8H165z"/>
		<path class="st1" d="M54.8,89.45c-7.35,0-13.05-6.54-11.92-13.8C49.52,32.8,86.56,0,131.27,0s81.75,32.8,88.39,75.65
			c1.12,7.26-4.57,13.8-11.92,13.8H54.8z"/>
	</g>
	<g>
		<path class="st0" d="M724.91,87.66c-2.7,0-5.12-0.48-7.25-1.44c-2.13-0.96-3.81-2.41-5.04-4.34c-1.23-1.94-1.84-4.36-1.84-7.28
			v-1.12h4.42v1.12c0,3.09,0.91,5.39,2.72,6.9c1.81,1.51,4.14,2.27,6.98,2.27c2.91,0,5.13-0.66,6.66-1.97
			c1.53-1.31,2.29-2.97,2.29-4.96c0-1.39-0.35-2.49-1.04-3.3s-1.66-1.48-2.91-2c-1.24-0.51-2.7-0.97-4.37-1.36l-2.77-0.69
			c-2.17-0.57-4.09-1.26-5.76-2.08c-1.67-0.82-2.98-1.89-3.92-3.22c-0.94-1.33-1.41-3.05-1.41-5.14c0-2.1,0.52-3.91,1.57-5.44
			c1.05-1.53,2.52-2.7,4.42-3.52c1.9-0.82,4.1-1.23,6.58-1.23c2.52,0,4.79,0.44,6.8,1.31c2.01,0.87,3.59,2.15,4.74,3.84
			c1.15,1.69,1.73,3.81,1.73,6.37v2.24h-4.42v-2.24c0-1.81-0.38-3.27-1.15-4.37c-0.76-1.1-1.81-1.92-3.15-2.45
			c-1.33-0.53-2.85-0.8-4.56-0.8c-2.45,0-4.42,0.54-5.92,1.62c-1.49,1.08-2.24,2.62-2.24,4.61c0,1.31,0.32,2.38,0.96,3.2
			s1.55,1.48,2.72,2c1.17,0.52,2.58,0.97,4.21,1.36l2.77,0.69c2.17,0.46,4.11,1.09,5.84,1.89c1.72,0.8,3.1,1.88,4.13,3.25
			c1.03,1.37,1.55,3.15,1.55,5.36c0,2.2-0.55,4.12-1.65,5.76c-1.1,1.63-2.66,2.91-4.66,3.81C729.97,87.21,727.61,87.66,724.91,87.66
			z"/>
		<path class="st0" d="M753.33,87.66c-1.81,0-3.46-0.32-4.96-0.96c-1.49-0.64-2.67-1.56-3.52-2.77s-1.28-2.68-1.28-4.42
			c0-1.78,0.43-3.24,1.28-4.4c0.85-1.15,2.03-2.03,3.52-2.61c1.49-0.59,3.16-0.88,5.01-0.88h8.8V69.7c0-1.85-0.54-3.3-1.63-4.37
			c-1.08-1.07-2.69-1.6-4.82-1.6c-2.1,0-3.73,0.51-4.9,1.52c-1.17,1.01-1.97,2.37-2.4,4.08l-3.94-1.28c0.43-1.46,1.1-2.78,2.03-3.97
			c0.92-1.19,2.16-2.15,3.71-2.88c1.55-0.73,3.4-1.09,5.57-1.09c3.34,0,5.93,0.86,7.78,2.58c1.85,1.72,2.77,4.15,2.77,7.28v11.78
			c0,1.07,0.5,1.6,1.49,1.6h2.4v3.57h-3.68c-1.17,0-2.11-0.33-2.83-0.99c-0.71-0.66-1.07-1.54-1.07-2.64v-0.27h-0.64
			c-0.39,0.67-0.92,1.38-1.57,2.11c-0.66,0.73-1.56,1.33-2.69,1.81C756.61,87.42,755.14,87.66,753.33,87.66z M753.8,84.04
			c2.49,0,4.5-0.74,6.05-2.21s2.32-3.54,2.32-6.21v-0.59h-8.64c-1.67,0-3.05,0.37-4.13,1.09c-1.08,0.73-1.63,1.82-1.63,3.28
			c0,1.46,0.56,2.59,1.68,3.41C750.58,83.63,752.03,84.04,753.8,84.04z"/>
		<path class="st0" d="M781.15,86.91l-9.33-26.07h4.48l7.83,22.92h0.75l7.84-22.92h4.48l-9.33,26.07H781.15z"/>
		<path class="st0" d="M810.41,87.66c-1.81,0-3.46-0.32-4.96-0.96c-1.49-0.64-2.67-1.56-3.52-2.77s-1.28-2.68-1.28-4.42
			c0-1.78,0.43-3.24,1.28-4.4c0.85-1.15,2.03-2.03,3.52-2.61c1.49-0.59,3.16-0.88,5.01-0.88h8.8V69.7c0-1.85-0.54-3.3-1.63-4.37
			c-1.08-1.07-2.69-1.6-4.82-1.6c-2.1,0-3.73,0.51-4.9,1.52c-1.17,1.01-1.97,2.37-2.4,4.08l-3.94-1.28c0.43-1.46,1.1-2.78,2.03-3.97
			c0.92-1.19,2.16-2.15,3.71-2.88c1.55-0.73,3.4-1.09,5.57-1.09c3.34,0,5.93,0.86,7.78,2.58c1.85,1.72,2.77,4.15,2.77,7.28v11.78
			c0,1.07,0.5,1.6,1.49,1.6h2.4v3.57h-3.68c-1.17,0-2.11-0.33-2.83-0.99c-0.71-0.66-1.07-1.54-1.07-2.64v-0.27h-0.64
			c-0.39,0.67-0.92,1.38-1.57,2.11c-0.66,0.73-1.56,1.33-2.69,1.81C813.7,87.42,812.23,87.66,810.41,87.66z M810.89,84.04
			c2.49,0,4.5-0.74,6.05-2.21s2.32-3.54,2.32-6.21v-0.59h-8.64c-1.67,0-3.05,0.37-4.13,1.09c-1.08,0.73-1.63,1.82-1.63,3.28
			c0,1.46,0.56,2.59,1.68,3.41C807.67,83.63,809.12,84.04,810.89,84.04z"/>
		<path class="st0" d="M833.07,86.91V60.85h4.1v4.42h0.75c0.57-1.24,1.54-2.37,2.91-3.38s3.38-1.52,6.05-1.52
			c1.95,0,3.71,0.41,5.25,1.23c1.55,0.82,2.78,2.03,3.7,3.62c0.92,1.6,1.39,3.57,1.39,5.92v15.78H853V71.46
			c0-2.59-0.65-4.48-1.95-5.65c-1.3-1.17-3.05-1.76-5.25-1.76c-2.52,0-4.58,0.82-6.16,2.45c-1.58,1.63-2.37,4.07-2.37,7.3v13.11
			H833.07z"/>
		<path class="st0" d="M874.59,86.91c-1.49,0-2.64-0.41-3.44-1.23c-0.8-0.82-1.2-1.94-1.2-3.36v-17.8h-7.84v-3.68h7.84v-9.27h4.21
			v9.27h8.53v3.68h-8.53v17.16c0,1.07,0.51,1.6,1.55,1.6h5.81v3.62H874.59z"/>
		<path class="st0" d="M903.05,86.91V49.6h14.29c2.24,0,4.24,0.44,6,1.31c1.76,0.87,3.15,2.11,4.18,3.7
			c1.03,1.6,1.55,3.54,1.55,5.81v0.69c0,2.24-0.52,4.17-1.57,5.78c-1.05,1.62-2.46,2.85-4.24,3.71c-1.78,0.85-3.75,1.28-5.92,1.28
			h-9.81v15.03H903.05z M907.53,67.83h9.33c2.38,0,4.26-0.59,5.65-1.79c1.39-1.19,2.08-2.87,2.08-5.04v-0.53
			c0-2.17-0.68-3.85-2.05-5.04c-1.37-1.19-3.26-1.79-5.68-1.79h-9.33V67.83z"/>
		<path class="st0" d="M942.66,87.66c-1.81,0-3.46-0.32-4.96-0.96c-1.49-0.64-2.67-1.56-3.52-2.77s-1.28-2.68-1.28-4.42
			c0-1.78,0.43-3.24,1.28-4.4c0.85-1.15,2.03-2.03,3.52-2.61c1.49-0.59,3.16-0.88,5.01-0.88h8.8V69.7c0-1.85-0.54-3.3-1.63-4.37
			c-1.08-1.07-2.69-1.6-4.82-1.6c-2.1,0-3.73,0.51-4.9,1.52c-1.17,1.01-1.97,2.37-2.4,4.08l-3.94-1.28c0.43-1.46,1.1-2.78,2.03-3.97
			c0.92-1.19,2.16-2.15,3.71-2.88c1.55-0.73,3.4-1.09,5.57-1.09c3.34,0,5.93,0.86,7.78,2.58c1.85,1.72,2.77,4.15,2.77,7.28v11.78
			c0,1.07,0.5,1.6,1.49,1.6h2.4v3.57h-3.68c-1.17,0-2.11-0.33-2.83-0.99c-0.71-0.66-1.07-1.54-1.07-2.64v-0.27h-0.64
			c-0.39,0.67-0.92,1.38-1.57,2.11c-0.66,0.73-1.56,1.33-2.69,1.81C945.95,87.42,944.47,87.66,942.66,87.66z M943.14,84.04
			c2.49,0,4.5-0.74,6.05-2.21s2.32-3.54,2.32-6.21v-0.59h-8.64c-1.67,0-3.05,0.37-4.13,1.09c-1.08,0.73-1.63,1.82-1.63,3.28
			c0,1.46,0.56,2.59,1.68,3.41C939.91,83.63,941.36,84.04,943.14,84.04z"/>
		<path class="st0" d="M967.77,97.57v-3.73h14.92c1.03,0,1.55-0.53,1.55-1.6v-9.49h-0.75c-0.36,0.75-0.9,1.48-1.63,2.21
			c-0.73,0.73-1.68,1.32-2.85,1.76c-1.17,0.44-2.65,0.67-4.42,0.67c-1.88,0-3.62-0.41-5.2-1.23c-1.58-0.82-2.83-2.03-3.73-3.62
			c-0.91-1.6-1.36-3.55-1.36-5.86V60.85h4.21v15.51c0,2.56,0.65,4.42,1.95,5.6c1.3,1.17,3.05,1.76,5.25,1.76
			c2.49,0,4.53-0.82,6.13-2.45c1.6-1.63,2.4-4.07,2.4-7.3V60.85h4.21v32.14c0,1.42-0.4,2.54-1.2,3.36s-1.96,1.23-3.49,1.23H967.77z"
			/>
		<path class="st0" d="M997.24,86.91V60.85h4.1v3.25h0.75c0.5-0.92,1.31-1.78,2.45-2.56c1.14-0.78,2.74-1.17,4.8-1.17
			c2.03,0,3.67,0.44,4.93,1.33c1.26,0.89,2.18,1.97,2.75,3.25h0.75c0.6-1.28,1.52-2.36,2.75-3.25c1.23-0.89,2.94-1.33,5.14-1.33
			c1.74,0,3.27,0.36,4.58,1.07s2.35,1.73,3.12,3.06c0.76,1.33,1.15,2.92,1.15,4.77v17.64h-4.21V69.64c0-1.74-0.51-3.12-1.52-4.13
			s-2.42-1.52-4.24-1.52c-1.92,0-3.49,0.62-4.72,1.87c-1.23,1.24-1.84,3.04-1.84,5.38v15.67h-4.21V69.64c0-1.74-0.51-3.12-1.52-4.13
			c-1.01-1.01-2.42-1.52-4.24-1.52c-1.92,0-3.49,0.62-4.72,1.87c-1.23,1.24-1.84,3.04-1.84,5.38v15.67H997.24z"/>
		<path class="st0" d="M1055.02,87.66c-2.63,0-4.94-0.56-6.93-1.68s-3.54-2.69-4.64-4.72c-1.1-2.03-1.65-4.37-1.65-7.04v-0.64
			c0-2.7,0.55-5.06,1.65-7.09s2.63-3.6,4.58-4.72c1.95-1.12,4.19-1.68,6.72-1.68c2.45,0,4.62,0.52,6.5,1.57
			c1.88,1.05,3.36,2.55,4.42,4.5c1.07,1.95,1.6,4.25,1.6,6.88v1.92h-21.27c0.11,2.81,1.01,5,2.72,6.58c1.71,1.58,3.84,2.37,6.4,2.37
			c2.24,0,3.96-0.51,5.17-1.55c1.21-1.03,2.13-2.26,2.77-3.68l3.62,1.76c-0.53,1.1-1.27,2.2-2.21,3.3s-2.17,2.03-3.68,2.77
			C1059.29,87.29,1057.37,87.66,1055.02,87.66z M1046.07,71.51h16.95c-0.14-2.42-0.97-4.3-2.48-5.65c-1.51-1.35-3.44-2.03-5.78-2.03
			c-2.38,0-4.34,0.68-5.86,2.03C1047.36,67.21,1046.42,69.09,1046.07,71.51z"/>
		<path class="st0" d="M1074.64,86.91V60.85h4.1v4.42h0.75c0.57-1.24,1.54-2.37,2.91-3.38s3.38-1.52,6.05-1.52
			c1.95,0,3.71,0.41,5.25,1.23c1.55,0.82,2.78,2.03,3.7,3.62c0.92,1.6,1.39,3.57,1.39,5.92v15.78h-4.21V71.46
			c0-2.59-0.65-4.48-1.95-5.65c-1.3-1.17-3.05-1.76-5.25-1.76c-2.52,0-4.58,0.82-6.16,2.45c-1.58,1.63-2.37,4.07-2.37,7.3v13.11
			H1074.64z"/>
		<path class="st0" d="M1116.16,86.91c-1.49,0-2.64-0.41-3.44-1.23c-0.8-0.82-1.2-1.94-1.2-3.36v-17.8h-7.84v-3.68h7.84v-9.27h4.21
			v9.27h8.53v3.68h-8.53v17.16c0,1.07,0.51,1.6,1.55,1.6h5.81v3.62H1116.16z"/>
		<path class="st0" d="M725.5,151.62c-2.77,0-5.22-0.58-7.33-1.73c-2.12-1.15-3.77-2.85-4.96-5.09c-1.19-2.24-1.79-5.01-1.79-8.32
			v-8.53c0-4.94,1.31-8.7,3.94-11.27c2.63-2.58,6.17-3.86,10.61-3.86c4.41,0,7.76,1.21,10.07,3.62c2.31,2.42,3.46,5.65,3.46,9.7
			v0.27h-4.42v-0.37c0-1.78-0.32-3.36-0.96-4.74s-1.63-2.48-2.98-3.28c-1.35-0.8-3.07-1.2-5.17-1.2c-3.16,0-5.63,0.97-7.41,2.91
			c-1.78,1.94-2.67,4.65-2.67,8.13v8.74c0,3.48,0.89,6.19,2.67,8.13c1.78,1.94,4.26,2.91,7.46,2.91c3.13,0,5.43-0.89,6.9-2.67
			c1.47-1.78,2.21-4.14,2.21-7.09v-0.91h-11.3v-3.84h15.67v17.75h-4.05v-4.05h-0.75c-0.39,0.78-0.94,1.55-1.65,2.29
			c-0.71,0.75-1.67,1.35-2.88,1.81C728.98,151.39,727.42,151.62,725.5,151.62z"/>
		<path class="st0" d="M755.83,151.62c-1.81,0-3.46-0.32-4.96-0.96c-1.49-0.64-2.67-1.56-3.52-2.77c-0.85-1.21-1.28-2.68-1.28-4.42
			c0-1.78,0.43-3.24,1.28-4.4c0.85-1.15,2.03-2.03,3.52-2.61c1.49-0.59,3.16-0.88,5.01-0.88h8.8v-1.92c0-1.85-0.54-3.3-1.63-4.37
			c-1.08-1.07-2.69-1.6-4.82-1.6c-2.1,0-3.73,0.51-4.9,1.52c-1.17,1.01-1.97,2.37-2.4,4.08l-3.94-1.28c0.43-1.46,1.1-2.78,2.03-3.97
			c0.92-1.19,2.16-2.15,3.71-2.88s3.4-1.09,5.57-1.09c3.34,0,5.93,0.86,7.78,2.58c1.85,1.72,2.77,4.15,2.77,7.28v11.78
			c0,1.07,0.5,1.6,1.49,1.6h2.4v3.57h-3.68c-1.17,0-2.11-0.33-2.83-0.99c-0.71-0.66-1.07-1.54-1.07-2.64v-0.27h-0.64
			c-0.39,0.68-0.92,1.38-1.57,2.11c-0.66,0.73-1.56,1.33-2.69,1.81C759.12,151.38,757.64,151.62,755.83,151.62z M756.31,148
			c2.49,0,4.5-0.74,6.05-2.21c1.55-1.47,2.32-3.54,2.32-6.21v-0.59h-8.64c-1.67,0-3.05,0.36-4.13,1.09s-1.63,1.82-1.63,3.28
			s0.56,2.59,1.68,3.41C753.08,147.59,754.53,148,756.31,148z"/>
		<path class="st0" d="M786.37,150.88c-1.49,0-2.64-0.41-3.44-1.23c-0.8-0.82-1.2-1.94-1.2-3.36v-17.8h-7.84v-3.68h7.84v-9.28h4.21
			v9.28h8.53v3.68h-8.53v17.16c0,1.07,0.51,1.6,1.55,1.6h5.81v3.62H786.37z"/>
		<path class="st0" d="M812.28,151.62c-2.63,0-4.94-0.56-6.93-1.68c-1.99-1.12-3.54-2.69-4.64-4.72s-1.65-4.37-1.65-7.04v-0.64
			c0-2.7,0.55-5.06,1.65-7.09c1.1-2.03,2.63-3.6,4.58-4.72c1.95-1.12,4.19-1.68,6.72-1.68c2.45,0,4.62,0.52,6.5,1.57
			c1.88,1.05,3.36,2.55,4.42,4.5c1.07,1.96,1.6,4.25,1.6,6.88v1.92h-21.27c0.11,2.81,1.01,5,2.72,6.58c1.71,1.58,3.84,2.37,6.4,2.37
			c2.24,0,3.96-0.51,5.17-1.55c1.21-1.03,2.13-2.26,2.77-3.68l3.62,1.76c-0.53,1.1-1.27,2.2-2.21,3.3c-0.94,1.1-2.17,2.03-3.68,2.77
			C816.55,151.25,814.62,151.62,812.28,151.62z M803.32,135.47h16.95c-0.14-2.42-0.97-4.3-2.48-5.65s-3.44-2.03-5.78-2.03
			c-2.38,0-4.34,0.68-5.86,2.03C804.62,131.17,803.68,133.06,803.32,135.47z"/>
		<path class="st0" d="M834.99,150.88l-5.22-26.07h4.26l4.32,23.24h0.75l5.7-23.24h6.98l5.7,23.24h0.75l4.32-23.24h4.26l-5.22,26.07
			h-7.2l-5.76-23.24h-0.69l-5.76,23.24H834.99z"/>
		<path class="st0" d="M881.57,151.62c-1.81,0-3.46-0.32-4.96-0.96c-1.49-0.64-2.67-1.56-3.52-2.77c-0.85-1.21-1.28-2.68-1.28-4.42
			c0-1.78,0.43-3.24,1.28-4.4c0.85-1.15,2.03-2.03,3.52-2.61c1.49-0.59,3.16-0.88,5.01-0.88h8.8v-1.92c0-1.85-0.54-3.3-1.63-4.37
			c-1.08-1.07-2.69-1.6-4.82-1.6c-2.1,0-3.73,0.51-4.9,1.52c-1.17,1.01-1.97,2.37-2.4,4.08l-3.94-1.28c0.43-1.46,1.1-2.78,2.03-3.97
			c0.92-1.19,2.16-2.15,3.71-2.88s3.4-1.09,5.57-1.09c3.34,0,5.93,0.86,7.78,2.58c1.85,1.72,2.77,4.15,2.77,7.28v11.78
			c0,1.07,0.5,1.6,1.49,1.6h2.4v3.57h-3.68c-1.17,0-2.11-0.33-2.83-0.99c-0.71-0.66-1.07-1.54-1.07-2.64v-0.27h-0.64
			c-0.39,0.68-0.92,1.38-1.57,2.11c-0.66,0.73-1.56,1.33-2.69,1.81C884.86,151.38,883.39,151.62,881.57,151.62z M882.05,148
			c2.49,0,4.5-0.74,6.05-2.21c1.55-1.47,2.32-3.54,2.32-6.21v-0.59h-8.64c-1.67,0-3.05,0.36-4.13,1.09s-1.63,1.82-1.63,3.28
			s0.56,2.59,1.68,3.41C878.83,147.59,880.28,148,882.05,148z"/>
		<path class="st0" d="M906.68,161.54v-3.73h14.92c1.03,0,1.55-0.53,1.55-1.6v-9.49h-0.75c-0.36,0.75-0.9,1.48-1.63,2.21
			c-0.73,0.73-1.68,1.32-2.85,1.76c-1.17,0.44-2.65,0.67-4.42,0.67c-1.88,0-3.62-0.41-5.2-1.23c-1.58-0.82-2.83-2.03-3.73-3.62
			c-0.91-1.6-1.36-3.55-1.36-5.86v-15.83h4.21v15.51c0,2.56,0.65,4.42,1.95,5.6c1.3,1.17,3.05,1.76,5.25,1.76
			c2.49,0,4.53-0.82,6.13-2.45c1.6-1.63,2.4-4.07,2.4-7.3v-13.11h4.21v32.14c0,1.42-0.4,2.54-1.2,3.36
			c-0.8,0.82-1.96,1.23-3.49,1.23H906.68z"/>
	</g>
</g>
<g>
</g>
<g>
</g>
<g>
</g>
<g>
</g>
<g>
</g>
<g>
</g>
<g>
</g>
<g>
</g>
<g>
</g>
<g>
</g>
<g>
</g>
<g>
</g>
<g>
</g>
<g>
</g>
<g>
</g>
</svg>
