<?xml version="1.0" encoding="utf-8"?>
<!-- Generator: Adobe Illustrator 24.0.2, SVG Export Plug-In . SVG Version: 6.00 Build 0)  -->
<svg version="1.1" id="Layer_1" xmlns="http://www.w3.org/2000/svg" xmlns:xlink="http://www.w3.org/1999/xlink" x="0px" y="0px"
	 viewBox="0 0 1962.5 1334" style="enable-background:new 0 0 1962.5 1334;" xml:space="preserve">
<style type="text/css">
	.st0{fill:none;stroke:#00D4D9;stroke-width:3;stroke-miterlimit:10;}
	.st1{fill:none;stroke:#46BDC5;stroke-miterlimit:10;}
	.st2{fill:#202031;stroke:#46BDC5;stroke-width:2;stroke-miterlimit:10;}
	.st3{opacity:0.2;fill:#FFFFFF;enable-background:new    ;}
	.st4{fill:#202031;stroke:#46BDC5;stroke-width:2;stroke-miterlimit:9.9999;}
	.st5{fill:#FFFFFF;}
</style>
<g>
	<path class="st0" d="M685.14,734.7c30.36,0,53.88,26.99,49.24,57c-27.41,176.97-180.42,312.44-365.07,312.44
		S31.64,968.67,4.24,791.7c-4.65-30,18.88-57,49.24-57H685.14z"/>
	<path class="st0" d="M230,617.58c-30.36,0-53.88-26.99-49.24-57c27.41-176.97,180.42-312.44,365.07-312.44
		S883.49,383.61,910.9,560.58c4.65,30-18.88,57-49.24,57H230z"/>
	<g>
		<line class="st1" x1="559.65" y1="248.64" x2="719.65" y2="248.64"/>
		<circle class="st2" cx="726.65" cy="248.64" r="7"/>
	</g>
	<g>
		<line class="st1" x1="532.49" y1="248.64" x2="372.49" y2="248.64"/>
		<circle class="st2" cx="365.49" cy="248.64" r="7"/>
	</g>
	<g>
		<line class="st1" x1="180.74" y1="549.51" x2="209.1" y2="392.05"/>
		<circle class="st2" cx="210.34" cy="385.16" r="7"/>
	</g>
	<g>
		<rect x="525.7" y="228.36" class="st3" width="40.56" height="40.56"/>
		
			<rect x="535.98" y="238.64" transform="matrix(0.7071 -0.7071 0.7071 0.7071 -15.897 458.8915)" class="st4" width="20" height="20"/>
	</g>
	<g>
		<g>
			<line class="st1" x1="874.77" y1="617.58" x2="996.52" y2="617.58"/>
			<circle class="st2" cx="1003.52" cy="617.58" r="7"/>
		</g>
		<g>
			<rect x="840.91" y="597.3" class="st3" width="40.56" height="40.56"/>
			
				<rect x="851.18" y="607.57" transform="matrix(0.7071 -0.7071 0.7071 0.7071 -184.4527 789.8306)" class="st4" width="20" height="20"/>
		</g>
	</g>
	<g>
		<g>
			<line class="st1" x1="216.81" y1="617.58" x2="95.06" y2="617.58"/>
			<circle class="st2" cx="88.06" cy="617.58" r="7"/>
		</g>
		<g>
			<rect x="210.1" y="597.3" class="st3" width="40.56" height="40.56"/>
			
				<rect x="220.38" y="607.58" transform="matrix(0.7071 -0.7071 0.7071 0.7071 -369.2215 343.7892)" class="st4" width="20" height="20"/>
		</g>
	</g>
	<g>
		<rect x="160.44" y="542.03" class="st3" width="40.56" height="40.56"/>
		
			<rect x="170.73" y="552.3" transform="matrix(0.7071 -0.7071 0.7071 0.7071 -344.6755 292.4883)" class="st4" width="20" height="20"/>
	</g>
	<g>
		<line class="st1" x1="910.61" y1="549.51" x2="882.25" y2="392.05"/>
		<circle class="st2" cx="881" cy="385.16" r="7"/>
	</g>
	<g>
		<rect x="890.33" y="542.03" class="st3" width="40.56" height="40.56"/>
		
			<rect x="900.62" y="552.3" transform="matrix(0.7071 -0.7071 0.7071 0.7071 -130.8928 808.6011)" class="st4" width="20" height="20"/>
	</g>
	<g>
		<g>
			<path class="st5" d="M1215.95,869.42c-31.54,0-59.84-5.7-84.11-16.95c-24.31-11.27-43.66-27.81-57.49-49.16
				c-13.84-21.35-20.86-47.79-20.86-78.61v-16.38h72.38v16.38c0,26.77,8.23,47,24.47,60.14c16.3,13.2,38.37,19.89,65.61,19.89
				c27.64,0,48.72-5.7,62.66-16.93c13.88-11.18,20.92-25.84,20.92-43.58c0-11.91-3.3-21.74-9.81-29.21
				c-6.57-7.53-16.28-13.7-28.87-18.35c-12.68-4.68-28.26-9.24-46.31-13.57l-17.71-3.54c-27.19-6.3-51.04-14.38-70.92-24.04
				c-19.97-9.68-35.52-22.43-46.22-37.88c-10.71-15.48-16.15-35.96-16.15-60.89s6.03-46.6,17.91-64.43
				c11.88-17.82,28.94-31.68,50.7-41.17c21.7-9.47,47.51-14.28,76.69-14.28c29.16,0,55.56,5,78.46,14.87
				c22.94,9.89,41.29,24.94,54.55,44.72c13.26,19.8,19.98,44.86,19.98,74.48v20.52h-72.38v-20.52c0-16.67-3.33-30.21-9.89-40.26
				c-6.56-10.02-15.95-17.46-27.91-22.09c-12.05-4.67-26.46-7.03-42.81-7.03c-24.11,0-42.62,4.71-54.99,14
				c-12.29,9.21-18.53,22.48-18.53,39.42c0,10.77,2.82,20.02,8.38,27.5c5.58,7.51,14,13.77,25.03,18.61
				c11.09,4.87,25.25,9.13,42.09,12.65l17.77,4.14c28.32,6.3,53.46,14.38,74.71,24.02c21.34,9.69,38.28,22.62,50.36,38.45
				c12.11,15.88,18.24,36.78,18.24,62.12c0,24.92-6.52,47.19-19.39,66.21c-12.86,18.99-31.11,34.03-54.23,44.71
				C1275.19,864.02,1247.49,869.42,1215.95,869.42z M1055.49,710.33v14.38c0,30.42,6.91,56.51,20.54,77.52
				c13.63,21.03,32.69,37.32,56.65,48.43c24,11.12,52.02,16.76,83.27,16.76s58.67-5.34,81.49-15.88
				c22.79-10.52,40.76-25.32,53.41-44.01c12.64-18.68,19.05-40.58,19.05-65.09c0-24.89-6-45.38-17.83-60.9
				c-11.88-15.56-28.56-28.29-49.59-37.84c-21.12-9.58-46.13-17.62-74.32-23.89l-17.75-4.14c-16.95-3.55-31.24-7.85-42.46-12.77
				c-11.35-4.97-20.04-11.45-25.83-19.24c-5.82-7.82-8.77-17.48-8.77-28.69c0-17.6,6.5-31.4,19.33-41.02
				c12.73-9.55,31.64-14.4,56.19-14.4c16.6,0,31.25,2.41,43.54,7.17c12.36,4.79,22.07,12.48,28.86,22.86
				c6.78,10.38,10.22,24.29,10.22,41.36v18.52h68.38v-18.52c0-29.22-6.61-53.91-19.65-73.37c-13.04-19.46-31.1-34.26-53.68-44
				c-22.65-9.76-48.79-14.7-77.67-14.7c-28.91,0-54.44,4.75-75.89,14.11c-21.4,9.34-38.17,22.95-49.84,40.45
				c-11.66,17.49-17.58,38.8-17.58,63.32s5.31,44.62,15.79,59.76c10.5,15.17,25.79,27.69,45.45,37.22
				c19.74,9.59,43.45,17.62,70.46,23.88l17.71,3.54c18.17,4.35,33.83,8.94,46.58,13.65c12.9,4.77,22.89,11.13,29.68,18.91
				c6.84,7.84,10.3,18.11,10.3,30.52c0,18.37-7.29,33.56-21.66,45.14c-14.3,11.53-35.81,17.37-63.91,17.37
				c-27.71,0-50.21-6.84-66.87-20.33c-16.73-13.53-25.21-34.29-25.21-61.69v-14.38L1055.49,710.33L1055.49,710.33z"/>
		</g>
		<g>
			<path class="st5" d="M1505.56,861.14H1432v-416h168.37c26.05,0,49.29,5.21,69.07,15.49c19.78,10.29,35.63,25.04,47.11,43.84
				c11.48,18.81,17.3,41.37,17.3,67.06v8.28c0,25.3-5.92,47.76-17.6,66.76c-11.68,19-27.73,33.85-47.71,44.13
				c-19.95,10.28-42.89,15.49-68.18,15.49h-94.81v154.95H1505.56z M1433.99,859.14h69.56V704.18h96.81
				c24.96,0,47.59-5.14,67.26-15.27c19.65-10.12,35.44-24.72,46.92-43.4c11.48-18.68,17.3-40.79,17.3-65.72v-8.28
				c0-25.32-5.72-47.53-17-66.01c-11.29-18.48-26.88-32.98-46.33-43.1c-19.49-10.13-42.42-15.26-68.14-15.26H1434v412H1433.99z
				 M1593.27,641.72h-89.71V509.6h89.71c21.04,0,37.98,5.66,50.35,16.82c12.38,11.19,18.66,26.77,18.66,46.28v5.91
				c0,19.54-6.38,35.11-18.97,46.29C1630.77,636.06,1613.93,641.72,1593.27,641.72z M1505.56,639.72h87.71
				c20.16,0,36.55-5.49,48.72-16.31c12.14-10.78,18.29-25.85,18.29-44.79v-5.91c0-18.93-6.06-34-18-44.8
				c-11.99-10.82-28.48-16.3-49.01-16.3h-87.71V639.72z"/>
		</g>
		<path class="st5" d="M1945.17,500.73c-29.33,0-52.76,9.16-69.63,27.23c-16.86,18.05-25.4,43.25-25.4,74.91v100.54
			c0,31.27,8.54,56.57,25.39,75.19c16.87,18.66,40.7,28.13,70.83,28.13c5.66,0,11.04-0.29,16.14-0.87v-2.02
			c-5.1,0.59-10.47,0.89-16.14,0.89c-29.54,0-52.87-9.24-69.34-27.47c-16.51-18.24-24.88-43.09-24.88-73.85V602.87
			c0-31.13,8.37-55.88,24.87-73.54c16.48-17.65,39.42-26.59,68.17-26.59c6.08,0,11.86,0.36,17.32,1.06v-2.01
			C1957.02,501.09,1951.24,500.73,1945.17,500.73z"/>
		<polygon class="st5" points="1927.02,713.28 1962.49,713.28 1962.49,711.28 1929.02,711.28 1929.02,652.96 1962.49,652.96 
			1962.49,650.96 1927.02,650.96 		"/>
		<path class="st5" d="M1933.34,867.42c-28.86,0-55.06-6.42-77.88-19.1c-22.79-12.65-41.16-31.43-54.61-55.79
			c-13.46-24.37-20.28-54.75-20.28-90.3v-98.18c0-53.09,15.02-94.33,44.64-122.59c29.63-28.27,69.99-42.6,119.96-42.6
			c5.93,0,11.7,0.2,17.32,0.58v-2c-5.62-0.38-11.39-0.57-17.32-0.57c-50.5,0-91.33,14.52-121.34,43.15
			c-30.03,28.65-45.26,70.38-45.26,124.04v98.18c0,35.89,6.91,66.6,20.53,91.27c13.63,24.7,32.27,43.74,55.39,56.58
			s49.65,19.35,78.85,19.35c10.81,0,20.55-0.68,29.15-2.01v-2.03C1953.92,866.73,1944.19,867.42,1933.34,867.42z"/>
	</g>
</g>
</svg>
