<?xml version="1.0" encoding="utf-8"?>
<!-- Generator: Adobe Illustrator 24.0.2, SVG Export Plug-In . SVG Version: 6.00 Build 0)  -->
<svg version="1.1" id="Layer_1" xmlns="http://www.w3.org/2000/svg" xmlns:xlink="http://www.w3.org/1999/xlink" x="0px" y="0px"
	 viewBox="0 0 756 964" style="enable-background:new 0 0 756 964;" xml:space="preserve">
<style type="text/css">
	.st0{fill:#EFEFFA;}
	.st1{fill:#00D4D9;}
</style>
<g>
	<g>
		<path class="st0" d="M126.94,416.01c-3.54,0-6.65-0.63-9.32-1.88c-2.67-1.25-4.76-3.15-6.27-5.7s-2.27-5.76-2.27-9.64v-33.37h4.54
			v33.37c0,4.44,1.17,7.74,3.51,9.88c2.34,2.15,5.61,3.22,9.81,3.22s7.48-1.07,9.81-3.22c2.34-2.15,3.51-5.44,3.51-9.88v-33.37h4.53
			v33.37c0,3.87-0.74,7.08-2.23,9.64c-1.49,2.55-3.58,4.45-6.27,5.7C133.6,415.39,130.48,416.01,126.94,416.01z"/>
		<path class="st0" d="M156.7,415.02v-34.44h4.11v6.38h0.85c0.85-1.84,2.24-3.48,4.18-4.92c1.94-1.44,4.75-2.16,8.43-2.16
			c2.5,0,4.79,0.52,6.87,1.56c2.08,1.04,3.74,2.61,5,4.71c1.25,2.1,1.88,4.74,1.88,7.9v20.97h-4.25v-20.69
			c0-3.78-0.95-6.49-2.83-8.15c-1.89-1.65-4.42-2.48-7.58-2.48c-3.54,0-6.5,1.17-8.86,3.51c-2.36,2.34-3.54,5.87-3.54,10.59v17.22
			H156.7z"/>
		<path class="st0" d="M218.48,416.01c-3.78,0-6.72-0.74-8.82-2.23c-2.1-1.49-3.65-3.18-4.64-5.07h-0.85v6.31h-4.11v-49.6h4.25
			v21.19h0.85c0.61-1.18,1.48-2.3,2.59-3.37c1.11-1.06,2.55-1.94,4.32-2.62c1.77-0.68,3.91-1.03,6.41-1.03
			c3.12,0,5.93,0.72,8.43,2.16c2.5,1.44,4.49,3.5,5.95,6.16c1.46,2.67,2.2,5.82,2.2,9.46v0.85c0,3.64-0.74,6.79-2.23,9.46
			c-1.49,2.67-3.48,4.72-5.99,6.17C224.34,415.29,221.55,416.01,218.48,416.01z M217.49,412.19c3.92,0,7.1-1.25,9.53-3.76
			c2.43-2.5,3.65-5.95,3.65-10.34v-0.57c0-4.39-1.22-7.84-3.65-10.34c-2.43-2.5-5.61-3.76-9.53-3.76c-3.87,0-7.04,1.25-9.49,3.76
			c-2.46,2.5-3.68,5.95-3.68,10.34v0.57c0,4.39,1.23,7.84,3.68,10.34C210.45,410.94,213.62,412.19,217.49,412.19z"/>
		<path class="st0" d="M261.7,416.01c-3.54,0-6.62-0.74-9.25-2.23c-2.62-1.49-4.67-3.58-6.13-6.27c-1.46-2.69-2.2-5.79-2.2-9.28
			v-0.85c0-3.54,0.73-6.65,2.2-9.32c1.46-2.67,3.48-4.75,6.06-6.24c2.57-1.49,5.51-2.23,8.82-2.23c3.21,0,6.06,0.67,8.54,2.02
			c2.48,1.35,4.43,3.28,5.85,5.81c1.42,2.53,2.13,5.54,2.13,9.03v2.27h-29.33c0.14,4.3,1.45,7.62,3.93,9.96
			c2.48,2.34,5.61,3.51,9.39,3.51c3.21,0,5.7-0.73,7.48-2.2c1.77-1.46,3.13-3.26,4.07-5.38l3.83,1.7c-0.71,1.56-1.69,3.08-2.94,4.57
			c-1.25,1.49-2.87,2.72-4.85,3.68C267.3,415.53,264.77,416.01,261.7,416.01z M248.45,395.04h24.94c-0.19-3.73-1.39-6.6-3.61-8.61
			c-2.22-2.01-5.08-3.01-8.57-3.01c-3.45,0-6.31,1-8.57,3.01S248.97,391.31,248.45,395.04z"/>
		<path class="st0" d="M298.76,416.01c-2.41,0-4.59-0.41-6.55-1.24c-1.96-0.83-3.51-2.04-4.64-3.65c-1.13-1.61-1.7-3.54-1.7-5.81
			c0-2.31,0.57-4.23,1.7-5.74s2.67-2.65,4.61-3.4c1.94-0.75,4.08-1.13,6.45-1.13h12.61v-2.76c0-2.79-0.8-4.96-2.41-6.52
			c-1.61-1.56-3.94-2.34-7.01-2.34c-3.02,0-5.42,0.74-7.19,2.23c-1.77,1.49-2.96,3.48-3.58,5.99l-4.11-1.21
			c0.57-2.03,1.46-3.86,2.69-5.49c1.23-1.63,2.86-2.93,4.89-3.9c2.03-0.97,4.46-1.45,7.3-1.45c4.35,0,7.71,1.13,10.1,3.4
			c2.38,2.27,3.58,5.43,3.58,9.49v16.72c0,1.42,0.66,2.13,1.98,2.13h3.33v3.68h-4.53c-1.46,0-2.62-0.44-3.47-1.31
			c-0.85-0.87-1.28-2.07-1.28-3.58v-0.5h-0.71c-0.61,1.04-1.41,2.05-2.37,3.05c-0.97,0.99-2.23,1.8-3.79,2.41
			C303.08,415.71,301.12,416.01,298.76,416.01z M299.04,412.19c3.64,0,6.58-1.1,8.82-3.29c2.24-2.2,3.37-5.3,3.37-9.32v-0.85h-12.54
			c-2.46,0-4.5,0.53-6.13,1.59c-1.63,1.06-2.44,2.7-2.44,4.92c0,2.22,0.84,3.93,2.52,5.14
			C294.31,411.58,296.44,412.19,299.04,412.19z"/>
		<path class="st0" d="M339.22,415.02c-1.84,0-3.22-0.47-4.15-1.42c-0.92-0.94-1.38-2.27-1.38-3.97v-25.22h-11.05v-3.83h11.05v-12.9
			h4.25v12.9h12.04v3.83h-12.04v24.66c0,1.42,0.71,2.13,2.12,2.13h8.08v3.83H339.22z"/>
		<path class="st0" d="M369.75,416.01c-2.41,0-4.59-0.41-6.55-1.24c-1.96-0.83-3.51-2.04-4.64-3.65c-1.13-1.61-1.7-3.54-1.7-5.81
			c0-2.31,0.57-4.23,1.7-5.74s2.67-2.65,4.61-3.4c1.94-0.75,4.08-1.13,6.45-1.13h12.61v-2.76c0-2.79-0.8-4.96-2.41-6.52
			c-1.61-1.56-3.94-2.34-7.01-2.34c-3.02,0-5.42,0.74-7.19,2.23c-1.77,1.49-2.96,3.48-3.58,5.99l-4.11-1.21
			c0.57-2.03,1.46-3.86,2.69-5.49c1.23-1.63,2.86-2.93,4.89-3.9c2.03-0.97,4.46-1.45,7.3-1.45c4.35,0,7.71,1.13,10.1,3.4
			s3.58,5.43,3.58,9.49v16.72c0,1.42,0.66,2.13,1.98,2.13h3.33v3.68h-4.53c-1.46,0-2.62-0.44-3.47-1.31
			c-0.85-0.87-1.28-2.07-1.28-3.58v-0.5h-0.71c-0.61,1.04-1.41,2.05-2.37,3.05c-0.97,0.99-2.23,1.8-3.79,2.41
			C374.08,415.71,372.12,416.01,369.75,416.01z M370.04,412.19c3.64,0,6.58-1.1,8.82-3.29c2.24-2.2,3.37-5.3,3.37-9.32v-0.85h-12.54
			c-2.46,0-4.5,0.53-6.13,1.59c-1.63,1.06-2.44,2.7-2.44,4.92c0,2.22,0.84,3.93,2.52,5.14C365.3,411.58,367.44,412.19,370.04,412.19
			z"/>
		<path class="st0" d="M418.29,416.01c-3.78,0-6.72-0.74-8.82-2.23s-3.65-3.18-4.64-5.07h-0.85v6.31h-4.11v-49.6h4.25v21.19h0.85
			c0.61-1.18,1.47-2.3,2.59-3.37c1.11-1.06,2.55-1.94,4.32-2.62c1.77-0.68,3.91-1.03,6.41-1.03c3.12,0,5.93,0.72,8.43,2.16
			c2.5,1.44,4.49,3.5,5.95,6.16c1.46,2.67,2.2,5.82,2.2,9.46v0.85c0,3.64-0.74,6.79-2.23,9.46c-1.49,2.67-3.48,4.72-5.99,6.17
			C424.14,415.29,421.36,416.01,418.29,416.01z M417.3,412.19c3.92,0,7.1-1.25,9.53-3.76c2.43-2.5,3.65-5.95,3.65-10.34v-0.57
			c0-4.39-1.22-7.84-3.65-10.34s-5.61-3.76-9.53-3.76c-3.87,0-7.04,1.25-9.49,3.76c-2.46,2.5-3.69,5.95-3.69,10.34v0.57
			c0,4.39,1.23,7.84,3.69,10.34C410.26,410.94,413.42,412.19,417.3,412.19z"/>
		<path class="st0" d="M445.64,415.02v-49.6h4.25v49.6H445.64z"/>
		<path class="st0" d="M478.23,416.01c-3.54,0-6.62-0.74-9.25-2.23c-2.62-1.49-4.67-3.58-6.13-6.27c-1.46-2.69-2.2-5.79-2.2-9.28
			v-0.85c0-3.54,0.73-6.65,2.2-9.32c1.46-2.67,3.48-4.75,6.06-6.24c2.57-1.49,5.52-2.23,8.82-2.23c3.21,0,6.06,0.67,8.54,2.02
			c2.48,1.35,4.43,3.28,5.85,5.81c1.42,2.53,2.13,5.54,2.13,9.03v2.27h-29.33c0.14,4.3,1.45,7.62,3.93,9.96s5.61,3.51,9.39,3.51
			c3.21,0,5.7-0.73,7.47-2.2c1.77-1.46,3.13-3.26,4.07-5.38l3.83,1.7c-0.71,1.56-1.69,3.08-2.94,4.57
			c-1.25,1.49-2.87,2.72-4.85,3.68C483.83,415.53,481.3,416.01,478.23,416.01z M464.98,395.04h24.94c-0.19-3.73-1.39-6.6-3.62-8.61
			s-5.08-3.01-8.57-3.01c-3.45,0-6.31,1-8.57,3.01S465.5,391.31,464.98,395.04z"/>
		<path class="st0" d="M521.66,415.02v-49.6h21.19c3.12,0,5.83,0.54,8.15,1.63c2.31,1.09,4.12,2.61,5.42,4.57
			c1.3,1.96,1.95,4.31,1.95,7.05v0.78c0,3.07-0.73,5.53-2.2,7.37c-1.46,1.84-3.24,3.19-5.31,4.04v1.13c1.84,0.1,3.29,0.73,4.36,1.91
			c1.06,1.18,1.6,2.76,1.6,4.75v16.37h-8.5v-15.16c0-1.18-0.32-2.14-0.96-2.87c-0.64-0.73-1.66-1.1-3.08-1.1h-14.03v19.13H521.66z
			 M530.24,388.17H542c2.46,0,4.38-0.65,5.77-1.95c1.39-1.3,2.09-3.03,2.09-5.21v-0.64c0-2.22-0.69-3.98-2.05-5.28
			c-1.37-1.3-3.31-1.95-5.81-1.95h-11.76V388.17z"/>
		<path class="st0" d="M577.57,416.01c-2.46,0-4.68-0.44-6.66-1.31c-1.98-0.87-3.55-2.14-4.71-3.79c-1.16-1.65-1.73-3.68-1.73-6.09
			c0-2.36,0.58-4.35,1.73-5.95c1.16-1.61,2.75-2.82,4.78-3.65s4.35-1.24,6.94-1.24h10.13v-2.13c0-1.84-0.57-3.34-1.7-4.5
			c-1.13-1.16-2.9-1.74-5.31-1.74c-2.36,0-4.15,0.56-5.35,1.67c-1.21,1.11-2,2.54-2.38,4.29l-7.51-2.48
			c0.57-1.84,1.47-3.52,2.73-5.03c1.25-1.51,2.92-2.73,4.99-3.65c2.08-0.92,4.63-1.38,7.65-1.38c4.58,0,8.18,1.15,10.8,3.44
			c2.62,2.29,3.93,5.61,3.93,9.96v13.75c0,1.42,0.66,2.13,1.98,2.13h2.97v6.73h-5.74c-1.7,0-3.1-0.43-4.18-1.28
			c-1.09-0.85-1.63-2.01-1.63-3.47v-0.14h-1.21c-0.28,0.66-0.78,1.46-1.49,2.41c-0.71,0.95-1.78,1.76-3.22,2.44
			C581.97,415.67,580.02,416.01,577.57,416.01z M578.91,409.35c2.69,0,4.89-0.77,6.59-2.3c1.7-1.53,2.55-3.6,2.55-6.2v-0.71h-9.64
			c-1.75,0-3.16,0.38-4.25,1.13c-1.09,0.76-1.63,1.87-1.63,3.33c0,1.42,0.57,2.56,1.7,3.44
			C575.37,408.92,576.93,409.35,578.91,409.35z"/>
		<path class="st0" d="M618.45,415.02c-2.27,0-4.07-0.67-5.42-2.02c-1.35-1.35-2.02-3.18-2.02-5.49v-20.76h-9.14v-6.73h9.14v-11.27
			h8.15v11.27h10.06v6.73h-10.06v19.41c0,1.42,0.66,2.13,1.98,2.13h7.02v6.73H618.45z"/>
		<path class="st0" d="M652.25,416.01c-3.5,0-6.58-0.74-9.25-2.23c-2.67-1.49-4.75-3.59-6.24-6.31c-1.49-2.72-2.23-5.89-2.23-9.53
			v-0.85c0-3.68,0.73-6.87,2.2-9.57c1.46-2.69,3.52-4.78,6.16-6.27c2.64-1.49,5.69-2.23,9.14-2.23c3.4,0,6.38,0.74,8.93,2.23
			c2.55,1.49,4.54,3.58,5.95,6.27c1.42,2.69,2.12,5.83,2.12,9.42v2.91h-26.29c0.09,2.74,1.06,4.94,2.9,6.59s4.11,2.48,6.8,2.48
			c2.64,0,4.61-0.58,5.88-1.74c1.28-1.16,2.24-2.47,2.9-3.93l6.73,3.47c-0.66,1.28-1.62,2.63-2.87,4.07
			c-1.25,1.44-2.92,2.67-4.99,3.68C658.03,415.5,655.41,416.01,652.25,416.01z M642.82,393.69h17.93c-0.19-2.31-1.07-4.16-2.66-5.53
			c-1.58-1.37-3.63-2.05-6.13-2.05c-2.6,0-4.68,0.69-6.24,2.05C644.17,389.54,643.2,391.38,642.82,393.69z"/>
		<path class="st0" d="M691.86,416.01c-4.54,0-8.27-0.99-11.2-2.98c-2.93-1.98-4.7-4.89-5.31-8.71l7.51-1.91
			c0.33,1.8,0.92,3.21,1.77,4.25c0.85,1.04,1.9,1.77,3.15,2.2c1.25,0.43,2.61,0.64,4.07,0.64c2.22,0,3.88-0.4,4.99-1.2
			c1.11-0.8,1.67-1.82,1.67-3.05c0-1.28-0.53-2.22-1.6-2.83c-1.06-0.61-2.68-1.13-4.85-1.56l-2.2-0.35
			c-2.41-0.47-4.61-1.12-6.59-1.95c-1.98-0.83-3.58-1.96-4.78-3.4c-1.2-1.44-1.81-3.27-1.81-5.49c0-3.4,1.26-6.02,3.79-7.87
			c2.53-1.84,5.85-2.76,9.96-2.76c3.92,0,7.16,0.87,9.71,2.62c2.55,1.75,4.2,4.09,4.96,7.01l-7.51,2.27
			c-0.38-1.98-1.21-3.39-2.48-4.22c-1.28-0.83-2.83-1.24-4.68-1.24c-1.89,0-3.34,0.33-4.36,0.99c-1.02,0.66-1.52,1.61-1.52,2.83
			c0,1.23,0.52,2.15,1.56,2.76c1.04,0.61,2.43,1.06,4.18,1.35l2.2,0.43c2.6,0.47,4.95,1.09,7.05,1.84c2.1,0.76,3.77,1.84,4.99,3.26
			s1.84,3.33,1.84,5.74c0,3.64-1.31,6.44-3.93,8.4C699.83,415.03,696.29,416.01,691.86,416.01z"/>
		<path class="st0" d="M714.67,423.24v-2.98h1.7c1.51,0,2.27-0.76,2.27-2.27v-2.27h-0.92c-1.13,0-2.09-0.37-2.87-1.1
			c-0.78-0.73-1.17-1.67-1.17-2.8s0.39-2.07,1.17-2.8c0.78-0.73,1.74-1.1,2.87-1.1c1.13,0,2.09,0.39,2.87,1.17
			c0.78,0.78,1.17,1.74,1.17,2.87v5.88c0,3.59-1.77,5.38-5.31,5.38H714.67z"/>
		<path class="st0" d="M78.76,500.05l-7.79-34.44h4.39l6.8,31.6h0.85l8.86-31.6h7.23l8.86,31.6h0.85l6.8-31.6H120l-7.79,34.44h-7.44
			l-8.86-31.6h-0.85l-8.86,31.6H78.76z"/>
		<path class="st0" d="M132.47,459.66c-1.04,0-1.91-0.35-2.62-1.06c-0.71-0.71-1.06-1.58-1.06-2.62c0-1.09,0.35-1.97,1.06-2.66
			c0.71-0.68,1.58-1.03,2.62-1.03c1.09,0,1.97,0.34,2.66,1.03c0.68,0.69,1.03,1.57,1.03,2.66c0,1.04-0.34,1.91-1.03,2.62
			C134.44,459.31,133.55,459.66,132.47,459.66z M130.34,500.05v-34.44h4.25v34.44H130.34z"/>
		<path class="st0" d="M159.53,500.05c-1.84,0-3.22-0.47-4.15-1.42c-0.92-0.94-1.38-2.27-1.38-3.97v-25.22h-11.05v-3.83h11.05v-12.9
			h4.25v12.9h12.04v3.83h-12.04v24.66c0,1.42,0.71,2.13,2.12,2.13h8.08v3.83H159.53z"/>
		<path class="st0" d="M179.8,500.05v-49.6h4.25v21.19h0.85c0.57-1.13,1.36-2.21,2.37-3.22c1.02-1.02,2.34-1.84,3.97-2.48
			c1.63-0.64,3.67-0.96,6.13-0.96c2.5,0,4.79,0.52,6.87,1.56c2.08,1.04,3.74,2.6,5,4.68c1.25,2.08,1.88,4.7,1.88,7.86v20.97h-4.25
			v-20.69c0-3.78-0.95-6.48-2.83-8.11c-1.89-1.63-4.42-2.44-7.58-2.44c-3.54,0-6.5,1.16-8.86,3.47c-2.36,2.32-3.54,5.83-3.54,10.56
			v17.22H179.8z"/>
		<path class="st0" d="M241.44,500.05v-34.44h4.11v6.38h0.85c0.85-1.84,2.24-3.48,4.18-4.92c1.94-1.44,4.75-2.16,8.43-2.16
			c2.5,0,4.79,0.52,6.87,1.56c2.08,1.04,3.74,2.61,5,4.71c1.25,2.1,1.88,4.74,1.88,7.9v20.97h-4.25v-20.69
			c0-3.78-0.95-6.49-2.83-8.15c-1.89-1.65-4.42-2.48-7.58-2.48c-3.54,0-6.5,1.17-8.86,3.51c-2.36,2.34-3.54,5.87-3.54,10.59v17.22
			H241.44z"/>
		<path class="st0" d="M300.67,501.04c-3.54,0-6.62-0.74-9.25-2.23c-2.62-1.49-4.67-3.58-6.13-6.27c-1.46-2.69-2.2-5.79-2.2-9.28
			v-0.85c0-3.54,0.73-6.65,2.2-9.32c1.46-2.67,3.48-4.75,6.06-6.24c2.57-1.49,5.51-2.23,8.82-2.23c3.21,0,6.06,0.67,8.54,2.02
			c2.48,1.35,4.43,3.28,5.85,5.81c1.42,2.53,2.13,5.54,2.13,9.03v2.27h-29.33c0.14,4.3,1.45,7.62,3.93,9.96
			c2.48,2.34,5.61,3.51,9.39,3.51c3.21,0,5.7-0.73,7.48-2.2c1.77-1.46,3.13-3.26,4.07-5.38l3.83,1.7c-0.71,1.56-1.69,3.08-2.94,4.57
			c-1.25,1.49-2.87,2.72-4.85,3.68C306.27,500.55,303.74,501.04,300.67,501.04z M287.42,480.07h24.94c-0.19-3.73-1.39-6.6-3.61-8.61
			c-2.22-2.01-5.08-3.01-8.57-3.01c-3.45,0-6.31,1-8.57,3.01S287.94,476.33,287.42,480.07z"/>
		<path class="st0" d="M322.14,500.05l14.38-17.5l-13.89-16.93h5.31l11.27,14.1h0.85l11.27-14.1h5.31l-13.89,16.93l14.38,17.5h-5.38
			l-11.69-14.67h-0.85l-11.69,14.67H322.14z"/>
		<path class="st0" d="M379.39,500.05c-1.84,0-3.23-0.47-4.15-1.42c-0.92-0.94-1.38-2.27-1.38-3.97v-25.22h-11.05v-3.83h11.05v-12.9
			h4.25v12.9h12.05v3.83h-12.05v24.66c0,1.42,0.71,2.13,2.13,2.13h8.08v3.83H379.39z"/>
		<path class="st0" d="M432.81,501.04c-3.07,0-5.86-0.72-8.36-2.16c-2.5-1.44-4.5-3.5-5.99-6.17c-1.49-2.67-2.23-5.82-2.23-9.46
			v-0.85c0-3.64,0.73-6.79,2.2-9.46c1.46-2.67,3.46-4.72,5.99-6.16c2.53-1.44,5.32-2.16,8.39-2.16c2.55,0,4.7,0.34,6.45,1.03
			c1.75,0.69,3.18,1.56,4.29,2.62s1.97,2.19,2.59,3.37h0.85v-21.19h4.25v49.6h-4.11v-6.31h-0.85c-0.99,1.89-2.54,3.58-4.64,5.07
			S436.59,501.04,432.81,501.04z M433.81,497.21c3.92,0,7.1-1.25,9.53-3.76c2.43-2.5,3.65-5.95,3.65-10.34v-0.57
			c0-4.39-1.22-7.84-3.65-10.34c-2.43-2.5-5.61-3.76-9.53-3.76c-3.87,0-7.04,1.25-9.49,3.76c-2.46,2.5-3.68,5.95-3.68,10.34v0.57
			c0,4.39,1.23,7.84,3.68,10.34C426.77,495.96,429.93,497.21,433.81,497.21z"/>
		<path class="st0" d="M474.27,501.04c-2.41,0-4.6-0.41-6.55-1.24c-1.96-0.83-3.51-2.04-4.64-3.65c-1.13-1.61-1.7-3.54-1.7-5.81
			c0-2.31,0.57-4.23,1.7-5.74c1.13-1.51,2.67-2.65,4.61-3.4c1.94-0.75,4.08-1.13,6.45-1.13h12.61v-2.76c0-2.79-0.8-4.96-2.41-6.52
			c-1.61-1.56-3.95-2.34-7.02-2.34c-3.02,0-5.42,0.74-7.19,2.23c-1.77,1.49-2.96,3.48-3.58,5.99l-4.11-1.21
			c0.57-2.03,1.46-3.86,2.69-5.49c1.23-1.63,2.86-2.93,4.89-3.9c2.03-0.97,4.46-1.45,7.3-1.45c4.35,0,7.71,1.13,10.1,3.4
			c2.38,2.27,3.58,5.43,3.58,9.49v16.72c0,1.42,0.66,2.13,1.98,2.13h3.33v3.68h-4.54c-1.46,0-2.62-0.44-3.47-1.31
			c-0.85-0.87-1.28-2.07-1.28-3.58v-0.5h-0.71c-0.62,1.04-1.41,2.05-2.38,3.05c-0.97,0.99-2.23,1.8-3.79,2.41
			C478.59,500.73,476.63,501.04,474.27,501.04z M474.55,497.21c3.64,0,6.58-1.1,8.82-3.29s3.37-5.3,3.37-9.32v-0.85h-12.54
			c-2.46,0-4.5,0.53-6.13,1.59c-1.63,1.06-2.44,2.7-2.44,4.92c0,2.22,0.84,3.93,2.52,5.14
			C469.81,496.61,471.95,497.21,474.55,497.21z"/>
		<path class="st0" d="M507.85,514.22v-3.83h20.12c1.42,0,2.12-0.71,2.12-2.13v-14.17h-0.85c-0.57,1.13-1.36,2.21-2.37,3.22
			c-1.02,1.02-2.34,1.84-3.97,2.48s-3.67,0.96-6.13,0.96c-2.46,0-4.74-0.52-6.84-1.56s-3.78-2.6-5.03-4.68
			c-1.25-2.08-1.88-4.7-1.88-7.86v-21.04h4.25v20.76c0,3.73,0.94,6.42,2.83,8.08c1.89,1.65,4.42,2.48,7.58,2.48
			c3.54,0,6.49-1.16,8.86-3.47c2.36-2.31,3.54-5.83,3.54-10.56v-17.29h4.25v43.22c0,1.7-0.46,3.02-1.38,3.97
			c-0.92,0.94-2.3,1.42-4.14,1.42H507.85z"/>
		<path class="st0" d="M70.54,586.06c-3.78,0-7.12-0.67-10.03-2.02c-2.91-1.35-5.18-3.29-6.84-5.85c-1.65-2.55-2.48-5.67-2.48-9.35
			V567h8.43v1.84c0,3.26,0.99,5.69,2.98,7.3c1.98,1.61,4.63,2.41,7.94,2.41c3.35,0,5.88-0.68,7.58-2.05
			c1.7-1.37,2.55-3.14,2.55-5.31c0-1.46-0.4-2.66-1.2-3.58c-0.8-0.92-1.97-1.67-3.51-2.23c-1.54-0.57-3.39-1.11-5.56-1.63
			l-2.13-0.43c-3.26-0.75-6.08-1.71-8.47-2.87c-2.39-1.16-4.22-2.66-5.49-4.5c-1.28-1.84-1.91-4.25-1.91-7.23s0.71-5.53,2.13-7.65
			s3.42-3.75,6.02-4.89c2.6-1.13,5.64-1.7,9.14-1.7c3.5,0,6.61,0.59,9.35,1.77c2.74,1.18,4.9,2.95,6.48,5.31
			c1.58,2.36,2.37,5.31,2.37,8.86v2.34h-8.43v-2.34c0-2.03-0.4-3.66-1.2-4.89c-0.8-1.23-1.94-2.13-3.4-2.69
			c-1.46-0.57-3.19-0.85-5.17-0.85c-2.93,0-5.15,0.57-6.66,1.7s-2.27,2.74-2.27,4.82c0,1.32,0.34,2.45,1.03,3.37s1.7,1.68,3.05,2.27
			c1.35,0.59,3.04,1.1,5.07,1.52l2.13,0.5c3.4,0.76,6.38,1.71,8.93,2.87c2.55,1.16,4.54,2.68,5.99,4.57
			c1.44,1.89,2.16,4.35,2.16,7.37c0,2.98-0.77,5.6-2.3,7.87s-3.68,4.04-6.45,5.31S74.32,586.06,70.54,586.06z"/>
		<path class="st0" d="M112.84,586.06c-3.5,0-6.58-0.74-9.25-2.23c-2.67-1.49-4.75-3.59-6.24-6.31c-1.49-2.72-2.23-5.89-2.23-9.53
			v-0.85c0-3.68,0.73-6.87,2.2-9.57c1.46-2.69,3.52-4.78,6.17-6.27c2.64-1.49,5.69-2.23,9.14-2.23c3.4,0,6.38,0.74,8.93,2.23
			c2.55,1.49,4.54,3.58,5.95,6.27c1.42,2.69,2.12,5.83,2.12,9.42v2.91h-26.29c0.09,2.74,1.06,4.94,2.9,6.59
			c1.84,1.65,4.11,2.48,6.8,2.48c2.64,0,4.61-0.58,5.88-1.74c1.28-1.16,2.24-2.47,2.9-3.93l6.73,3.47
			c-0.66,1.28-1.62,2.63-2.87,4.07c-1.25,1.44-2.92,2.67-5,3.68C118.62,585.56,116,586.06,112.84,586.06z M103.41,563.75h17.93
			c-0.19-2.31-1.08-4.16-2.66-5.53c-1.58-1.37-3.63-2.05-6.13-2.05c-2.6,0-4.68,0.69-6.24,2.05
			C104.76,559.59,103.79,561.43,103.41,563.75z"/>
		<path class="st0" d="M151.31,585.07c-2.27,0-4.07-0.67-5.42-2.02c-1.35-1.35-2.02-3.18-2.02-5.49V556.8h-9.14v-6.73h9.14V538.8
			h8.15v11.27h7.87v6.73h-7.87v19.41c0,1.42,0.66,2.13,1.98,2.13h7.01v6.73H151.31z M174.34,585.07c-2.27,0-4.07-0.67-5.42-2.02
			c-1.35-1.35-2.02-3.18-2.02-5.49V556.8h-7.01v-6.73h7.01V538.8h8.15v11.27h10.06v6.73h-10.06v19.41c0,1.42,0.66,2.13,1.98,2.13
			h7.01v6.73H174.34z"/>
		<path class="st0" d="M193.4,585.07v-49.6h8.15v49.6H193.4z"/>
		<path class="st0" d="M227.9,586.06c-3.5,0-6.58-0.74-9.25-2.23c-2.67-1.49-4.75-3.59-6.24-6.31c-1.49-2.72-2.23-5.89-2.23-9.53
			v-0.85c0-3.68,0.73-6.87,2.2-9.57c1.46-2.69,3.52-4.78,6.17-6.27c2.64-1.49,5.69-2.23,9.14-2.23c3.4,0,6.38,0.74,8.93,2.23
			c2.55,1.49,4.54,3.58,5.95,6.27c1.42,2.69,2.12,5.83,2.12,9.42v2.91h-26.29c0.09,2.74,1.06,4.94,2.9,6.59
			c1.84,1.65,4.11,2.48,6.8,2.48c2.64,0,4.61-0.58,5.88-1.74c1.28-1.16,2.24-2.47,2.9-3.93l6.73,3.47
			c-0.66,1.28-1.62,2.63-2.87,4.07c-1.25,1.44-2.92,2.67-5,3.68C233.69,585.56,231.07,586.06,227.9,586.06z M218.48,563.75h17.93
			c-0.19-2.31-1.08-4.16-2.66-5.53c-1.58-1.37-3.63-2.05-6.13-2.05c-2.6,0-4.68,0.69-6.24,2.05
			C219.83,559.59,218.86,561.43,218.48,563.75z"/>
		<path class="st0" d="M253.06,585.07v-35h8.01v3.9h1.21c0.61-1.18,1.64-2.23,3.08-3.15c1.44-0.92,3.37-1.38,5.77-1.38
			c2.55,0,4.61,0.52,6.16,1.56c1.56,1.04,2.74,2.36,3.54,3.97h1.13c0.8-1.61,1.96-2.93,3.47-3.97s3.66-1.56,6.45-1.56
			c2.17,0,4.14,0.47,5.92,1.42c1.77,0.95,3.19,2.34,4.25,4.18c1.06,1.84,1.59,4.13,1.59,6.87v23.17h-8.15v-22.6
			c0-2.03-0.54-3.58-1.63-4.64c-1.09-1.06-2.6-1.59-4.53-1.59c-2.13,0-3.82,0.7-5.07,2.09c-1.25,1.39-1.88,3.39-1.88,5.99v20.76
			h-8.08v-22.6c0-2.03-0.54-3.58-1.63-4.64c-1.09-1.06-2.6-1.59-4.53-1.59c-2.17,0-3.87,0.7-5.1,2.09
			c-1.23,1.39-1.84,3.39-1.84,5.99v20.76H253.06z"/>
		<path class="st0" d="M329.65,586.06c-3.5,0-6.58-0.74-9.25-2.23c-2.67-1.49-4.75-3.59-6.24-6.31c-1.49-2.72-2.23-5.89-2.23-9.53
			v-0.85c0-3.68,0.73-6.87,2.2-9.57c1.46-2.69,3.52-4.78,6.17-6.27c2.64-1.49,5.69-2.23,9.14-2.23c3.4,0,6.38,0.74,8.93,2.23
			c2.55,1.49,4.54,3.58,5.95,6.27c1.42,2.69,2.12,5.83,2.12,9.42v2.91h-26.29c0.09,2.74,1.06,4.94,2.9,6.59
			c1.84,1.65,4.11,2.48,6.8,2.48c2.64,0,4.61-0.58,5.88-1.74c1.28-1.16,2.24-2.47,2.9-3.93l6.73,3.47
			c-0.66,1.28-1.62,2.63-2.87,4.07c-1.25,1.44-2.92,2.67-5,3.68C335.44,585.56,332.81,586.06,329.65,586.06z M320.23,563.75h17.93
			c-0.19-2.31-1.08-4.16-2.66-5.53c-1.58-1.37-3.63-2.05-6.13-2.05c-2.6,0-4.68,0.69-6.24,2.05
			C321.57,559.59,320.6,561.43,320.23,563.75z"/>
		<path class="st0" d="M354.8,585.07v-35h8.01v4.89h1.21c0.61-1.32,1.72-2.57,3.33-3.76c1.61-1.18,4.04-1.77,7.3-1.77
			c2.69,0,5.08,0.61,7.16,1.84c2.08,1.23,3.7,2.93,4.85,5.1c1.16,2.17,1.74,4.75,1.74,7.72v20.97h-8.15v-20.34
			c0-2.83-0.7-4.95-2.09-6.34c-1.39-1.39-3.37-2.09-5.92-2.09c-2.88,0-5.15,0.96-6.8,2.87c-1.65,1.91-2.48,4.64-2.48,8.18v17.71
			H354.8z"/>
		<path class="st0" d="M410.71,585.07c-2.27,0-4.07-0.67-5.42-2.02c-1.35-1.35-2.02-3.18-2.02-5.49V556.8h-9.14v-6.73h9.14V538.8
			h8.15v11.27h10.06v6.73h-10.06v19.41c0,1.42,0.66,2.13,1.98,2.13h7.02v6.73H410.71z"/>
		<path class="st0" d="M444.22,586.06c-4.54,0-8.27-0.99-11.2-2.98c-2.93-1.98-4.7-4.89-5.31-8.71l7.51-1.91
			c0.33,1.8,0.92,3.21,1.77,4.25c0.85,1.04,1.9,1.77,3.15,2.2c1.25,0.43,2.61,0.64,4.07,0.64c2.22,0,3.88-0.4,5-1.2
			c1.11-0.8,1.66-1.82,1.66-3.05c0-1.28-0.53-2.22-1.59-2.83c-1.06-0.61-2.68-1.13-4.85-1.56l-2.2-0.35
			c-2.41-0.47-4.61-1.12-6.59-1.95c-1.98-0.83-3.58-1.96-4.78-3.4c-1.21-1.44-1.81-3.27-1.81-5.49c0-3.4,1.26-6.02,3.79-7.87
			c2.53-1.84,5.84-2.76,9.96-2.76c3.92,0,7.16,0.87,9.71,2.62c2.55,1.75,4.2,4.09,4.96,7.01l-7.51,2.27
			c-0.38-1.98-1.21-3.39-2.48-4.22c-1.28-0.83-2.83-1.24-4.68-1.24c-1.89,0-3.34,0.33-4.36,0.99c-1.02,0.66-1.52,1.61-1.52,2.83
			c0,1.23,0.52,2.15,1.56,2.76c1.04,0.61,2.43,1.06,4.18,1.35l2.2,0.43c2.6,0.47,4.95,1.09,7.05,1.84c2.1,0.76,3.77,1.84,5,3.26
			c1.23,1.42,1.84,3.33,1.84,5.74c0,3.64-1.31,6.44-3.93,8.4C452.19,585.08,448.66,586.06,444.22,586.06z"/>
	</g>
</g>
<g>
	<path class="st1" d="M309.5,952.54c-70.46,0-138.59-25.35-191.82-71.37c-52.69-45.55-87.55-108.34-98.15-176.8
		c-1.82-11.76,1.6-23.72,9.39-32.81c7.88-9.19,19.33-14.46,31.43-14.46h498.31c12.1,0,23.55,5.27,31.43,14.46
		c7.79,9.08,11.21,21.04,9.39,32.81c-10.6,68.46-45.46,131.25-98.15,176.8C448.09,927.19,379.97,952.54,309.5,952.54z M60.35,661.09
		c-10.93,0-21.28,4.76-28.4,13.07c-7.03,8.2-10.11,18.98-8.47,29.59c10.46,67.52,44.84,129.45,96.81,174.39
		c52.51,45.4,119.71,70.4,189.21,70.4c69.5,0,136.7-25,189.21-70.4c51.97-44.93,86.36-106.87,96.81-174.39
		c1.64-10.61-1.44-21.39-8.47-29.59c-7.12-8.3-17.47-13.07-28.4-13.07H60.35z"/>
</g>
<g>
	<path class="st1" d="M697.92,306.91H199.61c-12.1,0-23.55-5.27-31.43-14.46c-7.79-9.09-11.21-21.04-9.39-32.81
		c10.6-68.46,45.46-131.25,98.15-176.8c53.24-46.03,121.36-71.37,191.82-71.37s138.59,25.35,191.83,71.37
		c52.69,45.55,87.55,108.34,98.15,176.8c1.82,11.76-1.6,23.72-9.39,32.81C721.47,301.64,710.01,306.91,697.92,306.91z M448.76,15.46
		c-69.5,0-136.7,25-189.21,70.4c-51.97,44.93-86.36,106.87-96.81,174.39c-1.64,10.61,1.44,21.39,8.47,29.59
		c7.12,8.3,17.47,13.07,28.4,13.07h498.31c10.93,0,21.28-4.76,28.4-13.07c7.03-8.2,10.11-18.98,8.47-29.59
		c-10.46-67.52-44.84-129.45-96.81-174.39C585.46,40.47,518.27,15.46,448.76,15.46z"/>
</g>
<g>
</g>
<g>
</g>
<g>
</g>
<g>
</g>
<g>
</g>
<g>
</g>
<g>
</g>
<g>
</g>
<g>
</g>
<g>
</g>
<g>
</g>
<g>
</g>
<g>
</g>
<g>
</g>
<g>
</g>
</svg>
