<?xml version="1.0" encoding="utf-8"?>
<!-- Generator: Adobe Illustrator 24.0.2, SVG Export Plug-In . SVG Version: 6.00 Build 0)  -->
<svg version="1.1" id="Layer_1" xmlns="http://www.w3.org/2000/svg" xmlns:xlink="http://www.w3.org/1999/xlink" x="0px" y="0px"
	 viewBox="0 0 2000 1334" style="enable-background:new 0 0 2000 1334;" xml:space="preserve">
<style type="text/css">
	.st0{fill:#202031;}
	.st1{fill:#C4C4C4;}
	.st2{fill:#00D4D9;}
</style>
<g>
	<rect class="st0" width="2000" height="1334"/>
	<g>
		<path class="st1" d="M177.59,256.62c-4.5,0-8.53-0.8-12.07-2.39c-3.54-1.59-6.33-4.02-8.38-7.29c-2.04-3.27-3.06-7.43-3.06-12.47
			v-1.71h5.76v1.71c0,5.82,1.67,10.13,5,12.92c3.33,2.79,7.58,4.19,12.74,4.19c5.22,0,9.24-1.22,12.07-3.65
			c2.82-2.43,4.23-5.54,4.23-9.32c0-2.52-0.62-4.55-1.85-6.08s-2.94-2.76-5.13-3.69c-2.19-0.93-4.73-1.76-7.61-2.48l-5.76-1.44
			c-3.42-0.9-6.48-2.03-9.18-3.38s-4.83-3.12-6.39-5.31c-1.56-2.19-2.34-5-2.34-8.42s0.88-6.39,2.66-8.91
			c1.77-2.52,4.22-4.46,7.34-5.81c3.12-1.35,6.75-2.03,10.9-2.03c4.14,0,7.88,0.72,11.21,2.16c3.33,1.44,5.97,3.56,7.92,6.35
			c1.95,2.79,2.93,6.29,2.93,10.49v4.23h-5.76v-4.23c0-3.3-0.72-5.97-2.16-8.01c-1.44-2.04-3.39-3.54-5.85-4.5
			c-2.46-0.96-5.22-1.44-8.29-1.44c-4.38,0-8,1.01-10.85,3.02c-2.85,2.01-4.28,4.91-4.28,8.69c0,2.52,0.59,4.53,1.76,6.03
			c1.17,1.5,2.82,2.7,4.95,3.6c2.13,0.9,4.64,1.71,7.52,2.43l5.76,1.44c3.3,0.78,6.33,1.82,9.09,3.11c2.76,1.29,4.98,3.06,6.66,5.31
			s2.52,5.21,2.52,8.87c0,3.66-0.92,6.84-2.75,9.55c-1.83,2.7-4.4,4.79-7.7,6.26C185.9,255.89,182.03,256.62,177.59,256.62z"/>
		<path class="st1" d="M212.62,273.37V211.6h5.22v8.01h1.08c1.26-2.4,3.23-4.55,5.9-6.44c2.67-1.89,6.41-2.84,11.21-2.84
			c3.9,0,7.44,0.92,10.62,2.75c3.18,1.83,5.72,4.43,7.61,7.79c1.89,3.36,2.84,7.38,2.84,12.07v1.08c0,4.62-0.93,8.63-2.79,12.02
			c-1.86,3.39-4.38,6-7.56,7.83c-3.18,1.83-6.75,2.75-10.72,2.75c-3.18,0-5.9-0.44-8.15-1.31s-4.08-2-5.49-3.38
			c-1.41-1.38-2.51-2.79-3.29-4.23h-1.08v25.66H212.62z M234.77,251.76c4.98,0,9.02-1.59,12.11-4.77c3.09-3.18,4.64-7.56,4.64-13.15
			v-0.72c0-5.58-1.55-9.96-4.64-13.15c-3.09-3.18-7.13-4.77-12.11-4.77c-4.92,0-8.95,1.59-12.07,4.77
			c-3.12,3.18-4.68,7.56-4.68,13.15v0.72c0,5.58,1.56,9.97,4.68,13.15C225.82,250.17,229.85,251.76,234.77,251.76z"/>
		<path class="st1" d="M284.21,256.62c-3.06,0-5.84-0.53-8.33-1.58c-2.49-1.05-4.46-2.6-5.9-4.64c-1.44-2.04-2.16-4.5-2.16-7.38
			c0-2.94,0.72-5.37,2.16-7.29c1.44-1.92,3.39-3.36,5.85-4.32c2.46-0.96,5.19-1.44,8.19-1.44h16.03v-3.51c0-3.54-1.02-6.3-3.06-8.28
			c-2.04-1.98-5.01-2.97-8.91-2.97c-3.84,0-6.89,0.95-9.14,2.84c-2.25,1.89-3.77,4.43-4.55,7.61l-5.22-1.53
			c0.72-2.58,1.86-4.91,3.42-6.98c1.56-2.07,3.63-3.72,6.21-4.95c2.58-1.23,5.67-1.85,9.28-1.85c5.52,0,9.8,1.44,12.83,4.32
			c3.03,2.88,4.55,6.9,4.55,12.07v21.25c0,1.8,0.84,2.7,2.52,2.7h4.23v4.68h-5.76c-1.86,0-3.33-0.55-4.41-1.67
			c-1.08-1.11-1.62-2.63-1.62-4.55v-0.63h-0.9c-0.78,1.32-1.79,2.61-3.02,3.87c-1.23,1.26-2.84,2.28-4.82,3.06
			C289.7,256.23,287.21,256.62,284.21,256.62z M284.56,251.76c4.62,0,8.36-1.4,11.21-4.19c2.85-2.79,4.28-6.74,4.28-11.84v-1.08
			h-15.94c-3.12,0-5.72,0.68-7.79,2.03s-3.11,3.44-3.11,6.26c0,2.82,1.07,5,3.2,6.53C278.55,251,281.26,251.76,284.56,251.76z"/>
		<path class="st1" d="M341.11,256.62c-4.26,0-8.06-0.92-11.39-2.75c-3.33-1.83-5.96-4.46-7.88-7.88
			c-1.92-3.42-2.88-7.44-2.88-12.07v-0.9c0-4.68,0.96-8.72,2.88-12.11c1.92-3.39,4.55-6,7.88-7.83c3.33-1.83,7.13-2.75,11.39-2.75
			c4.2,0,7.76,0.8,10.67,2.39c2.91,1.59,5.19,3.66,6.84,6.21c1.65,2.55,2.69,5.24,3.11,8.06l-5.31,1.08
			c-0.3-2.34-1.05-4.49-2.25-6.44c-1.2-1.95-2.88-3.51-5.04-4.68c-2.16-1.17-4.83-1.76-8.01-1.76c-3.18,0-6.03,0.74-8.55,2.21
			c-2.52,1.47-4.52,3.54-5.99,6.21c-1.47,2.67-2.21,5.84-2.21,9.5v0.72c0,3.66,0.73,6.83,2.21,9.5c1.47,2.67,3.47,4.74,5.99,6.21
			c2.52,1.47,5.37,2.21,8.55,2.21c4.8,0,8.46-1.25,10.99-3.74c2.52-2.49,4.08-5.54,4.68-9.14l5.31,1.08
			c-0.54,2.82-1.67,5.51-3.38,8.06c-1.71,2.55-4.02,4.62-6.93,6.21C348.87,255.83,345.32,256.62,341.11,256.62z"/>
		<path class="st1" d="M395.59,256.62c-4.5,0-8.42-0.95-11.75-2.84c-3.33-1.89-5.93-4.55-7.79-7.97c-1.86-3.42-2.79-7.35-2.79-11.8
			v-1.08c0-4.5,0.93-8.45,2.79-11.84c1.86-3.39,4.43-6.03,7.7-7.92c3.27-1.89,7.01-2.84,11.21-2.84c4.08,0,7.7,0.86,10.85,2.57
			s5.63,4.17,7.43,7.38c1.8,3.21,2.7,7.04,2.7,11.48v2.88h-37.28c0.18,5.46,1.85,9.68,5,12.65c3.15,2.97,7.13,4.46,11.93,4.46
			c4.08,0,7.25-0.93,9.5-2.79c2.25-1.86,3.98-4.14,5.18-6.84l4.86,2.16c-0.9,1.98-2.15,3.92-3.74,5.81
			c-1.59,1.89-3.65,3.45-6.17,4.68C402.71,256.01,399.49,256.62,395.59,256.62z M378.75,229.97h31.7
			c-0.24-4.74-1.77-8.39-4.59-10.94c-2.82-2.55-6.45-3.83-10.9-3.83c-4.38,0-8.01,1.28-10.9,3.83
			C381.19,221.58,379.41,225.23,378.75,229.97z"/>
		<path class="st1" d="M474.29,256.62c-4.8,0-9-0.98-12.61-2.93c-3.6-1.95-6.39-4.83-8.38-8.64c-1.98-3.81-2.97-8.51-2.97-14.09
			v-14.23c0-8.4,2.21-14.78,6.62-19.14c4.41-4.35,10.31-6.53,17.69-6.53c7.32,0,12.86,2.04,16.61,6.12
			c3.75,4.08,5.63,9.52,5.63,16.3v0.45h-5.76v-0.63c0-3.3-0.57-6.23-1.71-8.78c-1.14-2.55-2.93-4.56-5.36-6.03
			c-2.43-1.47-5.57-2.21-9.41-2.21c-5.82,0-10.37,1.77-13.64,5.31c-3.27,3.54-4.91,8.53-4.91,14.95v14.59
			c0,6.42,1.63,11.41,4.91,14.95c3.27,3.54,7.82,5.31,13.64,5.31c5.7,0,9.91-1.65,12.61-4.95c2.7-3.3,4.05-7.74,4.05-13.33v-1.8
			h-20.8v-5.04h26.38v29.09h-5.22v-7.11h-1.08c-0.72,1.44-1.74,2.81-3.06,4.1c-1.32,1.29-3.05,2.33-5.18,3.11
			C480.22,256.23,477.54,256.62,474.29,256.62z"/>
		<path class="st1" d="M511.84,255.36V211.6h5.22v5.49h1.08c0.84-1.98,2.08-3.42,3.74-4.32c1.65-0.9,3.95-1.35,6.89-1.35h5.13v5.04
			h-5.76c-3.3,0-5.94,0.93-7.92,2.79c-1.98,1.86-2.97,4.77-2.97,8.73v27.37H511.84z"/>
		<path class="st1" d="M563.44,256.62c-4.44,0-8.33-0.95-11.66-2.84c-3.33-1.89-5.91-4.53-7.74-7.92
			c-1.83-3.39-2.75-7.34-2.75-11.84v-1.08c0-4.5,0.92-8.45,2.75-11.84c1.83-3.39,4.41-6.03,7.74-7.92
			c3.33-1.89,7.22-2.84,11.66-2.84c4.44,0,8.33,0.95,11.66,2.84s5.91,4.53,7.74,7.92c1.83,3.39,2.75,7.34,2.75,11.84v1.08
			c0,4.5-0.92,8.45-2.75,11.84c-1.83,3.39-4.41,6.03-7.74,7.92C571.77,255.68,567.88,256.62,563.44,256.62z M563.44,251.76
			c5.16,0,9.24-1.63,12.25-4.91c3-3.27,4.5-7.61,4.5-13.01v-0.72c0-5.4-1.5-9.74-4.5-13.01c-3-3.27-7.08-4.91-12.25-4.91
			c-5.1,0-9.17,1.64-12.2,4.91c-3.03,3.27-4.55,7.61-4.55,13.01v0.72c0,5.4,1.52,9.74,4.55,13.01
			C554.27,250.13,558.34,251.76,563.44,251.76z"/>
		<path class="st1" d="M613.24,255.36c-2.34,0-4.1-0.6-5.27-1.8c-1.17-1.2-1.76-2.88-1.76-5.04v-32.06h-14.05v-4.86h14.05v-16.39
			h5.4v16.39h15.31v4.86h-15.31v31.34c0,1.8,0.9,2.7,2.7,2.7h10.27v4.86H613.24z"/>
		<path class="st1" d="M657.54,256.62c-4.5,0-8.42-0.95-11.75-2.84c-3.33-1.89-5.93-4.55-7.79-7.97c-1.86-3.42-2.79-7.35-2.79-11.8
			v-1.08c0-4.5,0.93-8.45,2.79-11.84c1.86-3.39,4.43-6.03,7.7-7.92c3.27-1.89,7.01-2.84,11.21-2.84c4.08,0,7.7,0.86,10.85,2.57
			s5.63,4.17,7.43,7.38c1.8,3.21,2.7,7.04,2.7,11.48v2.88h-37.28c0.18,5.46,1.85,9.68,5,12.65c3.15,2.97,7.13,4.46,11.93,4.46
			c4.08,0,7.25-0.93,9.5-2.79c2.25-1.86,3.98-4.14,5.18-6.84l4.86,2.16c-0.9,1.98-2.15,3.92-3.74,5.81
			c-1.59,1.89-3.65,3.45-6.17,4.68C664.66,256.01,661.44,256.62,657.54,256.62z M640.7,229.97h31.7c-0.24-4.74-1.77-8.39-4.59-10.94
			c-2.82-2.55-6.45-3.83-10.9-3.83c-4.38,0-8.01,1.28-10.9,3.83C643.13,221.58,641.36,225.23,640.7,229.97z"/>
		<path class="st1" d="M708.6,256.62c-5.28,0-9.8-1.26-13.55-3.78c-3.75-2.52-6.05-6.69-6.89-12.52l5.31-0.99
			c0.48,3.18,1.45,5.69,2.93,7.52c1.47,1.83,3.27,3.14,5.4,3.92c2.13,0.78,4.4,1.17,6.8,1.17c3.6,0,6.5-0.73,8.69-2.21
			c2.19-1.47,3.29-3.5,3.29-6.08c0-2.64-1.04-4.47-3.11-5.49c-2.07-1.02-4.82-1.83-8.24-2.43l-4.14-0.72
			c-2.76-0.48-5.25-1.22-7.47-2.21c-2.22-0.99-3.98-2.33-5.27-4.01c-1.29-1.68-1.94-3.78-1.94-6.3c0-3.78,1.49-6.75,4.46-8.91
			s6.92-3.24,11.84-3.24c4.98,0,8.99,1.13,12.02,3.38c3.03,2.25,4.94,5.51,5.72,9.77l-5.04,1.08c-0.6-3.48-2.03-5.94-4.28-7.38
			c-2.25-1.44-5.06-2.16-8.42-2.16c-3.3,0-5.94,0.63-7.92,1.89c-1.98,1.26-2.97,3.12-2.97,5.58c0,2.4,0.9,4.16,2.7,5.27
			c1.8,1.11,4.26,1.94,7.38,2.48l4.14,0.72c3,0.48,5.7,1.19,8.1,2.12c2.4,0.93,4.31,2.24,5.72,3.92c1.41,1.68,2.12,3.9,2.12,6.66
			c0,4.14-1.56,7.34-4.68,9.59C718.17,255.5,713.94,256.62,708.6,256.62z"/>
		<path class="st1" d="M738.76,255.36v-63.03h5.4v38h1.08l22.42-18.73h7.92l-25.93,21.34l26.65,22.42h-7.83l-23.23-19.72h-1.08
			v19.72H738.76z"/>
	</g>
	<g>
		<path class="st1" d="M1009.57,44.06V18.14h2.22v25.93H1009.57z"/>
		<path class="st1" d="M1019.42,22.95c-0.54,0-1-0.19-1.37-0.56c-0.37-0.37-0.56-0.83-0.56-1.37c0-0.57,0.19-1.03,0.56-1.39
			s0.83-0.54,1.37-0.54c0.57,0,1.03,0.18,1.39,0.54c0.36,0.36,0.54,0.82,0.54,1.39c0,0.54-0.18,1-0.54,1.37
			C1020.46,22.77,1019.99,22.95,1019.42,22.95z M1018.31,44.06v-18h2.22v18H1018.31z"/>
		<path class="st1" d="M1026.16,35.14v-0.44c0-1.9,0.39-3.53,1.17-4.89c0.78-1.36,1.82-2.41,3.13-3.15
			c1.31-0.74,2.76-1.11,4.37-1.11c1.98,0,3.51,0.39,4.61,1.17s1.91,1.66,2.43,2.65h0.44v-3.3h2.07v22.59c0,0.89-0.24,1.58-0.7,2.07
			c-0.47,0.49-1.19,0.74-2.15,0.74h-12.3v-2h11.85c0.77,0,1.15-0.37,1.15-1.11v-7.74h-0.44c-0.32,0.59-0.77,1.17-1.35,1.74
			c-0.58,0.57-1.33,1.03-2.24,1.39c-0.91,0.36-2.04,0.54-3.37,0.54c-1.61,0-3.07-0.37-4.39-1.11c-1.32-0.74-2.36-1.8-3.13-3.17
			S1026.16,37.01,1026.16,35.14z M1035.35,42.29c2.05,0,3.71-0.64,4.98-1.93c1.27-1.28,1.91-3.05,1.91-5.3v-0.3
			c0-2.27-0.64-4.04-1.91-5.31c-1.27-1.27-2.93-1.91-4.98-1.91c-2.02,0-3.68,0.64-4.96,1.91c-1.28,1.27-1.93,3.04-1.93,5.31v0.3
			c0,2.25,0.64,4.01,1.93,5.3C1031.67,41.64,1033.33,42.29,1035.35,42.29z"/>
		<path class="st1" d="M1050.91,44.06V18.14h2.22v11.07h0.44c0.3-0.59,0.71-1.15,1.24-1.69c0.53-0.53,1.22-0.96,2.07-1.3
			c0.85-0.33,1.92-0.5,3.2-0.5c1.31,0,2.51,0.27,3.59,0.81c1.09,0.54,1.96,1.36,2.61,2.44c0.65,1.09,0.98,2.46,0.98,4.11v10.96
			h-2.22V33.25c0-1.98-0.49-3.39-1.48-4.24c-0.99-0.85-2.31-1.28-3.96-1.28c-1.85,0-3.4,0.61-4.63,1.81
			c-1.24,1.21-1.85,3.05-1.85,5.52v9H1050.91z"/>
		<path class="st1" d="M1079.57,44.06c-0.96,0-1.69-0.25-2.17-0.74c-0.48-0.49-0.72-1.19-0.72-2.07V28.06h-5.78v-2h5.78v-6.74h2.22
			v6.74h6.3v2h-6.3v12.89c0,0.74,0.37,1.11,1.11,1.11h4.22v2H1079.57z"/>
	</g>
	<g>
		<path class="st1" d="M1131.08,44.06V18.14h10.48c1.6,0,3.02,0.28,4.24,0.83c1.22,0.56,2.18,1.35,2.87,2.37
			c0.69,1.02,1.04,2.25,1.04,3.69v0.41c0,1.7-0.41,3.05-1.22,4.04c-0.81,0.99-1.78,1.65-2.89,2v0.52c0.89,0.02,1.62,0.31,2.2,0.87
			s0.87,1.39,0.87,2.5v8.7h-3.07v-8.33c0-0.74-0.2-1.31-0.61-1.7c-0.41-0.39-1.02-0.59-1.83-0.59h-8.96v10.63H1131.08z
			 M1134.19,30.62h7.07c1.7,0,3.02-0.41,3.95-1.24c0.93-0.83,1.39-1.98,1.39-3.46v-0.26c0-1.48-0.46-2.64-1.37-3.46
			c-0.91-0.83-2.24-1.24-3.96-1.24h-7.07V30.62z"/>
		<path class="st1" d="M1162.86,44.58c-1.83,0-3.43-0.39-4.82-1.17c-1.38-0.78-2.46-1.87-3.22-3.28c-0.77-1.41-1.15-3.04-1.15-4.89
			V34.8c0-1.88,0.38-3.52,1.15-4.93c0.77-1.41,1.83-2.5,3.19-3.28s2.91-1.17,4.67-1.17c1.7,0,3.21,0.36,4.52,1.09
			c1.31,0.73,2.33,1.77,3.07,3.13c0.74,1.36,1.11,2.95,1.11,4.78v1.33h-14.78c0.07,1.95,0.7,3.48,1.89,4.57
			c1.19,1.1,2.67,1.65,4.45,1.65c1.56,0,2.75-0.36,3.59-1.07c0.84-0.72,1.48-1.57,1.93-2.56l2.52,1.22
			c-0.37,0.77-0.88,1.53-1.54,2.3c-0.65,0.77-1.51,1.41-2.56,1.93C1165.83,44.32,1164.49,44.58,1162.86,44.58z M1156.64,33.36h11.78
			c-0.1-1.68-0.67-2.99-1.72-3.93c-1.05-0.94-2.39-1.41-4.02-1.41c-1.65,0-3.01,0.47-4.07,1.41
			C1157.54,30.37,1156.88,31.68,1156.64,33.36z"/>
		<path class="st1" d="M1175.6,35.1v-0.52c0-1.9,0.38-3.53,1.15-4.89c0.77-1.36,1.8-2.41,3.11-3.15c1.31-0.74,2.74-1.11,4.3-1.11
			c1.9,0,3.36,0.36,4.39,1.09c1.02,0.73,1.78,1.54,2.28,2.43h0.52v-3h2.78v22.33c0,0.99-0.27,1.77-0.81,2.33
			c-0.54,0.57-1.33,0.85-2.37,0.85h-12.3v-2.59h11.52c0.74,0,1.11-0.37,1.11-1.11v-6.89h-0.52c-0.3,0.54-0.72,1.07-1.26,1.59
			c-0.54,0.52-1.25,0.94-2.11,1.28c-0.87,0.33-1.94,0.5-3.22,0.5c-1.56,0-2.99-0.37-4.3-1.11s-2.35-1.8-3.11-3.17
			S1175.6,36.98,1175.6,35.1z M1184.93,41.66c1.88,0,3.4-0.59,4.58-1.78c1.17-1.19,1.76-2.81,1.76-4.89v-0.3
			c0-2.1-0.59-3.73-1.76-4.91c-1.17-1.17-2.7-1.76-4.58-1.76c-1.85,0-3.38,0.59-4.57,1.76c-1.2,1.17-1.8,2.81-1.8,4.91v0.3
			c0,2.07,0.6,3.7,1.8,4.89C1181.56,41.06,1183.08,41.66,1184.93,41.66z"/>
		<path class="st1" d="M1207.19,44.4c-1.31,0-2.51-0.28-3.61-0.85s-1.96-1.41-2.59-2.54c-0.63-1.12-0.95-2.49-0.95-4.09V25.95h2.93
			v10.74c0,1.8,0.45,3.11,1.35,3.93c0.9,0.81,2.12,1.22,3.65,1.22c1.73,0,3.15-0.57,4.26-1.7c1.11-1.14,1.67-2.83,1.67-5.07v-9.11
			h2.93v18.11h-2.85v-3.07h-0.52c-0.4,0.86-1.07,1.65-2.04,2.35S1209.05,44.4,1207.19,44.4z"/>
		<path class="st1" d="M1222.94,44.06V18.14h2.93v25.93H1222.94z"/>
		<path class="st1" d="M1237.57,44.58c-1.26,0-2.41-0.22-3.44-0.67c-1.04-0.44-1.85-1.09-2.44-1.93c-0.59-0.84-0.89-1.86-0.89-3.07
			c0-1.23,0.3-2.25,0.89-3.06c0.59-0.8,1.41-1.41,2.44-1.81c1.04-0.41,2.2-0.61,3.48-0.61h6.11V32.1c0-1.28-0.38-2.3-1.13-3.04
			s-1.87-1.11-3.35-1.11c-1.46,0-2.59,0.35-3.41,1.06c-0.82,0.7-1.37,1.65-1.67,2.83l-2.74-0.89c0.3-1.01,0.77-1.93,1.41-2.76
			c0.64-0.83,1.5-1.49,2.57-2c1.07-0.51,2.36-0.76,3.87-0.76c2.32,0,4.12,0.6,5.41,1.8c1.28,1.2,1.93,2.88,1.93,5.06v8.19
			c0,0.74,0.35,1.11,1.04,1.11h1.67v2.48h-2.56c-0.81,0-1.47-0.23-1.96-0.69c-0.49-0.46-0.74-1.07-0.74-1.83v-0.19h-0.44
			c-0.27,0.47-0.64,0.96-1.09,1.46c-0.46,0.51-1.08,0.93-1.87,1.26S1238.83,44.58,1237.57,44.58z M1237.9,42.06
			c1.73,0,3.13-0.51,4.2-1.54c1.07-1.02,1.61-2.46,1.61-4.31V35.8h-6c-1.16,0-2.12,0.25-2.87,0.76c-0.75,0.51-1.13,1.27-1.13,2.28
			c0,1.01,0.39,1.8,1.17,2.37C1235.66,41.78,1236.67,42.06,1237.9,42.06z"/>
		<path class="st1" d="M1253.31,44.06V25.95h2.85v2.22h0.52c0.32-0.79,0.82-1.37,1.48-1.74c0.67-0.37,1.54-0.56,2.63-0.56h2.15v2.67
			h-2.33c-1.31,0-2.37,0.36-3.17,1.09c-0.8,0.73-1.2,1.86-1.2,3.39v11.04H1253.31z"/>
	</g>
	<g>
		<path class="st1" d="M1328.02,44.58c-1.98,0-3.72-0.35-5.24-1.06s-2.71-1.72-3.57-3.06c-0.87-1.33-1.3-2.96-1.3-4.89v-0.96h4.41
			v0.96c0,1.7,0.52,2.98,1.56,3.81c1.04,0.84,2.42,1.26,4.15,1.26c1.75,0,3.07-0.36,3.96-1.07s1.33-1.64,1.33-2.78
			c0-0.76-0.21-1.39-0.63-1.87s-1.03-0.87-1.83-1.17c-0.8-0.3-1.77-0.58-2.91-0.85l-1.11-0.22c-1.7-0.39-3.18-0.89-4.43-1.5
			c-1.25-0.6-2.2-1.39-2.87-2.35c-0.67-0.96-1-2.22-1-3.78s0.37-2.89,1.11-4c0.74-1.11,1.79-1.96,3.15-2.56
			c1.36-0.59,2.95-0.89,4.78-0.89s3.46,0.31,4.89,0.93c1.43,0.62,2.56,1.54,3.39,2.78c0.83,1.23,1.24,2.78,1.24,4.63v1.22h-4.41
			v-1.22c0-1.06-0.21-1.91-0.63-2.56c-0.42-0.64-1.01-1.11-1.78-1.41c-0.77-0.3-1.67-0.44-2.7-0.44c-1.53,0-2.69,0.3-3.48,0.89
			c-0.79,0.59-1.18,1.43-1.18,2.52c0,0.69,0.18,1.28,0.54,1.76c0.36,0.48,0.89,0.88,1.59,1.19c0.7,0.31,1.59,0.57,2.65,0.8
			l1.11,0.26c1.78,0.4,3.33,0.9,4.67,1.5c1.33,0.61,2.38,1.4,3.13,2.39c0.75,0.99,1.13,2.27,1.13,3.85c0,1.56-0.4,2.93-1.2,4.11
			c-0.8,1.19-1.93,2.11-3.37,2.78C1331.71,44.25,1330,44.58,1328.02,44.58z"/>
		<path class="st1" d="M1350.13,44.58c-1.83,0-3.44-0.39-4.83-1.17c-1.4-0.78-2.48-1.88-3.26-3.3c-0.78-1.42-1.17-3.08-1.17-4.98
			v-0.44c0-1.93,0.38-3.59,1.15-5c0.77-1.41,1.84-2.5,3.22-3.28s2.98-1.17,4.78-1.17c1.78,0,3.33,0.39,4.67,1.17
			c1.33,0.78,2.37,1.87,3.11,3.28c0.74,1.41,1.11,3.05,1.11,4.93v1.52h-13.74c0.05,1.43,0.56,2.58,1.52,3.44s2.15,1.3,3.56,1.3
			c1.38,0,2.41-0.3,3.07-0.91c0.67-0.6,1.17-1.29,1.52-2.06l3.52,1.81c-0.35,0.67-0.85,1.38-1.5,2.13c-0.65,0.75-1.52,1.4-2.61,1.93
			S1351.79,44.58,1350.13,44.58z M1345.21,32.91h9.37c-0.1-1.21-0.56-2.17-1.39-2.89c-0.83-0.72-1.89-1.07-3.2-1.07
			c-1.36,0-2.45,0.36-3.26,1.07C1345.91,30.74,1345.4,31.7,1345.21,32.91z"/>
		<path class="st1" d="M1363.28,44.06v-18.3h4.19v2.04h0.63c0.32-0.62,0.86-1.17,1.61-1.65s1.76-0.72,3.02-0.72
			c1.33,0,2.41,0.27,3.22,0.81c0.81,0.54,1.43,1.23,1.85,2.07h0.59c0.42-0.84,1.02-1.53,1.82-2.07c0.79-0.54,1.91-0.81,3.37-0.81
			c1.14,0,2.17,0.25,3.09,0.74c0.93,0.49,1.67,1.22,2.22,2.19c0.56,0.96,0.83,2.16,0.83,3.59v12.11h-4.26V32.25
			c0-1.06-0.28-1.87-0.85-2.43c-0.57-0.56-1.36-0.83-2.37-0.83c-1.11,0-2,0.36-2.65,1.09c-0.65,0.73-0.98,1.77-0.98,3.13v10.85
			h-4.22V32.25c0-1.06-0.28-1.87-0.85-2.43c-0.57-0.56-1.36-0.83-2.37-0.83c-1.14,0-2.02,0.36-2.67,1.09
			c-0.64,0.73-0.96,1.77-0.96,3.13v10.85H1363.28z"/>
		<path class="st1" d="M1397.06,23.43c-0.77,0-1.43-0.25-1.98-0.76c-0.55-0.51-0.83-1.18-0.83-2.02s0.28-1.51,0.83-2.02
			c0.56-0.51,1.22-0.76,1.98-0.76c0.81,0,1.49,0.25,2.02,0.76c0.53,0.51,0.8,1.18,0.8,2.02s-0.27,1.51-0.8,2.02
			C1398.55,23.18,1397.87,23.43,1397.06,23.43z M1394.95,44.06v-18.3h4.26v18.3H1394.95z"/>
		<path class="st1" d="M1413.06,44.06v-3.93h3.48V22.06h-3.48v-3.93h13.26c1.56,0,2.92,0.27,4.09,0.8c1.17,0.53,2.09,1.28,2.74,2.26
			s0.98,2.14,0.98,3.5v0.33c0,1.19-0.22,2.16-0.67,2.93c-0.44,0.77-0.98,1.36-1.59,1.78c-0.62,0.42-1.21,0.72-1.78,0.89v0.63
			c0.57,0.15,1.18,0.43,1.83,0.83c0.65,0.41,1.21,1,1.67,1.78s0.69,1.78,0.69,3.02v0.37c0,1.41-0.34,2.62-1.02,3.65
			c-0.68,1.02-1.61,1.81-2.78,2.35c-1.17,0.54-2.53,0.81-4.06,0.81H1413.06z M1420.99,28.99h4.89c1.13,0,2.06-0.28,2.76-0.85
			c0.7-0.57,1.06-1.36,1.06-2.37V25.4c0-1.01-0.35-1.8-1.06-2.37c-0.7-0.57-1.62-0.85-2.76-0.85h-4.89V28.99z M1420.99,40.03h4.93
			c1.18,0,2.13-0.29,2.83-0.87c0.7-0.58,1.06-1.4,1.06-2.46v-0.33c0-1.06-0.35-1.88-1.04-2.46c-0.69-0.58-1.64-0.87-2.85-0.87h-4.93
			V40.03z"/>
	</g>
	<g>
		<path class="st1" d="M1521.9,44.06v-4.3h3.41V22.43h-3.41v-4.3h13.33c1.58,0,2.96,0.27,4.13,0.8c1.17,0.53,2.09,1.28,2.74,2.26
			s0.98,2.14,0.98,3.5v0.37c0,1.19-0.22,2.15-0.67,2.91c-0.45,0.75-0.97,1.33-1.57,1.74c-0.61,0.41-1.18,0.7-1.72,0.87v0.67
			c0.54,0.15,1.14,0.43,1.78,0.83c0.64,0.41,1.19,0.99,1.65,1.76c0.46,0.77,0.69,1.77,0.69,3v0.37c0,1.43-0.33,2.66-1,3.69
			c-0.67,1.02-1.59,1.81-2.76,2.35c-1.17,0.54-2.54,0.81-4.09,0.81H1521.9z M1530.19,28.8h4.52c1.01,0,1.84-0.26,2.5-0.78
			c0.65-0.52,0.98-1.23,0.98-2.15v-0.37c0-0.94-0.32-1.66-0.96-2.17c-0.64-0.51-1.48-0.76-2.52-0.76h-4.52V28.8z M1530.19,39.62
			h4.59c1.06,0,1.92-0.26,2.57-0.78s0.98-1.26,0.98-2.22v-0.37c0-0.96-0.32-1.7-0.96-2.22c-0.64-0.52-1.51-0.78-2.59-0.78h-4.59
			V39.62z"/>
		<path class="st1" d="M1556.12,44.58c-1.83,0-3.47-0.37-4.93-1.11s-2.61-1.81-3.44-3.22c-0.84-1.41-1.26-3.1-1.26-5.07v-0.59
			c0-1.98,0.42-3.67,1.26-5.07c0.84-1.41,1.99-2.48,3.44-3.22c1.46-0.74,3.1-1.11,4.93-1.11c1.83,0,3.47,0.37,4.93,1.11
			c1.46,0.74,2.61,1.81,3.44,3.22c0.84,1.41,1.26,3.1,1.26,5.07v0.59c0,1.98-0.42,3.67-1.26,5.07c-0.84,1.41-1.99,2.48-3.44,3.22
			S1557.95,44.58,1556.12,44.58z M1556.12,40.43c1.43,0,2.62-0.46,3.56-1.39c0.94-0.93,1.41-2.25,1.41-3.98v-0.37
			c0-1.73-0.46-3.06-1.39-3.98c-0.93-0.93-2.12-1.39-3.57-1.39c-1.43,0-2.62,0.46-3.56,1.39c-0.94,0.93-1.41,2.25-1.41,3.98v0.37
			c0,1.73,0.47,3.06,1.41,3.98C1553.5,39.97,1554.69,40.43,1556.12,40.43z"/>
		<path class="st1" d="M1570.05,44.06V18.14h4.67v25.93H1570.05z"/>
		<path class="st1" d="M1587.3,44.58c-1.46,0-2.82-0.36-4.09-1.09s-2.29-1.8-3.06-3.2c-0.77-1.41-1.15-3.11-1.15-5.11v-0.59
			c0-2,0.38-3.7,1.15-5.11c0.77-1.41,1.78-2.48,3.04-3.2c1.26-0.73,2.63-1.09,4.11-1.09c1.11,0,2.04,0.13,2.8,0.39
			c0.75,0.26,1.36,0.59,1.83,0.98s0.83,0.81,1.07,1.26h0.67v-9.67h4.67v25.93h-4.59v-2.22h-0.67c-0.42,0.69-1.07,1.32-1.94,1.89
			C1590.26,44.3,1588.98,44.58,1587.3,44.58z M1588.71,40.51c1.43,0,2.63-0.46,3.59-1.39c0.96-0.93,1.44-2.28,1.44-4.06v-0.37
			c0-1.78-0.48-3.13-1.43-4.06c-0.95-0.93-2.16-1.39-3.61-1.39c-1.43,0-2.63,0.46-3.59,1.39c-0.96,0.93-1.44,2.28-1.44,4.06v0.37
			c0,1.78,0.48,3.13,1.44,4.06C1586.08,40.04,1587.28,40.51,1588.71,40.51z"/>
	</g>
	<g>
		<path class="st1" d="M177.41,380.7c-4.56,0-8.64-0.81-12.25-2.43c-3.6-1.62-6.44-4.07-8.51-7.34c-2.07-3.27-3.11-7.37-3.11-12.29
			v-1.89h7.47v1.89c0,5.22,1.53,9.11,4.59,11.66c3.06,2.55,6.99,3.83,11.8,3.83c4.92,0,8.67-1.11,11.26-3.33
			c2.58-2.22,3.87-5.01,3.87-8.37c0-2.34-0.59-4.2-1.76-5.58c-1.17-1.38-2.81-2.51-4.91-3.38c-2.1-0.87-4.56-1.63-7.38-2.3
			l-4.68-1.17c-3.66-0.96-6.9-2.13-9.72-3.51c-2.82-1.38-5.03-3.2-6.62-5.45c-1.59-2.25-2.39-5.15-2.39-8.69
			c0-3.54,0.88-6.6,2.66-9.18c1.77-2.58,4.26-4.56,7.47-5.94c3.21-1.38,6.92-2.07,11.12-2.07c4.26,0,8.09,0.74,11.48,2.21
			c3.39,1.47,6.06,3.63,8.01,6.48c1.95,2.85,2.93,6.44,2.93,10.76v3.78h-7.47v-3.78c0-3.06-0.65-5.52-1.94-7.38
			c-1.29-1.86-3.06-3.24-5.31-4.14s-4.82-1.35-7.7-1.35c-4.14,0-7.47,0.92-10,2.75c-2.52,1.83-3.78,4.43-3.78,7.79
			c0,2.22,0.54,4.02,1.62,5.4c1.08,1.38,2.61,2.51,4.59,3.38c1.98,0.87,4.35,1.64,7.11,2.3l4.68,1.17c3.66,0.78,6.95,1.85,9.86,3.2
			c2.91,1.35,5.24,3.18,6.98,5.49c1.74,2.31,2.61,5.33,2.61,9.05c0,3.72-0.93,6.96-2.79,9.73c-1.86,2.76-4.49,4.91-7.88,6.44
			C185.95,379.94,181.97,380.7,177.41,380.7z"/>
		<path class="st1" d="M211.9,397.45v-62.04h6.93v7.29h1.26c1.14-2.22,2.99-4.2,5.54-5.94c2.55-1.74,6.11-2.61,10.67-2.61
			c3.78,0,7.25,0.92,10.4,2.75c3.15,1.83,5.67,4.43,7.56,7.79c1.89,3.36,2.84,7.41,2.84,12.16v1.17c0,4.68-0.93,8.73-2.79,12.16
			c-1.86,3.42-4.37,6.03-7.52,7.83c-3.15,1.8-6.65,2.7-10.49,2.7c-3.06,0-5.66-0.41-7.79-1.22c-2.13-0.81-3.86-1.85-5.18-3.11
			c-1.32-1.26-2.34-2.55-3.06-3.87h-1.26v24.94H211.9z M234.41,374.4c4.56,0,8.27-1.46,11.12-4.37c2.85-2.91,4.28-6.98,4.28-12.2
			v-0.81c0-5.22-1.43-9.29-4.28-12.2c-2.85-2.91-6.56-4.37-11.12-4.37c-4.5,0-8.21,1.46-11.12,4.37c-2.91,2.91-4.37,6.98-4.37,12.2
			v0.81c0,5.22,1.45,9.29,4.37,12.2C226.2,372.94,229.91,374.4,234.41,374.4z"/>
		<path class="st1" d="M283.39,380.7c-3.06,0-5.85-0.54-8.38-1.62s-4.5-2.64-5.94-4.68c-1.44-2.04-2.16-4.53-2.16-7.47
			c0-3,0.72-5.48,2.16-7.43c1.44-1.95,3.42-3.42,5.94-4.41c2.52-0.99,5.34-1.49,8.46-1.49h14.86v-3.24c0-3.12-0.92-5.58-2.75-7.38
			c-1.83-1.8-4.55-2.7-8.15-2.7c-3.54,0-6.3,0.86-8.28,2.57c-1.98,1.71-3.33,4.01-4.05,6.89l-6.66-2.16
			c0.72-2.46,1.86-4.7,3.42-6.71c1.56-2.01,3.65-3.63,6.26-4.86c2.61-1.23,5.75-1.85,9.41-1.85c5.64,0,10.03,1.46,13.15,4.37
			c3.12,2.91,4.68,7.01,4.68,12.29v19.9c0,1.8,0.84,2.7,2.52,2.7h4.05v6.03h-6.21c-1.98,0-3.57-0.55-4.77-1.67
			c-1.2-1.11-1.8-2.6-1.8-4.46v-0.45h-1.08c-0.66,1.14-1.55,2.33-2.66,3.56c-1.11,1.23-2.63,2.25-4.55,3.06
			C288.95,380.3,286.46,380.7,283.39,380.7z M284.21,374.58c4.2,0,7.61-1.25,10.22-3.74c2.61-2.49,3.92-5.99,3.92-10.49v-0.99
			h-14.59c-2.82,0-5.15,0.62-6.98,1.85c-1.83,1.23-2.75,3.08-2.75,5.54c0,2.46,0.95,4.38,2.84,5.76
			C278.76,373.89,281.2,374.58,284.21,374.58z"/>
		<path class="st1" d="M340.67,380.7c-4.26,0-8.09-0.92-11.48-2.75c-3.39-1.83-6.06-4.46-8.01-7.88c-1.95-3.42-2.93-7.47-2.93-12.16
			v-0.99c0-4.74,0.98-8.81,2.93-12.2c1.95-3.39,4.62-6,8.01-7.83c3.39-1.83,7.22-2.75,11.48-2.75c4.2,0,7.79,0.78,10.76,2.34
			c2.97,1.56,5.31,3.63,7.02,6.21c1.71,2.58,2.81,5.34,3.29,8.28l-6.93,1.44c-0.3-2.16-1.01-4.14-2.12-5.94
			c-1.11-1.8-2.66-3.24-4.64-4.32c-1.98-1.08-4.41-1.62-7.29-1.62c-2.94,0-5.57,0.66-7.88,1.98c-2.31,1.32-4.14,3.21-5.49,5.67
			c-1.35,2.46-2.03,5.4-2.03,8.82v0.81c0,3.42,0.67,6.36,2.03,8.82c1.35,2.46,3.18,4.35,5.49,5.67c2.31,1.32,4.94,1.98,7.88,1.98
			c4.38,0,7.73-1.14,10.04-3.42c2.31-2.28,3.74-5.1,4.28-8.46l7.02,1.53c-0.66,2.88-1.86,5.61-3.6,8.19
			c-1.74,2.58-4.1,4.65-7.07,6.21S344.87,380.7,340.67,380.7z"/>
		<path class="st1" d="M394.42,380.7c-4.44,0-8.34-0.95-11.71-2.84c-3.36-1.89-5.97-4.55-7.83-7.97c-1.86-3.42-2.79-7.38-2.79-11.89
			v-1.08c0-4.56,0.93-8.55,2.79-11.98c1.86-3.42,4.44-6.08,7.74-7.97c3.3-1.89,7.08-2.84,11.35-2.84c4.14,0,7.8,0.89,10.99,2.66
			c3.18,1.77,5.67,4.31,7.47,7.61c1.8,3.3,2.7,7.17,2.7,11.62v3.24h-35.93c0.18,4.74,1.71,8.45,4.59,11.12
			c2.88,2.67,6.48,4.01,10.81,4.01c3.78,0,6.69-0.87,8.73-2.61c2.04-1.74,3.6-3.81,4.68-6.21l6.12,2.97
			c-0.9,1.86-2.15,3.72-3.74,5.58c-1.59,1.86-3.66,3.42-6.21,4.68C401.64,380.07,398.38,380.7,394.42,380.7z M379.29,353.42h28.64
			c-0.24-4.08-1.64-7.26-4.19-9.54c-2.55-2.28-5.81-3.42-9.77-3.42c-4.02,0-7.32,1.14-9.91,3.42
			C381.49,346.15,379.89,349.34,379.29,353.42z"/>
		<path class="st1" d="M472.4,380.7c-4.68,0-8.81-0.98-12.38-2.93c-3.57-1.95-6.36-4.82-8.37-8.6c-2.01-3.78-3.02-8.46-3.02-14.05
			v-14.41c0-8.34,2.22-14.69,6.66-19.04c4.44-4.35,10.42-6.53,17.92-6.53c7.44,0,13.12,2.04,17.02,6.12
			c3.9,4.08,5.85,9.54,5.85,16.39v0.45h-7.47v-0.63c0-3-0.54-5.67-1.62-8.01c-1.08-2.34-2.76-4.19-5.04-5.54
			c-2.28-1.35-5.19-2.03-8.73-2.03c-5.34,0-9.52,1.64-12.52,4.91c-3,3.27-4.5,7.85-4.5,13.73v14.77c0,5.88,1.5,10.46,4.5,13.73
			c3,3.27,7.2,4.91,12.61,4.91c5.28,0,9.17-1.5,11.66-4.5c2.49-3,3.74-6.99,3.74-11.98v-1.53h-19.09v-6.48h26.47v29.99h-6.84v-6.84
			h-1.26c-0.66,1.32-1.59,2.61-2.79,3.87c-1.2,1.26-2.82,2.28-4.86,3.06C478.29,380.31,475.64,380.7,472.4,380.7z"/>
		<path class="st1" d="M510.13,379.44v-44.03h6.93v5.4h1.26c0.78-1.92,1.98-3.33,3.6-4.23s3.75-1.35,6.39-1.35h5.22v6.48h-5.67
			c-3.18,0-5.75,0.89-7.7,2.66c-1.95,1.77-2.93,4.52-2.93,8.24v26.83H510.13z"/>
		<path class="st1" d="M562.81,380.7c-4.44,0-8.36-0.93-11.75-2.79s-6.03-4.49-7.92-7.88c-1.89-3.39-2.84-7.4-2.84-12.02v-1.17
			c0-4.56,0.95-8.55,2.84-11.98c1.89-3.42,4.53-6.06,7.92-7.92c3.39-1.86,7.31-2.79,11.75-2.79c4.44,0,8.36,0.93,11.75,2.79
			c3.39,1.86,6.03,4.5,7.92,7.92c1.89,3.42,2.84,7.42,2.84,11.98v1.17c0,4.62-0.95,8.63-2.84,12.02c-1.89,3.39-4.53,6.02-7.92,7.88
			C571.17,379.77,567.25,380.7,562.81,380.7z M562.81,374.31c4.68,0,8.42-1.49,11.21-4.46c2.79-2.97,4.19-6.98,4.19-12.02v-0.81
			c0-5.04-1.4-9.05-4.19-12.02c-2.79-2.97-6.53-4.46-11.21-4.46c-4.62,0-8.35,1.49-11.17,4.46c-2.82,2.97-4.23,6.98-4.23,12.02v0.81
			c0,5.04,1.41,9.05,4.23,12.02C554.47,372.82,558.19,374.31,562.81,374.31z"/>
		<path class="st1" d="M612.52,379.44c-2.52,0-4.46-0.69-5.81-2.07c-1.35-1.38-2.03-3.27-2.03-5.67v-30.08h-13.24v-6.21h13.24
			v-15.67h7.11v15.67h14.41v6.21H611.8v29c0,1.8,0.87,2.7,2.61,2.7h9.82v6.12H612.52z"/>
		<path class="st1" d="M656.28,380.7c-4.44,0-8.34-0.95-11.71-2.84c-3.36-1.89-5.97-4.55-7.83-7.97c-1.86-3.42-2.79-7.38-2.79-11.89
			v-1.08c0-4.56,0.93-8.55,2.79-11.98c1.86-3.42,4.44-6.08,7.74-7.97c3.3-1.89,7.08-2.84,11.35-2.84c4.14,0,7.8,0.89,10.99,2.66
			c3.18,1.77,5.67,4.31,7.47,7.61c1.8,3.3,2.7,7.17,2.7,11.62v3.24h-35.93c0.18,4.74,1.71,8.45,4.59,11.12
			c2.88,2.67,6.48,4.01,10.81,4.01c3.78,0,6.69-0.87,8.73-2.61c2.04-1.74,3.6-3.81,4.68-6.21l6.12,2.97
			c-0.9,1.86-2.15,3.72-3.74,5.58c-1.59,1.86-3.66,3.42-6.21,4.68C663.5,380.07,660.24,380.7,656.28,380.7z M641.15,353.42h28.64
			c-0.24-4.08-1.64-7.26-4.19-9.54c-2.55-2.28-5.81-3.42-9.77-3.42c-4.02,0-7.32,1.14-9.91,3.42
			C643.34,346.15,641.75,349.34,641.15,353.42z"/>
		<path class="st1" d="M707.16,380.7c-5.46,0-10.07-1.26-13.82-3.78c-3.75-2.52-6.02-6.51-6.8-11.98l6.75-1.53
			c0.48,2.88,1.38,5.15,2.7,6.8c1.32,1.65,2.96,2.82,4.91,3.51c1.95,0.69,4.04,1.04,6.26,1.04c3.3,0,5.91-0.66,7.83-1.98
			c1.92-1.32,2.88-3.09,2.88-5.31c0-2.28-0.92-3.89-2.75-4.82c-1.83-0.93-4.34-1.7-7.52-2.3l-3.69-0.63
			c-2.82-0.48-5.4-1.23-7.74-2.25c-2.34-1.02-4.2-2.4-5.58-4.14c-1.38-1.74-2.07-3.93-2.07-6.57c0-3.96,1.53-7.05,4.59-9.27
			c3.06-2.22,7.11-3.33,12.16-3.33c4.98,0,9.02,1.13,12.11,3.38c3.09,2.25,5.09,5.42,5.99,9.5l-6.66,1.71
			c-0.54-3.18-1.83-5.42-3.87-6.71c-2.04-1.29-4.56-1.94-7.56-1.94c-3,0-5.37,0.56-7.11,1.67c-1.74,1.11-2.61,2.75-2.61,4.91
			c0,2.1,0.82,3.65,2.48,4.64c1.65,0.99,3.86,1.73,6.62,2.21l3.69,0.63c3.12,0.54,5.93,1.28,8.42,2.21
			c2.49,0.93,4.47,2.27,5.94,4.01c1.47,1.74,2.21,4.02,2.21,6.84c0,4.32-1.61,7.65-4.82,10C716.87,379.53,712.56,380.7,707.16,380.7
			z"/>
		<path class="st1" d="M736.87,379.44v-63.03h7.11v37.1h1.26l20.17-18.1h9.91l-24.4,21.43l25.12,22.6h-9.81l-20.98-19.18h-1.26
			v19.18H736.87z"/>
	</g>
	<g>
		<path class="st1" d="M177.14,504.78c-4.8,0-9.05-0.86-12.74-2.57c-3.69-1.71-6.59-4.19-8.69-7.43c-2.1-3.24-3.15-7.2-3.15-11.89
			v-2.34h10.72v2.34c0,4.14,1.26,7.23,3.78,9.27c2.52,2.04,5.88,3.06,10.09,3.06c4.26,0,7.47-0.87,9.63-2.61
			c2.16-1.74,3.24-3.99,3.24-6.75c0-1.86-0.51-3.38-1.53-4.55c-1.02-1.17-2.51-2.12-4.46-2.84c-1.95-0.72-4.31-1.41-7.07-2.07
			l-2.7-0.54c-4.14-0.96-7.73-2.18-10.76-3.65c-3.03-1.47-5.36-3.38-6.98-5.72s-2.43-5.4-2.43-9.19c0-3.78,0.9-7.02,2.7-9.73
			c1.8-2.7,4.35-4.77,7.65-6.21c3.3-1.44,7.17-2.16,11.62-2.16c4.44,0,8.4,0.75,11.89,2.25c3.48,1.5,6.23,3.75,8.24,6.75
			c2.01,3,3.02,6.75,3.02,11.26v2.97h-10.72v-2.97c0-2.58-0.51-4.65-1.53-6.21c-1.02-1.56-2.46-2.7-4.32-3.42
			c-1.86-0.72-4.05-1.08-6.57-1.08c-3.72,0-6.54,0.72-8.46,2.16c-1.92,1.44-2.88,3.48-2.88,6.12c0,1.68,0.43,3.11,1.31,4.28
			c0.87,1.17,2.16,2.13,3.87,2.88c1.71,0.75,3.86,1.4,6.44,1.94l2.7,0.63c4.32,0.96,8.1,2.18,11.35,3.65
			c3.24,1.47,5.78,3.41,7.61,5.81c1.83,2.4,2.75,5.52,2.75,9.37c0,3.78-0.98,7.11-2.93,10c-1.95,2.88-4.68,5.13-8.19,6.75
			C186.1,503.97,181.94,504.78,177.14,504.78z"/>
		<path class="st1" d="M210.54,521.53v-62.49h10.18v5.85h1.53c1.02-1.86,2.66-3.51,4.91-4.95c2.25-1.44,5.48-2.16,9.68-2.16
			c3.6,0,6.95,0.89,10.04,2.66c3.09,1.77,5.57,4.37,7.43,7.79c1.86,3.42,2.79,7.53,2.79,12.34V482c0,4.8-0.93,8.91-2.79,12.34
			c-1.86,3.42-4.32,6.02-7.38,7.79c-3.06,1.77-6.42,2.66-10.09,2.66c-2.82,0-5.18-0.33-7.07-0.99c-1.89-0.66-3.42-1.53-4.59-2.61
			c-1.17-1.08-2.09-2.16-2.75-3.24h-1.53v23.59H210.54z M233.78,495.78c3.78,0,6.89-1.22,9.32-3.65c2.43-2.43,3.65-5.9,3.65-10.4
			v-0.9c0-4.56-1.23-8.04-3.69-10.45c-2.46-2.4-5.55-3.6-9.28-3.6c-3.72,0-6.83,1.2-9.32,3.6c-2.49,2.4-3.74,5.88-3.74,10.45v0.9
			c0,4.5,1.25,7.97,3.74,10.4C226.95,494.56,230.05,495.78,233.78,495.78z"/>
		<path class="st1" d="M281.86,504.78c-3.12,0-5.94-0.56-8.46-1.67c-2.52-1.11-4.52-2.72-5.99-4.82c-1.47-2.1-2.21-4.68-2.21-7.74
			c0-3,0.73-5.52,2.21-7.56c1.47-2.04,3.5-3.59,6.08-4.64c2.58-1.05,5.52-1.58,8.82-1.58h12.88v-2.7c0-2.34-0.72-4.25-2.16-5.72
			c-1.44-1.47-3.69-2.21-6.75-2.21c-3,0-5.27,0.71-6.8,2.12c-1.53,1.41-2.54,3.23-3.02,5.45l-9.54-3.15
			c0.72-2.34,1.88-4.47,3.47-6.39c1.59-1.92,3.71-3.47,6.35-4.64c2.64-1.17,5.88-1.76,9.73-1.76c5.82,0,10.4,1.46,13.73,4.37
			c3.33,2.91,5,7.13,5,12.65v17.47c0,1.8,0.84,2.7,2.52,2.7h3.78v8.55h-7.29c-2.16,0-3.93-0.54-5.31-1.62
			c-1.38-1.08-2.07-2.55-2.07-4.41v-0.18h-1.53c-0.36,0.84-0.99,1.86-1.89,3.06c-0.9,1.2-2.27,2.24-4.1,3.11
			C287.46,504.34,284.98,504.78,281.86,504.78z M283.57,496.32c3.42,0,6.21-0.98,8.38-2.93c2.16-1.95,3.24-4.58,3.24-7.88v-0.9
			h-12.25c-2.22,0-4.02,0.48-5.4,1.44c-1.38,0.96-2.07,2.37-2.07,4.23c0,1.8,0.72,3.26,2.16,4.37
			C279.07,495.76,281.05,496.32,283.57,496.32z"/>
		<path class="st1" d="M339.85,504.78c-4.32,0-8.23-0.9-11.71-2.7c-3.48-1.8-6.23-4.41-8.24-7.83c-2.01-3.42-3.02-7.53-3.02-12.34
			v-1.26c0-4.8,1-8.92,3.02-12.34c2.01-3.42,4.76-6.03,8.24-7.83c3.48-1.8,7.38-2.7,11.71-2.7c4.26,0,7.91,0.75,10.94,2.25
			c3.03,1.5,5.48,3.56,7.34,6.17c1.86,2.61,3.06,5.54,3.6,8.78l-10,2.07c-0.24-1.86-0.81-3.56-1.71-5.09
			c-0.9-1.53-2.18-2.75-3.83-3.65c-1.65-0.9-3.68-1.35-6.08-1.35c-2.46,0-4.67,0.53-6.62,1.58c-1.95,1.05-3.48,2.63-4.59,4.73
			c-1.11,2.1-1.67,4.62-1.67,7.56v0.9c0,2.94,0.55,5.45,1.67,7.52c1.11,2.07,2.64,3.65,4.59,4.73c1.95,1.08,4.16,1.62,6.62,1.62
			c3.66,0,6.44-0.95,8.33-2.84c1.89-1.89,3.08-4.34,3.56-7.34l10,2.34c-0.72,3.12-2.01,5.97-3.87,8.55
			c-1.86,2.58-4.31,4.64-7.34,6.17C347.76,504.01,344.12,504.78,339.85,504.78z"/>
		<path class="st1" d="M392.44,504.78c-4.44,0-8.36-0.95-11.75-2.84c-3.39-1.89-6.03-4.56-7.92-8.01
			c-1.89-3.45-2.84-7.49-2.84-12.11v-1.08c0-4.68,0.93-8.73,2.79-12.16c1.86-3.42,4.47-6.08,7.83-7.97
			c3.36-1.89,7.23-2.84,11.62-2.84c4.32,0,8.1,0.95,11.35,2.84c3.24,1.89,5.76,4.55,7.56,7.97s2.7,7.41,2.7,11.98v3.69h-33.41
			c0.12,3.48,1.35,6.27,3.69,8.37c2.34,2.1,5.22,3.15,8.64,3.15c3.36,0,5.85-0.73,7.47-2.21c1.62-1.47,2.85-3.14,3.69-5l8.55,4.41
			c-0.84,1.62-2.06,3.35-3.65,5.18c-1.59,1.83-3.71,3.39-6.35,4.68C399.79,504.13,396.46,504.78,392.44,504.78z M380.46,476.42
			h22.78c-0.24-2.94-1.37-5.28-3.38-7.02c-2.01-1.74-4.61-2.61-7.79-2.61c-3.3,0-5.94,0.87-7.92,2.61
			C382.18,471.13,380.94,473.47,380.46,476.42z"/>
		<path class="st1" d="M468.89,504.78c-4.44,0-8.42-0.98-11.93-2.93c-3.51-1.95-6.3-4.8-8.38-8.55c-2.07-3.75-3.11-8.36-3.11-13.82
			v-14.95c0-8.16,2.28-14.42,6.84-18.77c4.56-4.35,10.68-6.53,18.37-6.53c7.68,0,13.6,2.06,17.74,6.17
			c4.14,4.11,6.21,9.65,6.21,16.61v0.36h-10.63v-0.72c0-2.4-0.48-4.56-1.44-6.48c-0.96-1.92-2.43-3.44-4.41-4.55
			c-1.98-1.11-4.47-1.67-7.47-1.67c-4.44,0-7.94,1.37-10.49,4.1c-2.55,2.73-3.83,6.5-3.83,11.3v15.31c0,4.74,1.28,8.52,3.83,11.35
			c2.55,2.82,6.11,4.23,10.67,4.23c4.56,0,7.89-1.23,10-3.69c2.1-2.46,3.15-5.61,3.15-9.46v-1.08h-15.94v-9.18h26.56v31.7h-9.91
			v-6.21h-1.53c-0.48,1.08-1.23,2.21-2.25,3.38c-1.02,1.17-2.48,2.15-4.37,2.93C474.7,504.39,472.13,504.78,468.89,504.78z"/>
		<path class="st1" d="M506.89,503.52v-44.48h10.18v5.13h1.53c0.66-1.86,1.77-3.21,3.33-4.05c1.56-0.84,3.42-1.26,5.58-1.26h5.4
			v9.18h-5.58c-3,0-5.43,0.8-7.29,2.39c-1.86,1.59-2.79,4.04-2.79,7.34v25.75H506.89z"/>
		<path class="st1" d="M561.55,504.78c-4.44,0-8.42-0.92-11.93-2.75c-3.51-1.83-6.27-4.44-8.28-7.83c-2.01-3.39-3.02-7.46-3.02-12.2
			v-1.44c0-4.74,1-8.82,3.02-12.25c2.01-3.42,4.77-6.03,8.28-7.83c3.51-1.8,7.49-2.7,11.93-2.7c4.44,0,8.4,0.9,11.89,2.7
			c3.48,1.8,6.23,4.41,8.24,7.83c2.01,3.42,3.02,7.51,3.02,12.25V482c0,4.74-1.01,8.81-3.02,12.2c-2.01,3.39-4.76,6-8.24,7.83
			C569.95,503.86,565.99,504.78,561.55,504.78z M561.55,495.6c3.78,0,6.87-1.22,9.28-3.65c2.4-2.43,3.6-5.84,3.6-10.22v-0.9
			c0-4.38-1.2-7.79-3.6-10.22c-2.4-2.43-5.49-3.65-9.28-3.65s-6.87,1.22-9.27,3.65c-2.4,2.43-3.6,5.84-3.6,10.22v0.9
			c0,4.38,1.2,7.79,3.6,10.22C554.67,494.38,557.77,495.6,561.55,495.6z"/>
		<path class="st1" d="M611.08,503.52c-2.88,0-5.18-0.86-6.89-2.57s-2.57-4.04-2.57-6.98v-26.38H590v-8.55h11.62v-14.32h10.36v14.32
			h12.79v8.55h-12.79v24.67c0,1.8,0.84,2.7,2.52,2.7h8.91v8.55H611.08z"/>
		<path class="st1" d="M654.03,504.78c-4.44,0-8.36-0.95-11.75-2.84c-3.39-1.89-6.03-4.56-7.92-8.01
			c-1.89-3.45-2.84-7.49-2.84-12.11v-1.08c0-4.68,0.93-8.73,2.79-12.16c1.86-3.42,4.47-6.08,7.83-7.97
			c3.36-1.89,7.23-2.84,11.62-2.84c4.32,0,8.1,0.95,11.35,2.84c3.24,1.89,5.76,4.55,7.56,7.97s2.7,7.41,2.7,11.98v3.69h-33.41
			c0.12,3.48,1.35,6.27,3.69,8.37c2.34,2.1,5.22,3.15,8.64,3.15c3.36,0,5.85-0.73,7.47-2.21c1.62-1.47,2.85-3.14,3.69-5l8.55,4.41
			c-0.84,1.62-2.06,3.35-3.65,5.18c-1.59,1.83-3.71,3.39-6.35,4.68C661.38,504.13,658.05,504.78,654.03,504.78z M642.05,476.42
			h22.78c-0.24-2.94-1.37-5.28-3.38-7.02c-2.01-1.74-4.61-2.61-7.79-2.61c-3.3,0-5.94,0.87-7.92,2.61
			C643.76,471.13,642.53,473.47,642.05,476.42z"/>
		<path class="st1" d="M704.36,504.78c-5.76,0-10.51-1.26-14.23-3.78c-3.72-2.52-5.97-6.21-6.75-11.08l9.54-2.43
			c0.42,2.28,1.17,4.08,2.25,5.4c1.08,1.32,2.42,2.25,4.01,2.79c1.59,0.54,3.32,0.81,5.18,0.81c2.82,0,4.94-0.51,6.35-1.53
			c1.41-1.02,2.12-2.31,2.12-3.87c0-1.62-0.68-2.82-2.03-3.6c-1.35-0.78-3.41-1.44-6.17-1.98l-2.79-0.45
			c-3.06-0.6-5.85-1.43-8.37-2.48c-2.52-1.05-4.55-2.49-6.08-4.32c-1.53-1.83-2.3-4.16-2.3-6.98c0-4.32,1.61-7.65,4.82-10
			c3.21-2.34,7.43-3.51,12.65-3.51c4.98,0,9.09,1.11,12.34,3.33c3.24,2.22,5.34,5.19,6.3,8.91l-9.54,2.88
			c-0.48-2.52-1.53-4.31-3.15-5.36c-1.62-1.05-3.6-1.58-5.94-1.58c-2.4,0-4.25,0.42-5.54,1.26c-1.29,0.84-1.94,2.04-1.94,3.6
			c0,1.56,0.66,2.73,1.98,3.51c1.32,0.78,3.09,1.35,5.31,1.71l2.79,0.54c3.3,0.6,6.29,1.38,8.96,2.34c2.67,0.96,4.79,2.34,6.35,4.14
			c1.56,1.8,2.34,4.23,2.34,7.29c0,4.62-1.67,8.18-5,10.67C714.49,503.53,710.01,504.78,704.36,504.78z"/>
		<path class="st1" d="M733.27,503.52v-63.03h10.36v35.39h1.53l16.03-16.84h13.6l-21.52,21.52l22.24,22.96h-13.42l-16.93-18.1h-1.53
			v18.1H733.27z"/>
	</g>
	<g>
		<path class="st1" d="M177.05,628.86c-4.86,0-9.16-0.87-12.88-2.61c-3.72-1.74-6.63-4.23-8.74-7.47c-2.1-3.24-3.15-7.14-3.15-11.71
			v-2.52h11.71v2.52c0,3.78,1.17,6.62,3.51,8.51c2.34,1.89,5.52,2.84,9.55,2.84c4.08,0,7.13-0.81,9.14-2.43
			c2.01-1.62,3.02-3.69,3.02-6.21c0-1.74-0.5-3.15-1.49-4.23c-0.99-1.08-2.43-1.97-4.32-2.66c-1.89-0.69-4.19-1.33-6.89-1.94
			l-2.07-0.45c-4.32-0.96-8.03-2.18-11.12-3.65c-3.09-1.47-5.46-3.41-7.11-5.81c-1.65-2.4-2.48-5.52-2.48-9.36
			c0-3.84,0.92-7.13,2.75-9.86c1.83-2.73,4.41-4.83,7.74-6.3c3.33-1.47,7.25-2.21,11.75-2.21c4.5,0,8.51,0.77,12.02,2.3
			s6.27,3.81,8.28,6.84c2.01,3.03,3.02,6.83,3.02,11.39v2.7h-11.71v-2.7c0-2.4-0.47-4.34-1.4-5.81c-0.93-1.47-2.27-2.55-4.01-3.24
			c-1.74-0.69-3.81-1.04-6.21-1.04c-3.6,0-6.26,0.68-7.97,2.03c-1.71,1.35-2.57,3.2-2.57,5.54c0,1.56,0.41,2.88,1.21,3.96
			c0.81,1.08,2.03,1.98,3.65,2.7s3.69,1.35,6.21,1.89l2.07,0.45c4.5,0.96,8.42,2.19,11.75,3.69c3.33,1.5,5.93,3.48,7.79,5.94
			c1.86,2.46,2.79,5.61,2.79,9.46c0,3.84-0.98,7.22-2.93,10.13c-1.95,2.91-4.71,5.19-8.28,6.84
			C186.13,628.03,181.91,628.86,177.05,628.86z"/>
		<path class="st1" d="M210.1,645.61v-62.67h11.17v5.4h1.62c1.02-1.74,2.61-3.29,4.77-4.64s5.25-2.03,9.28-2.03
			c3.6,0,6.93,0.89,10,2.66c3.06,1.77,5.52,4.37,7.38,7.79c1.86,3.42,2.79,7.56,2.79,12.43v1.44c0,4.86-0.93,9-2.79,12.43
			c-1.86,3.42-4.32,6.02-7.38,7.79c-3.06,1.77-6.39,2.66-10,2.66c-2.7,0-4.97-0.32-6.8-0.95c-1.83-0.63-3.3-1.44-4.41-2.43
			c-1.11-0.99-2-2-2.66-3.02h-1.62v23.14H210.1z M233.51,618.95c3.54,0,6.47-1.13,8.78-3.38c2.31-2.25,3.47-5.54,3.47-9.86v-0.9
			c0-4.32-1.17-7.61-3.51-9.86c-2.34-2.25-5.25-3.38-8.73-3.38c-3.48,0-6.39,1.13-8.73,3.38c-2.34,2.25-3.51,5.54-3.51,9.86v0.9
			c0,4.32,1.17,7.61,3.51,9.86C227.11,617.83,230.03,618.95,233.51,618.95z"/>
		<path class="st1" d="M281.41,628.86c-3.18,0-6.03-0.56-8.55-1.67c-2.52-1.11-4.52-2.73-5.99-4.86c-1.47-2.13-2.21-4.73-2.21-7.79
			c0-3.06,0.73-5.63,2.21-7.7c1.47-2.07,3.51-3.63,6.12-4.68c2.61-1.05,5.6-1.58,8.96-1.58h12.25v-2.52c0-2.1-0.66-3.83-1.98-5.18
			c-1.32-1.35-3.42-2.03-6.3-2.03c-2.82,0-4.92,0.65-6.3,1.94c-1.38,1.29-2.28,2.96-2.7,5l-10.45-3.51
			c0.72-2.28,1.88-4.37,3.47-6.26c1.59-1.89,3.72-3.42,6.39-4.59c2.67-1.17,5.93-1.76,9.77-1.76c5.88,0,10.54,1.47,13.96,4.41
			c3.42,2.94,5.13,7.2,5.13,12.79v16.66c0,1.8,0.84,2.7,2.52,2.7h3.6v9.36h-7.56c-2.22,0-4.05-0.54-5.49-1.62s-2.16-2.52-2.16-4.32
			v-0.09h-1.71c-0.24,0.72-0.78,1.67-1.62,2.84c-0.84,1.17-2.16,2.21-3.96,3.11C287,628.41,284.53,628.86,281.41,628.86z
			 M283.39,619.67c3.18,0,5.78-0.88,7.79-2.66c2.01-1.77,3.02-4.13,3.02-7.07v-0.9h-11.44c-2.1,0-3.75,0.45-4.95,1.35
			c-1.2,0.9-1.8,2.16-1.8,3.78c0,1.62,0.63,2.94,1.89,3.96C279.16,619.16,280.99,619.67,283.39,619.67z"/>
		<path class="st1" d="M339.67,628.86c-4.32,0-8.24-0.9-11.75-2.7c-3.51-1.8-6.29-4.41-8.33-7.83c-2.04-3.42-3.06-7.56-3.06-12.43
			v-1.26c0-4.86,1.02-9,3.06-12.43c2.04-3.42,4.82-6.03,8.33-7.83c3.51-1.8,7.43-2.7,11.75-2.7c4.26,0,7.92,0.75,10.99,2.25
			c3.06,1.5,5.54,3.56,7.43,6.17c1.89,2.61,3.14,5.57,3.74,8.87l-10.99,2.34c-0.24-1.8-0.78-3.42-1.62-4.86
			c-0.84-1.44-2.03-2.58-3.56-3.42c-1.53-0.84-3.44-1.26-5.72-1.26c-2.28,0-4.34,0.5-6.17,1.49c-1.83,0.99-3.27,2.46-4.32,4.41
			c-1.05,1.95-1.58,4.34-1.58,7.16v0.9c0,2.82,0.52,5.21,1.58,7.16c1.05,1.95,2.49,3.42,4.32,4.41c1.83,0.99,3.89,1.49,6.17,1.49
			c3.42,0,6.02-0.88,7.79-2.66c1.77-1.77,2.9-4.1,3.38-6.98l10.99,2.61c-0.78,3.18-2.12,6.08-4.01,8.69
			c-1.89,2.61-4.37,4.67-7.43,6.17C347.6,628.11,343.93,628.86,339.67,628.86z"/>
		<path class="st1" d="M391.81,628.86c-4.44,0-8.36-0.95-11.75-2.84c-3.39-1.89-6.03-4.56-7.92-8.01c-1.89-3.45-2.84-7.52-2.84-12.2
			v-1.08c0-4.68,0.93-8.75,2.79-12.2c1.86-3.45,4.47-6.12,7.83-8.01c3.36-1.89,7.26-2.84,11.71-2.84c4.38,0,8.2,0.98,11.44,2.93
			c3.24,1.95,5.76,4.65,7.56,8.1c1.8,3.45,2.7,7.46,2.7,12.02v3.87h-32.51c0.12,3.06,1.26,5.55,3.42,7.47
			c2.16,1.92,4.8,2.88,7.92,2.88c3.18,0,5.52-0.69,7.02-2.07c1.5-1.38,2.64-2.91,3.42-4.59l9.28,4.86
			c-0.84,1.56-2.06,3.26-3.65,5.09c-1.59,1.83-3.71,3.39-6.35,4.68C399.25,628.21,395.89,628.86,391.81,628.86z M380.91,600.13
			h20.89c-0.24-2.58-1.28-4.65-3.11-6.21c-1.83-1.56-4.22-2.34-7.16-2.34c-3.06,0-5.49,0.78-7.29,2.34
			C382.44,595.48,381.33,597.55,380.91,600.13z"/>
		<path class="st1" d="M467.72,628.86c-4.32,0-8.24-0.98-11.75-2.93s-6.3-4.8-8.37-8.55c-2.07-3.75-3.11-8.33-3.11-13.73v-15.13
			c0-8.1,2.28-14.33,6.84-18.68c4.56-4.35,10.75-6.53,18.55-6.53c7.74,0,13.73,2.06,17.96,6.17c4.23,4.11,6.35,9.68,6.35,16.7v0.36
			h-11.71v-0.72c0-2.22-0.47-4.23-1.4-6.03s-2.33-3.23-4.19-4.28c-1.86-1.05-4.2-1.58-7.02-1.58c-4.2,0-7.5,1.29-9.91,3.87
			c-2.4,2.58-3.6,6.09-3.6,10.54v15.49c0,4.38,1.2,7.91,3.6,10.58c2.4,2.67,5.76,4.01,10.09,4.01s7.47-1.14,9.46-3.42
			c1.98-2.28,2.97-5.16,2.97-8.64v-0.9h-14.95v-10.09h26.65v32.24h-10.99v-6.03h-1.62c-0.42,1.02-1.1,2.1-2.03,3.24
			c-0.93,1.14-2.33,2.1-4.19,2.88C473.51,628.47,470.96,628.86,467.72,628.86z"/>
		<path class="st1" d="M505.9,627.6v-44.66h11.17v5.04h1.62c0.66-1.8,1.76-3.12,3.29-3.96c1.53-0.84,3.32-1.26,5.36-1.26h5.4v10.09
			h-5.58c-2.88,0-5.25,0.77-7.11,2.3c-1.86,1.53-2.79,3.89-2.79,7.07v25.39H505.9z"/>
		<path class="st1" d="M561.19,628.86c-4.44,0-8.43-0.9-11.98-2.7c-3.54-1.8-6.33-4.41-8.37-7.83c-2.04-3.42-3.06-7.53-3.06-12.34
			v-1.44c0-4.8,1.02-8.91,3.06-12.34c2.04-3.42,4.83-6.03,8.37-7.83c3.54-1.8,7.53-2.7,11.98-2.7c4.44,0,8.43,0.9,11.98,2.7
			c3.54,1.8,6.33,4.41,8.37,7.83c2.04,3.42,3.06,7.53,3.06,12.34v1.44c0,4.8-1.02,8.91-3.06,12.34c-2.04,3.42-4.83,6.03-8.37,7.83
			C569.62,627.96,565.63,628.86,561.19,628.86z M561.19,618.77c3.48,0,6.36-1.13,8.64-3.38c2.28-2.25,3.42-5.48,3.42-9.68v-0.9
			c0-4.2-1.13-7.43-3.38-9.68c-2.25-2.25-5.15-3.38-8.69-3.38c-3.48,0-6.36,1.13-8.64,3.38c-2.28,2.25-3.42,5.48-3.42,9.68v0.9
			c0,4.2,1.14,7.43,3.42,9.68C554.82,617.65,557.71,618.77,561.19,618.77z"/>
		<path class="st1" d="M610.72,627.6c-2.94,0-5.33-0.91-7.16-2.75c-1.83-1.83-2.75-4.28-2.75-7.34V592.3h-11.17v-9.36h11.17v-13.87
			h11.35v13.87h12.25v9.36h-12.25v23.23c0,1.8,0.84,2.7,2.52,2.7h8.64v9.36H610.72z"/>
		<path class="st1" d="M653.4,628.86c-4.44,0-8.36-0.95-11.75-2.84c-3.39-1.89-6.03-4.56-7.92-8.01c-1.89-3.45-2.84-7.52-2.84-12.2
			v-1.08c0-4.68,0.93-8.75,2.79-12.2c1.86-3.45,4.47-6.12,7.83-8.01c3.36-1.89,7.26-2.84,11.71-2.84c4.38,0,8.2,0.98,11.44,2.93
			c3.24,1.95,5.76,4.65,7.56,8.1c1.8,3.45,2.7,7.46,2.7,12.02v3.87h-32.51c0.12,3.06,1.26,5.55,3.42,7.47
			c2.16,1.92,4.8,2.88,7.92,2.88c3.18,0,5.52-0.69,7.02-2.07c1.5-1.38,2.64-2.91,3.42-4.59l9.28,4.86
			c-0.84,1.56-2.06,3.26-3.65,5.09c-1.59,1.83-3.71,3.39-6.35,4.68C660.84,628.21,657.48,628.86,653.4,628.86z M642.5,600.13h20.89
			c-0.24-2.58-1.28-4.65-3.11-6.21c-1.83-1.56-4.22-2.34-7.16-2.34c-3.06,0-5.49,0.78-7.29,2.34
			C644.03,595.48,642.92,597.55,642.5,600.13z"/>
		<path class="st1" d="M703.56,628.86c-5.82,0-10.6-1.26-14.32-3.78c-3.72-2.52-5.97-6.12-6.75-10.81l10.45-2.7
			c0.42,2.1,1.13,3.75,2.12,4.95c0.99,1.2,2.22,2.06,3.69,2.57c1.47,0.51,3.08,0.77,4.82,0.77c2.64,0,4.59-0.46,5.85-1.4
			c1.26-0.93,1.89-2.09,1.89-3.47c0-1.38-0.6-2.45-1.8-3.2c-1.2-0.75-3.12-1.36-5.76-1.85l-2.52-0.45c-3.12-0.6-5.97-1.43-8.55-2.48
			c-2.58-1.05-4.65-2.51-6.21-4.37c-1.56-1.86-2.34-4.26-2.34-7.2c0-4.44,1.62-7.85,4.86-10.22c3.24-2.37,7.5-3.56,12.79-3.56
			c4.98,0,9.12,1.11,12.43,3.33c3.3,2.22,5.46,5.13,6.48,8.73l-10.54,3.24c-0.48-2.28-1.46-3.9-2.93-4.86
			c-1.47-0.96-3.29-1.44-5.45-1.44s-3.81,0.38-4.95,1.13c-1.14,0.75-1.71,1.79-1.71,3.11c0,1.44,0.6,2.51,1.8,3.2
			c1.2,0.69,2.82,1.22,4.86,1.58l2.52,0.45c3.36,0.6,6.41,1.4,9.14,2.39c2.73,0.99,4.89,2.4,6.48,4.23
			c1.59,1.83,2.39,4.31,2.39,7.43c0,4.68-1.7,8.3-5.09,10.85C713.81,627.58,709.26,628.86,703.56,628.86z"/>
		<path class="st1" d="M732.19,627.6v-63.03h11.35v34.85h1.62l14.77-16.48h14.77l-20.62,21.61l21.34,23.05h-14.59l-15.67-17.74
			h-1.62v17.74H732.19z"/>
	</g>
	<g>
		<path class="st2" d="M1629.98,1161.86c-20.94,0-39.69-3.66-56.28-10.96c-16.59-7.3-29.72-17.97-39.39-31.99
			c-9.68-14.01-14.51-31.1-14.51-51.24c0-20.14,4.83-37.02,14.51-50.65c9.67-13.62,23.1-23.89,40.28-30.8
			c17.18-6.9,36.82-10.37,58.94-10.37h80.56v-16.59c0-13.82-4.35-25.18-13.03-34.06c-8.69-8.89-22.51-13.33-41.47-13.33
			c-18.57,0-32.39,4.25-41.47,12.74c-9.09,8.5-15.01,19.46-17.77,32.88l-68.72-23.1c4.74-15,12.34-28.73,22.81-41.17
			c10.46-12.44,24.48-22.51,42.06-30.21c17.57-7.7,38.99-11.55,64.27-11.55c38.7,0,69.31,9.68,91.82,29.03
			c22.51,19.35,33.77,47.39,33.77,84.12v109.59c0,11.85,5.53,17.77,16.59,17.77h23.69v61.61h-49.76c-14.61,0-26.66-3.55-36.13-10.66
			c-9.48-7.11-14.22-16.59-14.22-28.43v-0.59h-11.25c-1.58,4.74-5.14,10.96-10.66,18.66c-5.53,7.7-14.22,14.51-26.06,20.44
			C1666.71,1158.89,1650.51,1161.86,1629.98,1161.86z M1643.01,1101.43c20.93,0,38-5.82,51.24-17.47
			c13.23-11.64,19.85-27.15,19.85-46.5v-5.92h-75.23c-13.83,0-24.68,2.96-32.58,8.89c-7.9,5.92-11.85,14.22-11.85,24.88
			c0,10.66,4.15,19.35,12.44,26.06C1615.17,1098.08,1627.21,1101.43,1643.01,1101.43z"/>
	</g>
	<g>
		<path class="st1" d="M166.34,973.22c-2.64,0-5-0.45-7.06-1.34c-2.07-0.9-3.71-2.22-4.93-3.96c-1.22-1.74-1.83-3.86-1.83-6.35
			c0-2.54,0.61-4.64,1.83-6.31c1.22-1.67,2.89-2.93,5.01-3.77c2.12-0.85,4.52-1.27,7.21-1.27h11.21v-2.39
			c0-2.14-0.65-3.86-1.94-5.16c-1.3-1.29-3.29-1.94-5.98-1.94c-2.64,0-4.66,0.62-6.05,1.87c-1.39,1.25-2.32,2.87-2.76,4.86
			l-7.17-2.32c0.6-1.99,1.56-3.8,2.88-5.42c1.32-1.62,3.08-2.93,5.27-3.92c2.19-1,4.83-1.49,7.92-1.49c4.78,0,8.54,1.22,11.28,3.66
			c2.74,2.44,4.11,5.9,4.11,10.39v15.17c0,1.49,0.7,2.24,2.09,2.24h3.14v6.43h-5.75c-1.74,0-3.16-0.45-4.26-1.34
			c-1.1-0.9-1.64-2.12-1.64-3.66v-0.22h-1.12c-0.4,0.75-1,1.62-1.79,2.62c-0.8,1-1.97,1.86-3.51,2.58
			C170.92,972.86,168.88,973.22,166.34,973.22z M167.46,966.87c3.09,0,5.58-0.88,7.47-2.65c1.89-1.77,2.84-4.2,2.84-7.29v-0.75
			h-10.76c-2.04,0-3.69,0.44-4.93,1.31c-1.25,0.87-1.87,2.16-1.87,3.85c0,1.69,0.65,3.04,1.94,4.04
			C163.45,966.37,165.21,966.87,167.46,966.87z"/>
		<path class="st1" d="M219.32,973.22c-3.59,0-6.34-0.65-8.26-1.94c-1.92-1.29-3.35-2.74-4.3-4.33h-1.2v5.23h-7.55v-52.31h7.7v20.48
			h1.2c0.6-1,1.39-1.96,2.39-2.88c1-0.92,2.32-1.68,3.96-2.28c1.64-0.6,3.66-0.9,6.05-0.9c3.09,0,5.93,0.75,8.52,2.24
			c2.59,1.5,4.66,3.66,6.2,6.5c1.54,2.84,2.32,6.23,2.32,10.16v1.12c0,3.99-0.78,7.39-2.35,10.2s-3.64,4.97-6.2,6.46
			C225.23,972.47,222.4,973.22,219.32,973.22z M217.07,966.5c3.34,0,6.09-1.07,8.26-3.21c2.17-2.14,3.25-5.21,3.25-9.19v-0.67
			c0-3.94-1.07-6.97-3.21-9.12c-2.14-2.14-4.91-3.21-8.29-3.21c-3.29,0-6.02,1.07-8.18,3.21c-2.17,2.14-3.25,5.18-3.25,9.12v0.67
			c0,3.99,1.08,7.05,3.25,9.19C211.06,965.42,213.79,966.5,217.07,966.5z"/>
		<path class="st1" d="M263.03,973.22c-3.54,0-6.74-0.75-9.6-2.24c-2.87-1.5-5.13-3.66-6.8-6.5c-1.67-2.84-2.5-6.25-2.5-10.24v-0.97
			c0-3.99,0.83-7.39,2.5-10.2s3.94-4.98,6.8-6.5c2.86-1.52,6.06-2.28,9.6-2.28s6.55,0.65,9.04,1.94c2.49,1.3,4.5,3.01,6.02,5.16
			c1.52,2.14,2.5,4.51,2.95,7.1l-7.47,1.57c-0.25-1.64-0.77-3.14-1.57-4.48c-0.8-1.34-1.92-2.42-3.36-3.21
			c-1.45-0.8-3.26-1.2-5.45-1.2c-2.14,0-4.07,0.49-5.79,1.46c-1.72,0.97-3.08,2.37-4.07,4.19c-1,1.82-1.49,4.02-1.49,6.61v0.67
			c0,2.59,0.5,4.81,1.49,6.65c1,1.84,2.35,3.24,4.07,4.19s3.65,1.42,5.79,1.42c3.24,0,5.7-0.83,7.4-2.5
			c1.69-1.67,2.76-3.8,3.21-6.39l7.47,1.72c-0.6,2.54-1.66,4.88-3.18,7.02c-1.52,2.14-3.52,3.85-6.02,5.12
			S266.57,973.22,263.03,973.22z"/>
		<path class="st1" d="M305.4,973.22c-3.04,0-5.85-0.75-8.44-2.24c-2.59-1.5-4.67-3.65-6.24-6.46s-2.35-6.21-2.35-10.2v-1.12
			c0-3.93,0.77-7.32,2.32-10.16c1.54-2.84,3.61-5.01,6.2-6.5c2.59-1.49,5.43-2.24,8.52-2.24c2.39,0,4.4,0.3,6.02,0.9
			c1.62,0.6,2.95,1.36,4,2.28s1.84,1.88,2.39,2.88h1.2v-20.48h7.7v52.31h-7.55v-5.23h-1.2c-0.95,1.59-2.38,3.04-4.3,4.33
			C311.74,972.57,308.99,973.22,305.4,973.22z M307.57,966.5c3.34,0,6.09-1.07,8.26-3.21c2.17-2.14,3.25-5.21,3.25-9.19v-0.67
			c0-3.94-1.07-6.97-3.21-9.12c-2.14-2.14-4.91-3.21-8.29-3.21c-3.29,0-6.02,1.07-8.18,3.21c-2.17,2.14-3.25,5.18-3.25,9.12v0.67
			c0,3.99,1.08,7.05,3.25,9.19C301.55,965.42,304.28,966.5,307.57,966.5z"/>
		<path class="st1" d="M354.94,973.22c-3.74,0-7-0.78-9.79-2.35c-2.79-1.57-4.97-3.79-6.54-6.65c-1.57-2.86-2.35-6.19-2.35-9.98
			v-0.9c0-3.84,0.77-7.19,2.32-10.05c1.54-2.86,3.7-5.08,6.46-6.65s5.96-2.35,9.6-2.35c3.54,0,6.64,0.78,9.3,2.35
			c2.66,1.57,4.75,3.75,6.24,6.54c1.49,2.79,2.24,6.05,2.24,9.79v2.92h-28.32c0.1,3.24,1.18,5.82,3.25,7.73
			c2.07,1.92,4.64,2.88,7.73,2.88c2.89,0,5.07-0.65,6.54-1.94c1.47-1.29,2.6-2.79,3.4-4.48l6.35,3.29c-0.7,1.39-1.71,2.87-3.03,4.41
			c-1.32,1.54-3.05,2.84-5.19,3.89C361.02,972.7,358.28,973.22,354.94,973.22z M344.18,949.98h20.4c-0.2-2.79-1.2-4.97-2.99-6.54
			c-1.79-1.57-4.14-2.35-7.02-2.35c-2.89,0-5.24,0.78-7.06,2.35C345.69,945.01,344.58,947.19,344.18,949.98z"/>
		<path class="st1" d="M387,972.17v-30.34h-10.31v-6.5H387v-8.07c0-2.24,0.67-4.04,2.02-5.38c1.34-1.34,3.14-2.02,5.38-2.02h9.49
			v6.5h-7.02c-1.45,0-2.17,0.75-2.17,2.24v6.73h10.61v6.5H394.7v30.34H387z"/>
		<path class="st1" d="M409.87,953.94v-1.12c0-3.89,0.78-7.2,2.35-9.94c1.57-2.74,3.65-4.86,6.24-6.35
			c2.59-1.49,5.43-2.24,8.52-2.24c3.59,0,6.34,0.67,8.26,2.02c1.92,1.34,3.33,2.79,4.22,4.33h1.2v-5.31h7.47v44.39
			c0,2.24-0.66,4.04-1.98,5.38c-1.32,1.34-3.13,2.02-5.42,2.02h-24.81v-6.73h22.42c1.44,0,2.17-0.75,2.17-2.24v-11.73h-1.2
			c-0.55,0.9-1.32,1.82-2.32,2.76c-1,0.95-2.31,1.72-3.92,2.32c-1.62,0.6-3.65,0.9-6.09,0.9c-3.09,0-5.94-0.73-8.56-2.21
			c-2.62-1.47-4.7-3.59-6.24-6.35C410.64,961.08,409.87,957.78,409.87,953.94z M429.07,965.67c3.34,0,6.09-1.06,8.26-3.18
			c2.17-2.12,3.25-5.04,3.25-8.78v-0.67c0-3.84-1.07-6.79-3.21-8.86c-2.14-2.07-4.91-3.1-8.29-3.1c-3.29,0-6.02,1.03-8.18,3.1
			c-2.17,2.07-3.25,5.02-3.25,8.86v0.67c0,3.74,1.08,6.66,3.25,8.78C423.06,964.62,425.79,965.67,429.07,965.67z"/>
		<path class="st1" d="M459.49,972.17v-52.31h7.7v20.7h1.2c0.5-0.95,1.21-1.87,2.13-2.76c0.92-0.9,2.14-1.63,3.66-2.2
			c1.52-0.57,3.45-0.86,5.79-0.86c2.79,0,5.27,0.62,7.44,1.87c2.17,1.25,3.87,3,5.12,5.27c1.25,2.27,1.87,5,1.87,8.18v22.12h-7.7
			v-21.52c0-3.19-0.8-5.54-2.39-7.06c-1.59-1.52-3.79-2.28-6.58-2.28c-3.19,0-5.74,1.05-7.66,3.14c-1.92,2.09-2.88,5.13-2.88,9.12
			v18.61H459.49z"/>
		<path class="st1" d="M509.33,930.33c-1.5,0-2.75-0.49-3.77-1.46c-1.02-0.97-1.53-2.23-1.53-3.77s0.51-2.8,1.53-3.77
			c1.02-0.97,2.28-1.46,3.77-1.46c1.54,0,2.81,0.49,3.81,1.46c1,0.97,1.49,2.23,1.49,3.77s-0.5,2.8-1.49,3.77
			C512.14,929.84,510.87,930.33,509.33,930.33z M505.44,972.17v-36.84h7.7v36.84H505.44z"/>
		<path class="st1" d="M517.55,987.12v-6.65h5.01c1.44,0,2.17-0.75,2.17-2.24v-42.89h7.7v44.39c0,2.24-0.65,4.04-1.94,5.38
			c-1.3,1.34-3.11,2.02-5.46,2.02H517.55z M528.61,930.33c-1.5,0-2.75-0.49-3.77-1.46c-1.02-0.97-1.53-2.23-1.53-3.77
			s0.51-2.8,1.53-3.77c1.02-0.97,2.28-1.46,3.77-1.46c1.54,0,2.81,0.49,3.81,1.46c1,0.97,1.49,2.23,1.49,3.77s-0.5,2.8-1.49,3.77
			C531.42,929.84,530.15,930.33,528.61,930.33z"/>
		<path class="st1" d="M543.85,972.17v-52.31h7.7v29.82h1.2l14.5-14.35h10.24l-18.61,17.86l19.2,18.98h-10.16l-15.17-15.32h-1.2
			v15.32H543.85z"/>
		<path class="st1" d="M585.02,972.17v-52.31h7.7v52.31H585.02z"/>
		<path class="st1" d="M604.15,972.17v-36.84h7.55v4.33h1.2c0.7-1.29,1.82-2.44,3.36-3.44c1.54-1,3.64-1.49,6.28-1.49
			c2.74,0,4.94,0.56,6.61,1.68c1.67,1.12,2.93,2.55,3.77,4.3h1.2c0.85-1.69,2.08-3.11,3.7-4.26c1.62-1.15,3.92-1.72,6.91-1.72
			c2.39,0,4.51,0.49,6.35,1.46c1.84,0.97,3.31,2.42,4.41,4.33c1.1,1.92,1.64,4.3,1.64,7.14v24.51h-7.7v-23.91
			c0-2.24-0.61-3.97-1.83-5.19c-1.22-1.22-2.95-1.83-5.19-1.83c-2.39,0-4.31,0.77-5.75,2.32c-1.45,1.54-2.17,3.76-2.17,6.65v21.97
			h-7.7v-23.91c0-2.24-0.61-3.97-1.83-5.19s-2.95-1.83-5.19-1.83c-2.39,0-4.31,0.77-5.75,2.32c-1.45,1.54-2.17,3.76-2.17,6.65v21.97
			H604.15z"/>
		<path class="st1" d="M668.19,972.17v-36.84h7.55v5.53h1.2c0.7-1.49,1.94-2.89,3.74-4.18c1.79-1.29,4.46-1.94,8-1.94
			c2.79,0,5.27,0.62,7.44,1.87c2.17,1.25,3.87,3,5.12,5.27c1.25,2.27,1.87,5,1.87,8.18v22.12h-7.7v-21.52c0-3.19-0.8-5.54-2.39-7.06
			c-1.59-1.52-3.79-2.28-6.58-2.28c-3.19,0-5.74,1.05-7.66,3.14c-1.92,2.09-2.88,5.13-2.88,9.12v18.61H668.19z"/>
		<path class="st1" d="M731.41,973.22c-3.69,0-6.96-0.76-9.83-2.28c-2.87-1.52-5.12-3.7-6.76-6.54c-1.64-2.84-2.47-6.2-2.47-10.09
			v-1.12c0-3.89,0.82-7.24,2.47-10.05c1.64-2.81,3.9-4.99,6.76-6.54c2.86-1.54,6.14-2.32,9.83-2.32c3.69,0,6.97,0.77,9.86,2.32
			c2.89,1.54,5.16,3.72,6.8,6.54c1.64,2.82,2.47,6.17,2.47,10.05v1.12c0,3.89-0.82,7.25-2.47,10.09c-1.64,2.84-3.91,5.02-6.8,6.54
			C738.39,972.46,735.1,973.22,731.41,973.22z M731.41,966.34c3.39,0,6.14-1.08,8.26-3.25c2.12-2.17,3.18-5.17,3.18-9v-0.67
			c0-3.84-1.05-6.84-3.14-9c-2.09-2.17-4.86-3.25-8.29-3.25c-3.34,0-6.07,1.08-8.18,3.25c-2.12,2.17-3.18,5.17-3.18,9v0.67
			c0,3.84,1.06,6.84,3.18,9C725.35,965.26,728.07,966.34,731.41,966.34z"/>
		<path class="st1" d="M760.11,987.12v-51.79h7.55v5.31h1.2c0.95-1.64,2.38-3.11,4.3-4.41c1.92-1.29,4.67-1.94,8.26-1.94
			c3.09,0,5.92,0.75,8.48,2.24c2.56,1.5,4.63,3.65,6.2,6.46c1.57,2.82,2.35,6.21,2.35,10.2v1.12c0,3.99-0.77,7.39-2.32,10.2
			c-1.54,2.81-3.61,4.97-6.2,6.46c-2.59,1.49-5.43,2.24-8.52,2.24c-2.39,0-4.41-0.3-6.05-0.9c-1.64-0.6-2.96-1.36-3.96-2.28
			c-1-0.92-1.79-1.88-2.39-2.88h-1.2v19.95H760.11z M779.16,966.5c3.39,0,6.15-1.07,8.29-3.21c2.14-2.14,3.21-5.21,3.21-9.19v-0.67
			c0-3.94-1.08-6.97-3.25-9.12c-2.17-2.14-4.92-3.21-8.26-3.21c-3.29,0-6.02,1.07-8.18,3.21c-2.17,2.14-3.25,5.18-3.25,9.12v0.67
			c0,3.99,1.08,7.05,3.25,9.19C773.15,965.42,775.87,966.5,779.16,966.5z"/>
		<path class="st1" d="M183.75,1076.79v-19.95h-1.2c-0.55,1-1.35,1.96-2.39,2.88c-1.05,0.92-2.38,1.68-4,2.28
			c-1.62,0.6-3.62,0.9-6.02,0.9c-3.09,0-5.93-0.75-8.52-2.24c-2.59-1.5-4.66-3.65-6.2-6.46c-1.54-2.81-2.32-6.21-2.32-10.2v-1.12
			c0-3.99,0.78-7.38,2.35-10.2c1.57-2.81,3.65-4.97,6.24-6.46c2.59-1.49,5.4-2.24,8.44-2.24c3.59,0,6.34,0.65,8.26,1.94
			c1.92,1.3,3.35,2.76,4.3,4.41h1.2v-5.31h7.55v51.79H183.75z M172.31,1056.17c3.39,0,6.15-1.07,8.29-3.21
			c2.14-2.14,3.21-5.21,3.21-9.19v-0.67c0-3.94-1.08-6.97-3.25-9.12c-2.17-2.14-4.92-3.21-8.26-3.21c-3.29,0-6.02,1.07-8.18,3.21
			c-2.17,2.14-3.25,5.18-3.25,9.12v0.67c0,3.99,1.08,7.05,3.25,9.19C166.3,1055.1,169.03,1056.17,172.31,1056.17z"/>
		<path class="st1" d="M202.8,1061.85v-36.84h7.55v4.33h1.2c0.6-1.54,1.56-2.68,2.88-3.4c1.32-0.72,2.95-1.08,4.89-1.08h4.41v6.95
			h-4.71c-2.49,0-4.53,0.69-6.13,2.05c-1.6,1.37-2.39,3.48-2.39,6.31v21.67H202.8z"/>
		<path class="st1" d="M245.99,1062.89c-4.68,0-8.57-1.05-11.66-3.14c-3.09-2.09-4.98-5.25-5.68-9.49l7.17-1.72
			c0.4,2.04,1.07,3.66,2.02,4.86c0.95,1.2,2.13,2.04,3.55,2.54c1.42,0.5,2.95,0.75,4.6,0.75c2.44,0,4.32-0.47,5.64-1.42
			c1.32-0.95,1.98-2.17,1.98-3.66c0-1.5-0.62-2.59-1.87-3.29c-1.25-0.7-3.09-1.27-5.53-1.72l-2.54-0.45
			c-2.49-0.45-4.76-1.1-6.8-1.94c-2.04-0.85-3.66-2.02-4.86-3.51c-1.2-1.49-1.79-3.41-1.79-5.75c0-3.49,1.29-6.19,3.89-8.11
			c2.59-1.92,6.03-2.88,10.31-2.88c4.13,0,7.53,0.93,10.2,2.8s4.4,4.4,5.19,7.58l-7.17,2.02c-0.45-2.24-1.4-3.82-2.84-4.75
			c-1.45-0.92-3.24-1.38-5.38-1.38c-2.09,0-3.74,0.39-4.93,1.16c-1.2,0.77-1.79,1.86-1.79,3.25c0,1.49,0.58,2.59,1.76,3.29
			c1.17,0.7,2.75,1.22,4.75,1.57l2.62,0.45c2.64,0.45,5.06,1.07,7.25,1.87c2.19,0.8,3.92,1.94,5.19,3.44
			c1.27,1.49,1.91,3.49,1.91,5.98c0,3.69-1.37,6.55-4.11,8.59C254.31,1061.87,250.63,1062.89,245.99,1062.89z"/>
		<path class="st1" d="M283.13,1061.85c-2.24,0-4.02-0.67-5.34-2.02s-1.98-3.14-1.98-5.38v-22.94h-10.16v-6.5h10.16v-12.18h7.7
			v12.18h10.99v6.5h-10.99v21.6c0,1.5,0.7,2.24,2.09,2.24h7.7v6.5H283.13z"/>
		<path class="st1" d="M317.66,1062.52c-2.79,0-5.28-0.62-7.47-1.87c-2.19-1.25-3.91-3.01-5.16-5.31c-1.25-2.29-1.87-5.03-1.87-8.22
			v-22.12h7.7v21.6c0,3.19,0.8,5.54,2.39,7.06c1.59,1.52,3.81,2.28,6.65,2.28c3.14,0,5.67-1.06,7.58-3.18
			c1.92-2.12,2.88-5.17,2.88-9.15v-18.61h7.7v36.84h-7.55v-5.53h-1.2c-0.7,1.49-1.94,2.9-3.74,4.22
			C323.78,1061.86,321.14,1062.52,317.66,1062.52z"/>
		<path class="st1" d="M357.93,1061.85l-12.41-36.84h8.15l9.79,31.16h1.2l9.79-31.16h8.14l-12.4,36.84H357.93z"/>
		<path class="st1" d="M394.1,1061.85l-6.28-36.84h7.7l4.63,31.68h1.2l6.43-31.68h12.48l6.35,31.68h1.2l4.63-31.68h7.7l-6.28,36.84
			h-12.93l-6.35-31.61h-1.2l-6.35,31.61H394.1z"/>
		<path class="st1" d="M446.11,1061.85l14.05-18.61l-13.75-18.23h9.04l9.64,13.23h1.2l9.64-13.23h9.12l-13.82,18.23l14.05,18.61
			h-9.19l-9.79-13.53h-1.2l-9.79,13.53H446.11z"/>
		<path class="st1" d="M497.82,1076.79v-6.73h20.55c1.39,0,2.09-0.75,2.09-2.24v-11.36h-1.2c-0.45,1-1.13,1.96-2.05,2.88
			c-0.92,0.92-2.16,1.68-3.7,2.28c-1.54,0.6-3.49,0.9-5.83,0.9c-2.79,0-5.28-0.62-7.47-1.87c-2.19-1.25-3.91-3.01-5.16-5.31
			c-1.25-2.29-1.87-5.01-1.87-8.15v-22.19h7.7v21.6c0,3.19,0.8,5.54,2.39,7.06c1.59,1.52,3.81,2.28,6.65,2.28
			c3.14,0,5.67-1.05,7.58-3.14c1.92-2.09,2.88-5.13,2.88-9.12v-18.68h7.7v44.39c0,2.24-0.66,4.04-1.98,5.38
			c-1.32,1.34-3.13,2.02-5.42,2.02H497.82z"/>
		<path class="st1" d="M537.95,1061.85v-9.42l21.75-19.88v-1.05h-21v-6.5h29.37v9.49l-21.82,19.88v0.97h22.42v6.5H537.95z"/>
		<path class="st1" d="M615.66,1062.89c-6.08,0-10.92-1.73-14.53-5.19c-3.61-3.46-5.42-8.68-5.42-15.66v-12.7
			c0-6.82,1.8-12,5.42-15.54c3.61-3.54,8.46-5.31,14.53-5.31c6.13,0,11,1.77,14.61,5.31c3.61,3.54,5.42,8.72,5.42,15.54v12.7
			c0,6.98-1.81,12.19-5.42,15.66C626.66,1061.16,621.79,1062.89,615.66,1062.89z M615.66,1055.87c4.13,0,7.2-1.18,9.19-3.55
			c1.99-2.37,2.99-5.69,2.99-9.98v-13.45c0-4.28-1.07-7.58-3.21-9.9c-2.14-2.32-5.13-3.47-8.97-3.47c-3.89,0-6.87,1.18-8.97,3.55
			s-3.14,5.64-3.14,9.83v13.45c0,4.38,1.01,7.73,3.03,10.05S611.62,1055.87,615.66,1055.87z"/>
		<path class="st1" d="M659,1061.85v-46.78h-1.2l-8.59,17.63h-8.29l11.58-23.17h14.35v52.31H659z"/>
		<path class="st1" d="M675.89,1061.85v-5.9c0-3.64,0.62-6.62,1.87-8.97c1.24-2.34,3.03-4.25,5.34-5.72c2.32-1.47,5.12-2.7,8.41-3.7
			l4.56-1.42c2.04-0.65,3.8-1.44,5.27-2.39c1.47-0.95,2.6-2.13,3.4-3.55c0.8-1.42,1.2-3.08,1.2-4.97v-0.3c0-2.94-1-5.24-2.99-6.91
			c-1.99-1.67-4.61-2.5-7.85-2.5c-3.34,0-6.04,0.9-8.11,2.69c-2.07,1.79-3.1,4.43-3.1,7.92v1.2h-7.77v-1.12
			c0-3.79,0.82-6.99,2.47-9.6c1.64-2.62,3.91-4.62,6.8-6.01c2.89-1.39,6.13-2.09,9.71-2.09c3.59,0,6.79,0.67,9.6,2.02
			s5.03,3.24,6.65,5.68c1.62,2.44,2.43,5.3,2.43,8.59v0.67c0,3.39-0.67,6.2-2.02,8.44c-1.34,2.24-3.2,4.08-5.57,5.53
			c-2.37,1.45-5.09,2.67-8.18,3.66l-4.41,1.34c-2.34,0.7-4.22,1.46-5.64,2.28c-1.42,0.82-2.47,1.81-3.14,2.95
			c-0.67,1.15-1.01,2.62-1.01,4.41v0.75h29.52v7.02H675.89z"/>
		<path class="st1" d="M739.56,1062.89c-3.84,0-7.25-0.7-10.24-2.09c-2.99-1.39-5.32-3.41-6.99-6.05c-1.67-2.64-2.5-5.78-2.5-9.42
			v-1.34h7.85v1.2c0,3.29,1.08,5.89,3.25,7.81c2.17,1.92,5.04,2.88,8.63,2.88s6.38-0.9,8.37-2.69c1.99-1.79,2.99-4.06,2.99-6.8
			v-0.67c0-1.94-0.47-3.51-1.42-4.71c-0.95-1.2-2.22-2.08-3.81-2.65c-1.6-0.57-3.39-0.86-5.38-0.86h-9.49v-9.04l18.38-10.84v-1.05
			h-28.1v-7.02h36.62v10.61l-17.56,10.46v1.05h3.21c2.64,0,5.13,0.5,7.47,1.49c2.34,1,4.25,2.52,5.72,4.56
			c1.47,2.04,2.21,4.63,2.21,7.77v0.9c0,3.34-0.8,6.24-2.39,8.71c-1.59,2.47-3.84,4.38-6.73,5.75
			C746.75,1062.21,743.39,1062.89,739.56,1062.89z"/>
		<path class="st1" d="M790.74,1061.85v-10.69h-26.45v-9.12l20.03-32.51h14.27v34.67h8.82v6.95h-8.82v10.69H790.74z M771.91,1044.21
			h18.83v-29.74h-1.2l-17.64,28.69V1044.21z"/>
		<path class="st1" d="M831.77,1062.89c-3.94,0-7.35-0.72-10.24-2.17c-2.89-1.44-5.12-3.49-6.69-6.13s-2.35-5.7-2.35-9.19v-0.82h8
			v0.75c0,3.19,0.98,5.74,2.95,7.66c1.97,1.92,4.72,2.88,8.26,2.88c3.64,0,6.45-1,8.44-2.99c1.99-1.99,2.99-4.68,2.99-8.07v-0.67
			c0-3.24-0.98-5.83-2.95-7.77c-1.97-1.94-4.47-2.91-7.51-2.91c-1.69,0-3.1,0.26-4.22,0.78s-2.02,1.16-2.69,1.91
			s-1.23,1.47-1.68,2.17h-9.94v-28.77h35.05v7.1h-27.2v15.39h1.2c0.5-0.85,1.21-1.66,2.13-2.43c0.92-0.77,2.13-1.41,3.62-1.91
			c1.5-0.5,3.29-0.75,5.38-0.75c3.09,0,5.89,0.66,8.41,1.98c2.51,1.32,4.52,3.26,6.02,5.83c1.49,2.57,2.24,5.67,2.24,9.3v0.82
			c0,3.64-0.77,6.8-2.32,9.49s-3.75,4.78-6.61,6.28C839.17,1062.14,835.75,1062.89,831.77,1062.89z"/>
		<path class="st1" d="M172.46,1152.56c-3.79,0-7.12-0.74-10.01-2.2c-2.89-1.47-5.13-3.52-6.73-6.17c-1.59-2.64-2.39-5.7-2.39-9.19
			v-18.08c0-4.08,0.81-7.52,2.43-10.31s3.9-4.89,6.84-6.31c2.94-1.42,6.35-2.13,10.24-2.13c3.84,0,7.15,0.66,9.94,1.98
			c2.79,1.32,4.93,3.19,6.43,5.6c1.49,2.42,2.24,5.24,2.24,8.48h-7.92c0-2.59-0.86-4.75-2.58-6.46s-4.42-2.58-8.11-2.58
			c-3.74,0-6.61,0.98-8.63,2.95c-2.02,1.97-3.03,4.7-3.03,8.18v6.28h1.2c0.85-1.2,2.23-2.34,4.15-3.44
			c1.92-1.09,4.64-1.64,8.18-1.64c3.09,0,5.93,0.67,8.52,2.02c2.59,1.34,4.67,3.26,6.24,5.75s2.35,5.5,2.35,9.04v0.9
			c0,3.44-0.82,6.46-2.47,9.08s-3.92,4.65-6.84,6.09C179.6,1151.84,176.25,1152.56,172.46,1152.56z M172.54,1145.54
			c3.49,0,6.26-0.95,8.33-2.84c2.07-1.89,3.1-4.43,3.1-7.62v-0.6c0-2.14-0.47-4-1.42-5.57c-0.95-1.57-2.28-2.8-4-3.7
			s-3.72-1.34-6.02-1.34c-2.24,0-4.22,0.45-5.94,1.34s-3.05,2.13-4,3.7c-0.95,1.57-1.42,3.43-1.42,5.57v0.6
			c0,3.19,1.03,5.73,3.1,7.62C166.35,1144.59,169.1,1145.54,172.54,1145.54z"/>
		<path class="st1" d="M204.59,1151.52v-1.87c0-1.89,0.15-3.47,0.45-4.75s0.92-2.75,1.87-4.45l18.68-33.25v-0.97h-29.37v-7.02h37.51
			v9.27l-19.65,35.27c-0.6,1.1-1.02,2.08-1.27,2.95c-0.25,0.87-0.37,1.96-0.37,3.25v1.57H204.59z"/>
		<path class="st1" d="M258.62,1152.56c-4.04,0-7.56-0.6-10.57-1.79c-3.01-1.2-5.36-2.93-7.02-5.19c-1.67-2.27-2.5-4.92-2.5-7.96
			v-0.82c0-2.49,0.49-4.55,1.46-6.17c0.97-1.62,2.17-2.89,3.59-3.81c1.42-0.92,2.75-1.53,4-1.83v-1.2
			c-1.25-0.35-2.52-0.98-3.81-1.91c-1.3-0.92-2.35-2.14-3.18-3.66c-0.82-1.52-1.23-3.35-1.23-5.49v-0.82c0-2.79,0.81-5.21,2.43-7.25
			c1.62-2.04,3.87-3.64,6.76-4.78c2.89-1.15,6.25-1.72,10.09-1.72c3.79,0,7.12,0.57,10.01,1.72c2.89,1.15,5.14,2.74,6.76,4.78
			c1.62,2.04,2.43,4.46,2.43,7.25v0.82c0,2.14-0.41,3.97-1.23,5.49s-1.86,2.74-3.1,3.66c-1.25,0.92-2.52,1.56-3.81,1.91v1.2
			c1.29,0.3,2.64,0.91,4.04,1.83c1.39,0.92,2.57,2.19,3.51,3.81c0.95,1.62,1.42,3.67,1.42,6.17v0.82c0,3.04-0.83,5.69-2.5,7.96
			c-1.67,2.27-4.01,4-7.02,5.19C266.11,1151.96,262.61,1152.56,258.62,1152.56z M258.62,1145.54c3.79,0,6.76-0.73,8.93-2.2
			c2.17-1.47,3.25-3.52,3.25-6.17v-0.6c0-2.69-1.06-4.77-3.18-6.24c-2.12-1.47-5.12-2.21-9-2.21s-6.9,0.74-9.04,2.21
			c-2.14,1.47-3.21,3.55-3.21,6.24v0.6c0,2.64,1.08,4.7,3.25,6.17C251.78,1144.8,254.79,1145.54,258.62,1145.54z M258.62,1121.1
			c3.54,0,6.31-0.67,8.33-2.02c2.02-1.34,3.03-3.24,3.03-5.68v-0.6c0-2.44-1.02-4.32-3.06-5.64c-2.04-1.32-4.81-1.98-8.29-1.98
			c-3.54,0-6.33,0.66-8.37,1.98c-2.04,1.32-3.06,3.2-3.06,5.64v0.6c0,2.44,1.01,4.33,3.03,5.68
			C252.23,1120.43,255.04,1121.1,258.62,1121.1z"/>
		<path class="st1" d="M303.83,1152.56c-3.89,0-7.22-0.66-10.01-1.98c-2.79-1.32-4.93-3.19-6.43-5.6c-1.5-2.42-2.24-5.24-2.24-8.48
			h8c0,2.59,0.86,4.75,2.58,6.46c1.72,1.72,4.42,2.58,8.11,2.58c3.74,0,6.6-1,8.59-2.99c1.99-1.99,2.99-4.71,2.99-8.15v-6.28h-1.2
			c-0.85,1.2-2.22,2.34-4.11,3.44c-1.89,1.1-4.63,1.64-8.22,1.64c-3.04,0-5.85-0.67-8.44-2.02c-2.59-1.35-4.67-3.28-6.24-5.79
			c-1.57-2.51-2.35-5.52-2.35-9v-0.9c0-3.49,0.81-6.53,2.43-9.12c1.62-2.59,3.89-4.61,6.8-6.05c2.91-1.44,6.26-2.17,10.05-2.17
			c3.84,0,7.19,0.74,10.05,2.2c2.86,1.47,5.09,3.51,6.69,6.13c1.59,2.62,2.39,5.69,2.39,9.23v18.08c0,4.08-0.81,7.52-2.43,10.31
			c-1.62,2.79-3.89,4.89-6.8,6.31C311.12,1151.85,307.72,1152.56,303.83,1152.56z M304.05,1126.86c2.29,0,4.28-0.45,5.98-1.35
			c1.69-0.9,3.01-2.13,3.96-3.7c0.95-1.57,1.42-3.42,1.42-5.57v-0.6c0-3.24-1.03-5.79-3.1-7.66c-2.07-1.87-4.82-2.8-8.26-2.8
			c-3.44,0-6.19,0.93-8.26,2.8c-2.07,1.87-3.1,4.42-3.1,7.66v0.6c0,2.14,0.46,4,1.38,5.57c0.92,1.57,2.24,2.8,3.96,3.7
			S301.76,1126.86,304.05,1126.86z"/>
		<path class="st1" d="M337.68,1152.56c-1.75,0-3.2-0.57-4.37-1.72c-1.17-1.15-1.76-2.62-1.76-4.41c0-1.79,0.58-3.25,1.76-4.37
			c1.17-1.12,2.63-1.68,4.37-1.68c1.74,0,3.2,0.57,4.37,1.72c1.17,1.15,1.76,2.59,1.76,4.33c0,1.79-0.59,3.26-1.76,4.41
			C340.88,1151.99,339.42,1152.56,337.68,1152.56z M333.72,1135.9v-36.69h7.85v36.69H333.72z"/>
		<path class="st1" d="M387.45,1166.46c-6.92,0-12.94-1.33-18.05-4c-5.11-2.67-9.05-6.46-11.84-11.4
			c-2.79-4.93-4.19-10.86-4.19-17.79v-1.72c0-6.88,1.35-12.78,4.04-17.71c2.69-4.93,6.51-8.72,11.47-11.36
			c4.96-2.64,10.77-3.96,17.45-3.96h1.57c6.28,0,11.76,1.28,16.44,3.85c4.68,2.57,8.32,6.18,10.91,10.84
			c2.59,4.66,3.89,10.15,3.89,16.48v4.11c0,5.78-1.11,10.18-3.33,13.19c-2.22,3.01-5.44,4.52-9.68,4.52h-3.44
			c-2.19,0-3.86-0.46-5.01-1.38c-1.15-0.92-1.72-2.18-1.72-3.77v-0.45h-1.2c-0.4,1.05-1.01,2.05-1.83,3.03
			c-0.82,0.97-1.89,1.76-3.21,2.35c-1.32,0.6-3.03,0.9-5.12,0.9c-3.04,0-5.72-0.82-8.03-2.47c-2.32-1.64-4.11-3.85-5.38-6.61
			c-1.27-2.77-1.91-5.89-1.91-9.38v-1.27c0-3.49,0.62-6.61,1.87-9.38c1.25-2.76,2.98-4.96,5.19-6.58c2.22-1.62,4.79-2.43,7.73-2.43
			c2.04,0,3.72,0.26,5.04,0.78c1.32,0.52,2.38,1.21,3.18,2.05c0.8,0.85,1.44,1.75,1.94,2.69h1.2v-4.86h7.47v27.72
			c0,0.75,0.16,1.31,0.49,1.68c0.32,0.37,0.86,0.56,1.61,0.56h0.6c2.14,0,3.67-0.88,4.6-2.65c0.92-1.77,1.38-4.57,1.38-8.41v-3.81
			c0-5.08-0.92-9.44-2.76-13.08c-1.84-3.64-4.52-6.43-8.03-8.37c-3.51-1.94-7.86-2.91-13.04-2.91h-1.2c-5.18,0-9.7,1-13.56,2.99
			c-3.86,1.99-6.84,4.94-8.93,8.85c-2.09,3.91-3.14,8.76-3.14,14.53v1.2c0,5.73,1.09,10.56,3.29,14.5c2.19,3.94,5.31,6.91,9.34,8.93
			s8.82,3.03,14.35,3.03h15.09v6.95H387.45z M386.1,1145.46c2.79,0,5.04-1.06,6.76-3.18c1.72-2.12,2.58-5.04,2.58-8.78v-0.82
			c0-3.74-0.86-6.66-2.58-8.78c-1.72-2.12-3.97-3.18-6.76-3.18c-2.79,0-5.02,1.07-6.69,3.21c-1.67,2.14-2.5,5.06-2.5,8.74v0.9
			c0,3.69,0.83,6.59,2.5,8.71C381.08,1144.41,383.31,1145.46,386.1,1145.46z"/>
		<path class="st1" d="M436.02,1151.52v-14.57h-8.74v-6.65h8.74v-9.86h-8.74v-6.65h8.74v-14.57h7.02v14.57h9.56v-14.57h6.95v14.57
			h8.82v6.65h-8.82v9.86h8.82v6.65h-8.82v14.57h-6.95v-14.57h-9.56v14.57H436.02z M443.04,1130.29h9.56v-9.86h-9.56V1130.29z"/>
		<path class="st1" d="M494.68,1152.56c-3.94,0-7.42-0.7-10.46-2.09c-3.04-1.39-5.42-3.45-7.14-6.17c-1.72-2.71-2.58-6.02-2.58-9.9
			v-1.87h8v1.87c0,3.69,1.11,6.45,3.33,8.29c2.22,1.84,5.17,2.76,8.86,2.76c3.74,0,6.55-0.79,8.44-2.35
			c1.89-1.57,2.84-3.6,2.84-6.09c0-1.64-0.44-2.99-1.31-4.04c-0.87-1.05-2.13-1.88-3.77-2.5c-1.64-0.62-3.61-1.21-5.9-1.76
			l-2.77-0.67c-3.34-0.8-6.23-1.78-8.67-2.95c-2.44-1.17-4.33-2.73-5.68-4.67c-1.35-1.94-2.02-4.43-2.02-7.47
			c0-3.09,0.75-5.73,2.24-7.92c1.5-2.19,3.59-3.89,6.28-5.08c2.69-1.2,5.85-1.79,9.49-1.79c3.64,0,6.89,0.62,9.75,1.87
			c2.86,1.25,5.13,3.09,6.8,5.53c1.67,2.44,2.5,5.51,2.5,9.19v2.69h-8v-2.69c0-2.24-0.46-4.06-1.38-5.46
			c-0.92-1.39-2.22-2.42-3.89-3.06c-1.67-0.65-3.6-0.97-5.79-0.97c-3.19,0-5.65,0.66-7.4,1.98c-1.74,1.32-2.62,3.15-2.62,5.49
			c0,1.6,0.39,2.9,1.16,3.92c0.77,1.02,1.91,1.86,3.4,2.5c1.49,0.65,3.34,1.22,5.53,1.72l2.77,0.67c3.39,0.75,6.38,1.71,8.97,2.88
			c2.59,1.17,4.62,2.75,6.09,4.75c1.47,1.99,2.21,4.56,2.21,7.7s-0.79,5.88-2.35,8.22c-1.57,2.34-3.8,4.17-6.69,5.49
			C502.03,1151.9,498.61,1152.56,494.68,1152.56z M490.94,1160.18v-69.64h7.4v69.64H490.94z"/>
		<path class="st1" d="M531.22,1121.92c-3.69,0-6.61-1.03-8.78-3.1s-3.25-4.87-3.25-8.41v-0.52c0-3.59,1.08-6.4,3.25-8.44
			c2.17-2.04,5.09-3.06,8.78-3.06c3.64,0,6.54,1.02,8.71,3.06c2.17,2.04,3.25,4.86,3.25,8.44v0.52c0,3.54-1.07,6.34-3.21,8.41
			C537.82,1120.89,534.91,1121.92,531.22,1121.92z M527.48,1152.49l-4.78-3.89l40.88-50.37l4.78,3.89L527.48,1152.49z
			 M531.22,1116.69c1.74,0,3.13-0.56,4.15-1.68c1.02-1.12,1.53-2.58,1.53-4.37v-1.05c0-1.79-0.51-3.24-1.53-4.33
			c-1.02-1.09-2.4-1.64-4.15-1.64c-1.79,0-3.2,0.55-4.22,1.64c-1.02,1.1-1.53,2.54-1.53,4.33v1.05c0,1.79,0.51,3.25,1.53,4.37
			C528.02,1116.13,529.43,1116.69,531.22,1116.69z M559.84,1152.34c-3.69,0-6.6-1.03-8.74-3.1c-2.14-2.07-3.21-4.87-3.21-8.41v-0.45
			c0-3.59,1.07-6.41,3.21-8.48s5.06-3.1,8.74-3.1c3.64,0,6.55,1.03,8.74,3.1c2.19,2.07,3.29,4.89,3.29,8.48v0.45
			c0,3.54-1.08,6.34-3.25,8.41C566.45,1151.31,563.53,1152.34,559.84,1152.34z M559.84,1147.11c1.79,0,3.2-0.55,4.22-1.64
			c1.02-1.1,1.53-2.54,1.53-4.33v-1.05c0-1.84-0.51-3.31-1.53-4.41c-1.02-1.1-2.43-1.64-4.22-1.64c-1.74,0-3.13,0.55-4.15,1.64
			c-1.02,1.1-1.53,2.57-1.53,4.41v1.05c0,1.79,0.51,3.24,1.53,4.33C556.71,1146.56,558.09,1147.11,559.84,1147.11z"/>
		<path class="st1" d="M579.49,1119.83l11.96-20.62h11.66l11.96,20.62h-8.74l-8.44-15.62h-1.2l-8.37,15.62H579.49z"/>
		<path class="st1" d="M638.53,1151.52c-2.99,0-5.64-0.55-7.96-1.64c-2.32-1.1-4.13-2.69-5.46-4.78c-1.32-2.09-1.98-4.61-1.98-7.55
			c0-2.19,0.4-4.08,1.2-5.68c0.8-1.59,1.88-2.93,3.25-4c1.37-1.07,2.85-1.86,4.45-2.35v-0.97c-2.39-0.75-4.41-2.04-6.05-3.89
			c-1.64-1.84-2.47-4.33-2.47-7.47c0-3.04,0.68-5.59,2.06-7.66c1.37-2.07,3.2-3.64,5.49-4.71c2.29-1.07,4.88-1.61,7.77-1.61h8.82
			v6.5h-7.55c-2.49,0-4.58,0.66-6.28,1.98c-1.69,1.32-2.54,3.35-2.54,6.09c0,1.89,0.41,3.43,1.23,4.6c0.82,1.17,1.89,2.04,3.21,2.62
			c1.32,0.57,2.78,0.86,4.37,0.86h8.74v-7.4h7.7v7.4h7.1v6.5h-7.1v23.17H638.53z M639.8,1145.02h9.04v-16.66h-9.04
			c-2.49,0-4.61,0.69-6.35,2.05c-1.74,1.37-2.62,3.47-2.62,6.31s0.9,4.93,2.69,6.28C635.31,1144.34,637.4,1145.02,639.8,1145.02z"/>
		<path class="st1" d="M668.49,1118.04v-4.78h6.13l5.23,0.82l0.37-0.9l-4.26-3.14l-4.33-4.33l3.36-3.36l4.33,4.26l3.14,4.33
			l0.9-0.37l-0.82-5.31v-6.05h4.78v6.05l-0.82,5.31l0.9,0.37l3.14-4.33l4.33-4.26l3.36,3.36l-4.26,4.33l-4.33,3.14l0.37,0.9
			l5.23-0.82h6.13v4.78h-6.13l-5.23-0.82l-0.37,0.9l4.33,3.14l4.26,4.33l-3.36,3.36l-4.33-4.33l-3.14-4.33l-0.9,0.37l0.82,5.31v6.05
			h-4.78v-6.05l0.82-5.31l-0.9-0.37l-3.14,4.33l-4.33,4.33l-3.36-3.36l4.33-4.33l4.26-3.14l-0.37-0.9l-5.23,0.82H668.49z"/>
		<path class="st1" d="M733.13,1169.45c-5.18,0-9.59-0.9-13.23-2.69s-6.39-4.6-8.26-8.41c-1.87-3.81-2.8-8.71-2.8-14.68v-22.42
			c0-5.98,0.93-10.87,2.8-14.68c1.87-3.81,4.62-6.61,8.26-8.41s8.04-2.69,13.23-2.69v6.58c-5.68,0.05-9.9,1.66-12.67,4.82
			c-2.76,3.16-4.15,8.06-4.15,14.68v21.82c0,6.63,1.38,11.52,4.15,14.68c2.77,3.16,6.99,4.77,12.67,4.82V1169.45z"/>
		<path class="st1" d="M735.29,1169.45v-6.58c5.78-0.05,10.04-1.66,12.78-4.82c2.74-3.16,4.11-8.06,4.11-14.68v-21.82
			c0-6.62-1.37-11.52-4.11-14.68c-2.74-3.16-7-4.77-12.78-4.82v-6.58c5.23,0,9.65,0.9,13.26,2.69c3.61,1.79,6.35,4.6,8.22,8.41
			c1.87,3.81,2.8,8.71,2.8,14.68v22.42c0,5.98-0.93,10.87-2.8,14.68c-1.87,3.81-4.61,6.61-8.22,8.41
			C744.95,1168.55,740.52,1169.45,735.29,1169.45z"/>
		<path class="st1" d="M769,1162.13v-6.95h35.72v6.95H769z"/>
		<path class="st1" d="M829.52,1140.98v-12.11h-11.96v-7.02h11.96v-12.11h7.32v12.11h11.96v7.02h-11.96v12.11H829.52z"/>
	</g>
	<g>
		<rect x="1104.83" class="st1" width="1" height="1334"/>
	</g>
	<g>
		<rect x="1275.54" class="st1" width="1" height="1334"/>
	</g>
	<g>
		<rect x="1446.25" class="st1" width="1" height="1334"/>
	</g>
	<g>
		<path class="st2" d="M1092.61,1138.27c-16.01,0-29.19-3.71-39.52-11.14c-10.34-7.42-15.5-17.97-15.5-31.66
			c0-13.68,5.02-23.8,15.07-30.35c10.04-6.55,22.63-9.83,37.77-9.83h14.9v-22.71h-15.33c-14.56,0-27.8,2.33-39.74,6.99
			c-11.94,4.66-21.4,11.65-28.38,20.96c-6.99,9.32-10.48,21.11-10.48,35.37c0,13.97,3.49,25.91,10.48,35.81
			c6.99,9.9,16.52,17.4,28.6,22.49c12.08,5.09,25.55,7.64,40.39,7.64c5.13,0,9.94-0.24,14.46-0.71v-23.66
			C1101.25,1138,1097.02,1138.27,1092.61,1138.27z"/>
		<path class="st2" d="M1034.54,970.37c-7.57,10.04-13.1,21.33-16.59,33.84l25.33,7.42c3.78-15.43,11.14-27.73,22.05-36.9
			c10.06-8.45,23.4-13,40.01-13.66v-23.61c-15.63,0.46-29.19,3.42-40.66,8.88C1052.15,952.32,1042.1,960.32,1034.54,970.37z"/>
	</g>
	<g>
		<path class="st2" d="M1262.42,1128.95c-16.13,0-29.27-3.7-39.43-11.13c-10.16-7.42-15.24-17.74-15.24-30.97
			c0-13.22,4.91-23.14,14.76-29.76c9.84-6.61,22.33-9.92,37.5-9.92h15.21v-30.97h-16.66c-16.78,0-31.93,2.66-45.48,7.98
			c-13.55,5.32-24.19,13.23-31.93,23.71c-7.74,10.49-11.61,23.79-11.61,39.92c0,15.81,3.87,29.2,11.61,40.16
			c7.74,10.97,18.39,19.35,31.93,25.16c13.55,5.81,28.55,8.71,45,8.71c6.14,0,11.85-0.3,17.14-0.91v-32.77
			C1271.11,1128.69,1266.85,1128.95,1262.42,1128.95z"/>
		<path class="st2" d="M1196.14,947.76c-8.39,10.81-14.52,22.82-18.39,36.05l35.8,11.61c3.87-15.48,11.13-27.82,21.77-37.01
			c9.76-8.43,23.06-12.99,39.88-13.68V911.8c-17.5,0.53-32.65,3.81-45.45,9.83C1215.73,928.24,1204.52,936.95,1196.14,947.76z"/>
	</g>
	<g>
		<path class="st2" d="M1433.98,1116.36c-16.06,0-28.73-3.56-38-10.7c-9.28-7.13-13.92-16.77-13.92-28.9
			c0-12.13,4.46-21.32,13.38-27.56c8.92-6.24,20.69-9.37,35.33-9.37h15.35V997h-18.57c-19.27,0-36.49,3.04-51.65,9.1
			c-15.17,6.07-27.12,15.08-35.86,27.03c-8.75,11.96-13.11,27.03-13.11,45.23c0,17.85,4.37,33.01,13.11,45.5
			c8.74,12.49,20.52,21.94,35.33,28.37c14.8,6.42,31.66,9.63,50.58,9.63c7.3,0,14.02-0.42,20.17-1.26v-44.93
			C1442.22,1116.13,1438.18,1116.36,1433.98,1116.36z"/>
		<path class="st2" d="M1394.9,893.7c-15.71,7.14-28.28,16.51-37.73,28.1c-9.46,11.6-16.32,24.54-20.61,38.81l51.38,16.59
			c3.21-14.27,9.81-25.87,19.8-34.79c9.09-8.11,21.88-12.53,38.37-13.26v-46.07C1426.35,883.63,1409.28,887.17,1394.9,893.7z"/>
	</g>
</g>
<g>
</g>
<g>
</g>
<g>
</g>
<g>
</g>
<g>
</g>
<g>
</g>
<g>
</g>
<g>
</g>
<g>
</g>
<g>
</g>
<g>
</g>
<g>
</g>
<g>
</g>
<g>
</g>
<g>
</g>
</svg>
