<?xml version="1.0" encoding="utf-8"?>
<!-- Generator: Adobe Illustrator 26.3.1, SVG Export Plug-In . SVG Version: 6.00 Build 0)  -->
<svg version="1.1" id="Layer_1" xmlns="http://www.w3.org/2000/svg" xmlns:xlink="http://www.w3.org/1999/xlink" x="0px" y="0px"
	 viewBox="0 0 742.1 434.7" style="enable-background:new 0 0 742.1 434.7;" xml:space="preserve">
<style type="text/css">
	.st0{stroke:#969696;stroke-width:6;stroke-miterlimit:10;}
	.st1{fill:none;stroke:#000000;stroke-miterlimit:10;}
	.st2{fill:#D5E1EF;}
	.st3{fill:none;stroke:#000000;stroke-width:0.5;stroke-miterlimit:10;}
	.st4{fill:#EBD4D4;}
	.st5{fill:#FF0000;}
	.st6{fill:none;}
	.st7{fill:#D4E8DF;}
	.st8{fill:#22B273;}
</style>
<g>
	<path class="st7" d="M687.6,434.7H54.5C24.4,434.7,0,410.3,0,380.2V54.5C0,24.4,24.4,0,54.5,0h633.1c30.1,0,54.5,24.4,54.5,54.5
		v325.7C742.1,410.3,717.7,434.7,687.6,434.7z"/>
	<line class="st3" x1="588.6" y1="199.4" x2="153.6" y2="199.4"/>
	<g>
		<g>
			<path d="M341,173.4c-1.4,0-2.7-0.2-3.9-0.7c-1.2-0.5-2.3-1.2-3.2-2.2s-1.6-2.1-2.2-3.5c-0.5-1.4-0.8-3-0.8-4.8
				c0-2.4,0.4-4.4,1.3-6.1s2.1-3,3.6-3.9s3.3-1.3,5.2-1.3c2.7,0,4.8,0.6,6.3,1.9c1.6,1.2,2.6,3,3.2,5.2l-3.7,0.6
				c-0.4-1.3-1.1-2.3-2-3.1c-0.9-0.8-2.1-1.1-3.6-1.1s-2.7,0.3-3.6,0.9c-1,0.6-1.7,1.6-2.2,2.7c-0.5,1.2-0.7,2.6-0.7,4.1
				s0.2,3,0.7,4.1c0.5,1.2,1.2,2.1,2.2,2.7c1,0.7,2.2,1,3.6,1c1.1,0,2-0.2,2.9-0.6c0.8-0.4,1.5-1,2-1.8s0.9-1.9,1-3.1h-3.8v-2.8h7.6
				c0,0.2,0,0.4,0,0.7c0,0.3,0,0.5,0,0.6c0,2-0.4,3.9-1.2,5.4c-0.8,1.6-2,2.8-3.5,3.7C344.9,172.9,343.1,173.4,341,173.4z"/>
			<path d="M361.2,173.4c-1.6,0-3-0.4-4.2-1.1s-2.1-1.7-2.8-3c-0.7-1.3-1-2.8-1-4.4c0-1.7,0.3-3.2,1-4.5s1.6-2.3,2.8-3
				c1.2-0.7,2.6-1.1,4.2-1.1s3,0.4,4.3,1.1c1.2,0.7,2.1,1.7,2.8,3s1,2.8,1,4.4c0,1.7-0.3,3.2-1,4.4c-0.7,1.3-1.6,2.3-2.8,3
				C364.2,173,362.8,173.4,361.2,173.4z M361.2,170c1.4,0,2.5-0.5,3.2-1.4c0.7-1,1.1-2.2,1.1-3.7c0-1.6-0.4-2.8-1.1-3.8
				c-0.7-0.9-1.8-1.4-3.2-1.4c-1,0-1.8,0.2-2.4,0.7c-0.6,0.4-1.1,1-1.4,1.8s-0.5,1.7-0.5,2.7c0,1.6,0.4,2.8,1.1,3.8
				C358.8,169.5,359.8,170,361.2,170z"/>
			<path d="M377.1,173.4c-1.2,0-2.2-0.2-3-0.7c-0.8-0.4-1.4-1-1.8-1.8s-0.6-1.6-0.6-2.4s0.1-1.5,0.4-2.1s0.7-1.2,1.2-1.6
				c0.5-0.5,1.2-0.8,2.1-1.1c0.7-0.2,1.4-0.4,2.3-0.6s1.8-0.3,2.8-0.5c1-0.1,2.1-0.3,3.2-0.5l-1.3,0.7c0-1.1-0.2-1.9-0.8-2.5
				c-0.5-0.5-1.4-0.8-2.6-0.8c-0.7,0-1.4,0.2-2.1,0.5s-1.2,0.9-1.4,1.8l-3.3-1c0.4-1.4,1.2-2.5,2.3-3.3s2.6-1.2,4.6-1.2
				c1.4,0,2.7,0.2,3.8,0.7c1.1,0.5,1.9,1.2,2.4,2.3c0.3,0.6,0.5,1.2,0.5,1.7c0.1,0.6,0.1,1.2,0.1,1.9v9.9h-3.2v-3.5l0.5,0.6
				c-0.7,1.2-1.6,2-2.6,2.6S378.6,173.4,377.1,173.4z M377.8,170.5c0.8,0,1.5-0.1,2.1-0.4s1-0.6,1.4-1.1c0.3-0.4,0.6-0.8,0.7-1.2
				c0.2-0.5,0.3-1,0.3-1.6s0-1.1,0-1.4l1.1,0.3c-1.1,0.2-2,0.3-2.8,0.5c-0.8,0.1-1.5,0.3-2,0.4c-0.6,0.1-1.1,0.2-1.5,0.4
				c-0.4,0.2-0.8,0.3-1.1,0.5s-0.5,0.4-0.7,0.7c-0.2,0.3-0.2,0.6-0.2,0.9c0,0.4,0.1,0.8,0.3,1.1c0.2,0.3,0.5,0.5,0.9,0.7
				C376.8,170.4,377.3,170.5,377.8,170.5z"/>
			<path d="M390.2,172.9v-22h3.6v22H390.2z"/>
			<path d="M404.5,173.4c-2,0-3.6-0.5-4.9-1.4c-1.2-0.9-2-2.2-2.3-3.8l3.7-0.6c0.2,0.8,0.6,1.4,1.3,1.9c0.7,0.5,1.5,0.7,2.5,0.7
				c0.9,0,1.5-0.2,2-0.5s0.7-0.8,0.7-1.4c0-0.4-0.1-0.7-0.3-0.9c-0.2-0.2-0.6-0.4-1.1-0.7s-1.5-0.5-2.7-0.8
				c-1.4-0.4-2.4-0.7-3.2-1.2s-1.4-0.9-1.7-1.5c-0.4-0.6-0.5-1.3-0.5-2.1c0-1,0.3-1.9,0.8-2.6s1.3-1.3,2.2-1.7
				c0.9-0.4,2.1-0.6,3.4-0.6s2.4,0.2,3.4,0.6s1.8,0.9,2.4,1.7c0.6,0.7,1,1.6,1.1,2.5l-3.7,0.7c-0.1-0.7-0.4-1.2-0.9-1.6
				s-1.2-0.6-2.1-0.7c-0.9,0-1.5,0.1-2.1,0.4c-0.5,0.3-0.8,0.7-0.8,1.3c0,0.3,0.1,0.6,0.3,0.8s0.6,0.4,1.3,0.7
				c0.6,0.2,1.6,0.5,2.8,0.8c1.3,0.3,2.3,0.7,3.1,1.1c0.8,0.4,1.3,0.9,1.7,1.5s0.5,1.3,0.5,2.1c0,1.6-0.6,2.9-1.8,3.8
				C408.3,172.9,406.6,173.4,404.5,173.4z"/>
		</g>
	</g>
	<g>
		<rect x="154.3" y="237.2" class="st6" width="481.1" height="146.4"/>
		<path d="M162.9,254.6c-0.6,0-1.1-0.1-1.6-0.4s-0.8-0.6-1.1-1.1c-0.3-0.5-0.4-1-0.4-1.6s0.1-1.1,0.4-1.6c0.3-0.5,0.7-0.8,1.1-1.1
			c0.5-0.3,1-0.4,1.6-0.4c0.5,0,1,0.1,1.5,0.4s0.8,0.6,1.1,1.1c0.3,0.5,0.4,1,0.4,1.6s-0.1,1.1-0.4,1.6s-0.6,0.8-1.1,1.1
			S163.5,254.6,162.9,254.6z"/>
		<path d="M177.2,259.8l6.5-18.9h2.6l6.5,18.9h-2l-6.2-17.9h0.8l-6.2,17.9H177.2z M180.1,255.2v-1.8h9.8v1.8H180.1z"/>
		<path d="M206.4,260.2c-1.4,0-2.6-0.3-3.6-1s-1.7-1.5-2.3-2.6c-0.5-1.1-0.8-2.4-0.8-3.9s0.3-2.8,0.8-3.9s1.3-2,2.3-2.6
			s2.2-0.9,3.6-0.9s2.7,0.4,3.8,1.1c1.1,0.7,1.8,1.7,2.2,2.9l-1.9,0.6c-0.3-0.9-0.9-1.5-1.6-2c-0.7-0.5-1.5-0.7-2.5-0.7
			s-1.9,0.2-2.6,0.7s-1.2,1.1-1.5,2c-0.3,0.9-0.5,1.8-0.5,2.9c0,1.7,0.4,3.1,1.2,4.1c0.8,1,1.9,1.5,3.4,1.5c1,0,1.8-0.2,2.5-0.7
			c0.7-0.4,1.2-1.1,1.5-1.9l1.9,0.6c-0.5,1.3-1.3,2.2-2.3,2.9C209,259.9,207.8,260.2,206.4,260.2z"/>
		<path d="M214.9,259.8v-19.3h1.9v19.3H214.9z"/>
		<path d="M226.8,260.2c-1.4,0-2.6-0.3-3.6-0.9s-1.8-1.5-2.4-2.6s-0.8-2.4-0.8-3.9c0-1.6,0.3-2.9,0.8-4c0.6-1.1,1.3-2,2.3-2.6
			s2.2-0.9,3.6-0.9s2.6,0.3,3.6,1c1,0.6,1.7,1.6,2.2,2.8c0.5,1.2,0.7,2.6,0.7,4.3h-2v-0.7c0-1.8-0.4-3.2-1.2-4.2
			c-0.8-0.9-1.9-1.4-3.3-1.4c-1.5,0-2.7,0.5-3.5,1.5s-1.2,2.4-1.2,4.2c0,1.8,0.4,3.2,1.2,4.2s2,1.5,3.5,1.5c1,0,1.9-0.2,2.7-0.7
			s1.4-1.1,1.8-2l1.8,0.7c-0.6,1.2-1.4,2.2-2.5,2.9C229.4,259.9,228.2,260.2,226.8,260.2z M221.4,253.3v-1.6h10.8v1.6H221.4z"/>
		<path d="M239.9,260.2c-1.1,0-2-0.2-2.7-0.6s-1.3-0.9-1.6-1.5c-0.4-0.6-0.5-1.3-0.5-2.1c0-0.8,0.2-1.4,0.5-2c0.3-0.5,0.7-1,1.3-1.3
			s1.2-0.6,1.9-0.8c0.7-0.2,1.5-0.3,2.4-0.5s1.7-0.3,2.6-0.4c0.8-0.1,1.6-0.2,2.2-0.3l-0.7,0.4c0-1.4-0.2-2.4-0.8-3.1s-1.6-1-3-1
			c-1,0-1.8,0.2-2.5,0.7c-0.7,0.4-1.1,1.1-1.4,2.1l-1.9-0.6c0.3-1.3,1-2.3,2-3s2.3-1.1,3.8-1.1c1.3,0,2.4,0.2,3.3,0.7
			s1.5,1.2,1.9,2.1c0.2,0.4,0.3,0.9,0.3,1.4c0.1,0.5,0.1,1,0.1,1.6v8.8h-1.7v-3.6l0.5,0.2c-0.5,1.2-1.2,2.1-2.2,2.8
			S241.4,260.2,239.9,260.2z M240.2,258.5c0.9,0,1.7-0.2,2.4-0.5c0.7-0.3,1.2-0.8,1.6-1.3s0.7-1.2,0.8-1.9c0.1-0.5,0.2-1,0.2-1.5
			s0-1,0-1.2l0.7,0.4c-0.7,0.1-1.4,0.2-2.1,0.3c-0.8,0.1-1.5,0.2-2.3,0.3c-0.7,0.1-1.4,0.2-2,0.4c-0.4,0.1-0.8,0.3-1.2,0.5
			c-0.4,0.2-0.7,0.5-0.9,0.8s-0.4,0.8-0.4,1.3c0,0.4,0.1,0.8,0.3,1.2c0.2,0.4,0.5,0.7,1,1C238.8,258.4,239.4,258.5,240.2,258.5z"/>
		<path d="M250.5,259.8v-14.2h1.7v3.4l-0.3-0.4c0.2-0.4,0.4-0.8,0.6-1.2c0.3-0.4,0.5-0.6,0.8-0.9c0.4-0.3,0.8-0.6,1.3-0.7
			s1-0.3,1.5-0.3s1,0,1.4,0.1v1.8c-0.5-0.1-1.1-0.2-1.7-0.1s-1.2,0.3-1.7,0.7c-0.5,0.4-0.8,0.8-1.1,1.3c-0.2,0.5-0.4,1.1-0.5,1.6
			c-0.1,0.6-0.1,1.1-0.1,1.7v7.1L250.5,259.8L250.5,259.8z"/>
		<path d="M265.2,259.8v-14.2h1.7v3.5h0.2v10.7H265.2z M275.5,259.8v-7.2c0-0.8-0.1-1.5-0.2-2.2s-0.4-1.2-0.7-1.7
			c-0.3-0.5-0.8-0.9-1.3-1.2c-0.5-0.3-1.2-0.4-1.9-0.4c-0.7,0-1.3,0.1-1.8,0.4c-0.5,0.2-1,0.6-1.3,1c-0.4,0.4-0.6,1-0.8,1.6
			c-0.2,0.6-0.3,1.3-0.3,2.2l-1.4-0.3c0-1.5,0.3-2.7,0.8-3.7s1.2-1.7,2.1-2.2s1.9-0.8,3.1-0.8c0.9,0,1.6,0.1,2.2,0.4
			s1.2,0.6,1.6,1.1c0.4,0.4,0.8,1,1.1,1.5c0.3,0.6,0.5,1.2,0.6,1.8c0.1,0.6,0.2,1.3,0.2,1.9v7.8L275.5,259.8L275.5,259.8z"/>
		<path d="M284.9,260.2c-1.1,0-2-0.2-2.7-0.6s-1.3-0.9-1.6-1.5c-0.4-0.6-0.5-1.3-0.5-2.1c0-0.8,0.2-1.4,0.5-2c0.3-0.5,0.7-1,1.3-1.3
			s1.2-0.6,1.9-0.8c0.7-0.2,1.5-0.3,2.4-0.5s1.7-0.3,2.6-0.4c0.8-0.1,1.6-0.2,2.2-0.3l-0.7,0.4c0-1.4-0.2-2.4-0.8-3.1s-1.6-1-3-1
			c-1,0-1.8,0.2-2.5,0.7c-0.7,0.4-1.1,1.1-1.4,2.1l-1.9-0.6c0.3-1.3,1-2.3,2-3s2.3-1.1,3.8-1.1c1.3,0,2.4,0.2,3.3,0.7
			s1.5,1.2,1.9,2.1c0.2,0.4,0.3,0.9,0.3,1.4c0.1,0.5,0.1,1,0.1,1.6v8.8h-1.7v-3.6l0.5,0.2c-0.5,1.2-1.2,2.1-2.2,2.8
			S286.3,260.2,284.9,260.2z M285.1,258.5c0.9,0,1.7-0.2,2.4-0.5c0.7-0.3,1.2-0.8,1.6-1.3s0.7-1.2,0.8-1.9c0.1-0.5,0.2-1,0.2-1.5
			s0-1,0-1.2l0.7,0.4c-0.7,0.1-1.4,0.2-2.1,0.3c-0.8,0.1-1.5,0.2-2.3,0.3c-0.7,0.1-1.4,0.2-2,0.4c-0.4,0.1-0.8,0.3-1.2,0.5
			c-0.4,0.2-0.7,0.5-0.9,0.8s-0.4,0.8-0.4,1.3c0,0.4,0.1,0.8,0.3,1.2c0.2,0.4,0.5,0.7,1,1C283.8,258.4,284.4,258.5,285.1,258.5z"/>
		<path d="M298.8,259.8l-5.2-14.2h2l4.2,11.7l4.2-11.7h2l-5.2,14.2H298.8z"/>
		<path d="M308.6,242.9v-2.2h1.9v2.2H308.6z M308.6,259.8v-14.2h1.9v14.2H308.6z"/>
		<path d="M319.9,260.2c-1.3,0-2.5-0.3-3.4-1s-1.7-1.6-2.2-2.7s-0.7-2.4-0.7-3.8s0.2-2.7,0.7-3.8c0.5-1.1,1.2-2,2.1-2.7s2-1,3.3-1
			s2.5,0.3,3.4,1c0.9,0.6,1.6,1.5,2.1,2.7c0.5,1.1,0.7,2.4,0.7,3.8s-0.2,2.7-0.7,3.8c-0.5,1.1-1.1,2-2.1,2.7
			C322.3,259.9,321.2,260.2,319.9,260.2z M320.1,266.5c-0.7,0-1.4-0.1-2.2-0.3c-0.7-0.2-1.4-0.6-2-1s-1.1-1.1-1.5-1.8l1.7-1
			c0.4,0.8,0.9,1.4,1.7,1.7c0.7,0.3,1.4,0.5,2.2,0.5c1,0,1.9-0.2,2.5-0.6s1.1-0.9,1.4-1.7c0.3-0.7,0.4-1.7,0.4-2.8v-3.8h0.2v-10.2
			h1.7v14c0,0.4,0,0.8,0,1.2c0,0.4-0.1,0.7-0.1,1.1c-0.2,1.1-0.5,1.9-1,2.6s-1.2,1.2-2.1,1.5C322.2,266.4,321.2,266.5,320.1,266.5z
			 M320.1,258.4c1,0,1.8-0.2,2.5-0.7s1.1-1.2,1.5-2s0.5-1.8,0.5-2.9s-0.2-2.1-0.5-3s-0.8-1.5-1.5-2s-1.5-0.7-2.5-0.7
			s-1.9,0.2-2.5,0.8c-0.7,0.5-1.2,1.2-1.5,2c-0.3,0.9-0.5,1.8-0.5,2.9s0.2,2,0.5,2.9s0.8,1.5,1.5,2S319.1,258.4,320.1,258.4z"/>
		<path d="M334.1,260.2c-1.1,0-2-0.2-2.7-0.6s-1.3-0.9-1.6-1.5c-0.4-0.6-0.5-1.3-0.5-2.1c0-0.8,0.2-1.4,0.5-2c0.3-0.5,0.7-1,1.3-1.3
			s1.2-0.6,1.9-0.8c0.7-0.2,1.5-0.3,2.4-0.5s1.7-0.3,2.6-0.4s1.6-0.2,2.2-0.3l-0.7,0.4c0-1.4-0.2-2.4-0.8-3.1c-0.6-0.7-1.6-1-3-1
			c-1,0-1.8,0.2-2.5,0.7c-0.7,0.4-1.1,1.1-1.4,2.1l-1.9-0.6c0.3-1.3,1-2.3,2-3s2.3-1.1,3.8-1.1c1.3,0,2.4,0.2,3.3,0.7
			s1.5,1.2,1.9,2.1c0.2,0.4,0.3,0.9,0.3,1.4c0.1,0.5,0.1,1,0.1,1.6v8.8h-1.7v-3.6l0.5,0.2c-0.5,1.2-1.2,2.1-2.2,2.8
			C336.7,259.9,335.5,260.2,334.1,260.2z M334.3,258.5c0.9,0,1.7-0.2,2.4-0.5s1.2-0.8,1.6-1.3c0.4-0.6,0.7-1.2,0.8-1.9
			c0.1-0.5,0.2-1,0.2-1.5s0-1,0-1.2l0.7,0.4c-0.7,0.1-1.4,0.2-2.1,0.3c-0.8,0.1-1.5,0.2-2.3,0.3c-0.7,0.1-1.4,0.2-2,0.4
			c-0.4,0.1-0.8,0.3-1.2,0.5s-0.7,0.5-0.9,0.8s-0.4,0.8-0.4,1.3c0,0.4,0.1,0.8,0.3,1.2s0.5,0.7,1,1
			C332.9,258.4,333.5,258.5,334.3,258.5z"/>
		<path d="M343,247.3v-1.7h9.3v1.7H343z M352.3,259.8c-0.8,0.2-1.6,0.2-2.4,0.2s-1.5-0.2-2.1-0.5s-1.1-0.8-1.4-1.4
			c-0.3-0.5-0.4-1.1-0.4-1.6s0-1.2,0-1.8v-13h1.9v12.9c0,0.6,0,1.1,0,1.5s0.1,0.8,0.3,1.1c0.3,0.6,0.8,0.9,1.5,1.1
			c0.7,0.1,1.5,0.1,2.6-0.1V259.8z"/>
		<path d="M355.4,242.9v-2.2h1.9v2.2H355.4z M355.4,259.8v-14.2h1.9v14.2H355.4z"/>
		<path d="M367.2,260.2c-1.4,0-2.6-0.3-3.6-1c-1-0.6-1.8-1.5-2.3-2.7c-0.5-1.1-0.8-2.4-0.8-3.9s0.3-2.8,0.8-3.9s1.3-2,2.3-2.6
			s2.2-0.9,3.6-0.9s2.6,0.3,3.6,1s1.8,1.5,2.3,2.6s0.8,2.4,0.8,3.9s-0.3,2.8-0.8,3.9s-1.3,2-2.3,2.6
			C369.8,259.9,368.6,260.2,367.2,260.2z M367.2,258.4c1.6,0,2.8-0.5,3.5-1.6c0.8-1,1.2-2.4,1.2-4.1s-0.4-3.1-1.2-4.1
			c-0.8-1-1.9-1.5-3.5-1.5c-1.1,0-1.9,0.2-2.6,0.7s-1.2,1.1-1.5,2c-0.3,0.8-0.5,1.8-0.5,2.9c0,1.7,0.4,3.1,1.2,4.1
			C364.5,257.8,365.7,258.4,367.2,258.4z"/>
		<path d="M376.8,259.8v-14.2h1.7v3.5h0.2v10.7H376.8z M387.1,259.8v-7.2c0-0.8-0.1-1.5-0.2-2.2s-0.4-1.2-0.7-1.7s-0.8-0.9-1.3-1.2
			c-0.5-0.3-1.2-0.4-1.9-0.4c-0.7,0-1.3,0.1-1.8,0.4c-0.5,0.2-1,0.6-1.3,1c-0.4,0.4-0.6,1-0.8,1.6c-0.2,0.6-0.3,1.3-0.3,2.2
			l-1.4-0.3c0-1.5,0.3-2.7,0.8-3.7s1.2-1.7,2.1-2.2s1.9-0.8,3.1-0.8c0.9,0,1.6,0.1,2.2,0.4s1.2,0.6,1.6,1.1c0.4,0.4,0.8,1,1.1,1.5
			s0.5,1.2,0.6,1.8s0.2,1.3,0.2,1.9v7.8L387.1,259.8L387.1,259.8z"/>
		<path d="M403.6,260.2c-1.4,0-2.6-0.3-3.6-1c-1-0.6-1.8-1.5-2.3-2.7c-0.5-1.1-0.8-2.4-0.8-3.9s0.3-2.8,0.8-3.9s1.3-2,2.3-2.6
			s2.2-0.9,3.6-0.9s2.6,0.3,3.6,1s1.8,1.5,2.3,2.6s0.8,2.4,0.8,3.9s-0.3,2.8-0.8,3.9s-1.3,2-2.3,2.6
			C406.2,259.9,405,260.2,403.6,260.2z M403.6,258.4c1.6,0,2.8-0.5,3.5-1.6c0.8-1,1.2-2.4,1.2-4.1s-0.4-3.1-1.2-4.1
			c-0.8-1-1.9-1.5-3.5-1.5c-1.1,0-1.9,0.2-2.6,0.7s-1.2,1.1-1.5,2c-0.3,0.8-0.5,1.8-0.5,2.9c0,1.7,0.4,3.1,1.2,4.1
			C400.9,257.8,402.1,258.4,403.6,258.4z"/>
		<path d="M413.3,259.8v-14.2h1.7v3.5h0.2v10.7H413.3z M423.5,259.8v-7.2c0-0.8-0.1-1.5-0.2-2.2s-0.4-1.2-0.7-1.7s-0.8-0.9-1.3-1.2
			c-0.5-0.3-1.2-0.4-1.9-0.4c-0.7,0-1.3,0.1-1.8,0.4c-0.5,0.2-1,0.6-1.3,1c-0.4,0.4-0.6,1-0.8,1.6c-0.2,0.6-0.3,1.3-0.3,2.2
			l-1.4-0.3c0-1.5,0.3-2.7,0.8-3.7s1.2-1.7,2.1-2.2s1.9-0.8,3.1-0.8c0.9,0,1.6,0.1,2.2,0.4s1.2,0.6,1.6,1.1c0.4,0.4,0.8,1,1.1,1.5
			s0.5,1.2,0.6,1.8s0.2,1.3,0.2,1.9v7.8L423.5,259.8L423.5,259.8z"/>
		<path d="M432.6,247.3v-1.7h9.3v1.7H432.6z M441.9,259.8c-0.8,0.2-1.6,0.2-2.4,0.2s-1.5-0.2-2.1-0.5s-1.1-0.8-1.4-1.4
			c-0.3-0.5-0.4-1.1-0.4-1.6s0-1.2,0-1.8v-13h1.9v12.9c0,0.6,0,1.1,0,1.5s0.1,0.8,0.3,1.1c0.3,0.6,0.8,0.9,1.5,1.1
			c0.7,0.1,1.5,0.1,2.6-0.1V259.8z"/>
		<path d="M444.7,259.8v-18.9h1.7v10.7h0.2v8.2L444.7,259.8L444.7,259.8z M454.9,259.8v-7.2c0-0.8-0.1-1.5-0.2-2.2s-0.4-1.2-0.7-1.7
			c-0.3-0.5-0.8-0.9-1.3-1.2c-0.5-0.3-1.2-0.4-1.9-0.4c-0.7,0-1.3,0.1-1.8,0.4c-0.5,0.2-1,0.6-1.3,1c-0.4,0.4-0.6,1-0.8,1.6
			c-0.2,0.6-0.3,1.3-0.3,2.2l-1.4-0.3c0-1.5,0.3-2.7,0.8-3.7s1.2-1.7,2.1-2.2s1.9-0.8,3.1-0.8c0.9,0,1.6,0.1,2.2,0.4
			s1.2,0.6,1.6,1.1c0.4,0.4,0.8,1,1.1,1.5c0.3,0.6,0.5,1.2,0.6,1.8c0.1,0.6,0.2,1.3,0.2,1.9v7.8L454.9,259.8L454.9,259.8z"/>
		<path d="M466.3,260.2c-1.4,0-2.6-0.3-3.6-0.9s-1.8-1.5-2.4-2.6s-0.8-2.4-0.8-3.9c0-1.6,0.3-2.9,0.8-4c0.6-1.1,1.3-2,2.3-2.6
			s2.2-0.9,3.6-0.9c1.4,0,2.6,0.3,3.6,1c1,0.6,1.7,1.6,2.2,2.8c0.5,1.2,0.7,2.6,0.7,4.3h-2v-0.7c0-1.8-0.4-3.2-1.2-4.2
			c-0.8-0.9-1.9-1.4-3.3-1.4c-1.5,0-2.7,0.5-3.5,1.5s-1.2,2.4-1.2,4.2c0,1.8,0.4,3.2,1.2,4.2s2,1.5,3.5,1.5c1,0,1.9-0.2,2.7-0.7
			s1.4-1.1,1.8-2l1.8,0.7c-0.6,1.2-1.4,2.2-2.5,2.9C468.9,259.9,467.7,260.2,466.3,260.2z M460.9,253.3v-1.6h10.8v1.6H460.9z"/>
		<path d="M484,259.8l-4.3-14.2h1.9l3.4,11l3.4-11h1.8l3.4,11l3.4-11h1.9l-4.3,14.2h-1.7l-3.6-11.3l-3.5,11.3H484z"/>
		<path d="M506.6,260.2c-1.4,0-2.6-0.3-3.6-0.9s-1.8-1.5-2.4-2.6s-0.8-2.4-0.8-3.9c0-1.6,0.3-2.9,0.8-4c0.6-1.1,1.3-2,2.3-2.6
			s2.2-0.9,3.6-0.9c1.4,0,2.6,0.3,3.6,1c1,0.6,1.7,1.6,2.2,2.8c0.5,1.2,0.7,2.6,0.7,4.3h-2v-0.7c0-1.8-0.4-3.2-1.2-4.2
			c-0.8-0.9-1.9-1.4-3.3-1.4c-1.5,0-2.7,0.5-3.5,1.5s-1.2,2.4-1.2,4.2c0,1.8,0.4,3.2,1.2,4.2s2,1.5,3.5,1.5c1,0,1.9-0.2,2.7-0.7
			s1.4-1.1,1.8-2l1.8,0.7c-0.6,1.2-1.4,2.2-2.5,2.9C509.2,259.9,508,260.2,506.6,260.2z M501.2,253.3v-1.6H512v1.6H501.2z"/>
		<path d="M515.9,259.8v-18.9h1.9v8.2h-0.2v10.7L515.9,259.8L515.9,259.8z M522.3,260.2c-1.3,0-2.4-0.3-3.3-1
			c-0.9-0.7-1.6-1.6-2.1-2.7s-0.7-2.4-0.7-3.8s0.2-2.7,0.7-3.8c0.5-1.1,1.2-2,2.1-2.7c0.9-0.6,2-1,3.4-1c1.3,0,2.4,0.3,3.3,1
			c0.9,0.7,1.6,1.6,2.1,2.7s0.7,2.4,0.7,3.8s-0.2,2.7-0.7,3.8c-0.5,1.1-1.2,2-2.2,2.7C524.8,259.9,523.7,260.2,522.3,260.2z
			 M522.1,258.4c1,0,1.8-0.2,2.5-0.7s1.2-1.2,1.5-2c0.3-0.9,0.5-1.8,0.5-2.9s-0.2-2-0.5-2.9s-0.8-1.5-1.5-2s-1.5-0.8-2.5-0.8
			s-1.8,0.2-2.5,0.7s-1.1,1.2-1.5,2s-0.5,1.8-0.5,3c0,1.1,0.2,2.1,0.5,2.9s0.8,1.5,1.5,2S521.1,258.4,522.1,258.4z"/>
		<path d="M536.7,260.2c-1.7,0-3-0.4-4.1-1.1s-1.7-1.7-2-3l2-0.3c0.2,0.8,0.7,1.4,1.4,1.9s1.7,0.7,2.8,0.7s1.9-0.2,2.6-0.7
			c0.6-0.5,0.9-1.1,0.9-1.8c0-0.4-0.1-0.8-0.3-1.1s-0.6-0.5-1.2-0.8c-0.6-0.2-1.5-0.5-2.7-0.8c-1.3-0.3-2.3-0.7-3-1.1
			s-1.2-0.8-1.6-1.2c-0.3-0.5-0.5-1-0.5-1.7c0-0.8,0.2-1.5,0.7-2.1s1.1-1.1,1.9-1.4c0.8-0.3,1.7-0.5,2.8-0.5s2,0.2,2.9,0.5
			c0.8,0.3,1.5,0.8,2,1.5c0.5,0.6,0.8,1.3,0.9,2.2l-2,0.4c-0.1-0.8-0.5-1.5-1.2-2s-1.6-0.7-2.6-0.8c-1,0-1.8,0.2-2.5,0.6
			c-0.6,0.4-0.9,0.9-0.9,1.6c0,0.4,0.1,0.7,0.3,1s0.6,0.5,1.2,0.8c0.6,0.2,1.5,0.5,2.6,0.8c1.3,0.3,2.3,0.7,3.1,1.1
			c0.7,0.4,1.3,0.8,1.6,1.3s0.5,1.1,0.5,1.9c0,1.3-0.5,2.4-1.5,3.2C539.8,259.8,538.4,260.2,536.7,260.2z"/>
		<path d="M545.5,242.9v-2.2h1.9v2.2H545.5z M545.5,259.8v-14.2h1.9v14.2H545.5z"/>
		<path d="M549.8,247.3v-1.7h9.3v1.7H549.8z M559.1,259.8c-0.8,0.2-1.6,0.2-2.4,0.2c-0.8,0-1.5-0.2-2.1-0.5s-1.1-0.8-1.4-1.4
			c-0.3-0.5-0.4-1.1-0.4-1.6s0-1.2,0-1.8v-13h1.9v12.9c0,0.6,0,1.1,0,1.5s0.1,0.8,0.3,1.1c0.3,0.6,0.8,0.9,1.5,1.1
			c0.7,0.1,1.5,0.1,2.6-0.1L559.1,259.8L559.1,259.8z"/>
		<path d="M567.4,260.2c-1.4,0-2.6-0.3-3.6-0.9s-1.8-1.5-2.4-2.6c-0.6-1.1-0.8-2.4-0.8-3.9c0-1.6,0.3-2.9,0.8-4
			c0.6-1.1,1.3-2,2.3-2.6s2.2-0.9,3.6-0.9c1.4,0,2.6,0.3,3.6,1c1,0.6,1.7,1.6,2.2,2.8c0.5,1.2,0.7,2.6,0.7,4.3h-2v-0.7
			c0-1.8-0.4-3.2-1.2-4.2c-0.8-0.9-1.9-1.4-3.3-1.4c-1.5,0-2.7,0.5-3.5,1.5s-1.2,2.4-1.2,4.2c0,1.8,0.4,3.2,1.2,4.2s2,1.5,3.5,1.5
			c1,0,1.9-0.2,2.7-0.7s1.4-1.1,1.8-2l1.8,0.7c-0.6,1.2-1.4,2.2-2.5,2.9C570,259.9,568.7,260.2,567.4,260.2z M561.9,253.3v-1.6h10.8
			v1.6H561.9z"/>
		<path d="M162.9,286.2c-0.6,0-1.1-0.1-1.6-0.4s-0.8-0.6-1.1-1.1c-0.3-0.5-0.4-1-0.4-1.6s0.1-1.1,0.4-1.6c0.3-0.5,0.7-0.8,1.1-1.1
			c0.5-0.3,1-0.4,1.6-0.4c0.5,0,1,0.1,1.5,0.4s0.8,0.6,1.1,1.1c0.3,0.5,0.4,1,0.4,1.6s-0.1,1.1-0.4,1.6s-0.6,0.8-1.1,1.1
			S163.5,286.2,162.9,286.2z"/>
		<path d="M178.6,291.4v-18.9h1.8l7.4,15.9l7.4-15.9h1.8v18.9h-1.8v-14.6l-6.7,14.6h-1.2l-6.7-14.6v14.6H178.6z"/>
		<path d="M206.6,291.8c-1.4,0-2.6-0.3-3.6-1c-1-0.6-1.8-1.5-2.3-2.7c-0.5-1.1-0.8-2.4-0.8-3.9s0.3-2.8,0.8-3.9s1.3-2,2.3-2.6
			s2.2-0.9,3.6-0.9c1.4,0,2.6,0.3,3.6,1s1.8,1.5,2.3,2.6s0.8,2.4,0.8,3.9s-0.3,2.8-0.8,3.9s-1.3,2-2.3,2.6
			C209.2,291.5,208,291.8,206.6,291.8z M206.6,289.9c1.6,0,2.8-0.5,3.5-1.6c0.8-1,1.2-2.4,1.2-4.1s-0.4-3.1-1.2-4.1
			c-0.8-1-1.9-1.5-3.5-1.5c-1.1,0-1.9,0.2-2.6,0.7s-1.2,1.1-1.5,2c-0.3,0.8-0.5,1.8-0.5,2.9c0,1.7,0.4,3.1,1.2,4.1
			C203.9,289.4,205.1,289.9,206.6,289.9z"/>
		<path d="M216.2,291.4v-14.2h1.7v3.4l-0.3-0.4c0.2-0.4,0.4-0.8,0.6-1.2c0.3-0.4,0.5-0.6,0.8-0.9c0.4-0.3,0.8-0.6,1.3-0.7
			c0.5-0.2,1-0.3,1.5-0.3s1,0,1.4,0.1v1.8c-0.5-0.1-1.1-0.2-1.7-0.1s-1.2,0.3-1.7,0.7c-0.5,0.4-0.8,0.8-1.1,1.3
			c-0.2,0.5-0.4,1.1-0.5,1.6s-0.1,1.1-0.1,1.7v7.1L216.2,291.4L216.2,291.4z"/>
		<path d="M230.9,291.8c-1.3,0-2.5-0.3-3.4-1s-1.7-1.6-2.2-2.7s-0.8-2.4-0.8-3.8s0.2-2.7,0.7-3.8s1.2-2,2.1-2.7s2-1,3.3-1
			s2.5,0.3,3.4,1c0.9,0.6,1.6,1.5,2.1,2.7c0.5,1.1,0.7,2.4,0.7,3.8s-0.2,2.7-0.7,3.8c-0.5,1.1-1.1,2-2.1,2.7
			C233.3,291.4,232.2,291.8,230.9,291.8z M231.1,290c1,0,1.8-0.2,2.5-0.7s1.1-1.2,1.5-2s0.5-1.8,0.5-2.9s-0.2-2.1-0.5-3
			s-0.8-1.5-1.5-2s-1.5-0.7-2.5-0.7s-1.9,0.2-2.5,0.8c-0.7,0.5-1.2,1.2-1.5,2s-0.5,1.8-0.5,2.9s0.2,2,0.5,2.9s0.8,1.5,1.5,2
			C229.3,289.7,230.1,290,231.1,290z M235.6,291.4v-10.7h-0.2v-8.2h1.9v18.9L235.6,291.4L235.6,291.4z"/>
		<path d="M247,291.8c-1.4,0-2.6-0.3-3.6-0.9s-1.8-1.5-2.4-2.6s-0.8-2.4-0.8-3.9c0-1.6,0.3-2.9,0.8-4c0.6-1.1,1.3-2,2.3-2.6
			s2.2-0.9,3.6-0.9s2.6,0.3,3.6,1c1,0.6,1.7,1.6,2.2,2.8c0.5,1.2,0.7,2.6,0.7,4.3h-2v-0.7c0-1.8-0.4-3.2-1.2-4.2
			c-0.8-0.9-1.9-1.4-3.3-1.4c-1.5,0-2.7,0.5-3.5,1.5s-1.2,2.4-1.2,4.2c0,1.8,0.4,3.2,1.2,4.2s2,1.5,3.5,1.5c1,0,1.9-0.2,2.7-0.7
			s1.4-1.1,1.8-2l1.8,0.7c-0.6,1.2-1.4,2.2-2.5,2.9C249.6,291.4,248.4,291.8,247,291.8z M241.6,284.8v-1.6h10.8v1.6H241.6z"/>
		<path d="M256,291.4v-14.2h1.7v3.5h0.2v10.7H256z M266.2,291.4v-7.2c0-0.8-0.1-1.5-0.2-2.2s-0.4-1.2-0.7-1.7s-0.8-0.9-1.3-1.2
			c-0.5-0.3-1.2-0.4-1.9-0.4c-0.7,0-1.3,0.1-1.8,0.4c-0.5,0.2-1,0.6-1.3,1c-0.4,0.4-0.6,1-0.8,1.6c-0.2,0.6-0.3,1.3-0.3,2.2
			l-1.4-0.3c0-1.5,0.3-2.7,0.8-3.7s1.2-1.7,2.1-2.2s1.9-0.8,3.1-0.8c0.9,0,1.6,0.1,2.2,0.4s1.2,0.6,1.6,1.1c0.4,0.4,0.8,1,1.1,1.5
			s0.5,1.2,0.6,1.8s0.2,1.3,0.2,1.9v7.8L266.2,291.4L266.2,291.4z"/>
		<path d="M282.3,291.7c-0.9,0-1.6-0.1-2.2-0.4s-1.2-0.6-1.6-1.1c-0.4-0.4-0.8-1-1.1-1.5c-0.3-0.6-0.5-1.2-0.6-1.8
			c-0.1-0.6-0.2-1.3-0.2-1.9v-7.8h1.9v7.2c0,0.8,0.1,1.5,0.2,2.2s0.4,1.2,0.7,1.7c0.3,0.5,0.8,0.9,1.3,1.2s1.2,0.4,1.9,0.4
			c0.7,0,1.3-0.1,1.8-0.4s1-0.6,1.3-1c0.4-0.4,0.6-1,0.8-1.6c0.2-0.6,0.3-1.4,0.3-2.1l1.4,0.3c0,1.5-0.3,2.7-0.8,3.7
			s-1.2,1.7-2.1,2.2C284.5,291.5,283.5,291.7,282.3,291.7z M287.1,291.4v-3.5h-0.2v-10.7h1.9v14.2H287.1z"/>
		<path d="M297.8,291.8c-1.7,0-3-0.4-4.1-1.1s-1.7-1.7-2-3l2-0.3c0.2,0.8,0.7,1.4,1.4,1.9c0.7,0.5,1.7,0.7,2.8,0.7
			c1.1,0,1.9-0.2,2.6-0.7c0.6-0.5,0.9-1.1,0.9-1.8c0-0.4-0.1-0.8-0.3-1.1s-0.6-0.5-1.2-0.8c-0.6-0.2-1.5-0.5-2.7-0.8
			c-1.3-0.3-2.3-0.7-3-1.1s-1.2-0.8-1.6-1.2c-0.3-0.5-0.5-1-0.5-1.7c0-0.8,0.2-1.5,0.7-2.1s1.1-1.1,1.9-1.4s1.7-0.5,2.8-0.5
			c1.1,0,2,0.2,2.9,0.5c0.8,0.3,1.5,0.8,2,1.5c0.5,0.6,0.8,1.3,0.9,2.2l-2,0.4c-0.1-0.8-0.5-1.5-1.2-2s-1.6-0.7-2.6-0.8
			c-1,0-1.8,0.2-2.5,0.6c-0.6,0.4-0.9,0.9-0.9,1.6c0,0.4,0.1,0.7,0.3,1c0.2,0.3,0.6,0.5,1.2,0.8c0.6,0.2,1.5,0.5,2.6,0.8
			c1.3,0.3,2.3,0.7,3.1,1.1c0.7,0.4,1.3,0.8,1.6,1.3c0.3,0.5,0.5,1.1,0.5,1.9c0,1.3-0.5,2.4-1.5,3.2
			C300.9,291.4,299.5,291.8,297.8,291.8z"/>
		<path d="M312.3,291.8c-1.4,0-2.6-0.3-3.6-0.9s-1.8-1.5-2.4-2.6s-0.8-2.4-0.8-3.9c0-1.6,0.3-2.9,0.8-4c0.6-1.1,1.3-2,2.3-2.6
			s2.2-0.9,3.6-0.9s2.6,0.3,3.6,1c1,0.6,1.7,1.6,2.2,2.8c0.5,1.2,0.7,2.6,0.7,4.3h-2v-0.7c0-1.8-0.4-3.2-1.2-4.2
			c-0.8-0.9-1.9-1.4-3.3-1.4c-1.5,0-2.7,0.5-3.5,1.5s-1.2,2.4-1.2,4.2c0,1.8,0.4,3.2,1.2,4.2c0.8,1,2,1.5,3.5,1.5
			c1,0,1.9-0.2,2.7-0.7c0.8-0.5,1.4-1.1,1.8-2l1.8,0.7c-0.6,1.2-1.4,2.2-2.5,2.9C314.9,291.4,313.7,291.8,312.3,291.8z M306.9,284.8
			v-1.6h10.8v1.6H306.9z"/>
		<path d="M321.7,291.4v-14.2h1.7v3.4l-0.3-0.4c0.2-0.4,0.4-0.8,0.6-1.2c0.3-0.4,0.5-0.6,0.8-0.9c0.4-0.3,0.8-0.6,1.3-0.7
			s1-0.3,1.5-0.3s1,0,1.4,0.1v1.8c-0.5-0.1-1.1-0.2-1.7-0.1s-1.2,0.3-1.7,0.7c-0.5,0.4-0.8,0.8-1.1,1.3c-0.2,0.5-0.4,1.1-0.5,1.6
			c-0.1,0.6-0.1,1.1-0.1,1.7v7.1L321.7,291.4L321.7,291.4z"/>
		<path d="M336.7,291.4v-18.9h1.9v18.9H336.7z"/>
		<path d="M342.5,291.4v-14.2h1.7v3.5h0.2v10.7H342.5z M352.8,291.4v-7.2c0-0.8-0.1-1.5-0.2-2.2s-0.4-1.2-0.7-1.7s-0.8-0.9-1.3-1.2
			c-0.5-0.3-1.2-0.4-1.9-0.4c-0.7,0-1.3,0.1-1.8,0.4c-0.5,0.2-1,0.6-1.3,1c-0.4,0.4-0.6,1-0.8,1.6c-0.2,0.6-0.3,1.3-0.3,2.2
			l-1.4-0.3c0-1.5,0.3-2.7,0.8-3.7s1.2-1.7,2.1-2.2s1.9-0.8,3.1-0.8c0.9,0,1.6,0.1,2.2,0.4s1.2,0.6,1.6,1.1c0.4,0.4,0.8,1,1.1,1.5
			s0.5,1.2,0.6,1.8s0.2,1.3,0.2,1.9v7.8L352.8,291.4L352.8,291.4z"/>
		<path d="M356.6,278.8v-1.7h9.3v1.7H356.6z M365.9,291.4c-0.8,0.2-1.6,0.2-2.4,0.2s-1.5-0.2-2.1-0.5s-1.1-0.8-1.4-1.4
			c-0.3-0.5-0.4-1.1-0.4-1.6s0-1.2,0-1.8v-13h1.9v12.9c0,0.6,0,1.1,0,1.5s0.1,0.8,0.3,1.1c0.3,0.6,0.8,0.9,1.5,1.1
			c0.7,0.1,1.5,0.1,2.6-0.1V291.4z"/>
		<path d="M374.2,291.8c-1.4,0-2.6-0.3-3.6-0.9s-1.8-1.5-2.4-2.6s-0.8-2.4-0.8-3.9c0-1.6,0.3-2.9,0.8-4c0.6-1.1,1.3-2,2.3-2.6
			s2.2-0.9,3.6-0.9s2.6,0.3,3.6,1c1,0.6,1.7,1.6,2.2,2.8c0.5,1.2,0.7,2.6,0.7,4.3h-2v-0.7c0-1.8-0.4-3.2-1.2-4.2
			c-0.8-0.9-1.9-1.4-3.3-1.4c-1.5,0-2.7,0.5-3.5,1.5s-1.2,2.4-1.2,4.2c0,1.8,0.4,3.2,1.2,4.2c0.8,1,2,1.5,3.5,1.5
			c1,0,1.9-0.2,2.7-0.7c0.8-0.5,1.4-1.1,1.8-2l1.8,0.7c-0.6,1.2-1.4,2.2-2.5,2.9C376.8,291.4,375.6,291.8,374.2,291.8z M368.7,284.8
			v-1.6h10.8v1.6H368.7z"/>
		<path d="M383.5,291.4v-14.2h1.7v3.4l-0.3-0.4c0.2-0.4,0.4-0.8,0.6-1.2c0.3-0.4,0.5-0.6,0.8-0.9c0.4-0.3,0.8-0.6,1.3-0.7
			s1-0.3,1.5-0.3s1,0,1.4,0.1v1.8c-0.5-0.1-1.1-0.2-1.7-0.1s-1.2,0.3-1.7,0.7c-0.5,0.4-0.8,0.8-1.1,1.3c-0.2,0.5-0.4,1.1-0.5,1.6
			c-0.1,0.6-0.1,1.1-0.1,1.7v7.1L383.5,291.4L383.5,291.4z"/>
		<path d="M392,278.8v-1.7h8.3v1.7H392z M394.4,291.4v-15.3c0-0.4,0-0.7,0.1-1.1s0.1-0.7,0.2-1s0.3-0.6,0.6-0.9
			c0.3-0.3,0.6-0.5,0.9-0.7c0.3-0.1,0.7-0.2,1.1-0.3c0.4,0,0.7-0.1,1.1-0.1h1.8v1.6h-1.7c-0.7,0-1.3,0.2-1.7,0.5
			c-0.4,0.4-0.5,0.9-0.5,1.7v15.5h-1.9V291.4z"/>
		<path d="M406,291.8c-1.1,0-2-0.2-2.7-0.6s-1.3-0.9-1.6-1.5c-0.4-0.6-0.5-1.3-0.5-2.1c0-0.8,0.2-1.4,0.5-2c0.3-0.5,0.7-1,1.3-1.3
			s1.2-0.6,1.9-0.8c0.7-0.2,1.5-0.3,2.4-0.5s1.7-0.3,2.6-0.4s1.6-0.2,2.2-0.3l-0.7,0.4c0-1.4-0.2-2.4-0.8-3.1c-0.6-0.7-1.6-1-3-1
			c-1,0-1.8,0.2-2.5,0.7c-0.7,0.4-1.1,1.1-1.4,2.1l-1.9-0.6c0.3-1.3,1-2.3,2-3s2.3-1.1,3.8-1.1c1.3,0,2.4,0.2,3.3,0.7
			s1.5,1.2,1.9,2.1c0.2,0.4,0.3,0.9,0.3,1.4c0.1,0.5,0.1,1,0.1,1.6v8.8h-1.7v-3.6l0.5,0.2c-0.5,1.2-1.2,2.1-2.2,2.8
			C408.6,291.4,407.4,291.8,406,291.8z M406.2,290.1c0.9,0,1.7-0.2,2.4-0.5s1.2-0.8,1.6-1.3c0.4-0.6,0.7-1.2,0.8-1.9
			c0.1-0.5,0.2-1,0.2-1.5s0-1,0-1.2l0.7,0.4c-0.7,0.1-1.4,0.2-2.1,0.3c-0.8,0.1-1.5,0.2-2.3,0.3c-0.7,0.1-1.4,0.2-2,0.4
			c-0.4,0.1-0.8,0.3-1.2,0.5s-0.7,0.5-0.9,0.8s-0.4,0.8-0.4,1.3c0,0.4,0.1,0.8,0.3,1.2s0.5,0.7,1,1
			C404.9,290,405.5,290.1,406.2,290.1z"/>
		<path d="M422.4,291.8c-1.4,0-2.6-0.3-3.6-1c-1-0.6-1.7-1.5-2.3-2.6c-0.5-1.1-0.8-2.4-0.8-3.9s0.3-2.8,0.8-3.9s1.3-2,2.3-2.6
			s2.2-0.9,3.6-0.9s2.7,0.4,3.8,1.1c1.1,0.7,1.8,1.7,2.2,2.9l-1.9,0.6c-0.3-0.9-0.9-1.5-1.6-2s-1.5-0.7-2.5-0.7s-1.9,0.2-2.6,0.7
			s-1.2,1.1-1.5,2s-0.5,1.8-0.5,2.9c0,1.7,0.4,3.1,1.2,4.1c0.8,1,1.9,1.5,3.4,1.5c1,0,1.8-0.2,2.5-0.7c0.7-0.4,1.2-1.1,1.5-1.9
			l1.9,0.6c-0.5,1.3-1.3,2.2-2.3,2.9C425.1,291.4,423.9,291.8,422.4,291.8z"/>
		<path d="M436.7,291.8c-1.4,0-2.6-0.3-3.6-0.9s-1.8-1.5-2.4-2.6s-0.8-2.4-0.8-3.9c0-1.6,0.3-2.9,0.8-4c0.6-1.1,1.3-2,2.3-2.6
			s2.2-0.9,3.6-0.9s2.6,0.3,3.6,1c1,0.6,1.7,1.6,2.2,2.8c0.5,1.2,0.7,2.6,0.7,4.3h-2v-0.7c0-1.8-0.4-3.2-1.2-4.2
			c-0.8-0.9-1.9-1.4-3.3-1.4c-1.5,0-2.7,0.5-3.5,1.5s-1.2,2.4-1.2,4.2c0,1.8,0.4,3.2,1.2,4.2s2,1.5,3.5,1.5c1,0,1.9-0.2,2.7-0.7
			s1.4-1.1,1.8-2l1.8,0.7c-0.6,1.2-1.4,2.2-2.5,2.9C439.3,291.4,438.1,291.8,436.7,291.8z M431.3,284.8v-1.6h10.8v1.6H431.3z"/>
		<path d="M162.9,317.7c-0.6,0-1.1-0.1-1.6-0.4s-0.8-0.6-1.1-1.1c-0.3-0.5-0.4-1-0.4-1.6s0.1-1.1,0.4-1.6c0.3-0.5,0.7-0.8,1.1-1.1
			c0.5-0.3,1-0.4,1.6-0.4c0.5,0,1,0.1,1.5,0.4s0.8,0.6,1.1,1.1c0.3,0.5,0.4,1,0.4,1.6s-0.1,1.1-0.4,1.6s-0.6,0.8-1.1,1.1
			S163.5,317.7,162.9,317.7z"/>
		<path d="M182.6,322.9l-5.5-18.9h2l4.4,15.6l4.4-15.6h2l4.4,15.6l4.4-15.6h2l-5.5,18.9h-1.9l-4.5-15.5l-4.4,15.5H182.6z"/>
		<path d="M207.6,323.3c-1.4,0-2.6-0.3-3.6-0.9s-1.8-1.5-2.4-2.6c-0.6-1.1-0.8-2.4-0.8-3.9c0-1.6,0.3-2.9,0.8-4
			c0.6-1.1,1.3-2,2.3-2.6s2.2-0.9,3.6-0.9s2.6,0.3,3.6,1c1,0.6,1.7,1.6,2.2,2.8c0.5,1.2,0.7,2.6,0.7,4.3h-2v-0.7
			c0-1.8-0.4-3.2-1.2-4.2c-0.8-0.9-1.9-1.4-3.3-1.4c-1.5,0-2.7,0.5-3.5,1.5c-0.8,1-1.2,2.4-1.2,4.2c0,1.8,0.4,3.2,1.2,4.2
			c0.8,1,2,1.5,3.5,1.5c1,0,1.9-0.2,2.7-0.7s1.4-1.1,1.8-2l1.8,0.7c-0.6,1.2-1.4,2.2-2.5,2.9C210.2,323,209,323.3,207.6,323.3z
			 M202.2,316.4v-1.6H213v1.6H202.2z"/>
		<path d="M217.2,322.9v-19.3h1.9v19.3H217.2z"/>
		<path d="M223.4,322.9v-19.3h1.9v19.3H223.4z"/>
		<path d="M229,315.5v-1.7h7.9v1.7H229z"/>
		<path d="M245.8,323.3c-1.3,0-2.5-0.3-3.4-1s-1.7-1.6-2.2-2.7s-0.7-2.4-0.7-3.8s0.2-2.7,0.7-3.8c0.5-1.1,1.2-2,2.1-2.7s2-1,3.3-1
			s2.5,0.3,3.4,1c0.9,0.6,1.6,1.5,2.1,2.7c0.5,1.1,0.7,2.4,0.7,3.8s-0.2,2.7-0.7,3.8c-0.5,1.1-1.1,2-2.1,2.7
			C248.2,323,247.1,323.3,245.8,323.3z M246,321.5c1,0,1.8-0.2,2.5-0.7s1.1-1.2,1.5-2s0.5-1.8,0.5-2.9s-0.2-2.1-0.5-3
			s-0.8-1.5-1.5-2s-1.5-0.7-2.5-0.7s-1.9,0.2-2.5,0.8c-0.7,0.5-1.2,1.2-1.5,2c-0.3,0.9-0.5,1.8-0.5,2.9s0.2,2,0.5,2.9s0.8,1.5,1.5,2
			S245,321.5,246,321.5z M250.4,322.9v-10.7h-0.2V304h1.9v18.9L250.4,322.9L250.4,322.9z"/>
		<path d="M261.9,323.3c-1.4,0-2.6-0.3-3.6-0.9s-1.8-1.5-2.4-2.6s-0.8-2.4-0.8-3.9c0-1.6,0.3-2.9,0.8-4c0.6-1.1,1.3-2,2.3-2.6
			s2.2-0.9,3.6-0.9s2.6,0.3,3.6,1c1,0.6,1.7,1.6,2.2,2.8c0.5,1.2,0.7,2.6,0.7,4.3h-2v-0.7c0-1.8-0.4-3.2-1.2-4.2
			c-0.8-0.9-1.9-1.4-3.3-1.4c-1.5,0-2.7,0.5-3.5,1.5s-1.2,2.4-1.2,4.2c0,1.8,0.4,3.2,1.2,4.2c0.8,1,2,1.5,3.5,1.5
			c1,0,1.9-0.2,2.7-0.7c0.8-0.5,1.4-1.1,1.8-2l1.8,0.7c-0.6,1.2-1.4,2.2-2.5,2.9C264.5,323,263.2,323.3,261.9,323.3z M256.4,316.4
			v-1.6h10.8v1.6H256.4z"/>
		<path d="M276.5,323.3c-1.7,0-3-0.4-4.1-1.1s-1.7-1.7-2-3l2-0.3c0.2,0.8,0.7,1.4,1.4,1.9c0.8,0.5,1.7,0.7,2.8,0.7
			c1.1,0,1.9-0.2,2.6-0.7s0.9-1.1,0.9-1.8c0-0.4-0.1-0.8-0.3-1.1s-0.6-0.5-1.2-0.8c-0.6-0.2-1.5-0.5-2.7-0.8c-1.3-0.3-2.3-0.7-3-1.1
			s-1.2-0.8-1.6-1.2s-0.5-1-0.5-1.7c0-0.8,0.2-1.5,0.7-2.1s1.1-1.1,1.9-1.4s1.7-0.5,2.8-0.5s2,0.2,2.9,0.5c0.8,0.3,1.5,0.8,2,1.5
			c0.5,0.6,0.8,1.3,0.9,2.2l-2,0.4c-0.1-0.8-0.5-1.5-1.2-2s-1.6-0.7-2.6-0.8c-1,0-1.8,0.2-2.5,0.6c-0.6,0.4-0.9,0.9-0.9,1.6
			c0,0.4,0.1,0.7,0.3,1c0.2,0.3,0.6,0.5,1.2,0.8c0.6,0.2,1.5,0.5,2.6,0.8c1.3,0.3,2.3,0.7,3.1,1.1s1.3,0.8,1.6,1.3
			c0.3,0.5,0.5,1.1,0.5,1.9c0,1.3-0.5,2.4-1.5,3.2C279.6,322.9,278.3,323.3,276.5,323.3z"/>
		<path d="M285.3,306v-2.2h1.9v2.2H285.3z M285.3,322.9v-14.2h1.9v14.2H285.3z"/>
		<path d="M296.7,323.3c-1.3,0-2.5-0.3-3.4-1s-1.7-1.6-2.2-2.7s-0.7-2.4-0.7-3.8s0.2-2.7,0.7-3.8c0.5-1.1,1.2-2,2.1-2.7s2-1,3.3-1
			s2.5,0.3,3.4,1c0.9,0.6,1.6,1.5,2.1,2.7c0.5,1.1,0.7,2.4,0.7,3.8s-0.2,2.7-0.7,3.8c-0.5,1.1-1.1,2-2.1,2.7
			C299.1,323,298,323.3,296.7,323.3z M296.8,329.6c-0.7,0-1.4-0.1-2.2-0.3c-0.7-0.2-1.4-0.6-2-1s-1.1-1.1-1.5-1.8l1.7-1
			c0.4,0.8,0.9,1.4,1.7,1.7c0.7,0.3,1.4,0.5,2.2,0.5c1,0,1.9-0.2,2.5-0.6s1.1-0.9,1.4-1.7c0.3-0.7,0.4-1.7,0.4-2.8v-3.8h0.2v-10.2
			h1.7v14c0,0.4,0,0.8,0,1.2c0,0.4-0.1,0.7-0.1,1.1c-0.2,1.1-0.5,1.9-1,2.6s-1.2,1.2-2.1,1.5C299,329.5,298,329.6,296.8,329.6z
			 M296.9,321.5c1,0,1.8-0.2,2.5-0.7s1.1-1.2,1.5-2s0.5-1.8,0.5-2.9s-0.2-2.1-0.5-3s-0.8-1.5-1.5-2s-1.5-0.7-2.5-0.7
			s-1.9,0.2-2.5,0.8c-0.7,0.5-1.2,1.2-1.5,2c-0.3,0.9-0.5,1.8-0.5,2.9s0.2,2,0.5,2.9s0.8,1.5,1.5,2S295.9,321.5,296.9,321.5z"/>
		<path d="M306.7,322.9v-14.2h1.7v3.5h0.2v10.7H306.7z M317,322.9v-7.2c0-0.8-0.1-1.5-0.2-2.2s-0.4-1.2-0.7-1.7
			c-0.3-0.5-0.8-0.9-1.3-1.2c-0.5-0.3-1.2-0.4-1.9-0.4c-0.7,0-1.3,0.1-1.8,0.4c-0.5,0.2-1,0.6-1.3,1c-0.4,0.4-0.6,1-0.8,1.6
			c-0.2,0.6-0.3,1.3-0.3,2.2l-1.4-0.3c0-1.5,0.3-2.7,0.8-3.7s1.2-1.7,2.1-2.2s1.9-0.8,3.1-0.8c0.9,0,1.6,0.1,2.2,0.4
			s1.2,0.6,1.6,1.1c0.4,0.4,0.8,1,1.1,1.5c0.3,0.6,0.5,1.2,0.6,1.8c0.1,0.6,0.2,1.3,0.2,1.9v7.8L317,322.9L317,322.9z"/>
		<path d="M328.3,323.3c-1.4,0-2.6-0.3-3.6-0.9s-1.8-1.5-2.4-2.6s-0.8-2.4-0.8-3.9c0-1.6,0.3-2.9,0.8-4c0.6-1.1,1.3-2,2.3-2.6
			s2.2-0.9,3.6-0.9s2.6,0.3,3.6,1c1,0.6,1.7,1.6,2.2,2.8c0.5,1.2,0.7,2.6,0.7,4.3h-2v-0.7c0-1.8-0.4-3.2-1.2-4.2
			c-0.8-0.9-1.9-1.4-3.3-1.4c-1.5,0-2.7,0.5-3.5,1.5s-1.2,2.4-1.2,4.2c0,1.8,0.4,3.2,1.2,4.2s2,1.5,3.5,1.5c1,0,1.9-0.2,2.7-0.7
			s1.4-1.1,1.8-2l1.8,0.7c-0.6,1.2-1.4,2.2-2.5,2.9C330.9,323,329.7,323.3,328.3,323.3z M322.8,316.4v-1.6h10.8v1.6H322.8z"/>
		<path d="M343.1,323.3c-1.3,0-2.5-0.3-3.4-1s-1.7-1.6-2.2-2.7s-0.7-2.4-0.7-3.8s0.2-2.7,0.7-3.8c0.5-1.1,1.2-2,2.1-2.7s2-1,3.3-1
			s2.5,0.3,3.4,1c0.9,0.6,1.6,1.5,2.1,2.7c0.5,1.1,0.7,2.4,0.7,3.8s-0.2,2.7-0.7,3.8c-0.5,1.1-1.1,2-2.1,2.7
			C345.6,323,344.5,323.3,343.1,323.3z M343.3,321.5c1,0,1.8-0.2,2.5-0.7s1.1-1.2,1.5-2s0.5-1.8,0.5-2.9s-0.2-2.1-0.5-3
			s-0.8-1.5-1.5-2s-1.5-0.7-2.5-0.7s-1.9,0.2-2.5,0.8c-0.7,0.5-1.2,1.2-1.5,2c-0.3,0.9-0.5,1.8-0.5,2.9s0.2,2,0.5,2.9s0.8,1.5,1.5,2
			S342.4,321.5,343.3,321.5z M347.8,322.9v-10.7h-0.2V304h1.9v18.9L347.8,322.9L347.8,322.9z"/>
		<path d="M362.5,323.3c-1.1,0-2-0.2-2.7-0.6s-1.3-0.9-1.6-1.5c-0.4-0.6-0.5-1.3-0.5-2.1c0-0.8,0.2-1.4,0.5-2c0.3-0.5,0.7-1,1.3-1.3
			s1.2-0.6,1.9-0.8c0.7-0.2,1.5-0.3,2.4-0.5s1.7-0.3,2.6-0.4s1.6-0.2,2.2-0.3l-0.7,0.4c0-1.4-0.2-2.4-0.8-3.1c-0.6-0.7-1.6-1-3-1
			c-1,0-1.8,0.2-2.5,0.7c-0.7,0.4-1.1,1.1-1.4,2.1l-1.9-0.6c0.3-1.3,1-2.3,2-3s2.3-1.1,3.8-1.1c1.3,0,2.4,0.2,3.3,0.7
			s1.5,1.2,1.9,2.1c0.2,0.4,0.3,0.9,0.3,1.4c0.1,0.5,0.1,1,0.1,1.6v8.8h-1.8v-3.6l0.5,0.2c-0.5,1.2-1.2,2.1-2.2,2.8
			C365.2,323,364,323.3,362.5,323.3z M362.8,321.7c0.9,0,1.7-0.2,2.4-0.5s1.2-0.8,1.6-1.3c0.4-0.6,0.7-1.2,0.8-1.9
			c0.1-0.5,0.2-1,0.2-1.5s0-1,0-1.2l0.7,0.4c-0.7,0.1-1.4,0.2-2.1,0.3c-0.8,0.1-1.5,0.2-2.3,0.3c-0.7,0.1-1.4,0.2-2,0.4
			c-0.4,0.1-0.8,0.3-1.2,0.5s-0.7,0.5-0.9,0.8s-0.4,0.8-0.4,1.3c0,0.4,0.1,0.8,0.3,1.2s0.5,0.7,1,1
			C361.4,321.5,362,321.7,362.8,321.7z"/>
		<path d="M373.1,322.9v-14.2h1.7v3.5h0.2v10.7H373.1z M383.3,322.9v-7.2c0-0.8-0.1-1.5-0.2-2.2s-0.4-1.2-0.7-1.7s-0.8-0.9-1.3-1.2
			c-0.5-0.3-1.2-0.4-1.9-0.4c-0.7,0-1.3,0.1-1.8,0.4c-0.5,0.2-1,0.6-1.3,1c-0.4,0.4-0.6,1-0.8,1.6c-0.2,0.6-0.3,1.3-0.3,2.2
			l-1.4-0.3c0-1.5,0.3-2.7,0.8-3.7s1.2-1.7,2.1-2.2s1.9-0.8,3.1-0.8c0.9,0,1.6,0.1,2.2,0.4s1.2,0.6,1.6,1.1c0.4,0.4,0.8,1,1.1,1.5
			s0.5,1.2,0.6,1.8s0.2,1.3,0.2,1.9v7.8L383.3,322.9L383.3,322.9z"/>
		<path d="M394.1,323.3c-1.3,0-2.5-0.3-3.4-1s-1.7-1.6-2.2-2.7s-0.7-2.4-0.7-3.8s0.2-2.7,0.7-3.8c0.5-1.1,1.2-2,2.1-2.7s2-1,3.3-1
			s2.5,0.3,3.4,1c0.9,0.6,1.6,1.5,2.1,2.7c0.5,1.1,0.7,2.4,0.7,3.8s-0.2,2.7-0.7,3.8c-0.5,1.1-1.1,2-2.1,2.7
			C396.5,323,395.4,323.3,394.1,323.3z M394.3,321.5c1,0,1.8-0.2,2.5-0.7s1.1-1.2,1.5-2s0.5-1.8,0.5-2.9s-0.2-2.1-0.5-3
			s-0.8-1.5-1.5-2s-1.5-0.7-2.5-0.7s-1.9,0.2-2.5,0.8c-0.7,0.5-1.2,1.2-1.5,2c-0.3,0.9-0.5,1.8-0.5,2.9s0.2,2,0.5,2.9s0.8,1.5,1.5,2
			S393.3,321.5,394.3,321.5z M398.8,322.9v-10.7h-0.2V304h1.9v18.9L398.8,322.9L398.8,322.9z"/>
		<path d="M412.5,322.9l-4.3-14.2h1.9l3.4,11l3.4-11h1.8l3.4,11l3.4-11h1.9l-4.3,14.2h-1.7l-3.6-11.3l-3.5,11.3H412.5z"/>
		<path d="M429.6,322.9v-14.2h1.7v3.4l-0.3-0.4c0.2-0.4,0.4-0.8,0.6-1.2c0.3-0.4,0.5-0.6,0.8-0.9c0.4-0.3,0.8-0.6,1.3-0.7
			s1-0.3,1.5-0.3s1,0,1.4,0.1v1.8c-0.5-0.1-1.1-0.2-1.7-0.1s-1.2,0.3-1.7,0.7c-0.5,0.4-0.8,0.8-1.1,1.3c-0.2,0.5-0.4,1.1-0.5,1.6
			c-0.1,0.6-0.1,1.1-0.1,1.7v7.1L429.6,322.9L429.6,322.9z"/>
		<path d="M439.4,306v-2.2h1.9v2.2H439.4z M439.4,322.9v-14.2h1.9v14.2H439.4z"/>
		<path d="M443.7,310.4v-1.7h9.3v1.7H443.7z M453,322.9c-0.8,0.2-1.6,0.2-2.4,0.2s-1.5-0.2-2.1-0.5s-1.1-0.8-1.4-1.4
			c-0.3-0.5-0.4-1.1-0.4-1.6s0-1.2,0-1.8v-13h1.9v12.9c0,0.6,0,1.1,0,1.5s0.1,0.8,0.3,1.1c0.3,0.6,0.8,0.9,1.5,1.1
			c0.7,0.1,1.5,0.1,2.6-0.1V322.9z M452.6,310.4v-1.7h9.3v1.7H452.6z M461.9,322.9c-0.8,0.2-1.6,0.2-2.4,0.2s-1.5-0.2-2.1-0.5
			s-1.1-0.8-1.4-1.4c-0.3-0.5-0.4-1.1-0.4-1.6s0-1.2,0-1.8v-13h1.9v12.9c0,0.6,0,1.1,0,1.5s0.1,0.8,0.3,1.1c0.3,0.6,0.8,0.9,1.5,1.1
			c0.7,0.1,1.5,0.1,2.6-0.1V322.9z"/>
		<path d="M470.8,323.3c-1.4,0-2.6-0.3-3.6-0.9s-1.8-1.5-2.4-2.6s-0.8-2.4-0.8-3.9c0-1.6,0.3-2.9,0.8-4c0.6-1.1,1.3-2,2.3-2.6
			s2.2-0.9,3.6-0.9c1.4,0,2.6,0.3,3.6,1c1,0.6,1.7,1.6,2.2,2.8c0.5,1.2,0.7,2.6,0.7,4.3h-2v-0.7c0-1.8-0.4-3.2-1.2-4.2
			c-0.8-0.9-1.9-1.4-3.3-1.4c-1.5,0-2.7,0.5-3.5,1.5s-1.2,2.4-1.2,4.2c0,1.8,0.4,3.2,1.2,4.2s2,1.5,3.5,1.5c1,0,1.9-0.2,2.7-0.7
			s1.4-1.1,1.8-2l1.8,0.7c-0.6,1.2-1.4,2.2-2.5,2.9C473.4,323,472.1,323.3,470.8,323.3z M465.3,316.4v-1.6h10.8v1.6H465.3z"/>
		<path d="M479.7,322.9v-14.2h1.7v3.5h0.2v10.7H479.7z M490,322.9v-7.2c0-0.8-0.1-1.5-0.2-2.2c-0.1-0.7-0.4-1.2-0.7-1.7
			s-0.8-0.9-1.3-1.2c-0.5-0.3-1.2-0.4-1.9-0.4s-1.3,0.1-1.8,0.4c-0.5,0.2-1,0.6-1.3,1c-0.4,0.4-0.6,1-0.8,1.6s-0.3,1.3-0.3,2.2
			l-1.4-0.3c0-1.5,0.3-2.7,0.8-3.7s1.2-1.7,2.1-2.2c0.9-0.5,1.9-0.8,3.1-0.8c0.9,0,1.6,0.1,2.2,0.4s1.2,0.6,1.6,1.1
			c0.4,0.4,0.8,1,1.1,1.5c0.3,0.6,0.5,1.2,0.6,1.8c0.1,0.6,0.2,1.3,0.2,1.9v7.8L490,322.9L490,322.9z"/>
		<path d="M500.6,322.9V304h1.7v10.7h0.2v8.2L500.6,322.9L500.6,322.9z M510.9,322.9v-7.2c0-0.8-0.1-1.5-0.2-2.2
			c-0.1-0.7-0.4-1.2-0.7-1.7s-0.8-0.9-1.3-1.2c-0.5-0.3-1.2-0.4-1.9-0.4s-1.3,0.1-1.8,0.4c-0.5,0.2-1,0.6-1.3,1
			c-0.4,0.4-0.6,1-0.8,1.6s-0.3,1.3-0.3,2.2l-1.4-0.3c0-1.5,0.3-2.7,0.8-3.7s1.2-1.7,2.1-2.2c0.9-0.5,1.9-0.8,3.1-0.8
			c0.9,0,1.6,0.1,2.2,0.4c0.6,0.3,1.2,0.6,1.6,1.1c0.4,0.4,0.8,1,1.1,1.5c0.3,0.5,0.5,1.2,0.6,1.8s0.2,1.3,0.2,1.9v7.8L510.9,322.9
			L510.9,322.9z"/>
		<path d="M522.2,323.3c-1.4,0-2.6-0.3-3.6-0.9s-1.8-1.5-2.4-2.6s-0.8-2.4-0.8-3.9c0-1.6,0.3-2.9,0.8-4c0.6-1.1,1.3-2,2.3-2.6
			s2.2-0.9,3.6-0.9c1.4,0,2.6,0.3,3.6,1c1,0.6,1.7,1.6,2.2,2.8c0.5,1.2,0.7,2.6,0.7,4.3h-2v-0.7c0-1.8-0.4-3.2-1.2-4.2
			c-0.8-0.9-1.9-1.4-3.3-1.4c-1.5,0-2.7,0.5-3.5,1.5s-1.2,2.4-1.2,4.2c0,1.8,0.4,3.2,1.2,4.2s2,1.5,3.5,1.5c1,0,1.9-0.2,2.7-0.7
			s1.4-1.1,1.8-2l1.8,0.7c-0.6,1.2-1.4,2.2-2.5,2.9C524.9,323,523.6,323.3,522.2,323.3z M516.8,316.4v-1.6h10.8v1.6H516.8z"/>
		<path d="M535.4,323.3c-1.1,0-2-0.2-2.7-0.6s-1.3-0.9-1.6-1.5c-0.4-0.6-0.5-1.3-0.5-2.1c0-0.8,0.2-1.4,0.5-2c0.3-0.5,0.7-1,1.3-1.3
			s1.2-0.6,1.9-0.8c0.7-0.2,1.5-0.3,2.4-0.5s1.7-0.3,2.6-0.4s1.6-0.2,2.2-0.3l-0.7,0.4c0-1.4-0.2-2.4-0.8-3.1s-1.6-1-3-1
			c-1,0-1.8,0.2-2.5,0.7c-0.7,0.4-1.1,1.1-1.4,2.1l-1.9-0.6c0.3-1.3,1-2.3,2-3s2.3-1.1,3.8-1.1c1.3,0,2.4,0.2,3.3,0.7
			s1.5,1.2,1.9,2.1c0.2,0.4,0.3,0.9,0.3,1.4c0.1,0.5,0.1,1,0.1,1.6v8.8h-1.7v-3.6l0.5,0.2c-0.5,1.2-1.2,2.1-2.2,2.8
			C538,323,536.8,323.3,535.4,323.3z M535.6,321.7c0.9,0,1.7-0.2,2.4-0.5s1.2-0.8,1.6-1.3c0.4-0.6,0.7-1.2,0.8-1.9
			c0.1-0.5,0.2-1,0.2-1.5s0-1,0-1.2l0.7,0.4c-0.7,0.1-1.4,0.2-2.1,0.3c-0.8,0.1-1.5,0.2-2.3,0.3c-0.7,0.1-1.4,0.2-2,0.4
			c-0.4,0.1-0.8,0.3-1.2,0.5s-0.7,0.5-0.9,0.8s-0.4,0.8-0.4,1.3c0,0.4,0.1,0.8,0.3,1.2s0.5,0.7,1,1
			C534.3,321.5,534.9,321.7,535.6,321.7z"/>
		<path d="M551.5,323.3c-1.3,0-2.5-0.3-3.4-1s-1.7-1.6-2.2-2.7s-0.7-2.4-0.7-3.8s0.2-2.7,0.7-3.8c0.5-1.1,1.2-2,2.1-2.7
			c0.9-0.7,2-1,3.3-1s2.5,0.3,3.4,1c0.9,0.6,1.6,1.5,2.1,2.7c0.5,1.1,0.7,2.4,0.7,3.8s-0.2,2.7-0.7,3.8c-0.5,1.1-1.1,2-2.1,2.7
			C553.9,323,552.8,323.3,551.5,323.3z M551.7,321.5c1,0,1.8-0.2,2.5-0.7s1.1-1.2,1.5-2s0.5-1.8,0.5-2.9s-0.2-2.1-0.5-3
			s-0.8-1.5-1.5-2s-1.5-0.7-2.5-0.7s-1.9,0.2-2.5,0.8c-0.7,0.5-1.2,1.2-1.5,2c-0.3,0.9-0.5,1.8-0.5,2.9s0.2,2,0.5,2.9s0.8,1.5,1.5,2
			S550.7,321.5,551.7,321.5z M556.1,322.9v-10.7h-0.2V304h1.9v18.9L556.1,322.9L556.1,322.9z"/>
		<path d="M561.8,322.9v-19.3h1.9v19.3H561.8z"/>
		<path d="M567.9,306v-2.2h1.9v2.2H567.9z M567.9,322.9v-14.2h1.9v14.2H567.9z"/>
		<path d="M573.8,322.9v-14.2h1.7v3.5h0.2v10.7H573.8z M584.1,322.9v-7.2c0-0.8-0.1-1.5-0.2-2.2c-0.1-0.7-0.4-1.2-0.7-1.7
			s-0.8-0.9-1.3-1.2c-0.5-0.3-1.2-0.4-1.9-0.4s-1.3,0.1-1.8,0.4c-0.5,0.2-1,0.6-1.3,1c-0.4,0.4-0.6,1-0.8,1.6s-0.3,1.3-0.3,2.2
			l-1.4-0.3c0-1.5,0.3-2.7,0.8-3.7s1.2-1.7,2.1-2.2c0.9-0.5,1.9-0.8,3.1-0.8c0.9,0,1.6,0.1,2.2,0.4c0.6,0.3,1.2,0.6,1.6,1.1
			c0.4,0.4,0.8,1,1.1,1.5s0.5,1.2,0.6,1.8s0.2,1.3,0.2,1.9v7.8L584.1,322.9L584.1,322.9z"/>
		<path d="M595.3,323.3c-1.4,0-2.6-0.3-3.6-0.9s-1.8-1.5-2.4-2.6c-0.6-1.1-0.8-2.4-0.8-3.9c0-1.6,0.3-2.9,0.8-4
			c0.6-1.1,1.3-2,2.3-2.6s2.2-0.9,3.6-0.9c1.4,0,2.6,0.3,3.6,1c1,0.6,1.7,1.6,2.2,2.8c0.5,1.2,0.7,2.6,0.7,4.3h-2v-0.7
			c0-1.8-0.4-3.2-1.2-4.2c-0.8-0.9-1.9-1.4-3.3-1.4c-1.5,0-2.7,0.5-3.5,1.5s-1.2,2.4-1.2,4.2c0,1.8,0.4,3.2,1.2,4.2s2,1.5,3.5,1.5
			c1,0,1.9-0.2,2.7-0.7s1.4-1.1,1.8-2l1.8,0.7c-0.6,1.2-1.4,2.2-2.5,2.9C598,323,596.7,323.3,595.3,323.3z M589.9,316.4v-1.6h10.8
			v1.6H589.9z"/>
		<path d="M610,323.3c-1.7,0-3-0.4-4.1-1.1s-1.7-1.7-2-3l2-0.3c0.2,0.8,0.7,1.4,1.4,1.9c0.8,0.5,1.7,0.7,2.8,0.7s1.9-0.2,2.6-0.7
			s0.9-1.1,0.9-1.8c0-0.4-0.1-0.8-0.3-1.1s-0.6-0.5-1.2-0.8c-0.6-0.2-1.5-0.5-2.7-0.8c-1.3-0.3-2.3-0.7-3-1.1s-1.2-0.8-1.6-1.2
			s-0.5-1-0.5-1.7c0-0.8,0.2-1.5,0.7-2.1s1.1-1.1,1.9-1.4c0.8-0.3,1.7-0.5,2.8-0.5s2,0.2,2.9,0.5c0.8,0.3,1.5,0.8,2,1.5
			c0.5,0.6,0.8,1.3,0.9,2.2l-2,0.4c-0.1-0.8-0.5-1.5-1.2-2s-1.6-0.7-2.6-0.8c-1,0-1.8,0.2-2.5,0.6c-0.6,0.4-0.9,0.9-0.9,1.6
			c0,0.4,0.1,0.7,0.3,1s0.6,0.5,1.2,0.8c0.6,0.2,1.5,0.5,2.6,0.8c1.3,0.3,2.3,0.7,3.1,1.1s1.3,0.8,1.6,1.3s0.5,1.1,0.5,1.9
			c0,1.3-0.5,2.4-1.5,3.2C613.1,322.9,611.7,323.3,610,323.3z"/>
		<path d="M162.9,349.3c-0.6,0-1.1-0.1-1.6-0.4s-0.8-0.6-1.1-1.1c-0.3-0.5-0.4-1-0.4-1.6s0.1-1.1,0.4-1.6c0.3-0.5,0.7-0.8,1.1-1.1
			c0.5-0.3,1-0.4,1.6-0.4c0.5,0,1,0.1,1.5,0.4s0.8,0.6,1.1,1.1c0.3,0.5,0.4,1,0.4,1.6s-0.1,1.1-0.4,1.6s-0.6,0.8-1.1,1.1
			S163.5,349.3,162.9,349.3z"/>
		<path d="M186.2,354.9c-1.9,0-3.5-0.4-4.8-1.3c-1.3-0.8-2.3-2-2.9-3.5c-0.6-1.5-1-3.2-1-5.1s0.3-3.6,1-5.1c0.7-1.5,1.6-2.6,2.9-3.5
			c1.3-0.8,2.9-1.3,4.8-1.3c1.9,0,3.5,0.4,4.8,1.3c1.3,0.8,2.3,2,2.9,3.5c0.7,1.5,1,3.2,1,5.1s-0.3,3.6-1,5.1
			c-0.7,1.5-1.7,2.6-2.9,3.5C189.7,354.5,188.1,354.9,186.2,354.9z M186.2,353c1.5,0,2.7-0.3,3.7-1s1.7-1.6,2.2-2.8s0.7-2.6,0.7-4.2
			s-0.2-3-0.7-4.2s-1.2-2.1-2.2-2.8c-1-0.7-2.2-1-3.7-1s-2.7,0.3-3.7,1s-1.7,1.6-2.2,2.8s-0.7,2.6-0.8,4.2s0.2,3,0.7,4.2
			s1.2,2.1,2.2,2.8C183.5,352.7,184.7,353,186.2,353z"/>
		<path d="M197.6,360.8v-20.5h1.7V351h0.2v9.8H197.6z M204,354.9c-1.3,0-2.4-0.3-3.3-1s-1.6-1.6-2.1-2.7s-0.7-2.4-0.7-3.8
			s0.2-2.7,0.7-3.8c0.5-1.1,1.2-2,2.1-2.7c0.9-0.6,2-1,3.4-1c1.3,0,2.4,0.3,3.3,1s1.6,1.6,2.1,2.7s0.7,2.4,0.7,3.8s-0.2,2.7-0.8,3.8
			c-0.5,1.1-1.2,2-2.2,2.7C206.4,354.5,205.3,354.9,204,354.9z M203.8,353.1c1,0,1.8-0.2,2.5-0.7c0.7-0.5,1.2-1.2,1.5-2
			c0.3-0.9,0.5-1.8,0.5-2.9s-0.2-2-0.5-2.9c-0.3-0.9-0.8-1.5-1.5-2c-0.7-0.5-1.5-0.8-2.5-0.8s-1.8,0.2-2.5,0.7
			c-0.7,0.5-1.1,1.2-1.5,2s-0.5,1.8-0.5,3c0,1.1,0.2,2.1,0.5,2.9c0.3,0.8,0.8,1.5,1.5,2C201.9,352.8,202.8,353.1,203.8,353.1z"/>
		<path d="M211.6,341.9v-1.7h9.3v1.7H211.6z M220.9,354.5c-0.8,0.2-1.6,0.2-2.4,0.2s-1.5-0.2-2.1-0.5s-1.1-0.8-1.4-1.4
			c-0.3-0.5-0.4-1.1-0.4-1.6s0-1.2,0-1.8v-13h1.9v12.9c0,0.6,0,1.1,0,1.5s0.1,0.8,0.3,1.1c0.3,0.6,0.8,0.9,1.5,1.1
			c0.7,0.1,1.5,0.1,2.6-0.1V354.5z"/>
		<path d="M223.9,337.6v-2.2h1.9v2.2H223.9z M223.9,354.5v-14.2h1.9v14.2H223.9z"/>
		<path d="M229.8,354.5v-14.2h1.7v3.5h0.2v10.7H229.8z M238.3,354.5v-9.2c0-1.1-0.3-2-0.9-2.7s-1.4-1-2.4-1s-1.8,0.3-2.4,1
			s-0.9,1.6-0.9,2.7l-1.2-0.6c0-0.9,0.2-1.7,0.6-2.5c0.4-0.7,1-1.3,1.8-1.7s1.6-0.6,2.5-0.6s1.7,0.2,2.4,0.6
			c0.7,0.4,1.3,0.9,1.7,1.7c0.4,0.7,0.6,1.6,0.6,2.7v9.6H238.3z M246.8,354.5v-9.3c0-1.1-0.3-2-0.9-2.6s-1.4-0.9-2.3-0.9
			c-0.5,0-1.1,0.1-1.6,0.4c-0.5,0.2-0.9,0.6-1.3,1.2c-0.3,0.5-0.5,1.3-0.5,2.1l-1.1-0.3c0-1,0.2-1.9,0.6-2.7s1-1.4,1.8-1.8
			s1.6-0.6,2.5-0.6c1.4,0,2.6,0.4,3.4,1.3c0.9,0.9,1.3,2.1,1.3,3.6v9.7L246.8,354.5L246.8,354.5z"/>
		<path d="M252.4,337.6v-2.2h1.9v2.2H252.4z M252.4,354.5v-14.2h1.9v14.2H252.4z"/>
		<path d="M256.9,354.5v-0.4l9.2-12h-8.5v-1.8h11.7v0.4l-9.2,12h8.7v1.8H256.9z"/>
		<path d="M277.1,354.9c-1.4,0-2.6-0.3-3.6-0.9s-1.8-1.5-2.4-2.6s-0.8-2.4-0.8-3.9c0-1.6,0.3-2.9,0.8-4c0.6-1.1,1.3-2,2.3-2.6
			s2.2-0.9,3.6-0.9s2.6,0.3,3.6,1c1,0.6,1.7,1.6,2.2,2.8c0.5,1.2,0.7,2.6,0.7,4.3h-2v-0.7c0-1.8-0.4-3.2-1.2-4.2
			c-0.8-0.9-1.9-1.4-3.3-1.4c-1.5,0-2.7,0.5-3.5,1.5s-1.2,2.4-1.2,4.2c0,1.8,0.4,3.2,1.2,4.2c0.8,1,2,1.5,3.5,1.5
			c1,0,1.9-0.2,2.7-0.7c0.8-0.5,1.4-1.1,1.8-2l1.8,0.7c-0.6,1.2-1.4,2.2-2.5,2.9C279.7,354.5,278.5,354.9,277.1,354.9z M271.7,347.9
			v-1.6h10.8v1.6H271.7z"/>
		<path d="M293.8,360.8l2.7-7.5v2.2l-6.2-15.3h2.1l5.1,12.8h-0.8l4.7-12.8h2l-7.6,20.5h-2V360.8z"/>
		<path d="M311,354.9c-1.4,0-2.6-0.3-3.6-1s-1.8-1.5-2.3-2.7c-0.5-1.1-0.8-2.4-0.8-3.9s0.3-2.8,0.8-3.9s1.3-2,2.3-2.6
			s2.2-0.9,3.6-0.9s2.6,0.3,3.6,1c1,0.6,1.8,1.5,2.3,2.6s0.8,2.4,0.8,3.9s-0.3,2.8-0.8,3.9s-1.3,2-2.3,2.6
			C313.6,354.6,312.4,354.9,311,354.9z M311,353c1.6,0,2.8-0.5,3.5-1.6c0.8-1,1.2-2.4,1.2-4.1s-0.4-3.1-1.2-4.1
			c-0.8-1-1.9-1.5-3.5-1.5c-1.1,0-1.9,0.2-2.6,0.7s-1.2,1.1-1.5,2c-0.3,0.8-0.5,1.8-0.5,2.9c0,1.7,0.4,3.1,1.2,4.1
			C308.3,352.5,309.5,353,311,353z"/>
		<path d="M326.1,354.8c-0.9,0-1.6-0.1-2.2-0.4s-1.2-0.6-1.6-1.1c-0.4-0.4-0.8-1-1.1-1.5c-0.3-0.6-0.5-1.2-0.6-1.8
			c-0.1-0.6-0.2-1.3-0.2-1.9v-7.8h1.9v7.2c0,0.8,0.1,1.5,0.2,2.2s0.4,1.2,0.7,1.7c0.3,0.5,0.8,0.9,1.3,1.2s1.2,0.4,1.9,0.4
			c0.7,0,1.3-0.1,1.8-0.4s1-0.6,1.3-1c0.4-0.4,0.6-1,0.8-1.6c0.2-0.6,0.3-1.4,0.3-2.1l1.4,0.3c0,1.5-0.3,2.7-0.8,3.7
			s-1.2,1.7-2.1,2.2C328.3,354.6,327.2,354.8,326.1,354.8z M330.9,354.5V351h-0.2v-10.7h1.9v14.2H330.9z"/>
		<path d="M336.3,354.5v-14.2h1.7v3.4l-0.3-0.4c0.2-0.4,0.4-0.8,0.6-1.2c0.3-0.4,0.5-0.6,0.8-0.9c0.4-0.3,0.8-0.6,1.3-0.7
			c0.5-0.2,1-0.3,1.5-0.3s1,0,1.4,0.1v1.8c-0.5-0.1-1.1-0.2-1.7-0.1s-1.2,0.3-1.7,0.7c-0.5,0.4-0.8,0.8-1.1,1.3
			c-0.2,0.5-0.4,1.1-0.5,1.6s-0.1,1.1-0.1,1.7v7.1L336.3,354.5L336.3,354.5z"/>
		<path d="M351,360.8v-20.5h1.7V351h0.2v9.8H351z M357.4,354.9c-1.3,0-2.4-0.3-3.3-1s-1.6-1.6-2.1-2.7s-0.7-2.4-0.7-3.8
			s0.2-2.7,0.7-3.8c0.5-1.1,1.2-2,2.1-2.7c0.9-0.6,2-1,3.4-1c1.3,0,2.4,0.3,3.3,1s1.6,1.6,2.1,2.7s0.7,2.4,0.7,3.8s-0.2,2.7-0.7,3.8
			c-0.5,1.1-1.2,2-2.2,2.7C359.9,354.5,358.7,354.9,357.4,354.9z M357.2,353.1c1,0,1.8-0.2,2.5-0.7s1.2-1.2,1.5-2
			c0.3-0.9,0.5-1.8,0.5-2.9s-0.2-2-0.5-2.9s-0.8-1.5-1.5-2s-1.5-0.8-2.5-0.8s-1.8,0.2-2.5,0.7s-1.1,1.2-1.5,2s-0.5,1.8-0.5,3
			c0,1.1,0.2,2.1,0.5,2.9s0.8,1.5,1.5,2C355.4,352.8,356.2,353.1,357.2,353.1z"/>
		<path d="M370.7,354.9c-1.1,0-2-0.2-2.7-0.6s-1.3-0.9-1.6-1.5c-0.4-0.6-0.5-1.3-0.5-2.1c0-0.8,0.2-1.4,0.5-2c0.3-0.5,0.7-1,1.3-1.3
			s1.2-0.6,1.9-0.8c0.7-0.2,1.5-0.3,2.4-0.5s1.7-0.3,2.6-0.4s1.6-0.2,2.2-0.3l-0.7,0.4c0-1.4-0.2-2.4-0.8-3.1c-0.6-0.7-1.6-1-3-1
			c-1,0-1.8,0.2-2.5,0.7c-0.7,0.4-1.1,1.1-1.4,2.1l-1.9-0.6c0.3-1.3,1-2.3,2-3s2.3-1.1,3.8-1.1c1.3,0,2.4,0.2,3.3,0.7
			s1.5,1.2,1.9,2.1c0.2,0.4,0.3,0.9,0.3,1.4c0.1,0.5,0.1,1,0.1,1.6v8.8h-1.7v-3.6l0.5,0.2c-0.5,1.2-1.2,2.1-2.2,2.8
			C373.3,354.6,372.1,354.9,370.7,354.9z M370.9,353.2c0.9,0,1.7-0.2,2.4-0.5s1.2-0.8,1.6-1.3c0.4-0.6,0.7-1.2,0.8-1.9
			c0.1-0.5,0.2-1,0.2-1.5s0-1,0-1.2l0.7,0.4c-0.7,0.1-1.4,0.2-2.1,0.3c-0.8,0.1-1.5,0.2-2.3,0.3c-0.7,0.1-1.4,0.2-2,0.4
			c-0.4,0.1-0.8,0.3-1.2,0.5s-0.7,0.5-0.9,0.8s-0.4,0.8-0.4,1.3c0,0.4,0.1,0.8,0.3,1.2s0.5,0.7,1,1
			C369.5,353.1,370.1,353.2,370.9,353.2z"/>
		<path d="M386.7,354.9c-1.3,0-2.5-0.3-3.4-1s-1.7-1.6-2.2-2.7s-0.7-2.4-0.7-3.8s0.2-2.7,0.7-3.8c0.5-1.1,1.2-2,2.1-2.7s2-1,3.3-1
			s2.5,0.3,3.4,1c0.9,0.6,1.6,1.5,2.1,2.7c0.5,1.1,0.7,2.4,0.7,3.8s-0.2,2.7-0.7,3.8c-0.5,1.1-1.1,2-2.1,2.7
			C389.1,354.5,388,354.9,386.7,354.9z M386.8,361.2c-0.7,0-1.4-0.1-2.2-0.3c-0.7-0.2-1.4-0.6-2-1s-1.1-1.1-1.5-1.8l1.7-1
			c0.4,0.8,0.9,1.4,1.7,1.7c0.7,0.3,1.4,0.5,2.2,0.5c1,0,1.9-0.2,2.5-0.6s1.1-0.9,1.4-1.7c0.3-0.7,0.4-1.7,0.4-2.8v-3.8h0.2v-10.2
			h1.7v14c0,0.4,0,0.8,0,1.2c0,0.4-0.1,0.7-0.1,1.1c-0.2,1.1-0.5,1.9-1,2.6s-1.2,1.2-2.1,1.5C389,361,388,361.2,386.8,361.2z
			 M386.9,353.1c1,0,1.8-0.2,2.5-0.7s1.1-1.2,1.5-2s0.5-1.8,0.5-2.9s-0.2-2.1-0.5-3s-0.8-1.5-1.5-2s-1.5-0.7-2.5-0.7
			s-1.9,0.2-2.5,0.8c-0.7,0.5-1.2,1.2-1.5,2c-0.3,0.9-0.5,1.8-0.5,2.9s0.2,2,0.5,2.9s0.8,1.5,1.5,2S385.9,353.1,386.9,353.1z"/>
		<path d="M402.8,354.9c-1.4,0-2.6-0.3-3.6-0.9s-1.8-1.5-2.4-2.6s-0.8-2.4-0.8-3.9c0-1.6,0.3-2.9,0.8-4c0.6-1.1,1.3-2,2.3-2.6
			s2.2-0.9,3.6-0.9s2.6,0.3,3.6,1c1,0.6,1.7,1.6,2.2,2.8c0.5,1.2,0.7,2.6,0.7,4.3h-2v-0.7c0-1.8-0.4-3.2-1.2-4.2
			c-0.8-0.9-1.9-1.4-3.3-1.4c-1.5,0-2.7,0.5-3.5,1.5s-1.2,2.4-1.2,4.2c0,1.8,0.4,3.2,1.2,4.2s2,1.5,3.5,1.5c1,0,1.9-0.2,2.7-0.7
			s1.4-1.1,1.8-2l1.8,0.7c-0.6,1.2-1.4,2.2-2.5,2.9C405.4,354.5,404.2,354.9,402.8,354.9z M397.3,347.9v-1.6h10.8v1.6H397.3z"/>
		<path d="M422.7,354.9c-1.7,0-3-0.4-4.1-1.1s-1.7-1.7-2-3l2-0.3c0.2,0.8,0.7,1.4,1.4,1.9c0.8,0.5,1.7,0.7,2.8,0.7
			c1.1,0,1.9-0.2,2.6-0.7s0.9-1.1,0.9-1.8c0-0.4-0.1-0.8-0.3-1.1s-0.6-0.5-1.2-0.8c-0.6-0.2-1.5-0.5-2.7-0.8c-1.3-0.3-2.3-0.7-3-1.1
			s-1.2-0.8-1.6-1.2s-0.5-1-0.5-1.7c0-0.8,0.2-1.5,0.7-2.1s1.1-1.1,1.9-1.4s1.7-0.5,2.8-0.5s2,0.2,2.9,0.5c0.8,0.3,1.5,0.8,2,1.5
			c0.5,0.6,0.8,1.3,0.9,2.2l-2,0.4c-0.1-0.8-0.5-1.5-1.2-2s-1.6-0.7-2.6-0.8c-1,0-1.8,0.2-2.5,0.6c-0.6,0.4-0.9,0.9-0.9,1.6
			c0,0.4,0.1,0.7,0.3,1c0.2,0.3,0.6,0.5,1.2,0.8c0.6,0.2,1.5,0.5,2.6,0.8c1.3,0.3,2.3,0.7,3.1,1.1s1.3,0.8,1.6,1.3
			c0.3,0.5,0.5,1.1,0.5,1.9c0,1.3-0.5,2.4-1.5,3.2C425.8,354.5,424.4,354.9,422.7,354.9z"/>
		<path d="M431.2,360.8v-20.5h1.7V351h0.2v9.8H431.2z M437.6,354.9c-1.3,0-2.4-0.3-3.3-1s-1.6-1.6-2.1-2.7s-0.7-2.4-0.7-3.8
			s0.2-2.7,0.7-3.8c0.5-1.1,1.2-2,2.1-2.7c0.9-0.6,2-1,3.4-1c1.3,0,2.4,0.3,3.3,1s1.6,1.6,2.1,2.7s0.7,2.4,0.7,3.8s-0.2,2.7-0.8,3.8
			c-0.5,1.1-1.2,2-2.2,2.7C440,354.5,438.9,354.9,437.6,354.9z M437.4,353.1c1,0,1.8-0.2,2.5-0.7s1.2-1.2,1.5-2
			c0.3-0.9,0.5-1.8,0.5-2.9s-0.2-2-0.5-2.9s-0.8-1.5-1.5-2s-1.5-0.8-2.5-0.8s-1.8,0.2-2.5,0.7s-1.1,1.2-1.5,2s-0.5,1.8-0.5,3
			c0,1.1,0.2,2.1,0.5,2.9s0.8,1.5,1.5,2C435.5,352.8,436.4,353.1,437.4,353.1z"/>
		<path d="M452.8,354.9c-1.4,0-2.6-0.3-3.6-0.9s-1.8-1.5-2.4-2.6s-0.8-2.4-0.8-3.9c0-1.6,0.3-2.9,0.8-4c0.6-1.1,1.3-2,2.3-2.6
			s2.2-0.9,3.6-0.9s2.6,0.3,3.6,1c1,0.6,1.7,1.6,2.2,2.8c0.5,1.2,0.7,2.6,0.7,4.3h-2v-0.7c0-1.8-0.4-3.2-1.2-4.2
			c-0.8-0.9-1.9-1.4-3.3-1.4c-1.5,0-2.7,0.5-3.5,1.5s-1.2,2.4-1.2,4.2c0,1.8,0.4,3.2,1.2,4.2c0.8,1,2,1.5,3.5,1.5
			c1,0,1.9-0.2,2.7-0.7c0.8-0.5,1.4-1.1,1.8-2l1.8,0.7c-0.6,1.2-1.4,2.2-2.5,2.9C455.4,354.5,454.2,354.9,452.8,354.9z M447.3,347.9
			v-1.6h10.8v1.6H447.3z"/>
		<path d="M468.1,354.9c-1.4,0-2.6-0.3-3.6-0.9c-1-0.6-1.8-1.5-2.4-2.6s-0.8-2.4-0.8-3.9c0-1.6,0.3-2.9,0.8-4c0.6-1.1,1.3-2,2.3-2.6
			s2.2-0.9,3.6-0.9c1.4,0,2.6,0.3,3.6,1c1,0.6,1.7,1.6,2.2,2.8c0.5,1.2,0.7,2.6,0.7,4.3h-2v-0.7c0-1.8-0.4-3.2-1.2-4.2
			c-0.8-0.9-1.9-1.4-3.3-1.4c-1.5,0-2.7,0.5-3.5,1.5s-1.2,2.4-1.2,4.2c0,1.8,0.4,3.2,1.2,4.2c0.8,1,2,1.5,3.5,1.5
			c1,0,1.9-0.2,2.7-0.7s1.4-1.1,1.8-2l1.8,0.7c-0.6,1.2-1.4,2.2-2.5,2.9C470.8,354.5,469.5,354.9,468.1,354.9z M462.7,347.9v-1.6
			h10.8v1.6H462.7z"/>
		<path d="M483,354.9c-1.3,0-2.5-0.3-3.4-1s-1.7-1.6-2.2-2.7s-0.7-2.4-0.7-3.8s0.2-2.7,0.7-3.8c0.5-1.1,1.2-2,2.1-2.7
			c0.9-0.7,2-1,3.3-1s2.5,0.3,3.4,1c0.9,0.6,1.6,1.5,2.1,2.7c0.5,1.1,0.7,2.4,0.7,3.8s-0.2,2.7-0.7,3.8c-0.5,1.1-1.1,2-2.1,2.7
			C485.4,354.5,484.3,354.9,483,354.9z M483.2,353.1c1,0,1.8-0.2,2.5-0.7s1.1-1.2,1.5-2s0.5-1.8,0.5-2.9s-0.2-2.1-0.5-3
			s-0.8-1.5-1.5-2s-1.5-0.7-2.5-0.7s-1.9,0.2-2.5,0.8c-0.7,0.5-1.2,1.2-1.5,2c-0.3,0.9-0.5,1.8-0.5,2.9s0.2,2,0.5,2.9s0.8,1.5,1.5,2
			S482.2,353.1,483.2,353.1z M487.7,354.5v-10.7h-0.2v-8.2h1.9v18.9L487.7,354.5L487.7,354.5z"/>
	</g>
	<path class="st8" d="M401.1,49.1c-6.5-5.8-14.1-9.3-22.6-10.7c-9.4-1.5-18.6-0.3-27.2,3.9c-13,6.5-21.3,16.8-24.8,30.9
		c-0.5,2.1-0.7,4.3-1,6.5c0,0.3-0.1,0.6-0.2,0.9c0,1.9,0,3.8,0,5.7c0.2,1.7,0.4,3.4,0.7,5.1c1.9,10.5,6.8,19.2,14.8,26.3
		c6.9,6.1,14.9,9.7,24,11c1.1,0.2,2.2,0.3,3.3,0.4c1.9,0,3.8,0,5.7,0c1.7-0.2,3.4-0.4,5-0.7c13.7-2.6,24.2-9.9,31.4-21.8
		c4.5-7.4,6.6-15.4,6.4-24C416.4,69.2,411.1,58,401.1,49.1z M351.4,85.4c-0.2,0-0.4,0-0.6,0c0,0.2,0,0.4,0,0.6c0,6.4,0,12.8,0,19.2
		c0,1.3-0.4,2.2-1.6,2.6c-0.3,0-0.6,0-0.9,0c-1.2-0.4-1.6-1.3-1.6-2.5c0-12.7,0-25.4,0-38c0-4,2.7-7.3,6.6-8.1
		c0.5-0.1,1-0.1,1.6-0.1c4.7,0,9.4,0,14.1,0c4.6,0,8.2,3.6,8.2,8.2c0,3.3,0,6.6,0,9.9c0,4.7-3.5,8.3-8.3,8.3
		C363.1,85.4,357.2,85.4,351.4,85.4z M395.5,86.3c-0.1,0.3-0.1,0.7-0.2,1c-0.9,3.6-4.1,6.2-7.9,6.2c-4.1,0-8.1,0-12.2,0
		c-2.8,0-5-1.2-6.7-3.5c-0.1-0.1-0.2-0.2-0.2-0.4v-0.1c1-0.1,2-0.1,2.9-0.3c5-0.8,9.3-5.1,9.9-10.2c0.1-0.8,0.2-1.5,0.2-2.3
		c0-3,0-6.1,0-9.1c0-0.2,0-0.4,0-0.6c0.1,0,0.1-0.1,0.2-0.1c2.2,0,4.5-0.1,6.7,0.1c3.7,0.2,6.7,3.2,7.3,6.8c0,0.1,0.1,0.2,0.1,0.4
		C395.5,78.3,395.5,82.3,395.5,86.3z"/>
</g>
</svg>
