<?xml version="1.0" encoding="utf-8"?>
<!-- Generator: Adobe Illustrator 26.3.1, SVG Export Plug-In . SVG Version: 6.00 Build 0)  -->
<svg version="1.1" id="Layer_1" xmlns="http://www.w3.org/2000/svg" xmlns:xlink="http://www.w3.org/1999/xlink" x="0px" y="0px"
	 viewBox="0 0 742.1 434.7" style="enable-background:new 0 0 742.1 434.7;" xml:space="preserve">
<style type="text/css">
	.st0{stroke:#969696;stroke-width:6;stroke-miterlimit:10;}
	.st1{fill:none;stroke:#000000;stroke-miterlimit:10;}
	.st2{fill:#D5E1EF;}
	.st3{fill:none;stroke:#000000;stroke-width:0.5;stroke-miterlimit:10;}
	.st4{fill:#EBD4D4;}
	.st5{fill:#FF0000;}
	.st6{fill:none;}
	.st7{fill:#D4E8DF;}
	.st8{fill:#22B273;}
</style>
<g>
	<path class="st4" d="M687.6,434.7H54.5C24.4,434.7,0,410.3,0,380.2V54.5C0,24.4,24.4,0,54.5,0h633.1c30.1,0,54.5,24.4,54.5,54.5
		v325.7C742.1,410.3,717.7,434.7,687.6,434.7z"/>
	<line class="st3" x1="588.6" y1="204" x2="153.6" y2="204"/>
	<g id="_x33_38bGP.tif">
		<g>
			<path class="st5" d="M325.4,86.3c0-1.9,0-3.8,0-5.7c0.1-0.3,0.1-0.6,0.2-0.9c0.3-2.2,0.5-4.4,1-6.5c3.5-14.1,11.8-24.5,24.8-30.9
				c8.6-4.3,17.7-5.5,27.2-3.9c8.6,1.4,16.2,5,22.6,10.7c10,8.9,15.2,20.1,15.6,33.5c0.2,8.6-1.9,16.7-6.4,24
				c-7.2,11.9-17.7,19.2-31.4,21.8c-1.7,0.3-3.3,0.5-5,0.7c-1.9,0-3.8,0-5.7,0c-1.1-0.1-2.2-0.3-3.3-0.4c-9.1-1.3-17.1-4.9-24-11
				c-7.9-7-12.9-15.8-14.8-26.3C325.8,89.7,325.6,88,325.4,86.3z M380.3,99.2c1.8,1.9,3.5,3.7,5.2,5.4c2.3,2.3,5.7,2.2,8.1,0
				c0.6-0.5,1.1-1.1,1.6-1.7c1.7-1.8,3.5-3.5,5.1-5.3c2-2.2,1.2-5.5-1.6-6.3c-1.5-0.5-2.8,0-4,1.1c-1.8,1.7-3.7,3.4-5.6,5.1
				c0,0.1-0.2-0.1-0.4-0.3c-1.4-1.4-2.9-2.9-4.3-4.3c-2.6-2.5-5.9-2.5-8.5,0c-1.5,1.5-3,2.9-4.4,4.4c-0.2,0.2-0.4,0.3-0.7,0.6
				c-1.6-1.6-3.1-3.2-4.6-4.8c-2.8-2.8-6.1-2.8-8.9,0c-1.6,1.6-3.1,3.2-4.8,4.9c-0.3-0.4-0.5-0.7-0.7-0.9c-1.5-1.6-3-3.2-4.6-4.7
				c-1.6-1.7-4-1.7-5.6-0.2c-1.5,1.5-1.5,3.8,0.1,5.5c2.1,2.2,4.3,4.4,6.5,6.7c2.5,2.6,5.9,2.6,8.5,0.1c1.5-1.4,2.9-2.9,4.4-4.3
				c0.2-0.2,0.4-0.4,0.7-0.7c1.6,1.7,3.2,3.3,4.8,4.9c2.7,2.7,6,2.7,8.7,0C377,102.6,378.6,101,380.3,99.2z M356.6,72
				c-0.4,0.3-0.7,0.5-1,0.7c-1.9,1.3-3.8,2.5-5.6,3.8c-1.8,1.2-2.3,3.5-1.1,5.2c1.1,1.8,3.4,2.3,5.2,1.1c3.9-2.5,7.7-5.1,11.6-7.7
				c2.2-1.5,2.2-4.6,0-6.2c-0.4-0.3-0.9-0.6-1.3-0.9c-3.4-2.2-6.7-4.5-10.1-6.7c-2-1.3-4.5-0.7-5.6,1.3c-0.9,1.8-0.4,3.8,1.3,5
				C352.1,69.1,354.3,70.5,356.6,72z M385.6,72c0.3-0.2,0.6-0.4,0.8-0.6c1.9-1.3,3.8-2.5,5.6-3.8c2-1.3,2.5-3.6,1.2-5.4
				c-1.2-1.8-3.5-2.2-5.5-0.9c-3.7,2.4-7.4,4.9-11,7.4c-2.5,1.7-2.5,4.8,0,6.5c1,0.7,2,1.3,3,2c2.7,1.8,5.5,3.7,8.2,5.5
				c2.4,1.5,5.3,0.4,5.9-2.3c0.4-1.5-0.2-3-1.7-4C390,74.9,387.9,73.5,385.6,72z"/>
		</g>
	</g>
	<g>
		<g>
			<path d="M283,174.6V153h13v3.6h-9.4v5.4h7.6v3.6h-7.6v9H283z"/>
			<path d="M298.7,174.6v-16.2h3.2v3.9l-0.4-0.5c0.2-0.5,0.5-1,0.8-1.5c0.3-0.4,0.7-0.8,1.2-1.1c0.4-0.3,0.8-0.5,1.3-0.6
				c0.5-0.2,1-0.2,1.5-0.3c0.5,0,1,0,1.5,0.1v3.4c-0.5-0.1-1-0.2-1.7-0.1s-1.2,0.2-1.7,0.5s-0.9,0.6-1.2,1s-0.5,0.9-0.7,1.4
				c-0.1,0.5-0.2,1.1-0.2,1.7v8.2L298.7,174.6L298.7,174.6z"/>
			<path d="M316.7,175.1c-1.2,0-2.2-0.2-3-0.6s-1.4-0.9-1.9-1.5s-0.8-1.3-1-2s-0.4-1.4-0.4-2s-0.1-1.1-0.1-1.5v-9h3.7v7.8
				c0,0.5,0,1.1,0.1,1.7s0.2,1.2,0.5,1.8c0.3,0.6,0.6,1,1.1,1.4s1.2,0.6,2,0.6c0.5,0,0.9-0.1,1.4-0.2s0.9-0.4,1.2-0.8
				c0.4-0.4,0.7-0.9,0.9-1.5c0.2-0.6,0.3-1.4,0.3-2.4l2.1,0.9c0,1.4-0.3,2.6-0.8,3.8c-0.5,1.1-1.3,2-2.4,2.7
				C319.5,174.8,318.2,175.1,316.7,175.1z M322,174.6v-5h-0.4v-11.2h3.6v16.2H322z"/>
			<path d="M335.7,175.1c-2,0-3.6-0.5-4.9-1.4c-1.2-0.9-2-2.2-2.3-3.8l3.7-0.6c0.2,0.8,0.6,1.4,1.3,1.9s1.5,0.7,2.5,0.7
				c0.9,0,1.5-0.2,2-0.5s0.7-0.8,0.7-1.4c0-0.4-0.1-0.7-0.3-0.9c-0.2-0.2-0.6-0.4-1.1-0.7c-0.6-0.2-1.5-0.5-2.7-0.8
				c-1.4-0.4-2.4-0.7-3.2-1.2c-0.8-0.4-1.4-0.9-1.7-1.5c-0.4-0.6-0.5-1.3-0.5-2.1c0-1,0.3-1.9,0.8-2.6c0.5-0.8,1.3-1.3,2.2-1.7
				c0.9-0.4,2.1-0.6,3.4-0.6s2.4,0.2,3.4,0.6s1.8,0.9,2.4,1.7c0.6,0.7,1,1.6,1.1,2.5l-3.7,0.7c-0.1-0.7-0.4-1.2-0.9-1.6
				s-1.2-0.6-2.1-0.7c-0.9,0-1.5,0.1-2.1,0.4c-0.5,0.3-0.8,0.7-0.8,1.3c0,0.3,0.1,0.6,0.3,0.8s0.6,0.4,1.3,0.7
				c0.6,0.2,1.6,0.5,2.8,0.8c1.3,0.3,2.3,0.7,3.1,1.1c0.8,0.4,1.3,0.9,1.7,1.5c0.3,0.6,0.5,1.3,0.5,2.1c0,1.6-0.6,2.9-1.8,3.8
				C339.4,174.6,337.7,175.1,335.7,175.1z"/>
			<path d="M343.8,161.3v-2.8h11.3v2.8H343.8z M355.1,174.6c-1.1,0.2-2.1,0.3-3.1,0.3s-1.9-0.2-2.8-0.6c-0.8-0.4-1.4-0.9-1.8-1.7
				c-0.4-0.7-0.6-1.4-0.6-2.1s0-1.6,0-2.5v-14.1h3.6v13.9c0,0.7,0,1.2,0,1.7s0.1,0.9,0.3,1.2c0.4,0.6,0.9,0.9,1.7,1
				c0.8,0.1,1.7,0,2.7-0.1L355.1,174.6L355.1,174.6z"/>
			<path d="M358.6,174.6v-16.2h3.2v3.9l-0.4-0.5c0.2-0.5,0.5-1,0.8-1.5c0.3-0.4,0.7-0.8,1.2-1.1c0.4-0.3,0.8-0.5,1.3-0.6
				c0.5-0.2,1-0.2,1.5-0.3c0.5,0,1,0,1.5,0.1v3.4c-0.5-0.1-1-0.2-1.7-0.1s-1.2,0.2-1.7,0.5s-0.9,0.6-1.2,1s-0.5,0.9-0.7,1.4
				c-0.1,0.5-0.2,1.1-0.2,1.7v8.2L358.6,174.6L358.6,174.6z"/>
			<path d="M374.8,175.1c-1.2,0-2.2-0.2-3-0.7c-0.8-0.4-1.4-1-1.8-1.8s-0.6-1.6-0.6-2.4s0.1-1.5,0.4-2.1s0.7-1.2,1.2-1.6
				c0.5-0.5,1.2-0.8,2.1-1.1c0.6-0.2,1.4-0.4,2.3-0.6s1.8-0.3,2.8-0.5c1-0.1,2.1-0.3,3.2-0.5l-1.3,0.7c0-1.1-0.2-1.9-0.8-2.5
				s-1.4-0.8-2.6-0.8c-0.7,0-1.4,0.2-2.1,0.5s-1.2,0.9-1.4,1.8l-3.3-1c0.4-1.4,1.2-2.5,2.3-3.3c1.1-0.8,2.6-1.2,4.6-1.2
				c1.4,0,2.7,0.2,3.8,0.7c1.1,0.5,1.9,1.2,2.4,2.3c0.3,0.6,0.5,1.2,0.5,1.7c0.1,0.6,0.1,1.2,0.1,1.9v9.9h-3.2V171l0.5,0.6
				c-0.7,1.2-1.6,2-2.6,2.6C377.4,174.8,376.2,175.1,374.8,175.1z M375.5,172.2c0.8,0,1.5-0.1,2.1-0.4s1-0.6,1.4-1.1
				s0.6-0.8,0.7-1.2c0.2-0.5,0.3-1,0.3-1.6s0-1.1,0-1.4l1.1,0.3c-1.1,0.2-2,0.3-2.8,0.5s-1.5,0.3-2,0.4c-0.6,0.1-1.1,0.2-1.5,0.4
				c-0.4,0.2-0.8,0.3-1.1,0.5c-0.3,0.2-0.5,0.4-0.7,0.7c-0.2,0.3-0.2,0.6-0.2,0.9c0,0.4,0.1,0.8,0.3,1.1c0.2,0.3,0.5,0.5,0.9,0.7
				C374.4,172.1,374.9,172.2,375.5,172.2z"/>
			<path d="M385.7,161.3v-2.8H397v2.8H385.7z M397,174.6c-1.1,0.2-2.1,0.3-3.1,0.3s-1.9-0.2-2.8-0.6c-0.8-0.4-1.4-0.9-1.8-1.7
				c-0.4-0.7-0.6-1.4-0.6-2.1s0-1.6,0-2.5v-14.1h3.6v13.9c0,0.7,0,1.2,0,1.7s0.1,0.9,0.3,1.2c0.4,0.6,0.9,0.9,1.7,1
				c0.8,0.1,1.7,0,2.7-0.1L397,174.6L397,174.6z"/>
			<path d="M400.8,156v-3.3h3.6v3.3H400.8z M400.8,174.6v-16.2h3.6v16.2H400.8z"/>
			<path d="M416.1,175.1c-1.6,0-3-0.4-4.2-1.1s-2.1-1.7-2.8-3c-0.7-1.3-1-2.8-1-4.4c0-1.7,0.3-3.2,1-4.5s1.6-2.3,2.8-3
				c1.2-0.7,2.6-1.1,4.2-1.1s3,0.4,4.3,1.1c1.2,0.7,2.2,1.7,2.8,3s1,2.8,1,4.4c0,1.7-0.3,3.2-1,4.4s-1.6,2.3-2.8,3
				C419.1,174.7,417.7,175.1,416.1,175.1z M416.1,171.7c1.4,0,2.5-0.5,3.2-1.4s1-2.2,1-3.7c0-1.6-0.4-2.8-1.1-3.8
				c-0.7-0.9-1.8-1.4-3.2-1.4c-1,0-1.8,0.2-2.4,0.7c-0.6,0.4-1.1,1-1.4,1.8s-0.5,1.7-0.5,2.7c0,1.6,0.4,2.8,1.1,3.8
				C413.6,171.2,414.7,171.7,416.1,171.7z"/>
			<path d="M427.4,174.6v-16.2h3.2v5h0.4v11.2H427.4z M438.7,174.6v-7.8c0-0.5,0-1.1-0.1-1.7s-0.2-1.2-0.5-1.8s-0.6-1-1.1-1.4
				s-1.2-0.6-2-0.6c-0.5,0-0.9,0.1-1.4,0.2c-0.5,0.2-0.9,0.4-1.2,0.8c-0.4,0.4-0.7,0.9-0.9,1.5c-0.2,0.6-0.3,1.4-0.3,2.4l-2.1-0.9
				c0-1.4,0.3-2.6,0.8-3.8c0.5-1.1,1.3-2,2.4-2.7c1-0.7,2.3-1,3.8-1c1.2,0,2.2,0.2,3,0.6s1.4,0.9,1.9,1.5s0.8,1.3,1,2s0.4,1.4,0.4,2
				s0.1,1.1,0.1,1.5v9h-3.8V174.6z"/>
			<path d="M452.5,175.1c-2,0-3.6-0.5-4.9-1.4c-1.2-0.9-2-2.2-2.3-3.8l3.7-0.6c0.2,0.8,0.6,1.4,1.3,1.9c0.7,0.5,1.5,0.7,2.5,0.7
				c0.9,0,1.5-0.2,2-0.5s0.7-0.8,0.7-1.4c0-0.4-0.1-0.7-0.3-0.9c-0.2-0.2-0.6-0.4-1.1-0.7s-1.5-0.5-2.7-0.8
				c-1.4-0.4-2.4-0.7-3.2-1.2s-1.4-0.9-1.7-1.5c-0.4-0.6-0.5-1.3-0.5-2.1c0-1,0.3-1.9,0.8-2.6s1.3-1.3,2.2-1.7
				c0.9-0.4,2.1-0.6,3.4-0.6s2.4,0.2,3.4,0.6s1.8,0.9,2.4,1.7c0.6,0.7,1,1.6,1.1,2.5l-3.7,0.7c-0.1-0.7-0.4-1.2-0.9-1.6
				s-1.2-0.6-2.1-0.7c-0.9,0-1.5,0.1-2.1,0.4c-0.5,0.3-0.8,0.7-0.8,1.3c0,0.3,0.1,0.6,0.3,0.8s0.6,0.4,1.3,0.7
				c0.6,0.2,1.6,0.5,2.8,0.8c1.3,0.3,2.3,0.7,3.1,1.1c0.8,0.4,1.3,0.9,1.7,1.5s0.5,1.3,0.5,2.1c0,1.6-0.6,2.9-1.8,3.8
				C456.2,174.6,454.6,175.1,452.5,175.1z"/>
		</g>
	</g>
	<g>
		<rect x="152.4" y="246.4" class="st6" width="481.1" height="110.1"/>
		<path d="M161,263.8c-0.6,0-1.1-0.1-1.6-0.4s-0.8-0.6-1.1-1.1c-0.3-0.5-0.4-1-0.4-1.6s0.1-1.1,0.4-1.6c0.3-0.5,0.7-0.8,1.1-1.1
			c0.5-0.3,1-0.4,1.6-0.4c0.5,0,1,0.1,1.5,0.4s0.8,0.6,1.1,1.1c0.3,0.5,0.4,1,0.4,1.6s-0.1,1.1-0.4,1.6s-0.6,0.8-1.1,1.1
			S161.6,263.8,161,263.8z"/>
		<path d="M176.6,269.1v-18.9h1.9l10.4,15.5v-15.5h1.9v18.9h-1.9l-10.4-15.5v15.5H176.6z"/>
		<path d="M200.6,269.5c-1.4,0-2.6-0.3-3.6-1s-1.8-1.5-2.3-2.7c-0.5-1.1-0.8-2.4-0.8-3.9s0.3-2.8,0.8-3.9s1.3-2,2.3-2.6
			s2.2-0.9,3.6-0.9c1.4,0,2.6,0.3,3.6,1c1,0.6,1.8,1.5,2.3,2.6s0.8,2.4,0.8,3.9s-0.3,2.8-0.8,3.9s-1.3,2-2.3,2.6
			S202,269.5,200.6,269.5z M200.6,267.6c1.6,0,2.8-0.5,3.5-1.6c0.8-1,1.2-2.4,1.2-4.1s-0.4-3.1-1.2-4.1c-0.8-1-1.9-1.5-3.5-1.5
			c-1.1,0-1.9,0.2-2.6,0.7s-1.2,1.1-1.5,2c-0.3,0.8-0.5,1.8-0.5,2.9c0,1.7,0.4,3.1,1.2,4.1C197.9,267.1,199,267.6,200.6,267.6z"/>
		<path d="M208.6,256.5v-1.7h9.3v1.7H208.6z M217.9,269.1c-0.8,0.2-1.6,0.2-2.4,0.2s-1.5-0.2-2.1-0.5s-1.1-0.8-1.4-1.4
			c-0.3-0.5-0.4-1.1-0.4-1.6s0-1.2,0-1.8v-13h1.9v12.9c0,0.6,0,1.1,0,1.5s0.1,0.8,0.3,1.1c0.3,0.6,0.8,0.9,1.5,1.1
			c0.7,0.1,1.5,0.1,2.6-0.1V269.1z"/>
		<path d="M231.4,269.4c-0.9,0-1.6-0.1-2.2-0.4s-1.2-0.6-1.6-1.1c-0.4-0.4-0.8-1-1.1-1.5c-0.3-0.6-0.5-1.2-0.6-1.8
			c-0.1-0.6-0.2-1.3-0.2-1.9v-7.8h1.9v7.2c0,0.8,0.1,1.5,0.2,2.2s0.4,1.2,0.7,1.7c0.3,0.5,0.8,0.9,1.3,1.2s1.2,0.4,1.9,0.4
			c0.7,0,1.3-0.1,1.8-0.4s1-0.6,1.3-1c0.4-0.4,0.6-1,0.8-1.6c0.2-0.6,0.3-1.4,0.3-2.1l1.4,0.3c0,1.5-0.3,2.7-0.8,3.7
			s-1.2,1.7-2.1,2.2C233.6,269.2,232.6,269.4,231.4,269.4z M236.2,269.1v-3.5H236v-10.7h1.9v14.2H236.2z"/>
		<path d="M246.9,269.4c-1.7,0-3-0.4-4.1-1.1s-1.7-1.7-2-3l2-0.3c0.2,0.8,0.7,1.4,1.4,1.9c0.7,0.5,1.7,0.7,2.8,0.7
			c1.1,0,1.9-0.2,2.6-0.7c0.6-0.5,0.9-1.1,0.9-1.8c0-0.4-0.1-0.8-0.3-1.1s-0.6-0.5-1.2-0.8c-0.6-0.2-1.5-0.5-2.7-0.8
			c-1.3-0.3-2.3-0.7-3-1.1s-1.2-0.8-1.6-1.2c-0.3-0.5-0.5-1-0.5-1.7c0-0.8,0.2-1.5,0.7-2.1s1.1-1.1,1.9-1.4s1.7-0.5,2.8-0.5
			c1.1,0,2,0.2,2.9,0.5c0.8,0.3,1.5,0.8,2,1.5c0.5,0.6,0.8,1.3,0.9,2.2l-2,0.4c-0.1-0.8-0.5-1.5-1.2-2s-1.6-0.7-2.6-0.8
			c-1,0-1.8,0.2-2.5,0.6c-0.6,0.4-0.9,0.9-0.9,1.6c0,0.4,0.1,0.7,0.3,1c0.2,0.3,0.6,0.5,1.2,0.8c0.6,0.2,1.5,0.5,2.6,0.8
			c1.3,0.3,2.3,0.7,3.1,1.1c0.7,0.4,1.3,0.8,1.6,1.3c0.3,0.5,0.5,1.1,0.5,1.9c0,1.3-0.5,2.4-1.5,3.2
			C250,269.1,248.7,269.4,246.9,269.4z"/>
		<path d="M261.4,269.5c-1.4,0-2.6-0.3-3.6-0.9s-1.8-1.5-2.4-2.6s-0.8-2.4-0.8-3.9c0-1.6,0.3-2.9,0.8-4c0.6-1.1,1.3-2,2.3-2.6
			s2.2-0.9,3.6-0.9s2.6,0.3,3.6,1c1,0.6,1.7,1.6,2.2,2.8c0.5,1.2,0.7,2.6,0.7,4.3h-2V262c0-1.8-0.4-3.2-1.2-4.2
			c-0.8-0.9-1.9-1.4-3.3-1.4c-1.5,0-2.7,0.5-3.5,1.5s-1.2,2.4-1.2,4.2c0,1.8,0.4,3.2,1.2,4.2c0.8,1,2,1.5,3.5,1.5
			c1,0,1.9-0.2,2.7-0.7c0.8-0.5,1.4-1.1,1.8-2l1.8,0.7c-0.6,1.2-1.4,2.2-2.5,2.9C264,269.1,262.8,269.5,261.4,269.5z M256,262.5
			v-1.6h10.8v1.6H256z"/>
		<path d="M270.8,269.1v-14.2h1.7v3.4l-0.3-0.4c0.2-0.4,0.4-0.8,0.6-1.2c0.3-0.4,0.5-0.6,0.8-0.9c0.4-0.3,0.8-0.6,1.3-0.7
			s1-0.3,1.5-0.3s1,0,1.4,0.1v1.8c-0.5-0.1-1.1-0.2-1.7-0.1s-1.2,0.3-1.7,0.7c-0.5,0.4-0.8,0.8-1.1,1.3c-0.2,0.5-0.4,1.1-0.5,1.6
			c-0.1,0.6-0.1,1.1-0.1,1.7v7.1L270.8,269.1L270.8,269.1z"/>
		<path d="M284.5,256.5v-1.7h8.3v1.7H284.5z M286.9,269.1v-15.3c0-0.4,0-0.7,0.1-1.1c0-0.4,0.1-0.7,0.2-1s0.3-0.6,0.6-0.9
			c0.3-0.3,0.6-0.5,0.9-0.7c0.3-0.1,0.7-0.2,1.1-0.3c0.4,0,0.7-0.1,1.1-0.1h1.8v1.6H291c-0.7,0-1.3,0.2-1.7,0.5
			c-0.4,0.4-0.5,0.9-0.5,1.7V269h-1.9V269.1z"/>
		<path d="M294.9,269.1v-14.2h1.7v3.4l-0.3-0.4c0.2-0.4,0.4-0.8,0.6-1.2c0.3-0.4,0.5-0.6,0.8-0.9c0.4-0.3,0.8-0.6,1.3-0.7
			s1-0.3,1.5-0.3s1,0,1.4,0.1v1.8c-0.5-0.1-1.1-0.2-1.7-0.1s-1.2,0.3-1.7,0.7c-0.5,0.4-0.8,0.8-1.1,1.3c-0.2,0.5-0.4,1.1-0.5,1.6
			c-0.1,0.6-0.1,1.1-0.1,1.7v7.1L294.9,269.1L294.9,269.1z"/>
		<path d="M304.6,252.2V250h1.9v2.2H304.6z M304.6,269.1v-14.2h1.9v14.2H304.6z"/>
		<path d="M316.5,269.5c-1.4,0-2.6-0.3-3.6-0.9s-1.8-1.5-2.4-2.6s-0.8-2.4-0.8-3.9c0-1.6,0.3-2.9,0.8-4c0.6-1.1,1.3-2,2.3-2.6
			s2.2-0.9,3.6-0.9s2.6,0.3,3.6,1c1,0.6,1.7,1.6,2.2,2.8c0.5,1.2,0.7,2.6,0.7,4.3h-2V262c0-1.8-0.4-3.2-1.2-4.2
			c-0.8-0.9-1.9-1.4-3.3-1.4c-1.5,0-2.7,0.5-3.5,1.5s-1.2,2.4-1.2,4.2c0,1.8,0.4,3.2,1.2,4.2s2,1.5,3.5,1.5c1,0,1.9-0.2,2.7-0.7
			s1.4-1.1,1.8-2l1.8,0.7c-0.6,1.2-1.4,2.2-2.5,2.9C319.1,269.1,317.9,269.5,316.5,269.5z M311.1,262.5v-1.6h10.8v1.6H311.1z"/>
		<path d="M325.4,269.1v-14.2h1.7v3.5h0.2v10.7H325.4z M335.7,269.1v-7.2c0-0.8-0.1-1.5-0.2-2.2s-0.4-1.2-0.7-1.7s-0.8-0.9-1.3-1.2
			c-0.5-0.3-1.2-0.4-1.9-0.4c-0.7,0-1.3,0.1-1.8,0.4c-0.5,0.2-1,0.6-1.3,1c-0.4,0.4-0.6,1-0.8,1.6c-0.2,0.6-0.3,1.3-0.3,2.2
			l-1.4-0.3c0-1.5,0.3-2.7,0.8-3.7s1.2-1.7,2.1-2.2s1.9-0.8,3.1-0.8c0.9,0,1.6,0.1,2.2,0.4s1.2,0.6,1.6,1.1c0.4,0.4,0.8,1,1.1,1.5
			s0.5,1.2,0.6,1.8s0.2,1.3,0.2,1.9v7.8L335.7,269.1L335.7,269.1z"/>
		<path d="M346.5,269.5c-1.3,0-2.5-0.3-3.4-1s-1.7-1.6-2.2-2.7s-0.7-2.4-0.7-3.8s0.2-2.7,0.7-3.8c0.5-1.1,1.2-2,2.1-2.7s2-1,3.3-1
			s2.5,0.3,3.4,1c0.9,0.6,1.6,1.5,2.1,2.7c0.5,1.1,0.7,2.4,0.7,3.8s-0.2,2.7-0.7,3.8c-0.5,1.1-1.1,2-2.1,2.7
			C348.9,269.1,347.8,269.5,346.5,269.5z M346.7,267.7c1,0,1.8-0.2,2.5-0.7s1.1-1.2,1.5-2s0.5-1.8,0.5-2.9s-0.2-2.1-0.5-3
			s-0.8-1.5-1.5-2s-1.5-0.7-2.5-0.7s-1.9,0.2-2.5,0.8c-0.7,0.5-1.2,1.2-1.5,2c-0.3,0.9-0.5,1.8-0.5,2.9s0.2,2,0.5,2.9s0.8,1.5,1.5,2
			S345.7,267.7,346.7,267.7z M351.1,269.1v-10.7h-0.2v-8.2h1.9v18.9L351.1,269.1L351.1,269.1z"/>
		<path d="M356.8,269.1v-19.4h1.9V269L356.8,269.1L356.8,269.1z"/>
		<path d="M364.7,275.4l2.7-7.5v2.2l-6.2-15.3h2.1l5.1,12.8h-0.8l4.7-12.8h2l-7.6,20.5h-2V275.4z"/>
		<path d="M161,295.4c-0.6,0-1.1-0.1-1.6-0.4s-0.8-0.6-1.1-1.1c-0.3-0.5-0.4-1-0.4-1.6s0.1-1.1,0.4-1.6c0.3-0.5,0.7-0.8,1.1-1.1
			c0.5-0.3,1-0.4,1.6-0.4c0.5,0,1,0.1,1.5,0.4s0.8,0.6,1.1,1.1c0.3,0.5,0.4,1,0.4,1.6s-0.1,1.1-0.4,1.6s-0.6,0.8-1.1,1.1
			S161.6,295.4,161,295.4z"/>
		<path d="M184,301c-1.4,0-2.7-0.3-3.8-0.9s-2-1.4-2.6-2.5s-0.9-2.4-0.9-3.8v-12.1h1.9v11.8c0,1,0.2,1.8,0.5,2.5
			c0.3,0.7,0.8,1.3,1.3,1.8s1.1,0.8,1.8,1c0.6,0.2,1.3,0.3,1.9,0.3s1.2-0.1,1.9-0.3c0.7-0.2,1.2-0.6,1.8-1c0.5-0.5,1-1,1.3-1.8
			c0.3-0.7,0.5-1.6,0.5-2.5v-11.8h1.9v12.1c0,1.5-0.3,2.7-0.9,3.8c-0.6,1.1-1.5,1.9-2.6,2.5C186.8,300.7,185.5,301,184,301z"/>
		<path d="M200.4,301c-1.7,0-3-0.4-4.1-1.1s-1.7-1.7-2-3l2-0.3c0.2,0.8,0.7,1.4,1.4,1.9c0.8,0.5,1.7,0.7,2.8,0.7s1.9-0.2,2.6-0.7
			s0.9-1.1,0.9-1.8c0-0.4-0.1-0.8-0.3-1.1c-0.2-0.3-0.6-0.5-1.2-0.8c-0.6-0.2-1.5-0.5-2.7-0.8c-1.3-0.3-2.3-0.7-3-1.1
			c-0.7-0.4-1.2-0.8-1.6-1.2c-0.4-0.4-0.5-1-0.5-1.7c0-0.8,0.2-1.5,0.7-2.1s1.1-1.1,1.9-1.4s1.7-0.5,2.8-0.5s2,0.2,2.9,0.5
			c0.8,0.3,1.5,0.8,2,1.5c0.5,0.6,0.8,1.3,0.9,2.2l-2,0.4c-0.1-0.8-0.5-1.5-1.2-2c-0.7-0.5-1.6-0.7-2.6-0.8c-1,0-1.8,0.2-2.5,0.6
			c-0.6,0.4-0.9,0.9-0.9,1.6c0,0.4,0.1,0.7,0.3,1c0.2,0.3,0.6,0.5,1.2,0.8c0.6,0.2,1.5,0.5,2.6,0.8c1.3,0.3,2.3,0.7,3.1,1.1
			c0.8,0.4,1.3,0.8,1.6,1.3c0.3,0.5,0.5,1.1,0.5,1.9c0,1.3-0.5,2.4-1.5,3.2C203.5,300.6,202.2,301,200.4,301z"/>
		<path d="M214.9,301c-1.4,0-2.6-0.3-3.6-0.9s-1.8-1.5-2.4-2.6s-0.8-2.4-0.8-3.9c0-1.6,0.3-2.9,0.8-4c0.6-1.1,1.3-2,2.3-2.6
			s2.2-0.9,3.6-0.9s2.6,0.3,3.6,1c1,0.6,1.7,1.6,2.2,2.8c0.5,1.2,0.7,2.6,0.7,4.3h-2v-0.7c0-1.8-0.4-3.2-1.2-4.2
			c-0.8-0.9-1.9-1.4-3.3-1.4c-1.5,0-2.7,0.5-3.5,1.5s-1.2,2.4-1.2,4.2c0,1.8,0.4,3.2,1.2,4.2s2,1.5,3.5,1.5c1,0,1.9-0.2,2.7-0.7
			s1.4-1.1,1.8-2l1.8,0.7c-0.6,1.2-1.4,2.2-2.5,2.9C217.5,300.7,216.3,301,214.9,301z M209.5,294.1v-1.6h10.8v1.6H209.5z"/>
		<path d="M233.6,301c-1.1,0-2-0.2-2.7-0.6s-1.3-0.9-1.6-1.5c-0.4-0.6-0.5-1.3-0.5-2.1c0-0.8,0.2-1.4,0.5-2c0.3-0.5,0.7-1,1.3-1.3
			s1.2-0.6,1.9-0.8c0.7-0.2,1.5-0.3,2.4-0.5s1.7-0.3,2.6-0.4s1.6-0.2,2.2-0.3l-0.7,0.4c0-1.4-0.2-2.4-0.8-3.1c-0.6-0.7-1.6-1-3-1
			c-1,0-1.8,0.2-2.5,0.7c-0.7,0.4-1.1,1.1-1.4,2.1l-1.9-0.6c0.3-1.3,1-2.3,2-3s2.3-1.1,3.8-1.1c1.3,0,2.4,0.2,3.3,0.7
			s1.5,1.2,1.9,2.1c0.2,0.4,0.3,0.9,0.3,1.4c0.1,0.5,0.1,1,0.1,1.6v8.8h-1.7v-3.6l0.5,0.2c-0.5,1.2-1.2,2.1-2.2,2.8
			C236.2,300.7,235,301,233.6,301z M233.8,299.3c0.9,0,1.7-0.2,2.4-0.5s1.2-0.8,1.6-1.3c0.4-0.6,0.7-1.2,0.8-1.9
			c0.1-0.5,0.2-1,0.2-1.5s0-1,0-1.2l0.7,0.4c-0.7,0.1-1.4,0.2-2.1,0.3c-0.8,0.1-1.5,0.2-2.3,0.3c-0.7,0.1-1.4,0.2-2,0.4
			c-0.4,0.1-0.8,0.3-1.2,0.5s-0.7,0.5-0.9,0.8s-0.4,0.8-0.4,1.3c0,0.4,0.1,0.8,0.3,1.2s0.5,0.7,1,1
			C232.5,299.2,233.1,299.3,233.8,299.3z"/>
		<path d="M242.6,288.1v-1.7h9.3v1.7H242.6z M251.9,300.6c-0.8,0.2-1.6,0.2-2.4,0.2s-1.5-0.2-2.1-0.5s-1.1-0.8-1.4-1.4
			c-0.3-0.5-0.4-1.1-0.4-1.6s0-1.2,0-1.8v-13h1.9v12.9c0,0.6,0,1.1,0,1.5s0.1,0.8,0.3,1.1c0.3,0.6,0.8,0.9,1.5,1.1
			c0.7,0.1,1.5,0.1,2.6-0.1V300.6z M251.5,288.1v-1.7h9.3v1.7H251.5z M260.8,300.6c-0.8,0.2-1.6,0.2-2.4,0.2s-1.5-0.2-2.1-0.5
			s-1.1-0.8-1.4-1.4c-0.3-0.5-0.4-1.1-0.4-1.6s0-1.2,0-1.8v-13h1.9v12.9c0,0.6,0,1.1,0,1.5s0.1,0.8,0.3,1.1c0.3,0.6,0.8,0.9,1.5,1.1
			s1.5,0.1,2.6-0.1V300.6z"/>
		<path d="M263.7,300.6v-14.2h1.7v3.4l-0.3-0.4c0.2-0.4,0.4-0.8,0.6-1.2c0.3-0.4,0.5-0.6,0.8-0.9c0.4-0.3,0.8-0.6,1.3-0.7
			c0.5-0.2,1-0.3,1.5-0.3s1,0,1.4,0.1v1.8c-0.5-0.1-1.1-0.2-1.7-0.1s-1.2,0.3-1.7,0.7c-0.5,0.4-0.8,0.8-1.1,1.3
			c-0.2,0.5-0.4,1.1-0.5,1.6s-0.1,1.1-0.1,1.7v7.1L263.7,300.6L263.7,300.6z"/>
		<path d="M276.7,301c-1.1,0-2-0.2-2.7-0.6s-1.3-0.9-1.6-1.5c-0.4-0.6-0.5-1.3-0.5-2.1c0-0.8,0.2-1.4,0.5-2c0.3-0.5,0.7-1,1.3-1.3
			s1.2-0.6,1.9-0.8c0.7-0.2,1.5-0.3,2.4-0.5s1.7-0.3,2.6-0.4c0.8-0.1,1.6-0.2,2.2-0.3l-0.7,0.4c0-1.4-0.2-2.4-0.8-3.1s-1.6-1-3-1
			c-1,0-1.8,0.2-2.5,0.7c-0.7,0.4-1.1,1.1-1.4,2.1l-1.9-0.6c0.3-1.3,1-2.3,2-3s2.3-1.1,3.8-1.1c1.3,0,2.4,0.2,3.3,0.7
			s1.5,1.2,1.9,2.1c0.2,0.4,0.3,0.9,0.3,1.4c0.1,0.5,0.1,1,0.1,1.6v8.8h-1.7v-3.6l0.5,0.2c-0.5,1.2-1.2,2.1-2.2,2.8
			S278.1,301,276.7,301z M276.9,299.3c0.9,0,1.7-0.2,2.4-0.5c0.7-0.3,1.2-0.8,1.6-1.3s0.7-1.2,0.8-1.9c0.1-0.5,0.2-1,0.2-1.5
			s0-1,0-1.2l0.7,0.4c-0.7,0.1-1.4,0.2-2.1,0.3c-0.8,0.1-1.5,0.2-2.3,0.3c-0.7,0.1-1.4,0.2-2,0.4c-0.4,0.1-0.8,0.3-1.2,0.5
			c-0.4,0.2-0.7,0.5-0.9,0.8s-0.4,0.8-0.4,1.3c0,0.4,0.1,0.8,0.3,1.2c0.2,0.4,0.5,0.7,1,1C275.5,299.2,276.1,299.3,276.9,299.3z"/>
		<path d="M293.1,301c-1.4,0-2.6-0.3-3.6-1s-1.7-1.5-2.3-2.6c-0.5-1.1-0.8-2.4-0.8-3.9s0.3-2.8,0.8-3.9s1.3-2,2.3-2.6
			s2.2-0.9,3.6-0.9s2.7,0.4,3.8,1.1c1.1,0.7,1.8,1.7,2.2,2.9l-1.9,0.6c-0.3-0.9-0.9-1.5-1.6-2s-1.5-0.7-2.5-0.7s-1.9,0.2-2.6,0.7
			s-1.2,1.1-1.5,2s-0.5,1.8-0.5,2.9c0,1.7,0.4,3.1,1.2,4.1c0.8,1,1.9,1.5,3.4,1.5c1,0,1.8-0.2,2.5-0.7c0.7-0.4,1.2-1.1,1.5-1.9
			l1.9,0.6c-0.5,1.3-1.3,2.2-2.3,2.9C295.7,300.7,294.5,301,293.1,301z"/>
		<path d="M300.2,288.1v-1.7h9.3v1.7H300.2z M309.5,300.6c-0.8,0.2-1.6,0.2-2.4,0.2s-1.5-0.2-2.1-0.5s-1.1-0.8-1.4-1.4
			c-0.3-0.5-0.4-1.1-0.4-1.6s0-1.2,0-1.8v-13h1.9v12.9c0,0.6,0,1.1,0,1.5s0.1,0.8,0.3,1.1c0.3,0.6,0.8,0.9,1.5,1.1
			c0.7,0.1,1.5,0.1,2.6-0.1V300.6z"/>
		<path d="M312.6,283.7v-2.2h1.9v2.2H312.6z M312.6,300.6v-14.2h1.9v14.2H312.6z"/>
		<path d="M322.3,300.6l-5.2-14.2h2l4.2,11.7l4.2-11.7h2l-5.2,14.2H322.3z"/>
		<path d="M337.3,301c-1.4,0-2.6-0.3-3.6-0.9s-1.8-1.5-2.4-2.6s-0.8-2.4-0.8-3.9c0-1.6,0.3-2.9,0.8-4c0.6-1.1,1.3-2,2.3-2.6
			s2.2-0.9,3.6-0.9s2.6,0.3,3.6,1c1,0.6,1.7,1.6,2.2,2.8c0.5,1.2,0.7,2.6,0.7,4.3h-2v-0.7c0-1.8-0.4-3.2-1.2-4.2
			c-0.8-0.9-1.9-1.4-3.3-1.4c-1.5,0-2.7,0.5-3.5,1.5s-1.2,2.4-1.2,4.2c0,1.8,0.4,3.2,1.2,4.2s2,1.5,3.5,1.5c1,0,1.9-0.2,2.7-0.7
			s1.4-1.1,1.8-2l1.8,0.7c-0.6,1.2-1.4,2.2-2.5,2.9C339.9,300.7,338.7,301,337.3,301z M331.9,294.1v-1.6h10.8v1.6H331.9z"/>
		<path d="M357.8,301c-1.4,0-2.6-0.3-3.6-1s-1.7-1.5-2.3-2.6c-0.5-1.1-0.8-2.4-0.8-3.9s0.3-2.8,0.8-3.9s1.3-2,2.3-2.6
			s2.2-0.9,3.6-0.9s2.7,0.4,3.8,1.1c1.1,0.7,1.8,1.7,2.2,2.9l-1.9,0.6c-0.3-0.9-0.9-1.5-1.6-2s-1.5-0.7-2.5-0.7s-1.9,0.2-2.6,0.7
			s-1.2,1.1-1.5,2s-0.5,1.8-0.5,2.9c0,1.7,0.4,3.1,1.2,4.1c0.8,1,1.9,1.5,3.4,1.5c1,0,1.8-0.2,2.5-0.7c0.7-0.4,1.2-1.1,1.5-1.9
			l1.9,0.6c-0.5,1.3-1.3,2.2-2.3,2.9C360.4,300.7,359.2,301,357.8,301z"/>
		<path d="M370.4,301c-1.1,0-2-0.2-2.7-0.6s-1.3-0.9-1.6-1.5c-0.4-0.6-0.5-1.3-0.5-2.1c0-0.8,0.2-1.4,0.5-2c0.3-0.5,0.7-1,1.3-1.3
			s1.2-0.6,1.9-0.8c0.7-0.2,1.5-0.3,2.4-0.5s1.7-0.3,2.6-0.4c0.8-0.1,1.6-0.2,2.2-0.3l-0.7,0.4c0-1.4-0.2-2.4-0.8-3.1s-1.6-1-3-1
			c-1,0-1.8,0.2-2.5,0.7c-0.7,0.4-1.1,1.1-1.4,2.1l-1.9-0.6c0.3-1.3,1-2.3,2-3s2.3-1.1,3.8-1.1c1.3,0,2.4,0.2,3.3,0.7
			s1.5,1.2,1.9,2.1c0.2,0.4,0.3,0.9,0.3,1.4c0.1,0.5,0.1,1,0.1,1.6v8.8h-1.7v-3.6l0.5,0.2c-0.5,1.2-1.2,2.1-2.2,2.8
			S371.8,301,370.4,301z M370.7,299.3c0.9,0,1.7-0.2,2.4-0.5c0.7-0.3,1.2-0.8,1.6-1.3s0.7-1.2,0.8-1.9c0.1-0.5,0.2-1,0.2-1.5
			s0-1,0-1.2l0.7,0.4c-0.7,0.1-1.4,0.2-2.1,0.3c-0.8,0.1-1.5,0.2-2.3,0.3c-0.7,0.1-1.4,0.2-2,0.4c-0.4,0.1-0.8,0.3-1.2,0.5
			c-0.4,0.2-0.7,0.5-0.9,0.8s-0.4,0.8-0.4,1.3c0,0.4,0.1,0.8,0.3,1.2c0.2,0.4,0.5,0.7,1,1C369.3,299.2,369.9,299.3,370.7,299.3z"/>
		<path d="M381.2,300.6v-19.3h1.9v19.3H381.2z"/>
		<path d="M387.4,300.6v-19.3h1.9v19.3H387.4z"/>
		<path d="M398.6,301c-1.7,0-3-0.4-4.1-1.1s-1.7-1.7-2-3l2-0.3c0.2,0.8,0.7,1.4,1.4,1.9c0.8,0.5,1.7,0.7,2.8,0.7
			c1.1,0,1.9-0.2,2.6-0.7s0.9-1.1,0.9-1.8c0-0.4-0.1-0.8-0.3-1.1s-0.6-0.5-1.2-0.8c-0.6-0.2-1.5-0.5-2.7-0.8c-1.3-0.3-2.3-0.7-3-1.1
			s-1.2-0.8-1.6-1.2s-0.5-1-0.5-1.7c0-0.8,0.2-1.5,0.7-2.1s1.1-1.1,1.9-1.4s1.7-0.5,2.8-0.5s2,0.2,2.9,0.5c0.8,0.3,1.5,0.8,2,1.5
			c0.5,0.6,0.8,1.3,0.9,2.2l-2,0.4c-0.1-0.8-0.5-1.5-1.2-2s-1.6-0.7-2.6-0.8c-1,0-1.8,0.2-2.5,0.6c-0.6,0.4-0.9,0.9-0.9,1.6
			c0,0.4,0.1,0.7,0.3,1c0.2,0.3,0.6,0.5,1.2,0.8c0.6,0.2,1.5,0.5,2.6,0.8c1.3,0.3,2.3,0.7,3.1,1.1s1.3,0.8,1.6,1.3
			c0.3,0.5,0.5,1.1,0.5,1.9c0,1.3-0.5,2.4-1.5,3.2C401.7,300.6,400.3,301,398.6,301z"/>
		<path d="M410.7,288.1v-1.7h9.3v1.7H410.7z M420.1,300.6c-0.8,0.2-1.6,0.2-2.4,0.2s-1.5-0.2-2.1-0.5s-1.1-0.8-1.4-1.4
			c-0.3-0.5-0.4-1.1-0.4-1.6s0-1.2,0-1.8v-13h1.9v12.9c0,0.6,0,1.1,0,1.5s0.1,0.8,0.3,1.1c0.3,0.6,0.8,0.9,1.5,1.1
			c0.7,0.1,1.5,0.1,2.6-0.1V300.6z"/>
		<path d="M428.3,301c-1.4,0-2.6-0.3-3.6-1c-1-0.6-1.8-1.5-2.3-2.7c-0.5-1.1-0.8-2.4-0.8-3.9s0.3-2.8,0.8-3.9s1.3-2,2.3-2.6
			s2.2-0.9,3.6-0.9s2.6,0.3,3.6,1s1.8,1.5,2.3,2.6s0.8,2.4,0.8,3.9s-0.3,2.8-0.8,3.9s-1.3,2-2.3,2.6
			C430.9,300.7,429.7,301,428.3,301z M428.3,299.2c1.6,0,2.8-0.5,3.5-1.6c0.8-1,1.2-2.4,1.2-4.1s-0.4-3.1-1.2-4.1
			c-0.8-1-1.9-1.5-3.5-1.5c-1.1,0-1.9,0.2-2.6,0.7s-1.2,1.1-1.5,2c-0.3,0.8-0.5,1.8-0.5,2.9c0,1.7,0.4,3.1,1.2,4.1
			C425.6,298.6,426.7,299.2,428.3,299.2z"/>
		<path d="M447.2,301c-1.1,0-2-0.2-2.7-0.6s-1.3-0.9-1.6-1.5c-0.4-0.6-0.5-1.3-0.5-2.1c0-0.8,0.2-1.4,0.5-2c0.3-0.5,0.7-1,1.3-1.3
			s1.2-0.6,1.9-0.8c0.7-0.2,1.5-0.3,2.4-0.5s1.7-0.3,2.6-0.4s1.6-0.2,2.2-0.3l-0.7,0.4c0-1.4-0.2-2.4-0.8-3.1c-0.6-0.7-1.6-1-3-1
			c-1,0-1.8,0.2-2.5,0.7c-0.7,0.4-1.1,1.1-1.4,2.1L443,290c0.3-1.3,1-2.3,2-3s2.3-1.1,3.8-1.1c1.3,0,2.4,0.2,3.3,0.7
			s1.5,1.2,1.9,2.1c0.2,0.4,0.3,0.9,0.3,1.4c0.1,0.5,0.1,1,0.1,1.6v8.8h-1.7v-3.6l0.5,0.2c-0.5,1.2-1.2,2.1-2.2,2.8
			C449.8,300.7,448.6,301,447.2,301z M447.4,299.3c0.9,0,1.7-0.2,2.4-0.5s1.2-0.8,1.6-1.3c0.4-0.6,0.7-1.2,0.8-1.9
			c0.1-0.5,0.2-1,0.2-1.5s0-1,0-1.2l0.7,0.4c-0.7,0.1-1.4,0.2-2.1,0.3c-0.8,0.1-1.5,0.2-2.3,0.3c-0.7,0.1-1.4,0.2-2,0.4
			c-0.4,0.1-0.8,0.3-1.2,0.5s-0.7,0.5-0.9,0.8s-0.4,0.8-0.4,1.3c0,0.4,0.1,0.8,0.3,1.2s0.5,0.7,1,1
			C446.1,299.2,446.7,299.3,447.4,299.3z"/>
		<path d="M463.6,301c-1.4,0-2.6-0.3-3.6-1c-1-0.6-1.7-1.5-2.3-2.6c-0.5-1.1-0.8-2.4-0.8-3.9s0.3-2.8,0.8-3.9s1.3-2,2.3-2.6
			s2.2-0.9,3.6-0.9c1.4,0,2.7,0.4,3.8,1.1s1.8,1.7,2.2,2.9l-1.9,0.6c-0.3-0.9-0.9-1.5-1.6-2c-0.7-0.5-1.5-0.7-2.5-0.7
			s-1.9,0.2-2.6,0.7s-1.2,1.1-1.5,2s-0.5,1.8-0.5,2.9c0,1.7,0.4,3.1,1.2,4.1c0.8,1,1.9,1.5,3.4,1.5c1,0,1.8-0.2,2.5-0.7
			c0.7-0.4,1.2-1.1,1.5-1.9l1.9,0.6c-0.5,1.3-1.3,2.2-2.3,2.9C466.3,300.7,465,301,463.6,301z"/>
		<path d="M470.7,288.1v-1.7h9.3v1.7H470.7z M480,300.6c-0.8,0.2-1.6,0.2-2.4,0.2c-0.8,0-1.5-0.2-2.1-0.5s-1.1-0.8-1.4-1.4
			c-0.3-0.5-0.4-1.1-0.4-1.6s0-1.2,0-1.8v-13h1.9v12.9c0,0.6,0,1.1,0,1.5s0.1,0.8,0.3,1.1c0.3,0.6,0.8,0.9,1.5,1.1
			c0.7,0.1,1.5,0.1,2.6-0.1L480,300.6L480,300.6z"/>
		<path d="M483.1,283.7v-2.2h1.9v2.2H483.1z M483.1,300.6v-14.2h1.9v14.2H483.1z"/>
		<path d="M494.9,301c-1.4,0-2.6-0.3-3.6-1s-1.8-1.5-2.3-2.7c-0.5-1.1-0.8-2.4-0.8-3.9s0.3-2.8,0.8-3.9s1.3-2,2.3-2.6
			s2.2-0.9,3.6-0.9c1.4,0,2.6,0.3,3.6,1c1,0.6,1.8,1.5,2.3,2.6s0.8,2.4,0.8,3.9s-0.3,2.8-0.8,3.9s-1.3,2-2.3,2.6
			C497.5,300.7,496.3,301,494.9,301z M494.9,299.2c1.6,0,2.8-0.5,3.5-1.6c0.8-1,1.2-2.4,1.2-4.1s-0.4-3.1-1.2-4.1s-1.9-1.5-3.5-1.5
			c-1.1,0-1.9,0.2-2.6,0.7c-0.7,0.5-1.2,1.1-1.5,2c-0.3,0.8-0.5,1.8-0.5,2.9c0,1.7,0.4,3.1,1.2,4.1
			C492.2,298.6,493.4,299.2,494.9,299.2z"/>
		<path d="M504.5,300.6v-14.2h1.7v3.5h0.2v10.7H504.5z M514.8,300.6v-7.2c0-0.8-0.1-1.5-0.2-2.2c-0.1-0.7-0.4-1.2-0.7-1.7
			s-0.8-0.9-1.3-1.2c-0.5-0.3-1.2-0.4-1.9-0.4s-1.3,0.1-1.8,0.4c-0.5,0.2-1,0.6-1.3,1c-0.4,0.4-0.6,1-0.8,1.6s-0.3,1.3-0.3,2.2
			l-1.4-0.3c0-1.5,0.3-2.7,0.8-3.7s1.2-1.7,2.1-2.2c0.9-0.5,1.9-0.8,3.1-0.8c0.9,0,1.6,0.1,2.2,0.4s1.2,0.6,1.6,1.1
			c0.4,0.4,0.8,1,1.1,1.5c0.3,0.6,0.5,1.2,0.6,1.8c0.1,0.6,0.2,1.3,0.2,1.9v7.8L514.8,300.6L514.8,300.6z"/>
		<path d="M161,327c-0.6,0-1.1-0.1-1.6-0.4s-0.8-0.6-1.1-1.1c-0.3-0.5-0.4-1-0.4-1.6s0.1-1.1,0.4-1.6c0.3-0.5,0.7-0.8,1.1-1.1
			c0.5-0.3,1-0.4,1.6-0.4c0.5,0,1,0.1,1.5,0.4s0.8,0.6,1.1,1.1c0.3,0.5,0.4,1,0.4,1.6s-0.1,1.1-0.4,1.6s-0.6,0.8-1.1,1.1
			S161.6,327,161,327z"/>
		<path d="M184,332.6c-1.4,0-2.7-0.3-3.8-0.9s-2-1.4-2.6-2.5s-0.9-2.4-0.9-3.8v-12.1h1.9v11.8c0,1,0.2,1.8,0.5,2.5
			c0.3,0.7,0.8,1.3,1.3,1.8s1.1,0.8,1.8,1c0.6,0.2,1.3,0.3,1.9,0.3s1.2-0.1,1.9-0.3c0.7-0.2,1.2-0.6,1.8-1c0.5-0.5,1-1,1.3-1.8
			c0.3-0.7,0.5-1.6,0.5-2.5v-11.8h1.9v12.1c0,1.5-0.3,2.7-0.9,3.8c-0.6,1.1-1.5,1.9-2.6,2.5C186.8,332.3,185.5,332.6,184,332.6z"/>
		<path d="M200.4,332.6c-1.7,0-3-0.4-4.1-1.1s-1.7-1.7-2-3l2-0.3c0.2,0.8,0.7,1.4,1.4,1.9c0.8,0.5,1.7,0.7,2.8,0.7s1.9-0.2,2.6-0.7
			s0.9-1.1,0.9-1.8c0-0.4-0.1-0.8-0.3-1.1c-0.2-0.3-0.6-0.5-1.2-0.8c-0.6-0.2-1.5-0.5-2.7-0.8c-1.3-0.3-2.3-0.7-3-1.1
			c-0.7-0.4-1.2-0.8-1.6-1.2c-0.4-0.4-0.5-1-0.5-1.7c0-0.8,0.2-1.5,0.7-2.1s1.1-1.1,1.9-1.4s1.7-0.5,2.8-0.5s2,0.2,2.9,0.5
			c0.8,0.3,1.5,0.8,2,1.5c0.5,0.6,0.8,1.3,0.9,2.2l-2,0.4c-0.1-0.8-0.5-1.5-1.2-2c-0.7-0.5-1.6-0.7-2.6-0.8c-1,0-1.8,0.2-2.5,0.6
			c-0.6,0.4-0.9,0.9-0.9,1.6c0,0.4,0.1,0.7,0.3,1c0.2,0.3,0.6,0.5,1.2,0.8c0.6,0.2,1.5,0.5,2.6,0.8c1.3,0.3,2.3,0.7,3.1,1.1
			c0.8,0.4,1.3,0.8,1.6,1.3c0.3,0.5,0.5,1.1,0.5,1.9c0,1.3-0.5,2.4-1.5,3.2C203.5,332.2,202.2,332.6,200.4,332.6z"/>
		<path d="M214.9,332.6c-1.4,0-2.6-0.3-3.6-0.9s-1.8-1.5-2.4-2.6s-0.8-2.4-0.8-3.9c0-1.6,0.3-2.9,0.8-4c0.6-1.1,1.3-2,2.3-2.6
			s2.2-0.9,3.6-0.9s2.6,0.3,3.6,1c1,0.6,1.7,1.6,2.2,2.8c0.5,1.2,0.7,2.6,0.7,4.3h-2v-0.7c0-1.8-0.4-3.2-1.2-4.2
			c-0.8-0.9-1.9-1.4-3.3-1.4c-1.5,0-2.7,0.5-3.5,1.5s-1.2,2.4-1.2,4.2c0,1.8,0.4,3.2,1.2,4.2s2,1.5,3.5,1.5c1,0,1.9-0.2,2.7-0.7
			s1.4-1.1,1.8-2l1.8,0.7c-0.6,1.2-1.4,2.2-2.5,2.9C217.5,332.2,216.3,332.6,214.9,332.6z M209.5,325.6V324h10.8v1.6H209.5z"/>
		<path d="M229.5,332.2v-18.9h1.7V324h0.2v8.2L229.5,332.2L229.5,332.2z M239.8,332.2V325c0-0.8-0.1-1.5-0.2-2.2s-0.4-1.2-0.7-1.7
			c-0.3-0.5-0.8-0.9-1.3-1.2c-0.5-0.3-1.2-0.4-1.9-0.4c-0.7,0-1.3,0.1-1.8,0.4c-0.5,0.2-1,0.6-1.3,1c-0.4,0.4-0.6,1-0.8,1.6
			c-0.2,0.6-0.3,1.3-0.3,2.2l-1.4-0.3c0-1.5,0.3-2.7,0.8-3.7s1.2-1.7,2.1-2.2s1.9-0.8,3.1-0.8c0.9,0,1.6,0.1,2.2,0.4
			s1.2,0.6,1.6,1.1c0.4,0.4,0.8,1,1.1,1.5c0.3,0.6,0.5,1.2,0.6,1.8c0.1,0.6,0.2,1.3,0.2,1.9v7.8L239.8,332.2L239.8,332.2z"/>
		<path d="M247.2,338.5l2.7-7.5v2.2l-6.2-15.3h2.1l5.1,12.8h-0.8l4.7-12.8h2l-7.6,20.5h-2V338.5z"/>
		<path d="M259,338.5V318h1.7v10.7h0.2v9.8H259z M265.4,332.6c-1.3,0-2.4-0.3-3.3-1s-1.6-1.6-2.1-2.7s-0.7-2.4-0.7-3.8
			s0.2-2.7,0.7-3.8c0.5-1.1,1.2-2,2.1-2.7c0.9-0.6,2-1,3.4-1c1.3,0,2.4,0.3,3.3,1s1.6,1.6,2.1,2.7s0.7,2.4,0.7,3.8s-0.2,2.7-0.8,3.8
			c-0.5,1.1-1.2,2-2.2,2.7C267.9,332.2,266.7,332.6,265.4,332.6z M265.2,330.8c1,0,1.8-0.2,2.5-0.7s1.2-1.2,1.5-2
			c0.3-0.9,0.5-1.8,0.5-2.9s-0.2-2-0.5-2.9s-0.8-1.5-1.5-2s-1.5-0.8-2.5-0.8s-1.8,0.2-2.5,0.7s-1.1,1.2-1.5,2s-0.5,1.8-0.5,3
			c0,1.1,0.2,2.1,0.5,2.9s0.8,1.5,1.5,2C263.4,330.5,264.2,330.8,265.2,330.8z"/>
		<path d="M280.6,332.6c-1.4,0-2.6-0.3-3.6-0.9s-1.8-1.5-2.4-2.6s-0.8-2.4-0.8-3.9c0-1.6,0.3-2.9,0.8-4c0.6-1.1,1.3-2,2.3-2.6
			s2.2-0.9,3.6-0.9s2.6,0.3,3.6,1c1,0.6,1.7,1.6,2.2,2.8c0.5,1.2,0.7,2.6,0.7,4.3h-2v-0.7c0-1.8-0.4-3.2-1.2-4.2
			c-0.8-0.9-1.9-1.4-3.3-1.4c-1.5,0-2.7,0.5-3.5,1.5s-1.2,2.4-1.2,4.2c0,1.8,0.4,3.2,1.2,4.2c0.8,1,2,1.5,3.5,1.5
			c1,0,1.9-0.2,2.7-0.7c0.8-0.5,1.4-1.1,1.8-2l1.8,0.7c-0.6,1.2-1.4,2.2-2.5,2.9C283.2,332.2,282,332.6,280.6,332.6z M275.2,325.6
			V324H286v1.6H275.2z"/>
		<path d="M290,332.2V318h1.7v3.4l-0.3-0.4c0.2-0.4,0.4-0.8,0.6-1.2c0.3-0.4,0.5-0.6,0.8-0.9c0.4-0.3,0.8-0.6,1.3-0.7s1-0.3,1.5-0.3
			s1,0,1.4,0.1v1.8c-0.5-0.1-1.1-0.2-1.7-0.1s-1.2,0.3-1.7,0.7c-0.5,0.4-0.8,0.8-1.1,1.3c-0.2,0.5-0.4,1.1-0.5,1.6
			c-0.1,0.6-0.1,1.1-0.1,1.7v7.1L290,332.2L290,332.2z"/>
		<path d="M299.7,332.2v-19.3h1.9v19.3H299.7z"/>
		<path d="M305.9,315.3v-2.2h1.9v2.2H305.9z M305.9,332.2V318h1.9v14.2H305.9z"/>
		<path d="M311.7,332.2V318h1.7v3.5h0.2v10.7H311.7z M322,332.2V325c0-0.8-0.1-1.5-0.2-2.2s-0.4-1.2-0.7-1.7s-0.8-0.9-1.3-1.2
			c-0.5-0.3-1.2-0.4-1.9-0.4c-0.7,0-1.3,0.1-1.8,0.4c-0.5,0.2-1,0.6-1.3,1c-0.4,0.4-0.6,1-0.8,1.6c-0.2,0.6-0.3,1.3-0.3,2.2
			l-1.4-0.3c0-1.5,0.3-2.7,0.8-3.7s1.2-1.7,2.1-2.2s1.9-0.8,3.1-0.8c0.9,0,1.6,0.1,2.2,0.4s1.2,0.6,1.6,1.1c0.4,0.4,0.8,1,1.1,1.5
			s0.5,1.2,0.6,1.8s0.2,1.3,0.2,1.9v7.8L322,332.2L322,332.2z"/>
		<path d="M327.3,332.2v-18.9h1.9v11.6l6.3-6.8h2.6l-6.7,7.1l7.5,7.1h-2.8l-7-6.8v6.8L327.3,332.2L327.3,332.2z"/>
		<path d="M351.2,332.6c-1.3,0-2.5-0.3-3.4-1s-1.7-1.6-2.2-2.7s-0.8-2.4-0.8-3.8s0.2-2.7,0.7-3.8s1.2-2,2.1-2.7s2-1,3.3-1
			s2.5,0.3,3.4,1c0.9,0.6,1.6,1.5,2.1,2.7c0.5,1.1,0.7,2.4,0.7,3.8s-0.2,2.7-0.7,3.8c-0.5,1.1-1.1,2-2.1,2.7
			C353.6,332.2,352.5,332.6,351.2,332.6z M351.4,330.8c1,0,1.8-0.2,2.5-0.7s1.1-1.2,1.5-2s0.5-1.8,0.5-2.9s-0.2-2.1-0.5-3
			s-0.8-1.5-1.5-2s-1.5-0.7-2.5-0.7s-1.9,0.2-2.5,0.8c-0.7,0.5-1.2,1.2-1.5,2s-0.5,1.8-0.5,2.9s0.2,2,0.5,2.9s0.8,1.5,1.5,2
			C349.5,330.5,350.4,330.8,351.4,330.8z M355.8,332.2v-10.7h-0.2v-8.2h1.9v18.9L355.8,332.2L355.8,332.2z"/>
		<path d="M361.5,315.3v-2.2h1.9v2.2H361.5z M361.5,332.2V318h1.9v14.2H361.5z"/>
		<path d="M366.3,319.6v-1.7h8.3v1.7H366.3z M368.8,332.2v-15.3c0-0.4,0-0.7,0.1-1.1s0.1-0.7,0.2-1s0.3-0.6,0.6-0.9
			c0.3-0.3,0.6-0.5,0.9-0.7c0.3-0.1,0.7-0.2,1.1-0.3c0.4,0,0.7-0.1,1.1-0.1h1.8v1.6h-1.7c-0.7,0-1.3,0.2-1.7,0.5
			c-0.4,0.4-0.5,0.9-0.5,1.7v15.5h-1.9V332.2z M374.4,319.6v-1.7h8.3v1.7H374.4z M376.9,332.2v-15.3c0-0.4,0-0.7,0.1-1.1
			s0.1-0.7,0.2-1s0.3-0.6,0.6-0.9c0.3-0.3,0.6-0.5,0.9-0.7c0.3-0.1,0.7-0.2,1.1-0.3c0.4,0,0.7-0.1,1.1-0.1h1.8v1.6H381
			c-0.7,0-1.3,0.2-1.7,0.5c-0.4,0.4-0.5,0.9-0.5,1.7v15.5h-1.9V332.2z"/>
		<path d="M390.3,332.6c-1.4,0-2.6-0.3-3.6-0.9s-1.8-1.5-2.4-2.6s-0.8-2.4-0.8-3.9c0-1.6,0.3-2.9,0.8-4c0.6-1.1,1.3-2,2.3-2.6
			s2.2-0.9,3.6-0.9s2.6,0.3,3.6,1c1,0.6,1.7,1.6,2.2,2.8c0.5,1.2,0.7,2.6,0.7,4.3h-2v-0.7c0-1.8-0.4-3.2-1.2-4.2
			c-0.8-0.9-1.9-1.4-3.3-1.4c-1.5,0-2.7,0.5-3.5,1.5s-1.2,2.4-1.2,4.2c0,1.8,0.4,3.2,1.2,4.2s2,1.5,3.5,1.5c1,0,1.9-0.2,2.7-0.7
			s1.4-1.1,1.8-2l1.8,0.7c-0.6,1.2-1.4,2.2-2.5,2.9C392.9,332.2,391.7,332.6,390.3,332.6z M384.9,325.6V324h10.8v1.6H384.9z"/>
		<path d="M399.6,332.2V318h1.7v3.4L401,321c0.2-0.4,0.4-0.8,0.6-1.2c0.3-0.4,0.5-0.6,0.8-0.9c0.4-0.3,0.8-0.6,1.3-0.7
			c0.5-0.2,1-0.3,1.5-0.3s1,0,1.4,0.1v1.8c-0.5-0.1-1.1-0.2-1.7-0.1s-1.2,0.3-1.7,0.7c-0.5,0.4-0.8,0.8-1.1,1.3
			c-0.2,0.5-0.4,1.1-0.5,1.6s-0.1,1.1-0.1,1.7v7.1L399.6,332.2L399.6,332.2z"/>
		<path d="M414.9,332.6c-1.4,0-2.6-0.3-3.6-0.9s-1.8-1.5-2.4-2.6s-0.8-2.4-0.8-3.9c0-1.6,0.3-2.9,0.8-4c0.6-1.1,1.3-2,2.3-2.6
			s2.2-0.9,3.6-0.9s2.6,0.3,3.6,1c1,0.6,1.7,1.6,2.2,2.8c0.5,1.2,0.7,2.6,0.7,4.3h-2v-0.7c0-1.8-0.4-3.2-1.2-4.2
			c-0.8-0.9-1.9-1.4-3.3-1.4c-1.5,0-2.7,0.5-3.5,1.5s-1.2,2.4-1.2,4.2c0,1.8,0.4,3.2,1.2,4.2s2,1.5,3.5,1.5c1,0,1.9-0.2,2.7-0.7
			s1.4-1.1,1.8-2l1.8,0.7c-0.6,1.2-1.4,2.2-2.5,2.9C417.5,332.2,416.2,332.6,414.9,332.6z M409.4,325.6V324h10.8v1.6H409.4z"/>
		<path d="M423.8,332.2V318h1.7v3.5h0.2v10.7H423.8z M434.1,332.2V325c0-0.8-0.1-1.5-0.2-2.2s-0.4-1.2-0.7-1.7s-0.8-0.9-1.3-1.2
			c-0.5-0.3-1.2-0.4-1.9-0.4c-0.7,0-1.3,0.1-1.8,0.4c-0.5,0.2-1,0.6-1.3,1c-0.4,0.4-0.6,1-0.8,1.6c-0.2,0.6-0.3,1.3-0.3,2.2
			l-1.4-0.3c0-1.5,0.3-2.7,0.8-3.7s1.2-1.7,2.1-2.2s1.9-0.8,3.1-0.8c0.9,0,1.6,0.1,2.2,0.4s1.2,0.6,1.6,1.1c0.4,0.4,0.8,1,1.1,1.5
			s0.5,1.2,0.6,1.8s0.2,1.3,0.2,1.9v7.8L434.1,332.2L434.1,332.2z"/>
		<path d="M437.9,319.6v-1.7h9.3v1.7H437.9z M447.2,332.2c-0.8,0.2-1.6,0.2-2.4,0.2s-1.5-0.2-2.1-0.5s-1.1-0.8-1.4-1.4
			c-0.3-0.5-0.4-1.1-0.4-1.6s0-1.2,0-1.8v-13h1.9V327c0,0.6,0,1.1,0,1.5s0.1,0.8,0.3,1.1c0.3,0.6,0.8,0.9,1.5,1.1
			c0.7,0.1,1.5,0.1,2.6-0.1V332.2z"/>
		<path d="M450.3,315.3v-2.2h1.9v2.2H450.3z M450.3,332.2V318h1.9v14.2H450.3z"/>
		<path d="M460.2,332.6c-1.1,0-2-0.2-2.7-0.6s-1.3-0.9-1.6-1.5c-0.4-0.6-0.5-1.3-0.5-2.1c0-0.8,0.2-1.4,0.5-2c0.3-0.5,0.7-1,1.3-1.3
			s1.2-0.6,1.9-0.8c0.7-0.2,1.5-0.3,2.4-0.5s1.7-0.3,2.6-0.4c0.9-0.1,1.6-0.2,2.2-0.3l-0.7,0.4c0-1.4-0.2-2.4-0.8-3.1
			c-0.6-0.7-1.6-1-3-1c-1,0-1.8,0.2-2.5,0.7c-0.7,0.4-1.1,1.1-1.4,2.1l-1.9-0.6c0.3-1.3,1-2.3,2-3s2.3-1.1,3.8-1.1
			c1.3,0,2.4,0.2,3.3,0.7c0.9,0.5,1.5,1.2,1.9,2.1c0.2,0.4,0.3,0.9,0.3,1.4c0.1,0.5,0.1,1,0.1,1.6v8.8h-1.7v-3.6l0.5,0.2
			c-0.5,1.2-1.2,2.1-2.2,2.8C462.8,332.2,461.6,332.6,460.2,332.6z M460.4,330.9c0.9,0,1.7-0.2,2.4-0.5s1.2-0.8,1.6-1.3
			c0.4-0.6,0.7-1.2,0.8-1.9c0.1-0.5,0.2-1,0.2-1.5s0-1,0-1.2l0.7,0.4c-0.7,0.1-1.4,0.2-2.1,0.3c-0.8,0.1-1.5,0.2-2.3,0.3
			c-0.7,0.1-1.4,0.2-2,0.4c-0.4,0.1-0.8,0.3-1.2,0.5s-0.7,0.5-0.9,0.8s-0.4,0.8-0.4,1.3c0,0.4,0.1,0.8,0.3,1.2s0.5,0.7,1,1
			C459,330.8,459.7,330.9,460.4,330.9z"/>
		<path d="M469.2,319.6v-1.7h9.3v1.7H469.2z M478.5,332.2c-0.8,0.2-1.6,0.2-2.4,0.2c-0.8,0-1.5-0.2-2.1-0.5s-1.1-0.8-1.4-1.4
			c-0.3-0.5-0.4-1.1-0.4-1.6s0-1.2,0-1.8v-13h1.9V327c0,0.6,0,1.1,0,1.5s0.1,0.8,0.3,1.1c0.3,0.6,0.8,0.9,1.5,1.1
			c0.7,0.1,1.5,0.1,2.6-0.1L478.5,332.2L478.5,332.2z"/>
		<path d="M481.5,315.3v-2.2h1.9v2.2H481.5z M481.5,332.2V318h1.9v14.2H481.5z"/>
		<path d="M493.3,332.6c-1.4,0-2.6-0.3-3.6-1c-1-0.6-1.8-1.5-2.3-2.7c-0.5-1.1-0.8-2.4-0.8-3.9s0.3-2.8,0.8-3.9s1.3-2,2.3-2.6
			s2.2-0.9,3.6-0.9c1.4,0,2.6,0.3,3.6,1s1.8,1.5,2.3,2.6s0.8,2.4,0.8,3.9s-0.3,2.8-0.8,3.9s-1.3,2-2.3,2.6S494.7,332.6,493.3,332.6z
			 M493.3,330.7c1.6,0,2.8-0.5,3.5-1.6c0.8-1,1.2-2.4,1.2-4.1s-0.4-3.1-1.2-4.1s-1.9-1.5-3.5-1.5c-1.1,0-1.9,0.2-2.6,0.7
			s-1.2,1.1-1.5,2c-0.3,0.8-0.5,1.8-0.5,2.9c0,1.7,0.4,3.1,1.2,4.1C490.6,330.2,491.8,330.7,493.3,330.7z"/>
		<path d="M503,332.2V318h1.7v3.5h0.2v10.7H503z M513.2,332.2V325c0-0.8-0.1-1.5-0.2-2.2c-0.1-0.7-0.4-1.2-0.7-1.7
			c-0.3-0.5-0.8-0.9-1.3-1.2c-0.5-0.3-1.2-0.4-1.9-0.4s-1.3,0.1-1.8,0.4c-0.5,0.2-1,0.6-1.3,1c-0.4,0.4-0.6,1-0.8,1.6
			s-0.3,1.3-0.3,2.2l-1.4-0.3c0-1.5,0.3-2.7,0.8-3.7s1.2-1.7,2.1-2.2c0.9-0.5,1.9-0.8,3.1-0.8c0.9,0,1.6,0.1,2.2,0.4
			c0.6,0.3,1.2,0.6,1.6,1.1c0.4,0.4,0.8,1,1.1,1.5s0.5,1.2,0.6,1.8s0.2,1.3,0.2,1.9v7.8L513.2,332.2L513.2,332.2z"/>
	</g>
</g>
</svg>
