<?xml version="1.0" encoding="utf-8"?>
<!-- Generator: Adobe Illustrator 26.3.1, SVG Export Plug-In . SVG Version: 6.00 Build 0)  -->
<svg version="1.1" id="Layer_1" xmlns="http://www.w3.org/2000/svg" xmlns:xlink="http://www.w3.org/1999/xlink" x="0px" y="0px"
	 viewBox="0 0 1920 3096" style="enable-background:new 0 0 1920 3096;" xml:space="preserve">
<style type="text/css">
	.st0{fill:#8FA3B7;}
	.st1{fill:#1D2121;}
	.st2{fill:#363B3E;}
	.st3{fill:#FFFFFF;}
	.st4{fill:none;stroke:#FF0000;stroke-miterlimit:10;}
	.st5{fill:#FF0000;}
	.st6{fill:#1B3561;}
	.st7{fill:#E0BE6A;}
	.st8{fill:#EDF0F4;stroke:#000000;stroke-miterlimit:10;}
	.st9{fill:#D5E1EF;}
	.st10{fill:#EDF0F4;}
</style>
<g>
	<g>
		<path d="M814.6,239.5c14.3,0,24.3,9.9,24.3,24.3c0,14.4-10.2,24.4-24.7,24.4h-15.9v25.2H787v-73.8H814.6z M798.4,278.5h13.1
			c10,0,15.7-5.4,15.7-14.7s-5.7-14.6-15.6-14.6h-13.2V278.5z"/>
		<path d="M842.9,286.5c0-17.3,10.2-27.9,25.5-27.9c15.3,0,25.5,10.6,25.5,27.9c0,17.3-10.1,27.9-25.5,27.9S842.9,303.8,842.9,286.5
			z M882.7,286.5c0-11.9-5.6-18.8-14.3-18.8s-14.3,6.9-14.3,18.8c0,12,5.6,18.8,14.3,18.8C877.2,305.3,882.7,298.4,882.7,286.5z"/>
		<path d="M953.2,286.5c0,17-9,27.8-22.5,27.8c-7.7,0-13.9-3.8-16.9-9.8h-0.3v26.7h-11.1v-71.6h10.7v9.3h0.2
			c3.2-6.2,9.4-10.1,17.1-10.1C944.2,258.7,953.2,269.4,953.2,286.5z M941.9,286.5c0-11.3-5.5-18.5-14.2-18.5
			c-8.4,0-14.1,7.4-14.1,18.5c0,11.2,5.6,18.5,14.1,18.5C936.4,304.9,941.9,297.8,941.9,286.5z"/>
		<path d="M1012.4,286.5c0,17-9,27.8-22.5,27.8c-7.7,0-13.9-3.8-16.9-9.8h-0.3v26.7h-11.1v-71.6h10.7v9.3h0.2
			c3.2-6.2,9.4-10.1,17.1-10.1C1003.4,258.7,1012.4,269.4,1012.4,286.5z M1001.1,286.5c0-11.3-5.5-18.5-14.2-18.5
			c-8.4,0-14.1,7.4-14.1,18.5c0,11.2,5.6,18.5,14.1,18.5C995.6,304.9,1001.1,297.8,1001.1,286.5z"/>
		<path d="M1020.4,245.4c0-3.5,2.9-6.3,6.4-6.3c3.6,0,6.4,2.8,6.4,6.3c0,3.5-2.9,6.3-6.4,6.3
			C1023.2,251.7,1020.4,248.9,1020.4,245.4z M1021.3,259.6h11.1v53.8h-11.1V259.6z"/>
		<path d="M1043.6,259.6h10.5v9h0.3c2.9-6.1,8.6-9.9,16.9-9.9c11.9,0,18.7,7.6,18.7,19.9v34.8h-11.1v-32.7c0-8.1-3.8-12.5-11.5-12.5
			c-7.8,0-12.8,5.5-12.8,13.9v31.4h-11.1V259.6z"/>
		<path d="M1120.8,258.6c12,0,20.4,6.7,20.7,16.3h-10.4c-0.5-4.9-4.5-7.9-10.6-7.9c-6,0-10,2.9-10,7.2c0,3.3,2.7,5.6,8.2,7l9.1,2.1
			c10.8,2.6,14.9,6.7,14.9,14.6c0,9.8-9.2,16.6-22.4,16.6c-12.7,0-21.2-6.6-22.1-16.5h10.9c0.9,5.2,4.9,8,11.6,8
			c6.7,0,10.7-2.8,10.7-7.1c0-3.4-2-5.3-7.7-6.8l-9.6-2.4c-9.7-2.4-14.6-7.4-14.6-14.9C1099.7,265.2,1108.2,258.6,1120.8,258.6z"/>
	</g>
	<g>
		<path class="st0" d="M670.5,951H650l-4.9,14.5h-8.7l19.4-53.7h9l19.4,53.7h-8.8L670.5,951z M652.1,944.3h16.2l-8-23.6h-0.2
			L652.1,944.3z"/>
		<path class="st0" d="M690.1,965.5v-53.7h21.4c9.5,0,15.8,5.3,15.8,13.4c0,5.7-4.2,10.8-9.6,11.7v0.3c7.3,0.8,12.2,6,12.2,13.1
			c0,9.5-6.9,15.2-18.3,15.2H690.1z M698.5,934.7h9.3c7.2,0,11.2-3,11.2-8.3c0-5-3.4-7.7-9.5-7.7h-11.1V934.7z M710,958.7
			c7.5,0,11.5-3.1,11.5-8.9s-4.1-8.8-12-8.8h-11v17.7H710z"/>
		<path class="st0" d="M735.2,938.6c0-17,9.6-27.7,24.6-27.7c12.2,0,21.4,7.5,22.8,18.7h-8.3c-1.5-6.9-7.2-11.4-14.5-11.4
			c-9.8,0-16.1,8-16.1,20.4c0,12.5,6.3,20.5,16.1,20.5c7.5,0,12.8-3.8,14.5-10.3h8.3c-2,11.1-10.5,17.6-22.8,17.6
			C744.8,966.4,735.2,955.8,735.2,938.6z"/>
		<path class="st0" d="M809.1,911.8c16,0,25.4,9.8,25.4,26.8c0,17-9.4,26.9-25.4,26.9h-18.9v-53.7H809.1z M798.5,958.3h9.8
			c11.4,0,17.7-7,17.7-19.7c0-12.7-6.3-19.7-17.7-19.7h-9.8V958.3z"/>
		<path class="st0" d="M876.5,965.5h-34.1v-53.7h34.1v7.2h-25.8v15.7h24.4v6.9h-24.4v16.7h25.8V965.5z"/>
		<path class="st0" d="M885.1,965.5v-53.7h33.5v7.2h-25.2v17h23.1v7h-23.1v22.5H885.1z"/>
		<path class="st0" d="M949,966.4c-15.4,0-25-10.8-25-28c0-16.9,9.6-27.5,24.9-27.5c11.9,0,21,7.1,22.9,17.8h-8.6
			c-2-6.7-7.3-10.5-14.3-10.5c-10.3,0-16.4,7.5-16.4,20.1c0,12.8,6.4,20.8,16.6,20.8c8.7,0,14.7-5.6,14.8-13.7v-0.9H950v-6.7h22.1
			v5.5C972.1,957.7,963.5,966.4,949,966.4z"/>
		<path class="st0" d="M1016.2,965.5v-23.8h-27.6v23.8h-8.3v-53.7h8.3v22.7h27.6v-22.7h8.3v53.7H1016.2z"/>
		<path class="st0" d="M1034.4,965.5v-53.7h8.3v53.7H1034.4z"/>
		<path class="st0" d="M1057.3,951.7c0.1,4.5,3.3,7.5,8,7.5c5.5,0,8.4-3.3,8.4-9.4v-38h8.3v38.1c0,10.6-6.3,16.8-16.7,16.8
			c-9.7,0-16.3-6-16.3-15H1057.3z"/>
		<path class="st0" d="M1092.1,965.5v-53.7h8.3v25.6h0.3l22.4-25.6h9.9l-21.3,23.8l23.1,29.9h-10.3l-18.6-24.2l-5.5,6.3v17.9H1092.1
			z"/>
		<path class="st0" d="M1173.5,965.5h-33.3v-53.7h8.3v46.5h25V965.5z"/>
		<path class="st0" d="M1227.4,965.5V926h-0.3l-16.2,39.1h-6.2l-16.2-39.1h-0.3v39.5h-7.6v-53.7h9.6l17.4,42.4h0.3l17.3-42.4h9.7
			v53.7H1227.4z"/>
		<path class="st0" d="M1244.9,965.5v-53.7h7.6l27.8,39.6h0.3v-39.6h8.1v53.7h-7.5l-27.8-39.6h-0.3v39.6H1244.9z"/>
		<path class="st0" d="M710.3,1030.1c0,17.1-9.7,27.7-25.2,27.7c-15.5,0-25.2-10.6-25.2-27.7c0-17.1,9.7-27.8,25.2-27.8
			C700.6,1002.4,710.3,1013,710.3,1030.1z M668.5,1030.1c0,12.5,6.4,20.4,16.6,20.4s16.6-7.9,16.6-20.4c0-12.5-6.4-20.4-16.6-20.4
			S668.5,1017.6,668.5,1030.1z"/>
		<path class="st0" d="M738.4,1003.3c10.4,0,17.7,7.2,17.7,17.6c0,10.5-7.4,17.7-17.9,17.7h-11.5v18.3h-8.3v-53.7H738.4z
			 M726.6,1031.6h9.6c7.3,0,11.4-3.9,11.4-10.7c0-6.8-4.1-10.6-11.4-10.6h-9.6V1031.6z"/>
		<path class="st0" d="M761.4,1030.1c0-17,9.7-27.8,25.2-27.8c15.4,0,25.2,10.7,25.2,27.8c0,10-3.3,17.9-9.3,22.6l7,9.9h-8.7
			l-4.6-6.4c-2.9,1.1-6.1,1.6-9.5,1.6C771.1,1057.9,761.4,1047.3,761.4,1030.1z M791.6,1049.8l-6.4-9h8.4l3.8,5.1
			c3.6-3.4,5.7-8.9,5.7-15.8c0-12.5-6.4-20.5-16.6-20.5s-16.6,7.9-16.6,20.5c0,12.5,6.4,20.4,16.6,20.4
			C788.3,1050.6,790,1050.3,791.6,1049.8z"/>
		<path class="st0" d="M828,1057h-8.3v-53.7h20.8c11.1,0,17.9,6.4,17.9,16.4c0,7.3-3.9,13.1-10.4,15.3l12,22h-9.6l-10.9-20.7H828
			V1057z M828,1029.6h11.7c6.4,0,10.1-3.5,10.1-9.7c0-6-3.9-9.6-10.3-9.6H828V1029.6z"/>
		<path class="st0" d="M872.3,1042c0.6,5.3,5.8,8.8,12.8,8.8c6.8,0,11.6-3.5,11.6-8.3c0-4.2-2.9-6.7-9.9-8.4l-7-1.7
			c-9.9-2.4-14.4-7-14.4-14.5c0-9.3,8.1-15.6,19.5-15.6c11.4,0,19.1,6.4,19.4,15.6h-8.1c-0.5-5.4-4.9-8.6-11.4-8.6s-10.9,3.3-10.9,8
			c0,3.8,2.8,6,9.8,7.7l5.9,1.5c11,2.6,15.6,7,15.6,14.9c0,10-8,16.3-20.7,16.3c-11.9,0-19.9-6.1-20.5-15.9H872.3z"/>
		<path class="st0" d="M926,1057v-46.5h-16.4v-7.2h41.2v7.2h-16.4v46.5H926z"/>
		<path class="st0" d="M965.9,1037.4c0,7.7,4.8,13.1,13.4,13.1c8.6,0,13.4-5.4,13.4-13.1v-34.1h8.3v34.8c0,11.6-8.3,19.8-21.7,19.8
			c-13.5,0-21.7-8.2-21.7-19.8v-34.8h8.3V1037.4z"/>
		<path class="st0" d="M1026.1,1057l-19.2-53.7h9l14.6,44.3h0.2l14.7-44.3h8.9l-19.2,53.7H1026.1z"/>
		<path class="st0" d="M1079.4,1057h-7.9l-14.5-53.7h8.7l9.9,42.1h0.3l11.4-42.1h7.7l11.4,42.1h0.3l9.9-42.1h8.7l-14.5,53.7h-7.9
			l-11.6-40.5h-0.4L1079.4,1057z"/>
		<path class="st0" d="M1146.4,1030.1v-0.3l-17.6-26.5h9.9l13.2,20.8h0.3l13.4-20.8h9.4l-18.2,26.8v0.2l17.9,26.6h-9.8l-13.4-20.5
			h-0.3l-13.5,20.5h-9.2L1146.4,1030.1z"/>
		<path class="st0" d="M1196.5,1057v-22l-18.9-31.7h9.3l13.7,23.7h0.3l13.7-23.7h9.2l-18.9,31.7v22H1196.5z"/>
		<path class="st0" d="M1228.3,1051.3l29.4-40.5v-0.3h-28.5v-7.2h38.7v5.7l-29.3,40.5v0.3h30v7.2h-40.3V1051.3z"/>
		<path class="st0" d="M713.7,1137.3c0-6.8,5.2-11.1,14.6-11.6l10.7-0.6v-3c0-4.4-2.9-7-7.9-7c-4.7,0-7.6,2.2-8.3,5.7h-7.6
			c0.4-7.1,6.5-12.3,16.2-12.3c9.5,0,15.6,5,15.6,12.9v27h-7.7v-6.4h-0.2c-2.3,4.4-7.2,7.1-12.4,7.1
			C719,1149.1,713.7,1144.3,713.7,1137.3z M738.9,1133.8v-3.1l-9.6,0.6c-4.8,0.3-7.5,2.5-7.5,5.8c0,3.4,2.8,5.7,7.1,5.7
			C734.5,1142.7,738.9,1138.9,738.9,1133.8z"/>
		<path class="st0" d="M763,1141.8h-0.1v6.7H755v-53.7h8v21.2h0.2c2.3-4.5,6.8-7.3,12.4-7.3c9.9,0,16.3,7.8,16.3,20.2
			c0,12.4-6.4,20.2-16.3,20.2C769.8,1149.1,765.4,1146.3,763,1141.8z M763,1128.8c0,8.2,4.3,13.4,10.4,13.4
			c6.3,0,10.2-5.1,10.2-13.4c0-8.2-3.9-13.4-10.2-13.4C767.3,1115.4,763,1120.8,763,1128.8z"/>
		<path class="st0" d="M824.1,1122.7c-0.8-4.2-3.9-7.5-9.2-7.5c-6.2,0-10.3,5.2-10.3,13.6c0,8.6,4.1,13.6,10.4,13.6
			c4.9,0,8.2-2.7,9.1-7.3h7.7c-0.9,8.3-7.5,14-16.9,14c-11.2,0-18.5-7.7-18.5-20.3c0-12.4,7.3-20.3,18.4-20.3
			c10.1,0,16.2,6.5,16.9,14.2H824.1z"/>
		<path class="st0" d="M835.8,1128.8c0-12.4,6.6-20.2,16.4-20.2c5.6,0,10.1,2.8,12.3,7.1h0.1v-21.1h8.1v53.7h-7.8v-6.7h-0.1
			c-2.3,4.5-6.8,7.3-12.5,7.3C842.3,1149.1,835.8,1141.2,835.8,1128.8z M844,1128.8c0,8.3,4,13.4,10.3,13.4
			c6.2,0,10.3-5.2,10.3-13.4c0-8.1-4.1-13.4-10.3-13.4C848,1115.4,844,1120.6,844,1128.8z"/>
		<path class="st0" d="M914.4,1136.9c-1.1,7.1-7.9,12.2-16.9,12.2c-11.5,0-18.5-7.8-18.5-20.1c0-12.3,7.1-20.5,18.1-20.5
			c10.9,0,17.6,7.7,17.6,19.5v2.8h-27.7v0.5c0,6.8,4.1,11.3,10.5,11.3c4.6,0,8-2.3,9-5.7H914.4z M887.3,1125.2h19.6
			c-0.2-6-4-10.2-9.6-10.2S887.7,1119.3,887.3,1125.2z"/>
		<path class="st0" d="M923.4,1115.6H918v-6.3h5.4v-3.8c0-7.6,3.6-11.2,11.5-11.2c1.6,0,3.5,0.2,4.5,0.4v6c-0.8-0.1-1.9-0.2-2.9-0.2
			c-3.5,0-5.1,1.7-5.1,5.2v3.7h7.9v6.3h-7.8v32.8h-8.1V1115.6z"/>
		<path class="st0" d="M943.7,1151.5h8.1c1.2,3.3,4.7,5.4,9.3,5.4c6.3,0,10-3.6,10-8.9v-6.4H971c-2.2,4.2-6.8,7-12.4,7
			c-9.8,0-16.3-7.7-16.3-19.9c0-12.3,6.4-20.1,16.4-20.1c5.5,0,10.1,2.8,12.5,7.3h0.1v-6.7h7.8v38.4c0,9.3-7.2,15.4-18.4,15.4
			C951.6,1163.2,944.7,1158.2,943.7,1151.5z M971.2,1128.7c0-8-4.1-13.3-10.4-13.3c-6.2,0-10.2,5.2-10.2,13.3
			c0,8.2,4,13.2,10.2,13.2C967,1141.9,971.2,1136.8,971.2,1128.7z"/>
		<path class="st0" d="M987.4,1094.7h8v21.1h0.2c2.2-4.6,6.4-7.2,12.4-7.2c8.6,0,13.7,5.7,13.7,14.6v25.2h-8.1v-23.7
			c0-5.8-2.9-9.2-8.6-9.2c-6,0-9.6,4.1-9.6,10.3v22.6h-8V1094.7z"/>
		<path class="st0" d="M1029.1,1099c0-2.6,2.1-4.6,4.7-4.6c2.6,0,4.7,2,4.7,4.6c0,2.5-2.1,4.6-4.7,4.6
			C1031.1,1103.5,1029.1,1101.5,1029.1,1099z M1029.7,1109.3h8v39.2h-8V1109.3z"/>
		<path class="st0" d="M1054.3,1150.3c0,8-4.1,11.8-12.8,11.8c-0.4,0-1.6,0-1.9-0.1v-6.3c0.1,0,1,0,1.2,0c4,0,5.5-1.5,5.5-5.4v-41h8
			V1150.3z M1045.6,1099c0-2.6,2.1-4.6,4.7-4.6c2.6,0,4.7,2,4.7,4.6c0,2.5-2.1,4.6-4.7,4.6C1047.7,1103.5,1045.6,1101.5,1045.6,1099
			z"/>
		<path class="st0" d="M1086.7,1109.3h9.5l-16.2,16.9l16.9,22.3h-9.3l-13.3-17.4l-3.3,3.3v14.1h-8v-53.7h8v31.3h0.1L1086.7,1109.3z"
			/>
		<path class="st0" d="M1101.2,1094.7h8v53.7h-8V1094.7z"/>
		<path class="st0" d="M1117.5,1109.3h7.7v6.6h0.2c1.7-4.4,5.8-7.3,11.1-7.3c5.4,0,9.4,2.8,10.9,7.7h0.2c2-4.8,6.6-7.7,12.2-7.7
			c7.7,0,12.8,5.1,12.8,12.9v26.9h-8.1v-25c0-5.1-2.7-8-7.5-8s-8.1,3.5-8.1,8.5v24.5h-7.9v-25.6c0-4.5-2.9-7.4-7.4-7.4
			c-4.8,0-8.2,3.7-8.2,8.7v24.2h-8V1109.3z"/>
		<path class="st0" d="M1180.4,1109.3h7.7v6.5h0.2c2.1-4.5,6.3-7.2,12.3-7.2c8.6,0,13.6,5.5,13.6,14.5v25.3h-8.1v-23.8
			c0-5.9-2.8-9.1-8.3-9.1c-5.7,0-9.3,4-9.3,10.1v22.8h-8V1109.3z"/>
		<path class="st0" d="M735.2,1220.3c0-12.6,7.4-20.3,18.6-20.3c11.2,0,18.6,7.7,18.6,20.3c0,12.6-7.4,20.3-18.6,20.3
			S735.2,1232.9,735.2,1220.3z M764.2,1220.3c0-8.7-4.1-13.7-10.4-13.7s-10.4,5-10.4,13.7c0,8.7,4.1,13.7,10.4,13.7
			C760.1,1234,764.2,1229,764.2,1220.3z"/>
		<path class="st0" d="M815.5,1220.3c0,12.4-6.5,20.2-16.3,20.2c-5.6,0-10.1-2.8-12.3-7.1h-0.2v19.4h-8v-52.1h7.8v6.7h0.1
			c2.3-4.5,6.8-7.4,12.5-7.4C808.9,1200.1,815.5,1207.9,815.5,1220.3z M807.2,1220.3c0-8.2-4-13.4-10.3-13.4
			c-6.1,0-10.3,5.4-10.3,13.4c0,8.2,4.1,13.4,10.3,13.4C803.2,1233.7,807.2,1228.5,807.2,1220.3z"/>
		<path class="st0" d="M848.8,1207.5h0.2v-6.7h7.8v52.1h-8.1v-19.5h-0.1c-2.2,4.4-6.8,7.3-12.4,7.3c-9.8,0-16.3-7.9-16.3-20.2
			c0-12.4,6.4-20.2,16.4-20.2C842,1200.1,846.5,1203,848.8,1207.5z M848.7,1220.3c0-8.1-4.2-13.4-10.4-13.4
			c-6.3,0-10.2,5.1-10.2,13.4c0,8.3,3.9,13.4,10.2,13.4C844.5,1233.7,848.7,1228.5,848.7,1220.3z"/>
		<path class="st0" d="M864.7,1200.7h7.7v6.7h0.2c1.3-4.6,4.8-7.3,9.4-7.3c1.2,0,2.2,0.2,2.8,0.3v7.5c-0.6-0.3-2-0.4-3.6-0.4
			c-5.2,0-8.4,3.5-8.4,9v23.4h-8V1200.7z"/>
		<path class="st0" d="M904.3,1200c8.7,0,14.8,4.9,15.1,11.8h-7.6c-0.4-3.5-3.2-5.7-7.7-5.7c-4.4,0-7.3,2.1-7.3,5.2
			c0,2.4,1.9,4.1,6,5.1l6.6,1.5c7.9,1.9,10.9,4.9,10.9,10.6c0,7.1-6.7,12.1-16.3,12.1c-9.3,0-15.4-4.8-16-12h8
			c0.6,3.8,3.5,5.8,8.4,5.8c4.8,0,7.8-2,7.8-5.2c0-2.5-1.5-3.9-5.6-4.9l-7-1.7c-7.1-1.7-10.6-5.4-10.6-10.9
			C889,1204.8,895.2,1200,904.3,1200z"/>
		<path class="st0" d="M937,1191.5v9.3h7.4v6.4H937v21.6c0,3.4,1.5,4.9,4.8,4.9c0.8,0,2.1-0.1,2.6-0.2v6.4c-0.9,0.2-2.7,0.4-4.5,0.4
			c-7.9,0-11-3-11-10.6v-22.5h-5.7v-6.4h5.7v-9.3H937z"/>
		<path class="st0" d="M984.6,1239.9h-7.7v-6.6h-0.2c-2.2,4.7-6.1,7.3-12.1,7.3c-8.5,0-13.7-5.5-13.7-14.5v-25.3h8v23.8
			c0,6,2.8,9.2,8.4,9.2c5.8,0,9.3-4,9.3-10.1v-22.8h8V1239.9z"/>
		<path class="st0" d="M1011.9,1239.9h-8.6l-14.1-39.2h8.6l9.8,31.3h0.1l9.8-31.3h8.4L1011.9,1239.9z"/>
		<path class="st0" d="M1071.7,1239.9h-8.4l-8.2-29.3h-0.2l-8.2,29.3h-8.3l-10.8-39.2h8l7.1,30.8h0.1l8.2-30.8h7.7l8.2,30.8h0.2
			l7.1-30.8h8L1071.7,1239.9z"/>
		<path class="st0" d="M1101.8,1225.5l-8.7,14.4h-8.7l12.9-19.5l-12.7-19.6h9l8.6,14.2h0.1l8.4-14.2h8.9l-12.8,19.4l12.7,19.8h-8.9
			l-8.6-14.4H1101.8z"/>
		<path class="st0" d="M1125.4,1254.3v-6.5c0.6,0.1,1.9,0.1,2.6,0.1c3.8,0,5.7-1.6,7-5.6c0-0.1,0.7-2.4,0.7-2.4l-14.1-39.2h8.7
			l9.9,31.9h0.1l9.9-31.9h8.5l-14.7,41.2c-3.3,9.5-7.2,12.5-15.3,12.5C1128.1,1254.5,1126,1254.4,1125.4,1254.3z"/>
		<path class="st0" d="M1162.6,1234.7l20.9-27.4v-0.1h-20.7v-6.4h30v5.5l-20.4,27.1v0.1h20.6v6.4h-30.3V1234.7z"/>
		<path class="st0" d="M595,1285.9h-0.2l-14,10v-8.2l14.1-10h8.2v53.7H595V1285.9z"/>
		<path class="st0" d="M634.2,1276.6c10.2,0,17.9,6.5,17.9,15c0,6.3-3.3,10.9-11.2,18.9l-13.4,13.5v0.2h25.5v7h-36.7v-5.7l19.4-19.8
			c6.6-6.8,8.3-9.6,8.3-13.8c0-4.8-4.3-8.6-9.9-8.6c-5.9,0-10.3,4.2-10.3,9.8v0.1h-7.9v-0.1C615.8,1283.7,623.5,1276.6,634.2,1276.6
			z"/>
		<path class="st0" d="M672,1300.5h6.5c5.8,0,9.8-3.6,9.8-8.7c0-5-3.4-8.3-9.8-8.3c-5.8,0-9.7,3.3-10.2,8.6h-7.9
			c0.6-9.4,7.7-15.5,18.4-15.5c10.2,0,17.6,5.8,17.6,14c0,6.7-4.4,11.5-11.1,12.7v0.1c8.1,0.6,13.3,5.5,13.3,13
			c0,9.4-8.5,15.8-19.7,15.8c-11.6,0-19-6.4-19.5-15.6h8c0.5,5.1,4.8,8.7,11.5,8.7c6.5,0,11.2-3.7,11.2-9c0-5.8-4.4-9.4-11.5-9.4
			H672V1300.5z"/>
		<path class="st0" d="M732,1320.7h-26.9v-7.3c4.6-8.7,10.7-18.3,22.8-35.8H740v36.1h7.4v7H740v10.6h-8V1320.7z M712.9,1313.8h19.2
			v-29.8h-0.1c-9.3,13.4-14.7,21.8-19,29.6V1313.8z"/>
		<path class="st0" d="M754,1316.4h8c0.6,5.3,5.2,9,11.2,9c6.8,0,11.5-4.7,11.5-11.5s-4.7-11.6-11.4-11.6c-4.7,0-8.7,2.1-10.8,5.7
			h-7.6l2.8-30.4h32v7h-25.3l-1.5,16.5h0.2c2.3-3.4,6.7-5.4,12-5.4c10.3,0,17.7,7.6,17.7,18c0,11-8.1,18.6-19.7,18.6
			C762.3,1332.3,754.5,1325.8,754,1316.4z"/>
		<path class="st0" d="M801.9,1321.1c-2.2-4.3-3.3-9.6-3.3-15.9c0-18,8-28.6,21.5-28.6c9.5,0,16.9,5.7,18.5,14.3h-8.3
			c-1.3-4.4-5.3-7.3-10.2-7.3c-8.4,0-13.4,7.7-13.4,21.2h0.1c2.3-5.2,8-8.7,14.7-8.7c10.2,0,17.8,7.6,17.8,17.8
			c0,10.8-8.2,18.6-19.6,18.6C811.8,1332.4,805.4,1328.3,801.9,1321.1z M831,1314.1c0-6.5-4.7-11.2-11.3-11.2
			c-6.5,0-11.4,4.7-11.4,11.1s4.9,11.4,11.4,11.4C825.9,1325.3,831,1320.4,831,1314.1z"/>
		<path class="st0" d="M873.2,1284.9v-0.2h-28.3v-7h36.5v7.2l-23.3,46.5h-8.7L873.2,1284.9z"/>
		<path class="st0" d="M887.8,1316.8c0-6.8,4.8-12.3,11.9-13.8v-0.2c-6-1.6-9.8-6.3-9.8-12.1c0-8.2,7.6-14.1,18.2-14.1
			c10.6,0,18.1,6,18.1,14.2c0,5.7-3.8,10.3-9.8,12v0.2c7.1,1.5,11.9,7,11.9,13.8c0,9.1-8.4,15.5-20.3,15.5
			C896.1,1332.3,887.8,1325.9,887.8,1316.8z M919.8,1316.2c0-5.5-4.8-9.5-11.7-9.5c-6.8,0-11.7,4-11.7,9.5c0,5.5,4.9,9.4,11.7,9.4
			C915,1325.6,919.8,1321.7,919.8,1316.2z M918,1291.7c0-4.9-4.1-8.4-9.9-8.4c-5.8,0-9.9,3.5-9.9,8.4c0,4.9,4.1,8.4,9.9,8.4
			C913.9,1300,918,1296.5,918,1291.7z"/>
		<path class="st0" d="M935.3,1318.1h8.4c1.3,4.4,5.4,7.3,10.3,7.3c8.4,0,13.3-7.7,13.3-21.3c0,0,0,0-0.1,0h0h0
			c-2.2,5.3-7.8,8.8-14.7,8.8c-10.2,0-17.8-7.6-17.8-17.8c0-10.8,8.3-18.6,19.6-18.6c8,0,14.4,4.1,17.8,11.3
			c2.2,4.3,3.3,9.6,3.3,15.9c0,18-8,28.6-21.4,28.6C944.3,1332.3,936.9,1326.6,935.3,1318.1z M965.6,1295.1c0-6.4-5-11.4-11.4-11.4
			c-6.4,0-11.4,5-11.4,11.2c0,6.4,4.8,11.2,11.3,11.2C960.7,1306.1,965.6,1301.4,965.6,1295.1z"/>
		<path class="st0" d="M981.8,1304.4c0-17,7.7-27.8,20.5-27.8c12.8,0,20.4,10.8,20.4,27.8c0,17.1-7.6,27.9-20.4,27.9
			S981.8,1321.5,981.8,1304.4z M1014.3,1304.4c0-12.8-4.4-20.8-12-20.8c-7.6,0-12.1,8-12.1,20.8c0,13,4.4,20.9,12.1,20.9
			C1010,1325.3,1014.3,1317.4,1014.3,1304.4z"/>
		<path class="st0" d="M1043.7,1277.6h7.1c-5.4,6.3-9.6,20.3-9.6,32.6s4.2,26.3,9.6,32.6h-7.1c-7.3-9.1-10.8-19.6-10.8-32.6
			C1033,1297.2,1036.4,1286.7,1043.7,1277.6z"/>
		<path class="st0" d="M1060.7,1342.8h-7.1c3.7-4.3,9.6-16.5,9.6-32.6s-5.9-28.3-9.6-32.6h7.1c5.5,6.7,10.8,16.3,10.8,32.6
			C1071.4,1326.5,1066.2,1336,1060.7,1342.8z"/>
		<path class="st0" d="M1142.7,1305.2c0,11.9-5.4,19.7-14.2,19.7c-4.4,0-8-2.4-8.6-6.1h-0.4c-1.6,3.8-4.9,5.8-9.3,5.8
			c-7.7,0-13-6.3-13-15.8c0-9,5.2-15.3,12.8-15.3c4,0,7.5,2,8.9,5.2h0.4v-4.5h6.3v21.1c0,2.5,1.3,4.1,4,4.1c4.1,0,7.1-5.1,7.1-14.1
			c0-13.5-9.9-22.5-24.5-22.5c-14.4,0-24.8,10.8-24.8,26.1c0,16.4,10.9,25.6,26.1,25.6c4.6,0,9.3-0.6,11.6-1.6v5.1
			c-3.2,1-7.4,1.6-11.9,1.6c-18.4,0-31.6-11.3-31.6-31c0-18.5,12.7-31,31-31C1130.2,1277.7,1142.7,1288.8,1142.7,1305.2z
			 M1104.2,1309c0,6.1,2.8,9.8,7.3,9.8c4.7,0,7.7-3.8,7.7-9.8c0-6-3-9.8-7.7-9.8C1106.9,1299.2,1104.2,1302.9,1104.2,1309z"/>
		<path class="st0" d="M1158.7,1303.9c-7.1,0-11.6-5.3-11.6-13.5c0-8.3,4.6-13.5,11.6-13.5c7,0,11.6,5.3,11.6,13.5
			C1170.4,1298.7,1165.8,1303.9,1158.7,1303.9z M1151,1331.3l20.8-28.4l18.5-25.3h7.3l-20.2,27.7l-19,26H1151z M1163.6,1290.4
			c0-5.1-1.9-8.3-4.8-8.3c-3,0-4.8,3.2-4.8,8.3c0,5.2,1.9,8.3,4.8,8.3C1161.7,1298.7,1163.6,1295.5,1163.6,1290.4z M1190,1332
			c-7.1,0-11.6-5.3-11.6-13.5c0-8.3,4.5-13.6,11.6-13.6s11.6,5.3,11.6,13.6C1201.6,1326.7,1197,1332,1190,1332z M1194.8,1318.4
			c0-5.2-1.8-8.3-4.8-8.3s-4.8,3.1-4.8,8.3s1.8,8.3,4.8,8.3S1194.8,1323.6,1194.8,1318.4z"/>
		<path class="st0" d="M1241.5,1326.3c-4.4,3.8-10.6,6-17,6c-10.9,0-18.3-6.1-18.3-15.1c0-6.2,3.3-10.9,10.3-14.7
			c0.9-0.4,1.9-1,2.2-1.1c-4.8-5.1-6.7-8.5-6.7-12.4c0-6.9,6-12.1,14.1-12.1c8.2,0,14.1,5,14.1,12.1c0,5.5-3.3,9.6-11.3,13.8
			l12.2,13.1c1.6-2.9,2.3-6.9,2.3-12.8v-2h7.2v2.3c0,7.6-1.5,13.5-4.5,17.9l9.6,10.2h-9.8L1241.5,1326.3z M1214.1,1316.5
			c0,5.6,4.5,9.3,11.2,9.3c4.5,0,9-1.7,11.6-4.5l-14.1-15.4c-0.4,0.2-1.3,0.7-1.7,0.9C1216.1,1309.9,1214.1,1312.7,1214.1,1316.5z
			 M1233,1289.3c0-3.9-2.7-6.6-6.8-6.6c-3.9,0-6.8,2.8-6.8,6.6c0,2.8,1.5,5.2,5.4,9.2C1230.8,1295.5,1233,1292.9,1233,1289.3z"/>
		<path class="st0" d="M1275.5,1293.2l0.6,10.6h-5.5l0.6-10.6l-9,5.8l-2.7-5l9.4-4.6l-9.3-4.6l2.7-4.9l8.9,5.7l-0.5-10.5h5.5
			l-0.6,10.5l8.9-5.7l2.8,4.9l-9.5,4.7l9.5,4.6l-2.8,4.9L1275.5,1293.2z"/>
		<path class="st0" d="M1310.6,1277.2c9.8,0,16.4,5.8,16.4,13.8c0,5.8-2.9,9.8-7.8,12.8c-4.8,2.8-6.2,4.8-6.2,8.6v2.3h-7.7l0-3
			c-0.2-5.2,2.1-8.6,7.2-11.6c4.5-2.7,6.1-4.9,6.1-8.7c0-4.2-3.3-7.3-8.4-7.3c-5.1,0-8.4,3.1-8.8,8h-7.7
			C1294.1,1283.6,1299.8,1277.2,1310.6,1277.2z M1304.4,1327.1c0-2.7,2.2-4.8,4.9-4.8c2.8,0,4.9,2.1,4.9,4.8s-2.1,4.8-4.9,4.8
			C1306.6,1331.9,1304.4,1329.8,1304.4,1327.1z"/>
		<path class="st0" d="M1336.1,1327.1c0-2.7,2.2-4.8,4.9-4.8c2.8,0,4.9,2.1,4.9,4.8s-2.1,4.8-4.9,4.8
			C1338.3,1331.9,1336.1,1329.8,1336.1,1327.1z M1345.2,1277.6l-0.6,35.9h-7.1l-0.6-35.9H1345.2z"/>
	</g>
	<g>
		<path d="M437.4,2864.9h5.9c2.6,0,4.2,1.4,4.2,3.5v0c0,1.5-1.1,2.9-2.7,3.1v0c2,0.2,3.3,1.6,3.3,3.4v0c0,2.5-1.8,4-4.9,4h-5.9
			V2864.9z M440,2866.9v4h2.3c1.8,0,2.8-0.7,2.8-2.1v0c0-1.2-0.9-1.9-2.4-1.9H440z M440,2872.7v4.4h2.8c1.9,0,2.9-0.8,2.9-2.2v0
			c0-1.4-1-2.2-3-2.2H440z"/>
		<path d="M449.7,2875.4v-6.7h2.4v6.2c0,1.5,0.7,2.3,2.1,2.3c1.4,0,2.3-1,2.3-2.5v-6h2.4v10.4h-2.4v-1.6h0c-0.5,1.1-1.6,1.8-3.2,1.8
			C451,2879.2,449.7,2877.8,449.7,2875.4z"/>
		<path d="M461.6,2876.2v-5.7h-1.5v-1.9h1.5v-2.6h2.5v2.6h1.9v1.9h-1.9v5.5c0,1,0.5,1.3,1.3,1.3c0.2,0,0.4,0,0.6,0v1.8
			c-0.3,0-0.7,0.1-1.2,0.1C462.7,2879.2,461.6,2878.4,461.6,2876.2z"/>
		<path d="M468.4,2876.2v-5.7h-1.5v-1.9h1.5v-2.6h2.5v2.6h1.9v1.9h-1.9v5.5c0,1,0.5,1.3,1.3,1.3c0.2,0,0.4,0,0.6,0v1.8
			c-0.3,0-0.7,0.1-1.2,0.1C469.4,2879.2,468.4,2878.4,468.4,2876.2z"/>
		<path d="M473.8,2873.8L473.8,2873.8c0-3.4,2-5.4,5-5.4c3,0,5,2,5,5.4v0c0,3.4-2,5.4-5,5.4C475.8,2879.2,473.8,2877.2,473.8,2873.8
			z M481.4,2873.8L481.4,2873.8c0-2.2-1-3.4-2.6-3.4c-1.5,0-2.5,1.3-2.5,3.4v0c0,2.2,1,3.4,2.6,3.4
			C480.4,2877.3,481.4,2876,481.4,2873.8z"/>
		<path d="M485.4,2868.6h2.4v1.6h0c0.5-1.1,1.6-1.8,3.2-1.8c2.3,0,3.6,1.5,3.6,3.9v6.7h-2.4v-6.2c0-1.5-0.7-2.3-2.1-2.3
			c-1.4,0-2.3,1-2.3,2.5v6h-2.4V2868.6z"/>
		<path d="M500.3,2875.2l0-0.1h2.4l0,0.1c0.2,1.2,1.4,2,3.2,2c1.8,0,2.9-0.8,2.9-2v0c0-1.1-0.7-1.6-2.6-2l-1.5-0.3
			c-2.8-0.6-4.2-1.9-4.2-4v0c0-2.5,2.2-4.2,5.2-4.2c3.1,0,5.1,1.6,5.3,4.1l0,0.2h-2.4l0-0.1c-0.2-1.2-1.3-2-2.8-2
			c-1.7,0-2.7,0.8-2.7,1.9v0c0,1,0.8,1.6,2.5,1.9l1.5,0.3c2.9,0.6,4.2,1.8,4.2,4v0c0,2.6-2.1,4.3-5.5,4.3
			C502.6,2879.3,500.5,2877.8,500.3,2875.2z"/>
		<path d="M513.1,2868.6h2.4v1.7h0c0.4-1.1,1.5-1.9,2.9-1.9c1.5,0,2.5,0.8,2.9,2.1h0.1c0.5-1.3,1.7-2.1,3.2-2.1
			c2.1,0,3.4,1.4,3.4,3.5v7.1h-2.4v-6.5c0-1.3-0.7-2-1.9-2c-1.2,0-2,0.9-2,2.1v6.4h-2.4v-6.7c0-1.2-0.7-1.9-1.8-1.9
			c-1.2,0-2,0.9-2,2.2v6.4h-2.4V2868.6z"/>
		<path d="M529.5,2876.1L529.5,2876.1c0-1.9,1.4-3,4-3.1l2.7-0.2v-0.7c0-1-0.7-1.7-1.9-1.7c-1.2,0-1.9,0.5-2,1.3l0,0.1H530l0-0.1
			c0.1-1.8,1.7-3.2,4.4-3.2c2.6,0,4.3,1.4,4.3,3.5v7.2h-2.4v-1.6h-0.1c-0.6,1.1-1.8,1.8-3.1,1.8
			C530.9,2879.2,529.5,2877.9,529.5,2876.1z M533.8,2877.4c1.4,0,2.5-0.9,2.5-2.2v-0.8l-2.4,0.1c-1.2,0.1-1.9,0.6-1.9,1.4v0
			C532,2876.8,532.7,2877.4,533.8,2877.4z"/>
		<path d="M540.7,2864.9h2.4v14.2h-2.4V2864.9z"/>
		<path d="M545.3,2864.9h2.4v14.2h-2.4V2864.9z"/>
	</g>
	<g>
		<path d="M437.6,2784.3h6.9c3,0,4.9,1.6,4.9,4.1v0c0,1.8-1.3,3.4-3.1,3.6v0.1c2.3,0.2,3.9,1.8,3.9,4v0c0,2.9-2.1,4.7-5.7,4.7h-6.9
			V2784.3z M440.6,2786.6v4.7h2.7c2.1,0,3.3-0.9,3.3-2.4v0c0-1.4-1-2.2-2.8-2.2H440.6z M440.6,2793.5v5.1h3.3c2.2,0,3.3-0.9,3.3-2.5
			v0c0-1.7-1.2-2.5-3.5-2.5H440.6z"/>
		<path d="M452,2796.6v-7.8h2.8v7.3c0,1.7,0.8,2.7,2.4,2.7c1.6,0,2.7-1.2,2.7-2.9v-7h2.8v12.1h-2.8v-1.9h-0.1
			c-0.6,1.3-1.9,2.1-3.7,2.1C453.5,2801.1,452,2799.4,452,2796.6z"/>
		<path d="M465.9,2797.6v-6.6h-1.7v-2.2h1.7v-3.1h2.9v3.1h2.3v2.2h-2.3v6.4c0,1.2,0.5,1.6,1.6,1.6c0.3,0,0.5,0,0.7,0v2.1
			c-0.3,0-0.8,0.1-1.4,0.1C467.1,2801.1,465.9,2800.1,465.9,2797.6z"/>
		<path d="M473.7,2797.6v-6.6H472v-2.2h1.7v-3.1h2.9v3.1h2.3v2.2h-2.3v6.4c0,1.2,0.5,1.6,1.6,1.6c0.3,0,0.5,0,0.7,0v2.1
			c-0.3,0-0.8,0.1-1.4,0.1C474.9,2801.1,473.7,2800.1,473.7,2797.6z"/>
		<path d="M480.1,2794.8L480.1,2794.8c0-3.9,2.3-6.3,5.9-6.3c3.5,0,5.9,2.4,5.9,6.3v0c0,3.9-2.3,6.3-5.9,6.3
			C482.4,2801.1,480.1,2798.7,480.1,2794.8z M488.9,2794.8L488.9,2794.8c0-2.6-1.2-4-3-4c-1.8,0-3,1.5-3,4v0c0,2.6,1.2,4,3,4
			C487.8,2798.8,488.9,2797.3,488.9,2794.8z"/>
		<path d="M493.7,2788.7h2.8v1.9h0.1c0.6-1.3,1.9-2.2,3.7-2.2c2.7,0,4.2,1.7,4.2,4.5v7.9h-2.8v-7.3c0-1.7-0.8-2.7-2.4-2.7
			c-1.6,0-2.7,1.2-2.7,2.9v7h-2.8V2788.7z"/>
		<path d="M511.7,2784.3h3v14h7.5v2.5h-10.4V2784.3z"/>
		<path d="M523.5,2797.4L523.5,2797.4c0-2.2,1.7-3.5,4.6-3.7l3.2-0.2v-0.8c0-1.2-0.8-2-2.2-2c-1.4,0-2.2,0.6-2.4,1.5l0,0.1H524
			l0-0.1c0.2-2.2,2-3.8,5.1-3.8c3,0,5,1.6,5,4v8.3h-2.8v-1.9h-0.1c-0.7,1.3-2,2.1-3.7,2.1C525.1,2801.1,523.5,2799.6,523.5,2797.4z
			 M528.4,2798.9c1.6,0,2.9-1.1,2.9-2.5v-0.9l-2.8,0.2c-1.4,0.1-2.2,0.7-2.2,1.7v0C526.3,2798.3,527.2,2798.9,528.4,2798.9z"/>
		<path d="M536.4,2788.7h2.8v2.1h0.1c0.4-1.5,1.4-2.3,2.8-2.3c0.4,0,0.7,0.1,0.9,0.1v2.6c-0.2-0.1-0.7-0.2-1.2-0.2
			c-1.6,0-2.6,1-2.6,2.8v7h-2.8V2788.7z"/>
		<path d="M543.9,2801.7l0-0.1h2.8l0,0.1c0.3,0.7,1.3,1.2,2.8,1.2c1.9,0,2.9-1,2.9-2.5v-1.8h-0.1c-0.7,1.3-2,2.1-3.8,2.1
			c-3,0-5-2.3-5-6.1v0c0-3.8,2-6.2,5-6.2c1.7,0,3,0.9,3.7,2.3h0.1v-2.1h2.8v11.8c0,2.7-2.2,4.6-5.7,4.6
			C546.3,2805.1,544.2,2803.6,543.9,2801.7z M552.4,2794.7L552.4,2794.7c0-2.4-1.2-3.9-3-3.9c-1.8,0-3,1.5-3,3.8v0
			c0,2.4,1.2,3.9,3,3.9C551.2,2798.6,552.4,2797.1,552.4,2794.7z"/>
		<path d="M557,2794.8L557,2794.8c0-3.8,2.2-6.4,5.7-6.4c3.5,0,5.6,2.4,5.6,6.1v0.9h-8.5c0,2.1,1.2,3.4,3.1,3.4
			c1.4,0,2.3-0.8,2.6-1.6l0-0.1h2.7l0,0.1c-0.4,1.9-2.2,3.7-5.3,3.7C559.2,2801.1,557,2798.7,557,2794.8z M559.9,2793.6h5.7
			c-0.2-1.9-1.3-2.9-2.8-2.9C561.2,2790.7,560.1,2791.7,559.9,2793.6z"/>
	</g>
	<g>
		<path d="M437.9,2705h6.7c3,0,5.1,1.8,5.1,4.4v0c0,1.8-1.4,3.6-3.2,3.9v0c2.5,0.3,4.1,2,4.1,4.3v0c0,3.1-2.2,5-6,5h-6.7V2705z
			 M440.1,2706.9v5.7h3.3c2.6,0,4-1,4-3v0c0-1.7-1.2-2.7-3.3-2.7H440.1z M440.1,2714.5v6.2h4.1c2.6,0,4.1-1.1,4.1-3.1v0
			c0-2-1.4-3.1-4.3-3.1H440.1z"/>
		<path d="M452.1,2716.3L452.1,2716.3c0-4.1,2.4-6.6,5.9-6.6s5.9,2.5,5.9,6.6v0c0,4.1-2.4,6.6-5.9,6.6
			C454.5,2722.9,452.1,2720.3,452.1,2716.3z M461.7,2716.3L461.7,2716.3c0-3-1.5-4.7-3.7-4.7c-2.2,0-3.7,1.7-3.7,4.7v0
			c0,3,1.5,4.7,3.7,4.7C460.3,2721,461.7,2719.3,461.7,2716.3z"/>
		<path d="M465.4,2716.3L465.4,2716.3c0-4,2.2-6.6,5.4-6.6c1.8,0,3.3,0.9,4.1,2.4h0v-7.1h2.1v17.7h-2.1v-2.2h0
			c-0.8,1.5-2.2,2.4-4,2.4C467.6,2722.9,465.4,2720.3,465.4,2716.3z M474.9,2716.3L474.9,2716.3c0-2.9-1.5-4.7-3.7-4.7
			c-2.3,0-3.7,1.8-3.7,4.7v0c0,2.9,1.4,4.7,3.7,4.7C473.4,2721,474.9,2719.1,474.9,2716.3z"/>
		<path d="M480,2726.8v-1.7c0.2,0,0.4,0.1,0.7,0.1c1.3,0,2.1-0.3,2.6-1.8l0.3-0.7l-4.7-12.8h2.3l3.5,10.6h0l3.5-10.6h2.2l-5,13.5
			c-0.9,2.4-2,3.5-4.3,3.5C480.8,2726.9,480.3,2726.9,480,2726.8z"/>
		<path d="M497.4,2721.1l6.2-6.5c2.4-2.5,2.9-3.4,2.9-4.9v0c0-1.8-1.4-3.1-3.3-3.1c-2.2,0-3.8,1.5-3.8,3.4v0.1h-2.1v-0.1
			c0-3.1,2.6-5.3,5.9-5.3c3.2,0,5.5,2.1,5.5,4.9v0c0,1.9-0.9,3.4-4.1,6.7l-4.2,4.3v0h8.6v2h-11.7V2721.1z"/>
	</g>
	<g>
		<path d="M438,2625.6h7.2c3.2,0,5.4,1.9,5.4,4.7v0c0,1.9-1.5,3.8-3.4,4.1v0.1c2.7,0.3,4.4,2.1,4.4,4.6v0c0,3.3-2.4,5.3-6.4,5.3H438
			V2625.6z M440.4,2627.7v6.1h3.5c2.8,0,4.3-1.1,4.3-3.2v0c0-1.9-1.3-2.9-3.6-2.9H440.4z M440.4,2635.7v6.6h4.4
			c2.8,0,4.3-1.1,4.3-3.3v0c0-2.2-1.5-3.3-4.6-3.3H440.4z"/>
		<path d="M453.2,2637.7L453.2,2637.7c0-4.4,2.5-7.1,6.3-7.1s6.3,2.7,6.3,7v0c0,4.3-2.5,7.1-6.3,7.1
			C455.7,2644.7,453.2,2642,453.2,2637.7z M463.4,2637.7L463.4,2637.7c0-3.2-1.6-5-4-5c-2.4,0-4,1.8-4,5v0c0,3.2,1.6,5,4,5
			C461.9,2642.7,463.4,2640.8,463.4,2637.7z"/>
		<path d="M467.4,2637.7L467.4,2637.7c0-4.3,2.3-7.1,5.7-7.1c1.9,0,3.5,1,4.4,2.5h0.1v-7.5h2.3v18.9h-2.3v-2.3h-0.1
			c-0.9,1.6-2.4,2.6-4.3,2.6C469.7,2644.7,467.4,2641.9,467.4,2637.7z M477.5,2637.7L477.5,2637.7c0-3-1.6-5-3.9-5
			c-2.4,0-3.9,1.9-3.9,5v0c0,3.1,1.5,5,3.9,5C475.9,2642.7,477.5,2640.7,477.5,2637.7z"/>
		<path d="M483,2648.9v-1.9c0.2,0,0.5,0.1,0.7,0.1c1.4,0,2.2-0.4,2.8-1.9l0.3-0.8l-5-13.6h2.4l3.8,11.3h0.1l3.8-11.3h2.4l-5.3,14.4
			c-1,2.6-2.2,3.7-4.6,3.7C483.7,2649,483.2,2649,483,2648.9z"/>
		<path d="M506.2,2628.1L506.2,2628.1l-5,3.5v-2.4l5-3.6h2.3v18.9h-2.3V2628.1z"/>
	</g>
	<g>
		<g>
			<path d="M439.7,2561.3c0.2,1.8,1.9,2.9,4.2,2.9c2.2,0,3.8-1.2,3.8-2.7c0-1.4-1-2.2-3.3-2.8l-2.3-0.6c-3.2-0.8-4.8-2.3-4.8-4.8
				c0-3.1,2.7-5.1,6.4-5.1c3.7,0,6.3,2.1,6.4,5.1h-2.7c-0.2-1.8-1.6-2.8-3.7-2.8s-3.6,1.1-3.6,2.6c0,1.2,0.9,2,3.2,2.5l1.9,0.5
				c3.6,0.9,5.1,2.3,5.1,4.9c0,3.3-2.6,5.4-6.8,5.4c-3.9,0-6.6-2-6.7-5.2H439.7z"/>
			<path d="M463.8,2566.3h-2.5v-2.2h-0.1c-0.7,1.5-2,2.4-4,2.4c-2.8,0-4.5-1.8-4.5-4.8v-8.3h2.6v7.8c0,2,0.9,3,2.8,3
				c1.9,0,3.1-1.3,3.1-3.3v-7.5h2.6V2566.3z"/>
			<path d="M469.1,2564.1L469.1,2564.1l0,2.2h-2.6v-17.7h2.6v7h0.1c0.8-1.5,2.2-2.4,4.1-2.4c3.2,0,5.4,2.6,5.4,6.7
				c0,4.1-2.1,6.7-5.4,6.7C471.4,2566.5,469.9,2565.6,469.1,2564.1z M469.1,2559.8c0,2.7,1.4,4.4,3.4,4.4c2.1,0,3.4-1.7,3.4-4.4
				c0-2.7-1.3-4.4-3.4-4.4C470.5,2555.4,469.1,2557.2,469.1,2559.8z"/>
			<path d="M484.1,2550.3v3.1h2.5v2.1h-2.5v7.1c0,1.1,0.5,1.6,1.6,1.6c0.3,0,0.7,0,0.9-0.1v2.1c-0.3,0.1-0.9,0.1-1.5,0.1
				c-2.6,0-3.6-1-3.6-3.5v-7.4h-1.9v-2.1h1.9v-3.1H484.1z"/>
			<path d="M488.6,2550c0-0.8,0.7-1.5,1.5-1.5c0.9,0,1.5,0.7,1.5,1.5c0,0.8-0.7,1.5-1.5,1.5C489.3,2551.5,488.6,2550.8,488.6,2550z
				 M488.8,2553.4h2.6v12.9h-2.6V2553.4z"/>
			<path d="M497.6,2550.3v3.1h2.5v2.1h-2.5v7.1c0,1.1,0.5,1.6,1.6,1.6c0.3,0,0.7,0,0.9-0.1v2.1c-0.3,0.1-0.9,0.1-1.5,0.1
				c-2.6,0-3.6-1-3.6-3.5v-7.4h-1.9v-2.1h1.9v-3.1H497.6z"/>
			<path d="M502.3,2548.6h2.6v17.7h-2.6V2548.6z"/>
			<path d="M518.8,2562.5c-0.4,2.4-2.6,4-5.6,4c-3.8,0-6.1-2.6-6.1-6.6c0-4,2.3-6.7,6-6.7c3.6,0,5.8,2.5,5.8,6.4v0.9h-9.1v0.2
				c0,2.2,1.3,3.7,3.5,3.7c1.5,0,2.6-0.8,3-1.9H518.8z M509.8,2558.6h6.4c-0.1-2-1.3-3.4-3.2-3.4S510,2556.7,509.8,2558.6z"/>
			<path d="M532,2548.2c3.4,0,5.9,2.1,5.9,5c0,2.1-1.1,3.6-3.7,6.2l-4.4,4.4v0.1h8.4v2.3h-12.1v-1.9l6.4-6.5
				c2.2-2.2,2.7-3.2,2.7-4.6c0-1.6-1.4-2.8-3.3-2.8c-1.9,0-3.4,1.4-3.4,3.2v0H526v0C526,2550.6,528.5,2548.2,532,2548.2z"/>
		</g>
	</g>
	<g>
		<g>
			<path d="M440,2482.8c0.2,1.9,2,3.1,4.5,3.1c2.4,0,4.1-1.2,4.1-2.9c0-1.5-1-2.3-3.5-2.9l-2.4-0.6c-3.5-0.8-5.1-2.5-5.1-5.1
				c0-3.3,2.8-5.5,6.9-5.5c4,0,6.7,2.2,6.8,5.5h-2.9c-0.2-1.9-1.7-3-4-3s-3.8,1.2-3.8,2.8c0,1.3,1,2.1,3.4,2.7l2.1,0.5
				c3.9,0.9,5.5,2.5,5.5,5.2c0,3.5-2.8,5.7-7.3,5.7c-4.2,0-7-2.2-7.2-5.6H440z"/>
			<path d="M465.6,2488.1h-2.7v-2.3h-0.1c-0.8,1.6-2.2,2.6-4.3,2.6c-3,0-4.8-1.9-4.8-5.1v-8.9h2.8v8.4c0,2.1,1,3.2,2.9,3.2
				c2,0,3.3-1.4,3.3-3.6v-8h2.8V2488.1z"/>
			<path d="M471.3,2485.7L471.3,2485.7l-0.1,2.3h-2.7v-18.9h2.8v7.5h0.1c0.8-1.6,2.4-2.6,4.3-2.6c3.5,0,5.7,2.7,5.7,7.1
				c0,4.4-2.2,7.1-5.7,7.1C473.7,2488.3,472.2,2487.3,471.3,2485.7z M471.3,2481.2c0,2.9,1.5,4.7,3.6,4.7c2.2,0,3.6-1.8,3.6-4.7
				c0-2.9-1.4-4.7-3.6-4.7C472.8,2476.5,471.3,2478.3,471.3,2481.2z"/>
			<path d="M487.3,2471v3.3h2.6v2.2h-2.6v7.6c0,1.2,0.5,1.7,1.7,1.7c0.3,0,0.7,0,0.9-0.1v2.2c-0.3,0.1-0.9,0.1-1.6,0.1
				c-2.8,0-3.9-1.1-3.9-3.7v-7.9h-2v-2.2h2v-3.3H487.3z"/>
			<path d="M492.1,2470.7c0-0.9,0.7-1.6,1.6-1.6c0.9,0,1.6,0.7,1.6,1.6c0,0.9-0.7,1.6-1.6,1.6
				C492.9,2472.3,492.1,2471.6,492.1,2470.7z M492.3,2474.3h2.8v13.8h-2.8V2474.3z"/>
			<path d="M501.7,2471v3.3h2.6v2.2h-2.6v7.6c0,1.2,0.5,1.7,1.7,1.7c0.3,0,0.7,0,0.9-0.1v2.2c-0.3,0.1-0.9,0.1-1.6,0.1
				c-2.8,0-3.9-1.1-3.9-3.7v-7.9h-2v-2.2h2v-3.3H501.7z"/>
			<path d="M506.8,2469.2h2.8v18.9h-2.8V2469.2z"/>
			<path d="M524.3,2484c-0.4,2.5-2.8,4.3-5.9,4.3c-4,0-6.5-2.7-6.5-7.1c0-4.3,2.5-7.2,6.4-7.2c3.8,0,6.2,2.7,6.2,6.9v1h-9.7v0.2
				c0,2.4,1.4,4,3.7,4c1.6,0,2.8-0.8,3.2-2H524.3z M514.7,2479.9h6.9c-0.1-2.1-1.4-3.6-3.4-3.6S514.9,2477.8,514.7,2479.9z"/>
			<path d="M536.9,2472.1L536.9,2472.1l-5,3.5v-2.9l5-3.5h2.9v18.9h-2.9V2472.1z"/>
		</g>
	</g>
	<g>
		<path d="M438,2388.6h3.8v8.8h10.3v-8.8h3.8v21.2h-3.8v-9.2h-10.3v9.2H438V2388.6z"/>
		<path d="M458.7,2402.1L458.7,2402.1c0-4.9,2.9-8.2,7.3-8.2c4.5,0,7.2,3.1,7.2,7.8v1.2h-10.9c0.1,2.7,1.6,4.4,3.9,4.4
			c1.8,0,3-1,3.4-2l0-0.1h3.4l0,0.2c-0.5,2.4-2.8,4.8-6.9,4.8C461.5,2410.2,458.7,2407.1,458.7,2402.1z M462.3,2400.5h7.3
			c-0.3-2.5-1.7-3.7-3.6-3.7C464.1,2396.8,462.6,2398.1,462.3,2400.5z"/>
		<path d="M474.9,2405.4L474.9,2405.4c0-2.8,2.1-4.5,5.9-4.7l4.1-0.2v-1.1c0-1.6-1-2.5-2.9-2.5c-1.7,0-2.8,0.8-3,2l0,0.1h-3.4l0-0.2
			c0.2-2.8,2.6-4.8,6.6-4.8c3.9,0,6.4,2.1,6.4,5.2v10.7h-3.7v-2.4h-0.1c-0.9,1.6-2.6,2.7-4.7,2.7
			C477,2410.1,474.9,2408.2,474.9,2405.4z M481.3,2407.3c2.1,0,3.7-1.4,3.7-3.3v-1.2l-3.6,0.2c-1.8,0.1-2.8,0.9-2.8,2.1v0
			C478.6,2406.6,479.6,2407.3,481.3,2407.3z"/>
		<path d="M490.9,2402.1L490.9,2402.1c0-5,2.5-8.1,6.4-8.1c2.2,0,4,1.1,4.9,3h0.1v-8.3h3.7v21.2h-3.7v-2.6h-0.1
			c-0.9,1.8-2.6,3-4.9,3C493.4,2410.2,490.9,2407.1,490.9,2402.1z M502.3,2402.1L502.3,2402.1c0-3.1-1.6-5-3.8-5
			c-2.3,0-3.8,1.9-3.8,5v0c0,3.1,1.5,5,3.8,5C500.7,2407.1,502.3,2405.1,502.3,2402.1z"/>
		<path d="M508.9,2390c0-1.1,0.9-2,2-2c1.1,0,2,0.9,2,2c0,1.1-0.9,2-2,2C509.8,2392,508.9,2391.1,508.9,2390z M509.1,2394.3h3.7
			v15.6h-3.7V2394.3z"/>
		<path d="M515.9,2394.3h3.7v2.4h0.1c0.8-1.7,2.4-2.8,4.8-2.8c3.4,0,5.4,2.2,5.4,5.8v10.1h-3.7v-9.4c0-2.2-1-3.5-3.1-3.5
			c-2.1,0-3.4,1.5-3.4,3.8v9h-3.7V2394.3z"/>
		<path d="M532.5,2411l0-0.1h3.6l0,0.1c0.4,0.9,1.6,1.6,3.6,1.6c2.4,0,3.7-1.3,3.7-3.2v-2.3h-0.1c-0.9,1.7-2.6,2.7-4.9,2.7
			c-3.9,0-6.4-3-6.4-7.9v0c0-4.9,2.5-8,6.5-8c2.2,0,3.9,1.2,4.8,3h0.1v-2.6h3.7v15.2c0,3.5-2.8,5.9-7.4,5.9
			C535.6,2415.3,533,2413.4,532.5,2411z M543.4,2402L543.4,2402c0-3-1.5-5-3.8-5c-2.4,0-3.8,1.9-3.8,4.9v0c0,3.1,1.5,5,3.8,5
			C541.9,2407,543.4,2405,543.4,2402z"/>
		<path d="M556.3,2404.1l0-0.2h3.6l0,0.1c0.3,1.8,1.9,3.1,4.2,3.1c2.5,0,4.3-1.7,4.3-4.2v0c0-2.4-1.8-4.2-4.3-4.2
			c-1.2,0-2.3,0.4-3.1,1c-0.4,0.3-0.8,0.7-1,1.2h-3.3l1-12.3h13v3.1h-10l-0.6,6.4h0.1c0.9-1.4,2.7-2.3,4.8-2.3c4,0,7,2.9,7,7v0
			c0,4.4-3.3,7.4-8,7.4C559.6,2410.2,556.6,2407.6,556.3,2404.1z"/>
	</g>
	<g>
		<path d="M453.7,2331.7v-9.9h-10.6v9.9h-4.9v-23.6h4.9v9.6h10.6v-9.6h4.9v23.6H453.7z"/>
		<path d="M478.1,2326.3c-0.5,3.4-3.7,5.7-8,5.7c-5.4,0-8.6-3.4-8.6-9.1c0-5.6,3.3-9.2,8.4-9.2c5.1,0,8.3,3.4,8.3,8.8v1.5h-12.1v0.3
			c0,2.5,1.6,4.2,4,4.2c1.7,0,3.1-0.9,3.5-2.2H478.1z M466.2,2321.1h7.4c-0.1-2.2-1.6-3.8-3.7-3.8
			C467.9,2317.3,466.4,2318.9,466.2,2321.1z"/>
		<path d="M480,2326.6c0-3.2,2.5-5,6.8-5.3l4.4-0.3v-1.2c0-1.6-1.1-2.6-2.9-2.6c-1.8,0-2.9,0.9-3.1,2.2h-4.4
			c0.2-3.4,3.1-5.7,7.7-5.7c4.5,0,7.4,2.3,7.4,5.9v12h-4.6v-2.7h-0.1c-1,1.9-3.2,3-5.3,3C482.6,2331.9,480,2329.8,480,2326.6z
			 M491.3,2325.2v-1.3l-3.7,0.2c-1.8,0.1-2.8,0.9-2.8,2.2c0,1.3,1.1,2.1,2.7,2.1C489.6,2328.5,491.3,2327.1,491.3,2325.2z"/>
		<path d="M498.4,2322.9c0-5.6,2.8-9,7.2-9c2.5,0,4.5,1.3,5.3,3.3h0.1v-9.1h4.8v23.6h-4.7v-3H511c-0.9,1.9-2.9,3.3-5.5,3.3
			C501.2,2331.9,498.4,2328.5,498.4,2322.9z M503.3,2322.9c0,3.2,1.5,5.2,3.9,5.2c2.4,0,3.9-2,3.9-5.2c0-3.2-1.5-5.2-3.9-5.2
			C504.8,2317.7,503.3,2319.7,503.3,2322.9z"/>
		<path d="M518.9,2309.8c0-1.4,1.1-2.5,2.5-2.5c1.4,0,2.5,1.1,2.5,2.5c0,1.4-1.1,2.5-2.5,2.5C520,2312.2,518.9,2311.1,518.9,2309.8z
			 M519.1,2314.2h4.8v17.5h-4.8V2314.2z"/>
		<path d="M527,2314.2h4.6v3.1h0.1c0.9-2.2,2.8-3.4,5.5-3.4c3.9,0,6.1,2.5,6.1,6.6v11.3h-4.8v-10.3c0-2.3-1.1-3.6-3.2-3.6
			c-2.1,0-3.5,1.6-3.5,3.8v10.1H527V2314.2z"/>
		<path d="M546.2,2332.9h4.7c0.4,1.2,1.7,2,3.6,2c2.5,0,3.8-1.4,3.8-3.4v-3.1h-0.1c-0.8,1.9-2.9,3.1-5.4,3.1c-4.3,0-7.1-3.3-7.1-8.8
			c0-5.6,2.7-9,7.2-9c2.5,0,4.5,1.3,5.4,3.3h0.1v-3.1h4.7v17.3c0,4.2-3.5,6.8-8.7,6.8C549.7,2338.3,546.6,2336,546.2,2332.9z
			 M558.3,2322.9c0-3.2-1.5-5.2-3.9-5.2c-2.4,0-3.8,2-3.8,5.2c0,3.2,1.5,5.1,3.8,5.1C556.8,2327.9,558.3,2326,558.3,2322.9z"/>
		<path d="M584.1,2327.5h-11.7v-4.2c2.1-3.9,4.6-8.1,9.5-15.2h7v15.4h3.1v4h-3.1v4.2h-4.7V2327.5z M576.7,2323.7h7.5v-12.1h-0.1
			c-3.4,5-5.5,8.3-7.4,11.9V2323.7z"/>
	</g>
	<g>
		<path d="M455.4,2253.5v-10.9h-11.7v10.9h-5.4v-25.9h5.4v10.5h11.7v-10.5h5.4v25.9H455.4z"/>
		<path d="M482.3,2247.6c-0.6,3.8-4,6.3-8.8,6.3c-5.9,0-9.5-3.8-9.5-10c0-6.1,3.6-10.1,9.3-10.1c5.6,0,9.1,3.8,9.1,9.7v1.6h-13.3
			v0.3c0,2.8,1.7,4.6,4.4,4.6c1.9,0,3.4-1,3.9-2.4H482.3z M469.2,2241.8h8.2c-0.1-2.5-1.7-4.2-4-4.2
			C471.1,2237.7,469.4,2239.4,469.2,2241.8z"/>
		<path d="M484.4,2247.9c0-3.5,2.7-5.5,7.5-5.8l4.9-0.3v-1.3c0-1.8-1.3-2.8-3.2-2.8c-2,0-3.2,1-3.5,2.4h-4.8
			c0.2-3.7,3.4-6.3,8.5-6.3c4.9,0,8.2,2.6,8.2,6.4v13.2h-5.1v-2.9h-0.1c-1.1,2-3.5,3.3-5.9,3.3
			C487.2,2253.8,484.4,2251.4,484.4,2247.9z M496.8,2246.4v-1.4l-4.1,0.3c-2,0.1-3.1,1-3.1,2.4c0,1.4,1.2,2.3,3,2.3
			C494.9,2250,496.8,2248.5,496.8,2246.4z"/>
		<path d="M504.6,2243.8c0-6.1,3.1-9.9,7.9-9.9c2.8,0,4.9,1.5,5.9,3.6h0.1v-10h5.2v25.9h-5.2v-3.3h-0.1c-0.9,2.1-3.2,3.6-6,3.6
			C507.7,2253.8,504.6,2250,504.6,2243.8z M510,2243.8c0,3.5,1.6,5.7,4.3,5.7c2.6,0,4.3-2.2,4.3-5.7c0-3.5-1.7-5.7-4.3-5.7
			C511.6,2238.1,510,2240.3,510,2243.8z"/>
		<path d="M527.2,2229.4c0-1.5,1.2-2.7,2.8-2.7c1.6,0,2.8,1.2,2.8,2.7c0,1.5-1.2,2.7-2.8,2.7
			C528.4,2232.1,527.2,2230.9,527.2,2229.4z M527.3,2234.2h5.2v19.3h-5.2V2234.2z"/>
		<path d="M536.1,2234.2h5.1v3.4h0.1c1-2.4,3.1-3.8,6-3.8c4.3,0,6.7,2.7,6.7,7.2v12.4h-5.2v-11.3c0-2.5-1.2-4-3.5-4
			c-2.4,0-3.8,1.7-3.8,4.2v11.1h-5.2V2234.2z"/>
		<path d="M557.2,2254.8h5.1c0.4,1.3,1.9,2.2,3.9,2.2c2.7,0,4.2-1.5,4.2-3.7v-3.4h-0.1c-0.9,2-3.2,3.5-5.9,3.5
			c-4.7,0-7.8-3.6-7.8-9.7c0-6.1,3-9.9,7.9-9.9c2.8,0,4.9,1.5,5.9,3.7h0.1v-3.4h5.2v19c0,4.6-3.8,7.5-9.6,7.5
			C561,2260.7,557.6,2258.3,557.2,2254.8z M570.5,2243.8c0-3.5-1.7-5.7-4.3-5.7c-2.6,0-4.2,2.2-4.2,5.7c0,3.5,1.6,5.6,4.2,5.6
			C568.8,2249.4,570.5,2247.3,570.5,2243.8z"/>
		<path d="M592.8,2238.2h3.1c2.5,0,4.2-1.5,4.2-3.6c0-2.1-1.5-3.5-4.2-3.5c-2.5,0-4.2,1.5-4.3,3.8h-5c0.2-4.8,3.9-7.9,9.6-7.9
			c5.4,0,9.1,2.8,9.1,6.9c0,3.2-2.2,5.5-5.4,6.1v0.1c3.9,0.3,6.4,2.7,6.4,6.3c0,4.7-4.2,7.7-10.2,7.7c-5.9,0-9.7-3.2-9.9-8h5.2
			c0.2,2.2,2,3.6,4.8,3.6c2.7,0,4.6-1.5,4.6-3.7c0-2.4-1.8-3.8-4.7-3.8h-3.2V2238.2z"/>
	</g>
	<g>
		<path d="M438.7,2139.7h5.1v11.8h13.8v-11.8h5v28.3h-5v-12.3h-13.8v12.3h-5.1V2139.7z"/>
		<path d="M466.2,2157.7L466.2,2157.7c0-6.6,3.8-10.9,9.8-10.9s9.6,4.2,9.6,10.5v1.6H471c0.1,3.6,2.1,5.8,5.3,5.8
			c2.4,0,4-1.3,4.5-2.7l0-0.1h4.6l-0.1,0.2c-0.6,3.2-3.7,6.4-9.1,6.4C469.9,2168.4,466.2,2164.3,466.2,2157.7z M471.1,2155.6h9.7
			c-0.4-3.3-2.2-4.9-4.8-4.9C473.4,2150.6,471.5,2152.4,471.1,2155.6z"/>
		<path d="M487.9,2162.1L487.9,2162.1c0-3.7,2.9-5.9,7.9-6.3l5.4-0.3v-1.4c0-2.1-1.4-3.4-3.8-3.4c-2.3,0-3.7,1.1-4,2.6l0,0.2h-4.5
			l0-0.2c0.3-3.7,3.5-6.5,8.8-6.5c5.2,0,8.5,2.7,8.5,6.9v14.3h-4.9v-3.2h-0.1c-1.2,2.2-3.5,3.5-6.3,3.5
			C490.7,2168.4,487.9,2165.8,487.9,2162.1z M496.3,2164.6c2.8,0,4.9-1.9,4.9-4.3v-1.6l-4.7,0.3c-2.4,0.2-3.7,1.2-3.7,2.8v0
			C492.7,2163.6,494.1,2164.6,496.3,2164.6z"/>
		<path d="M509.1,2157.6L509.1,2157.6c0-6.7,3.4-10.8,8.6-10.8c2.9,0,5.3,1.5,6.5,4h0.1v-11.1h4.9v28.3h-4.9v-3.5h-0.1
			c-1.2,2.5-3.5,3.9-6.5,3.9C512.5,2168.4,509.1,2164.3,509.1,2157.6z M524.3,2157.6L524.3,2157.6c0-4.1-2.1-6.7-5.1-6.7
			c-3.1,0-5.1,2.5-5.1,6.7v0c0,4.1,1.9,6.7,5.1,6.7C522.2,2164.3,524.3,2161.7,524.3,2157.6z"/>
		<path d="M533.2,2141.6c0-1.5,1.2-2.7,2.7-2.7c1.5,0,2.7,1.2,2.7,2.7c0,1.5-1.2,2.7-2.7,2.7C534.4,2144.3,533.2,2143,533.2,2141.6z
			 M533.4,2147.2h4.9v20.8h-4.9V2147.2z"/>
		<path d="M542.5,2147.2h4.9v3.3h0.1c1.1-2.2,3.2-3.7,6.4-3.7c4.6,0,7.2,2.9,7.2,7.8v13.5h-4.9v-12.5c0-3-1.4-4.6-4.2-4.6
			c-2.8,0-4.6,2-4.6,5v12.1h-4.9V2147.2z"/>
		<path d="M564.7,2169.5l0-0.2h4.8l0.1,0.2c0.5,1.2,2.2,2.1,4.7,2.1c3.2,0,4.9-1.7,4.9-4.3v-3h-0.1c-1.2,2.2-3.5,3.6-6.5,3.6
			c-5.2,0-8.6-4-8.6-10.5v0c0-6.6,3.4-10.6,8.6-10.6c2.9,0,5.2,1.6,6.4,4h0.1v-3.5h4.9v20.2c0,4.7-3.8,7.9-9.8,7.9
			C568.7,2175.3,565.3,2172.8,564.7,2169.5z M579.2,2157.5L579.2,2157.5c0-4-2.1-6.6-5.1-6.6c-3.1,0-5.1,2.5-5.1,6.6v0
			c0,4.1,2,6.6,5.1,6.6C577.1,2164.1,579.2,2161.6,579.2,2157.5z"/>
		<path d="M596.2,2164.6l10-9.7c3.7-3.6,4.5-5.1,4.5-7.2v0c0-2.5-1.9-4.3-4.6-4.3c-3.1,0-5.3,2.1-5.4,4.8v0.1h-4.7v-0.1
			c0-5.2,4.4-8.9,10.1-8.9c5.7,0,9.6,3.4,9.6,8.1v0c0,3.3-1.5,5.6-6.5,10.4l-6.2,5.9v0.2h13.2v4.1h-19.9V2164.6z"/>
	</g>
	<g>
		<path d="M460.7,2083.5v-13.9h-14.9v13.9h-6.9v-33h6.9v13.4h14.9v-13.4h6.9v33H460.7z"/>
		<path d="M494.9,2076c-0.7,4.8-5.1,8-11.2,8c-7.5,0-12.1-4.8-12.1-12.7c0-7.8,4.6-12.9,11.8-12.9c7.1,0,11.6,4.8,11.6,12.3v2h-16.9
			v0.4c0,3.5,2.2,5.9,5.6,5.9c2.4,0,4.3-1.2,4.9-3.1H494.9z M478.3,2068.7h10.4c-0.1-3.1-2.2-5.3-5.1-5.3
			C480.6,2063.4,478.5,2065.7,478.3,2068.7z"/>
		<path d="M497.6,2076.5c0-4.5,3.4-7,9.5-7.4l6.2-0.4v-1.6c0-2.3-1.6-3.6-4.1-3.6c-2.5,0-4.1,1.2-4.4,3h-6.1c0.3-4.8,4.3-8,10.8-8
			c6.3,0,10.4,3.2,10.4,8.2v16.9h-6.5v-3.8h-0.1c-1.4,2.6-4.4,4.1-7.5,4.1C501.1,2083.9,497.6,2080.9,497.6,2076.5z M513.3,2074.6
			v-1.8l-5.2,0.3c-2.5,0.2-3.9,1.3-3.9,3c0,1.8,1.5,3,3.8,3C510.9,2079.1,513.3,2077.2,513.3,2074.6z"/>
		<path d="M523.3,2071.2c0-7.8,3.9-12.6,10-12.6c3.5,0,6.3,1.9,7.5,4.6h0.1v-12.7h6.7v33H541v-4.2h-0.1c-1.2,2.7-4,4.6-7.6,4.6
			C527.2,2083.9,523.3,2079.1,523.3,2071.2z M530.1,2071.3c0,4.5,2.1,7.3,5.4,7.3c3.3,0,5.4-2.8,5.4-7.3c0-4.5-2.1-7.3-5.4-7.3
			C532.2,2064,530.1,2066.8,530.1,2071.3z"/>
		<path d="M552,2052.9c0-1.9,1.6-3.5,3.6-3.5c2,0,3.6,1.5,3.6,3.5c0,1.9-1.6,3.5-3.6,3.5C553.5,2056.3,552,2054.8,552,2052.9z
			 M552.2,2059h6.7v24.5h-6.7V2059z"/>
		<path d="M563.3,2059h6.5v4.4h0.1c1.3-3,3.9-4.8,7.7-4.8c5.4,0,8.5,3.4,8.5,9.2v15.8h-6.7v-14.4c0-3.2-1.5-5-4.5-5
			c-3,0-4.9,2.2-4.9,5.4v14.1h-6.7V2059z"/>
		<path d="M590.2,2085.3h6.5c0.5,1.7,2.4,2.9,5,2.9c3.5,0,5.4-1.9,5.4-4.8v-4.3h-0.1c-1.1,2.6-4,4.4-7.6,4.4c-6,0-9.9-4.6-9.9-12.3
			c0-7.8,3.8-12.6,10.1-12.6c3.5,0,6.3,1.9,7.6,4.7h0.1v-4.3h6.6v24.2c0,5.9-4.9,9.6-12.2,9.6
			C595.1,2092.8,590.7,2089.7,590.2,2085.3z M607.1,2071.2c0-4.4-2.1-7.3-5.5-7.3c-3.3,0-5.4,2.8-5.4,7.3c0,4.5,2.1,7.1,5.4,7.1
			C605,2078.3,607.1,2075.7,607.1,2071.2z"/>
		<path d="M635.8,2056.9h-0.1l-8.4,5.8v-6.2l8.5-5.9h6.9v33h-6.8V2056.9z"/>
	</g>
	<g>
		<path d="M439.5,1948.9h13.8c11.2,0,17.9,6.8,17.9,18.7v0.1c0,11.9-6.6,19-17.9,19h-13.8V1948.9z M452.6,1980.9
			c7.6,0,11.8-4.6,11.8-13.2v-0.1c0-8.4-4.3-13-11.8-13h-6.3v26.3H452.6z"/>
		<path d="M475.7,1951.4c0-2,1.6-3.6,3.6-3.6c2,0,3.6,1.6,3.6,3.6c0,1.9-1.6,3.6-3.6,3.6C477.3,1954.9,475.7,1953.3,475.7,1951.4z
			 M476.1,1958.9h6.5v27.7h-6.5V1958.9z"/>
		<path d="M486.9,1978.5l0-0.2h6.4l0.1,0.2c0.5,2.4,2.3,3.8,5.6,3.8c3.2,0,5.1-1.3,5.1-3.3v0c0-1.7-1-2.6-3.8-3.3l-4.6-1
			c-5.3-1.2-8-3.8-8-7.9v0c0-5.1,4.4-8.5,11.1-8.5c6.9,0,10.9,3.8,11.2,8.6l0,0.3h-6.1l0-0.2c-0.3-2.2-2.1-3.8-5.1-3.8
			c-2.9,0-4.7,1.3-4.7,3.4v0c0,1.6,1.1,2.6,3.9,3.3l4.6,1c5.7,1.3,7.9,3.5,7.9,7.6v0c0,5.2-4.8,8.7-11.6,8.7
			C491.7,1987.1,487.5,1983.7,486.9,1978.5z"/>
		<path d="M514.7,1958.9h6.5v4.8h0.1c1.6-3.3,4.6-5.4,8.6-5.4c7,0,11.5,5.5,11.5,14.4v0c0,8.9-4.4,14.4-11.4,14.4
			c-3.9,0-7.1-2-8.7-5.2h-0.1v13.8h-6.5V1958.9z M534.8,1972.8L534.8,1972.8c0-5.6-2.6-9-6.8-9c-4,0-6.8,3.5-6.8,8.9v0
			c0,5.4,2.8,8.9,6.8,8.9C532.2,1981.6,534.8,1978.2,534.8,1972.8z"/>
		<path d="M545.8,1948.9h6.5v37.7h-6.5V1948.9z"/>
		<path d="M556.8,1978.7L556.8,1978.7c0-5,3.8-7.9,10.5-8.3l7.2-0.4v-1.9c0-2.8-1.8-4.5-5.1-4.5c-3.1,0-5,1.4-5.4,3.5l-0.1,0.2h-6
			l0-0.3c0.4-4.9,4.7-8.6,11.7-8.6c6.9,0,11.4,3.7,11.4,9.2v19.1h-6.5v-4.3h-0.2c-1.6,2.9-4.7,4.7-8.3,4.7
			C560.5,1987.1,556.8,1983.6,556.8,1978.7z M568,1982.1c3.7,0,6.6-2.5,6.6-5.8v-2.1l-6.3,0.4c-3.2,0.2-5,1.6-5,3.8v0
			C563.2,1980.7,565.1,1982.1,568,1982.1z"/>
		<path d="M586.6,1995.5v-5c0.5,0.1,1.3,0.2,2.2,0.2c2.5,0,3.9-0.7,4.7-3l0.4-1.1l-10-27.7h7.1l6.5,22.2h0.2l6.5-22.2h6.8l-10,28.6
			c-2.1,6.1-5.4,8.3-11.1,8.3C588.6,1995.8,587.3,1995.6,586.6,1995.5z"/>
		<path d="M624.2,1976.5l0-0.3h6.5l0,0.3c0.4,3.1,3.3,5.3,7.7,5.3c4.4,0,7.3-2.4,7.3-5.8v-0.1c0-4-2.9-6.2-7.7-6.2h-4.5v-5h4.3
			c4.2,0,6.9-2.4,6.9-5.6v-0.1c0-3.4-2.3-5.4-6.4-5.4c-4,0-6.7,2.1-7,5.3l0,0.3H625l0-0.3c0.5-6.4,5.7-10.6,13.3-10.6
			c7.8,0,12.8,4,12.8,9.9v0.1c0,4.7-3.4,7.8-7.9,8.7v0.1c5.6,0.5,9.3,3.8,9.3,9v0.1c0,6.6-5.8,11.2-14.1,11.2
			C630.1,1987.2,624.8,1982.8,624.2,1976.5z"/>
	</g>
	<g>
		<path d="M455.9,1840.6c12.7,0,20.2,7.6,20.2,21.1s-7.5,21.4-20.2,21.4h-16.2v-42.5H455.9z M448.6,1875.7h6.3
			c7.9,0,12.2-4.8,12.2-14c0-8.9-4.4-13.8-12.2-13.8h-6.3V1875.7z"/>
		<path d="M481,1843.6c0-2.5,2-4.4,4.6-4.4s4.6,1.9,4.6,4.4c0,2.5-2,4.4-4.6,4.4S481,1846.1,481,1843.6z M481.3,1851.5h8.6v31.5
			h-8.6V1851.5z"/>
		<path d="M508.3,1850.8c7.9,0,13.1,4,13.2,10.1h-7.9c-0.2-2.5-2.2-4.1-5.4-4.1c-3,0-4.9,1.4-4.9,3.4c0,1.6,1.4,2.6,4.1,3.3l6,1.3
			c6.3,1.4,8.9,3.9,8.9,8.6c0,6.2-5.7,10.3-14,10.3c-8.4,0-13.6-4.1-14.1-10.2h8.4c0.4,2.6,2.5,4.2,5.9,4.2c3.3,0,5.2-1.3,5.2-3.4
			c0-1.6-1.1-2.5-3.9-3.1l-5.8-1.3c-6-1.4-9-4.5-9-9.1C495,1854.8,500.2,1850.8,508.3,1850.8z"/>
		<path d="M557.9,1867.3c0,10.1-4.9,16.3-12.8,16.3c-4.6,0-8.1-2.2-9.8-5.8h-0.2v15.6h-8.6v-41.8h8.5v5.5h0.2c1.7-3.7,5.2-6,9.8-6
			C553,1851,557.9,1857.1,557.9,1867.3z M549.1,1867.3c0-5.7-2.7-9.4-7-9.4c-4.2,0-7,3.7-7,9.4c0,5.7,2.8,9.4,7,9.4
			C546.4,1876.6,549.1,1873,549.1,1867.3z"/>
		<path d="M562.5,1840.6h8.6v42.5h-8.6V1840.6z"/>
		<path d="M575.7,1874c0-5.7,4.4-9.1,12.3-9.5l7.9-0.5v-2.1c0-2.9-2.1-4.6-5.3-4.6c-3.2,0-5.2,1.6-5.6,3.9h-7.9
			c0.3-6.1,5.5-10.3,13.9-10.3c8.1,0,13.4,4.2,13.4,10.5v21.7h-8.3v-4.8h-0.2c-1.8,3.4-5.7,5.3-9.6,5.3
			C580.3,1883.5,575.7,1879.7,575.7,1874z M595.9,1871.5v-2.3l-6.6,0.4c-3.2,0.2-5,1.7-5,3.9c0,2.4,1.9,3.8,4.9,3.8
			C592.8,1877.3,595.9,1874.9,595.9,1871.5z"/>
		<path d="M610.5,1894.6v-6.6c0.3,0.1,1.8,0.1,2.1,0.1c3.1,0,4.7-1,5.3-3.5c0-0.1,0.3-1.4,0.3-1.5l-11-31.6h9.4l6.7,24.7h0.1
			l6.7-24.7h9.1l-10.9,32.2c-2.7,8.1-6.6,11-14.7,11C613.5,1894.7,610.8,1894.7,610.5,1894.6z"/>
		<path d="M669.7,1839.7c8.9,0,15.1,5.2,15.1,12.3c0,5.3-3.5,9.3-8.2,13.9l-10.4,10v0.2h19.2v7.1h-30.9v-6l16-15.4
			c4.3-4.3,5.6-6.4,5.6-9.4c0-3.2-2.8-5.7-6.7-5.7c-4.1,0-7.1,2.9-7.1,6.8v0.1h-8.2v-0.1C654.1,1845.3,660.5,1839.7,669.7,1839.7z"
			/>
	</g>
	<g>
		<path d="M471.3,1700.4c22.6,0,36,13.5,36,37.4c0,24-13.3,38-36,38h-28.8v-75.5H471.3z M458.2,1762.8h11.1
			c14.1,0,21.8-8.6,21.8-24.9c0-15.8-7.8-24.5-21.8-24.5h-11.1V1762.8z"/>
		<path d="M515.8,1705.7c0-4.4,3.6-7.9,8.2-7.9s8.2,3.5,8.2,7.9c0,4.4-3.6,7.9-8.2,7.9S515.8,1710.1,515.8,1705.7z M516.3,1719.8
			h15.3v56.1h-15.3V1719.8z"/>
		<path d="M564.4,1718.6c14.1,0,23.2,7.1,23.4,18h-14.1c-0.3-4.5-3.9-7.3-9.6-7.3c-5.3,0-8.7,2.4-8.7,6c0,2.8,2.4,4.7,7.3,5.8
			l10.7,2.3c11.2,2.5,15.8,7,15.8,15.3c0,11-10.1,18.3-24.9,18.3c-15,0-24.2-7.2-25-18.1h14.9c0.7,4.7,4.4,7.4,10.5,7.4
			c5.8,0,9.3-2.3,9.3-6c0-2.8-1.9-4.4-6.9-5.6l-10.4-2.3c-10.6-2.4-16.1-7.9-16.1-16.2C540.8,1725.6,550.1,1718.6,564.4,1718.6z"/>
		<path d="M652.6,1747.8c0,18-8.7,28.9-22.7,28.9c-8.2,0-14.4-4-17.4-10.3h-0.3v27.7h-15.3v-74.4H612v9.8h0.3
			c3-6.6,9.3-10.7,17.4-10.7C643.9,1718.9,652.6,1729.7,652.6,1747.8z M637,1747.8c0-10.1-4.8-16.7-12.4-16.7
			c-7.5,0-12.4,6.6-12.4,16.7c0,10.1,4.9,16.6,12.4,16.6C632.2,1764.5,637,1758,637,1747.8z"/>
		<path d="M660.8,1700.4h15.3v75.5h-15.3V1700.4z"/>
		<path d="M684.2,1759.7c0-10.2,7.8-16.1,21.8-16.9l14.1-0.8v-3.7c0-5.2-3.7-8.3-9.4-8.3c-5.7,0-9.3,2.8-10,7h-14
			c0.6-10.9,9.8-18.4,24.7-18.4c14.4,0,23.7,7.4,23.7,18.7v38.5h-14.7v-8.6h-0.3c-3.1,6-10.1,9.5-17.1,9.5
			C692.3,1776.7,684.2,1769.8,684.2,1759.7z M720.2,1755.3v-4.1l-11.8,0.7c-5.7,0.4-8.9,3-8.9,7c0,4.2,3.5,6.8,8.6,6.8
			C714.7,1765.7,720.2,1761.4,720.2,1755.3z"/>
		<path d="M746.1,1796.5v-11.8c0.5,0.1,3.2,0.1,3.8,0.1c5.6,0,8.4-1.8,9.4-6.2c0-0.2,0.6-2.5,0.5-2.7l-19.5-56.1h16.8l11.9,43.8h0.3
			l11.9-43.8h16.1l-19.3,57.3c-4.8,14.4-11.8,19.5-26.1,19.5C751.4,1796.6,746.6,1796.6,746.1,1796.5z"/>
		<path d="M843.3,1714.9H843l-19.2,13.3v-14.2l19.5-13.5h15.7v75.5h-15.6V1714.9z"/>
	</g>
	<g>
		<g>
			<path d="M1063.7,2858.6L1063.7,2858.6l-6.3,4.3v-3l6.3-4.5h2.9v23.6h-2.8V2858.6z"/>
			<path d="M1072.5,2877l8.3-8.7c3.2-3.3,3.9-4.6,3.9-6.6v0c0-2.4-1.8-4.1-4.4-4.1c-2.9,0-5.1,2-5.1,4.6v0.1h-2.8v-0.1
				c0-4.1,3.5-7.1,7.9-7.1c4.3,0,7.4,2.9,7.4,6.6v0c0,2.6-1.2,4.5-5.5,9l-5.6,5.8v0.1h11.5v2.6h-15.6V2877z"/>
		</g>
	</g>
	<g>
		<g>
			<path d="M1063.7,2780.4L1063.7,2780.4l-6.3,4.3v-3l6.3-4.5h2.9v23.6h-2.8V2780.4z"/>
			<path d="M1083.7,2795.9h-11.8v-2.7l10.3-16h4.3v16.1h3.3v2.6h-3.3v4.9h-2.8V2795.9z M1083.7,2793.4v-13.6h-0.1l-8.8,13.5v0.1
				H1083.7z"/>
		</g>
	</g>
	<g>
		<g>
			<path d="M1063.7,2702.2L1063.7,2702.2l-6.3,4.3v-3l6.3-4.5h2.9v23.6h-2.8V2702.2z"/>
			<path d="M1072.5,2716.4l0-0.2h2.9l0,0.1c0.3,2.3,2.4,4.1,5.2,4.1c3.2,0,5.4-2.2,5.4-5.4v0c0-3.1-2.3-5.3-5.4-5.3
				c-1.6,0-3,0.5-4,1.4c-0.4,0.4-0.8,0.8-1.1,1.4h-2.6l1.2-13.5h13.5v2.6h-11.1l-0.8,7.9h0.1c1.1-1.6,3.1-2.4,5.4-2.4
				c4.5,0,7.8,3.3,7.8,7.8v0c0,4.7-3.5,8-8.4,8C1076.1,2723,1072.9,2720.2,1072.5,2716.4z"/>
		</g>
	</g>
	<g>
		<g>
			<path d="M1063.7,2624L1063.7,2624l-6.3,4.3v-3l6.3-4.5h2.9v23.6h-2.8V2624z"/>
			<path d="M1072.1,2633.1L1072.1,2633.1c0-8,3.4-12.6,9.2-12.6c4,0,7,2.3,7.8,5.7l0,0.2h-3l-0.1-0.2c-0.7-1.9-2.4-3.2-4.8-3.2
				c-4.4,0-6.1,4.3-6.3,9.2c0,0.2,0,0.3,0,0.5h0.1c0.9-2.1,3.4-3.8,6.6-3.8c4.5,0,7.8,3.3,7.8,7.8v0c0,4.6-3.5,8-8.4,8
				C1076.7,2644.8,1072.1,2641.8,1072.1,2633.1z M1081,2642.2c3,0,5.4-2.4,5.4-5.3v0c0-3.1-2.2-5.3-5.3-5.3c-3.1,0-5.4,2.2-5.4,5.2
				v0C1075.6,2639.8,1078,2642.2,1081,2642.2z"/>
		</g>
	</g>
	<g>
		<g>
			<path d="M1063.7,2545.8L1063.7,2545.8l-6.3,4.3v-3l6.3-4.5h2.9v23.6h-2.8V2545.8z"/>
			<path d="M1072.5,2560l0-0.2h2.9l0,0.1c0.3,2.3,2.4,4.1,5.2,4.1c3.2,0,5.4-2.2,5.4-5.4v0c0-3.1-2.3-5.3-5.4-5.3
				c-1.6,0-3,0.5-4,1.4c-0.4,0.4-0.8,0.8-1.1,1.4h-2.6l1.2-13.5h13.5v2.6h-11.1l-0.8,7.9h0.1c1.1-1.6,3.1-2.4,5.4-2.4
				c4.5,0,7.8,3.3,7.8,7.8v0c0,4.7-3.5,8-8.4,8C1076.1,2566.6,1072.9,2563.8,1072.5,2560z"/>
		</g>
	</g>
	<g>
		<g>
			<path d="M1063.7,2467.6L1063.7,2467.6l-6.3,4.3v-3l6.3-4.5h2.9v23.6h-2.8V2467.6z"/>
			<path d="M1072.1,2476.7L1072.1,2476.7c0-8,3.4-12.6,9.2-12.6c4,0,7,2.3,7.8,5.7l0,0.2h-3l-0.1-0.2c-0.7-1.9-2.4-3.2-4.8-3.2
				c-4.4,0-6.1,4.3-6.3,9.2c0,0.2,0,0.3,0,0.5h0.1c0.9-2.1,3.4-3.8,6.6-3.8c4.5,0,7.8,3.3,7.8,7.8v0c0,4.6-3.5,8-8.4,8
				C1076.7,2488.5,1072.1,2485.4,1072.1,2476.7z M1081,2485.8c3,0,5.4-2.4,5.4-5.3v0c0-3.1-2.2-5.3-5.3-5.3c-3.1,0-5.4,2.2-5.4,5.2
				v0C1075.6,2483.4,1078,2485.8,1081,2485.8z"/>
		</g>
	</g>
	<g>
		<g>
			<path d="M1063.7,2389.4L1063.7,2389.4l-6.3,4.3v-3l6.3-4.5h2.9v23.6h-2.8V2389.4z"/>
			<path d="M1072.1,2403.5L1072.1,2403.5c0-2.9,2-5.4,5.1-6.1v-0.1c-2.6-0.8-4.2-2.8-4.2-5.2v0c0-3.6,3.3-6.2,7.7-6.2
				c4.5,0,7.7,2.6,7.7,6.2v0c0,2.5-1.6,4.4-4.2,5.2v0.1c3,0.7,5.1,3.1,5.1,6v0c0,4-3.6,6.8-8.6,6.8S1072.1,2407.4,1072.1,2403.5z
				 M1086.2,2403.3L1086.2,2403.3c0-2.6-2.3-4.5-5.6-4.5s-5.6,1.8-5.6,4.4v0c0,2.5,2.3,4.4,5.6,4.4S1086.2,2405.9,1086.2,2403.3z
				 M1085.4,2392.4L1085.4,2392.4c0-2.3-1.9-3.9-4.8-3.9s-4.8,1.6-4.8,3.9v0c0,2.3,1.9,3.9,4.8,3.9S1085.4,2394.7,1085.4,2392.4z"/>
		</g>
	</g>
	<g>
		<g>
			<path d="M1057.7,2329.6l8.3-8.7c3.2-3.3,3.9-4.6,3.9-6.6v0c0-2.4-1.8-4.1-4.4-4.1c-2.9,0-5.1,2-5.1,4.6v0.1h-2.8v-0.1
				c0-4.1,3.5-7.1,7.9-7.1c4.3,0,7.4,2.9,7.4,6.6v0c0,2.6-1.2,4.5-5.5,9l-5.6,5.8v0.1h11.5v2.6h-15.6V2329.6z"/>
			<path d="M1076.2,2319.9L1076.2,2319.9c0-7.5,3.2-12.2,8.6-12.2c5.4,0,8.7,4.7,8.7,12.2v0c0,7.5-3.3,12.2-8.7,12.2
				C1079.4,2332.1,1076.2,2327.4,1076.2,2319.9z M1090.6,2319.9L1090.6,2319.9c0-5.9-2.1-9.6-5.7-9.6c-3.6,0-5.7,3.7-5.7,9.6v0
				c0,5.9,2.1,9.6,5.7,9.6C1088.4,2329.5,1090.6,2325.8,1090.6,2319.9z"/>
		</g>
	</g>
	<g>
		<g>
			<path d="M1057.7,2251.4l8.3-8.7c3.2-3.3,3.9-4.6,3.9-6.6v0c0-2.4-1.8-4.1-4.4-4.1c-2.9,0-5.1,2-5.1,4.6v0.1h-2.8v-0.1
				c0-4.1,3.5-7.1,7.9-7.1c4.3,0,7.4,2.9,7.4,6.6v0c0,2.6-1.2,4.5-5.5,9l-5.6,5.8v0.1h11.5v2.6h-15.6V2251.4z"/>
			<path d="M1076.6,2251.4l8.3-8.7c3.2-3.3,3.9-4.6,3.9-6.6v0c0-2.4-1.8-4.1-4.4-4.1c-2.9,0-5.1,2-5.1,4.6v0.1h-2.8v-0.1
				c0-4.1,3.5-7.1,7.9-7.1c4.3,0,7.4,2.9,7.4,6.6v0c0,2.6-1.2,4.5-5.5,9l-5.6,5.8v0.1h11.5v2.6h-15.6V2251.4z"/>
		</g>
	</g>
	<g>
		<g>
			<path d="M1057.7,2166l8.3-8.7c3.2-3.3,3.9-4.6,3.9-6.6v0c0-2.4-1.8-4.1-4.4-4.1c-2.9,0-5.1,2-5.1,4.6v0.1h-2.8v-0.1
				c0-4.1,3.5-7.1,7.9-7.1c4.3,0,7.4,2.9,7.4,6.6v0c0,2.6-1.2,4.5-5.5,9l-5.6,5.8v0.1h11.5v2.6h-15.6V2166z"/>
			<path d="M1087,2163.1h-11.8v-2.7l10.3-16h4.3v16.1h3.3v2.6h-3.3v4.9h-2.8V2163.1z M1087,2160.5v-13.6h-0.1l-8.8,13.5v0.1H1087z"
				/>
		</g>
	</g>
	<g>
		<g>
			<path d="M1057.7,2081.5l8.3-8.7c3.2-3.3,3.9-4.6,3.9-6.6v0c0-2.4-1.8-4.1-4.4-4.1c-2.9,0-5.1,2-5.1,4.6v0.1h-2.8v-0.1
				c0-4.1,3.5-7.1,7.9-7.1c4.3,0,7.4,2.9,7.4,6.6v0c0,2.6-1.2,4.5-5.5,9l-5.6,5.8v0.1h11.5v2.6h-15.6V2081.5z"/>
			<path d="M1076.2,2077.2L1076.2,2077.2c0-2.9,2-5.4,5.1-6.1v-0.1c-2.6-0.8-4.2-2.8-4.2-5.2v0c0-3.6,3.3-6.2,7.7-6.2
				c4.5,0,7.7,2.6,7.7,6.2v0c0,2.5-1.6,4.4-4.2,5.2v0.1c3,0.7,5.1,3.1,5.1,6v0c0,4-3.6,6.8-8.6,6.8S1076.2,2081.1,1076.2,2077.2z
				 M1090.3,2077L1090.3,2077c0-2.6-2.3-4.5-5.6-4.5s-5.6,1.8-5.6,4.4v0c0,2.5,2.3,4.4,5.6,4.4S1090.3,2079.5,1090.3,2077z
				 M1089.5,2066L1089.5,2066c0-2.3-1.9-3.9-4.8-3.9s-4.8,1.6-4.8,3.9v0c0,2.3,1.9,3.9,4.8,3.9S1089.5,2068.3,1089.5,2066z"/>
		</g>
	</g>
	<g>
		<g>
			<path d="M1057.3,1980.5l0-0.2h2.8l0,0.2c0.2,2.3,2.4,3.9,5.5,3.9c3.1,0,5.2-1.7,5.2-4.2v0c0-2.9-2.1-4.5-5.4-4.5h-3v-2.5h2.8
				c2.8,0,4.8-1.7,4.8-4.1v0c0-2.5-1.6-3.9-4.5-3.9c-2.8,0-4.8,1.5-5,3.9l0,0.2h-2.8l0-0.2c0.4-3.8,3.4-6.4,7.8-6.4
				c4.5,0,7.5,2.5,7.5,6.1v0c0,2.9-2.1,4.9-5,5.5v0.1c3.4,0.3,5.8,2.4,5.8,5.8v0c0,3.9-3.5,6.8-8.2,6.8
				C1060.7,1987,1057.6,1984.3,1057.3,1980.5z"/>
			<path d="M1077.5,1984.6l8.3-8.7c3.2-3.3,3.9-4.6,3.9-6.6v0c0-2.4-1.8-4.1-4.4-4.1c-2.9,0-5.1,2-5.1,4.6v0.1h-2.8v-0.1
				c0-4.1,3.5-7.1,7.9-7.1c4.3,0,7.4,2.9,7.4,6.6v0c0,2.6-1.2,4.5-5.5,9l-5.6,5.8v0.1h11.5v2.6h-15.6V1984.6z"/>
		</g>
	</g>
	<g>
		<g>
			<path d="M1057.3,1877l0-0.2h2.8l0,0.2c0.2,2.3,2.4,3.9,5.5,3.9c3.1,0,5.2-1.7,5.2-4.2v0c0-2.9-2.1-4.5-5.4-4.5h-3v-2.5h2.8
				c2.8,0,4.8-1.7,4.8-4.1v0c0-2.5-1.6-3.9-4.5-3.9c-2.8,0-4.8,1.5-5,3.9l0,0.2h-2.8l0-0.2c0.4-3.8,3.4-6.4,7.8-6.4
				c4.5,0,7.5,2.5,7.5,6.1v0c0,2.9-2.1,4.9-5,5.5v0.1c3.4,0.3,5.8,2.4,5.8,5.8v0c0,3.9-3.5,6.8-8.2,6.8
				C1060.7,1883.4,1057.6,1880.7,1057.3,1877z"/>
			<path d="M1077.1,1871.7L1077.1,1871.7c0-8,3.4-12.6,9.2-12.6c4,0,7,2.3,7.8,5.7l0,0.2h-3l-0.1-0.2c-0.7-1.9-2.4-3.2-4.8-3.2
				c-4.4,0-6.1,4.3-6.3,9.2c0,0.2,0,0.3,0,0.5h0.1c0.9-2.1,3.4-3.8,6.6-3.8c4.5,0,7.8,3.3,7.8,7.8v0c0,4.6-3.5,8-8.4,8
				C1081.7,1883.4,1077.1,1880.4,1077.1,1871.7z M1086,1880.8c3,0,5.4-2.4,5.4-5.3v0c0-3.1-2.2-5.3-5.3-5.3c-3.1,0-5.4,2.2-5.4,5.2
				v0C1080.6,1878.4,1083,1880.8,1086,1880.8z"/>
		</g>
	</g>
	<g>
		<g>
			<path d="M1057.2,1764.5L1057.2,1764.5c0-8,3.4-12.6,9.2-12.6c4,0,7,2.3,7.8,5.7l0,0.2h-3l-0.1-0.2c-0.7-1.9-2.4-3.2-4.8-3.2
				c-4.4,0-6.1,4.3-6.3,9.2c0,0.2,0,0.3,0,0.5h0.1c0.9-2.1,3.4-3.8,6.6-3.8c4.5,0,7.8,3.3,7.8,7.8v0c0,4.6-3.5,8-8.4,8
				C1061.9,1776.2,1057.2,1773.2,1057.2,1764.5z M1066.2,1773.6c3,0,5.4-2.4,5.4-5.3v0c0-3.1-2.2-5.3-5.3-5.3
				c-3.1,0-5.4,2.2-5.4,5.2v0C1060.8,1771.2,1063.1,1773.6,1066.2,1773.6z"/>
			<path d="M1089.5,1771h-11.8v-2.7l10.3-16h4.3v16.1h3.3v2.6h-3.3v4.9h-2.8V1771z M1089.5,1768.4v-13.6h-0.1l-8.8,13.5v0.1H1089.5z
				"/>
		</g>
	</g>
	<g>
		<g>
			<path d="M1061.6,1598.3c0.2,1.9,2.3,3.2,4.9,3.2c2.6,0,4.4-1.3,4.4-3c0-1.5-1.1-2.4-4-3l-3.1-0.7c-4.3-0.9-6.5-3.1-6.5-6.6
				c0-4.3,3.8-7.2,9-7.2c5.5,0,8.9,2.8,9,7.1h-4.6c-0.2-2-1.9-3.2-4.4-3.2c-2.4,0-4.1,1.2-4.1,2.9c0,1.5,1.1,2.3,3.9,2.9l2.9,0.6
				c4.7,1,6.8,3,6.8,6.6c0,4.6-3.7,7.5-9.6,7.5c-5.7,0-9.3-2.7-9.4-7.1H1061.6z"/>
			<path d="M1078.4,1583.1c0-1.4,1.1-2.5,2.5-2.5c1.4,0,2.5,1.1,2.5,2.5c0,1.4-1.1,2.5-2.5,2.5
				C1079.5,1585.5,1078.4,1584.4,1078.4,1583.1z M1078.5,1587.5h4.8v17.5h-4.8V1587.5z"/>
			<path d="M1086.1,1602.3l8.7-11.1v-0.1h-8.6v-3.6h14.1v3l-8.2,10.8v0.1h8.4v3.7h-14.5V1602.3z"/>
			<path d="M1119,1599.6c-0.5,3.4-3.7,5.7-8,5.7c-5.4,0-8.6-3.4-8.6-9.1c0-5.6,3.3-9.2,8.4-9.2c5.1,0,8.3,3.4,8.3,8.8v1.5h-12.1v0.3
				c0,2.5,1.6,4.2,4,4.2c1.7,0,3.1-0.9,3.5-2.2H1119z M1107.2,1594.4h7.4c-0.1-2.2-1.6-3.8-3.7-3.8
				C1108.8,1590.6,1107.3,1592.2,1107.2,1594.4z"/>
		</g>
	</g>
	<g>
		<g>
			<path d="M1352.6,2872.9l0-0.2h2.9l0,0.2c0.3,2.4,2.6,3.8,6,3.8c3.4,0,5.5-1.5,5.5-4v0c0-2.1-1.4-3.2-4.6-4l-2.6-0.6
				c-4.6-1-6.8-3.1-6.8-6.5v0c0-3.9,3.4-6.6,8.3-6.6c4.6,0,8,2.7,8.2,6.5l0,0.2h-2.9l0-0.2c-0.4-2.4-2.4-3.8-5.4-3.8
				c-3.2,0-5.2,1.5-5.2,3.8v0c0,1.9,1.4,3.1,4.5,3.8l2.6,0.6c4.8,1.1,6.9,3,6.9,6.6v0c0,4.2-3.3,6.8-8.7,6.8
				C1356.3,2879.4,1352.9,2876.9,1352.6,2872.9z"/>
			<path d="M1372.3,2870.6L1372.3,2870.6c0-5.3,3-8.9,7.6-8.9c4.6,0,7.5,3.4,7.5,8.5v1h-12.2c0.1,3.5,2,5.5,5,5.5
				c2.2,0,3.7-1.1,4.2-2.5l0-0.1h2.8l0,0.2c-0.6,2.8-3.3,5-7,5C1375.2,2879.4,1372.3,2876,1372.3,2870.6z M1375.2,2869.1h9.3
				c-0.3-3.3-2.1-4.9-4.6-4.9C1377.4,2864.2,1375.5,2865.9,1375.2,2869.1z"/>
			<path d="M1390.2,2862h2.8v2.5h0.1c0.8-1.7,2.5-2.8,4.7-2.8c2.3,0,4,1.2,4.8,3.3h0.1c0.9-2,2.9-3.3,5.3-3.3c3.4,0,5.5,2.2,5.5,5.6
				v11.7h-2.8V2868c0-2.3-1.3-3.7-3.5-3.7c-2.3,0-3.8,1.7-3.8,4v10.8h-2.8v-11.4c0-2.1-1.4-3.4-3.5-3.4c-2.3,0-3.9,1.8-3.9,4.2v10.7
				h-2.8V2862z"/>
			<path d="M1416.9,2857.4c0-1,0.8-1.8,1.8-1.8c1,0,1.8,0.8,1.8,1.8c0,1-0.8,1.8-1.8,1.8C1417.7,2859.2,1416.9,2858.4,1416.9,2857.4
				z M1417.3,2862h2.8v17h-2.8V2862z"/>
			<path d="M1427.1,2876.2L1427.1,2876.2l-0.1,2.9h-2.8v-23.6h2.8v9.4h0.1c1.1-2,3-3.2,5.4-3.2c4.3,0,7.2,3.4,7.2,8.8v0
				c0,5.4-2.9,8.8-7.2,8.8C1430,2879.4,1428.1,2878.1,1427.1,2876.2z M1436.8,2870.5L1436.8,2870.5c0-3.9-1.9-6.3-4.9-6.3
				c-2.9,0-4.9,2.5-4.9,6.3v0c0,3.8,2,6.3,4.9,6.3C1434.9,2876.9,1436.8,2874.5,1436.8,2870.5z"/>
			<path d="M1441.7,2870.5L1441.7,2870.5c0-5.4,3.2-8.8,7.9-8.8s7.9,3.4,7.9,8.8v0c0,5.4-3.2,8.8-7.9,8.8
				C1444.9,2879.4,1441.7,2876,1441.7,2870.5z M1454.5,2870.5L1454.5,2870.5c0-4-2-6.3-5-6.3c-3,0-5,2.3-5,6.3v0c0,4,2,6.3,5,6.3
				C1452.6,2876.9,1454.5,2874.5,1454.5,2870.5z"/>
			<path d="M1460.5,2855.5h2.8v23.6h-2.8V2855.5z"/>
			<path d="M1466.3,2870.5L1466.3,2870.5c0-5.4,2.9-8.8,7.2-8.8c2.4,0,4.4,1.2,5.4,3.2h0.1v-9.4h2.8v23.6h-2.8v-2.9h-0.1
				c-1.1,2-3,3.2-5.4,3.2C1469.2,2879.4,1466.3,2875.9,1466.3,2870.5z M1479,2870.5L1479,2870.5c0-3.8-2.1-6.3-4.9-6.3
				c-3,0-4.9,2.4-4.9,6.3v0c0,3.9,1.9,6.3,4.9,6.3C1477,2876.9,1479,2874.4,1479,2870.5z"/>
		</g>
	</g>
	<g>
		<g>
			<path d="M1352.6,2794.7l0-0.2h2.9l0,0.2c0.3,2.4,2.6,3.8,6,3.8c3.4,0,5.5-1.5,5.5-4v0c0-2.1-1.4-3.2-4.6-4l-2.6-0.6
				c-4.6-1-6.8-3.1-6.8-6.5v0c0-3.9,3.4-6.6,8.3-6.6c4.6,0,8,2.7,8.2,6.5l0,0.2h-2.9l0-0.2c-0.4-2.4-2.4-3.8-5.4-3.8
				c-3.2,0-5.2,1.5-5.2,3.8v0c0,1.9,1.4,3.1,4.5,3.8l2.6,0.6c4.8,1.1,6.9,3,6.9,6.6v0c0,4.2-3.3,6.8-8.7,6.8
				C1356.3,2801.2,1352.9,2798.7,1352.6,2794.7z"/>
			<path d="M1372.3,2792.4L1372.3,2792.4c0-5.3,3-8.9,7.6-8.9c4.6,0,7.5,3.4,7.5,8.5v1h-12.2c0.1,3.5,2,5.5,5,5.5
				c2.2,0,3.7-1.1,4.2-2.5l0-0.1h2.8l0,0.2c-0.6,2.8-3.3,5-7,5C1375.2,2801.2,1372.3,2797.8,1372.3,2792.4z M1375.2,2790.9h9.3
				c-0.3-3.3-2.1-4.9-4.6-4.9C1377.4,2786,1375.5,2787.7,1375.2,2790.9z"/>
			<path d="M1390.2,2783.8h2.8v2.5h0.1c0.8-1.7,2.5-2.8,4.7-2.8c2.3,0,4,1.2,4.8,3.3h0.1c0.9-2,2.9-3.3,5.3-3.3
				c3.4,0,5.5,2.2,5.5,5.6v11.7h-2.8v-11.1c0-2.3-1.3-3.7-3.5-3.7c-2.3,0-3.8,1.7-3.8,4v10.8h-2.8v-11.4c0-2.1-1.4-3.4-3.5-3.4
				c-2.3,0-3.9,1.8-3.9,4.2v10.7h-2.8V2783.8z"/>
			<path d="M1416.9,2779.2c0-1,0.8-1.8,1.8-1.8c1,0,1.8,0.8,1.8,1.8c0,1-0.8,1.8-1.8,1.8C1417.7,2781,1416.9,2780.2,1416.9,2779.2z
				 M1417.3,2783.8h2.8v17h-2.8V2783.8z"/>
			<path d="M1427.1,2798L1427.1,2798l-0.1,2.9h-2.8v-23.6h2.8v9.4h0.1c1.1-2,3-3.2,5.4-3.2c4.3,0,7.2,3.4,7.2,8.8v0
				c0,5.4-2.9,8.8-7.2,8.8C1430,2801.2,1428.1,2799.9,1427.1,2798z M1436.8,2792.3L1436.8,2792.3c0-3.9-1.9-6.3-4.9-6.3
				c-2.9,0-4.9,2.5-4.9,6.3v0c0,3.8,2,6.3,4.9,6.3C1434.9,2798.7,1436.8,2796.3,1436.8,2792.3z"/>
			<path d="M1441.7,2792.3L1441.7,2792.3c0-5.4,3.2-8.8,7.9-8.8s7.9,3.4,7.9,8.8v0c0,5.4-3.2,8.8-7.9,8.8
				C1444.9,2801.2,1441.7,2797.8,1441.7,2792.3z M1454.5,2792.3L1454.5,2792.3c0-4-2-6.3-5-6.3c-3,0-5,2.3-5,6.3v0c0,4,2,6.3,5,6.3
				C1452.6,2798.7,1454.5,2796.3,1454.5,2792.3z"/>
			<path d="M1460.5,2777.3h2.8v23.6h-2.8V2777.3z"/>
			<path d="M1466.3,2792.3L1466.3,2792.3c0-5.4,2.9-8.8,7.2-8.8c2.4,0,4.4,1.2,5.4,3.2h0.1v-9.4h2.8v23.6h-2.8v-2.9h-0.1
				c-1.1,2-3,3.2-5.4,3.2C1469.2,2801.2,1466.3,2797.7,1466.3,2792.3z M1479,2792.3L1479,2792.3c0-3.8-2.1-6.3-4.9-6.3
				c-3,0-4.9,2.4-4.9,6.3v0c0,3.9,1.9,6.3,4.9,6.3C1477,2798.7,1479,2796.2,1479,2792.3z"/>
		</g>
	</g>
	<g>
		<g>
			<path d="M1353.7,2699.1h8.8c4.5,0,7.5,2.8,7.5,7v0c0,3.3-1.8,5.8-4.7,6.7l5.5,9.8h-3.4l-5-9.3h-5.6v9.3h-2.9V2699.1z
				 M1362.3,2710.7c3,0,4.7-1.6,4.7-4.5v0c0-2.8-1.8-4.5-4.9-4.5h-5.5v9H1362.3z"/>
			<path d="M1372.5,2714.2L1372.5,2714.2c0-5.3,3-8.9,7.6-8.9c4.6,0,7.5,3.4,7.5,8.5v1h-12.2c0.1,3.5,2,5.5,5,5.5
				c2.2,0,3.7-1.1,4.2-2.5l0-0.1h2.8l0,0.2c-0.6,2.8-3.3,5-7,5C1375.4,2723,1372.5,2719.6,1372.5,2714.2z M1375.4,2712.7h9.3
				c-0.3-3.3-2.1-4.9-4.6-4.9C1377.6,2707.8,1375.7,2709.5,1375.4,2712.7z"/>
			<path d="M1390.2,2724.2l0-0.1h2.9l0.1,0.1c0.5,1.2,2.2,2,4.5,2c3,0,4.7-1.7,4.7-4.3v-2.2h-0.1c-1,1.9-3,3.1-5.4,3.1
				c-4.3,0-7.2-3.4-7.2-8.8v0c0-5.3,3-8.7,7.3-8.7c2.4,0,4.3,1.3,5.3,3.2h0.1v-2.9h2.8v16.5c0,3.9-2.9,6.5-7.5,6.5
				C1393.4,2728.7,1390.8,2726.7,1390.2,2724.2z M1402.3,2714.1L1402.3,2714.1c0-3.8-2-6.2-4.9-6.2c-3,0-4.9,2.4-4.9,6.2v0
				c0,3.9,1.9,6.2,4.9,6.2C1400.3,2720.3,1402.3,2717.8,1402.3,2714.1z"/>
			<path d="M1408.7,2716.7v-11h2.8v10.5c0,2.8,1.3,4.3,3.9,4.3c2.7,0,4.4-1.9,4.4-4.8v-10h2.8v17h-2.8v-2.4h-0.1
				c-0.9,1.6-2.6,2.7-5.2,2.7C1410.9,2723,1408.7,2720.6,1408.7,2716.7z"/>
			<path d="M1426.6,2699.1h2.8v23.6h-2.8V2699.1z"/>
			<path d="M1432.6,2717.8L1432.6,2717.8c0-2.9,2.3-4.7,6.2-5l4.9-0.3v-1.4c0-2.1-1.4-3.3-3.7-3.3c-2.2,0-3.6,1-3.9,2.6l0,0.1h-2.7
				l0-0.2c0.2-2.8,2.7-5,6.7-5c4,0,6.5,2.2,6.5,5.6v11.8h-2.8v-2.8h-0.1c-1,1.9-3,3.1-5.3,3.1
				C1434.9,2723,1432.6,2720.9,1432.6,2717.8z M1438.9,2720.5c2.7,0,4.7-1.8,4.7-4.3v-1.4l-4.5,0.3c-2.3,0.1-3.6,1.1-3.6,2.7v0
				C1435.5,2719.5,1436.8,2720.5,1438.9,2720.5z"/>
			<path d="M1450.1,2705.7h2.8v2.9h0.1c0.6-2,2-3.2,4-3.2c0.5,0,0.9,0.1,1.1,0.1v2.8c-0.2-0.1-0.8-0.2-1.5-0.2
				c-2.2,0-3.6,1.5-3.6,4.1v10.5h-2.8V2705.7z"/>
		</g>
	</g>
	<g>
		<g>
			<path d="M1353.7,2620.9h8.8c4.5,0,7.5,2.8,7.5,7v0c0,3.3-1.8,5.8-4.7,6.7l5.5,9.8h-3.4l-5-9.3h-5.6v9.3h-2.9V2620.9z
				 M1362.3,2632.5c3,0,4.7-1.6,4.7-4.5v0c0-2.8-1.8-4.5-4.9-4.5h-5.5v9H1362.3z"/>
			<path d="M1372.5,2636L1372.5,2636c0-5.3,3-8.9,7.6-8.9c4.6,0,7.5,3.4,7.5,8.5v1h-12.2c0.1,3.5,2,5.5,5,5.5c2.2,0,3.7-1.1,4.2-2.5
				l0-0.1h2.8l0,0.2c-0.6,2.8-3.3,5-7,5C1375.4,2644.8,1372.5,2641.4,1372.5,2636z M1375.4,2634.5h9.3c-0.3-3.3-2.1-4.9-4.6-4.9
				C1377.6,2629.6,1375.7,2631.3,1375.4,2634.5z"/>
			<path d="M1390.2,2646l0-0.1h2.9l0.1,0.1c0.5,1.2,2.2,2,4.5,2c3,0,4.7-1.7,4.7-4.3v-2.2h-0.1c-1,1.9-3,3.1-5.4,3.1
				c-4.3,0-7.2-3.4-7.2-8.8v0c0-5.3,3-8.7,7.3-8.7c2.4,0,4.3,1.3,5.3,3.2h0.1v-2.9h2.8v16.5c0,3.9-2.9,6.5-7.5,6.5
				C1393.4,2650.5,1390.8,2648.5,1390.2,2646z M1402.3,2635.9L1402.3,2635.9c0-3.8-2-6.2-4.9-6.2c-3,0-4.9,2.4-4.9,6.2v0
				c0,3.9,1.9,6.2,4.9,6.2C1400.3,2642.1,1402.3,2639.6,1402.3,2635.9z"/>
			<path d="M1408.7,2638.5v-11h2.8v10.5c0,2.8,1.3,4.3,3.9,4.3c2.7,0,4.4-1.9,4.4-4.8v-10h2.8v17h-2.8v-2.4h-0.1
				c-0.9,1.6-2.6,2.7-5.2,2.7C1410.9,2644.8,1408.7,2642.4,1408.7,2638.5z"/>
			<path d="M1426.6,2620.9h2.8v23.6h-2.8V2620.9z"/>
			<path d="M1432.6,2639.6L1432.6,2639.6c0-2.9,2.3-4.7,6.2-5l4.9-0.3v-1.4c0-2.1-1.4-3.3-3.7-3.3c-2.2,0-3.6,1-3.9,2.6l0,0.1h-2.7
				l0-0.2c0.2-2.8,2.7-5,6.7-5c4,0,6.5,2.2,6.5,5.6v11.8h-2.8v-2.8h-0.1c-1,1.9-3,3.1-5.3,3.1
				C1434.9,2644.8,1432.6,2642.7,1432.6,2639.6z M1438.9,2642.3c2.7,0,4.7-1.8,4.7-4.3v-1.4l-4.5,0.3c-2.3,0.1-3.6,1.1-3.6,2.7v0
				C1435.5,2641.3,1436.8,2642.3,1438.9,2642.3z"/>
			<path d="M1450.1,2627.5h2.8v2.9h0.1c0.6-2,2-3.2,4-3.2c0.5,0,0.9,0.1,1.1,0.1v2.8c-0.2-0.1-0.8-0.2-1.5-0.2
				c-2.2,0-3.6,1.5-3.6,4.1v10.5h-2.8V2627.5z"/>
		</g>
	</g>
	<g>
		<g>
			<path d="M1353.7,2542.7h3.4l8.2,19.9h0.1l8.2-19.9h3.4v23.6h-2.7V2548h-0.1l-7.5,18.2h-2.5l-7.5-18.2h-0.1v18.2h-2.7V2542.7z"/>
			<path d="M1380.2,2557.8L1380.2,2557.8c0-5.3,3-8.9,7.6-8.9c4.6,0,7.5,3.4,7.5,8.5v1h-12.2c0.1,3.5,2,5.5,5,5.5
				c2.2,0,3.7-1.1,4.2-2.5l0-0.1h2.8l0,0.2c-0.6,2.8-3.3,5-7,5C1383.2,2566.6,1380.2,2563.2,1380.2,2557.8z M1383.2,2556.3h9.3
				c-0.3-3.3-2.1-4.9-4.6-4.9C1385.4,2551.5,1383.5,2553.1,1383.2,2556.3z"/>
			<path d="M1397.4,2557.8L1397.4,2557.8c0-5.4,2.9-8.8,7.2-8.8c2.4,0,4.4,1.2,5.4,3.2h0.1v-9.4h2.8v23.6h-2.8v-2.9h-0.1
				c-1.1,2-3,3.2-5.4,3.2C1400.2,2566.6,1397.4,2563.1,1397.4,2557.8z M1410.1,2557.8L1410.1,2557.8c0-3.8-2.1-6.3-4.9-6.3
				c-3,0-4.9,2.4-4.9,6.3v0c0,3.9,1.9,6.3,4.9,6.3C1408,2564.1,1410.1,2561.6,1410.1,2557.8z"/>
			<path d="M1416.6,2544.6c0-1,0.8-1.8,1.8-1.8c1,0,1.8,0.8,1.8,1.8c0,1-0.8,1.8-1.8,1.8C1417.4,2546.4,1416.6,2545.6,1416.6,2544.6
				z M1416.9,2549.3h2.8v17h-2.8V2549.3z"/>
			<path d="M1423.5,2560.3v-11h2.8v10.5c0,2.8,1.3,4.3,3.9,4.3c2.7,0,4.4-1.9,4.4-4.8v-10h2.8v17h-2.8v-2.4h-0.1
				c-0.9,1.6-2.6,2.7-5.2,2.7C1425.7,2566.6,1423.5,2564.2,1423.5,2560.3z"/>
			<path d="M1441.3,2549.3h2.8v2.5h0.1c0.8-1.7,2.5-2.8,4.7-2.8c2.3,0,4,1.2,4.8,3.3h0.1c0.9-2,2.9-3.3,5.3-3.3
				c3.4,0,5.5,2.2,5.5,5.6v11.7h-2.8v-11.1c0-2.3-1.3-3.7-3.5-3.7c-2.3,0-3.8,1.7-3.8,4v10.8h-2.8v-11.4c0-2.1-1.4-3.4-3.5-3.4
				c-2.3,0-3.9,1.8-3.9,4.2v10.7h-2.8V2549.3z"/>
		</g>
	</g>
	<g>
		<g>
			<path d="M1353.7,2464.5h3.4l8.2,19.9h0.1l8.2-19.9h3.4v23.6h-2.7v-18.2h-0.1l-7.5,18.2h-2.5l-7.5-18.2h-0.1v18.2h-2.7V2464.5z"/>
			<path d="M1380.2,2479.6L1380.2,2479.6c0-5.3,3-8.9,7.6-8.9c4.6,0,7.5,3.4,7.5,8.5v1h-12.2c0.1,3.5,2,5.5,5,5.5
				c2.2,0,3.7-1.1,4.2-2.5l0-0.1h2.8l0,0.2c-0.6,2.8-3.3,5-7,5C1383.2,2488.4,1380.2,2485,1380.2,2479.6z M1383.2,2478.1h9.3
				c-0.3-3.3-2.1-4.9-4.6-4.9C1385.4,2473.3,1383.5,2474.9,1383.2,2478.1z"/>
			<path d="M1397.4,2479.6L1397.4,2479.6c0-5.4,2.9-8.8,7.2-8.8c2.4,0,4.4,1.2,5.4,3.2h0.1v-9.4h2.8v23.6h-2.8v-2.9h-0.1
				c-1.1,2-3,3.2-5.4,3.2C1400.2,2488.4,1397.4,2484.9,1397.4,2479.6z M1410.1,2479.6L1410.1,2479.6c0-3.8-2.1-6.3-4.9-6.3
				c-3,0-4.9,2.4-4.9,6.3v0c0,3.9,1.9,6.3,4.9,6.3C1408,2485.9,1410.1,2483.4,1410.1,2479.6z"/>
			<path d="M1416.6,2466.4c0-1,0.8-1.8,1.8-1.8c1,0,1.8,0.8,1.8,1.8c0,1-0.8,1.8-1.8,1.8C1417.4,2468.2,1416.6,2467.4,1416.6,2466.4
				z M1416.9,2471.1h2.8v17h-2.8V2471.1z"/>
			<path d="M1423.5,2482.1v-11h2.8v10.5c0,2.8,1.3,4.3,3.9,4.3c2.7,0,4.4-1.9,4.4-4.8v-10h2.8v17h-2.8v-2.4h-0.1
				c-0.9,1.6-2.6,2.7-5.2,2.7C1425.7,2488.4,1423.5,2486,1423.5,2482.1z"/>
			<path d="M1441.3,2471.1h2.8v2.5h0.1c0.8-1.7,2.5-2.8,4.7-2.8c2.3,0,4,1.2,4.8,3.3h0.1c0.9-2,2.9-3.3,5.3-3.3
				c3.4,0,5.5,2.2,5.5,5.6v11.7h-2.8V2477c0-2.3-1.3-3.7-3.5-3.7c-2.3,0-3.8,1.7-3.8,4v10.8h-2.8v-11.4c0-2.1-1.4-3.4-3.5-3.4
				c-2.3,0-3.9,1.8-3.9,4.2v10.7h-2.8V2471.1z"/>
		</g>
	</g>
	<g>
		<g>
			<path d="M1352.6,2403.7l0-0.2h2.9l0,0.2c0.3,2.4,2.6,3.8,6,3.8c3.4,0,5.5-1.5,5.5-4v0c0-2.1-1.4-3.2-4.6-4l-2.6-0.6
				c-4.6-1-6.8-3.1-6.8-6.5v0c0-3.9,3.4-6.6,8.3-6.6c4.6,0,8,2.7,8.2,6.5l0,0.2h-2.9l0-0.2c-0.4-2.4-2.4-3.8-5.4-3.8
				c-3.2,0-5.2,1.5-5.2,3.8v0c0,1.9,1.4,3.1,4.5,3.8l2.6,0.6c4.8,1.1,6.9,3,6.9,6.6v0c0,4.2-3.3,6.8-8.7,6.8
				C1356.3,2410.3,1352.9,2407.8,1352.6,2403.7z"/>
			<path d="M1372.3,2401.4L1372.3,2401.4c0-5.3,3-8.9,7.6-8.9c4.6,0,7.5,3.4,7.5,8.5v1h-12.2c0.1,3.5,2,5.5,5,5.5
				c2.2,0,3.7-1.1,4.2-2.5l0-0.1h2.8l0,0.2c-0.6,2.8-3.3,5-7,5C1375.2,2410.2,1372.3,2406.8,1372.3,2401.4z M1375.2,2399.9h9.3
				c-0.3-3.3-2.1-4.9-4.6-4.9C1377.4,2395.1,1375.5,2396.7,1375.2,2399.9z"/>
			<path d="M1390.2,2392.9h2.8v2.5h0.1c0.8-1.7,2.5-2.8,4.7-2.8c2.3,0,4,1.2,4.8,3.3h0.1c0.9-2,2.9-3.3,5.3-3.3
				c3.4,0,5.5,2.2,5.5,5.6v11.7h-2.8v-11.1c0-2.3-1.3-3.7-3.5-3.7c-2.3,0-3.8,1.7-3.8,4v10.8h-2.8v-11.4c0-2.1-1.4-3.4-3.5-3.4
				c-2.3,0-3.9,1.8-3.9,4.2v10.7h-2.8V2392.9z"/>
			<path d="M1416.9,2388.2c0-1,0.8-1.8,1.8-1.8c1,0,1.8,0.8,1.8,1.8c0,1-0.8,1.8-1.8,1.8C1417.7,2390,1416.9,2389.2,1416.9,2388.2z
				 M1417.3,2392.9h2.8v17h-2.8V2392.9z"/>
			<path d="M1427.1,2407L1427.1,2407l-0.1,2.9h-2.8v-23.6h2.8v9.4h0.1c1.1-2,3-3.2,5.4-3.2c4.3,0,7.2,3.4,7.2,8.8v0
				c0,5.4-2.9,8.8-7.2,8.8C1430,2410.2,1428.1,2409,1427.1,2407z M1436.8,2401.4L1436.8,2401.4c0-3.9-1.9-6.3-4.9-6.3
				c-2.9,0-4.9,2.5-4.9,6.3v0c0,3.8,2,6.3,4.9,6.3C1434.9,2407.7,1436.8,2405.3,1436.8,2401.4z"/>
			<path d="M1441.7,2401.4L1441.7,2401.4c0-5.4,3.2-8.8,7.9-8.8s7.9,3.4,7.9,8.8v0c0,5.4-3.2,8.8-7.9,8.8
				C1444.9,2410.2,1441.7,2406.8,1441.7,2401.4z M1454.5,2401.4L1454.5,2401.4c0-4-2-6.3-5-6.3c-3,0-5,2.3-5,6.3v0c0,4,2,6.3,5,6.3
				C1452.6,2407.7,1454.5,2405.4,1454.5,2401.4z"/>
			<path d="M1460.5,2386.3h2.8v23.6h-2.8V2386.3z"/>
			<path d="M1466.3,2401.4L1466.3,2401.4c0-5.4,2.9-8.8,7.2-8.8c2.4,0,4.4,1.2,5.4,3.2h0.1v-9.4h2.8v23.6h-2.8v-2.9h-0.1
				c-1.1,2-3,3.2-5.4,3.2C1469.2,2410.2,1466.3,2406.7,1466.3,2401.4z M1479,2401.4L1479,2401.4c0-3.8-2.1-6.3-4.9-6.3
				c-3,0-4.9,2.4-4.9,6.3v0c0,3.9,1.9,6.3,4.9,6.3C1477,2407.7,1479,2405.2,1479,2401.4z"/>
		</g>
	</g>
	<g>
		<g>
			<path d="M1353.7,2308.1h8.9c4,0,6.8,2.4,6.8,5.9v0c0,2.4-1.8,4.8-4.3,5.1v0.1c3.4,0.4,5.5,2.7,5.5,5.8v0c0,4.2-3,6.6-8,6.6h-8.9
				V2308.1z M1356.6,2310.7v7.6h4.4c3.5,0,5.4-1.4,5.4-3.9v0c0-2.3-1.6-3.6-4.5-3.6H1356.6z M1356.6,2320.8v8.3h5.5
				c3.5,0,5.4-1.4,5.4-4.1v0c0-2.7-1.9-4.1-5.7-4.1H1356.6z"/>
			<path d="M1372.6,2323.2L1372.6,2323.2c0-5.4,3.2-8.8,7.9-8.8s7.9,3.4,7.9,8.8v0c0,5.4-3.2,8.8-7.9,8.8
				C1375.8,2332,1372.6,2328.6,1372.6,2323.2z M1385.5,2323.2L1385.5,2323.2c0-4-2-6.3-5-6.3c-3,0-5,2.3-5,6.3v0c0,4,2,6.3,5,6.3
				C1383.5,2329.5,1385.5,2327.2,1385.5,2323.2z"/>
			<path d="M1391.4,2308.1h2.8v23.6h-2.8V2308.1z"/>
			<path d="M1397.2,2323.2L1397.2,2323.2c0-5.4,2.9-8.8,7.2-8.8c2.4,0,4.4,1.2,5.4,3.2h0.1v-9.4h2.8v23.6h-2.8v-2.9h-0.1
				c-1.1,2-3,3.2-5.4,3.2C1400.1,2332,1397.2,2328.5,1397.2,2323.2z M1409.9,2323.2L1409.9,2323.2c0-3.8-2.1-6.3-4.9-6.3
				c-3,0-4.9,2.4-4.9,6.3v0c0,3.9,1.9,6.3,4.9,6.3C1407.9,2329.5,1409.9,2327,1409.9,2323.2z"/>
		</g>
	</g>
	<g>
		<g>
			<path d="M1353.7,2229.9h8.9c4,0,6.8,2.4,6.8,5.9v0c0,2.4-1.8,4.8-4.3,5.1v0.1c3.4,0.4,5.5,2.7,5.5,5.8v0c0,4.2-3,6.6-8,6.6h-8.9
				V2229.9z M1356.6,2232.5v7.6h4.4c3.5,0,5.4-1.4,5.4-3.9v0c0-2.3-1.6-3.6-4.5-3.6H1356.6z M1356.6,2242.6v8.3h5.5
				c3.5,0,5.4-1.4,5.4-4.1v0c0-2.7-1.9-4.1-5.7-4.1H1356.6z"/>
			<path d="M1372.6,2245L1372.6,2245c0-5.4,3.2-8.8,7.9-8.8s7.9,3.4,7.9,8.8v0c0,5.4-3.2,8.8-7.9,8.8
				C1375.8,2253.8,1372.6,2250.4,1372.6,2245z M1385.5,2245L1385.5,2245c0-4-2-6.3-5-6.3c-3,0-5,2.3-5,6.3v0c0,4,2,6.3,5,6.3
				C1383.5,2251.3,1385.5,2249,1385.5,2245z"/>
			<path d="M1391.4,2229.9h2.8v23.6h-2.8V2229.9z"/>
			<path d="M1397.2,2245L1397.2,2245c0-5.4,2.9-8.8,7.2-8.8c2.4,0,4.4,1.2,5.4,3.2h0.1v-9.4h2.8v23.6h-2.8v-2.9h-0.1
				c-1.1,2-3,3.2-5.4,3.2C1400.1,2253.8,1397.2,2250.3,1397.2,2245z M1409.9,2245L1409.9,2245c0-3.8-2.1-6.3-4.9-6.3
				c-3,0-4.9,2.4-4.9,6.3v0c0,3.9,1.9,6.3,4.9,6.3C1407.9,2251.3,1409.9,2248.8,1409.9,2245z"/>
		</g>
	</g>
	<g>
		<g>
			<path d="M1352.6,2161.9l0-0.2h2.9l0,0.2c0.3,2.4,2.6,3.8,6,3.8c3.4,0,5.5-1.5,5.5-4v0c0-2.1-1.4-3.2-4.6-4l-2.6-0.6
				c-4.6-1-6.8-3.1-6.8-6.5v0c0-3.9,3.4-6.6,8.3-6.6c4.6,0,8,2.7,8.2,6.5l0,0.2h-2.9l0-0.2c-0.4-2.4-2.4-3.8-5.4-3.8
				c-3.2,0-5.2,1.5-5.2,3.8v0c0,1.9,1.4,3.1,4.5,3.8l2.6,0.6c4.8,1.1,6.9,3,6.9,6.6v0c0,4.2-3.3,6.8-8.7,6.8
				C1356.3,2168.4,1352.9,2165.9,1352.6,2161.9z"/>
			<path d="M1372.3,2159.6L1372.3,2159.6c0-5.3,3-8.9,7.6-8.9c4.6,0,7.5,3.4,7.5,8.5v1h-12.2c0.1,3.5,2,5.5,5,5.5
				c2.2,0,3.7-1.1,4.2-2.5l0-0.1h2.8l0,0.2c-0.6,2.8-3.3,5-7,5C1375.2,2168.3,1372.3,2164.9,1372.3,2159.6z M1375.2,2158.1h9.3
				c-0.3-3.3-2.1-4.9-4.6-4.9C1377.4,2153.2,1375.5,2154.9,1375.2,2158.1z"/>
			<path d="M1390.2,2151h2.8v2.5h0.1c0.8-1.7,2.5-2.8,4.7-2.8c2.3,0,4,1.2,4.8,3.3h0.1c0.9-2,2.9-3.3,5.3-3.3c3.4,0,5.5,2.2,5.5,5.6
				v11.7h-2.8v-11.1c0-2.3-1.3-3.7-3.5-3.7c-2.3,0-3.8,1.7-3.8,4v10.8h-2.8v-11.4c0-2.1-1.4-3.4-3.5-3.4c-2.3,0-3.9,1.8-3.9,4.2
				v10.7h-2.8V2151z"/>
			<path d="M1416.9,2146.4c0-1,0.8-1.8,1.8-1.8c1,0,1.8,0.8,1.8,1.8c0,1-0.8,1.8-1.8,1.8C1417.7,2148.1,1416.9,2147.3,1416.9,2146.4
				z M1417.3,2151h2.8v17h-2.8V2151z"/>
			<path d="M1427.1,2165.1L1427.1,2165.1l-0.1,2.9h-2.8v-23.6h2.8v9.4h0.1c1.1-2,3-3.2,5.4-3.2c4.3,0,7.2,3.4,7.2,8.8v0
				c0,5.4-2.9,8.8-7.2,8.8C1430,2168.3,1428.1,2167.1,1427.1,2165.1z M1436.8,2159.5L1436.8,2159.5c0-3.9-1.9-6.3-4.9-6.3
				c-2.9,0-4.9,2.5-4.9,6.3v0c0,3.8,2,6.3,4.9,6.3C1434.9,2165.8,1436.8,2163.4,1436.8,2159.5z"/>
			<path d="M1441.7,2159.5L1441.7,2159.5c0-5.4,3.2-8.8,7.9-8.8s7.9,3.4,7.9,8.8v0c0,5.4-3.2,8.8-7.9,8.8
				C1444.9,2168.3,1441.7,2164.9,1441.7,2159.5z M1454.5,2159.5L1454.5,2159.5c0-4-2-6.3-5-6.3c-3,0-5,2.3-5,6.3v0c0,4,2,6.3,5,6.3
				C1452.6,2165.8,1454.5,2163.5,1454.5,2159.5z"/>
			<path d="M1460.5,2144.4h2.8v23.6h-2.8V2144.4z"/>
			<path d="M1466.3,2159.5L1466.3,2159.5c0-5.4,2.9-8.8,7.2-8.8c2.4,0,4.4,1.2,5.4,3.2h0.1v-9.4h2.8v23.6h-2.8v-2.9h-0.1
				c-1.1,2-3,3.2-5.4,3.2C1469.2,2168.3,1466.3,2164.9,1466.3,2159.5z M1479,2159.5L1479,2159.5c0-3.8-2.1-6.3-4.9-6.3
				c-3,0-4.9,2.4-4.9,6.3v0c0,3.9,1.9,6.3,4.9,6.3C1477,2165.8,1479,2163.3,1479,2159.5z"/>
		</g>
	</g>
	<g>
		<g>
			<path d="M1353.7,2060h8.9c4,0,6.8,2.4,6.8,5.9v0c0,2.4-1.8,4.8-4.3,5.1v0.1c3.4,0.4,5.5,2.7,5.5,5.8v0c0,4.2-3,6.6-8,6.6h-8.9
				V2060z M1356.6,2062.6v7.6h4.4c3.5,0,5.4-1.4,5.4-3.9v0c0-2.3-1.6-3.6-4.5-3.6H1356.6z M1356.6,2072.7v8.3h5.5
				c3.5,0,5.4-1.4,5.4-4.1v0c0-2.7-1.9-4.1-5.7-4.1H1356.6z"/>
			<path d="M1372.6,2075.1L1372.6,2075.1c0-5.4,3.2-8.8,7.9-8.8s7.9,3.4,7.9,8.8v0c0,5.4-3.2,8.8-7.9,8.8
				C1375.8,2083.9,1372.6,2080.5,1372.6,2075.1z M1385.5,2075.1L1385.5,2075.1c0-4-2-6.3-5-6.3c-3,0-5,2.3-5,6.3v0c0,4,2,6.3,5,6.3
				C1383.5,2081.4,1385.5,2079,1385.5,2075.1z"/>
			<path d="M1390.4,2075.1L1390.4,2075.1c0-5.4,2.9-8.8,7.2-8.8c2.4,0,4.4,1.2,5.4,3.2h0.1v-9.4h2.8v23.6h-2.8v-2.9h-0.1
				c-1.1,2-3,3.2-5.4,3.2C1393.3,2083.9,1390.4,2080.4,1390.4,2075.1z M1403.1,2075.1L1403.1,2075.1c0-3.8-2.1-6.3-4.9-6.3
				c-3,0-4.9,2.4-4.9,6.3v0c0,3.9,1.9,6.3,4.9,6.3C1401.1,2081.4,1403.1,2078.9,1403.1,2075.1z"/>
			<path d="M1409.9,2089.1v-2.3c0.2,0,0.6,0.1,0.9,0.1c1.8,0,2.8-0.5,3.5-2.4l0.3-1l-6.3-17h3l4.7,14.2h0.1l4.7-14.2h3l-6.6,18.1
				c-1.2,3.3-2.7,4.7-5.8,4.7C1410.8,2089.3,1410.2,2089.2,1409.9,2089.1z"/>
		</g>
	</g>
	<g>
		<g>
			<path d="M1352.6,1980.4l0-0.2h2.9l0,0.2c0.3,2.4,2.6,3.8,6,3.8c3.4,0,5.5-1.5,5.5-4v0c0-2.1-1.4-3.2-4.6-4l-2.6-0.6
				c-4.6-1-6.8-3.1-6.8-6.5v0c0-3.9,3.4-6.6,8.3-6.6c4.6,0,8,2.7,8.2,6.5l0,0.2h-2.9l0-0.2c-0.4-2.4-2.4-3.8-5.4-3.8
				c-3.2,0-5.2,1.5-5.2,3.8v0c0,1.9,1.4,3.1,4.5,3.8l2.6,0.6c4.8,1.1,6.9,3,6.9,6.6v0c0,4.2-3.3,6.8-8.7,6.8
				C1356.3,1987,1352.9,1984.5,1352.6,1980.4z"/>
			<path d="M1372.3,1978.2L1372.3,1978.2c0-5.3,3-8.9,7.6-8.9c4.6,0,7.5,3.4,7.5,8.5v1h-12.2c0.1,3.5,2,5.5,5,5.5
				c2.2,0,3.7-1.1,4.2-2.5l0-0.1h2.8l0,0.2c-0.6,2.8-3.3,5-7,5C1375.2,1986.9,1372.3,1983.5,1372.3,1978.2z M1375.2,1976.6h9.3
				c-0.3-3.3-2.1-4.9-4.6-4.9C1377.4,1971.8,1375.5,1973.5,1375.2,1976.6z"/>
			<path d="M1390.2,1969.6h2.8v2.5h0.1c0.8-1.7,2.5-2.8,4.7-2.8c2.3,0,4,1.2,4.8,3.3h0.1c0.9-2,2.9-3.3,5.3-3.3
				c3.4,0,5.5,2.2,5.5,5.6v11.7h-2.8v-11.1c0-2.3-1.3-3.7-3.5-3.7c-2.3,0-3.8,1.7-3.8,4v10.8h-2.8v-11.4c0-2.1-1.4-3.4-3.5-3.4
				c-2.3,0-3.9,1.8-3.9,4.2v10.7h-2.8V1969.6z"/>
			<path d="M1416.9,1964.9c0-1,0.8-1.8,1.8-1.8c1,0,1.8,0.8,1.8,1.8c0,1-0.8,1.8-1.8,1.8C1417.7,1966.7,1416.9,1965.9,1416.9,1964.9
				z M1417.3,1969.6h2.8v17h-2.8V1969.6z"/>
			<path d="M1427.1,1983.7L1427.1,1983.7l-0.1,2.9h-2.8V1963h2.8v9.4h0.1c1.1-2,3-3.2,5.4-3.2c4.3,0,7.2,3.4,7.2,8.8v0
				c0,5.4-2.9,8.8-7.2,8.8C1430,1986.9,1428.1,1985.7,1427.1,1983.7z M1436.8,1978.1L1436.8,1978.1c0-3.9-1.9-6.3-4.9-6.3
				c-2.9,0-4.9,2.5-4.9,6.3v0c0,3.8,2,6.3,4.9,6.3C1434.9,1984.4,1436.8,1982,1436.8,1978.1z"/>
			<path d="M1441.7,1978.1L1441.7,1978.1c0-5.4,3.2-8.8,7.9-8.8s7.9,3.4,7.9,8.8v0c0,5.4-3.2,8.8-7.9,8.8
				C1444.9,1986.9,1441.7,1983.5,1441.7,1978.1z M1454.5,1978.1L1454.5,1978.1c0-4-2-6.3-5-6.3c-3,0-5,2.3-5,6.3v0c0,4,2,6.3,5,6.3
				C1452.6,1984.4,1454.5,1982.1,1454.5,1978.1z"/>
			<path d="M1460.5,1963h2.8v23.6h-2.8V1963z"/>
			<path d="M1466.3,1978.1L1466.3,1978.1c0-5.4,2.9-8.8,7.2-8.8c2.4,0,4.4,1.2,5.4,3.2h0.1v-9.4h2.8v23.6h-2.8v-2.9h-0.1
				c-1.1,2-3,3.2-5.4,3.2C1469.2,1986.9,1466.3,1983.5,1466.3,1978.1z M1479,1978.1L1479,1978.1c0-3.8-2.1-6.3-4.9-6.3
				c-3,0-4.9,2.4-4.9,6.3v0c0,3.9,1.9,6.3,4.9,6.3C1477,1984.4,1479,1981.9,1479,1978.1z"/>
		</g>
	</g>
	<g>
		<g>
			<path d="M1353.7,1859.5h8.9c4,0,6.8,2.4,6.8,5.9v0c0,2.4-1.8,4.8-4.3,5.1v0.1c3.4,0.4,5.5,2.7,5.5,5.8v0c0,4.2-3,6.6-8,6.6h-8.9
				V1859.5z M1356.6,1862.1v7.6h4.4c3.5,0,5.4-1.4,5.4-3.9v0c0-2.3-1.6-3.6-4.5-3.6H1356.6z M1356.6,1872.2v8.3h5.5
				c3.5,0,5.4-1.4,5.4-4.1v0c0-2.7-1.9-4.1-5.7-4.1H1356.6z"/>
			<path d="M1372.6,1874.6L1372.6,1874.6c0-5.4,3.2-8.8,7.9-8.8s7.9,3.4,7.9,8.8v0c0,5.4-3.2,8.8-7.9,8.8
				C1375.8,1883.4,1372.6,1880,1372.6,1874.6z M1385.5,1874.6L1385.5,1874.6c0-4-2-6.3-5-6.3c-3,0-5,2.3-5,6.3v0c0,4,2,6.3,5,6.3
				C1383.5,1880.9,1385.5,1878.5,1385.5,1874.6z"/>
			<path d="M1391.4,1859.5h2.8v23.6h-2.8V1859.5z"/>
			<path d="M1397.2,1874.6L1397.2,1874.6c0-5.4,2.9-8.8,7.2-8.8c2.4,0,4.4,1.2,5.4,3.2h0.1v-9.4h2.8v23.6h-2.8v-2.9h-0.1
				c-1.1,2-3,3.2-5.4,3.2C1400.1,1883.4,1397.2,1879.9,1397.2,1874.6z M1409.9,1874.6L1409.9,1874.6c0-3.8-2.1-6.3-4.9-6.3
				c-3,0-4.9,2.4-4.9,6.3v0c0,3.9,1.9,6.3,4.9,6.3C1407.9,1880.9,1409.9,1878.4,1409.9,1874.6z"/>
		</g>
	</g>
	<g>
		<g>
			<path d="M1353.7,1752.3h8.9c4,0,6.8,2.4,6.8,5.9v0c0,2.4-1.8,4.8-4.3,5.1v0.1c3.4,0.4,5.5,2.7,5.5,5.8v0c0,4.2-3,6.6-8,6.6h-8.9
				V1752.3z M1356.6,1754.9v7.6h4.4c3.5,0,5.4-1.4,5.4-3.9v0c0-2.3-1.6-3.6-4.5-3.6H1356.6z M1356.6,1765v8.3h5.5
				c3.5,0,5.4-1.4,5.4-4.1v0c0-2.7-1.9-4.1-5.7-4.1H1356.6z"/>
			<path d="M1372.6,1767.4L1372.6,1767.4c0-5.4,3.2-8.8,7.9-8.8s7.9,3.4,7.9,8.8v0c0,5.4-3.2,8.8-7.9,8.8
				C1375.8,1776.2,1372.6,1772.8,1372.6,1767.4z M1385.5,1767.4L1385.5,1767.4c0-4-2-6.3-5-6.3c-3,0-5,2.3-5,6.3v0c0,4,2,6.3,5,6.3
				C1383.5,1773.7,1385.5,1771.3,1385.5,1767.4z"/>
			<path d="M1391.4,1752.3h2.8v23.6h-2.8V1752.3z"/>
			<path d="M1397.2,1767.4L1397.2,1767.4c0-5.4,2.9-8.8,7.2-8.8c2.4,0,4.4,1.2,5.4,3.2h0.1v-9.4h2.8v23.6h-2.8v-2.9h-0.1
				c-1.1,2-3,3.2-5.4,3.2C1400.1,1776.2,1397.2,1772.7,1397.2,1767.4z M1409.9,1767.4L1409.9,1767.4c0-3.8-2.1-6.3-4.9-6.3
				c-3,0-4.9,2.4-4.9,6.3v0c0,3.9,1.9,6.3,4.9,6.3C1407.9,1773.7,1409.9,1771.2,1409.9,1767.4z"/>
		</g>
	</g>
	<g>
		<g>
			<path d="M1363,1605h-4.7l-6.2-23.6h5.1l3.7,17.1h0.1l4.4-17.1h4.2l4.4,17.1h0.1l3.7-17.1h5.1l-6.3,23.6h-4.7l-4.5-16.1h-0.1
				L1363,1605z"/>
			<path d="M1399.3,1599.6c-0.5,3.4-3.7,5.7-8,5.7c-5.4,0-8.6-3.4-8.6-9.1c0-5.6,3.3-9.2,8.4-9.2c5.1,0,8.3,3.4,8.3,8.8v1.5h-12.1
				v0.3c0,2.5,1.6,4.2,4,4.2c1.7,0,3.1-0.9,3.5-2.2H1399.3z M1387.4,1594.4h7.4c-0.1-2.2-1.6-3.8-3.7-3.8
				C1389.1,1590.6,1387.6,1592.2,1387.4,1594.4z"/>
			<path d="M1401.8,1583.1c0-1.4,1.1-2.5,2.5-2.5c1.4,0,2.5,1.1,2.5,2.5c0,1.4-1.1,2.5-2.5,2.5
				C1402.9,1585.5,1401.8,1584.4,1401.8,1583.1z M1402,1587.5h4.8v17.5h-4.8V1587.5z"/>
			<path d="M1409.8,1606.2h4.7c0.4,1.2,1.7,2,3.6,2c2.5,0,3.8-1.4,3.8-3.4v-3.1h-0.1c-0.8,1.9-2.9,3.1-5.4,3.1
				c-4.3,0-7.1-3.3-7.1-8.8c0-5.6,2.7-9,7.2-9c2.5,0,4.5,1.3,5.4,3.3h0.1v-3.1h4.7v17.3c0,4.2-3.5,6.8-8.7,6.8
				C1413.3,1611.6,1410.2,1609.4,1409.8,1606.2z M1421.9,1596.2c0-3.2-1.5-5.2-3.9-5.2c-2.4,0-3.8,2-3.8,5.2c0,3.2,1.5,5.1,3.8,5.1
				C1420.4,1601.3,1421.9,1599.4,1421.9,1596.2z"/>
			<path d="M1429.9,1581.4h4.7v9.2h0.1c0.9-2.2,2.8-3.4,5.5-3.4c3.9,0,6.1,2.5,6.1,6.6v11.3h-4.8v-10.3c0-2.3-1.1-3.6-3.3-3.6
				c-2.3,0-3.6,1.6-3.6,3.9v10h-4.8V1581.4z"/>
			<path d="M1455.4,1583.4v4h3.2v3.6h-3.2v8.4c0,1.3,0.7,2,2.1,2c0.4,0,0.9,0,1.2-0.1v3.5c-0.5,0.1-1.3,0.2-2.3,0.2
				c-4.1,0-5.7-1.4-5.7-4.8v-9.2h-2.5v-3.6h2.5v-4H1455.4z"/>
		</g>
	</g>
	<g>
		<path class="st0" d="M876.4,738.7H716.6l-27.4,78h-65.3l136.7-382.1H833l136.7,382.1h-65.9L876.4,738.7z M858.8,687.7l-62-177.3
			l-62.6,177.3H858.8z"/>
		<path class="st0" d="M1027.1,583.4c12.6-23.4,29.8-41.6,51.6-54.6c21.8-13,45.8-19.5,72.2-19.5c23.8,0,44.6,4.7,62.3,14
			c17.7,9.3,31.9,21,42.5,34.9v-43.9h63.1v302.5h-63.1v-45c-10.6,14.3-25.1,26.2-43.4,35.7c-18.3,9.5-39.2,14.3-62.6,14.3
			c-26,0-49.8-6.7-71.4-20c-21.6-13.4-38.7-32-51.3-56c-12.6-24-18.9-51.1-18.9-81.5C1008.2,633.7,1014.5,606.8,1027.1,583.4z
			 M1242.8,610.8c-8.6-15.4-19.9-27.1-33.8-35.1c-13.9-8-28.9-12.1-45-12.1c-16.1,0-31.1,3.9-45,11.8c-13.9,7.9-25.2,19.4-33.8,34.6
			c-8.6,15.2-12.9,33.2-12.9,54.1s4.3,39.2,12.9,54.9c8.6,15.7,19.9,27.7,34,36c14.1,8.2,29,12.4,44.7,12.4c16.1,0,31.1-4,45-12.1
			c13.9-8,25.2-19.8,33.8-35.4c8.6-15.6,12.9-33.8,12.9-54.6S1251.4,626.2,1242.8,610.8z"/>
	</g>
	<g>
		<path class="st0" d="M918.7,192.4v-35.5h22.2v4.8h-16.7v11.3h15.3v4.7h-15.3v14.9H918.7z"/>
		<path class="st0" d="M943,179.4c0-8.3,4.9-13.4,12.3-13.4c7.4,0,12.3,5.1,12.3,13.4c0,8.3-4.9,13.4-12.3,13.4S943,187.8,943,179.4
			z M962.2,179.4c0-5.7-2.7-9-6.9-9s-6.9,3.3-6.9,9c0,5.8,2.7,9.1,6.9,9.1C959.5,188.5,962.2,185.2,962.2,179.4z"/>
		<path class="st0" d="M971.7,166.5h5.1v4.3h0.1c1.4-3,4.2-4.8,8.2-4.8c5.7,0,9,3.6,9,9.6v16.8h-5.3v-15.7c0-3.9-1.8-6-5.5-6
			c-3.7,0-6.2,2.7-6.2,6.7v15.1h-5.3V166.5z"/>
		<path class="st0" d="M1006,160.4v6.1h4.9v4.2h-4.9V185c0,2.2,1,3.3,3.2,3.3c0.5,0,1.4,0,1.7-0.1v4.2c-0.6,0.1-1.8,0.2-3,0.2
			c-5.2,0-7.3-2-7.3-7v-14.9h-3.8v-4.2h3.8v-6.1H1006z"/>
	</g>
</g>
</svg>
