<?xml version="1.0" encoding="utf-8"?>
<!-- Generator: Adobe Illustrator 26.3.1, SVG Export Plug-In . SVG Version: 6.00 Build 0)  -->
<svg version="1.1" id="Layer_1" xmlns="http://www.w3.org/2000/svg" xmlns:xlink="http://www.w3.org/1999/xlink" x="0px" y="0px"
	 viewBox="0 0 42.1 49" style="enable-background:new 0 0 42.1 49;" xml:space="preserve">
<style type="text/css">
	.st0{fill:#FFFFFF;}
</style>
<g>
	<path class="st0" d="M32.9,15.4l7.8,3.8l-8,1.6L28,16.6H14.1l-4.7,4.3l-8-1.6l7.8-3.8L0,18.9L21.1,49l21.1-30.1L32.9,15.4z
		 M21.1,47.8L10.2,21.1l4.2-3.8h13.5l4.2,3.8L21.1,47.8z"/>
	<path class="st0" d="M15.2,11.9L12.3,7l6,1.8c0.2,0.1,0.4,0,0.5-0.2L21,3.1l2.2,5.5c0.1,0.2,0.3,0.3,0.5,0.2l6-1.8L27,11.9
		c-0.1,0.2,0,0.5,0.3,0.6l0,0c0.1,0,0.3-0.1,0.4-0.2l2.8-4.9c0.1,0,0.3,0,0.4,0c0.5-0.1,0.9-0.6,0.9-1.1c0-0.6-0.5-1-1.1-1
		s-1,0.4-1.1,1L23.9,8l-2.1-5.3c0.4-0.2,0.8-0.7,0.8-1.2C22.6,0.7,22,0,21.2,0s-1.5,0.6-1.5,1.4c0,0.6,0.3,1,0.8,1.3L18.3,8
		l-5.7-1.7c0-0.6-0.5-1-1.1-1s-1.1,0.5-1.1,1.1s0.5,1.1,1.1,1.1c0.1,0,0.2,0,0.2,0l2.8,4.9c0.1,0.1,0.2,0.2,0.4,0.2l0,0
		C15.1,12.4,15.3,12.1,15.2,11.9z"/>
</g>
</svg>
