<?xml version="1.0" encoding="utf-8"?>
<!-- Generator: Adobe Illustrator 24.0.2, SVG Export Plug-In . SVG Version: 6.00 Build 0)  -->
<svg version="1.1" id="Layer_1" xmlns="http://www.w3.org/2000/svg" xmlns:xlink="http://www.w3.org/1999/xlink" x="0px" y="0px"
	 viewBox="0 0 1017.51 317.34" style="enable-background:new 0 0 1017.51 317.34;" xml:space="preserve">
<style type="text/css">
	.st0{fill:#9FC3F1;}
	.st1{fill:#182C4C;}
	.st2{fill:#8FB8ED;}
</style>
<g>
	<g>
		<path class="st0" d="M299.56,248.94l-1.28-11.16h-0.55c-4.94,6.95-14.45,13.17-27.07,13.17c-17.92,0-27.07-12.62-27.07-25.42
			c0-21.4,19.02-33.1,53.22-32.92v-1.83c0-7.32-2.01-20.48-20.12-20.48c-8.23,0-16.82,2.56-23.04,6.58L250,166.28
			c7.31-4.75,17.92-7.86,29.08-7.86c27.07,0,33.65,18.47,33.65,36.21v33.1c0,7.68,0.37,15.18,1.46,21.21H299.56z M297.18,203.77
			c-17.56-0.37-37.49,2.74-37.49,19.93c0,10.42,6.95,15.36,15.18,15.36c11.52,0,18.84-7.32,21.4-14.81
			c0.55-1.65,0.91-3.47,0.91-5.12V203.77z"/>
		<path class="st0" d="M338.69,189.32c0-11.34-0.37-20.48-0.73-28.89h14.45l0.73,15.18h0.37c6.58-10.79,17.01-17.19,31.45-17.19
			c21.4,0,37.49,18.1,37.49,44.99c0,31.82-19.38,47.55-40.23,47.55c-11.7,0-21.95-5.12-27.25-13.9h-0.37v48.1h-15.91V189.32z
			 M354.6,212.91c0,2.38,0.37,4.57,0.73,6.58c2.93,11.16,12.62,18.84,24.14,18.84c17.01,0,26.88-13.9,26.88-34.2
			c0-17.74-9.33-32.92-26.33-32.92c-10.97,0-21.21,7.86-24.32,19.93c-0.55,2.01-1.1,4.39-1.1,6.58V212.91z"/>
		<path class="st0" d="M451.71,207.61c0.37,21.76,14.26,30.72,30.36,30.72c11.52,0,18.47-2.01,24.51-4.57l2.74,11.52
			c-5.67,2.56-15.36,5.49-29.44,5.49c-27.25,0-43.52-17.92-43.52-44.62s15.73-47.73,41.51-47.73c28.89,0,36.58,25.42,36.58,41.7
			c0,3.29-0.37,5.85-0.55,7.5H451.71z M498.89,196.09c0.18-10.24-4.21-26.15-22.31-26.15c-16.28,0-23.41,15-24.69,26.15H498.89z"/>
		<path class="st0" d="M541.31,160.43l12.62,19.02c3.29,4.94,6.04,9.51,8.96,14.45h0.55c2.93-5.3,5.85-9.88,8.78-14.63l12.44-18.84
			h17.37l-30.17,42.79l31.09,45.72h-18.29L571.67,229c-3.47-5.12-6.4-10.06-9.51-15.36h-0.37c-2.93,5.3-6.03,10.06-9.33,15.36
			l-12.8,19.93h-17.74l31.45-45.17l-29.99-43.34H541.31z"/>
		<path class="st1" d="M617.75,248.94c0.37-6.04,0.73-15,0.73-22.86V119.1h15.91v55.59h0.37c5.67-9.88,15.91-16.28,30.17-16.28
			c21.95,0,37.49,18.29,37.31,45.17c0,31.64-19.93,47.37-39.68,47.37c-12.8,0-23.04-4.94-29.63-16.64h-0.55l-0.73,14.63H617.75z
			 M634.4,213.46c0,2.01,0.37,4.02,0.73,5.85c3.11,11.16,12.44,18.84,24.14,18.84c16.83,0,26.88-13.72,26.88-34.02
			c0-17.74-9.14-32.92-26.33-32.92c-10.97,0-21.21,7.5-24.5,19.75c-0.37,1.83-0.92,4.02-0.92,6.58V213.46z"/>
		<path class="st1" d="M727.11,160.43l19.38,52.3c2.01,5.85,4.21,12.8,5.67,18.1h0.37c1.65-5.3,3.47-12.07,5.67-18.47l17.56-51.94
			h17.01l-24.14,63.09c-11.52,30.36-19.38,45.9-30.36,55.41c-7.86,6.95-15.73,9.69-19.75,10.42l-4.02-13.53
			c4.02-1.28,9.33-3.84,14.08-7.86c4.39-3.47,9.88-9.69,13.53-17.92c0.73-1.65,1.28-2.93,1.28-3.84c0-0.91-0.37-2.19-1.1-4.21
			l-32.74-81.56H727.11z"/>
		<path class="st1" d="M826.78,135.01v25.42h23.04v12.25h-23.04v47.73c0,10.97,3.11,17.19,12.07,17.19c4.21,0,7.31-0.55,9.33-1.1
			l0.73,12.07c-3.11,1.28-8.05,2.19-14.26,2.19c-7.5,0-13.53-2.38-17.37-6.77c-4.57-4.75-6.22-12.62-6.22-23.04v-48.28h-13.72
			v-12.25h13.72v-21.21L826.78,135.01z"/>
		<path class="st1" d="M875.79,207.61c0.37,21.76,14.26,30.72,30.36,30.72c11.52,0,18.47-2.01,24.51-4.57l2.74,11.52
			c-5.67,2.56-15.36,5.49-29.44,5.49c-27.25,0-43.52-17.92-43.52-44.62s15.73-47.73,41.51-47.73c28.89,0,36.58,25.42,36.58,41.7
			c0,3.29-0.37,5.85-0.55,7.5H875.79z M922.97,196.09c0.18-10.24-4.21-26.15-22.31-26.15c-16.28,0-23.41,15-24.69,26.15H922.97z"/>
		<path class="st1" d="M956.25,232.48c4.75,3.11,13.17,6.4,21.21,6.4c11.7,0,17.19-5.85,17.19-13.17c0-7.68-4.57-11.89-16.46-16.28
			c-15.91-5.67-23.41-14.45-23.41-25.05c0-14.26,11.52-25.97,30.54-25.97c8.96,0,16.83,2.56,21.76,5.49l-4.02,11.7
			c-3.47-2.19-9.88-5.12-18.1-5.12c-9.51,0-14.81,5.49-14.81,12.07c0,7.31,5.3,10.61,16.82,15c15.36,5.85,23.22,13.53,23.22,26.7
			c0,15.54-12.07,26.52-33.1,26.52c-9.69,0-18.65-2.38-24.87-6.04L956.25,232.48z"/>
	</g>
	<g>
		<path class="st2" d="M3.07,198.73L106,11.71c0,0,15.06-22.59,46.44-5.02c15.06,8.79,13.81,23.85,13.81,23.85L63.32,211.28
			l3.77,2.51L33.2,275.3C33.2,275.3-11.99,222.58,3.07,198.73z"/>
		<path class="st1" d="M146.39,243.4L106,305.42c0,0-10.04,17.57-37.65,10.04C48.26,309.19,47,292.87,47,292.87l46.4-79.95
			l34.4,1.46L146.39,243.4z"/>
		<path class="st1" d="M222.73,112.13c-1.26,22.59-27.61,56.48-27.61,56.48l-0.36,0.56l-40.48-61.14l33.31-57.41
			C187.58,50.62,223.98,89.53,222.73,112.13z"/>
		<polygon class="st2" points="210.18,248.94 149.93,248.94 146.39,243.4 127.81,214.37 109.32,185.48 139.26,133.9 177.4,195.78 		
			"/>
	</g>
</g>
<g>
</g>
<g>
</g>
<g>
</g>
<g>
</g>
<g>
</g>
<g>
</g>
<g>
</g>
<g>
</g>
<g>
</g>
<g>
</g>
<g>
</g>
<g>
</g>
<g>
</g>
<g>
</g>
<g>
</g>
</svg>
