<?xml version="1.0" encoding="utf-8"?>
<!-- Generator: Adobe Illustrator 24.0.2, SVG Export Plug-In . SVG Version: 6.00 Build 0)  -->
<svg version="1.1" id="Layer_1" xmlns="http://www.w3.org/2000/svg" xmlns:xlink="http://www.w3.org/1999/xlink" x="0px" y="0px"
	 viewBox="0 0 494.61 759.51" style="enable-background:new 0 0 494.61 759.51;" xml:space="preserve">
<style type="text/css">
	.st0{fill:#FFFFFF;}
</style>
<g>
	<path class="st0" d="M357.45,86.17L73.11,626.83l-48.56-62.84C-3.6,527.58-7.91,478.09,13.52,437.35L221.76,41.41
		c26.26-49.93,95.37-55.94,129.86-11.3l1.06,1.37C364.84,47.21,366.7,68.58,357.45,86.17z"/>
	<line class="st0" x1="335.41" y1="557.67" x2="334.28" y2="559.82"/>
	<path class="st0" d="M466.46,308.46l-32.91,62.57l-94.73-122.62l73.5-139.75l41.42,53.61
		C486.22,204.32,491.19,261.44,466.46,308.46z"/>
	<path class="st0" d="M334.28,559.82l-91.25,173.5c-16.61,31.58-60.32,35.38-82.13,7.15l-25.83-33.43
		c-13.57-17.57-15.65-41.43-5.32-61.08l44.25-84.14L334.28,559.82z"/>
	<polygon class="st0" points="494.61,557.82 337.03,559.78 335.41,557.67 240.65,435.05 305.09,312.53 399.82,435.15 399.82,435.18 
			"/>
	<line class="st0" x1="337.03" y1="559.78" x2="334.28" y2="559.82"/>
</g>
<g>
</g>
<g>
</g>
<g>
</g>
<g>
</g>
<g>
</g>
<g>
</g>
<g>
</g>
<g>
</g>
<g>
</g>
<g>
</g>
<g>
</g>
<g>
</g>
<g>
</g>
<g>
</g>
<g>
</g>
</svg>
