<?xml version="1.0" encoding="utf-8"?>
<!-- Generator: Adobe Illustrator 24.0.2, SVG Export Plug-In . SVG Version: 6.00 Build 0)  -->
<svg version="1.1" id="Layer_1" xmlns="http://www.w3.org/2000/svg" xmlns:xlink="http://www.w3.org/1999/xlink" x="0px" y="0px"
	 viewBox="0 0 1158.88 270.33" style="enable-background:new 0 0 1158.88 270.33;" xml:space="preserve">
<style type="text/css">
	.st0{fill:#FFFFFF;}
	.st1{fill:#8FB8ED;}
</style>
<g>
	<g>
		<g>
			<path class="st0" d="M304.24,110.57c-7.18-6.44-17.39-9.67-30.65-9.67c-7.66,0-14.99,1.07-21.98,3.19
				c-7,2.13-12.98,5.2-17.97,9.21l7.3,13.13c3.77-3.16,8.39-5.68,13.86-7.57c5.47-1.88,11.06-2.83,16.78-2.83
				c8.63,0,15.11,2.04,19.43,6.11c4.32,4.08,6.48,9.82,6.48,17.24v3.47h-27.73c-9.61,0-17.24,1.28-22.89,3.83
				s-9.73,5.96-12.22,10.22c-2.49,4.26-3.74,9-3.74,14.23c0,5.47,1.46,10.37,4.38,14.68c2.92,4.32,7.08,7.69,12.5,10.12
				c5.41,2.43,11.7,3.65,18.88,3.65c8.88,0,16.24-1.67,22.07-5.02c4.1-2.35,7.31-5.29,9.67-8.81v12.73H315v-58.38
				C315,126.86,311.42,117.01,304.24,110.57z M286.82,181.71c-4.93,2.92-10.67,4.38-17.24,4.38c-6.69,0-11.92-1.43-15.69-4.29
				c-3.77-2.86-5.66-6.66-5.66-11.4c0-4.13,1.52-7.66,4.56-10.58c3.04-2.92,8.94-4.38,17.69-4.38h27v13.5
				C295.3,174.54,291.75,178.79,286.82,181.71z"/>
			<path class="st0" d="M423.91,107.1c-7.3-4.13-15.69-6.2-25.17-6.2c-8.27,0-15.72,1.82-22.35,5.47
				c-4.77,2.63-8.81,6.22-12.13,10.73v-15.3h-16.78v132.07h17.51V183.8c3.29,4.25,7.2,7.67,11.77,10.22
				c6.63,3.71,13.96,5.56,21.98,5.56c9.49,0,17.88-2.07,25.17-6.2c7.3-4.13,13.07-9.91,17.33-17.33c4.26-7.42,6.38-16.05,6.38-25.9
				s-2.13-18.45-6.38-25.81C436.98,116.98,431.21,111.23,423.91,107.1z M425.64,168.12c-2.86,5.17-6.75,9.15-11.67,11.95
				c-4.93,2.8-10.49,4.2-16.69,4.2c-6.08,0-11.58-1.4-16.51-4.2c-4.93-2.8-8.82-6.78-11.68-11.95c-2.86-5.17-4.29-11.16-4.29-17.97
				c0-6.93,1.43-12.92,4.29-17.97c2.86-5.04,6.75-8.97,11.68-11.77c4.93-2.8,10.43-4.2,16.51-4.2c6.2,0,11.77,1.4,16.69,4.2
				c4.93,2.8,8.82,6.72,11.67,11.77c2.86,5.05,4.29,11.04,4.29,17.97C429.93,156.96,428.5,162.95,425.64,168.12z"/>
			<path class="st0" d="M536.28,107.1c-7.18-4.13-15.45-6.2-24.81-6.2c-9.24,0-17.54,2.1-24.9,6.29c-7.36,4.2-13.13,10-17.33,17.42
				c-4.2,7.42-6.29,15.93-6.29,25.54c0,9.61,2.16,18.12,6.48,25.54c4.32,7.42,10.4,13.26,18.24,17.51
				c7.84,4.26,16.93,6.38,27.27,6.38c8.03,0,15.29-1.34,21.8-4.01c6.5-2.67,11.95-6.57,16.33-11.67l-9.67-11.31
				c-3.53,3.89-7.63,6.81-12.31,8.76c-4.68,1.95-9.88,2.92-15.6,2.92c-6.93,0-13.07-1.4-18.42-4.2c-5.35-2.8-9.52-6.72-12.5-11.77
				c-2.2-3.72-3.58-7.83-4.16-12.31h78.49c0.12-0.85,0.21-1.76,0.27-2.74c0.06-0.97,0.09-1.82,0.09-2.55
				c0-9.97-2.04-18.7-6.11-26.18C549.08,117.04,543.45,111.23,536.28,107.1z M495.23,119.78c4.74-2.74,10.15-4.1,16.24-4.1
				c6.2,0,11.64,1.37,16.33,4.1c4.68,2.74,8.36,6.54,11.04,11.4c2.03,3.69,3.25,7.76,3.67,12.22h-62.14
				c0.51-4.43,1.76-8.47,3.74-12.13C486.78,126.34,490.49,122.51,495.23,119.78z"/>
			<polygon class="st0" points="660.33,101.81 641.17,101.81 614.63,136.67 588.09,101.81 568.57,101.81 604.81,149.07 
				566.74,198.49 586.26,198.49 614.48,161.41 642.45,198.49 662.33,198.49 623.89,149.01 			"/>
			<path class="st0" d="M757.92,107.1c-7.3-4.13-15.69-6.2-25.17-6.2c-8.03,0-15.36,1.82-21.98,5.47
				c-4.56,2.51-8.47,5.9-11.77,10.14V63.14h-17.51v135.36h16.78V183.2c3.32,4.53,7.36,8.15,12.13,10.82
				c6.63,3.71,14.07,5.56,22.35,5.56c9.49,0,17.88-2.07,25.17-6.2c7.3-4.13,13.07-9.91,17.33-17.33c4.26-7.42,6.38-16.05,6.38-25.9
				s-2.13-18.45-6.38-25.81C770.99,116.98,765.22,111.23,757.92,107.1z M759.65,168.12c-2.86,5.17-6.75,9.15-11.68,11.95
				c-4.92,2.8-10.49,4.2-16.69,4.2c-6.08,0-11.58-1.4-16.51-4.2c-4.93-2.8-8.82-6.78-11.67-11.95c-2.86-5.17-4.29-11.16-4.29-17.97
				c0-6.93,1.43-12.92,4.29-17.97c2.86-5.04,6.75-8.97,11.67-11.77c4.92-2.8,10.43-4.2,16.51-4.2c6.2,0,11.77,1.4,16.69,4.2
				c4.93,2.8,8.82,6.72,11.68,11.77c2.86,5.05,4.29,11.04,4.29,17.97C763.94,156.96,762.51,162.95,759.65,168.12z"/>
			<path class="st0" d="M838.16,179.07l-33.72-77.26h-18.24l42.67,96.44l-3.08,6.81c-2.43,5.59-5.05,9.49-7.84,11.67
				c-2.8,2.19-6.33,3.28-10.58,3.28c-3.28,0-6.38-0.61-9.3-1.82c-2.92-1.22-5.59-2.98-8.03-5.29l-7.48,13.13
				c3.16,2.92,6.93,5.14,11.31,6.66c4.38,1.52,8.88,2.28,13.5,2.28c4.99,0,9.55-0.82,13.68-2.46c4.13-1.64,7.94-4.41,11.4-8.3
				c3.47-3.89,6.6-9.24,9.39-16.05l46.88-106.35h-17.15L838.16,179.07z"/>
			<path class="st0" d="M940.7,184.81c-4.87,0-8.6-1.4-11.22-4.2c-2.62-2.8-3.92-6.81-3.92-12.04v-52.36h27.73v-14.41h-27.73V80.65
				h-17.51v21.16h-16.42v14.41h16.42v53.08c0,9.73,2.67,17.21,8.03,22.44c5.35,5.23,12.89,7.84,22.62,7.84
				c4.01,0,7.87-0.55,11.58-1.64c3.71-1.09,6.9-2.8,9.58-5.11l-5.47-12.59C950.74,183.29,946.18,184.81,940.7,184.81z"/>
			<path class="st0" d="M1042.13,107.1c-7.18-4.13-15.45-6.2-24.81-6.2c-9.24,0-17.54,2.1-24.9,6.29c-7.36,4.2-13.13,10-17.33,17.42
				c-4.2,7.42-6.29,15.93-6.29,25.54c0,9.61,2.16,18.12,6.48,25.54c4.32,7.42,10.4,13.26,18.24,17.51
				c7.84,4.26,16.93,6.38,27.27,6.38c8.03,0,15.29-1.34,21.8-4.01c6.5-2.67,11.95-6.57,16.33-11.67l-9.67-11.31
				c-3.53,3.89-7.63,6.81-12.31,8.76c-4.68,1.95-9.88,2.92-15.6,2.92c-6.93,0-13.07-1.4-18.42-4.2c-5.35-2.8-9.52-6.72-12.5-11.77
				c-2.2-3.72-3.58-7.83-4.16-12.31h78.49c0.12-0.85,0.21-1.76,0.27-2.74c0.06-0.97,0.09-1.82,0.09-2.55
				c0-9.97-2.04-18.7-6.11-26.18C1054.93,117.04,1049.3,111.23,1042.13,107.1z M1001.08,119.78c4.74-2.74,10.15-4.1,16.24-4.1
				c6.2,0,11.64,1.37,16.33,4.1c4.68,2.74,8.36,6.54,11.04,11.4c2.03,3.69,3.25,7.76,3.67,12.22h-62.14
				c0.51-4.43,1.76-8.47,3.74-12.13C992.63,126.34,996.34,122.51,1001.08,119.78z"/>
			<path class="st0" d="M1155.5,157.81c-2.25-3.28-5.17-5.84-8.76-7.66c-3.59-1.82-7.57-3.25-11.95-4.29
				c-4.38-1.03-8.76-1.88-13.13-2.55c-4.38-0.67-8.36-1.49-11.95-2.46c-3.59-0.97-6.51-2.34-8.76-4.1
				c-2.25-1.76-3.38-4.29-3.38-7.57c0-3.89,1.88-7.08,5.66-9.58c3.77-2.49,9.49-3.74,17.15-3.74c4.74,0,9.49,0.55,14.23,1.64
				s9.3,3.1,13.68,6.02l7.48-13.86c-4.14-2.8-9.46-4.95-15.96-6.48c-6.51-1.52-12.92-2.28-19.25-2.28c-8.27,0-15.42,1.19-21.43,3.56
				c-6.02,2.37-10.67,5.75-13.96,10.12c-3.28,4.38-4.92,9.49-4.92,15.32c0,5.6,1.09,10.06,3.28,13.41c2.19,3.35,5.11,5.96,8.76,7.84
				c3.65,1.89,7.66,3.35,12.04,4.38c4.38,1.03,8.76,1.89,13.13,2.55c4.38,0.67,8.36,1.43,11.95,2.28c3.59,0.85,6.48,2.13,8.67,3.83
				c2.19,1.7,3.28,4.08,3.28,7.11c0,4.14-1.8,7.36-5.38,9.67c-3.59,2.31-9.46,3.47-17.6,3.47c-6.33,0-12.53-0.97-18.61-2.92
				c-6.08-1.94-11.19-4.32-15.32-7.12l-7.3,13.86c4.13,3.16,9.82,5.84,17.06,8.03c7.23,2.19,14.87,3.28,22.89,3.28
				c8.63,0,16.05-1.19,22.26-3.56c6.2-2.37,11-5.68,14.41-9.94c3.4-4.26,5.11-9.3,5.11-15.14
				C1158.88,165.47,1157.75,161.1,1155.5,157.81z"/>
		</g>
		<path class="st0" d="M166.03,109.79l-11.71,22.27L120.6,88.42l26.16-49.74l14.74,19.08C173.06,72.72,174.83,93.06,166.03,109.79z"
			/>
		<path class="st0" d="M118.98,199.26L86.5,261.01c-5.91,11.24-21.47,12.59-29.23,2.54l-9.19-11.9c-4.83-6.25-5.57-14.75-1.89-21.74
			l15.75-29.95L118.98,199.26z"/>
	</g>
	<g>
		<path class="st1" d="M127.23,30.67L26.02,223.11L8.74,200.74c-10.02-12.96-11.55-30.58-3.93-45.08L78.93,14.74
			c9.35-17.77,33.95-19.91,46.22-4.02l0.38,0.49C129.86,16.8,130.52,24.41,127.23,30.67z"/>
		<polygon class="st1" points="176.05,198.54 119.96,199.24 119.38,198.49 85.65,154.85 108.59,111.24 142.31,154.88 142.31,154.89 
					"/>
	</g>
</g>
<g>
</g>
<g>
</g>
<g>
</g>
<g>
</g>
<g>
</g>
<g>
</g>
<g>
</g>
<g>
</g>
<g>
</g>
<g>
</g>
<g>
</g>
<g>
</g>
<g>
</g>
<g>
</g>
<g>
</g>
</svg>
