<?xml version="1.0" encoding="utf-8"?>
<!-- Generator: Adobe Illustrator 24.0.2, SVG Export Plug-In . SVG Version: 6.00 Build 0)  -->
<svg version="1.1" id="Layer_1" xmlns="http://www.w3.org/2000/svg" xmlns:xlink="http://www.w3.org/1999/xlink" x="0px" y="0px"
	 viewBox="0 0 176.05 270.33" style="enable-background:new 0 0 176.05 270.33;" xml:space="preserve">
<style type="text/css">
	.st0{fill:#8FB8ED;}
	.st1{fill:none;stroke:#FF0000;stroke-miterlimit:10;}
	.st2{fill:#182C4C;}
</style>
<g>
	<path class="st0" d="M127.23,30.67L26.02,223.11L8.74,200.74c-10.02-12.96-11.55-30.58-3.93-45.08L78.93,14.74
		c9.35-17.77,33.95-19.91,46.22-4.02l0.38,0.49C129.86,16.8,130.52,24.41,127.23,30.67z"/>
	<line class="st1" x1="119.38" y1="198.49" x2="118.98" y2="199.26"/>
	<path class="st2" d="M166.03,109.79l-11.71,22.27L120.6,88.42l26.16-49.74l14.74,19.08C173.06,72.72,174.83,93.06,166.03,109.79z"
		/>
	<path class="st2" d="M118.98,199.26L86.5,261.01c-5.91,11.24-21.47,12.59-29.23,2.54l-9.19-11.9c-4.83-6.25-5.57-14.75-1.89-21.74
		l15.75-29.95L118.98,199.26z"/>
	<polygon class="st0" points="176.05,198.54 119.96,199.24 119.38,198.49 85.65,154.85 108.59,111.24 142.31,154.88 142.31,154.89 	
		"/>
	<line class="st1" x1="119.96" y1="199.24" x2="118.98" y2="199.26"/>
</g>
<g>
</g>
<g>
</g>
<g>
</g>
<g>
</g>
<g>
</g>
<g>
</g>
<g>
</g>
<g>
</g>
<g>
</g>
<g>
</g>
<g>
</g>
<g>
</g>
<g>
</g>
<g>
</g>
<g>
</g>
</svg>
