<?xml version="1.0" encoding="utf-8"?>
<!-- Generator: Adobe Illustrator 24.0.2, SVG Export Plug-In . SVG Version: 6.00 Build 0)  -->
<svg version="1.1" id="Layer_1" xmlns="http://www.w3.org/2000/svg" xmlns:xlink="http://www.w3.org/1999/xlink" x="0px" y="0px"
	 viewBox="0 0 263.84 375.98" style="enable-background:new 0 0 263.84 375.98;" xml:space="preserve">
<style type="text/css">
	.st0{fill:#8FB8ED;}
	.st1{fill:#182C4C;}
	.st2{fill:none;stroke:#FF0000;stroke-miterlimit:10;stroke-dasharray:6;}
</style>
<g>
	<path class="st0" d="M44.44,203.74l82-149c0,0,12-18,37-4c12,7,11,19,11,19l-82,144l3,2l-27,49
		C68.44,264.74,32.44,222.74,44.44,203.74z"/>
	<path class="st1" d="M158.62,239.33l-32.18,49.41c0,0-8,14-30,8c-16-5-17-18-17-18l36.97-63.7l27.41,1.16L158.62,239.33z"/>
	<path class="st1" d="M219.44,134.74c-1,18-22,45-22,45l-0.29,0.45l-32.25-48.71l26.54-45.74
		C191.44,85.74,220.44,116.74,219.44,134.74z"/>
	<polygon class="st0" points="209.44,243.74 161.44,243.74 158.62,239.33 143.82,216.2 129.09,193.18 152.94,152.09 183.33,201.39 	
		"/>
</g>
<line class="st2" x1="155.44" y1="0.24" x2="0.44" y2="286.24"/>
<line class="st2" x1="192.44" y1="37.24" x2="37.44" y2="323.24"/>
<line class="st2" x1="207.94" y1="52.74" x2="52.94" y2="338.74"/>
<line class="st2" x1="244.94" y1="89.74" x2="89.94" y2="375.74"/>
<line class="st2" x1="135.44" y1="10.24" x2="263.44" y2="180.24"/>
<line class="st2" x1="98.94" y1="46.74" x2="226.94" y2="216.74"/>
<line class="st2" x1="98.94" y1="85.74" x2="226.94" y2="255.74"/>
<line class="st2" x1="66.94" y1="117.74" x2="194.94" y2="287.74"/>
<line class="st2" x1="3.44" y1="181.24" x2="131.44" y2="351.24"/>
<line class="st2" x1="91.44" y1="244.24" x2="231.44" y2="244.24"/>
<line class="st2" x1="155.52" y1="0.25" x2="0.52" y2="286.25"/>
<line class="st2" x1="192.52" y1="37.25" x2="37.52" y2="323.25"/>
<line class="st2" x1="208.02" y1="52.75" x2="53.02" y2="338.75"/>
<line class="st2" x1="245.02" y1="89.75" x2="90.02" y2="375.75"/>
<line class="st2" x1="135.52" y1="10.25" x2="263.52" y2="180.25"/>
<line class="st2" x1="99.02" y1="46.75" x2="227.02" y2="216.75"/>
<line class="st2" x1="99.02" y1="85.75" x2="227.02" y2="255.75"/>
<line class="st2" x1="67.02" y1="117.75" x2="195.02" y2="287.75"/>
<line class="st2" x1="3.52" y1="181.25" x2="131.52" y2="351.25"/>
<line class="st2" x1="91.52" y1="244.25" x2="231.52" y2="244.25"/>
</svg>
