<?xml version="1.0" encoding="utf-8"?>
<!-- Generator: Adobe Illustrator 24.0.2, SVG Export Plug-In . SVG Version: 6.00 Build 0)  -->
<svg version="1.1" id="Layer_1" xmlns="http://www.w3.org/2000/svg" xmlns:xlink="http://www.w3.org/1999/xlink" x="0px" y="0px"
	 viewBox="0 0 303.11 303.11" style="enable-background:new 0 0 303.11 303.11;" xml:space="preserve">
<style type="text/css">
	.st0{fill:#E5EBF8;}
	.st1{opacity:0.8;}
	.st2{fill:#00D4D9;}
	.st3{fill:url(#SVGID_1_);}
	.st4{fill:url(#SVGID_2_);}
	.st5{fill:#FFFFFF;}
	.st6{fill:none;stroke:#000000;stroke-miterlimit:10;}
</style>
<g>
	<path class="st0" d="M179.4,77.33l-71.9,136.7l-12.28-15.89c-7.12-9.21-8.2-21.72-2.79-32.02l52.65-100.1
		c6.64-12.62,24.12-14.14,32.83-2.86l0.27,0.35C181.27,67.47,181.74,72.88,179.4,77.33z"/>
	<line class="st0" x1="173.83" y1="196.54" x2="173.54" y2="197.09"/>
	<path class="st0" d="M206.97,133.53l-8.32,15.82l-23.95-31l18.58-35.33l10.47,13.55C211.96,107.2,213.22,121.64,206.97,133.53z"/>
	<path class="st0" d="M173.54,197.09l-23.07,43.87c-4.2,7.98-15.25,8.94-20.76,1.8l-6.53-8.45c-3.43-4.44-3.96-10.48-1.34-15.44
		l11.19-21.28L173.54,197.09z"/>
	<polygon class="st0" points="214.08,196.57 174.24,197.07 173.83,196.54 149.87,165.54 166.16,134.56 190.12,165.56 190.12,165.57 
			"/>
	<line class="st0" x1="174.24" y1="197.07" x2="173.54" y2="197.09"/>
</g>
</svg>
