<?xml version="1.0" encoding="utf-8"?>
<!-- Generator: Adobe Illustrator 24.0.2, SVG Export Plug-In . SVG Version: 6.00 Build 0)  -->
<svg version="1.1" id="Layer_1" xmlns="http://www.w3.org/2000/svg" xmlns:xlink="http://www.w3.org/1999/xlink" x="0px" y="0px"
	 viewBox="0 0 470.98 375.98" style="enable-background:new 0 0 470.98 375.98;" xml:space="preserve">
<style type="text/css">
	.st0{fill:#E2E2E2;}
	.st1{fill:none;stroke:#FF0000;stroke-miterlimit:10;}
	.st2{fill:none;stroke:#FF0000;stroke-miterlimit:10;stroke-dasharray:5.4611,5.4611;}
	.st3{fill:none;stroke:#FF0000;stroke-miterlimit:10;stroke-dasharray:5.5779,5.5779;}
	.st4{fill:none;stroke:#FF0000;stroke-miterlimit:10;stroke-dasharray:5.7907,5.7907;}
	.st5{fill:none;stroke:#FF0000;stroke-miterlimit:10;stroke-dasharray:5.8811,5.8811;}
	.st6{fill:none;stroke:#FF0000;stroke-miterlimit:10;stroke-dasharray:5.6722,5.6722;}
	.st7{fill:none;stroke:#FF0000;stroke-miterlimit:10;stroke-dasharray:5.5656,5.5656;}
	.st8{fill:none;stroke:#FF0000;stroke-miterlimit:10;stroke-dasharray:5.5673,5.5673;}
	.st9{fill:none;stroke:#FF0000;stroke-miterlimit:10;stroke-dasharray:6.182,6.182;}
	.st10{fill:none;stroke:#FF0000;stroke-miterlimit:10;stroke-dasharray:6.1371,6.1371;}
	.st11{fill:none;stroke:#FF0000;stroke-miterlimit:10;stroke-dasharray:6.0126,6.0126;}
	.st12{fill:none;stroke:#FF0000;stroke-miterlimit:10;stroke-dasharray:5.8109,5.8109;}
	.st13{fill:none;stroke:#FF0000;stroke-miterlimit:10;stroke-dasharray:6.1031,6.1031;}
	.st14{fill:none;stroke:#FF0000;stroke-miterlimit:10;stroke-dasharray:6.1584,6.1584;}
	.st15{fill:none;stroke:#FF0000;stroke-miterlimit:10;stroke-dasharray:5.9974,5.9974;}
	.st16{fill:none;stroke:#FF0000;stroke-miterlimit:10;stroke-dasharray:6.0331,6.0331;}
	.st17{fill:none;stroke:#FF0000;stroke-miterlimit:10;stroke-dasharray:5.9026,5.9026;}
	.st18{fill:#8FB8ED;}
	.st19{fill:#182C4C;}
	.st20{fill:none;stroke:#FF0000;stroke-miterlimit:10;stroke-dasharray:6.0246,6.0246;}
	.st21{fill:none;stroke:#FF0000;stroke-miterlimit:10;stroke-dasharray:5.9086,5.9086;}
	.st22{fill:none;stroke:#FF0000;stroke-miterlimit:10;stroke-dasharray:5.8261,5.8261;}
	.st23{fill:none;stroke:#FF0000;stroke-miterlimit:10;stroke-dasharray:0.8635;}
	.st24{fill:none;stroke:#FF0000;stroke-miterlimit:10;stroke-dasharray:0.98;}
</style>
<g>
	<g>
		<g>
			<path class="st0" d="M209.15,155.37l-11.99,22.12l-33.17-44.06l26.78-49.41l14.5,19.26
				C216.65,118.39,218.16,138.74,209.15,155.37z"/>
			<g>
				<polyline class="st1" points="198.59,174.85 197.16,177.49 195.36,175.09 				"/>
				<line class="st2" x1="192.07" y1="170.73" x2="167.44" y2="138.01"/>
				<polyline class="st1" points="165.79,135.83 163.99,133.43 165.42,130.79 				"/>
				<line class="st3" x1="168.08" y1="125.89" x2="188.01" y2="89.11"/>
				<polyline class="st1" points="189.34,86.66 190.77,84.02 192.57,86.42 				"/>
				<path class="st4" d="M196.06,91.04l9.21,12.24c11.37,15.11,12.89,35.46,3.88,52.09l-9.18,16.94"/>
			</g>
		</g>
		<g>
			<path class="st0" d="M160.99,244.24l-33.25,61.34c-6.05,11.16-21.62,12.32-29.26,2.18l-9.04-12.01
				c-4.75-6.31-5.39-14.82-1.62-21.76l16.12-29.75H160.99z"/>
			<g>
				<polyline class="st1" points="157.99,244.24 160.99,244.24 159.56,246.88 				"/>
				<path class="st5" d="M156.76,252.05l-29.01,53.54c-6.05,11.16-21.62,12.32-29.26,2.18l-9.04-12.01
					c-4.75-6.31-5.39-14.82-1.62-21.76l13.29-24.53"/>
				<polyline class="st1" points="102.51,246.88 103.94,244.24 106.94,244.24 				"/>
				<line class="st6" x1="112.61" y1="244.24" x2="155.15" y2="244.24"/>
			</g>
		</g>
		<g>
			<polygon class="st0" points="218.06,244.24 161.97,244.24 161.4,243.48 128.22,199.42 151.7,156.1 184.87,200.16 184.87,200.17 
							"/>
			<g>
				<polyline class="st1" points="216.26,241.84 218.06,244.24 215.06,244.24 				"/>
				<line class="st7" x1="209.5" y1="244.24" x2="167.75" y2="244.24"/>
				<polyline class="st1" points="164.97,244.24 161.97,244.24 161.4,243.48 160.17,241.84 				"/>
				<line class="st8" x1="156.82" y1="237.4" x2="131.7" y2="204.04"/>
				<polyline class="st1" points="130.03,201.82 128.22,199.42 129.65,196.78 				"/>
				<line class="st9" x1="132.6" y1="191.35" x2="148.8" y2="161.45"/>
				<polyline class="st1" points="150.27,158.74 151.7,156.1 153.5,158.5 				"/>
				<polyline class="st10" points="157.2,163.4 184.87,200.16 184.87,200.17 214.41,239.39 				"/>
			</g>
		</g>
		<g>
			<path class="st0" d="M171.34,75.77L67.74,266.93l-17-22.58c-9.85-13.09-11.17-30.72-3.36-45.12l75.87-139.99
				c9.57-17.65,34.19-19.49,46.27-3.45l0.37,0.49C174.14,61.94,174.71,69.55,171.34,75.77z"/>
			<g>
				<polyline class="st1" points="69.17,264.29 67.74,266.93 65.94,264.53 				"/>
				<path class="st11" d="M62.32,259.73l-11.58-15.38c-9.85-13.09-11.17-30.72-3.36-45.12l75.87-139.99
					c9.57-17.65,34.19-19.49,46.27-3.45l0.37,0.49c4.25,5.65,4.82,13.26,1.45,19.48L70.6,261.65"/>
			</g>
		</g>
	</g>
	<g>
		<circle class="st12" cx="105.73" cy="283.69" r="20.35"/>
	</g>
	<g>
		<circle class="st13" cx="112.39" cy="297.22" r="17.49"/>
	</g>
	<g>
		<circle class="st14" cx="147.52" cy="72.25" r="27.45"/>
	</g>
	<g>
		
			<ellipse transform="matrix(0.5257 -0.8507 0.8507 0.5257 16.9119 164.8976)" class="st15" cx="156.34" cy="67.28" rx="17.19" ry="17.19"/>
	</g>
	<g>
		<circle class="st16" cx="166.97" cy="132.42" r="48.02"/>
	</g>
	<g>
		<circle class="st17" cx="83.66" cy="219.06" r="41.35"/>
	</g>
	<g>
		<path class="st18" d="M424.04,75.77l-103.6,191.16l-17-22.58c-9.85-13.09-11.17-30.72-3.36-45.12l75.87-139.99
			c9.57-17.65,34.19-19.49,46.27-3.45l0.37,0.49C426.84,61.94,427.41,69.55,424.04,75.77z"/>
		<path class="st19" d="M461.85,155.37l-11.99,22.12l-33.17-44.06l26.78-49.41l14.5,19.26
			C469.34,118.39,470.86,138.74,461.85,155.37z"/>
		<path class="st19" d="M413.69,244.24l-33.25,61.34c-6.05,11.16-21.62,12.32-29.26,2.18l-9.04-12.01
			c-4.75-6.31-5.39-14.82-1.62-21.76l16.12-29.75H413.69z"/>
		<polygon class="st18" points="470.76,244.24 414.67,244.24 414.1,243.48 380.92,199.42 404.4,156.1 437.57,200.16 437.57,200.17 
					"/>
	</g>
	<g>
		<g>
			<g>
				<line class="st1" x1="155.22" y1="0.24" x2="153.79" y2="2.88"/>
				<line class="st20" x1="150.92" y1="8.17" x2="3.09" y2="280.95"/>
				<line class="st1" x1="1.65" y1="283.6" x2="0.22" y2="286.24"/>
			</g>
		</g>
		<g>
			<g>
				<line class="st1" x1="192.22" y1="37.24" x2="190.79" y2="39.88"/>
				<line class="st20" x1="187.92" y1="45.17" x2="40.09" y2="317.95"/>
				<line class="st1" x1="38.65" y1="320.6" x2="37.22" y2="323.24"/>
			</g>
		</g>
		<g>
			<g>
				<line class="st1" x1="207.72" y1="52.74" x2="206.29" y2="55.38"/>
				<line class="st20" x1="203.42" y1="60.67" x2="55.59" y2="333.45"/>
				<line class="st1" x1="54.15" y1="336.1" x2="52.72" y2="338.74"/>
			</g>
		</g>
		<g>
			<g>
				<line class="st1" x1="244.72" y1="89.74" x2="243.29" y2="92.38"/>
				<line class="st20" x1="240.42" y1="97.67" x2="92.59" y2="370.45"/>
				<line class="st1" x1="91.15" y1="373.1" x2="89.72" y2="375.74"/>
			</g>
		</g>
		<g>
			<g>
				<line class="st1" x1="135.22" y1="10.24" x2="137.03" y2="12.64"/>
				<line class="st21" x1="140.58" y1="17.36" x2="259.64" y2="175.48"/>
				<line class="st1" x1="261.42" y1="177.84" x2="263.22" y2="180.24"/>
			</g>
		</g>
		<g>
			<g>
				<line class="st1" x1="98.72" y1="46.74" x2="100.53" y2="49.14"/>
				<line class="st21" x1="104.08" y1="53.86" x2="223.14" y2="211.98"/>
				<line class="st1" x1="224.92" y1="214.34" x2="226.72" y2="216.74"/>
			</g>
		</g>
		<g>
			<g>
				<line class="st1" x1="98.72" y1="85.74" x2="100.53" y2="88.14"/>
				<line class="st21" x1="104.08" y1="92.86" x2="223.14" y2="250.98"/>
				<line class="st1" x1="224.92" y1="253.34" x2="226.72" y2="255.74"/>
			</g>
		</g>
		<g>
			<g>
				<line class="st1" x1="66.72" y1="117.74" x2="68.53" y2="120.14"/>
				<line class="st21" x1="72.08" y1="124.86" x2="191.14" y2="282.98"/>
				<line class="st1" x1="192.92" y1="285.34" x2="194.72" y2="287.74"/>
			</g>
		</g>
		<g>
			<g>
				<line class="st1" x1="3.22" y1="181.24" x2="5.03" y2="183.64"/>
				<line class="st21" x1="8.58" y1="188.36" x2="127.64" y2="346.48"/>
				<line class="st1" x1="129.42" y1="348.84" x2="131.22" y2="351.24"/>
			</g>
		</g>
		<g>
			<g>
				<line class="st1" x1="91.22" y1="244.24" x2="94.22" y2="244.24"/>
				<line class="st22" x1="100.05" y1="244.24" x2="225.31" y2="244.24"/>
				<line class="st1" x1="228.22" y1="244.24" x2="231.22" y2="244.24"/>
			</g>
		</g>
	</g>
	<g>
		<line class="st23" x1="161.4" y1="243.48" x2="160.99" y2="244.24"/>
	</g>
	<g>
		<line class="st24" x1="161.97" y1="244.24" x2="160.99" y2="244.24"/>
	</g>
</g>
</svg>
