<?xml version="1.0" encoding="utf-8"?>
<!-- Generator: Adobe Illustrator 24.0.2, SVG Export Plug-In . SVG Version: 6.00 Build 0)  -->
<svg version="1.1" id="Layer_1" xmlns="http://www.w3.org/2000/svg" xmlns:xlink="http://www.w3.org/1999/xlink" x="0px" y="0px"
	 viewBox="0 0 470.98 375.98" style="enable-background:new 0 0 470.98 375.98;" xml:space="preserve">
<style type="text/css">
	.st0{fill:#8FB8ED;}
	.st1{fill:#182C4C;}
	.st2{fill:none;stroke:#FF0000;stroke-miterlimit:10;}
</style>
<g>
	<g>
		<path class="st0" d="M424.26,75.77l-103.6,191.16l-17-22.58c-9.85-13.09-11.17-30.72-3.36-45.12l75.87-139.99
			c9.57-17.65,34.19-19.49,46.27-3.45l0.37,0.49C427.06,61.93,427.63,69.55,424.26,75.77z"/>
		<path class="st1" d="M462.07,155.37l-11.99,22.12l-33.17-44.06l26.78-49.41l14.5,19.26C469.56,118.39,471.08,138.74,462.07,155.37
			z"/>
		<path class="st1" d="M413.91,244.24l-33.25,61.34c-6.05,11.16-21.62,12.32-29.26,2.18l-9.04-12.01
			c-4.75-6.31-5.39-14.82-1.62-21.76l16.12-29.75H413.91z"/>
		<polygon class="st0" points="470.98,244.24 414.89,244.24 414.32,243.48 381.14,199.42 404.62,156.1 437.79,200.16 437.79,200.17 
					"/>
	</g>
	<g>
		<g>
			<line class="st2" x1="155.44" y1="0.24" x2="0.44" y2="286.24"/>
			<line class="st2" x1="192.44" y1="37.24" x2="37.44" y2="323.24"/>
			<line class="st2" x1="207.94" y1="52.74" x2="52.94" y2="338.74"/>
			<line class="st2" x1="244.94" y1="89.74" x2="89.94" y2="375.74"/>
			<line class="st2" x1="135.44" y1="10.24" x2="263.44" y2="180.24"/>
			<line class="st2" x1="98.94" y1="46.74" x2="226.94" y2="216.74"/>
			<line class="st2" x1="98.94" y1="85.74" x2="226.94" y2="255.74"/>
			<line class="st2" x1="66.94" y1="117.74" x2="194.94" y2="287.74"/>
			<line class="st2" x1="3.44" y1="181.24" x2="131.44" y2="351.24"/>
			<line class="st2" x1="91.44" y1="244.24" x2="231.44" y2="244.24"/>
		</g>
		<path class="st2" d="M171.56,75.77L67.96,266.93l-17-22.58c-9.85-13.09-11.17-30.72-3.36-45.12l75.87-139.99
			c9.57-17.65,34.19-19.49,46.27-3.45l0.37,0.49C174.36,61.93,174.93,69.55,171.56,75.77z"/>
		<line class="st2" x1="161.62" y1="243.48" x2="161.21" y2="244.24"/>
		<path class="st2" d="M209.37,155.37l-11.99,22.12l-33.17-44.06l26.78-49.41l14.5,19.26C216.86,118.39,218.38,138.74,209.37,155.37
			z"/>
		<path class="st2" d="M161.21,244.24l-33.25,61.34c-6.05,11.16-21.62,12.32-29.26,2.18l-9.04-12.01
			c-4.75-6.31-5.39-14.82-1.62-21.76l16.12-29.75H161.21z"/>
		<polygon class="st2" points="218.28,244.24 162.19,244.24 161.62,243.48 128.44,199.42 151.92,156.1 185.09,200.16 185.09,200.17 
					"/>
		<line class="st2" x1="162.19" y1="244.24" x2="161.21" y2="244.24"/>
	</g>
</g>
<g>
</g>
<g>
</g>
<g>
</g>
<g>
</g>
<g>
</g>
<g>
</g>
<g>
</g>
<g>
</g>
<g>
</g>
<g>
</g>
<g>
</g>
<g>
</g>
<g>
</g>
<g>
</g>
<g>
</g>
</svg>
