<?xml version="1.0" encoding="utf-8"?>
<!-- Generator: Adobe Illustrator 24.0.2, SVG Export Plug-In . SVG Version: 6.00 Build 0)  -->
<svg version="1.1" id="Layer_1" xmlns="http://www.w3.org/2000/svg" xmlns:xlink="http://www.w3.org/1999/xlink" x="0px" y="0px"
	 viewBox="0 0 1299.63 240.66" style="enable-background:new 0 0 1299.63 240.66;" xml:space="preserve">
<style type="text/css">
	.st0{fill:#182C4C;}
</style>
<g>
	<path class="st0" d="M102.7,66.43C92.65,57.4,78.35,52.88,59.78,52.88c-10.73,0-20.99,1.49-30.79,4.47
		c-9.8,2.98-18.18,7.28-25.17,12.9l10.22,18.4c5.28-4.43,11.75-7.96,19.42-10.6c7.66-2.64,15.5-3.96,23.5-3.96
		c12.09,0,21.16,2.85,27.21,8.56c6.04,5.71,9.07,13.76,9.07,24.14v4.85H54.42c-13.46,0-24.14,1.79-32.06,5.37
		s-13.63,8.35-17.12,14.31C1.74,137.28,0,143.92,0,151.25c0,7.66,2.04,14.52,6.13,20.57c4.09,6.05,9.92,10.77,17.5,14.18
		c7.58,3.41,16.39,5.11,26.44,5.11c12.43,0,22.74-2.34,30.91-7.03c5.74-3.29,10.24-7.41,13.54-12.34v17.83h23.25v-81.75
		C117.78,89.25,112.75,75.46,102.7,66.43z M78.31,166.06c-6.9,4.09-14.95,6.13-24.14,6.13c-9.37,0-16.69-2-21.97-6
		c-5.28-4-7.92-9.32-7.92-15.97c0-5.79,2.13-10.73,6.39-14.82c4.26-4.09,12.52-6.13,24.78-6.13h37.81v18.91
		C90.19,156.02,85.2,161.98,78.31,166.06z"/>
	<path class="st0" d="M270.3,61.57c-10.22-5.79-21.97-8.69-35.26-8.69c-11.58,0-22.02,2.55-31.3,7.66
		c-6.69,3.68-12.34,8.71-16.99,15.03V54.16h-23.5v184.97h24.53v-70.14c4.61,5.95,10.09,10.75,16.48,14.32
		c9.28,5.2,19.54,7.79,30.79,7.79c13.28,0,25.04-2.89,35.26-8.69c10.22-5.79,18.31-13.88,24.27-24.27
		c5.96-10.39,8.94-22.48,8.94-36.28s-2.98-25.84-8.94-36.15C288.61,75.41,280.52,67.36,270.3,61.57z M272.73,147.03
		c-4,7.24-9.45,12.82-16.35,16.73c-6.9,3.92-14.69,5.88-23.38,5.88c-8.52,0-16.22-1.96-23.12-5.88c-6.9-3.92-12.35-9.49-16.35-16.73
		c-4-7.24-6-15.62-6-25.17c0-9.71,2-18.1,6-25.17c4-7.07,9.45-12.56,16.35-16.48c6.9-3.92,14.6-5.88,23.12-5.88
		c8.69,0,16.48,1.96,23.38,5.88c6.9,3.92,12.35,9.41,16.35,16.48c4,7.07,6,15.46,6,25.17C278.73,131.41,276.72,139.79,272.73,147.03
		z"/>
	<path class="st0" d="M427.67,61.57c-10.05-5.79-21.63-8.69-34.75-8.69c-12.95,0-24.57,2.94-34.87,8.81
		c-10.31,5.88-18.39,14.01-24.27,24.4c-5.88,10.39-8.81,22.32-8.81,35.77c0,13.46,3.02,25.38,9.07,35.77
		c6.04,10.39,14.56,18.57,25.55,24.53c10.99,5.96,23.72,8.94,38.19,8.94c11.24,0,21.42-1.87,30.53-5.62
		c9.11-3.74,16.73-9.2,22.87-16.35l-13.54-15.84c-4.94,5.45-10.69,9.54-17.25,12.26c-6.56,2.73-13.84,4.09-21.84,4.09
		c-9.71,0-18.31-1.96-25.8-5.88c-7.5-3.92-13.33-9.41-17.5-16.48c-3.08-5.21-5.01-10.96-5.82-17.25h109.93
		c0.17-1.19,0.3-2.47,0.38-3.83c0.08-1.36,0.13-2.55,0.13-3.58c0-13.96-2.85-26.19-8.56-36.66C445.6,75.5,437.72,67.36,427.67,61.57
		z M370.19,79.33c6.64-3.83,14.22-5.75,22.74-5.75c8.69,0,16.31,1.92,22.87,5.75c6.55,3.83,11.71,9.16,15.46,15.97
		c2.84,5.17,4.55,10.87,5.14,17.12h-87.03c0.72-6.2,2.46-11.87,5.24-16.99C358.35,88.52,363.55,83.16,370.19,79.33z"/>
	<polygon class="st0" points="601.4,54.16 574.58,54.16 537.4,102.98 500.23,54.16 472.89,54.16 523.65,120.36 470.34,189.57 
		497.68,189.57 537.2,137.64 576.36,189.57 604.21,189.57 550.37,120.27 	"/>
	<path class="st0" d="M738.08,61.57c-10.22-5.79-21.97-8.69-35.26-8.69c-11.24,0-21.51,2.55-30.79,7.66
		c-6.39,3.52-11.87,8.27-16.48,14.2V0h-24.53v189.57h23.5v-21.41c4.65,6.35,10.3,11.41,16.99,15.15c9.28,5.2,19.71,7.79,31.3,7.79
		c13.28,0,25.04-2.89,35.26-8.69c10.22-5.79,18.31-13.88,24.27-24.27c5.96-10.39,8.94-22.48,8.94-36.28s-2.98-25.84-8.94-36.15
		C756.39,75.41,748.3,67.36,738.08,61.57z M740.51,147.03c-4,7.24-9.45,12.82-16.35,16.73c-6.9,3.92-14.69,5.88-23.38,5.88
		c-8.52,0-16.22-1.96-23.12-5.88c-6.9-3.92-12.35-9.49-16.35-16.73c-4-7.24-6-15.62-6-25.17c0-9.71,2-18.1,6-25.17
		c4-7.07,9.45-12.56,16.35-16.48c6.9-3.92,14.6-5.88,23.12-5.88c8.69,0,16.48,1.96,23.38,5.88c6.9,3.92,12.35,9.41,16.35,16.48
		c4,7.07,6,15.46,6,25.17C746.51,131.41,744.51,139.79,740.51,147.03z"/>
	<path class="st0" d="M850.45,162.37L803.23,54.16h-25.55l59.75,135.06l-4.31,9.54c-3.41,7.83-7.07,13.28-10.99,16.35
		c-3.92,3.07-8.86,4.6-14.82,4.6c-4.6,0-8.94-0.85-13.03-2.55c-4.09-1.7-7.84-4.18-11.24-7.41l-10.48,18.4
		c4.43,4.09,9.71,7.19,15.84,9.32c6.13,2.13,12.43,3.19,18.91,3.19c6.98,0,13.37-1.15,19.16-3.45c5.79-2.3,11.11-6.18,15.97-11.62
		c4.85-5.45,9.24-12.95,13.16-22.48l65.66-148.95h-24.02L850.45,162.37z"/>
	<path class="st0" d="M994.07,170.41c-6.81,0-12.05-1.96-15.71-5.88c-3.66-3.92-5.49-9.54-5.49-16.86V74.34h38.83V54.16h-38.83
		V24.53h-24.53v29.64h-22.99v20.18h22.99v74.35c0,13.63,3.74,24.1,11.24,31.42c7.49,7.33,18.05,10.99,31.68,10.99
		c5.62,0,11.03-0.77,16.22-2.3c5.19-1.53,9.67-3.92,13.41-7.15l-7.66-17.63C1008.12,168.28,1001.73,170.41,994.07,170.41z"/>
	<path class="st0" d="M1136.12,61.57c-10.05-5.79-21.63-8.69-34.75-8.69c-12.95,0-24.57,2.94-34.87,8.81
		c-10.31,5.88-18.39,14.01-24.27,24.4c-5.88,10.39-8.81,22.32-8.81,35.77c0,13.46,3.02,25.38,9.07,35.77
		c6.04,10.39,14.56,18.57,25.55,24.53c10.99,5.96,23.72,8.94,38.2,8.94c11.24,0,21.42-1.87,30.53-5.62
		c9.11-3.74,16.73-9.2,22.87-16.35l-13.54-15.84c-4.94,5.45-10.69,9.54-17.24,12.26c-6.56,2.73-13.84,4.09-21.84,4.09
		c-9.71,0-18.31-1.96-25.8-5.88c-7.5-3.92-13.33-9.41-17.5-16.48c-3.08-5.21-5.01-10.96-5.82-17.25h109.93
		c0.17-1.19,0.3-2.47,0.38-3.83c0.08-1.36,0.13-2.55,0.13-3.58c0-13.96-2.85-26.19-8.56-36.66
		C1154.04,75.5,1146.16,67.36,1136.12,61.57z M1078.63,79.33c6.64-3.83,14.22-5.75,22.74-5.75c8.69,0,16.31,1.92,22.87,5.75
		c6.56,3.83,11.71,9.16,15.46,15.97c2.84,5.17,4.55,10.87,5.14,17.12h-87.03c0.72-6.2,2.46-11.87,5.24-16.99
		C1066.79,88.52,1071.99,83.16,1078.63,79.33z"/>
	<path class="st0" d="M1294.9,132.6c-3.15-4.6-7.24-8.18-12.26-10.73c-5.02-2.55-10.6-4.55-16.73-6c-6.13-1.44-12.26-2.64-18.4-3.58
		c-6.13-0.93-11.71-2.08-16.73-3.45c-5.03-1.36-9.11-3.28-12.26-5.75c-3.15-2.47-4.73-6-4.73-10.6c0-5.45,2.64-9.92,7.92-13.41
		c5.28-3.49,13.28-5.24,24.02-5.24c6.64,0,13.28,0.77,19.93,2.3c6.64,1.53,13.03,4.34,19.16,8.43l10.48-19.42
		c-5.79-3.92-13.24-6.94-22.35-9.07c-9.11-2.13-18.1-3.19-26.95-3.19c-11.59,0-21.59,1.66-30.02,4.98
		c-8.43,3.32-14.95,8.05-19.55,14.18c-4.6,6.13-6.9,13.29-6.9,21.46c0,7.84,1.53,14.1,4.6,18.78c3.07,4.69,7.15,8.35,12.26,10.99
		c5.11,2.64,10.73,4.69,16.86,6.13c6.13,1.45,12.26,2.64,18.4,3.58c6.13,0.94,11.71,2,16.73,3.19c5.02,1.19,9.07,2.98,12.14,5.37
		c3.07,2.39,4.6,5.71,4.6,9.96c0,5.79-2.52,10.31-7.54,13.54c-5.02,3.24-13.24,4.85-24.65,4.85c-8.86,0-17.54-1.36-26.06-4.09
		c-8.52-2.72-15.67-6.04-21.46-9.96l-10.22,19.42c5.79,4.43,13.75,8.18,23.89,11.24c10.13,3.07,20.82,4.6,32.06,4.6
		c12.09,0,22.48-1.66,31.17-4.98c8.69-3.32,15.41-7.96,20.18-13.92c4.77-5.96,7.15-13.03,7.15-21.21
		C1299.63,143.33,1298.05,137.19,1294.9,132.6z"/>
</g>
<g>
</g>
<g>
</g>
<g>
</g>
<g>
</g>
<g>
</g>
<g>
</g>
<g>
</g>
<g>
</g>
<g>
</g>
<g>
</g>
<g>
</g>
<g>
</g>
<g>
</g>
<g>
</g>
<g>
</g>
</svg>
