<?xml version="1.0" encoding="utf-8"?>
<!-- Generator: Adobe Illustrator 24.0.2, SVG Export Plug-In . SVG Version: 6.00 Build 0)  -->
<svg version="1.1" id="Layer_1" xmlns="http://www.w3.org/2000/svg" xmlns:xlink="http://www.w3.org/1999/xlink" x="0px" y="0px"
	 viewBox="0 0 177.47 252.83" style="enable-background:new 0 0 177.47 252.83;" xml:space="preserve">
<style type="text/css">
	.st0{fill:#8FB8ED;}
	.st1{fill:#182C4C;}
	.st2{fill:none;stroke:#FF0000;stroke-miterlimit:10;}
</style>
<g>
	<g>
		<path class="st0" d="M2.45,158.33l82-149c0,0,12-18,37-4c12,7,11,19,11,19l-82,144l3,2l-27,49
			C26.45,219.33-9.55,177.33,2.45,158.33z"/>
		<path class="st1" d="M116.63,193.92l-32.18,49.41c0,0-8,14-30,8c-16-5-17-18-17-18l36.97-63.7l27.41,1.16L116.63,193.92z"/>
		<path class="st1" d="M177.45,89.33c-1,18-22,45-22,45l-0.29,0.45l-32.25-48.71l26.54-45.74
			C149.45,40.33,178.45,71.33,177.45,89.33z"/>
		<polygon class="st0" points="167.45,198.33 119.45,198.33 116.63,193.92 101.83,170.79 87.1,147.77 110.95,106.68 141.34,155.98 
					"/>
	</g>
	<circle class="st2" cx="53.45" cy="170.33" r="12.79"/>
	<circle class="st2" cx="116.63" cy="179.5" r="19.33"/>
</g>
<g>
</g>
<g>
</g>
<g>
</g>
<g>
</g>
<g>
</g>
<g>
</g>
<g>
</g>
<g>
</g>
<g>
</g>
<g>
</g>
<g>
</g>
<g>
</g>
<g>
</g>
<g>
</g>
<g>
</g>
</svg>
