<?xml version="1.0" encoding="utf-8"?>
<!-- Generator: Adobe Illustrator 24.0.2, SVG Export Plug-In . SVG Version: 6.00 Build 0)  -->
<svg version="1.1" id="Layer_1" xmlns="http://www.w3.org/2000/svg" xmlns:xlink="http://www.w3.org/1999/xlink" x="0px" y="0px"
	 viewBox="0 0 502.52 829.1" style="enable-background:new 0 0 502.52 829.1;" xml:space="preserve">
<style type="text/css">
	.st0{fill:#284C77;}
	.st1{fill:#1F3B63;}
	.st2{fill:#182C4C;}
	.st3{fill:#FFFFFF;}
</style>
<g>
	<path class="st3" d="M341.73,284h68.97L283.72,0H218.8L92.22,284h67.35l25.31-60.86h131.65L341.73,284z M205.63,173.24l45.2-108.69
		l45.02,108.69H205.63z"/>
	<g>
		<path class="st3" d="M18.99,682.71l15.84-35.54h8.12l15.89,35.54h-8.63l-13-31.38h3.25l-13.05,31.38H18.99z M26.91,675.1
			l2.18-6.25h18.28l2.23,6.25H26.91z"/>
		<path class="st3" d="M62.55,682.71v-35.54h17.37c4.47,0,7.83,0.85,10.08,2.54c2.25,1.69,3.38,3.93,3.38,6.7
			c0,1.86-0.46,3.48-1.37,4.85s-2.17,2.43-3.76,3.17c-1.59,0.75-3.42,1.12-5.48,1.12l0.96-2.08c2.23,0,4.21,0.36,5.94,1.09
			c1.73,0.73,3.07,1.8,4.04,3.22c0.96,1.42,1.45,3.17,1.45,5.23c0,3.05-1.2,5.43-3.61,7.13c-2.4,1.71-5.94,2.56-10.61,2.56H62.55z
			 M70.73,676.52h9.6c2.13,0,3.75-0.35,4.85-1.04c1.1-0.69,1.65-1.8,1.65-3.33c0-1.49-0.55-2.6-1.65-3.33
			c-1.1-0.73-2.72-1.09-4.85-1.09H70.12v-5.99h8.78c2,0,3.53-0.35,4.6-1.04c1.07-0.69,1.6-1.75,1.6-3.17c0-1.39-0.53-2.43-1.6-3.12
			c-1.07-0.69-2.6-1.04-4.6-1.04h-8.17V676.52z"/>
		<path class="st3" d="M118.41,683.32c-2.74,0-5.29-0.45-7.64-1.35c-2.35-0.9-4.39-2.17-6.12-3.83c-1.73-1.66-3.07-3.6-4.04-5.84
			c-0.96-2.23-1.45-4.69-1.45-7.36c0-2.67,0.48-5.13,1.45-7.36s2.32-4.18,4.06-5.84c1.74-1.66,3.78-2.94,6.12-3.83
			c2.34-0.9,4.89-1.35,7.67-1.35c3.08,0,5.86,0.53,8.35,1.6c2.49,1.07,4.58,2.63,6.27,4.7l-5.28,4.87
			c-1.22-1.39-2.57-2.43-4.06-3.12c-1.49-0.69-3.11-1.04-4.87-1.04c-1.66,0-3.18,0.27-4.57,0.81c-1.39,0.54-2.59,1.32-3.61,2.34
			s-1.8,2.22-2.36,3.6c-0.56,1.39-0.84,2.93-0.84,4.62c0,1.69,0.28,3.23,0.84,4.62c0.56,1.39,1.35,2.59,2.36,3.6
			c1.02,1.02,2.22,1.79,3.61,2.34c1.39,0.54,2.91,0.81,4.57,0.81c1.76,0,3.38-0.35,4.87-1.04c1.49-0.69,2.84-1.75,4.06-3.17
			l5.28,4.87c-1.69,2.07-3.78,3.64-6.27,4.72S121.52,683.32,118.41,683.32z"/>
		<path class="st3" d="M138.16,682.71v-35.54h16.15c3.86,0,7.26,0.74,10.21,2.21s5.25,3.53,6.91,6.17c1.66,2.64,2.49,5.77,2.49,9.39
			c0,3.59-0.83,6.71-2.49,9.37c-1.66,2.66-3.96,4.72-6.91,6.19c-2.95,1.47-6.35,2.21-10.21,2.21H138.16z M146.38,675.96h7.51
			c2.37,0,4.42-0.45,6.17-1.35c1.74-0.9,3.1-2.17,4.06-3.83c0.96-1.66,1.45-3.6,1.45-5.84c0-2.27-0.48-4.22-1.45-5.86
			c-0.96-1.64-2.32-2.91-4.06-3.81c-1.74-0.9-3.8-1.35-6.17-1.35h-7.51V675.96z"/>
		<path class="st3" d="M180.1,682.71v-35.54h26.86v6.6h-18.69v22.34h19.35v6.6H180.1z M187.66,667.89v-6.4h17.11v6.4H187.66z"/>
		<path class="st3" d="M214.17,682.71v-35.54h26.86v6.6h-18.63v28.94H214.17z M221.79,669.77v-6.6h17.06v6.6H221.79z"/>
		<path class="st3" d="M263.42,683.32c-2.81,0-5.39-0.45-7.74-1.35c-2.35-0.9-4.4-2.17-6.14-3.83c-1.74-1.66-3.1-3.6-4.06-5.84
			c-0.96-2.23-1.45-4.69-1.45-7.36c0-2.67,0.48-5.13,1.45-7.36s2.33-4.18,4.09-5.84c1.76-1.66,3.83-2.94,6.2-3.83
			c2.37-0.9,4.98-1.35,7.82-1.35c3.15,0,5.98,0.52,8.5,1.57c2.52,1.05,4.65,2.57,6.37,4.57l-5.28,4.87
			c-1.29-1.35-2.69-2.36-4.21-3.02s-3.18-0.99-4.98-0.99c-1.73,0-3.3,0.27-4.72,0.81c-1.42,0.54-2.65,1.32-3.68,2.34
			c-1.03,1.02-1.83,2.22-2.39,3.6c-0.56,1.39-0.84,2.93-0.84,4.62c0,1.66,0.28,3.18,0.84,4.57c0.56,1.39,1.35,2.6,2.39,3.63
			c1.03,1.03,2.25,1.82,3.66,2.36c1.4,0.54,2.95,0.81,4.65,0.81c1.62,0,3.21-0.26,4.75-0.79c1.54-0.52,3.04-1.41,4.49-2.67
			l4.67,5.94c-1.93,1.46-4.17,2.57-6.73,3.35C268.51,682.93,265.96,683.32,263.42,683.32z M277.79,678.81l-7.51-1.07v-13.35h7.51
			V678.81z"/>
		<path class="st3" d="M285.41,682.71v-35.54h8.23v35.54H285.41z M293.02,668.14v-6.96h17.37v6.96H293.02z M309.78,682.71v-35.54
			H318v35.54H309.78z"/>
		<path class="st3" d="M326.43,682.71v-35.54h8.23v35.54H326.43z"/>
		<path class="st3" d="M349.64,683.32c-2.4,0-4.61-0.45-6.63-1.35s-3.66-2.17-4.95-3.83l4.57-5.48c0.98,1.29,2.01,2.26,3.1,2.92
			c1.08,0.66,2.25,0.99,3.5,0.99c3.35,0,5.03-1.96,5.03-5.89v-16.91h-12.49v-6.6h20.67v23.05c0,4.4-1.08,7.68-3.25,9.85
			C357.02,682.24,353.83,683.32,349.64,683.32z"/>
		<path class="st3" d="M370.55,682.71v-35.54h8.18v35.54H370.55z M377.92,674.59l-0.46-9.5l17.01-17.92h9.14l-15.33,16.5l-4.57,4.87
			L377.92,674.59z M394.88,682.71l-12.64-15.49l5.38-5.84l16.86,21.33H394.88z"/>
		<path class="st3" d="M408.13,682.71v-35.54h8.22v28.84h17.82v6.7H408.13z"/>
		<path class="st3" d="M438.8,682.71v-35.54h6.8l15.13,25.08h-3.6L472,647.17h6.75l0.1,35.54h-7.72L471.09,659h1.42l-11.88,19.95
			h-3.71L444.79,659h1.73v23.71H438.8z"/>
		<path class="st3" d="M4.21,743.65V708.1h6.8l20.97,25.59h-3.3V708.1h8.12v35.54h-6.75L9.04,718.05h3.3v25.59H4.21z"/>
		<path class="st3" d="M62.5,744.25c-2.81,0-5.41-0.46-7.79-1.37c-2.39-0.91-4.45-2.2-6.19-3.86c-1.74-1.66-3.1-3.6-4.06-5.84
			c-0.96-2.23-1.45-4.67-1.45-7.31c0-2.64,0.48-5.08,1.45-7.31s2.33-4.18,4.09-5.84c1.76-1.66,3.82-2.94,6.19-3.86
			c2.37-0.91,4.94-1.37,7.72-1.37c2.81,0,5.39,0.46,7.74,1.37c2.35,0.91,4.4,2.2,6.14,3.86c1.74,1.66,3.11,3.6,4.09,5.81
			c0.98,2.22,1.47,4.66,1.47,7.34c0,2.64-0.49,5.09-1.47,7.34c-0.98,2.25-2.34,4.2-4.09,5.84c-1.74,1.64-3.79,2.92-6.14,3.83
			S65.28,744.25,62.5,744.25z M62.45,737.25c1.59,0,3.05-0.27,4.39-0.81c1.34-0.54,2.51-1.32,3.53-2.34c1.02-1.02,1.8-2.22,2.36-3.6
			c0.56-1.39,0.84-2.93,0.84-4.62c0-1.69-0.28-3.23-0.84-4.62c-0.56-1.39-1.34-2.59-2.33-3.6c-1-1.02-2.17-1.79-3.53-2.34
			c-1.36-0.54-2.83-0.81-4.42-0.81c-1.59,0-3.05,0.27-4.39,0.81c-1.34,0.54-2.51,1.32-3.53,2.34s-1.8,2.22-2.36,3.6
			c-0.56,1.39-0.84,2.93-0.84,4.62c0,1.66,0.28,3.19,0.84,4.6c0.56,1.41,1.34,2.62,2.34,3.63c1,1.02,2.17,1.79,3.53,2.34
			C59.39,736.98,60.86,737.25,62.45,737.25z"/>
		<path class="st3" d="M88.09,743.65V708.1h15.38c3.18,0,5.92,0.52,8.23,1.55c2.3,1.03,4.08,2.51,5.33,4.44
			c1.25,1.93,1.88,4.23,1.88,6.91c0,2.64-0.63,4.93-1.88,6.85c-1.25,1.93-3.03,3.41-5.33,4.44c-2.3,1.03-5.04,1.55-8.23,1.55H92.66
			l3.66-3.71v13.51H88.09z M96.32,731.05l-3.66-3.91h10.36c2.54,0,4.43-0.54,5.69-1.62c1.25-1.08,1.88-2.59,1.88-4.52
			c0-1.96-0.63-3.49-1.88-4.57c-1.25-1.08-3.15-1.62-5.69-1.62H92.66l3.66-3.91V731.05z"/>
		<path class="st3" d="M142.47,744.25c-2.78,0-5.36-0.46-7.74-1.37c-2.39-0.91-4.45-2.2-6.19-3.86c-1.74-1.66-3.1-3.6-4.06-5.84
			c-0.96-2.23-1.45-4.67-1.45-7.31c0-2.64,0.48-5.08,1.45-7.31s2.33-4.18,4.09-5.84c1.76-1.66,3.82-2.94,6.19-3.86
			c2.37-0.91,4.94-1.37,7.72-1.37c2.81,0,5.39,0.46,7.74,1.37c2.35,0.91,4.4,2.19,6.14,3.83c1.74,1.64,3.11,3.58,4.09,5.81
			c0.98,2.23,1.47,4.69,1.47,7.36c0,2.64-0.49,5.09-1.47,7.34c-0.98,2.25-2.34,4.2-4.09,5.84c-1.74,1.64-3.79,2.92-6.14,3.83
			S145.28,744.25,142.47,744.25z M142.47,737.25c1.59,0,3.05-0.27,4.39-0.81c1.34-0.54,2.51-1.32,3.53-2.34
			c1.02-1.02,1.8-2.23,2.36-3.63c0.56-1.4,0.84-2.94,0.84-4.6c0-1.69-0.28-3.23-0.84-4.62c-0.56-1.39-1.34-2.59-2.36-3.6
			s-2.19-1.79-3.53-2.34c-1.34-0.54-2.8-0.81-4.39-0.81c-1.59,0-3.06,0.27-4.42,0.81c-1.35,0.54-2.53,1.32-3.53,2.34
			c-1,1.02-1.78,2.22-2.34,3.6c-0.56,1.39-0.84,2.93-0.84,4.62c0,1.66,0.28,3.19,0.84,4.6c0.56,1.41,1.34,2.62,2.34,3.63
			c1,1.02,2.17,1.79,3.53,2.34C139.41,736.98,140.88,737.25,142.47,737.25z M154.1,751.82c-1.39,0-2.7-0.15-3.93-0.46
			s-2.45-0.8-3.66-1.47c-1.2-0.68-2.46-1.59-3.76-2.74c-1.3-1.15-2.72-2.57-4.24-4.27l8.63-2.18c0.91,1.25,1.76,2.25,2.54,3
			s1.53,1.27,2.26,1.57c0.73,0.3,1.5,0.46,2.31,0.46c2.17,0,4.1-0.88,5.79-2.64l3.66,4.37C161.29,750.36,158.1,751.82,154.1,751.82z
			"/>
		<path class="st3" d="M168.12,743.65V708.1h15.18c4.94,0,8.79,1.14,11.53,3.43c2.74,2.28,4.11,5.44,4.11,9.47
			c0,2.64-0.63,4.92-1.88,6.83c-1.25,1.91-3.03,3.38-5.33,4.39c-2.3,1.02-5.04,1.52-8.23,1.52h-10.81l3.66-3.6v13.51H168.12z
			 M176.34,731.05l-3.66-3.86h10.36c2.54,0,4.43-0.55,5.69-1.65c1.25-1.1,1.88-2.61,1.88-4.54c0-1.96-0.63-3.49-1.88-4.57
			c-1.25-1.08-3.15-1.62-5.69-1.62h-10.36l3.66-3.91V731.05z M190.71,743.65l-8.89-12.9h8.78l8.99,12.9H190.71z"/>
		<path class="st3" d="M217.11,744.25c-2.84,0-5.57-0.38-8.17-1.14s-4.71-1.75-6.3-2.97l2.79-6.19c1.52,1.08,3.33,1.97,5.41,2.67
			c2.08,0.69,4.19,1.04,6.32,1.04c1.62,0,2.94-0.16,3.94-0.48c1-0.32,1.73-0.77,2.21-1.35c0.47-0.58,0.71-1.24,0.71-1.98
			c0-0.95-0.37-1.7-1.12-2.26c-0.75-0.56-1.73-1.02-2.95-1.37s-2.56-0.69-4.04-1.02c-1.47-0.32-2.95-0.72-4.42-1.19
			c-1.47-0.47-2.82-1.08-4.04-1.83c-1.22-0.74-2.21-1.73-2.97-2.94s-1.14-2.78-1.14-4.67c0-2.03,0.55-3.88,1.65-5.56
			c1.1-1.68,2.76-3.01,4.98-4.01c2.22-1,5-1.5,8.35-1.5c2.23,0,4.43,0.26,6.6,0.79c2.17,0.53,4.08,1.31,5.74,2.36l-2.54,6.25
			c-1.66-0.95-3.32-1.65-4.98-2.11c-1.66-0.46-3.28-0.69-4.88-0.69c-1.59,0-2.89,0.19-3.91,0.56c-1.02,0.37-1.74,0.85-2.18,1.45
			c-0.44,0.59-0.66,1.28-0.66,2.06c0,0.91,0.37,1.65,1.12,2.21c0.74,0.56,1.73,1.01,2.95,1.35c1.22,0.34,2.56,0.68,4.04,1.02
			c1.47,0.34,2.95,0.73,4.42,1.17c1.47,0.44,2.82,1.03,4.04,1.78c1.22,0.75,2.21,1.73,2.97,2.95c0.76,1.22,1.14,2.76,1.14,4.62
			c0,2-0.56,3.83-1.68,5.48c-1.12,1.66-2.78,3-5,4.01C223.3,743.75,220.5,744.25,217.11,744.25z"/>
		<path class="st3" d="M244.68,743.65V714.8h-11.37v-6.7h30.97v6.7h-11.37v28.84H244.68z"/>
		<path class="st3" d="M283.78,744.25c-5.04,0-8.99-1.4-11.83-4.21c-2.84-2.81-4.26-6.82-4.26-12.03v-19.9h8.22v19.6
			c0,3.39,0.69,5.82,2.08,7.31c1.39,1.49,3.33,2.23,5.84,2.23c2.5,0,4.45-0.74,5.84-2.23c1.39-1.49,2.08-3.93,2.08-7.31v-19.6h8.12
			v19.9c0,5.21-1.42,9.22-4.27,12.03C292.77,742.85,288.82,744.25,283.78,744.25z"/>
		<path class="st3" d="M318.66,743.65l-15.33-35.54h8.89l13.4,31.48h-5.23L334,708.1h8.17l-15.38,35.54H318.66z"/>
		<path class="st3" d="M354.41,743.65l-11.63-35.54h8.53l10.1,31.48h-4.27l10.56-31.48h7.62l10.16,31.48h-4.11l10.36-31.48h7.87
			l-11.63,35.54h-8.83l-8.99-27.62h2.34l-9.24,27.62H354.41z"/>
		<path class="st3" d="M399.55,743.65l15.28-21.07v5.99l-14.62-20.46h9.34l10.1,14.27l-3.91,0.05l9.95-14.32h8.94l-14.52,20.11
			v-5.89l15.38,21.33H426l-10.46-15.08h3.76l-10.31,15.08H399.55z"/>
		<path class="st3" d="M447.17,743.65v-14.52l1.88,4.98l-15.64-26h8.73l11.98,19.96h-5.03l12.04-19.96h8.07l-15.64,26l1.83-4.98
			v14.52H447.17z"/>
		<path class="st3" d="M470.38,743.65v-5.33l21.99-26.5l1.02,3h-22.59v-6.7h29.91v5.33l-21.93,26.5l-1.02-3h23.71v6.7H470.38z"/>
		<path class="st3" d="M88.53,804.58v-32.5l3.55,3.55H81.42v-6.6h15.33v35.54H88.53z"/>
		<path class="st3" d="M102.64,804.58v-5.33l13.71-12.95c1.08-0.98,1.88-1.86,2.39-2.64c0.51-0.78,0.85-1.49,1.04-2.13
			c0.19-0.64,0.28-1.24,0.28-1.78c0-1.42-0.48-2.51-1.45-3.27s-2.38-1.14-4.24-1.14c-1.49,0-2.87,0.29-4.14,0.86
			c-1.27,0.58-2.34,1.47-3.22,2.69l-5.99-3.86c1.35-2.03,3.25-3.64,5.69-4.82c2.44-1.18,5.25-1.78,8.43-1.78
			c2.64,0,4.95,0.43,6.93,1.29c1.98,0.86,3.52,2.07,4.62,3.63c1.1,1.56,1.65,3.42,1.65,5.59c0,1.15-0.14,2.29-0.43,3.43
			c-0.29,1.13-0.86,2.33-1.73,3.58c-0.86,1.25-2.12,2.66-3.78,4.21l-11.37,10.71l-1.57-3h20.06v6.7H102.64z"/>
		<path class="st3" d="M144.43,805.19c-2.47,0-4.92-0.33-7.36-0.99c-2.44-0.66-4.5-1.6-6.2-2.82l3.2-6.3
			c1.35,0.98,2.93,1.76,4.72,2.34c1.79,0.58,3.6,0.86,5.43,0.86c2.06,0,3.69-0.41,4.88-1.22c1.18-0.81,1.78-1.93,1.78-3.35
			c0-1.35-0.53-2.42-1.57-3.2c-1.05-0.78-2.74-1.17-5.08-1.17h-3.76v-5.43l9.9-11.22l0.91,2.94h-18.63v-6.6h24.88v5.33l-9.85,11.22
			l-4.16-2.39h2.39c4.37,0,7.67,0.98,9.9,2.94c2.23,1.96,3.35,4.49,3.35,7.57c0,2-0.52,3.87-1.57,5.61
			c-1.05,1.74-2.66,3.16-4.82,4.24C150.59,804.64,147.81,805.19,144.43,805.19z"/>
		<path class="st3" d="M162.56,797.11v-5.53l16.76-22.54h8.63l-16.4,22.54l-4.01-1.17h27.98v6.7H162.56z M181.7,804.58v-7.46
			l0.25-6.7v-6.65h7.77v20.82H181.7z"/>
		<path class="st3" d="M213.48,785.69v-5.99h24.17v5.99H213.48z M213.48,804.58v-6.19h24.17v6.19H213.48z M222.27,794.01v-22.65
			h6.55v22.65H222.27z"/>
		<path class="st3" d="M248.11,804.98c-1.42,0-2.59-0.46-3.5-1.37s-1.37-2-1.37-3.25c0-1.29,0.46-2.36,1.37-3.22s2.08-1.29,3.5-1.29
			c1.46,0,2.63,0.43,3.53,1.29s1.35,1.94,1.35,3.22c0,1.25-0.45,2.34-1.35,3.25S249.57,804.98,248.11,804.98z M244.96,792.24
			l-1.57-23.2h9.44l-1.57,23.2H244.96z"/>
		<path class="st3" d="M281.78,815.04c-3.66,0-6.97-0.58-9.95-1.75c-2.98-1.17-5.54-2.8-7.69-4.9c-2.15-2.1-3.81-4.57-4.98-7.41
			s-1.75-5.94-1.75-9.29c0-3.32,0.58-6.38,1.75-9.19c1.17-2.81,2.84-5.26,5-7.36c2.17-2.1,4.76-3.72,7.77-4.87
			c3.01-1.15,6.36-1.73,10.05-1.73c3.55,0,6.8,0.55,9.75,1.65c2.95,1.1,5.48,2.65,7.62,4.65c2.13,2,3.77,4.34,4.92,7.03
			c1.15,2.69,1.73,5.63,1.73,8.81c0,3.01-0.43,5.59-1.29,7.72c-0.86,2.13-2.07,3.76-3.63,4.87c-1.56,1.12-3.39,1.68-5.48,1.68
			c-2.3,0-4.13-0.68-5.48-2.03c-1.35-1.35-2.03-3.33-2.03-5.94v-2.34l0.15-2.74l-0.46-7.36v-4.87h6.91v16.45
			c0,1.22,0.24,2.06,0.71,2.54c0.47,0.47,1.05,0.71,1.73,0.71c0.78,0,1.45-0.3,2.01-0.91c0.56-0.61,0.99-1.55,1.29-2.82
			s0.46-2.89,0.46-4.85c0-2.57-0.45-4.93-1.35-7.06c-0.9-2.13-2.18-3.98-3.86-5.53c-1.68-1.56-3.67-2.75-5.99-3.58
			c-2.32-0.83-4.88-1.24-7.69-1.24c-2.81,0-5.38,0.46-7.72,1.37c-2.34,0.91-4.33,2.19-5.99,3.83c-1.66,1.64-2.94,3.58-3.83,5.81
			c-0.9,2.23-1.35,4.67-1.35,7.31c0,2.71,0.44,5.19,1.32,7.44c0.88,2.25,2.14,4.2,3.78,5.84c1.64,1.64,3.61,2.92,5.92,3.83
			c2.3,0.91,4.86,1.37,7.67,1.37c1.62,0,3.3-0.18,5.03-0.53c1.73-0.36,3.38-0.92,4.97-1.7l1.62,4.67c-1.56,0.78-3.38,1.38-5.46,1.8
			C285.86,814.82,283.81,815.04,281.78,815.04z M279.95,804.93c-2.17,0-4.14-0.53-5.92-1.6c-1.78-1.07-3.19-2.57-4.24-4.52
			c-1.05-1.95-1.57-4.19-1.57-6.73s0.52-4.77,1.55-6.7c1.03-1.93,2.44-3.43,4.21-4.49c1.78-1.07,3.76-1.6,5.97-1.6
			c2.23,0,4.15,0.51,5.74,1.52c1.59,1.02,2.81,2.47,3.66,4.37c0.85,1.9,1.27,4.2,1.27,6.91c0,2.67-0.41,4.98-1.22,6.91
			c-0.81,1.93-2.01,3.4-3.58,4.42C284.24,804.42,282.28,804.93,279.95,804.93z M281.52,799.09c1.22,0,2.31-0.28,3.28-0.84
			c0.96-0.56,1.72-1.36,2.26-2.41c0.54-1.05,0.81-2.3,0.81-3.76c0-1.49-0.27-2.74-0.81-3.76s-1.29-1.79-2.26-2.34
			c-0.96-0.54-2.06-0.81-3.28-0.81s-2.3,0.27-3.25,0.81c-0.95,0.54-1.69,1.33-2.23,2.36c-0.54,1.03-0.81,2.28-0.81,3.73
			c0,1.46,0.27,2.7,0.81,3.73c0.54,1.03,1.29,1.84,2.23,2.41C279.22,798.8,280.3,799.09,281.52,799.09z"/>
		<path class="st3" d="M308.99,796.45v-5.53h32.8v5.53H308.99z M310.72,782.69v-5.53h32.75l0.05,5.53H310.72z M314.63,804.58
			l4.42-35.54h5.69l-4.42,35.54H314.63z M327.78,804.58l4.42-35.54h5.69l-4.37,35.54H327.78z"/>
		<path class="st3" d="M360.42,805.19c-2.84,0-5.57-0.38-8.17-1.14c-2.61-0.76-4.71-1.75-6.3-2.97l2.79-6.19
			c1.52,1.08,3.33,1.97,5.41,2.67c2.08,0.69,4.19,1.04,6.32,1.04c1.62,0,2.94-0.16,3.93-0.48s1.73-0.77,2.21-1.35
			c0.47-0.58,0.71-1.24,0.71-1.98c0-0.95-0.37-1.7-1.12-2.26s-1.73-1.02-2.94-1.37c-1.22-0.36-2.56-0.69-4.04-1.02
			c-1.47-0.32-2.94-0.72-4.42-1.19c-1.47-0.47-2.82-1.08-4.04-1.83c-1.22-0.74-2.21-1.73-2.97-2.94s-1.14-2.78-1.14-4.67
			c0-2.03,0.55-3.88,1.65-5.56c1.1-1.68,2.76-3.01,4.98-4.01c2.22-1,5-1.5,8.35-1.5c2.23,0,4.43,0.26,6.6,0.79
			c2.17,0.53,4.08,1.31,5.74,2.36l-2.54,6.25c-1.66-0.95-3.32-1.65-4.98-2.11s-3.28-0.69-4.87-0.69s-2.89,0.19-3.91,0.56
			c-1.02,0.37-1.74,0.85-2.18,1.45c-0.44,0.59-0.66,1.28-0.66,2.06c0,0.91,0.37,1.65,1.12,2.21c0.74,0.56,1.73,1.01,2.95,1.35
			c1.22,0.34,2.56,0.68,4.04,1.02c1.47,0.34,2.94,0.73,4.42,1.17c1.47,0.44,2.82,1.03,4.04,1.78c1.22,0.75,2.21,1.73,2.97,2.95
			c0.76,1.22,1.14,2.76,1.14,4.62c0,2-0.56,3.83-1.68,5.48c-1.12,1.66-2.79,3-5,4.01S363.81,805.19,360.42,805.19z M358.5,810.67
			v-47.73h5.08v47.73H358.5z"/>
		<path class="st3" d="M387.13,788.23c-1.73,0-3.25-0.4-4.57-1.19c-1.32-0.79-2.36-1.93-3.12-3.4s-1.14-3.21-1.14-5.2
			c0-2,0.38-3.72,1.14-5.18c0.76-1.45,1.8-2.59,3.12-3.4s2.84-1.22,4.57-1.22c1.73,0,3.25,0.41,4.57,1.22
			c1.32,0.81,2.35,1.94,3.1,3.38c0.74,1.44,1.12,3.17,1.12,5.2c0,2-0.37,3.73-1.12,5.2s-1.78,2.61-3.1,3.4
			C390.38,787.83,388.86,788.23,387.13,788.23z M387.13,784.06c1.12,0,2.01-0.46,2.69-1.4c0.68-0.93,1.02-2.34,1.02-4.24
			c0-1.9-0.34-3.31-1.02-4.24c-0.68-0.93-1.57-1.4-2.69-1.4c-1.08,0-1.97,0.47-2.67,1.42c-0.7,0.95-1.04,2.35-1.04,4.21
			c0,1.86,0.35,3.27,1.04,4.21C385.16,783.59,386.05,784.06,387.13,784.06z M384.04,804.58l24.27-35.54h6.04l-24.27,35.54H384.04z
			 M411.25,804.98c-1.69,0-3.21-0.4-4.54-1.19c-1.34-0.79-2.38-1.93-3.12-3.4c-0.75-1.47-1.12-3.21-1.12-5.2
			c0-2,0.37-3.72,1.12-5.18c0.74-1.45,1.78-2.59,3.12-3.4c1.34-0.81,2.85-1.22,4.54-1.22c1.76,0,3.3,0.41,4.62,1.22
			s2.35,1.95,3.1,3.4c0.74,1.46,1.12,3.18,1.12,5.18c0,2-0.37,3.73-1.12,5.2c-0.75,1.47-1.78,2.61-3.1,3.4
			S413.01,804.98,411.25,804.98z M411.25,800.82c1.12,0,2.01-0.47,2.69-1.42c0.68-0.95,1.02-2.35,1.02-4.21
			c0-1.86-0.34-3.27-1.02-4.21c-0.68-0.95-1.57-1.42-2.69-1.42c-1.08,0-1.97,0.47-2.67,1.4c-0.69,0.93-1.04,2.34-1.04,4.24
			c0,1.9,0.35,3.31,1.04,4.24C409.28,800.35,410.17,800.82,411.25,800.82z"/>
	</g>
	<g>
		<path class="st3" d="M76.99,499.71v-30.53h3.58l13.7,23.07h-1.92l13.52-23.07h3.58l0.04,30.53h-4.19l-0.04-23.94h1l-12.04,20.24
			h-2.01l-12.12-20.24h1.09v23.94H76.99z"/>
		<path class="st3" d="M127.93,499.97c-2.33,0-4.39-0.51-6.19-1.53c-1.8-1.02-3.23-2.42-4.27-4.21c-1.05-1.79-1.57-3.82-1.57-6.08
			c0-2.3,0.52-4.33,1.57-6.11c1.05-1.77,2.47-3.16,4.27-4.17c1.8-1,3.87-1.5,6.19-1.5c2.3,0,4.35,0.5,6.17,1.5
			c1.82,1,3.24,2.38,4.27,4.14c1.03,1.76,1.55,3.8,1.55,6.13c0,2.3-0.52,4.33-1.55,6.11c-1.03,1.77-2.46,3.17-4.27,4.19
			C132.28,499.47,130.22,499.97,127.93,499.97z M127.93,496.31c1.48,0,2.81-0.33,3.99-1c1.18-0.67,2.1-1.62,2.77-2.86
			c0.67-1.24,1-2.67,1-4.3c0-1.66-0.33-3.09-1-4.3c-0.67-1.21-1.59-2.14-2.77-2.81c-1.18-0.67-2.51-1-3.99-1s-2.81,0.33-3.97,1
			c-1.16,0.67-2.09,1.61-2.79,2.81c-0.7,1.21-1.05,2.64-1.05,4.3c0,1.63,0.35,3.06,1.05,4.3c0.7,1.24,1.63,2.19,2.79,2.86
			C125.12,495.98,126.44,496.31,127.93,496.31z"/>
		<path class="st3" d="M145.72,499.71V476.6h4.01v6.24l-0.65-1.66c0.76-1.51,1.92-2.69,3.49-3.53c1.57-0.84,3.4-1.27,5.5-1.27
			c1.89,0,3.55,0.36,4.99,1.09c1.44,0.73,2.57,1.83,3.38,3.31c0.81,1.48,1.22,3.36,1.22,5.63v13.3h-4.19v-12.82
			c0-2.24-0.55-3.93-1.64-5.06c-1.09-1.13-2.62-1.7-4.6-1.7c-1.48,0-2.78,0.29-3.88,0.87c-1.1,0.58-1.96,1.44-2.55,2.57
			s-0.89,2.54-0.89,4.23v11.91H145.72z"/>
		<path class="st3" d="M172.11,480.04v-3.45h14.74v3.45H172.11z M183.36,499.97c-2.33,0-4.13-0.62-5.41-1.88
			c-1.28-1.25-1.92-3.04-1.92-5.36v-21.2h4.19v21.02c0,1.25,0.31,2.21,0.94,2.88c0.62,0.67,1.52,1,2.68,1c1.31,0,2.4-0.36,3.27-1.09
			l1.31,3.01c-0.64,0.55-1.4,0.96-2.29,1.22C185.24,499.84,184.32,499.97,183.36,499.97z"/>
		<path class="st3" d="M200.1,499.97c-1.92,0-3.74-0.26-5.47-0.79c-1.73-0.52-3.09-1.16-4.08-1.92l1.74-3.31
			c0.99,0.67,2.21,1.24,3.66,1.7c1.45,0.47,2.94,0.7,4.45,0.7c1.95,0,3.35-0.28,4.21-0.83s1.29-1.32,1.29-2.31
			c0-0.73-0.26-1.29-0.79-1.7c-0.52-0.41-1.21-0.71-2.07-0.92c-0.86-0.2-1.81-0.39-2.86-0.55c-1.05-0.16-2.09-0.36-3.14-0.61
			c-1.05-0.25-2.01-0.6-2.88-1.05c-0.87-0.45-1.57-1.08-2.09-1.88c-0.52-0.8-0.79-1.87-0.79-3.21c0-1.4,0.39-2.62,1.18-3.66
			c0.78-1.05,1.9-1.85,3.34-2.42c1.44-0.57,3.15-0.85,5.12-0.85c1.51,0,3.05,0.18,4.6,0.55c1.55,0.36,2.83,0.88,3.82,1.55
			l-1.79,3.31c-1.05-0.7-2.14-1.18-3.27-1.44s-2.27-0.39-3.4-0.39c-1.83,0-3.2,0.3-4.1,0.89c-0.9,0.6-1.35,1.36-1.35,2.29
			c0,0.78,0.27,1.39,0.81,1.81c0.54,0.42,1.24,0.75,2.09,0.98c0.86,0.23,1.81,0.43,2.86,0.59c1.05,0.16,2.09,0.36,3.14,0.61
			c1.05,0.25,2,0.59,2.86,1.02c0.86,0.44,1.56,1.05,2.09,1.83c0.54,0.79,0.81,1.83,0.81,3.14c0,1.4-0.41,2.6-1.22,3.62
			c-0.81,1.02-1.96,1.81-3.45,2.38S202.17,499.97,200.1,499.97z"/>
		<path class="st3" d="M225.62,499.97c-2.47,0-4.65-0.51-6.52-1.53c-1.88-1.02-3.33-2.41-4.36-4.19c-1.03-1.77-1.55-3.81-1.55-6.11
			c0-2.3,0.5-4.33,1.5-6.11c1-1.77,2.38-3.16,4.14-4.17s3.74-1.5,5.95-1.5c2.24,0,4.22,0.5,5.93,1.48c1.71,0.99,3.06,2.38,4.03,4.17
			c0.97,1.79,1.46,3.87,1.46,6.26c0,0.17-0.01,0.38-0.02,0.61c-0.01,0.23-0.04,0.45-0.06,0.65h-19.67v-3.01h17.49l-1.7,1.05
			c0.03-1.48-0.28-2.81-0.92-3.97c-0.64-1.16-1.52-2.07-2.64-2.73s-2.42-0.98-3.9-0.98c-1.45,0-2.75,0.33-3.88,0.98
			c-1.13,0.65-2.02,1.57-2.66,2.75c-0.64,1.18-0.96,2.52-0.96,4.03v0.7c0,1.54,0.36,2.92,1.07,4.12c0.71,1.21,1.71,2.14,2.99,2.81
			c1.28,0.67,2.75,1,4.41,1c1.37,0,2.61-0.23,3.73-0.7c1.12-0.46,2.1-1.16,2.94-2.09l2.31,2.7c-1.05,1.22-2.35,2.15-3.9,2.79
			C229.27,499.65,227.54,499.97,225.62,499.97z"/>
		<path class="st3" d="M242.01,499.71V476.6h4.01v6.28l-0.39-1.57c0.64-1.6,1.72-2.82,3.23-3.66s3.37-1.27,5.58-1.27v4.06
			c-0.17-0.03-0.34-0.04-0.5-0.04s-0.31,0-0.46,0c-2.24,0-4.01,0.67-5.32,2.01c-1.31,1.34-1.96,3.27-1.96,5.8v11.51H242.01z"/>
		<path class="st3" d="M259.59,499.71V476.6h4.01v6.28l-0.39-1.57c0.64-1.6,1.71-2.82,3.23-3.66c1.51-0.84,3.37-1.27,5.58-1.27v4.06
			c-0.17-0.03-0.34-0.04-0.5-0.04c-0.16,0-0.31,0-0.46,0c-2.24,0-4.01,0.67-5.32,2.01c-1.31,1.34-1.96,3.27-1.96,5.8v11.51H259.59z"
			/>
		<path class="st3" d="M282.35,499.97c-1.72,0-3.22-0.29-4.51-0.87c-1.29-0.58-2.29-1.39-2.99-2.42c-0.7-1.03-1.05-2.2-1.05-3.51
			c0-1.25,0.3-2.38,0.89-3.4c0.6-1.02,1.57-1.83,2.92-2.44c1.35-0.61,3.18-0.92,5.47-0.92h7.33v3.01h-7.15
			c-2.09,0-3.5,0.35-4.23,1.05c-0.73,0.7-1.09,1.54-1.09,2.53c0,1.13,0.45,2.04,1.35,2.73s2.15,1.02,3.75,1.02
			c1.57,0,2.94-0.35,4.12-1.05s2.03-1.72,2.55-3.05l0.83,2.88c-0.55,1.37-1.53,2.45-2.92,3.25
			C286.24,499.58,284.48,499.97,282.35,499.97z M289.94,499.71v-4.88l-0.22-0.92v-8.33c0-1.77-0.52-3.15-1.55-4.12
			c-1.03-0.97-2.58-1.46-4.64-1.46c-1.37,0-2.7,0.23-4.01,0.68c-1.31,0.45-2.41,1.05-3.31,1.81l-1.74-3.14
			c1.19-0.96,2.62-1.69,4.29-2.2s3.42-0.76,5.26-0.76c3.17,0,5.61,0.77,7.33,2.31c1.72,1.54,2.57,3.9,2.57,7.07v13.96H289.94z"/>
		<path class="st3" d="M298.36,480.04v-3.45h14.74v3.45H298.36z M309.61,499.97c-2.33,0-4.13-0.62-5.41-1.88
			c-1.28-1.25-1.92-3.04-1.92-5.36v-21.2h4.19v21.02c0,1.25,0.31,2.21,0.94,2.88c0.62,0.67,1.52,1,2.68,1c1.31,0,2.4-0.36,3.27-1.09
			l1.31,3.01c-0.64,0.55-1.4,0.96-2.29,1.22C311.49,499.84,310.57,499.97,309.61,499.97z"/>
		<path class="st3" d="M332.07,499.71v-30.53h13.69c3.52,0,6.22,0.71,8.11,2.12c1.89,1.41,2.83,3.34,2.83,5.78
			c0,1.66-0.37,3.05-1.11,4.19c-0.74,1.13-1.74,2.01-2.99,2.62s-2.6,0.92-4.06,0.92l0.79-1.31c1.74,0,3.29,0.31,4.62,0.92
			c1.34,0.61,2.4,1.5,3.18,2.68c0.79,1.18,1.18,2.64,1.18,4.38c0,2.62-0.98,4.64-2.94,6.08c-1.96,1.44-4.88,2.16-8.74,2.16H332.07z
			 M336.43,496.18h10.03c2.41,0,4.26-0.41,5.54-1.22c1.28-0.81,1.92-2.09,1.92-3.84c0-1.77-0.64-3.07-1.92-3.88
			c-1.28-0.81-3.13-1.22-5.54-1.22h-10.42v-3.53h9.33c2.21,0,3.92-0.41,5.15-1.22c1.22-0.81,1.83-2.03,1.83-3.66
			c0-1.63-0.61-2.85-1.83-3.66c-1.22-0.81-2.94-1.22-5.15-1.22h-8.94V496.18z"/>
		<path class="st3" d="M374.37,499.97c-2.33,0-4.39-0.51-6.19-1.53c-1.8-1.02-3.23-2.42-4.27-4.21s-1.57-3.82-1.57-6.08
			c0-2.3,0.52-4.33,1.57-6.11s2.47-3.16,4.27-4.17c1.8-1,3.87-1.5,6.19-1.5c2.3,0,4.35,0.5,6.17,1.5c1.82,1,3.24,2.38,4.27,4.14
			c1.03,1.76,1.55,3.8,1.55,6.13c0,2.3-0.52,4.33-1.55,6.11c-1.03,1.77-2.46,3.17-4.27,4.19
			C378.73,499.47,376.67,499.97,374.37,499.97z M374.37,496.31c1.48,0,2.81-0.33,3.99-1c1.18-0.67,2.1-1.62,2.77-2.86
			c0.67-1.24,1-2.67,1-4.3c0-1.66-0.33-3.09-1-4.3c-0.67-1.21-1.59-2.14-2.77-2.81c-1.18-0.67-2.51-1-3.99-1
			c-1.48,0-2.81,0.33-3.97,1c-1.16,0.67-2.09,1.61-2.79,2.81c-0.7,1.21-1.05,2.64-1.05,4.3c0,1.63,0.35,3.06,1.05,4.3
			c0.7,1.24,1.63,2.19,2.79,2.86C371.57,495.98,372.89,496.31,374.37,496.31z"/>
		<path class="st3" d="M392.17,499.71v-32.36h4.19v32.36H392.17z"/>
		<path class="st3" d="M413.88,499.97c-2.24,0-4.24-0.49-6-1.48c-1.76-0.99-3.15-2.37-4.17-4.14c-1.02-1.77-1.53-3.84-1.53-6.19
			s0.51-4.41,1.53-6.17c1.02-1.76,2.41-3.13,4.17-4.12c1.76-0.99,3.76-1.48,6-1.48c1.95,0,3.71,0.44,5.28,1.31s2.83,2.18,3.77,3.92
			c0.94,1.74,1.42,3.93,1.42,6.54s-0.46,4.8-1.37,6.54c-0.92,1.74-2.16,3.06-3.73,3.95C417.68,499.53,415.89,499.97,413.88,499.97z
			 M414.23,496.31c1.45,0,2.77-0.33,3.95-1c1.18-0.67,2.11-1.62,2.79-2.86c0.68-1.24,1.02-2.67,1.02-4.3c0-1.66-0.34-3.09-1.02-4.3
			c-0.68-1.21-1.61-2.14-2.79-2.81c-1.18-0.67-2.49-1-3.95-1c-1.48,0-2.81,0.33-3.97,1c-1.16,0.67-2.09,1.61-2.79,2.81
			c-0.7,1.21-1.05,2.64-1.05,4.3c0,1.63,0.35,3.06,1.05,4.3c0.7,1.24,1.63,2.19,2.79,2.86
			C411.43,495.98,412.75,496.31,414.23,496.31z M422.13,499.71v-6.24l0.26-5.36l-0.44-5.36v-15.4h4.19v32.36H422.13z"/>
	</g>
</g>
</svg>
