<?xml version="1.0" encoding="utf-8"?>
<!-- Generator: Adobe Illustrator 24.0.2, SVG Export Plug-In . SVG Version: 6.00 Build 0)  -->
<svg version="1.1" id="Layer_1" xmlns="http://www.w3.org/2000/svg" xmlns:xlink="http://www.w3.org/1999/xlink" x="0px" y="0px"
	 viewBox="0 0 491.45 828.03" style="enable-background:new 0 0 491.45 828.03;" xml:space="preserve">
<style type="text/css">
	.st0{fill:#284C77;}
	.st1{fill:#1F3B63;}
	.st2{fill:#182C4C;}
	.st3{fill:#FFFFFF;}
</style>
<g>
	<path class="st3" d="M352.02,284h42.6L265.61,0h-40.17L96.83,284h41.79l31.2-71h151L352.02,284z M184.08,180.54l61.24-139.36
		l61.24,139.36H184.08z"/>
	<g>
		<path class="st3" d="M17.19,682.71l16.1-35.54h5.03l16.15,35.54h-5.33l-14.37-32.7h2.03l-14.37,32.7H17.19z M24.04,673.83
			l1.37-4.06h20l1.47,4.06H24.04z"/>
		<path class="st3" d="M59.74,682.71v-35.54h15.94c4.09,0,7.24,0.82,9.44,2.46c2.2,1.64,3.3,3.88,3.3,6.73
			c0,1.93-0.43,3.55-1.29,4.87s-2.02,2.34-3.48,3.05c-1.46,0.71-3.03,1.07-4.72,1.07l0.91-1.52c2.03,0,3.83,0.35,5.38,1.07
			c1.56,0.71,2.79,1.75,3.71,3.12c0.91,1.37,1.37,3.07,1.37,5.1c0,3.05-1.14,5.41-3.43,7.08c-2.28,1.68-5.68,2.51-10.18,2.51H59.74z
			 M64.81,678.6h11.68c2.81,0,4.96-0.47,6.45-1.42c1.49-0.95,2.23-2.44,2.23-4.47c0-2.06-0.75-3.57-2.23-4.52
			c-1.49-0.95-3.64-1.42-6.45-1.42H64.36v-4.11h10.87c2.57,0,4.57-0.47,5.99-1.42c1.42-0.95,2.13-2.37,2.13-4.27
			c0-1.9-0.71-3.32-2.13-4.27c-1.42-0.95-3.42-1.42-5.99-1.42H64.81V678.6z"/>
		<path class="st3" d="M114.07,683.12c-2.71,0-5.2-0.45-7.49-1.35c-2.29-0.9-4.26-2.17-5.94-3.81c-1.68-1.64-2.99-3.56-3.94-5.76
			c-0.95-2.2-1.42-4.62-1.42-7.26c0-2.64,0.47-5.06,1.42-7.26c0.95-2.2,2.27-4.12,3.96-5.76c1.69-1.64,3.68-2.91,5.97-3.81
			c2.29-0.9,4.78-1.35,7.49-1.35c2.74,0,5.27,0.47,7.59,1.4c2.32,0.93,4.29,2.31,5.92,4.14l-3.3,3.2c-1.35-1.42-2.88-2.48-4.57-3.17
			c-1.69-0.69-3.5-1.04-5.43-1.04c-2,0-3.85,0.34-5.56,1.02c-1.71,0.68-3.19,1.62-4.44,2.84c-1.25,1.22-2.23,2.67-2.92,4.34
			c-0.69,1.68-1.04,3.5-1.04,5.46c0,1.96,0.35,3.78,1.04,5.46c0.69,1.68,1.67,3.12,2.92,4.34s2.73,2.17,4.44,2.84
			c1.71,0.68,3.56,1.02,5.56,1.02c1.93,0,3.74-0.35,5.43-1.04c1.69-0.69,3.21-1.77,4.57-3.22l3.3,3.2c-1.62,1.83-3.6,3.22-5.92,4.16
			C119.39,682.65,116.84,683.12,114.07,683.12z"/>
		<path class="st3" d="M134.38,682.71v-35.54h14.98c3.79,0,7.13,0.75,10.03,2.23c2.89,1.49,5.14,3.57,6.75,6.25
			c1.61,2.67,2.41,5.77,2.41,9.29c0,3.52-0.8,6.62-2.41,9.29c-1.61,2.67-3.86,4.76-6.75,6.25c-2.89,1.49-6.24,2.23-10.03,2.23
			H134.38z M139.45,678.3h9.6c2.95,0,5.49-0.56,7.64-1.68c2.15-1.12,3.82-2.68,5-4.7c1.18-2.01,1.78-4.34,1.78-6.98
			c0-2.67-0.59-5.01-1.78-7.01c-1.18-2-2.85-3.55-5-4.67c-2.15-1.12-4.7-1.68-7.64-1.68h-9.6V678.3z"/>
		<path class="st3" d="M176.32,682.71v-35.54h25.08v4.42h-20v26.71h20.72v4.42H176.32z M180.94,666.82v-4.32h18.28v4.32H180.94z"/>
		<path class="st3" d="M210.33,682.71v-35.54h25.08v4.42h-20v31.13H210.33z M214.91,668.35v-4.37h18.33v4.37H214.91z"/>
		<path class="st3" d="M258.22,683.12c-2.74,0-5.26-0.45-7.57-1.35c-2.3-0.9-4.3-2.17-5.99-3.81c-1.69-1.64-3.01-3.56-3.96-5.76
			c-0.95-2.2-1.42-4.62-1.42-7.26c0-2.64,0.47-5.06,1.42-7.26c0.95-2.2,2.28-4.12,3.99-5.76c1.71-1.64,3.71-2.91,6.02-3.81
			c2.3-0.9,4.84-1.35,7.62-1.35c2.81,0,5.38,0.46,7.72,1.37c2.34,0.91,4.32,2.29,5.94,4.11l-3.15,3.15
			c-1.46-1.42-3.04-2.46-4.75-3.12s-3.56-0.99-5.56-0.99c-2.03,0-3.92,0.34-5.66,1.02c-1.74,0.68-3.25,1.62-4.52,2.84
			c-1.27,1.22-2.25,2.67-2.94,4.34c-0.69,1.68-1.04,3.5-1.04,5.46c0,1.93,0.35,3.73,1.04,5.41c0.69,1.68,1.68,3.13,2.94,4.37
			c1.27,1.24,2.77,2.19,4.49,2.87c1.73,0.68,3.6,1.02,5.64,1.02c1.9,0,3.71-0.3,5.46-0.89c1.74-0.59,3.36-1.58,4.85-2.97l2.89,3.86
			c-1.76,1.49-3.82,2.61-6.17,3.38S260.72,683.12,258.22,683.12z M271.67,678.6l-4.88-0.66v-13.2h4.88V678.6z"/>
		<path class="st3" d="M281.37,682.71v-35.54h5.08v35.54H281.37z M285.94,666.87v-4.42h21.38v4.42H285.94z M306.86,682.71v-35.54
			h5.08v35.54H306.86z"/>
		<path class="st3" d="M322.6,682.71v-35.54h5.08v35.54H322.6z"/>
		<path class="st3" d="M342.91,683.12c-2.1,0-4.06-0.44-5.89-1.32c-1.83-0.88-3.32-2.15-4.47-3.81l2.95-3.45
			c0.98,1.35,2.09,2.4,3.33,3.12c1.23,0.73,2.6,1.09,4.09,1.09c4.06,0,6.09-2.4,6.09-7.21v-19.96h-12.85v-4.42h17.87v24.12
			c0,3.96-0.94,6.92-2.82,8.89C349.33,682.14,346.56,683.12,342.91,683.12z"/>
		<path class="st3" d="M364.39,682.71v-35.54h5.08v35.54H364.39z M368.85,674.13l-0.25-6.19l20.16-20.77h5.79l-15.59,16.45
			l-2.84,3.15L368.85,674.13z M389.57,682.71L375,665.76l3.4-3.76l17.11,20.72H389.57z"/>
		<path class="st3" d="M400.89,682.71v-35.54h5.08v31.13h19.24v4.42H400.89z"/>
		<path class="st3" d="M431.05,682.71v-35.54h4.16l15.94,26.86h-2.23l15.74-26.86h4.16l0.05,35.54h-4.88l-0.05-27.88h1.17
			l-14.01,23.56h-2.34l-14.12-23.56h1.27v27.88H431.05z"/>
		<path class="st3" d="M5.33,743.65V708.1H9.5L33,737.3h-2.18v-29.2h5.08v35.54h-4.16l-23.51-29.2h2.18v29.2H5.33z"/>
		<path class="st3" d="M62.61,744.05c-2.71,0-5.22-0.46-7.54-1.37c-2.32-0.91-4.32-2.19-6.02-3.83c-1.69-1.64-3.01-3.56-3.96-5.76
			c-0.95-2.2-1.42-4.6-1.42-7.21c0-2.61,0.47-5.01,1.42-7.21c0.95-2.2,2.27-4.12,3.96-5.76c1.69-1.64,3.69-2.92,5.99-3.83
			s4.82-1.37,7.57-1.37c2.71,0,5.21,0.45,7.49,1.35c2.29,0.9,4.28,2.17,5.99,3.81c1.71,1.64,3.03,3.56,3.96,5.76
			c0.93,2.2,1.4,4.62,1.4,7.26c0,2.64-0.47,5.06-1.4,7.26c-0.93,2.2-2.25,4.12-3.96,5.76c-1.71,1.64-3.71,2.91-5.99,3.81
			C67.81,743.6,65.31,744.05,62.61,744.05z M62.61,739.53c1.96,0,3.78-0.34,5.46-1.02c1.67-0.68,3.13-1.63,4.37-2.87
			c1.24-1.24,2.2-2.68,2.89-4.34c0.69-1.66,1.04-3.47,1.04-5.43c0-1.96-0.35-3.77-1.04-5.43c-0.69-1.66-1.66-3.11-2.89-4.34
			c-1.24-1.24-2.69-2.19-4.37-2.87c-1.68-0.68-3.5-1.02-5.46-1.02c-2,0-3.83,0.34-5.51,1.02c-1.68,0.68-3.14,1.63-4.39,2.87
			c-1.25,1.24-2.23,2.68-2.92,4.34c-0.69,1.66-1.04,3.47-1.04,5.43c0,1.96,0.35,3.77,1.04,5.43c0.69,1.66,1.67,3.11,2.92,4.34
			c1.25,1.24,2.72,2.19,4.39,2.87C58.77,739.19,60.61,739.53,62.61,739.53z"/>
		<path class="st3" d="M89.21,743.65V708.1h13.86c3.11,0,5.77,0.49,7.97,1.47c2.2,0.98,3.89,2.4,5.08,4.27
			c1.18,1.86,1.78,4.08,1.78,6.65c0,2.57-0.59,4.78-1.78,6.63c-1.18,1.85-2.88,3.27-5.08,4.27c-2.2,1-4.86,1.5-7.97,1.5H92
			l2.29-2.39v13.15H89.21z M94.29,731L92,728.46h10.92c3.25,0,5.71-0.69,7.39-2.08c1.68-1.39,2.51-3.35,2.51-5.89
			c0-2.54-0.84-4.5-2.51-5.89c-1.68-1.39-4.14-2.08-7.39-2.08H92l2.29-2.54V731z"/>
		<path class="st3" d="M141.92,744.05c-2.71,0-5.22-0.46-7.54-1.37c-2.32-0.91-4.33-2.19-6.02-3.83c-1.69-1.64-3.01-3.56-3.96-5.76
			c-0.95-2.2-1.42-4.6-1.42-7.21c0-2.61,0.47-5.01,1.42-7.21c0.95-2.2,2.27-4.12,3.96-5.76c1.69-1.64,3.69-2.92,5.99-3.83
			c2.3-0.91,4.82-1.37,7.57-1.37c2.71,0,5.2,0.45,7.49,1.35c2.29,0.9,4.28,2.17,5.99,3.81c1.71,1.64,3.03,3.56,3.96,5.76
			c0.93,2.2,1.4,4.62,1.4,7.26c0,2.64-0.46,5.06-1.4,7.26c-0.93,2.2-2.25,4.12-3.96,5.76c-1.71,1.64-3.71,2.91-5.99,3.81
			C147.12,743.6,144.62,744.05,141.92,744.05z M141.92,739.53c1.96,0,3.78-0.34,5.46-1.02c1.68-0.68,3.13-1.64,4.37-2.89
			c1.23-1.25,2.2-2.71,2.89-4.37c0.69-1.66,1.04-3.45,1.04-5.38c0-1.96-0.35-3.77-1.04-5.43c-0.69-1.66-1.66-3.11-2.89-4.34
			c-1.24-1.24-2.69-2.19-4.37-2.87c-1.68-0.68-3.5-1.02-5.46-1.02c-2,0-3.83,0.34-5.51,1.02c-1.67,0.68-3.14,1.63-4.39,2.87
			c-1.25,1.24-2.23,2.68-2.92,4.34c-0.69,1.66-1.04,3.47-1.04,5.43c0,1.93,0.35,3.72,1.04,5.38c0.69,1.66,1.67,3.11,2.92,4.37
			c1.25,1.25,2.72,2.22,4.39,2.89C138.08,739.19,139.92,739.53,141.92,739.53z M153.54,751.06c-1.18,0-2.32-0.14-3.4-0.43
			c-1.08-0.29-2.17-0.74-3.25-1.37c-1.08-0.63-2.2-1.44-3.35-2.44c-1.15-1-2.4-2.23-3.76-3.68l5.43-1.42
			c1.02,1.25,1.99,2.28,2.92,3.07c0.93,0.79,1.85,1.37,2.77,1.73s1.81,0.53,2.69,0.53c2.54,0,4.71-1.02,6.5-3.05l2.39,2.89
			C160.18,749.67,157.2,751.06,153.54,751.06z"/>
		<path class="st3" d="M168.52,743.65V708.1h13.86c4.6,0,8.23,1.09,10.87,3.28c2.64,2.18,3.96,5.22,3.96,9.11
			c0,2.57-0.59,4.78-1.78,6.63c-1.19,1.85-2.88,3.26-5.08,4.24c-2.2,0.98-4.86,1.47-7.97,1.47h-11.07l2.29-2.34v13.15H168.52z
			 M173.6,731l-2.29-2.49h10.92c3.25,0,5.71-0.7,7.39-2.11c1.67-1.4,2.51-3.38,2.51-5.92c0-2.54-0.84-4.5-2.51-5.89
			c-1.68-1.39-4.14-2.08-7.39-2.08h-10.92l2.29-2.54V731z M192.28,743.65l-9.04-12.9h5.43l9.14,12.9H192.28z"/>
		<path class="st3" d="M215.79,744.05c-2.71,0-5.3-0.41-7.77-1.24c-2.47-0.83-4.42-1.9-5.84-3.22l1.88-3.96
			c1.35,1.19,3.08,2.17,5.18,2.94c2.1,0.78,4.28,1.17,6.55,1.17c2.06,0,3.74-0.24,5.03-0.71c1.29-0.47,2.23-1.12,2.84-1.95
			c0.61-0.83,0.91-1.77,0.91-2.82c0-1.22-0.4-2.2-1.19-2.94c-0.8-0.74-1.83-1.35-3.1-1.8s-2.67-0.85-4.19-1.19s-3.06-0.74-4.6-1.19
			s-2.94-1.04-4.21-1.75c-1.27-0.71-2.29-1.67-3.07-2.87c-0.78-1.2-1.17-2.75-1.17-4.65c0-1.83,0.48-3.51,1.45-5.05
			c0.96-1.54,2.45-2.77,4.47-3.71c2.01-0.93,4.58-1.4,7.69-1.4c2.06,0,4.11,0.27,6.14,0.81c2.03,0.54,3.79,1.32,5.28,2.34
			l-1.67,4.06c-1.52-1.02-3.13-1.75-4.82-2.21c-1.69-0.46-3.33-0.69-4.92-0.69c-2,0-3.64,0.25-4.93,0.76s-2.23,1.19-2.82,2.03
			c-0.59,0.85-0.89,1.79-0.89,2.84c0,1.25,0.4,2.25,1.19,3c0.79,0.75,1.83,1.34,3.1,1.78c1.27,0.44,2.67,0.84,4.19,1.19
			s3.05,0.75,4.59,1.19c1.54,0.44,2.95,1.02,4.21,1.73s2.29,1.66,3.07,2.84c0.78,1.19,1.17,2.71,1.17,4.57c0,1.79-0.49,3.46-1.47,5
			c-0.98,1.54-2.5,2.78-4.54,3.71C221.49,743.59,218.91,744.05,215.79,744.05z"/>
		<path class="st3" d="M243.52,743.65v-31.13h-12.19v-4.42h29.4v4.42h-12.19v31.13H243.52z"/>
		<path class="st3" d="M280.33,744.05c-4.67,0-8.34-1.34-11.02-4.01c-2.67-2.67-4.01-6.58-4.01-11.73V708.1h5.08v20.01
			c0,3.96,0.87,6.85,2.61,8.68c1.74,1.83,4.21,2.74,7.39,2.74c3.22,0,5.7-0.91,7.44-2.74c1.74-1.83,2.62-4.72,2.62-8.68V708.1h4.93
			v20.21c0,5.15-1.33,9.06-3.99,11.73C288.71,742.71,285.03,744.05,280.33,744.05z"/>
		<path class="st3" d="M316.02,743.65l-15.64-35.54h5.48l14.37,32.8h-3.15l14.47-32.8h5.08l-15.59,35.54H316.02z"/>
		<path class="st3" d="M350.09,743.65l-11.88-35.54h5.23l10.92,32.8h-2.64l11.32-32.8h4.67l11.07,32.8h-2.54l11.07-32.8h4.82
			l-11.88,35.54h-5.33l-10.36-30.41h1.37l-10.41,30.41H350.09z"/>
		<path class="st3" d="M393.25,743.65l14.78-20.16v3.91l-13.96-19.29h5.79l11.07,15.18l-2.29,0.05l11.02-15.23h5.53l-13.86,18.99
			v-3.66l14.78,20.21h-5.84l-11.78-16.2h2.23l-11.63,16.2H393.25z"/>
		<path class="st3" d="M439.15,743.65v-13.61l1.17,3.15l-15.28-25.08h5.43l12.85,21.17h-2.95l12.9-21.17h5.03l-15.23,25.08
			l1.12-3.15v13.61H439.15z"/>
		<path class="st3" d="M460.27,743.65v-3.45l23.92-29.65l0.56,1.98h-24.12v-4.42h28.69v3.45l-23.81,29.65l-0.61-1.98h25.08v4.42
			H460.27z"/>
		<path class="st3" d="M89.01,804.58v-33.51l2.18,2.39H80.99v-4.42h13.05v35.54H89.01z"/>
		<path class="st3" d="M101.25,804.58v-3.45l14.47-13.96c1.29-1.22,2.24-2.29,2.87-3.22c0.63-0.93,1.05-1.79,1.27-2.59
			c0.22-0.8,0.33-1.57,0.33-2.31c0-1.83-0.64-3.27-1.93-4.32c-1.29-1.05-3.17-1.57-5.64-1.57c-1.9,0-3.61,0.31-5.13,0.94
			c-1.52,0.63-2.84,1.6-3.96,2.92l-3.45-3c1.35-1.73,3.17-3.05,5.46-3.99c2.28-0.93,4.8-1.4,7.54-1.4c2.47,0,4.62,0.4,6.45,1.19
			c1.83,0.8,3.24,1.94,4.24,3.43c1,1.49,1.5,3.25,1.5,5.28c0,1.15-0.15,2.29-0.46,3.4c-0.3,1.12-0.88,2.3-1.73,3.55
			c-0.85,1.25-2.06,2.66-3.66,4.21l-12.9,12.44l-1.22-1.98h21.48v4.42H101.25z"/>
		<path class="st3" d="M141.82,804.98c-2.51,0-4.93-0.39-7.29-1.17c-2.35-0.78-4.27-1.83-5.76-3.15l2.34-4.01
			c1.18,1.12,2.72,2.03,4.62,2.74s3.93,1.07,6.09,1.07c2.64,0,4.7-0.57,6.17-1.7c1.47-1.13,2.21-2.67,2.21-4.6
			c0-1.86-0.7-3.36-2.11-4.49c-1.41-1.13-3.63-1.7-6.68-1.7h-2.84v-3.55l10.56-13l0.71,2.03h-19.45v-4.42h23.46v3.45l-10.51,12.95
			l-2.64-1.57h1.68c4.3,0,7.52,0.96,9.67,2.89c2.15,1.93,3.22,4.38,3.22,7.36c0,2-0.49,3.83-1.47,5.48
			c-0.98,1.66-2.46,2.97-4.44,3.94S144.86,804.98,141.82,804.98z"/>
		<path class="st3" d="M159.48,795.84v-3.55l18.18-23.26h5.48l-18.03,23.26l-2.59-0.81h28.38v4.37H159.48z M179.24,804.58v-8.73
			l0.15-4.37v-7.72h4.77v20.82H179.24z"/>
		<path class="st3" d="M208.58,786.35v-4.01h22.75v4.01H208.58z M208.58,804.58v-4.01h22.75v4.01H208.58z M217.82,795.18V773.5h4.27
			v21.68H217.82z"/>
		<path class="st3" d="M241.59,804.88c-0.95,0-1.74-0.32-2.39-0.96c-0.64-0.64-0.96-1.4-0.96-2.28c0-0.95,0.32-1.73,0.96-2.34
			c0.64-0.61,1.44-0.91,2.39-0.91c0.95,0,1.73,0.3,2.34,0.91s0.91,1.39,0.91,2.34c0,0.88-0.3,1.64-0.91,2.28
			C243.31,804.56,242.53,804.88,241.59,804.88z M239.61,793.35l-0.91-24.32h5.74l-0.96,24.32H239.61z"/>
		<path class="st3" d="M274.54,814.83c-3.52,0-6.74-0.58-9.65-1.73c-2.91-1.15-5.42-2.76-7.51-4.82c-2.1-2.06-3.72-4.51-4.88-7.34
			c-1.15-2.83-1.73-5.92-1.73-9.27s0.58-6.43,1.73-9.24c1.15-2.81,2.78-5.25,4.9-7.31c2.12-2.06,4.65-3.66,7.59-4.77
			c2.94-1.12,6.19-1.68,9.75-1.68c3.49,0,6.67,0.54,9.54,1.62c2.88,1.08,5.37,2.62,7.49,4.6c2.11,1.98,3.75,4.33,4.9,7.06
			c1.15,2.73,1.73,5.73,1.73,9.01c0,2.88-0.36,5.35-1.07,7.41c-0.71,2.07-1.74,3.66-3.07,4.8c-1.34,1.13-2.97,1.7-4.9,1.7
			c-1.9,0-3.41-0.58-4.54-1.73c-1.13-1.15-1.7-2.79-1.7-4.92v-3.45l0.25-3.1l-0.46-5.84v-6.75h4.42v18.28c0,1.35,0.28,2.3,0.84,2.84
			c0.56,0.54,1.24,0.81,2.06,0.81c0.98,0,1.84-0.39,2.56-1.17c0.73-0.78,1.27-1.92,1.62-3.43c0.36-1.51,0.53-3.31,0.53-5.41
			c0-2.84-0.48-5.42-1.45-7.74c-0.96-2.32-2.35-4.32-4.16-6.02c-1.81-1.69-3.94-2.99-6.4-3.88c-2.46-0.9-5.19-1.35-8.2-1.35
			c-3.01,0-5.76,0.48-8.25,1.45c-2.49,0.96-4.63,2.32-6.42,4.06c-1.79,1.74-3.17,3.82-4.14,6.22c-0.96,2.4-1.45,5.04-1.45,7.92
			c0,2.91,0.47,5.58,1.42,8c0.95,2.42,2.31,4.5,4.09,6.25c1.78,1.74,3.89,3.1,6.35,4.06c2.45,0.96,5.19,1.45,8.2,1.45
			c1.56,0,3.2-0.18,4.92-0.53c1.73-0.35,3.35-0.92,4.87-1.7l1.12,3.25c-1.56,0.78-3.32,1.37-5.28,1.78
			C278.21,814.63,276.33,814.83,274.54,814.83z M273.63,804.88c-2.4,0-4.54-0.57-6.4-1.7c-1.86-1.13-3.33-2.68-4.42-4.65
			c-1.08-1.96-1.62-4.2-1.62-6.7c0-2.54,0.54-4.78,1.62-6.73c1.08-1.95,2.56-3.47,4.42-4.57c1.86-1.1,3.99-1.65,6.4-1.65
			c2.33,0,4.38,0.5,6.14,1.5c1.76,1,3.14,2.46,4.14,4.39c1,1.93,1.5,4.28,1.5,7.06c0,2.78-0.49,5.13-1.47,7.06
			c-0.98,1.93-2.35,3.41-4.11,4.44C278.06,804.36,276,804.88,273.63,804.88z M274.34,800.92c1.66,0,3.14-0.36,4.44-1.09
			c1.3-0.73,2.34-1.78,3.1-3.15s1.14-2.99,1.14-4.85c0-1.9-0.38-3.52-1.14-4.87c-0.76-1.35-1.79-2.39-3.1-3.1
			c-1.3-0.71-2.78-1.07-4.44-1.07c-1.69,0-3.19,0.36-4.49,1.09c-1.3,0.73-2.32,1.77-3.05,3.12c-0.73,1.35-1.09,2.96-1.09,4.82
			c0,1.83,0.36,3.42,1.09,4.77c0.73,1.35,1.74,2.41,3.05,3.17C271.15,800.54,272.64,800.92,274.34,800.92z"/>
		<path class="st3" d="M302.21,795.44v-3.71h31.33v3.71H302.21z M303.84,781.88v-3.71h31.33v3.71H303.84z M308.1,804.58l4.42-35.54
			h3.6l-4.42,35.54H308.1z M321.3,804.58l4.37-35.54h3.61l-4.37,35.54H321.3z"/>
		<path class="st3" d="M352.22,804.98c-2.71,0-5.3-0.41-7.77-1.24c-2.47-0.83-4.42-1.9-5.84-3.22l1.88-3.96
			c1.35,1.19,3.08,2.17,5.18,2.94c2.1,0.78,4.28,1.17,6.55,1.17c2.06,0,3.74-0.24,5.03-0.71c1.29-0.47,2.23-1.12,2.84-1.95
			c0.61-0.83,0.91-1.77,0.91-2.82c0-1.22-0.4-2.2-1.19-2.94c-0.79-0.74-1.83-1.35-3.1-1.8s-2.67-0.85-4.19-1.19
			c-1.52-0.34-3.05-0.74-4.59-1.19c-1.54-0.46-2.95-1.04-4.21-1.75c-1.27-0.71-2.29-1.67-3.07-2.87c-0.78-1.2-1.17-2.75-1.17-4.65
			c0-1.83,0.48-3.51,1.45-5.05c0.96-1.54,2.45-2.77,4.47-3.71c2.01-0.93,4.58-1.4,7.69-1.4c2.06,0,4.11,0.27,6.14,0.81
			c2.03,0.54,3.79,1.32,5.28,2.34l-1.68,4.06c-1.52-1.02-3.13-1.75-4.82-2.21c-1.69-0.46-3.33-0.69-4.93-0.69
			c-2,0-3.64,0.25-4.92,0.76c-1.29,0.51-2.23,1.19-2.82,2.03c-0.59,0.85-0.89,1.79-0.89,2.84c0,1.25,0.4,2.25,1.19,3
			c0.79,0.75,1.83,1.34,3.1,1.78c1.27,0.44,2.67,0.84,4.19,1.19s3.05,0.75,4.6,1.19c1.54,0.44,2.94,1.02,4.21,1.73
			s2.29,1.66,3.07,2.84c0.78,1.19,1.17,2.71,1.17,4.57c0,1.79-0.49,3.46-1.47,5c-0.98,1.54-2.5,2.78-4.54,3.71
			C357.92,804.52,355.34,804.98,352.22,804.98z M350.96,810.67v-47.73h3.25v47.73H350.96z"/>
		<path class="st3" d="M378.22,788.12c-1.62,0-3.06-0.41-4.32-1.22c-1.25-0.81-2.23-1.95-2.92-3.4c-0.69-1.46-1.04-3.15-1.04-5.08
			c0-1.93,0.35-3.62,1.04-5.08c0.69-1.45,1.67-2.59,2.92-3.4c1.25-0.81,2.69-1.22,4.32-1.22c1.66,0,3.1,0.41,4.34,1.22
			c1.24,0.81,2.19,1.94,2.87,3.38c0.68,1.44,1.02,3.14,1.02,5.1c0,1.93-0.34,3.62-1.02,5.08c-0.68,1.46-1.63,2.59-2.87,3.4
			C381.33,787.72,379.88,788.12,378.22,788.12z M378.22,785.23c1.56,0,2.77-0.6,3.66-1.8c0.88-1.2,1.32-2.87,1.32-5
			c0-2.13-0.44-3.8-1.32-5c-0.88-1.2-2.1-1.8-3.66-1.8c-1.52,0-2.73,0.61-3.63,1.83c-0.9,1.22-1.35,2.88-1.35,4.98
			c0,2.1,0.45,3.76,1.35,4.98C375.49,784.62,376.7,785.23,378.22,785.23z M375.38,804.58l24.27-35.54h3.91l-24.27,35.54H375.38z
			 M400.71,804.88c-1.62,0-3.06-0.41-4.32-1.22s-2.22-1.95-2.89-3.4c-0.68-1.46-1.02-3.15-1.02-5.08c0-1.93,0.34-3.62,1.02-5.08
			c0.68-1.45,1.64-2.59,2.89-3.4s2.69-1.22,4.32-1.22c1.66,0,3.11,0.41,4.34,1.22s2.2,1.95,2.89,3.4c0.69,1.46,1.04,3.15,1.04,5.08
			c0,1.93-0.35,3.62-1.04,5.08c-0.69,1.46-1.66,2.59-2.89,3.4S402.37,804.88,400.71,804.88z M400.71,801.99
			c1.52,0,2.73-0.61,3.63-1.83s1.35-2.88,1.35-4.98c0-2.1-0.45-3.76-1.35-4.98c-0.9-1.22-2.11-1.83-3.63-1.83s-2.73,0.6-3.63,1.8
			c-0.9,1.2-1.35,2.87-1.35,5c0,2.13,0.45,3.8,1.35,5C397.98,801.39,399.19,801.99,400.71,801.99z"/>
	</g>
	<g>
		<path class="st3" d="M29.83,499.71v-30.53h3.58l13.69,23.07h-1.92l13.52-23.07h3.58l0.04,30.53h-4.19l-0.04-23.94h1l-12.04,20.24
			h-2.01l-12.12-20.24h1.09v23.94H29.83z"/>
		<path class="st3" d="M80.77,499.97c-2.33,0-4.39-0.51-6.19-1.53c-1.8-1.02-3.23-2.42-4.27-4.21c-1.05-1.79-1.57-3.82-1.57-6.08
			c0-2.3,0.52-4.33,1.57-6.11c1.05-1.77,2.47-3.16,4.27-4.17s3.87-1.5,6.19-1.5c2.3,0,4.35,0.5,6.17,1.5c1.82,1,3.24,2.38,4.27,4.14
			c1.03,1.76,1.55,3.8,1.55,6.13c0,2.3-0.52,4.33-1.55,6.11c-1.03,1.77-2.46,3.17-4.27,4.19C85.12,499.47,83.06,499.97,80.77,499.97
			z M80.77,496.31c1.48,0,2.81-0.33,3.99-1c1.18-0.67,2.1-1.62,2.77-2.86c0.67-1.24,1-2.67,1-4.3c0-1.66-0.33-3.09-1-4.3
			c-0.67-1.21-1.59-2.14-2.77-2.81c-1.18-0.67-2.51-1-3.99-1c-1.48,0-2.81,0.33-3.97,1c-1.16,0.67-2.09,1.61-2.79,2.81
			c-0.7,1.21-1.05,2.64-1.05,4.3c0,1.63,0.35,3.06,1.05,4.3c0.7,1.24,1.63,2.19,2.79,2.86C77.96,495.98,79.28,496.31,80.77,496.31z"
			/>
		<path class="st3" d="M98.56,499.71V476.6h4.01v6.24l-0.65-1.66c0.76-1.51,1.92-2.69,3.49-3.53c1.57-0.84,3.4-1.27,5.5-1.27
			c1.89,0,3.55,0.36,4.99,1.09c1.44,0.73,2.57,1.83,3.38,3.31c0.81,1.48,1.22,3.36,1.22,5.63v13.3h-4.19v-12.82
			c0-2.24-0.54-3.93-1.64-5.06c-1.09-1.13-2.62-1.7-4.6-1.7c-1.48,0-2.78,0.29-3.88,0.87c-1.1,0.58-1.96,1.44-2.55,2.57
			c-0.6,1.13-0.89,2.54-0.89,4.23v11.91H98.56z"/>
		<path class="st3" d="M124.94,480.04v-3.45h14.74v3.45H124.94z M136.2,499.97c-2.33,0-4.13-0.62-5.41-1.88
			c-1.28-1.25-1.92-3.04-1.92-5.36v-21.2h4.19v21.02c0,1.25,0.31,2.21,0.94,2.88c0.62,0.67,1.52,1,2.68,1c1.31,0,2.4-0.36,3.27-1.09
			l1.31,3.01c-0.64,0.55-1.4,0.96-2.29,1.22S137.16,499.97,136.2,499.97z"/>
		<path class="st3" d="M152.94,499.97c-1.92,0-3.74-0.26-5.47-0.79c-1.73-0.52-3.09-1.16-4.08-1.92l1.74-3.31
			c0.99,0.67,2.21,1.24,3.66,1.7c1.45,0.47,2.94,0.7,4.45,0.7c1.95,0,3.35-0.28,4.21-0.83c0.86-0.55,1.29-1.32,1.29-2.31
			c0-0.73-0.26-1.29-0.79-1.7c-0.52-0.41-1.21-0.71-2.07-0.92c-0.86-0.2-1.81-0.39-2.86-0.55c-1.05-0.16-2.09-0.36-3.14-0.61
			c-1.05-0.25-2.01-0.6-2.88-1.05c-0.87-0.45-1.57-1.08-2.09-1.88c-0.52-0.8-0.79-1.87-0.79-3.21c0-1.4,0.39-2.62,1.18-3.66
			c0.78-1.05,1.9-1.85,3.34-2.42s3.15-0.85,5.12-0.85c1.51,0,3.05,0.18,4.6,0.55c1.55,0.36,2.83,0.88,3.82,1.55l-1.79,3.31
			c-1.05-0.7-2.14-1.18-3.27-1.44s-2.27-0.39-3.4-0.39c-1.83,0-3.2,0.3-4.1,0.89c-0.9,0.6-1.35,1.36-1.35,2.29
			c0,0.78,0.27,1.39,0.81,1.81c0.54,0.42,1.24,0.75,2.09,0.98c0.86,0.23,1.81,0.43,2.86,0.59c1.05,0.16,2.09,0.36,3.14,0.61
			c1.05,0.25,2,0.59,2.86,1.02c0.86,0.44,1.55,1.05,2.09,1.83c0.54,0.79,0.81,1.83,0.81,3.14c0,1.4-0.41,2.6-1.22,3.62
			c-0.81,1.02-1.96,1.81-3.45,2.38S155.01,499.97,152.94,499.97z"/>
		<path class="st3" d="M178.46,499.97c-2.47,0-4.65-0.51-6.52-1.53c-1.88-1.02-3.33-2.41-4.36-4.19c-1.03-1.77-1.55-3.81-1.55-6.11
			c0-2.3,0.5-4.33,1.5-6.11c1-1.77,2.38-3.16,4.14-4.17c1.76-1,3.74-1.5,5.95-1.5c2.24,0,4.22,0.5,5.93,1.48
			c1.71,0.99,3.06,2.38,4.03,4.17c0.97,1.79,1.46,3.87,1.46,6.26c0,0.17-0.01,0.38-0.02,0.61c-0.01,0.23-0.04,0.45-0.07,0.65H169.3
			v-3.01h17.49l-1.7,1.05c0.03-1.48-0.28-2.81-0.92-3.97c-0.64-1.16-1.52-2.07-2.64-2.73s-2.42-0.98-3.9-0.98
			c-1.45,0-2.75,0.33-3.88,0.98c-1.13,0.65-2.02,1.57-2.66,2.75c-0.64,1.18-0.96,2.52-0.96,4.03v0.7c0,1.54,0.36,2.92,1.07,4.12
			c0.71,1.21,1.71,2.14,2.99,2.81c1.28,0.67,2.75,1,4.41,1c1.37,0,2.61-0.23,3.73-0.7c1.12-0.46,2.1-1.16,2.94-2.09l2.31,2.7
			c-1.05,1.22-2.35,2.15-3.9,2.79C182.11,499.65,180.37,499.97,178.46,499.97z"/>
		<path class="st3" d="M194.85,499.71V476.6h4.01v6.28l-0.39-1.57c0.64-1.6,1.71-2.82,3.23-3.66c1.51-0.84,3.37-1.27,5.58-1.27v4.06
			c-0.17-0.03-0.34-0.04-0.5-0.04s-0.31,0-0.46,0c-2.24,0-4.01,0.67-5.32,2.01c-1.31,1.34-1.96,3.27-1.96,5.8v11.51H194.85z"/>
		<path class="st3" d="M212.43,499.71V476.6h4.01v6.28l-0.39-1.57c0.64-1.6,1.71-2.82,3.23-3.66c1.51-0.84,3.37-1.27,5.58-1.27v4.06
			c-0.17-0.03-0.34-0.04-0.5-0.04s-0.31,0-0.46,0c-2.24,0-4.01,0.67-5.32,2.01c-1.31,1.34-1.96,3.27-1.96,5.8v11.51H212.43z"/>
		<path class="st3" d="M235.19,499.97c-1.72,0-3.22-0.29-4.51-0.87c-1.29-0.58-2.29-1.39-2.99-2.42c-0.7-1.03-1.05-2.2-1.05-3.51
			c0-1.25,0.3-2.38,0.89-3.4c0.6-1.02,1.57-1.83,2.92-2.44c1.35-0.61,3.18-0.92,5.47-0.92h7.33v3.01h-7.15
			c-2.09,0-3.5,0.35-4.23,1.05c-0.73,0.7-1.09,1.54-1.09,2.53c0,1.13,0.45,2.04,1.35,2.73c0.9,0.68,2.15,1.02,3.75,1.02
			c1.57,0,2.94-0.35,4.12-1.05c1.18-0.7,2.03-1.72,2.55-3.05l0.83,2.88c-0.55,1.37-1.53,2.45-2.92,3.25
			C239.07,499.58,237.32,499.97,235.19,499.97z M242.78,499.71v-4.88l-0.22-0.92v-8.33c0-1.77-0.52-3.15-1.55-4.12
			c-1.03-0.97-2.58-1.46-4.64-1.46c-1.37,0-2.7,0.23-4.01,0.68c-1.31,0.45-2.41,1.05-3.31,1.81l-1.74-3.14
			c1.19-0.96,2.62-1.69,4.29-2.2s3.42-0.76,5.26-0.76c3.17,0,5.61,0.77,7.33,2.31c1.72,1.54,2.57,3.9,2.57,7.07v13.96H242.78z"/>
		<path class="st3" d="M251.2,480.04v-3.45h14.74v3.45H251.2z M262.45,499.97c-2.33,0-4.13-0.62-5.41-1.88
			c-1.28-1.25-1.92-3.04-1.92-5.36v-21.2h4.19v21.02c0,1.25,0.31,2.21,0.94,2.88c0.62,0.67,1.52,1,2.68,1c1.31,0,2.4-0.36,3.27-1.09
			l1.31,3.01c-0.64,0.55-1.4,0.96-2.29,1.22S263.41,499.97,262.45,499.97z"/>
		<path class="st3" d="M284.91,499.71v-30.53h3.58l13.69,23.07h-1.92l13.52-23.07h3.58l0.04,30.53h-4.19l-0.04-23.94h1l-12.04,20.24
			h-2.01l-12.12-20.24h1.09v23.94H284.91z"/>
		<path class="st3" d="M336.24,499.97c-2.47,0-4.65-0.51-6.52-1.53c-1.88-1.02-3.33-2.41-4.36-4.19c-1.03-1.77-1.55-3.81-1.55-6.11
			c0-2.3,0.5-4.33,1.5-6.11c1-1.77,2.38-3.16,4.14-4.17c1.76-1,3.74-1.5,5.95-1.5c2.24,0,4.22,0.5,5.93,1.48
			c1.71,0.99,3.06,2.38,4.03,4.17c0.97,1.79,1.46,3.87,1.46,6.26c0,0.17-0.01,0.38-0.02,0.61c-0.01,0.23-0.04,0.45-0.07,0.65h-19.67
			v-3.01h17.49l-1.7,1.05c0.03-1.48-0.28-2.81-0.92-3.97c-0.64-1.16-1.52-2.07-2.64-2.73s-2.42-0.98-3.9-0.98
			c-1.45,0-2.75,0.33-3.88,0.98c-1.13,0.65-2.02,1.57-2.66,2.75c-0.64,1.18-0.96,2.52-0.96,4.03v0.7c0,1.54,0.36,2.92,1.07,4.12
			c0.71,1.21,1.71,2.14,2.99,2.81c1.28,0.67,2.75,1,4.41,1c1.37,0,2.61-0.23,3.73-0.7c1.12-0.46,2.1-1.16,2.94-2.09l2.31,2.7
			c-1.05,1.22-2.35,2.15-3.9,2.79C339.9,499.65,338.16,499.97,336.24,499.97z"/>
		<path class="st3" d="M362.19,499.97c-2.24,0-4.24-0.49-6-1.48c-1.76-0.99-3.15-2.37-4.17-4.14c-1.02-1.77-1.53-3.84-1.53-6.19
			s0.51-4.41,1.53-6.17c1.02-1.76,2.41-3.13,4.17-4.12c1.76-0.99,3.76-1.48,6-1.48c1.95,0,3.71,0.44,5.28,1.31s2.83,2.18,3.77,3.92
			c0.94,1.74,1.42,3.93,1.42,6.54s-0.46,4.8-1.37,6.54c-0.92,1.74-2.16,3.06-3.73,3.95C365.98,499.53,364.2,499.97,362.19,499.97z
			 M362.54,496.31c1.45,0,2.77-0.33,3.95-1c1.18-0.67,2.11-1.62,2.79-2.86c0.68-1.24,1.03-2.67,1.03-4.3c0-1.66-0.34-3.09-1.03-4.3
			c-0.68-1.21-1.61-2.14-2.79-2.81c-1.18-0.67-2.49-1-3.95-1c-1.48,0-2.81,0.33-3.97,1c-1.16,0.67-2.09,1.61-2.79,2.81
			c-0.7,1.21-1.05,2.64-1.05,4.3c0,1.63,0.35,3.06,1.05,4.3c0.7,1.24,1.63,2.19,2.79,2.86
			C359.73,495.98,361.05,496.31,362.54,496.31z M370.43,499.71v-6.24l0.26-5.36l-0.44-5.36v-15.4h4.19v32.36H370.43z"/>
		<path class="st3" d="M384.47,472.15c-0.81,0-1.49-0.26-2.03-0.79c-0.54-0.52-0.81-1.16-0.81-1.92c0-0.79,0.27-1.44,0.81-1.96
			c0.54-0.52,1.21-0.79,2.03-0.79c0.81,0,1.49,0.25,2.03,0.76c0.54,0.51,0.81,1.14,0.81,1.9c0,0.79-0.26,1.45-0.79,1.98
			C386,471.88,385.32,472.15,384.47,472.15z M382.38,499.71V476.6h4.19v23.11H382.38z"/>
		<path class="st3" d="M404.27,499.97c-1.98,0-3.71-0.36-5.21-1.09c-1.5-0.73-2.66-1.84-3.49-3.34c-0.83-1.5-1.24-3.38-1.24-5.65
			v-13.3h4.19v12.82c0,2.27,0.54,3.97,1.64,5.1c1.09,1.13,2.62,1.7,4.6,1.7c1.45,0,2.72-0.3,3.79-0.89c1.08-0.6,1.9-1.47,2.49-2.62
			c0.58-1.15,0.87-2.54,0.87-4.17V476.6h4.19v23.11h-3.97v-6.24l0.65,1.66c-0.76,1.54-1.89,2.73-3.4,3.58
			S406.16,499.97,404.27,499.97z"/>
		<path class="st3" d="M424.07,499.71V476.6h4.01v6.15l-0.65-1.57c0.73-1.51,1.85-2.69,3.36-3.53c1.51-0.84,3.27-1.27,5.28-1.27
			c2.21,0,4.11,0.55,5.71,1.64c1.6,1.09,2.65,2.74,3.14,4.95l-1.7-0.7c0.7-1.77,1.92-3.2,3.66-4.27c1.74-1.08,3.78-1.61,6.11-1.61
			c1.86,0,3.5,0.36,4.93,1.09c1.42,0.73,2.54,1.83,3.34,3.31c0.8,1.48,1.2,3.36,1.2,5.63v13.3h-4.19v-12.82
			c0-2.24-0.52-3.93-1.57-5.06c-1.05-1.13-2.52-1.7-4.41-1.7c-1.4,0-2.62,0.29-3.66,0.87c-1.05,0.58-1.85,1.44-2.42,2.57
			c-0.57,1.13-0.85,2.54-0.85,4.23v11.91h-4.19v-12.82c0-2.24-0.52-3.93-1.55-5.06c-1.03-1.13-2.51-1.7-4.43-1.7
			c-1.37,0-2.57,0.29-3.62,0.87c-1.05,0.58-1.86,1.44-2.44,2.57c-0.58,1.13-0.87,2.54-0.87,4.23v11.91H424.07z"/>
	</g>
</g>
</svg>
