<?xml version="1.0" encoding="utf-8"?>
<!-- Generator: Adobe Illustrator 24.0.2, SVG Export Plug-In . SVG Version: 6.00 Build 0)  -->
<svg version="1.1" id="Layer_1" xmlns="http://www.w3.org/2000/svg" xmlns:xlink="http://www.w3.org/1999/xlink" x="0px" y="0px"
	 viewBox="0 0 483.02 827.78" style="enable-background:new 0 0 483.02 827.78;" xml:space="preserve">
<style type="text/css">
	.st0{fill:#284C77;}
	.st1{fill:#1F3B63;}
	.st2{fill:#182C4C;}
	.st3{fill:#FFFFFF;}
</style>
<g>
	<path class="st3" d="M360.18,284h22.31L251.86,0h-20.69L100.53,284h22.31l36.25-79.92h164.71L360.18,284z M167.01,186.63
		l74.31-163.82l74.55,163.82H167.01z"/>
	<g>
		<path class="st3" d="M60.59,499.71v-30.53h3.58l13.69,23.07h-1.92l13.52-23.07h3.58l0.04,30.53H88.9l-0.04-23.94h1l-12.04,20.24
			h-2.01l-12.12-20.24h1.09v23.94H60.59z"/>
		<path class="st3" d="M111.53,499.97c-2.33,0-4.39-0.51-6.19-1.53c-1.8-1.02-3.23-2.42-4.27-4.21c-1.05-1.79-1.57-3.82-1.57-6.08
			c0-2.3,0.52-4.33,1.57-6.11c1.05-1.77,2.47-3.16,4.27-4.17c1.8-1,3.87-1.5,6.19-1.5c2.3,0,4.35,0.5,6.17,1.5
			c1.82,1,3.24,2.38,4.27,4.14c1.03,1.76,1.55,3.8,1.55,6.13c0,2.3-0.52,4.33-1.55,6.11c-1.03,1.77-2.46,3.17-4.27,4.19
			C115.88,499.47,113.83,499.97,111.53,499.97z M111.53,496.31c1.48,0,2.81-0.33,3.99-1c1.18-0.67,2.1-1.62,2.77-2.86
			c0.67-1.24,1-2.67,1-4.3c0-1.66-0.33-3.09-1-4.3c-0.67-1.21-1.59-2.14-2.77-2.81c-1.18-0.67-2.51-1-3.99-1s-2.81,0.33-3.97,1
			c-1.16,0.67-2.09,1.61-2.79,2.81c-0.7,1.21-1.05,2.64-1.05,4.3c0,1.63,0.35,3.06,1.05,4.3c0.7,1.24,1.63,2.19,2.79,2.86
			C108.72,495.98,110.05,496.31,111.53,496.31z"/>
		<path class="st3" d="M129.32,499.71V476.6h4.01v6.24l-0.65-1.66c0.76-1.51,1.92-2.69,3.49-3.53c1.57-0.84,3.4-1.27,5.5-1.27
			c1.89,0,3.55,0.36,4.99,1.09c1.44,0.73,2.57,1.83,3.38,3.31c0.81,1.48,1.22,3.36,1.22,5.63v13.3h-4.19v-12.82
			c0-2.24-0.55-3.93-1.64-5.06c-1.09-1.13-2.62-1.7-4.6-1.7c-1.48,0-2.78,0.29-3.88,0.87c-1.1,0.58-1.96,1.44-2.55,2.57
			c-0.6,1.13-0.89,2.54-0.89,4.23v11.91H129.32z"/>
		<path class="st3" d="M155.71,480.04v-3.45h14.74v3.45H155.71z M166.96,499.97c-2.33,0-4.13-0.62-5.41-1.88
			c-1.28-1.25-1.92-3.04-1.92-5.36v-21.2h4.19v21.02c0,1.25,0.31,2.21,0.94,2.88c0.62,0.67,1.52,1,2.68,1c1.31,0,2.4-0.36,3.27-1.09
			l1.31,3.01c-0.64,0.55-1.4,0.96-2.29,1.22C168.84,499.84,167.92,499.97,166.96,499.97z"/>
		<path class="st3" d="M183.71,499.97c-1.92,0-3.74-0.26-5.47-0.79c-1.73-0.52-3.09-1.16-4.08-1.92l1.74-3.31
			c0.99,0.67,2.21,1.24,3.66,1.7c1.45,0.47,2.94,0.7,4.45,0.7c1.95,0,3.35-0.28,4.21-0.83c0.86-0.55,1.29-1.32,1.29-2.31
			c0-0.73-0.26-1.29-0.79-1.7c-0.52-0.41-1.21-0.71-2.07-0.92c-0.86-0.2-1.81-0.39-2.86-0.55c-1.05-0.16-2.09-0.36-3.14-0.61
			c-1.05-0.25-2.01-0.6-2.88-1.05c-0.87-0.45-1.57-1.08-2.09-1.88c-0.52-0.8-0.79-1.87-0.79-3.21c0-1.4,0.39-2.62,1.18-3.66
			c0.78-1.05,1.9-1.85,3.34-2.42c1.44-0.57,3.15-0.85,5.12-0.85c1.51,0,3.05,0.18,4.6,0.55c1.56,0.36,2.83,0.88,3.82,1.55
			l-1.79,3.31c-1.05-0.7-2.14-1.18-3.27-1.44c-1.13-0.26-2.27-0.39-3.4-0.39c-1.83,0-3.2,0.3-4.1,0.89c-0.9,0.6-1.35,1.36-1.35,2.29
			c0,0.78,0.27,1.39,0.81,1.81c0.54,0.42,1.24,0.75,2.09,0.98c0.86,0.23,1.81,0.43,2.86,0.59c1.05,0.16,2.09,0.36,3.14,0.61
			c1.05,0.25,2,0.59,2.86,1.02c0.86,0.44,1.56,1.05,2.09,1.83c0.54,0.79,0.81,1.83,0.81,3.14c0,1.4-0.41,2.6-1.22,3.62
			c-0.81,1.02-1.96,1.81-3.45,2.38C187.54,499.69,185.77,499.97,183.71,499.97z"/>
		<path class="st3" d="M209.22,499.97c-2.47,0-4.65-0.51-6.52-1.53c-1.88-1.02-3.33-2.41-4.36-4.19c-1.03-1.77-1.55-3.81-1.55-6.11
			c0-2.3,0.5-4.33,1.5-6.11c1-1.77,2.38-3.16,4.14-4.17c1.76-1,3.74-1.5,5.95-1.5c2.24,0,4.22,0.5,5.93,1.48
			c1.71,0.99,3.06,2.38,4.03,4.17c0.97,1.79,1.46,3.87,1.46,6.26c0,0.17-0.01,0.38-0.02,0.61c-0.02,0.23-0.04,0.45-0.07,0.65h-19.67
			v-3.01h17.49l-1.7,1.05c0.03-1.48-0.28-2.81-0.92-3.97c-0.64-1.16-1.52-2.07-2.64-2.73s-2.42-0.98-3.9-0.98
			c-1.45,0-2.75,0.33-3.88,0.98c-1.13,0.65-2.02,1.57-2.66,2.75c-0.64,1.18-0.96,2.52-0.96,4.03v0.7c0,1.54,0.36,2.92,1.07,4.12
			c0.71,1.21,1.71,2.14,2.99,2.81c1.28,0.67,2.75,1,4.4,1c1.37,0,2.61-0.23,3.73-0.7c1.12-0.46,2.1-1.16,2.94-2.09l2.31,2.7
			c-1.05,1.22-2.35,2.15-3.9,2.79C212.87,499.65,211.14,499.97,209.22,499.97z"/>
		<path class="st3" d="M225.62,499.71V476.6h4.01v6.28l-0.39-1.57c0.64-1.6,1.72-2.82,3.23-3.66c1.51-0.84,3.37-1.27,5.58-1.27v4.06
			c-0.17-0.03-0.34-0.04-0.5-0.04c-0.16,0-0.31,0-0.46,0c-2.24,0-4.01,0.67-5.32,2.01c-1.31,1.34-1.96,3.27-1.96,5.8v11.51H225.62z"
			/>
		<path class="st3" d="M243.19,499.71V476.6h4.01v6.28l-0.39-1.57c0.64-1.6,1.72-2.82,3.23-3.66c1.51-0.84,3.37-1.27,5.58-1.27v4.06
			c-0.17-0.03-0.34-0.04-0.5-0.04c-0.16,0-0.31,0-0.46,0c-2.24,0-4.01,0.67-5.32,2.01c-1.31,1.34-1.96,3.27-1.96,5.8v11.51H243.19z"
			/>
		<path class="st3" d="M265.96,499.97c-1.72,0-3.22-0.29-4.51-0.87c-1.29-0.58-2.29-1.39-2.99-2.42c-0.7-1.03-1.05-2.2-1.05-3.51
			c0-1.25,0.3-2.38,0.89-3.4c0.6-1.02,1.57-1.83,2.92-2.44s3.18-0.92,5.47-0.92h7.33v3.01h-7.15c-2.09,0-3.5,0.35-4.23,1.05
			c-0.73,0.7-1.09,1.54-1.09,2.53c0,1.13,0.45,2.04,1.35,2.73c0.9,0.68,2.15,1.02,3.75,1.02c1.57,0,2.94-0.35,4.12-1.05
			c1.18-0.7,2.03-1.72,2.55-3.05l0.83,2.88c-0.55,1.37-1.53,2.45-2.92,3.25C269.84,499.58,268.08,499.97,265.96,499.97z
			 M273.55,499.71v-4.88l-0.22-0.92v-8.33c0-1.77-0.52-3.15-1.55-4.12c-1.03-0.97-2.58-1.46-4.64-1.46c-1.37,0-2.7,0.23-4.01,0.68
			c-1.31,0.45-2.41,1.05-3.31,1.81l-1.74-3.14c1.19-0.96,2.62-1.69,4.3-2.2s3.42-0.76,5.26-0.76c3.17,0,5.61,0.77,7.33,2.31
			c1.72,1.54,2.57,3.9,2.57,7.07v13.96H273.55z"/>
		<path class="st3" d="M281.96,480.04v-3.45h14.74v3.45H281.96z M293.21,499.97c-2.33,0-4.13-0.62-5.41-1.88
			c-1.28-1.25-1.92-3.04-1.92-5.36v-21.2h4.19v21.02c0,1.25,0.31,2.21,0.94,2.88c0.62,0.67,1.52,1,2.68,1c1.31,0,2.4-0.36,3.27-1.09
			l1.31,3.01c-0.64,0.55-1.4,0.96-2.29,1.22C295.1,499.84,294.17,499.97,293.21,499.97z"/>
		<path class="st3" d="M315.67,499.71v-30.53h4.36v26.73h16.53v3.79H315.67z"/>
		<path class="st3" d="M343.06,472.15c-0.81,0-1.49-0.26-2.03-0.79c-0.54-0.52-0.81-1.16-0.81-1.92c0-0.79,0.27-1.44,0.81-1.96
			c0.54-0.52,1.21-0.79,2.03-0.79c0.81,0,1.49,0.25,2.03,0.76c0.54,0.51,0.81,1.14,0.81,1.9c0,0.79-0.26,1.45-0.79,1.98
			C344.59,471.88,343.9,472.15,343.06,472.15z M340.97,499.71V476.6h4.19v23.11H340.97z"/>
		<path class="st3" d="M362.73,498.75c-2.24,0-4.24-0.47-6-1.42c-1.76-0.94-3.15-2.26-4.19-3.95c-1.03-1.69-1.55-3.63-1.55-5.84
			c0-2.24,0.52-4.19,1.55-5.87c1.03-1.67,2.43-2.97,4.19-3.9c1.76-0.93,3.76-1.4,6-1.4c1.98,0,3.78,0.4,5.41,1.2
			c1.63,0.8,2.93,2.03,3.9,3.69c0.97,1.66,1.46,3.75,1.46,6.28c0,2.5-0.49,4.58-1.46,6.24c-0.97,1.66-2.28,2.9-3.9,3.73
			C366.51,498.34,364.71,498.75,362.73,498.75z M363.25,508.44c-2.12,0-4.18-0.3-6.17-0.89c-1.99-0.6-3.61-1.45-4.86-2.55l2.01-3.23
			c1.08,0.93,2.4,1.66,3.97,2.2c1.57,0.54,3.21,0.81,4.93,0.81c2.73,0,4.74-0.64,6.02-1.92c1.28-1.28,1.92-3.23,1.92-5.84v-4.88
			l0.44-4.58l-0.22-4.62v-6.32h3.97v19.97c0,4.07-1.02,7.07-3.05,8.98C370.16,507.48,367.18,508.44,363.25,508.44z M363.21,495.09
			c1.54,0,2.91-0.32,4.1-0.96c1.19-0.64,2.13-1.53,2.81-2.66c0.68-1.13,1.02-2.44,1.02-3.92c0-1.48-0.34-2.79-1.02-3.93
			c-0.68-1.13-1.62-2.01-2.81-2.64c-1.19-0.62-2.56-0.94-4.1-0.94c-1.54,0-2.92,0.31-4.12,0.94c-1.21,0.63-2.15,1.5-2.83,2.64
			c-0.68,1.13-1.02,2.44-1.02,3.93c0,1.48,0.34,2.79,1.02,3.92c0.68,1.13,1.63,2.02,2.83,2.66
			C360.29,494.77,361.67,495.09,363.21,495.09z"/>
		<path class="st3" d="M383.23,499.71v-32.36h4.19v15.48l-0.83-1.66c0.76-1.51,1.92-2.69,3.49-3.53c1.57-0.84,3.4-1.27,5.5-1.27
			c1.89,0,3.55,0.36,4.99,1.09c1.44,0.73,2.57,1.83,3.38,3.31c0.81,1.48,1.22,3.36,1.22,5.63v13.3h-4.19v-12.82
			c0-2.24-0.55-3.93-1.64-5.06c-1.09-1.13-2.62-1.7-4.6-1.7c-1.48,0-2.78,0.29-3.88,0.87c-1.1,0.58-1.96,1.44-2.55,2.57
			c-0.6,1.13-0.89,2.54-0.89,4.23v11.91H383.23z"/>
		<path class="st3" d="M409.61,480.04v-3.45h14.74v3.45H409.61z M420.86,499.97c-2.33,0-4.13-0.62-5.41-1.88
			c-1.28-1.25-1.92-3.04-1.92-5.36v-21.2h4.19v21.02c0,1.25,0.31,2.21,0.94,2.88c0.62,0.67,1.52,1,2.68,1c1.31,0,2.4-0.36,3.27-1.09
			l1.31,3.01c-0.64,0.55-1.4,0.96-2.29,1.22C422.75,499.84,421.82,499.97,420.86,499.97z"/>
	</g>
	<g>
		<path class="st3" d="M15.89,682.71l16.35-35.54h2.59l16.35,35.54h-2.79L32.95,648.8h1.12l-15.39,33.92H15.89z M21.89,672.71
			l0.86-2.18h21.27l0.86,2.18H21.89z"/>
		<path class="st3" d="M57.63,682.71v-35.54h14.83c3.82,0,6.82,0.78,8.99,2.34c2.17,1.56,3.25,3.81,3.25,6.75
			c0,1.93-0.46,3.55-1.37,4.87c-0.91,1.32-2.18,2.31-3.78,2.97c-1.61,0.66-3.41,0.99-5.41,0.99l0.91-1.02
			c2.44,0,4.52,0.36,6.25,1.07c1.73,0.71,3.04,1.74,3.94,3.1c0.9,1.35,1.35,3.05,1.35,5.08c0,2.98-1.08,5.29-3.25,6.93
			c-2.17,1.64-5.45,2.46-9.85,2.46H57.63z M60.22,680.48h13.25c3.42,0,6.02-0.58,7.82-1.75c1.79-1.17,2.69-3.04,2.69-5.61
			c0-2.54-0.9-4.39-2.69-5.56c-1.79-1.17-4.4-1.75-7.82-1.75H59.92v-2.23h12.44c3.08,0,5.47-0.59,7.16-1.78
			c1.69-1.18,2.54-2.96,2.54-5.33c0-2.34-0.85-4.1-2.54-5.28c-1.69-1.18-4.08-1.78-7.16-1.78H60.22V680.48z"/>
		<path class="st3" d="M110.84,682.97c-2.64,0-5.09-0.45-7.34-1.35c-2.25-0.9-4.21-2.16-5.86-3.78c-1.66-1.62-2.94-3.53-3.86-5.71
			c-0.91-2.18-1.37-4.58-1.37-7.19c0-2.61,0.46-5,1.37-7.18c0.91-2.18,2.21-4.09,3.88-5.71c1.68-1.62,3.63-2.89,5.86-3.78
			c2.23-0.9,4.67-1.35,7.31-1.35c2.5,0,4.85,0.41,7.03,1.22c2.18,0.81,4.05,2.05,5.61,3.71l-1.62,1.68
			c-1.52-1.49-3.21-2.56-5.05-3.22c-1.85-0.66-3.8-0.99-5.86-0.99c-2.27,0-4.38,0.39-6.32,1.17c-1.95,0.78-3.64,1.88-5.08,3.3
			c-1.44,1.42-2.56,3.08-3.35,4.98c-0.8,1.9-1.19,3.96-1.19,6.19c0,2.23,0.4,4.3,1.19,6.19c0.79,1.9,1.91,3.55,3.35,4.98
			c1.44,1.42,3.13,2.52,5.08,3.3c1.95,0.78,4.05,1.17,6.32,1.17c2.06,0,4.02-0.33,5.86-0.99c1.84-0.66,3.53-1.75,5.05-3.27
			l1.62,1.68c-1.56,1.66-3.43,2.9-5.61,3.73C115.69,682.55,113.35,682.97,110.84,682.97z"/>
		<path class="st3" d="M131.66,682.71v-35.54h14.06c3.76,0,7.06,0.76,9.9,2.29c2.84,1.52,5.05,3.62,6.63,6.3
			c1.57,2.67,2.36,5.74,2.36,9.19s-0.79,6.52-2.36,9.19c-1.57,2.67-3.78,4.77-6.63,6.3c-2.84,1.52-6.14,2.28-9.9,2.28H131.66z
			 M134.25,680.38h11.27c3.35,0,6.26-0.66,8.73-1.98c2.47-1.32,4.38-3.14,5.74-5.46c1.35-2.32,2.03-4.98,2.03-8
			c0-3.01-0.68-5.68-2.03-8c-1.35-2.32-3.27-4.14-5.74-5.46c-2.47-1.32-5.38-1.98-8.73-1.98h-11.27V680.38z"/>
		<path class="st3" d="M173.6,682.71v-35.54h23.76v2.34h-21.17v30.87h21.94v2.34H173.6z M175.88,665.81v-2.28h19.24v2.28H175.88z"/>
		<path class="st3" d="M207.57,682.71v-35.54h23.76v2.34h-21.17v33.21H207.57z M209.85,667.03v-2.34h19.24v2.34H209.85z"/>
		<path class="st3" d="M254.33,682.97c-2.67,0-5.15-0.45-7.41-1.35c-2.27-0.9-4.24-2.16-5.92-3.78c-1.68-1.62-2.97-3.53-3.88-5.71
			c-0.91-2.18-1.37-4.58-1.37-7.19c0-2.61,0.46-5,1.37-7.18c0.91-2.18,2.22-4.09,3.91-5.71c1.69-1.62,3.66-2.89,5.92-3.78
			c2.25-0.9,4.73-1.35,7.44-1.35c2.57,0,4.96,0.41,7.16,1.22c2.2,0.81,4.08,2.03,5.64,3.66l-1.62,1.73
			c-1.56-1.52-3.26-2.61-5.1-3.25c-1.85-0.64-3.85-0.96-6.02-0.96c-2.3,0-4.44,0.39-6.4,1.17c-1.96,0.78-3.67,1.88-5.13,3.3
			c-1.46,1.42-2.58,3.08-3.38,4.98c-0.8,1.9-1.19,3.96-1.19,6.19c0,2.23,0.4,4.3,1.19,6.19c0.79,1.9,1.92,3.55,3.38,4.98
			c1.46,1.42,3.16,2.52,5.13,3.3c1.96,0.78,4.1,1.17,6.4,1.17c2.1,0,4.09-0.32,5.97-0.96c1.88-0.64,3.6-1.71,5.15-3.2l1.47,1.98
			c-1.59,1.52-3.5,2.67-5.71,3.43C259.1,682.59,256.77,682.97,254.33,682.97z M267.03,678.4l-2.49-0.3v-13h2.49V678.4z"/>
		<path class="st3" d="M278.4,682.71v-35.54h2.59v35.54H278.4z M280.69,665.81v-2.28h24.37v2.28H280.69z M304.75,682.71v-35.54h2.59
			v35.54H304.75z"/>
		<path class="st3" d="M319.73,682.71v-35.54h2.59v35.54H319.73z"/>
		<path class="st3" d="M337.91,682.97c-1.93,0-3.73-0.45-5.41-1.35c-1.68-0.9-3.02-2.14-4.04-3.73l1.57-1.73
			c0.98,1.46,2.14,2.56,3.48,3.33c1.34,0.76,2.8,1.14,4.39,1.14c4.7,0,7.06-2.79,7.06-8.38v-22.75h-13.1v-2.34h15.69v25.08
			c0,3.55-0.81,6.23-2.44,8.02C343.49,682.07,341.09,682.97,337.91,682.97z"/>
		<path class="st3" d="M359.64,682.71v-35.54h2.59v35.54H359.64z M361.87,673.73l-0.1-3.25l22.65-23.31h3.15l-15.84,16.4l-1.47,1.57
			L361.87,673.73z M385.48,682.71l-15.99-18.28l1.78-1.88l17.37,20.16H385.48z"/>
		<path class="st3" d="M395.33,682.71v-35.54h2.59v33.21h20.46v2.34H395.33z"/>
		<path class="st3" d="M425.04,682.71v-35.54h2.18l16.5,28.49h-1.17l16.45-28.49h2.13l0.05,35.54h-2.54l-0.05-31.63h0.71
			l-15.59,26.91h-1.27l-15.64-26.91h0.76v31.63H425.04z"/>
		<path class="st3" d="M6.19,743.65V708.1h2.18l25.34,32.34h-1.17V708.1h2.59v35.54H33L7.62,711.3h1.17v32.34H6.19z"/>
		<path class="st3" d="M62.61,743.9c-2.64,0-5.09-0.45-7.34-1.35c-2.25-0.9-4.21-2.17-5.89-3.81c-1.68-1.64-2.97-3.55-3.88-5.74
			c-0.91-2.18-1.37-4.56-1.37-7.13c0-2.57,0.46-4.95,1.37-7.13c0.91-2.18,2.21-4.1,3.88-5.74c1.68-1.64,3.64-2.91,5.89-3.81
			c2.25-0.9,4.7-1.35,7.34-1.35s5.09,0.45,7.34,1.35c2.25,0.9,4.21,2.16,5.86,3.78c1.66,1.62,2.95,3.53,3.88,5.71
			c0.93,2.18,1.4,4.58,1.4,7.18c0,2.61-0.47,5-1.4,7.19c-0.93,2.18-2.23,4.09-3.88,5.71c-1.66,1.62-3.61,2.89-5.86,3.78
			C67.69,743.45,65.25,743.9,62.61,743.9z M62.61,741.51c2.27,0,4.37-0.39,6.3-1.17c1.93-0.78,3.61-1.88,5.03-3.3
			c1.42-1.42,2.53-3.08,3.33-4.98c0.79-1.9,1.19-3.96,1.19-6.19c0-2.27-0.4-4.34-1.19-6.22c-0.8-1.88-1.9-3.53-3.33-4.95
			c-1.42-1.42-3.1-2.52-5.03-3.3c-1.93-0.78-4.03-1.17-6.3-1.17c-2.27,0-4.37,0.39-6.3,1.17c-1.93,0.78-3.61,1.88-5.05,3.3
			c-1.44,1.42-2.56,3.07-3.35,4.95c-0.8,1.88-1.19,3.95-1.19,6.22c0,2.23,0.4,4.3,1.19,6.19c0.79,1.9,1.91,3.55,3.35,4.98
			c1.44,1.42,3.12,2.52,5.05,3.3C58.24,741.12,60.34,741.51,62.61,741.51z"/>
		<path class="st3" d="M90.08,743.65V708.1h12.74c2.98,0,5.53,0.47,7.67,1.42c2.13,0.95,3.77,2.31,4.92,4.09
			c1.15,1.78,1.73,3.94,1.73,6.47c0,2.47-0.58,4.6-1.73,6.4c-1.15,1.79-2.79,3.17-4.92,4.11c-2.13,0.95-4.69,1.42-7.67,1.42H91.5
			l1.17-1.22v12.85H90.08z M92.66,730.95l-1.17-1.27h11.32c3.83,0,6.73-0.84,8.71-2.51c1.98-1.68,2.97-4.04,2.97-7.08
			c0-3.08-0.99-5.46-2.97-7.13c-1.98-1.68-4.88-2.51-8.71-2.51H91.5l1.17-1.27V730.95z"/>
		<path class="st3" d="M141.46,743.9c-2.64,0-5.09-0.45-7.34-1.35c-2.25-0.9-4.21-2.17-5.89-3.81c-1.68-1.64-2.97-3.55-3.88-5.74
			c-0.91-2.18-1.37-4.56-1.37-7.13c0-2.57,0.46-4.95,1.37-7.13c0.91-2.18,2.21-4.1,3.88-5.74c1.68-1.64,3.64-2.91,5.89-3.81
			c2.25-0.9,4.7-1.35,7.34-1.35s5.09,0.45,7.34,1.35c2.25,0.9,4.21,2.16,5.86,3.78c1.66,1.62,2.95,3.53,3.88,5.71
			c0.93,2.18,1.4,4.58,1.4,7.18c0,2.61-0.47,5-1.4,7.19c-0.93,2.18-2.23,4.09-3.88,5.71c-1.66,1.62-3.61,2.89-5.86,3.78
			C146.54,743.45,144.1,743.9,141.46,743.9z M141.46,741.51c2.27,0,4.37-0.39,6.3-1.17c1.93-0.78,3.61-1.88,5.03-3.3
			c1.42-1.42,2.53-3.08,3.33-4.98c0.79-1.9,1.19-3.96,1.19-6.19c0-2.23-0.4-4.3-1.19-6.19c-0.8-1.9-1.9-3.55-3.33-4.98
			c-1.42-1.42-3.1-2.52-5.03-3.3c-1.93-0.78-4.03-1.17-6.3-1.17c-2.27,0-4.37,0.39-6.3,1.17c-1.93,0.78-3.61,1.88-5.05,3.3
			c-1.44,1.42-2.56,3.08-3.35,4.98c-0.8,1.9-1.19,3.96-1.19,6.19c0,2.23,0.4,4.3,1.19,6.19c0.79,1.9,1.91,3.55,3.35,4.98
			c1.44,1.42,3.12,2.52,5.05,3.3C137.09,741.12,139.19,741.51,141.46,741.51z M153.14,750.4c-1.02,0-2.01-0.14-2.97-0.41
			s-1.95-0.69-2.94-1.24c-1-0.56-2.01-1.29-3.05-2.18c-1.03-0.9-2.14-1.97-3.33-3.22l2.94-0.71c1.08,1.25,2.16,2.3,3.22,3.15
			c1.07,0.85,2.11,1.46,3.12,1.85c1.02,0.39,2.01,0.58,3,0.58c2.78,0,5.11-1.13,7.01-3.4l1.37,1.57
			C159.35,749.06,156.56,750.4,153.14,750.4z"/>
		<path class="st3" d="M168.93,743.65V708.1h12.74c4.47,0,7.97,1.05,10.51,3.15c2.54,2.1,3.81,5.04,3.81,8.83
			c0,2.47-0.58,4.6-1.73,6.37c-1.15,1.78-2.79,3.15-4.92,4.11c-2.13,0.96-4.69,1.45-7.67,1.45h-11.32l1.17-1.22v12.85H168.93z
			 M171.52,730.95l-1.17-1.22h11.32c3.83,0,6.73-0.85,8.71-2.54c1.98-1.69,2.97-4.06,2.97-7.11c0-3.08-0.99-5.46-2.97-7.13
			c-1.98-1.68-4.88-2.51-8.71-2.51h-11.32l1.17-1.27V730.95z M193.61,743.65l-9.24-12.9h2.94l9.24,12.9H193.61z"/>
		<path class="st3" d="M214.83,743.9c-2.64,0-5.14-0.45-7.49-1.35c-2.35-0.9-4.17-2.06-5.46-3.48l1.17-1.93
			c1.22,1.25,2.89,2.31,5,3.17c2.12,0.86,4.36,1.29,6.73,1.29c2.37,0,4.31-0.31,5.81-0.94c1.51-0.63,2.62-1.46,3.35-2.51
			c0.73-1.05,1.09-2.22,1.09-3.5c0-1.52-0.41-2.74-1.22-3.66s-1.88-1.64-3.2-2.18s-2.76-1-4.32-1.37c-1.56-0.37-3.13-0.77-4.72-1.19
			c-1.59-0.42-3.05-0.97-4.37-1.65c-1.32-0.68-2.38-1.6-3.17-2.77c-0.8-1.17-1.19-2.68-1.19-4.54c0-1.69,0.44-3.25,1.32-4.67
			c0.88-1.42,2.25-2.57,4.11-3.45c1.86-0.88,4.25-1.32,7.16-1.32c1.96,0,3.9,0.29,5.81,0.86c1.91,0.58,3.55,1.35,4.9,2.34
			l-0.96,2.08c-1.49-1.02-3.09-1.77-4.8-2.26c-1.71-0.49-3.36-0.74-4.95-0.74c-2.27,0-4.15,0.32-5.64,0.96
			c-1.49,0.64-2.59,1.5-3.3,2.56s-1.07,2.26-1.07,3.58c0,1.52,0.4,2.74,1.19,3.66c0.79,0.91,1.85,1.64,3.17,2.18
			c1.32,0.54,2.78,1,4.37,1.37c1.59,0.37,3.17,0.77,4.72,1.19c1.56,0.42,3,0.97,4.32,1.65c1.32,0.68,2.39,1.59,3.2,2.74
			c0.81,1.15,1.22,2.64,1.22,4.47c0,1.66-0.46,3.21-1.37,4.65c-0.91,1.44-2.31,2.59-4.19,3.45
			C220.19,743.47,217.77,743.9,214.83,743.9z"/>
		<path class="st3" d="M242.7,743.65v-33.21h-12.8v-2.34h28.18v2.34h-12.8v33.21H242.7z"/>
		<path class="st3" d="M277.69,743.9c-4.4,0-7.87-1.29-10.41-3.86c-2.54-2.57-3.81-6.4-3.81-11.48V708.1h2.59v20.36
			c0,4.43,1.02,7.72,3.05,9.85c2.03,2.13,4.91,3.2,8.63,3.2c3.69,0,6.55-1.07,8.58-3.2c2.03-2.13,3.05-5.42,3.05-9.85V708.1h2.59
			v20.46c0,5.08-1.27,8.9-3.81,11.48C285.61,742.61,282.12,743.9,277.69,743.9z"/>
		<path class="st3" d="M313.99,743.65l-15.84-35.54h2.84l15.13,33.97h-1.57l15.18-33.97h2.69l-15.84,35.54H313.99z"/>
		<path class="st3" d="M346.84,743.65l-12.08-35.54h2.74l11.48,33.97h-1.37l11.83-33.97h2.49l11.73,33.97h-1.32l11.58-33.97h2.54
			l-12.03,35.54h-2.74l-11.37-32.85h0.66l-11.37,32.85H346.84z"/>
		<path class="st3" d="M388.43,743.65l14.42-19.35v2.03l-13.46-18.23h3.05l11.88,16.05h-1.12l11.88-16.05h2.89l-13.35,18.03v-1.73
			l14.32,19.24h-3.05l-12.8-17.16h1.07l-12.69,17.16H388.43z"/>
		<path class="st3" d="M433.06,743.65v-12.9l0.61,1.68l-14.93-24.32h2.84l13.56,22.09h-1.42l13.56-22.09h2.69l-14.93,24.32
			l0.61-1.68v12.9H433.06z"/>
		<path class="st3" d="M452.61,743.65v-1.83l25.34-32.39l0.25,1.02h-25.29v-2.34h27.77v1.83l-25.29,32.39l-0.3-1.02h26.15v2.34
			H452.61z"/>
		<path class="st3" d="M89.32,804.58v-34.43l1.17,1.22h-9.85v-2.34H91.9v35.54H89.32z"/>
		<path class="st3" d="M100.18,804.58v-1.83l15.03-14.93c1.42-1.42,2.49-2.67,3.2-3.73s1.19-2.06,1.45-2.97
			c0.25-0.91,0.38-1.81,0.38-2.69c0-2.23-0.76-4-2.29-5.31c-1.52-1.3-3.76-1.96-6.7-1.96c-2.23,0-4.19,0.34-5.86,1.02
			c-1.68,0.68-3.12,1.71-4.34,3.1l-1.83-1.62c1.35-1.56,3.07-2.76,5.15-3.6c2.08-0.85,4.44-1.27,7.08-1.27
			c2.34,0,4.36,0.38,6.07,1.14c1.71,0.76,3.03,1.85,3.96,3.25c0.93,1.4,1.4,3.07,1.4,5c0,1.15-0.16,2.28-0.48,3.38
			c-0.32,1.1-0.9,2.26-1.73,3.48c-0.83,1.22-2.02,2.61-3.58,4.16l-14.12,14.06l-0.86-1.02h22.49v2.34H100.18z"/>
		<path class="st3" d="M139.89,804.83c-2.61,0-5.04-0.44-7.29-1.32c-2.25-0.88-4-2.03-5.26-3.45l1.32-1.98
			c1.08,1.25,2.61,2.29,4.59,3.12c1.98,0.83,4.19,1.24,6.63,1.24c3.18,0,5.61-0.71,7.29-2.13c1.68-1.42,2.51-3.33,2.51-5.74
			c0-2.37-0.84-4.27-2.51-5.71c-1.68-1.44-4.29-2.16-7.84-2.16h-2.23v-1.88l11.32-14.47l0.36,1.02h-20.11v-2.34h22.29v1.83
			l-11.27,14.47l-1.12-0.81h1.12c4.23,0,7.4,0.93,9.5,2.79c2.1,1.86,3.15,4.28,3.15,7.26c0,1.96-0.47,3.72-1.4,5.28
			c-0.93,1.56-2.32,2.78-4.16,3.66C144.92,804.39,142.63,804.83,139.89,804.83z"/>
		<path class="st3" d="M157.2,794.73v-1.88l19.29-23.81h2.89l-19.24,23.81l-1.42-0.41h28.74v2.28H157.2z M177.46,804.58v-9.85
			l0.05-2.28v-8.68H180v20.82H177.46z"/>
		<path class="st3" d="M204.93,786.96v-2.18h21.58v2.18H204.93z M204.93,804.58v-2.18h21.58v2.18H204.93z M214.58,796.25v-20.82
			h2.28v20.82H214.58z"/>
		<path class="st3" d="M236.56,804.78c-0.58,0-1.07-0.21-1.47-0.63c-0.41-0.42-0.61-0.91-0.61-1.45c0-0.58,0.2-1.07,0.61-1.47
			s0.9-0.61,1.47-0.61c0.61,0,1.12,0.2,1.52,0.61s0.61,0.9,0.61,1.47c0,0.54-0.2,1.02-0.61,1.45
			C237.68,804.57,237.17,804.78,236.56,804.78z M235.6,794.37l-0.51-25.34h2.94l-0.51,25.34H235.6z"/>
		<path class="st3" d="M269.06,814.68c-3.42,0-6.56-0.57-9.42-1.7c-2.86-1.13-5.33-2.73-7.41-4.77c-2.08-2.05-3.68-4.47-4.8-7.26
			s-1.68-5.88-1.68-9.27c0-3.38,0.57-6.48,1.7-9.29c1.13-2.81,2.75-5.23,4.85-7.26c2.1-2.03,4.59-3.6,7.46-4.7
			c2.88-1.1,6.04-1.65,9.5-1.65c3.42,0,6.55,0.54,9.39,1.62c2.84,1.08,5.31,2.62,7.41,4.6c2.1,1.98,3.71,4.35,4.85,7.11
			c1.13,2.76,1.7,5.8,1.7,9.11c0,2.88-0.32,5.32-0.96,7.34c-0.64,2.01-1.56,3.55-2.74,4.62c-1.19,1.07-2.56,1.6-4.11,1.6
			c-1.59,0-2.88-0.47-3.86-1.42c-0.98-0.95-1.47-2.28-1.47-4.01v-4.47l0.46-3.4l-0.51-4.42v-8.43h2.34v20.06
			c0,1.46,0.32,2.49,0.96,3.1c0.64,0.61,1.44,0.91,2.39,0.91c1.12,0,2.09-0.45,2.92-1.35c0.83-0.9,1.47-2.19,1.93-3.88
			c0.46-1.69,0.69-3.76,0.69-6.19c0-3.08-0.52-5.88-1.55-8.4c-1.03-2.52-2.51-4.7-4.42-6.52c-1.91-1.83-4.17-3.22-6.78-4.19
			c-2.61-0.96-5.48-1.45-8.63-1.45c-3.15,0-6.04,0.51-8.68,1.52c-2.64,1.02-4.91,2.45-6.8,4.32c-1.9,1.86-3.36,4.07-4.39,6.63
			c-1.03,2.56-1.55,5.39-1.55,8.5c0,3.08,0.51,5.91,1.52,8.48c1.02,2.57,2.46,4.8,4.34,6.68c1.88,1.88,4.12,3.33,6.73,4.34
			c2.61,1.02,5.48,1.52,8.63,1.52c1.52,0,3.16-0.18,4.9-0.53c1.74-0.36,3.34-0.92,4.8-1.7l0.66,1.88c-1.49,0.78-3.18,1.36-5.08,1.75
			C272.44,814.48,270.68,814.68,269.06,814.68z M268.65,804.78c-2.4,0-4.56-0.57-6.47-1.7c-1.91-1.13-3.42-2.7-4.52-4.7
			c-1.1-2-1.65-4.27-1.65-6.8c0-2.57,0.55-4.84,1.65-6.8c1.1-1.96,2.61-3.51,4.52-4.65c1.91-1.13,4.07-1.7,6.47-1.7
			c2.37,0,4.48,0.54,6.32,1.62c1.84,1.08,3.3,2.61,4.37,4.57c1.07,1.96,1.6,4.28,1.6,6.96c0,2.64-0.53,4.96-1.6,6.96
			c-1.07,2-2.51,3.54-4.34,4.62C273.17,804.24,271.05,804.78,268.65,804.78z M268.91,802.65c2.03,0,3.84-0.46,5.43-1.4
			c1.59-0.93,2.84-2.23,3.76-3.88c0.91-1.66,1.37-3.59,1.37-5.79c0-2.23-0.46-4.17-1.37-5.81c-0.91-1.64-2.17-2.92-3.76-3.83
			c-1.59-0.91-3.4-1.37-5.43-1.37c-2,0-3.79,0.46-5.38,1.37c-1.59,0.91-2.84,2.2-3.76,3.86c-0.91,1.66-1.37,3.59-1.37,5.79
			c0,2.17,0.46,4.09,1.37,5.76c0.91,1.68,2.17,2.98,3.76,3.91C265.11,802.18,266.91,802.65,268.91,802.65z"/>
		<path class="st3" d="M297.03,794.52v-2.03h30.16v2.03H297.03z M298.61,781.12v-2.03h30.21v2.03H298.61z M303.13,804.58l4.37-35.54
			h2.08l-4.42,35.54H303.13z M316.33,804.58l4.37-35.54h2.03l-4.37,35.54H316.33z"/>
		<path class="st3" d="M345.98,804.83c-2.64,0-5.14-0.45-7.49-1.35c-2.35-0.9-4.17-2.06-5.46-3.48l1.17-1.93
			c1.22,1.25,2.89,2.31,5,3.17c2.12,0.86,4.36,1.29,6.73,1.29c2.37,0,4.31-0.31,5.81-0.94c1.51-0.63,2.62-1.46,3.35-2.51
			c0.73-1.05,1.09-2.22,1.09-3.5c0-1.52-0.41-2.74-1.22-3.66s-1.88-1.64-3.2-2.18s-2.76-1-4.32-1.37c-1.56-0.37-3.13-0.77-4.72-1.19
			c-1.59-0.42-3.05-0.97-4.37-1.65c-1.32-0.68-2.38-1.6-3.17-2.77c-0.8-1.17-1.19-2.68-1.19-4.54c0-1.69,0.44-3.25,1.32-4.67
			c0.88-1.42,2.25-2.57,4.11-3.45c1.86-0.88,4.25-1.32,7.16-1.32c1.96,0,3.9,0.29,5.81,0.86c1.91,0.58,3.55,1.35,4.9,2.34
			l-0.96,2.08c-1.49-1.02-3.09-1.77-4.8-2.26c-1.71-0.49-3.36-0.74-4.95-0.74c-2.27,0-4.15,0.32-5.64,0.96
			c-1.49,0.64-2.59,1.5-3.3,2.56s-1.07,2.26-1.07,3.58c0,1.52,0.4,2.74,1.19,3.66c0.79,0.91,1.85,1.64,3.17,2.18
			c1.32,0.54,2.78,1,4.37,1.37c1.59,0.37,3.17,0.77,4.72,1.19c1.56,0.42,3,0.97,4.32,1.65c1.32,0.68,2.39,1.59,3.2,2.74
			c0.81,1.15,1.22,2.64,1.22,4.47c0,1.66-0.46,3.21-1.37,4.65c-0.91,1.44-2.31,2.59-4.19,3.45
			C351.34,804.4,348.93,804.83,345.98,804.83z M345.12,810.67v-47.73H347v47.73H345.12z"/>
		<path class="st3" d="M371.47,788.02c-1.52,0-2.88-0.4-4.06-1.19c-1.19-0.79-2.11-1.91-2.77-3.35c-0.66-1.44-0.99-3.12-0.99-5.05
			c0-1.93,0.33-3.61,0.99-5.05c0.66-1.44,1.58-2.56,2.77-3.35c1.18-0.79,2.54-1.19,4.06-1.19c1.56,0,2.93,0.4,4.11,1.19
			c1.18,0.8,2.11,1.91,2.77,3.35c0.66,1.44,0.99,3.12,0.99,5.05c0,1.93-0.33,3.61-0.99,5.05c-0.66,1.44-1.58,2.56-2.77,3.35
			C374.4,787.63,373.03,788.02,371.47,788.02z M371.47,786.3c1.79,0,3.23-0.69,4.32-2.08c1.08-1.39,1.62-3.32,1.62-5.79
			c0-2.47-0.54-4.4-1.62-5.79c-1.08-1.39-2.52-2.08-4.32-2.08c-1.76,0-3.18,0.7-4.27,2.11c-1.08,1.4-1.62,3.33-1.62,5.76
			c0,2.44,0.54,4.36,1.62,5.76C368.29,785.59,369.71,786.3,371.47,786.3z M368.88,804.58l24.27-35.54h2.18l-24.27,35.54H368.88z
			 M392.74,804.78c-1.52,0-2.89-0.4-4.09-1.19c-1.2-0.79-2.13-1.91-2.79-3.35c-0.66-1.44-0.99-3.12-0.99-5.05
			c0-1.93,0.33-3.61,0.99-5.05c0.66-1.44,1.59-2.56,2.79-3.35c1.2-0.79,2.56-1.19,4.09-1.19c1.56,0,2.92,0.4,4.09,1.19
			c1.17,0.8,2.08,1.91,2.74,3.35c0.66,1.44,0.99,3.12,0.99,5.05c0,1.93-0.33,3.61-0.99,5.05c-0.66,1.44-1.57,2.56-2.74,3.35
			C395.66,804.38,394.3,804.78,392.74,804.78z M392.74,803.05c1.76,0,3.18-0.7,4.26-2.11c1.08-1.4,1.62-3.33,1.62-5.76
			c0-2.44-0.54-4.36-1.62-5.76c-1.08-1.4-2.51-2.11-4.26-2.11c-1.79,0-3.23,0.69-4.32,2.08c-1.08,1.39-1.62,3.32-1.62,5.79
			c0,2.47,0.54,4.4,1.62,5.79C389.51,802.36,390.95,803.05,392.74,803.05z"/>
	</g>
</g>
</svg>
