<?xml version="1.0" encoding="utf-8"?>
<!-- Generator: Adobe Illustrator 24.0.2, SVG Export Plug-In . SVG Version: 6.00 Build 0)  -->
<svg version="1.1" id="Layer_1" xmlns="http://www.w3.org/2000/svg" xmlns:xlink="http://www.w3.org/1999/xlink" x="0px" y="0px"
	 viewBox="0 0 891.93 131.98" style="enable-background:new 0 0 891.93 131.98;" xml:space="preserve">
<style type="text/css">
	.st0{fill:#666666;}
	.st1{fill:#182C4C;}
	.st2{fill:none;stroke:#C8C8C8;stroke-width:3;stroke-miterlimit:10;}
	.st3{fill:#9FC3F1;}
</style>
<g>
	<path class="st0" d="M468.33,65.02l-10.3-5.95c-0.74-0.43-1.67,0.11-1.67,0.97v5.16h-29.63c-0.44,0-0.79,0.35-0.79,0.79
		s0.35,0.79,0.79,0.79h29.63v5.16c0,0.86,0.93,1.4,1.67,0.97l10.3-5.95C469.08,66.53,469.08,65.45,468.33,65.02z"/>
	<g>
		<g>
			<path class="st1" d="M570.5,54.69c-2.11-1.89-5.11-2.84-9-2.84c-2.25,0-4.4,0.31-6.45,0.94c-2.05,0.62-3.81,1.53-5.27,2.7
				l2.14,3.86c1.11-0.93,2.46-1.67,4.07-2.22c1.61-0.55,3.25-0.83,4.93-0.83c2.53,0,4.44,0.6,5.7,1.79c1.27,1.2,1.9,2.88,1.9,5.06
				v1.02h-8.14c-2.82,0-5.06,0.37-6.72,1.12c-1.66,0.75-2.86,1.75-3.59,3c-0.73,1.25-1.1,2.64-1.1,4.18c0,1.61,0.43,3.04,1.29,4.31
				c0.86,1.27,2.08,2.26,3.67,2.97c1.59,0.71,3.44,1.07,5.54,1.07c2.61,0,4.77-0.49,6.48-1.47c1.2-0.69,2.15-1.55,2.84-2.59v3.74
				h4.87V63.37C573.66,59.47,572.6,56.58,570.5,54.69z M565.38,75.57c-1.45,0.86-3.13,1.29-5.06,1.29c-1.96,0-3.5-0.42-4.61-1.26
				c-1.11-0.84-1.66-1.95-1.66-3.35c0-1.21,0.45-2.25,1.34-3.11c0.89-0.86,2.62-1.29,5.19-1.29h7.93v3.96
				C567.87,73.47,566.83,74.72,565.38,75.57z"/>
			<path class="st1" d="M605.62,53.67c-2.14-1.21-4.61-1.82-7.39-1.82c-2.43,0-4.61,0.54-6.56,1.61c-1.4,0.77-2.59,1.82-3.56,3.15
				v-4.49h-4.93v38.77h5.14v-14.7c0.97,1.25,2.11,2.25,3.45,3c1.95,1.09,4.1,1.63,6.45,1.63c2.78,0,5.25-0.61,7.39-1.82
				c2.14-1.21,3.84-2.91,5.09-5.09c1.25-2.18,1.87-4.71,1.87-7.6s-0.62-5.42-1.87-7.58C609.46,56.57,607.77,54.89,605.62,53.67z
				 M606.13,71.59c-0.84,1.52-1.98,2.69-3.43,3.51c-1.45,0.82-3.08,1.23-4.9,1.23c-1.79,0-3.4-0.41-4.85-1.23
				c-1.45-0.82-2.59-1.99-3.43-3.51c-0.84-1.52-1.26-3.27-1.26-5.27c0-2.03,0.42-3.79,1.26-5.27c0.84-1.48,1.98-2.63,3.43-3.45
				c1.45-0.82,3.06-1.23,4.85-1.23c1.82,0,3.45,0.41,4.9,1.23c1.45,0.82,2.59,1.97,3.43,3.45c0.84,1.48,1.26,3.24,1.26,5.27
				C607.39,68.31,606.97,70.07,606.13,71.59z"/>
			<path class="st1" d="M638.61,53.67c-2.11-1.21-4.53-1.82-7.28-1.82c-2.71,0-5.15,0.62-7.31,1.85c-2.16,1.23-3.86,2.94-5.09,5.11
				c-1.23,2.18-1.85,4.68-1.85,7.5c0,2.82,0.63,5.32,1.9,7.5c1.27,2.18,3.05,3.89,5.35,5.14c2.3,1.25,4.97,1.87,8.01,1.87
				c2.36,0,4.49-0.39,6.4-1.18c1.91-0.78,3.51-1.93,4.79-3.43l-2.84-3.32c-1.04,1.14-2.24,2-3.61,2.57
				c-1.37,0.57-2.9,0.86-4.58,0.86c-2.03,0-3.84-0.41-5.41-1.23c-1.57-0.82-2.79-1.97-3.67-3.45c-0.65-1.09-1.05-2.3-1.22-3.61
				h23.04c0.04-0.25,0.06-0.52,0.08-0.8c0.02-0.29,0.03-0.54,0.03-0.75c0-2.93-0.6-5.49-1.79-7.68
				C642.37,56.59,640.72,54.89,638.61,53.67z M626.56,57.39c1.39-0.8,2.98-1.2,4.77-1.2c1.82,0,3.42,0.4,4.79,1.2
				c1.37,0.8,2.45,1.92,3.24,3.35c0.6,1.08,0.95,2.28,1.08,3.59H622.2c0.15-1.3,0.52-2.49,1.1-3.56
				C624.08,59.32,625.17,58.2,626.56,57.39z"/>
			<polygon class="st1" points="675.02,52.12 669.4,52.12 661.61,62.35 653.82,52.12 648.09,52.12 658.73,65.99 647.55,80.5 
				653.28,80.5 661.57,69.62 669.78,80.5 675.61,80.5 664.33,65.98 			"/>
			<path class="st1" d="M703.67,53.67c-2.14-1.21-4.61-1.82-7.39-1.82c-2.36,0-4.51,0.54-6.45,1.61c-1.34,0.74-2.49,1.73-3.45,2.98
				V40.77h-5.14V80.5h4.93v-4.49c0.98,1.33,2.16,2.39,3.56,3.18c1.95,1.09,4.13,1.63,6.56,1.63c2.78,0,5.25-0.61,7.39-1.82
				c2.14-1.21,3.84-2.91,5.09-5.09c1.25-2.18,1.87-4.71,1.87-7.6s-0.62-5.42-1.87-7.58C707.51,56.57,705.81,54.89,703.67,53.67z
				 M704.18,71.59c-0.84,1.52-1.98,2.69-3.43,3.51c-1.45,0.82-3.08,1.23-4.9,1.23c-1.79,0-3.4-0.41-4.85-1.23
				c-1.45-0.82-2.59-1.99-3.43-3.51c-0.84-1.52-1.26-3.27-1.26-5.27c0-2.03,0.42-3.79,1.26-5.27c0.84-1.48,1.98-2.63,3.43-3.45
				c1.45-0.82,3.06-1.23,4.85-1.23c1.82,0,3.45,0.41,4.9,1.23c1.45,0.82,2.59,1.97,3.43,3.45c0.84,1.48,1.26,3.24,1.26,5.27
				C705.44,68.31,705.02,70.07,704.18,71.59z"/>
			<path class="st1" d="M727.22,74.8l-9.9-22.68h-5.35l12.52,28.31l-0.9,2c-0.71,1.64-1.48,2.78-2.3,3.43
				c-0.82,0.64-1.86,0.96-3.11,0.96c-0.96,0-1.87-0.18-2.73-0.54c-0.86-0.36-1.64-0.88-2.36-1.55l-2.2,3.86
				c0.93,0.86,2.04,1.51,3.32,1.95c1.29,0.45,2.61,0.67,3.96,0.67c1.46,0,2.8-0.24,4.02-0.72c1.21-0.48,2.33-1.29,3.35-2.44
				c1.02-1.14,1.94-2.71,2.76-4.71l13.76-31.22h-5.03L727.22,74.8z"/>
			<path class="st1" d="M757.33,76.48c-1.43,0-2.53-0.41-3.29-1.23c-0.77-0.82-1.15-2-1.15-3.53V56.35h8.14v-4.23h-8.14v-6.21h-5.14
				v6.21h-4.82v4.23h4.82v15.58c0,2.86,0.78,5.05,2.36,6.59c1.57,1.54,3.78,2.3,6.64,2.3c1.18,0,2.31-0.16,3.4-0.48
				c1.09-0.32,2.03-0.82,2.81-1.5l-1.61-3.69C760.27,76.04,758.93,76.48,757.33,76.48z"/>
			<path class="st1" d="M787.1,53.67c-2.11-1.21-4.53-1.82-7.28-1.82c-2.71,0-5.15,0.62-7.31,1.85c-2.16,1.23-3.86,2.94-5.09,5.11
				c-1.23,2.18-1.85,4.68-1.85,7.5c0,2.82,0.63,5.32,1.9,7.5c1.27,2.18,3.05,3.89,5.35,5.14c2.3,1.25,4.97,1.87,8.01,1.87
				c2.36,0,4.49-0.39,6.4-1.18c1.91-0.78,3.51-1.93,4.79-3.43l-2.84-3.32c-1.04,1.14-2.24,2-3.61,2.57
				c-1.37,0.57-2.9,0.86-4.58,0.86c-2.03,0-3.84-0.41-5.41-1.23c-1.57-0.82-2.79-1.97-3.67-3.45c-0.65-1.09-1.05-2.3-1.22-3.61
				h23.04c0.04-0.25,0.06-0.52,0.08-0.8c0.02-0.29,0.03-0.54,0.03-0.75c0-2.93-0.6-5.49-1.79-7.68
				C790.86,56.59,789.21,54.89,787.1,53.67z M775.05,57.39c1.39-0.8,2.98-1.2,4.77-1.2c1.82,0,3.42,0.4,4.79,1.2
				c1.37,0.8,2.45,1.92,3.24,3.35c0.6,1.08,0.95,2.28,1.08,3.59h-18.24c0.15-1.3,0.52-2.49,1.1-3.56
				C772.57,59.32,773.66,58.2,775.05,57.39z"/>
			<path class="st1" d="M820.38,68.56c-0.66-0.96-1.52-1.71-2.57-2.25c-1.05-0.54-2.22-0.95-3.51-1.26
				c-1.29-0.3-2.57-0.55-3.86-0.75c-1.29-0.2-2.45-0.44-3.51-0.72c-1.05-0.29-1.91-0.69-2.57-1.2c-0.66-0.52-0.99-1.26-0.99-2.22
				c0-1.14,0.55-2.08,1.66-2.81c1.11-0.73,2.78-1.1,5.03-1.1c1.39,0,2.78,0.16,4.18,0.48s2.73,0.91,4.02,1.77l2.2-4.07
				c-1.21-0.82-2.78-1.45-4.69-1.9c-1.91-0.45-3.79-0.67-5.65-0.67c-2.43,0-4.52,0.35-6.29,1.04c-1.77,0.7-3.13,1.69-4.1,2.97
				c-0.96,1.29-1.45,2.78-1.45,4.5c0,1.64,0.32,2.95,0.96,3.94c0.64,0.98,1.5,1.75,2.57,2.3c1.07,0.55,2.25,0.98,3.53,1.29
				c1.29,0.3,2.57,0.55,3.86,0.75c1.29,0.2,2.45,0.42,3.51,0.67c1.05,0.25,1.9,0.62,2.54,1.12c0.64,0.5,0.96,1.2,0.96,2.09
				c0,1.21-0.53,2.16-1.58,2.84c-1.05,0.68-2.78,1.02-5.17,1.02c-1.86,0-3.68-0.29-5.46-0.86c-1.79-0.57-3.28-1.27-4.5-2.09
				l-2.14,4.07c1.21,0.93,2.88,1.71,5.01,2.36c2.12,0.64,4.36,0.96,6.72,0.96c2.53,0,4.71-0.35,6.53-1.04
				c1.82-0.7,3.23-1.67,4.23-2.92c1-1.25,1.5-2.73,1.5-4.44C821.37,70.81,821.04,69.52,820.38,68.56z"/>
		</g>
		<path class="st2" d="M850.31,130.48H520.03c-22.16,0-40.12-17.96-40.12-40.12V41.62c0-22.16,17.96-40.12,40.12-40.12h330.28
			c22.16,0,40.12,17.96,40.12,40.12v48.73C890.43,112.51,872.47,130.48,850.31,130.48z"/>
	</g>
	<g>
		<path class="st3" d="M92.33,80.82l-0.45-3.89h-0.19c-1.72,2.43-5.04,4.6-9.45,4.6c-6.26,0-9.45-4.4-9.45-8.87
			c0-7.47,6.64-11.56,18.58-11.49v-0.64c0-2.55-0.7-7.15-7.02-7.15c-2.87,0-5.87,0.89-8.04,2.3l-1.28-3.7
			c2.55-1.66,6.26-2.75,10.15-2.75c9.45,0,11.75,6.45,11.75,12.64v11.56c0,2.68,0.13,5.3,0.51,7.41H92.33z M91.5,65.05
			c-6.13-0.13-13.09,0.96-13.09,6.96c0,3.64,2.43,5.36,5.3,5.36c4.02,0,6.58-2.55,7.47-5.17c0.19-0.58,0.32-1.21,0.32-1.79V65.05z"
			/>
		<path class="st3" d="M105.99,60.01c0-3.96-0.13-7.15-0.26-10.09h5.04l0.26,5.3h0.13c2.3-3.77,5.94-6,10.98-6
			c7.47,0,13.09,6.32,13.09,15.71c0,11.11-6.77,16.6-14.05,16.6c-4.09,0-7.66-1.79-9.51-4.85h-0.13v16.79h-5.55V60.01z
			 M111.55,68.25c0,0.83,0.13,1.6,0.26,2.3c1.02,3.89,4.41,6.58,8.43,6.58c5.94,0,9.38-4.85,9.38-11.94
			c0-6.19-3.26-11.49-9.19-11.49c-3.83,0-7.41,2.75-8.49,6.96c-0.19,0.7-0.38,1.53-0.38,2.3V68.25z"/>
		<path class="st3" d="M145.45,66.39c0.13,7.6,4.98,10.73,10.6,10.73c4.02,0,6.45-0.7,8.55-1.6l0.96,4.02
			c-1.98,0.89-5.36,1.91-10.28,1.91c-9.51,0-15.19-6.26-15.19-15.58c0-9.32,5.49-16.66,14.49-16.66c10.09,0,12.77,8.87,12.77,14.56
			c0,1.15-0.13,2.04-0.19,2.62H145.45z M161.92,62.37c0.06-3.58-1.47-9.13-7.79-9.13c-5.68,0-8.17,5.23-8.62,9.13H161.92z"/>
		<path class="st3" d="M176.73,49.92l4.41,6.64c1.15,1.72,2.11,3.32,3.13,5.04h0.19c1.02-1.85,2.04-3.45,3.06-5.11l4.34-6.58h6.07
			l-10.53,14.94l10.85,15.96h-6.38l-4.53-6.96c-1.21-1.79-2.23-3.51-3.32-5.36h-0.13c-1.02,1.85-2.11,3.51-3.26,5.36l-4.47,6.96
			h-6.19l10.98-15.77l-10.47-15.13H176.73z"/>
		<path class="st1" d="M203.41,80.82c0.13-2.11,0.26-5.24,0.26-7.98V35.49h5.55V54.9h0.13c1.98-3.45,5.55-5.68,10.53-5.68
			c7.66,0,13.09,6.38,13.02,15.77c0,11.04-6.96,16.54-13.85,16.54c-4.47,0-8.04-1.72-10.34-5.81h-0.19l-0.26,5.11H203.41z
			 M209.22,68.44c0,0.7,0.13,1.4,0.26,2.04c1.09,3.89,4.34,6.58,8.43,6.58c5.87,0,9.38-4.79,9.38-11.88
			c0-6.19-3.19-11.49-9.19-11.49c-3.83,0-7.41,2.62-8.55,6.9c-0.13,0.64-0.32,1.4-0.32,2.3V68.44z"/>
		<path class="st1" d="M241.59,49.92l6.77,18.26c0.7,2.04,1.47,4.47,1.98,6.32h0.13c0.57-1.85,1.21-4.21,1.98-6.45l6.13-18.13h5.94
			l-8.43,22.03c-4.02,10.6-6.77,16.02-10.6,19.34c-2.75,2.43-5.49,3.38-6.9,3.64l-1.4-4.72c1.4-0.45,3.26-1.34,4.92-2.75
			c1.53-1.21,3.45-3.38,4.72-6.26c0.26-0.58,0.45-1.02,0.45-1.34c0-0.32-0.13-0.77-0.38-1.47l-11.43-28.47H241.59z"/>
		<path class="st1" d="M276.38,41.05v8.87h8.04v4.28h-8.04v16.66c0,3.83,1.09,6,4.21,6c1.47,0,2.55-0.19,3.26-0.38l0.26,4.21
			c-1.09,0.45-2.81,0.77-4.98,0.77c-2.62,0-4.72-0.83-6.06-2.36c-1.6-1.66-2.17-4.41-2.17-8.04V54.2h-4.79v-4.28h4.79v-7.41
			L276.38,41.05z"/>
		<path class="st1" d="M293.49,66.39c0.13,7.6,4.98,10.73,10.6,10.73c4.02,0,6.45-0.7,8.55-1.6l0.96,4.02
			c-1.98,0.89-5.36,1.91-10.28,1.91c-9.51,0-15.19-6.26-15.19-15.58c0-9.32,5.49-16.66,14.49-16.66c10.09,0,12.77,8.87,12.77,14.56
			c0,1.15-0.13,2.04-0.19,2.62H293.49z M309.96,62.37c0.06-3.58-1.47-9.13-7.79-9.13c-5.68,0-8.17,5.23-8.62,9.13H309.96z"/>
		<path class="st1" d="M321.58,75.08c1.66,1.08,4.6,2.23,7.41,2.23c4.09,0,6-2.04,6-4.6c0-2.68-1.6-4.15-5.75-5.68
			c-5.55-1.98-8.17-5.04-8.17-8.75c0-4.98,4.02-9.07,10.66-9.07c3.13,0,5.87,0.89,7.6,1.92l-1.4,4.09
			c-1.21-0.77-3.45-1.79-6.32-1.79c-3.32,0-5.17,1.92-5.17,4.21c0,2.55,1.85,3.7,5.87,5.23c5.36,2.04,8.11,4.72,8.11,9.32
			c0,5.43-4.21,9.26-11.56,9.26c-3.38,0-6.51-0.83-8.68-2.11L321.58,75.08z"/>
	</g>
	<path class="st2" d="M371.9,130.48H41.62c-22.16,0-40.12-17.96-40.12-40.12V41.62C1.5,19.46,19.46,1.5,41.62,1.5H371.9
		c22.16,0,40.12,17.96,40.12,40.12v48.73C412.03,112.51,394.06,130.48,371.9,130.48z"/>
</g>
<g>
</g>
<g>
</g>
<g>
</g>
<g>
</g>
<g>
</g>
<g>
</g>
<g>
</g>
<g>
</g>
<g>
</g>
<g>
</g>
<g>
</g>
<g>
</g>
<g>
</g>
<g>
</g>
<g>
</g>
</svg>
