<?xml version="1.0" encoding="utf-8"?>
<!-- Generator: Adobe Illustrator 24.0.2, SVG Export Plug-In . SVG Version: 6.00 Build 0)  -->
<svg version="1.1" id="Layer_1" xmlns="http://www.w3.org/2000/svg" xmlns:xlink="http://www.w3.org/1999/xlink" x="0px" y="0px"
	 viewBox="0 0 303.11 303.11" style="enable-background:new 0 0 303.11 303.11;" xml:space="preserve">
<style type="text/css">
	.st0{fill:#E5EBF8;}
	.st1{opacity:0.8;}
	.st2{fill:#00D4D9;}
	.st3{fill:url(#SVGID_1_);}
	.st4{fill:url(#SVGID_2_);}
	.st5{fill:#FFFFFF;}
	.st6{fill:none;stroke:#000000;stroke-miterlimit:10;}
</style>
<g>
	<path class="st0" d="M223.04,80.11c-3.09-3.09-8.13-3.09-11.22,0.07L78.45,221.13c-0.91,0.98-0.84,2.52,0.07,3.44
		c0.98,0.98,2.45,0.98,3.44,0.07L222.9,91.26C226.05,88.24,226.12,83.2,223.04,80.11z M220.16,88.17l-18.09,17.18
		c-1.19,1.12-3.09,1.12-4.28-0.07c-1.19-1.19-1.19-3.09-0.07-4.28l17.18-18.09c1.47-1.47,3.86-1.47,5.33,0
		c0.7,0.77,1.05,1.68,1.05,2.59C221.29,86.56,220.87,87.47,220.16,88.17z"/>
	<path class="st0" d="M184.9,92.63c-2.3-1.31-4.69-2.49-7.16-3.52c0.57,3.24,0.94,6.55,1.1,9.92l-14.15,14.95
		c0.58-3.56,0.88-7.21,0.88-10.93c0-6.31-0.86-12.42-2.48-18.21c-3.75-0.65-7.6-0.98-11.53-0.98c-3.71,0-7.35,0.3-10.9,0.88
		c-1.75,6.01-2.69,12.37-2.69,18.95c0,11.07,2.66,21.51,7.37,30.74l-9.66,10.2c-7.04-12.01-11.08-26.01-11.08-40.94
		c0-5.06,0.46-10.02,1.36-14.82c0.04-0.26,0.09-0.52,0.15-0.77c-0.28,0.35-0.56,0.7-0.83,1.05c-8.8,11.42-14.04,25.74-14.04,41.28
		c0,11.46,2.85,22.25,7.87,31.7l-6.65,7.04l-2.96,3.12c-0.47-0.76-0.92-1.54-1.35-2.32c-6.56-11.7-10.29-25.18-10.29-39.54
		c0-8.59,1.34-16.87,3.82-24.64c-11.06,12.05-17.82,28.13-17.82,45.77c0,6.31,0.86,12.42,2.48,18.21c1.38,4.97,3.32,9.7,5.73,14.14
		c0.78,1.42,1.61,2.81,2.48,4.17l-1.73,1.84l-7.56,7.98c-3.32-4.75-6.15-9.87-8.39-15.29c-0.21-0.46-0.39-0.92-0.58-1.39
		c-1.96-4.98-3.45-10.21-4.4-15.63c-0.79-4.55-1.21-9.24-1.21-14.03c0-32.15,18.76-59.92,45.92-72.96c4.4-2.11,9.03-3.84,13.83-5.12
		c5.16-1.41,10.52-2.3,16.03-2.63c0.11-0.02,0.23-0.03,0.35-0.02c1.57-0.1,3.15-0.15,4.75-0.15c1.99,0,3.96,0.07,5.91,0.22
		c5.5,0.39,10.84,1.33,15.98,2.78c7.11,1.99,13.84,4.93,20.01,8.69c0.12,0.28,0.24,0.56,0.35,0.85L184.9,92.63z"/>
	<path class="st0" d="M220.33,108.98l-7.6,7.2l-2.21,2.09l-13.01,12.32c-2.97,13.42-9.27,25.58-17.98,35.58
		c-4.39-1.84-8.54-4.13-12.4-6.81l-9.88,9.36c3.74,2.79,7.74,5.27,11.94,7.39c4.45,2.25,9.13,4.1,14,5.5
		c7.13,2.06,14.68,3.16,22.48,3.16c1.67,0,3.33-0.05,4.98-0.16c-1.61,2.88-3.43,5.63-5.43,8.23c-8.08,3.41-16.96,5.29-26.28,5.29
		c-5.52,0-10.89-0.66-16.02-1.91c-6.16-1.49-11.98-3.83-17.35-6.88c-2.08-1.18-4.1-2.46-6.03-3.85l-7.86,7.45h-0.01l-1.99,1.89
		c4.53,3.47,9.44,6.47,14.65,8.93c10.49,4.97,22.23,7.74,34.61,7.74c1.46,0,2.9-0.04,4.34-0.12c-9.46,5.03-20.25,7.88-31.72,7.88
		c-13.42,0-25.92-3.9-36.44-10.64l-9.82,9.29c13.11,9.16,29.05,14.53,46.26,14.53c24.69,0,46.8-11.06,61.64-28.51
		c5.51-6.48,10.02-13.85,13.28-21.86c0.74-1.81,1.42-3.65,2.02-5.53c1.07-3.27,1.93-6.63,2.57-10.07c0.9-4.83,1.37-9.81,1.37-14.91
		C232.44,135.94,228.01,121.35,220.33,108.98z M216.56,170.52c-3.54,0.58-7.18,0.88-10.89,0.88c-4.19,0-8.29-0.38-12.27-1.12
		c10.48-13.7,17.3-30.35,18.97-48.49c4.41,8.98,6.89,19.09,6.89,29.77C219.26,158.14,218.32,164.51,216.56,170.52z"/>
</g>
</svg>
