<?xml version="1.0" encoding="utf-8"?>
<!-- Generator: Adobe Illustrator 24.0.2, SVG Export Plug-In . SVG Version: 6.00 Build 0)  -->
<svg version="1.1" id="Layer_1" xmlns="http://www.w3.org/2000/svg" xmlns:xlink="http://www.w3.org/1999/xlink" x="0px" y="0px"
	 viewBox="0 0 126.5 126.59" style="enable-background:new 0 0 126.5 126.59;" xml:space="preserve">
<style type="text/css">
	.st0{fill:#468ECD;}
</style>
<path class="st0" d="M18.7,92.09l-7.2,7.6c-3.2-4.6-5.9-9.7-7.9-15.2c-0.4-1.2-0.9-2.5-1.2-3.8C0.8,75.09,0,69.19,0,63.29
	c0-25.1,14.8-47.8,37.7-57.9l0,0l0,0l0,0l0,0c3.8-1.7,7.8-3,11.9-3.9l0,0c9-2,18.7-2,27.7,0.1c6.9,1.6,13.4,4.3,19.4,8l-7.2,7.6l0,0
	c-0.3-0.2-0.5-0.3-0.8-0.4c-0.2-0.1-0.5-0.3-0.7-0.4c-0.3-0.1-0.5-0.3-0.8-0.4c-0.2-0.1-0.5-0.2-0.7-0.4c-0.3-0.1-0.6-0.3-0.8-0.4
	c-0.2-0.1-0.5-0.2-0.7-0.3c-0.3-0.1-0.6-0.2-0.9-0.4c-0.1-0.1-0.3-0.1-0.5-0.2c0.5,2.7,0.8,5.4,1,8.1l-10.7,11.3
	c0.4-2.5,0.6-5.1,0.6-7.7c0-5.1-0.7-10.2-2.2-15c-1.6-0.3-3.1-0.5-4.7-0.6c-0.2,0-0.4,0-0.6,0c-0.6,0-1.2-0.1-1.8-0.1
	c-0.3,0-0.5,0-0.8,0c-0.5,0-1.1,0-1.6,0c-0.3,0-0.6,0-0.9,0c-0.5,0-1,0-1.6,0.1c-0.3,0-0.6,0-0.9,0.1c-0.5,0-1.1,0.1-1.6,0.1
	c-0.3,0-0.5,0-0.8,0.1c-0.8,0.1-1.6,0.2-2.4,0.3c-0.1,0.4-0.2,0.7-0.3,1.1c-0.1,0.2-0.1,0.4-0.2,0.6c-0.2,0.7-0.3,1.4-0.5,2
	c0,0.1-0.1,0.3-0.1,0.4c-0.1,0.6-0.2,1.1-0.3,1.7c0,0.2-0.1,0.5-0.1,0.7c-0.1,0.5-0.1,0.9-0.2,1.4c0,0.3-0.1,0.5-0.1,0.8
	c-0.1,0.4-0.1,0.9-0.1,1.3c0,0.3,0,0.5-0.1,0.8c0,0.5-0.1,1-0.1,1.4c0,0.2,0,0.5,0,0.7c0,0.7,0,1.4,0,2.1c0,0.8,0,1.6,0.1,2.4
	c0,0.3,0,0.5,0,0.8c0,0.5,0.1,1.1,0.1,1.6c0,0.3,0.1,0.6,0.1,0.9c0.1,0.5,0.1,1,0.2,1.5c0,0.3,0.1,0.6,0.1,0.9
	c0.1,0.5,0.2,1,0.2,1.5c0.1,0.3,0.1,0.6,0.2,0.9c0.1,0.5,0.2,1,0.3,1.5c0.1,0.3,0.1,0.5,0.2,0.8c0.2,0.7,0.3,1.3,0.5,2
	c0,0.1,0.1,0.2,0.1,0.3c0.2,0.8,0.5,1.5,0.7,2.2c0.1,0.2,0.2,0.4,0.2,0.7c0.2,0.5,0.4,1,0.6,1.5c0.1,0.3,0.2,0.5,0.3,0.8
	c0.2,0.5,0.4,0.9,0.6,1.4c0.1,0.3,0.3,0.6,0.4,0.8c0.2,0.4,0.4,0.9,0.6,1.3c0.1,0.1,0.1,0.2,0.2,0.3l-7.4,7.8
	c-4-6.8-6.7-14.4-7.9-22.2c-0.2-1.2-0.3-2.4-0.5-3.6c-0.2-2-0.3-4-0.3-6.1c0-1,0-1.9,0.1-2.9c0-0.3,0-0.6,0.1-0.9
	c0-0.6,0.1-1.3,0.1-1.9c0-0.4,0.1-0.7,0.1-1.1c0.1-0.6,0.1-1.2,0.2-1.7c0.1-0.4,0.1-0.8,0.2-1.2c0.1-0.6,0.2-1.1,0.3-1.7
	c0-0.2,0.1-0.3,0.1-0.5c-0.1,0-0.2,0.1-0.3,0.1c-0.1,0.2-0.2,0.3-0.4,0.5c-0.2,0.3-0.4,0.6-0.6,0.8c-0.2,0.3-0.5,0.6-0.7,1
	c-0.2,0.3-0.4,0.6-0.6,0.9c-0.2,0.3-0.4,0.7-0.7,1c-0.2,0.3-0.4,0.6-0.6,0.9c-0.2,0.3-0.4,0.7-0.6,1s-0.3,0.6-0.5,0.9
	c-0.2,0.4-0.4,0.7-0.6,1.1c-0.2,0.3-0.3,0.6-0.5,0.9c-0.2,0.4-0.4,0.7-0.5,1.1c-0.1,0.3-0.3,0.6-0.4,0.9c-0.2,0.4-0.3,0.7-0.5,1.1
	c-0.1,0.3-0.3,0.6-0.4,0.9c-0.2,0.4-0.3,0.8-0.4,1.1s-0.2,0.6-0.4,1c-0.1,0.4-0.3,0.8-0.4,1.2c-0.1,0.3-0.2,0.6-0.3,1
	c-0.1,0.4-0.2,0.8-0.3,1.2c-0.1,0.3-0.2,0.6-0.3,1c-0.1,0.4-0.2,0.8-0.3,1.2c-0.1,0.3-0.2,0.6-0.2,1c-0.1,0.4-0.2,0.8-0.2,1.2
	c-0.1,0.3-0.1,0.6-0.2,1s-0.1,0.9-0.2,1.3c0,0.3-0.1,0.6-0.1,0.9c-0.1,0.5-0.1,0.9-0.1,1.4c0,0.3-0.1,0.6-0.1,0.9
	c0,0.5-0.1,1-0.1,1.5c0,0.2,0,0.5,0,0.7c0,0.8,0,1.5,0,2.3c0,8.8,2.1,17.2,6.1,24.8l-7.3,7.8c-5.9-9.8-9-20.9-9-32.6
	c0-0.9,0-1.8,0.1-2.7c0-0.3,0-0.6,0.1-0.9c0-0.6,0.1-1.2,0.1-1.8c0-0.4,0.1-0.7,0.1-1c0.1-0.5,0.1-1.1,0.2-1.6
	c0-0.4,0.1-0.7,0.2-1.1c0.1-0.5,0.1-1,0.2-1.5c0.1-0.4,0.1-0.8,0.2-1.1c0.1-0.5,0.2-1,0.3-1.5c0.1-0.4,0.2-0.8,0.3-1.1
	c0.1-0.5,0.2-1,0.3-1.4s0.2-0.8,0.3-1.1c0.1-0.5,0.3-0.9,0.4-1.4c0.1-0.4,0.2-0.8,0.4-1.1c0.1-0.3,0.2-0.5,0.2-0.8
	c-9.2,9.7-14.6,22.7-14.6,36.5c0,5,0.7,9.9,2,14.6c0.3,1.1,0.6,2.1,1,3.1C14.7,84.99,16.5,88.69,18.7,92.09z M117.1,30.09
	c6.1,9.9,9.4,21.3,9.4,33.2c0,7.3-1.2,14.5-3.7,21.3l0,0c-2.4,6.9-6,13.2-10.7,18.9l0,0c-12.1,14.7-29.9,23.1-48.9,23.1
	c-13.2,0-25.7-4.1-36.1-11.3l7.6-7.2c8.3,5.3,18.2,8.3,28.5,8.3c8.8,0,17.3-2.2,24.9-6.2l0,0c-1.1,0.1-2.2,0.1-3.3,0.1
	c-12.8,0-25.1-3.8-35.6-10.9c-1-0.7-2-1.4-2.9-2.1l7.5-7.1c0.4,0.3,0.8,0.6,1.2,0.8c8.8,6,19.1,9.2,29.8,9.2c0.9,0,1.8,0,2.7-0.1
	c0.3,0,0.6,0,0.9-0.1c0.6,0,1.2-0.1,1.8-0.1c0.4,0,0.7-0.1,1.1-0.1c0.5-0.1,1.1-0.1,1.6-0.2c0.4-0.1,0.7-0.1,1.1-0.2
	c0.5-0.1,1-0.2,1.5-0.3c0.4-0.1,0.8-0.2,1.1-0.3c0.5-0.1,1-0.2,1.4-0.3c0.4-0.1,0.8-0.2,1.1-0.3c0.5-0.1,0.9-0.3,1.4-0.4
	c0.4-0.1,0.8-0.2,1.1-0.4c0.5-0.2,0.9-0.3,1.4-0.5c0.4-0.1,0.8-0.3,1.1-0.4c0.3-0.1,0.5-0.2,0.8-0.3c1.7-2.1,3.2-4.4,4.5-6.8
	c-0.1,0-0.2,0-0.3,0c-0.4,0-0.9,0-1.3,0.1c-0.2,0-0.4,0-0.6,0c-0.6,0-1.3,0-1.9,0c-7.4,0-14.6-1.3-21.5-3.7
	c-1.7-0.6-3.4-1.3-5.1-2.1c-0.2-0.1-0.5-0.2-0.7-0.3c-0.3-0.1-0.6-0.3-0.9-0.4c-3-1.5-6-3.3-8.7-5.3c-0.3-0.2-0.6-0.4-0.8-0.6
	l7.6-7.2c0.2,0.2,0.5,0.3,0.7,0.5c0.3,0.2,0.6,0.4,1,0.6c0.5,0.3,1,0.6,1.5,0.9c0.3,0.2,0.6,0.4,1,0.6c0.6,0.3,1.1,0.6,1.7,0.9
	c0.3,0.1,0.5,0.3,0.8,0.4c0.9,0.4,1.7,0.8,2.6,1.2c7.7-7.6,12.9-17.5,14.8-28.1L117.1,30.09z M116.2,63.29c0-8.5-2-16.7-5.7-24
	c-0.5,14.3-5.9,28-15.1,38.8c3.3,0.6,6.6,1,10,1c0.9,0,1.7,0,2.6-0.1c0.3,0,0.5,0,0.8,0c0.6,0,1.3-0.1,1.9-0.2c0.3,0,0.5,0,0.8-0.1
	c0.9-0.1,1.7-0.2,2.6-0.3C115.5,73.49,116.2,68.49,116.2,63.29z M119.2,7.49c2.4,2.4,2.4,6.4-0.1,8.7l-110,104.1
	c-0.8,0.7-1.9,0.7-2.7,0c-0.7-0.7-0.7-1.9,0-2.7l104.1-110C112.8,5.19,116.8,5.09,119.2,7.49z M117,9.79c-1.1-1.1-3-1.1-4.1,0
	l-13.5,14.1c-0.9,0.9-0.9,2.4,0,3.3c0.9,0.9,2.4,0.9,3.3,0l14.3-13.3c0.6-0.6,0.9-1.3,0.9-2.1C117.8,11.09,117.5,10.29,117,9.79z"/>
<g>
</g>
<g>
</g>
<g>
</g>
<g>
</g>
<g>
</g>
<g>
</g>
<g>
</g>
<g>
</g>
<g>
</g>
<g>
</g>
<g>
</g>
<g>
</g>
<g>
</g>
<g>
</g>
<g>
</g>
</svg>
