<?xml version="1.0" encoding="utf-8"?>
<!-- Generator: Adobe Illustrator 26.3.1, SVG Export Plug-In . SVG Version: 6.00 Build 0)  -->
<svg version="1.1" id="Layer_1" xmlns="http://www.w3.org/2000/svg" xmlns:xlink="http://www.w3.org/1999/xlink" x="0px" y="0px"
	 viewBox="0 0 258.2 258.2" style="enable-background:new 0 0 258.2 258.2;" xml:space="preserve">
<style type="text/css">
	.st0{fill:#E5EBF8;}
</style>
<path class="st0" d="M47.7,181.6l-13.2,13.9c-5.9-8.4-10.8-17.7-14.4-27.8c-0.8-2.3-1.6-4.6-2.2-6.9c-2.9-10.3-4.4-21-4.4-31.8
	c0-45.8,27.1-87.3,69-105.8c0,0,0,0,0,0c0,0,0,0,0,0c0,0,0,0,0,0c0,0,0,0,0,0c6.9-3.1,14.2-5.4,21.7-7.1c0,0,0,0,0,0
	c16.5-3.6,34.1-3.6,50.7,0.2c12.5,2.9,24.5,7.8,35.4,14.6L177,44.9c0,0,0,0,0,0c-0.5-0.3-1-0.5-1.5-0.8c-0.4-0.2-0.9-0.5-1.3-0.7
	c-0.5-0.3-1-0.5-1.5-0.8c-0.4-0.2-0.9-0.4-1.3-0.7c-0.5-0.2-1-0.5-1.5-0.7c-0.4-0.2-0.9-0.4-1.3-0.6c-0.5-0.2-1-0.5-1.6-0.7
	c-0.3-0.1-0.5-0.2-0.8-0.3c0.9,4.9,1.5,9.9,1.8,14.9l-19.5,20.6c0.7-4.6,1-9.3,1-14c0-9.4-1.3-18.6-3.9-27.4
	c-2.8-0.5-5.7-0.8-8.6-1.1c-0.4,0-0.7,0-1.1-0.1c-1.1-0.1-2.2-0.1-3.3-0.2c-0.5,0-1,0-1.5,0c-1,0-2,0-3,0c-0.5,0-1.1,0-1.6,0
	c-1,0-1.9,0.1-2.9,0.1c-0.5,0-1.1,0.1-1.6,0.1c-1,0.1-2,0.2-3,0.3c-0.5,0-0.9,0.1-1.4,0.1c-1.4,0.2-2.9,0.4-4.3,0.6
	c-0.2,0.7-0.4,1.4-0.6,2c-0.1,0.4-0.2,0.7-0.3,1.1c-0.3,1.2-0.6,2.5-0.9,3.7c-0.1,0.2-0.1,0.5-0.1,0.7c-0.2,1-0.4,2-0.6,3
	c-0.1,0.4-0.1,0.9-0.2,1.3c-0.1,0.8-0.3,1.7-0.4,2.5c-0.1,0.5-0.1,1-0.2,1.5c-0.1,0.8-0.2,1.6-0.3,2.5c0,0.5-0.1,1-0.1,1.4
	c-0.1,0.9-0.1,1.8-0.2,2.6c0,0.4-0.1,0.8-0.1,1.2c-0.1,1.3-0.1,2.6-0.1,3.9c0,1.5,0,2.9,0.1,4.4c0,0.5,0.1,0.9,0.1,1.4
	c0.1,1,0.1,2,0.2,2.9c0,0.6,0.1,1.1,0.2,1.6c0.1,0.9,0.2,1.8,0.3,2.7c0.1,0.6,0.2,1.1,0.2,1.7c0.1,0.9,0.3,1.8,0.4,2.7
	c0.1,0.5,0.2,1.1,0.3,1.6c0.2,0.9,0.4,1.9,0.6,2.8c0.1,0.5,0.2,1,0.3,1.4c0.3,1.2,0.6,2.4,1,3.6c0.1,0.2,0.1,0.4,0.2,0.6
	c0.4,1.4,0.8,2.7,1.3,4.1c0.1,0.4,0.3,0.8,0.4,1.2c0.3,0.9,0.7,1.9,1.1,2.8c0.2,0.5,0.4,1,0.6,1.5c0.3,0.8,0.7,1.7,1.1,2.5
	c0.2,0.5,0.5,1,0.7,1.5c0.4,0.8,0.8,1.6,1.2,2.4c0.1,0.2,0.2,0.4,0.3,0.6l-13.5,14.2C99.2,107,94.3,93.2,92,78.8
	c-0.3-2.2-0.6-4.4-0.8-6.6c-0.4-3.7-0.5-7.4-0.5-11.1c0-1.8,0-3.5,0.1-5.3c0-0.6,0.1-1.1,0.1-1.7c0.1-1.2,0.1-2.4,0.2-3.5
	c0.1-0.7,0.1-1.4,0.2-2c0.1-1.1,0.2-2.1,0.4-3.2c0.1-0.7,0.2-1.4,0.3-2.1c0.2-1,0.3-2,0.5-3c0.1-0.3,0.1-0.6,0.2-0.9
	c-0.2,0.1-0.4,0.2-0.6,0.2c-0.2,0.3-0.4,0.6-0.7,0.8c-0.4,0.5-0.8,1-1.2,1.5c-0.4,0.6-0.9,1.2-1.3,1.8c-0.4,0.5-0.7,1.1-1.1,1.6
	c-0.4,0.6-0.8,1.2-1.2,1.8c-0.3,0.5-0.7,1.1-1,1.6c-0.4,0.6-0.8,1.3-1.1,1.9c-0.3,0.5-0.6,1.1-0.9,1.7c-0.4,0.6-0.7,1.3-1,1.9
	c-0.3,0.6-0.6,1.1-0.9,1.7c-0.3,0.7-0.6,1.3-1,2c-0.3,0.6-0.5,1.1-0.8,1.7c-0.3,0.7-0.6,1.4-0.9,2c-0.2,0.6-0.5,1.1-0.7,1.7
	c-0.3,0.7-0.5,1.4-0.8,2.1c-0.2,0.6-0.4,1.2-0.6,1.7c-0.2,0.7-0.5,1.4-0.7,2.1c-0.2,0.6-0.4,1.2-0.6,1.8c-0.2,0.7-0.4,1.4-0.6,2.2
	c-0.2,0.6-0.3,1.2-0.5,1.8c-0.2,0.7-0.4,1.5-0.5,2.2c-0.1,0.6-0.3,1.2-0.4,1.8c-0.2,0.8-0.3,1.5-0.4,2.3c-0.1,0.6-0.2,1.2-0.3,1.7
	c-0.1,0.8-0.2,1.6-0.4,2.3c-0.1,0.6-0.2,1.1-0.3,1.7c-0.1,0.8-0.2,1.7-0.3,2.5C72,90,71.9,90.5,71.9,91c-0.1,0.9-0.1,1.8-0.2,2.8
	c0,0.4-0.1,0.9-0.1,1.3c-0.1,1.4-0.1,2.7-0.1,4.1c0,16,3.9,31.5,11.2,45.3l-13.4,14.2c-10.8-17.9-16.5-38.3-16.5-59.5
	c0-1.6,0-3.2,0.1-4.9c0-0.5,0.1-1.1,0.1-1.6c0.1-1.1,0.1-2.2,0.2-3.2c0.1-0.6,0.1-1.3,0.2-1.9c0.1-1,0.2-1.9,0.3-2.9
	c0.1-0.7,0.2-1.4,0.3-2c0.1-0.9,0.3-1.8,0.4-2.8c0.1-0.7,0.3-1.4,0.4-2.1c0.2-0.9,0.3-1.8,0.5-2.7c0.1-0.7,0.3-1.4,0.5-2.1
	c0.2-0.9,0.4-1.7,0.6-2.6c0.2-0.7,0.4-1.4,0.6-2.1c0.2-0.9,0.5-1.7,0.7-2.5c0.2-0.7,0.4-1.4,0.7-2.1c0.2-0.5,0.3-1,0.4-1.4
	C42.1,80,32.2,103.8,32.2,129.1c0,9,1.2,18,3.7,26.7c0.5,1.9,1.2,3.9,1.8,5.8C40.3,168.7,43.7,175.4,47.7,181.6z M227.5,68.3
	c11.2,18,17.2,38.8,17.2,60.7c0,13.3-2.3,26.4-6.7,38.9c0,0,0,0,0,0c-4.5,12.5-11,24.1-19.5,34.5c0,0,0,0,0,0
	c-22.1,26.8-54.6,42.2-89.3,42.2c-24.1,0-47-7.6-66-20.7L77,210.7c15.2,9.7,33.2,15.2,52,15.2c16.1,0,31.6-3.9,45.4-11.3
	c0,0,0,0-0.1,0c-2,0.1-4.1,0.2-6.1,0.2c-23.3,0-45.8-6.9-65-20c-1.8-1.2-3.6-2.6-5.4-3.9l13.8-13c0.7,0.5,1.4,1,2.1,1.5
	c16.1,11,34.9,16.8,54.5,16.8c1.7,0,3.3,0,4.9-0.1c0.5,0,1.1-0.1,1.6-0.1c1.1-0.1,2.2-0.1,3.3-0.3c0.6-0.1,1.3-0.2,1.9-0.2
	c1-0.1,1.9-0.2,2.9-0.4c0.7-0.1,1.4-0.2,2-0.4c0.9-0.2,1.8-0.3,2.7-0.5c0.7-0.1,1.4-0.3,2.1-0.5c0.9-0.2,1.8-0.4,2.6-0.6
	c0.7-0.2,1.4-0.4,2.1-0.6c0.9-0.2,1.7-0.5,2.6-0.8c0.7-0.2,1.4-0.5,2.1-0.7c0.8-0.3,1.7-0.6,2.5-0.9c0.7-0.3,1.4-0.5,2.1-0.8
	c0.5-0.2,1-0.4,1.4-0.6c3.1-3.9,5.8-8,8.2-12.4c-0.2,0-0.3,0-0.5,0c-0.8,0-1.6,0.1-2.3,0.1c-0.4,0-0.7,0-1.1,0
	c-1.2,0-2.3,0.1-3.5,0.1c-13.5,0-26.7-2.3-39.3-6.8c-3.1-1.1-6.2-2.4-9.2-3.8c-0.4-0.2-0.9-0.4-1.3-0.6c-0.6-0.3-1.1-0.5-1.7-0.8
	c-5.6-2.8-10.9-6-16-9.7c-0.5-0.4-1-0.8-1.5-1.1l13.8-13.1c0.4,0.3,0.9,0.6,1.3,0.9c0.6,0.4,1.2,0.8,1.8,1.2
	c0.9,0.6,1.8,1.1,2.8,1.7c0.6,0.3,1.2,0.7,1.7,1c1,0.6,2.1,1.1,3.2,1.7c0.5,0.3,1,0.5,1.5,0.8c1.6,0.8,3.1,1.5,4.7,2.2
	c14.1-14,23.5-31.9,27.1-51.3L227.5,68.3z M225.9,129.1c0-15.5-3.6-30.5-10.4-43.8c-0.9,26.2-10.7,51.2-27.5,71
	c6,1.1,12.1,1.7,18.3,1.7c1.6,0,3.2-0.1,4.8-0.1c0.5,0,0.9-0.1,1.4-0.1c1.2-0.1,2.3-0.2,3.5-0.3c0.5,0,0.9-0.1,1.4-0.1
	c1.6-0.2,3.1-0.4,4.7-0.6C224.6,147.8,225.9,138.5,225.9,129.1z M231.3,27.2c4.4,4.4,4.3,11.6-0.2,15.9l-201,190.2
	c-1.4,1.3-3.5,1.3-4.9-0.1c-1.3-1.3-1.4-3.5-0.1-4.9l190.2-201C219.7,22.8,226.9,22.8,231.3,27.2z M227.3,31.2
	c-2.1-2.1-5.5-2.1-7.6,0l-24.5,25.8c-1.6,1.7-1.6,4.4,0.1,6.1c1.7,1.7,4.4,1.7,6.1,0.1l25.8-24.5c1-1,1.6-2.3,1.6-3.8
	C228.8,33.6,228.3,32.3,227.3,31.2z"/>
<g>
</g>
<g>
</g>
<g>
</g>
<g>
</g>
<g>
</g>
<g>
</g>
<g>
</g>
<g>
</g>
<g>
</g>
<g>
</g>
<g>
</g>
<g>
</g>
<g>
</g>
<g>
</g>
<g>
</g>
</svg>
