<?xml version="1.0" encoding="utf-8"?>
<!-- Generator: Adobe Illustrator 26.3.1, SVG Export Plug-In . SVG Version: 6.00 Build 0)  -->
<svg version="1.1" id="Layer_1" xmlns="http://www.w3.org/2000/svg" xmlns:xlink="http://www.w3.org/1999/xlink" x="0px" y="0px"
	 viewBox="0 0 545.5 354.3" style="enable-background:new 0 0 545.5 354.3;" xml:space="preserve">
<style type="text/css">
	.st0{fill:#003975;}
	.st1{fill:#468ECD;}
</style>
<g>
	<g>
		<path class="st0" d="M81.2,221H31.3c0.9,4.1,3,7.3,6.4,9.7c3.4,2.4,7.5,3.6,12.5,3.6c3.4,0,6.5-0.5,9.1-1.5c2.7-1,5.1-2.6,7.4-4.8
			L77,239c-6.2,7.1-15.3,10.7-27.2,10.7c-7.4,0-14-1.5-19.7-4.4c-5.7-2.9-10.1-6.9-13.2-12.1c-3.1-5.2-4.7-11-4.7-17.5
			c0-6.5,1.5-12.3,4.6-17.5c3.1-5.2,7.3-9.2,12.6-12.1c5.4-2.9,11.3-4.4,18-4.4c6.5,0,12.3,1.4,17.5,4.2c5.2,2.8,9.3,6.8,12.3,12
			c3,5.2,4.5,11.2,4.5,18.1C81.6,216.1,81.5,217.9,81.2,221z M36.5,199.8c-2.9,2.5-4.7,5.8-5.4,10.1h32.5c-0.7-4.2-2.5-7.5-5.4-10
			c-2.9-2.5-6.5-3.7-10.8-3.7C43.1,196.2,39.4,197.4,36.5,199.8z"/>
		<path class="st0" d="M136.9,245.5c-1.9,1.4-4.2,2.4-6.9,3.1c-2.7,0.7-5.6,1-8.6,1c-7.8,0-13.9-2-18.2-6c-4.3-4-6.4-9.9-6.4-17.7
			v-27.1H86.5v-14.7h10.2v-16.1h19.1v16.1h16.4v14.7h-16.4v26.9c0,2.8,0.7,4.9,2.1,6.4c1.4,1.5,3.5,2.3,6.1,2.3c3,0,5.6-0.8,7.7-2.5
			L136.9,245.5z"/>
		<path class="st0" d="M207.6,189c5,4.9,7.5,12.2,7.5,21.8v37.8H196v-34.8c0-5.2-1.1-9.1-3.4-11.7c-2.3-2.6-5.6-3.9-9.9-3.9
			c-4.8,0-8.7,1.5-11.5,4.5c-2.9,3-4.3,7.4-4.3,13.3v32.6h-19.1v-91h19.1v31.9c2.5-2.5,5.6-4.5,9.2-5.8c3.6-1.3,7.5-2,11.8-2
			C196,181.7,202.6,184.1,207.6,189z"/>
		<path class="st0" d="M297.5,221h-49.9c0.9,4.1,3,7.3,6.4,9.7c3.4,2.4,7.5,3.6,12.5,3.6c3.4,0,6.5-0.5,9.1-1.5
			c2.7-1,5.1-2.6,7.4-4.8l10.2,11c-6.2,7.1-15.3,10.7-27.2,10.7c-7.4,0-14-1.5-19.7-4.4c-5.7-2.9-10.1-6.9-13.2-12.1
			c-3.1-5.2-4.7-11-4.7-17.5c0-6.5,1.5-12.3,4.6-17.5c3.1-5.2,7.3-9.2,12.6-12.1c5.4-2.9,11.3-4.4,18-4.4c6.5,0,12.3,1.4,17.5,4.2
			c5.2,2.8,9.3,6.8,12.3,12c3,5.2,4.5,11.2,4.5,18.1C297.8,216.1,297.7,217.9,297.5,221z M252.7,199.8c-2.9,2.5-4.7,5.8-5.4,10.1
			h32.5c-0.7-4.2-2.5-7.5-5.4-10c-2.9-2.5-6.5-3.7-10.8-3.7C259.3,196.2,255.6,197.4,252.7,199.8z"/>
		<path class="st0" d="M338.1,184.1c3.9-1.6,8.4-2.5,13.4-2.5v17.7c-2.1-0.2-3.6-0.2-4.3-0.2c-5.5,0-9.8,1.5-12.9,4.6
			c-3.1,3.1-4.7,7.7-4.7,13.8v31.2h-19.1v-66h18.3v8.7C331.1,188.2,334.2,185.8,338.1,184.1z"/>
		<path class="st0" d="M426.6,221h-49.9c0.9,4.1,3,7.3,6.4,9.7c3.4,2.4,7.5,3.6,12.5,3.6c3.4,0,6.5-0.5,9.1-1.5
			c2.7-1,5.1-2.6,7.4-4.8l10.2,11c-6.2,7.1-15.3,10.7-27.2,10.7c-7.4,0-14-1.5-19.7-4.4c-5.7-2.9-10.1-6.9-13.2-12.1
			c-3.1-5.2-4.7-11-4.7-17.5c0-6.5,1.5-12.3,4.6-17.5c3.1-5.2,7.3-9.2,12.6-12.1c5.4-2.9,11.3-4.4,18-4.4c6.5,0,12.3,1.4,17.5,4.2
			c5.2,2.8,9.3,6.8,12.3,12c3,5.2,4.5,11.2,4.5,18.1C427,216.1,426.8,217.9,426.6,221z M381.8,199.8c-2.9,2.5-4.7,5.8-5.4,10.1h32.5
			c-0.7-4.2-2.5-7.5-5.4-10c-2.9-2.5-6.5-3.7-10.8-3.7C388.4,196.2,384.8,197.4,381.8,199.8z"/>
		<path class="st0" d="M488,189c5.5,4.9,8.2,12.2,8.2,22v37.6h-17.9v-8.2c-3.6,6.1-10.3,9.2-20.1,9.2c-5.1,0-9.5-0.9-13.2-2.6
			c-3.7-1.7-6.6-4.1-8.5-7.1c-2-3-2.9-6.5-2.9-10.3c0-6.1,2.3-11,6.9-14.5c4.6-3.5,11.8-5.3,21.4-5.3h15.2c0-4.2-1.3-7.4-3.8-9.6
			c-2.5-2.2-6.3-3.4-11.4-3.4c-3.5,0-7,0.6-10.4,1.7c-3.4,1.1-6.3,2.6-8.6,4.5l-6.9-13.4c3.6-2.5,7.9-4.5,12.9-5.9
			c5-1.4,10.2-2.1,15.5-2.1C474.7,181.7,482.6,184.1,488,189z M471.7,234.5c2.5-1.5,4.3-3.7,5.4-6.7V221H464
			c-7.8,0-11.8,2.6-11.8,7.7c0,2.5,1,4.4,2.9,5.8c1.9,1.4,4.6,2.1,7.9,2.1C466.3,236.7,469.2,236,471.7,234.5z"/>
		<path class="st0" d="M513.5,157.6h19.1v91h-19.1V157.6z"/>
	</g>
	<g>
		<path class="st0" d="M245.1,279.8c1.6,1.3,2.4,3.1,2.4,5.5c0,2.3-0.8,4.1-2.4,5.5c-1.6,1.3-3.8,2-6.5,2h-5.3v6.5h-3.1v-21.4h8.3
			C241.4,277.8,243.5,278.5,245.1,279.8z M242.9,288.9c1-0.8,1.5-2,1.5-3.6c0-1.5-0.5-2.7-1.5-3.6c-1-0.8-2.5-1.2-4.4-1.2h-5.2v9.6
			h5.2C240.4,290.1,241.9,289.7,242.9,288.9z"/>
		<path class="st0" d="M256.4,283.6c1-0.5,2.2-0.7,3.6-0.7v2.8c-0.2,0-0.4,0-0.7,0c-1.6,0-2.8,0.5-3.7,1.4c-0.9,0.9-1.4,2.3-1.4,4.1
			v8.1h-2.9V283h2.8v2.7C254.6,284.8,255.4,284.1,256.4,283.6z"/>
		<path class="st0" d="M263.7,279.4c-0.4-0.4-0.6-0.8-0.6-1.3c0-0.5,0.2-1,0.6-1.4c0.4-0.4,0.9-0.6,1.4-0.6c0.6,0,1,0.2,1.4,0.5
			c0.4,0.4,0.6,0.8,0.6,1.3c0,0.6-0.2,1-0.6,1.4c-0.4,0.4-0.9,0.6-1.4,0.6C264.5,279.9,264.1,279.7,263.7,279.4z M263.6,283h2.9
			v16.2h-2.9V283z"/>
		<path class="st0" d="M285.7,284.7c1.2,1.2,1.8,2.9,1.8,5.2v9.3h-2.9v-9c0-1.6-0.4-2.8-1.1-3.5c-0.8-0.8-1.8-1.2-3.2-1.2
			c-1.6,0-2.8,0.5-3.8,1.4c-0.9,0.9-1.4,2.3-1.4,4v8.3h-2.9V283h2.8v2.4c0.6-0.8,1.4-1.5,2.4-1.9c1-0.4,2.2-0.7,3.4-0.7
			C282.9,282.9,284.5,283.5,285.7,284.7z"/>
		<path class="st0" d="M302.1,298.3c-0.4,0.4-1,0.6-1.6,0.8c-0.6,0.2-1.3,0.3-2,0.3c-1.6,0-2.9-0.4-3.8-1.3
			c-0.9-0.9-1.3-2.1-1.3-3.8v-8.9h-2.8V283h2.8v-3.5h2.9v3.5h4.6v2.4h-4.6v8.8c0,0.9,0.2,1.5,0.7,2c0.4,0.5,1.1,0.7,1.9,0.7
			c0.9,0,1.7-0.3,2.3-0.8L302.1,298.3z"/>
		<path class="st0" d="M305.7,279.4c-0.4-0.4-0.6-0.8-0.6-1.3c0-0.5,0.2-1,0.6-1.4c0.4-0.4,0.9-0.6,1.4-0.6c0.6,0,1,0.2,1.4,0.5
			c0.4,0.4,0.6,0.8,0.6,1.3c0,0.6-0.2,1-0.6,1.4c-0.4,0.4-0.9,0.6-1.4,0.6C306.5,279.9,306.1,279.7,305.7,279.4z M305.7,283h2.9
			v16.2h-2.9V283z"/>
		<path class="st0" d="M327.7,284.7c1.2,1.2,1.8,2.9,1.8,5.2v9.3h-2.9v-9c0-1.6-0.4-2.8-1.1-3.5c-0.8-0.8-1.8-1.2-3.2-1.2
			c-1.6,0-2.8,0.5-3.8,1.4c-0.9,0.9-1.4,2.3-1.4,4v8.3h-2.9V283h2.8v2.4c0.6-0.8,1.4-1.5,2.4-1.9c1-0.4,2.2-0.7,3.4-0.7
			C324.9,282.9,326.5,283.5,327.7,284.7z"/>
		<path class="st0" d="M350.6,283v14c0,2.8-0.7,4.9-2.1,6.3c-1.4,1.4-3.5,2-6.3,2c-1.5,0-3-0.2-4.4-0.6c-1.4-0.4-2.5-1-3.4-1.8
			l1.4-2.3c0.8,0.7,1.7,1.2,2.8,1.5c1.1,0.4,2.3,0.6,3.4,0.6c1.9,0,3.3-0.4,4.2-1.3c0.9-0.9,1.4-2.3,1.4-4.1v-1.3
			c-0.7,0.8-1.5,1.5-2.6,1.9c-1,0.4-2.1,0.6-3.3,0.6c-1.5,0-3-0.3-4.2-1c-1.3-0.7-2.2-1.6-3-2.8c-0.7-1.2-1.1-2.6-1.1-4.1
			c0-1.5,0.4-2.9,1.1-4.1c0.7-1.2,1.7-2.1,3-2.8c1.3-0.7,2.7-1,4.2-1c1.2,0,2.4,0.2,3.4,0.7c1,0.4,1.9,1.1,2.6,2V283H350.6z
			 M345,295.3c0.8-0.4,1.5-1.1,2-1.9c0.5-0.8,0.7-1.7,0.7-2.7c0-1.6-0.5-2.8-1.6-3.8c-1-1-2.4-1.5-4-1.5c-1.7,0-3,0.5-4,1.5
			c-1,1-1.6,2.2-1.6,3.8c0,1,0.2,1.9,0.7,2.7c0.5,0.8,1.1,1.4,2,1.9s1.8,0.7,2.9,0.7C343.2,296,344.2,295.8,345,295.3z"/>
		<path class="st0" d="M380.5,299.6l-2.8-2.8c-1.9,1.8-4.3,2.8-7.2,2.8c-1.4,0-2.7-0.2-3.9-0.7c-1.1-0.5-2-1.1-2.7-2
			c-0.6-0.8-1-1.8-1-2.9c0-1.3,0.4-2.5,1.2-3.5c0.8-1,2.1-2,4-3.1c-0.9-0.9-1.6-1.8-2-2.5c-0.4-0.8-0.6-1.5-0.6-2.4
			c0-1.4,0.5-2.6,1.6-3.5c1-0.9,2.5-1.3,4.2-1.3c1.6,0,2.9,0.4,3.9,1.2c1,0.8,1.4,1.9,1.4,3.3c0,1.1-0.4,2-1.1,2.9
			c-0.7,0.9-1.9,1.8-3.5,2.7l5.3,5.3c0.6-1.2,1-2.5,1.3-3.9l2.4,0.8c-0.4,1.9-1,3.5-1.9,4.9l2.9,2.9L380.5,299.6z M375.9,295
			l-6.1-6.1c-1.5,0.8-2.5,1.6-3.1,2.3c-0.6,0.7-0.9,1.5-0.9,2.4c0,1,0.4,1.8,1.3,2.5c0.9,0.6,2,0.9,3.5,0.9
			C372.8,297,374.6,296.4,375.9,295z M369.2,280.5c-0.5,0.5-0.8,1.1-0.8,1.9c0,0.6,0.1,1.1,0.4,1.6c0.3,0.5,0.9,1.2,1.7,2.1
			c1.4-0.8,2.4-1.5,2.9-2c0.5-0.6,0.8-1.2,0.8-1.9c0-0.7-0.2-1.3-0.7-1.7c-0.5-0.4-1.2-0.6-2.1-0.6
			C370.5,279.8,369.7,280,369.2,280.5z"/>
		<path class="st0" d="M411.4,290c0.7,0.9,1.1,2.1,1.1,3.4c0,1.9-0.7,3.3-2.1,4.3c-1.4,1-3.4,1.5-6.1,1.5h-10.2v-21.4h9.6
			c2.4,0,4.3,0.5,5.7,1.5c1.3,1,2,2.3,2,4.1c0,1.1-0.3,2.1-0.8,2.9c-0.5,0.8-1.2,1.4-2.1,1.9C409.7,288.5,410.7,289.1,411.4,290z
			 M397.1,280.3v6.8h6.3c1.6,0,2.8-0.3,3.6-0.9c0.8-0.6,1.3-1.4,1.3-2.6s-0.4-2-1.3-2.6c-0.8-0.6-2.1-0.9-3.6-0.9H397.1z
			 M408.1,295.9c0.9-0.6,1.3-1.5,1.3-2.7c0-2.4-1.7-3.6-5.2-3.6h-7v7.1h7C405.9,296.8,407.2,296.5,408.1,295.9z"/>
		<path class="st0" d="M421.9,283.6c1-0.5,2.2-0.7,3.6-0.7v2.8c-0.2,0-0.4,0-0.7,0c-1.6,0-2.8,0.5-3.7,1.4c-0.9,0.9-1.4,2.3-1.4,4.1
			v8.1h-2.9V283h2.8v2.7C420.1,284.8,420.9,284.1,421.9,283.6z"/>
		<path class="st0" d="M440.1,284.5c1.2,1.1,1.8,2.7,1.8,4.9v9.8h-2.8v-2.1c-0.5,0.8-1.2,1.3-2.1,1.7c-0.9,0.4-2,0.6-3.2,0.6
			c-1.8,0-3.3-0.4-4.4-1.3c-1.1-0.9-1.6-2-1.6-3.5c0-1.4,0.5-2.6,1.6-3.4c1-0.9,2.7-1.3,5-1.3h4.6v-0.6c0-1.3-0.4-2.2-1.1-2.9
			c-0.7-0.7-1.8-1-3.2-1c-1,0-1.9,0.2-2.8,0.5c-0.9,0.3-1.7,0.7-2.3,1.3l-1.2-2.2c0.8-0.7,1.8-1.2,3-1.5c1.2-0.4,2.4-0.5,3.7-0.5
			C437.2,282.9,438.9,283.4,440.1,284.5z M437.2,296.4c0.8-0.5,1.4-1.2,1.8-2.1V292h-4.5c-2.5,0-3.7,0.8-3.7,2.5
			c0,0.8,0.3,1.5,0.9,1.9c0.6,0.5,1.5,0.7,2.6,0.7C435.4,297.2,436.4,296.9,437.2,296.4z"/>
		<path class="st0" d="M460.9,284.7c1.2,1.2,1.8,2.9,1.8,5.2v9.3h-2.9v-9c0-1.6-0.4-2.8-1.1-3.5c-0.8-0.8-1.8-1.2-3.2-1.2
			c-1.6,0-2.8,0.5-3.8,1.4c-0.9,0.9-1.4,2.3-1.4,4v8.3h-2.9V283h2.8v2.4c0.6-0.8,1.4-1.5,2.4-1.9c1-0.4,2.2-0.7,3.4-0.7
			C458.1,282.9,459.7,283.5,460.9,284.7z"/>
		<path class="st0" d="M483.6,276.6v22.7h-2.8v-2.6c-0.7,0.9-1.5,1.6-2.5,2c-1,0.5-2.1,0.7-3.3,0.7c-1.6,0-3-0.3-4.2-1
			c-1.2-0.7-2.2-1.7-2.9-2.9c-0.7-1.3-1.1-2.7-1.1-4.3c0-1.6,0.4-3.1,1.1-4.3c0.7-1.2,1.7-2.2,2.9-2.9c1.2-0.7,2.7-1,4.2-1
			c1.2,0,2.2,0.2,3.2,0.7c1,0.4,1.8,1.1,2.4,1.9v-8.9H483.6z M478,296.1c0.8-0.5,1.5-1.2,2-2c0.5-0.9,0.7-1.9,0.7-3
			c0-1.1-0.2-2.1-0.7-3c-0.5-0.9-1.1-1.5-2-2s-1.8-0.7-2.8-0.7c-1,0-2,0.2-2.8,0.7s-1.5,1.1-2,2c-0.5,0.9-0.7,1.9-0.7,3
			c0,1.1,0.2,2.1,0.7,3c0.5,0.9,1.1,1.5,2,2c0.8,0.5,1.8,0.7,2.8,0.7C476.2,296.9,477.2,296.6,478,296.1z"/>
		<path class="st0" d="M489.2,279.4c-0.4-0.4-0.6-0.8-0.6-1.3c0-0.5,0.2-1,0.6-1.4c0.4-0.4,0.9-0.6,1.4-0.6c0.6,0,1,0.2,1.4,0.5
			c0.4,0.4,0.6,0.8,0.6,1.3c0,0.6-0.2,1-0.6,1.4s-0.9,0.6-1.4,0.6C490,279.9,489.5,279.7,489.2,279.4z M489.1,283h2.9v16.2h-2.9V283
			z"/>
		<path class="st0" d="M511.2,284.7c1.2,1.2,1.8,2.9,1.8,5.2v9.3h-2.9v-9c0-1.6-0.4-2.8-1.1-3.5c-0.8-0.8-1.8-1.2-3.2-1.2
			c-1.6,0-2.8,0.5-3.8,1.4c-0.9,0.9-1.4,2.3-1.4,4v8.3h-2.9V283h2.8v2.4c0.6-0.8,1.4-1.5,2.4-1.9c1-0.4,2.2-0.7,3.4-0.7
			C508.4,282.9,510,283.5,511.2,284.7z"/>
		<path class="st0" d="M534.1,283v14c0,2.8-0.7,4.9-2.1,6.3c-1.4,1.4-3.5,2-6.3,2c-1.5,0-3-0.2-4.4-0.6c-1.4-0.4-2.5-1-3.4-1.8
			l1.4-2.3c0.8,0.7,1.7,1.2,2.8,1.5s2.3,0.6,3.4,0.6c1.9,0,3.3-0.4,4.2-1.3c0.9-0.9,1.4-2.3,1.4-4.1v-1.3c-0.7,0.8-1.5,1.5-2.6,1.9
			c-1,0.4-2.1,0.6-3.3,0.6c-1.5,0-3-0.3-4.2-1c-1.3-0.7-2.2-1.6-3-2.8s-1.1-2.6-1.1-4.1c0-1.5,0.4-2.9,1.1-4.1
			c0.7-1.2,1.7-2.1,3-2.8c1.3-0.7,2.7-1,4.2-1c1.2,0,2.4,0.2,3.4,0.7c1,0.4,1.9,1.1,2.6,2V283H534.1z M528.5,295.3
			c0.8-0.4,1.5-1.1,2-1.9c0.5-0.8,0.7-1.7,0.7-2.7c0-1.6-0.5-2.8-1.6-3.8c-1-1-2.4-1.5-4-1.5c-1.7,0-3,0.5-4,1.5
			c-1,1-1.6,2.2-1.6,3.8c0,1,0.2,1.9,0.7,2.7c0.5,0.8,1.1,1.4,2,1.9c0.8,0.4,1.8,0.7,2.9,0.7C526.7,296,527.7,295.8,528.5,295.3z"/>
		<path class="st0" d="M231.8,335.4c-1.5-0.5-2.7-1.1-3.5-1.9l1.1-2.4c0.8,0.7,1.9,1.3,3.1,1.8c1.3,0.5,2.6,0.7,3.9,0.7
			c1.8,0,3.1-0.3,4-0.9c0.9-0.6,1.3-1.4,1.3-2.4c0-0.7-0.2-1.3-0.7-1.8c-0.5-0.5-1.1-0.8-1.8-1.1c-0.7-0.2-1.7-0.5-3-0.8
			c-1.6-0.4-2.9-0.8-3.9-1.2c-1-0.4-1.8-1-2.5-1.8c-0.7-0.8-1.1-1.9-1.1-3.3c0-1.1,0.3-2.2,0.9-3.1c0.6-0.9,1.5-1.7,2.7-2.2
			c1.2-0.6,2.7-0.8,4.6-0.8c1.3,0,2.5,0.2,3.7,0.5c1.2,0.3,2.3,0.8,3.1,1.4l-1,2.4c-0.9-0.6-1.9-1-2.9-1.3c-1-0.3-2-0.4-3-0.4
			c-1.7,0-3,0.3-3.9,0.9c-0.9,0.6-1.3,1.4-1.3,2.4c0,0.7,0.2,1.3,0.7,1.8c0.5,0.5,1.1,0.8,1.8,1.1c0.7,0.3,1.7,0.5,3,0.8
			c1.6,0.4,2.9,0.8,3.9,1.2c1,0.4,1.8,1,2.5,1.8c0.7,0.8,1.1,1.9,1.1,3.2c0,1.1-0.3,2.1-0.9,3.1c-0.6,0.9-1.5,1.7-2.8,2.2
			c-1.2,0.5-2.8,0.8-4.6,0.8C234.9,336.2,233.3,335.9,231.8,335.4z"/>
		<path class="st0" d="M251.4,335.1c-1.3-0.7-2.3-1.7-3-3c-0.7-1.3-1.1-2.7-1.1-4.3s0.4-3,1.1-4.3c0.7-1.3,1.7-2.2,3-2.9
			c1.3-0.7,2.7-1.1,4.3-1.1c1.6,0,3.1,0.4,4.3,1.1c1.3,0.7,2.3,1.7,3,2.9c0.7,1.3,1.1,2.7,1.1,4.3s-0.4,3-1.1,4.3
			c-0.7,1.3-1.7,2.2-3,3c-1.3,0.7-2.7,1.1-4.3,1.1C254.1,336.1,252.7,335.8,251.4,335.1z M258.5,332.8c0.8-0.5,1.5-1.2,1.9-2
			c0.5-0.9,0.7-1.9,0.7-3c0-1.1-0.2-2.1-0.7-3c-0.5-0.9-1.1-1.5-1.9-2s-1.8-0.7-2.8-0.7s-2,0.2-2.8,0.7c-0.8,0.5-1.5,1.1-2,2
			c-0.5,0.9-0.7,1.9-0.7,3c0,1.1,0.2,2.1,0.7,3c0.5,0.9,1.1,1.5,2,2c0.8,0.5,1.8,0.7,2.8,0.7S257.7,333.3,258.5,332.8z"/>
		<path class="st0" d="M268.2,313.3h2.9v22.7h-2.9V313.3z"/>
		<path class="st0" d="M291.9,319.7v16.2h-2.8v-2.4c-0.6,0.8-1.4,1.5-2.3,1.9c-1,0.5-2,0.7-3.2,0.7c-2.2,0-3.9-0.6-5.1-1.8
			c-1.2-1.2-1.9-3-1.9-5.3v-9.3h2.9v9c0,1.6,0.4,2.8,1.1,3.6c0.8,0.8,1.8,1.2,3.2,1.2c1.5,0,2.8-0.5,3.7-1.4c0.9-0.9,1.3-2.3,1.3-4
			v-8.4H291.9z"/>
		<path class="st0" d="M306.6,335c-0.4,0.4-1,0.6-1.6,0.8c-0.6,0.2-1.3,0.3-2,0.3c-1.6,0-2.9-0.4-3.8-1.3c-0.9-0.9-1.3-2.1-1.3-3.8
			v-8.9h-2.8v-2.4h2.8v-3.5h2.9v3.5h4.6v2.4h-4.6v8.8c0,0.9,0.2,1.5,0.7,2c0.4,0.5,1.1,0.7,1.9,0.7c0.9,0,1.7-0.3,2.3-0.8L306.6,335
			z"/>
		<path class="st0" d="M310.2,316.1c-0.4-0.4-0.6-0.8-0.6-1.3c0-0.5,0.2-1,0.6-1.4c0.4-0.4,0.9-0.6,1.4-0.6c0.6,0,1,0.2,1.4,0.5
			c0.4,0.4,0.6,0.8,0.6,1.3c0,0.6-0.2,1-0.6,1.4c-0.4,0.4-0.9,0.6-1.4,0.6C311,316.6,310.5,316.4,310.2,316.1z M310.1,319.7h2.9
			v16.2h-2.9V319.7z"/>
		<path class="st0" d="M321.2,335.1c-1.3-0.7-2.3-1.7-3-3c-0.7-1.3-1.1-2.7-1.1-4.3s0.4-3,1.1-4.3c0.7-1.3,1.7-2.2,3-2.9
			c1.3-0.7,2.7-1.1,4.3-1.1s3.1,0.4,4.3,1.1c1.3,0.7,2.3,1.7,3,2.9c0.7,1.3,1.1,2.7,1.1,4.3s-0.4,3-1.1,4.3c-0.7,1.3-1.7,2.2-3,3
			c-1.3,0.7-2.7,1.1-4.3,1.1S322.5,335.8,321.2,335.1z M328.4,332.8c0.8-0.5,1.5-1.2,1.9-2c0.5-0.9,0.7-1.9,0.7-3
			c0-1.1-0.2-2.1-0.7-3c-0.5-0.9-1.1-1.5-1.9-2s-1.8-0.7-2.8-0.7c-1,0-2,0.2-2.8,0.7s-1.5,1.1-2,2c-0.5,0.9-0.7,1.9-0.7,3
			c0,1.1,0.2,2.1,0.7,3c0.5,0.9,1.1,1.5,2,2c0.8,0.5,1.8,0.7,2.8,0.7C326.6,333.6,327.6,333.3,328.4,332.8z"/>
		<path class="st0" d="M351.6,321.4c1.2,1.2,1.8,2.9,1.8,5.2v9.3h-2.9v-9c0-1.6-0.4-2.8-1.1-3.5c-0.8-0.8-1.8-1.2-3.2-1.2
			c-1.6,0-2.8,0.5-3.8,1.4c-0.9,0.9-1.4,2.3-1.4,4v8.3h-2.9v-16.2h2.8v2.4c0.6-0.8,1.4-1.5,2.4-1.9c1-0.4,2.2-0.7,3.4-0.7
			C348.8,319.6,350.4,320.2,351.6,321.4z"/>
		<path class="st0" d="M359.7,335.6c-1.2-0.4-2.2-0.8-2.9-1.4l1.2-2.3c0.7,0.5,1.6,0.9,2.6,1.2c1,0.3,2,0.5,3.1,0.5
			c2.6,0,3.9-0.7,3.9-2.2c0-0.5-0.2-0.9-0.5-1.2c-0.3-0.3-0.8-0.5-1.3-0.6c-0.5-0.1-1.3-0.3-2.2-0.4c-1.3-0.2-2.4-0.4-3.2-0.7
			c-0.8-0.3-1.5-0.7-2.1-1.3c-0.6-0.6-0.9-1.5-0.9-2.7c0-1.5,0.6-2.6,1.8-3.5c1.2-0.9,2.9-1.3,4.9-1.3c1.1,0,2.2,0.1,3.2,0.4
			c1.1,0.3,2,0.6,2.7,1.1l-1.3,2.3c-1.3-0.9-2.9-1.3-4.7-1.3c-1.2,0-2.2,0.2-2.8,0.6c-0.7,0.4-1,0.9-1,1.6c0,0.5,0.2,0.9,0.6,1.3
			c0.4,0.3,0.8,0.5,1.4,0.7c0.5,0.1,1.3,0.3,2.3,0.5c1.3,0.2,2.4,0.5,3.2,0.7c0.8,0.3,1.5,0.7,2.1,1.3c0.6,0.6,0.9,1.5,0.9,2.6
			c0,1.5-0.6,2.6-1.9,3.5s-3,1.3-5.1,1.3C362.2,336.1,360.9,335.9,359.7,335.6z"/>
	</g>
	<path class="st1" d="M247,110.2l-7.2,7.6c-3.2-4.6-5.9-9.7-7.9-15.2c-0.4-1.2-0.9-2.5-1.2-3.8c-1.6-5.6-2.4-11.5-2.4-17.4
		c0-25.1,14.8-47.8,37.7-57.9c0,0,0,0,0,0c0,0,0,0,0,0c0,0,0,0,0,0c0,0,0,0,0,0c3.8-1.7,7.8-3,11.9-3.9c0,0,0,0,0,0
		c9-2,18.7-2,27.7,0.1c6.9,1.6,13.4,4.3,19.4,8l-7.2,7.6c0,0,0,0,0,0c-0.3-0.2-0.5-0.3-0.8-0.4c-0.2-0.1-0.5-0.3-0.7-0.4
		c-0.3-0.1-0.5-0.3-0.8-0.4c-0.2-0.1-0.5-0.2-0.7-0.4c-0.3-0.1-0.6-0.3-0.8-0.4c-0.2-0.1-0.5-0.2-0.7-0.3c-0.3-0.1-0.6-0.2-0.9-0.4
		c-0.1-0.1-0.3-0.1-0.5-0.2c0.5,2.7,0.8,5.4,1,8.1l-10.7,11.3c0.4-2.5,0.6-5.1,0.6-7.7c0-5.1-0.7-10.2-2.2-15
		c-1.6-0.3-3.1-0.5-4.7-0.6c-0.2,0-0.4,0-0.6,0c-0.6,0-1.2-0.1-1.8-0.1c-0.3,0-0.5,0-0.8,0c-0.5,0-1.1,0-1.6,0c-0.3,0-0.6,0-0.9,0
		c-0.5,0-1,0-1.6,0.1c-0.3,0-0.6,0-0.9,0.1c-0.5,0-1.1,0.1-1.6,0.1c-0.3,0-0.5,0-0.8,0.1c-0.8,0.1-1.6,0.2-2.4,0.3
		c-0.1,0.4-0.2,0.7-0.3,1.1c-0.1,0.2-0.1,0.4-0.2,0.6c-0.2,0.7-0.3,1.4-0.5,2c0,0.1-0.1,0.3-0.1,0.4c-0.1,0.6-0.2,1.1-0.3,1.7
		c0,0.2-0.1,0.5-0.1,0.7c-0.1,0.5-0.1,0.9-0.2,1.4c0,0.3-0.1,0.5-0.1,0.8c-0.1,0.4-0.1,0.9-0.1,1.3c0,0.3,0,0.5-0.1,0.8
		c0,0.5-0.1,1-0.1,1.4c0,0.2,0,0.5,0,0.7c0,0.7,0,1.4,0,2.1c0,0.8,0,1.6,0.1,2.4c0,0.3,0,0.5,0,0.8c0,0.5,0.1,1.1,0.1,1.6
		c0,0.3,0.1,0.6,0.1,0.9c0.1,0.5,0.1,1,0.2,1.5c0,0.3,0.1,0.6,0.1,0.9c0.1,0.5,0.2,1,0.2,1.5c0.1,0.3,0.1,0.6,0.2,0.9
		c0.1,0.5,0.2,1,0.3,1.5c0.1,0.3,0.1,0.5,0.2,0.8c0.2,0.7,0.3,1.3,0.5,2c0,0.1,0.1,0.2,0.1,0.3c0.2,0.8,0.5,1.5,0.7,2.2
		c0.1,0.2,0.2,0.4,0.2,0.7c0.2,0.5,0.4,1,0.6,1.5c0.1,0.3,0.2,0.5,0.3,0.8c0.2,0.5,0.4,0.9,0.6,1.4c0.1,0.3,0.3,0.6,0.4,0.8
		c0.2,0.4,0.4,0.9,0.6,1.3c0.1,0.1,0.1,0.2,0.2,0.3l-7.4,7.8c-4-6.8-6.7-14.4-7.9-22.2c-0.2-1.2-0.3-2.4-0.5-3.6
		c-0.2-2-0.3-4-0.3-6.1c0-1,0-1.9,0.1-2.9c0-0.3,0-0.6,0.1-0.9c0-0.6,0.1-1.3,0.1-1.9c0-0.4,0.1-0.7,0.1-1.1
		c0.1-0.6,0.1-1.2,0.2-1.7c0.1-0.4,0.1-0.8,0.2-1.2c0.1-0.6,0.2-1.1,0.3-1.7c0-0.2,0.1-0.3,0.1-0.5c-0.1,0-0.2,0.1-0.3,0.1
		c-0.1,0.2-0.2,0.3-0.4,0.5c-0.2,0.3-0.4,0.6-0.6,0.8c-0.2,0.3-0.5,0.6-0.7,1c-0.2,0.3-0.4,0.6-0.6,0.9c-0.2,0.3-0.4,0.7-0.7,1
		c-0.2,0.3-0.4,0.6-0.6,0.9c-0.2,0.3-0.4,0.7-0.6,1c-0.2,0.3-0.3,0.6-0.5,0.9c-0.2,0.4-0.4,0.7-0.6,1.1c-0.2,0.3-0.3,0.6-0.5,0.9
		c-0.2,0.4-0.4,0.7-0.5,1.1c-0.1,0.3-0.3,0.6-0.4,0.9c-0.2,0.4-0.3,0.7-0.5,1.1c-0.1,0.3-0.3,0.6-0.4,0.9c-0.2,0.4-0.3,0.8-0.4,1.1
		c-0.1,0.3-0.2,0.6-0.4,1c-0.1,0.4-0.3,0.8-0.4,1.2c-0.1,0.3-0.2,0.6-0.3,1c-0.1,0.4-0.2,0.8-0.3,1.2c-0.1,0.3-0.2,0.6-0.3,1
		c-0.1,0.4-0.2,0.8-0.3,1.2c-0.1,0.3-0.2,0.6-0.2,1c-0.1,0.4-0.2,0.8-0.2,1.2c-0.1,0.3-0.1,0.6-0.2,1c-0.1,0.4-0.1,0.9-0.2,1.3
		c0,0.3-0.1,0.6-0.1,0.9c-0.1,0.5-0.1,0.9-0.1,1.4c0,0.3-0.1,0.6-0.1,0.9c0,0.5-0.1,1-0.1,1.5c0,0.2,0,0.5,0,0.7c0,0.8,0,1.5,0,2.3
		c0,8.8,2.1,17.2,6.1,24.8l-7.3,7.8c-5.9-9.8-9-20.9-9-32.6c0-0.9,0-1.8,0.1-2.7c0-0.3,0-0.6,0.1-0.9c0-0.6,0.1-1.2,0.1-1.8
		c0-0.4,0.1-0.7,0.1-1c0.1-0.5,0.1-1.1,0.2-1.6c0-0.4,0.1-0.7,0.2-1.1c0.1-0.5,0.1-1,0.2-1.5c0.1-0.4,0.1-0.8,0.2-1.1
		c0.1-0.5,0.2-1,0.3-1.5c0.1-0.4,0.2-0.8,0.3-1.1c0.1-0.5,0.2-1,0.3-1.4c0.1-0.4,0.2-0.8,0.3-1.1c0.1-0.5,0.3-0.9,0.4-1.4
		c0.1-0.4,0.2-0.8,0.4-1.1c0.1-0.3,0.2-0.5,0.2-0.8c-9.2,9.7-14.6,22.7-14.6,36.5c0,5,0.7,9.9,2,14.6c0.3,1.1,0.6,2.1,1,3.1
		C243,103.1,244.8,106.8,247,110.2z M345.4,48.2c6.1,9.9,9.4,21.3,9.4,33.2c0,7.3-1.2,14.5-3.7,21.3c0,0,0,0,0,0
		c-2.4,6.9-6,13.2-10.7,18.9c0,0,0,0,0,0c-12.1,14.7-29.9,23.1-48.9,23.1c-13.2,0-25.7-4.1-36.1-11.3l7.6-7.2
		c8.3,5.3,18.2,8.3,28.5,8.3c8.8,0,17.3-2.2,24.9-6.2c0,0,0,0,0,0c-1.1,0.1-2.2,0.1-3.3,0.1c-12.8,0-25.1-3.8-35.6-10.9
		c-1-0.7-2-1.4-2.9-2.1l7.5-7.1c0.4,0.3,0.8,0.6,1.2,0.8c8.8,6,19.1,9.2,29.8,9.2c0.9,0,1.8,0,2.7-0.1c0.3,0,0.6,0,0.9-0.1
		c0.6,0,1.2-0.1,1.8-0.1c0.4,0,0.7-0.1,1.1-0.1c0.5-0.1,1.1-0.1,1.6-0.2c0.4-0.1,0.7-0.1,1.1-0.2c0.5-0.1,1-0.2,1.5-0.3
		c0.4-0.1,0.8-0.2,1.1-0.3c0.5-0.1,1-0.2,1.4-0.3c0.4-0.1,0.8-0.2,1.1-0.3c0.5-0.1,0.9-0.3,1.4-0.4c0.4-0.1,0.8-0.2,1.1-0.4
		c0.5-0.2,0.9-0.3,1.4-0.5c0.4-0.1,0.8-0.3,1.1-0.4c0.3-0.1,0.5-0.2,0.8-0.3c1.7-2.1,3.2-4.4,4.5-6.8c-0.1,0-0.2,0-0.3,0
		c-0.4,0-0.9,0-1.3,0.1c-0.2,0-0.4,0-0.6,0c-0.6,0-1.3,0-1.9,0c-7.4,0-14.6-1.3-21.5-3.7c-1.7-0.6-3.4-1.3-5.1-2.1
		c-0.2-0.1-0.5-0.2-0.7-0.3c-0.3-0.1-0.6-0.3-0.9-0.4c-3-1.5-6-3.3-8.7-5.3c-0.3-0.2-0.6-0.4-0.8-0.6l7.6-7.2
		c0.2,0.2,0.5,0.3,0.7,0.5c0.3,0.2,0.6,0.4,1,0.6c0.5,0.3,1,0.6,1.5,0.9c0.3,0.2,0.6,0.4,1,0.6c0.6,0.3,1.1,0.6,1.7,0.9
		c0.3,0.1,0.5,0.3,0.8,0.4c0.9,0.4,1.7,0.8,2.6,1.2c7.7-7.6,12.9-17.5,14.8-28.1L345.4,48.2z M344.5,81.4c0-8.5-2-16.7-5.7-24
		c-0.5,14.3-5.9,28-15.1,38.8c3.3,0.6,6.6,1,10,1c0.9,0,1.7,0,2.6-0.1c0.3,0,0.5,0,0.8,0c0.6,0,1.3-0.1,1.9-0.2c0.3,0,0.5,0,0.8-0.1
		c0.9-0.1,1.7-0.2,2.6-0.3C343.8,91.6,344.5,86.6,344.5,81.4z M347.5,25.6c2.4,2.4,2.4,6.4-0.1,8.7l-110,104.1
		c-0.8,0.7-1.9,0.7-2.7,0c-0.7-0.7-0.7-1.9,0-2.7l104.1-110C341.1,23.3,345.1,23.2,347.5,25.6z M345.3,27.9c-1.1-1.1-3-1.1-4.1,0
		L327.7,42c-0.9,0.9-0.9,2.4,0,3.3c0.9,0.9,2.4,0.9,3.3,0L345.3,32c0.6-0.6,0.9-1.3,0.9-2.1C346.1,29.2,345.8,28.4,345.3,27.9z"/>
</g>
<g>
</g>
<g>
</g>
<g>
</g>
<g>
</g>
<g>
</g>
<g>
</g>
<g>
</g>
<g>
</g>
<g>
</g>
<g>
</g>
<g>
</g>
<g>
</g>
<g>
</g>
<g>
</g>
<g>
</g>
</svg>
