<?xml version="1.0" encoding="utf-8"?>
<!-- Generator: Adobe Illustrator 26.3.1, SVG Export Plug-In . SVG Version: 6.00 Build 0)  -->
<svg version="1.1" id="Layer_1" xmlns="http://www.w3.org/2000/svg" xmlns:xlink="http://www.w3.org/1999/xlink" x="0px" y="0px"
	 viewBox="0 0 611.7 950.9" style="enable-background:new 0 0 611.7 950.9;" xml:space="preserve">
<style type="text/css">
	.st0{fill:#6B8DBE;}
	.st1{fill:#3C1094;}
	.st2{fill:none;}
	.st3{fill:#FFFFFF;}
	.st4{fill:#003975;}
	.st5{fill:#468ECD;}
</style>
<g>
	<rect x="85.7" y="9.3" class="st0" width="440.3" height="294.4"/>
	<g>
		<path class="st1" d="M165.9,199.5H141c1.9-2.2,2-5.5,2-5.9v-24.8c0-0.5-0.1-3.7-2-5.9h24.9l-2.7,6.8l-3.2-2.5c0,0-0.3-0.2-0.8-0.5
			c-0.6-0.3-1.3-0.3-1.3-0.3H150v12.9h5.4h0.1c0.5,0,3.7-0.1,5.9-2v7.5c-3-1.9-6-1.9-6-1.9H150V196h7.9c0,0,0.7,0,1.3-0.3
			c0.5-0.2,0.8-0.5,0.8-0.5l3.2-2.5L165.9,199.5z"/>
		<path class="st1" d="M174.1,167.1v6.2h6.2l-1,2.6h-5.2v17.6c0,0,0.3,1.7,2.2,2.6c0.6,0.3,1.6,0.4,2.6,0.4c2.3,0,4.9-0.6,4.9-0.6
			s-2,4.2-9.3,4.2c-6.2,0-7-5.1-7.1-6.6c0,0,0-0.1,0-0.2c0-2.4,0.6-17.4,0.6-17.4h-2.6L174.1,167.1z"/>
		<path class="st1" d="M208.4,193.4c0,0.6,0.2,2.6,1.9,6h-9.5c1.8-4.7,1.9-6,1.9-6.2v-0.1v-11.4v0c0-0.1,0-4.2-5.7-4.2
			c-1.2,0-2.6,0.3-4.2,1c0,4.9,0.1,9.8,0.1,14.6c0,0.3,0.1,3.1,2,6.2h-10.1c1.9-2.4,2-5.4,2-6.2v-25.9c0,0,0-2.9-2-4.7
			c0-0.1,8-3.7,8-3.7v18.3c1.1-1.1,5.8-4.9,9.6-4.9c5.9,0,6,4.3,6,6.9v0.5C208.4,182.3,208.4,193.3,208.4,193.4z"/>
		<path class="st1" d="M220.2,191.7c2,4.2,4.3,4.7,7.2,4.7c0.2,0,0.4,0,0.6,0c1.1,0,4.3-0.6,4.3-0.6c-0.5,0.6-2.9,4.4-8.8,4.4
			c-6.6,0-11-4.4-11-14.2c0-0.1,0-0.1,0-0.2c0-8.7,4.1-13.2,11.1-13.2c6,0,8.3,3.8,8.3,3.8L220.1,191
			C220.1,191,220,191.1,220.2,191.7z M219.2,176.4C219.2,176.4,219.1,176.4,219.2,176.4c-1.5,0-2,1.3-2,3c0,3.7,2.2,9.6,2.2,9.7
			c0,0,4.8-7.1,5.1-7.6c0.5-0.9,0.7-1.6,0.7-2.2c0-1-0.5-1.4-0.5-1.4S223.3,176.5,219.2,176.4z"/>
		<path class="st1" d="M241.3,193.2C241.3,193.2,241.3,193.2,241.3,193.2c0.1,0.3,0.1,3.1,2,6.2h-10.1c1.9-2.3,2-5.3,2-6.1
			c0-0.1,0-0.2,0-0.2v-12.7c0,0,0-2.9-2-4.7c0,0,0,0,0,0c0-0.1,8.1-3.7,8.1-3.7v4.8c1.1-1.3,4.3-4.7,8.4-4.7c3.4,0,4.6,1.9,4.6,1.9
			l-5.2,6.4c0,0-1.2-2.8-4.5-2.8c-0.9,0-2,0.2-3.3,0.8V193.2z"/>
		<path class="st1" d="M260.9,191.7c2,4.2,4.3,4.7,7.2,4.7c0.2,0,0.4,0,0.6,0c1.1,0,4.3-0.6,4.3-0.6c-0.5,0.6-2.9,4.4-8.8,4.4
			c-6.6,0-11-4.4-11-14.2c0-0.1,0-0.1,0-0.2c0-8.7,4.1-13.2,11.1-13.2c6,0,8.3,3.8,8.3,3.8L260.7,191
			C260.7,191,260.6,191.1,260.9,191.7z M259.9,176.4C259.8,176.4,259.8,176.4,259.9,176.4c-1.5,0-2,1.3-2,3c0,3.7,2.2,9.6,2.2,9.7
			c0,0,4.8-7.1,5.1-7.6c0.5-0.9,0.7-1.6,0.7-2.2c0-1-0.5-1.4-0.5-1.4S263.9,176.5,259.9,176.4z"/>
		<path class="st1" d="M276.6,175.2c0,0,2.5-2.8,6.8-2.8c1.3,0,2.8,0.2,4.4,0.9c7.3,2.8,7.4,6.8,7.4,7c0,0,0,0,0,0v12.5
			c0,0,0,0,0,0.1c0,0.5,0.1,3.1,1.9,4.5l-5.7,2.5c0,0-2.3-0.6-2.3-3.5v-0.9c-1,1.1-4.7,4.8-7.6,4.8c-3.2,0-8.3-5.4-8.3-9.1
			c0-1.2,0.5-2.2,1.7-2.8c4.6-2.4,10.4-5.3,13.9-7v-0.3c0,0,0-5.2-1.9-5.2c-3.2,0-6.2,2.6-7.7,5.6L276.6,175.2z M282,187.4
			c-1.4,0.9-2,2.1-2,3.4c0,1.6,1,3.2,2.3,3.5c0.6,0.1,1.4,0.2,2.2,0.2c1.7,0,3.6-0.3,4.5-0.7l-0.3-10.5
			C288,183.7,286.3,184.8,282,187.4z"/>
		<path class="st1" d="M306.6,193.2c0,0.6,0.1,3,2.1,6.2h-10.1c1.9-2.4,2-5.3,2-6.2v-25.9c0,0,0-2.9-2-4.7c0,0,0,0,0,0
			c0-0.1,8-3.7,8-3.7V193.2z"/>
	</g>
	<g>
		<path class="st1" d="M195.7,222.5c0,0,0,0.1-0.1,0.2c-0.1,0.1-0.1,0.2-0.2,0.3c-0.1,0.1-0.2,0.2-0.2,0.2c-0.1,0.1-0.1,0.1-0.2,0.1
			c-0.1,0-0.1,0.1-0.2,0.1c-0.1,0.1-0.1,0.1-0.1,0.2c-0.2,0.5-0.5,0.8-1,0.9c-0.1,0-0.2,0.1-0.2,0.1c0,0.1-0.1,0.1-0.1,0.2
			c0,0.1-0.1,0.1-0.1,0.2c0,0.1-0.1,0.1-0.2,0.2c-0.2,0.1-0.4,0.2-0.7,0.2c-0.3,0-0.5,0.1-0.6,0.2c-0.1,0.1-0.2,0.3-0.3,0.4
			c-0.1,0.2-0.2,0.3-0.3,0.4c-0.1,0.1-0.3,0.1-0.5,0.1c-0.2,0-0.3,0-0.5,0.1c-0.1,0-0.1,0.1-0.2,0.2c-0.1,0.1-0.1,0.1-0.1,0.2
			c0,0.1-0.1,0.1-0.2,0.1c-0.1,0-0.2,0.1-0.2,0.1c-0.2,0-0.3,0-0.5,0.1c-0.2,0.1-0.3,0.1-0.5,0.2l-0.3,0l0,0c-0.2,0-0.5,0.1-0.7,0.2
			c-0.2,0.1-0.4,0.2-0.6,0.2c-0.2,0-0.4,0.1-0.5,0.1c-0.2,0-0.4,0.1-0.6,0.1c-0.2,0-0.3,0.1-0.5,0.2c-0.2,0.1-0.3,0.2-0.5,0.2
			c-0.2,0-0.3,0-0.5,0c-0.2,0-0.3-0.1-0.5-0.1c-0.1,0-0.1,0-0.2,0c-0.1,0-0.1,0.1-0.2,0.1c-0.1,0-0.1,0.1-0.2,0.1
			c-0.1,0-0.2,0-0.2,0c-0.1,0-0.3-0.1-0.4-0.2c-0.1,0-0.2-0.1-0.2-0.1c-0.1,0-0.2,0-0.2,0c-0.1,0-0.1,0-0.3-0.1
			c-0.1,0-0.2-0.1-0.4-0.2c-0.1-0.1-0.2-0.1-0.4-0.2c-0.1-0.1-0.2-0.1-0.2-0.2c-0.1-0.1-0.2-0.2-0.3-0.3c-0.1-0.1-0.2-0.2-0.3-0.4
			c0,0,0-0.1-0.1-0.1c-0.1-0.1-0.1-0.1-0.1-0.1c0,0-0.1,0-0.1-0.1c0-0.1,0-0.1,0-0.2c0-0.1,0-0.2,0-0.3c0-0.1-0.1-0.2-0.1-0.4
			c0-0.1,0-0.3,0-0.4c0-0.2,0-0.3,0-0.4c0-0.1,0-0.2-0.1-0.4c0-0.1-0.1-0.1,0-0.2c0-0.1,0.1-0.1,0.1-0.2c0.1-0.1,0.1-0.1,0.1-0.2
			s0-0.1,0-0.2c0-0.1,0-0.1,0-0.2c0-0.1,0.1-0.1,0.2-0.2c0.1-0.1,0.1-0.1,0.2-0.2c0-0.1,0-0.2,0-0.2c0-0.2,0.1-0.3,0.2-0.4
			c0.2-0.1,0.3-0.2,0.4-0.3c0.1-0.1,0.2-0.3,0.2-0.4c0.1-0.2,0.1-0.3,0.2-0.5c0-0.1,0.1-0.2,0.2-0.3c0.1-0.1,0.2-0.2,0.4-0.2
			c0.1-0.1,0.3-0.2,0.4-0.3c0.1-0.1,0.2-0.3,0.2-0.5c0,0,0-0.1,0-0.1c0-0.1-0.1-0.1-0.1-0.1c0,0-0.1-0.1-0.2-0.1
			c-0.1,0-0.1-0.1-0.2-0.1c-0.1-0.1-0.2-0.2-0.3-0.3c-0.1-0.1-0.2-0.2-0.3-0.3c-0.1-0.1-0.2-0.2-0.4-0.2c-0.1-0.1-0.2-0.2-0.3-0.3
			c0-0.1-0.1-0.2-0.1-0.3c-0.1-0.1-0.1-0.2-0.1-0.3c0-0.1,0-0.2,0-0.3c0-0.1,0-0.2,0-0.3c0-0.2,0-0.4,0.1-0.5c0.1-0.2,0.1-0.3,0-0.5
			c0-0.2,0.1-0.5,0.2-0.8c0.1-0.3,0.2-0.6,0.3-0.8c0-0.1,0.1-0.1,0.1-0.2c0.1-0.1,0.1-0.1,0.2-0.2c0.1-0.1,0.3-0.2,0.3-0.4
			c0.1-0.1,0.2-0.2,0.3-0.3c0.1-0.1,0.2-0.2,0.3-0.4c0.1-0.2,0.1-0.3,0.2-0.5c0-0.2,0.1-0.3,0.3-0.3c0.1,0,0.1-0.1,0.2-0.2
			c0-0.1,0.1-0.1,0.1-0.2c0-0.1,0.1-0.1,0.1-0.2c0-0.1,0.1-0.1,0.1-0.1c0.1,0,0.1-0.1,0.1-0.1c0.1,0,0.1-0.1,0.3-0.1
			c0.1,0,0.2,0,0.3-0.1c0.1-0.1,0.3-0.1,0.3-0.2l0.2-0.1c0.1-0.1,0.2-0.2,0.3-0.4c0.1-0.1,0.2-0.3,0.3-0.3c0.1-0.1,0.3-0.2,0.4-0.2
			c0.1-0.1,0.3-0.2,0.4-0.3c0.1-0.1,0.1-0.1,0.2-0.2c0.1,0,0.1-0.1,0.2-0.1c0.2-0.1,0.4-0.2,0.7-0.3c0.2-0.1,0.5-0.1,0.7-0.2
			c0.1,0,0.2-0.1,0.3-0.3c0.1-0.1,0.2-0.2,0.4-0.3c0.1,0,0.1,0,0.2,0c0.1,0,0.1,0,0.2,0c0.1,0,0.1,0,0.2-0.1c0-0.1,0.1-0.1,0.1-0.2
			c0-0.1,0-0.1,0.1-0.2c0-0.1,0-0.1,0.1-0.1c0,0,0,0,0,0c0,0,0,0,0,0c0.2,0,0.4-0.1,0.5-0.1c0.1,0,0.3-0.1,0.5-0.2
			c0.1-0.1,0.3-0.1,0.4-0.1c0.1,0,0.3,0,0.4-0.2c0.1-0.1,0.3-0.2,0.4-0.1c0.1,0,0.3,0,0.6,0c0.3,0,0.5-0.1,0.6-0.1
			c0.1,0,0.2,0,0.3,0c0.1,0,0.2,0,0.3,0.1c0.2,0.1,0.5,0.2,0.6,0.2c0.1,0,0.1,0,0.2,0c0.1,0,0.2,0,0.2,0c0.1,0.1,0.2,0.1,0.2,0.1
			c0.1,0,0.1,0,0.1,0.1c0,0,0.1,0.1,0.1,0.1c0,0,0.1,0.1,0.1,0.2c0,0,0,0.1,0.1,0.1c0.1,0.1,0.1,0.1,0.2,0.2
			c0.1,0.1,0.1,0.1,0.1,0.1c0,0,0,0.1,0,0.1c0,0,0,0.1,0,0.1c0,0.1,0,0.2,0,0.3c0,0.1,0,0.2,0.1,0.3c0,0.1,0,0.1,0,0.2
			c0,0.1,0,0.2,0,0.3c0,0.1,0,0.2-0.1,0.2c-0.1,0.2-0.1,0.4-0.1,0.5c0,0.2,0,0.4-0.1,0.6c0,0.1-0.1,0.2-0.2,0.3
			c-0.1,0.1-0.1,0.2-0.2,0.3c-0.1,0.1-0.1,0.2-0.1,0.4c0,0.1-0.1,0.3-0.1,0.4c0,0,0,0.1,0,0.2c0,0.1,0,0.1,0,0.1c0,0-0.1,0-0.1,0.1
			c0,0-0.1,0-0.1,0.1c0,0,0,0.1,0,0.3c0,0.2,0,0.3,0,0.4c0,0.1-0.1,0.2-0.2,0.3c-0.1,0.1-0.1,0.2-0.2,0.3c-0.1,0.1-0.1,0.2-0.2,0.3
			c0,0.1,0,0.2,0,0.3c0,0.1,0,0.1,0,0.2c0,0-0.1,0.1-0.2,0.1c-0.1,0-0.1,0.1-0.2,0.1c-0.1,0-0.1,0-0.2,0.1c-0.1,0-0.1,0.1-0.2,0.2
			c-0.1,0.1-0.2,0.2-0.2,0.2c-0.1,0.1-0.2,0.2-0.2,0.3c-0.1,0.1-0.1,0.2-0.2,0.2c-0.1,0.1-0.2,0.2-0.4,0.2c-0.2,0-0.3,0.1-0.4,0.2
			c-0.1,0.1-0.2,0.1-0.4,0.2c-0.1,0-0.1,0-0.2,0c-0.1,0-0.2-0.1-0.2-0.1c-0.1-0.1-0.2-0.2-0.3-0.3c0-0.1-0.1-0.1-0.1-0.3
			c0-0.1,0-0.2,0-0.4c0-0.1,0-0.3,0.1-0.4c0-0.1,0-0.2,0.1-0.3c0-0.1,0-0.3,0-0.5c0-0.2,0-0.3,0-0.5c0-0.1,0-0.1,0.1-0.2
			c0-0.1,0.1-0.1,0.2-0.2c0.1-0.1,0.1-0.1,0.2-0.2c0.1-0.1,0.1-0.2,0.1-0.3c0-0.1,0.1-0.1,0.1-0.2c0.1,0,0.1-0.1,0.2-0.1
			c0.1,0,0.2,0,0.3-0.1c0.1,0,0.2-0.1,0.2-0.1c0.1-0.1,0.2-0.2,0.2-0.4c0-0.2,0.1-0.3,0.2-0.4c0.1-0.1,0.2-0.2,0.4-0.2
			c0.2,0,0.3-0.1,0.4-0.2c0.2-0.2,0.3-0.3,0.5-0.5c0.1-0.2,0.2-0.4,0.2-0.6c0-0.1,0-0.1,0-0.2c0-0.1,0-0.1,0-0.2c0,0,0-0.1,0-0.1
			c0-0.1,0.1-0.1,0.1-0.2c0-0.1,0-0.1,0-0.2c0-0.1,0-0.1-0.1-0.1c-0.1-0.1-0.2-0.2-0.4-0.2c-0.2-0.1-0.3-0.1-0.3-0.2
			c0,0-0.1-0.1-0.2-0.1c-0.1,0.1-0.2,0.1-0.2,0.2c0,0.1,0,0.1-0.1,0.2c-0.1,0.1-0.2,0.1-0.2,0.1c-0.1,0-0.2,0-0.4,0
			c-0.2,0.1-0.3,0.1-0.4,0.1c-0.1,0-0.2,0-0.3,0c-0.1,0-0.2,0-0.3,0c-0.1,0-0.2,0-0.3,0c-0.1,0-0.2,0.1-0.3,0.2
			c-0.1,0.1-0.2,0.2-0.3,0.3c-0.1,0.1-0.2,0.2-0.3,0.3c-0.1,0.1-0.2,0.1-0.3,0.2c-0.1,0.1-0.1,0.1-0.2,0.1c-0.1,0-0.1,0-0.2,0
			c-0.1,0-0.1,0-0.2,0c-0.1,0-0.1,0-0.2,0.1c0,0-0.1,0.1-0.2,0.2c-0.1,0.1-0.2,0.1-0.3,0.2c-0.1,0.1-0.2,0.1-0.3,0.2
			c-0.1,0.1-0.2,0.1-0.3,0.1c-0.2,0.1-0.3,0.2-0.4,0.3c-0.1,0.1-0.2,0.2-0.3,0.2c-0.1,0-0.1,0.1-0.2,0.1c0,0-0.1,0-0.3,0.1
			c-0.2,0-0.3,0.1-0.4,0.1c0,0-0.1,0.1-0.1,0.2c0,0.1-0.1,0.1-0.1,0.2c-0.1,0.3-0.3,0.5-0.5,0.7c-0.2,0.2-0.5,0.4-0.7,0.5
			c-0.1,0-0.2,0.1-0.3,0.2c-0.1,0.1-0.1,0.2-0.2,0.3c0,0.1-0.1,0.2-0.1,0.3c0,0.1-0.1,0.2-0.2,0.3l-0.3,0.3
			c-0.1,0.1-0.2,0.2-0.2,0.3c-0.1,0.1-0.1,0.2-0.2,0.4c-0.1,0.1-0.1,0.3-0.2,0.4c-0.1,0.1-0.2,0.2-0.3,0.4c-0.1,0.1-0.1,0.1-0.1,0.2
			c0,0.1-0.1,0.1-0.1,0.2c0,0.1,0,0.1,0,0.2c0,0.1,0,0.2,0,0.2c0,0.4,0,0.7,0.1,0.9c0.1,0.2,0.3,0.4,0.7,0.5c0.2,0,0.3,0.1,0.4,0.2
			c0.1,0.1,0.3,0.2,0.4,0.2c0.2,0,0.3,0,0.5,0.1c0.1,0,0.1,0,0.2,0c0.1,0,0.2-0.1,0.2-0.1c0.1-0.1,0.2-0.2,0.3-0.3
			c0.1-0.1,0.2-0.2,0.3-0.2c0.1-0.1,0.2-0.1,0.4-0.1c0.2,0,0.3,0,0.5-0.1c0.1-0.1,0.2-0.1,0.3-0.1c0.2,0,0.4,0,0.6-0.1
			c0.2-0.1,0.4-0.1,0.5-0.1c0.1,0,0.2,0.1,0.2,0.2c0,0.1,0.1,0.2,0.1,0.3c0,0.1,0,0.2-0.1,0.4c0,0.1-0.1,0.2-0.1,0.3
			c0,0,0,0.1,0,0.1c0,0,0.1,0,0.1,0c0,0,0,0,0.1,0c0,0,0,0,0,0c0,0,0,0,0,0.1c0,0,0,0,0,0.1c-0.1,0.1-0.2,0.2-0.3,0.3
			c-0.1,0.1-0.1,0.1-0.2,0.1c-0.1,0-0.1,0.1-0.2,0.1c-0.1,0-0.2,0.1-0.3,0.2c-0.1,0-0.1,0.1-0.2,0.1c-0.1,0-0.1,0.1-0.2,0.1
			c-0.1,0-0.2,0-0.2,0c-0.1,0-0.2,0-0.2-0.1c-0.1,0-0.2-0.1-0.2-0.1c-0.1,0-0.2,0-0.2,0c0,0-0.1,0.1-0.2,0.1
			c-0.1,0.1-0.1,0.1-0.2,0.1c-0.2,0.1-0.3,0.2-0.4,0.2c-0.1,0-0.1,0-0.2,0.1c-0.1,0.1-0.1,0.1-0.1,0.2c0,0.1-0.1,0.1-0.2,0.2
			c-0.1,0-0.1,0.1-0.2,0.1c-0.1,0-0.1,0.1-0.2,0.1c-0.1,0-0.1,0.1-0.2,0.2c-0.1,0.2-0.2,0.4-0.3,0.6c-0.2,0.2-0.3,0.3-0.5,0.5
			c-0.1,0.1-0.3,0.2-0.4,0.2c-0.2,0.1-0.3,0.2-0.4,0.3c-0.1,0.1-0.1,0.3-0.1,0.4c0,0.2,0,0.3-0.1,0.5c-0.1,0.1-0.2,0.2-0.3,0.4
			c-0.1,0.1-0.1,0.1-0.1,0.2c0,0.1,0,0.1,0,0.2c0,0.1,0,0.1,0,0.2c0,0.1,0,0.1-0.1,0.2c-0.1,0.1-0.1,0.2,0,0.3
			c0.1,0.1,0.1,0.2,0.2,0.3c0,0.1,0.1,0.3,0,0.5c0,0.1,0,0.2,0.1,0.3c0.1,0.1,0.1,0.2,0.2,0.3c0.1,0.1,0.2,0.2,0.3,0.2
			c0.1,0.1,0.2,0.1,0.3,0c0.1,0,0.1,0,0.2,0c0.1,0.1,0.1,0.1,0.1,0.2c0.1,0.2,0.2,0.2,0.3,0.2c0.1,0,0.3,0,0.4-0.1
			c0.1,0,0.3,0,0.4,0.1c0.1,0.1,0.3,0.1,0.5,0.1c0.1,0,0.1,0,0.2,0c0.1,0,0.1,0,0.2,0c0.1,0,0.2,0,0.2,0c0.2,0,0.3,0,0.4-0.1
			c0.1-0.1,0.2-0.2,0.3-0.3c0.1-0.1,0.1-0.1,0.2-0.1c0.1,0,0.2,0,0.2,0c0.1,0,0.2,0,0.2,0c0.1,0,0.1,0,0.2-0.1
			c0.1-0.1,0.1-0.1,0.2-0.1s0.1,0,0.2,0c0.1,0,0.2,0,0.2,0c0.1,0,0.1-0.1,0.2-0.1c0.1,0,0.1-0.1,0.2-0.1c0.1,0,0.2,0,0.2,0
			c0.2,0,0.3,0,0.4-0.2c0.1-0.1,0.2-0.2,0.4-0.2c0.2,0,0.3-0.1,0.4-0.2c0.1-0.1,0.2-0.2,0.3-0.3c0.1-0.1,0.1-0.1,0.2-0.1
			c0.1,0,0.2,0,0.3,0c0.1,0,0.2,0,0.3,0c0.1,0,0.2,0,0.2-0.1c0.1-0.1,0.2-0.2,0.3-0.3c0.1-0.1,0.2-0.2,0.4-0.2
			c0.2-0.1,0.3-0.1,0.4-0.2c0.1,0,0.2-0.1,0.3-0.3c0.1-0.1,0.2-0.2,0.4-0.1c0.1,0,0.1,0,0.2,0c0.1,0,0.1-0.1,0.2-0.1
			c0.1,0,0.1-0.1,0.2-0.1c0.1-0.1,0.1-0.1,0.2-0.1c0.2-0.1,0.4-0.2,0.5-0.4c0.2,0,0.3-0.1,0.4-0.1c0.1-0.1,0.2-0.1,0.3-0.1
			c0,0,0.1,0,0.2-0.1c0.1,0,0.2-0.1,0.3-0.2c0.1-0.1,0.2-0.1,0.2-0.2c0.1-0.1,0.1-0.1,0.2-0.1c0.1,0,0.1,0,0.2,0s0.1,0,0.2,0
			c0.1,0,0.1,0,0.2,0C195.6,222.4,195.7,222.5,195.7,222.5z"/>
		<path class="st1" d="M211.6,221.9c-0.1,0.4-0.2,0.8-0.3,1c-0.1,0.2-0.2,0.4-0.4,0.6c-0.2,0.2-0.3,0.3-0.6,0.4
			c-0.2,0.1-0.5,0.3-0.8,0.6c-0.1,0.1-0.2,0.2-0.3,0.2c-0.1,0.1-0.2,0.2-0.3,0.3c-0.3,0.1-0.6,0.2-1.1,0.4c-0.4,0.2-0.8,0.4-1.3,0.6
			c-0.4,0.2-0.9,0.4-1.3,0.5c-0.4,0.1-0.7,0.2-1,0.2c-0.1,0.1-0.2,0.2-0.5,0.2c-0.2,0-0.4,0-0.5,0c-0.2,0-0.4,0-0.6,0
			c-0.2,0-0.4,0.1-0.5,0.3c0,0,0,0-0.1,0.1c0,0,0,0,0,0c0,0,0,0,0,0c0,0,0,0-0.1,0.1c-0.2,0.2-0.3,0.3-0.5,0.3c-0.2,0-0.3,0-0.5-0.1
			c-0.2-0.1-0.3-0.1-0.5-0.2c-0.2-0.1-0.3-0.2-0.5-0.2c-0.2-0.1-0.3-0.1-0.5,0c-0.2,0-0.3,0.2-0.5,0.4c-0.1-0.3-0.3-0.4-0.5-0.5
			c-0.2,0-0.4-0.1-0.7-0.1c-0.2,0-0.4,0-0.6-0.1c-0.2,0-0.3-0.2-0.4-0.4v0l-0.5-0.4l-0.1,0.1c-0.1,0.1-0.1,0.2-0.2,0.2
			c0,0.1-0.1,0.2-0.2,0.2c-0.1,0.2-0.2,0.3-0.4,0.5s-0.3,0.3-0.4,0.4c-0.2,0.1-0.3,0.2-0.5,0.3c-0.2,0.1-0.4,0.1-0.6,0.1
			c0-0.3,0.1-0.7,0.3-1s0.4-0.6,0.6-0.9c0.2-0.3,0.3-0.6,0.3-0.9c0.1-0.3-0.1-0.6-0.4-0.9c0-0.2-0.1-0.4-0.3-0.6
			c-0.2-0.2-0.3-0.4-0.5-0.6c-0.1-0.2-0.2-0.4-0.2-0.6c0-0.2,0.1-0.4,0.4-0.6c-0.1,0-0.2-0.1-0.3-0.2c0-0.1,0-0.1,0.1-0.2
			c0-0.1,0.1-0.2,0.1-0.2c0.1,0,0.2,0,0.3-0.1c0.1,0,0.2-0.1,0.3-0.1c0.1,0,0.2,0,0.2,0c0.1,0,0.1,0.1,0.2,0.2
			c0,0.1,0.1,0.2,0.1,0.3c0,0.1,0.1,0.2,0.1,0.3c0.1,0.3,0.3,0.6,0.4,0.8c0.2,0.3,0.4,0.5,0.6,0.7l0.1,0.1c0,0,0-0.1,0.1-0.1
			c0.1-0.1,0.1-0.1,0.2-0.2c0.1-0.1,0.1-0.1,0.2-0.2c0.1-0.1,0.1-0.1,0.1-0.1c0.2-0.2,0.3-0.3,0.5-0.5c0.2-0.1,0.3-0.3,0.4-0.4
			c0.1-0.2,0.2-0.3,0.3-0.5c0.1-0.2,0.1-0.4,0.1-0.7c0.4-0.3,0.9-0.6,1.3-1s0.9-0.7,1.3-1.1c0.4-0.3,0.9-0.7,1.4-0.9
			c0.5-0.3,1-0.5,1.6-0.6c0.1,0.2,0.3,0.4,0.5,0.5c0.2,0.1,0.3,0.3,0.5,0.4c0.2,0.1,0.3,0.3,0.5,0.5c0.1,0.2,0.2,0.4,0.3,0.8
			c0.1,0.6,0.1,1.2,0,1.8c-0.1,0.5-0.3,1.1-0.5,1.7c-0.1,0.3-0.2,0.7-0.3,1.1c-0.1,0.4-0.1,0.7-0.1,1.1l0.2,0
			c0.1-0.2,0.3-0.3,0.4-0.3c0.2,0,0.3-0.1,0.5-0.1c0.2,0,0.3,0,0.5-0.1c0.2,0,0.3-0.1,0.4-0.3c0.2,0.1,0.4,0.1,0.5,0
			c0.2-0.1,0.3-0.2,0.5-0.3c0.2-0.1,0.3-0.2,0.5-0.4c0.2-0.1,0.3-0.2,0.5-0.3l0-0.2c0.3-0.2,0.5-0.3,0.7-0.4
			c0.2-0.1,0.4-0.1,0.5-0.2c0.2-0.1,0.3-0.2,0.5-0.3c0.2-0.1,0.3-0.3,0.5-0.7c0.1,0,0.2,0,0.2,0
			C211.5,221.8,211.6,221.9,211.6,221.9z M204.1,219.8c-0.1,0-0.1-0.1-0.2-0.1c-0.1,0-0.2-0.1-0.2-0.1c-0.1-0.1-0.3-0.2-0.4-0.2
			c-0.1,0-0.3,0-0.4,0v0h0c-0.7,0.6-1.4,1.2-2,1.9c-0.6,0.7-1.3,1.3-2,2l-0.2-0.2c-0.1,0.1-0.2,0.3-0.2,0.4c0,0.1,0,0.3,0,0.4
			s0,0.3,0,0.4c0,0.1-0.1,0.2-0.3,0.3l-0.1,0c0.1,0.2,0.1,0.3,0.2,0.4c0.1,0.1,0.2,0.1,0.3,0.1c0.1,0,0.2,0,0.4,0
			c0.1,0,0.2,0,0.3,0.1c0,0,0.1,0.1,0.1,0.1c0,0.1,0,0.1,0,0.2c0.1,0,0.1,0,0.2,0c0.1,0,0.2,0,0.2,0c0.2,0,0.3,0,0.5,0
			c0.2,0,0.3,0.1,0.3,0.3c0.3-0.1,0.6-0.2,0.9-0.4c0.3-0.1,0.5-0.3,0.7-0.6l0.2,0.2c0,0,0,0,0,0c0,0,0,0,0,0c0.4-0.2,0.6-0.5,0.9-1
			c0.2-0.4,0.4-0.9,0.5-1.4c0.1-0.5,0.2-1,0.2-1.5C204,220.6,204.1,220.2,204.1,219.8z"/>
		<path class="st1" d="M225.8,221.3c-0.1,0.4-0.3,0.7-0.6,1c-0.3,0.3-0.6,0.6-0.9,0.9c-0.3,0.3-0.6,0.6-0.9,0.9
			c-0.3,0.3-0.5,0.6-0.7,0.9c-0.1,0-0.2,0-0.3,0c-0.1,0.1-0.2,0.2-0.2,0.3c-0.2,0.1-0.3,0.1-0.5,0.2c-0.2,0.1-0.3,0.1-0.5,0.2
			c-0.2,0.1-0.3,0.2-0.4,0.3c-0.1,0.1-0.2,0.3-0.3,0.4c-0.3,0-0.5,0.1-0.7,0.2c-0.2,0.1-0.4,0.2-0.6,0.3c-0.2,0.1-0.4,0.2-0.6,0.2
			c-0.2,0.1-0.5,0.1-0.8,0c-0.1,0.2-0.1,0.3-0.2,0.3c-0.1,0-0.2,0-0.3-0.1c-0.1-0.1-0.2-0.1-0.3-0.1c-0.1,0-0.2,0.1-0.2,0.3
			c-0.1,0-0.2,0-0.3,0c-0.1,0-0.2,0-0.3,0c-0.1,0-0.2,0-0.3,0.1c-0.1,0-0.1,0.1-0.2,0.2c-0.4,0-0.9,0-1.3,0.1
			c-0.5,0.1-0.9,0.1-1.4,0.1c-0.5,0-0.9-0.1-1.3-0.2c-0.4-0.1-0.8-0.3-1.1-0.7c-0.1-0.1-0.2-0.2-0.3-0.3c-0.1-0.1-0.2-0.2-0.2-0.4
			c0-0.1-0.1-0.1-0.1-0.2c0-0.1-0.1-0.1-0.1-0.2c-0.1-0.3-0.2-0.5-0.2-0.8c0-0.3,0-0.5,0-0.8c0-0.3,0-0.5,0-0.8
			c0-0.3-0.1-0.5-0.2-0.8c0-0.2,0.1-0.5,0.2-0.7c0.1-0.2,0.2-0.4,0.4-0.6c0.1-0.2,0.3-0.4,0.4-0.6c0.1-0.2,0.2-0.4,0.2-0.6
			c-0.1-0.2-0.1-0.5,0-0.7c0.1-0.2,0.2-0.4,0.3-0.7c0-0.1,0.1-0.1,0.1-0.2c0-0.1,0.1-0.2,0.1-0.2c0-0.1,0.1-0.2,0.2-0.3
			c0.1-0.1,0.1-0.2,0.2-0.2c0.2-0.3,0.4-0.5,0.6-0.8c0.2-0.2,0.4-0.5,0.6-0.8c0.1-0.2,0.3-0.3,0.4-0.5c0.1-0.2,0.2-0.4,0.4-0.5
			c0.1-0.1,0.1-0.2,0.2-0.3c0.1-0.1,0.1-0.2,0.2-0.3c0.1-0.1,0.2-0.2,0.4-0.3c0.2-0.1,0.3-0.2,0.4-0.2c0.3-0.1,0.6-0.2,0.9-0.3
			c0.3-0.1,0.6-0.1,0.9,0c0.3,0.1,0.5,0.2,0.8,0.4c0.2,0.2,0.4,0.5,0.4,0.9c0,0.2,0,0.4,0,0.6c0,0.2,0,0.4,0,0.5
			c0,0.2,0.1,0.3,0.1,0.5c0.1,0.2,0.2,0.3,0.4,0.4c-0.2,0.2-0.3,0.5-0.4,0.8c-0.1,0.3-0.2,0.5-0.4,0.8c0.1,0,0.2,0.1,0.2,0.2
			c0,0.1,0,0.2,0,0.3c-0.2,0.2-0.3,0.4-0.4,0.6c-0.1,0.2-0.1,0.5-0.2,0.7c0,0.2-0.1,0.5-0.2,0.7c-0.1,0.2-0.2,0.4-0.4,0.5
			c0.1,0.5-0.1,0.8-0.4,0.9c-0.3,0.1-0.4,0.1-0.5,0.1c-0.1-0.1-0.1-0.2-0.2-0.3c0-0.1-0.1-0.2-0.1-0.4c-0.1-0.1-0.2-0.2-0.4-0.2
			c0-0.2,0.1-0.4,0.1-0.5c0-0.2,0.1-0.4,0.1-0.5c0-0.2,0.1-0.3,0.2-0.5c0.1-0.2,0.2-0.3,0.4-0.4c-0.1-0.1-0.2-0.2-0.2-0.3
			c0-0.2,0-0.3,0-0.4c0.1-0.3,0.3-0.6,0.5-0.9c0.2-0.3,0.4-0.6,0.5-1c0.2-0.3,0.3-0.7,0.3-1c0-0.3,0-0.7-0.2-1
			c-0.1-0.1-0.1-0.2-0.2-0.2c-0.1-0.1-0.2-0.1-0.3-0.1c-0.1,0-0.2,0-0.3,0.1c-0.1,0.1-0.1,0.2-0.1,0.3l0.2,0.2
			c-0.3,0.1-0.5,0.2-0.7,0.4c-0.2,0.2-0.4,0.4-0.6,0.7c-0.2,0.2-0.4,0.5-0.6,0.7c-0.2,0.2-0.4,0.5-0.6,0.6c-0.1,0.4-0.3,0.8-0.5,1.1
			c-0.2,0.3-0.4,0.7-0.6,1c-0.1,0.2-0.2,0.4-0.2,0.5c-0.1,0.1-0.1,0.3-0.2,0.5c0,0.1-0.1,0.1-0.1,0.2c0,0.1-0.1,0.1-0.1,0.2
			c-0.1,0.3-0.2,0.6-0.2,0.9c-0.1,0.3-0.2,0.6-0.5,0.8c0,0.1,0.1,0.2,0.1,0.3c0,0.1,0.1,0.2,0.2,0.3c-0.2,0.1-0.2,0.2-0.3,0.3
			c0,0.1,0,0.3,0,0.4c0,0.1,0.1,0.3,0.2,0.4c0.1,0.1,0.1,0.3,0.1,0.4c0.2,0,0.3,0.1,0.5,0.2c0.1,0.1,0.3,0.2,0.4,0.3
			c0.2,0.1,0.3,0.2,0.4,0.3c0.1,0.1,0.3,0,0.5-0.1c0.1,0,0.2,0,0.3,0c0.1,0,0.2,0,0.3,0c0.1,0,0.2,0,0.3,0.1c0.1,0,0.2,0.1,0.3,0.3
			c0.1-0.2,0.2-0.3,0.4-0.4c0.2,0,0.4-0.1,0.6-0.1s0.4,0,0.6,0c0.2,0,0.3-0.1,0.5-0.3c0.2,0.1,0.3,0.2,0.5,0.2
			c0.1,0,0.3-0.1,0.4-0.2c0.1-0.1,0.2-0.2,0.4-0.3c0.1-0.1,0.3-0.2,0.4-0.2c0.3,0,0.7-0.1,0.9-0.2c0.3-0.1,0.5-0.2,0.8-0.4
			c0.2-0.1,0.5-0.3,0.7-0.4c0.3-0.1,0.5-0.2,0.9-0.3c0.1-0.2,0.3-0.4,0.5-0.5c0.2-0.1,0.4-0.2,0.6-0.3c0.2-0.1,0.4-0.2,0.6-0.3
			c0.2-0.1,0.4-0.3,0.5-0.6c0.3,0,0.5-0.1,0.7-0.2c0.2-0.2,0.4-0.4,0.5-0.6c0.2-0.2,0.4-0.4,0.5-0.5
			C225.3,221.2,225.6,221.2,225.8,221.3z"/>
		<path class="st1" d="M238.2,225.1c-0.2,0.3-0.4,0.6-0.5,0.8c-0.1,0.2-0.2,0.4-0.3,0.5c-0.1,0.1-0.2,0.3-0.4,0.4
			c-0.1,0.1-0.3,0.2-0.6,0.4c-0.2,0.1-0.3,0.3-0.5,0.4c-0.1,0.1-0.3,0.2-0.4,0.3c-0.1,0.1-0.2,0.1-0.3,0.1c0,0-0.1,0-0.1,0
			c0,0-0.1,0-0.1,0c-0.1,0-0.2,0-0.2,0c-0.1,0-0.1,0-0.2-0.2c0,0-0.1,0.1-0.1,0.2c0,0.1-0.1,0.1-0.1,0.2c0,0.1-0.1,0.1-0.1,0.1
			c-0.1,0-0.1,0-0.2,0l-0.1-0.1l-0.3,0.3c-0.4-0.2-0.8-0.4-1.2-0.5c-0.4-0.1-0.7-0.3-1-0.5c-0.3-0.2-0.5-0.4-0.7-0.7
			c-0.2-0.3-0.3-0.7-0.4-1.2c-0.1-0.1-0.2-0.2-0.2-0.2c-0.1-0.1-0.2-0.1-0.3-0.1c-0.1,0.2-0.3,0.5-0.5,0.6c-0.2,0.2-0.4,0.4-0.6,0.6
			c-0.1,0.1-0.1,0.2-0.2,0.2c0,0.1-0.1,0.2-0.2,0.2c-0.1,0.1-0.3,0.2-0.4,0.3c-0.2,0.1-0.3,0.1-0.5,0.1c-0.2,0-0.3,0.1-0.4,0.2
			c-0.1,0.1-0.2,0.3-0.3,0.5c-0.2-0.1-0.3-0.1-0.5-0.1c-0.1,0-0.3,0.1-0.4,0.1c-0.1,0-0.3,0.1-0.4,0.1c-0.1,0-0.3,0-0.4-0.1
			c-0.1,0-0.2-0.1-0.3-0.3c-0.2,0.1-0.4,0.1-0.6,0c-0.2-0.1-0.3-0.2-0.5-0.4c-0.2-0.2-0.3-0.3-0.4-0.5c-0.1-0.2-0.3-0.3-0.4-0.4
			c-0.1-0.2-0.1-0.4,0-0.6c0.1-0.2,0.2-0.3,0.3-0.5c0.1-0.2,0.2-0.3,0.2-0.5c0-0.2,0-0.3-0.2-0.6c0.1-0.2,0.3-0.4,0.4-0.7
			c0.1-0.2,0.2-0.5,0.4-0.7c0.1-0.2,0.3-0.5,0.4-0.7c0.1-0.2,0.3-0.4,0.5-0.6c-0.1-0.1-0.1-0.2-0.1-0.3c0-0.1,0-0.2,0.1-0.3
			c0-0.1,0.1-0.2,0.2-0.3c0.1-0.1,0.1-0.2,0.1-0.3l0.6-0.3l-0.2-0.5c0.2,0,0.3,0,0.4,0c0.1,0,0.1-0.1,0.2-0.2c0-0.1,0.1-0.2,0.1-0.3
			c0-0.1,0.1-0.2,0.1-0.3c0.1-0.1,0.2-0.2,0.3-0.3c0.3-0.2,0.6-0.5,0.9-0.7c0.3-0.3,0.6-0.5,0.9-0.8c0.3-0.2,0.6-0.5,0.9-0.7
			c0.3-0.2,0.7-0.4,1-0.6c0.3,0,0.5,0.1,0.6,0.2c0.2,0.1,0.3,0.3,0.3,0.4c0.1,0.2,0.1,0.3,0.2,0.5c0,0.2,0.1,0.4,0.1,0.6
			c0.1,0.2,0.2,0.5,0.3,0.6c0.1,0.2,0.3,0.3,0.5,0.4c-0.2,0.3-0.3,0.7-0.2,1s0.1,0.7,0.1,1.1c0,0.3,0,0.7,0,1
			c-0.1,0.3-0.3,0.6-0.6,0.9c0,0.1,0,0.2,0,0.3c0,0.1,0,0.2,0,0.3c0,0.1,0,0.2-0.1,0.3c0,0.1-0.1,0.2-0.2,0.2
			c0.1,0.2,0.2,0.3,0.2,0.5c0,0.2,0,0.3,0,0.5c0,0.1,0,0.3,0.1,0.4c0.1,0.1,0.2,0.2,0.5,0.3c0,0.2,0.1,0.3,0.1,0.4
			c0,0.1,0.1,0.2,0.1,0.2c0.1,0.1,0.1,0.1,0.2,0.2c0.1,0.1,0.2,0.1,0.3,0.2c0.1,0,0.2,0,0.4,0c0.1,0,0.3,0,0.3,0.1
			c0.1-0.1,0.2-0.1,0.3-0.1c0.1,0,0.2,0,0.3,0l0.3,0.5c0.2-0.1,0.3-0.2,0.5-0.3c0.2-0.1,0.4-0.2,0.6-0.2c0.2-0.1,0.4-0.1,0.7-0.2
			L238.2,225.1z M229.9,217.7c-0.1,0.1-0.3,0.2-0.5,0.3c-0.2,0.1-0.4,0.2-0.6,0.4c-0.2,0.1-0.3,0.3-0.5,0.4
			c-0.1,0.2-0.2,0.3-0.2,0.5c-0.3,0.1-0.6,0.2-0.7,0.4s-0.2,0.5-0.3,0.7c-0.1,0.3-0.2,0.5-0.3,0.8c-0.1,0.3-0.3,0.5-0.5,0.6
			c-0.1,0.1-0.2,0.1-0.2,0.1c0,0,0,0-0.1,0.1c-0.2,0.1-0.3,0.3-0.4,0.4c-0.1,0.2-0.2,0.4-0.3,0.6c-0.1,0.2-0.2,0.4-0.2,0.6
			c-0.1,0.2-0.1,0.4-0.2,0.6c-0.2,0-0.4,0.1-0.5,0.1c-0.1,0.1-0.2,0.1-0.2,0.2c0,0.1,0,0.1,0,0.2c0,0.1,0.1,0.2,0.1,0.3
			c0.1,0.1,0.1,0.2,0.2,0.3c0.1,0.1,0.1,0.2,0.2,0.3c0,0.1,0.1,0.2,0.1,0.3c0,0.1,0,0.2-0.1,0.3c0.2,0.2,0.4,0.2,0.6,0.1
			c0.2-0.1,0.4-0.2,0.5-0.3c0.1,0,0.1-0.1,0.2-0.1c0.1-0.1,0.1-0.1,0.2-0.1c0.3,0.1,0.6,0.1,0.9-0.1c0.3-0.1,0.5-0.3,0.8-0.5
			c0.2-0.2,0.5-0.4,0.7-0.7c0.2-0.2,0.4-0.4,0.7-0.6l-0.2-0.2c0.3-0.1,0.4-0.2,0.6-0.3c0.1-0.1,0.2-0.3,0.2-0.4c0-0.2,0-0.3,0-0.5
			c0-0.2-0.1-0.4-0.1-0.6c0-0.1,0-0.2,0-0.3c0-0.1,0-0.2,0.1-0.3c-0.1-0.3-0.1-0.7-0.1-1c0.1-0.3,0.2-0.6,0.3-0.9
			c0.1-0.3,0.3-0.6,0.4-0.9c0.1-0.3,0.2-0.6,0.2-0.9L229.9,217.7z"/>
		<path class="st1" d="M253.8,222c0,0.4-0.1,0.7-0.3,1c-0.2,0.3-0.4,0.5-0.6,0.8c-0.2,0.2-0.5,0.4-0.8,0.6c-0.3,0.2-0.6,0.4-0.8,0.5
			c-0.1-0.1-0.3-0.1-0.4,0c-0.1,0.1-0.2,0.1-0.4,0.2c-0.1,0.1-0.3,0.1-0.4,0.2c-0.1,0-0.3,0-0.4-0.1c-0.1,0.2-0.3,0.4-0.4,0.4
			c-0.2,0-0.3,0-0.5-0.1c-0.2,0-0.4,0-0.5,0c-0.2,0-0.3,0.2-0.4,0.5l-0.2-0.2c-0.3,0.2-0.5,0.4-0.8,0.6c-0.2,0.3-0.5,0.5-0.8,0.7
			c-0.3,0.2-0.5,0.4-0.8,0.6c-0.3,0.1-0.6,0.2-0.9,0.1c-0.1,0.2-0.2,0.3-0.4,0.3c-0.2,0-0.3-0.1-0.5-0.2c-0.2-0.1-0.3-0.2-0.5-0.3
			c-0.1-0.1-0.3-0.2-0.3-0.3c-0.1,0.1-0.1,0.2-0.2,0.2c-0.1,0-0.2-0.1-0.2-0.1c-0.1-0.1-0.2-0.1-0.3-0.2c-0.1-0.1-0.2-0.1-0.3-0.1
			c-0.2-0.6-0.5-1.1-0.8-1.5c-0.3-0.4-0.7-0.8-1.1-1.3c0,0.2-0.1,0.3-0.2,0.4c-0.1,0.1-0.2,0.3-0.2,0.4c-0.1,0.1-0.2,0.2-0.2,0.4
			c-0.1,0.1-0.1,0.3-0.1,0.5L239,226c0.2,0.2,0.2,0.4,0.2,0.6c-0.1,0.2-0.1,0.3-0.3,0.4s-0.3,0.3-0.4,0.4c-0.1,0.2-0.2,0.3-0.1,0.6
			c-0.1,0.1-0.2,0.2-0.2,0.4c0,0.2-0.1,0.3-0.1,0.5c0,0.2-0.1,0.3-0.1,0.5c0,0.2-0.1,0.3-0.2,0.5c0,0.2,0,0.3-0.1,0.4
			c-0.1,0.1-0.2,0.2-0.3,0.3c-0.1,0.1-0.2,0.2-0.3,0.3c-0.1,0.1-0.1,0.3-0.1,0.5c0,0.1,0,0.2,0,0.2c0,0,0,0.1,0,0.2
			c0,0.2-0.1,0.4-0.2,0.6c-0.1,0.2-0.3,0.3-0.5,0.3c0.1,0.4,0.2,0.6,0.2,0.8c0,0.2-0.1,0.4-0.2,0.5c-0.1,0.1-0.3,0.2-0.4,0.3
			c-0.2,0.1-0.3,0.2-0.5,0.3c-0.2,0.1-0.3,0.3-0.4,0.5c-0.1,0.2-0.1,0.5,0,0.8c0.1,0.4,0,0.7-0.2,0.9c-0.2,0.2-0.3,0.4-0.5,0.6
			c-0.2,0.2-0.3,0.4-0.5,0.6c-0.1,0.2-0.1,0.5,0,0.9c0,0.2-0.1,0.3-0.2,0.3c-0.1,0-0.2,0-0.2,0c-0.1,0-0.2-0.1-0.3-0.1
			c-0.1-0.1-0.2-0.1-0.3-0.1c0-0.1,0-0.2-0.1-0.3c-0.1-0.1-0.1-0.2-0.2-0.3c-0.1-0.1-0.1-0.2-0.1-0.3c0-0.1,0-0.2,0.1-0.3
			c-0.1-0.1-0.2-0.3-0.2-0.5c0-0.2,0-0.4,0.1-0.6c0.1-0.2,0.1-0.4,0.2-0.6c0.1-0.2,0.1-0.4,0.1-0.5c0.1-0.2,0.2-0.4,0.3-0.6
			c0.1-0.2,0.1-0.4,0.2-0.6c0-0.2,0.1-0.4,0.1-0.6c0.1-0.2,0.1-0.4,0.3-0.6c-0.1-0.3-0.1-0.6,0-0.8c0.1-0.2,0.2-0.4,0.3-0.6
			c0.1-0.2,0.3-0.4,0.4-0.6c0.1-0.2,0.2-0.5,0.1-0.8c0.3-0.7,0.6-1.3,1-2c0.4-0.6,0.7-1.3,1-2c0.3-0.3,0.6-0.7,0.8-1.1
			c0.2-0.4,0.3-0.9,0.3-1.3c0.2-0.1,0.3-0.3,0.4-0.5c0.1-0.2,0.2-0.4,0.2-0.5c0.1-0.2,0.2-0.3,0.3-0.5c0.1-0.2,0.3-0.3,0.5-0.4
			c-0.1-0.2-0.1-0.4-0.1-0.5c0-0.1,0.1-0.3,0.2-0.5c0.1,0,0.2-0.1,0.2-0.2c0-0.1,0-0.2,0-0.3c0-0.1,0-0.2,0-0.3c0-0.1,0-0.2,0.1-0.3
			c0.1-0.1,0.1-0.1,0.1-0.1c0,0,0.1-0.1,0.1-0.1c0.1-0.1,0.2-0.2,0.2-0.4c0.1-0.2,0.2-0.3,0.2-0.4c0.1-0.1,0.2-0.2,0.3-0.3
			c0.1-0.1,0.3-0.1,0.5-0.1c0.1,0.1,0.2,0.2,0.2,0.3c0.1,0.1,0.1,0.2,0.2,0.3c0.1,0.1,0.1,0.2,0.2,0.3c0.1,0.1,0.2,0.1,0.3,0.1
			c0.1,0,0.1,0,0.2-0.1c0.2-0.1,0.4-0.3,0.6-0.4c0.2-0.1,0.4-0.3,0.5-0.5c0.1,0.1,0.2,0.2,0.3,0.2c0.1,0,0.2-0.1,0.3-0.2
			c0.1-0.1,0.2-0.2,0.3-0.2c0.1-0.1,0.2-0.1,0.4-0.2c0.6-0.1,1.2,0,1.6,0.2c0.5,0.2,0.9,0.5,1.3,1c0.1,0.1,0.2,0.2,0.2,0.3
			c0.1,0.1,0.2,0.2,0.2,0.3c0.1,0.2,0.2,0.5,0.2,0.8c0,0.3,0,0.7,0,1.1c0,0.4,0,0.7-0.1,1.1c0,0.4,0,0.7,0,0.9l0.8,0.6
			c0.9-0.2,1.8-0.4,2.7-0.8C252.3,223.2,253.1,222.7,253.8,222z M246.9,223.4c-0.2-0.2-0.2-0.5-0.2-0.7c0-0.2,0.1-0.5,0.1-0.7
			c0.1-0.2,0.1-0.5,0.2-0.7c0-0.2,0-0.5-0.1-0.7c-0.1-0.2-0.2-0.4-0.3-0.6c-0.1-0.2-0.2-0.3-0.3-0.5c-0.4-0.2-0.7-0.3-1-0.2
			c-0.3,0.1-0.6,0.2-0.9,0.4c-0.3,0.2-0.6,0.4-0.9,0.5c-0.3,0.2-0.7,0.3-1,0.2c-0.1,0.2-0.2,0.3-0.4,0.4c-0.1,0.1-0.3,0.2-0.4,0.3
			c-0.1,0.1-0.3,0.2-0.4,0.2c-0.2,0.1-0.3,0.2-0.4,0.3c-0.1,0.4-0.1,0.7,0.1,0.9c0.2,0.2,0.4,0.4,0.7,0.6c0.3,0.2,0.6,0.3,0.9,0.5
			c0.3,0.2,0.5,0.4,0.7,0.7c0.3-0.1,0.5-0.2,0.8-0.1c0.2,0.1,0.5,0.1,0.7,0.2c0.2,0.1,0.5,0.1,0.7,0.1c0.2,0,0.4-0.1,0.7-0.4
			c0.1,0.1,0.3,0.1,0.4,0.1c0.1-0.1,0.2-0.1,0.3-0.2c0.1-0.1,0.2-0.2,0.2-0.4C246.7,223.6,246.8,223.5,246.9,223.4z M245.6,225.9
			c-0.1,0-0.2,0-0.2,0c-0.1,0-0.2,0-0.2-0.1L245,226c-0.1,0-0.3,0-0.4,0c-0.1-0.1-0.2-0.1-0.4-0.1c-0.1,0.1-0.3,0.1-0.5,0.1
			c-0.2,0-0.3-0.1-0.5-0.1c-0.2-0.1-0.3-0.2-0.5-0.2c-0.2-0.1-0.3-0.2-0.4-0.2c0,0.2,0.1,0.4,0.2,0.5c0.1,0.1,0.2,0.1,0.4,0.2
			c0.1,0,0.3,0.1,0.4,0.2c0.1,0.1,0.3,0.2,0.3,0.4c0.4,0.1,0.7,0.1,1,0C245.1,226.5,245.4,226.3,245.6,225.9z"/>
		<path class="st1" d="M268.6,220.7c-0.1,0.1-0.2,0.2-0.3,0.3c-0.1,0.1-0.1,0.1-0.2,0.2c-0.1,0.1-0.1,0.1-0.2,0.2
			c-0.1,0.1-0.2,0.2-0.3,0.3c-0.1,0.1-0.2,0.2-0.3,0.4c-0.1,0.1-0.2,0.2-0.3,0.3c-0.2,0-0.3,0-0.4,0.1c-0.1,0.1-0.2,0.2-0.3,0.3
			c-0.1,0.1-0.2,0.2-0.2,0.3s-0.1,0.1-0.2,0.1c-0.3,0.2-0.7,0.4-1,0.5c-0.3,0.1-0.7,0.3-1,0.6l-0.2-0.2l-2.3,1.1
			c-0.1,0-0.1,0.1-0.2,0.1c-0.1,0.1-0.1,0.1-0.2,0.2c-0.3,0.2-0.6,0.3-1,0.5c-0.3,0.1-0.7,0.3-1,0.4l-0.3,0.1c0.1,0.3,0.1,0.5,0,0.6
			c-0.1,0.1-0.3,0.2-0.5,0.2c-0.2,0.1-0.5,0.1-0.7,0.1c-0.3,0-0.5,0.1-0.6,0.2c-0.2,0-0.4,0-0.5,0c-0.2,0-0.4,0-0.6,0.1
			c-0.2,0-0.4,0-0.6,0c-0.2,0-0.4,0-0.6-0.1h0c-0.2,0.1-0.5,0.1-0.6,0.1c-0.2-0.1-0.3-0.2-0.5-0.3c-0.1-0.2-0.3-0.3-0.4-0.5
			c-0.1-0.2-0.2-0.4-0.4-0.6c-0.1-0.1-0.2-0.3-0.3-0.5c-0.1-0.2-0.2-0.4-0.3-0.7c-0.1-0.2-0.2-0.5-0.2-0.7c0-0.3,0-0.5,0.2-0.7
			c0.1-0.2,0.2-0.4,0.3-0.6c0.1-0.2,0.1-0.5,0.1-0.8c0-0.1,0-0.2,0-0.3c0-0.1,0-0.2,0-0.3c0.1,0,0.2,0,0.2,0c0.1,0,0.2,0,0.2,0
			c0.1,0,0.1,0,0.2-0.1c0.1-0.1,0.1-0.1,0.1-0.3c0-0.1,0-0.1-0.1-0.2c-0.1,0-0.1-0.1-0.1-0.1c0.1-0.1,0.2-0.2,0.2-0.3
			c0.1-0.1,0.1-0.2,0.2-0.2c0.1-0.1,0.1-0.2,0.1-0.3c0-0.1,0-0.3,0-0.4c0.2-0.3,0.4-0.6,0.6-0.8c0.2-0.2,0.5-0.5,0.7-0.7
			c0.3-0.2,0.5-0.4,0.8-0.6c0.3-0.2,0.5-0.4,0.8-0.7c0.3,0.1,0.5,0.1,0.7,0c0.2-0.1,0.3-0.2,0.4-0.4c0.1-0.1,0.3-0.2,0.4-0.3
			c0.1-0.1,0.3-0.1,0.5,0.1l0,0c0.4-0.4,0.8-0.6,1.2-0.5c0.4,0,0.7,0.2,1,0.4c0.3,0.2,0.5,0.5,0.6,0.7c0.1,0.3,0,0.5-0.2,0.6
			c0.2,0.2,0.2,0.3,0.2,0.6s-0.1,0.4-0.2,0.6c-0.1,0.2-0.2,0.4-0.3,0.5c-0.1,0.2-0.2,0.4-0.3,0.6c-0.1,0.3-0.3,0.6-0.5,0.9
			c-0.2,0.3-0.4,0.5-0.7,0.7c-0.3-0.1-0.4,0-0.5,0.1c-0.1,0.1-0.2,0.3-0.2,0.4c0,0.2-0.1,0.3-0.2,0.4c-0.1,0.1-0.2,0.1-0.4-0.1l0,0
			l0,0c-0.1,0.1-0.2,0.2-0.3,0.4c-0.1,0.1-0.2,0.3-0.3,0.3c-0.1,0-0.3-0.1-0.4-0.1c-0.1,0-0.3-0.1-0.4-0.1c0,0.3-0.1,0.5-0.2,0.7
			c-0.1,0.2-0.3,0.3-0.4,0.4c-0.2,0.1-0.4,0.2-0.6,0.3c-0.2,0.1-0.5,0.1-0.7,0.2c-0.2,0.1-0.4,0.2-0.6,0.3c-0.2,0.1-0.4,0.3-0.5,0.6
			c0.1,0.2,0.3,0.2,0.5,0.3c0.2,0,0.4,0,0.7,0c0.2,0,0.5,0,0.7,0c0.2,0,0.4,0.1,0.6,0.2l0,0l0,0c0.3,0,0.7-0.1,1-0.2
			c0.3-0.1,0.6-0.3,1-0.4c0.3-0.1,0.6-0.3,1-0.4c0.3-0.1,0.7-0.2,1-0.3c0.1,0.1,0.2,0.2,0.3,0.2c0.1,0,0.2,0,0.4,0l0,0
			c0-0.1,0.1-0.2,0.1-0.3c0-0.1,0.1-0.2,0.1-0.3c0.1-0.2,0.2-0.3,0.4-0.4c0.1-0.1,0.3-0.2,0.5-0.2c0.2,0,0.3-0.1,0.5-0.1
			c0.2,0,0.4,0,0.6-0.1h0l0-0.1c0.1-0.2,0.1-0.3,0.2-0.4c0.1-0.1,0.2-0.1,0.3-0.1c0.1,0,0.2-0.1,0.3-0.1c0.1,0,0.2-0.1,0.4-0.1
			c0.3,0.1,0.5,0.1,0.7-0.1c0.2-0.1,0.3-0.3,0.5-0.5l0.2,0.2l0.1-0.1c0.2-0.2,0.4-0.4,0.5-0.5s0.2-0.2,0.3-0.3
			c0.1-0.1,0.2-0.2,0.4-0.2c0.1-0.1,0.3-0.2,0.6-0.4c0.2-0.1,0.4-0.3,0.6-0.4c0.2-0.1,0.4-0.3,0.6-0.4c0.1,0,0.1,0.1,0.1,0.2
			c0,0.1,0,0.2,0,0.2c0,0,0,0.1,0,0.1C268.5,220.6,268.5,220.7,268.6,220.7z M259.6,218C259.6,218,259.6,218,259.6,218
			C259.5,218,259.5,218,259.6,218c-0.4-0.2-0.6-0.3-0.8-0.3c-0.2,0-0.4,0.1-0.6,0.2c-0.2,0.1-0.3,0.2-0.5,0.4
			c-0.1,0.2-0.3,0.3-0.4,0.5c-0.2,0.1-0.3,0.2-0.5,0.3c-0.2,0.1-0.4,0.1-0.7,0c0,0.2-0.1,0.5-0.1,0.7c0,0.2-0.1,0.5-0.1,0.7
			c-0.2,0.1-0.4,0.2-0.6,0.4c-0.1,0.2-0.3,0.3-0.3,0.5c-0.1,0.2-0.2,0.4-0.3,0.6c-0.1,0.2-0.2,0.4-0.3,0.6l0.1,0.1
			c0.1,0,0.1,0,0.2,0.1c0.1,0.1,0.1,0.1,0.2,0.2c0.2-0.2,0.4-0.4,0.6-0.6c0.3-0.2,0.5-0.3,0.8-0.4c0.3-0.1,0.6-0.3,0.8-0.4
			c0.3-0.2,0.5-0.4,0.6-0.6c0.5-0.1,0.8-0.4,1-0.8c0.2-0.4,0.4-0.8,0.6-1.2c0-0.1,0.1-0.2,0.2-0.4
			C259.5,218.2,259.6,218.1,259.6,218z"/>
		<path class="st1" d="M288.9,211.7c-0.2,0.2-0.4,0.3-0.7,0.3c-0.2,0-0.5,0-0.7-0.1c-0.2,0-0.5-0.1-0.7-0.1c-0.2,0-0.4,0.1-0.6,0.4
			c-0.2-0.1-0.5-0.1-0.7,0c-0.2,0-0.5,0.1-0.8,0.2c-0.3,0.1-0.5,0.1-0.8,0.2c-0.3,0.1-0.5,0.1-0.8,0.1l-0.4-0.4
			c-0.1,0.2-0.2,0.3-0.4,0.3c-0.2,0-0.4,0-0.5-0.1c-0.3,0.2-0.6,0.3-0.9,0.3c-0.3,0-0.6,0-0.9,0c-0.3,0-0.6,0.1-0.8,0.2
			c-0.3,0.1-0.5,0.4-0.6,0.9c-0.1,0.3-0.3,0.7-0.4,1c-0.1,0.3-0.2,0.7-0.3,1c-0.3,0.9-0.6,1.7-1,2.6c-0.3,0.8-0.7,1.7-1.1,2.5
			c0,0.7,0,1.3,0,2c0.1,0.7,0.1,1.3,0.2,2c-0.1,0.2-0.1,0.4-0.1,0.5c0,0.2,0.1,0.4,0.1,0.6c0.1,0.2,0.2,0.4,0.3,0.5
			c0.1,0.2,0.2,0.3,0.3,0.4l0.4-0.4l0.5,0.8c0.1-0.2,0.3-0.4,0.5-0.6c0.2-0.2,0.4-0.4,0.6-0.6c0.2-0.2,0.4-0.3,0.7-0.5
			c0.2-0.1,0.5-0.2,0.7-0.2c0.1-0.1,0.2-0.2,0.3-0.3c0.1-0.1,0.2-0.2,0.3-0.3c0.1-0.1,0.2-0.1,0.3-0.2c0.1,0,0.3,0,0.4,0
			c0.5-0.3,0.9-0.6,1.2-1c0.4-0.4,0.7-0.8,1.1-1.2c0.4-0.4,0.7-0.8,1.1-1.1c0.4-0.3,0.9-0.6,1.4-0.7c-0.3,0.8-0.8,1.7-1.3,2.4
			c-0.5,0.8-1.1,1.5-1.8,2.1c-0.2,0.2-0.4,0.4-0.7,0.5c-0.1,0.1-0.2,0.1-0.4,0.2c-0.1,0.1-0.3,0.2-0.4,0.2c-0.4,0.3-0.8,0.5-1.1,0.8
			c-0.4,0.3-0.7,0.6-1,1c0-0.1-0.1-0.1-0.2-0.2c-0.1,0-0.2,0-0.2,0c-0.1,0-0.2,0-0.3,0c-0.1,0-0.2,0-0.2,0c-0.3,0.2-0.6,0.4-1.1,0.5
			c-0.4,0.1-0.8,0.1-1.2,0.1c-0.1,0-0.2-0.1-0.4-0.2c-0.2-0.1-0.3-0.1-0.4-0.2c-0.6-0.4-1-0.8-1.3-1.4c-0.3-0.6-0.4-1.2-0.5-1.8
			l-0.2-0.2c0.2-0.2,0.3-0.3,0.4-0.5c0.1-0.2,0.1-0.4,0-0.5c0-0.2-0.1-0.4-0.1-0.6c-0.1-0.2-0.1-0.4-0.1-0.6c0-0.1,0-0.2,0-0.3
			c0-0.1,0-0.2,0.1-0.3c0.1-0.5,0.2-0.9,0.3-1.4c0.1-0.4,0.2-0.9,0.3-1.3c0.3-1.1,0.6-2.2,1-3.3c0.4-1.1,0.8-2.1,1.2-3.2
			c-0.2-0.1-0.5-0.1-0.7-0.2c-0.2,0-0.5,0-0.7,0s-0.5,0-0.7,0c-0.2,0-0.5-0.1-0.7-0.2c-0.1,0-0.2-0.1-0.2-0.1c0,0-0.1,0-0.2,0
			c-0.1,0-0.2,0-0.3,0c-0.1,0-0.3,0-0.4,0s-0.2,0-0.4,0c-0.1,0-0.2-0.1-0.2-0.2v-0.2c0-0.2,0.1-0.4,0.2-0.5c0.1-0.1,0.2-0.1,0.3-0.2
			c0.1,0,0.3,0,0.4,0c0.2,0,0.3-0.1,0.5-0.1c0.4,0.1,0.8,0.1,1.1,0.2c0.4,0,0.7,0,1.1,0c0.3,0,0.7-0.1,1-0.3c0.3-0.1,0.6-0.4,1-0.7
			c0.2-0.4,0.4-0.9,0.5-1.4c0.1-0.5,0.2-1,0.4-1.5c0.2-0.5,0.4-1,0.6-1.4c0.2-0.4,0.6-0.8,1.1-1.1c0.2,0,0.4,0,0.6,0.1
			c0.2,0.1,0.3,0.2,0.5,0.3c-0.1,0.2-0.1,0.4-0.2,0.6s-0.1,0.4-0.1,0.7c-0.1,0.2-0.1,0.4-0.2,0.6c-0.1,0.2-0.2,0.4-0.3,0.6
			c0.2,0.1,0.3,0.2,0.3,0.3c0,0.1,0,0.2,0,0.3c-0.1,0.1-0.1,0.2-0.2,0.4c-0.1,0.1-0.1,0.2-0.2,0.3c-0.2,0-0.3,0.1-0.4,0.3
			c-0.1,0.2-0.2,0.3-0.3,0.4c-0.1,0.2-0.1,0.5,0.1,0.6c0.2,0.2,0.3,0.3,0.4,0.5c0.1,0,0.3,0,0.4,0s0.2-0.1,0.4-0.1
			c0.1,0,0.2-0.1,0.3-0.1c0.1,0,0.2,0.1,0.3,0.2c0.1-0.2,0.3-0.2,0.4-0.2c0.1,0,0.3,0.1,0.4,0.1c0.1,0.1,0.3,0.1,0.4,0.1
			c0.1,0,0.3-0.1,0.4-0.3c0.2-0.1,0.3-0.1,0.5-0.1c0.2,0,0.3,0.1,0.4,0.2c0.1,0.1,0.3,0.1,0.4,0.2c0.1,0,0.2,0,0.4-0.1
			c0.2,0,0.5,0,0.7,0c0.3,0,0.5,0,0.8-0.1c0.3,0,0.5-0.1,0.8-0.2c0.3-0.1,0.5-0.1,0.7-0.2c0.2,0.1,0.3,0.2,0.4,0.3
			c0,0.1,0.1,0.2,0,0.3c0,0.1-0.1,0.2-0.1,0.3C288.8,211.3,288.8,211.5,288.9,211.7z"/>
		<path class="st1" d="M297.5,224.8c-0.3,0.7-0.6,1.2-0.9,1.5c-0.3,0.4-0.6,0.7-0.9,0.9c-0.3,0.3-0.7,0.5-1.2,0.7
			c-0.5,0.2-1.1,0.5-1.8,0.8c-0.3-0.1-0.6-0.1-0.8-0.1c-0.3,0-0.5,0.1-0.8,0.1c-0.3,0-0.5,0-0.7-0.1c-0.2-0.1-0.4-0.2-0.6-0.5h-0.3
			c0-0.2,0-0.4-0.1-0.6c-0.1-0.2-0.2-0.3-0.4-0.4c0.1-0.2,0.2-0.3,0.3-0.5s0.1-0.4,0.1-0.6c0-0.2,0.1-0.4,0.1-0.6
			c0-0.2,0.2-0.3,0.3-0.5c-0.2-0.2-0.2-0.5-0.2-0.7c0-0.2,0.1-0.5,0.2-0.7c0.1-0.2,0.3-0.5,0.4-0.7c0.1-0.2,0.2-0.5,0.2-0.7
			c-0.1-0.1-0.2-0.2-0.4-0.4c-0.1-0.2-0.3-0.2-0.4-0.1c-0.4,0.4-0.8,0.7-1.2,1.1c-0.4,0.3-0.8,0.7-1.1,1.1c-0.4,0.4-0.7,0.7-1,1.1
			c-0.3,0.4-0.6,0.8-0.9,1.3c-0.2,0-0.4,0.2-0.6,0.3s-0.2,0.4-0.3,0.6c-0.1,0.2-0.2,0.4-0.3,0.6c-0.1,0.2-0.3,0.3-0.5,0.4
			c-0.1,0.2-0.1,0.5-0.2,0.7c-0.1,0.2-0.2,0.5-0.2,0.7c-0.1,0-0.2-0.1-0.3-0.1c-0.1,0-0.3-0.1-0.4-0.1c-0.1,0-0.2-0.1-0.3-0.2
			c-0.1-0.1-0.2-0.1-0.2-0.2c0,0,0-0.1,0-0.2c0-0.1,0-0.2,0-0.2c0-0.4,0.1-0.8,0.3-1.1c0.2-0.4,0.4-0.7,0.6-1c0.2-0.3,0.4-0.7,0.6-1
			c0.2-0.3,0.3-0.7,0.3-1.1c0.2,0,0.4-0.1,0.4-0.2s0.1-0.3,0.2-0.4c0-0.1,0.1-0.3,0.1-0.4c0.1-0.1,0.2-0.2,0.4-0.1
			c-0.1-0.2-0.2-0.4-0.2-0.6c0-0.2,0.1-0.4,0.2-0.6c0.1-0.2,0.2-0.4,0.3-0.6c0.1-0.2,0.2-0.4,0.3-0.5c0-0.2,0-0.4,0.1-0.6
			c0.1-0.2,0.1-0.4,0.3-0.5c0.1-0.2,0.2-0.3,0.3-0.5c0.1-0.1,0.2-0.3,0.3-0.5c0.1-0.1,0.1-0.2,0.1-0.2c0-0.1,0.1-0.2,0.1-0.2
			c0.1-0.2,0.2-0.4,0.3-0.6c0-0.2,0.1-0.4,0.1-0.6c0.1-0.2,0.1-0.4,0.2-0.6c0.1-0.2,0.3-0.3,0.5-0.4c0-0.2,0-0.3,0.1-0.4
			c0.1-0.1,0.1-0.3,0.2-0.4c0.1-0.1,0.1-0.3,0.2-0.4c0.1-0.1,0.1-0.3,0.1-0.4c0-0.1,0.1-0.1,0.2-0.2c0.1-0.1,0.2-0.1,0.2-0.2
			c0.1-0.1,0.1-0.1,0.2-0.2c0-0.1,0.1-0.2,0-0.3c0-0.2,0-0.4,0-0.6c0-0.2,0-0.4,0.2-0.5c0-0.2,0-0.3,0.1-0.5
			c0.1-0.1,0.2-0.2,0.3-0.3c0.1-0.1,0.2-0.2,0.4-0.2c0.1-0.1,0.3-0.2,0.4-0.3c-0.1-0.1-0.1-0.2,0-0.3s0.1-0.3,0.2-0.4
			c0.1-0.1,0.2-0.2,0.3-0.4c0.1-0.1,0.2-0.2,0.2-0.3c0.1-0.2,0.2-0.3,0.2-0.5c0.1-0.2,0.1-0.3,0.2-0.5c0.1-0.2,0.2-0.3,0.3-0.4
			c0.1-0.1,0.3-0.2,0.5-0.3c-0.1-0.3,0-0.5,0.1-0.7c0.1-0.2,0.2-0.3,0.4-0.4c0.2-0.1,0.3-0.2,0.5-0.3c0.2-0.1,0.3-0.3,0.5-0.5
			c0.2,0,0.3-0.1,0.5-0.1c0.2-0.1,0.4-0.1,0.6-0.1c0.2,0,0.4,0,0.5,0c0.2,0,0.3,0.1,0.5,0.2c0.1,0.1,0.1,0.1,0.1,0.1c0,0,0,0,0,0
			c0,0,0,0,0,0c0,0,0,0.1,0.1,0.1c0.1,0.1,0.1,0.1,0.2,0.2c0.1,0.1,0.1,0.1,0.2,0.2c0,0.1,0,0.2,0,0.3c0,0.1,0,0.2,0,0.4
			c0,0.1,0,0.2,0.1,0.3c0,0.1,0.1,0.2,0.3,0.2c-0.1,0.4-0.2,0.9-0.2,1.3c0,0.5,0,1,0,1.4c0,0.5,0,1-0.1,1.4
			c-0.1,0.4-0.3,0.8-0.6,1.2l-0.2,1.1c-0.2,0-0.3,0.1-0.4,0.2c-0.1,0.1-0.1,0.2-0.2,0.4c0,0.1-0.1,0.3-0.1,0.5
			c0,0.2-0.1,0.3-0.2,0.4c-0.1,0.1-0.2,0.3-0.3,0.5c-0.1,0.2-0.2,0.4-0.4,0.5c-0.1,0.2-0.3,0.3-0.4,0.4c-0.2,0.1-0.4,0.2-0.6,0.2
			c0,0.1-0.1,0.2-0.2,0.3c-0.1,0.1-0.2,0.2-0.3,0.3c-0.1,0.1-0.2,0.2-0.3,0.3c-0.1,0.1-0.2,0.1-0.3,0.2c-0.1,0-0.2,0.1-0.3,0.1
			c-0.1,0-0.2,0.1-0.3,0.1c-0.1,0.1-0.3,0.2-0.4,0.3c-0.1,0.1-0.3,0.2-0.4,0.3c-0.1,0.1-0.3,0.1-0.5,0.2c-0.2,0-0.3,0-0.5-0.1
			c-0.2,0.2-0.4,0.4-0.6,0.4c-0.2,0.1-0.5,0.1-0.7,0.1c-0.2,0-0.4,0.1-0.6,0.2c-0.2,0.1-0.3,0.3-0.4,0.5c0,0-0.1,0.1-0.1,0.2
			c0,0.1,0,0.2,0,0.2c0,0.2,0,0.4,0,0.6c0,0.2,0,0.4,0.2,0.5c0.5-0.2,1-0.5,1.5-0.9c0.5-0.3,1-0.6,1.5-0.9l0.2,0.2
			c0-0.3,0.2-0.5,0.4-0.5c0.2,0,0.5,0,0.7,0h0.2c0,0,0.1,0,0.1,0c0,0,0,0,0.1,0c0.3,0,0.5,0.1,0.5,0.3c0.1,0.2,0.2,0.4,0.2,0.6
			c-0.2,0.2-0.3,0.4-0.4,0.6c-0.1,0.2-0.2,0.5-0.3,0.7c-0.1,0.3-0.2,0.5-0.3,0.8c-0.1,0.3-0.2,0.5-0.4,0.7c0.1,0.1,0.2,0.2,0.2,0.2
			c0,0.1,0,0.2-0.1,0.3c0,0.1,0,0.2,0,0.2c0,0.1,0.1,0.1,0.3,0.2c-0.1,0.1-0.2,0.2-0.3,0.4c-0.1,0.1-0.1,0.3-0.1,0.4
			c0,0.2-0.1,0.3-0.1,0.4c0,0.1-0.1,0.3-0.3,0.4c0.1,0.1,0.1,0.3,0.1,0.4c0,0.1,0,0.3,0,0.4c0.2,0.3,0.4,0.4,0.6,0.4
			c0.2,0,0.4,0,0.6,0c0.2-0.1,0.4-0.1,0.6-0.2c0.2-0.1,0.4,0,0.7,0c0.4-0.3,0.7-0.4,0.8-0.5c0.2-0.1,0.3-0.1,0.4-0.1
			c0.1,0,0.2-0.1,0.3-0.2c0.1-0.1,0.4-0.3,0.7-0.7c0.4-0.1,0.7-0.3,1-0.5C296.9,225.1,297.2,224.9,297.5,224.8z M294.3,207
			c0,0.2,0,0.3-0.1,0.4c-0.1,0.1-0.2,0.2-0.3,0.3c-0.1,0.1-0.2,0.2-0.3,0.2c-0.1,0.1-0.2,0.2-0.2,0.4c-0.2,0.1-0.3,0.2-0.4,0.3
			c-0.1,0.1-0.1,0.3-0.1,0.4c0,0.2-0.1,0.3-0.2,0.4c-0.1,0.1-0.2,0.3-0.4,0.3l0.2,0.2c-0.5,0.4-0.9,0.9-1.1,1.5s-0.5,1.2-0.7,1.8
			c-0.2,0.2-0.3,0.5-0.4,0.7c-0.1,0.3-0.2,0.5-0.2,0.8c-0.1,0.3-0.2,0.5-0.3,0.8c-0.1,0.2-0.3,0.4-0.6,0.6c0.1,0.2,0.2,0.4,0.2,0.5
			c0,0.2-0.1,0.3-0.2,0.5c-0.1,0.1-0.2,0.3-0.4,0.4c-0.1,0.1-0.2,0.3-0.2,0.5c0.3,0.1,0.5,0.1,0.8,0c0.3-0.1,0.5-0.2,0.8-0.3
			c0.3-0.1,0.5-0.3,0.7-0.5c0.2-0.2,0.5-0.3,0.7-0.5l0.2,0.2c0.7-0.4,1.2-0.8,1.6-1.3c0.4-0.5,0.8-1.1,1.2-1.7
			c-0.1-0.1-0.2-0.2-0.2-0.3c0-0.1,0.1-0.2,0.1-0.3c0-0.1,0.1-0.2,0.1-0.3c0.1-0.4,0.3-0.8,0.3-1.2c0.2-0.8,0.3-1.6,0.4-2.4
			c0.1-0.8,0.1-1.6,0.2-2.4L294.3,207z"/>
		<path class="st1" d="M312.7,220.7c-0.1,0.1-0.2,0.2-0.3,0.3c-0.1,0.1-0.1,0.1-0.2,0.2c-0.1,0.1-0.1,0.1-0.2,0.2
			c-0.1,0.1-0.2,0.2-0.3,0.3c-0.1,0.1-0.2,0.2-0.3,0.4c-0.1,0.1-0.2,0.2-0.3,0.3c-0.2,0-0.3,0-0.4,0.1c-0.1,0.1-0.2,0.2-0.3,0.3
			c-0.1,0.1-0.2,0.2-0.2,0.3c-0.1,0.1-0.1,0.1-0.2,0.1c-0.3,0.2-0.7,0.4-1,0.5c-0.3,0.1-0.7,0.3-1,0.6l-0.2-0.2l-2.3,1.1
			c-0.1,0-0.1,0.1-0.2,0.1c-0.1,0.1-0.1,0.1-0.2,0.2c-0.3,0.2-0.6,0.3-1,0.5c-0.3,0.1-0.7,0.3-1,0.4l-0.3,0.1c0.1,0.3,0.1,0.5,0,0.6
			c-0.1,0.1-0.3,0.2-0.5,0.2c-0.2,0.1-0.5,0.1-0.7,0.1c-0.3,0-0.5,0.1-0.6,0.2c-0.2,0-0.4,0-0.5,0c-0.2,0-0.4,0-0.6,0.1
			c-0.2,0-0.4,0-0.6,0c-0.2,0-0.4,0-0.6-0.1h0c-0.2,0.1-0.5,0.1-0.6,0.1c-0.2-0.1-0.3-0.2-0.5-0.3c-0.1-0.2-0.3-0.3-0.4-0.5
			c-0.1-0.2-0.2-0.4-0.4-0.6c-0.1-0.1-0.2-0.3-0.3-0.5c-0.1-0.2-0.2-0.4-0.3-0.7c-0.1-0.2-0.2-0.5-0.2-0.7c0-0.3,0-0.5,0.2-0.7
			c0.1-0.2,0.2-0.4,0.3-0.6c0.1-0.2,0.1-0.5,0.1-0.8c0-0.1,0-0.2,0-0.3c0-0.1,0-0.2,0-0.3c0.1,0,0.2,0,0.2,0c0.1,0,0.2,0,0.2,0
			c0.1,0,0.1,0,0.2-0.1c0.1-0.1,0.1-0.1,0.1-0.3c0-0.1,0-0.1-0.1-0.2c-0.1,0-0.1-0.1-0.1-0.1c0.1-0.1,0.2-0.2,0.2-0.3
			c0.1-0.1,0.1-0.2,0.2-0.2c0.1-0.1,0.1-0.2,0.1-0.3c0-0.1,0-0.3,0-0.4c0.2-0.3,0.4-0.6,0.6-0.8c0.2-0.2,0.5-0.5,0.7-0.7
			c0.3-0.2,0.5-0.4,0.8-0.6c0.3-0.2,0.5-0.4,0.8-0.7c0.3,0.1,0.5,0.1,0.7,0c0.2-0.1,0.3-0.2,0.4-0.4c0.1-0.1,0.3-0.2,0.4-0.3
			c0.1-0.1,0.3-0.1,0.5,0.1l0,0c0.4-0.4,0.8-0.6,1.2-0.5c0.4,0,0.7,0.2,1,0.4c0.3,0.2,0.5,0.5,0.6,0.7c0.1,0.3,0,0.5-0.2,0.6
			c0.2,0.2,0.2,0.3,0.2,0.6s-0.1,0.4-0.2,0.6c-0.1,0.2-0.2,0.4-0.3,0.5c-0.1,0.2-0.2,0.4-0.3,0.6c-0.1,0.3-0.3,0.6-0.5,0.9
			c-0.2,0.3-0.4,0.5-0.7,0.7c-0.3-0.1-0.4,0-0.5,0.1c-0.1,0.1-0.2,0.3-0.2,0.4c0,0.2-0.1,0.3-0.2,0.4c-0.1,0.1-0.2,0.1-0.4-0.1l0,0
			l0,0c-0.1,0.1-0.2,0.2-0.3,0.4c-0.1,0.1-0.2,0.3-0.3,0.3c-0.1,0-0.3-0.1-0.4-0.1c-0.1,0-0.3-0.1-0.4-0.1c0,0.3-0.1,0.5-0.2,0.7
			c-0.1,0.2-0.3,0.3-0.4,0.4c-0.2,0.1-0.4,0.2-0.6,0.3c-0.2,0.1-0.5,0.1-0.7,0.2c-0.2,0.1-0.4,0.2-0.6,0.3c-0.2,0.1-0.4,0.3-0.5,0.6
			c0.1,0.2,0.3,0.2,0.5,0.3c0.2,0,0.4,0,0.7,0c0.2,0,0.5,0,0.7,0c0.2,0,0.4,0.1,0.6,0.2l0,0l0,0c0.3,0,0.7-0.1,1-0.2
			c0.3-0.1,0.6-0.3,1-0.4c0.3-0.1,0.6-0.3,1-0.4c0.3-0.1,0.7-0.2,1-0.3c0.1,0.1,0.2,0.2,0.3,0.2c0.1,0,0.2,0,0.4,0l0,0
			c0-0.1,0.1-0.2,0.1-0.3c0-0.1,0.1-0.2,0.1-0.3c0.1-0.2,0.2-0.3,0.4-0.4c0.1-0.1,0.3-0.2,0.5-0.2c0.2,0,0.3-0.1,0.5-0.1
			c0.2,0,0.4,0,0.6-0.1h0l0-0.1c0.1-0.2,0.1-0.3,0.2-0.4c0.1-0.1,0.2-0.1,0.3-0.1c0.1,0,0.2-0.1,0.3-0.1c0.1,0,0.2-0.1,0.4-0.1
			c0.3,0.1,0.5,0.1,0.7-0.1c0.2-0.1,0.3-0.3,0.5-0.5l0.2,0.2l0.1-0.1c0.2-0.2,0.4-0.4,0.5-0.5c0.1-0.1,0.2-0.2,0.3-0.3
			c0.1-0.1,0.2-0.2,0.4-0.2c0.1-0.1,0.3-0.2,0.6-0.4c0.2-0.1,0.4-0.3,0.6-0.4c0.2-0.1,0.4-0.3,0.6-0.4c0.1,0,0.1,0.1,0.1,0.2
			c0,0.1,0,0.2,0,0.2c0,0,0,0.1,0,0.1C312.7,220.6,312.7,220.7,312.7,220.7z M303.7,218C303.7,218,303.7,218,303.7,218
			C303.7,218,303.7,218,303.7,218c-0.4-0.2-0.6-0.3-0.8-0.3c-0.2,0-0.4,0.1-0.6,0.2c-0.2,0.1-0.3,0.2-0.5,0.4
			c-0.1,0.2-0.3,0.3-0.4,0.5c-0.2,0.1-0.3,0.2-0.5,0.3c-0.2,0.1-0.4,0.1-0.7,0c0,0.2-0.1,0.5-0.1,0.7c0,0.2-0.1,0.5-0.1,0.7
			c-0.2,0.1-0.4,0.2-0.6,0.4c-0.1,0.2-0.3,0.3-0.3,0.5c-0.1,0.2-0.2,0.4-0.3,0.6c-0.1,0.2-0.2,0.4-0.3,0.6l0.1,0.1
			c0.1,0,0.1,0,0.2,0.1c0.1,0.1,0.1,0.1,0.2,0.2c0.2-0.2,0.4-0.4,0.6-0.6c0.3-0.2,0.5-0.3,0.8-0.4c0.3-0.1,0.6-0.3,0.8-0.4
			c0.3-0.2,0.5-0.4,0.6-0.6c0.5-0.1,0.8-0.4,1-0.8c0.2-0.4,0.4-0.8,0.6-1.2c0-0.1,0.1-0.2,0.2-0.4
			C303.7,218.2,303.7,218.1,303.7,218z"/>
		<path class="st1" d="M332.2,220.5c0.1,0.2,0,0.4-0.1,0.6c-0.1,0.2-0.2,0.3-0.4,0.4c-0.2,0.1-0.3,0.2-0.5,0.3
			c-0.2,0.1-0.4,0.2-0.5,0.3c-0.7,0.1-1.2,0.2-1.8,0.3c-0.5,0.1-1.1,0.1-1.7,0.2c-0.2,0-0.4,0-0.5,0c-0.2,0-0.3,0-0.5,0
			c-0.1,0-0.2,0-0.3,0c-0.1,0-0.2,0-0.3,0c-0.3,0-0.5,0.1-0.7,0.3c-0.1,0.2-0.2,0.4-0.2,0.7c-0.1,0.3-0.1,0.5-0.2,0.7
			c-0.1,0.2-0.3,0.4-0.6,0.5c0,0.1,0,0.1,0,0.2c0.1,0.1,0.1,0.1,0.1,0.2c-0.2,0.1-0.4,0.2-0.5,0.4s-0.1,0.4-0.2,0.6
			c-0.1,0.2-0.1,0.3-0.2,0.5c-0.1,0.1-0.3,0.2-0.6,0.1c-0.4,0.5-1,0.9-1.6,1.2c-0.6,0.3-1.2,0.5-1.9,0.6c-0.1-0.1-0.2-0.1-0.3-0.2
			c-0.1-0.1-0.2-0.2-0.3-0.2c-0.1-0.1-0.2-0.1-0.3-0.2c-0.1,0-0.3,0-0.4,0c0-0.3-0.1-0.6-0.2-0.8c-0.1-0.3-0.2-0.5-0.4-0.7
			c0-0.3,0-0.5,0.1-0.7c0.1-0.2,0.2-0.4,0.3-0.7c0.1-0.2,0.2-0.4,0.2-0.7c0.1-0.2,0.1-0.5,0-0.8c0.1-0.1,0.2-0.2,0.3-0.3
			c0.1-0.1,0.1-0.2,0.1-0.4c0-0.1,0.1-0.2,0.1-0.3c0-0.1,0.1-0.2,0.3-0.3c-0.1-0.3-0.1-0.6,0.1-0.8c0.2-0.2,0.3-0.3,0.6-0.4
			c0.2-0.1,0.4-0.3,0.6-0.4c0.2-0.2,0.3-0.4,0.2-0.7c0.1-0.1,0.2-0.2,0.3-0.2c0.1-0.1,0.2-0.1,0.3-0.2c0.1-0.1,0.2-0.1,0.3-0.2
			c0.1-0.1,0.2-0.1,0.3-0.2c-0.1-0.1-0.1-0.1-0.1-0.2c0-0.1,0-0.1,0.1-0.2c0-0.1,0.1-0.2,0.1-0.2c0-0.1,0-0.2,0-0.3
			c0.4,0.1,0.7,0,1-0.2c0.3-0.2,0.6-0.3,0.8-0.5c0.3-0.2,0.5-0.3,0.8-0.4c0.3-0.1,0.6,0,1,0.3c0,0.1,0.1,0.2,0.1,0.4
			c0.1,0.2,0.1,0.4,0.2,0.6c0.1,0.2,0.1,0.4,0.2,0.6c0.1,0.2,0.1,0.3,0.1,0.4c0,0.1,0,0.2,0,0.3c0,0.2,0,0.3,0,0.5s0,0.4,0,0.5
			s0,0.3,0,0.4c0.4,0.2,0.8,0.4,1.3,0.4c0.4,0.1,0.8,0,1.3-0.3c0.2,0.1,0.3,0.2,0.5,0.1c0.1-0.1,0.3-0.1,0.4-0.2
			c0.1-0.1,0.3-0.1,0.4-0.1c0.1,0,0.3,0.1,0.4,0.4c0.2-0.2,0.4-0.3,0.6-0.4c0.2-0.1,0.4-0.1,0.7-0.1c0.2,0,0.5,0,0.7-0.1
			C331.8,220.8,332,220.7,332.2,220.5z M323.7,222.6c-0.3,0-0.5-0.1-0.7-0.2c-0.2-0.1-0.4-0.3-0.6-0.5c-0.2-0.2-0.4-0.3-0.7-0.5
			c-0.2-0.2-0.5-0.2-0.8-0.3c-0.1,0.2-0.3,0.3-0.5,0.5c-0.2,0.2-0.3,0.3-0.5,0.5c-0.1,0.2-0.2,0.4-0.3,0.6c-0.1,0.2,0,0.4,0.1,0.7
			c-0.3,0.2-0.6,0.4-0.7,0.7c-0.1,0.3-0.2,0.6-0.2,1c0,0.3-0.1,0.7-0.1,1c0,0.3-0.1,0.7-0.3,0.9l0.5-0.3c0.1,0,0.1,0.1,0.1,0.1
			c0,0.1,0,0.1,0,0.2c0.1-0.1,0.2-0.2,0.4-0.3c0.1-0.1,0.3-0.1,0.4-0.2c0.2,0,0.3-0.1,0.5-0.1c0.2,0,0.3-0.1,0.4-0.1
			c0.4,0.2,0.6,0.2,0.8,0.1c0.2-0.1,0.3-0.3,0.4-0.5c0.1-0.2,0.2-0.5,0.3-0.7c0.1-0.3,0.3-0.4,0.6-0.5l-0.2-0.2
			c0.2-0.3,0.5-0.6,0.7-0.9C323.6,223.4,323.7,223,323.7,222.6z M323.9,220.9c0-0.2,0-0.4,0.1-0.7c0.1-0.2,0.1-0.5,0.2-0.7
			c0-0.2,0-0.5,0-0.7c-0.1-0.2-0.2-0.4-0.4-0.6c-0.2,0.1-0.3,0.2-0.4,0.4c-0.1,0.2-0.2,0.3-0.3,0.5c-0.1,0.2-0.2,0.3-0.4,0.4
			c-0.1,0.1-0.3,0.1-0.5,0.1c-0.1,0.2-0.1,0.3,0,0.4c0.1,0.1,0.2,0.2,0.3,0.3c0.1,0.1,0.2,0.2,0.3,0.3c0.1,0.1,0.1,0.2,0.1,0.4
			c0.1,0,0.1,0.1,0.2,0.1c0.1,0,0.2,0.1,0.3,0.1c0.1,0,0.2,0,0.3,0C323.7,221,323.8,221,323.9,220.9z"/>
		<path class="st1" d="M345,223.1c-0.3,0.2-0.6,0.4-0.7,0.6c-0.1,0.2-0.2,0.5-0.3,0.7c-0.1,0.2-0.1,0.5-0.2,0.7
			c-0.1,0.2-0.3,0.4-0.6,0.6c-0.1,0.3-0.2,0.4-0.4,0.5c-0.2,0.1-0.4,0.2-0.7,0.3c-0.2,0.1-0.4,0.2-0.6,0.3c-0.2,0.1-0.3,0.4-0.3,0.7
			c-0.3,0.2-0.6,0.3-0.9,0.4s-0.7,0.2-1.1,0.3c-0.4,0.1-0.7,0.1-1.1,0.1c-0.4,0-0.7-0.1-1-0.2c-0.2-0.1-0.4-0.2-0.6-0.4
			c-0.1-0.1-0.1-0.1-0.2-0.1c-0.1,0-0.1-0.1-0.2-0.2c-0.2-0.2-0.3-0.4-0.4-0.6c-0.1-0.2-0.2-0.5-0.3-0.7c-0.1-0.3-0.1-0.5-0.2-0.8
			c0-0.3-0.1-0.5-0.1-0.7l0.8-2.2c-0.4-0.3-0.8-0.7-1-1.2c-0.3-0.4-0.6-0.8-1-1.2c-0.1,0.1-0.2,0.2-0.3,0.3
			c-0.1,0.1-0.2,0.2-0.1,0.3l0.2,0.2c-0.5,0.5-1,1.1-1.4,1.8c-0.5,0.7-0.9,1.3-1.1,2c-0.3,0-0.5,0.1-0.7,0.2
			c-0.1,0.2-0.2,0.4-0.3,0.6c-0.1,0.2-0.2,0.4-0.3,0.6c-0.1,0.2-0.3,0.2-0.7,0.2c-0.1,0.2-0.1,0.3-0.2,0.5c-0.1,0.2-0.2,0.4-0.3,0.5
			c-0.1,0.2-0.2,0.3-0.4,0.4c-0.1,0.1-0.3,0.2-0.5,0.2c-0.1-0.1-0.2-0.2-0.2-0.4c0-0.1,0-0.3,0-0.4c0-0.1,0.1-0.3,0.2-0.4
			c0.1-0.1,0.1-0.3,0.2-0.4c0.1-0.4,0.3-0.8,0.6-1.1c0.3-0.3,0.6-0.7,0.9-1c0.3-0.3,0.6-0.7,0.8-1.1c0.2-0.4,0.3-0.8,0.3-1.3
			c0.2,0,0.4-0.1,0.6-0.1c0.2-0.1,0.4-0.2,0.5-0.3c0.2-0.1,0.3-0.2,0.4-0.4c0.1-0.2,0.1-0.4,0.1-0.6c-0.1-0.1-0.2-0.1-0.2-0.2
			c0-0.1,0-0.2,0-0.3c0.3-0.1,0.6-0.3,0.8-0.5c0.2-0.3,0.4-0.5,0.5-0.8c0.2-0.3,0.3-0.6,0.5-0.9c0.2-0.3,0.4-0.6,0.6-0.8
			c0.2,0.1,0.4,0.2,0.6,0.3c0.2,0.1,0.4,0.2,0.6,0.3c-0.1,0.2-0.2,0.3-0.2,0.5c0,0.2,0,0.3,0,0.5c0,0.2,0,0.3,0,0.5s0,0.3-0.1,0.5
			c0.2,0.2,0.4,0.4,0.6,0.7c0.2,0.3,0.4,0.5,0.6,0.7c0.2-0.1,0.4-0.2,0.6-0.2c0.2,0,0.4,0,0.7,0c0.2,0,0.4,0,0.6,0
			c0.2,0,0.4-0.2,0.5-0.4c0.1,0.1,0.1,0.1,0.3,0.1c0.1,0,0.2,0,0.3,0s0.2,0,0.3,0.1c0.1,0,0.1,0.1,0.2,0.2c0,0.1,0,0.2,0,0.2
			c0,0,0,0.1-0.1,0.2c0,0.1,0,0.2,0,0.2c0,0,0,0.1,0,0.2c-0.1,0.2-0.2,0.3-0.4,0.5c-0.2,0.1-0.3,0.3-0.5,0.4
			c-0.2,0.1-0.3,0.3-0.5,0.4c-0.1,0.2-0.2,0.3-0.2,0.6c-0.3,0.1-0.5,0.3-0.7,0.5c-0.1,0.2-0.2,0.5-0.3,0.8c0,0.3-0.1,0.6-0.1,0.9
			c0,0.3-0.1,0.6-0.2,0.8l0.2,0.2l0.2-0.2c0.2,0.3,0.4,0.5,0.7,0.5c0.3,0.1,0.6,0.1,0.9,0.1c0.1-0.2,0.3-0.4,0.5-0.5
			c0.2-0.1,0.4-0.2,0.6-0.3c0.2-0.1,0.5-0.2,0.7-0.2c0.2-0.1,0.5-0.2,0.7-0.3c0.2-0.1,0.3-0.2,0.4-0.3c0.1-0.1,0.3-0.2,0.4-0.3
			c0.4-0.4,0.9-0.8,1.3-1.2c0.4-0.4,0.9-0.8,1.3-1.2c0.1,0,0.1,0,0.2,0.1c0,0.1,0,0.2,0,0.3c0,0.1,0,0.2,0,0.3
			C345,222.9,345,223,345,223.1z"/>
		<path class="st1" d="M360.6,222.6c-0.3,0.7-0.6,1.3-0.9,1.7c-0.3,0.4-0.5,0.7-0.9,1c-0.3,0.3-0.7,0.5-1.1,0.7
			c-0.4,0.2-0.9,0.5-1.5,0.9c-0.2,0-0.5,0.1-0.8,0.2c-0.3,0.1-0.5,0.2-0.7,0.4c-0.4,0-0.8-0.1-1.2-0.3c-0.4-0.1-0.7-0.4-1-0.7
			c-0.1-0.1-0.1-0.2-0.2-0.2s-0.1-0.2-0.2-0.2c-0.2-0.2-0.3-0.4-0.3-0.5c0-0.1-0.1-0.3-0.1-0.6c-0.1-0.3-0.1-0.6-0.3-0.7
			c-0.1-0.1-0.3-0.1-0.7,0.2l-0.2-0.2l0,0c-0.1,0.1-0.2,0.2-0.3,0.3c-0.1,0.1-0.2,0.1-0.2,0.2c-0.1,0.1-0.2,0.2-0.2,0.2
			c-0.1,0.1-0.2,0.2-0.3,0.3c-0.2,0.2-0.4,0.4-0.6,0.7c-0.2,0.2-0.5,0.4-0.7,0.5c0,0-0.1,0.1-0.1,0.1c0,0-0.1,0.1-0.2,0.1
			c-0.1,0-0.2,0-0.3,0c-0.1,0-0.2-0.1-0.3-0.2c-0.2,0-0.3,0-0.4,0.1c-0.1,0.1-0.2,0.2-0.3,0.3c-0.1,0.1-0.2,0.2-0.3,0.4
			c-0.1,0.1-0.2,0.2-0.3,0.3c-0.2-0.1-0.4-0.1-0.6,0c-0.2,0.1-0.4,0.1-0.6,0.2c-0.2,0.1-0.4,0.1-0.6,0.1c-0.2,0-0.4-0.1-0.6-0.3
			c-0.1-0.4-0.2-0.8-0.2-1.2c-0.1-0.3-0.1-0.6-0.2-0.9c0-0.3-0.1-0.4-0.1-0.5c0.1-0.1,0.1-0.2,0.1-0.3c0-0.1,0-0.2-0.1-0.3
			c0,0,0,0,0,0c0,0,0,0,0,0c0.1-0.1,0.1-0.1,0.2-0.2c0-0.1,0.1-0.2,0.2-0.2c0-0.1-0.1-0.2-0.2-0.4c-0.1-0.1-0.1-0.3-0.1-0.4
			c0-0.1,0.1-0.2,0.1-0.2c0,0,0.1,0,0.2-0.1c0-0.1,0-0.1-0.1-0.2c0-0.1,0-0.1,0-0.2c0-0.1,0-0.3,0.1-0.4c0.1-0.1,0.1-0.2,0.2-0.3
			c0.1-0.1,0.1-0.2,0.2-0.4c0.1-0.1,0.1-0.3,0.1-0.5v-0.1c0.2,0,0.4-0.1,0.4-0.2c0.1-0.1,0.1-0.3,0.1-0.4c0-0.2,0-0.3,0-0.5
			s0-0.3,0.1-0.3c0.1-0.1,0.1-0.1,0.2-0.1c0.1,0,0.1,0,0.2,0c0.1-0.1,0.1-0.2,0.2-0.2c0-0.1,0-0.1,0-0.3c0.1,0,0.2,0,0.2-0.1
			c0.1,0,0.1-0.1,0.1-0.2c0-0.1,0.1-0.1,0.1-0.2c0-0.1,0.1-0.1,0.1-0.2c0-0.4,0.1-0.6,0.3-0.8s0.4-0.3,0.6-0.4
			c0.2-0.1,0.5-0.2,0.7-0.3c0.2-0.1,0.4-0.4,0.5-0.7c0.2,0.1,0.3,0.1,0.5,0c0.1-0.1,0.3-0.2,0.4-0.3c0.1-0.1,0.2-0.2,0.4-0.2
			s0.3,0.1,0.5,0.3c0.1-0.3,0.3-0.4,0.5-0.4c0.3,0,0.5,0,0.7,0.2v0h0c0.2,0,0.4,0.2,0.5,0.3c0.1,0.2,0.2,0.4,0.3,0.6
			c0.1,0.2,0.2,0.4,0.3,0.7c0.1,0.2,0.2,0.4,0.4,0.5c0.1-0.4,0.2-0.8,0.2-1.1c0.1-0.4,0.2-0.8,0.4-1.1c0.1,0.2,0.3,0.2,0.4,0.1l0,0
			c0-0.2,0-0.4,0.1-0.6c0.1-0.2,0.2-0.4,0.3-0.6c0.1-0.2,0.2-0.4,0.2-0.6c0-0.2,0-0.4-0.2-0.7c0.2-0.1,0.4-0.2,0.5-0.4
			c0.1-0.2,0.2-0.4,0.3-0.7c0.1-0.2,0.1-0.5,0.2-0.7c0.1-0.2,0.2-0.5,0.4-0.6c0,0,0-0.1,0-0.1c0,0,0-0.1,0-0.1
			c0-0.1,0.1-0.2,0.1-0.3c0.1-0.1,0.2-0.2,0.2-0.3c0.1-0.1,0.2-0.2,0.2-0.3c0.1-0.1,0.1-0.2,0.1-0.4c0.1-0.2,0.3-0.4,0.4-0.7
			c0.1-0.3,0.2-0.6,0.4-0.9c0.1-0.3,0.3-0.5,0.5-0.6c0.2-0.1,0.4-0.1,0.7,0c0.1,0.2,0.1,0.3,0.1,0.5c0,0.1-0.1,0.3-0.2,0.4
			c0.1,0.1,0.2,0.2,0.2,0.2c0,0.4-0.1,0.9-0.2,1.3c-0.1,0.4-0.2,0.9-0.4,1.3c0,0,0.1,0.1,0.1,0.1c0,0,0.1,0.1,0.1,0.1
			c-0.2,0.3-0.4,0.7-0.6,1c-0.2,0.3-0.3,0.7-0.4,1.1c0,0.2-0.1,0.3-0.1,0.5c0,0.2-0.1,0.3-0.1,0.5c-0.1,0.1-0.2,0.3-0.3,0.5
			c-0.1,0.2-0.2,0.3-0.3,0.5c-0.2,0.3-0.3,0.7-0.4,1c-0.1,0.3-0.2,0.7-0.4,1c-0.1,0.4-0.3,0.8-0.4,1.2c-0.2,0.4-0.3,0.8-0.6,1.2v0.3
			c0,0.2-0.1,0.3-0.2,0.3c-0.1,0.1-0.2,0.1-0.3,0.2c-0.1,0.1-0.2,0.1-0.3,0.2c-0.1,0.1-0.2,0.2-0.2,0.5v0l0,0
			c0.1,0.3,0.2,0.6,0.1,0.9c-0.1,0.3-0.2,0.5-0.3,0.8c-0.1,0.3-0.2,0.5-0.2,0.7c0,0.2,0.1,0.5,0.3,0.8c0,0.3,0,0.5,0.2,0.7
			c0.1,0.2,0.3,0.3,0.5,0.4c0.2,0.1,0.4,0.2,0.5,0.3c0.2,0.1,0.3,0.2,0.4,0.4c0.1-0.1,0.3-0.3,0.5-0.3c0.2-0.1,0.3-0.1,0.5-0.2
			c0.2,0,0.3-0.1,0.5-0.1c0.2,0,0.3-0.1,0.5-0.1c0.4-0.1,0.6-0.2,0.8-0.4c0.1-0.1,0.2-0.2,0.2-0.3c0-0.2,0.1-0.3,0.2-0.4
			c0.1-0.1,0.3-0.1,0.5-0.1c0.2,0,0.4-0.1,0.5-0.1c0.2,0,0.3-0.2,0.4-0.3c0.2,0,0.3,0,0.4-0.2c0.1-0.1,0.2-0.2,0.3-0.4
			c0.1-0.1,0.2-0.2,0.3-0.3C360.4,222.5,360.5,222.5,360.6,222.6z M351.7,219.3c-0.2-0.2-0.4-0.4-0.5-0.6c-0.1-0.2-0.1-0.5-0.2-0.7
			c-0.1-0.2-0.1-0.5-0.2-0.7c-0.1-0.2-0.2-0.4-0.5-0.5l0,0c0,0-0.1,0-0.2,0c-0.1,0-0.2,0.1-0.3,0.1c0.1,0.1,0.2,0.2,0.2,0.3
			c0,0.1,0,0.1,0,0.2c0,0.1-0.1,0.1-0.1,0.2c-0.1,0.1-0.1,0.2-0.1,0.3c0,0-0.1,0-0.2,0c-0.1-0.1-0.2-0.1-0.2-0.1
			c-0.2,0.3-0.5,0.5-0.9,0.6c-0.4,0.1-0.7,0.2-1.1,0.3c0,0.1,0.1,0.1,0.1,0.2c0,0.1,0.1,0.1,0.1,0.2c-0.4,0.3-0.7,0.6-0.9,1.1
			c-0.2,0.4-0.4,0.8-0.5,1.3c-0.2,0.4-0.3,0.9-0.5,1.3c-0.2,0.4-0.5,0.8-1,1.1c0.1,0.1,0.1,0.2,0.2,0.3c0,0.1,0.1,0.2,0.3,0.3
			c0,0.2,0.1,0.3,0.1,0.5c0,0.2,0,0.3-0.1,0.5c0,0.2,0,0.3-0.1,0.5c0,0.2,0,0.3,0.1,0.5l0,0c0.4,0.2,0.8,0.2,1.1,0
			c0.3-0.1,0.5-0.3,0.7-0.5c0.2-0.2,0.4-0.4,0.6-0.6c0.2-0.2,0.6-0.2,1-0.1l0.1-0.1c0-0.1-0.1-0.1-0.1-0.2c0-0.1,0-0.1,0-0.2
			c0-0.2,0.1-0.3,0.1-0.4c0.1-0.1,0.2-0.2,0.3-0.3c0.1-0.1,0.2-0.2,0.3-0.4c0.1-0.1,0.2-0.3,0.3-0.4c0.1-0.1,0.2-0.2,0.3-0.3
			c0.1-0.1,0.3-0.1,0.5,0l0.4-1.6c0-0.1,0.1-0.1,0.2-0.2c0.1-0.1,0.2-0.1,0.3-0.2c0.1-0.1,0.2-0.2,0.2-0.3c0-0.1-0.1-0.3-0.2-0.5
			c0-0.1,0.1-0.1,0.1-0.2c0-0.1,0-0.2,0.1-0.2c0-0.1,0.1-0.1,0.1-0.2c0,0,0.1-0.1,0.2,0L351.7,219.3z"/>
		<path class="st1" d="M368.8,223.5c0,0.3,0,0.5-0.1,0.7c-0.1,0.1-0.1,0.2-0.2,0.3c-0.1,0.1-0.2,0.2-0.2,0.3
			c-0.1,0.1-0.1,0.3-0.1,0.5c-0.3,0.4-0.6,0.6-0.8,0.8c-0.2,0.2-0.4,0.3-0.6,0.4c-0.2,0.1-0.4,0.2-0.6,0.4c-0.2,0.1-0.5,0.3-1,0.6
			l-0.2,0c0,0.2-0.1,0.3-0.2,0.4c-0.1,0-0.2,0.1-0.4,0.1s-0.3,0-0.4,0s-0.2,0.2-0.3,0.4c-0.2,0.1-0.5,0.1-0.6,0.1
			c-0.2,0-0.4,0-0.7,0c-0.1,0-0.2,0-0.3,0c-0.1,0-0.2,0-0.3,0c-0.1,0-0.1,0.1-0.2,0.1c-0.1,0.1-0.1,0.1-0.2,0.2
			c-0.1,0-0.1,0.1-0.2,0.1c-0.1,0-0.1-0.1-0.2-0.2c-0.2,0-0.3,0-0.5,0c-0.1,0-0.3-0.1-0.4-0.2c-0.1-0.1-0.2-0.2-0.4-0.4
			c-0.1-0.1-0.2-0.3-0.3-0.4c-0.1-0.1-0.2-0.2-0.2-0.2c-0.1-0.1-0.2-0.1-0.2-0.2c-0.2-0.2-0.3-0.4-0.3-0.6c-0.1-0.2-0.1-0.5-0.1-0.8
			c0-0.3,0-0.5,0-0.8c0-0.3,0.1-0.5,0.1-0.7c0.1-0.1,0.2-0.3,0.3-0.4c0.1-0.2,0.1-0.3,0.1-0.5c0-0.2,0.1-0.3,0.1-0.5
			c0.1-0.2,0.1-0.3,0.3-0.4c0-0.2,0-0.4,0.1-0.5c0.1-0.2,0.2-0.3,0.3-0.5c0.1-0.1,0.2-0.3,0.4-0.4c0.1-0.1,0.3-0.2,0.4-0.4
			c0.1,0,0.2,0,0.3,0c0.1,0,0.2,0,0.3,0c0.1,0,0.2,0.1,0.3,0.1c0.1,0.1,0.1,0.2,0.2,0.3c0.1,0.4,0.1,0.7-0.1,0.9
			c-0.2,0.2-0.3,0.5-0.5,0.7c-0.2,0.2-0.3,0.4-0.5,0.7c-0.1,0.2-0.1,0.5,0.1,0.9c-0.2,0-0.3,0-0.3,0.1c-0.1,0.1-0.1,0.2-0.1,0.3
			c0,0.1-0.1,0.2-0.1,0.3s-0.1,0.2-0.3,0.2c0.1,0.1,0.1,0.2,0.1,0.5s0,0.4,0.1,0.6c0,0.2,0.1,0.4,0.2,0.5c0.1,0.1,0.3,0.1,0.5,0
			c0.2,0.2,0.4,0.2,0.7,0.2c0.3,0,0.5,0,0.7,0c0.2-0.1,0.4-0.2,0.5-0.2c0.1,0,0.3,0,0.4,0c0.1,0,0.3,0.1,0.4,0.1
			c0.1,0,0.3,0,0.5-0.1c0.1-0.2,0.2-0.4,0.3-0.4c0.1,0,0.3-0.1,0.4-0.1c0.1,0,0.3,0,0.4-0.1c0.1,0,0.2-0.2,0.2-0.4
			c0.1-0.1,0.3-0.2,0.4-0.2c0.2,0,0.3,0,0.5-0.1s0.3-0.1,0.5-0.2c0.1-0.1,0.2-0.3,0.3-0.6c0.2-0.2,0.4-0.3,0.5-0.4
			c0.1-0.1,0.2-0.2,0.3-0.2c0.1-0.1,0.2-0.1,0.3-0.2C368.3,223.8,368.5,223.7,368.8,223.5z M364.6,213.8c-0.3,0.1-0.4,0.3-0.4,0.5
			c0,0.2,0,0.4,0,0.6c0,0.2,0,0.4,0,0.6c0,0.2-0.2,0.3-0.4,0.4c-0.1-0.2-0.2-0.3-0.4-0.5c-0.2-0.2-0.3-0.3-0.4-0.5
			c-0.1-0.2-0.3-0.3-0.3-0.5c-0.1-0.2-0.1-0.4-0.1-0.6l1.1-1.3c0.2,0.1,0.3,0.1,0.4,0.2c0.1,0.1,0.2,0.2,0.3,0.3s0.1,0.2,0.2,0.4
			C364.4,213.6,364.5,213.7,364.6,213.8z"/>
		<path class="st1" d="M378.9,226.6c0,0.2,0,0.3-0.1,0.4c-0.1,0.1-0.2,0.2-0.3,0.2c-0.1,0-0.3,0.1-0.4,0.1c-0.1,0-0.3,0.1-0.4,0.1
			c-0.4,0-0.8-0.1-1.2-0.2c-0.4-0.1-0.8-0.2-1.1-0.4c-0.3-0.2-0.6-0.4-0.9-0.7c-0.3-0.3-0.5-0.6-0.7-1c0.2-0.3,0.3-0.6,0.2-1
			c-0.1-0.4-0.1-0.7-0.2-1.1c-0.1-0.3,0-0.7,0-1c0.1-0.3,0.3-0.5,0.7-0.7c0-0.2,0-0.3,0-0.5c0-0.2,0-0.3-0.2-0.5
			c-0.5,0.2-0.9,0.4-1.3,0.7c-0.4,0.3-0.7,0.7-1.1,1c-0.3,0.4-0.7,0.8-1,1.1c-0.3,0.4-0.7,0.7-1.1,1c-0.2,0-0.4,0-0.6,0
			c-0.2,0-0.4,0-0.5,0.2c0,0.1,0.1,0.2,0.1,0.3c0.1,0.1,0.1,0.1,0.1,0.2c0,0.1,0.1,0.1,0.1,0.2c0,0.1-0.1,0.2-0.2,0.3
			c-0.1,0.1-0.3,0.3-0.5,0.4c-0.2,0.1-0.3,0.2-0.5,0.3c-0.2,0.1-0.3,0.2-0.4,0.4c-0.1,0.1-0.2,0.3-0.2,0.6c-0.1,0-0.2-0.1-0.2,0
			c-0.1,0-0.1,0.1-0.2,0.1c-0.1,0.1-0.1,0.1-0.2,0.2c-0.1,0.1-0.1,0.1-0.2,0.2c0,0.1,0,0.1,0,0.2c0,0.1,0.1,0.1,0.2,0.2
			c-0.1,0.2-0.1,0.3-0.2,0.3c-0.1,0-0.2,0-0.3,0c-0.1,0-0.2-0.1-0.3-0.1c-0.1-0.1-0.2-0.1-0.3-0.2c0-0.2-0.1-0.4-0.1-0.7
			c0-0.2,0-0.5,0-0.7c0-0.2,0.1-0.5,0.2-0.7c0.1-0.2,0.2-0.4,0.4-0.5c0.1,0,0.1-0.1,0.1-0.1c0,0,0.1,0,0.1-0.1
			c0.1-0.1,0.2-0.3,0.2-0.4c0-0.2,0.1-0.3,0.1-0.5c0-0.2,0.1-0.3,0.1-0.5c0.1-0.2,0.1-0.3,0.3-0.4c-0.1-0.2-0.1-0.4,0-0.6
			c0.1-0.2,0.2-0.4,0.3-0.5c0.1-0.2,0.2-0.3,0.3-0.5c0.1-0.2,0.2-0.4,0.2-0.6c0-0.1,0-0.1,0-0.2c0-0.1,0-0.1,0-0.2
			c0-0.2,0-0.4,0.1-0.5c0.1-0.1,0.2-0.2,0.3-0.3c0.1-0.1,0.3-0.2,0.4-0.2c0.1-0.1,0.3-0.2,0.4-0.4c0.4,0.2,0.7,0.5,0.7,0.8
			c0.1,0.3,0.1,0.7,0.1,1.1c-0.2,0.2-0.4,0.4-0.6,0.7c-0.1,0.3-0.2,0.6-0.3,0.8c0,0.1,0.1,0.1,0.1,0.1c0.1,0,0.1,0,0.2,0
			c0.1,0,0.1,0,0.2-0.1c0.1,0,0.1,0,0.2,0c0.5-0.4,1-0.8,1.6-1.2c0.5-0.4,0.9-1,1.2-1.5c0.4-0.2,0.8-0.4,1.2-0.7
			c0.4-0.3,0.8-0.5,1.2-0.6l0.5-0.5c0.1,0.1,0.2,0.1,0.3,0.1c0.1-0.1,0.2-0.1,0.3-0.2c0.1-0.1,0.2-0.1,0.3-0.2
			c0.1,0,0.2,0.1,0.3,0.3c0.1,0.4,0.2,0.7,0.1,1.1c-0.1,0.4-0.2,0.7-0.3,1c-0.2,0.3-0.3,0.7-0.5,1c-0.2,0.3-0.3,0.7-0.3,1.1
			c0,0.1,0,0.2,0,0.3c0,0.1,0,0.2,0,0.3c0,0.3-0.1,0.6-0.1,1c-0.1,0.4,0,0.7,0.1,1c0.1,0.3,0.2,0.5,0.5,0.7c0.2,0.2,0.4,0.4,0.6,0.6
			c0.1,0,0.2,0,0.3,0s0.2,0.1,0.3,0.1c0.1,0,0.2,0,0.3,0c0.1,0,0.2-0.1,0.3-0.1c0.1,0,0.2,0,0.3,0c0.1,0.1,0.2,0.1,0.3,0.2
			c0.1,0.1,0.2,0.1,0.3,0.2C378.7,226.6,378.8,226.6,378.9,226.6z"/>
		<path class="st1" d="M395.3,225.1c-0.2,0.3-0.4,0.6-0.5,0.8c-0.1,0.2-0.2,0.4-0.3,0.5c-0.1,0.1-0.2,0.3-0.4,0.4
			c-0.1,0.1-0.3,0.2-0.6,0.4c-0.2,0.1-0.3,0.3-0.5,0.4c-0.1,0.1-0.3,0.2-0.4,0.3c-0.1,0.1-0.2,0.1-0.3,0.1c0,0-0.1,0-0.1,0
			c0,0-0.1,0-0.1,0c-0.1,0-0.2,0-0.2,0c-0.1,0-0.1,0-0.2-0.2c0,0-0.1,0.1-0.1,0.2c0,0.1-0.1,0.1-0.1,0.2c0,0.1-0.1,0.1-0.1,0.1
			c-0.1,0-0.1,0-0.2,0l-0.1-0.1l-0.3,0.3c-0.4-0.2-0.8-0.4-1.2-0.5c-0.4-0.1-0.7-0.3-1-0.5c-0.3-0.2-0.5-0.4-0.7-0.7
			c-0.2-0.3-0.3-0.7-0.4-1.2c-0.1-0.1-0.2-0.2-0.2-0.2c-0.1-0.1-0.2-0.1-0.3-0.1c-0.1,0.2-0.3,0.5-0.5,0.6c-0.2,0.2-0.4,0.4-0.6,0.6
			c-0.1,0.1-0.1,0.2-0.2,0.2c0,0.1-0.1,0.2-0.2,0.2c-0.1,0.1-0.3,0.2-0.4,0.3c-0.2,0.1-0.3,0.1-0.5,0.1c-0.2,0-0.3,0.1-0.4,0.2
			c-0.1,0.1-0.2,0.3-0.3,0.5c-0.2-0.1-0.3-0.1-0.5-0.1c-0.1,0-0.3,0.1-0.4,0.1c-0.1,0-0.3,0.1-0.4,0.1c-0.1,0-0.3,0-0.4-0.1
			c-0.1,0-0.2-0.1-0.3-0.3c-0.2,0.1-0.4,0.1-0.6,0c-0.2-0.1-0.3-0.2-0.5-0.4c-0.2-0.2-0.3-0.3-0.4-0.5c-0.1-0.2-0.3-0.3-0.4-0.4
			c-0.1-0.2-0.1-0.4,0-0.6c0.1-0.2,0.2-0.3,0.3-0.5c0.1-0.2,0.2-0.3,0.2-0.5c0-0.2,0-0.3-0.2-0.6c0.1-0.2,0.3-0.4,0.4-0.7
			c0.1-0.2,0.2-0.5,0.4-0.7c0.1-0.2,0.3-0.5,0.4-0.7c0.1-0.2,0.3-0.4,0.5-0.6c-0.1-0.1-0.1-0.2-0.1-0.3c0-0.1,0-0.2,0.1-0.3
			c0-0.1,0.1-0.2,0.2-0.3c0.1-0.1,0.1-0.2,0.1-0.3l0.6-0.3l-0.2-0.5c0.2,0,0.3,0,0.4,0c0.1,0,0.1-0.1,0.2-0.2c0-0.1,0.1-0.2,0.1-0.3
			c0-0.1,0.1-0.2,0.1-0.3c0.1-0.1,0.2-0.2,0.3-0.3c0.3-0.2,0.6-0.5,0.9-0.7c0.3-0.3,0.6-0.5,0.9-0.8c0.3-0.2,0.6-0.5,0.9-0.7
			c0.3-0.2,0.7-0.4,1-0.6c0.3,0,0.5,0.1,0.6,0.2c0.2,0.1,0.3,0.3,0.3,0.4c0.1,0.2,0.1,0.3,0.2,0.5s0.1,0.4,0.1,0.6
			c0.1,0.2,0.2,0.5,0.3,0.6c0.1,0.2,0.3,0.3,0.5,0.4c-0.2,0.3-0.3,0.7-0.2,1c0,0.3,0.1,0.7,0.1,1.1c0,0.3,0,0.7,0,1
			c-0.1,0.3-0.3,0.6-0.6,0.9c0,0.1,0,0.2,0,0.3c0,0.1,0,0.2,0,0.3c0,0.1,0,0.2-0.1,0.3c0,0.1-0.1,0.2-0.2,0.2
			c0.1,0.2,0.2,0.3,0.2,0.5c0,0.2,0,0.3,0,0.5c0,0.1,0,0.3,0.1,0.4c0.1,0.1,0.2,0.2,0.5,0.3c0,0.2,0.1,0.3,0.1,0.4
			c0,0.1,0.1,0.2,0.1,0.2c0.1,0.1,0.1,0.1,0.2,0.2c0.1,0.1,0.2,0.1,0.3,0.2c0.1,0,0.2,0,0.4,0s0.3,0,0.3,0.1
			c0.1-0.1,0.2-0.1,0.3-0.1c0.1,0,0.2,0,0.3,0l0.3,0.5c0.2-0.1,0.3-0.2,0.5-0.3s0.4-0.2,0.6-0.2c0.2-0.1,0.4-0.1,0.7-0.2
			L395.3,225.1z M386.9,217.7c-0.1,0.1-0.3,0.2-0.5,0.3c-0.2,0.1-0.4,0.2-0.6,0.4c-0.2,0.1-0.3,0.3-0.5,0.4
			c-0.1,0.2-0.2,0.3-0.2,0.5c-0.3,0.1-0.6,0.2-0.7,0.4c-0.1,0.2-0.2,0.5-0.3,0.7c-0.1,0.3-0.2,0.5-0.3,0.8c-0.1,0.3-0.3,0.5-0.5,0.6
			c-0.1,0.1-0.2,0.1-0.2,0.1c0,0,0,0-0.1,0.1c-0.2,0.1-0.3,0.3-0.4,0.4c-0.1,0.2-0.2,0.4-0.3,0.6c-0.1,0.2-0.2,0.4-0.2,0.6
			c-0.1,0.2-0.1,0.4-0.2,0.6c-0.2,0-0.4,0.1-0.5,0.1c-0.1,0.1-0.2,0.1-0.2,0.2c0,0.1,0,0.1,0,0.2c0,0.1,0.1,0.2,0.1,0.3
			c0.1,0.1,0.1,0.2,0.2,0.3c0.1,0.1,0.1,0.2,0.2,0.3c0,0.1,0.1,0.2,0.1,0.3c0,0.1,0,0.2-0.1,0.3c0.2,0.2,0.4,0.2,0.6,0.1
			s0.4-0.2,0.5-0.3c0.1,0,0.1-0.1,0.2-0.1c0.1-0.1,0.1-0.1,0.2-0.1c0.3,0.1,0.6,0.1,0.9-0.1c0.3-0.1,0.5-0.3,0.8-0.5
			c0.2-0.2,0.5-0.4,0.7-0.7c0.2-0.2,0.4-0.4,0.7-0.6l-0.2-0.2c0.3-0.1,0.4-0.2,0.6-0.3c0.1-0.1,0.2-0.3,0.2-0.4c0-0.2,0-0.3,0-0.5
			c0-0.2-0.1-0.4-0.1-0.6c0-0.1,0-0.2,0-0.3c0-0.1,0-0.2,0.1-0.3c-0.1-0.3-0.1-0.7-0.1-1c0.1-0.3,0.2-0.6,0.3-0.9
			c0.1-0.3,0.3-0.6,0.4-0.9c0.1-0.3,0.2-0.6,0.2-0.9L386.9,217.7z"/>
		<path class="st1" d="M410,223.1c-0.3,0.2-0.6,0.4-0.7,0.6c-0.1,0.2-0.2,0.5-0.3,0.7c-0.1,0.2-0.1,0.5-0.2,0.7
			c-0.1,0.2-0.3,0.4-0.6,0.6c-0.1,0.3-0.2,0.4-0.4,0.5c-0.2,0.1-0.4,0.2-0.7,0.3c-0.2,0.1-0.4,0.2-0.6,0.3c-0.2,0.1-0.3,0.4-0.3,0.7
			c-0.3,0.2-0.6,0.3-0.9,0.4s-0.7,0.2-1.1,0.3c-0.4,0.1-0.7,0.1-1.1,0.1c-0.4,0-0.7-0.1-1-0.2c-0.2-0.1-0.4-0.2-0.6-0.4
			c-0.1-0.1-0.1-0.1-0.2-0.1c-0.1,0-0.1-0.1-0.2-0.2c-0.2-0.2-0.3-0.4-0.4-0.6c-0.1-0.2-0.2-0.5-0.3-0.7c-0.1-0.3-0.1-0.5-0.2-0.8
			c0-0.3-0.1-0.5-0.1-0.7l0.8-2.2c-0.4-0.3-0.8-0.7-1-1.2c-0.3-0.4-0.6-0.8-1-1.2c-0.1,0.1-0.2,0.2-0.3,0.3
			c-0.1,0.1-0.2,0.2-0.1,0.3l0.2,0.2c-0.5,0.5-1,1.1-1.4,1.8c-0.5,0.7-0.9,1.3-1.1,2c-0.3,0-0.5,0.1-0.7,0.2
			c-0.1,0.2-0.2,0.4-0.3,0.6c-0.1,0.2-0.2,0.4-0.3,0.6c-0.1,0.2-0.3,0.2-0.7,0.2c-0.1,0.2-0.1,0.3-0.2,0.5c-0.1,0.2-0.2,0.4-0.3,0.5
			c-0.1,0.2-0.2,0.3-0.4,0.4c-0.1,0.1-0.3,0.2-0.5,0.2c-0.1-0.1-0.2-0.2-0.2-0.4c0-0.1,0-0.3,0-0.4c0-0.1,0.1-0.3,0.2-0.4
			c0.1-0.1,0.1-0.3,0.2-0.4c0.1-0.4,0.3-0.8,0.6-1.1c0.3-0.3,0.6-0.7,0.9-1c0.3-0.3,0.6-0.7,0.8-1.1c0.2-0.4,0.3-0.8,0.3-1.3
			c0.2,0,0.4-0.1,0.6-0.1c0.2-0.1,0.4-0.2,0.5-0.3c0.2-0.1,0.3-0.2,0.4-0.4c0.1-0.2,0.1-0.4,0.1-0.6c-0.1-0.1-0.2-0.1-0.2-0.2
			c0-0.1,0-0.2,0-0.3c0.3-0.1,0.6-0.3,0.8-0.5c0.2-0.3,0.4-0.5,0.5-0.8c0.2-0.3,0.3-0.6,0.5-0.9c0.2-0.3,0.4-0.6,0.6-0.8
			c0.2,0.1,0.4,0.2,0.6,0.3c0.2,0.1,0.4,0.2,0.6,0.3c-0.1,0.2-0.2,0.3-0.2,0.5c0,0.2,0,0.3,0,0.5c0,0.2,0,0.3,0,0.5s0,0.3-0.1,0.5
			c0.2,0.2,0.4,0.4,0.6,0.7c0.2,0.3,0.4,0.5,0.6,0.7c0.2-0.1,0.4-0.2,0.6-0.2c0.2,0,0.4,0,0.7,0c0.2,0,0.4,0,0.6,0
			c0.2,0,0.4-0.2,0.5-0.4c0.1,0.1,0.1,0.1,0.3,0.1c0.1,0,0.2,0,0.3,0s0.2,0,0.3,0.1c0.1,0,0.1,0.1,0.2,0.2c0,0.1,0,0.2,0,0.2
			c0,0,0,0.1-0.1,0.2c0,0.1,0,0.2,0,0.2c0,0,0,0.1,0,0.2c-0.1,0.2-0.2,0.3-0.4,0.5c-0.2,0.1-0.3,0.3-0.5,0.4
			c-0.2,0.1-0.3,0.3-0.5,0.4c-0.1,0.2-0.2,0.3-0.2,0.6c-0.3,0.1-0.5,0.3-0.7,0.5c-0.1,0.2-0.2,0.5-0.3,0.8c0,0.3-0.1,0.6-0.1,0.9
			c0,0.3-0.1,0.6-0.2,0.8l0.2,0.2l0.2-0.2c0.2,0.3,0.4,0.5,0.7,0.5c0.3,0.1,0.6,0.1,0.9,0.1c0.1-0.2,0.3-0.4,0.5-0.5
			c0.2-0.1,0.4-0.2,0.6-0.3s0.5-0.2,0.7-0.2c0.2-0.1,0.5-0.2,0.7-0.3c0.2-0.1,0.3-0.2,0.4-0.3c0.1-0.1,0.3-0.2,0.4-0.3
			c0.4-0.4,0.9-0.8,1.3-1.2c0.4-0.4,0.9-0.8,1.3-1.2c0.1,0,0.1,0,0.2,0.1c0,0.1,0,0.2,0,0.3c0,0.1,0,0.2,0,0.3
			C410,222.9,410,223,410,223.1z"/>
		<path class="st1" d="M421.4,226.9c0.1,0.1,0.1,0.1,0.1,0.2c0,0,0,0.1-0.1,0.1c-0.1,0-0.1,0.1-0.2,0.1c-0.1,0-0.1,0-0.2,0.1
			l-0.7,0.1c-0.5,0.1-1.1,0.3-1.6,0.5c-0.5,0.2-1,0.4-1.5,0.6c-0.1-0.1-0.1-0.1-0.2-0.2c-0.1,0-0.2,0-0.2,0.1c0,0,0,0.1,0,0.2
			c0,0.2,0,0.3,0,0.4c0,0.1,0,0.2-0.1,0.3c0,0.1-0.1,0.2-0.2,0.2c-0.1,0.1-0.2,0.2-0.3,0.3c-0.1,0.1-0.1,0.2,0.1,0.2
			c-0.1,0.1-0.2,0.2-0.3,0.2c0,0-0.1,0-0.1,0c0,0-0.1,0-0.1,0c0,0,0,0.1,0,0.2c0,0.1,0.1,0.2,0.1,0.2c0,0,0,0.1-0.1,0.1
			c0,0.1-0.1,0.1-0.1,0.2c0,0.1-0.1,0.1-0.1,0.2c0,0.1,0,0.1,0,0.2v0.2c0.1,0,0.1,0.1,0,0.1c-0.1,0-0.1,0-0.1,0s-0.1,0-0.1,0.1
			c-0.1,0.1-0.1,0.1-0.1,0.1c0,0-0.1,0-0.1,0.1c0,0-0.1,0-0.1,0.1c0,0,0,0-0.1,0.1c0,0.1,0,0.1-0.1,0.2c0,0.1,0,0.1,0,0.2
			c0,0.1,0,0.1,0,0.1c0,0.2,0,0.3-0.1,0.5c0,0.1-0.1,0.3-0.1,0.5c-0.1,0.2-0.1,0.4-0.2,0.5c-0.1,0.1-0.2,0.2-0.3,0.3
			c-0.1,0.1-0.2,0.2-0.3,0.3c-0.1,0.1-0.2,0.3-0.2,0.5c0,0.1,0,0.1,0,0.2c0,0,0,0.1,0,0.1v0c-0.1,0.1-0.1,0.2-0.1,0.2
			c0,0.1-0.1,0.1-0.1,0.2c0,0.1-0.1,0.1-0.1,0.2c0,0.1,0,0.2,0,0.3c0,0,0,0.1,0,0.2c0,0.1-0.1,0.2-0.1,0.3c0,0.1-0.1,0.2-0.1,0.3
			c-0.1,0.1-0.1,0.2-0.1,0.2c0,0.1-0.1,0.1-0.2,0.2c-0.1,0.1-0.1,0.1-0.2,0.2c-0.3,0.4-0.6,0.8-0.8,1.2c-0.3,0.6-0.7,1.2-1.1,1.7
			c-0.1,0.1-0.2,0.2-0.3,0.3c-0.1,0.1-0.2,0.2-0.2,0.3v0.2c0,0.3-0.1,0.5-0.2,0.7c-0.2,0.1-0.4,0.3-0.6,0.4
			c-0.1,0.1-0.2,0.1-0.2,0.2c-0.1,0.1-0.2,0.1-0.2,0.2c-0.1,0.1-0.2,0.3-0.4,0.4c-0.2,0.2-0.3,0.3-0.4,0.4c0,0-0.1,0-0.3,0
			c-0.2,0-0.3,0-0.3,0c0,0-0.1,0-0.1,0.1c-0.1,0-0.1,0.1-0.2,0.1c-0.1,0-0.1,0.1-0.2,0.1s-0.1,0-0.1,0c-0.1,0-0.2-0.1-0.2-0.1
			c0,0-0.1,0-0.1,0.1c0,0-0.1,0.1-0.1,0.1c-0.1,0-0.2,0-0.3,0c0,0-0.1,0-0.1-0.1c-0.1-0.1-0.1-0.1-0.2-0.2c-0.1-0.1-0.1-0.2-0.2-0.2
			c-0.1-0.1-0.1-0.1-0.1-0.2c-0.1-0.2-0.2-0.3-0.2-0.6s0-0.4,0-0.7c0-0.2,0.1-0.5,0.1-0.7c0-0.2,0.1-0.4,0.1-0.6
			c0.1-0.3,0.1-0.6,0.2-0.9c0.1-0.3,0.1-0.6,0.1-0.9c0-0.1,0-0.1,0-0.2c0,0,0.1-0.1,0.1-0.1c0,0,0-0.1,0-0.1c0,0,0-0.1,0-0.1
			c0,0,0-0.1,0-0.3c0-0.1,0.1-0.3,0.2-0.4c0.1-0.2,0.1-0.3,0.2-0.4c0.1-0.1,0.1-0.2,0.1-0.3c0.3-0.5,0.6-1.1,0.8-1.6
			c0.2-0.6,0.5-1.1,0.9-1.6c0.2-0.3,0.4-0.5,0.7-0.8c0.2-0.3,0.4-0.5,0.6-0.8c0.1-0.1,0.2-0.2,0.2-0.3c0.1-0.1,0.2-0.2,0.4-0.3
			c0.2-0.1,0.3-0.1,0.5-0.1c0,0,0.1,0,0.2-0.1c0.1-0.1,0.2-0.1,0.2-0.2c0.1-0.2,0.2-0.4,0.3-0.6c0.1-0.2,0.3-0.4,0.4-0.6
			c0.1-0.1,0.2-0.2,0.3-0.2c0.1,0,0.3-0.1,0.5-0.1c0.2,0,0.3-0.1,0.5-0.2c0.2-0.1,0.3-0.2,0.4-0.3c0.1-0.1,0.2-0.3,0.4-0.4
			c0.2-0.2,0.3-0.3,0.5-0.3c0.1,0,0.3,0,0.6-0.1c0.3-0.1,0.4-0.2,0.5-0.3c0.1-0.1,0.1-0.3,0.1-0.5c0-0.1,0-0.3,0.1-0.4
			c0.1-0.2,0.2-0.3,0.2-0.4c0.1-0.1,0.1-0.2,0.2-0.3c0-0.1,0.1-0.2,0.1-0.3c0-0.1,0.1-0.1,0.1-0.2c0-0.1,0-0.1,0-0.2
			c0,0,0-0.1,0.1-0.2c0-0.1,0.1-0.2,0.1-0.3c0.1-0.1,0.1-0.2,0.1-0.2c0-0.1,0-0.1,0-0.1c0,0,0,0-0.1,0c-0.1,0-0.2,0-0.3,0
			c-0.1,0-0.2,0-0.3,0c-0.1,0-0.1,0-0.2,0c-0.1,0-0.1,0-0.2,0.1c-0.1,0-0.2,0.1-0.3,0.2c-0.1,0.1-0.2,0.1-0.3,0.2
			c-0.1,0.1-0.1,0.1-0.2,0.1c-0.5,0.2-0.9,0.2-1.4,0.3c-0.5,0-0.9,0.1-1.4,0.3c-0.3,0.1-0.6,0.2-0.9,0.2c-0.3,0.1-0.6,0.1-0.9,0.1
			c0,0-0.1,0-0.1,0c-0.1,0-0.2-0.1-0.2-0.1c-0.1,0-0.2-0.1-0.2-0.1c-0.1,0-0.1,0-0.1,0c-0.1,0-0.1-0.1-0.2-0.2
			c-0.1-0.1-0.1-0.2-0.2-0.3c-0.1-0.1-0.1-0.2-0.1-0.3c0-0.1-0.1-0.2-0.1-0.2c-0.1-0.2-0.1-0.3-0.2-0.5c-0.1-0.2-0.1-0.3-0.1-0.5
			c0,0,0-0.1,0-0.2c0-0.1,0-0.1,0-0.2c-0.1-0.4-0.1-0.8-0.1-1.3c0-0.5,0.1-0.9,0.3-1.2c0.1-0.1,0.1-0.2,0.2-0.3
			c0.1-0.1,0.1-0.2,0.2-0.3c0.1-0.1,0.1-0.1,0.2-0.2s0.1-0.1,0.2-0.2c0,0,0-0.1,0.1-0.1c0,0,0.1-0.1,0.1-0.1
			c0.2-0.2,0.3-0.3,0.4-0.5c0.1-0.2,0.3-0.3,0.4-0.5c0,0,0.1-0.1,0.1-0.2c0.1-0.1,0.1-0.1,0.2-0.2c0.1-0.1,0.1-0.1,0.2-0.2
			c0.1,0,0.1,0,0.2,0c0.1,0,0.1,0,0.2,0c0.1,0,0.1,0,0.2,0c0.1,0.1,0.1,0.2,0.2,0.3c0,0.1,0.1,0.1,0.1,0.2c0,0.1,0,0.2,0,0.3
			c0,0.1,0,0.2,0,0.3c-0.1,0.1-0.2,0.1-0.2,0.2c-0.1,0.1-0.2,0.1-0.3,0.2c0,0-0.1,0.1-0.1,0.3c-0.1,0.2-0.1,0.3-0.2,0.5
			c-0.1,0.2-0.1,0.4-0.2,0.6c-0.1,0.2-0.1,0.3-0.1,0.3c-0.1,0.4-0.2,0.8-0.4,1.1c-0.2,0.4-0.4,0.7-0.7,1l0,0.1
			c0.1,0.1,0.2,0.2,0.3,0.3c0.1,0.1,0.2,0.2,0.2,0.3c0.2,0,0.3,0,0.5-0.1c0.1,0.1,0.1,0.1,0.2,0.2c0.1,0.1,0.1,0.1,0.2,0.2
			c0.2,0,0.4,0,0.5,0s0.3,0,0.4,0c0.1,0,0.3,0,0.4-0.1c0.1,0,0.3-0.1,0.5-0.2c0.1,0,0.1-0.1,0.3-0.2c0.1-0.1,0.2-0.1,0.3-0.1
			l0.8-0.1c0.1-0.1,0.3-0.1,0.4-0.2c0.1-0.1,0.2-0.2,0.4-0.2c0.1,0,0.2-0.1,0.2-0.1c0.1,0,0.2-0.1,0.2-0.1c0.4-0.2,0.8-0.5,1.2-0.8
			c0.3-0.3,0.7-0.7,1-1c0.3-0.3,0.5-0.6,0.8-0.9c0.3-0.3,0.5-0.7,0.6-1c0.1-0.2,0.2-0.5,0.3-0.7c0.1-0.3,0.3-0.5,0.4-0.7
			c0.1-0.1,0.3-0.2,0.5-0.3c0.2-0.1,0.4-0.1,0.6-0.2c0.1,0,0.2,0,0.3,0.1c0.1,0.1,0.2,0.2,0.2,0.3c0,0.3,0,0.5,0,0.7
			c0,0.2-0.1,0.4-0.2,0.5c-0.1,0.2-0.2,0.3-0.3,0.5c-0.1,0.2-0.3,0.3-0.4,0.6l-0.5,0.7c0,0,0,0.1,0,0.1c0,0,0,0,0.1,0.1
			c0,0,0,0.1,0,0.1c0,0.1,0,0.1-0.1,0.2c0,0.1-0.1,0.2-0.1,0.2c0,0.1-0.1,0.1-0.1,0.1c0,0,0,0,0,0.1c0,0,0,0.1-0.1,0.1l-0.1,0.1
			c-0.2,0.3-0.3,0.5-0.5,0.8c-0.1,0.3-0.2,0.6-0.1,0.9c0,0.1,0,0.2-0.1,0.3c-0.1,0.1-0.1,0.2-0.2,0.3c-0.1,0.1-0.2,0.2-0.3,0.4
			c-0.1,0.1-0.1,0.3-0.2,0.6c0,0.1,0,0.1,0,0.2c0,0,0,0.1,0,0.1c0,0,0,0,0,0v0c-0.1,0.3-0.2,0.5-0.2,0.7c-0.1,0.2-0.2,0.5-0.3,0.7
			c0,0,0.1,0,0.1-0.1c0.1-0.1,0.2-0.1,0.3-0.2c0.1-0.1,0.2-0.1,0.3-0.2s0.2-0.1,0.4,0c0.1,0,0.2,0,0.3,0c0.1,0,0.2,0,0.3-0.1
			c0.1,0,0.2-0.1,0.3-0.1c0.1,0,0.1,0,0.1,0c0.1,0,0.3,0,0.4,0c0.1,0,0.2,0,0.3,0c0,0,0.1,0,0.1,0c0.1,0,0.2,0,0.3,0
			c0.1,0,0.2,0,0.3,0C421.3,226.8,421.4,226.8,421.4,226.9z M414.9,229.8c0,0-0.1,0.1-0.2,0.2s-0.2,0.2-0.4,0.4
			c-0.1,0.1-0.3,0.2-0.4,0.3c-0.1,0.1-0.2,0.1-0.3,0.1l-0.2,0.1c-0.1,0.1-0.2,0.2-0.3,0.3c0,0.1-0.1,0.3-0.1,0.4
			c0,0.1-0.1,0.3-0.1,0.4c-0.1,0.1-0.2,0.2-0.3,0.3c-0.2-0.1-0.3-0.2-0.4-0.2c-0.1,0-0.1-0.1-0.2,0c-0.1,0-0.1,0.1-0.2,0.2
			c-0.1,0.1-0.2,0.2-0.4,0.4c-0.4,0.5-0.8,0.9-1.2,1.4c-0.4,0.5-0.8,0.9-1.2,1.4c-0.1,0.3-0.2,0.6-0.4,0.9c-0.2,0.3-0.3,0.6-0.5,0.9
			c-0.2,0.3-0.3,0.7-0.5,1c-0.1,0.4-0.2,0.8-0.3,1.2c-0.1,0.4-0.2,0.8-0.2,1.2c-0.1,0.4-0.1,0.8-0.2,1.2c0,0,0.1,0,0.2,0
			c0.1,0,0.2,0,0.3,0c0.1,0,0.2,0,0.3-0.1c0.1,0,0.1,0,0.2-0.1c0,0,0.1,0,0.1-0.1s0.1-0.1,0.2-0.2c0.1-0.1,0.1-0.1,0.2-0.2
			c0.1-0.1,0.1-0.1,0.1-0.1c0.1,0,0.2-0.1,0.3-0.1c0.1-0.1,0.2-0.1,0.3-0.1c0,0,0-0.1,0.1-0.2c0-0.1,0-0.2,0-0.2v-0.4
			c0,0,0-0.1,0-0.2c0-0.1,0-0.2,0-0.2c0.2-0.1,0.3-0.1,0.5-0.2c0.2-0.1,0.3-0.2,0.5-0.2c0-0.1,0.1-0.3,0.2-0.4
			c0.1-0.1,0.1-0.3,0.2-0.4c0.3-0.5,0.6-1.1,0.8-1.6c0.3-0.5,0.6-1.1,0.9-1.6c0.2-0.4,0.5-0.8,0.7-1.2c0.2-0.4,0.5-0.8,0.7-1.2
			c0,0,0-0.1,0.1-0.2c0.1-0.1,0.1-0.2,0.2-0.3c0.1-0.1,0.1-0.2,0.2-0.2c0.1-0.1,0.1-0.1,0.2-0.1c0.1,0,0.1-0.1,0.1-0.2
			c0-0.1,0-0.2,0-0.2c0-0.1,0-0.2,0.1-0.4c0.1-0.2,0.2-0.4,0.3-0.6c0.1-0.2,0.2-0.4,0.3-0.5C414.8,229.9,414.9,229.8,414.9,229.8z"
			/>
	</g>
	<g>
		<path class="st1" d="M330.2,163.3h5.2c0,0,3,0,3,3.4c0,3.9-3.3,3.9-3.3,3.9h-2.1v2.2c0,0,0,1.1,0.6,1.9h-3.4
			c0.6-0.7,0.6-1.7,0.6-1.8v-7.7C330.8,165,330.7,163.9,330.2,163.3z M332.9,169.9c1.5,0,3.3-0.4,3.3-3.2c0-2.3-2.2-2.3-2.2-2.3
			h-1.1v0.8V169.9z"/>
		<path class="st1" d="M345.3,163.3h4.7c0,0,3,0,3,2.4c0,2.3-1.6,3-2.5,3.3c0.6,1,2.9,4.8,4.2,5.7c0,0-0.7,0.1-1.4,0.1
			c-0.5,0-1-0.1-1.3-0.3c-0.7-0.4-3.7-4.8-3.9-5.5v3.8c0,0,0,1.1,0.6,1.9h-3.4c0.6-0.7,0.6-1.7,0.6-1.8v-7.7
			C345.9,165,345.9,163.9,345.3,163.3z M348.1,168.4h0.7c0,0,2.2,0,2.2-2.3c0-1.7-2.2-1.7-2.2-1.7h-0.7v0.7V168.4z"/>
		<path class="st1" d="M364.3,163.3c-0.6,0.9-0.6,1.9-0.6,1.9v7.6c0,0,0,0.9,0.6,1.9H361c0.6-0.7,0.6-1.7,0.6-1.8v-7.7
			c0-0.2,0-1.2-0.6-1.9H364.3z"/>
		<path class="st1" d="M373.2,163.3l5.5,7.8v-5.6c0-1.1-0.2-1.6-0.6-2.3h2.5c-0.4,0.7-0.6,1.2-0.6,2.2v0.1v9.3c0,0-0.8,0-1.3-0.3
			c-0.5-0.3-1-0.9-1-0.9l-4.9-6.8v5.5c0,1.1,0.2,1.6,0.6,2.3h-2.5c0.4-0.7,0.6-1.2,0.6-2.3v-6.8c0-1.1-0.2-1.6-0.6-2.3H373.2z"/>
		<path class="st1" d="M395.1,164.6c0,0-0.1-0.1-0.3-0.1c-0.2-0.1-0.4-0.1-0.4-0.1h-1.3v8.4c0,0,0,0.9,0.6,1.9h-3.4
			c0.6-0.7,0.6-1.7,0.6-1.8v-8.4h-1.3c0,0-0.2,0-0.4,0.1c-0.2,0.1-0.3,0.1-0.3,0.1l-1,0.8l-0.8-2.1h9.7l-0.9,2.1L395.1,164.6z"/>
		<path class="st1" d="M406.9,163.3c-0.6,0.9-0.6,1.9-0.6,1.9v7.6c0,0,0,0.9,0.6,1.9h-3.2c0.6-0.7,0.6-1.7,0.6-1.8v-7.7
			c0-0.2,0-1.2-0.6-1.9H406.9z"/>
		<path class="st1" d="M415.8,163.3l5.5,7.8v-5.6c0-1.1-0.2-1.6-0.6-2.3h2.5c-0.4,0.7-0.6,1.2-0.6,2.2v0.1v9.3c0,0-0.8,0-1.3-0.3
			c-0.5-0.3-1-0.9-1-0.9l-4.9-6.8v5.5c0,1.1,0.2,1.6,0.6,2.3h-2.5c0.4-0.7,0.6-1.2,0.6-2.3v-6.8c0-1.1-0.2-1.6-0.6-2.3H415.8z"/>
		<path class="st1" d="M437.1,173.6c0.1,0,0.1,0,0.2,0v-2.2c0,0,0-0.9-0.6-1.9h3.2c-0.7,0.8-0.7,1.9-0.7,1.9v2
			c-0.9,1-2.3,1.5-3.7,1.5c-2.7,0-5-1.5-5-5.9c0-4.3,2.2-5.9,5-5.9c1.4,0,2.6,0.4,3.5,1.4l-1.7,2.1c-0.6-1.1-1.7-1.9-4-1.9
			c0,0,0,0,0,0c-0.7,0-1,0.7-1,1.9c0,0.8,0.2,1.8,0.4,2.9C433.3,171.5,434.4,173.6,437.1,173.6z"/>
	</g>
	<g>
		<path class="st1" d="M325.1,188.7c-1.3,0-1.9-1.2-2.1-1.7c-0.1-0.1-0.2-0.5-0.2-1c0-0.7,1-2,2.5-3c-1-1.1-1.3-1.9-1.3-2.6
			c0-0.8,1.1-2.2,3-2.2s2.7,0.9,2.7,2.3c0,1-1,1.8-2.1,2.5c0.4,0.4,1,1,1.6,1.7c0.3-0.4,0.7-0.9,1.1-1.4c0.1-0.2,0.1-0.3,0.1-0.4
			c0-0.1,0-0.2-0.1-0.3c-0.2-0.5-0.2-0.5-0.2-0.5h3c-0.6,0.5-2.4,2.2-3.4,3.2c1.2,1.2,2.6,2.5,3.5,2.8c0,0-1.3,0.5-2.3,0.5
			c-0.2,0-0.3,0-0.5-0.1c-0.3-0.1-1.2-0.9-2.1-1.9C327,188.2,325.9,188.7,325.1,188.7z M326.2,187.2c0.5,0,1-0.3,1.7-0.9
			c-0.8-0.8-1.5-1.7-2-2.2c-0.7,0.4-1.1,0.8-1.1,1.3c0,0,0,0,0,0.1C324.9,186.3,325.3,187.2,326.2,187.2z M326.2,179
			c-0.4,0-0.5,0.3-0.5,0.7c0,0.7,0.5,1.7,1.2,2.5c0.4-0.4,1.1-0.8,1.1-1.4c0,0,0,0,0-0.1c0-0.8-0.7-1.4-1.3-1.6
			C326.5,179,326.3,179,326.2,179z"/>
		<path class="st1" d="M347.2,185.4C347.2,185.4,347.2,185.4,347.2,185.4c0,3-4.3,3-5.9,3c0,0,0,0,0,0v0h-2.8
			c0.6-0.7,0.6-1.7,0.6-1.9v-7.8c0-0.1,0-1.2-0.6-1.9h0.6h4.1c0,0,3.1,0,3.1,2.5c0,0,0,0,0,0c0,1.6-0.8,2.4-1.6,2.8
			C345.9,182.6,347.2,183.4,347.2,185.4z M344.2,179.5C344.2,179.5,344.2,179.5,344.2,179.5c0-1.6-2.7-1.3-2.9-1.4v4.1
			C342.7,182.1,344.2,181.8,344.2,179.5z M341.3,187.2c0.2,0,0.6,0,1,0c1.1,0,2.6-0.2,2.6-1.9c0,0,0,0,0,0c0-2.5-2-2.5-3.6-2.5
			L341.3,187.2C341.3,187.2,341.3,187.2,341.3,187.2z"/>
		<path class="st1" d="M353.6,176.9h4.8c0,0,3.1,0,3.1,2.4c0,2.4-1.6,3.1-2.6,3.3c0.6,1,2.9,4.9,4.3,5.8c0,0-0.7,0.1-1.4,0.1
			c-0.5,0-1-0.1-1.3-0.3c-0.7-0.4-3.7-4.9-3.9-5.6v3.8c0,0,0,1.1,0.6,1.9h-3.4c0.6-0.7,0.6-1.7,0.6-1.9v-7.8
			C354.2,178.7,354.2,177.6,353.6,176.9z M356.4,182.1h0.7c0,0,2.2,0,2.2-2.4c0-1.7-2.2-1.7-2.2-1.7h-0.7v0.8V182.1z"/>
		<path class="st1" d="M380.3,188.4h-3.9c0,0,0.5-0.5,0.5-1.1c0-0.1,0-0.2,0-0.3c-0.3-1-0.7-1.9-0.7-1.9h-3.6l-0.3,1
			c-0.2,0.6-0.3,1-0.3,1.4c0,0.3,0.1,0.6,0.3,0.9h-2.9c0.7-0.7,1.1-1.2,1.5-2.3l2.5-7.2c0.2-0.7,0.3-1.1,0.3-1.5
			c0-0.2,0-0.5-0.1-0.7h1.8l2.9,8.1C378.8,186.1,379.3,187.7,380.3,188.4z M374.3,180.2l-1.4,3.7l2.8,0L374.3,180.2z"/>
		<path class="st1" d="M389,176.9l5.5,7.9v-5.6c0-1.1-0.2-1.6-0.6-2.3h2.6c-0.4,0.7-0.6,1.3-0.6,2.2v0.1v9.4c0,0-0.8,0-1.3-0.3
			c-0.5-0.3-1-0.9-1-0.9l-4.9-6.9v5.5c0,1.1,0.2,1.6,0.6,2.3h-2.6c0.4-0.7,0.6-1.2,0.6-2.3v-6.9c0-1.1-0.2-1.6-0.6-2.3H389z"/>
		<path class="st1" d="M403.3,176.9h4.4c0,0,4.9,0,4.9,5.1c0,6.3-5.5,6.4-5.5,6.4h-3.7c0.6-0.7,0.6-1.7,0.6-1.9v-7.8
			C404,178.7,403.9,177.6,403.3,176.9z M406.2,186.6v0.8h0.4c0,0,0,0,0.1,0c0.6,0,3.6-0.2,3.6-4.9c0-4.4-3.3-4.4-3.3-4.4h-0.8v0.8
			V186.6z"/>
		<path class="st1" d="M422.7,176.9c-0.6,0.9-0.6,1.9-0.6,1.9v7.7c0,0,0,0.9,0.6,1.9h-3.3c0.6-0.7,0.6-1.7,0.6-1.9v-7.8
			c0-0.2,0-1.2-0.6-1.9H422.7z"/>
		<path class="st1" d="M431.8,176.9l5.5,7.9v-5.6c0-1.1-0.2-1.6-0.6-2.3h2.6c-0.4,0.7-0.6,1.3-0.6,2.2v0.1v9.4c0,0-0.8,0-1.3-0.3
			c-0.5-0.3-1-0.9-1-0.9l-4.9-6.9v5.5c0,1.1,0.2,1.6,0.6,2.3h-2.6c0.4-0.7,0.6-1.2,0.6-2.3v-6.9c0-1.1-0.2-1.6-0.6-2.3H431.8z"/>
		<path class="st1" d="M453.3,187.4c0.1,0,0.1,0,0.2,0v-2.2c0,0,0-0.9-0.6-2h3.2c-0.7,0.8-0.7,2-0.7,2v2c-0.9,1-2.3,1.5-3.7,1.5
			c-2.8,0-5-1.6-5-6c0-4.4,2.2-6,5-6c1.4,0,2.7,0.4,3.6,1.4l-1.8,2.2c-0.6-1.2-1.7-1.9-4-1.9c0,0,0,0,0,0c-0.7,0-1,0.8-1,1.9
			c0,0.8,0.2,1.8,0.4,2.9C449.5,185.3,450.5,187.4,453.3,187.4z"/>
	</g>
	<g>
		<path class="st1" d="M334.9,197.7c1.6,1.2,3.5,2.3,3.5,3.8c0,1.4-1.7,3.1-4.2,3.1c-1.9,0-3-0.4-4-1.5l1.9-2
			c0.7,1.1,1.7,2.2,3.5,2.2c0.7,0,0.9-0.2,0.9-0.5c0-0.7-1.6-2.1-3.3-3.4c-1.6-1.3-2.8-2.2-2.8-3.6c0-1.4,1.3-3,4-3
			c1.8,0,2.8,0.5,3.3,1l-0.9,2.5c-1.1-0.9-2.3-2-4-2c-0.5,0-0.8,0.1-0.8,0.5C331.9,195.2,333.4,196.6,334.9,197.7z"/>
		<path class="st1" d="M350.5,192.7c2.7,0,5,1.6,5,5.9c0,4.3-2.2,5.9-5,5.9c-2.7,0-5-1.5-5-5.9C345.6,194.3,347.8,192.7,350.5,192.7
			z M352.3,203.3c1,0,1.3-0.8,1.3-1.8c0-0.9-0.2-1.9-0.5-2.8c-0.7-2.4-1.1-4.3-4.8-4.3c0,0,0,0,0,0c-0.7,0-1,0.7-1,1.9
			c0,0.8,0.2,1.8,0.4,2.9C348.3,201.3,349.4,203.3,352.3,203.3z"/>
		<path class="st1" d="M369.4,204.3h-7.6c0.6-0.7,0.6-1.7,0.6-1.8v-7.7c0-0.1,0-1.2-0.6-1.8h3.2c-0.6,0.9-0.6,1.9-0.6,1.9v8.4h2.4
			c0,0,0.2,0,0.4-0.1c0.2-0.1,0.3-0.1,0.3-0.1l1-0.8L369.4,204.3z"/>
		<path class="st1" d="M375.6,194.8c0-0.1,0-1.2-0.6-1.8h3.5c-0.6,0.9-0.6,1.9-0.6,1.9c0,1.9,0,3.8,0.1,5.7c0,0.2-0.1,2.4,2.7,2.8
			c0.1,0,0.1,0,0.2,0c1.3,0,1.5-2.1,1.5-2.7v-5.8c0-0.2-0.1-1.2-0.6-1.8h2.7c-0.5,0.9-0.5,1.9-0.5,1.9v5.7c0,0.1-0.3,4-4.5,4
			c-3.4,0-3.9-2.1-3.9-4.3V194.8z"/>
		<path class="st1" d="M399.1,194.3c0,0-0.1-0.1-0.3-0.1c-0.2-0.1-0.4-0.1-0.4-0.1h-1.3v8.4c0,0,0,0.9,0.6,1.9h-3.4
			c0.6-0.7,0.6-1.7,0.6-1.8v-8.4h-1.3c0,0-0.2,0-0.4,0.1c-0.2,0.1-0.3,0.1-0.3,0.1l-1,0.8l-0.8-2.1h9.7l-0.9,2.1L399.1,194.3z"/>
		<path class="st1" d="M410.9,193c-0.6,0.9-0.6,1.9-0.6,1.9v7.6c0,0,0,0.9,0.6,1.9h-3.2c0.6-0.7,0.6-1.7,0.6-1.8v-7.7
			c0-0.2,0-1.2-0.6-1.9H410.9z"/>
		<path class="st1" d="M422.8,192.7c2.7,0,5,1.6,5,5.9c0,4.3-2.2,5.9-5,5.9c-2.7,0-5-1.5-5-5.9C417.9,194.3,420.1,192.7,422.8,192.7
			z M424.6,203.3c1,0,1.3-0.8,1.3-1.8c0-0.9-0.2-1.9-0.5-2.8c-0.7-2.4-1.1-4.3-4.8-4.3c0,0,0,0,0,0c-0.7,0-1,0.7-1,1.9
			c0,0.8,0.2,1.8,0.4,2.9C420.6,201.3,421.7,203.3,424.6,203.3z"/>
		<path class="st1" d="M436.4,193l5.5,7.8v-5.6c0-1.1-0.2-1.6-0.6-2.3h2.5c-0.4,0.7-0.6,1.2-0.6,2.2v0.1v9.3c0,0-0.8,0-1.3-0.3
			c-0.5-0.3-1-0.9-1-0.9l-4.9-6.8v5.5c0,1.1,0.2,1.6,0.6,2.3h-2.5c0.4-0.7,0.6-1.2,0.6-2.3v-6.8c0-1.1-0.2-1.6-0.6-2.3H436.4z"/>
		<path class="st1" d="M455.5,197.7c1.6,1.2,3.5,2.3,3.5,3.8c0,1.4-1.7,3.1-4.2,3.1c-1.9,0-3-0.4-4-1.5l1.9-2
			c0.7,1.1,1.7,2.2,3.5,2.2c0.7,0,0.9-0.2,0.9-0.5c0-0.7-1.6-2.1-3.3-3.4c-1.6-1.3-2.8-2.2-2.8-3.6c0-1.4,1.3-3,4-3
			c1.8,0,2.8,0.5,3.3,1l-0.9,2.5c-1.1-0.9-2.3-2-4-2c-0.5,0-0.8,0.1-0.8,0.5C452.6,195.2,454.1,196.6,455.5,197.7z"/>
	</g>
	<path class="st2" d="M339.3,83.4c0-0.6-0.4-1-1-1l-7.2,0.2c-0.4,0-0.8,0.4-0.8,0.8c0,0.4,0.4,0.8,0.8,0.8l2.1,0.1
		c0.2-0.5,0.4-0.9,0.7-1.2c0.3-0.3,0.8-0.5,1.6-0.3l0.1,0.1c0.6,0.4,1.2,0.9,1.7,1.5l1.1,0C338.8,84.4,339.3,83.9,339.3,83.4z"/>
	<path class="st2" d="M334.6,83.9c-0.1,0.1-0.2,0.2-0.2,0.3l1.1,0c-0.2-0.1-0.3-0.3-0.5-0.4C334.7,83.8,334.6,83.9,334.6,83.9z"/>
	<path class="st0" d="M335.5,84.3l-1.1,0c-0.1,0.3-0.2,0.7-0.3,1.2l2.5,0.1C336.3,85,335.9,84.6,335.5,84.3z"/>
	<g>
		<path d="M339,120.7c-0.8-5.8-1.7-11.5-2.6-16.6c-1.3-7.9-2.6-15.5-2.3-18.7l-1.2,0c-0.3,3.2,0.7,9.5,2.3,19
			c0.8,5.1,1.8,10.8,2.6,16.5l0.1,0.8c0.7,6.3,2.6,24.9-6.8,28.7c0.3-0.6,0.6-1.1,0.8-1.8c0,0,0,0,0,0c0.3-0.9,0.4-1.8,0.4-2.7
			c0-3.1-1.5-5.8-3.8-7.4c0,0-0.1,0-0.1-0.1c-1.5-1.1-3.3-1.7-5.3-1.7c-1,0-1.9,0.2-2.8,0.4c0,0,0,0,0,0c-1.1,0.4-2.2,1-3,1.7
			c0,0-0.1,0.1-0.1,0.1c-1,0.9-1.8,2-2.4,3.2c0,0,0,0.1,0,0.1c-0.5,1.1-0.8,2.4-0.8,3.7c0,5.1,4.1,9.2,9.2,9.2
			c2.4,0,4.6-0.9,6.2-2.4c0,0,0.1-0.1,0.1-0.1c0.2-0.2,0.4-0.4,0.5-0.6c12.1-2.7,9.9-23.6,9.1-30.4L339,120.7z M329.1,140.6
			c1.2,1.4,2,3.2,2,5.2c0,0.7-0.1,1.4-0.3,2c-0.7,0.1-1.4,0.1-2,0.1C329.8,145.7,329.5,142.6,329.1,140.6z M327.5,139.2
			c0.3,1.1,1.5,6-0.1,8.8c-0.5,0-1.1-0.1-1.6-0.2c1-2,0.6-5.3-0.3-7.8c-0.2-0.6-0.5-1.3-0.9-2C325.7,138.2,326.7,138.6,327.5,139.2z
			 M322.9,137.8c0.2,0.1,0.9,0.8,1.5,2.5c0.9,2.4,1.2,5.6,0.2,7.2c-0.9-0.2-1.7-0.6-2.4-1c1.2-3.4-0.3-7-1-8.5
			C321.8,137.9,322.4,137.8,322.9,137.8z M320.1,138.4c0.6,1.1,2,4.4,1.2,7.4c0,0,0,0,0,0c-2.5-2.1-3.1-5.2-3.2-6.2
			C318.7,139.1,319.4,138.7,320.1,138.4z M323,153.8c-4.4,0-8-3.6-8-8c0-0.4,0-0.9,0.1-1.3c0.3,0.9,0.9,1.9,1.7,2.9
			c1.6,2.1,4.7,4.6,10.5,5.2C326,153.4,324.6,153.8,323,153.8z M315.8,142.5c0.3-0.7,0.7-1.3,1.2-1.9c0.3,1.5,1.1,4.1,3.4,6.1
			c0.2,0.2,0.5,0.4,0.7,0.6c0,0,0,0,0,0c1,0.7,2.2,1.2,3.5,1.5c0,0,0,0,0.1,0c0.9,0.2,1.9,0.4,2.9,0.4c0,0,0,0,0.1,0c0,0,0,0,0.1,0
			c0.2,0,0.4,0,0.7,0c0.6,0,1.2,0,1.9-0.1c-0.4,0.9-1,1.7-1.7,2.4C317.7,151.1,316,143.7,315.8,142.5z"/>
		<path d="M338.1,85.5c-0.3-0.4-0.6-0.9-0.9-1.2c-0.5-0.6-1.1-1.1-1.7-1.5l-0.1-0.1c-0.8-0.3-1.3,0-1.6,0.3
			c-0.3,0.3-0.5,0.6-0.7,1.2l1.2,0c0.1-0.1,0.1-0.2,0.2-0.3c0,0,0.1-0.1,0.4,0c0.2,0.1,0.3,0.2,0.5,0.4c0.4,0.3,0.8,0.7,1.2,1.2
			c2.6,3.4,4.2,10.8,4.7,21.6c0.5,10-0.1,19.4-0.1,19.5c0,0.3,0.2,0.6,0.6,0.6c0.3,0,0.6-0.2,0.6-0.6
			C342.5,125.3,344.5,95.8,338.1,85.5z"/>
	</g>
	<path class="st0" d="M333.2,84.2c-0.1,0.3-0.2,0.7-0.2,1.2l1.2,0c0.1-0.5,0.1-0.9,0.3-1.2L333.2,84.2z"/>
	<g>
		<rect x="314.8" y="155.5" class="st1" width="1.6" height="57.3"/>
	</g>
	<g>
		<path class="st3" d="M301.4,72.9c-1.3,0-2.4,1.1-2.4,2.4c0,1.3,1.1,2.4,2.4,2.4c1.3,0,2.4-1.1,2.4-2.4
			C303.8,73.9,302.7,72.9,301.4,72.9z M301.4,76.8c-0.9,0-1.5-0.7-1.5-1.5c0-0.9,0.7-1.5,1.5-1.5c0.9,0,1.5,0.7,1.5,1.5
			C303,76.1,302.3,76.8,301.4,76.8z"/>
		<path class="st3" d="M276.6,111.5c1.5,6.8,13.7,12.9,22.9,13.1c-20.2-5-15.9-18.6-15.9-18.6L276.6,111.5z"/>
		<path class="st3" d="M338.2,81.2l-12.3,0.3c-7.3-13-18.2-17.1-25.1-15.7c-6.9,1.5-6.7,9.9-6.7,9.9s1.1,1.6,1.7,1.2
			c0.6-0.4,2.3-0.2,2.7,0.7c0.3,0.9-0.6,1.1-1.5,1.4c-0.9,0.3-1.3-0.4-1.3-0.4h-3.4l-2.6,3.8L275,82.7c-0.3,0-0.6,0.3-0.6,0.6
			c0,0.3,0.2,0.6,0.6,0.6l30.3,0.8c0.9,4.5-2.8,10.4-3.6,10.8c37.6,4.4,2.6,55.7-28.8,19.1c-1.1,0.4-3.8,2.3-3.5,2.9
			c2.3,4,8.8,8.2,15.4,10.5c-11.3,1.2-20-6.8-20.8-6.8c-0.8,0-14.2,5.1-13.4,6c0.8,0.8,8.7,1.1,7.7,1.3
			c-1.1,0.2-27.6,13.4-27.9,15.7c-0.3,2.3,3.5,2.3,5,1.7s21.1-9.9,23.3-10.8c5.8,0.5,14.8,0.8,29.2,0.8c-0.2,2,2.6,9.5,4.9,15.5
			c-2.9-0.2-4.2,1.2-4.6,2c-0.2,0.3,0,0.6,0.3,0.6c2,0,9.2,0,20.6,0c0.4,0,0.6-0.5,0.3-0.7c-2.7-2.9-11.4-2-12.5-2.3
			c-1.1-0.3-1.2-3.6-2.2-5.7s4.8-10.8,5.6-11.5c0.8-0.7,6.4,4.9,8.1,5.3c1.7,0.5,2-1.4,2.8-0.9s3.3-0.7,2.4,0.1
			c-0.4,0.3-0.6,1.4-0.6,2.4c0,0.4,0.5,0.5,0.7,0.2c1.8-3.3,5.3-5.5,9.3-5.5c2.7,0,5.1,1,7,2.6c0.2,0.1,0.4-0.1,0.3-0.2
			c-5.3-8.1-17.3-2.6-17.3-2.6s-0.8,0.1-1.4,0c-1.2-0.5-3.3-2.2-2.2-3.6c31-14.3,19.2-44.1,19.2-44.1l-19.7-2.4l24,0.7
			c0-0.5,0.1-0.9,0.2-1.2l-2.1-0.1c-0.4,0-0.8-0.4-0.8-0.8c0-0.4,0.4-0.8,0.8-0.8l7.2-0.2c0.6,0,1,0.4,1,1s-0.4,1-1,1l-1.1,0
			c0.3,0.4,0.6,0.8,0.9,1.2l0.1,0c1.2,0,2.3-1,2.3-2.2v0C340.5,82.1,339.5,81.1,338.2,81.2z M292.9,82.3c0.3-0.6,2.1-3.2,7.3-2.3
			c1.7,0.4,3,1.1,3.8,2L292.9,82.3z M301.4,77.9c-1.5,0-2.7-1.2-2.7-2.7c0-1.5,1.2-2.7,2.7-2.7c1.5,0,2.7,1.2,2.7,2.7
			C304.1,76.7,302.9,77.9,301.4,77.9z"/>
	</g>
	<g>
		<path class="st3" d="M479.3,268H132.4c-8.7,0-15.8-7.1-15.8-15.8V60.8c0-8.7,7.1-15.8,15.8-15.8h346.9c8.7,0,15.8,7.1,15.8,15.8
			v191.4C495,260.9,488,268,479.3,268z M132.4,52.7c-4.5,0-8.2,3.7-8.2,8.2v191.4c0,4.5,3.7,8.2,8.2,8.2h346.9
			c4.5,0,8.2-3.7,8.2-8.2V60.8c0-4.5-3.7-8.2-8.2-8.2H132.4z"/>
	</g>
</g>
<g>
	<g>
		<path class="st4" d="M90.9,813.3H34.9c1,4.6,3.4,8.2,7.1,10.9c3.8,2.7,8.4,4,14,4c3.8,0,7.3-0.6,10.2-1.7c3-1.1,5.7-3,8.3-5.4
			l11.4,12.4c-7,8-17.1,12-30.5,12c-8.3,0-15.7-1.6-22.1-4.9c-6.4-3.3-11.4-7.8-14.8-13.5c-3.5-5.8-5.2-12.3-5.2-19.7
			c0-7.2,1.7-13.8,5.2-19.6c3.4-5.8,8.2-10.4,14.2-13.6c6-3.3,12.7-4.9,20.1-4.9c7.2,0,13.8,1.6,19.7,4.7
			c5.9,3.1,10.5,7.6,13.8,13.4c3.3,5.8,5,12.6,5,20.3C91.3,807.8,91.1,809.7,90.9,813.3z M40.7,789.5c-3.3,2.7-5.3,6.5-6,11.3h36.4
			c-0.7-4.7-2.7-8.4-6-11.2c-3.3-2.8-7.3-4.2-12.1-4.2C48.1,785.4,44,786.8,40.7,789.5z"/>
		<path class="st4" d="M153.3,840.6c-2.1,1.6-4.7,2.7-7.8,3.5c-3.1,0.8-6.3,1.2-9.7,1.2c-8.8,0-15.6-2.2-20.4-6.7
			c-4.8-4.5-7.2-11.1-7.2-19.8v-30.4H96.8v-16.5h11.4v-18h21.4v18H148v16.5h-18.4v30.1c0,3.1,0.8,5.5,2.4,7.2
			c1.6,1.7,3.9,2.5,6.8,2.5c3.4,0,6.3-0.9,8.7-2.7L153.3,840.6z"/>
		<path class="st4" d="M232.5,777.4c5.6,5.5,8.5,13.7,8.5,24.5v42.3h-21.4v-39c0-5.9-1.3-10.2-3.8-13.1c-2.6-2.9-6.3-4.3-11.1-4.3
			c-5.4,0-9.7,1.7-12.9,5c-3.2,3.3-4.8,8.3-4.8,14.9v36.6h-21.4v-102h21.4V778c2.8-2.8,6.3-5,10.3-6.5c4-1.5,8.4-2.3,13.2-2.3
			C219.5,769.2,226.9,771.9,232.5,777.4z"/>
		<path class="st4" d="M333.2,813.3h-55.9c1,4.6,3.4,8.2,7.1,10.9c3.8,2.7,8.4,4,14,4c3.8,0,7.3-0.6,10.2-1.7c3-1.1,5.7-3,8.3-5.4
			l11.4,12.4c-7,8-17.1,12-30.5,12c-8.3,0-15.7-1.6-22.1-4.9c-6.4-3.3-11.4-7.8-14.8-13.5c-3.5-5.8-5.2-12.3-5.2-19.7
			c0-7.2,1.7-13.8,5.2-19.6c3.4-5.8,8.2-10.4,14.2-13.6c6-3.3,12.7-4.9,20.1-4.9c7.2,0,13.8,1.6,19.7,4.7
			c5.9,3.1,10.5,7.6,13.8,13.4c3.3,5.8,5,12.6,5,20.3C333.6,807.8,333.4,809.7,333.2,813.3z M283,789.5c-3.3,2.7-5.3,6.5-6,11.3
			h36.4c-0.7-4.7-2.7-8.4-6-11.2c-3.3-2.8-7.3-4.2-12.1-4.2C290.4,785.4,286.3,786.8,283,789.5z"/>
		<path class="st4" d="M378.7,771.9c4.4-1.8,9.4-2.7,15-2.7V789c-2.4-0.2-4-0.3-4.8-0.3c-6.1,0-10.9,1.7-14.4,5.2
			c-3.5,3.4-5.2,8.6-5.2,15.5v34.9h-21.4v-73.9h20.5v9.8C370.9,776.4,374.4,773.7,378.7,771.9z"/>
		<path class="st4" d="M477.9,813.3h-55.9c1,4.6,3.4,8.2,7.1,10.9c3.8,2.7,8.4,4,14,4c3.8,0,7.3-0.6,10.2-1.7c3-1.1,5.7-3,8.3-5.4
			l11.4,12.4c-7,8-17.1,12-30.5,12c-8.3,0-15.7-1.6-22.1-4.9c-6.4-3.3-11.4-7.8-14.8-13.5c-3.5-5.8-5.2-12.3-5.2-19.7
			c0-7.2,1.7-13.8,5.2-19.6c3.4-5.8,8.2-10.4,14.2-13.6c6-3.3,12.7-4.9,20.1-4.9c7.2,0,13.8,1.6,19.7,4.7
			c5.9,3.1,10.5,7.6,13.8,13.4c3.3,5.8,5,12.6,5,20.3C478.3,807.8,478.2,809.7,477.9,813.3z M427.7,789.5c-3.3,2.7-5.3,6.5-6,11.3
			h36.4c-0.7-4.7-2.7-8.4-6-11.2c-3.3-2.8-7.3-4.2-12.1-4.2C435.1,785.4,431,786.8,427.7,789.5z"/>
		<path class="st4" d="M546.7,777.3c6.1,5.5,9.2,13.7,9.2,24.7v42.2h-20.1V835c-4,6.9-11.5,10.3-22.5,10.3c-5.7,0-10.6-1-14.8-2.9
			c-4.2-1.9-7.4-4.6-9.6-8c-2.2-3.4-3.3-7.2-3.3-11.5c0-6.9,2.6-12.3,7.8-16.2c5.2-3.9,13.2-5.9,24-5.9h17c0-4.7-1.4-8.3-4.3-10.8
			c-2.8-2.5-7.1-3.8-12.8-3.8c-3.9,0-7.8,0.6-11.6,1.9c-3.8,1.2-7,2.9-9.7,5l-7.7-15c4-2.8,8.9-5,14.5-6.6
			c5.6-1.6,11.4-2.3,17.4-2.3C531.8,769.2,540.6,771.9,546.7,777.3z M528.5,828.3c2.8-1.7,4.9-4.2,6-7.5v-7.6h-14.7
			c-8.8,0-13.2,2.9-13.2,8.7c0,2.7,1.1,4.9,3.2,6.5c2.2,1.6,5.1,2.4,8.9,2.4C522.4,830.9,525.6,830,528.5,828.3z"/>
		<path class="st4" d="M575.3,742.2h21.4v102h-21.4V742.2z"/>
	</g>
	<g>
		<path class="st4" d="M274.5,879.2c1.8,1.5,2.7,3.5,2.7,6.1c0,2.6-0.9,4.6-2.7,6.1c-1.8,1.5-4.2,2.2-7.3,2.2h-5.9v7.3h-3.4v-24h9.4
			C270.3,876.9,272.7,877.7,274.5,879.2z M272.1,889.3c1.1-0.9,1.7-2.3,1.7-4c0-1.7-0.6-3.1-1.7-4c-1.1-0.9-2.8-1.4-5-1.4h-5.8v10.8
			h5.8C269.3,890.7,270.9,890.2,272.1,889.3z"/>
		<path class="st4" d="M287.1,883.4c1.1-0.5,2.5-0.8,4.1-0.8v3.2c-0.2,0-0.4,0-0.8,0c-1.8,0-3.2,0.5-4.2,1.6c-1,1.1-1.5,2.6-1.5,4.5
			v9h-3.3v-18.2h3.2v3C285.2,884.7,286,883.9,287.1,883.4z"/>
		<path class="st4" d="M295.3,878.6c-0.4-0.4-0.6-0.9-0.6-1.5c0-0.6,0.2-1.1,0.6-1.5c0.4-0.4,1-0.6,1.6-0.6c0.6,0,1.2,0.2,1.6,0.6
			c0.4,0.4,0.6,0.9,0.6,1.5c0,0.6-0.2,1.1-0.6,1.6c-0.4,0.4-1,0.6-1.6,0.6C296.3,879.3,295.7,879,295.3,878.6z M295.3,882.7h3.3
			v18.2h-3.3V882.7z"/>
		<path class="st4" d="M320,884.6c1.4,1.3,2,3.3,2,5.9v10.5h-3.3v-10.1c0-1.8-0.4-3.1-1.3-4c-0.8-0.9-2.1-1.3-3.6-1.3
			c-1.8,0-3.2,0.5-4.2,1.6c-1,1-1.5,2.5-1.5,4.5v9.4h-3.3v-18.2h3.2v2.7c0.7-0.9,1.6-1.7,2.7-2.2c1.1-0.5,2.4-0.8,3.9-0.8
			C316.8,882.6,318.7,883.2,320,884.6z"/>
		<path class="st4" d="M338.4,899.8c-0.5,0.4-1.1,0.7-1.8,0.9c-0.7,0.2-1.4,0.3-2.2,0.3c-1.8,0-3.2-0.5-4.2-1.5
			c-1-1-1.5-2.4-1.5-4.2v-10h-3.1v-2.7h3.1v-4h3.3v4h5.2v2.7h-5.2v9.8c0,1,0.2,1.7,0.7,2.3c0.5,0.5,1.2,0.8,2.1,0.8
			c1,0,1.9-0.3,2.6-0.9L338.4,899.8z"/>
		<path class="st4" d="M342.4,878.6c-0.4-0.4-0.6-0.9-0.6-1.5c0-0.6,0.2-1.1,0.6-1.5c0.4-0.4,1-0.6,1.6-0.6c0.6,0,1.2,0.2,1.6,0.6
			c0.4,0.4,0.6,0.9,0.6,1.5c0,0.6-0.2,1.1-0.6,1.6c-0.4,0.4-1,0.6-1.6,0.6C343.3,879.3,342.8,879,342.4,878.6z M342.3,882.7h3.3
			v18.2h-3.3V882.7z"/>
		<path class="st4" d="M367.1,884.6c1.4,1.3,2,3.3,2,5.9v10.5h-3.3v-10.1c0-1.8-0.4-3.1-1.3-4c-0.8-0.9-2.1-1.3-3.6-1.3
			c-1.8,0-3.2,0.5-4.2,1.6c-1,1-1.5,2.5-1.5,4.5v9.4h-3.3v-18.2h3.2v2.7c0.7-0.9,1.6-1.7,2.7-2.2c1.1-0.5,2.4-0.8,3.9-0.8
			C363.9,882.6,365.7,883.2,367.1,884.6z"/>
		<path class="st4" d="M392.7,882.7v15.7c0,3.2-0.8,5.5-2.4,7c-1.6,1.5-3.9,2.3-7.1,2.3c-1.7,0-3.3-0.2-4.9-0.7
			c-1.6-0.5-2.8-1.1-3.8-2l1.6-2.5c0.8,0.7,1.9,1.3,3.1,1.7c1.2,0.4,2.5,0.6,3.9,0.6c2.1,0,3.7-0.5,4.7-1.5c1-1,1.5-2.5,1.5-4.6
			v-1.4c-0.8,0.9-1.7,1.6-2.9,2.1c-1.1,0.5-2.4,0.7-3.7,0.7c-1.7,0-3.3-0.4-4.7-1.1c-1.4-0.7-2.5-1.8-3.3-3.1
			c-0.8-1.3-1.2-2.9-1.2-4.6c0-1.7,0.4-3.2,1.2-4.6c0.8-1.3,1.9-2.4,3.3-3.1c1.4-0.7,3-1.1,4.7-1.1c1.4,0,2.6,0.3,3.8,0.8
			c1.2,0.5,2.1,1.2,2.9,2.2v-2.8H392.7z M386.5,896.5c0.9-0.5,1.7-1.2,2.2-2.1c0.5-0.9,0.8-1.9,0.8-3.1c0-1.8-0.6-3.2-1.7-4.3
			c-1.2-1.1-2.7-1.6-4.5-1.6c-1.9,0-3.4,0.5-4.5,1.6c-1.2,1.1-1.7,2.5-1.7,4.3c0,1.1,0.3,2.2,0.8,3.1c0.5,0.9,1.3,1.6,2.2,2.1
			s2,0.8,3.2,0.8C384.4,897.3,385.5,897,386.5,896.5z"/>
		<path class="st4" d="M426.2,901.3l-3.2-3.2c-2.1,2.1-4.8,3.1-8,3.1c-1.6,0-3-0.3-4.3-0.8c-1.3-0.5-2.3-1.3-3-2.2
			c-0.7-0.9-1.1-2-1.1-3.2c0-1.5,0.5-2.8,1.4-3.9c0.9-1.1,2.4-2.3,4.5-3.5c-1.1-1.1-1.8-2-2.2-2.8c-0.4-0.8-0.7-1.7-0.7-2.6
			c0-1.6,0.6-2.9,1.8-3.9c1.2-1,2.7-1.5,4.7-1.5c1.8,0,3.3,0.4,4.4,1.3c1.1,0.9,1.6,2.1,1.6,3.7c0,1.2-0.4,2.3-1.2,3.3
			c-0.8,1-2.1,2-3.9,3l5.9,5.9c0.7-1.3,1.2-2.8,1.5-4.4l2.6,0.9c-0.4,2.1-1.1,3.9-2.1,5.5l3.2,3.2L426.2,901.3z M421.1,896.2
			l-6.8-6.8c-1.6,0.9-2.8,1.8-3.4,2.6c-0.7,0.8-1,1.7-1,2.7c0,1.1,0.5,2.1,1.5,2.8c1,0.7,2.3,1.1,3.9,1.1
			C417.6,898.4,419.6,897.7,421.1,896.2z M413.5,879.9c-0.6,0.5-0.9,1.2-0.9,2.1c0,0.6,0.2,1.2,0.5,1.8c0.3,0.6,1,1.3,1.9,2.3
			c1.6-0.9,2.7-1.7,3.3-2.3c0.6-0.6,0.9-1.3,0.9-2.1c0-0.8-0.3-1.4-0.8-1.9c-0.6-0.5-1.3-0.7-2.3-0.7
			C415,879.1,414.1,879.4,413.5,879.9z"/>
		<path class="st4" d="M460.8,890.6c0.8,1,1.2,2.3,1.2,3.9c0,2.1-0.8,3.7-2.3,4.8c-1.6,1.1-3.8,1.7-6.8,1.7h-11.4v-24h10.8
			c2.7,0,4.9,0.5,6.4,1.6c1.5,1.1,2.2,2.6,2.2,4.6c0,1.3-0.3,2.3-0.9,3.3c-0.6,0.9-1.4,1.6-2.3,2.1
			C458.9,888.9,460,889.6,460.8,890.6z M444.8,879.7v7.7h7c1.8,0,3.1-0.3,4.1-1c0.9-0.7,1.4-1.6,1.4-2.9c0-1.3-0.5-2.2-1.4-2.9
			c-0.9-0.7-2.3-1-4.1-1H444.8z M457.1,897.2c1-0.6,1.5-1.6,1.5-3c0-2.7-2-4-5.9-4h-7.9v8h7.9C454.7,898.1,456.1,897.8,457.1,897.2z
			"/>
		<path class="st4" d="M472.6,883.4c1.1-0.5,2.5-0.8,4.1-0.8v3.2c-0.2,0-0.4,0-0.8,0c-1.8,0-3.2,0.5-4.2,1.6c-1,1.1-1.5,2.6-1.5,4.5
			v9h-3.3v-18.2h3.2v3C470.6,884.7,471.4,883.9,472.6,883.4z"/>
		<path class="st4" d="M493,884.4c1.3,1.2,2,3.1,2,5.5v11h-3.1v-2.4c-0.5,0.8-1.3,1.5-2.3,1.9c-1,0.4-2.2,0.7-3.6,0.7
			c-2,0-3.7-0.5-4.9-1.5c-1.2-1-1.8-2.3-1.8-3.9s0.6-2.9,1.7-3.9c1.2-1,3-1.5,5.6-1.5h5.2v-0.7c0-1.4-0.4-2.5-1.2-3.3
			c-0.8-0.8-2-1.1-3.6-1.1c-1.1,0-2.1,0.2-3.2,0.5c-1,0.4-1.9,0.8-2.6,1.4l-1.4-2.5c0.9-0.8,2.1-1.3,3.4-1.7
			c1.3-0.4,2.7-0.6,4.1-0.6C489.8,882.6,491.7,883.2,493,884.4z M489.8,897.7c0.9-0.6,1.6-1.4,2-2.4v-2.5h-5.1
			c-2.8,0-4.2,0.9-4.2,2.8c0,0.9,0.4,1.6,1.1,2.2c0.7,0.5,1.7,0.8,2.9,0.8C487.8,898.6,488.9,898.3,489.8,897.7z"/>
		<path class="st4" d="M516.3,884.6c1.4,1.3,2,3.3,2,5.9v10.5h-3.3v-10.1c0-1.8-0.4-3.1-1.3-4c-0.8-0.9-2.1-1.3-3.6-1.3
			c-1.8,0-3.2,0.5-4.2,1.6c-1,1-1.5,2.5-1.5,4.5v9.4h-3.3v-18.2h3.2v2.7c0.7-0.9,1.6-1.7,2.7-2.2c1.1-0.5,2.4-0.8,3.9-0.8
			C513.1,882.6,515,883.2,516.3,884.6z"/>
		<path class="st4" d="M541.7,875.5v25.4h-3.2V898c-0.7,1-1.7,1.8-2.8,2.3c-1.1,0.5-2.4,0.8-3.7,0.8c-1.8,0-3.3-0.4-4.7-1.2
			c-1.4-0.8-2.5-1.9-3.3-3.3c-0.8-1.4-1.2-3-1.2-4.8c0-1.8,0.4-3.4,1.2-4.8c0.8-1.4,1.9-2.5,3.3-3.3c1.4-0.8,3-1.2,4.7-1.2
			c1.3,0,2.5,0.2,3.6,0.7c1.1,0.5,2,1.2,2.7,2.2v-10H541.7z M535.5,897.4c0.9-0.5,1.7-1.3,2.2-2.3c0.5-1,0.8-2.1,0.8-3.3
			c0-1.3-0.3-2.4-0.8-3.3c-0.5-1-1.3-1.7-2.2-2.2c-0.9-0.5-2-0.8-3.1-0.8c-1.2,0-2.2,0.3-3.1,0.8c-0.9,0.5-1.7,1.3-2.2,2.2
			c-0.5,1-0.8,2.1-0.8,3.3c0,1.3,0.3,2.4,0.8,3.3c0.5,1,1.3,1.7,2.2,2.3c0.9,0.5,2,0.8,3.1,0.8C533.5,898.2,534.5,898,535.5,897.4z"
			/>
		<path class="st4" d="M548,878.6c-0.4-0.4-0.6-0.9-0.6-1.5c0-0.6,0.2-1.1,0.6-1.5c0.4-0.4,1-0.6,1.6-0.6c0.6,0,1.2,0.2,1.6,0.6
			c0.4,0.4,0.6,0.9,0.6,1.5c0,0.6-0.2,1.1-0.6,1.6c-0.4,0.4-1,0.6-1.6,0.6C549,879.3,548.4,879,548,878.6z M548,882.7h3.3v18.2H548
			V882.7z"/>
		<path class="st4" d="M572.7,884.6c1.4,1.3,2,3.3,2,5.9v10.5h-3.3v-10.1c0-1.8-0.4-3.1-1.3-4c-0.8-0.9-2.1-1.3-3.6-1.3
			c-1.8,0-3.2,0.5-4.2,1.6c-1,1-1.5,2.5-1.5,4.5v9.4h-3.3v-18.2h3.2v2.7c0.7-0.9,1.6-1.7,2.7-2.2c1.1-0.5,2.4-0.8,3.9-0.8
			C569.5,882.6,571.4,883.2,572.7,884.6z"/>
		<path class="st4" d="M598.3,882.7v15.7c0,3.2-0.8,5.5-2.4,7c-1.6,1.5-3.9,2.3-7.1,2.3c-1.7,0-3.3-0.2-4.9-0.7
			c-1.6-0.5-2.8-1.1-3.8-2l1.6-2.5c0.8,0.7,1.9,1.3,3.1,1.7c1.2,0.4,2.5,0.6,3.9,0.6c2.1,0,3.7-0.5,4.7-1.5c1-1,1.5-2.5,1.5-4.6
			v-1.4c-0.8,0.9-1.7,1.6-2.9,2.1c-1.1,0.5-2.4,0.7-3.7,0.7c-1.7,0-3.3-0.4-4.7-1.1c-1.4-0.7-2.5-1.8-3.3-3.1
			c-0.8-1.3-1.2-2.9-1.2-4.6c0-1.7,0.4-3.2,1.2-4.6c0.8-1.3,1.9-2.4,3.3-3.1c1.4-0.7,3-1.1,4.7-1.1c1.4,0,2.6,0.3,3.8,0.8
			c1.2,0.5,2.1,1.2,2.9,2.2v-2.8H598.3z M592.1,896.5c0.9-0.5,1.7-1.2,2.2-2.1c0.5-0.9,0.8-1.9,0.8-3.1c0-1.8-0.6-3.2-1.7-4.3
			c-1.2-1.1-2.7-1.6-4.5-1.6c-1.9,0-3.4,0.5-4.5,1.6c-1.2,1.1-1.7,2.5-1.7,4.3c0,1.1,0.3,2.2,0.8,3.1c0.5,0.9,1.3,1.6,2.2,2.1
			c0.9,0.5,2,0.8,3.2,0.8C590.1,897.3,591.1,897,592.1,896.5z"/>
		<path class="st4" d="M259.6,941.5c-1.7-0.6-3-1.3-4-2.2l1.3-2.7c0.9,0.8,2.1,1.5,3.5,2c1.4,0.5,2.9,0.8,4.4,0.8c2,0,3.5-0.3,4.5-1
			c1-0.7,1.5-1.6,1.5-2.7c0-0.8-0.3-1.5-0.8-2c-0.5-0.5-1.2-0.9-2-1.2c-0.8-0.3-1.9-0.6-3.3-0.9c-1.8-0.4-3.3-0.9-4.4-1.3
			c-1.1-0.4-2.1-1.1-2.8-2c-0.8-0.9-1.2-2.1-1.2-3.6c0-1.3,0.3-2.4,1-3.5c0.7-1,1.7-1.9,3.1-2.5c1.4-0.6,3.1-0.9,5.1-0.9
			c1.4,0,2.8,0.2,4.2,0.5c1.4,0.4,2.5,0.9,3.5,1.6l-1.1,2.7c-1-0.6-2.1-1.1-3.2-1.5c-1.1-0.3-2.3-0.5-3.4-0.5
			c-1.9,0-3.4,0.4-4.4,1.1c-1,0.7-1.5,1.6-1.5,2.7c0,0.8,0.3,1.5,0.8,2c0.5,0.5,1.2,0.9,2,1.2c0.8,0.3,1.9,0.6,3.3,0.9
			c1.8,0.4,3.3,0.9,4.4,1.3s2,1.1,2.8,2c0.8,0.9,1.2,2.1,1.2,3.6c0,1.3-0.3,2.4-1,3.4c-0.7,1-1.7,1.9-3.1,2.5
			c-1.4,0.6-3.1,0.9-5.1,0.9C263,942.3,261.3,942,259.6,941.5z"/>
		<path class="st4" d="M281.6,941c-1.4-0.8-2.6-1.9-3.4-3.3c-0.8-1.4-1.2-3-1.2-4.8s0.4-3.4,1.2-4.8c0.8-1.4,1.9-2.5,3.4-3.3
			c1.4-0.8,3.1-1.2,4.9-1.2c1.8,0,3.4,0.4,4.8,1.2c1.4,0.8,2.5,1.9,3.4,3.3c0.8,1.4,1.2,3,1.2,4.8s-0.4,3.4-1.2,4.8
			c-0.8,1.4-1.9,2.5-3.4,3.3c-1.4,0.8-3,1.2-4.8,1.2C284.6,942.2,283,941.8,281.6,941z M289.6,938.6c0.9-0.5,1.7-1.3,2.2-2.3
			c0.5-1,0.8-2.1,0.8-3.3c0-1.3-0.3-2.4-0.8-3.3c-0.5-1-1.3-1.7-2.2-2.2s-2-0.8-3.1-0.8c-1.2,0-2.2,0.3-3.1,0.8s-1.7,1.3-2.2,2.2
			c-0.5,1-0.8,2.1-0.8,3.3c0,1.3,0.3,2.4,0.8,3.3c0.5,1,1.3,1.7,2.2,2.3c0.9,0.5,2,0.8,3.1,0.8C287.6,939.4,288.6,939.1,289.6,938.6
			z"/>
		<path class="st4" d="M300.4,916.6h3.3V942h-3.3V916.6z"/>
		<path class="st4" d="M326.9,923.9V942h-3.1v-2.7c-0.7,0.9-1.5,1.7-2.6,2.2c-1.1,0.5-2.3,0.8-3.5,0.8c-2.4,0-4.3-0.7-5.7-2
			c-1.4-1.3-2.1-3.3-2.1-5.9v-10.5h3.3v10.1c0,1.8,0.4,3.1,1.3,4c0.8,0.9,2.1,1.4,3.6,1.4c1.7,0,3.1-0.5,4.1-1.6
			c1-1.1,1.5-2.5,1.5-4.5v-9.4H326.9z"/>
		<path class="st4" d="M343.4,941c-0.5,0.4-1.1,0.7-1.8,0.9c-0.7,0.2-1.4,0.3-2.2,0.3c-1.8,0-3.2-0.5-4.2-1.5c-1-1-1.5-2.4-1.5-4.2
			v-10h-3.1v-2.7h3.1v-4h3.3v4h5.2v2.7h-5.2v9.8c0,1,0.2,1.7,0.7,2.3c0.5,0.5,1.2,0.8,2.1,0.8c1,0,1.9-0.3,2.6-0.9L343.4,941z"/>
		<path class="st4" d="M347.4,919.8c-0.4-0.4-0.6-0.9-0.6-1.5s0.2-1.1,0.6-1.5c0.4-0.4,1-0.6,1.6-0.6c0.6,0,1.2,0.2,1.6,0.6
			c0.4,0.4,0.6,0.9,0.6,1.5c0,0.6-0.2,1.1-0.6,1.6c-0.4,0.4-1,0.6-1.6,0.6C348.4,920.4,347.8,920.2,347.4,919.8z M347.3,923.9h3.3
			V942h-3.3V923.9z"/>
		<path class="st4" d="M359.8,941c-1.4-0.8-2.6-1.9-3.4-3.3c-0.8-1.4-1.2-3-1.2-4.8s0.4-3.4,1.2-4.8c0.8-1.4,1.9-2.5,3.4-3.3
			c1.4-0.8,3.1-1.2,4.9-1.2s3.4,0.4,4.8,1.2c1.4,0.8,2.5,1.9,3.4,3.3c0.8,1.4,1.2,3,1.2,4.8s-0.4,3.4-1.2,4.8
			c-0.8,1.4-1.9,2.5-3.4,3.3c-1.4,0.8-3,1.2-4.8,1.2S361.3,941.8,359.8,941z M367.8,938.6c0.9-0.5,1.7-1.3,2.2-2.3
			c0.5-1,0.8-2.1,0.8-3.3c0-1.3-0.3-2.4-0.8-3.3c-0.5-1-1.3-1.7-2.2-2.2s-2-0.8-3.1-0.8s-2.2,0.3-3.1,0.8c-0.9,0.5-1.7,1.3-2.2,2.2
			c-0.5,1-0.8,2.1-0.8,3.3c0,1.3,0.3,2.4,0.8,3.3c0.5,1,1.3,1.7,2.2,2.3c0.9,0.5,2,0.8,3.1,0.8S366.9,939.1,367.8,938.6z"/>
		<path class="st4" d="M393.9,925.7c1.4,1.3,2,3.3,2,5.9V942h-3.3V932c0-1.8-0.4-3.1-1.3-4c-0.8-0.9-2.1-1.3-3.6-1.3
			c-1.8,0-3.2,0.5-4.2,1.6c-1,1-1.5,2.5-1.5,4.5v9.4h-3.3v-18.2h3.2v2.7c0.7-0.9,1.6-1.7,2.7-2.2c1.1-0.5,2.4-0.8,3.9-0.8
			C390.7,923.7,392.5,924.4,393.9,925.7z"/>
		<path class="st4" d="M402.9,941.6c-1.4-0.4-2.4-0.9-3.2-1.5l1.4-2.6c0.8,0.6,1.8,1,2.9,1.4c1.1,0.3,2.3,0.5,3.5,0.5
			c2.9,0,4.3-0.8,4.3-2.5c0-0.5-0.2-1-0.6-1.3s-0.9-0.6-1.5-0.7c-0.6-0.1-1.4-0.3-2.5-0.5c-1.5-0.2-2.7-0.5-3.6-0.8
			c-0.9-0.3-1.7-0.8-2.4-1.5c-0.7-0.7-1-1.7-1-3c0-1.6,0.7-3,2.1-4c1.4-1,3.2-1.5,5.5-1.5c1.2,0,2.4,0.1,3.6,0.4
			c1.2,0.3,2.2,0.7,3,1.2l-1.4,2.6c-1.5-1-3.2-1.4-5.2-1.4c-1.4,0-2.5,0.2-3.2,0.7c-0.7,0.5-1.1,1.1-1.1,1.8c0,0.6,0.2,1.1,0.6,1.4
			c0.4,0.3,0.9,0.6,1.5,0.8c0.6,0.2,1.5,0.3,2.6,0.5c1.5,0.3,2.6,0.5,3.5,0.8c0.9,0.3,1.7,0.8,2.3,1.5c0.6,0.7,1,1.6,1,2.9
			c0,1.6-0.7,3-2.1,3.9c-1.4,1-3.3,1.5-5.7,1.5C405.7,942.2,404.3,942,402.9,941.6z"/>
	</g>
	<path class="st5" d="M276.6,689l-8.1,8.5c-3.6-5.2-6.6-10.9-8.8-17c-0.5-1.4-1-2.8-1.4-4.3c-1.8-6.3-2.7-12.9-2.7-19.5
		c0-28.1,16.6-53.5,42.3-64.9c0,0,0,0,0,0c0,0,0,0,0,0c0,0,0,0,0,0c0,0,0,0,0,0c4.2-1.9,8.7-3.3,13.3-4.3c0,0,0,0,0,0
		c10.1-2.2,20.9-2.2,31.1,0.1c7.7,1.8,15,4.8,21.7,9l-8.1,8.5c0,0,0,0,0,0c-0.3-0.2-0.6-0.3-0.9-0.5c-0.3-0.1-0.5-0.3-0.8-0.4
		c-0.3-0.2-0.6-0.3-0.9-0.5c-0.3-0.1-0.5-0.3-0.8-0.4c-0.3-0.1-0.6-0.3-0.9-0.4c-0.3-0.1-0.5-0.3-0.8-0.4c-0.3-0.1-0.6-0.3-1-0.4
		c-0.2-0.1-0.3-0.1-0.5-0.2c0.6,3,0.9,6,1.1,9.1l-12,12.6c0.4-2.8,0.6-5.7,0.6-8.6c0-5.8-0.8-11.4-2.4-16.8
		c-1.7-0.3-3.5-0.5-5.3-0.7c-0.2,0-0.5,0-0.7,0c-0.7,0-1.4-0.1-2-0.1c-0.3,0-0.6,0-0.9,0c-0.6,0-1.2,0-1.8,0c-0.3,0-0.7,0-1,0
		c-0.6,0-1.2,0-1.8,0.1c-0.3,0-0.7,0-1,0.1c-0.6,0-1.2,0.1-1.8,0.2c-0.3,0-0.6,0.1-0.9,0.1c-0.9,0.1-1.8,0.2-2.6,0.4
		c-0.1,0.4-0.2,0.8-0.4,1.2c-0.1,0.2-0.1,0.4-0.2,0.7c-0.2,0.8-0.4,1.5-0.5,2.3c0,0.2-0.1,0.3-0.1,0.5c-0.1,0.6-0.3,1.2-0.4,1.9
		c0,0.3-0.1,0.5-0.1,0.8c-0.1,0.5-0.2,1-0.2,1.5c0,0.3-0.1,0.6-0.1,0.9c-0.1,0.5-0.1,1-0.2,1.5c0,0.3-0.1,0.6-0.1,0.9
		c0,0.5-0.1,1.1-0.1,1.6c0,0.3,0,0.5,0,0.8c0,0.8-0.1,1.6-0.1,2.4c0,0.9,0,1.8,0.1,2.7c0,0.3,0,0.6,0.1,0.9c0,0.6,0.1,1.2,0.1,1.8
		c0,0.3,0.1,0.7,0.1,1c0.1,0.6,0.1,1.1,0.2,1.7c0,0.3,0.1,0.7,0.2,1c0.1,0.5,0.2,1.1,0.3,1.6c0.1,0.3,0.1,0.7,0.2,1
		c0.1,0.6,0.2,1.1,0.4,1.7c0.1,0.3,0.1,0.6,0.2,0.9c0.2,0.7,0.4,1.5,0.6,2.2c0,0.1,0.1,0.2,0.1,0.3c0.2,0.8,0.5,1.7,0.8,2.5
		c0.1,0.2,0.2,0.5,0.3,0.7c0.2,0.6,0.4,1.2,0.6,1.7c0.1,0.3,0.2,0.6,0.4,0.9c0.2,0.5,0.4,1,0.7,1.5c0.1,0.3,0.3,0.6,0.4,0.9
		c0.2,0.5,0.5,1,0.7,1.5c0.1,0.1,0.1,0.3,0.2,0.4l-8.3,8.7c-4.5-7.7-7.5-16.1-8.9-24.9c-0.2-1.3-0.4-2.7-0.5-4
		c-0.2-2.3-0.3-4.5-0.3-6.8c0-1.1,0-2.2,0.1-3.2c0-0.4,0-0.7,0.1-1c0-0.7,0.1-1.4,0.2-2.2c0-0.4,0.1-0.8,0.1-1.2
		c0.1-0.7,0.1-1.3,0.2-1.9c0.1-0.4,0.1-0.9,0.2-1.3c0.1-0.6,0.2-1.2,0.3-1.9c0-0.2,0.1-0.4,0.1-0.6c-0.1,0-0.2,0.1-0.3,0.1
		c-0.1,0.2-0.3,0.3-0.4,0.5c-0.2,0.3-0.5,0.6-0.7,0.9c-0.3,0.4-0.5,0.7-0.8,1.1c-0.2,0.3-0.4,0.6-0.7,1c-0.2,0.4-0.5,0.7-0.7,1.1
		c-0.2,0.3-0.4,0.7-0.6,1c-0.2,0.4-0.5,0.8-0.7,1.2c-0.2,0.3-0.4,0.7-0.6,1c-0.2,0.4-0.4,0.8-0.6,1.2c-0.2,0.3-0.4,0.7-0.5,1
		c-0.2,0.4-0.4,0.8-0.6,1.2c-0.2,0.3-0.3,0.7-0.5,1c-0.2,0.4-0.4,0.8-0.5,1.2c-0.1,0.4-0.3,0.7-0.4,1.1c-0.2,0.4-0.3,0.8-0.5,1.3
		c-0.1,0.4-0.3,0.7-0.4,1.1c-0.2,0.4-0.3,0.9-0.4,1.3c-0.1,0.4-0.2,0.7-0.3,1.1c-0.1,0.4-0.3,0.9-0.4,1.3c-0.1,0.4-0.2,0.7-0.3,1.1
		c-0.1,0.5-0.2,0.9-0.3,1.4c-0.1,0.4-0.2,0.7-0.3,1.1c-0.1,0.5-0.2,0.9-0.3,1.4c-0.1,0.4-0.1,0.7-0.2,1.1c-0.1,0.5-0.1,1-0.2,1.4
		c-0.1,0.3-0.1,0.7-0.2,1c-0.1,0.5-0.1,1-0.2,1.5c0,0.3-0.1,0.7-0.1,1c0,0.6-0.1,1.1-0.1,1.7c0,0.3,0,0.6-0.1,0.8
		c0,0.8-0.1,1.7-0.1,2.5c0,9.8,2.4,19.3,6.9,27.8l-8.2,8.7c-6.6-11-10.1-23.5-10.1-36.5c0-1,0-2,0.1-3c0-0.3,0-0.7,0.1-1
		c0-0.7,0.1-1.3,0.1-2c0-0.4,0.1-0.8,0.1-1.2c0.1-0.6,0.1-1.2,0.2-1.8c0.1-0.4,0.1-0.8,0.2-1.2c0.1-0.6,0.2-1.1,0.3-1.7
		c0.1-0.4,0.2-0.8,0.2-1.3c0.1-0.5,0.2-1.1,0.3-1.6c0.1-0.4,0.2-0.9,0.3-1.3c0.1-0.5,0.2-1.1,0.4-1.6c0.1-0.4,0.2-0.9,0.3-1.3
		c0.1-0.5,0.3-1,0.4-1.6c0.1-0.4,0.3-0.9,0.4-1.3c0.1-0.3,0.2-0.6,0.3-0.9c-10.3,10.8-16.3,25.4-16.3,40.9c0,5.5,0.8,11,2.3,16.3
		c0.3,1.2,0.7,2.4,1.1,3.5C272.1,681.1,274.1,685.2,276.6,689z M386.8,619.6c6.9,11.1,10.5,23.8,10.5,37.2c0,8.2-1.4,16.2-4.1,23.8
		c0,0,0,0,0,0c-2.7,7.7-6.8,14.8-12,21.1c0,0,0,0,0,0c-13.5,16.4-33.5,25.9-54.8,25.9c-14.8,0-28.8-4.6-40.5-12.7l8.5-8.1
		c9.3,6,20.3,9.3,31.9,9.3c9.9,0,19.4-2.4,27.9-6.9c0,0,0,0,0,0c-1.2,0.1-2.5,0.1-3.7,0.1c-14.3,0-28.1-4.2-39.9-12.3
		c-1.1-0.8-2.2-1.6-3.3-2.4l8.5-8c0.4,0.3,0.9,0.6,1.3,0.9c9.9,6.7,21.4,10.3,33.4,10.3c1,0,2,0,3-0.1c0.3,0,0.7-0.1,1-0.1
		c0.7,0,1.3-0.1,2-0.2c0.4,0,0.8-0.1,1.2-0.1c0.6-0.1,1.2-0.1,1.8-0.2c0.4-0.1,0.8-0.1,1.3-0.2c0.6-0.1,1.1-0.2,1.7-0.3
		c0.4-0.1,0.9-0.2,1.3-0.3c0.5-0.1,1.1-0.2,1.6-0.4c0.4-0.1,0.9-0.2,1.3-0.4c0.5-0.1,1.1-0.3,1.6-0.5c0.4-0.1,0.9-0.3,1.3-0.4
		c0.5-0.2,1-0.4,1.6-0.5c0.4-0.2,0.8-0.3,1.3-0.5c0.3-0.1,0.6-0.2,0.9-0.4c1.9-2.4,3.6-4.9,5.1-7.6c-0.1,0-0.2,0-0.3,0
		c-0.5,0-1,0-1.4,0.1c-0.2,0-0.5,0-0.7,0c-0.7,0-1.4,0-2.1,0c-8.3,0-16.4-1.4-24.1-4.2c-1.9-0.7-3.8-1.5-5.7-2.3
		c-0.3-0.1-0.5-0.3-0.8-0.4c-0.3-0.2-0.7-0.3-1-0.5c-3.4-1.7-6.7-3.7-9.8-5.9c-0.3-0.2-0.6-0.5-0.9-0.7l8.5-8
		c0.3,0.2,0.5,0.4,0.8,0.6c0.4,0.2,0.7,0.5,1.1,0.7c0.6,0.4,1.1,0.7,1.7,1c0.4,0.2,0.7,0.4,1.1,0.6c0.6,0.4,1.3,0.7,1.9,1
		c0.3,0.2,0.6,0.3,0.9,0.5c1,0.5,1.9,0.9,2.9,1.3c8.7-8.6,14.4-19.6,16.6-31.4L386.8,619.6z M385.9,656.8c0-9.5-2.2-18.7-6.4-26.9
		c-0.6,16.1-6.6,31.4-16.9,43.5c3.7,0.7,7.4,1.1,11.2,1.1c1,0,1.9,0,2.9-0.1c0.3,0,0.6,0,0.9-0.1c0.7,0,1.4-0.1,2.2-0.2
		c0.3,0,0.6-0.1,0.8-0.1c1-0.1,1.9-0.2,2.9-0.4C385.1,668.2,385.9,662.6,385.9,656.8z M389.2,594.3c2.7,2.7,2.7,7.1-0.1,9.8
		L265.9,720.7c-0.8,0.8-2.2,0.8-3,0c-0.8-0.8-0.8-2.1,0-3l116.6-123.2C382.1,591.7,386.5,591.6,389.2,594.3z M386.7,596.8
		c-1.3-1.3-3.4-1.3-4.6,0l-15,15.8c-1,1.1-1,2.7,0.1,3.7c1,1,2.7,1.1,3.7,0.1l15.8-15c0.6-0.6,1-1.4,1-2.3
		C387.7,598.2,387.3,597.4,386.7,596.8z"/>
</g>
<path class="st4" d="M308.4,490.3l14.4-25c1.2-2-0.3-4.5-2.6-4.5h-10c-0.6,0-1.1-0.5-1.1-1.1v-41.6c0-1-0.8-1.8-1.8-1.8h-3.2
	c-1,0-1.8,0.8-1.8,1.8v41.6c0,0.6-0.5,1.1-1.1,1.1h-10c-2.3,0-3.8,2.5-2.6,4.5l14.4,25C304.4,492.3,307.3,492.3,308.4,490.3z"/>
<g>
</g>
<g>
</g>
<g>
</g>
<g>
</g>
<g>
</g>
<g>
</g>
<g>
</g>
<g>
</g>
<g>
</g>
<g>
</g>
<g>
</g>
<g>
</g>
<g>
</g>
<g>
</g>
<g>
</g>
</svg>
