<?xml version="1.0" encoding="utf-8"?>
<!-- Generator: Adobe Illustrator 26.3.1, SVG Export Plug-In . SVG Version: 6.00 Build 0)  -->
<svg version="1.1" id="Layer_1" xmlns="http://www.w3.org/2000/svg" xmlns:xlink="http://www.w3.org/1999/xlink" x="0px" y="0px"
	 viewBox="0 0 583.2 390.9" style="enable-background:new 0 0 583.2 390.9;" xml:space="preserve">
<style type="text/css">
	.st0{fill:#6B8DBE;}
	.st1{fill:#3C1094;}
	.st2{fill:none;}
	.st3{fill:#FFFFFF;}
</style>
<g>
	<rect class="st0" width="583.8" height="390.4"/>
	<g>
		<path class="st1" d="M106.3,252.2h-33c2.5-2.9,2.6-7.3,2.6-7.9v-32.8c0-0.6-0.1-5-2.6-7.9h33l-3.5,9l-4.3-3.3c0,0-0.4-0.3-1.1-0.6
			c-0.8-0.4-1.8-0.4-1.8-0.4H85.2v17.1h7.1h0.1c0.6,0,5-0.1,7.9-2.6v9.9c-4-2.6-7.9-2.6-7.9-2.6h-7.1v17.4h10.4c0,0,1,0,1.8-0.4
			c0.7-0.3,1.1-0.6,1.1-0.6l4.3-3.3L106.3,252.2z"/>
		<path class="st1" d="M117.2,209.2v8.2h8.3l-1.3,3.5h-6.8v23.4c0,0,0.4,2.2,2.9,3.5c0.8,0.4,2.1,0.6,3.4,0.6c3,0,6.4-0.8,6.4-0.8
			s-2.7,5.6-12.3,5.6c-8.2,0-9.3-6.8-9.4-8.8c0-0.1,0-0.2,0-0.3c0-3.1,0.8-23.1,0.8-23.1h-3.4L117.2,209.2z"/>
		<path class="st1" d="M162.7,244.2c0,0.8,0.2,3.4,2.6,8h-12.6c2.4-6.2,2.6-7.9,2.6-8.2v-0.1v-15.1v0c0-0.2-0.1-5.6-7.6-5.6
			c-1.6,0-3.4,0.4-5.6,1.4c0,6.4,0.1,13,0.1,19.3c0,0.4,0.1,4.1,2.6,8.3h-13.4c2.6-3.1,2.6-7.1,2.6-8.3v-34.4c0,0,0-3.9-2.6-6.2
			c0-0.1,10.6-4.9,10.6-4.9v24.2c1.5-1.4,7.7-6.5,12.7-6.5c7.8,0,8,5.7,8,9.1v0.6C162.6,229.3,162.7,244,162.7,244.2z"/>
		<path class="st1" d="M178.4,241.8c2.6,5.6,5.8,6.2,9.6,6.2c0.2,0,0.5,0,0.7,0c1.5,0,5.8-0.7,5.8-0.7c-0.6,0.7-3.9,5.8-11.7,5.8
			c-8.8,0-14.6-5.9-14.6-18.9c0-0.1,0-0.1,0-0.2c0-11.6,5.5-17.6,14.7-17.6c7.9,0,11,5.1,11,5.1L178.2,241
			C178.2,241,178,241.1,178.4,241.8z M177,221.5c0,0-0.1,0-0.1,0c-1.9,0-2.5,1.7-2.5,4c0,4.9,3,12.7,3,12.8c0,0,6.3-9.4,6.7-10.1
			c0.7-1.2,0.9-2.2,0.9-2.9c0-1.3-0.7-1.9-0.7-1.9S182.4,221.7,177,221.5z"/>
		<path class="st1" d="M206.3,243.8C206.3,243.8,206.4,243.8,206.3,243.8c0.1,0.4,0.1,4.1,2.7,8.3h-13.4c2.5-3,2.6-7.1,2.6-8.1
			c0-0.1,0-0.2,0-0.2V227c0,0,0-3.9-2.6-6.2c0,0,0,0,0,0c0-0.1,10.7-4.9,10.7-4.9v6.3c1.4-1.7,5.7-6.2,11.1-6.2c4.5,0,6,2.6,6,2.6
			l-6.8,8.5c0,0-1.7-3.7-6-3.7c-1.2,0-2.6,0.3-4.3,1V243.8z"/>
		<path class="st1" d="M232.3,241.8c2.6,5.6,5.8,6.2,9.6,6.2c0.2,0,0.5,0,0.7,0c1.5,0,5.8-0.7,5.8-0.7c-0.6,0.7-3.9,5.8-11.7,5.8
			c-8.8,0-14.6-5.9-14.6-18.9c0-0.1,0-0.1,0-0.2c0-11.6,5.5-17.6,14.7-17.6c7.9,0,11,5.1,11,5.1L232.1,241
			C232.1,241,232,241.1,232.3,241.8z M230.9,221.5c0,0-0.1,0-0.1,0c-1.9,0-2.5,1.7-2.5,4c0,4.9,3,12.7,3,12.8c0,0,6.3-9.4,6.7-10.1
			c0.7-1.2,0.9-2.2,0.9-2.9c0-1.3-0.7-1.9-0.7-1.9S236.4,221.7,230.9,221.5z"/>
		<path class="st1" d="M253.1,219.9c0,0,3.3-3.7,9.1-3.7c1.7,0,3.7,0.3,5.9,1.2c9.6,3.8,9.8,9.1,9.8,9.3c0,0,0,0,0,0v16.5
			c0,0,0,0,0,0.1c0,0.6,0.1,4.1,2.5,6l-7.6,3.3c0,0-3.1-0.7-3.1-4.7v-1.2c-1.4,1.4-6.2,6.3-10.1,6.3c-4.2,0-11-7.1-11-12
			c0-1.5,0.6-2.9,2.2-3.7c6-3.1,13.8-7,18.4-9.2v-0.3c0,0,0-6.8-2.5-6.8c-4.2,0-8.2,3.4-10.2,7.5L253.1,219.9z M260.3,236.2
			c-1.9,1.2-2.6,2.8-2.6,4.5c0,2.2,1.3,4.2,3,4.6c0.9,0.2,1.9,0.3,2.9,0.3c2.3,0,4.7-0.4,6-1l-0.3-13.9
			C268.3,231.3,266,232.7,260.3,236.2z"/>
		<path class="st1" d="M292.9,243.9c0,0.7,0.1,3.9,2.8,8.3h-13.4c2.6-3.1,2.6-7.1,2.6-8.3v-34.4c0,0,0-3.9-2.6-6.2
			c0-0.1,10.6-4.9,10.6-4.9V243.9z"/>
	</g>
	<g>
		<path class="st1" d="M145.8,282.7c0,0.1,0,0.1-0.1,0.3c-0.1,0.1-0.2,0.2-0.3,0.3c-0.1,0.1-0.2,0.2-0.3,0.3
			c-0.1,0.1-0.2,0.2-0.2,0.2c-0.1,0-0.2,0.1-0.3,0.2c-0.1,0.1-0.1,0.1-0.2,0.2c-0.2,0.6-0.6,1-1.3,1.1c-0.1,0-0.2,0.1-0.3,0.1
			s-0.1,0.2-0.2,0.3c-0.1,0.1-0.1,0.2-0.2,0.3c-0.1,0.1-0.1,0.2-0.2,0.2c-0.3,0.1-0.6,0.2-0.9,0.2c-0.3,0-0.6,0.1-0.8,0.3
			c-0.2,0.2-0.3,0.3-0.4,0.6c-0.1,0.2-0.2,0.4-0.4,0.5c-0.2,0.1-0.4,0.2-0.6,0.1c-0.2,0-0.4,0-0.6,0.1c-0.1,0-0.2,0.1-0.2,0.2
			c-0.1,0.1-0.1,0.2-0.2,0.3c-0.1,0.1-0.1,0.1-0.2,0.2c-0.1,0-0.2,0.1-0.3,0.1c-0.2,0-0.5,0-0.7,0.1c-0.2,0.1-0.4,0.2-0.6,0.2
			l-0.4,0.1l0,0.1c-0.3,0.1-0.6,0.1-0.9,0.3c-0.3,0.1-0.6,0.2-0.8,0.3c-0.2,0-0.5,0.1-0.7,0.1c-0.2,0-0.5,0.1-0.7,0.2
			c-0.2,0.1-0.4,0.2-0.6,0.3c-0.2,0.1-0.4,0.2-0.7,0.2c-0.2,0-0.4,0-0.6,0c-0.2,0-0.4-0.1-0.6-0.2c-0.1,0-0.2,0-0.3,0
			c-0.1,0-0.2,0.1-0.3,0.1c-0.1,0-0.2,0.1-0.3,0.1c-0.1,0-0.2,0-0.3,0c-0.2-0.1-0.4-0.1-0.6-0.2c-0.1,0-0.2-0.1-0.3-0.1
			c-0.1,0-0.2-0.1-0.3-0.1c-0.1,0-0.2,0-0.4-0.1c-0.2-0.1-0.3-0.1-0.5-0.2c-0.2-0.1-0.3-0.2-0.5-0.3c-0.1-0.1-0.2-0.2-0.3-0.3
			c-0.1-0.2-0.2-0.3-0.4-0.4c-0.1-0.1-0.3-0.3-0.4-0.5c0,0-0.1-0.1-0.1-0.2c-0.1-0.1-0.1-0.1-0.2-0.1c0,0-0.1,0-0.1-0.1
			c0-0.1,0-0.2-0.1-0.3c0-0.1,0-0.2-0.1-0.4c0-0.2-0.1-0.3-0.1-0.5c0-0.2,0-0.3,0-0.5c0-0.2,0-0.4,0-0.6c0-0.2-0.1-0.3-0.2-0.5
			c-0.1-0.1-0.1-0.2,0-0.3c0-0.1,0.1-0.2,0.1-0.3c0.1-0.1,0.2-0.2,0.2-0.3c0-0.1,0-0.2,0.1-0.3c0-0.1,0-0.2,0-0.3
			c0-0.1,0.1-0.2,0.2-0.2c0.1-0.1,0.2-0.2,0.2-0.3c0-0.1,0-0.2,0-0.3c0-0.2,0.1-0.4,0.3-0.5c0.2-0.1,0.4-0.3,0.5-0.4
			c0.1-0.2,0.2-0.3,0.3-0.5c0.1-0.2,0.1-0.4,0.2-0.6c0.1-0.1,0.2-0.3,0.3-0.4c0.2-0.1,0.3-0.2,0.5-0.3c0.2-0.1,0.3-0.2,0.5-0.4
			c0.2-0.2,0.3-0.4,0.3-0.6c0,0,0-0.1,0-0.2c0-0.1-0.1-0.1-0.1-0.2c-0.1,0-0.1-0.1-0.2-0.1c-0.1,0-0.1-0.1-0.2-0.1
			c-0.2-0.1-0.3-0.2-0.4-0.4c-0.1-0.2-0.2-0.3-0.4-0.4c-0.2-0.1-0.3-0.2-0.5-0.3c-0.2-0.1-0.3-0.2-0.3-0.4c0-0.1-0.1-0.3-0.2-0.4
			c-0.1-0.2-0.1-0.3-0.1-0.4c0-0.2,0-0.3,0-0.4c0-0.1,0-0.3,0-0.4c0-0.2,0-0.5,0.1-0.7c0.1-0.2,0.1-0.4,0-0.7
			c0.1-0.3,0.1-0.6,0.2-1.1c0.1-0.4,0.2-0.8,0.4-1c0-0.1,0.1-0.2,0.2-0.3c0.1-0.1,0.2-0.2,0.2-0.2c0.2-0.1,0.3-0.3,0.4-0.5
			c0.1-0.2,0.2-0.3,0.4-0.4c0.2-0.1,0.3-0.3,0.4-0.5c0.1-0.2,0.2-0.4,0.2-0.6c0.1-0.2,0.2-0.4,0.4-0.5c0.1,0,0.2-0.1,0.2-0.2
			c0-0.1,0.1-0.2,0.1-0.3c0-0.1,0.1-0.2,0.1-0.2c0-0.1,0.1-0.1,0.1-0.1c0.1,0,0.2-0.1,0.1-0.2c0.1-0.1,0.2-0.1,0.3-0.1
			c0.1,0,0.2-0.1,0.4-0.2c0.2-0.1,0.3-0.2,0.4-0.2l0.2-0.2c0.2-0.1,0.3-0.3,0.4-0.5c0.1-0.2,0.2-0.3,0.4-0.5
			c0.2-0.1,0.4-0.2,0.5-0.3c0.2-0.1,0.3-0.2,0.5-0.4c0.1-0.1,0.2-0.1,0.3-0.2c0.1-0.1,0.2-0.1,0.3-0.2c0.3-0.2,0.6-0.3,0.9-0.4
			c0.3-0.1,0.6-0.2,0.9-0.3c0.1,0,0.3-0.2,0.4-0.3c0.1-0.2,0.3-0.3,0.6-0.3c0.1,0,0.2,0,0.3,0c0.1,0,0.2,0,0.3,0
			c0.1,0,0.1,0,0.2-0.1c0.1-0.1,0.1-0.1,0.1-0.2c0-0.1,0.1-0.2,0.1-0.3c0-0.1,0.1-0.1,0.1-0.2c0,0,0,0,0,0c0,0,0,0,0,0
			c0.3-0.1,0.5-0.1,0.7-0.1c0.2,0,0.4-0.1,0.7-0.3c0.2-0.1,0.4-0.2,0.6-0.1c0.2,0,0.4,0,0.6-0.2c0.2-0.2,0.3-0.2,0.5-0.2
			c0.2,0,0.4,0,0.7,0c0.3-0.1,0.6-0.1,0.8-0.1c0.2,0,0.3,0.1,0.4,0.1c0.1,0,0.3,0,0.4,0.1c0.3,0.1,0.6,0.2,0.8,0.2
			c0.1,0,0.2,0,0.3,0c0.1,0,0.2,0,0.3,0c0.1,0.1,0.2,0.2,0.3,0.2c0.1,0,0.1,0.1,0.2,0.1c0,0,0.1,0.1,0.1,0.1c0,0.1,0.1,0.2,0.2,0.3
			c0,0,0.1,0.1,0.1,0.2c0.1,0.1,0.1,0.1,0.2,0.2c0.1,0.1,0.1,0.1,0.2,0.2c0,0.1,0,0.1,0,0.1c0,0-0.1,0.1,0,0.2c0,0.1,0,0.2,0,0.3
			c0,0.1,0,0.2,0.1,0.3c0,0.1,0,0.2,0,0.2c0,0.1,0,0.2,0,0.3c0,0.1-0.1,0.2-0.1,0.3c-0.1,0.2-0.2,0.5-0.2,0.7c0,0.2-0.1,0.5-0.2,0.7
			c0,0.1-0.1,0.3-0.2,0.4c-0.1,0.1-0.2,0.3-0.2,0.4c-0.1,0.2-0.2,0.3-0.2,0.5c0,0.2-0.1,0.3-0.1,0.5c0,0.1,0,0.1,0,0.2
			c0,0.1,0,0.1,0,0.1c-0.1,0-0.1,0.1-0.2,0.1c0,0-0.1,0-0.1,0.1c0,0,0,0.2,0,0.4c0,0.2,0,0.4,0,0.6c-0.1,0.1-0.1,0.3-0.2,0.4
			c-0.1,0.1-0.2,0.2-0.3,0.3c-0.1,0.1-0.2,0.2-0.2,0.4c0,0.1,0,0.3,0,0.4c0,0.1,0,0.1-0.1,0.2c-0.1,0.1-0.1,0.1-0.2,0.1
			c-0.1,0-0.2,0.1-0.3,0.1c-0.1,0-0.2,0.1-0.2,0.1c-0.1,0-0.2,0.1-0.3,0.2c-0.1,0.1-0.2,0.2-0.3,0.3c-0.1,0.1-0.2,0.2-0.3,0.4
			c-0.1,0.1-0.2,0.2-0.2,0.3c-0.1,0.2-0.3,0.2-0.5,0.3c-0.2,0-0.4,0.1-0.5,0.2c-0.2,0.1-0.3,0.2-0.5,0.2c-0.1,0-0.2,0-0.3,0
			c-0.1,0-0.2-0.1-0.3-0.1c-0.2-0.1-0.3-0.2-0.3-0.4c-0.1-0.1-0.1-0.2-0.1-0.3c0-0.2,0-0.3,0-0.5c0-0.2,0.1-0.3,0.1-0.5
			c0-0.2,0.1-0.3,0.1-0.4c0-0.2,0.1-0.4,0.1-0.6c0-0.2,0-0.5,0-0.6c0-0.1,0-0.2,0.1-0.3c0.1-0.1,0.1-0.2,0.2-0.2
			c0.1-0.1,0.2-0.2,0.2-0.3c0.1-0.1,0.1-0.2,0.1-0.4c0-0.1,0.1-0.2,0.2-0.2c0.1-0.1,0.2-0.1,0.3-0.1c0.1,0,0.2,0,0.3-0.1
			c0.1,0,0.2-0.1,0.3-0.2c0.2-0.2,0.2-0.3,0.3-0.5c0-0.2,0.1-0.4,0.3-0.5c0.2-0.2,0.3-0.3,0.5-0.3c0.2,0,0.4-0.1,0.5-0.3
			c0.2-0.2,0.4-0.4,0.6-0.6c0.2-0.2,0.3-0.5,0.3-0.8c0-0.1,0-0.2,0-0.3c0-0.1,0-0.2,0.1-0.3c0,0,0-0.1,0.1-0.2
			c0-0.1,0.1-0.2,0.1-0.3c0-0.1,0-0.2,0-0.3c0-0.1,0-0.1-0.1-0.1c-0.2-0.2-0.3-0.3-0.5-0.3c-0.2-0.1-0.4-0.2-0.4-0.3
			c0-0.1-0.1-0.1-0.2-0.1c-0.2,0.1-0.2,0.2-0.2,0.2c0,0.1-0.1,0.2-0.2,0.3c-0.1,0.1-0.2,0.1-0.3,0.1c-0.1,0-0.3,0-0.5,0.1
			c-0.2,0.1-0.4,0.1-0.6,0.2c-0.2,0-0.3,0.1-0.4,0c-0.1,0-0.2,0-0.4,0c-0.1,0-0.3,0-0.4,0c-0.1,0-0.3,0.1-0.4,0.2
			c-0.1,0.1-0.3,0.2-0.4,0.4c-0.1,0.2-0.3,0.3-0.4,0.4c-0.2,0.1-0.3,0.2-0.5,0.3c-0.1,0.1-0.2,0.1-0.3,0.1c-0.1,0-0.2,0-0.3,0
			c-0.1,0-0.2,0-0.3,0c-0.1,0-0.2,0.1-0.3,0.2c-0.1,0.1-0.2,0.1-0.3,0.2c-0.1,0.1-0.3,0.2-0.4,0.3c-0.2,0.1-0.3,0.2-0.5,0.3
			c-0.2,0.1-0.3,0.1-0.3,0.2c-0.2,0.1-0.4,0.2-0.5,0.4c-0.1,0.2-0.3,0.3-0.4,0.3c-0.1,0-0.2,0.1-0.2,0.1c-0.1,0-0.2,0.1-0.4,0.1
			c-0.2,0-0.4,0.1-0.5,0.2c-0.1,0-0.1,0.1-0.2,0.2c-0.1,0.1-0.1,0.2-0.1,0.2c-0.2,0.4-0.4,0.7-0.6,1c-0.3,0.3-0.6,0.5-1,0.6
			c-0.2,0-0.3,0.1-0.4,0.2c-0.1,0.1-0.2,0.2-0.2,0.4c-0.1,0.1-0.1,0.3-0.2,0.4c-0.1,0.1-0.1,0.3-0.2,0.4l-0.4,0.4
			c-0.2,0.2-0.3,0.3-0.3,0.5c-0.1,0.2-0.1,0.3-0.2,0.5c-0.1,0.2-0.2,0.4-0.3,0.5c-0.1,0.2-0.2,0.3-0.4,0.5c-0.1,0.1-0.1,0.2-0.2,0.3
			c0,0.1-0.1,0.2-0.1,0.3c0,0.1-0.1,0.2,0,0.3c0,0.1,0,0.2,0,0.3c0,0.5,0,0.9,0.1,1.2c0.1,0.3,0.4,0.5,1,0.6c0.2,0,0.4,0.1,0.6,0.3
			c0.2,0.2,0.4,0.2,0.6,0.2c0.2,0,0.4,0,0.6,0.1c0.1,0,0.2,0,0.3,0c0.1,0,0.2-0.1,0.3-0.2c0.1-0.1,0.3-0.2,0.4-0.3
			c0.2-0.1,0.3-0.2,0.5-0.3c0.1-0.1,0.3-0.1,0.5-0.1c0.2,0,0.4,0,0.6-0.2c0.2-0.1,0.3-0.2,0.5-0.1c0.3,0,0.5,0,0.8-0.1
			c0.3-0.1,0.5-0.1,0.6-0.1c0.2,0,0.3,0.1,0.3,0.2c0,0.1,0.1,0.3,0.1,0.4c0,0.2,0,0.3-0.1,0.5c0,0.2-0.1,0.3-0.1,0.4
			c0,0,0,0.1,0,0.1c0,0,0.1,0,0.1,0c0,0,0,0,0.1,0c0,0,0,0,0,0.1c0,0,0,0.1,0,0.1c0,0,0,0-0.1,0.1c-0.2,0.2-0.3,0.3-0.4,0.4
			c-0.1,0.1-0.2,0.1-0.3,0.2c-0.1,0-0.2,0.1-0.3,0.1c-0.1,0-0.2,0.1-0.4,0.2c-0.1,0.1-0.2,0.1-0.3,0.2s-0.2,0.1-0.3,0.1
			c-0.1,0-0.2,0-0.3,0c-0.1,0-0.2-0.1-0.3-0.1c-0.1,0-0.2-0.1-0.3-0.1c-0.1,0-0.2,0-0.3,0c-0.1,0-0.1,0.1-0.2,0.1
			c-0.1,0.1-0.2,0.1-0.2,0.2c-0.2,0.1-0.4,0.2-0.5,0.2c-0.1,0-0.2,0-0.3,0.1c-0.1,0.1-0.1,0.2-0.2,0.3c-0.1,0.1-0.1,0.2-0.2,0.2
			c-0.1,0-0.2,0.1-0.3,0.1c-0.1,0-0.2,0.1-0.2,0.1c-0.1,0.1-0.1,0.2-0.2,0.3c-0.1,0.3-0.2,0.5-0.4,0.8c-0.2,0.2-0.4,0.5-0.6,0.6
			c-0.2,0.1-0.4,0.2-0.6,0.3c-0.2,0.1-0.4,0.2-0.5,0.4c-0.1,0.2-0.1,0.3-0.1,0.6c0,0.2,0,0.5-0.1,0.7c-0.1,0.2-0.2,0.3-0.4,0.5
			c-0.1,0.1-0.1,0.2-0.2,0.3c0,0.1,0,0.2,0,0.3c0,0.1,0,0.2,0,0.3c0,0.1-0.1,0.2-0.2,0.3c-0.1,0.1-0.1,0.2,0,0.3
			c0.1,0.1,0.2,0.2,0.2,0.4c0.1,0.2,0.1,0.4,0,0.6c0,0.1,0,0.2,0.1,0.3c0.1,0.1,0.2,0.3,0.3,0.4c0.1,0.1,0.3,0.2,0.4,0.3
			c0.1,0.1,0.3,0.1,0.4,0.1c0.1,0,0.2,0,0.2,0.1c0.1,0.1,0.1,0.1,0.2,0.2c0.1,0.2,0.3,0.3,0.4,0.3c0.2,0,0.4,0,0.6-0.1
			c0.2,0,0.4,0,0.6,0.1c0.2,0.1,0.4,0.2,0.6,0.2c0.1,0,0.2,0,0.2,0c0.1,0,0.2,0,0.2,0c0.1,0,0.2,0,0.3,0c0.2,0,0.4,0,0.5-0.1
			s0.3-0.2,0.4-0.3c0.1-0.1,0.2-0.1,0.3-0.1c0.1,0,0.2,0,0.3,0c0.1,0,0.2,0,0.3,0c0.1,0,0.2-0.1,0.3-0.2c0.1-0.1,0.2-0.1,0.2-0.1
			s0.2,0,0.3,0.1c0.1,0,0.2,0,0.3,0c0.1,0,0.2-0.1,0.3-0.2c0.1-0.1,0.2-0.1,0.3-0.2c0.1,0,0.2-0.1,0.3,0c0.2,0,0.4,0,0.6-0.3
			c0.1-0.2,0.3-0.3,0.5-0.3c0.2,0,0.4-0.1,0.6-0.2c0.2-0.1,0.3-0.2,0.4-0.4c0.1-0.1,0.2-0.2,0.3-0.2c0.1,0,0.2,0,0.3,0
			c0.1,0,0.2,0,0.3,0c0.1,0,0.2-0.1,0.3-0.1c0.2-0.1,0.3-0.3,0.4-0.4c0.1-0.1,0.3-0.3,0.5-0.3c0.2-0.1,0.4-0.2,0.5-0.2
			c0.1-0.1,0.3-0.2,0.4-0.4c0.1-0.2,0.3-0.2,0.5-0.2c0.1,0,0.2,0,0.3,0c0.1,0,0.2-0.1,0.2-0.2c0.1-0.1,0.1-0.1,0.2-0.2
			c0.1-0.1,0.2-0.1,0.3-0.1c0.3-0.1,0.5-0.3,0.7-0.5c0.2,0,0.4-0.1,0.5-0.2c0.1-0.1,0.2-0.1,0.4-0.1c0.1,0,0.1,0,0.3-0.1
			c0.1-0.1,0.2-0.1,0.3-0.2c0.1-0.1,0.2-0.1,0.3-0.2c0.1-0.1,0.2-0.1,0.2-0.1c0.1,0,0.2,0,0.3,0s0.2,0,0.3-0.1c0.1,0,0.2,0,0.2,0.1
			C145.8,282.5,145.8,282.6,145.8,282.7z"/>
		<path class="st1" d="M167,281.9c-0.1,0.6-0.2,1-0.3,1.4c-0.1,0.3-0.3,0.6-0.5,0.8c-0.2,0.2-0.5,0.4-0.8,0.6
			c-0.3,0.2-0.7,0.4-1.1,0.8c-0.2,0.1-0.3,0.2-0.4,0.3c-0.1,0.1-0.3,0.2-0.4,0.3c-0.4,0.1-0.9,0.3-1.4,0.6c-0.6,0.3-1.1,0.5-1.7,0.8
			c-0.6,0.3-1.1,0.5-1.7,0.7c-0.5,0.2-1,0.3-1.3,0.2c-0.1,0.2-0.3,0.2-0.6,0.3c-0.3,0-0.5,0.1-0.7,0.1c-0.2,0-0.5,0-0.8,0.1
			c-0.3,0-0.5,0.2-0.7,0.3c0,0-0.1,0.1-0.1,0.1c0,0,0,0,0,0c0,0,0,0,0,0c0,0,0,0-0.1,0.1c-0.2,0.2-0.4,0.4-0.6,0.4
			c-0.2,0-0.4,0-0.6-0.1c-0.2-0.1-0.4-0.2-0.6-0.3c-0.2-0.1-0.4-0.2-0.7-0.3c-0.2-0.1-0.4-0.1-0.7,0c-0.2,0-0.5,0.2-0.7,0.5
			c-0.1-0.3-0.3-0.5-0.6-0.6c-0.3-0.1-0.6-0.1-0.9-0.1c-0.3,0-0.6,0-0.8-0.1c-0.3,0-0.5-0.2-0.5-0.5v0l-0.6-0.5l-0.1,0.1
			c-0.1,0.1-0.2,0.2-0.2,0.3c-0.1,0.1-0.1,0.2-0.2,0.3c-0.2,0.2-0.3,0.5-0.5,0.7c-0.2,0.2-0.4,0.4-0.6,0.6c-0.2,0.2-0.5,0.3-0.7,0.4
			c-0.2,0.1-0.5,0.1-0.8,0.1c0-0.5,0.1-0.9,0.4-1.3c0.3-0.4,0.5-0.8,0.7-1.1c0.2-0.4,0.4-0.8,0.5-1.2c0.1-0.4-0.1-0.8-0.5-1.3
			c0-0.3-0.1-0.5-0.4-0.8c-0.2-0.3-0.4-0.5-0.6-0.8c-0.2-0.3-0.3-0.5-0.3-0.8c0-0.2,0.1-0.5,0.5-0.7c-0.2,0-0.3-0.1-0.3-0.2
			c0-0.1,0-0.2,0.1-0.3c0-0.1,0.1-0.2,0.1-0.3c0.1,0,0.2,0,0.4-0.1c0.1,0,0.2-0.1,0.3-0.1c0.1,0,0.2,0,0.3,0c0.1,0,0.2,0.1,0.2,0.3
			c0.1,0.1,0.1,0.2,0.1,0.4c0,0.1,0.1,0.3,0.1,0.4c0.2,0.4,0.3,0.7,0.6,1.1c0.2,0.3,0.5,0.6,0.8,0.9l0.1,0.1c0,0,0-0.1,0.1-0.1
			c0.1-0.1,0.2-0.2,0.3-0.2c0.1-0.1,0.2-0.2,0.3-0.2c0.1-0.1,0.1-0.1,0.2-0.2c0.2-0.2,0.5-0.4,0.7-0.6c0.2-0.2,0.4-0.4,0.6-0.6
			c0.2-0.2,0.3-0.4,0.4-0.7c0.1-0.3,0.1-0.6,0.1-0.9c0.6-0.4,1.2-0.8,1.8-1.3c0.6-0.5,1.2-1,1.8-1.4c0.6-0.5,1.2-0.9,1.9-1.2
			c0.6-0.4,1.3-0.6,2.1-0.7c0.2,0.3,0.4,0.5,0.6,0.7c0.2,0.2,0.5,0.3,0.7,0.5c0.2,0.2,0.4,0.4,0.6,0.6c0.2,0.2,0.3,0.6,0.4,1
			c0.2,0.8,0.2,1.6,0,2.3c-0.1,0.7-0.4,1.5-0.6,2.3c-0.2,0.5-0.3,0.9-0.4,1.4c-0.1,0.5-0.2,1-0.2,1.5l0.2,0.1
			c0.2-0.2,0.4-0.4,0.6-0.4c0.2-0.1,0.4-0.1,0.7-0.1c0.2,0,0.5-0.1,0.7-0.1c0.2,0,0.4-0.2,0.6-0.4c0.2,0.1,0.5,0.1,0.7,0
			c0.2-0.1,0.4-0.2,0.6-0.4c0.2-0.2,0.4-0.3,0.6-0.5c0.2-0.2,0.4-0.3,0.7-0.3l0-0.2c0.3-0.2,0.6-0.4,0.9-0.5
			c0.2-0.1,0.5-0.2,0.7-0.3c0.2-0.1,0.4-0.2,0.6-0.4c0.2-0.2,0.5-0.5,0.7-0.9c0.1,0,0.2-0.1,0.3,0
			C166.8,281.8,166.9,281.8,167,281.9z M156.9,279.1c-0.1,0-0.2-0.1-0.3-0.1c-0.1,0-0.2-0.1-0.3-0.1c-0.2-0.1-0.3-0.2-0.5-0.3
			c-0.2-0.1-0.3,0-0.5,0.1v0.1h0c-1,0.7-1.9,1.6-2.7,2.5c-0.8,0.9-1.7,1.8-2.6,2.6l-0.3-0.3c-0.1,0.2-0.2,0.4-0.2,0.5
			c0,0.2,0,0.4,0,0.5c0,0.2,0,0.3-0.1,0.5c0,0.2-0.2,0.3-0.3,0.4l-0.1,0.1c0.1,0.3,0.2,0.4,0.3,0.5c0.1,0.1,0.3,0.1,0.5,0.1
			c0.2,0,0.3,0,0.5,0c0.2,0,0.3,0,0.4,0.1c0.1,0,0.1,0.1,0.1,0.2c0,0.1,0,0.1,0,0.2c0.1,0,0.2,0,0.3,0c0.1,0,0.2,0,0.3,0
			c0.2,0,0.4,0,0.7,0c0.2,0,0.4,0.2,0.4,0.4c0.4-0.2,0.8-0.3,1.2-0.5c0.4-0.2,0.7-0.5,1-0.8l0.2,0.2c0,0,0,0,0,0c0,0,0,0,0,0
			c0.5-0.3,0.9-0.7,1.1-1.3c0.3-0.6,0.5-1.2,0.6-1.8c0.1-0.7,0.2-1.3,0.2-2C156.9,280.1,156.9,279.6,156.9,279.1z"/>
		<path class="st1" d="M185.8,281.1c-0.2,0.5-0.4,0.9-0.8,1.3c-0.4,0.4-0.7,0.8-1.1,1.2c-0.4,0.4-0.8,0.8-1.2,1.1
			c-0.4,0.4-0.7,0.8-1,1.2c-0.2-0.1-0.3,0-0.4,0.1c-0.1,0.1-0.2,0.2-0.3,0.4c-0.2,0.1-0.4,0.2-0.6,0.2c-0.2,0.1-0.4,0.2-0.6,0.3
			c-0.2,0.1-0.4,0.2-0.5,0.4c-0.2,0.2-0.3,0.3-0.4,0.6c-0.4,0-0.7,0.1-0.9,0.2c-0.3,0.1-0.5,0.3-0.8,0.4c-0.2,0.1-0.5,0.2-0.8,0.3
			c-0.3,0.1-0.6,0.1-1,0c-0.1,0.3-0.2,0.4-0.3,0.4c-0.1,0-0.3,0-0.4-0.1c-0.1-0.1-0.3-0.1-0.4-0.1c-0.1,0-0.2,0.1-0.3,0.4
			c-0.1,0-0.3,0-0.4,0c-0.1,0-0.3,0-0.4,0c-0.1,0-0.2,0-0.3,0.1c-0.1,0.1-0.2,0.2-0.2,0.3c-0.6,0-1.1,0-1.8,0.1
			c-0.6,0.1-1.2,0.1-1.8,0.1c-0.6,0-1.2-0.1-1.8-0.2c-0.6-0.1-1.1-0.4-1.5-0.9c-0.2-0.2-0.3-0.3-0.4-0.5c-0.1-0.2-0.2-0.3-0.3-0.5
			c-0.1-0.1-0.1-0.2-0.2-0.3c-0.1-0.1-0.1-0.2-0.2-0.3c-0.2-0.3-0.2-0.7-0.3-1.1c0-0.4,0-0.7,0-1.1c0-0.4,0-0.7,0-1.1
			c0-0.4-0.1-0.7-0.2-1c0-0.3,0.1-0.6,0.2-0.9c0.1-0.3,0.3-0.5,0.5-0.8c0.2-0.2,0.3-0.5,0.5-0.8c0.2-0.3,0.2-0.5,0.3-0.8
			c-0.1-0.3-0.1-0.6,0-0.9c0.2-0.3,0.3-0.6,0.5-0.9c0.1-0.1,0.1-0.2,0.2-0.3c0-0.1,0.1-0.2,0.2-0.3c0.1-0.1,0.1-0.2,0.2-0.3
			c0.1-0.1,0.2-0.2,0.3-0.3c0.2-0.3,0.5-0.7,0.7-1c0.2-0.3,0.5-0.7,0.7-1c0.2-0.2,0.3-0.5,0.5-0.7c0.2-0.2,0.3-0.5,0.5-0.7
			c0.1-0.1,0.2-0.2,0.2-0.4c0.1-0.1,0.2-0.3,0.2-0.4c0.1-0.1,0.3-0.2,0.5-0.4c0.2-0.1,0.4-0.3,0.5-0.3c0.4-0.2,0.8-0.3,1.2-0.4
			c0.4-0.1,0.9-0.1,1.2,0c0.4,0.1,0.7,0.3,1,0.5c0.3,0.3,0.5,0.7,0.6,1.2c0,0.2,0.1,0.5,0,0.7c0,0.2,0,0.5,0,0.7
			c0,0.2,0.1,0.4,0.2,0.6c0.1,0.2,0.3,0.4,0.5,0.6c-0.2,0.3-0.4,0.7-0.5,1c-0.1,0.3-0.3,0.7-0.5,1c0.2,0.1,0.3,0.2,0.2,0.3
			c0,0.2,0,0.3,0,0.4c-0.3,0.2-0.5,0.5-0.5,0.8c-0.1,0.3-0.2,0.6-0.2,0.9c-0.1,0.3-0.1,0.6-0.2,0.9c-0.1,0.3-0.2,0.5-0.5,0.7
			c0.1,0.6-0.1,1-0.6,1.2c-0.3,0.1-0.6,0.2-0.7,0.1c-0.1-0.1-0.2-0.2-0.2-0.4c0-0.2-0.1-0.3-0.2-0.5c-0.1-0.2-0.2-0.2-0.5-0.2
			c0-0.2,0.1-0.5,0.1-0.7c0-0.2,0.1-0.5,0.1-0.7c0.1-0.2,0.1-0.5,0.3-0.7c0.1-0.2,0.3-0.4,0.5-0.6c-0.2-0.1-0.2-0.2-0.2-0.4
			c0-0.2,0-0.4,0-0.6c0.1-0.4,0.3-0.8,0.6-1.2c0.3-0.4,0.5-0.8,0.7-1.3c0.2-0.4,0.3-0.9,0.4-1.3c0.1-0.4,0-0.9-0.3-1.3
			c-0.1-0.1-0.2-0.2-0.3-0.3c-0.1-0.1-0.3-0.1-0.4-0.1c-0.1,0-0.2,0-0.3,0.1c-0.1,0.1-0.1,0.2-0.1,0.5l0.2,0.2
			c-0.4,0.1-0.7,0.3-1,0.6c-0.3,0.3-0.5,0.6-0.8,0.9c-0.2,0.3-0.5,0.6-0.7,1c-0.2,0.3-0.5,0.6-0.8,0.8c-0.1,0.5-0.3,1-0.6,1.5
			c-0.3,0.5-0.6,0.9-0.8,1.4c-0.2,0.3-0.3,0.5-0.3,0.7c-0.1,0.2-0.2,0.4-0.3,0.7c0,0.1-0.1,0.2-0.1,0.3c0,0.1-0.1,0.2-0.1,0.3
			c-0.1,0.4-0.2,0.8-0.3,1.2c-0.1,0.4-0.3,0.7-0.7,1c0.1,0.2,0.1,0.3,0.2,0.4c0,0.1,0.1,0.3,0.3,0.4c-0.2,0.1-0.3,0.3-0.4,0.4
			c0,0.2,0,0.3,0,0.5c0,0.2,0.1,0.4,0.2,0.5c0.1,0.2,0.1,0.4,0.1,0.5c0.2,0,0.4,0.1,0.6,0.3c0.2,0.2,0.4,0.3,0.6,0.5
			c0.2,0.2,0.4,0.3,0.6,0.4c0.2,0.1,0.4,0.1,0.6-0.1c0.2,0,0.3,0,0.4,0c0.1,0,0.3,0,0.4,0c0.1,0,0.3,0,0.4,0.1
			c0.1,0.1,0.3,0.2,0.4,0.3c0.1-0.3,0.3-0.5,0.5-0.5c0.2-0.1,0.5-0.1,0.7-0.1c0.3,0,0.5,0,0.7,0c0.2,0,0.4-0.1,0.6-0.3
			c0.2,0.2,0.4,0.3,0.6,0.2c0.2,0,0.4-0.1,0.5-0.3c0.2-0.1,0.3-0.3,0.5-0.4c0.2-0.1,0.4-0.2,0.6-0.2c0.5,0,0.9-0.1,1.2-0.2
			c0.3-0.1,0.7-0.3,1-0.5c0.3-0.2,0.7-0.4,1-0.5c0.3-0.2,0.7-0.3,1.2-0.4c0.2-0.3,0.4-0.5,0.7-0.6c0.3-0.1,0.5-0.2,0.8-0.3
			c0.3-0.1,0.5-0.2,0.8-0.4s0.5-0.4,0.7-0.8c0.4,0,0.7-0.1,0.9-0.3c0.2-0.2,0.5-0.5,0.7-0.8c0.2-0.3,0.5-0.5,0.7-0.7
			C185.2,281,185.5,280.9,185.8,281.1z"/>
		<path class="st1" d="M202.3,286.1c-0.3,0.5-0.5,0.8-0.6,1.1c-0.1,0.3-0.3,0.5-0.4,0.7c-0.1,0.2-0.3,0.3-0.5,0.5
			c-0.2,0.1-0.4,0.3-0.8,0.5c-0.2,0.2-0.4,0.4-0.6,0.5c-0.2,0.1-0.3,0.2-0.5,0.3c-0.2,0.1-0.3,0.1-0.4,0.1c0,0-0.1,0-0.1,0
			c0,0-0.1,0-0.1,0c-0.1,0-0.2,0-0.3,0c-0.1,0-0.2-0.1-0.3-0.2c-0.1,0.1-0.1,0.1-0.1,0.2c0,0.1-0.1,0.1-0.1,0.2
			c0,0.1-0.1,0.1-0.2,0.2c-0.1,0-0.2,0-0.3,0l-0.1-0.2l-0.4,0.4c-0.5-0.3-1-0.5-1.5-0.7c-0.5-0.2-0.9-0.4-1.3-0.6
			c-0.4-0.2-0.7-0.6-1-1c-0.3-0.4-0.5-0.9-0.6-1.6c-0.1-0.1-0.2-0.2-0.3-0.3c-0.1-0.1-0.2-0.1-0.4-0.1c-0.2,0.3-0.4,0.6-0.7,0.8
			c-0.3,0.2-0.5,0.5-0.8,0.7c-0.1,0.1-0.2,0.2-0.2,0.3c-0.1,0.1-0.1,0.2-0.2,0.3c-0.2,0.2-0.3,0.3-0.5,0.4c-0.2,0.1-0.4,0.1-0.6,0.2
			c-0.2,0.1-0.4,0.2-0.6,0.3c-0.2,0.1-0.3,0.4-0.4,0.7c-0.2-0.1-0.5-0.2-0.7-0.1c-0.2,0-0.4,0.1-0.5,0.1c-0.2,0-0.4,0.1-0.6,0.1
			c-0.2,0-0.4,0-0.5-0.1s-0.3-0.2-0.5-0.4c-0.3,0.1-0.5,0.1-0.7,0c-0.2-0.1-0.4-0.3-0.6-0.5c-0.2-0.2-0.4-0.5-0.6-0.7
			c-0.2-0.2-0.4-0.4-0.5-0.5c-0.1-0.3-0.1-0.6,0-0.8c0.1-0.2,0.3-0.4,0.4-0.6c0.1-0.2,0.2-0.4,0.3-0.6c0.1-0.2,0-0.4-0.3-0.7
			c0.2-0.3,0.4-0.6,0.5-0.9c0.2-0.3,0.3-0.6,0.5-0.9c0.2-0.3,0.3-0.6,0.5-0.9c0.2-0.3,0.4-0.6,0.7-0.8c-0.1-0.1-0.2-0.3-0.2-0.4
			c0-0.1,0-0.2,0.1-0.4c0.1-0.1,0.1-0.2,0.2-0.4c0.1-0.1,0.1-0.2,0.2-0.4l0.8-0.4l-0.2-0.7c0.2,0,0.4,0,0.5,0
			c0.1-0.1,0.2-0.1,0.2-0.3c0-0.1,0.1-0.2,0.1-0.4c0-0.1,0.1-0.3,0.1-0.4c0.1-0.2,0.2-0.3,0.4-0.4c0.4-0.3,0.8-0.6,1.2-1
			c0.4-0.3,0.8-0.7,1.2-1c0.4-0.3,0.8-0.6,1.2-0.9c0.4-0.3,0.9-0.6,1.4-0.8c0.3,0.1,0.6,0.2,0.8,0.3c0.2,0.2,0.4,0.3,0.5,0.5
			c0.1,0.2,0.2,0.4,0.2,0.7c0.1,0.3,0.1,0.5,0.2,0.8c0.1,0.3,0.2,0.6,0.3,0.8c0.1,0.2,0.4,0.4,0.7,0.6c-0.3,0.5-0.4,0.9-0.3,1.4
			c0.1,0.5,0.1,0.9,0.2,1.4c0.1,0.5,0.1,0.9,0,1.4c-0.1,0.4-0.4,0.8-0.8,1.2c0,0.1,0,0.3,0,0.4c0,0.2,0,0.3,0,0.5
			c0,0.2,0,0.3-0.1,0.4c-0.1,0.1-0.2,0.2-0.3,0.3c0.2,0.2,0.3,0.4,0.3,0.6c0,0.2,0,0.4,0,0.6c0,0.2,0.1,0.4,0.1,0.5
			c0.1,0.2,0.3,0.3,0.6,0.3c0.1,0.2,0.1,0.4,0.2,0.6c0,0.1,0.1,0.2,0.2,0.3c0.1,0.1,0.2,0.1,0.3,0.2c0.1,0.1,0.3,0.2,0.5,0.3
			c0.2,0,0.3,0,0.5,0c0.2,0,0.3,0,0.5,0.2c0.1-0.1,0.2-0.1,0.3-0.2c0.1,0,0.3,0,0.4,0l0.4,0.6c0.2-0.2,0.5-0.3,0.7-0.4
			c0.3-0.1,0.5-0.2,0.8-0.3c0.3-0.1,0.6-0.1,0.9-0.2L202.3,286.1z M191.2,276.2c-0.2,0.2-0.4,0.3-0.6,0.5c-0.2,0.2-0.5,0.3-0.7,0.5
			c-0.2,0.2-0.4,0.4-0.6,0.6c-0.2,0.2-0.3,0.4-0.3,0.7c-0.4,0.1-0.7,0.3-0.9,0.5s-0.3,0.6-0.4,0.9c-0.1,0.3-0.2,0.7-0.4,1
			c-0.1,0.3-0.4,0.6-0.7,0.8c-0.1,0.1-0.2,0.1-0.3,0.1c0,0,0,0-0.2,0.1c-0.2,0.2-0.4,0.3-0.5,0.6c-0.2,0.2-0.3,0.5-0.4,0.7
			c-0.1,0.3-0.2,0.5-0.3,0.8c-0.1,0.3-0.2,0.5-0.2,0.8c-0.3,0-0.5,0.1-0.6,0.2c-0.1,0.1-0.2,0.2-0.2,0.2c0,0.1,0,0.2,0,0.3
			c0,0.1,0.1,0.2,0.2,0.4c0.1,0.1,0.2,0.2,0.2,0.4c0.1,0.2,0.2,0.3,0.2,0.5c0.1,0.2,0.1,0.3,0.1,0.5c0,0.2,0,0.3-0.1,0.4
			c0.3,0.2,0.5,0.3,0.8,0.1c0.2-0.1,0.5-0.3,0.7-0.4c0.1-0.1,0.2-0.1,0.2-0.2c0.1-0.1,0.2-0.1,0.3-0.2c0.4,0.1,0.8,0.1,1.2-0.1
			c0.4-0.2,0.7-0.4,1-0.6c0.3-0.3,0.6-0.6,0.9-0.9c0.3-0.3,0.6-0.6,0.9-0.8l-0.2-0.2c0.3-0.1,0.6-0.2,0.7-0.4
			c0.1-0.2,0.2-0.3,0.3-0.6c0-0.2,0-0.4,0-0.7c0-0.2-0.1-0.5-0.1-0.8c0-0.2,0-0.3,0-0.4c0-0.1,0-0.3,0.1-0.4
			c-0.2-0.4-0.2-0.9-0.1-1.3c0.1-0.4,0.2-0.8,0.4-1.2c0.2-0.4,0.4-0.8,0.5-1.1c0.2-0.4,0.3-0.8,0.3-1.2L191.2,276.2z"/>
		<path class="st1" d="M223,282.1c0,0.5-0.2,0.9-0.4,1.3c-0.2,0.4-0.5,0.7-0.8,1c-0.3,0.3-0.7,0.6-1.1,0.8c-0.4,0.2-0.8,0.5-1.1,0.7
			c-0.2-0.1-0.3-0.1-0.5,0c-0.2,0.1-0.3,0.2-0.5,0.3c-0.2,0.1-0.4,0.2-0.5,0.2c-0.2,0-0.4,0-0.6-0.2c-0.2,0.3-0.3,0.5-0.6,0.5
			c-0.2,0-0.5,0-0.7-0.1c-0.2,0-0.5-0.1-0.7,0c-0.2,0-0.4,0.2-0.5,0.6l-0.2-0.2c-0.3,0.2-0.7,0.5-1,0.8c-0.3,0.3-0.7,0.7-1,1
			c-0.4,0.3-0.7,0.6-1.1,0.7c-0.4,0.2-0.8,0.2-1.3,0.1c-0.1,0.2-0.3,0.3-0.5,0.3c-0.2,0-0.4-0.1-0.6-0.2c-0.2-0.1-0.4-0.3-0.6-0.5
			c-0.2-0.2-0.3-0.3-0.4-0.4c-0.1,0.2-0.2,0.2-0.3,0.2c-0.1,0-0.2-0.1-0.3-0.2c-0.1-0.1-0.2-0.2-0.3-0.3c-0.1-0.1-0.2-0.1-0.4-0.1
			c-0.3-0.8-0.6-1.5-1-2c-0.4-0.5-0.9-1.1-1.5-1.7c-0.1,0.2-0.1,0.4-0.2,0.6c-0.1,0.2-0.2,0.3-0.3,0.5c-0.1,0.2-0.2,0.3-0.3,0.5
			c-0.1,0.2-0.1,0.4-0.2,0.6l-0.2,0.2c0.2,0.3,0.3,0.6,0.2,0.8c-0.1,0.2-0.2,0.4-0.4,0.6c-0.2,0.2-0.3,0.4-0.5,0.6
			c-0.2,0.2-0.2,0.5-0.2,0.8c-0.1,0.1-0.2,0.3-0.3,0.5c-0.1,0.2-0.1,0.4-0.2,0.6c0,0.2-0.1,0.5-0.1,0.7c0,0.2-0.1,0.4-0.2,0.6
			c0.1,0.2,0,0.4-0.1,0.5c-0.1,0.1-0.2,0.2-0.4,0.4c-0.1,0.1-0.3,0.3-0.4,0.4c-0.1,0.2-0.2,0.4-0.1,0.6c0,0.2,0,0.3,0,0.3
			c0,0,0,0.1,0,0.3c0,0.3-0.1,0.5-0.2,0.8c-0.1,0.3-0.4,0.4-0.7,0.4c0.2,0.5,0.3,0.8,0.2,1.1c0,0.3-0.1,0.5-0.3,0.6
			c-0.2,0.2-0.4,0.3-0.6,0.4c-0.2,0.1-0.4,0.2-0.6,0.4c-0.2,0.2-0.4,0.4-0.5,0.6c-0.1,0.3-0.1,0.6-0.1,1c0.1,0.5,0,0.9-0.2,1.2
			c-0.2,0.3-0.4,0.5-0.7,0.8c-0.2,0.2-0.5,0.5-0.6,0.8c-0.2,0.3-0.1,0.7,0,1.2c-0.1,0.2-0.1,0.4-0.2,0.4c-0.1,0-0.2,0-0.3,0
			c-0.1,0-0.2-0.1-0.4-0.2c-0.1-0.1-0.3-0.1-0.4-0.1c0-0.2,0-0.3-0.1-0.4c-0.1-0.1-0.2-0.3-0.2-0.4c-0.1-0.1-0.1-0.3-0.1-0.4
			c0-0.1,0.1-0.3,0.2-0.5c-0.2-0.2-0.3-0.4-0.3-0.6c0-0.2,0-0.5,0.1-0.7c0.1-0.3,0.1-0.5,0.2-0.8c0.1-0.2,0.1-0.5,0.2-0.7
			c0.2-0.2,0.3-0.5,0.4-0.7c0.1-0.3,0.2-0.5,0.2-0.8c0-0.3,0.1-0.6,0.2-0.8c0.1-0.3,0.2-0.5,0.4-0.7c-0.1-0.4-0.1-0.8,0-1.1
			c0.1-0.3,0.3-0.6,0.4-0.8c0.2-0.2,0.4-0.5,0.5-0.8c0.2-0.3,0.2-0.6,0.2-1c0.4-0.9,0.8-1.8,1.4-2.6c0.5-0.9,1-1.8,1.3-2.7
			c0.4-0.4,0.8-0.9,1.1-1.5c0.3-0.6,0.4-1.2,0.5-1.8c0.2-0.2,0.4-0.4,0.5-0.6c0.1-0.2,0.2-0.5,0.3-0.7c0.1-0.2,0.2-0.4,0.4-0.7
			c0.2-0.2,0.4-0.4,0.7-0.5c-0.1-0.3-0.1-0.5-0.1-0.6c0-0.2,0.1-0.4,0.2-0.6c0.2-0.1,0.3-0.1,0.3-0.3c0-0.1,0-0.3,0-0.4
			c0-0.1,0-0.3,0-0.4c0-0.2,0.1-0.3,0.2-0.4c0.1-0.1,0.1-0.1,0.1-0.1c0,0,0.1-0.1,0.1-0.1c0.1-0.2,0.2-0.3,0.3-0.5
			c0.1-0.2,0.2-0.4,0.3-0.6c0.1-0.2,0.3-0.3,0.4-0.4c0.2-0.1,0.4-0.1,0.6-0.1c0.1,0.1,0.2,0.2,0.3,0.4c0.1,0.2,0.1,0.3,0.2,0.5
			c0.1,0.2,0.1,0.3,0.2,0.4c0.1,0.1,0.2,0.1,0.4,0.1c0.1,0,0.2,0,0.3-0.1c0.2-0.2,0.5-0.4,0.7-0.5c0.2-0.2,0.5-0.4,0.7-0.6
			c0.2,0.2,0.3,0.2,0.4,0.2c0.1,0,0.2-0.1,0.4-0.2c0.1-0.1,0.3-0.2,0.4-0.3c0.1-0.1,0.3-0.2,0.5-0.2c0.8-0.1,1.5,0,2.1,0.2
			c0.6,0.2,1.2,0.6,1.7,1.3c0.1,0.1,0.2,0.2,0.3,0.4c0.1,0.1,0.2,0.3,0.3,0.4c0.2,0.3,0.2,0.7,0.3,1.1c0,0.4,0,0.9,0,1.4
			c0,0.5-0.1,1-0.1,1.4c0,0.5-0.1,0.9-0.1,1.2l1,0.8c1.2-0.2,2.4-0.5,3.6-1C221,283.6,222,282.9,223,282.1z M213.7,283.9
			c-0.2-0.3-0.3-0.6-0.3-0.9c0-0.3,0.1-0.6,0.2-0.9c0.1-0.3,0.2-0.6,0.2-0.9c0.1-0.3,0-0.6-0.1-0.9c-0.1-0.3-0.3-0.5-0.4-0.7
			c-0.1-0.2-0.3-0.5-0.4-0.7c-0.5-0.3-1-0.4-1.4-0.3c-0.4,0.1-0.8,0.2-1.3,0.5c-0.4,0.2-0.8,0.5-1.3,0.7c-0.4,0.2-0.9,0.3-1.4,0.3
			c-0.2,0.2-0.3,0.4-0.5,0.5c-0.2,0.1-0.4,0.3-0.5,0.4c-0.2,0.1-0.4,0.2-0.6,0.3c-0.2,0.1-0.4,0.2-0.6,0.4c-0.2,0.5-0.1,1,0.1,1.3
			c0.2,0.3,0.5,0.6,0.9,0.8c0.4,0.2,0.8,0.4,1.2,0.7c0.4,0.2,0.7,0.6,0.9,1c0.4-0.2,0.7-0.2,1-0.2c0.3,0.1,0.6,0.2,1,0.3
			c0.3,0.1,0.6,0.2,0.9,0.2c0.3,0,0.6-0.2,0.9-0.5c0.2,0.2,0.4,0.2,0.5,0.1c0.2-0.1,0.3-0.2,0.4-0.3c0.1-0.1,0.2-0.3,0.3-0.5
			C213.5,284.2,213.6,284,213.7,283.9z M212,287.2c-0.1,0-0.2,0-0.3,0c-0.1,0-0.2-0.1-0.3-0.2l-0.2,0.2c-0.2,0.1-0.3,0.1-0.5,0
			c-0.2-0.1-0.3-0.1-0.5-0.2c-0.2,0.1-0.4,0.1-0.6,0.1c-0.2,0-0.4-0.1-0.7-0.2c-0.2-0.1-0.4-0.2-0.6-0.3c-0.2-0.1-0.4-0.2-0.6-0.3
			c0,0.3,0.1,0.5,0.3,0.6c0.1,0.1,0.3,0.2,0.5,0.2c0.2,0.1,0.4,0.1,0.6,0.2c0.2,0.1,0.3,0.2,0.5,0.5c0.5,0.1,0.9,0.1,1.3,0
			C211.3,287.9,211.7,287.7,212,287.2z"/>
		<path class="st1" d="M242.5,280.3c-0.2,0.2-0.3,0.3-0.4,0.4c-0.1,0.1-0.2,0.2-0.2,0.3c-0.1,0.1-0.1,0.2-0.2,0.3
			c-0.1,0.1-0.2,0.2-0.4,0.4c-0.2,0.2-0.3,0.3-0.4,0.5c-0.1,0.2-0.3,0.3-0.5,0.5c-0.2-0.1-0.4,0-0.5,0.1c-0.1,0.1-0.2,0.2-0.3,0.4
			c-0.1,0.1-0.2,0.3-0.3,0.4s-0.2,0.2-0.3,0.2c-0.5,0.2-0.9,0.5-1.4,0.6c-0.5,0.2-0.9,0.4-1.3,0.8l-0.2-0.2l-3,1.4
			c-0.1,0-0.2,0.1-0.3,0.2c-0.1,0.1-0.2,0.1-0.3,0.2c-0.4,0.2-0.9,0.4-1.3,0.6c-0.5,0.2-0.9,0.3-1.3,0.5l-0.4,0.1
			c0.2,0.4,0.2,0.7,0,0.8c-0.2,0.2-0.4,0.3-0.7,0.3c-0.3,0.1-0.6,0.1-0.9,0.1c-0.3,0-0.6,0.1-0.8,0.2c-0.2,0-0.5-0.1-0.7,0
			c-0.2,0-0.5,0-0.7,0.1c-0.3,0-0.5,0.1-0.7,0.1c-0.2,0-0.5,0-0.7-0.1h-0.1c-0.3,0.2-0.6,0.2-0.8,0.1c-0.2-0.1-0.5-0.2-0.6-0.4
			c-0.2-0.2-0.4-0.4-0.5-0.7c-0.2-0.3-0.3-0.5-0.5-0.8c-0.1-0.2-0.3-0.4-0.4-0.7c-0.2-0.3-0.3-0.6-0.4-0.9c-0.1-0.3-0.2-0.7-0.2-1
			c0-0.3,0-0.6,0.2-0.9c0.2-0.2,0.3-0.5,0.4-0.8c0.1-0.3,0.2-0.6,0.2-1c0-0.1,0-0.3,0-0.4c0-0.1,0-0.2,0-0.4c0.1,0,0.2,0,0.3,0
			s0.2,0,0.3,0c0.1,0,0.2,0,0.3-0.1c0.1-0.1,0.1-0.2,0.1-0.4c0-0.1,0-0.2-0.1-0.2c-0.1-0.1-0.1-0.1-0.1-0.2c0.1-0.2,0.2-0.3,0.3-0.4
			c0.1-0.1,0.2-0.2,0.3-0.3c0.1-0.1,0.1-0.2,0.2-0.4c0-0.1,0-0.3,0-0.6c0.2-0.4,0.5-0.8,0.8-1.1c0.3-0.3,0.6-0.6,1-0.9
			c0.3-0.3,0.7-0.6,1.1-0.8c0.4-0.3,0.7-0.6,1-0.9c0.4,0.2,0.7,0.2,0.9,0c0.2-0.2,0.4-0.3,0.6-0.5c0.2-0.2,0.3-0.3,0.5-0.4
			c0.2-0.1,0.4-0.1,0.7,0.1l0.1,0.1c0.5-0.5,1-0.7,1.6-0.7c0.5,0.1,1,0.2,1.4,0.5c0.4,0.3,0.6,0.6,0.7,1c0.1,0.4,0,0.6-0.3,0.8
			c0.2,0.2,0.3,0.5,0.3,0.7s-0.1,0.5-0.2,0.7c-0.2,0.2-0.3,0.5-0.4,0.7c-0.1,0.2-0.3,0.5-0.4,0.8c-0.2,0.4-0.4,0.9-0.6,1.3
			c-0.2,0.4-0.6,0.7-1,1c-0.3-0.1-0.6-0.1-0.7,0.1c-0.1,0.2-0.2,0.4-0.3,0.6c-0.1,0.2-0.1,0.4-0.2,0.5c-0.1,0.1-0.2,0.1-0.5-0.1
			l-0.1-0.1l-0.1,0.1c-0.2,0.2-0.3,0.3-0.4,0.5c-0.1,0.2-0.2,0.3-0.4,0.4c-0.2-0.1-0.4-0.1-0.5-0.1c-0.2,0-0.4-0.1-0.5-0.1
			c0,0.4-0.1,0.7-0.2,0.9c-0.2,0.2-0.3,0.4-0.6,0.6c-0.2,0.1-0.5,0.3-0.8,0.3c-0.3,0.1-0.6,0.2-0.9,0.3c-0.3,0.1-0.6,0.3-0.8,0.5
			c-0.3,0.2-0.5,0.4-0.6,0.8c0.2,0.2,0.4,0.3,0.7,0.4c0.3,0,0.6,0,0.9,0c0.3,0,0.6,0,0.9,0c0.3,0,0.6,0.1,0.8,0.2l0,0l0,0
			c0.5-0.1,0.9-0.2,1.3-0.3c0.4-0.2,0.9-0.3,1.3-0.5c0.4-0.2,0.8-0.4,1.3-0.5c0.4-0.2,0.9-0.3,1.3-0.4c0.1,0.2,0.2,0.2,0.4,0.3
			c0.2,0,0.3,0,0.5,0l0-0.1c0-0.1,0.1-0.3,0.1-0.4c0-0.1,0.1-0.2,0.2-0.4c0.1-0.2,0.3-0.4,0.5-0.5c0.2-0.1,0.4-0.2,0.6-0.3
			c0.2-0.1,0.5-0.1,0.7-0.1c0.2,0,0.5,0,0.7-0.1h0.1l0-0.1c0.1-0.2,0.2-0.4,0.3-0.5c0.1-0.1,0.3-0.1,0.4-0.2c0.1,0,0.3-0.1,0.5-0.1
			c0.2,0,0.3-0.1,0.5-0.2c0.3,0.1,0.6,0.1,0.9-0.1s0.5-0.4,0.7-0.6l0.2,0.3l0.1-0.1c0.3-0.3,0.5-0.5,0.6-0.6
			c0.1-0.1,0.3-0.3,0.4-0.4c0.1-0.1,0.3-0.2,0.5-0.3c0.2-0.1,0.4-0.3,0.8-0.5c0.3-0.2,0.5-0.3,0.8-0.5c0.3-0.2,0.5-0.4,0.8-0.6
			c0.1,0,0.1,0.1,0.1,0.2c0,0.1,0,0.2,0,0.3c0,0,0,0.1,0,0.2C242.4,280.2,242.4,280.3,242.5,280.3z M230.6,276.7
			C230.6,276.7,230.5,276.7,230.6,276.7C230.5,276.7,230.5,276.7,230.6,276.7c-0.5-0.3-0.8-0.4-1.1-0.4c-0.3,0-0.5,0.1-0.7,0.2
			c-0.2,0.1-0.4,0.3-0.6,0.5c-0.2,0.2-0.4,0.4-0.6,0.6c-0.2,0.2-0.4,0.3-0.7,0.4c-0.3,0.1-0.6,0.1-1,0c-0.1,0.3-0.1,0.6-0.2,0.9
			c0,0.3-0.1,0.6-0.1,0.9c-0.3,0.1-0.6,0.3-0.8,0.5c-0.2,0.2-0.3,0.4-0.5,0.7c-0.1,0.2-0.2,0.5-0.3,0.8c-0.1,0.3-0.2,0.5-0.4,0.8
			l0.1,0.1c0.1,0,0.2,0,0.3,0.1c0.1,0.1,0.2,0.2,0.2,0.2c0.2-0.3,0.5-0.6,0.8-0.8c0.4-0.2,0.7-0.4,1.1-0.6c0.4-0.2,0.7-0.4,1.1-0.6
			c0.3-0.2,0.6-0.5,0.8-0.8c0.6-0.2,1.1-0.5,1.4-1c0.3-0.5,0.6-1.1,0.8-1.6c0-0.1,0.1-0.3,0.2-0.5
			C230.5,277,230.6,276.8,230.6,276.7z"/>
		<path class="st1" d="M269.4,268.3c-0.3,0.3-0.6,0.4-0.9,0.4c-0.3,0-0.6,0-1-0.1c-0.3-0.1-0.6-0.1-0.9-0.1c-0.3,0-0.6,0.2-0.8,0.5
			c-0.3-0.1-0.6-0.1-0.9,0c-0.3,0-0.7,0.1-1,0.2c-0.3,0.1-0.7,0.2-1,0.2c-0.3,0.1-0.7,0.1-1,0.1l-0.5-0.5c-0.1,0.2-0.3,0.3-0.6,0.4
			c-0.2,0-0.5,0-0.7-0.2c-0.4,0.3-0.8,0.4-1.2,0.4c-0.4,0-0.8,0-1.2,0c-0.4,0-0.7,0.1-1.1,0.2c-0.3,0.2-0.6,0.6-0.8,1.2
			c-0.2,0.4-0.3,0.9-0.5,1.3c-0.2,0.5-0.3,0.9-0.5,1.3c-0.4,1.1-0.8,2.3-1.3,3.4c-0.4,1.1-0.9,2.2-1.5,3.3c0,0.9,0,1.7,0.1,2.6
			c0.1,0.9,0.2,1.8,0.3,2.6c-0.1,0.2-0.1,0.5-0.1,0.7c0,0.2,0.1,0.5,0.2,0.7c0.1,0.2,0.2,0.5,0.3,0.7c0.1,0.2,0.3,0.4,0.4,0.6
			l0.5-0.5l0.7,1c0.2-0.2,0.4-0.5,0.7-0.8c0.3-0.3,0.5-0.5,0.8-0.8c0.3-0.2,0.6-0.4,0.9-0.6c0.3-0.2,0.6-0.3,1-0.3
			c0.1-0.1,0.3-0.3,0.4-0.4c0.1-0.2,0.2-0.3,0.4-0.4c0.1-0.1,0.3-0.2,0.4-0.2c0.2,0,0.4,0,0.6,0c0.6-0.3,1.2-0.8,1.6-1.3
			c0.5-0.5,1-1.1,1.4-1.6c0.5-0.5,1-1,1.5-1.5c0.5-0.4,1.1-0.7,1.9-0.9c-0.5,1.1-1,2.2-1.8,3.2c-0.7,1-1.5,2-2.4,2.8
			c-0.2,0.3-0.5,0.5-0.9,0.7c-0.2,0.1-0.3,0.2-0.5,0.3c-0.2,0.1-0.3,0.2-0.5,0.3c-0.5,0.3-1,0.7-1.5,1.1c-0.5,0.4-0.9,0.8-1.4,1.3
			c-0.1-0.1-0.1-0.2-0.2-0.2c-0.1,0-0.2-0.1-0.3-0.1c-0.1,0-0.2,0-0.4,0c-0.1,0-0.2,0-0.3,0c-0.4,0.3-0.8,0.5-1.4,0.6
			c-0.6,0.2-1.1,0.2-1.6,0.1c-0.1,0-0.3-0.1-0.5-0.2s-0.4-0.2-0.5-0.3c-0.7-0.5-1.3-1.1-1.7-1.9c-0.4-0.7-0.6-1.5-0.6-2.4l-0.2-0.2
			c0.2-0.2,0.4-0.5,0.5-0.7c0.1-0.2,0.1-0.5,0.1-0.7c0-0.2-0.1-0.5-0.1-0.7c-0.1-0.3-0.1-0.5-0.1-0.8c0-0.2,0-0.3,0-0.4
			s0.1-0.2,0.1-0.4c0.2-0.6,0.3-1.2,0.4-1.8c0.1-0.6,0.3-1.2,0.4-1.8c0.4-1.5,0.8-2.9,1.3-4.3c0.5-1.4,1-2.8,1.6-4.2
			c-0.3-0.1-0.6-0.2-0.9-0.2c-0.3,0-0.6,0-0.9,0s-0.6,0-0.9,0c-0.3,0-0.6-0.1-0.9-0.2c-0.1-0.1-0.2-0.1-0.2-0.1c0,0-0.1,0-0.2,0
			c-0.1,0-0.2,0-0.4,0c-0.2,0-0.3,0-0.5,0s-0.3,0-0.5-0.1c-0.1,0-0.2-0.1-0.2-0.3v-0.3c0-0.3,0.1-0.5,0.2-0.6
			c0.1-0.1,0.3-0.2,0.4-0.2c0.2,0,0.4,0,0.6-0.1c0.2,0,0.4-0.1,0.6-0.2c0.5,0.1,1,0.2,1.5,0.2c0.5,0,0.9,0,1.4,0
			c0.5-0.1,0.9-0.2,1.3-0.4c0.4-0.2,0.9-0.5,1.3-0.9c0.3-0.6,0.5-1.2,0.7-1.9c0.2-0.7,0.3-1.4,0.5-2c0.2-0.7,0.5-1.3,0.8-1.8
			c0.3-0.6,0.8-1,1.5-1.4c0.3,0,0.6,0,0.8,0.1c0.2,0.1,0.5,0.2,0.7,0.4c-0.1,0.3-0.2,0.5-0.2,0.8c-0.1,0.3-0.1,0.6-0.2,0.9
			c-0.1,0.3-0.1,0.6-0.2,0.8c-0.1,0.3-0.2,0.5-0.4,0.7c0.2,0.1,0.4,0.2,0.4,0.3c0,0.1,0,0.3-0.1,0.4c-0.1,0.2-0.2,0.3-0.3,0.5
			c-0.1,0.2-0.2,0.3-0.2,0.5c-0.2,0-0.4,0.2-0.5,0.4c-0.1,0.2-0.3,0.4-0.4,0.6c-0.2,0.3-0.1,0.6,0.1,0.8c0.2,0.2,0.4,0.5,0.6,0.7
			c0.2,0.1,0.3,0.1,0.5,0s0.3-0.1,0.5-0.2c0.1-0.1,0.3-0.1,0.4-0.1c0.1,0,0.3,0.1,0.4,0.2c0.2-0.2,0.4-0.3,0.6-0.3
			c0.2,0,0.4,0.1,0.6,0.1c0.2,0.1,0.4,0.1,0.6,0.1c0.2,0,0.4-0.2,0.5-0.4c0.2-0.1,0.4-0.1,0.6-0.1c0.2,0.1,0.4,0.1,0.6,0.2
			c0.2,0.1,0.3,0.2,0.5,0.2c0.2,0,0.3,0,0.5-0.1c0.3,0,0.6,0,1,0c0.4,0,0.7-0.1,1.1-0.1c0.4-0.1,0.7-0.1,1.1-0.2
			c0.4-0.1,0.7-0.2,1-0.2c0.3,0.2,0.5,0.3,0.5,0.5c0.1,0.1,0.1,0.3,0,0.4c0,0.1-0.1,0.3-0.1,0.4
			C269.3,267.9,269.3,268.1,269.4,268.3z"/>
		<path class="st1" d="M280.9,285.7c-0.4,0.9-0.8,1.5-1.2,2c-0.4,0.5-0.8,0.9-1.2,1.3c-0.5,0.3-1,0.6-1.6,0.9s-1.4,0.7-2.4,1.1
			c-0.4-0.1-0.8-0.1-1.1-0.1c-0.4,0-0.7,0.1-1,0.1c-0.3,0-0.7,0-1-0.1c-0.3-0.1-0.6-0.3-0.8-0.7h-0.4c0-0.2,0-0.5-0.1-0.8
			c-0.1-0.3-0.3-0.4-0.6-0.5c0.2-0.2,0.3-0.4,0.4-0.7c0.1-0.3,0.1-0.5,0.1-0.8c0-0.3,0.1-0.5,0.1-0.8c0.1-0.2,0.2-0.5,0.4-0.6
			c-0.2-0.3-0.3-0.6-0.3-0.9c0-0.3,0.2-0.6,0.3-0.9c0.2-0.3,0.3-0.6,0.5-0.9c0.2-0.3,0.3-0.6,0.3-1c-0.2-0.1-0.3-0.3-0.5-0.5
			c-0.1-0.2-0.3-0.3-0.6-0.2c-0.5,0.5-1,1-1.6,1.4c-0.5,0.5-1,0.9-1.5,1.4c-0.5,0.5-0.9,1-1.4,1.5c-0.4,0.5-0.8,1.1-1.2,1.7
			c-0.3,0.1-0.6,0.2-0.7,0.5s-0.3,0.5-0.5,0.8c-0.1,0.3-0.3,0.5-0.4,0.8c-0.2,0.2-0.4,0.4-0.7,0.5c-0.1,0.3-0.2,0.6-0.3,0.9
			c-0.1,0.3-0.2,0.6-0.3,0.9c-0.1-0.1-0.3-0.1-0.4-0.1c-0.2,0-0.4-0.1-0.5-0.1s-0.3-0.1-0.5-0.2c-0.1-0.1-0.2-0.2-0.3-0.3
			c0,0,0-0.1,0-0.2c0-0.1,0-0.2,0-0.2c0-0.5,0.2-1,0.4-1.5c0.2-0.5,0.5-0.9,0.8-1.4c0.3-0.5,0.5-0.9,0.7-1.4c0.2-0.5,0.4-1,0.4-1.5
			c0.3,0,0.5-0.1,0.6-0.3s0.2-0.4,0.2-0.5c0-0.2,0.1-0.4,0.2-0.5c0.1-0.2,0.2-0.2,0.5-0.2c-0.2-0.2-0.2-0.5-0.2-0.8
			c0-0.3,0.1-0.6,0.2-0.8c0.1-0.3,0.3-0.5,0.4-0.8c0.2-0.3,0.3-0.5,0.4-0.7c0-0.3,0-0.5,0.1-0.8c0.1-0.3,0.2-0.5,0.4-0.7
			c0.2-0.2,0.3-0.4,0.5-0.6c0.1-0.2,0.3-0.4,0.4-0.6c0.1-0.1,0.1-0.2,0.2-0.3c0-0.1,0.1-0.2,0.2-0.3c0.2-0.2,0.3-0.5,0.3-0.8
			c0.1-0.3,0.1-0.6,0.2-0.8c0.1-0.3,0.2-0.5,0.3-0.7c0.1-0.2,0.3-0.4,0.7-0.5c0-0.2,0-0.4,0.1-0.6c0.1-0.2,0.1-0.4,0.2-0.6
			c0.1-0.2,0.1-0.4,0.2-0.6c0.1-0.2,0.1-0.4,0.1-0.6c0.1-0.1,0.1-0.2,0.3-0.3c0.1-0.1,0.2-0.2,0.3-0.3c0.1-0.1,0.2-0.2,0.2-0.3
			c0.1-0.1,0.1-0.2,0-0.4c0-0.2,0-0.5,0-0.8c0-0.3,0-0.5,0.2-0.7c0-0.2,0-0.5,0.1-0.6c0.1-0.2,0.2-0.3,0.4-0.4
			c0.2-0.1,0.3-0.2,0.5-0.3c0.2-0.1,0.3-0.2,0.5-0.4c-0.1-0.1-0.1-0.3-0.1-0.5c0.1-0.2,0.1-0.3,0.2-0.5c0.1-0.2,0.2-0.3,0.4-0.5
			c0.1-0.2,0.2-0.3,0.3-0.4c0.1-0.2,0.2-0.5,0.3-0.7c0.1-0.2,0.2-0.4,0.3-0.6c0.1-0.2,0.3-0.4,0.4-0.6c0.2-0.2,0.4-0.3,0.6-0.4
			c-0.1-0.4-0.1-0.7,0.1-0.9c0.1-0.2,0.3-0.4,0.5-0.5c0.2-0.2,0.5-0.3,0.7-0.4c0.2-0.1,0.5-0.3,0.6-0.6c0.2-0.1,0.4-0.1,0.7-0.2
			c0.2-0.1,0.5-0.1,0.7-0.1c0.2,0,0.5,0,0.7,0c0.2,0,0.4,0.1,0.6,0.3c0.1,0.1,0.1,0.1,0.1,0.1c0,0,0,0,0,0c0,0,0,0,0,0.1
			c0,0,0.1,0.1,0.1,0.2c0.1,0.1,0.2,0.1,0.2,0.2c0.1,0.1,0.2,0.1,0.2,0.2c0,0.1,0,0.3,0,0.4c0,0.2,0,0.3,0,0.5s0,0.3,0.1,0.4
			c0,0.1,0.2,0.2,0.4,0.3c-0.2,0.6-0.2,1.2-0.2,1.8c0,0.6,0,1.3,0,1.9c0,0.6,0,1.3-0.1,1.9c-0.1,0.6-0.3,1.1-0.7,1.6l-0.2,1.5
			c-0.2,0-0.4,0.1-0.5,0.2c-0.1,0.1-0.2,0.3-0.2,0.5c0,0.2-0.1,0.4-0.1,0.6c0,0.2-0.1,0.4-0.2,0.5c-0.2,0.2-0.3,0.4-0.5,0.7
			c-0.2,0.2-0.3,0.5-0.5,0.7c-0.2,0.2-0.4,0.4-0.6,0.5c-0.2,0.1-0.5,0.2-0.8,0.2c0,0.1-0.1,0.2-0.2,0.4c-0.1,0.2-0.2,0.3-0.4,0.4
			c-0.1,0.1-0.3,0.3-0.4,0.4c-0.2,0.1-0.3,0.2-0.4,0.2c-0.2,0.1-0.3,0.1-0.4,0.1c-0.1,0-0.3,0.1-0.4,0.2c-0.2,0.1-0.3,0.2-0.5,0.4
			c-0.2,0.2-0.4,0.3-0.5,0.4c-0.2,0.1-0.4,0.2-0.6,0.2c-0.2,0-0.4,0-0.6-0.1c-0.2,0.3-0.5,0.5-0.8,0.6c-0.3,0.1-0.6,0.1-0.9,0.1
			c-0.3,0-0.6,0.1-0.8,0.2c-0.3,0.1-0.5,0.3-0.6,0.7c0,0-0.1,0.1-0.1,0.2c0,0.1,0,0.2,0,0.2c0,0.2,0,0.5,0,0.8
			c0,0.3,0.1,0.5,0.2,0.7c0.7-0.3,1.3-0.7,2-1.2c0.6-0.5,1.3-0.8,2-1.1l0.2,0.2c0.1-0.4,0.2-0.6,0.5-0.6c0.3,0,0.6,0,0.9,0h0.2
			c0,0,0.1,0,0.1,0c0,0,0.1,0,0.1,0c0.4,0,0.6,0.1,0.7,0.4c0.1,0.3,0.2,0.6,0.3,0.8c-0.2,0.2-0.4,0.5-0.5,0.8
			c-0.1,0.3-0.2,0.6-0.3,1c-0.1,0.3-0.2,0.7-0.3,1c-0.1,0.3-0.3,0.6-0.5,0.9c0.2,0.1,0.2,0.2,0.2,0.3c0,0.1-0.1,0.2-0.1,0.3
			c0,0.1-0.1,0.2,0,0.3c0,0.1,0.1,0.2,0.4,0.2c-0.2,0.1-0.3,0.3-0.4,0.5c-0.1,0.2-0.1,0.4-0.2,0.6c0,0.2-0.1,0.4-0.2,0.6
			c-0.1,0.2-0.2,0.3-0.3,0.5c0.1,0.2,0.1,0.3,0.2,0.5c0,0.2,0.1,0.3,0,0.6c0.3,0.3,0.5,0.5,0.8,0.6c0.3,0,0.6,0,0.8-0.1
			c0.3-0.1,0.5-0.2,0.8-0.2c0.3-0.1,0.6-0.1,0.9,0.1c0.5-0.4,0.9-0.6,1.1-0.7c0.2-0.1,0.4-0.1,0.5-0.2c0.1,0,0.3-0.1,0.4-0.3
			c0.2-0.1,0.5-0.4,1-0.9c0.5-0.1,0.9-0.4,1.3-0.7C280.1,286.1,280.5,285.9,280.9,285.7z M276.6,262.2c0,0.2,0,0.4-0.2,0.5
			c-0.1,0.1-0.3,0.2-0.4,0.3c-0.2,0.1-0.3,0.2-0.4,0.3c-0.1,0.1-0.2,0.3-0.2,0.5c-0.2,0.1-0.4,0.3-0.5,0.5c-0.1,0.2-0.1,0.4-0.2,0.6
			c0,0.2-0.1,0.4-0.2,0.6c-0.1,0.2-0.3,0.3-0.6,0.5l0.2,0.2c-0.6,0.6-1.1,1.3-1.5,2s-0.7,1.6-1,2.4c-0.3,0.3-0.5,0.6-0.6,1
			c-0.1,0.4-0.2,0.7-0.3,1.1c-0.1,0.4-0.2,0.7-0.4,1c-0.2,0.3-0.4,0.6-0.8,0.7c0.2,0.2,0.3,0.5,0.2,0.7c0,0.2-0.1,0.4-0.3,0.6
			c-0.2,0.2-0.3,0.4-0.5,0.6c-0.2,0.2-0.3,0.4-0.3,0.6c0.4,0.1,0.7,0.1,1.1,0c0.4-0.1,0.7-0.2,1-0.4c0.3-0.2,0.7-0.4,1-0.6
			c0.3-0.2,0.6-0.4,0.9-0.6l0.2,0.2c0.9-0.5,1.6-1.1,2.1-1.7c0.6-0.7,1.1-1.4,1.6-2.2c-0.2-0.1-0.2-0.3-0.2-0.4
			c0-0.1,0.1-0.2,0.1-0.3c0.1-0.1,0.1-0.2,0.1-0.3c0.2-0.6,0.3-1.1,0.4-1.6c0.2-1,0.4-2.1,0.5-3.1c0.1-1,0.2-2.1,0.2-3.1
			L276.6,262.2z"/>
		<path class="st1" d="M301,280.3c-0.2,0.2-0.3,0.3-0.4,0.4c-0.1,0.1-0.2,0.2-0.2,0.3c-0.1,0.1-0.1,0.2-0.2,0.3
			c-0.1,0.1-0.2,0.2-0.4,0.4c-0.2,0.2-0.3,0.3-0.4,0.5c-0.1,0.2-0.3,0.3-0.5,0.5c-0.2-0.1-0.4,0-0.5,0.1c-0.1,0.1-0.2,0.2-0.3,0.4
			c-0.1,0.1-0.2,0.3-0.3,0.4c-0.1,0.1-0.2,0.2-0.3,0.2c-0.5,0.2-0.9,0.5-1.4,0.6c-0.5,0.2-0.9,0.4-1.3,0.8l-0.2-0.2l-3,1.4
			c-0.1,0-0.2,0.1-0.3,0.2c-0.1,0.1-0.2,0.1-0.3,0.2c-0.4,0.2-0.9,0.4-1.3,0.6c-0.5,0.2-0.9,0.3-1.3,0.5l-0.4,0.1
			c0.2,0.4,0.2,0.7,0,0.8c-0.2,0.2-0.4,0.3-0.7,0.3c-0.3,0.1-0.6,0.1-0.9,0.1c-0.3,0-0.6,0.1-0.8,0.2c-0.2,0-0.5-0.1-0.7,0
			c-0.2,0-0.5,0-0.7,0.1c-0.3,0-0.5,0.1-0.7,0.1c-0.2,0-0.5,0-0.7-0.1h-0.1c-0.3,0.2-0.6,0.2-0.8,0.1c-0.2-0.1-0.5-0.2-0.6-0.4
			c-0.2-0.2-0.4-0.4-0.5-0.7c-0.2-0.3-0.3-0.5-0.5-0.8c-0.1-0.2-0.3-0.4-0.4-0.7c-0.2-0.3-0.3-0.6-0.4-0.9c-0.1-0.3-0.2-0.7-0.2-1
			c0-0.3,0-0.6,0.2-0.9c0.2-0.2,0.3-0.5,0.4-0.8c0.1-0.3,0.2-0.6,0.2-1c0-0.1,0-0.3,0-0.4c0-0.1,0-0.2,0-0.4c0.1,0,0.2,0,0.3,0
			c0.1,0,0.2,0,0.3,0c0.1,0,0.2,0,0.3-0.1c0.1-0.1,0.1-0.2,0.1-0.4c0-0.1,0-0.2-0.1-0.2c-0.1-0.1-0.1-0.1-0.1-0.2
			c0.1-0.2,0.2-0.3,0.3-0.4c0.1-0.1,0.2-0.2,0.3-0.3c0.1-0.1,0.1-0.2,0.2-0.4c0-0.1,0-0.3,0-0.6c0.2-0.4,0.5-0.8,0.8-1.1
			c0.3-0.3,0.6-0.6,1-0.9c0.3-0.3,0.7-0.6,1.1-0.8c0.4-0.3,0.7-0.6,1-0.9c0.4,0.2,0.7,0.2,0.9,0c0.2-0.2,0.4-0.3,0.6-0.5
			c0.2-0.2,0.3-0.3,0.5-0.4c0.2-0.1,0.4-0.1,0.7,0.1l0.1,0.1c0.5-0.5,1-0.7,1.6-0.7c0.5,0.1,1,0.2,1.4,0.5c0.4,0.3,0.6,0.6,0.7,1
			c0.1,0.4,0,0.6-0.3,0.8c0.2,0.2,0.3,0.5,0.3,0.7s-0.1,0.5-0.2,0.7c-0.2,0.2-0.3,0.5-0.4,0.7c-0.1,0.2-0.3,0.5-0.4,0.8
			c-0.2,0.4-0.4,0.9-0.6,1.3c-0.2,0.4-0.6,0.7-1,1c-0.3-0.1-0.6-0.1-0.7,0.1c-0.1,0.2-0.2,0.4-0.3,0.6c-0.1,0.2-0.1,0.4-0.2,0.5
			c-0.1,0.1-0.2,0.1-0.5-0.1l-0.1-0.1l-0.1,0.1c-0.2,0.2-0.3,0.3-0.4,0.5c-0.1,0.2-0.2,0.3-0.4,0.4c-0.2-0.1-0.4-0.1-0.5-0.1
			c-0.2,0-0.4-0.1-0.5-0.1c0,0.4-0.1,0.7-0.2,0.9c-0.2,0.2-0.3,0.4-0.6,0.6c-0.2,0.1-0.5,0.3-0.8,0.3c-0.3,0.1-0.6,0.2-0.9,0.3
			c-0.3,0.1-0.6,0.3-0.8,0.5c-0.3,0.2-0.5,0.4-0.6,0.8c0.2,0.2,0.4,0.3,0.7,0.4c0.3,0,0.6,0,0.9,0c0.3,0,0.6,0,0.9,0
			c0.3,0,0.6,0.1,0.8,0.2l0,0l0,0c0.5-0.1,0.9-0.2,1.3-0.3c0.4-0.2,0.9-0.3,1.3-0.5c0.4-0.2,0.8-0.4,1.3-0.5
			c0.4-0.2,0.9-0.3,1.3-0.4c0.1,0.2,0.2,0.2,0.4,0.3c0.2,0,0.3,0,0.5,0l0-0.1c0-0.1,0.1-0.3,0.1-0.4c0-0.1,0.1-0.2,0.2-0.4
			c0.1-0.2,0.3-0.4,0.5-0.5c0.2-0.1,0.4-0.2,0.6-0.3c0.2-0.1,0.5-0.1,0.7-0.1c0.2,0,0.5,0,0.7-0.1h0.1l0-0.1
			c0.1-0.2,0.2-0.4,0.3-0.5c0.1-0.1,0.3-0.1,0.4-0.2c0.1,0,0.3-0.1,0.5-0.1c0.2,0,0.3-0.1,0.5-0.2c0.3,0.1,0.6,0.1,0.9-0.1
			c0.2-0.2,0.5-0.4,0.7-0.6l0.2,0.3l0.1-0.1c0.3-0.3,0.5-0.5,0.6-0.6c0.1-0.1,0.3-0.3,0.4-0.4c0.1-0.1,0.3-0.2,0.5-0.3
			c0.2-0.1,0.4-0.3,0.8-0.5c0.3-0.2,0.5-0.3,0.8-0.5c0.3-0.2,0.5-0.4,0.8-0.6c0.1,0,0.1,0.1,0.1,0.2c0,0.1,0,0.2,0,0.3
			c0,0,0,0.1,0,0.2C301,280.2,301,280.3,301,280.3z M289.1,276.7C289.1,276.7,289.1,276.7,289.1,276.7
			C289.1,276.7,289.1,276.7,289.1,276.7c-0.5-0.3-0.8-0.4-1.1-0.4c-0.3,0-0.5,0.1-0.7,0.2c-0.2,0.1-0.4,0.3-0.6,0.5
			c-0.2,0.2-0.4,0.4-0.6,0.6c-0.2,0.2-0.4,0.3-0.7,0.4c-0.3,0.1-0.6,0.1-1,0c-0.1,0.3-0.1,0.6-0.2,0.9c0,0.3-0.1,0.6-0.1,0.9
			c-0.3,0.1-0.6,0.3-0.8,0.5c-0.2,0.2-0.3,0.4-0.5,0.7c-0.1,0.2-0.2,0.5-0.3,0.8c-0.1,0.3-0.2,0.5-0.4,0.8l0.1,0.1
			c0.1,0,0.2,0,0.3,0.1c0.1,0.1,0.2,0.2,0.2,0.2c0.2-0.3,0.5-0.6,0.8-0.8c0.4-0.2,0.7-0.4,1.1-0.6c0.4-0.2,0.7-0.4,1.1-0.6
			c0.3-0.2,0.6-0.5,0.8-0.8c0.6-0.2,1.1-0.5,1.4-1c0.3-0.5,0.6-1.1,0.8-1.6c0-0.1,0.1-0.3,0.2-0.5C289,277,289.1,276.8,289.1,276.7z
			"/>
		<path class="st1" d="M326.9,280.1c0.1,0.3,0,0.5-0.1,0.7c-0.1,0.2-0.3,0.4-0.5,0.5c-0.2,0.2-0.5,0.3-0.7,0.4
			c-0.3,0.1-0.5,0.3-0.6,0.4c-0.9,0.2-1.6,0.3-2.3,0.4c-0.7,0.1-1.5,0.2-2.3,0.3c-0.2,0-0.5,0-0.7,0c-0.2,0-0.4-0.1-0.7,0
			c-0.1,0-0.3,0-0.4,0c-0.1,0-0.2,0-0.3,0c-0.4,0-0.7,0.2-0.9,0.4c-0.1,0.3-0.2,0.6-0.3,0.9c-0.1,0.3-0.2,0.7-0.3,0.9
			c-0.1,0.3-0.4,0.5-0.8,0.6c0,0.1,0,0.2,0,0.3c0.1,0.1,0.1,0.1,0.2,0.2c-0.3,0.1-0.5,0.3-0.6,0.5c-0.1,0.2-0.2,0.5-0.3,0.7
			c-0.1,0.2-0.2,0.5-0.3,0.6c-0.1,0.2-0.4,0.2-0.8,0.2c-0.6,0.6-1.3,1.1-2.1,1.5c-0.8,0.4-1.6,0.6-2.5,0.8c-0.2-0.1-0.3-0.2-0.4-0.3
			c-0.1-0.1-0.3-0.2-0.4-0.3c-0.1-0.1-0.3-0.2-0.5-0.2c-0.2,0-0.3-0.1-0.6,0c0-0.4-0.1-0.8-0.2-1.1c-0.1-0.3-0.3-0.7-0.6-1
			c0-0.3,0-0.7,0.1-1c0.1-0.3,0.3-0.6,0.4-0.9c0.1-0.3,0.2-0.6,0.3-0.9c0.1-0.3,0.1-0.6,0-1c0.2-0.1,0.3-0.2,0.4-0.4
			c0.1-0.2,0.1-0.3,0.1-0.5c0-0.2,0.1-0.3,0.1-0.5c0.1-0.1,0.2-0.3,0.4-0.4c-0.2-0.5-0.1-0.8,0.1-1c0.2-0.2,0.4-0.4,0.7-0.6
			c0.3-0.2,0.6-0.4,0.8-0.6c0.2-0.2,0.3-0.5,0.3-0.9c0.1-0.1,0.2-0.2,0.4-0.3c0.2-0.1,0.3-0.1,0.4-0.2c0.1-0.1,0.3-0.1,0.4-0.2
			c0.1-0.1,0.3-0.2,0.4-0.3c-0.1-0.1-0.2-0.2-0.2-0.3c0-0.1,0-0.2,0.1-0.3c0-0.1,0.1-0.2,0.1-0.3c0-0.1,0-0.2,0-0.3
			c0.5,0.1,1,0,1.4-0.2c0.4-0.2,0.8-0.4,1.1-0.7c0.4-0.2,0.7-0.4,1.1-0.5c0.4-0.1,0.8,0,1.3,0.3c0,0.1,0.1,0.3,0.2,0.6
			c0.1,0.3,0.2,0.5,0.3,0.8c0.1,0.3,0.2,0.5,0.2,0.8c0.1,0.2,0.1,0.4,0.1,0.5c0,0.1,0,0.2,0,0.5c0,0.2,0,0.4,0,0.7
			c0,0.2,0,0.5,0,0.7c0,0.2,0,0.4,0,0.5c0.6,0.3,1.1,0.5,1.7,0.6c0.6,0.1,1.1-0.1,1.7-0.4c0.2,0.2,0.4,0.2,0.6,0.2
			c0.2-0.1,0.4-0.2,0.6-0.3c0.2-0.1,0.4-0.2,0.6-0.2c0.2,0,0.4,0.1,0.6,0.5c0.3-0.2,0.5-0.4,0.8-0.5c0.3-0.1,0.6-0.1,0.9-0.1
			c0.3,0,0.6,0,0.9-0.1C326.3,280.4,326.6,280.3,326.9,280.1z M315.6,282.9c-0.4,0-0.7-0.1-1-0.3c-0.3-0.2-0.6-0.4-0.8-0.6
			c-0.3-0.2-0.6-0.4-0.9-0.6c-0.3-0.2-0.7-0.3-1.1-0.4c-0.2,0.2-0.4,0.4-0.6,0.6c-0.2,0.2-0.4,0.4-0.6,0.6c-0.2,0.2-0.3,0.5-0.4,0.7
			c-0.1,0.3,0,0.6,0.1,0.9c-0.4,0.2-0.7,0.5-0.9,0.9c-0.2,0.4-0.3,0.8-0.3,1.3c0,0.5-0.1,0.9-0.1,1.4s-0.2,0.9-0.4,1.2l0.6-0.4
			c0.1,0,0.1,0.1,0.2,0.2c0,0.1,0.1,0.2,0,0.3c0.2-0.2,0.3-0.3,0.5-0.4c0.2-0.1,0.4-0.2,0.6-0.2c0.2,0,0.4-0.1,0.6-0.1
			c0.2,0,0.4-0.1,0.6-0.2c0.5,0.3,0.8,0.3,1,0.2c0.2-0.2,0.4-0.4,0.5-0.7c0.1-0.3,0.3-0.6,0.4-1c0.2-0.3,0.4-0.5,0.7-0.6l-0.2-0.2
			c0.3-0.4,0.6-0.8,0.9-1.3C315.5,283.9,315.6,283.4,315.6,282.9z M315.8,280.6c0-0.3,0-0.6,0.1-0.9c0.1-0.3,0.2-0.6,0.2-1
			c0.1-0.3,0.1-0.6,0-0.9c-0.1-0.3-0.3-0.5-0.6-0.8c-0.2,0.1-0.4,0.3-0.5,0.5s-0.3,0.4-0.4,0.6c-0.1,0.2-0.3,0.4-0.5,0.5
			c-0.2,0.1-0.4,0.2-0.7,0.1c-0.1,0.2-0.1,0.4,0,0.6c0.1,0.1,0.2,0.3,0.3,0.4c0.1,0.1,0.3,0.3,0.4,0.4c0.1,0.1,0.2,0.3,0.1,0.5
			c0.1,0.1,0.2,0.1,0.3,0.2c0.1,0,0.3,0.1,0.4,0.1c0.1,0,0.3,0,0.4,0C315.7,280.7,315.8,280.7,315.8,280.6z"/>
		<path class="st1" d="M343.8,283.4c-0.4,0.2-0.7,0.5-0.9,0.8s-0.3,0.6-0.4,0.9c-0.1,0.3-0.2,0.6-0.3,0.9c-0.1,0.3-0.4,0.5-0.8,0.7
			c-0.1,0.3-0.3,0.6-0.6,0.7c-0.3,0.1-0.6,0.3-0.9,0.4c-0.3,0.1-0.6,0.2-0.8,0.4c-0.2,0.2-0.4,0.5-0.4,0.9c-0.4,0.2-0.8,0.4-1.3,0.6
			c-0.5,0.2-0.9,0.3-1.4,0.4c-0.5,0.1-1,0.1-1.5,0.1c-0.5,0-0.9-0.1-1.4-0.3c-0.3-0.1-0.6-0.3-0.8-0.5c-0.1-0.1-0.2-0.1-0.3-0.2
			c-0.1,0-0.2-0.1-0.3-0.2c-0.2-0.2-0.4-0.5-0.6-0.8c-0.2-0.3-0.3-0.6-0.4-1c-0.1-0.3-0.2-0.7-0.2-1c-0.1-0.3-0.1-0.7-0.1-1l1.1-2.9
			c-0.6-0.4-1-1-1.4-1.5c-0.3-0.6-0.8-1.1-1.3-1.6c-0.1,0.1-0.2,0.2-0.4,0.3c-0.2,0.1-0.2,0.2-0.2,0.5l0.3,0.3
			c-0.6,0.7-1.3,1.5-1.9,2.3c-0.6,0.9-1.1,1.7-1.5,2.6c-0.4,0-0.7,0.1-0.9,0.3s-0.3,0.5-0.4,0.7c-0.1,0.3-0.3,0.5-0.4,0.8
			c-0.2,0.2-0.5,0.3-0.9,0.3c-0.1,0.2-0.2,0.4-0.3,0.7c-0.1,0.2-0.2,0.5-0.3,0.7c-0.1,0.2-0.3,0.4-0.5,0.5c-0.2,0.1-0.4,0.2-0.7,0.2
			c-0.2-0.2-0.2-0.3-0.3-0.5c0-0.2,0-0.3,0.1-0.5c0.1-0.2,0.1-0.4,0.2-0.5c0.1-0.2,0.2-0.4,0.2-0.5c0.2-0.6,0.4-1.1,0.8-1.5
			c0.4-0.5,0.8-0.9,1.2-1.4c0.4-0.4,0.7-0.9,1-1.4c0.3-0.5,0.4-1.1,0.3-1.8c0.2,0,0.5-0.1,0.8-0.2c0.3-0.1,0.5-0.2,0.7-0.3
			c0.2-0.1,0.4-0.3,0.5-0.5c0.1-0.2,0.2-0.5,0.1-0.8c-0.2-0.1-0.2-0.2-0.3-0.3c0-0.1,0-0.3,0-0.4c0.4-0.1,0.8-0.4,1-0.7
			c0.3-0.3,0.5-0.7,0.7-1.1s0.4-0.8,0.6-1.2c0.2-0.4,0.5-0.7,0.8-1c0.3,0.2,0.5,0.3,0.8,0.4s0.5,0.2,0.8,0.4
			c-0.2,0.2-0.3,0.5-0.3,0.7c0,0.2-0.1,0.4-0.1,0.6c0,0.2,0,0.4,0,0.6c0,0.2-0.1,0.4-0.2,0.7c0.3,0.3,0.6,0.6,0.8,0.9
			c0.2,0.4,0.5,0.7,0.8,0.9c0.2-0.2,0.5-0.3,0.8-0.3c0.3,0,0.6,0,0.9,0c0.3,0,0.6,0,0.8-0.1c0.3,0,0.5-0.2,0.7-0.5
			c0.1,0.1,0.2,0.1,0.3,0.1c0.2,0,0.3,0,0.5,0c0.2,0,0.3,0,0.4,0.1c0.1,0,0.2,0.1,0.2,0.3c0,0.2,0,0.3,0,0.3c0,0.1-0.1,0.2-0.1,0.3
			c0,0.2,0,0.2,0,0.2c0,0,0,0.1-0.1,0.2c-0.1,0.2-0.3,0.5-0.5,0.6c-0.2,0.2-0.4,0.3-0.7,0.5c-0.2,0.2-0.4,0.3-0.6,0.5
			c-0.2,0.2-0.3,0.5-0.3,0.8c-0.4,0.2-0.7,0.4-0.9,0.7c-0.2,0.3-0.3,0.6-0.3,1c-0.1,0.4-0.1,0.8-0.1,1.2c0,0.4-0.1,0.8-0.2,1.1
			l0.3,0.3l0.2-0.3c0.3,0.4,0.6,0.6,1,0.7c0.4,0.1,0.8,0.1,1.2,0.1c0.2-0.3,0.4-0.5,0.7-0.7c0.3-0.2,0.5-0.3,0.8-0.4
			s0.6-0.2,0.9-0.3c0.3-0.1,0.6-0.2,0.9-0.3c0.2-0.1,0.4-0.2,0.6-0.4c0.2-0.1,0.3-0.3,0.5-0.5c0.6-0.5,1.1-1.1,1.7-1.6
			c0.6-0.5,1.1-1,1.7-1.6c0.1,0,0.2,0.1,0.2,0.2c0,0.1,0.1,0.2,0.1,0.4c0,0.1,0,0.3,0,0.4C343.8,283.2,343.8,283.3,343.8,283.4z"/>
		<path class="st1" d="M364.6,282.8c-0.4,1-0.8,1.7-1.2,2.2c-0.3,0.5-0.7,1-1.1,1.3c-0.4,0.3-0.9,0.7-1.4,1c-0.5,0.3-1.2,0.7-2,1.3
			c-0.3,0-0.7,0.1-1.1,0.2c-0.4,0.1-0.7,0.3-1,0.5c-0.6-0.1-1.1-0.2-1.6-0.4c-0.5-0.2-0.9-0.5-1.4-0.9c-0.1-0.1-0.2-0.2-0.3-0.3
			s-0.2-0.2-0.3-0.3c-0.2-0.2-0.3-0.5-0.4-0.7c-0.1-0.2-0.1-0.4-0.1-0.7c-0.1-0.4-0.2-0.8-0.3-0.9c-0.2-0.2-0.5-0.1-0.9,0.3
			l-0.3-0.2l-0.1,0.1c-0.2,0.1-0.3,0.2-0.4,0.3c-0.1,0.1-0.2,0.2-0.3,0.3c-0.1,0.1-0.2,0.2-0.3,0.3s-0.2,0.3-0.3,0.4
			c-0.2,0.3-0.5,0.6-0.8,0.9c-0.3,0.3-0.6,0.5-1,0.6c-0.1,0.1-0.1,0.1-0.1,0.2c0,0-0.1,0.1-0.2,0.1c-0.1,0-0.2,0-0.4,0
			c-0.2-0.1-0.3-0.1-0.4-0.2c-0.2,0-0.4,0.1-0.6,0.2c-0.2,0.1-0.3,0.2-0.5,0.4c-0.1,0.2-0.3,0.3-0.4,0.5c-0.1,0.2-0.3,0.3-0.4,0.4
			c-0.3-0.1-0.6-0.1-0.8-0.1c-0.3,0.1-0.5,0.1-0.8,0.2c-0.2,0.1-0.5,0.1-0.7,0.1c-0.2,0-0.5-0.2-0.7-0.4c-0.1-0.6-0.2-1.1-0.3-1.6
			c-0.1-0.4-0.1-0.8-0.2-1.1c-0.1-0.4-0.1-0.6-0.1-0.7c0.1-0.1,0.1-0.2,0.1-0.4c0-0.2,0-0.3-0.1-0.4c0,0-0.1,0-0.1-0.1
			c0,0,0,0-0.1-0.1c0.1-0.1,0.2-0.2,0.2-0.3c0-0.1,0.1-0.2,0.2-0.3c-0.1-0.2-0.1-0.3-0.2-0.5c-0.1-0.2-0.1-0.4-0.1-0.6
			c0.1-0.2,0.1-0.2,0.2-0.3c0,0,0.2,0,0.3-0.1c0-0.1,0-0.2-0.1-0.3c0-0.1,0-0.2,0-0.3c0-0.2,0-0.4,0.1-0.5c0.1-0.1,0.2-0.3,0.3-0.4
			c0.1-0.1,0.2-0.3,0.3-0.5c0.1-0.2,0.1-0.4,0.1-0.6v-0.1c0.3,0,0.5-0.1,0.6-0.2c0.1-0.2,0.2-0.3,0.2-0.6c0-0.2,0-0.4,0-0.6
			c0-0.2,0.1-0.4,0.2-0.5c0.1-0.1,0.1-0.1,0.2-0.1c0.1,0,0.1,0,0.2,0c0.1-0.1,0.2-0.2,0.2-0.3c0-0.1,0-0.2,0-0.4
			c0.1,0,0.2,0,0.3-0.1c0.1-0.1,0.1-0.1,0.2-0.2c0-0.1,0.1-0.2,0.1-0.3c0-0.1,0.1-0.2,0.2-0.3c0-0.5,0.1-0.8,0.4-1s0.5-0.3,0.8-0.5
			c0.3-0.1,0.6-0.3,0.9-0.4c0.3-0.2,0.6-0.5,0.7-0.9c0.2,0.2,0.5,0.2,0.6,0c0.2-0.1,0.3-0.3,0.5-0.4c0.2-0.1,0.3-0.2,0.5-0.3
			s0.4,0.1,0.7,0.4c0.1-0.4,0.3-0.6,0.7-0.6c0.4,0,0.7,0.1,1,0.2v0h0c0.3,0.1,0.5,0.2,0.7,0.4c0.2,0.2,0.3,0.5,0.4,0.8
			c0.1,0.3,0.2,0.6,0.3,0.9c0.1,0.3,0.3,0.5,0.5,0.7c0.1-0.5,0.2-1,0.3-1.5c0.1-0.5,0.3-1,0.5-1.5c0.2,0.2,0.4,0.2,0.5,0.1l0-0.1
			c0-0.3,0.1-0.6,0.2-0.8c0.1-0.2,0.2-0.5,0.4-0.7c0.1-0.2,0.2-0.5,0.2-0.7c0-0.3-0.1-0.6-0.3-0.9c0.3-0.1,0.6-0.3,0.7-0.5
			c0.1-0.3,0.3-0.6,0.3-0.9c0.1-0.3,0.2-0.6,0.3-1c0.1-0.3,0.3-0.6,0.5-0.8c0-0.1,0-0.1,0-0.2c0-0.1,0-0.1,0-0.2
			c0-0.2,0.1-0.3,0.2-0.4c0.1-0.1,0.2-0.2,0.3-0.3c0.1-0.1,0.2-0.2,0.3-0.4c0.1-0.1,0.1-0.3,0.1-0.5c0.2-0.2,0.4-0.6,0.5-1
			c0.2-0.4,0.3-0.8,0.5-1.2c0.2-0.4,0.4-0.6,0.6-0.8c0.2-0.2,0.5-0.2,0.9,0c0.1,0.2,0.1,0.4,0.1,0.6c0,0.2-0.1,0.4-0.3,0.6
			c0.1,0.1,0.2,0.2,0.3,0.3c-0.1,0.6-0.2,1.2-0.3,1.8c-0.2,0.6-0.3,1.2-0.5,1.7c0,0,0.1,0.1,0.1,0.1c0,0,0.1,0.1,0.1,0.1
			c-0.3,0.5-0.6,0.9-0.8,1.4c-0.2,0.5-0.4,1-0.5,1.5c-0.1,0.2-0.1,0.4-0.2,0.7c0,0.2-0.1,0.4-0.2,0.6c-0.1,0.2-0.2,0.4-0.3,0.6
			c-0.1,0.2-0.2,0.4-0.3,0.6c-0.2,0.4-0.4,0.9-0.6,1.3c-0.2,0.5-0.3,0.9-0.5,1.4c-0.2,0.6-0.4,1.1-0.6,1.6c-0.2,0.5-0.4,1.1-0.7,1.6
			v0.5c0,0.2-0.1,0.4-0.2,0.4c-0.1,0.1-0.2,0.2-0.4,0.2c-0.1,0.1-0.3,0.2-0.4,0.3c-0.1,0.1-0.2,0.3-0.3,0.6v0l0,0
			c0.2,0.4,0.2,0.8,0.1,1.2c-0.1,0.4-0.2,0.7-0.4,1c-0.1,0.3-0.2,0.7-0.3,1c0,0.3,0.1,0.7,0.4,1c0,0.4,0.1,0.7,0.2,0.9
			c0.2,0.2,0.4,0.4,0.6,0.6c0.2,0.2,0.5,0.3,0.7,0.4c0.2,0.1,0.4,0.3,0.5,0.5c0.2-0.2,0.4-0.3,0.6-0.4c0.2-0.1,0.4-0.2,0.7-0.2
			c0.2-0.1,0.4-0.1,0.7-0.2c0.2,0,0.4-0.1,0.6-0.2c0.5-0.1,0.8-0.3,1-0.5c0.2-0.2,0.3-0.3,0.3-0.4c0-0.3,0.1-0.4,0.3-0.5
			c0.2-0.1,0.4-0.1,0.6-0.2c0.2,0,0.5-0.1,0.7-0.1c0.2-0.1,0.4-0.2,0.5-0.4c0.2,0,0.4-0.1,0.6-0.2c0.2-0.2,0.3-0.3,0.4-0.5
			c0.1-0.2,0.3-0.3,0.4-0.4C364.3,282.7,364.4,282.7,364.6,282.8z M352.8,278.4c-0.3-0.2-0.5-0.5-0.6-0.8c-0.1-0.3-0.2-0.6-0.3-0.9
			c-0.1-0.3-0.2-0.6-0.3-0.9c-0.1-0.3-0.3-0.5-0.6-0.7l-0.1,0c0,0-0.1,0-0.3,0.1c-0.2,0-0.3,0.1-0.3,0.1c0.2,0.1,0.2,0.2,0.3,0.3
			c0,0.1,0,0.2,0,0.3c0,0.1-0.1,0.2-0.1,0.3c-0.1,0.1-0.1,0.2-0.2,0.4c0,0-0.1,0-0.2,0c-0.1-0.1-0.2-0.1-0.3-0.2
			c-0.3,0.4-0.6,0.7-1.1,0.8c-0.5,0.1-1,0.2-1.4,0.4c0,0.1,0.1,0.2,0.1,0.3c0,0.1,0.1,0.2,0.1,0.3c-0.6,0.4-1,0.8-1.3,1.4
			c-0.3,0.5-0.5,1.1-0.7,1.7c-0.2,0.6-0.4,1.1-0.7,1.7c-0.3,0.5-0.7,1-1.3,1.4c0.1,0.2,0.2,0.3,0.2,0.5c0,0.2,0.2,0.3,0.4,0.3
			c0.1,0.2,0.1,0.4,0.1,0.6c0,0.2,0,0.4-0.1,0.6c0,0.2-0.1,0.4-0.1,0.6c0,0.2,0,0.4,0.1,0.7l0.1,0.1c0.6,0.2,1.1,0.2,1.4,0.1
			c0.3-0.2,0.6-0.4,0.9-0.7c0.3-0.3,0.5-0.5,0.8-0.7c0.3-0.2,0.7-0.3,1.3-0.2l0.1-0.2c0-0.1-0.1-0.2-0.1-0.3c0-0.1,0-0.2,0-0.3
			c0-0.2,0.1-0.4,0.2-0.5c0.1-0.1,0.2-0.3,0.4-0.4c0.1-0.2,0.3-0.3,0.4-0.5c0.1-0.2,0.2-0.4,0.4-0.5c0.1-0.2,0.2-0.3,0.4-0.4
			c0.2-0.1,0.4-0.1,0.6,0l0.5-2.1c0-0.1,0.1-0.2,0.3-0.3c0.2-0.1,0.3-0.2,0.4-0.3s0.2-0.2,0.2-0.4c0-0.2-0.1-0.4-0.3-0.6
			c0-0.1,0.1-0.2,0.1-0.3c0-0.1,0-0.2,0.1-0.3c0-0.1,0.1-0.2,0.1-0.2c0.1-0.1,0.2-0.1,0.3,0L352.8,278.4z"/>
		<path class="st1" d="M375.4,284c0,0.4,0,0.7-0.1,0.9c-0.1,0.2-0.2,0.3-0.3,0.4c-0.1,0.1-0.2,0.2-0.3,0.3c-0.1,0.1-0.1,0.3-0.1,0.6
			c-0.4,0.5-0.8,0.8-1.1,1c-0.3,0.2-0.5,0.4-0.8,0.5c-0.2,0.1-0.5,0.3-0.8,0.5c-0.3,0.2-0.7,0.4-1.3,0.8l-0.2,0
			c-0.1,0.3-0.2,0.5-0.3,0.5c-0.1,0-0.3,0.1-0.5,0.1c-0.2,0-0.4,0-0.5,0.1c-0.2,0-0.3,0.2-0.4,0.5c-0.3,0.1-0.6,0.1-0.8,0.1
			c-0.2,0-0.5,0-0.9,0c-0.1,0-0.3,0-0.4,0c-0.2,0-0.3,0-0.4,0c-0.1,0-0.2,0.1-0.2,0.2c-0.1,0.1-0.2,0.2-0.3,0.2
			c-0.1,0.1-0.2,0.1-0.3,0.1c-0.1,0-0.2-0.1-0.3-0.2c-0.2,0.1-0.4,0.1-0.6,0c-0.2-0.1-0.4-0.2-0.5-0.3c-0.2-0.1-0.3-0.3-0.5-0.5
			c-0.1-0.2-0.3-0.3-0.4-0.5c-0.1-0.1-0.2-0.2-0.3-0.3c-0.1-0.1-0.2-0.2-0.3-0.3c-0.2-0.2-0.4-0.5-0.5-0.8c-0.1-0.3-0.2-0.7-0.2-1
			c0-0.3,0-0.7,0-1c0-0.3,0.1-0.7,0.2-0.9c0.2-0.2,0.3-0.4,0.4-0.6c0.1-0.2,0.1-0.4,0.2-0.7c0-0.2,0.1-0.5,0.2-0.7
			c0.1-0.2,0.2-0.4,0.4-0.6c0-0.2,0-0.5,0.1-0.7c0.1-0.2,0.2-0.4,0.3-0.6c0.1-0.2,0.3-0.4,0.5-0.5c0.2-0.2,0.3-0.3,0.5-0.5
			c0.2,0,0.3,0,0.5,0c0.2,0,0.3,0,0.4,0c0.1,0,0.2,0.1,0.3,0.2c0.1,0.1,0.2,0.2,0.2,0.4c0.1,0.5,0.1,0.9-0.1,1.3
			c-0.2,0.3-0.4,0.6-0.7,0.9c-0.2,0.3-0.5,0.6-0.6,0.9c-0.2,0.3-0.1,0.7,0.1,1.2c-0.2,0-0.3,0.1-0.4,0.2c-0.1,0.1-0.1,0.2-0.1,0.4
			c0,0.1-0.1,0.3-0.1,0.4c-0.1,0.1-0.2,0.2-0.3,0.3c0.1,0.1,0.2,0.3,0.2,0.6s0,0.6,0.1,0.8c0,0.3,0.1,0.5,0.3,0.6
			c0.1,0.2,0.4,0.2,0.7,0c0.2,0.2,0.6,0.3,0.9,0.3c0.4,0,0.7,0,1,0c0.3-0.2,0.5-0.3,0.7-0.3c0.2,0,0.4,0,0.5,0.1
			c0.2,0,0.4,0.1,0.5,0.1c0.2,0,0.4,0,0.7-0.1c0.1-0.3,0.2-0.5,0.4-0.6c0.2-0.1,0.4-0.1,0.6-0.1c0.2,0,0.4,0,0.5-0.1
			c0.2-0.1,0.3-0.2,0.3-0.6c0.2-0.2,0.3-0.3,0.5-0.3c0.2,0,0.4-0.1,0.6-0.1c0.2,0,0.4-0.1,0.6-0.2c0.2-0.1,0.3-0.4,0.4-0.7
			c0.3-0.2,0.6-0.4,0.7-0.6c0.1-0.1,0.3-0.2,0.4-0.3c0.1-0.1,0.2-0.2,0.4-0.3C374.8,284.4,375,284.3,375.4,284z M369.8,271.2
			c-0.3,0.1-0.5,0.3-0.6,0.6c0,0.3-0.1,0.5,0,0.8c0,0.3,0,0.6,0,0.8c0,0.2-0.2,0.4-0.6,0.5c-0.1-0.2-0.3-0.4-0.5-0.6
			c-0.2-0.2-0.4-0.4-0.6-0.6c-0.2-0.2-0.3-0.4-0.5-0.6c-0.1-0.2-0.2-0.5-0.1-0.8l1.4-1.7c0.2,0.1,0.4,0.2,0.5,0.3
			c0.1,0.1,0.2,0.2,0.3,0.4c0.1,0.2,0.2,0.3,0.3,0.5C369.6,270.8,369.7,271,369.8,271.2z"/>
		<path class="st1" d="M388.8,288.1c0,0.2,0,0.4-0.1,0.5c-0.1,0.1-0.2,0.2-0.4,0.3c-0.2,0.1-0.3,0.1-0.5,0.1c-0.2,0-0.4,0.1-0.5,0.2
			c-0.6-0.1-1.1-0.1-1.6-0.2c-0.5-0.1-1-0.3-1.4-0.5c-0.4-0.2-0.8-0.5-1.2-0.9c-0.4-0.4-0.7-0.8-0.9-1.4c0.2-0.4,0.3-0.8,0.3-1.3
			c-0.1-0.5-0.1-1-0.2-1.4c-0.1-0.5-0.1-0.9,0-1.3c0.1-0.4,0.4-0.7,1-0.9c0-0.2,0-0.4,0-0.7c0-0.2,0-0.5-0.2-0.6
			c-0.7,0.2-1.3,0.6-1.8,1c-0.5,0.4-1,0.9-1.4,1.4c-0.5,0.5-0.9,1-1.4,1.5c-0.5,0.5-0.9,1-1.5,1.3c-0.2,0-0.5,0-0.8,0
			c-0.3,0-0.5,0-0.7,0.2c0,0.1,0.1,0.2,0.1,0.3c0.1,0.1,0.1,0.2,0.2,0.3c0,0.1,0.1,0.2,0.1,0.3c0,0.1-0.1,0.2-0.2,0.4
			c-0.2,0.2-0.4,0.3-0.6,0.5c-0.2,0.1-0.4,0.3-0.6,0.4c-0.2,0.1-0.4,0.3-0.5,0.5c-0.1,0.2-0.2,0.5-0.2,0.8c-0.1-0.1-0.2-0.1-0.3,0
			c-0.1,0-0.2,0.1-0.3,0.2c-0.1,0.1-0.2,0.2-0.2,0.3c-0.1,0.1-0.2,0.2-0.2,0.2c0,0.1,0,0.2,0,0.2c0.1,0.1,0.1,0.1,0.2,0.2
			c-0.1,0.2-0.2,0.3-0.3,0.4c-0.1,0-0.3,0.1-0.4,0c-0.1,0-0.3-0.1-0.4-0.2c-0.1-0.1-0.3-0.2-0.4-0.2c-0.1-0.2-0.1-0.5-0.1-0.9
			c0-0.3,0-0.6,0-1c0-0.3,0.1-0.6,0.2-0.9c0.1-0.3,0.3-0.5,0.5-0.7c0.1-0.1,0.1-0.1,0.2-0.1c0,0,0.1-0.1,0.1-0.1
			c0.2-0.2,0.3-0.4,0.3-0.6c0.1-0.2,0.1-0.4,0.1-0.6c0-0.2,0.1-0.4,0.2-0.6c0.1-0.2,0.2-0.4,0.4-0.5c-0.1-0.3-0.1-0.6,0-0.8
			c0.1-0.2,0.2-0.5,0.3-0.7c0.1-0.2,0.3-0.4,0.4-0.7c0.1-0.2,0.2-0.5,0.3-0.7c0-0.1,0-0.2,0-0.3c0-0.1,0-0.2,0-0.3
			c0-0.3,0-0.5,0.1-0.7c0.1-0.2,0.2-0.3,0.4-0.4c0.2-0.1,0.3-0.2,0.5-0.3c0.2-0.1,0.3-0.3,0.5-0.5c0.6,0.3,0.9,0.6,1,1.1
			c0.1,0.5,0.1,1,0.1,1.5c-0.3,0.2-0.6,0.5-0.7,0.9c-0.2,0.4-0.3,0.7-0.3,1.1c0,0.1,0.1,0.2,0.2,0.2c0.1,0,0.1,0,0.2,0
			c0.1,0,0.2-0.1,0.2-0.1c0.1,0,0.2-0.1,0.2-0.1c0.7-0.5,1.4-1,2.1-1.6c0.7-0.6,1.2-1.3,1.6-2c0.6-0.3,1.1-0.6,1.6-0.9
			c0.5-0.4,1-0.6,1.6-0.8l0.7-0.7c0.1,0.2,0.2,0.2,0.3,0.1c0.1-0.1,0.3-0.2,0.4-0.3c0.1-0.1,0.3-0.2,0.4-0.2c0.1,0,0.2,0.1,0.4,0.4
			c0.2,0.5,0.2,1,0.1,1.5c-0.1,0.5-0.2,0.9-0.4,1.4c-0.2,0.5-0.4,0.9-0.6,1.4c-0.2,0.5-0.3,0.9-0.4,1.4c0,0.1,0,0.2,0,0.4
			c0,0.1,0,0.3,0,0.4c0,0.4-0.1,0.8-0.2,1.3c-0.1,0.5,0,0.9,0.1,1.3c0.1,0.3,0.3,0.7,0.6,0.9c0.3,0.3,0.6,0.5,0.8,0.8
			c0.1,0,0.3,0,0.4,0c0.1,0,0.3,0.1,0.4,0.1c0.1,0,0.2,0.1,0.4,0c0.1,0,0.2-0.1,0.3-0.2c0.1-0.1,0.3-0.1,0.4,0
			c0.1,0.1,0.2,0.1,0.4,0.2s0.2,0.2,0.4,0.2C388.5,288.1,388.6,288.1,388.8,288.1z"/>
		<path class="st1" d="M410.5,286.1c-0.3,0.5-0.5,0.8-0.6,1.1c-0.1,0.3-0.3,0.5-0.4,0.7c-0.1,0.2-0.3,0.3-0.5,0.5
			c-0.2,0.1-0.4,0.3-0.8,0.5c-0.2,0.2-0.4,0.4-0.6,0.5c-0.2,0.1-0.3,0.2-0.5,0.3c-0.2,0.1-0.3,0.1-0.4,0.1c0,0-0.1,0-0.1,0
			c0,0-0.1,0-0.1,0c-0.1,0-0.2,0-0.3,0c-0.1,0-0.2-0.1-0.3-0.2c-0.1,0.1-0.1,0.1-0.1,0.2c0,0.1-0.1,0.1-0.1,0.2
			c0,0.1-0.1,0.1-0.2,0.2c-0.1,0-0.2,0-0.3,0l-0.1-0.2l-0.4,0.4c-0.5-0.3-1-0.5-1.5-0.7c-0.5-0.2-0.9-0.4-1.3-0.6
			c-0.4-0.2-0.7-0.6-1-1c-0.3-0.4-0.5-0.9-0.6-1.6c-0.1-0.1-0.2-0.2-0.3-0.3c-0.1-0.1-0.2-0.1-0.4-0.1c-0.2,0.3-0.4,0.6-0.7,0.8
			c-0.3,0.2-0.5,0.5-0.8,0.7c-0.1,0.1-0.2,0.2-0.2,0.3c-0.1,0.1-0.1,0.2-0.2,0.3c-0.2,0.2-0.3,0.3-0.5,0.4c-0.2,0.1-0.4,0.1-0.6,0.2
			c-0.2,0.1-0.4,0.2-0.6,0.3c-0.2,0.1-0.3,0.4-0.4,0.7c-0.2-0.1-0.5-0.2-0.7-0.1c-0.2,0-0.4,0.1-0.5,0.1c-0.2,0-0.4,0.1-0.6,0.1
			c-0.2,0-0.4,0-0.5-0.1s-0.3-0.2-0.5-0.4c-0.3,0.1-0.5,0.1-0.7,0c-0.2-0.1-0.4-0.3-0.6-0.5c-0.2-0.2-0.4-0.5-0.6-0.7
			c-0.2-0.2-0.4-0.4-0.5-0.5c-0.1-0.3-0.1-0.6,0-0.8c0.1-0.2,0.3-0.4,0.4-0.6c0.1-0.2,0.2-0.4,0.3-0.6c0.1-0.2,0-0.4-0.3-0.7
			c0.2-0.3,0.4-0.6,0.5-0.9c0.2-0.3,0.3-0.6,0.5-0.9c0.2-0.3,0.3-0.6,0.5-0.9c0.2-0.3,0.4-0.6,0.7-0.8c-0.1-0.1-0.2-0.3-0.2-0.4
			c0-0.1,0-0.2,0.1-0.4c0.1-0.1,0.1-0.2,0.2-0.4c0.1-0.1,0.1-0.2,0.2-0.4l0.8-0.4l-0.2-0.7c0.2,0,0.4,0,0.5,0
			c0.1-0.1,0.2-0.1,0.2-0.3c0-0.1,0.1-0.2,0.1-0.4c0-0.1,0.1-0.3,0.1-0.4c0.1-0.2,0.2-0.3,0.4-0.4c0.4-0.3,0.8-0.6,1.2-1
			c0.4-0.3,0.8-0.7,1.2-1c0.4-0.3,0.8-0.6,1.2-0.9c0.4-0.3,0.9-0.6,1.4-0.8c0.3,0.1,0.6,0.2,0.8,0.3c0.2,0.2,0.4,0.3,0.5,0.5
			c0.1,0.2,0.2,0.4,0.2,0.7c0.1,0.3,0.1,0.5,0.2,0.8c0.1,0.3,0.2,0.6,0.3,0.8c0.1,0.2,0.4,0.4,0.7,0.6c-0.3,0.5-0.4,0.9-0.3,1.4
			c0.1,0.5,0.1,0.9,0.2,1.4c0.1,0.5,0.1,0.9,0,1.4c-0.1,0.4-0.4,0.8-0.8,1.2c0,0.1,0,0.3,0,0.4c0,0.2,0,0.3,0,0.5
			c0,0.2,0,0.3-0.1,0.4c-0.1,0.1-0.2,0.2-0.3,0.3c0.2,0.2,0.3,0.4,0.3,0.6c0,0.2,0,0.4,0,0.6c0,0.2,0.1,0.4,0.1,0.5
			c0.1,0.2,0.3,0.3,0.6,0.3c0.1,0.2,0.1,0.4,0.2,0.6c0,0.1,0.1,0.2,0.2,0.3c0.1,0.1,0.2,0.1,0.3,0.2c0.1,0.1,0.3,0.2,0.5,0.3
			c0.2,0,0.3,0,0.5,0c0.2,0,0.3,0,0.5,0.2c0.1-0.1,0.2-0.1,0.3-0.2c0.1,0,0.3,0,0.4,0l0.4,0.6c0.2-0.2,0.5-0.3,0.7-0.4
			s0.5-0.2,0.8-0.3c0.3-0.1,0.6-0.1,0.9-0.2L410.5,286.1z M399.5,276.2c-0.2,0.2-0.4,0.3-0.6,0.5c-0.2,0.2-0.5,0.3-0.7,0.5
			c-0.2,0.2-0.4,0.4-0.6,0.6c-0.2,0.2-0.3,0.4-0.3,0.7c-0.4,0.1-0.7,0.3-0.9,0.5s-0.3,0.6-0.4,0.9c-0.1,0.3-0.2,0.7-0.4,1
			c-0.1,0.3-0.4,0.6-0.7,0.8c-0.1,0.1-0.2,0.1-0.3,0.1c0,0,0,0-0.2,0.1c-0.2,0.2-0.4,0.3-0.5,0.6c-0.2,0.2-0.3,0.5-0.4,0.7
			c-0.1,0.3-0.2,0.5-0.3,0.8c-0.1,0.3-0.2,0.5-0.2,0.8c-0.3,0-0.5,0.1-0.6,0.2c-0.1,0.1-0.2,0.2-0.2,0.2c0,0.1,0,0.2,0,0.3
			c0,0.1,0.1,0.2,0.2,0.4c0.1,0.1,0.2,0.2,0.2,0.4c0.1,0.2,0.2,0.3,0.2,0.5c0.1,0.2,0.1,0.3,0.1,0.5c0,0.2,0,0.3-0.1,0.4
			c0.3,0.2,0.5,0.3,0.8,0.1c0.2-0.1,0.5-0.3,0.7-0.4c0.1-0.1,0.2-0.1,0.2-0.2c0.1-0.1,0.2-0.1,0.3-0.2c0.4,0.1,0.8,0.1,1.2-0.1
			c0.4-0.2,0.7-0.4,1-0.6c0.3-0.3,0.6-0.6,0.9-0.9c0.3-0.3,0.6-0.6,0.9-0.8l-0.2-0.2c0.3-0.1,0.6-0.2,0.7-0.4
			c0.1-0.2,0.2-0.3,0.3-0.6c0-0.2,0-0.4,0-0.7c0-0.2-0.1-0.5-0.1-0.8c0-0.2,0-0.3,0-0.4c0-0.1,0-0.3,0.1-0.4
			c-0.2-0.4-0.2-0.9-0.1-1.3c0.1-0.4,0.2-0.8,0.4-1.2c0.2-0.4,0.4-0.8,0.5-1.1c0.2-0.4,0.3-0.8,0.3-1.2L399.5,276.2z"/>
		<path class="st1" d="M430.1,283.4c-0.4,0.2-0.7,0.5-0.9,0.8c-0.2,0.3-0.3,0.6-0.4,0.9c-0.1,0.3-0.2,0.6-0.3,0.9
			c-0.1,0.3-0.4,0.5-0.8,0.7c-0.1,0.3-0.3,0.6-0.6,0.7c-0.3,0.1-0.6,0.3-0.9,0.4c-0.3,0.1-0.6,0.2-0.8,0.4c-0.2,0.2-0.4,0.5-0.4,0.9
			c-0.4,0.2-0.8,0.4-1.3,0.6c-0.5,0.2-0.9,0.3-1.4,0.4c-0.5,0.1-1,0.1-1.5,0.1c-0.5,0-0.9-0.1-1.4-0.3c-0.3-0.1-0.6-0.3-0.8-0.5
			c-0.1-0.1-0.2-0.1-0.3-0.2c-0.1,0-0.2-0.1-0.3-0.2c-0.2-0.2-0.4-0.5-0.6-0.8c-0.2-0.3-0.3-0.6-0.4-1c-0.1-0.3-0.2-0.7-0.2-1
			s-0.1-0.7-0.1-1l1.1-2.9c-0.6-0.4-1-1-1.4-1.5c-0.3-0.6-0.8-1.1-1.3-1.6c-0.1,0.1-0.2,0.2-0.4,0.3c-0.2,0.1-0.2,0.2-0.2,0.5
			l0.3,0.3c-0.6,0.7-1.3,1.5-1.9,2.3c-0.6,0.9-1.1,1.7-1.5,2.6c-0.4,0-0.7,0.1-0.9,0.3s-0.3,0.5-0.4,0.7c-0.1,0.3-0.3,0.5-0.4,0.8
			c-0.2,0.2-0.5,0.3-0.9,0.3c-0.1,0.2-0.2,0.4-0.3,0.7c-0.1,0.2-0.2,0.5-0.3,0.7c-0.1,0.2-0.3,0.4-0.5,0.5c-0.2,0.1-0.4,0.2-0.7,0.2
			c-0.2-0.2-0.2-0.3-0.3-0.5c0-0.2,0-0.3,0.1-0.5c0.1-0.2,0.1-0.4,0.2-0.5c0.1-0.2,0.2-0.4,0.2-0.5c0.2-0.6,0.4-1.1,0.8-1.5
			c0.4-0.5,0.8-0.9,1.2-1.4c0.4-0.4,0.7-0.9,1-1.4c0.3-0.5,0.4-1.1,0.3-1.8c0.2,0,0.5-0.1,0.8-0.2c0.3-0.1,0.5-0.2,0.7-0.3
			c0.2-0.1,0.4-0.3,0.5-0.5c0.1-0.2,0.2-0.5,0.1-0.8c-0.2-0.1-0.2-0.2-0.3-0.3c0-0.1,0-0.3,0-0.4c0.4-0.1,0.8-0.4,1-0.7
			c0.3-0.3,0.5-0.7,0.7-1.1c0.2-0.4,0.4-0.8,0.6-1.2c0.2-0.4,0.5-0.7,0.8-1c0.3,0.2,0.5,0.3,0.8,0.4c0.3,0.1,0.5,0.2,0.8,0.4
			c-0.2,0.2-0.3,0.5-0.3,0.7c0,0.2-0.1,0.4-0.1,0.6c0,0.2,0,0.4,0,0.6c0,0.2-0.1,0.4-0.2,0.7c0.3,0.3,0.6,0.6,0.8,0.9
			c0.2,0.4,0.5,0.7,0.8,0.9c0.2-0.2,0.5-0.3,0.8-0.3c0.3,0,0.6,0,0.9,0c0.3,0,0.6,0,0.8-0.1c0.3,0,0.5-0.2,0.7-0.5
			c0.1,0.1,0.2,0.1,0.3,0.1c0.2,0,0.3,0,0.5,0s0.3,0,0.4,0.1c0.1,0,0.2,0.1,0.2,0.3c0,0.2,0,0.3,0,0.3c0,0.1-0.1,0.2-0.1,0.3
			c0,0.2,0,0.2,0,0.2s0,0.1-0.1,0.2c-0.1,0.2-0.3,0.5-0.5,0.6c-0.2,0.2-0.4,0.3-0.7,0.5c-0.2,0.2-0.4,0.3-0.6,0.5
			c-0.2,0.2-0.3,0.5-0.3,0.8c-0.4,0.2-0.7,0.4-0.9,0.7c-0.2,0.3-0.3,0.6-0.3,1c-0.1,0.4-0.1,0.8-0.1,1.2c0,0.4-0.1,0.8-0.2,1.1
			l0.3,0.3l0.2-0.3c0.3,0.4,0.6,0.6,1,0.7c0.4,0.1,0.8,0.1,1.2,0.1c0.2-0.3,0.4-0.5,0.7-0.7c0.3-0.2,0.5-0.3,0.8-0.4
			c0.3-0.1,0.6-0.2,0.9-0.3c0.3-0.1,0.6-0.2,0.9-0.3c0.2-0.1,0.4-0.2,0.6-0.4c0.2-0.1,0.3-0.3,0.5-0.5c0.6-0.5,1.1-1.1,1.7-1.6
			c0.6-0.5,1.1-1,1.7-1.6c0.1,0,0.2,0.1,0.2,0.2c0,0.1,0.1,0.2,0.1,0.4c0,0.1,0,0.3,0,0.4C430.1,283.2,430.1,283.3,430.1,283.4z"/>
		<path class="st1" d="M445.2,288.5c0.1,0.1,0.2,0.1,0.1,0.2c0,0.1-0.1,0.1-0.1,0.2c-0.1,0.1-0.1,0.1-0.2,0.1
			c-0.1,0-0.2,0.1-0.2,0.1l-0.9,0.2c-0.7,0.2-1.4,0.4-2.1,0.6c-0.7,0.3-1.3,0.6-2,0.8c-0.1-0.1-0.2-0.2-0.3-0.2
			c-0.1,0-0.2,0-0.3,0.1c0,0.1,0,0.1,0,0.3c0,0.2,0,0.4,0,0.6c0,0.1-0.1,0.3-0.1,0.4c0,0.1-0.1,0.2-0.2,0.3
			c-0.1,0.1-0.2,0.2-0.4,0.4c-0.2,0.2-0.2,0.3,0.1,0.3c-0.1,0.2-0.3,0.3-0.4,0.3c0,0-0.1,0-0.2,0c0,0-0.1,0-0.1,0c0,0,0,0.1,0.1,0.2
			c0.1,0.1,0.1,0.2,0.1,0.2c0,0,0,0.1-0.1,0.1c-0.1,0.1-0.1,0.2-0.2,0.2c-0.1,0.1-0.1,0.2-0.1,0.3c0,0.1,0,0.2,0,0.2v0.2
			c0.1,0,0.1,0.1,0,0.1c-0.1,0-0.1,0-0.2,0s-0.1,0-0.2,0.1c-0.1,0.1-0.1,0.1-0.1,0.2c0,0-0.1,0.1-0.1,0.1c0,0-0.1,0-0.2,0.1
			c0,0,0,0-0.1,0.1c0,0.1-0.1,0.1-0.1,0.2c0,0.1,0,0.2-0.1,0.2c0,0.1,0,0.1,0,0.1c0,0.2,0,0.5-0.1,0.6c0,0.2-0.1,0.4-0.2,0.6
			c-0.1,0.3-0.2,0.5-0.3,0.6c-0.1,0.1-0.3,0.2-0.4,0.3c-0.2,0.1-0.3,0.2-0.4,0.4c-0.1,0.1-0.3,0.4-0.3,0.7c0,0.1,0,0.1-0.1,0.2
			c0,0,0,0.1,0,0.1v0.1c-0.1,0.1-0.1,0.2-0.2,0.3c0,0.1-0.1,0.2-0.1,0.2c0,0.1-0.1,0.2-0.1,0.3c0,0.1,0,0.2,0,0.3c0,0.1,0,0.1,0,0.3
			c0,0.1-0.1,0.2-0.1,0.3c-0.1,0.1-0.1,0.2-0.2,0.3c-0.1,0.1-0.1,0.2-0.2,0.3c-0.1,0.1-0.1,0.2-0.2,0.3c-0.1,0.1-0.2,0.2-0.2,0.3
			c-0.4,0.6-0.7,1.1-1,1.6c-0.4,0.8-0.9,1.6-1.5,2.3c-0.1,0.1-0.2,0.3-0.4,0.4c-0.1,0.2-0.3,0.3-0.3,0.5v0.2c0,0.4-0.1,0.7-0.3,0.9
			c-0.2,0.2-0.5,0.4-0.8,0.5c-0.1,0.1-0.2,0.2-0.3,0.2c-0.1,0.1-0.2,0.2-0.3,0.3c-0.1,0.2-0.3,0.3-0.5,0.6c-0.2,0.2-0.4,0.4-0.6,0.5
			c0,0-0.2,0-0.4,0c-0.2,0-0.3,0-0.4,0c0,0-0.1,0.1-0.2,0.1c-0.1,0.1-0.2,0.1-0.3,0.2c-0.1,0.1-0.2,0.1-0.3,0.1c-0.1,0-0.2,0-0.2,0
			c-0.1-0.1-0.2-0.1-0.3-0.1c0,0-0.1,0-0.1,0.1c0,0-0.1,0.1-0.1,0.1c-0.2,0-0.3-0.1-0.3-0.1c0,0-0.1,0-0.2-0.1
			c-0.1-0.1-0.2-0.2-0.3-0.3c-0.1-0.1-0.2-0.2-0.2-0.3c-0.1-0.1-0.1-0.2-0.1-0.2c-0.1-0.2-0.2-0.5-0.2-0.7c0-0.3,0-0.6,0-0.9
			c0-0.3,0.1-0.6,0.1-0.9c0.1-0.3,0.1-0.6,0.2-0.8c0.1-0.4,0.2-0.8,0.3-1.2c0.1-0.4,0.1-0.8,0.1-1.2c0-0.1,0-0.2,0.1-0.2
			c0-0.1,0.1-0.1,0.1-0.2c0,0,0-0.1,0-0.1c0,0,0-0.1-0.1-0.1c0-0.1,0-0.2,0.1-0.3s0.1-0.4,0.2-0.6c0.1-0.2,0.2-0.4,0.3-0.6
			c0.1-0.2,0.1-0.3,0.2-0.4c0.4-0.7,0.7-1.4,1-2.2c0.3-0.8,0.7-1.5,1.2-2.1c0.3-0.3,0.6-0.7,0.9-1s0.6-0.7,0.8-1.1
			c0.1-0.2,0.2-0.3,0.3-0.3c0.1-0.2,0.3-0.3,0.5-0.4c0.2-0.1,0.5-0.1,0.7-0.1c0,0,0.1-0.1,0.3-0.2c0.2-0.1,0.3-0.2,0.3-0.2
			c0.1-0.2,0.2-0.5,0.4-0.8c0.2-0.3,0.3-0.5,0.5-0.7c0.1-0.1,0.3-0.2,0.5-0.3c0.2-0.1,0.4-0.1,0.6-0.2c0.2-0.1,0.4-0.1,0.6-0.2
			c0.2-0.1,0.4-0.2,0.6-0.4c0.1-0.2,0.3-0.3,0.5-0.5c0.2-0.2,0.4-0.4,0.6-0.4c0.2,0,0.5,0,0.8-0.1c0.3-0.1,0.6-0.2,0.7-0.4
			c0.1-0.1,0.1-0.4,0.1-0.7c0-0.2,0.1-0.3,0.2-0.6c0.1-0.2,0.2-0.4,0.3-0.5c0.1-0.2,0.2-0.3,0.2-0.5c0.1-0.2,0.1-0.3,0.2-0.5
			c0-0.1,0.1-0.2,0.1-0.3c0-0.1,0-0.2,0.1-0.3c0,0,0.1-0.1,0.1-0.2c0.1-0.1,0.1-0.2,0.2-0.3c0.1-0.1,0.1-0.2,0.2-0.3
			c0-0.1,0.1-0.2,0-0.2c0,0-0.1,0-0.2-0.1c-0.1,0-0.2,0-0.4,0c-0.1,0-0.2,0-0.4,0c-0.1,0-0.2,0-0.2,0c-0.1,0-0.2,0-0.3,0.1
			c-0.1,0.1-0.3,0.1-0.5,0.2c-0.2,0.1-0.3,0.2-0.4,0.2c-0.1,0.1-0.2,0.1-0.2,0.2c-0.6,0.2-1.2,0.3-1.8,0.3c-0.6,0-1.2,0.1-1.8,0.4
			c-0.4,0.1-0.8,0.2-1.2,0.3c-0.4,0.1-0.8,0.1-1.3,0.1c0,0-0.1,0-0.2,0c-0.1,0-0.2-0.1-0.3-0.1c-0.1,0-0.2-0.1-0.3-0.1
			c-0.1,0-0.2-0.1-0.2-0.1c-0.1,0-0.2-0.1-0.3-0.2c-0.1-0.1-0.2-0.2-0.2-0.3c-0.1-0.1-0.1-0.2-0.2-0.4c-0.1-0.1-0.1-0.2-0.1-0.3
			c-0.1-0.2-0.2-0.4-0.2-0.6c-0.1-0.2-0.1-0.4-0.2-0.6c0,0,0-0.1,0-0.2c0-0.1,0-0.1,0-0.2c-0.1-0.5-0.1-1.1-0.2-1.7
			c0-0.6,0.1-1.2,0.4-1.6c0.1-0.1,0.2-0.3,0.3-0.4c0.1-0.2,0.2-0.3,0.3-0.4c0.1-0.1,0.1-0.2,0.2-0.2c0.1-0.1,0.1-0.1,0.2-0.2
			c0,0,0.1-0.1,0.1-0.1c0.1,0,0.1-0.1,0.1-0.1c0.2-0.2,0.4-0.4,0.6-0.7c0.2-0.2,0.3-0.5,0.5-0.7c0-0.1,0.1-0.1,0.2-0.2
			c0.1-0.1,0.2-0.2,0.2-0.3c0.1-0.1,0.2-0.2,0.3-0.2c0.1,0,0.2-0.1,0.3,0c0.1,0,0.2,0,0.3,0c0.1,0,0.2,0,0.3,0
			c0.1,0.2,0.2,0.3,0.2,0.4c0,0.1,0.1,0.2,0.1,0.3c0,0.1,0,0.2,0,0.3c0,0.1,0,0.3,0,0.4c-0.1,0.1-0.2,0.2-0.3,0.2
			c-0.1,0.1-0.2,0.2-0.3,0.2c0,0-0.1,0.2-0.2,0.4c-0.1,0.2-0.2,0.4-0.3,0.7c-0.1,0.3-0.2,0.5-0.2,0.7c-0.1,0.2-0.1,0.4-0.1,0.4
			c-0.1,0.5-0.3,1-0.6,1.5c-0.3,0.5-0.6,0.9-0.9,1.3l0,0.1c0.1,0.1,0.3,0.3,0.4,0.4c0.1,0.1,0.2,0.2,0.3,0.4c0.2,0,0.4,0,0.7-0.1
			c0.1,0.1,0.2,0.2,0.3,0.2c0.1,0.1,0.2,0.2,0.3,0.3c0.2,0,0.5,0,0.7,0c0.2,0,0.4,0,0.6,0c0.2,0,0.4-0.1,0.6-0.1
			c0.2-0.1,0.4-0.2,0.6-0.3c0.1,0,0.2-0.1,0.3-0.2s0.3-0.2,0.4-0.2l1-0.2c0.2-0.1,0.3-0.2,0.5-0.3c0.2-0.1,0.3-0.2,0.5-0.3
			c0.1-0.1,0.2-0.1,0.3-0.2c0.1,0,0.2-0.1,0.3-0.1c0.6-0.3,1.1-0.6,1.5-1.1c0.4-0.4,0.9-0.9,1.3-1.3c0.4-0.3,0.7-0.7,1-1.2
			c0.3-0.5,0.6-0.9,0.8-1.3c0.1-0.3,0.3-0.7,0.5-1c0.2-0.3,0.4-0.6,0.6-0.9c0.2-0.2,0.4-0.3,0.7-0.4c0.3-0.1,0.5-0.2,0.8-0.2
			c0.2,0,0.3,0,0.4,0.2c0.1,0.1,0.2,0.3,0.2,0.4c0,0.4,0,0.7,0,0.9c0,0.2-0.1,0.5-0.2,0.7c-0.1,0.2-0.2,0.4-0.4,0.6
			c-0.2,0.2-0.3,0.4-0.6,0.7l-0.7,0.9c0,0,0,0.1,0,0.1c0,0,0.1,0,0.1,0.1c0,0,0,0.1,0,0.2c0,0.1,0,0.2-0.1,0.3
			c0,0.1-0.1,0.2-0.1,0.3c0,0.1-0.1,0.2-0.1,0.2c0,0,0,0-0.1,0.1c0,0,0,0.1-0.1,0.1l-0.1,0.2c-0.2,0.4-0.5,0.7-0.6,1.1
			c-0.2,0.4-0.2,0.8-0.2,1.2c0,0.2,0,0.3-0.1,0.5c-0.1,0.1-0.2,0.3-0.3,0.4c-0.1,0.1-0.2,0.3-0.3,0.5c-0.1,0.2-0.2,0.5-0.2,0.8
			c0,0.1,0,0.1,0,0.2c0,0,0,0.1,0,0.1c0,0,0,0,0,0.1v0.1c-0.1,0.4-0.2,0.7-0.3,1c-0.1,0.3-0.2,0.6-0.4,1c0,0,0.1,0,0.2-0.1
			c0.1-0.1,0.2-0.2,0.4-0.3c0.1-0.1,0.3-0.2,0.5-0.3s0.3-0.1,0.5,0c0.1,0,0.2,0.1,0.4,0c0.2,0,0.3,0,0.4-0.1c0.1,0,0.3-0.1,0.4-0.1
			c0.1,0,0.2,0,0.2,0c0.2,0,0.3,0,0.5,0c0.2,0,0.3,0,0.5,0c0,0,0.1,0,0.2,0c0.1,0,0.2,0,0.4,0c0.1,0,0.3,0,0.4,0.1
			C445,288.4,445.1,288.4,445.2,288.5z M436.5,292.4c-0.1,0.1-0.2,0.2-0.3,0.3c-0.2,0.2-0.3,0.3-0.5,0.5c-0.2,0.2-0.4,0.3-0.5,0.4
			c-0.2,0.1-0.3,0.1-0.4,0.1l-0.2,0.1c-0.2,0.1-0.3,0.2-0.4,0.4s-0.1,0.4-0.2,0.5s-0.1,0.4-0.2,0.5c-0.1,0.2-0.2,0.3-0.4,0.4
			c-0.2-0.1-0.4-0.2-0.5-0.3c-0.1-0.1-0.2-0.1-0.3-0.1c-0.1,0-0.2,0.1-0.3,0.2c-0.1,0.1-0.3,0.3-0.5,0.6c-0.5,0.6-1.1,1.2-1.6,1.8
			c-0.5,0.6-1.1,1.2-1.7,1.8c-0.1,0.4-0.3,0.8-0.5,1.2c-0.2,0.4-0.4,0.8-0.6,1.2c-0.2,0.4-0.4,0.9-0.6,1.4c-0.2,0.5-0.3,1-0.4,1.6
			c-0.1,0.5-0.2,1.1-0.3,1.7c-0.1,0.6-0.2,1.1-0.2,1.6c0,0,0.1,0.1,0.2,0c0.1,0,0.2,0,0.4-0.1c0.1,0,0.2-0.1,0.4-0.1
			c0.1,0,0.2-0.1,0.2-0.1c0,0,0.1,0,0.1-0.1s0.2-0.2,0.2-0.3c0.1-0.1,0.2-0.2,0.2-0.3c0.1-0.1,0.1-0.1,0.1-0.2
			c0.1,0,0.2-0.1,0.4-0.2c0.2-0.1,0.3-0.1,0.4-0.1c0,0,0.1-0.1,0.1-0.2c0-0.2,0-0.2,0-0.3v-0.5c0,0-0.1-0.1,0-0.3c0-0.2,0-0.3,0-0.3
			c0.2-0.1,0.4-0.2,0.6-0.3c0.2-0.1,0.4-0.2,0.6-0.3c0.1-0.2,0.1-0.3,0.2-0.5c0.1-0.2,0.2-0.4,0.3-0.5c0.4-0.7,0.7-1.5,1.1-2.2
			c0.3-0.7,0.7-1.4,1.2-2.2c0.3-0.5,0.6-1.1,0.9-1.6c0.3-0.5,0.6-1.1,0.9-1.7c0,0,0.1-0.1,0.1-0.2c0.1-0.1,0.1-0.2,0.2-0.3
			c0.1-0.1,0.2-0.2,0.3-0.3c0.1-0.1,0.2-0.1,0.2-0.1c0.1,0,0.2-0.1,0.2-0.2c0-0.1,0-0.2,0-0.3c0-0.1,0.1-0.2,0.2-0.5
			c0.1-0.2,0.2-0.5,0.3-0.7c0.1-0.3,0.2-0.5,0.3-0.7S436.5,292.4,436.5,292.4z"/>
	</g>
	<g>
		<path class="st1" d="M324.2,204.1h6.8c0,0,4,0,4,4.5c0,5.2-4.4,5.2-4.4,5.2h-2.8v2.9c0,0,0,1.4,0.8,2.5h-4.5
			c0.8-0.9,0.8-2.3,0.8-2.4v-10.2C325,206.4,324.9,205,324.2,204.1z M327.9,212.9c2-0.1,4.4-0.5,4.4-4.3c0-3-2.9-3-2.9-3h-1.5v1
			V212.9z"/>
		<path class="st1" d="M344.2,204.1h6.2c0,0,4,0,4,3.2c0,3.1-2.1,4-3.4,4.3c0.8,1.4,3.8,6.4,5.6,7.6c0,0-0.9,0.2-1.9,0.2
			c-0.7,0-1.3-0.1-1.7-0.3c-0.9-0.5-4.9-6.4-5.2-7.3v5c0,0,0,1.4,0.8,2.5h-4.5c0.8-0.9,0.8-2.3,0.8-2.4v-10.2
			C345,206.4,345,205,344.2,204.1z M347.9,210.9h0.9c0,0,2.9,0,2.9-3.1c0-2.2-2.9-2.2-2.9-2.2h-0.9v1V210.9z"/>
		<path class="st1" d="M369.4,204.1c-0.8,1.2-0.8,2.5-0.8,2.5v10.1c0,0,0,1.2,0.8,2.5h-4.3c0.8-0.9,0.8-2.3,0.8-2.4v-10.2
			c0-0.2,0-1.6-0.8-2.5H369.4z"/>
		<path class="st1" d="M381.2,204.1l7.2,10.4v-7.4c0-1.4-0.2-2.1-0.8-3h3.3c-0.5,0.9-0.8,1.6-0.8,2.9v0.1v12.3c0,0-1.1,0-1.7-0.4
			c-0.7-0.3-1.3-1.2-1.3-1.2l-6.5-9v7.2c0,1.4,0.3,2.1,0.8,3h-3.3c0.5-0.9,0.8-1.6,0.8-3v-9c0-1.4-0.2-2.1-0.8-3H381.2z"/>
		<path class="st1" d="M410.3,205.9c0,0-0.1-0.1-0.3-0.2c-0.2-0.1-0.5-0.1-0.5-0.1h-1.7v11.2c0,0,0,1.2,0.8,2.5H404
			c0.8-0.9,0.8-2.3,0.8-2.4v-11.2h-1.7c0,0-0.3,0-0.5,0.1c-0.2,0.1-0.3,0.2-0.3,0.2l-1.3,1l-1.1-2.8h12.9l-1.1,2.8L410.3,205.9z"/>
		<path class="st1" d="M426,204.1c-0.8,1.2-0.8,2.5-0.8,2.5v10.1c0,0,0,1.2,0.8,2.5h-4.3c0.8-0.9,0.8-2.3,0.8-2.4v-10.2
			c0-0.2,0-1.6-0.8-2.5H426z"/>
		<path class="st1" d="M437.8,204.1l7.2,10.4v-7.4c0-1.4-0.2-2.1-0.8-3h3.3c-0.5,0.9-0.8,1.6-0.8,2.9v0.1v12.3c0,0-1.1,0-1.7-0.4
			c-0.7-0.3-1.3-1.2-1.3-1.2l-6.5-9v7.2c0,1.4,0.3,2.1,0.8,3h-3.3c0.5-0.9,0.8-1.6,0.8-3v-9c0-1.4-0.2-2.1-0.8-3H437.8z"/>
		<path class="st1" d="M466,217.8c0.1,0,0.1,0,0.2,0v-2.9c0,0,0-1.2-0.8-2.6h4.3c-0.9,1.1-0.9,2.6-0.9,2.6v2.7
			c-1.2,1.4-3,1.9-4.9,1.9c-3.6,0-6.6-2-6.6-7.8s2.9-7.8,6.6-7.8c1.8,0,3.5,0.5,4.6,1.8l-2.3,2.8c-0.8-1.5-2.2-2.5-5.2-2.5
			c0,0,0,0,0,0c-1,0-1.4,1-1.4,2.5c0,1.1,0.2,2.4,0.6,3.8C460.9,215.1,462.3,217.8,466,217.8z"/>
	</g>
	<g>
		<path class="st1" d="M317.5,237.9c-1.7,0-2.6-1.6-2.8-2.2c-0.1-0.2-0.3-0.6-0.3-1.3c0-1,1.4-2.6,3.3-4c-1.4-1.4-1.7-2.5-1.7-3.4
			c0-1,1.4-2.9,4-2.9s3.5,1.2,3.5,3.1c0,1.4-1.3,2.4-2.8,3.3c0.5,0.5,1.3,1.4,2.2,2.3c0.5-0.5,1-1.2,1.5-1.9
			c0.1-0.2,0.2-0.3,0.2-0.5c0-0.1-0.1-0.3-0.1-0.5c-0.3-0.7-0.3-0.7-0.3-0.7h4c-0.8,0.6-3.2,3-4.5,4.3c1.6,1.6,3.5,3.3,4.6,3.7
			c0,0-1.8,0.7-3,0.7c-0.2,0-0.5,0-0.6-0.1c-0.4-0.1-1.6-1.2-2.7-2.5C319.9,237.2,318.5,237.9,317.5,237.9z M318.9,235.9
			c0.6,0,1.4-0.4,2.2-1.3c-1-1.1-2.1-2.3-2.6-3c-0.9,0.6-1.5,1.1-1.5,1.7c0,0,0,0,0,0.1C317.1,234.7,317.8,235.9,318.9,235.9z
			 M318.9,225c-0.5,0-0.7,0.3-0.7,0.9c0,0.9,0.6,2.3,1.6,3.4c0.6-0.5,1.4-1,1.4-1.9c0,0,0,0,0-0.1c0-1-0.9-1.8-1.7-2.2
			C319.3,225,319,225,318.9,225z"/>
		<path class="st1" d="M346.7,233.5C346.7,233.5,346.7,233.5,346.7,233.5c0,4-5.7,4-7.8,4c0,0,0,0,0,0v0h-3.7
			c0.8-0.9,0.8-2.3,0.8-2.5v-10.3c0-0.2,0-1.6-0.8-2.5h0.8h5.5c0,0,4.1,0,4.1,3.3c0,0,0,0,0,0c0,2.1-1,3.2-2.1,3.8
			C345,229.8,346.7,230.8,346.7,233.5z M342.8,225.6C342.8,225.6,342.8,225.6,342.8,225.6c0-2.2-3.6-1.8-3.9-1.9v5.4
			C340.8,229.1,342.8,228.7,342.8,225.6z M339,235.9c0.3,0,0.8,0,1.3,0c1.5,0,3.5-0.3,3.5-2.5c0,0,0,0,0,0c0-3.3-2.6-3.3-4.8-3.3
			L339,235.9C339,235.9,339,235.9,339,235.9z"/>
		<path class="st1" d="M355.2,222.3h6.3c0,0,4.1,0,4.1,3.2c0,3.2-2.1,4.1-3.4,4.4c0.8,1.4,3.8,6.4,5.7,7.7c0,0-0.9,0.2-1.9,0.2
			c-0.7,0-1.4-0.1-1.8-0.3c-0.9-0.6-5-6.4-5.2-7.4v5c0,0,0,1.4,0.8,2.5h-4.6c0.8-0.9,0.8-2.3,0.8-2.5v-10.3
			C356.1,224.6,356,223.2,355.2,222.3z M359,229.1h0.9c0,0,2.9,0,2.9-3.1c0-2.2-2.9-2.2-2.9-2.2H359v1V229.1z"/>
		<path class="st1" d="M390.6,237.5h-5.1c0,0,0.6-0.6,0.6-1.4c0-0.1,0-0.3-0.1-0.4c-0.4-1.4-0.9-2.6-0.9-2.6h-4.8l-0.4,1.4
			c-0.2,0.8-0.4,1.4-0.4,1.9c0,0.4,0.1,0.8,0.4,1.2h-3.9c0.9-0.9,1.4-1.6,1.9-3.1l3.3-9.6c0.3-0.9,0.5-1.4,0.5-1.9
			c0-0.3-0.1-0.6-0.1-1h2.4l3.9,10.7C388.7,234.4,389.3,236.5,390.6,237.5z M382.7,226.6l-1.8,5l3.7,0L382.7,226.6z"/>
		<path class="st1" d="M402.2,222.3l7.3,10.5v-7.5c0-1.4-0.2-2.2-0.8-3.1h3.4c-0.5,0.9-0.8,1.7-0.8,2.9v0.1v12.5c0,0-1.1,0-1.8-0.4
			c-0.7-0.3-1.3-1.2-1.3-1.2l-6.5-9.1v7.3c0,1.4,0.3,2.2,0.8,3.1h-3.4c0.5-0.9,0.8-1.6,0.8-3.1v-9.1c0-1.4-0.2-2.2-0.8-3.1H402.2z"
			/>
		<path class="st1" d="M421.2,222.3h5.8c0,0,6.4,0,6.4,6.8c0,8.4-7.3,8.4-7.3,8.4h-4.9c0.8-0.9,0.8-2.3,0.8-2.5v-10.3
			C422,224.6,422,223.2,421.2,222.3z M425,235v1h0.5c0,0,0.1,0,0.2,0c0.8,0,4.8-0.3,4.8-6.5c0-5.8-4.4-5.8-4.4-5.8h-1v1V235z"/>
		<path class="st1" d="M446.9,222.3c-0.8,1.3-0.8,2.5-0.8,2.5V235c0,0,0,1.2,0.8,2.5h-4.3c0.8-0.9,0.8-2.3,0.8-2.5v-10.3
			c0-0.2,0-1.6-0.8-2.5H446.9z"/>
		<path class="st1" d="M458.9,222.3l7.3,10.5v-7.5c0-1.4-0.2-2.2-0.8-3.1h3.4c-0.5,0.9-0.8,1.7-0.8,2.9v0.1v12.5c0,0-1.1,0-1.8-0.4
			c-0.7-0.3-1.3-1.2-1.3-1.2l-6.5-9.1v7.3c0,1.4,0.3,2.2,0.8,3.1h-3.4c0.5-0.9,0.8-1.6,0.8-3.1v-9.1c0-1.4-0.2-2.2-0.8-3.1H458.9z"
			/>
		<path class="st1" d="M487.5,236.1c0.1,0,0.1,0,0.2,0v-3c0,0,0-1.2-0.9-2.6h4.3c-0.9,1.1-0.9,2.6-0.9,2.6v2.7c-1.2,1.4-3,2-4.9,2
			c-3.7,0-6.6-2.1-6.6-7.9c0-5.8,3-7.9,6.6-7.9c1.8,0,3.5,0.6,4.7,1.8l-2.3,2.9c-0.8-1.5-2.2-2.5-5.3-2.5c0,0,0,0,0,0
			c-1,0-1.4,1-1.4,2.5c0,1.1,0.2,2.4,0.6,3.9C482.4,233.4,483.7,236.1,487.5,236.1z"/>
	</g>
	<g>
		<path class="st1" d="M330.4,249.7c2.1,1.6,4.6,3,4.6,5c0,1.9-2.3,4.1-5.6,4.1c-2.5,0-4-0.6-5.2-2l2.5-2.6c0.9,1.5,2.2,2.9,4.7,2.9
			c0.9,0,1.2-0.3,1.2-0.7c0-1-2.2-2.8-4.4-4.6c-2.1-1.7-3.7-2.9-3.7-4.8c0-1.9,1.7-3.9,5.3-3.9c2.4,0,3.7,0.7,4.3,1.3l-1.2,3.3
			c-1.5-1.2-3.1-2.7-5.3-2.7c-0.6,0-1.1,0.1-1.1,0.7C326.5,246.5,328.5,248.3,330.4,249.7z"/>
		<path class="st1" d="M351.2,243.2c3.6,0,6.6,2.2,6.6,7.8c0,5.8-2.9,7.8-6.6,7.8c-3.6,0-6.6-2-6.6-7.8S347.6,243.2,351.2,243.2z
			 M353.5,257.2c1.3,0,1.7-1,1.7-2.4c0-1.1-0.3-2.5-0.6-3.8c-0.9-3.2-1.5-5.6-6.3-5.6c0,0,0,0,0,0c-1,0-1.4,1-1.4,2.5
			c0,1.1,0.2,2.4,0.6,3.8C348.3,254.6,349.6,257.2,353.5,257.2z"/>
		<path class="st1" d="M376.2,258.6h-10c0.8-0.9,0.8-2.3,0.8-2.4v-10.2c0-0.2,0-1.5-0.8-2.4h4.3c-0.8,1.2-0.8,2.5-0.8,2.5v11.2h3.2
			c0,0,0.3,0,0.5-0.1c0.2-0.1,0.3-0.2,0.3-0.2l1.3-1L376.2,258.6z"/>
		<path class="st1" d="M384.4,245.9c0-0.2,0-1.5-0.8-2.4h4.7c-0.8,1.2-0.8,2.5-0.8,2.5c0,2.5,0,5,0.1,7.5c0,0.3-0.1,3.2,3.6,3.7
			c0.1,0,0.2,0,0.3,0c1.8,0,2-2.8,2-3.6v-7.7c0-0.3-0.1-1.6-0.7-2.4h3.6c-0.7,1.2-0.7,2.5-0.7,2.5v7.6c0,0.2-0.4,5.3-6,5.3
			c-4.5,0-5.1-2.8-5.2-5.7V245.9z"/>
		<path class="st1" d="M415.6,245.3c0,0-0.1-0.1-0.3-0.2c-0.2-0.1-0.5-0.1-0.5-0.1H413v11.2c0,0,0,1.2,0.8,2.5h-4.5
			c0.8-0.9,0.8-2.3,0.8-2.4V245h-1.7c0,0-0.3,0-0.5,0.1c-0.2,0.1-0.3,0.2-0.3,0.2l-1.3,1l-1.1-2.8H418l-1.1,2.8L415.6,245.3z"/>
		<path class="st1" d="M431.2,243.5c-0.8,1.2-0.8,2.5-0.8,2.5v10.1c0,0,0,1.2,0.8,2.5h-4.3c0.8-0.9,0.8-2.3,0.8-2.4V246
			c0-0.2,0-1.6-0.8-2.5H431.2z"/>
		<path class="st1" d="M447,243.2c3.6,0,6.6,2.2,6.6,7.8c0,5.8-2.9,7.8-6.6,7.8c-3.6,0-6.6-2-6.6-7.8S443.4,243.2,447,243.2z
			 M449.4,257.2c1.3,0,1.7-1,1.7-2.4c0-1.1-0.3-2.5-0.6-3.8c-0.9-3.2-1.5-5.6-6.3-5.6c0,0,0,0,0,0c-1,0-1.4,1-1.4,2.5
			c0,1.1,0.2,2.4,0.6,3.8C444.1,254.6,445.5,257.2,449.4,257.2z"/>
		<path class="st1" d="M465,243.5l7.2,10.4v-7.4c0-1.4-0.2-2.1-0.8-3h3.3c-0.5,0.9-0.8,1.6-0.8,2.9v0.1v12.3c0,0-1.1,0-1.7-0.4
			c-0.7-0.3-1.3-1.2-1.3-1.2l-6.5-9v7.2c0,1.4,0.3,2.1,0.8,3H462c0.5-0.9,0.8-1.6,0.8-3v-9c0-1.4-0.2-2.1-0.8-3H465z"/>
		<path class="st1" d="M490.4,249.7c2.1,1.6,4.6,3,4.6,5c0,1.9-2.3,4.1-5.6,4.1c-2.5,0-4-0.6-5.2-2l2.5-2.6c0.9,1.5,2.2,2.9,4.7,2.9
			c0.9,0,1.2-0.3,1.2-0.7c0-1-2.2-2.8-4.4-4.6c-2.1-1.7-3.7-2.9-3.7-4.8c0-1.9,1.7-3.9,5.3-3.9c2.4,0,3.7,0.7,4.3,1.3l-1.2,3.3
			c-1.5-1.2-3.1-2.7-5.3-2.7c-0.6,0-1.1,0.1-1.1,0.7C486.5,246.5,488.5,248.3,490.4,249.7z"/>
	</g>
	<path class="st2" d="M336.2,98.2c0-0.7-0.6-1.3-1.4-1.3l-9.5,0.2c-0.6,0-1.1,0.5-1.1,1.1c0,0.6,0.5,1.1,1.1,1.1l2.8,0.1
		c0.2-0.7,0.5-1.2,0.9-1.6c0.4-0.3,1.1-0.7,2.1-0.3l0.2,0.1c0.8,0.5,1.6,1.2,2.2,2l1.4,0C335.7,99.5,336.2,98.9,336.2,98.2z"/>
	<path class="st2" d="M330.1,99c-0.1,0.1-0.2,0.2-0.3,0.4l1.5,0c-0.2-0.2-0.4-0.3-0.7-0.5C330.2,98.8,330.1,98.9,330.1,99z"/>
	<path class="st0" d="M331.2,99.4l-1.5,0c-0.2,0.4-0.3,0.9-0.4,1.6l3.4,0.1C332.3,100.4,331.8,99.8,331.2,99.4z"/>
	<g>
		<path d="M335.8,147.7c-1-7.6-2.3-15.2-3.4-21.9c-1.8-10.5-3.4-20.6-3-24.8l-1.5,0c-0.4,4.3,0.9,12.5,3,25.1
			c1.1,6.7,2.4,14.3,3.4,21.9l0.1,1c0.9,8.4,3.5,33-9,38.1c0.4-0.7,0.8-1.5,1-2.3c0,0,0,0,0,0c0.4-1.1,0.5-2.4,0.5-3.6
			c0-4.1-2-7.6-5-9.9c0,0-0.1-0.1-0.1-0.1c-2-1.4-4.4-2.3-7.1-2.3c-1.3,0-2.6,0.2-3.7,0.6c0,0,0,0-0.1,0c-1.5,0.5-2.9,1.3-4,2.3
			c-0.1,0-0.1,0.1-0.1,0.1c-1.3,1.2-2.4,2.6-3.1,4.2c0,0,0,0.1,0,0.1c-0.7,1.5-1,3.2-1,4.9c0,6.7,5.5,12.2,12.2,12.2
			c3.2,0,6.1-1.2,8.3-3.2c0,0,0.1-0.1,0.1-0.1c0.3-0.2,0.5-0.5,0.7-0.7c16-3.6,13.1-31.2,12.1-40.4L335.8,147.7z M322.7,174.1
			c1.6,1.9,2.6,4.3,2.6,6.9c0,0.9-0.1,1.8-0.4,2.7c-0.9,0.1-1.8,0.2-2.7,0.2C323.6,180.8,323.2,176.7,322.7,174.1z M320.7,172.2
			c0.4,1.4,2,8-0.1,11.6c-0.7,0-1.4-0.1-2.1-0.2c1.3-2.7,0.8-7-0.4-10.4c-0.3-0.7-0.7-1.7-1.2-2.6
			C318.2,170.9,319.5,171.5,320.7,172.2z M314.6,170.4c0.3,0.2,1.2,1.1,2,3.3c1.1,3.2,1.6,7.4,0.3,9.5c-1.1-0.3-2.2-0.8-3.1-1.4
			c1.6-4.5-0.4-9.2-1.4-11.2C313.1,170.5,313.8,170.4,314.6,170.4z M310.8,171.1c0.8,1.5,2.7,5.8,1.5,9.8c0,0,0,0,0,0
			c-3.4-2.8-4.1-6.9-4.2-8.2C308.9,172,309.8,171.5,310.8,171.1z M314.7,191.6c-5.9,0-10.6-4.8-10.6-10.6c0-0.6,0.1-1.2,0.2-1.7
			c0.4,1.1,1.1,2.5,2.2,3.9c2.2,2.8,6.3,6.1,13.9,6.8C318.7,191,316.8,191.6,314.7,191.6z M305.1,176.5c0.4-0.9,1-1.8,1.6-2.5
			c0.4,2,1.5,5.4,4.6,8.1c0.3,0.3,0.6,0.5,1,0.7c0,0,0,0,0,0c1.3,0.9,2.9,1.6,4.6,2c0,0,0,0,0.1,0c1.2,0.3,2.5,0.5,3.9,0.5
			c0,0,0.1,0,0.1,0c0,0,0,0,0.1,0c0.3,0,0.6,0,0.9,0c0.8,0,1.6,0,2.5-0.1c-0.5,1.2-1.3,2.3-2.2,3.2
			C307.6,188,305.4,178.2,305.1,176.5z"/>
		<path d="M334.7,101.1c-0.4-0.6-0.8-1.1-1.2-1.6c-0.7-0.8-1.4-1.5-2.2-2l-0.2-0.1c-1-0.3-1.7,0-2.1,0.3c-0.4,0.3-0.7,0.9-0.9,1.6
			l1.6,0c0.1-0.2,0.2-0.3,0.3-0.4c0.1,0,0.2-0.1,0.5-0.1c0.2,0.1,0.5,0.3,0.7,0.5c0.5,0.4,1,1,1.5,1.6c3.4,4.6,5.6,14.3,6.3,28.6
			c0.7,13.2-0.2,25.7-0.2,25.8c0,0.4,0.3,0.8,0.7,0.8c0.4,0,0.8-0.3,0.8-0.7C340.6,153.7,343.1,114.6,334.7,101.1z"/>
	</g>
	<path class="st0" d="M328.1,99.3c-0.1,0.5-0.2,1-0.3,1.6l1.5,0c0.1-0.7,0.2-1.2,0.4-1.6L328.1,99.3z"/>
	<g>
		<rect x="303.7" y="193.8" class="st1" width="2.1" height="76"/>
	</g>
	<g>
		<path class="st3" d="M286,84.3c-1.7,0-3.2,1.4-3.2,3.2c0,1.7,1.4,3.2,3.2,3.2c1.7,0,3.2-1.4,3.2-3.2
			C289.2,85.7,287.8,84.3,286,84.3z M286,89.5c-1.1,0-2-0.9-2-2c0-1.1,0.9-2,2-2c1.1,0,2,0.9,2,2C288.1,88.6,287.2,89.5,286,89.5z"
			/>
		<path class="st3" d="M253.2,135.4c2.1,9,18.1,17.1,30.3,17.4c-26.8-6.7-21.1-24.7-21.1-24.7L253.2,135.4z"/>
		<path class="st3" d="M334.8,95.2l-16.3,0.4c-9.7-17.3-24.2-22.7-33.3-20.8c-9.2,1.9-8.8,13.1-8.8,13.1s1.4,2.1,2.2,1.6
			c0.8-0.5,3.1-0.3,3.5,0.9c0.4,1.2-0.8,1.4-1.9,1.8c-1.2,0.4-1.7-0.6-1.7-0.6h-4.5l-3.4,5.1L251,97.3c-0.4,0-0.7,0.3-0.7,0.8
			c0,0.4,0.3,0.7,0.7,0.8l40.1,1.1c1.2,6-3.7,13.9-4.8,14.3c49.9,5.8,3.4,73.8-38.2,25.3c-1.5,0.5-5.1,3.1-4.7,3.8
			c3.1,5.3,11.7,10.8,20.4,14c-15,1.6-26.5-9-27.6-9c-1.1,0-18.9,6.8-17.8,7.9c1.1,1.1,11.6,1.4,10.2,1.7
			c-1.4,0.3-36.7,17.8-37.1,20.8c-0.4,3,4.7,3.1,6.6,2.3c1.9-0.8,28-13.1,31-14.4c7.6,0.6,19.6,1.1,38.7,1.1
			c-0.2,2.7,3.5,12.6,6.5,20.6c-3.9-0.2-5.5,1.6-6.1,2.6c-0.2,0.3,0,0.8,0.4,0.8c2.7,0,12.2,0,27.4,0c0.5,0,0.8-0.6,0.4-1
			c-3.6-3.9-15.1-2.6-16.5-3c-1.5-0.4-1.6-4.8-2.9-7.6s6.4-14.4,7.5-15.3c1.1-0.9,8.5,6.5,10.7,7.1c2.2,0.6,2.6-1.9,3.8-1.2
			c1.2,0.7,4.3-0.9,3.1,0.1c-0.5,0.4-0.8,1.8-0.8,3.2c0,0.5,0.7,0.7,1,0.2c2.4-4.3,7-7.3,12.3-7.3c3.5,0,6.8,1.3,9.2,3.5
			c0.2,0.2,0.5-0.1,0.4-0.3c-7-10.7-22.9-3.5-22.9-3.5s-1,0.1-1.8,0c-1.5-0.7-4.4-3-2.9-4.8c41-19,25.4-58.5,25.4-58.5L296,100
			l31.8,0.9c0.1-0.6,0.2-1.1,0.3-1.6l-2.8-0.1c-0.6,0-1.1-0.5-1.1-1.1c0-0.6,0.5-1.1,1.1-1.1l9.5-0.2c0.8,0,1.4,0.6,1.4,1.3
			s-0.6,1.3-1.3,1.3l-1.4,0c0.4,0.5,0.8,1,1.2,1.6l0.2,0c1.6,0,3-1.3,3-2.9v0C337.8,96.5,336.5,95.2,334.8,95.2z M274.7,96.7
			c0.4-0.7,2.8-4.2,9.7-3c2.3,0.5,3.9,1.5,5,2.7L274.7,96.7z M286,91c-2,0-3.6-1.6-3.6-3.6c0-2,1.6-3.6,3.6-3.6c2,0,3.6,1.6,3.6,3.6
			C289.6,89.4,288,91,286,91z"/>
	</g>
	<g>
		<path class="st3" d="M521.9,343h-460c-11.5,0-20.9-9.4-20.9-20.9V68.3c0-11.5,9.4-20.9,20.9-20.9h460c11.5,0,20.9,9.4,20.9,20.9
			v253.8C542.8,333.7,533.4,343,521.9,343z M61.9,57.5c-6,0-10.8,4.9-10.8,10.8v253.8c0,6,4.9,10.8,10.8,10.8h460
			c6,0,10.8-4.9,10.8-10.8V68.3c0-6-4.9-10.8-10.8-10.8H61.9z"/>
	</g>
</g>
<g>
</g>
<g>
</g>
<g>
</g>
<g>
</g>
<g>
</g>
<g>
</g>
<g>
</g>
<g>
</g>
<g>
</g>
<g>
</g>
<g>
</g>
<g>
</g>
<g>
</g>
<g>
</g>
<g>
</g>
</svg>
