<?xml version="1.0" encoding="utf-8"?>
<!-- Generator: Adobe Illustrator 26.3.1, SVG Export Plug-In . SVG Version: 6.00 Build 0)  -->
<svg version="1.1" id="Layer_1" xmlns="http://www.w3.org/2000/svg" xmlns:xlink="http://www.w3.org/1999/xlink" x="0px" y="0px"
	 viewBox="0 0 599.4 381.2" style="enable-background:new 0 0 599.4 381.2;" xml:space="preserve">
<style type="text/css">
	.st0{fill:#E5EBF8;}
</style>
<g>
	<g>
		<path class="st0" d="M87.2,239.3H31.9c1,4.5,3.4,8.1,7.1,10.7c3.7,2.6,8.3,3.9,13.9,3.9c3.8,0,7.2-0.6,10.1-1.7
			c2.9-1.1,5.7-2.9,8.2-5.4l11.3,12.2c-6.9,7.9-17,11.8-30.2,11.8c-8.3,0-15.6-1.6-21.9-4.8c-6.3-3.2-11.2-7.7-14.7-13.4
			c-3.4-5.7-5.2-12.2-5.2-19.5c0-7.2,1.7-13.6,5.1-19.4c3.4-5.8,8.1-10.2,14-13.5c5.9-3.2,12.6-4.8,19.9-4.8
			c7.2,0,13.6,1.5,19.5,4.6c5.8,3.1,10.4,7.5,13.7,13.3c3.3,5.8,5,12.4,5,20.1C87.6,233.9,87.5,235.8,87.2,239.3z M37.6,215.8
			c-3.3,2.7-5.3,6.4-6,11.2h36c-0.7-4.6-2.7-8.3-6-11.1c-3.3-2.8-7.3-4.1-12-4.1C44.9,211.7,40.8,213.1,37.6,215.8z"/>
		<path class="st0" d="M149,266.4c-2.1,1.5-4.6,2.7-7.7,3.5c-3,0.8-6.2,1.2-9.6,1.2c-8.7,0-15.4-2.2-20.2-6.7
			c-4.8-4.4-7.1-11-7.1-19.6v-30.1H93.1v-16.3h11.3v-17.8h21.2v17.8h18.2v16.3h-18.2v29.8c0,3.1,0.8,5.5,2.4,7.1
			c1.6,1.7,3.8,2.5,6.7,2.5c3.4,0,6.2-0.9,8.6-2.7L149,266.4z"/>
		<path class="st0" d="M227.4,203.8c5.6,5.4,8.4,13.5,8.4,24.2v41.9h-21.2v-38.6c0-5.8-1.3-10.1-3.8-13c-2.5-2.9-6.2-4.3-11-4.3
			c-5.4,0-9.6,1.7-12.8,5c-3.2,3.3-4.8,8.2-4.8,14.8v36.2h-21.2V169h21.2v35.4c2.8-2.8,6.2-5,10.2-6.5c4-1.5,8.3-2.2,13.1-2.2
			C214.5,195.7,221.8,198.4,227.4,203.8z"/>
		<path class="st0" d="M327,239.3h-55.4c1,4.5,3.4,8.1,7.1,10.7c3.7,2.6,8.3,3.9,13.9,3.9c3.8,0,7.2-0.6,10.1-1.7
			c2.9-1.1,5.7-2.9,8.2-5.4l11.3,12.2c-6.9,7.9-17,11.8-30.2,11.8c-8.3,0-15.6-1.6-21.9-4.8c-6.3-3.2-11.2-7.7-14.7-13.4
			c-3.4-5.7-5.2-12.2-5.2-19.5c0-7.2,1.7-13.6,5.1-19.4c3.4-5.8,8.1-10.2,14-13.5c5.9-3.2,12.6-4.8,19.9-4.8
			c7.2,0,13.6,1.5,19.5,4.6c5.8,3.1,10.4,7.5,13.7,13.3c3.3,5.8,5,12.4,5,20.1C327.4,233.9,327.3,235.8,327,239.3z M277.4,215.8
			c-3.3,2.7-5.3,6.4-6,11.2h36c-0.7-4.6-2.7-8.3-6-11.1c-3.3-2.8-7.3-4.1-12-4.1C284.7,211.7,280.7,213.1,277.4,215.8z"/>
		<path class="st0" d="M372.1,198.4c4.3-1.8,9.3-2.7,14.9-2.7v19.6c-2.4-0.2-3.9-0.3-4.8-0.3c-6.1,0-10.8,1.7-14.3,5.1
			c-3.4,3.4-5.2,8.5-5.2,15.3v34.6h-21.2v-73.2h20.3v9.7C364.4,202.9,367.8,200.2,372.1,198.4z"/>
		<path class="st0" d="M470.3,239.3h-55.4c1,4.5,3.4,8.1,7.1,10.7c3.7,2.6,8.3,3.9,13.9,3.9c3.8,0,7.2-0.6,10.1-1.7
			c2.9-1.1,5.7-2.9,8.2-5.4l11.3,12.2c-6.9,7.9-17,11.8-30.2,11.8c-8.3,0-15.6-1.6-21.9-4.8c-6.3-3.2-11.2-7.7-14.7-13.4
			c-3.4-5.7-5.2-12.2-5.2-19.5c0-7.2,1.7-13.6,5.1-19.4c3.4-5.8,8.1-10.2,14-13.5c5.9-3.2,12.6-4.8,19.9-4.8
			c7.2,0,13.6,1.5,19.5,4.6c5.8,3.1,10.4,7.5,13.7,13.3c3.3,5.8,5,12.4,5,20.1C470.7,233.9,470.6,235.8,470.3,239.3z M420.6,215.8
			c-3.3,2.7-5.3,6.4-6,11.2h36c-0.7-4.6-2.7-8.3-6-11.1c-3.3-2.8-7.3-4.1-12-4.1C427.9,211.7,423.9,213.1,420.6,215.8z"/>
		<path class="st0" d="M538.4,203.8c6.1,5.4,9.1,13.5,9.1,24.4v41.8h-19.9v-9.1c-4,6.8-11.4,10.2-22.3,10.2c-5.6,0-10.5-1-14.6-2.9
			c-4.1-1.9-7.3-4.5-9.5-7.9c-2.2-3.4-3.3-7.2-3.3-11.4c0-6.8,2.6-12.2,7.7-16.1c5.1-3.9,13-5.8,23.7-5.8h16.9
			c0-4.6-1.4-8.2-4.2-10.7c-2.8-2.5-7-3.7-12.7-3.7c-3.9,0-7.7,0.6-11.5,1.8c-3.8,1.2-7,2.9-9.6,5l-7.6-14.8c4-2.8,8.8-5,14.4-6.5
			c5.6-1.5,11.3-2.3,17.2-2.3C523.6,195.7,532.4,198.4,538.4,203.8z M520.3,254.2c2.8-1.7,4.8-4.1,6-7.4v-7.5h-14.6
			c-8.7,0-13.1,2.9-13.1,8.6c0,2.7,1.1,4.9,3.2,6.5c2.1,1.6,5.1,2.4,8.8,2.4C514.3,256.7,517.5,255.9,520.3,254.2z"/>
		<path class="st0" d="M566.7,169h21.2v100.9h-21.2V169z"/>
	</g>
	<g>
		<path class="st0" d="M269,304.5c1.8,1.5,2.6,3.5,2.6,6.1c0,2.6-0.9,4.6-2.6,6.1c-1.8,1.5-4.2,2.2-7.3,2.2h-5.9v7.2h-3.4v-23.7h9.3
			C264.8,302.3,267.2,303.1,269,304.5z M266.6,314.6c1.1-0.9,1.7-2.2,1.7-4c0-1.7-0.6-3-1.7-4c-1.1-0.9-2.8-1.4-4.9-1.4h-5.8v10.7
			h5.8C263.8,315.9,265.4,315.5,266.6,314.6z"/>
		<path class="st0" d="M281.5,308.7c1.1-0.5,2.5-0.8,4-0.8v3.2c-0.2,0-0.4,0-0.7,0c-1.8,0-3.1,0.5-4.2,1.6s-1.5,2.5-1.5,4.5v9h-3.3
			v-18h3.1v3C279.5,310.1,280.4,309.3,281.5,308.7z"/>
		<path class="st0" d="M289.6,304c-0.4-0.4-0.6-0.9-0.6-1.5c0-0.6,0.2-1.1,0.6-1.5c0.4-0.4,0.9-0.6,1.6-0.6c0.6,0,1.2,0.2,1.6,0.6
			c0.4,0.4,0.6,0.9,0.6,1.5c0,0.6-0.2,1.1-0.6,1.5c-0.4,0.4-0.9,0.6-1.6,0.6C290.5,304.6,290,304.4,289.6,304z M289.5,308.1h3.3v18
			h-3.3V308.1z"/>
		<path class="st0" d="M314,309.9c1.3,1.3,2,3.3,2,5.8v10.3h-3.3v-10c0-1.7-0.4-3.1-1.3-3.9c-0.8-0.9-2-1.3-3.6-1.3
			c-1.8,0-3.2,0.5-4.2,1.5c-1,1-1.5,2.5-1.5,4.4v9.3H299v-18h3.1v2.7c0.7-0.9,1.5-1.6,2.7-2.1c1.1-0.5,2.4-0.7,3.8-0.7
			C310.9,307.9,312.7,308.6,314,309.9z"/>
		<path class="st0" d="M332.2,325c-0.5,0.4-1.1,0.7-1.8,0.9c-0.7,0.2-1.4,0.3-2.2,0.3c-1.8,0-3.2-0.5-4.2-1.5c-1-1-1.5-2.4-1.5-4.2
			v-9.9h-3.1v-2.7h3.1v-3.9h3.3v3.9h5.2v2.7h-5.2v9.7c0,1,0.2,1.7,0.7,2.2c0.5,0.5,1.2,0.8,2.1,0.8c1,0,1.8-0.3,2.5-0.8L332.2,325z"
			/>
		<path class="st0" d="M336.2,304c-0.4-0.4-0.6-0.9-0.6-1.5c0-0.6,0.2-1.1,0.6-1.5c0.4-0.4,0.9-0.6,1.6-0.6c0.6,0,1.2,0.2,1.6,0.6
			c0.4,0.4,0.6,0.9,0.6,1.5c0,0.6-0.2,1.1-0.6,1.5c-0.4,0.4-0.9,0.6-1.6,0.6C337.1,304.6,336.6,304.4,336.2,304z M336.1,308.1h3.3
			v18h-3.3V308.1z"/>
		<path class="st0" d="M360.6,309.9c1.3,1.3,2,3.3,2,5.8v10.3h-3.3v-10c0-1.7-0.4-3.1-1.3-3.9c-0.8-0.9-2-1.3-3.6-1.3
			c-1.8,0-3.2,0.5-4.2,1.5c-1,1-1.5,2.5-1.5,4.4v9.3h-3.3v-18h3.1v2.7c0.7-0.9,1.5-1.6,2.7-2.1c1.1-0.5,2.4-0.7,3.8-0.7
			C357.5,307.9,359.3,308.6,360.6,309.9z"/>
		<path class="st0" d="M386,308.1v15.5c0,3.1-0.8,5.5-2.3,7c-1.6,1.5-3.9,2.3-7,2.3c-1.7,0-3.3-0.2-4.9-0.7c-1.5-0.5-2.8-1.1-3.7-2
			l1.6-2.5c0.8,0.7,1.9,1.3,3.1,1.7s2.5,0.6,3.8,0.6c2.1,0,3.7-0.5,4.7-1.5s1.5-2.5,1.5-4.5v-1.4c-0.8,0.9-1.7,1.6-2.8,2.1
			c-1.1,0.5-2.3,0.7-3.6,0.7c-1.7,0-3.3-0.4-4.7-1.1c-1.4-0.7-2.5-1.8-3.3-3.1c-0.8-1.3-1.2-2.8-1.2-4.5c0-1.7,0.4-3.2,1.2-4.5
			c0.8-1.3,1.9-2.3,3.3-3.1c1.4-0.7,2.9-1.1,4.7-1.1c1.4,0,2.6,0.2,3.8,0.7c1.2,0.5,2.1,1.2,2.9,2.2v-2.8H386z M379.8,321.7
			c0.9-0.5,1.7-1.2,2.2-2.1c0.5-0.9,0.8-1.9,0.8-3c0-1.7-0.6-3.1-1.7-4.2c-1.2-1.1-2.6-1.6-4.4-1.6c-1.8,0-3.3,0.5-4.5,1.6
			c-1.2,1.1-1.7,2.5-1.7,4.2c0,1.1,0.3,2.1,0.8,3c0.5,0.9,1.3,1.6,2.2,2.1c0.9,0.5,2,0.7,3.2,0.7
			C377.8,322.5,378.9,322.2,379.8,321.7z"/>
		<path class="st0" d="M419.2,326.4l-3.2-3.2c-2.1,2-4.7,3.1-7.9,3.1c-1.6,0-3-0.3-4.3-0.8c-1.3-0.5-2.3-1.2-3-2.2
			c-0.7-0.9-1.1-2-1.1-3.2c0-1.4,0.4-2.7,1.3-3.9c0.9-1.1,2.4-2.3,4.4-3.4c-1-1-1.8-2-2.2-2.8c-0.4-0.8-0.6-1.7-0.6-2.6
			c0-1.6,0.6-2.9,1.7-3.9c1.2-1,2.7-1.5,4.7-1.5c1.8,0,3.2,0.4,4.3,1.3c1.1,0.9,1.6,2.1,1.6,3.6c0,1.2-0.4,2.3-1.2,3.2
			c-0.8,0.9-2.1,1.9-3.9,3l5.9,5.8c0.7-1.3,1.2-2.7,1.5-4.3l2.6,0.8c-0.4,2.1-1.1,3.9-2.1,5.4l3.2,3.2L419.2,326.4z M414.1,321.4
			l-6.7-6.7c-1.6,0.9-2.8,1.7-3.4,2.5c-0.6,0.8-1,1.7-1,2.6c0,1.1,0.5,2,1.5,2.7c1,0.7,2.3,1.1,3.8,1.1
			C410.6,323.6,412.6,322.9,414.1,321.4z M406.6,305.3c-0.6,0.5-0.9,1.2-0.9,2.1c0,0.6,0.2,1.2,0.5,1.8c0.3,0.6,1,1.3,1.9,2.3
			c1.6-0.9,2.6-1.6,3.2-2.3c0.6-0.6,0.9-1.3,0.9-2.1c0-0.8-0.3-1.4-0.8-1.9c-0.6-0.5-1.3-0.7-2.3-0.7
			C408,304.5,407.2,304.8,406.6,305.3z"/>
		<path class="st0" d="M453.4,315.8c0.8,1,1.2,2.3,1.2,3.8c0,2.1-0.8,3.6-2.3,4.7c-1.5,1.1-3.8,1.7-6.8,1.7h-11.3v-23.7h10.7
			c2.7,0,4.8,0.5,6.3,1.6c1.5,1.1,2.2,2.6,2.2,4.5c0,1.2-0.3,2.3-0.9,3.2c-0.6,0.9-1.4,1.6-2.3,2.1
			C451.5,314.1,452.6,314.8,453.4,315.8z M437.6,305.1v7.6h7c1.7,0,3.1-0.3,4-1c0.9-0.6,1.4-1.6,1.4-2.8s-0.5-2.2-1.4-2.8
			c-0.9-0.6-2.3-1-4-1H437.6z M449.7,322.4c1-0.6,1.5-1.6,1.5-3c0-2.6-1.9-4-5.8-4h-7.8v7.9h7.8C447.3,323.3,448.8,323,449.7,322.4z
			"/>
		<path class="st0" d="M465,308.7c1.1-0.5,2.5-0.8,4-0.8v3.2c-0.2,0-0.4,0-0.7,0c-1.8,0-3.1,0.5-4.2,1.6c-1,1.1-1.5,2.5-1.5,4.5v9
			h-3.3v-18h3.1v3C463.1,310.1,463.9,309.3,465,308.7z"/>
		<path class="st0" d="M485.3,309.8c1.3,1.2,2,3,2,5.5v10.9h-3.1v-2.4c-0.5,0.8-1.3,1.5-2.3,1.9c-1,0.4-2.2,0.7-3.6,0.7
			c-2,0-3.6-0.5-4.8-1.5c-1.2-1-1.8-2.2-1.8-3.8c0-1.6,0.6-2.9,1.7-3.8c1.2-1,3-1.4,5.5-1.4h5.2v-0.6c0-1.4-0.4-2.5-1.2-3.2
			c-0.8-0.7-2-1.1-3.6-1.1c-1.1,0-2.1,0.2-3.1,0.5c-1,0.4-1.9,0.8-2.6,1.4l-1.4-2.4c0.9-0.7,2-1.3,3.3-1.7c1.3-0.4,2.7-0.6,4.1-0.6
			C482.1,307.9,484,308.5,485.3,309.8z M482,322.9c0.9-0.6,1.6-1.3,2-2.4v-2.5h-5c-2.8,0-4.1,0.9-4.1,2.8c0,0.9,0.4,1.6,1.1,2.1
			c0.7,0.5,1.7,0.8,2.9,0.8C480.1,323.8,481.1,323.5,482,322.9z"/>
		<path class="st0" d="M508.4,309.9c1.3,1.3,2,3.3,2,5.8v10.3h-3.3v-10c0-1.7-0.4-3.1-1.3-3.9c-0.8-0.9-2-1.3-3.6-1.3
			c-1.8,0-3.2,0.5-4.2,1.5c-1,1-1.5,2.5-1.5,4.4v9.3h-3.3v-18h3.1v2.7c0.7-0.9,1.5-1.6,2.7-2.1c1.1-0.5,2.4-0.7,3.8-0.7
			C505.2,307.9,507,308.6,508.4,309.9z"/>
		<path class="st0" d="M533.5,300.9v25.2h-3.1v-2.8c-0.7,1-1.6,1.8-2.7,2.3c-1.1,0.5-2.3,0.8-3.7,0.8c-1.7,0-3.3-0.4-4.7-1.2
			c-1.4-0.8-2.5-1.8-3.2-3.2c-0.8-1.4-1.2-3-1.2-4.8c0-1.8,0.4-3.4,1.2-4.8c0.8-1.4,1.9-2.5,3.2-3.2c1.4-0.8,2.9-1.2,4.7-1.2
			c1.3,0,2.5,0.2,3.6,0.7c1.1,0.5,2,1.2,2.7,2.2v-9.9H533.5z M527.3,322.6c0.9-0.5,1.7-1.3,2.2-2.2c0.5-1,0.8-2.1,0.8-3.3
			c0-1.2-0.3-2.3-0.8-3.3c-0.5-1-1.2-1.7-2.2-2.2c-0.9-0.5-2-0.8-3.1-0.8c-1.2,0-2.2,0.3-3.1,0.8c-0.9,0.5-1.6,1.3-2.2,2.2
			c-0.5,1-0.8,2.1-0.8,3.3c0,1.2,0.3,2.3,0.8,3.3c0.5,1,1.3,1.7,2.2,2.2c0.9,0.5,2,0.8,3.1,0.8C525.3,323.4,526.4,323.2,527.3,322.6
			z"/>
		<path class="st0" d="M539.7,304c-0.4-0.4-0.6-0.9-0.6-1.5c0-0.6,0.2-1.1,0.6-1.5c0.4-0.4,0.9-0.6,1.6-0.6c0.6,0,1.2,0.2,1.6,0.6
			c0.4,0.4,0.6,0.9,0.6,1.5c0,0.6-0.2,1.1-0.6,1.5c-0.4,0.4-0.9,0.6-1.6,0.6C540.6,304.6,540.1,304.4,539.7,304z M539.6,308.1h3.3
			v18h-3.3V308.1z"/>
		<path class="st0" d="M564.1,309.9c1.3,1.3,2,3.3,2,5.8v10.3h-3.3v-10c0-1.7-0.4-3.1-1.3-3.9c-0.8-0.9-2-1.3-3.6-1.3
			c-1.8,0-3.2,0.5-4.2,1.5c-1,1-1.5,2.5-1.5,4.4v9.3h-3.3v-18h3.1v2.7c0.7-0.9,1.5-1.6,2.7-2.1c1.1-0.5,2.4-0.7,3.8-0.7
			C561,307.9,562.8,308.6,564.1,309.9z"/>
		<path class="st0" d="M589.5,308.1v15.5c0,3.1-0.8,5.5-2.3,7c-1.6,1.5-3.9,2.3-7,2.3c-1.7,0-3.3-0.2-4.9-0.7
			c-1.5-0.5-2.8-1.1-3.7-2l1.6-2.5c0.8,0.7,1.9,1.3,3.1,1.7s2.5,0.6,3.8,0.6c2.1,0,3.7-0.5,4.7-1.5c1-1,1.5-2.5,1.5-4.5v-1.4
			c-0.8,0.9-1.7,1.6-2.8,2.1c-1.1,0.5-2.3,0.7-3.6,0.7c-1.7,0-3.3-0.4-4.7-1.1c-1.4-0.7-2.5-1.8-3.3-3.1c-0.8-1.3-1.2-2.8-1.2-4.5
			c0-1.7,0.4-3.2,1.2-4.5c0.8-1.3,1.9-2.3,3.3-3.1c1.4-0.7,2.9-1.1,4.7-1.1c1.4,0,2.6,0.2,3.8,0.7c1.2,0.5,2.1,1.2,2.9,2.2v-2.8
			H589.5z M583.3,321.7c0.9-0.5,1.7-1.2,2.2-2.1c0.5-0.9,0.8-1.9,0.8-3c0-1.7-0.6-3.1-1.7-4.2c-1.2-1.1-2.6-1.6-4.4-1.6
			c-1.8,0-3.3,0.5-4.5,1.6c-1.2,1.1-1.7,2.5-1.7,4.2c0,1.1,0.3,2.1,0.8,3c0.5,0.9,1.3,1.6,2.2,2.1c0.9,0.5,2,0.7,3.2,0.7
			C581.3,322.5,582.4,322.2,583.3,321.7z"/>
		<path class="st0" d="M254.2,366.2c-1.7-0.6-3-1.3-3.9-2.2l1.3-2.6c0.9,0.8,2.1,1.5,3.5,2c1.4,0.5,2.9,0.8,4.4,0.8
			c2,0,3.4-0.3,4.4-1c1-0.7,1.5-1.6,1.5-2.7c0-0.8-0.3-1.5-0.8-2c-0.5-0.5-1.2-0.9-2-1.2c-0.8-0.3-1.9-0.6-3.3-0.9
			c-1.8-0.4-3.2-0.9-4.3-1.3c-1.1-0.4-2-1.1-2.8-2c-0.8-0.9-1.2-2.1-1.2-3.6c0-1.3,0.3-2.4,1-3.4c0.7-1,1.7-1.8,3-2.4
			c1.4-0.6,3-0.9,5.1-0.9c1.4,0,2.8,0.2,4.1,0.5c1.4,0.4,2.5,0.9,3.5,1.6l-1.1,2.7c-1-0.6-2.1-1.1-3.2-1.4c-1.1-0.3-2.2-0.5-3.3-0.5
			c-1.9,0-3.4,0.4-4.3,1.1c-1,0.7-1.4,1.6-1.4,2.7c0,0.8,0.3,1.5,0.8,2c0.5,0.5,1.2,0.9,2,1.2c0.8,0.3,1.9,0.6,3.3,0.9
			c1.8,0.4,3.2,0.9,4.3,1.3c1.1,0.4,2,1.1,2.8,2c0.8,0.9,1.2,2.1,1.2,3.6c0,1.2-0.3,2.4-1,3.4c-0.7,1-1.7,1.8-3.1,2.4
			c-1.4,0.6-3.1,0.9-5.1,0.9C257.6,367,255.9,366.8,254.2,366.2z"/>
		<path class="st0" d="M276,365.8c-1.4-0.8-2.5-1.9-3.3-3.3c-0.8-1.4-1.2-3-1.2-4.7c0-1.8,0.4-3.3,1.2-4.7c0.8-1.4,1.9-2.5,3.3-3.3
			c1.4-0.8,3-1.2,4.8-1.2c1.8,0,3.4,0.4,4.8,1.2c1.4,0.8,2.5,1.9,3.3,3.3c0.8,1.4,1.2,3,1.2,4.7c0,1.8-0.4,3.3-1.2,4.7
			c-0.8,1.4-1.9,2.5-3.3,3.3c-1.4,0.8-3,1.2-4.8,1.2C279,367,277.4,366.6,276,365.8z M283.9,363.3c0.9-0.5,1.6-1.3,2.2-2.2
			c0.5-1,0.8-2.1,0.8-3.3c0-1.2-0.3-2.3-0.8-3.3c-0.5-1-1.2-1.7-2.2-2.2c-0.9-0.5-2-0.8-3.1-0.8s-2.2,0.3-3.1,0.8
			c-0.9,0.5-1.6,1.3-2.2,2.2c-0.5,1-0.8,2.1-0.8,3.3c0,1.2,0.3,2.3,0.8,3.3c0.5,1,1.3,1.7,2.2,2.2c0.9,0.5,2,0.8,3.1,0.8
			S283,363.9,283.9,363.3z"/>
		<path class="st0" d="M294.6,341.6h3.3v25.2h-3.3V341.6z"/>
		<path class="st0" d="M320.8,348.8v18h-3.1v-2.7c-0.7,0.9-1.5,1.6-2.6,2.2c-1.1,0.5-2.2,0.8-3.5,0.8c-2.4,0-4.3-0.7-5.7-2
			c-1.4-1.3-2.1-3.3-2.1-5.9v-10.3h3.3v10c0,1.7,0.4,3.1,1.3,4c0.8,0.9,2,1.3,3.6,1.3c1.7,0,3.1-0.5,4.1-1.6c1-1,1.5-2.5,1.5-4.4
			v-9.3H320.8z"/>
		<path class="st0" d="M337.1,365.7c-0.5,0.4-1.1,0.7-1.8,0.9c-0.7,0.2-1.4,0.3-2.2,0.3c-1.8,0-3.2-0.5-4.2-1.5
			c-1-1-1.5-2.4-1.5-4.2v-9.9h-3.1v-2.7h3.1v-3.9h3.3v3.9h5.2v2.7h-5.2v9.7c0,1,0.2,1.7,0.7,2.2c0.5,0.5,1.2,0.8,2.1,0.8
			c1,0,1.8-0.3,2.5-0.8L337.1,365.7z"/>
		<path class="st0" d="M341.1,344.7c-0.4-0.4-0.6-0.9-0.6-1.5c0-0.6,0.2-1.1,0.6-1.5c0.4-0.4,0.9-0.6,1.6-0.6c0.6,0,1.2,0.2,1.6,0.6
			c0.4,0.4,0.6,0.9,0.6,1.5c0,0.6-0.2,1.1-0.6,1.5c-0.4,0.4-0.9,0.6-1.6,0.6C342.1,345.3,341.6,345.1,341.1,344.7z M341.1,348.8h3.3
			v18h-3.3V348.8z"/>
		<path class="st0" d="M353.4,365.8c-1.4-0.8-2.5-1.9-3.3-3.3c-0.8-1.4-1.2-3-1.2-4.7c0-1.8,0.4-3.3,1.2-4.7
			c0.8-1.4,1.9-2.5,3.3-3.3c1.4-0.8,3-1.2,4.8-1.2s3.4,0.4,4.8,1.2c1.4,0.8,2.5,1.9,3.3,3.3c0.8,1.4,1.2,3,1.2,4.7
			c0,1.8-0.4,3.3-1.2,4.7c-0.8,1.4-1.9,2.5-3.3,3.3c-1.4,0.8-3,1.2-4.8,1.2S354.9,366.6,353.4,365.8z M361.3,363.3
			c0.9-0.5,1.6-1.3,2.2-2.2c0.5-1,0.8-2.1,0.8-3.3c0-1.2-0.3-2.3-0.8-3.3c-0.5-1-1.2-1.7-2.2-2.2c-0.9-0.5-2-0.8-3.1-0.8
			s-2.2,0.3-3.1,0.8c-0.9,0.5-1.6,1.3-2.2,2.2c-0.5,1-0.8,2.1-0.8,3.3c0,1.2,0.3,2.3,0.8,3.3c0.5,1,1.3,1.7,2.2,2.2
			c0.9,0.5,2,0.8,3.1,0.8S360.4,363.9,361.3,363.3z"/>
		<path class="st0" d="M387.1,350.6c1.3,1.3,2,3.3,2,5.8v10.3h-3.3v-10c0-1.7-0.4-3.1-1.3-3.9c-0.8-0.9-2-1.3-3.6-1.3
			c-1.8,0-3.2,0.5-4.2,1.5c-1,1-1.5,2.5-1.5,4.4v9.3h-3.3v-18h3.1v2.7c0.7-0.9,1.5-1.6,2.7-2.1c1.1-0.5,2.4-0.7,3.8-0.7
			C384,348.6,385.8,349.3,387.1,350.6z"/>
		<path class="st0" d="M396.1,366.4c-1.4-0.4-2.4-0.9-3.2-1.5l1.4-2.6c0.8,0.6,1.8,1,2.9,1.4c1.1,0.3,2.3,0.5,3.4,0.5
			c2.8,0,4.3-0.8,4.3-2.4c0-0.5-0.2-1-0.6-1.3c-0.4-0.3-0.9-0.5-1.4-0.7c-0.6-0.1-1.4-0.3-2.5-0.5c-1.4-0.2-2.6-0.5-3.5-0.8
			c-0.9-0.3-1.7-0.8-2.4-1.5c-0.7-0.7-1-1.7-1-3c0-1.6,0.7-2.9,2-3.9c1.4-1,3.2-1.5,5.5-1.5c1.2,0,2.4,0.1,3.6,0.4
			c1.2,0.3,2.2,0.7,3,1.2l-1.4,2.6c-1.5-1-3.2-1.4-5.2-1.4c-1.4,0-2.4,0.2-3.2,0.7c-0.7,0.5-1.1,1.1-1.1,1.8c0,0.6,0.2,1.1,0.6,1.4
			c0.4,0.3,0.9,0.6,1.5,0.7c0.6,0.2,1.4,0.3,2.5,0.5c1.4,0.2,2.6,0.5,3.5,0.8c0.9,0.3,1.7,0.8,2.3,1.4c0.6,0.7,0.9,1.6,0.9,2.8
			c0,1.6-0.7,2.9-2.1,3.9c-1.4,1-3.3,1.4-5.7,1.4C398.9,367,397.5,366.8,396.1,366.4z"/>
	</g>
	<path class="st0" d="M271.1,116.3l-8,8.4c-3.6-5.1-6.6-10.8-8.7-16.9c-0.5-1.4-0.9-2.8-1.3-4.2c-1.8-6.2-2.7-12.7-2.7-19.3
		c0-27.8,16.4-53,41.9-64.2c0,0,0,0,0,0c0,0,0,0,0,0c0,0,0,0,0,0c0,0,0,0,0,0c4.2-1.9,8.6-3.3,13.1-4.3c0,0,0,0,0,0
		c10-2.2,20.7-2.2,30.8,0.1c7.6,1.7,14.9,4.7,21.5,8.9l-8,8.4c0,0,0,0,0,0c-0.3-0.2-0.6-0.3-0.9-0.5c-0.3-0.1-0.5-0.3-0.8-0.4
		c-0.3-0.2-0.6-0.3-0.9-0.5c-0.3-0.1-0.5-0.3-0.8-0.4c-0.3-0.1-0.6-0.3-0.9-0.4c-0.3-0.1-0.5-0.3-0.8-0.4c-0.3-0.1-0.6-0.3-0.9-0.4
		c-0.2-0.1-0.3-0.1-0.5-0.2c0.6,3,0.9,6,1.1,9l-11.8,12.5c0.4-2.8,0.6-5.6,0.6-8.5c0-5.7-0.8-11.3-2.4-16.7
		c-1.7-0.3-3.5-0.5-5.2-0.7c-0.2,0-0.4,0-0.7,0c-0.7,0-1.3-0.1-2-0.1c-0.3,0-0.6,0-0.9,0c-0.6,0-1.2,0-1.8,0c-0.3,0-0.6,0-1,0
		c-0.6,0-1.2,0-1.7,0.1c-0.3,0-0.7,0-1,0.1c-0.6,0-1.2,0.1-1.8,0.2c-0.3,0-0.6,0.1-0.9,0.1c-0.9,0.1-1.7,0.2-2.6,0.4
		c-0.1,0.4-0.2,0.8-0.4,1.2c-0.1,0.2-0.1,0.4-0.2,0.7c-0.2,0.7-0.4,1.5-0.5,2.3c0,0.2-0.1,0.3-0.1,0.5c-0.1,0.6-0.3,1.2-0.4,1.8
		c0,0.3-0.1,0.5-0.1,0.8c-0.1,0.5-0.2,1-0.2,1.5c0,0.3-0.1,0.6-0.1,0.9c-0.1,0.5-0.1,1-0.2,1.5c0,0.3-0.1,0.6-0.1,0.9
		c0,0.5-0.1,1.1-0.1,1.6c0,0.3,0,0.5,0,0.8c0,0.8,0,1.6,0,2.4c0,0.9,0,1.8,0.1,2.7c0,0.3,0,0.6,0.1,0.9c0,0.6,0.1,1.2,0.1,1.8
		c0,0.3,0.1,0.7,0.1,1c0.1,0.5,0.1,1.1,0.2,1.6c0,0.3,0.1,0.7,0.1,1c0.1,0.5,0.2,1.1,0.3,1.6c0.1,0.3,0.1,0.7,0.2,1
		c0.1,0.6,0.2,1.1,0.4,1.7c0.1,0.3,0.1,0.6,0.2,0.9c0.2,0.7,0.4,1.5,0.6,2.2c0,0.1,0.1,0.2,0.1,0.3c0.2,0.8,0.5,1.7,0.8,2.5
		c0.1,0.2,0.2,0.5,0.3,0.7c0.2,0.6,0.4,1.1,0.6,1.7c0.1,0.3,0.2,0.6,0.4,0.9c0.2,0.5,0.4,1,0.7,1.5c0.1,0.3,0.3,0.6,0.4,0.9
		c0.2,0.5,0.5,1,0.7,1.5c0.1,0.1,0.1,0.3,0.2,0.4l-8.2,8.6c-4.5-7.6-7.4-15.9-8.8-24.7c-0.2-1.3-0.4-2.7-0.5-4
		c-0.2-2.2-0.3-4.5-0.3-6.8c0-1.1,0-2.1,0.1-3.2c0-0.3,0-0.7,0.1-1c0-0.7,0.1-1.4,0.2-2.1c0-0.4,0.1-0.8,0.1-1.2
		c0.1-0.6,0.1-1.3,0.2-1.9c0.1-0.4,0.1-0.9,0.2-1.3c0.1-0.6,0.2-1.2,0.3-1.8c0-0.2,0.1-0.4,0.1-0.6c-0.1,0-0.2,0.1-0.3,0.1
		c-0.1,0.2-0.3,0.3-0.4,0.5c-0.2,0.3-0.5,0.6-0.7,0.9c-0.3,0.4-0.5,0.7-0.8,1.1c-0.2,0.3-0.4,0.6-0.7,1c-0.2,0.4-0.5,0.7-0.7,1.1
		c-0.2,0.3-0.4,0.7-0.6,1c-0.2,0.4-0.5,0.8-0.7,1.1c-0.2,0.3-0.4,0.7-0.6,1c-0.2,0.4-0.4,0.8-0.6,1.2c-0.2,0.3-0.4,0.7-0.5,1
		c-0.2,0.4-0.4,0.8-0.6,1.2c-0.2,0.3-0.3,0.7-0.5,1c-0.2,0.4-0.4,0.8-0.5,1.2c-0.1,0.3-0.3,0.7-0.4,1c-0.2,0.4-0.3,0.8-0.5,1.3
		c-0.1,0.4-0.3,0.7-0.4,1.1c-0.1,0.4-0.3,0.9-0.4,1.3c-0.1,0.4-0.2,0.7-0.3,1.1c-0.1,0.4-0.3,0.9-0.4,1.3c-0.1,0.4-0.2,0.7-0.3,1.1
		c-0.1,0.4-0.2,0.9-0.3,1.3c-0.1,0.4-0.2,0.7-0.2,1.1c-0.1,0.5-0.2,0.9-0.3,1.4c-0.1,0.4-0.1,0.7-0.2,1.1c-0.1,0.5-0.1,1-0.2,1.4
		c-0.1,0.3-0.1,0.7-0.2,1c-0.1,0.5-0.1,1-0.2,1.5c0,0.3-0.1,0.6-0.1,1c0,0.6-0.1,1.1-0.1,1.7c0,0.3,0,0.5-0.1,0.8
		c0,0.8-0.1,1.7-0.1,2.5c0,9.7,2.3,19.1,6.8,27.5l-8.2,8.6c-6.6-10.9-10-23.2-10-36.1c0-1,0-2,0.1-3c0-0.3,0-0.7,0.1-1
		c0-0.7,0.1-1.3,0.1-2c0-0.4,0.1-0.8,0.1-1.2c0.1-0.6,0.1-1.2,0.2-1.8c0.1-0.4,0.1-0.8,0.2-1.2c0.1-0.6,0.2-1.1,0.3-1.7
		c0.1-0.4,0.2-0.8,0.2-1.3c0.1-0.5,0.2-1.1,0.3-1.6c0.1-0.4,0.2-0.8,0.3-1.3c0.1-0.5,0.2-1.1,0.4-1.6c0.1-0.4,0.2-0.8,0.3-1.3
		c0.1-0.5,0.3-1,0.4-1.5c0.1-0.4,0.3-0.8,0.4-1.3c0.1-0.3,0.2-0.6,0.3-0.9c-10.2,10.7-16.2,25.1-16.2,40.5c0,5.5,0.8,10.9,2.3,16.2
		c0.3,1.2,0.7,2.3,1.1,3.5C266.6,108.5,268.6,112.6,271.1,116.3z M380.2,47.6c6.8,10.9,10.4,23.6,10.4,36.9c0,8.1-1.4,16-4.1,23.6
		c0,0,0,0,0,0c-2.7,7.6-6.7,14.6-11.9,20.9c0,0,0,0,0,0c-13.4,16.3-33.1,25.6-54.2,25.6c-14.6,0-28.5-4.6-40-12.6l8.5-8
		c9.2,5.9,20.1,9.2,31.6,9.2c9.8,0,19.2-2.4,27.6-6.8c0,0,0,0,0,0c-1.2,0.1-2.5,0.1-3.7,0.1c-14.2,0-27.8-4.2-39.5-12.1
		c-1.1-0.8-2.2-1.6-3.3-2.4l8.4-7.9c0.4,0.3,0.8,0.6,1.3,0.9c9.8,6.7,21.2,10.2,33.1,10.2c1,0,2,0,3-0.1c0.3,0,0.7,0,1-0.1
		c0.7,0,1.3-0.1,2-0.2c0.4,0,0.8-0.1,1.2-0.1c0.6-0.1,1.2-0.1,1.8-0.2c0.4-0.1,0.8-0.1,1.2-0.2c0.6-0.1,1.1-0.2,1.7-0.3
		c0.4-0.1,0.8-0.2,1.3-0.3c0.5-0.1,1.1-0.2,1.6-0.4c0.4-0.1,0.9-0.2,1.3-0.4c0.5-0.1,1-0.3,1.6-0.5c0.4-0.1,0.8-0.3,1.3-0.4
		c0.5-0.2,1-0.4,1.5-0.5c0.4-0.2,0.8-0.3,1.3-0.5c0.3-0.1,0.6-0.2,0.9-0.4c1.9-2.4,3.5-4.9,5-7.5c-0.1,0-0.2,0-0.3,0
		c-0.5,0-0.9,0-1.4,0.1c-0.2,0-0.4,0-0.7,0c-0.7,0-1.4,0-2.1,0c-8.2,0-16.2-1.4-23.8-4.2c-1.9-0.7-3.8-1.5-5.6-2.3
		c-0.3-0.1-0.5-0.3-0.8-0.4c-0.3-0.2-0.7-0.3-1-0.5c-3.4-1.7-6.6-3.7-9.7-5.9c-0.3-0.2-0.6-0.5-0.9-0.7l8.4-7.9
		c0.3,0.2,0.5,0.4,0.8,0.6c0.4,0.2,0.7,0.5,1.1,0.7c0.6,0.4,1.1,0.7,1.7,1c0.4,0.2,0.7,0.4,1.1,0.6c0.6,0.4,1.3,0.7,1.9,1
		c0.3,0.2,0.6,0.3,0.9,0.5c0.9,0.5,1.9,0.9,2.9,1.3c8.6-8.5,14.3-19.4,16.5-31.1L380.2,47.6z M379.2,84.4c0-9.4-2.2-18.5-6.3-26.6
		c-0.6,15.9-6.5,31.1-16.7,43.1c3.6,0.7,7.3,1.1,11.1,1.1c1,0,1.9,0,2.9-0.1c0.3,0,0.6,0,0.8-0.1c0.7,0,1.4-0.1,2.1-0.2
		c0.3,0,0.6-0.1,0.8-0.1c0.9-0.1,1.9-0.2,2.8-0.4C378.4,95.8,379.2,90.2,379.2,84.4z M382.5,22.6c2.7,2.7,2.6,7.1-0.1,9.7
		l-122,115.4c-0.8,0.8-2.1,0.8-3,0c-0.8-0.8-0.8-2.1,0-3l115.4-122C375.5,20,379.8,19.9,382.5,22.6z M380.1,25.1
		c-1.3-1.3-3.3-1.3-4.6,0l-14.8,15.7c-1,1-1,2.7,0.1,3.7c1,1,2.7,1,3.7,0.1l15.7-14.8c0.6-0.6,0.9-1.4,0.9-2.3
		C381,26.5,380.7,25.7,380.1,25.1z"/>
</g>
<g>
</g>
<g>
</g>
<g>
</g>
<g>
</g>
<g>
</g>
<g>
</g>
<g>
</g>
<g>
</g>
<g>
</g>
<g>
</g>
<g>
</g>
<g>
</g>
<g>
</g>
<g>
</g>
<g>
</g>
</svg>
