<?xml version="1.0" encoding="utf-8"?>
<!-- Generator: Adobe Illustrator 26.3.1, SVG Export Plug-In . SVG Version: 6.00 Build 0)  -->
<svg version="1.1" id="Layer_1" xmlns="http://www.w3.org/2000/svg" xmlns:xlink="http://www.w3.org/1999/xlink" x="0px" y="0px"
	 viewBox="0 0 1315.1 212" style="enable-background:new 0 0 1315.1 212;" xml:space="preserve">
<style type="text/css">
	.st0{opacity:0.4;fill:none;stroke:#999999;stroke-width:8;stroke-miterlimit:10;}
	.st1{opacity:0.4;fill:none;stroke:#FF0000;stroke-width:8;stroke-miterlimit:10;}
	.st2{opacity:0.4;fill:none;stroke:#FBB03B;stroke-width:8;stroke-miterlimit:10;}
</style>
<g>
	<path d="M146.4,93.8h-14V71.3h3.5v19.5h10.5V93.8z"/>
	<path d="M147.9,85.6c0-5.3,3.1-8.5,7.8-8.5s7.8,3.2,7.8,8.5c0,5.3-3.1,8.5-7.8,8.5S147.9,90.9,147.9,85.6z M160.1,85.6
		c0-3.6-1.7-5.7-4.4-5.7s-4.4,2.1-4.4,5.7c0,3.7,1.7,5.8,4.4,5.8C158.4,91.3,160.1,89.2,160.1,85.6z"/>
	<path d="M183.2,93.8h-3.5l-3.5-12.3h-0.1l-3.4,12.3h-3.5l-4.5-16.4h3.4l3,12.9h0.1l3.4-12.9h3.2l3.4,12.9h0.1l3-12.9h3.3
		L183.2,93.8z"/>
	<path d="M189.9,86.2v-3h10.2v3H189.9z"/>
	<path d="M204.6,80h-2.3v-2.6h2.3v-1.6c0-3.2,1.5-4.7,4.8-4.7c0.7,0,1.5,0.1,1.9,0.2v2.5c-0.3-0.1-0.8-0.1-1.2-0.1
		c-1.5,0-2.2,0.7-2.2,2.2v1.5h3.3V80H208v13.8h-3.4V80z"/>
	<path d="M213.8,73c0-1.1,0.9-1.9,2-1.9c1.1,0,2,0.9,2,1.9c0,1.1-0.9,1.9-2,1.9C214.6,75,213.8,74.1,213.8,73z M214,77.4h3.4v16.4
		H214V77.4z"/>
	<path d="M220.1,85.6c0-5.2,2.8-8.5,6.9-8.5c2.4,0,4.2,1.2,5.2,3h0.1v-8.8h3.4v22.5h-3.3V91h-0.1c-1,1.9-2.8,3.1-5.2,3.1
		C222.9,94.1,220.1,90.8,220.1,85.6z M223.6,85.6c0,3.5,1.7,5.6,4.3,5.6c2.6,0,4.3-2.2,4.3-5.6c0-3.4-1.7-5.6-4.3-5.6
		C225.3,80,223.6,82.1,223.6,85.6z"/>
	<path d="M253.2,89c-0.5,3-3.3,5.1-7.1,5.1c-4.8,0-7.8-3.3-7.8-8.5c0-5.2,3-8.6,7.6-8.6c4.6,0,7.4,3.2,7.4,8.2v1.2h-11.6v0.2
		c0,2.9,1.7,4.8,4.4,4.8c1.9,0,3.3-1,3.8-2.4H253.2z M241.8,84.1h8.2c-0.1-2.5-1.7-4.3-4-4.3S241.9,81.6,241.8,84.1z"/>
	<path d="M256.1,71.3h3.4v22.5h-3.4V71.3z"/>
	<path d="M262.8,73c0-1.1,0.9-1.9,2-1.9c1.1,0,2,0.9,2,1.9c0,1.1-0.9,1.9-2,1.9C263.7,75,262.8,74.1,262.8,73z M263.1,77.4h3.4v16.4
		h-3.4V77.4z"/>
	<path d="M274.3,73.5v3.9h3.1V80h-3.1v9.1c0,1.4,0.6,2.1,2,2.1c0.3,0,0.9,0,1.1-0.1v2.7c-0.4,0.1-1.1,0.2-1.9,0.2
		c-3.3,0-4.6-1.3-4.6-4.4V80h-2.4v-2.7h2.4v-3.9H274.3z"/>
	<path d="M280.4,99.9v-2.7c0.2,0.1,0.8,0.1,1.1,0.1c1.6,0,2.4-0.7,2.9-2.3c0,0,0.3-1,0.3-1l-5.9-16.5h3.7l4.2,13.4h0l4.2-13.4h3.6
		l-6.2,17.3c-1.4,4-3,5.3-6.4,5.3C281.5,99.9,280.7,99.9,280.4,99.9z"/>
	<path d="M150.6,132.2h-3.3l-6.1-22.5h3.6l4.2,17.7h0.1l4.8-17.7h3.2l4.8,17.7h0.1l4.2-17.7h3.6l-6.1,22.5h-3.3l-4.9-17h-0.2
		L150.6,132.2z"/>
	<path d="M172.1,111.5c0-1.1,0.9-1.9,2-1.9c1.1,0,2,0.9,2,1.9c0,1.1-0.9,1.9-2,1.9C172.9,113.4,172.1,112.5,172.1,111.5z
		 M172.3,115.8h3.4v16.4h-3.4V115.8z"/>
	<path d="M179.2,115.8h3.2v2.8h0.1c0.5-1.9,2-3.1,4-3.1c0.5,0,0.9,0.1,1.2,0.1v3.1c-0.3-0.1-0.9-0.2-1.5-0.2c-2.2,0-3.5,1.5-3.5,3.8
		v9.8h-3.4V115.8z"/>
	<path d="M203.1,127.4c-0.5,3-3.3,5.1-7.1,5.1c-4.8,0-7.8-3.3-7.8-8.5c0-5.2,3-8.6,7.6-8.6c4.6,0,7.4,3.2,7.4,8.2v1.2h-11.6v0.2
		c0,2.9,1.7,4.8,4.4,4.8c1.9,0,3.3-1,3.8-2.4H203.1z M191.6,122.5h8.2c-0.1-2.5-1.7-4.3-4-4.3S191.8,120,191.6,122.5z"/>
	<path d="M206.8,118.5h-2.3v-2.6h2.3v-1.6c0-3.2,1.5-4.7,4.8-4.7c0.7,0,1.5,0.1,1.9,0.2v2.5c-0.3-0.1-0.8-0.1-1.2-0.1
		c-1.5,0-2.2,0.7-2.2,2.2v1.5h3.3v2.6h-3.3v13.8h-3.4V118.5z"/>
	<path d="M216.2,115.8h3.2v2.8h0.1c0.5-1.9,2-3.1,4-3.1c0.5,0,0.9,0.1,1.2,0.1v3.1c-0.3-0.1-0.9-0.2-1.5-0.2c-2.2,0-3.5,1.5-3.5,3.8
		v9.8h-3.4V115.8z"/>
	<path d="M225.7,127.6c0-2.9,2.2-4.6,6.1-4.9l4.5-0.3v-1.3c0-1.8-1.2-2.9-3.3-2.9c-2,0-3.2,0.9-3.5,2.4h-3.2c0.2-3,2.7-5.2,6.8-5.2
		c4,0,6.5,2.1,6.5,5.4v11.3h-3.2v-2.7h-0.1c-1,1.8-3,3-5.2,3C227.9,132.5,225.7,130.5,225.7,127.6z M236.3,126.1v-1.3l-4,0.2
		c-2,0.1-3.2,1-3.2,2.4c0,1.4,1.2,2.4,3,2.4C234.4,129.8,236.3,128.2,236.3,126.1z"/>
	<path d="M242.9,115.8h3.2v2.8h0.1c0.7-1.8,2.5-3,4.7-3c2.3,0,3.9,1.2,4.6,3.2h0.1c0.8-2,2.8-3.2,5.1-3.2c3.2,0,5.4,2.2,5.4,5.4
		v11.3h-3.4v-10.5c0-2.1-1.1-3.3-3.1-3.3s-3.4,1.5-3.4,3.6v10.3h-3.3v-10.7c0-1.9-1.2-3.1-3.1-3.1c-2,0-3.4,1.6-3.4,3.7v10.2h-3.4
		V115.8z"/>
	<path d="M283.4,127.4c-0.5,3-3.3,5.1-7.1,5.1c-4.8,0-7.8-3.3-7.8-8.5c0-5.2,3-8.6,7.6-8.6c4.6,0,7.4,3.2,7.4,8.2v1.2H272v0.2
		c0,2.9,1.7,4.8,4.4,4.8c1.9,0,3.3-1,3.8-2.4H283.4z M272,122.5h8.2c-0.1-2.5-1.7-4.3-4-4.3S272.2,120,272,122.5z"/>
</g>
<g>
	<path d="M588.6,93.8v-10H577v10h-3.5V71.3h3.5v9.5h11.6v-9.5h3.5v22.5H588.6z"/>
	<path d="M595.7,73c0-1.1,0.9-1.9,2-1.9c1.1,0,2,0.9,2,1.9c0,1.1-0.9,1.9-2,1.9C596.6,75,595.7,74.1,595.7,73z M595.9,77.4h3.4v16.4
		h-3.4V77.4z"/>
	<path d="M602.6,95.1h3.4c0.5,1.4,2,2.3,3.9,2.3c2.6,0,4.2-1.5,4.2-3.8v-2.7h-0.1c-0.9,1.8-2.9,3-5.2,3c-4.1,0-6.8-3.2-6.8-8.3
		c0-5.2,2.7-8.4,6.9-8.4c2.3,0,4.2,1.2,5.2,3.1h0.1v-2.8h3.3v16.1c0,3.9-3,6.5-7.7,6.5C605.9,100,603.1,97.9,602.6,95.1z
		 M614.2,85.5c0-3.4-1.7-5.6-4.4-5.6c-2.6,0-4.3,2.2-4.3,5.6c0,3.4,1.7,5.5,4.3,5.5C612.4,91.1,614.2,88.9,614.2,85.5z"/>
	<path d="M621,71.3h3.3v8.9h0.1c0.9-1.9,2.7-3,5.2-3c3.6,0,5.8,2.4,5.8,6.1v10.6H632v-9.9c0-2.4-1.2-3.9-3.6-3.9c-2.5,0-4,1.7-4,4.3
		v9.5H621V71.3z"/>
	<path d="M638.8,86.2v-3H649v3H638.8z"/>
	<path d="M653.5,80h-2.3v-2.6h2.3v-1.6c0-3.2,1.5-4.7,4.8-4.7c0.7,0,1.5,0.1,1.9,0.2v2.5c-0.3-0.1-0.8-0.1-1.2-0.1
		c-1.5,0-2.2,0.7-2.2,2.2v1.5h3.3V80h-3.3v13.8h-3.4V80z"/>
	<path d="M662.7,73c0-1.1,0.9-1.9,2-1.9c1.1,0,2,0.9,2,1.9c0,1.1-0.9,1.9-2,1.9C663.6,75,662.7,74.1,662.7,73z M662.9,77.4h3.4v16.4
		h-3.4V77.4z"/>
	<path d="M669,85.6c0-5.2,2.8-8.5,6.9-8.5c2.4,0,4.2,1.2,5.2,3h0.1v-8.8h3.4v22.5h-3.3V91h-0.1c-1,1.9-2.8,3.1-5.2,3.1
		C671.8,94.1,669,90.8,669,85.6z M672.5,85.6c0,3.5,1.7,5.6,4.3,5.6c2.6,0,4.3-2.2,4.3-5.6c0-3.4-1.7-5.6-4.3-5.6
		C674.2,80,672.5,82.1,672.5,85.6z"/>
	<path d="M702.1,89c-0.5,3-3.3,5.1-7.1,5.1c-4.8,0-7.8-3.3-7.8-8.5c0-5.2,3-8.6,7.6-8.6c4.6,0,7.4,3.2,7.4,8.2v1.2h-11.6v0.2
		c0,2.9,1.7,4.8,4.4,4.8c1.9,0,3.3-1,3.8-2.4H702.1z M690.7,84.1h8.2c-0.1-2.5-1.7-4.3-4-4.3S690.8,81.6,690.7,84.1z"/>
	<path d="M705,71.3h3.4v22.5H705V71.3z"/>
	<path d="M711.7,73c0-1.1,0.9-1.9,2-1.9c1.1,0,2,0.9,2,1.9c0,1.1-0.9,1.9-2,1.9C712.6,75,711.7,74.1,711.7,73z M712,77.4h3.4v16.4
		H712V77.4z"/>
	<path d="M723.2,73.5v3.9h3.1V80h-3.1v9.1c0,1.4,0.6,2.1,2,2.1c0.3,0,0.9,0,1.1-0.1v2.7c-0.4,0.1-1.1,0.2-1.9,0.2
		c-3.3,0-4.6-1.3-4.6-4.4V80h-2.4v-2.7h2.4v-3.9H723.2z"/>
	<path d="M729.3,99.9v-2.7c0.2,0.1,0.8,0.1,1.1,0.1c1.6,0,2.4-0.7,2.9-2.3c0,0,0.3-1,0.3-1l-5.9-16.5h3.7l4.2,13.4h0l4.2-13.4h3.6
		l-6.2,17.3c-1.4,4-3,5.3-6.4,5.3C730.4,99.9,729.6,99.9,729.3,99.9z"/>
	<path d="M595.6,132.2h-3.3l-6.1-22.5h3.6l4.2,17.7h0.1l4.8-17.7h3.2l4.8,17.7h0.1l4.2-17.7h3.6l-6.1,22.5h-3.3l-4.9-17h-0.2
		L595.6,132.2z"/>
	<path d="M617.1,111.5c0-1.1,0.9-1.9,2-1.9c1.1,0,2,0.9,2,1.9c0,1.1-0.9,1.9-2,1.9C617.9,113.4,617.1,112.5,617.1,111.5z
		 M617.3,115.8h3.4v16.4h-3.4V115.8z"/>
	<path d="M624.2,115.8h3.2v2.8h0.1c0.5-1.9,2-3.1,4-3.1c0.5,0,0.9,0.1,1.2,0.1v3.1c-0.3-0.1-0.9-0.2-1.5-0.2c-2.2,0-3.5,1.5-3.5,3.8
		v9.8h-3.4V115.8z"/>
	<path d="M648.1,127.4c-0.5,3-3.3,5.1-7.1,5.1c-4.8,0-7.8-3.3-7.8-8.5c0-5.2,3-8.6,7.6-8.6c4.6,0,7.4,3.2,7.4,8.2v1.2h-11.6v0.2
		c0,2.9,1.7,4.8,4.4,4.8c1.9,0,3.3-1,3.8-2.4H648.1z M636.6,122.5h8.2c-0.1-2.5-1.7-4.3-4-4.3S636.8,120,636.6,122.5z"/>
	<path d="M651.8,118.5h-2.3v-2.6h2.3v-1.6c0-3.2,1.5-4.7,4.8-4.7c0.7,0,1.5,0.1,1.9,0.2v2.5c-0.3-0.1-0.8-0.1-1.2-0.1
		c-1.5,0-2.2,0.7-2.2,2.2v1.5h3.3v2.6h-3.3v13.8h-3.4V118.5z"/>
	<path d="M661.2,115.8h3.2v2.8h0.1c0.5-1.9,2-3.1,4-3.1c0.5,0,0.9,0.1,1.2,0.1v3.1c-0.3-0.1-0.9-0.2-1.5-0.2c-2.2,0-3.5,1.5-3.5,3.8
		v9.8h-3.4V115.8z"/>
	<path d="M670.7,127.6c0-2.9,2.2-4.6,6.1-4.9l4.5-0.3v-1.3c0-1.8-1.2-2.9-3.3-2.9c-2,0-3.2,0.9-3.5,2.4h-3.2c0.2-3,2.7-5.2,6.8-5.2
		c4,0,6.5,2.1,6.5,5.4v11.3h-3.2v-2.7h-0.1c-1,1.8-3,3-5.2,3C672.9,132.5,670.7,130.5,670.7,127.6z M681.3,126.1v-1.3l-4,0.2
		c-2,0.1-3.2,1-3.2,2.4c0,1.4,1.2,2.4,3,2.4C679.4,129.8,681.3,128.2,681.3,126.1z"/>
	<path d="M687.9,115.8h3.2v2.8h0.1c0.7-1.8,2.5-3,4.7-3c2.3,0,3.9,1.2,4.6,3.2h0.1c0.8-2,2.8-3.2,5.1-3.2c3.2,0,5.4,2.2,5.4,5.4
		v11.3h-3.4v-10.5c0-2.1-1.1-3.3-3.1-3.3s-3.4,1.5-3.4,3.6v10.3h-3.3v-10.7c0-1.9-1.2-3.1-3.1-3.1c-2,0-3.4,1.6-3.4,3.7v10.2h-3.4
		V115.8z"/>
	<path d="M728.4,127.4c-0.5,3-3.3,5.1-7.1,5.1c-4.8,0-7.8-3.3-7.8-8.5c0-5.2,3-8.6,7.6-8.6c4.6,0,7.4,3.2,7.4,8.2v1.2H717v0.2
		c0,2.9,1.7,4.8,4.4,4.8c1.9,0,3.3-1,3.8-2.4H728.4z M717,122.5h8.2c-0.1-2.5-1.7-4.3-4-4.3S717.2,120,717,122.5z"/>
</g>
<g>
	<path d="M1028.1,85.6c0,3.2,2,5.5,5.6,5.5s5.6-2.3,5.6-5.5V71.3h3.5v14.6c0,4.9-3.5,8.3-9.1,8.3s-9.1-3.4-9.1-8.3V71.3h3.5V85.6z"
		/>
	<path d="M1047,93.8V71.3h3.5v22.5H1047z"/>
	<path d="M1063.6,87.5c0.2,2.2,2.4,3.7,5.4,3.7c2.8,0,4.9-1.5,4.9-3.5c0-1.8-1.2-2.8-4.2-3.5l-2.9-0.7c-4.1-1-6.1-2.9-6.1-6.1
		c0-3.9,3.4-6.6,8.2-6.6c4.8,0,8,2.7,8.1,6.6h-3.4c-0.2-2.2-2.1-3.6-4.8-3.6s-4.6,1.4-4.6,3.4c0,1.6,1.2,2.5,4.1,3.2l2.5,0.6
		c4.6,1.1,6.5,3,6.5,6.2c0,4.2-3.4,6.9-8.7,6.9c-5,0-8.4-2.6-8.6-6.7H1063.6z"/>
	<path d="M1091.1,83c-0.3-1.8-1.7-3.1-3.9-3.1c-2.6,0-4.3,2.2-4.3,5.7c0,3.6,1.7,5.7,4.4,5.7c2.1,0,3.4-1.1,3.8-3h3.2
		c-0.4,3.5-3.2,5.9-7.1,5.9c-4.7,0-7.8-3.2-7.8-8.5c0-5.2,3.1-8.5,7.7-8.5c4.2,0,6.8,2.7,7.1,6H1091.1z"/>
	<path d="M1096.7,77.4h3.2v2.8h0.1c0.5-1.9,2-3.1,4-3.1c0.5,0,0.9,0.1,1.2,0.1v3.1c-0.3-0.1-0.9-0.2-1.5-0.2c-2.2,0-3.5,1.5-3.5,3.8
		v9.8h-3.4V77.4z"/>
	<path d="M1120.6,89c-0.5,3-3.3,5.1-7.1,5.1c-4.8,0-7.8-3.3-7.8-8.5c0-5.2,3-8.6,7.6-8.6c4.6,0,7.4,3.2,7.4,8.2v1.2h-11.6v0.2
		c0,2.9,1.7,4.8,4.4,4.8c1.9,0,3.3-1,3.8-2.4H1120.6z M1109.2,84.1h8.2c-0.1-2.5-1.7-4.3-4-4.3S1109.4,81.6,1109.2,84.1z"/>
	<path d="M1137.5,89c-0.5,3-3.3,5.1-7.1,5.1c-4.8,0-7.8-3.3-7.8-8.5c0-5.2,3-8.6,7.6-8.6c4.6,0,7.4,3.2,7.4,8.2v1.2h-11.6v0.2
		c0,2.9,1.7,4.8,4.4,4.8c1.9,0,3.3-1,3.8-2.4H1137.5z M1126.1,84.1h8.2c-0.1-2.5-1.7-4.3-4-4.3S1126.3,81.6,1126.1,84.1z"/>
	<path d="M1140.3,77.4h3.2v2.8h0.1c0.9-1.9,2.6-3,5.2-3c3.6,0,5.7,2.3,5.7,6.1v10.6h-3.4v-10c0-2.5-1.2-3.8-3.5-3.8
		c-2.4,0-3.9,1.7-3.9,4.2v9.6h-3.4V77.4z"/>
	<path d="M1163.9,77.1c3.7,0,6.2,2,6.3,5h-3.2c-0.2-1.5-1.4-2.4-3.2-2.4c-1.8,0-3,0.9-3,2.2c0,1,0.8,1.7,2.5,2.1l2.8,0.6
		c3.3,0.8,4.6,2,4.6,4.5c0,3-2.8,5.1-6.8,5.1c-3.9,0-6.5-2-6.7-5h3.3c0.3,1.6,1.5,2.5,3.5,2.5c2,0,3.3-0.8,3.3-2.2
		c0-1-0.6-1.6-2.3-2.1l-2.9-0.7c-3-0.7-4.5-2.3-4.5-4.6C1157.4,79.1,1160,77.1,1163.9,77.1z"/>
	<path d="M1171.5,98.6l8-27.4h3l-8,27.4H1171.5z"/>
	<path d="M1060.1,132.2v-16.6h-0.1l-6.8,16.4h-2.6l-6.8-16.4h-0.1v16.6h-3.2v-22.5h4l7.3,17.8h0.1l7.3-17.8h4.1v22.5H1060.1z"/>
	<path d="M1066.4,124c0-5.3,3.1-8.5,7.8-8.5s7.8,3.2,7.8,8.5c0,5.3-3.1,8.5-7.8,8.5S1066.4,129.3,1066.4,124z M1078.5,124
		c0-3.6-1.7-5.7-4.4-5.7s-4.4,2.1-4.4,5.7c0,3.7,1.7,5.8,4.4,5.8C1076.8,129.8,1078.5,127.7,1078.5,124z"/>
	<path d="M1095.5,121.4c-0.3-1.8-1.7-3.1-3.9-3.1c-2.6,0-4.3,2.2-4.3,5.7c0,3.6,1.7,5.7,4.4,5.7c2.1,0,3.4-1.1,3.8-3h3.2
		c-0.4,3.5-3.2,5.9-7.1,5.9c-4.7,0-7.8-3.2-7.8-8.5c0-5.2,3.1-8.5,7.7-8.5c4.2,0,6.8,2.7,7.1,6H1095.5z"/>
	<path d="M1111.3,115.8h4l-6.8,7.1l7.1,9.4h-3.9l-5.6-7.3l-1.4,1.4v5.9h-3.4v-22.5h3.4v13.2h0L1111.3,115.8z"/>
	<path d="M1131.4,132.2h-3.2v-2.8h-0.1c-0.9,2-2.6,3.1-5.1,3.1c-3.6,0-5.8-2.3-5.8-6.1v-10.6h3.4v10c0,2.5,1.2,3.8,3.5,3.8
		c2.4,0,3.9-1.7,3.9-4.2v-9.6h3.4V132.2z"/>
	<path d="M1150.2,124c0,5.2-2.7,8.5-6.9,8.5c-2.4,0-4.2-1.2-5.2-3h-0.1v8.1h-3.4v-21.9h3.3v2.8h0.1c1-1.9,2.9-3.1,5.2-3.1
		C1147.4,115.5,1150.2,118.8,1150.2,124z M1146.7,124c0-3.4-1.7-5.6-4.3-5.6c-2.6,0-4.3,2.2-4.3,5.6c0,3.4,1.7,5.6,4.3,5.6
		C1145,129.6,1146.7,127.5,1146.7,124z"/>
	<path d="M1158.9,115.5c3.7,0,6.2,2,6.3,5h-3.2c-0.2-1.5-1.4-2.4-3.2-2.4c-1.8,0-3,0.9-3,2.2c0,1,0.8,1.7,2.5,2.1l2.8,0.6
		c3.3,0.8,4.6,2,4.6,4.5c0,3-2.8,5.1-6.8,5.1c-3.9,0-6.5-2-6.7-5h3.3c0.3,1.6,1.5,2.5,3.5,2.5c2,0,3.3-0.8,3.3-2.2
		c0-1-0.6-1.6-2.3-2.1l-2.9-0.7c-3-0.7-4.5-2.3-4.5-4.6C1152.5,117.5,1155.1,115.5,1158.9,115.5z"/>
</g>
<path class="st0" d="M361.8,194.3H63.6c-26.5,0-47.9-21.4-47.9-47.9V65.2c0-26.5,21.4-47.9,47.9-47.9h298.2
	c26.5,0,47.9,21.4,47.9,47.9v81.2C409.7,172.8,388.2,194.3,361.8,194.3z"/>
<path class="st1" d="M806.8,194.3H508.6c-26.5,0-47.9-21.4-47.9-47.9V65.2c0-26.5,21.4-47.9,47.9-47.9h298.2
	c26.5,0,47.9,21.4,47.9,47.9v81.2C854.7,172.8,833.2,194.3,806.8,194.3z"/>
<path class="st2" d="M1251.8,194.3H953.6c-26.5,0-47.9-21.4-47.9-47.9V65.2c0-26.5,21.4-47.9,47.9-47.9h298.2
	c26.5,0,47.9,21.4,47.9,47.9v81.2C1299.7,172.8,1278.2,194.3,1251.8,194.3z"/>
</svg>
