<?xml version="1.0" encoding="utf-8"?>
<!-- Generator: Adobe Illustrator 26.3.1, SVG Export Plug-In . SVG Version: 6.00 Build 0)  -->
<svg version="1.1" id="Layer_1" xmlns="http://www.w3.org/2000/svg" xmlns:xlink="http://www.w3.org/1999/xlink" x="0px" y="0px"
	 viewBox="0 0 214.2 214.2" style="enable-background:new 0 0 214.2 214.2;" xml:space="preserve">
<style type="text/css">
	.st0{fill:#EBEFF2;}
	.st1{fill:#14294F;}
</style>
<g>
	<circle class="st0" cx="107.1" cy="107.1" r="103.8"/>
	<path class="st1" d="M152.1,112.5c-0.1,0.6-0.3,1.2-0.4,1.9c-1.7,6.7-7.5,11.4-14.5,11.4c-7.5,0.1-15.1,0.1-22.6,0
		c-7.9-0.1-14.1-5.9-14.9-13.8c0-0.4-0.1-0.8-0.1-1.2c-9.9,0-19.9,0-29.9,0c0,0.4-0.1,0.7-0.1,1.1c0,11.8,0,23.5,0,35.3
		c0,2.3-0.7,4-3,4.8c-0.5,0-1.1,0-1.6,0c-1.5-0.5-2.5-1.5-3-3c0-24.6,0-49.1,0-73.7c0.1-0.2,0.1-0.3,0.2-0.5c0.9-6,5.2-10.8,11-12.4
		c0.7-0.2,1.5-0.3,2.2-0.5c9.8,0,19.7,0,29.5,0c0.1,0.1,0.3,0.1,0.4,0.1c6.6,1,11.4,5.6,12.7,12.1c0.2,0.9,0.2,1.8,0.3,2.7
		c0.4,0,0.7,0,1.1,0c5.8,0,11.6,0,17.4,0c7.1,0,13,4.6,14.7,11.4c0.2,0.6,0.3,1.3,0.5,1.9C152.1,97.7,152.1,105.1,152.1,112.5z
		 M69.6,103.3c0.4,0,0.6,0,0.8,0c10.9,0,21.7,0,32.6,0c4.7,0,7.8-3.2,7.8-7.9c0-6,0-12,0-18c0-0.6,0-1.2-0.1-1.8
		c-0.7-3.7-3.7-6-7.6-6c-8.6,0-17.2,0-25.8,0c-0.6,0-1.1,0-1.7,0.1c-3.7,0.8-6,3.7-6,7.7c0,8.3,0,16.7,0,25
		C69.6,102.6,69.6,102.9,69.6,103.3z M107.2,110.3c-0.3,4.4,3.1,8,7.5,8c7.3,0,14.7,0,22,0c4.7,0,7.9-3.2,7.9-7.8c0-6,0-12.1,0-18.1
		c0-4.7-3.2-7.8-7.9-7.8c-5.8,0-11.6,0-17.4,0c-0.3,0-0.6,0-0.9,0c0,0.4,0,0.7,0,1c0,3.4,0,6.8,0,10.2c0,2.2-0.5,4.4-1.4,6.4
		C114.9,106.3,111.6,109,107.2,110.3z"/>
</g>
</svg>
