<?xml version="1.0" encoding="utf-8"?>
<!-- Generator: Adobe Illustrator 26.3.1, SVG Export Plug-In . SVG Version: 6.00 Build 0)  -->
<svg version="1.1" id="Layer_1" xmlns="http://www.w3.org/2000/svg" xmlns:xlink="http://www.w3.org/1999/xlink" x="0px" y="0px"
	 viewBox="0 0 214.2 214.2" style="enable-background:new 0 0 214.2 214.2;" xml:space="preserve">
<style type="text/css">
	.st0{fill:#FFFFFF;}
	.st1{fill:#14294F;}
</style>
<g>
	<circle class="st0" cx="107.1" cy="107.1" r="103.8"/>
	<g id="b0HfYc.tif">
		<g>
			<path class="st1" d="M109.4,52.9c2.1,0.5,4.3,0.8,6.4,1.5c11.6,3.9,19.3,15.4,18.4,27.4c-1,12.7-10.2,22.9-22.6,24.9
				c-15,2.5-29.1-7.8-31.3-22.9c-2.2-15.1,8.6-29,23.8-30.7c0.2,0,0.5-0.1,0.7-0.2C106.3,52.9,107.9,52.9,109.4,52.9z M125.1,80
				c0-10-8-18.1-18.1-18.1c-9.9,0-17.9,8-18,17.8C89,89.8,96.9,98,106.9,98C117,98.1,125.1,90.1,125.1,80z"/>
			<path class="st1" d="M66.5,153.9c0.4-2.1,0.6-4.2,1.1-6.3c3.5-15.6,16.6-28.1,32.3-30.8c20.3-3.5,39.4,7.9,45.9,27.4
				c1.3,4,2,8.1,2,12.3c0,2.7-1.8,4.7-4.3,4.8c-2.6,0.1-4.6-1.8-4.7-4.5c-0.1-3.1-0.4-6.1-1.4-9.1c-4.2-12.5-12.8-20.2-25.9-22.1
				c-16.9-2.4-31.9,8.5-35.3,25.1c-0.4,2-0.5,4.1-0.6,6.1c-0.2,3.4-3.4,5.5-6.4,4.2c-1.4-0.6-2.2-1.8-2.7-3.2
				C66.5,156.4,66.5,155.2,66.5,153.9z"/>
		</g>
	</g>
</g>
</svg>
