<?xml version="1.0" encoding="utf-8"?>
<!-- Generator: Adobe Illustrator 26.3.1, SVG Export Plug-In . SVG Version: 6.00 Build 0)  -->
<svg version="1.1" id="Layer_1" xmlns="http://www.w3.org/2000/svg" xmlns:xlink="http://www.w3.org/1999/xlink" x="0px" y="0px"
	 viewBox="0 0 214.2 214.2" style="enable-background:new 0 0 214.2 214.2;" xml:space="preserve">
<style type="text/css">
	.st0{fill:#FFFFFF;}
	.st1{fill:#14294F;}
</style>
<g>
	<circle class="st0" cx="107.1" cy="107.1" r="103.8"/>
	<g id="YUlJYY.tif">
		<g>
			<path class="st1" d="M112.7,62.1c1,0.2,2.1,0.4,3.1,0.7c8.1,2.2,13.7,9.5,13.8,17.9c0,2.5,0,5,0,7.5c0,2.2-1.6,3.9-3.8,3.9
				c-2.1,0-3.7-1.7-3.7-3.9c0-2.4,0-4.9,0-7.3c-0.1-6.5-4.9-11.3-11.4-11.3c-9.9,0-19.8,0-29.7,0c-5.7,0-10.3,3.8-11.3,9.5
				c-0.1,0.6-0.1,1.2-0.1,1.8c0,17.4,0,34.9,0,52.3c0,5.7,3.9,10.3,9.5,11.2c0.7,0.1,1.5,0.1,2.2,0.1c4.8,0,9.5,0,14.3,0
				c2,0,3.6,1.2,3.9,3c0.3,1.9-0.6,3.5-2.5,4.3c-0.1,0-0.2,0.1-0.3,0.2c-5.9,0-11.8,0-17.8,0c-0.2-0.1-0.3-0.1-0.5-0.2
				c-7.5-1-13.7-6.3-15.7-13.7c-0.3-1-0.5-2-0.7-3.1c0-18.8,0-37.5,0-56.2c0.1-0.2,0.1-0.3,0.2-0.5c1.1-7.2,5-12.2,11.7-15
				c1.6-0.7,3.4-0.9,5-1.4C90.2,62.1,101.5,62.1,112.7,62.1z"/>
			<path class="st1" d="M123.8,152.1c-1.7-0.3-3.5-0.5-5.2-1.1c-10.1-3.2-16.5-10-18.5-20.4c-2.6-13.6,5.6-26.4,18.9-30.1
				c14.9-4.2,30.5,6,32.8,21.3c0.1,0.7,0.2,1.3,0.3,2c0,1.3,0,2.7,0,4c-0.1,0.3-0.1,0.5-0.2,0.8c-1.2,11.1-9.3,20.3-20.2,22.8
				c-1.3,0.3-2.6,0.5-3.9,0.7C126.5,152.1,125.1,152.1,123.8,152.1z M144.6,125.9c0-10.3-8.3-18.7-18.7-18.8
				c-10.3,0-18.8,8.4-18.8,18.7c0,10.4,8.4,18.8,18.8,18.8C136.2,144.6,144.6,136.2,144.6,125.9z"/>
			<path class="st1" d="M95.9,80.9c4.9,0,9.9,0,14.8,0c2.6,0,4.3,2.1,3.8,4.5c-0.3,1.6-1.7,2.8-3.3,2.9c-0.2,0-0.5,0-0.7,0
				c-9.8,0-19.5,0-29.3,0c-2.2,0-3.7-1.1-4-3c-0.4-2.3,1.2-4.4,3.5-4.4c2.4-0.1,4.8,0,7.2,0C90.5,80.9,93.2,80.9,95.9,80.9z"/>
			<path class="st1" d="M88.3,107.1c-2.4,0-4.8,0-7.2,0c-2.3,0-4-1.6-4-3.8c0-2.1,1.7-3.7,3.9-3.7c4.9,0,9.8,0,14.7,0
				c2.3,0,3.9,1.6,3.9,3.8c0,2.2-1.6,3.7-3.9,3.7C93.2,107.1,90.8,107.1,88.3,107.1z"/>
			<path class="st1" d="M84.6,118.4c1.2,0,2.5,0,3.7,0c2.1,0,3.7,1.6,3.8,3.6c0.1,1.9-1.3,3.7-3.4,3.8c-2.8,0.1-5.6,0.1-8.3,0
				c-2-0.1-3.4-1.9-3.3-3.9c0.1-2,1.7-3.5,3.7-3.6C82.1,118.3,83.4,118.4,84.6,118.4z"/>
			<path class="st1" d="M123.3,137.1c-2.4,0-4.5-0.9-6.3-2.6c-1.4-1.3-2.7-2.7-4.1-4c-1.6-1.6-1.6-3.9-0.1-5.4
				c1.5-1.5,3.8-1.5,5.4,0.1c1.3,1.3,2.6,2.5,3.9,3.8c0.9,0.9,1.6,0.9,2.5,0c2.7-2.6,5.3-5.1,8-7.7c2.1-2,5.4-1.2,6.2,1.5
				c0.4,1.4,0.2,2.7-0.9,3.7c-2.9,2.8-5.8,5.7-8.8,8.4C127.5,136.4,125.5,137,123.3,137.1z"/>
		</g>
	</g>
</g>
</svg>
