<?xml version="1.0" encoding="utf-8"?>
<!-- Generator: Adobe Illustrator 26.3.1, SVG Export Plug-In . SVG Version: 6.00 Build 0)  -->
<svg version="1.1" id="Layer_1" xmlns="http://www.w3.org/2000/svg" xmlns:xlink="http://www.w3.org/1999/xlink" x="0px" y="0px"
	 viewBox="0 0 650.9 162.2" style="enable-background:new 0 0 650.9 162.2;" xml:space="preserve">
<style type="text/css">
	.st0{fill-rule:evenodd;clip-rule:evenodd;fill:#1B3561;}
	.st1{fill-rule:evenodd;clip-rule:evenodd;fill:#E3C16A;}
	.st2{fill:#221F1F;}
	.st3{fill-rule:evenodd;clip-rule:evenodd;fill:#FFFFFF;}
</style>
<g id="Group_2004" transform="translate(-290.744 -317.577)">
	<g id="Group_2003" transform="translate(290.744 317.577)">
		<g id="Group_1998" transform="translate(0 0.046)">
			<path id="Path_1591" class="st0" d="M241.8,0.6l-59.4-0.2l-19.7,30.5l2.5,9.9l-21.3,32.7l13-73.2L98.9,0.1L79.3,32
				c3.8,3.4,4.9,7.9-0.3,14.5l-43.9,70.8c-1.9,5.5-7.5,9-13.3,8.2L0,160.9l55,0.4L74.7,130l-0.1-7.9L92,98l-0.9,64.2l47.4-0.8
				L215,38.6l9.5-6.7L241.8,0.6z"/>
		</g>
		<g id="Group_1999" transform="translate(48.642)">
			<path id="Path_1592" class="st0" d="M278.2,161.3l-63.8-0.3l21.4-34.7c8.2-5.6,11.6-14.2,14.3-23.2L200.8,161l-25.1-0.1
				l17.3-58.4L183,114.7l-3.8,11.8l-20,34.4l-55.6-0.2l20.6-33.3l11.1-3.9l48-80.2l0.1-11.6L202.8,0l65.6,0.3L253.2,64l53-63.6
				l73.7,0.3L359.5,33c-7,2.4-12.4,5.4-14,9.8l-44.6,75.2c-3.3,2-3.8,6-2.4,11.3L278.2,161.3z"/>
		</g>
		<g id="Group_2000" transform="translate(107.729 0.188)">
			<path id="Path_1593" class="st0" d="M359.4,160l-130.1-0.1l19.6-31.9l9.4-3.2l53.3-84.7l-3.8-8l19.6-31.9l103.5,0.1
				c15.8,2.3,25.7,9.4,25.3,24.5c-12.5,25.1-25.6,49.5-47,65.6C416.6,125.9,392.2,150.2,359.4,160 M331.4,129.1
				c28.7-11.5,30.9-32.5,4.1-30.9L315,128.8L331.4,129.1z M388.1,48.2c4.8-7.8,0.2-12.8-13.3-12.1l-18.1,27.3
				C371.9,69.1,381.4,61.6,388.1,48.2"/>
		</g>
		<g id="Group_2001" transform="translate(23.182 8.05)">
			<path id="Path_1594" class="st1" d="M538.6,17.1l65.7,0c12.6,0,22.8,10.3,22.9,22.9l0,51.3c-0.1,12.6-10.3,22.8-22.9,22.9
				l-65.7,0c-12.6,0-22.8-10.3-22.9-22.9v-10l-24.3-0.2c-11,3-22.6,2.9-33.6-0.3l-269.8-2.2v18.1l17.1-0.3l0.4,19.6l-30.8,0.2v-8.7
				l-38.4,0v9l-30.5,0.3v-19l14.1-0.2V78.1l-67.1-0.5c-4.3-3-4.5-8.8,0-10l403.5,0.3c11.6-4.8,24.6-4.8,36.2,0l23.2,0l0-27.9
				C515.7,27.3,525.9,17.1,538.6,17.1 M553.4,30.7l33,0c5.7,0,10.3,4.7,10.3,10.4l0,48.5c0,5.7-4.7,10.3-10.4,10.3l-33,0
				c-5.7,0-10.3-4.7-10.4-10.4l0-48.5C543.1,35.4,547.7,30.7,553.4,30.7"/>
		</g>
		<g id="Group_2002" transform="translate(22.971 7.837)">
			<path id="Path_1595" class="st2" d="M538.8,16.7l65.7,0c13,0,23.5,10.6,23.5,23.6l0,51.3c-0.1,13-10.6,23.5-23.6,23.5l-65.7-0.1
				c-13-0.1-23.5-10.6-23.5-23.6v-9.3l-23.6-0.2c-5.6,1.5-11.5,2.2-17.3,2.2c-5.6-0.1-11.1-0.9-16.5-2.4l-269.1-2.2v16.8l16.4-0.2
				h0.7l0,0.7l0.4,19.6v0.7h-0.7l-30.8,0.3h-0.7v-8.8l-37,0v9.1h-0.7l-30.5,0.2h-0.7V97.4l0.7,0l13.4-0.2V78.9l-66.5-0.5h-0.2
				l-0.2-0.1c-1.6-1.1-2.8-2.7-3.4-4.5c-0.2-0.8-0.3-1.6-0.2-2.4c0.1-0.8,0.4-1.6,0.8-2.2c0.7-1,1.8-1.7,2.9-2h0.1l403.5,0.3
				c5.6-2.2,11.5-3.4,17.5-3.6c6.5-0.2,12.9,1.1,18.9,3.6l22.4,0l0-27.2C515.2,27.2,525.7,16.7,538.8,16.7 M597.6,65.7l29,0l0-25.5
				c0-12.3-9.9-22.2-22.2-22.2l-65.7,0c-12.3,0-22.2,9.9-22.2,22.2l0,28.5h-0.7l-23.2,0h-0.1l-0.1-0.1c-5.8-2.5-12.1-3.7-18.5-3.6
				c-5.9,0.2-11.7,1.4-17.2,3.6l-0.1,0h-0.1L52.9,68.4c-0.9,0.2-1.6,0.8-2.1,1.5c-0.3,0.5-0.5,1-0.6,1.6c-0.1,0.6,0,1.3,0.2,1.9
				c0.5,1.5,1.4,2.8,2.7,3.7l66.9,0.5l0.7,0l0,20.9l-0.7,0l-13.4,0.2v17.7l29.2-0.2v-9.1l39.7,0v8.7l29.5-0.2l-0.3-18.2l-16.5,0.2
				h-0.7V78.2h0.7l269.8,2.2h0.1l0.1,0c5.3,1.5,10.7,2.3,16.2,2.4c5.8,0.1,11.5-0.7,17.1-2.1h0.1h0.1l24.3,0.2h0.7v10.7
				c0,12.3,10,22.2,22.2,22.2l65.7,0c12.3,0,22.2-9.9,22.3-22.2l0-24.5l-29,0l0,22.8c0,6.1-4.9,11-11,11l-33,0c-6.1,0-11-4.9-11-11
				l0-48.5c0-6.1,5-11,11-11l33,0c6.1,0,11,5,11,11L597.6,65.7z M586.6,31.6l-33,0c-5.3,0-9.7,4.4-9.7,9.7l0,48.5
				c0,5.3,4.3,9.7,9.7,9.7l33,0c5.3,0,9.7-4.4,9.7-9.7l0-48.5C596.3,36,591.9,31.7,586.6,31.6"/>
		</g>
	</g>
</g>
</svg>
