<?xml version="1.0" encoding="utf-8"?>
<!-- Generator: Adobe Illustrator 26.3.1, SVG Export Plug-In . SVG Version: 6.00 Build 0)  -->
<svg version="1.1" id="Layer_1" xmlns="http://www.w3.org/2000/svg" xmlns:xlink="http://www.w3.org/1999/xlink" x="0px" y="0px"
	 viewBox="0 0 780.5 784.6" style="enable-background:new 0 0 780.5 784.6;" xml:space="preserve">
<style type="text/css">
	.st0{enable-background:new    ;}
	.st1{fill:#1B3562;}
	.st2{fill:#C6A66C;}
	.st3{fill:#14294F;}
	.st4{fill:#BD9355;}
</style>
<g>
	<g class="st0">
		<path class="st1" d="M14.2,716.5c0-16.6-0.5-31.6-1.6-45.1c2.5,0.4,4.8,0.5,7.1,0.5c2.3,0,4.7-0.1,7-0.5
			c17.6,19.7,35.7,39.6,54.1,59.5v-15.3c0-3.9-0.1-18.7-0.5-44.2c1.8,0.4,3.6,0.5,5.3,0.5c1.9,0,3.8-0.1,5.7-0.6
			c-1,9.1-1.2,27.2-1.2,54.2v7.1c0,10.5,0.1,19.5,1,27.4c-1.8-0.4-3.6-0.6-5.6-0.6c-1.8,0-3.8,0.3-5.7,0.6
			c-18.2-20.8-37.1-41.4-56.5-62.1v37.9c0,2.2,0.1,10.2,0.4,24.3c-1.8-0.4-3.6-0.6-5.4-0.6c-1.8,0-3.6,0.3-5.6,0.6
			C13.8,746.5,14.2,731.9,14.2,716.5z"/>
		<path class="st1" d="M109.1,732.6l8.3-61.2c1.8,0.4,3.6,0.5,5.6,0.5c1.8,0,3.8-0.1,5.7-0.5c9.6,21.1,19.6,41.2,30,60.6
			c10.4-19.3,20.2-39.6,29.6-60.6c2.1,0.4,4,0.5,6,0.5s4-0.1,6-0.5l7.4,62c1.2,9.6,2.3,18.5,4.2,26.6c-3.8-0.4-7.4-0.6-11-0.6
			c-3.6,0-7.3,0.3-10.8,0.6c-0.4-8.7-0.6-14.8-1-18.2l-4.2-41.4c-10.5,20.1-20.2,39.9-29.4,59.5c-0.9-0.3-1.8-0.3-2.7-0.3
			c-0.9,0-1.7,0-2.6,0.3c-10-21.1-19.6-40.2-28.9-57.5l-3.1,27c-1.3,11.5-2.5,21.7-2.5,30.5c-1.8-0.4-3.6-0.6-5.3-0.6
			c-1.8,0-3.5,0.3-5.3,0.6C107.2,745.6,108.6,736.4,109.1,732.6z"/>
		<path class="st1" d="M227.8,727.3v-11.5c0-16.9,0-31.6-1.4-44.4c7.7,0.3,13.1,0.4,16.3,0.4c5.3,0,10.4-0.4,15-0.4
			c19.1,0,28.5,6.9,28.5,20.4c0,11.9-9.3,19.6-26.3,20.8v0.6c19.2,0,28.5,7.1,28.5,22.2c0,15.3-11,24.6-30.6,24.6
			c-7.3,0-14.8-0.5-22.6-0.5c-2.6,0-5.6,0.3-8.9,0.5C227.7,750.2,227.8,739.3,227.8,727.3z M249.1,710.3c12.3,0,18.2-5.4,18.2-17.2
			c0-9.5-5.4-14.5-15.7-14.5c-1.3,0-2.7,0.1-4.2,0.3c-0.6,4.7-0.9,10.1-0.9,16.1v15.3C247.4,710.2,248.3,710.3,249.1,710.3z
			 M251.6,753.1c10.5,0,16.6-6.4,16.6-18.2c0-11.5-6.2-17.8-17.8-17.8c-1.2,0-2.5,0-3.9,0.1v16.9c0,5.1,0.1,11.3,0.5,18.3
			C248.8,752.8,250.2,753.1,251.6,753.1z"/>
		<path class="st2" d="M372.9,692c-2.7-9.1-11.3-14.5-23.7-14.5c-18.5,0-29.6,13.5-29.6,37.4c0,25.6,10.9,39.2,31,39.2
			c8.3,0,17.6-3.2,25.2-9.6l1.6,0.4l-3,10.9c-8.3,4-17.2,6-27.1,6c-30.5,0-48.1-17.2-48.1-46.3c0-27.4,19.3-45.8,50.2-45.8
			c9.7,0,19.2,2.2,28.8,6.5c-1.7,5.2-2.7,10.5-3.4,15.7L372.9,692z"/>
		<path class="st2" d="M416.4,696.3c20.6,0,32.4,11.7,32.4,32.7c0,20.6-12.2,32.6-32.6,32.6c-20.6,0-32.4-11.9-32.4-32.6
			S395.9,696.3,416.4,696.3z M416.2,755.9c10.2,0,13.5-8.4,13.5-27s-3.2-27-13.5-27c-10.2,0-13.4,8.4-13.4,27S406,755.9,416.2,755.9
			z"/>
		<path class="st2" d="M461.2,729c0-11.2-0.4-21.5-1-31.1c3,0.4,6,0.5,8.9,0.5c3,0,5.8-0.1,8.7-0.5v9.1c5.3-7,11.8-10.4,20-10.4
			c6.5,0,11.8,2.3,15.3,6.4c3.9,4.5,4,10.6,4,18.9c0,3.5-0.1,8.9-0.1,16.2c0,7.5,0.3,14.8,0.9,21.9c-3.2-0.4-6.5-0.6-9.7-0.6
			s-6.4,0.3-9.6,0.6c0.6-7,1-17.1,1-30.2c0-15.3-0.9-22.3-10.4-22.3c-8.4,0-11,7-11,21.4c0,7.3,0.3,17.6,0.9,31.1
			c-3.1-0.4-6.4-0.6-9.5-0.6c-3.2,0-6.4,0.3-9.5,0.6C460.9,749.3,461.2,739.1,461.2,729z"/>
		<path class="st2" d="M535,729c0-11.2-0.4-21.5-1-31.1c3,0.4,6,0.5,8.9,0.5s5.8-0.1,8.7-0.5v9.1c5.3-7,11.8-10.4,20-10.4
			c6.5,0,11.8,2.3,15.3,6.4c3.9,4.5,4,10.6,4,18.9c0,3.5-0.1,8.9-0.1,16.2c0,7.5,0.3,14.8,0.9,21.9c-3.2-0.4-6.5-0.6-9.7-0.6
			c-3.2,0-6.4,0.3-9.6,0.6c0.6-7,1-17.1,1-30.2c0-15.3-0.9-22.3-10.4-22.3c-8.4,0-11,7-11,21.4c0,7.3,0.3,17.6,0.9,31.1
			c-3.1-0.4-6.4-0.6-9.5-0.6c-3.2,0-6.4,0.3-9.5,0.6C534.7,749.3,535,739.1,535,729z"/>
		<path class="st2" d="M642.3,753.5c6,0,11.4-1.9,16.6-6.1l1.3,0.9l-2.9,7.4c-5.2,3.6-12.6,5.8-21.4,5.8
			c-20.2,0-32.3-12.6-32.3-33.6c0-18.4,11.9-31.6,31.1-31.6c17.8,0,27.6,10.1,27.6,28.7c0,1.3,0,2.7-0.1,4.2h-39.7
			C622.6,744.4,630.5,753.5,642.3,753.5z M644.5,722.7c0-1.3,0.1-2.3,0.1-3.1c0-11.8-3.5-17.8-10.1-17.8c-7.4,0-11.9,6.7-11.9,19.7
			v1.2H644.5z"/>
		<path class="st2" d="M723.2,748.3c-0.4,2.6-0.8,5.2-1,7.4c-6,3.9-12.5,5.7-19.8,5.7c-20.4,0-33.2-12.3-33.2-32.2
			c0-19.8,13.5-32.9,33.3-32.9c9.1,0,16.6,1.9,22.2,5.7c-1.9,4.4-3.8,8.7-5.1,13l-1.7-0.8c-2.2-8-6.7-12.1-14-12.1
			c-10,0-16.3,9.3-16.3,25.4c0,17.2,6.7,26.2,18.9,26.2c5.6,0,11-2.1,15.8-6L723.2,748.3z"/>
		<path class="st2" d="M734,705.4c-2.1,0-4.2,0-6.5,0.1c0.3-1.2,0.4-2.2,0.4-3.4c0-1-0.1-2.2-0.4-3.4c2.7,0.3,5.2,0.5,7.4,0.5h1.4
			c0.1-1.7,0.1-3.4,0.1-5.1c0-4.5-0.3-8.7-0.6-12.5c6.7-2.5,12.6-5.1,17.5-7.5l1.4,1c-0.5,9.9-0.8,16.5-0.8,20v4
			c4.2,0,8.3-0.1,12.6-0.5c-0.1,1.2-0.3,2.3-0.3,3.4c0,1.2,0.1,2.2,0.3,3.4c-3-0.1-7.3-0.1-12.8-0.1c-0.3,8.3-0.5,15.6-0.5,22v5.2
			c0,15.8,0.3,21.8,7.1,21.8c2.1,0,4.5-0.5,7.5-1.3v4.8c-5.3,2.3-10.1,3.6-14.9,3.6c-11,0-17-6-17-17.1c0-4,0.4-14.8,0.4-32.2v-6.9
			H734z"/>
	</g>
	<g id="Group_2513_1_" transform="translate(139.18 233.591)">
		<circle id="Ellipse_23_1_" class="st3" cx="251.1" cy="55.6" r="270.4"/>
		<g id="Group_2512_1_" transform="translate(259.956 85.626)">
			<path id="Path_2996_1_" class="st4" d="M88.2-62.9l-37,37c42.8,17,91.6,7,124.2-25.5l70.1-70.1c-5.4-15-12.1-29.6-20.1-43.4
				l-81.8,81.8C129.1-68.6,108.8-61.2,88.2-62.9z"/>
			<path id="Path_2997_1_" class="st4" d="M12.5-214.4C-20-181.8-30-133-13-90.2l37-37c-1.7-20.6,5.7-40.9,20.3-55.5l81.8-81.8
				c-13.8-8-28.4-14.7-43.4-20.1L12.5-214.4z"/>
			<path id="Path_2998_1_" class="st4" d="M-109.1,5.9l37-37c-42.8-17-91.6-7-124.2,25.5l-67.1,67.1c5.4,15,12.1,29.6,20.1,43.4
				l78.8-78.8C-150,11.6-129.7,4.2-109.1,5.9z"/>
			<path id="Path_2999_1_" class="st4" d="M-7.9,33.2l-37,37c1.7,20.6-5.7,40.9-20.3,55.5l-78.8,78.8c13.8,8,28.4,14.7,43.4,20.1
				l67.1-67.1C-0.8,124.8,9.2,76-7.9,33.2z"/>
			<path id="Path_3000_1_" class="st4" d="M78.3-157.5L-136.4,57.2c-11.1,11.1-11,29.2,0.1,40.2c11.1,11,29,11,40.1,0l214.7-214.7
				c11.1-11.1,11.1-29.1,0-40.2C107.5-168.6,89.4-168.6,78.3-157.5L78.3-157.5L78.3-157.5z"/>
		</g>
	</g>
</g>
</svg>
