<?xml version="1.0" encoding="utf-8"?>
<!-- Generator: Adobe Illustrator 26.3.1, SVG Export Plug-In . SVG Version: 6.00 Build 0)  -->
<svg version="1.1" id="Layer_1" xmlns="http://www.w3.org/2000/svg" xmlns:xlink="http://www.w3.org/1999/xlink" x="0px" y="0px"
	 viewBox="0 0 206.1 225.9" style="enable-background:new 0 0 206.1 225.9;" xml:space="preserve">
<style type="text/css">
	.st0{fill:#F16B2C;}
	.st1{fill:#203244;}
</style>
<g>
	<path class="st0" d="M58.9,215.9v-13.7h1.2l6.3,10.7h-0.6l6.2-10.7h1.2v13.7h-1.4v-11.6h0.3l-5.7,9.8h-0.7l-5.8-9.8h0.4v11.6H58.9z
		"/>
	<path class="st0" d="M85,214.6h8.3v1.3h-9.7v-13.7H93v1.3h-8V214.6z M84.9,208.3h7.3v1.2h-7.3V208.3z"/>
	<path class="st0" d="M100.4,215.9l6.3-13.7h1.4l6.3,13.7h-1.5l-5.8-12.9h0.6l-5.8,12.9H100.4z M102.9,212.2l0.4-1.2h8l0.4,1.2
		H102.9z"/>
	<path class="st0" d="M124.6,215.9v-12.5h-4.8v-1.3h11.1v1.3H126v12.5H124.6z"/>
	<path class="st0" d="M142.6,216c-1,0-2-0.2-2.9-0.5c-0.9-0.3-1.7-0.8-2.2-1.3l0.6-1.1c0.5,0.5,1.1,0.9,2,1.2
		c0.8,0.3,1.7,0.5,2.6,0.5c0.9,0,1.6-0.1,2.1-0.3c0.5-0.2,0.9-0.5,1.2-0.9c0.3-0.4,0.4-0.8,0.4-1.2c0-0.5-0.2-1-0.5-1.3
		s-0.7-0.6-1.2-0.8c-0.5-0.2-1-0.4-1.6-0.5c-0.6-0.1-1.2-0.3-1.8-0.5c-0.6-0.2-1.2-0.4-1.7-0.7c-0.5-0.3-0.9-0.6-1.2-1.1
		c-0.3-0.5-0.5-1-0.5-1.8c0-0.7,0.2-1.3,0.5-1.9c0.4-0.6,0.9-1,1.7-1.4c0.7-0.3,1.7-0.5,2.9-0.5c0.8,0,1.5,0.1,2.3,0.3
		c0.8,0.2,1.4,0.5,2,0.9l-0.5,1.2c-0.6-0.4-1.2-0.7-1.9-0.9c-0.7-0.2-1.3-0.3-1.9-0.3c-0.8,0-1.5,0.1-2,0.3s-0.9,0.5-1.2,0.9
		c-0.3,0.4-0.4,0.8-0.4,1.3c0,0.5,0.2,1,0.5,1.3c0.3,0.3,0.7,0.6,1.2,0.8c0.5,0.2,1.1,0.3,1.7,0.5c0.6,0.1,1.2,0.3,1.8,0.5
		s1.1,0.4,1.6,0.7s0.9,0.6,1.2,1.1s0.5,1,0.5,1.7c0,0.7-0.2,1.3-0.5,1.9c-0.4,0.6-0.9,1-1.7,1.4S143.8,216,142.6,216z"/>
</g>
<g>
	<path class="st1" d="M21.6,182.4c-2.2,0-4.3-0.4-6.1-1.1c-1.9-0.7-3.5-1.7-4.9-3.1s-2.5-2.9-3.2-4.6c-0.8-1.8-1.1-3.7-1.1-5.9
		c0-2.1,0.4-4.1,1.1-5.8c0.8-1.8,1.8-3.3,3.2-4.6c1.4-1.3,3-2.3,4.9-3.1c1.9-0.7,3.9-1.1,6.2-1.1c2.4,0,4.5,0.4,6.5,1.2
		c1.9,0.8,3.6,1.9,4.9,3.5l-3.3,3.3c-1.1-1.1-2.3-1.9-3.6-2.5c-1.3-0.5-2.7-0.8-4.2-0.8c-1.5,0-2.9,0.2-4.2,0.7s-2.4,1.2-3.3,2.1
		c-0.9,0.9-1.6,2-2.2,3.2c-0.5,1.2-0.8,2.6-0.8,4c0,1.4,0.3,2.8,0.8,4c0.5,1.2,1.2,2.3,2.2,3.2c0.9,0.9,2,1.6,3.2,2.1
		c1.2,0.5,2.6,0.7,4.1,0.7c1.4,0,2.8-0.2,4.1-0.7c1.3-0.4,2.6-1.2,3.8-2.3l3,3.9c-1.5,1.2-3.2,2.1-5.1,2.7
		C25.6,182.1,23.7,182.4,21.6,182.4z M27.8,178.1v-10.6h5v11.3L27.8,178.1z"/>
	<path class="st1" d="M39.3,182v-21.7h4.8v6l-0.6-1.7c0.6-1.5,1.6-2.6,3-3.4c1.4-0.8,3.1-1.2,5.2-1.2v4.8c-0.2,0-0.4,0-0.6-0.1
		s-0.4,0-0.5,0c-2,0-3.5,0.6-4.6,1.7c-1.1,1.1-1.7,2.8-1.7,5.1V182H39.3z"/>
	<path class="st1" d="M61.1,182.3c-1.6,0-3-0.3-4.3-0.8c-1.2-0.6-2.2-1.3-2.8-2.3c-0.7-1-1-2.1-1-3.4c0-1.2,0.3-2.3,0.9-3.3
		c0.6-1,1.5-1.7,2.9-2.3c1.3-0.6,3.1-0.9,5.3-0.9h6.3v3.4h-5.9c-1.7,0-2.9,0.3-3.5,0.8c-0.6,0.6-0.9,1.3-0.9,2.1
		c0,0.9,0.4,1.6,1.1,2.2c0.7,0.5,1.7,0.8,3,0.8c1.2,0,2.4-0.3,3.4-0.9c1-0.6,1.7-1.4,2.2-2.5l0.8,3c-0.5,1.3-1.4,2.3-2.6,3
		C64.6,181.9,63,182.3,61.1,182.3z M67.9,182v-4.4l-0.2-0.9V169c0-1.5-0.5-2.6-1.4-3.5c-0.9-0.8-2.3-1.2-4.1-1.2
		c-1.2,0-2.4,0.2-3.5,0.6c-1.2,0.4-2.2,0.9-3,1.6l-2-3.7c1.2-0.9,2.6-1.6,4.2-2c1.6-0.5,3.3-0.7,5-0.7c3.2,0,5.6,0.8,7.3,2.3
		c1.7,1.5,2.6,3.8,2.6,7V182H67.9z"/>
	<path class="st1" d="M91.5,160c1.8,0,3.3,0.3,4.7,1s2.4,1.7,3.2,3.1c0.8,1.4,1.2,3.2,1.2,5.4V182h-5.1v-11.8c0-1.9-0.4-3.4-1.3-4.3
		c-0.9-0.9-2.2-1.4-3.8-1.4c-1.2,0-2.2,0.2-3.2,0.7c-0.9,0.5-1.6,1.2-2.1,2.2c-0.5,1-0.8,2.2-0.8,3.6v11h-5v-21.7h4.8v5.9l-0.9-1.8
		c0.7-1.4,1.8-2.5,3.3-3.2C87.9,160.4,89.6,160,91.5,160z"/>
	<path class="st1" d="M116.2,182.3c-2.1,0-4-0.5-5.6-1.4s-3-2.2-3.9-3.9c-0.9-1.7-1.4-3.6-1.4-5.9c0-2.2,0.5-4.2,1.4-5.8
		c0.9-1.7,2.3-3,3.9-3.9s3.5-1.4,5.6-1.4c1.8,0,3.4,0.4,4.9,1.2c1.4,0.8,2.6,2,3.4,3.7c0.8,1.6,1.3,3.7,1.3,6.3
		c0,2.5-0.4,4.6-1.2,6.3c-0.8,1.7-1.9,2.9-3.4,3.7S118.1,182.3,116.2,182.3z M116.8,178c1.2,0,2.3-0.3,3.3-0.8
		c1-0.6,1.7-1.4,2.3-2.4c0.6-1,0.9-2.2,0.9-3.6c0-1.4-0.3-2.6-0.9-3.6c-0.6-1-1.4-1.8-2.3-2.4c-1-0.6-2.1-0.8-3.3-0.8
		s-2.3,0.3-3.3,0.8c-1,0.6-1.7,1.3-2.3,2.4c-0.6,1-0.9,2.2-0.9,3.6c0,1.4,0.3,2.6,0.9,3.6c0.6,1,1.4,1.8,2.3,2.4
		C114.5,177.7,115.6,178,116.8,178z M123.5,182v-5.1l0.1-5.8l-0.4-5.8v-13.5h5.1V182H123.5z"/>
	<path class="st1" d="M145.2,182.3c-2.4,0-4.5-0.5-6.3-1.4c-1.8-1-3.2-2.3-4.2-3.9s-1.5-3.6-1.5-5.7c0-2.2,0.5-4.1,1.4-5.7
		c1-1.7,2.3-3,4-3.9c1.7-1,3.6-1.4,5.8-1.4c2.1,0,4,0.5,5.6,1.4c1.7,0.9,3,2.2,3.9,3.9c0.9,1.7,1.4,3.7,1.4,6c0,0.2,0,0.4,0,0.7
		c0,0.3,0,0.5-0.1,0.8h-18.1v-3.4h15.4l-2,1.1c0-1.2-0.2-2.3-0.8-3.3c-0.5-1-1.3-1.7-2.2-2.2s-2-0.8-3.2-0.8c-1.2,0-2.3,0.3-3.3,0.8
		c-1,0.5-1.7,1.3-2.2,2.3c-0.5,1-0.8,2.1-0.8,3.4v0.8c0,1.3,0.3,2.5,0.9,3.5c0.6,1,1.4,1.8,2.5,2.3c1.1,0.6,2.3,0.8,3.8,0.8
		c1.2,0,2.3-0.2,3.3-0.6c1-0.4,1.8-1,2.6-1.8l2.8,3.2c-1,1.1-2.2,2-3.7,2.6C148.7,182,147.1,182.3,145.2,182.3z"/>
	<path class="st1" d="M169.4,182.3c-1.8,0-3.5-0.3-4.9-1c-1.4-0.7-2.5-1.7-3.3-3.2c-0.8-1.4-1.2-3.2-1.2-5.4v-12.4h5.1V172
		c0,1.9,0.4,3.4,1.3,4.3c0.9,1,2.1,1.4,3.7,1.4c1.2,0,2.2-0.2,3.1-0.7c0.9-0.5,1.6-1.2,2.1-2.2c0.5-1,0.7-2.2,0.7-3.6v-11h5.1V182
		h-4.8v-5.9l0.9,1.8c-0.7,1.4-1.8,2.5-3.2,3.2C172.6,181.9,171.1,182.3,169.4,182.3z"/>
	<path class="st1" d="M187.9,182v-21.7h4.8v6l-0.6-1.7c0.6-1.5,1.6-2.6,3-3.4c1.4-0.8,3.1-1.2,5.2-1.2v4.8c-0.2,0-0.4,0-0.6-0.1
		s-0.4,0-0.5,0c-1.9,0-3.5,0.6-4.6,1.7s-1.7,2.8-1.7,5.1V182H187.9z"/>
</g>
<g>
	<path class="st0" d="M150.1,57.2h-3.7v44.8h-18.7V57.2h-3.7v44.8h-18.7V57.2H56.7v26.2h23.2L67,61h21.6l12.9,22.4v18.7H46.2
		c11.2,20.1,32.6,33.6,57.2,33.6c24.6,0,46-13.6,57.2-33.6h-10.5V57.2z"/>
	<path class="st0" d="M103.4,4.9c-24.6,0-46,13.6-57.2,33.6h114.3C149.3,18.5,127.9,4.9,103.4,4.9z"/>
</g>
<g>
	<g>
		<circle class="st1" cx="161.3" cy="208.8" r="3.3"/>
		<circle class="st1" cx="45.4" cy="208.8" r="3.3"/>
	</g>
</g>
</svg>
