<?xml version="1.0" encoding="utf-8"?>
<!-- Generator: Adobe Illustrator 26.3.1, SVG Export Plug-In . SVG Version: 6.00 Build 0)  -->
<svg version="1.1" id="Layer_1" xmlns="http://www.w3.org/2000/svg" xmlns:xlink="http://www.w3.org/1999/xlink" x="0px" y="0px"
	 viewBox="0 0 1436 339.9" style="enable-background:new 0 0 1436 339.9;" xml:space="preserve">
<style type="text/css">
	.st0{fill:#FF3500;}
	.st1{fill:#10324F;}
</style>
<g>
	<g>
		<path class="st0" d="M275.5,113.5l-224.8,155c-3.5,2.4-5.4,6.7-4.8,11l8.3,60.4H34c-14.3,0-26.2-10.6-28.1-24.4l0,0l-5.6-40.9
			c-1.6-11.8,2.6-23.7,11.3-31.8L270.4,0l17.3,85.8c0.2,1.4,0.3,2.7,0.3,4.1C288,99.7,283.1,108.4,275.5,113.5z"/>
		<path class="st0" d="M181.9,248.3l24.8,91.6l82.6,0l-70.7-136.5L195.2,217c-8.4,4.9-14.1,14.1-14.1,24.5
			C181.1,243.9,181.4,246.2,181.9,248.3z"/>
	</g>
	<g>
		<path class="st0" d="M1109.7,209.4c-3.9,0-7.2-0.9-10-2.6c-2.8-1.7-5-4.1-6.6-7.2c-1.6-3.1-2.3-6.8-2.3-10.9
			c0-4.3,0.8-8.1,2.3-11.2c1.5-3.2,3.7-5.6,6.5-7.3c2.8-1.7,6.1-2.6,9.9-2.6c3.9,0,7.3,0.9,10,2.7c2.8,1.8,4.9,4.4,6.3,7.7
			c1.4,3.4,2.1,7.4,1.9,12h-5.5V188c-0.1-5.1-1.2-9-3.3-11.6c-2.1-2.6-5.2-3.9-9.3-3.9c-4.3,0-7.5,1.4-9.8,4.1
			c-2.3,2.8-3.4,6.7-3.4,11.8c0,5,1.1,8.9,3.4,11.6c2.3,2.8,5.5,4.1,9.6,4.1c2.8,0,5.3-0.7,7.4-2c2.1-1.3,3.8-3.2,5-5.7l5,1.9
			c-1.6,3.5-3.9,6.1-6.9,8C1117,208.4,1113.6,209.4,1109.7,209.4z M1094.6,189.9v-4.5h30.3v4.5H1094.6z"/>
		<path class="st0" d="M1134.7,208.2v-39.6h4.9v9.8h0.6v29.9H1134.7z M1163.4,208.2V188c0-2.2-0.2-4.2-0.6-6.1
			c-0.4-1.8-1.1-3.5-2-4.8c-0.9-1.4-2.1-2.5-3.6-3.2c-1.5-0.8-3.2-1.1-5.3-1.1c-1.9,0-3.6,0.3-5,1c-1.5,0.7-2.7,1.6-3.7,2.8
			c-1,1.2-1.7,2.7-2.3,4.5s-0.8,3.8-0.8,6l-3.8-0.8c0-4.1,0.7-7.5,2.1-10.2c1.4-2.8,3.4-4.9,5.9-6.3c2.5-1.4,5.4-2.1,8.6-2.1
			c2.4,0,4.4,0.4,6.2,1.1c1.8,0.7,3.3,1.7,4.5,3s2.2,2.7,3,4.3c0.8,1.6,1.3,3.3,1.7,5.1s0.5,3.6,0.5,5.4v21.8H1163.4z"/>
		<path class="st0" d="M1173.9,173.2v-4.6h26v4.6H1173.9z M1199.9,208.2c-2.2,0.5-4.4,0.6-6.6,0.6c-2.2-0.1-4.1-0.6-5.8-1.4
			c-1.7-0.8-3-2.1-3.9-3.9c-0.7-1.5-1.1-3-1.2-4.5c-0.1-1.5-0.1-3.2-0.1-5.2v-36.3h5.4v36.1c0,1.7,0,3.1,0.1,4.2
			c0,1.1,0.3,2.1,0.8,3c0.9,1.6,2.3,2.6,4.2,2.9c1.9,0.3,4.3,0.2,7.1-0.2V208.2z"/>
		<path class="st0" d="M1223,209.4c-3.9,0-7.2-0.9-10-2.6c-2.8-1.7-5-4.1-6.6-7.2c-1.6-3.1-2.3-6.8-2.3-10.9c0-4.3,0.8-8.1,2.3-11.2
			c1.5-3.2,3.7-5.6,6.5-7.3c2.8-1.7,6.1-2.6,9.9-2.6c3.9,0,7.3,0.9,10,2.7c2.8,1.8,4.9,4.4,6.3,7.7c1.4,3.4,2.1,7.4,1.9,12h-5.5V188
			c-0.1-5.1-1.2-9-3.3-11.6c-2.1-2.6-5.2-3.9-9.3-3.9c-4.3,0-7.5,1.4-9.8,4.1c-2.3,2.8-3.4,6.7-3.4,11.8c0,5,1.1,8.9,3.4,11.6
			c2.3,2.8,5.5,4.1,9.6,4.1c2.8,0,5.3-0.7,7.4-2c2.1-1.3,3.8-3.2,5-5.7l5,1.9c-1.6,3.5-3.9,6.1-6.9,8
			C1230.3,208.4,1226.9,209.4,1223,209.4z M1207.9,189.9v-4.5h30.3v4.5H1207.9z"/>
		<path class="st0" d="M1249.2,208.2v-39.6h4.8v9.5l-1-1.2c0.4-1.2,1-2.3,1.7-3.2c0.7-1,1.5-1.8,2.3-2.4c1-0.9,2.2-1.6,3.6-2.1
			c1.4-0.5,2.8-0.8,4.1-0.8c1.4-0.1,2.7,0,3.8,0.3v5.1c-1.4-0.4-3-0.5-4.7-0.3c-1.7,0.2-3.3,0.9-4.7,2.1c-1.3,1-2.3,2.3-3,3.7
			c-0.7,1.4-1.1,2.9-1.3,4.6c-0.2,1.6-0.3,3.2-0.3,4.8v19.8H1249.2z"/>
		<path class="st0" d="M1275.6,225.9v-57.2h4.8v29.8h0.6v27.4H1275.6z M1293.4,209.4c-3.6,0-6.7-0.9-9.2-2.8s-4.4-4.4-5.7-7.5
			s-1.9-6.7-1.9-10.7c0-4,0.7-7.6,2-10.7c1.3-3.1,3.2-5.6,5.8-7.4c2.5-1.8,5.7-2.7,9.4-2.7c3.6,0,6.7,0.9,9.3,2.8
			c2.6,1.8,4.6,4.3,6,7.5c1.4,3.2,2.1,6.7,2.1,10.6c0,4-0.7,7.5-2.1,10.7c-1.4,3.2-3.4,5.7-6,7.5
			C1300.3,208.4,1297.1,209.4,1293.4,209.4z M1292.9,204.3c2.8,0,5.1-0.7,6.9-2.1c1.8-1.4,3.2-3.3,4.1-5.7c0.9-2.4,1.4-5.1,1.4-8.1
			c0-3-0.5-5.7-1.4-8.1c-0.9-2.4-2.3-4.3-4.1-5.7c-1.8-1.4-4.2-2.1-7-2.1c-2.8,0-5.1,0.7-6.9,2c-1.8,1.3-3.2,3.2-4.1,5.6
			c-0.9,2.4-1.4,5.1-1.4,8.2c0,3.1,0.5,5.8,1.4,8.2c0.9,2.4,2.3,4.3,4.1,5.7C1287.7,203.6,1290.1,204.3,1292.9,204.3z"/>
		<path class="st0" d="M1319.1,208.2v-39.6h4.8v9.5l-1-1.2c0.4-1.2,1-2.3,1.7-3.2c0.7-1,1.5-1.8,2.3-2.4c1-0.9,2.2-1.6,3.6-2.1
			c1.4-0.5,2.8-0.8,4.1-0.8c1.4-0.1,2.7,0,3.8,0.3v5.1c-1.4-0.4-3-0.5-4.7-0.3c-1.7,0.2-3.3,0.9-4.7,2.1c-1.3,1-2.3,2.3-3,3.7
			c-0.7,1.4-1.1,2.9-1.3,4.6c-0.2,1.6-0.3,3.2-0.3,4.8v19.8H1319.1z"/>
		<path class="st0" d="M1346.3,161.1V155h5.4v6.1H1346.3z M1346.3,208.2v-39.6h5.4v39.6H1346.3z"/>
		<path class="st0" d="M1377.5,209.3c-4.6,0-8.5-1-11.5-3c-3-2-4.8-4.8-5.5-8.4l5.5-0.9c0.6,2.3,1.9,4,4,5.4c2.1,1.3,4.7,2,7.8,2
			c3,0,5.4-0.6,7.1-1.9c1.7-1.3,2.6-3,2.6-5.2c0-1.2-0.3-2.2-0.8-3c-0.6-0.8-1.7-1.5-3.4-2.1c-1.7-0.7-4.2-1.4-7.6-2.3
			c-3.6-1-6.4-2-8.4-2.9c-2-1-3.5-2.1-4.3-3.4s-1.3-2.9-1.3-4.7c0-2.2,0.6-4.2,1.9-5.9c1.3-1.7,3-3,5.3-4c2.3-0.9,4.9-1.4,7.9-1.4
			c3,0,5.7,0.5,8,1.5c2.4,1,4.3,2.3,5.7,4.1c1.4,1.7,2.3,3.8,2.6,6.1l-5.5,1c-0.4-2.3-1.5-4.2-3.5-5.5c-1.9-1.4-4.4-2.1-7.4-2.1
			c-2.8-0.1-5.1,0.5-6.9,1.6c-1.8,1.1-2.6,2.6-2.6,4.5c0,1.1,0.3,2,1,2.7s1.8,1.4,3.5,2.1c1.7,0.7,4.1,1.4,7.2,2.2
			c3.6,0.9,6.5,1.9,8.6,2.9c2.1,1,3.6,2.2,4.4,3.6c0.9,1.4,1.3,3.1,1.3,5.2c0,3.7-1.4,6.7-4.2,8.8S1382.3,209.3,1377.5,209.3z"/>
		<path class="st0" d="M1418,209.4c-3.9,0-7.2-0.9-10-2.6c-2.8-1.7-5-4.1-6.6-7.2c-1.6-3.1-2.3-6.8-2.3-10.9c0-4.3,0.8-8.1,2.3-11.2
			c1.5-3.2,3.7-5.6,6.5-7.3c2.8-1.7,6.1-2.6,9.9-2.6c3.9,0,7.3,0.9,10,2.7c2.8,1.8,4.9,4.4,6.3,7.7c1.4,3.4,2.1,7.4,1.9,12h-5.5V188
			c-0.1-5.1-1.2-9-3.3-11.6c-2.1-2.6-5.2-3.9-9.3-3.9c-4.3,0-7.5,1.4-9.8,4.1c-2.3,2.8-3.4,6.7-3.4,11.8c0,5,1.1,8.9,3.4,11.6
			c2.3,2.8,5.5,4.1,9.6,4.1c2.8,0,5.3-0.7,7.4-2c2.1-1.3,3.8-3.2,5-5.7l5,1.9c-1.6,3.5-3.9,6.1-6.9,8
			C1425.3,208.4,1421.8,209.4,1418,209.4z M1402.8,189.9v-4.5h30.3v4.5H1402.8z"/>
	</g>
	<g>
		<g>
			<path class="st1" d="M512.4,220.6h-82.2l-15.7,37.9h-42l78.9-177.1h40.5l79.2,177.1h-43L512.4,220.6z M499.5,189.4l-28.1-67.8
				l-28.1,67.8H499.5z"/>
			<path class="st1" d="M701.8,129.1c10.4,5.8,18.5,14,24.4,24.5c5.9,10.5,8.9,22.8,8.9,36.8c0,14-3,26.3-8.9,36.8
				c-5.9,10.5-14,18.7-24.4,24.5c-10.4,5.8-21.9,8.7-34.5,8.7c-17.4,0-31-5.5-41-16.4v63.5h-39.5V122.4h37.7v15.7
				c9.8-11.8,24-17.7,42.8-17.7C679.9,120.4,691.4,123.3,701.8,129.1z M685.3,217.9c6.5-6.8,9.7-16,9.7-27.5
				c0-11.5-3.2-20.6-9.7-27.5c-6.5-6.8-14.8-10.2-24.9-10.2c-10.1,0-18.4,3.4-24.9,10.2c-6.5,6.8-9.7,16-9.7,27.5
				c0,11.5,3.2,20.6,9.7,27.5c6.5,6.8,14.8,10.2,24.9,10.2C670.5,228.1,678.8,224.7,685.3,217.9z"/>
			<path class="st1" d="M893.9,201.6H791c1.9,8.4,6.2,15.1,13.2,20c6.9,4.9,15.5,7.3,25.8,7.3c7.1,0,13.4-1.1,18.8-3.2
				c5.5-2.1,10.6-5.4,15.3-10l21,22.8c-12.8,14.7-31.5,22-56.2,22c-15.3,0-28.9-3-40.7-9c-11.8-6-20.9-14.3-27.3-24.9
				c-6.4-10.6-9.6-22.7-9.6-36.2c0-13.3,3.2-25.3,9.5-36.1c6.3-10.7,15-19.1,26.1-25c11-6,23.4-9,37.1-9c13.3,0,25.4,2.9,36.2,8.6
				c10.8,5.7,19.3,14,25.4,24.7c6.2,10.7,9.2,23.1,9.2,37.3C894.7,191.5,894.4,195,893.9,201.6z M801.6,157.8
				c-6.1,5.1-9.8,12-11.1,20.7h67c-1.4-8.6-5.1-15.5-11.1-20.6c-6.1-5.1-13.5-7.7-22.3-7.7C815.2,150.2,807.7,152.8,801.6,157.8z"/>
			<path class="st1" d="M1003.7,258.5l-29.9-41.7L943,258.5h-43l52.4-68.6l-50.6-67.5H946l28.8,39.7l29.6-39.7h42l-50.6,66.5
				l52.6,69.6H1003.7z"/>
		</g>
	</g>
</g>
</svg>
