<?xml version="1.0" encoding="utf-8"?>
<!-- Generator: Adobe Illustrator 26.3.1, SVG Export Plug-In . SVG Version: 6.00 Build 0)  -->
<svg version="1.1" id="Layer_1" xmlns="http://www.w3.org/2000/svg" xmlns:xlink="http://www.w3.org/1999/xlink" x="0px" y="0px"
	 viewBox="0 0 656 546.3" style="enable-background:new 0 0 656 546.3;" xml:space="preserve">
<style type="text/css">
	.st0{fill:#10324F;}
	.st1{fill:#FF3500;}
</style>
<g>
	<g>
		<g>
			<path class="st0" d="M156,470.7H84.5l-13.6,32.9H34.4L103,349.7h35.2L207,503.6h-37.4L156,470.7z M144.8,443.7l-24.4-58.9
				l-24.4,58.9H144.8z"/>
			<path class="st0" d="M320.5,391.3c9,5,16.1,12.2,21.2,21.3c5.1,9.1,7.7,19.8,7.7,32s-2.6,22.9-7.7,32
				c-5.1,9.1-12.2,16.2-21.2,21.3s-19,7.6-30,7.6c-15.1,0-26.9-4.8-35.6-14.3v55.2h-34.3V385.5h32.8v13.6
				c8.5-10.3,20.9-15.4,37.2-15.4C301.4,383.7,311.5,386.2,320.5,391.3z M306.2,468.4c5.6-5.9,8.4-13.9,8.4-23.9
				c0-10-2.8-17.9-8.4-23.9c-5.6-5.9-12.9-8.9-21.6-8.9c-8.8,0-16,3-21.6,8.9c-5.6,5.9-8.4,13.9-8.4,23.9c0,10,2.8,17.9,8.4,23.9
				c5.6,5.9,12.9,8.9,21.6,8.9C293.4,477.3,300.6,474.4,306.2,468.4z"/>
			<path class="st0" d="M487.5,454.3H398c1.7,7.3,5.4,13.1,11.5,17.4c6,4.3,13.5,6.3,22.4,6.3c6.2,0,11.6-1,16.3-2.8
				c4.8-1.8,9.2-4.7,13.3-8.7l18.2,19.8c-11.1,12.8-27.4,19.1-48.8,19.1c-13.3,0-25.1-2.6-35.4-7.8s-18.2-12.4-23.7-21.6
				c-5.6-9.2-8.3-19.7-8.3-31.5c0-11.6,2.8-22,8.3-31.4c5.5-9.3,13-16.6,22.7-21.7c9.6-5.2,20.3-7.8,32.2-7.8
				c11.6,0,22.1,2.5,31.5,7.5s16.8,12.2,22.1,21.5c5.4,9.3,8,20.1,8,32.4C488.1,445.4,487.9,448.5,487.5,454.3z M407.2,416.2
				c-5.3,4.4-8.5,10.4-9.6,18h58.2c-1.2-7.5-4.4-13.5-9.6-17.9c-5.3-4.4-11.7-6.7-19.4-6.7C419,409.6,412.5,411.8,407.2,416.2z"/>
			<path class="st0" d="M582.9,503.7l-26-36.2l-26.9,36.2h-37.4l45.5-59.6l-44-58.7h38.5l25,34.5l25.7-34.5H620l-44,57.8l45.7,60.5
				H582.9z"/>
		</g>
	</g>
	<g>
		<g>
			<path d="M88.2,88.7H25.8l-13.5,29.9H0L51.2,6.7h11.6L114,118.6h-12.5L88.2,88.7z M83.9,79.2L57,19L30.2,79.2H83.9z"/>
			<path d="M184.9,42.1c5.8,5.5,8.8,13.6,8.8,24.4v52.1h-10.9v-13.1c-2.5,4.3-6.3,7.8-11.3,10.3c-5,2.4-10.9,3.6-17.6,3.6
				c-9.4,0-16.9-2.3-22.4-6.7c-5.6-4.5-8.3-10.4-8.3-17.7c0-7.1,2.6-12.9,7.7-17.3c5.2-4.3,13.4-6.5,24.7-6.5h26.7v-5.1
				c0-7.2-2-12.8-6.1-16.5c-4.1-3.8-10-5.6-17.7-5.6c-5.3,0-10.4,0.9-15.4,2.6c-4.9,1.7-9.1,4.2-12.6,7.3l-5.1-8.5
				c4.3-3.6,9.4-6.4,15.4-8.4c6-2,12.3-3,18.9-3C170.7,33.9,179.1,36.7,184.9,42.1z M172.1,106.1c4.6-3,8-7.2,10.3-12.7V79.6H156
				c-14.4,0-21.5,5-21.5,15c0,4.9,1.8,8.8,5.6,11.6c3.7,2.9,9,4.3,15.6,4.3C162.1,110.5,167.5,109.1,172.1,106.1z"/>
			<path d="M319.2,70.6c3.6,4.8,5.5,10.6,5.5,17.6c0,9.8-3.8,17.4-11.5,22.6c-7.6,5.3-18.8,7.9-33.4,7.9H222V6.7h54.7
				c13.6,0,24.2,2.6,31.5,7.8s10.9,12.3,10.9,21.3c0,5.5-1.3,10.3-3.9,14.5s-6.3,7.6-10.9,10.1C310.6,62.5,315.7,65.9,319.2,70.6z
				 M247.8,26.2v26.4h25.7c6.4,0,11.2-1.1,14.5-3.4s5-5.6,5-9.9s-1.7-7.6-5-9.8s-8.2-3.3-14.5-3.3H247.8z M293.4,95.8
				c3.5-2.3,5.2-5.7,5.2-10.4c0-9.3-6.9-13.9-20.6-13.9h-30.2v27.6h30.2C284.8,99.1,290,98,293.4,95.8z"/>
			<path d="M415.4,36.8c6.5,3.6,11.7,8.9,15.5,15.6c3.7,6.7,5.6,14.4,5.6,23.3s-1.8,16.6-5.6,23.3c-3.7,6.7-8.9,11.8-15.5,15.6
				c-6.5,3.6-13.8,5.5-21.8,5.5c-11.8,0-20.9-3.7-27-11.2v9.9h-23.8V0h24.9v41.7c6.3-7,14.9-10.4,25.9-10.4
				C401.4,31.4,408.7,33.2,415.4,36.8z M404.9,93c4.1-4.3,6.2-10.1,6.2-17.4c0-7.2-2.1-13-6.2-17.4c-4.1-4.3-9.4-6.5-15.7-6.5
				c-6.3,0-11.6,2.2-15.7,6.5s-6.2,10.1-6.2,17.4c0,7.2,2.1,13,6.2,17.4c4.1,4.3,9.4,6.5,15.7,6.5C395.5,99.5,400.8,97.3,404.9,93z"
				/>
			<path d="M476.5,113.7c-9.5-5-16.9-11.9-22.3-20.8s-8.1-19-8.1-30.3s2.7-21.4,8.1-30.3c5.4-8.9,12.9-15.8,22.3-20.8
				c9.5-5,20.2-7.5,32-7.5c10.9,0,20.6,1.9,29.1,5.7s15.6,9.4,21.1,16.6l-23.9,21.4c-7-8.8-15.1-13.1-24.5-13.1
				c-7.9,0-14.3,2.5-19,7.6s-7.2,11.9-7.2,20.4s2.4,15.3,7.2,20.4c4.8,5,11.1,7.6,19,7.6c9.4,0,17.6-4.3,24.5-13.1l23.8,21.3
				c-5.6,7.2-12.6,12.8-21.1,16.6s-18.2,5.7-29.1,5.7C496.6,121.2,486,118.7,476.5,113.7z"/>
			<path d="M586.4,114.5c-7.8-3.8-14-9.2-18.4-16.2c-4.4-7-6.6-14.8-6.6-23.5s2.2-16.5,6.6-23.5c4.4-6.9,10.5-12.3,18.4-16.1
				c7.8-3.8,16.7-5.7,26.6-5.7c10.7,0,19.8,2.3,27.4,6.9c7.6,4.6,12.8,10.9,15.6,19l-28,13.7c-3.4-7.6-8.5-11.6-15.2-11.6
				c-4.3,0-7.8,1.5-10.6,4.5c-2.9,3-4.3,7.2-4.3,12.6c0,5.6,1.4,9.8,4.3,12.8c2.8,3,6.3,4.5,10.6,4.5c6.7,0,11.8-3.8,15.2-11.6
				l28,13.7c-2.9,8.1-8.1,14.4-15.6,19s-16.7,6.9-27.4,6.9C603.1,120.3,594.3,118.3,586.4,114.5z"/>
		</g>
		<g>
			<path d="M40.7,144.5v34.1h-3.5v-27.2l-13.4,22.9h-1.7L8.7,151.5v27.1H5.2v-34.1h3l14.8,25.2l14.6-25.2H40.7z"/>
			<path d="M54.7,177.1c-2-1.1-3.6-2.7-4.7-4.6c-1.1-2-1.7-4.2-1.7-6.7s0.6-4.7,1.7-6.7c1.1-2,2.7-3.5,4.7-4.6
				c2-1.1,4.2-1.7,6.7-1.7c2.4,0,4.7,0.5,6.7,1.7c2,1.1,3.6,2.6,4.6,4.6c1,2,1.7,4.2,1.7,6.7s-0.5,4.7-1.7,6.7
				c-1.1,2-2.7,3.6-4.6,4.6c-2,1.1-4.2,1.7-6.7,1.7C59,178.7,56.7,178.2,54.7,177.1z M66.3,174.5c1.5-0.9,2.6-2,3.4-3.6
				c0.8-1.6,1.2-3.2,1.2-5.2s-0.4-3.6-1.2-5.2c-0.8-1.6-1.9-2.7-3.4-3.6s-3-1.2-4.9-1.2c-1.8,0-3.5,0.4-4.9,1.2
				c-1.5,0.9-2.6,2-3.4,3.6c-0.9,1.6-1.2,3.2-1.2,5.2s0.4,3.6,1.2,5.2c0.9,1.6,2,2.7,3.4,3.6c1.5,0.9,3,1.2,4.9,1.2
				C63.3,175.7,64.9,175.3,66.3,174.5z"/>
			<path d="M102.2,155.5c1.9,1.8,2.9,4.6,2.9,8.2v14.9h-3.5v-14.5c0-2.7-0.7-4.7-2-6.1s-3.2-2.1-5.6-2.1c-2.8,0-5,0.8-6.5,2.4
				c-1.6,1.7-2.4,3.9-2.4,6.8v13.4h-3.5v-25.5h3.3v4.7c1-1.6,2.3-2.8,3.9-3.6c1.7-0.9,3.6-1.3,5.8-1.3
				C97.7,152.8,100.3,153.7,102.2,155.5z"/>
			<path d="M127.8,177c-0.6,0.6-1.5,1-2.4,1.3c-1,0.3-1.9,0.4-3,0.4c-2.4,0-4.3-0.6-5.6-1.9c-1.3-1.3-1.9-3.1-1.9-5.5v-15.5h-4.6v-3
				h4.6v-5.6h3.5v5.6h7.8v3h-7.8v15.3c0,1.6,0.3,2.7,1.1,3.5c0.8,0.8,1.8,1.2,3.3,1.2c0.7,0,1.4-0.1,2.1-0.3c0.7-0.3,1.2-0.5,1.7-1
				L127.8,177z"/>
			<path d="M135,177.9c-1.9-0.6-3.4-1.4-4.4-2.3l1.6-2.7c1,0.9,2.4,1.6,4,2.1c1.6,0.5,3.3,0.8,5,0.8c2.3,0,4.1-0.3,5.2-1.1
				c1.1-0.8,1.7-1.7,1.7-3.1c0-1-0.3-1.7-1-2.2c-0.6-0.5-1.4-1-2.3-1.2c-1-0.3-2.2-0.5-3.7-0.8c-2.1-0.3-3.7-0.8-5-1.2
				c-1.3-0.4-2.3-1.1-3.2-2.1c-0.9-1-1.3-2.3-1.3-4c0-2.2,0.9-3.9,2.7-5.2c1.8-1.4,4.3-2,7.5-2c1.7,0,3.3,0.3,5,0.7s3,1,4.1,1.7
				l-1.5,2.8c-2.1-1.5-4.6-2.2-7.6-2.2c-2.2,0-3.8,0.3-5,1.1s-1.7,1.8-1.7,3c0,1,0.3,1.7,1,2.3c0.6,0.6,1.4,1,2.3,1.3
				c1,0.3,2.3,0.5,3.9,0.9c2,0.3,3.6,0.8,5,1.1s2.3,1,3.1,2c0.9,1,1.3,2.3,1.3,3.9c0,2.3-1,4-2.8,5.3c-1.8,1.3-4.4,2-7.7,2
				C138.9,178.7,136.9,178.5,135,177.9z"/>
			<path d="M180.1,166.8h-21.4c0.2,2.7,1.2,4.8,3,6.4c1.8,1.7,4.2,2.4,7,2.4c1.6,0,3-0.3,4.3-0.9s2.5-1.4,3.5-2.5l1.9,2.3
				c-1.1,1.4-2.5,2.4-4.3,3.1c-1.7,0.7-3.6,1-5.6,1c-2.6,0-5-0.5-7-1.7c-2-1.1-3.6-2.7-4.8-4.6c-1.1-2-1.7-4.2-1.7-6.7
				s0.5-4.7,1.7-6.7c1-2,2.6-3.5,4.4-4.6c1.9-1.1,4-1.7,6.4-1.7c2.4,0,4.5,0.5,6.3,1.7c1.9,1.1,3.4,2.6,4.4,4.6c1,2,1.6,4.2,1.6,6.7
				L180.1,166.8z M161.6,158.1c-1.7,1.6-2.6,3.6-2.9,6.2h18.2c-0.3-2.5-1.2-4.6-2.9-6.2c-1.7-1.6-3.7-2.3-6.3-2.3
				C165.4,155.7,163.3,156.5,161.6,158.1z"/>
			<path d="M194.2,154.1c1.6-0.9,3.6-1.3,6-1.3v3.4l-0.9-0.1c-2.7,0-4.8,0.9-6.3,2.5s-2.3,4-2.3,7v13h-3.5V153h3.3v5
				C191.3,156.2,192.6,154.9,194.2,154.1z"/>
			<path d="M213.3,154.1c1.6-0.9,3.6-1.3,6-1.3v3.4l-0.9-0.1c-2.7,0-4.8,0.9-6.3,2.5s-2.3,4-2.3,7v13h-3.5V153h3.3v5
				C210.5,156.2,211.7,154.9,213.3,154.1z"/>
			<path d="M242,155.3c1.8,1.7,2.7,4.2,2.7,7.4v15.8h-3.3v-4c-0.8,1.3-1.9,2.3-3.4,3.1c-1.5,0.8-3.3,1.1-5.4,1.1
				c-2.9,0-5.1-0.7-6.8-2c-1.7-1.3-2.5-3.1-2.5-5.4c0-2.2,0.8-3.9,2.3-5.2c1.6-1.3,4.1-2,7.5-2h8.1v-1.6c0-2.2-0.6-3.9-1.8-5
				c-1.2-1.1-3-1.7-5.4-1.7c-1.7,0-3.2,0.3-4.7,0.8c-1.5,0.5-2.8,1.3-3.8,2.2l-1.6-2.6c1.3-1.1,2.9-1.9,4.7-2.5
				c1.8-0.6,3.7-0.9,5.7-0.9C237.7,152.8,240.3,153.6,242,155.3z M238.2,174.7c1.4-0.9,2.4-2.2,3.1-3.8v-4.2h-8
				c-4.3,0-6.6,1.6-6.6,4.6c0,1.5,0.6,2.7,1.7,3.6c1.1,0.9,2.7,1.3,4.8,1.3C235,176,236.8,175.6,238.2,174.7z"/>
			<path d="M267.5,177c-0.6,0.6-1.5,1-2.4,1.3c-1,0.3-1.9,0.4-3,0.4c-2.4,0-4.3-0.6-5.6-1.9c-1.3-1.3-1.9-3.1-1.9-5.5v-15.5h-4.6v-3
				h4.6v-5.6h3.5v5.6h7.8v3h-7.8v15.3c0,1.6,0.3,2.7,1.1,3.5c0.8,0.8,1.8,1.2,3.3,1.2c0.7,0,1.4-0.1,2.1-0.3c0.7-0.3,1.2-0.5,1.7-1
				L267.5,177z"/>
			<path d="M290.5,155.3c1.8,1.7,2.7,4.2,2.7,7.4v15.8h-3.3v-4c-0.8,1.3-1.9,2.3-3.4,3.1c-1.5,0.8-3.3,1.1-5.4,1.1
				c-2.9,0-5.1-0.7-6.8-2c-1.7-1.3-2.5-3.1-2.5-5.4c0-2.2,0.8-3.9,2.3-5.2c1.6-1.3,4.1-2,7.5-2h8.1v-1.6c0-2.2-0.6-3.9-1.8-5
				c-1.2-1.1-3-1.7-5.4-1.7c-1.7,0-3.2,0.3-4.7,0.8s-2.8,1.3-3.8,2.2l-1.6-2.6c1.3-1.1,2.9-1.9,4.7-2.5c1.8-0.6,3.7-0.9,5.7-0.9
				C286.1,152.8,288.7,153.6,290.5,155.3z M286.6,174.7c1.4-0.9,2.4-2.2,3.1-3.8v-4.2h-8c-4.3,0-6.6,1.6-6.6,4.6
				c0,1.5,0.6,2.7,1.7,3.6c1.1,0.9,2.7,1.3,4.8,1.3C283.5,176,285.2,175.6,286.6,174.7z"/>
			<path d="M319.6,147.6V161h17.6v3.1h-17.6v14.4H316v-34.1h23.4v3.1H319.6z"/>
			<path d="M349,177.1c-2-1.1-3.6-2.7-4.7-4.6c-1.1-2-1.7-4.2-1.7-6.7s0.6-4.7,1.7-6.7c1.1-2,2.7-3.5,4.7-4.6c2-1.1,4.2-1.7,6.7-1.7
				c2.4,0,4.7,0.5,6.7,1.7c2,1.1,3.6,2.6,4.6,4.6c1,2,1.7,4.2,1.7,6.7s-0.5,4.7-1.7,6.7c-1.1,2-2.7,3.6-4.6,4.6
				c-2,1.1-4.2,1.7-6.7,1.7C353.1,178.7,351,178.2,349,177.1z M360.5,174.5c1.5-0.9,2.6-2,3.4-3.6c0.8-1.6,1.2-3.2,1.2-5.2
				s-0.4-3.6-1.2-5.2c-0.8-1.6-1.9-2.7-3.4-3.6s-3-1.2-4.9-1.2c-1.8,0-3.5,0.4-4.9,1.2c-1.5,0.9-2.6,2-3.4,3.6
				c-0.9,1.6-1.2,3.2-1.2,5.2s0.4,3.6,1.2,5.2c0.9,1.6,2,2.7,3.4,3.6c1.5,0.9,3,1.2,4.9,1.2C357.4,175.7,359,175.3,360.5,174.5z"/>
			<path d="M396.3,155.5c1.9,1.8,2.9,4.6,2.9,8.2v14.9h-3.5v-14.5c0-2.7-0.7-4.7-2-6.1s-3.2-2.1-5.6-2.1c-2.8,0-5,0.8-6.5,2.4
				c-1.6,1.7-2.4,3.9-2.4,6.8v13.4h-3.5v-25.5h3.3v4.7c1-1.6,2.3-2.8,3.9-3.6c1.7-0.9,3.6-1.3,5.8-1.3
				C391.9,152.8,394.4,153.7,396.3,155.5z"/>
			<path d="M422,177c-0.6,0.6-1.5,1-2.4,1.3c-1,0.3-1.9,0.4-3,0.4c-2.4,0-4.3-0.6-5.6-1.9s-1.9-3.1-1.9-5.5v-15.5h-4.6v-3h4.6v-5.6
				h3.5v5.6h7.8v3h-7.8v15.3c0,1.6,0.3,2.7,1.1,3.5c0.8,0.8,1.8,1.2,3.3,1.2c0.7,0,1.4-0.1,2.1-0.3c0.7-0.3,1.2-0.5,1.7-1L422,177z"
				/>
		</g>
	</g>
	<path class="st1" d="M331.5,318.7l12.1-20.9c1.5-2.6-0.3-5.9-3.4-5.9h-6.7v-44.3c0-3-2.4-5.4-5.4-5.4s-5.4,2.4-5.4,5.4V292H316
		c-3,0-4.9,3.3-3.4,5.9l12.1,20.9C326.2,321.3,329.9,321.3,331.5,318.7z"/>
</g>
<g>
	<g>
		<path class="st1" d="M940.6,541c-6.8,0-12.7-1.5-17.7-4.5s-8.9-7.3-11.6-12.8c-2.8-5.5-4.2-11.9-4.2-19.3c0-7.7,1.4-14.3,4.1-19.8
			c2.7-5.6,6.6-9.9,11.5-12.9c5-3,10.8-4.5,17.5-4.5c6.9,0,12.8,1.6,17.7,4.8c4.9,3.2,8.6,7.7,11.1,13.7c2.5,5.9,3.7,13,3.4,21.2
			h-9.7v-3.6c-0.2-9.1-2.1-15.9-5.9-20.6c-3.7-4.6-9.2-6.9-16.4-6.9c-7.5,0-13.3,2.4-17.3,7.3s-6,11.9-6,20.9c0,8.8,2,15.7,6,20.5
			c4,4.9,9.7,7.3,17,7.3c5,0,9.4-1.2,13.1-3.5c3.7-2.3,6.7-5.7,8.9-10l8.9,3.4c-2.8,6.1-6.8,10.8-12.2,14.2
			C953.5,539.2,947.4,541,940.6,541z M913.8,506.5v-8h53.5v8H913.8z"/>
		<path class="st1" d="M984.7,539v-70.1h8.6v17.3h1V539H984.7z M1035.4,539v-35.7c0-3.9-0.4-7.5-1.1-10.7c-0.7-3.3-1.9-6.1-3.5-8.6
			c-1.6-2.4-3.7-4.3-6.3-5.7c-2.6-1.3-5.7-2-9.4-2c-3.4,0-6.3,0.6-8.9,1.8c-2.6,1.2-4.7,2.8-6.5,5s-3.1,4.8-4,7.9
			c-0.9,3.1-1.4,6.7-1.4,10.6l-6.7-1.5c0-7.2,1.3-13.2,3.8-18.1s6-8.6,10.4-11.1c4.4-2.5,9.5-3.8,15.2-3.8c4.2,0,7.9,0.6,11,1.9
			c3.1,1.3,5.8,3,8,5.3c2.2,2.2,3.9,4.7,5.3,7.6c1.3,2.8,2.3,5.8,2.9,9s0.9,6.3,0.9,9.5v38.5h-9.7V539z"/>
		<path class="st1" d="M1054.1,477v-8.2h45.9v8.2H1054.1z M1100,539c-3.9,0.8-7.8,1.1-11.6,1c-3.8-0.2-7.2-1-10.2-2.5
			s-5.3-3.8-6.8-6.9c-1.3-2.6-1.9-5.2-2-7.9c-0.1-2.7-0.2-5.7-0.2-9.1v-64.2h9.5v63.9c0,2.9,0,5.4,0.1,7.4c0.1,2,0.5,3.7,1.3,5.2
			c1.6,2.9,4,4.6,7.4,5.2c3.4,0.6,7.6,0.4,12.6-0.4L1100,539L1100,539z"/>
		<path class="st1" d="M1140.9,541c-6.8,0-12.7-1.5-17.7-4.5s-8.9-7.3-11.6-12.8c-2.8-5.5-4.2-11.9-4.2-19.3
			c0-7.7,1.4-14.3,4.1-19.8c2.7-5.6,6.6-9.9,11.5-12.9c5-3,10.8-4.5,17.5-4.5c6.9,0,12.8,1.6,17.7,4.8c4.9,3.2,8.6,7.7,11.1,13.7
			c2.5,5.9,3.7,13,3.4,21.2h-9.7v-3.6c-0.2-9.1-2.1-15.9-5.9-20.6c-3.7-4.6-9.2-6.9-16.4-6.9c-7.5,0-13.3,2.4-17.3,7.3
			s-6,11.9-6,20.9c0,8.8,2,15.7,6,20.5c4,4.9,9.7,7.3,17,7.3c5,0,9.4-1.2,13.1-3.5s6.7-5.7,8.9-10l8.9,3.4
			c-2.8,6.1-6.8,10.8-12.2,14.2C1153.8,539.2,1147.7,541,1140.9,541z M1114.1,506.5v-8h53.5v8H1114.1z"/>
		<path class="st1" d="M1187.1,539v-70.1h8.6v16.9l-1.7-2.2c0.8-2.1,1.8-4,3-5.7c1.3-1.8,2.6-3.2,4.1-4.3c1.8-1.6,3.9-2.8,6.4-3.7
			c2.4-0.8,4.9-1.3,7.3-1.5c2.5-0.2,4.7,0,6.7,0.6v9c-2.6-0.6-5.3-0.8-8.4-0.5c-3,0.3-5.8,1.6-8.4,3.6c-2.3,1.8-4.1,4-5.3,6.5
			c-1.2,2.5-1.9,5.2-2.3,8c-0.4,2.8-0.6,5.6-0.6,8.4v35H1187.1z"/>
		<path class="st1" d="M1233.8,570V469h8.6v52.7h1v48.5h-9.6V570z M1265.3,541c-6.4,0-11.9-1.6-16.3-4.9s-7.8-7.7-10.1-13.3
			c-2.3-5.6-3.4-11.9-3.4-18.8c0-7.1,1.2-13.4,3.5-19c2.3-5.6,5.7-9.9,10.2-13.1s10-4.8,16.6-4.8c6.4,0,11.9,1.6,16.5,4.9
			c4.6,3.2,8.1,7.7,10.5,13.2c2.4,5.6,3.7,11.9,3.7,18.8c0,7-1.2,13.3-3.7,18.9c-2.5,5.6-6,10-10.6,13.3
			C1277.4,539.2,1271.8,541,1265.3,541z M1264.3,532c4.9,0,9-1.2,12.2-3.7c3.2-2.5,5.7-5.8,7.3-10.1c1.6-4.3,2.4-9,2.4-14.4
			c0-5.3-0.8-10-2.4-14.3c-1.6-4.2-4-7.6-7.3-10.1c-3.3-2.5-7.4-3.7-12.4-3.7c-4.9,0-8.9,1.2-12.2,3.6c-3.2,2.4-5.6,5.7-7.2,9.9
			s-2.4,9.1-2.4,14.6c0,5.4,0.8,10.2,2.4,14.5s4,7.6,7.3,10C1255.3,530.8,1259.4,532,1264.3,532z"/>
		<path class="st1" d="M1310.6,539v-70.1h8.6v16.9l-1.7-2.2c0.8-2.1,1.8-4,3-5.7c1.3-1.8,2.6-3.2,4.1-4.3c1.8-1.6,3.9-2.8,6.4-3.7
			c2.4-0.8,4.9-1.3,7.3-1.5c2.5-0.2,4.7,0,6.7,0.6v9c-2.6-0.6-5.3-0.8-8.4-0.5c-3,0.3-5.8,1.6-8.4,3.6c-2.3,1.8-4.1,4-5.3,6.5
			c-1.2,2.5-1.9,5.2-2.3,8c-0.4,2.8-0.6,5.6-0.6,8.4v35H1310.6z"/>
		<path class="st1" d="M1358.7,455.6v-10.7h9.5v10.7H1358.7z M1358.7,539v-70.1h9.5V539H1358.7z"/>
		<path class="st1" d="M1413.9,540.8c-8.2,0-15-1.8-20.3-5.3c-5.3-3.5-8.6-8.5-9.8-14.8l9.7-1.6c1,4,3.4,7.1,7.1,9.5
			c3.7,2.4,8.3,3.5,13.7,3.5c5.3,0,9.5-1.1,12.6-3.3s4.6-5.3,4.6-9.1c0-2.2-0.5-3.9-1.5-5.3c-1-1.4-3-2.6-5.9-3.8
			c-3-1.2-7.4-2.6-13.4-4.2c-6.4-1.7-11.3-3.5-14.9-5.2s-6.1-3.7-7.7-6c-1.5-2.3-2.3-5-2.3-8.3c0-4,1.1-7.5,3.4-10.5
			c2.2-3,5.4-5.3,9.3-7c4-1.7,8.6-2.5,13.9-2.5s10,0.9,14.2,2.6c4.2,1.7,7.5,4.1,10.1,7.2s4.1,6.6,4.5,10.7l-9.7,1.8
			c-0.6-4.1-2.7-7.4-6.1-9.8s-7.8-3.6-13.1-3.7c-5-0.1-9,0.8-12.1,2.8s-4.7,4.7-4.7,8c0,1.9,0.6,3.4,1.7,4.8s3.2,2.6,6.1,3.7
			c3,1.2,7.2,2.4,12.7,3.8c6.4,1.6,11.5,3.4,15.2,5.2c3.7,1.8,6.3,4,7.8,6.4c1.6,2.5,2.3,5.5,2.3,9.1c0,6.6-2.5,11.8-7.4,15.6
			C1429.2,539,1422.5,540.8,1413.9,540.8z"/>
		<path class="st1" d="M1485.5,541c-6.8,0-12.7-1.5-17.7-4.5s-8.9-7.3-11.6-12.8c-2.8-5.5-4.2-11.9-4.2-19.3
			c0-7.7,1.4-14.3,4.1-19.8c2.7-5.6,6.6-9.9,11.5-12.9c5-3,10.8-4.5,17.5-4.5c6.9,0,12.8,1.6,17.7,4.8c4.9,3.2,8.6,7.7,11.1,13.7
			c2.5,5.9,3.7,13,3.4,21.2h-9.7v-3.6c-0.2-9.1-2.1-15.9-5.9-20.6c-3.7-4.6-9.2-6.9-16.4-6.9c-7.5,0-13.3,2.4-17.3,7.3
			s-6,11.9-6,20.9c0,8.8,2,15.7,6,20.5c4,4.9,9.7,7.3,17,7.3c5,0,9.4-1.2,13.1-3.5c3.7-2.3,6.7-5.7,8.9-10l8.9,3.4
			c-2.8,6.1-6.8,10.8-12.2,14.2C1498.3,539.2,1492.3,541,1485.5,541z M1458.7,506.5v-8h53.5v8H1458.7z"/>
	</g>
	<g>
		<g>
			<path d="M889,111.5L937.2-21h8.3l48.2,132.5h-8.3l-46.9-129h5.5l-46.7,129H889z M907.4,77.1v-7.4h67.7v7.4H907.4z"/>
			<path d="M1039.2,114.2c-7.7,0-14.1-1.4-19.2-4c-5.1-2.7-8.9-6.3-11.4-10.7c-2.5-4.4-3.8-9.2-3.8-14.4c0-5.8,1.3-10.7,3.8-14.5
				s5.9-6.9,10-9.1c4.1-2.2,8.5-3.8,13.3-4.8c5.8-1.2,11.9-2.2,18.5-3.1c6.6-0.9,12.7-1.6,18.3-2.3c5.6-0.6,9.8-1.1,12.5-1.5
				l-2.8,1.8c0.3-11.7-1.8-20.4-6.4-26.2c-4.6-5.7-12.6-8.6-24.2-8.6c-8.3,0-15,1.9-20.1,5.6c-5.1,3.7-8.6,9.4-10.6,17.1l-8.5-2.2
				c2.2-9.2,6.7-16.2,13.6-21c6.8-4.8,15.5-7.2,26-7.2c9.2,0,16.9,1.9,23,5.6c6.1,3.7,10.3,8.8,12.5,15.2c0.9,2.5,1.5,5.4,1.8,8.9
				c0.4,3.5,0.6,6.9,0.6,10.2v62.2h-7.2v-27l3.7,0.2c-2.6,9.4-7.9,16.8-15.7,22C1059,111.6,1049.8,114.2,1039.2,114.2z
				 M1038.8,106.5c7.2,0,13.5-1.3,19-3.9s9.9-6.3,13.3-11.2c3.4-4.9,5.6-10.7,6.5-17.5c0.5-3.4,0.7-7.1,0.7-11s0-6.7,0-8.5l4,3.1
				c-3.3,0.3-7.7,0.7-13.5,1.2c-5.7,0.5-11.8,1.2-18.2,2s-12.1,1.9-17.3,3.2c-3,0.7-6.1,1.9-9.3,3.5c-3.2,1.6-5.9,3.8-8.1,6.7
				c-2.2,2.9-3.3,6.6-3.3,11.1c0,3.2,0.8,6.4,2.4,9.7c1.6,3.3,4.3,6,8.1,8.2C1027.1,105.4,1032.3,106.5,1038.8,106.5z"/>
			<path d="M1110,111.5V-21h50.2c6.4,0,12.3,1.4,17.7,4.1s9.7,6.5,13,11.5c3.3,4.9,4.9,10.6,4.9,17c0,7-2,13.4-6.1,19.3
				c-4,5.9-9.4,10-16,12.4l-0.4-4.4c8.8,2.8,15.8,7.3,21.1,13.6c5.3,6.2,8,14,8,23.4c0,7.5-1.7,14-5.2,19.3
				c-3.4,5.3-8.1,9.4-13.9,12.2c-5.9,2.8-12.4,4.2-19.6,4.2L1110,111.5L1110,111.5z M1117.8,37.9h42.5c5,0,9.5-1.2,13.7-3.6
				c4.1-2.4,7.4-5.6,9.9-9.7c2.5-4,3.7-8.6,3.7-13.6c0-7.4-2.6-13.3-7.9-17.8c-5.2-4.5-11.7-6.7-19.4-6.7h-42.5L1117.8,37.9
				L1117.8,37.9z M1117.8,103.7h42.3c6.4,0,12.1-1.1,17.3-3.2c5.1-2.1,9.2-5.2,12.1-9.3c3-4,4.5-9,4.5-14.7c0-5.8-1.4-11-4.1-15.7
				c-2.7-4.7-6.4-8.4-11-11.2c-4.6-2.8-9.6-4.2-15.1-4.2h-46V103.7L1117.8,103.7z"/>
			<path d="M1220.7,111.5V-21h7.7v54.3h-0.6v78.2L1220.7,111.5L1220.7,111.5z M1263.2,114.2c-8.8,0-16.2-2.3-22.4-7
				c-6.1-4.7-10.8-11-14-18.9c-3.2-7.9-4.8-16.9-4.8-26.7c0-10.1,1.6-19,4.9-26.9c3.3-7.9,8.1-14.1,14.4-18.6
				c6.3-4.5,14.2-6.8,23.4-6.8c8.9,0,16.5,2.3,22.7,6.9c6.2,4.6,11,10.9,14.2,18.8c3.3,7.9,4.9,16.7,4.9,26.5c0,9.9-1.7,18.9-5,26.8
				c-3.3,7.9-8.2,14.2-14.6,18.9C1280.5,111.9,1272.6,114.2,1263.2,114.2z M1263.2,106.5c7.7,0,14.1-2,19.3-5.9s9.1-9.3,11.7-16.1
				c2.6-6.8,4-14.4,4-23c0-8.5-1.3-16.1-3.8-22.8s-6.4-12-11.5-15.9c-5.2-3.9-11.7-5.8-19.6-5.8c-7.7,0-14.2,1.9-19.5,5.7
				c-5.2,3.8-9.2,9.1-11.9,15.8s-4,14.4-4,23.1c0,8.5,1.3,16.2,4,23c2.6,6.8,6.6,12.1,11.8,16.1
				C1248.9,104.5,1255.4,106.5,1263.2,106.5z"/>
			<path d="M1378.8,114.2c-13.2,0-24.2-2.9-33-8.8c-8.8-5.9-15.4-14-19.8-24.4s-6.6-22.3-6.6-35.8s2.2-25.4,6.6-35.8
				s11-18.5,19.8-24.4c8.8-5.9,19.8-8.8,33-8.8c15.5,0,27.9,4,37.4,12.1c9.4,8.1,15.8,18.8,19.1,32.3l-8.1,1.8
				c-2.9-11.7-8.5-21.1-16.5-28c-8.1-7-18.7-10.4-31.9-10.4c-11.4,0-20.8,2.6-28.3,7.8s-13.2,12.4-17,21.7
				c-3.8,9.2-5.8,19.8-5.9,31.8c-0.1,12,1.7,22.5,5.5,31.7c3.8,9.2,9.5,16.4,17.2,21.7c7.6,5.2,17.1,7.9,28.5,7.9
				c13.2,0,23.8-3.5,31.9-10.5c8.1-7,13.6-16.3,16.5-28l8.1,1.8c-3.3,13.4-9.7,24.2-19.1,32.3
				C1406.7,110.2,1394.2,114.2,1378.8,114.2z"/>
			<path d="M1495.4,114.2c-9.9,0-18.2-2.2-24.8-6.6c-6.7-4.4-11.7-10.6-15.2-18.5c-3.4-7.9-5.2-17-5.4-27.4
				c0.2-10.6,2-19.8,5.5-27.7s8.5-13.9,15.2-18.3c6.7-4.3,14.9-6.5,24.8-6.5c9.2,0,17.4,2.2,24.6,6.6s12.3,10.4,15.3,18.1L1528,37
				c-2.8-6.4-7-11.3-12.7-14.8c-5.7-3.5-12.3-5.2-19.8-5.2c-8.3,0-15.2,1.9-20.7,5.7s-9.5,9-12.2,15.7c-2.7,6.7-4.1,14.5-4.2,23.3
				c0.2,13.5,3.4,24.3,9.6,32.5s15.4,12.2,27.6,12.2c7.3,0,13.8-1.7,19.4-5.1c5.6-3.4,10-8.3,13-14.8l7.5,3.3
				c-4.1,8-9.5,14-16.3,18.1C1512.3,112.2,1504.5,114.2,1495.4,114.2z"/>
		</g>
		<g>
			<path d="M889.2,180.4v-40.3h2.2l17.1,37.4l17-37.4h2.3v40.2h-2.3v-34.6l-15.7,34.6h-2.6l-15.6-34.6v34.6L889.2,180.4L889.2,180.4
				z"/>
			<path d="M944.5,181.2c-2.3,0-4.3-0.4-5.8-1.2s-2.7-1.9-3.5-3.2c-0.8-1.3-1.1-2.8-1.1-4.4c0-1.8,0.4-3.2,1.2-4.4s1.8-2.1,3-2.8
				s2.6-1.2,4-1.5c1.8-0.4,3.6-0.7,5.6-0.9c2-0.3,3.9-0.5,5.6-0.7c1.7-0.2,3-0.3,3.8-0.4l-0.8,0.6c0.1-3.6-0.6-6.2-1.9-8
				c-1.4-1.7-3.8-2.6-7.3-2.6c-2.5,0-4.6,0.6-6.1,1.7c-1.5,1.1-2.6,2.9-3.2,5.2l-2.6-0.7c0.7-2.8,2-4.9,4.1-6.4
				c2.1-1.5,4.7-2.2,7.9-2.2c2.8,0,5.1,0.6,7,1.7c1.9,1.1,3.1,2.7,3.8,4.6c0.3,0.7,0.4,1.7,0.6,2.7c0.1,1.1,0.2,2.1,0.2,3.1v18.9
				h-2.2v-8.3l1.1,0.1c-0.8,2.9-2.4,5.1-4.8,6.7C950.5,180.4,947.7,181.2,944.5,181.2z M944.4,178.9c2.2,0,4.1-0.4,5.8-1.2
				c1.7-0.8,3-1.9,4.1-3.4c1.1-1.5,1.7-3.3,2-5.3c0.1-1,0.2-2.2,0.2-3.4s0-2.1,0-2.6l1.2,1c-1,0.1-2.4,0.2-4.1,0.4s-3.6,0.4-5.5,0.6
				c-1.9,0.3-3.7,0.6-5.3,1c-0.9,0.2-1.9,0.6-2.8,1.1c-1,0.5-1.8,1.2-2.4,2c-0.6,0.8-1,2-1,3.4c0,1,0.2,1.9,0.7,2.9s1.3,1.8,2.4,2.5
				C940.8,178.5,942.4,178.9,944.4,178.9z"/>
			<path d="M966.1,180.4v-30.2h2.2v6.2h0.2v24.1h-2.4V180.4z M988.5,180.4v-16c0-2.2-0.2-4-0.7-5.6c-0.4-1.6-1.1-2.9-1.9-3.9
				c-0.9-1-1.9-1.8-3.1-2.3s-2.6-0.8-4.2-0.8c-1.8,0-3.4,0.3-4.7,1c-1.3,0.6-2.3,1.5-3.1,2.6s-1.4,2.4-1.8,3.9
				c-0.4,1.5-0.6,3-0.6,4.6l-2.2,0.1c0-3.4,0.6-6.2,1.7-8.3c1.1-2.1,2.6-3.7,4.5-4.6c1.9-0.9,3.9-1.5,6.1-1.5c1.5,0,2.9,0.2,4.2,0.6
				c1.3,0.4,2.4,1,3.4,1.9c1,0.8,1.8,1.8,2.5,3s1.2,2.5,1.6,4c0.4,1.5,0.5,3.1,0.5,4.9v16.4L988.5,180.4L988.5,180.4z"/>
			<path d="M998.1,180.4v-30.2h2.2v7.2l-0.7-1c0.3-0.8,0.7-1.6,1.2-2.3s1-1.3,1.4-1.7c0.8-0.8,1.8-1.4,2.9-1.8s2.3-0.7,3.4-0.7
				c1.1-0.1,2.1,0,3,0.3v2.2c-1.2-0.3-2.6-0.3-4-0.2c-1.4,0.2-2.7,0.8-3.9,1.9c-1.1,1-1.8,2.1-2.3,3.4c-0.4,1.3-0.7,2.6-0.8,4
				c-0.1,1.4-0.1,2.7-0.1,3.9v14.9h-2.3V180.4z"/>
			<path d="M1028.4,181.2c-3,0-5.5-0.7-7.6-2c-2.1-1.4-3.6-3.2-4.7-5.7c-1.1-2.4-1.6-5.2-1.6-8.3c0-3.2,0.5-5.9,1.6-8.3
				c1.1-2.4,2.7-4.2,4.7-5.6s4.6-2,7.5-2c3,0,5.5,0.7,7.6,2c2.1,1.4,3.6,3.2,4.7,5.6c1.1,2.4,1.6,5.1,1.6,8.3s-0.5,6-1.6,8.4
				s-2.6,4.3-4.7,5.6C1033.9,180.5,1031.4,181.2,1028.4,181.2z M1028.4,178.9c3.8,0,6.6-1.3,8.5-3.8c1.9-2.5,2.8-5.8,2.8-9.9
				c0-4.1-0.9-7.4-2.8-9.9c-1.9-2.5-4.7-3.7-8.5-3.7c-2.6,0-4.7,0.6-6.3,1.7c-1.6,1.1-2.9,2.8-3.7,4.8s-1.2,4.4-1.2,7
				c0,4.1,1,7.4,2.9,9.9C1021.9,177.6,1024.7,178.9,1028.4,178.9z"/>
			<path d="M1048.4,193.8v-43.6h2.2V174h0.2v19.9L1048.4,193.8L1048.4,193.8z M1061.3,181.2c-2.7,0-4.9-0.7-6.8-2.1
				c-1.9-1.4-3.3-3.3-4.3-5.7s-1.5-5.1-1.5-8.1c0-3.1,0.5-5.8,1.5-8.2s2.4-4.3,4.4-5.7c1.9-1.4,4.3-2.1,7.1-2.1c2.7,0,5,0.7,6.9,2.1
				s3.3,3.3,4.3,5.7s1.5,5.1,1.5,8.1s-0.5,5.7-1.5,8.2c-1,2.4-2.5,4.3-4.4,5.7C1066.6,180.5,1064.2,181.2,1061.3,181.2z
				 M1061.3,178.9c2.3,0,4.3-0.6,5.9-1.8s2.8-2.8,3.6-4.9c0.8-2.1,1.2-4.4,1.2-7s-0.4-4.9-1.2-6.9c-0.8-2-1.9-3.7-3.5-4.8
				c-1.6-1.2-3.6-1.8-6-1.8c-2.3,0-4.3,0.6-5.9,1.7s-2.8,2.8-3.6,4.8c-0.8,2-1.2,4.4-1.2,7s0.4,4.9,1.2,7c0.8,2.1,2,3.7,3.6,4.9
				C1057,178.3,1059,178.9,1061.3,178.9z"/>
			<path d="M1092.8,181.2c-2.9,0-5.3-0.6-7.4-1.9c-2.1-1.3-3.7-3.1-4.8-5.5s-1.7-5.2-1.7-8.5s0.6-6.1,1.7-8.5s2.7-4.2,4.8-5.5
				c2.1-1.3,4.5-1.9,7.4-1.9c2.9,0,5.4,0.7,7.4,2c2.1,1.3,3.6,3.2,4.7,5.7c1.1,2.5,1.6,5.5,1.6,9h-2.5v-0.9c-0.1-4.3-1.1-7.7-3.1-10
				c-1.9-2.3-4.7-3.5-8.2-3.5c-3.6,0-6.4,1.2-8.3,3.6c-1.9,2.4-3,5.7-3,10s1,7.7,3,10s4.8,3.6,8.3,3.6c2.5,0,4.7-0.6,6.6-1.8
				c1.9-1.2,3.4-2.9,4.5-5.1l2,1.1c-1.2,2.6-3,4.6-5.2,6C1098.3,180.5,1095.7,181.2,1092.8,181.2z M1080.5,165.9v-2.3h24.6v2.3
				H1080.5z"/>
			<path d="M1123.9,180.4v-40.3h22.4v2.3h-20V159h16.7v2.3h-16.7v19L1123.9,180.4L1123.9,180.4z"/>
			<path d="M1162.6,181.2c-3,0-5.5-0.7-7.6-2c-2.1-1.4-3.6-3.2-4.7-5.7c-1.1-2.4-1.6-5.2-1.6-8.3c0-3.2,0.5-5.9,1.6-8.3
				c1.1-2.4,2.7-4.2,4.7-5.6s4.6-2,7.5-2c3,0,5.5,0.7,7.6,2c2.1,1.4,3.6,3.2,4.7,5.6c1.1,2.4,1.6,5.1,1.6,8.3s-0.5,6-1.6,8.4
				c-1.1,2.4-2.6,4.3-4.7,5.6C1168.1,180.5,1165.6,181.2,1162.6,181.2z M1162.6,178.9c3.8,0,6.6-1.3,8.5-3.8s2.8-5.8,2.8-9.9
				c0-4.1-0.9-7.4-2.8-9.9s-4.7-3.7-8.5-3.7c-2.6,0-4.7,0.6-6.3,1.7s-2.9,2.8-3.7,4.8c-0.8,2-1.2,4.4-1.2,7c0,4.1,1,7.4,2.9,9.9
				C1156.1,177.6,1158.9,178.9,1162.6,178.9z"/>
			<path d="M1182.6,180.4v-30.2h2.2v6.2h0.2v24.1h-2.4V180.4z M1205,180.4v-16c0-2.2-0.2-4-0.7-5.6c-0.4-1.6-1.1-2.9-1.9-3.9
				c-0.9-1-1.9-1.8-3.1-2.3c-1.2-0.5-2.6-0.8-4.2-0.8c-1.8,0-3.4,0.3-4.7,1c-1.3,0.6-2.3,1.5-3.1,2.6c-0.8,1.1-1.4,2.4-1.8,3.9
				c-0.4,1.5-0.6,3-0.6,4.6l-2.2,0.1c0-3.4,0.6-6.2,1.7-8.3c1.1-2.1,2.6-3.7,4.5-4.6c1.9-0.9,3.9-1.5,6.1-1.5c1.5,0,2.9,0.2,4.2,0.6
				c1.3,0.4,2.4,1,3.4,1.9c1,0.8,1.8,1.8,2.5,3c0.7,1.2,1.2,2.5,1.6,4s0.5,3.1,0.5,4.9v16.4L1205,180.4L1205,180.4z"/>
			<path d="M1211.3,152.5v-2.3h19v2.3H1211.3z M1230.2,180.4c-1.5,0.3-3,0.5-4.5,0.4s-2.8-0.4-3.9-1.1c-1.2-0.6-2-1.6-2.6-2.8
				c-0.4-1-0.7-2-0.8-3s-0.1-2.2-0.1-3.5v-28.6h2.3v28.6c0,1.3,0,2.4,0,3.2s0.2,1.6,0.6,2.3c0.7,1.3,1.7,2.2,3.2,2.5
				s3.4,0.3,5.7-0.1L1230.2,180.4L1230.2,180.4z"/>
		</g>
	</g>
	<path class="st1" d="M1216.1,347.8l13.9-24c1.7-3-0.4-6.8-3.9-6.8h-7.7v-51c0-3.4-2.8-6.2-6.2-6.2s-6.2,2.8-6.2,6.2v51h-7.7
		c-3.5,0-5.6,3.8-3.9,6.8l13.9,24C1210,350.8,1214.4,350.8,1216.1,347.8z"/>
</g>
</svg>
