<?xml version="1.0" encoding="utf-8"?>
<!-- Generator: Adobe Illustrator 26.3.1, SVG Export Plug-In . SVG Version: 6.00 Build 0)  -->
<svg version="1.1" id="Layer_1" xmlns="http://www.w3.org/2000/svg" xmlns:xlink="http://www.w3.org/1999/xlink" x="0px" y="0px"
	 viewBox="0 0 1013.9 899.3" style="enable-background:new 0 0 1013.9 899.3;" xml:space="preserve">
<style type="text/css">
	.st0{fill:#B1B1B1;}
	.st1{fill:none;stroke:#FF3500;stroke-width:3;stroke-miterlimit:10;}
</style>
<g>
	<g>
		<path class="st0" d="M733.2,412.2L351.1,675.7c-6,4.2-9.2,11.4-8.2,18.6L356.9,797h-34.2c-24.3,0-44.5-18-47.7-41.5l0,0l-9.5-69.5
			c-2.7-20.1,4.4-40.2,19.2-54.1l439.9-412.8L754,365c0.3,2.3,0.5,4.7,0.5,7.1C754.6,388.8,746.1,403.6,733.2,412.2z"/>
		<path class="st0" d="M574.2,641.4L616.3,797h140.4l-120.2-232l-39.8,23c-14.3,8.4-24,23.9-24,41.7
			C572.8,633.7,573.3,637.7,574.2,641.4z"/>
	</g>
	<line class="st1" x1="1" y1="898.2" x2="957.1" y2="1.1"/>
	<line class="st1" x1="86" y1="858.5" x2="1013" y2="219.2"/>
	<line class="st1" x1="786" y1="523.5" x2="692.8" y2="61.7"/>
	<line class="st1" x1="805" y1="890.2" x2="616.8" y2="527"/>
	<line class="st1" x1="638.4" y1="878.9" x2="554.8" y2="569.5"/>
	<line class="st1" x1="31" y1="797" x2="988.6" y2="797"/>
	<line class="st1" x1="400.2" y1="701.6" x2="820.1" y2="459"/>
	<line class="st1" x1="369.4" y1="887.7" x2="324" y2="556.5"/>
	<line class="st1" x1="292" y1="879.1" x2="249.8" y2="571.2"/>
	<circle class="st1" cx="620.7" cy="629.3" r="47.7"/>
	<circle class="st1" cx="327.2" cy="677.5" r="62.2"/>
	<circle class="st1" cx="323" cy="748.5" r="48.5"/>
	<circle class="st1" cx="362.8" cy="692.1" r="20.2"/>
	<circle class="st1" cx="709.4" cy="373.6" r="45.2"/>
</g>
<g>
</g>
<g>
</g>
<g>
</g>
<g>
</g>
<g>
</g>
<g>
</g>
<g>
</g>
<g>
</g>
<g>
</g>
<g>
</g>
<g>
</g>
<g>
</g>
<g>
</g>
<g>
</g>
<g>
</g>
</svg>
