<?xml version="1.0" encoding="utf-8"?>
<!-- Generator: Adobe Illustrator 24.0.2, SVG Export Plug-In . SVG Version: 6.00 Build 0)  -->
<svg version="1.1" id="Layer_1" xmlns="http://www.w3.org/2000/svg" xmlns:xlink="http://www.w3.org/1999/xlink" x="0px" y="0px"
	 viewBox="0 0 289.33 339.9" style="enable-background:new 0 0 289.33 339.9;" xml:space="preserve">
<style type="text/css">
	.st0{fill:#FF3500;}
</style>
<g>
	<path class="st0" d="M275.53,113.5l-224.8,155c-3.5,2.4-5.4,6.7-4.8,11l8.3,60.4h-20.2c-14.3,0-26.2-10.6-28.1-24.4l0,0l-5.6-40.9
		c-1.6-11.8,2.6-23.7,11.3-31.8L270.43,0l17.3,85.8c0.2,1.4,0.3,2.7,0.3,4.1C288.03,99.7,283.13,108.4,275.53,113.5z"/>
	<path class="st0" d="M181.93,248.3l24.8,91.6h82.6l-70.7-136.5l-23.4,13.6c-8.4,4.9-14.1,14.1-14.1,24.5
		C181.13,243.9,181.43,246.2,181.93,248.3z"/>
</g>
</svg>
