<?xml version="1.0" encoding="utf-8"?>
<!-- Generator: Adobe Illustrator 26.3.1, SVG Export Plug-In . SVG Version: 6.00 Build 0)  -->
<svg version="1.1" id="Layer_1" xmlns="http://www.w3.org/2000/svg" xmlns:xlink="http://www.w3.org/1999/xlink" x="0px" y="0px"
	 viewBox="0 0 646.4 593.8" style="enable-background:new 0 0 646.4 593.8;" xml:space="preserve">
<style type="text/css">
	.st0{fill:#10324F;}
	.st1{fill:#FF3500;}
</style>
<g>
	<g>
		<path class="st1" d="M51.6,564.7c-6.8,0-12.7-1.5-17.7-4.5s-8.9-7.3-11.6-12.8c-2.8-5.5-4.2-11.9-4.2-19.3
			c0-7.7,1.4-14.3,4.1-19.8c2.7-5.6,6.6-9.9,11.5-12.9c5-3,10.8-4.5,17.5-4.5c6.9,0,12.8,1.6,17.7,4.8c4.9,3.2,8.6,7.7,11.1,13.7
			c2.5,5.9,3.7,13,3.4,21.2h-9.7V527c-0.2-9.1-2.1-15.9-5.9-20.6c-3.7-4.6-9.2-6.9-16.4-6.9c-7.5,0-13.3,2.4-17.3,7.3
			s-6,11.9-6,20.9c0,8.8,2,15.7,6,20.5c4,4.9,9.7,7.3,17,7.3c5,0,9.4-1.2,13.1-3.5c3.7-2.3,6.7-5.7,8.9-10l8.9,3.4
			c-2.8,6.1-6.8,10.8-12.2,14.2C64.5,563,58.4,564.7,51.6,564.7z M24.8,530.3v-8h53.5v8H24.8z"/>
		<path class="st1" d="M95.7,562.7v-70.1h8.6v17.3h1v52.8H95.7z M146.4,562.7V527c0-3.9-0.4-7.5-1.1-10.7c-0.7-3.3-1.9-6.1-3.5-8.6
			c-1.6-2.4-3.7-4.3-6.3-5.7c-2.6-1.3-5.7-2-9.4-2c-3.4,0-6.3,0.6-8.9,1.8c-2.6,1.2-4.7,2.8-6.5,5s-3.1,4.8-4,7.9
			c-0.9,3.1-1.4,6.7-1.4,10.6l-6.7-1.5c0-7.2,1.3-13.2,3.8-18.1s6-8.6,10.4-11.1s9.5-3.8,15.2-3.8c4.2,0,7.9,0.6,11,1.9s5.8,3,8,5.3
			c2.2,2.2,3.9,4.7,5.3,7.6c1.3,2.8,2.3,5.8,2.9,9c0.6,3.2,0.9,6.3,0.9,9.5v38.5h-9.7V562.7z"/>
		<path class="st1" d="M165.1,500.8v-8.2H211v8.2H165.1z M211,562.7c-3.9,0.8-7.8,1.1-11.6,1c-3.8-0.2-7.2-1-10.2-2.5
			s-5.3-3.8-6.8-6.9c-1.3-2.6-1.9-5.2-2-7.9s-0.2-5.7-0.2-9.1v-64.2h9.5V537c0,2.9,0,5.4,0.1,7.4s0.5,3.7,1.3,5.2
			c1.6,2.9,4,4.6,7.4,5.2c3.4,0.6,7.6,0.4,12.6-0.4v8.3H211z"/>
		<path class="st1" d="M251.9,564.7c-6.8,0-12.7-1.5-17.7-4.5s-8.9-7.3-11.6-12.8c-2.8-5.5-4.2-11.9-4.2-19.3
			c0-7.7,1.4-14.3,4.1-19.8c2.7-5.6,6.6-9.9,11.5-12.9c5-3,10.8-4.5,17.5-4.5c6.9,0,12.8,1.6,17.7,4.8c4.9,3.2,8.6,7.7,11.1,13.7
			c2.5,5.9,3.7,13,3.4,21.2H274V527c-0.2-9.1-2.1-15.9-5.9-20.6c-3.7-4.6-9.2-6.9-16.4-6.9c-7.5,0-13.3,2.4-17.3,7.3s-6,11.9-6,20.9
			c0,8.8,2,15.7,6,20.5c4,4.9,9.7,7.3,17,7.3c5,0,9.4-1.2,13.1-3.5c3.7-2.3,6.7-5.7,8.9-10l8.9,3.4c-2.8,6.1-6.8,10.8-12.2,14.2
			C264.8,563,258.7,564.7,251.9,564.7z M225.1,530.3v-8h53.5v8H225.1z"/>
		<path class="st1" d="M298.1,562.7v-70.1h8.6v16.9l-1.7-2.2c0.8-2.1,1.8-4,3-5.7c1.3-1.8,2.6-3.2,4.1-4.3c1.8-1.6,3.9-2.8,6.4-3.7
			c2.4-0.8,4.9-1.3,7.3-1.5c2.5-0.2,4.7,0,6.7,0.6v9c-2.6-0.6-5.3-0.8-8.4-0.5c-3,0.3-5.8,1.6-8.4,3.6c-2.3,1.8-4.1,4-5.3,6.5
			c-1.2,2.5-1.9,5.2-2.3,8s-0.6,5.6-0.6,8.4v35H298.1z"/>
		<path class="st1" d="M344.8,593.8V492.7h8.6v52.7h1v48.5h-9.6V593.8z M376.3,564.7c-6.4,0-11.9-1.6-16.3-4.9s-7.8-7.7-10.1-13.3
			c-2.3-5.6-3.4-11.9-3.4-18.8c0-7.1,1.2-13.4,3.5-19c2.3-5.6,5.7-9.9,10.2-13.1s10-4.8,16.6-4.8c6.4,0,11.9,1.6,16.5,4.9
			c4.6,3.2,8.1,7.7,10.5,13.2c2.4,5.6,3.7,11.9,3.7,18.8c0,7-1.2,13.3-3.7,18.9c-2.5,5.6-6,10-10.6,13.3
			C388.4,563,382.8,564.7,376.3,564.7z M375.3,555.8c4.9,0,9-1.2,12.2-3.7s5.7-5.8,7.3-10.1c1.6-4.3,2.4-9,2.4-14.4
			c0-5.3-0.8-10-2.4-14.3c-1.6-4.2-4-7.6-7.3-10.1s-7.4-3.7-12.4-3.7c-4.9,0-8.9,1.2-12.2,3.6c-3.2,2.4-5.6,5.7-7.2,9.9
			s-2.4,9.1-2.4,14.6c0,5.4,0.8,10.2,2.4,14.5s4,7.6,7.3,10C366.3,554.6,370.4,555.8,375.3,555.8z"/>
		<path class="st1" d="M421.6,562.7v-70.1h8.6v16.9l-1.7-2.2c0.8-2.1,1.8-4,3-5.7c1.3-1.8,2.6-3.2,4.1-4.3c1.8-1.6,3.9-2.8,6.4-3.7
			c2.4-0.8,4.9-1.3,7.3-1.5c2.5-0.2,4.7,0,6.7,0.6v9c-2.6-0.6-5.3-0.8-8.4-0.5c-3,0.3-5.8,1.6-8.4,3.6c-2.3,1.8-4.1,4-5.3,6.5
			c-1.2,2.5-1.9,5.2-2.3,8s-0.6,5.6-0.6,8.4v35H421.6z"/>
		<path class="st1" d="M469.7,479.4v-10.7h9.5v10.7H469.7z M469.7,562.7v-70.1h9.5v70.1H469.7z"/>
		<path class="st1" d="M524.9,564.6c-8.2,0-15-1.8-20.3-5.3s-8.6-8.5-9.8-14.8l9.7-1.6c1,4,3.4,7.1,7.1,9.5
			c3.7,2.4,8.3,3.5,13.7,3.5c5.3,0,9.5-1.1,12.6-3.3s4.6-5.3,4.6-9.1c0-2.2-0.5-3.9-1.5-5.3c-1-1.4-3-2.6-5.9-3.8
			c-3-1.2-7.4-2.6-13.4-4.2c-6.4-1.7-11.3-3.5-14.9-5.2s-6.1-3.7-7.7-6c-1.5-2.3-2.3-5-2.3-8.3c0-4,1.1-7.5,3.4-10.5
			c2.2-3,5.4-5.3,9.3-7c4-1.7,8.6-2.5,13.9-2.5c5.3,0,10,0.9,14.2,2.6s7.5,4.1,10.1,7.2s4.1,6.6,4.5,10.7l-9.7,1.8
			c-0.6-4.1-2.7-7.4-6.1-9.8c-3.4-2.4-7.8-3.6-13.1-3.7c-5-0.1-9,0.8-12.1,2.8s-4.7,4.7-4.7,8c0,1.9,0.6,3.4,1.7,4.8
			s3.2,2.6,6.1,3.7c3,1.2,7.2,2.4,12.7,3.8c6.4,1.6,11.5,3.4,15.2,5.2s6.3,4,7.8,6.4c1.6,2.5,2.3,5.5,2.3,9.1
			c0,6.6-2.5,11.8-7.4,15.6C540.2,562.7,533.5,564.6,524.9,564.6z"/>
		<path class="st1" d="M596.5,564.7c-6.8,0-12.7-1.5-17.7-4.5s-8.9-7.3-11.6-12.8c-2.8-5.5-4.2-11.9-4.2-19.3
			c0-7.7,1.4-14.3,4.1-19.8c2.7-5.6,6.6-9.9,11.5-12.9c5-3,10.8-4.5,17.5-4.5c6.9,0,12.8,1.6,17.7,4.8c4.9,3.2,8.6,7.7,11.1,13.7
			c2.5,5.9,3.7,13,3.4,21.2h-9.7V527c-0.2-9.1-2.1-15.9-5.9-20.6c-3.7-4.6-9.2-6.9-16.4-6.9c-7.5,0-13.3,2.4-17.3,7.3
			s-6,11.9-6,20.9c0,8.8,2,15.7,6,20.5c4,4.9,9.7,7.3,17,7.3c5,0,9.4-1.2,13.1-3.5c3.7-2.3,6.7-5.7,8.9-10l8.9,3.4
			c-2.8,6.1-6.8,10.8-12.2,14.2C609.3,563,603.3,564.7,596.5,564.7z M569.7,530.3v-8h53.5v8H569.7z"/>
	</g>
	<g>
		<g>
			<path d="M0,135.3L48.2,2.8h8.3l48.2,132.5h-8.3L49.5,6.3H55l-46.7,129H0z M18.4,100.9v-7.4h67.7v7.4H18.4z"/>
			<path d="M150.2,138c-7.7,0-14.1-1.4-19.2-4c-5.1-2.7-8.9-6.3-11.4-10.7c-2.5-4.4-3.8-9.2-3.8-14.4c0-5.8,1.3-10.7,3.8-14.5
				s5.9-6.9,10-9.1s8.5-3.8,13.3-4.8c5.8-1.2,11.9-2.2,18.5-3.1s12.7-1.6,18.3-2.3c5.6-0.6,9.8-1.1,12.5-1.5l-2.8,1.8
				c0.3-11.7-1.8-20.4-6.4-26.2c-4.6-5.7-12.6-8.6-24.2-8.6c-8.3,0-15,1.9-20.1,5.6c-5.1,3.7-8.6,9.4-10.6,17.1l-8.5-2.2
				c2.2-9.2,6.7-16.2,13.6-21c6.8-4.8,15.5-7.2,26-7.2c9.2,0,16.9,1.9,23,5.6c6.1,3.7,10.3,8.8,12.5,15.2c0.9,2.5,1.5,5.4,1.8,8.9
				c0.4,3.5,0.6,6.9,0.6,10.2V135h-7.2v-27l3.7,0.2c-2.6,9.4-7.9,16.8-15.7,22C170,135.4,160.8,138,150.2,138z M149.8,130.3
				c7.2,0,13.5-1.3,19-3.9s9.9-6.3,13.3-11.2c3.4-4.9,5.6-10.7,6.5-17.5c0.5-3.4,0.7-7.1,0.7-11s0-6.7,0-8.5l4,3.1
				c-3.3,0.3-7.7,0.7-13.5,1.2c-5.7,0.5-11.8,1.2-18.2,2s-12.1,1.9-17.3,3.2c-3,0.7-6.1,1.9-9.3,3.5s-5.9,3.8-8.1,6.7
				c-2.2,2.9-3.3,6.6-3.3,11.1c0,3.2,0.8,6.4,2.4,9.7c1.6,3.3,4.3,6,8.1,8.2C138.1,129.2,143.3,130.3,149.8,130.3z"/>
			<path d="M221,135.3V2.8h50.2c6.4,0,12.3,1.4,17.7,4.1c5.4,2.7,9.7,6.5,13,11.5c3.3,4.9,4.9,10.6,4.9,17c0,7-2,13.4-6.1,19.3
				c-4,5.9-9.4,10-16,12.4l-0.4-4.4c8.8,2.8,15.8,7.3,21.1,13.6c5.3,6.2,8,14,8,23.4c0,7.5-1.7,14-5.2,19.3
				c-3.4,5.3-8.1,9.4-13.9,12.2c-5.9,2.8-12.4,4.2-19.6,4.2L221,135.3L221,135.3z M228.8,61.7h42.5c5,0,9.5-1.2,13.7-3.6
				c4.1-2.4,7.4-5.6,9.9-9.7c2.5-4,3.7-8.6,3.7-13.6c0-7.4-2.6-13.3-7.9-17.8c-5.2-4.5-11.7-6.7-19.4-6.7h-42.5L228.8,61.7
				L228.8,61.7z M228.8,127.5h42.3c6.4,0,12.1-1.1,17.3-3.2c5.1-2.1,9.2-5.2,12.1-9.3c3-4,4.5-9,4.5-14.7c0-5.8-1.4-11-4.1-15.7
				s-6.4-8.4-11-11.2c-4.6-2.8-9.6-4.2-15.1-4.2h-46L228.8,127.5L228.8,127.5z"/>
			<path d="M331.7,135.3V2.8h7.7v54.3h-0.6v78.2L331.7,135.3L331.7,135.3z M374.2,138c-8.8,0-16.2-2.3-22.4-7
				c-6.1-4.7-10.8-11-14-18.9S333,95.2,333,85.4c0-10.1,1.6-19,4.9-26.9s8.1-14.1,14.4-18.6s14.2-6.8,23.4-6.8
				c8.9,0,16.5,2.3,22.7,6.9s11,10.9,14.2,18.8c3.3,7.9,4.9,16.7,4.9,26.5c0,9.9-1.7,18.9-5,26.8s-8.2,14.2-14.6,18.9
				C391.5,135.7,383.6,138,374.2,138z M374.2,130.3c7.7,0,14.1-2,19.3-5.9c5.2-3.9,9.1-9.3,11.7-16.1c2.6-6.8,4-14.4,4-23
				c0-8.5-1.3-16.1-3.8-22.8s-6.4-12-11.5-15.9c-5.2-3.9-11.7-5.8-19.6-5.8c-7.7,0-14.2,1.9-19.5,5.7c-5.2,3.8-9.2,9.1-11.9,15.8
				s-4,14.4-4,23.1c0,8.5,1.3,16.2,4,23c2.6,6.8,6.6,12.1,11.8,16.1C359.9,128.3,366.4,130.3,374.2,130.3z"/>
			<path d="M489.8,138c-13.2,0-24.2-2.9-33-8.8c-8.8-5.9-15.4-14-19.8-24.4s-6.6-22.3-6.6-35.8s2.2-25.4,6.6-35.8s11-18.5,19.8-24.4
				s19.8-8.8,33-8.8c15.5,0,27.9,4,37.4,12.1c9.4,8.1,15.8,18.8,19.1,32.3l-8.1,1.8c-2.9-11.7-8.5-21.1-16.5-28
				c-8.1-7-18.7-10.4-31.9-10.4c-11.4,0-20.8,2.6-28.3,7.8s-13.2,12.4-17,21.7c-3.8,9.2-5.8,19.8-5.9,31.8s1.7,22.5,5.5,31.7
				s9.5,16.4,17.2,21.7c7.6,5.2,17.1,7.9,28.5,7.9c13.2,0,23.8-3.5,31.9-10.5c8.1-7,13.6-16.3,16.5-28l8.1,1.8
				c-3.3,13.4-9.7,24.2-19.1,32.3C517.7,134,505.2,138,489.8,138z"/>
			<path d="M606.4,138c-9.9,0-18.2-2.2-24.8-6.6c-6.7-4.4-11.7-10.6-15.2-18.5c-3.4-7.9-5.2-17-5.4-27.4c0.2-10.6,2-19.8,5.5-27.7
				s8.5-13.9,15.2-18.3c6.7-4.3,14.9-6.5,24.8-6.5c9.2,0,17.4,2.2,24.6,6.6c7.2,4.4,12.3,10.4,15.3,18.1l-7.4,3.1
				c-2.8-6.4-7-11.3-12.7-14.8s-12.3-5.2-19.8-5.2c-8.3,0-15.2,1.9-20.7,5.7s-9.5,9-12.2,15.7s-4.1,14.5-4.2,23.3
				c0.2,13.5,3.4,24.3,9.6,32.5c6.2,8.2,15.4,12.2,27.6,12.2c7.3,0,13.8-1.7,19.4-5.1c5.6-3.4,10-8.3,13-14.8l7.5,3.3
				c-4.1,8-9.5,14-16.3,18.1C623.3,136,615.5,138,606.4,138z"/>
		</g>
		<g>
			<path d="M0.2,204.2v-40.3h2.2l17.1,37.4l17-37.4h2.3v40.2h-2.3v-34.6l-15.7,34.6h-2.6L2.6,169.5v34.6L0.2,204.2L0.2,204.2z"/>
			<path d="M55.5,205c-2.3,0-4.3-0.4-5.8-1.2s-2.7-1.9-3.5-3.2s-1.1-2.8-1.1-4.4c0-1.8,0.4-3.2,1.2-4.4s1.8-2.1,3-2.8s2.6-1.2,4-1.5
				c1.8-0.4,3.6-0.7,5.6-0.9c2-0.3,3.9-0.5,5.6-0.7s3-0.3,3.8-0.4l-0.8,0.6c0.1-3.6-0.6-6.2-1.9-8c-1.4-1.7-3.8-2.6-7.3-2.6
				c-2.5,0-4.6,0.6-6.1,1.7c-1.5,1.1-2.6,2.9-3.2,5.2l-2.6-0.7c0.7-2.8,2-4.9,4.1-6.4s4.7-2.2,7.9-2.2c2.8,0,5.1,0.6,7,1.7
				c1.9,1.1,3.1,2.7,3.8,4.6c0.3,0.7,0.4,1.7,0.6,2.7c0.1,1.1,0.2,2.1,0.2,3.1v18.9h-2.2v-8.3l1.1,0.1c-0.8,2.9-2.4,5.1-4.8,6.7
				C61.5,204.2,58.7,205,55.5,205z M55.4,202.7c2.2,0,4.1-0.4,5.8-1.2s3-1.9,4.1-3.4s1.7-3.3,2-5.3c0.1-1,0.2-2.2,0.2-3.4
				s0-2.1,0-2.6l1.2,1c-1,0.1-2.4,0.2-4.1,0.4c-1.7,0.2-3.6,0.4-5.5,0.6c-1.9,0.3-3.7,0.6-5.3,1c-0.9,0.2-1.9,0.6-2.8,1.1
				c-1,0.5-1.8,1.2-2.4,2s-1,2-1,3.4c0,1,0.2,1.9,0.7,2.9s1.3,1.8,2.4,2.5C51.8,202.3,53.4,202.7,55.4,202.7z"/>
			<path d="M77.1,204.2V174h2.2v6.2h0.2v24.1h-2.4V204.2z M99.5,204.2v-16c0-2.2-0.2-4-0.7-5.6c-0.4-1.6-1.1-2.9-1.9-3.9
				c-0.9-1-1.9-1.8-3.1-2.3s-2.6-0.8-4.2-0.8c-1.8,0-3.4,0.3-4.7,1c-1.3,0.6-2.3,1.5-3.1,2.6c-0.8,1.1-1.4,2.4-1.8,3.9
				s-0.6,3-0.6,4.6l-2.2,0.1c0-3.4,0.6-6.2,1.7-8.3s2.6-3.7,4.5-4.6s3.9-1.5,6.1-1.5c1.5,0,2.9,0.2,4.2,0.6c1.3,0.4,2.4,1,3.4,1.9
				c1,0.8,1.8,1.8,2.5,3s1.2,2.5,1.6,4s0.5,3.1,0.5,4.9v16.4L99.5,204.2L99.5,204.2z"/>
			<path d="M109.1,204.2V174h2.2v7.2l-0.7-1c0.3-0.8,0.7-1.6,1.2-2.3s1-1.3,1.4-1.7c0.8-0.8,1.8-1.4,2.9-1.8s2.3-0.7,3.4-0.7
				c1.1-0.1,2.1,0,3,0.3v2.2c-1.2-0.3-2.6-0.3-4-0.2c-1.4,0.2-2.7,0.8-3.9,1.9c-1.1,1-1.8,2.1-2.3,3.4c-0.4,1.3-0.7,2.6-0.8,4
				c-0.1,1.4-0.1,2.7-0.1,3.9v14.9h-2.3V204.2z"/>
			<path d="M139.4,205c-3,0-5.5-0.7-7.6-2c-2.1-1.4-3.6-3.2-4.7-5.7c-1.1-2.4-1.6-5.2-1.6-8.3c0-3.2,0.5-5.9,1.6-8.3
				c1.1-2.4,2.7-4.2,4.7-5.6s4.6-2,7.5-2c3,0,5.5,0.7,7.6,2c2.1,1.4,3.6,3.2,4.7,5.6c1.1,2.4,1.6,5.1,1.6,8.3s-0.5,6-1.6,8.4
				s-2.6,4.3-4.7,5.6C144.9,204.3,142.4,205,139.4,205z M139.4,202.7c3.8,0,6.6-1.3,8.5-3.8s2.8-5.8,2.8-9.9c0-4.1-0.9-7.4-2.8-9.9
				c-1.9-2.5-4.7-3.7-8.5-3.7c-2.6,0-4.7,0.6-6.3,1.7s-2.9,2.8-3.7,4.8s-1.2,4.4-1.2,7c0,4.1,1,7.4,2.9,9.9
				C132.9,201.4,135.7,202.7,139.4,202.7z"/>
			<path d="M159.4,217.6V174h2.2v23.8h0.2v19.9L159.4,217.6L159.4,217.6z M172.3,205c-2.7,0-4.9-0.7-6.8-2.1
				c-1.9-1.4-3.3-3.3-4.3-5.7s-1.5-5.1-1.5-8.1c0-3.1,0.5-5.8,1.5-8.2s2.4-4.3,4.4-5.7c1.9-1.4,4.3-2.1,7.1-2.1c2.7,0,5,0.7,6.9,2.1
				s3.3,3.3,4.3,5.7s1.5,5.1,1.5,8.1s-0.5,5.7-1.5,8.2c-1,2.4-2.5,4.3-4.4,5.7C177.6,204.3,175.2,205,172.3,205z M172.3,202.7
				c2.3,0,4.3-0.6,5.9-1.8s2.8-2.8,3.6-4.9c0.8-2.1,1.2-4.4,1.2-7s-0.4-4.9-1.2-6.9s-1.9-3.7-3.5-4.8c-1.6-1.2-3.6-1.8-6-1.8
				c-2.3,0-4.3,0.6-5.9,1.7s-2.8,2.8-3.6,4.8s-1.2,4.4-1.2,7s0.4,4.9,1.2,7s2,3.7,3.6,4.9C168,202.1,170,202.7,172.3,202.7z"/>
			<path d="M203.8,205c-2.9,0-5.3-0.6-7.4-1.9c-2.1-1.3-3.7-3.1-4.8-5.5s-1.7-5.2-1.7-8.5s0.6-6.1,1.7-8.5c1.1-2.4,2.7-4.2,4.8-5.5
				s4.5-1.9,7.4-1.9s5.4,0.7,7.4,2c2.1,1.3,3.6,3.2,4.7,5.7s1.6,5.5,1.6,9H215V189c-0.1-4.3-1.1-7.7-3.1-10
				c-1.9-2.3-4.7-3.5-8.2-3.5c-3.6,0-6.4,1.2-8.3,3.6s-3,5.7-3,10s1,7.7,3,10s4.8,3.6,8.3,3.6c2.5,0,4.7-0.6,6.6-1.8
				c1.9-1.2,3.4-2.9,4.5-5.1l2,1.1c-1.2,2.6-3,4.6-5.2,6C209.3,204.3,206.7,205,203.8,205z M191.5,189.7v-2.3h24.6v2.3H191.5z"/>
			<path d="M234.9,204.2v-40.3h22.4v2.3h-20v16.6H254v2.3h-16.7v19L234.9,204.2L234.9,204.2z"/>
			<path d="M273.6,205c-3,0-5.5-0.7-7.6-2c-2.1-1.4-3.6-3.2-4.7-5.7c-1.1-2.4-1.6-5.2-1.6-8.3c0-3.2,0.5-5.9,1.6-8.3
				c1.1-2.4,2.7-4.2,4.7-5.6s4.6-2,7.5-2c3,0,5.5,0.7,7.6,2c2.1,1.4,3.6,3.2,4.7,5.6c1.1,2.4,1.6,5.1,1.6,8.3s-0.5,6-1.6,8.4
				s-2.6,4.3-4.7,5.6C279.1,204.3,276.6,205,273.6,205z M273.6,202.7c3.8,0,6.6-1.3,8.5-3.8s2.8-5.8,2.8-9.9c0-4.1-0.9-7.4-2.8-9.9
				s-4.7-3.7-8.5-3.7c-2.6,0-4.7,0.6-6.3,1.7s-2.9,2.8-3.7,4.8c-0.8,2-1.2,4.4-1.2,7c0,4.1,1,7.4,2.9,9.9
				C267.1,201.4,269.9,202.7,273.6,202.7z"/>
			<path d="M293.6,204.2V174h2.2v6.2h0.2v24.1h-2.4V204.2z M316,204.2v-16c0-2.2-0.2-4-0.7-5.6c-0.4-1.6-1.1-2.9-1.9-3.9
				c-0.9-1-1.9-1.8-3.1-2.3s-2.6-0.8-4.2-0.8c-1.8,0-3.4,0.3-4.7,1c-1.3,0.6-2.3,1.5-3.1,2.6c-0.8,1.1-1.4,2.4-1.8,3.9
				s-0.6,3-0.6,4.6l-2.2,0.1c0-3.4,0.6-6.2,1.7-8.3s2.6-3.7,4.5-4.6s3.9-1.5,6.1-1.5c1.5,0,2.9,0.2,4.2,0.6c1.3,0.4,2.4,1,3.4,1.9
				c1,0.8,1.8,1.8,2.5,3s1.2,2.5,1.6,4s0.5,3.1,0.5,4.9v16.4L316,204.2L316,204.2z"/>
			<path d="M322.3,176.3V174h19v2.3H322.3z M341.2,204.2c-1.5,0.3-3,0.5-4.5,0.4s-2.8-0.4-3.9-1.1c-1.2-0.6-2-1.6-2.6-2.8
				c-0.4-1-0.7-2-0.8-3c-0.1-1-0.1-2.2-0.1-3.5v-28.6h2.3v28.6c0,1.3,0,2.4,0,3.2s0.2,1.6,0.6,2.3c0.7,1.3,1.7,2.2,3.2,2.5
				s3.4,0.3,5.7-0.1L341.2,204.2L341.2,204.2z"/>
		</g>
	</g>
	<path class="st1" d="M327.1,371.5l13.9-24c1.7-3-0.4-6.8-3.9-6.8h-7.7v-51c0-3.4-2.8-6.2-6.2-6.2s-6.2,2.8-6.2,6.2v51h-7.7
		c-3.5,0-5.6,3.8-3.9,6.8l13.9,24C321,374.5,325.4,374.5,327.1,371.5z"/>
</g>
</svg>
