<?xml version="1.0" encoding="utf-8"?>
<!-- Generator: Adobe Illustrator 26.3.1, SVG Export Plug-In . SVG Version: 6.00 Build 0)  -->
<svg version="1.1" id="Layer_1" xmlns="http://www.w3.org/2000/svg" xmlns:xlink="http://www.w3.org/1999/xlink" x="0px" y="0px"
	 viewBox="0 0 913.2 338.4" style="enable-background:new 0 0 913.2 338.4;" xml:space="preserve">
<style type="text/css">
	.st0{fill:#979797;}
	.st1{fill:#FF3500;}
</style>
<g>
	<g>
		<path class="st0" d="M899.5,113L675.6,267.4c-3.5,2.4-5.4,6.7-4.8,10.9l8.2,60.1h-20c-14.3,0-26-10.6-28-24.3l0,0l-5.6-40.7
			c-1.6-11.8,2.6-23.6,11.2-31.7L894.4,0l17.2,85.4c0.2,1.3,0.3,2.7,0.3,4.1C911.9,99.3,907,108,899.5,113z"/>
		<path class="st0" d="M806.3,247.3l24.6,91.2h82.3c0,0-70.4-135.9-70.4-135.9L819.5,216c-8.4,4.9-14,14-14,24.4
			C805.5,242.8,805.8,245.1,806.3,247.3z"/>
	</g>
	<g>
		<g>
			<path class="st0" d="M305.5,246.9c-8.5,2.3-17.2,4.1-26.1,5.3l45,86.2h28.8L305.5,246.9z"/>
			<path class="st0" d="M84.4,176.7L0,338.4h30.4L104,197.4C97.1,190.9,90.5,184,84.4,176.7z"/>
			<path class="st0" d="M265.4,255.9h-4.6h-25H117.5l4.3-8.2h75.1c-22-5.6-42.7-14.5-61.4-26.3c-4.3-2.7-8.5-5.6-12.6-8.6
				c-2.7-2-5.3-4-7.8-6L46.4,338.4h28l24.9-47.6H254l24.9,47.6h29.6l-33.5-64.2L265.4,255.9z"/>
			<path class="st0" d="M134,170.6c5.9,6.3,12.2,12.1,18.9,17.6l23.8-45.5l36.7,70.3l5.2,9.9c4.5,1.3,9.1,2.5,13.8,3.5
				c6.3,1.4,12.8,2.4,19.3,3.2L177.4,87.4L134,170.6z"/>
			<path class="st0" d="M177.4,56.8l90.8,173.9c1.6,0,3.2,0.1,4.8,0.1c7.9,0,15.7-0.5,23.4-1.4L176.6,0l-69.8,133.7
				c5,8.9,10.8,17.4,17.2,25.4L177.4,56.8z"/>
		</g>
	</g>
	<path class="st1" d="M529,165.3l-24-13.9c-3-1.7-6.8,0.4-6.8,3.9v7.7h-51c-3.4,0-6.2,2.8-6.2,6.2c0,3.4,2.8,6.2,6.2,6.2h51v7.7
		c0,3.5,3.8,5.6,6.8,3.9l24-13.9C532,171.4,532,167,529,165.3z"/>
</g>
</svg>
