<?xml version="1.0" encoding="utf-8"?>
<!-- Generator: Adobe Illustrator 26.3.1, SVG Export Plug-In . SVG Version: 6.00 Build 0)  -->
<svg version="1.1" id="Layer_1" xmlns="http://www.w3.org/2000/svg" xmlns:xlink="http://www.w3.org/1999/xlink" x="0px" y="0px"
	 viewBox="0 0 932.4 1394.9" style="enable-background:new 0 0 932.4 1394.9;" xml:space="preserve">
<style type="text/css">
	.st0{fill:#10324F;}
	.st1{fill:#FF3500;}
	.st2{fill:#EFF4F6;}
</style>
<g>
	
		<rect x="233.7" y="-233.7" transform="matrix(-1.836970e-16 1 -1 -1.836970e-16 698.6833 -233.7042)" class="st0" width="465" height="932.4"/>
	
		<rect x="233.7" y="231.3" transform="matrix(-1.836970e-16 1 -1 -1.836970e-16 1163.6625 231.2749)" class="st1" width="465" height="932.4"/>
	
		<rect x="233.7" y="696.3" transform="matrix(-1.836970e-16 1 -1 -1.836970e-16 1628.6416 696.2541)" class="st2" width="465" height="932.4"/>
	<g>
		<path class="st2" d="M49.7,356.3c-2.6-0.9-4.6-2.1-6-3.6l1.6-3.1c1.4,1.4,3.2,2.5,5.5,3.3c2.3,0.8,4.6,1.3,7,1.3
			c3.4,0,5.9-0.6,7.6-1.9c1.7-1.2,2.5-2.9,2.5-4.8c0-1.5-0.5-2.7-1.4-3.6c-0.9-0.9-2-1.6-3.4-2.1c-1.3-0.5-3.2-1-5.6-1.6
			c-2.9-0.7-5.1-1.4-6.8-2.1c-1.7-0.7-3.1-1.7-4.4-3.1c-1.2-1.4-1.8-3.2-1.8-5.6c0-1.9,0.5-3.7,1.5-5.2c1-1.6,2.6-2.8,4.7-3.8
			c2.1-0.9,4.7-1.4,7.8-1.4c2.2,0,4.3,0.3,6.4,0.9c2.1,0.6,3.9,1.4,5.4,2.5l-1.4,3.2c-1.6-1-3.3-1.8-5.1-2.4
			c-1.8-0.5-3.6-0.8-5.3-0.8c-3.3,0-5.8,0.6-7.5,1.9c-1.7,1.3-2.5,2.9-2.5,5c0,1.5,0.5,2.7,1.4,3.7c0.9,0.9,2.1,1.6,3.5,2.1
			s3.3,1,5.6,1.6c2.8,0.7,5,1.4,6.7,2c1.7,0.7,3.2,1.7,4.4,3c1.2,1.4,1.8,3.2,1.8,5.5c0,1.9-0.5,3.7-1.5,5.2c-1,1.6-2.6,2.8-4.7,3.7
			c-2.1,0.9-4.7,1.4-7.9,1.4C55,357.7,52.3,357.2,49.7,356.3z"/>
		<path class="st2" d="M101.8,330.4c2.2,1.2,3.9,2.9,5.1,5.1c1.2,2.2,1.8,4.7,1.8,7.5c0,2.9-0.6,5.4-1.8,7.6
			c-1.2,2.2-2.9,3.9-5.1,5.1c-2.1,1.2-4.6,1.8-7.3,1.8c-2.3,0-4.4-0.5-6.3-1.4c-1.9-1-3.4-2.4-4.6-4.2v15.9h-3.8v-39h3.7v5.6
			c1.2-1.9,2.7-3.3,4.6-4.3c1.9-1,4-1.5,6.4-1.5C97.2,328.6,99.6,329.2,101.8,330.4z M99.7,352.8c1.6-0.9,2.9-2.2,3.8-3.9
			c0.9-1.7,1.4-3.6,1.4-5.8c0-2.2-0.5-4.1-1.4-5.8c-0.9-1.7-2.2-3-3.8-3.9c-1.6-0.9-3.4-1.4-5.4-1.4c-2,0-3.8,0.5-5.4,1.4
			c-1.6,0.9-2.9,2.2-3.8,3.9c-0.9,1.7-1.4,3.6-1.4,5.8c0,2.2,0.5,4.1,1.4,5.8c0.9,1.7,2.2,3,3.8,3.9c1.6,0.9,3.4,1.4,5.4,1.4
			C96.2,354.2,98,353.7,99.7,352.8z"/>
		<path class="st2" d="M134.9,331.4c2,1.9,3,4.6,3,8.3v17.7h-3.7v-4.4c-0.9,1.5-2.1,2.6-3.8,3.5c-1.7,0.8-3.7,1.2-6,1.2
			c-3.2,0-5.7-0.8-7.6-2.3c-1.9-1.5-2.8-3.5-2.8-6c0-2.4,0.9-4.4,2.6-5.8c1.8-1.5,4.5-2.2,8.4-2.2h9v-1.7c0-2.5-0.7-4.3-2.1-5.6
			c-1.4-1.3-3.4-1.9-6-1.9c-1.8,0-3.5,0.3-5.2,0.9c-1.7,0.6-3.1,1.4-4.3,2.5l-1.7-2.9c1.4-1.2,3.2-2.2,5.2-2.8c2-0.7,4.2-1,6.4-1
			C130.1,328.6,132.9,329.6,134.9,331.4z M130.6,353.1c1.6-1,2.7-2.4,3.5-4.3v-4.7h-8.9c-4.9,0-7.3,1.7-7.3,5.1c0,1.7,0.6,3,1.9,3.9
			c1.3,1,3,1.4,5.3,1.4C127.2,354.6,129,354.1,130.6,353.1z"/>
		<path class="st2" d="M152.7,355.8c-2.2-1.2-4-3-5.2-5.2c-1.3-2.2-1.9-4.7-1.9-7.5c0-2.8,0.6-5.3,1.9-7.5c1.3-2.2,3-3.9,5.2-5.1
			c2.2-1.2,4.7-1.8,7.6-1.8c2.5,0,4.6,0.5,6.6,1.4c1.9,1,3.5,2.4,4.6,4.2l-2.9,1.9c-0.9-1.4-2.1-2.5-3.6-3.2c-1.4-0.7-3-1.1-4.7-1.1
			c-2.1,0-3.9,0.5-5.5,1.4c-1.6,0.9-2.9,2.2-3.8,3.9c-0.9,1.7-1.4,3.6-1.4,5.8c0,2.2,0.5,4.1,1.4,5.8c0.9,1.7,2.2,3,3.8,3.9
			c1.6,0.9,3.5,1.4,5.5,1.4c1.7,0,3.3-0.3,4.7-1c1.4-0.7,2.6-1.7,3.6-3.1l2.9,1.9c-1.1,1.8-2.7,3.2-4.6,4.2c-1.9,1-4.1,1.4-6.6,1.4
			C157.4,357.6,154.9,357,152.7,355.8z"/>
		<path class="st2" d="M203.3,344.3h-23.8c0.2,3,1.4,5.4,3.4,7.2c2.1,1.8,4.7,2.7,7.8,2.7c1.8,0,3.4-0.3,4.9-0.9
			c1.5-0.6,2.8-1.6,3.8-2.8l2.2,2.5c-1.3,1.5-2.8,2.7-4.7,3.5c-1.9,0.8-4,1.2-6.3,1.2c-2.9,0-5.5-0.6-7.8-1.9c-2.3-1.2-4-3-5.3-5.2
			c-1.3-2.2-1.9-4.7-1.9-7.5c0-2.8,0.6-5.3,1.8-7.5c1.2-2.2,2.9-3.9,5-5.1c2.1-1.2,4.5-1.8,7.1-1.8c2.6,0,5,0.6,7.1,1.8
			c2.1,1.2,3.7,2.9,4.9,5.1c1.2,2.2,1.8,4.7,1.8,7.5L203.3,344.3z M182.6,334.6c-1.9,1.8-2.9,4-3.2,6.8h20.2
			c-0.3-2.8-1.3-5.1-3.2-6.8c-1.9-1.8-4.2-2.6-7-2.6C186.8,331.9,184.5,332.8,182.6,334.6z"/>
		<path class="st2" d="M232.5,355.2c-3-1.7-5.4-4-7.1-6.9c-1.7-2.9-2.6-6.2-2.6-9.9c0-3.6,0.9-6.9,2.6-9.9c1.7-2.9,4.1-5.2,7.1-6.9
			c3-1.7,6.4-2.5,10.2-2.5c2.8,0,5.4,0.5,7.8,1.4c2.4,0.9,4.4,2.3,6.1,4.1l-2.5,2.5c-3-3-6.7-4.5-11.2-4.5c-3,0-5.7,0.7-8.2,2.1
			c-2.5,1.4-4.4,3.2-5.8,5.6s-2.1,5.1-2.1,8c0,3,0.7,5.6,2.1,8s3.3,4.3,5.8,5.6c2.5,1.4,5.2,2.1,8.2,2.1c4.5,0,8.3-1.5,11.2-4.5
			l2.5,2.5c-1.7,1.8-3.7,3.2-6.1,4.1c-2.4,1-5,1.4-7.8,1.4C238.9,357.7,235.5,356.8,232.5,355.2z"/>
		<path class="st2" d="M282.4,331.4c2,1.9,3,4.6,3,8.3v17.7h-3.7v-4.4c-0.9,1.5-2.1,2.6-3.8,3.5c-1.7,0.8-3.7,1.2-6,1.2
			c-3.2,0-5.7-0.8-7.6-2.3c-1.9-1.5-2.8-3.5-2.8-6c0-2.4,0.9-4.4,2.6-5.8c1.8-1.5,4.5-2.2,8.4-2.2h9v-1.7c0-2.5-0.7-4.3-2.1-5.6
			c-1.4-1.3-3.4-1.9-6-1.9c-1.8,0-3.5,0.3-5.2,0.9c-1.7,0.6-3.1,1.4-4.3,2.5l-1.7-2.9c1.4-1.2,3.2-2.2,5.2-2.8c2-0.7,4.2-1,6.4-1
			C277.5,328.6,280.4,329.6,282.4,331.4z M278,353.1c1.6-1,2.7-2.4,3.5-4.3v-4.7h-8.9c-4.9,0-7.3,1.7-7.3,5.1c0,1.7,0.6,3,1.9,3.9
			c1.3,1,3,1.4,5.3,1.4C274.6,354.6,276.5,354.1,278,353.1z"/>
		<path class="st2" d="M321.9,317.2v40.2h-3.7v-5.6c-1.2,1.9-2.7,3.4-4.6,4.4c-1.9,1-4,1.5-6.4,1.5c-2.7,0-5.1-0.6-7.3-1.8
			c-2.2-1.2-3.9-2.9-5.1-5.1c-1.2-2.2-1.8-4.7-1.8-7.5c0-2.8,0.6-5.3,1.8-7.5c1.2-2.2,2.9-3.9,5.1-5.1c2.2-1.2,4.6-1.8,7.3-1.8
			c2.3,0,4.4,0.5,6.3,1.4c1.9,1,3.4,2.4,4.6,4.2v-17.1H321.9z M312.9,352.8c1.6-0.9,2.9-2.2,3.8-3.9c0.9-1.7,1.4-3.6,1.4-5.8
			c0-2.2-0.5-4.1-1.4-5.8c-0.9-1.7-2.2-3-3.8-3.9c-1.6-0.9-3.4-1.4-5.4-1.4c-2,0-3.8,0.5-5.4,1.4s-2.9,2.2-3.8,3.9
			c-0.9,1.7-1.4,3.6-1.4,5.8c0,2.2,0.5,4.1,1.4,5.8c0.9,1.7,2.2,3,3.8,3.9s3.4,1.4,5.4,1.4C309.5,354.2,311.3,353.7,312.9,352.8z"/>
		<path class="st2" d="M357.4,344.3h-23.8c0.2,3,1.4,5.4,3.4,7.2c2.1,1.8,4.7,2.7,7.8,2.7c1.8,0,3.4-0.3,4.9-0.9
			c1.5-0.6,2.8-1.6,3.8-2.8l2.2,2.5c-1.3,1.5-2.8,2.7-4.7,3.5c-1.9,0.8-4,1.2-6.3,1.2c-2.9,0-5.5-0.6-7.8-1.9c-2.3-1.2-4-3-5.3-5.2
			c-1.3-2.2-1.9-4.7-1.9-7.5c0-2.8,0.6-5.3,1.8-7.5c1.2-2.2,2.9-3.9,5-5.1c2.1-1.2,4.5-1.8,7.1-1.8c2.6,0,5,0.6,7.1,1.8
			c2.1,1.2,3.7,2.9,4.9,5.1c1.2,2.2,1.8,4.7,1.8,7.5L357.4,344.3z M336.7,334.6c-1.9,1.8-2.9,4-3.2,6.8h20.2
			c-0.3-2.8-1.3-5.1-3.2-6.8c-1.9-1.8-4.2-2.6-7-2.6C340.9,331.9,338.6,332.8,336.7,334.6z"/>
		<path class="st2" d="M380.3,355.6c-0.7,0.6-1.6,1.1-2.7,1.5s-2.2,0.5-3.3,0.5c-2.7,0-4.7-0.7-6.2-2.2c-1.4-1.4-2.2-3.5-2.2-6.1
			v-17.2h-5.1v-3.2h5.1v-6.2h3.8v6.2h8.7v3.2h-8.7v17c0,1.7,0.4,3,1.3,3.9c0.8,0.9,2.1,1.3,3.7,1.3c0.8,0,1.6-0.1,2.3-0.4
			c0.7-0.3,1.4-0.6,1.9-1.1L380.3,355.6z"/>
		<path class="st2" d="M70.2,407.7h7v5.9h-7.7l-1.1,8.7h-6.1l1.1-8.7h-8l-1.1,8.7h-6.1l1.1-8.7h-7.1v-5.9h7.8l1.1-8.8h-7.1v-5.9h7.8
			l1.1-8.7h6.1l-1.1,8.7h8l1.1-8.7h6.1l-1.1,8.7h7l0.1,5.9h-7.8L70.2,407.7z M64.1,407.7l1.1-8.8h-8l-1.1,8.8H64.1z"/>
		<path class="st2" d="M96.9,384.4v37.9h-8.8v-30.9h-7.6v-7H96.9z"/>
		<path class="st2" d="M111.4,420.6c-2.5-1.6-4.4-3.8-5.8-6.7c-1.4-2.9-2.1-6.5-2.1-10.5c0-4.1,0.7-7.6,2.1-10.5
			c1.4-2.9,3.3-5.2,5.8-6.7c2.5-1.6,5.3-2.3,8.4-2.3c3.1,0,5.9,0.8,8.4,2.3c2.5,1.6,4.4,3.8,5.8,6.7c1.4,2.9,2.1,6.5,2.1,10.5
			c0,4.1-0.7,7.6-2.1,10.5c-1.4,2.9-3.3,5.2-5.8,6.7c-2.5,1.6-5.3,2.3-8.4,2.3C116.6,423,113.8,422.2,111.4,420.6z M125.2,412.6
			c1.3-2,2-5.1,2-9.2c0-4.2-0.7-7.2-2-9.2c-1.3-2-3.1-3-5.4-3c-2.3,0-4.1,1-5.4,3c-1.3,2-2,5.1-2,9.2c0,4.2,0.7,7.2,2,9.2
			c1.3,2,3.1,3,5.4,3C122.1,415.5,123.9,414.5,125.2,412.6z"/>
		<path class="st2" d="M165.1,403.5c1.8,1.9,2.7,4.3,2.7,7.2c0,2.2-0.6,4.2-1.7,6.1c-1.2,1.9-2.9,3.3-5.3,4.5
			c-2.4,1.1-5.3,1.7-8.7,1.7c-2.7,0-5.3-0.4-7.9-1.1c-2.6-0.7-4.8-1.7-6.6-3l3.4-6.7c1.4,1.1,3.1,1.9,5,2.5c1.9,0.6,3.8,0.9,5.8,0.9
			c2.2,0,3.9-0.4,5.2-1.3c1.3-0.8,1.9-2,1.9-3.6c0-3.1-2.4-4.7-7.1-4.7h-4v-5.8l7.8-8.8h-16.1v-7H166v5.7l-8.6,9.7
			C160.8,400.4,163.3,401.6,165.1,403.5z"/>
		<path class="st2" d="M199.8,415.2v7.1h-28.6v-5.7l14.6-13.8c1.6-1.5,2.6-2.8,3.1-3.8c0.5-1.1,0.8-2.1,0.8-3.2
			c0-1.5-0.5-2.7-1.5-3.5c-1-0.8-2.5-1.2-4.5-1.2c-1.7,0-3.2,0.3-4.5,0.9c-1.3,0.6-2.5,1.6-3.4,2.8l-6.4-4.1
			c1.5-2.2,3.5-3.9,6.1-5.2c2.6-1.2,5.6-1.9,8.9-1.9c2.8,0,5.3,0.5,7.4,1.4s3.8,2.2,4.9,3.9c1.2,1.7,1.8,3.7,1.8,5.9
			c0,2.1-0.4,4-1.3,5.8c-0.9,1.8-2.5,3.9-5,6.2l-8.7,8.2H199.8z"/>
		<path class="st2" d="M237.6,414.3h-6.2v8h-8.6v-8h-20.4v-5.9l17.9-24h9.2L213,407.2h10.2v-7.1h8.3v7.1h6.2V414.3z"/>
		<path class="st2" d="M251.4,391.4v10h17.5v7h-17.5v13.8h-8.8v-37.9h28.6v7H251.4z"/>
	</g>
	<g>
		<path class="st2" d="M53.7,821.5c-3-1.7-5.4-4-7.1-6.9c-1.7-2.9-2.6-6.2-2.6-9.9s0.9-6.9,2.6-9.9c1.7-2.9,4.1-5.2,7.1-6.9
			c3-1.7,6.4-2.5,10.2-2.5c2.8,0,5.4,0.5,7.8,1.4c2.4,0.9,4.4,2.3,6.1,4.1l-2.5,2.5c-3-3-6.7-4.5-11.2-4.5c-3,0-5.7,0.7-8.2,2.1
			c-2.5,1.4-4.4,3.2-5.8,5.6c-1.4,2.4-2.1,5.1-2.1,8s0.7,5.6,2.1,8c1.4,2.4,3.3,4.3,5.8,5.6c2.5,1.4,5.2,2.1,8.2,2.1
			c4.5,0,8.3-1.5,11.2-4.5l2.5,2.5c-1.7,1.8-3.7,3.2-6.1,4.1c-2.4,1-5,1.4-7.8,1.4C60.1,824,56.7,823.2,53.7,821.5z"/>
		<path class="st2" d="M88.5,822.1c-2.2-1.2-3.9-3-5.2-5.2c-1.3-2.2-1.9-4.7-1.9-7.5c0-2.8,0.6-5.3,1.9-7.5c1.3-2.2,3-3.9,5.2-5.1
			c2.2-1.2,4.7-1.8,7.4-1.8s5.2,0.6,7.4,1.8c2.2,1.2,3.9,2.9,5.2,5.1c1.2,2.2,1.9,4.7,1.9,7.5c0,2.8-0.6,5.3-1.9,7.5
			c-1.2,2.2-3,3.9-5.2,5.2c-2.2,1.2-4.7,1.9-7.4,1.9S90.7,823.3,88.5,822.1z M101.3,819.2c1.6-0.9,2.9-2.2,3.8-3.9
			c0.9-1.7,1.4-3.6,1.4-5.8s-0.5-4.1-1.4-5.8c-0.9-1.7-2.2-3-3.8-3.9c-1.6-0.9-3.4-1.4-5.4-1.4s-3.8,0.5-5.4,1.4s-2.9,2.2-3.8,3.9
			c-0.9,1.7-1.4,3.6-1.4,5.8s0.5,4.1,1.4,5.8c0.9,1.7,2.2,3,3.8,3.9c1.6,0.9,3.4,1.4,5.4,1.4S99.7,820.1,101.3,819.2z"/>
		<path class="st2" d="M144.2,795.2v39h-3.8v-15.9c-1.2,1.8-2.7,3.2-4.6,4.2c-1.9,1-3.9,1.4-6.3,1.4c-2.7,0-5.1-0.6-7.3-1.8
			c-2.1-1.2-3.8-2.9-5.1-5.1c-1.2-2.2-1.8-4.7-1.8-7.6c0-2.8,0.6-5.3,1.8-7.5c1.2-2.2,2.9-3.9,5.1-5.1c2.2-1.2,4.6-1.8,7.3-1.8
			c2.4,0,4.5,0.5,6.4,1.5c1.9,1,3.4,2.5,4.6,4.3v-5.6H144.2z M135.2,819.2c1.6-0.9,2.9-2.2,3.8-3.9c0.9-1.7,1.4-3.6,1.4-5.8
			s-0.5-4.1-1.4-5.8c-0.9-1.7-2.2-3-3.8-3.9c-1.6-0.9-3.4-1.4-5.4-1.4c-2,0-3.8,0.5-5.4,1.4s-2.9,2.2-3.8,3.9
			c-0.9,1.7-1.4,3.6-1.4,5.8s0.5,4.1,1.4,5.8c0.9,1.7,2.2,3,3.8,3.9c1.6,0.9,3.4,1.4,5.4,1.4C131.8,820.5,133.6,820.1,135.2,819.2z"
			/>
		<path class="st2" d="M180.6,795.2v28.5h-3.7v-5.2c-1,1.7-2.4,3.1-4.2,4c-1.8,1-3.8,1.4-6.1,1.4c-3.7,0-6.7-1-8.8-3.1
			c-2.1-2.1-3.2-5.1-3.2-9.1v-16.5h3.8v16.1c0,3,0.7,5.3,2.2,6.8s3.6,2.3,6.3,2.3c3,0,5.4-0.9,7.1-2.7c1.7-1.8,2.6-4.4,2.6-7.6
			v-14.9H180.6z"/>
		<path class="st2" d="M216.1,810.6h-23.8c0.2,3,1.4,5.4,3.4,7.2c2.1,1.8,4.7,2.7,7.8,2.7c1.8,0,3.4-0.3,4.9-0.9
			c1.5-0.6,2.8-1.6,3.8-2.8l2.2,2.5c-1.3,1.5-2.8,2.7-4.7,3.5c-1.9,0.8-4,1.2-6.3,1.2c-2.9,0-5.5-0.6-7.8-1.9c-2.3-1.2-4-3-5.3-5.2
			c-1.3-2.2-1.9-4.7-1.9-7.5c0-2.8,0.6-5.3,1.8-7.5c1.2-2.2,2.9-3.9,5-5.1c2.1-1.2,4.5-1.8,7.1-1.8c2.6,0,5,0.6,7.1,1.8
			c2.1,1.2,3.7,2.9,4.9,5.1c1.2,2.2,1.8,4.7,1.8,7.5L216.1,810.6z M195.5,800.9c-1.9,1.8-2.9,4-3.2,6.8h20.2
			c-0.3-2.8-1.3-5.1-3.2-6.8c-1.9-1.8-4.2-2.6-7-2.6C199.6,798.3,197.3,799.2,195.5,800.9z"/>
		<path class="st2" d="M224,783.5h3.8v40.2H224V783.5z"/>
		<path class="st2" d="M238.6,788.2c-0.5-0.5-0.8-1.2-0.8-1.9c0-0.7,0.3-1.4,0.8-1.9c0.5-0.5,1.2-0.8,2-0.8c0.8,0,1.5,0.3,2,0.8
			c0.5,0.5,0.8,1.1,0.8,1.9c0,0.8-0.3,1.5-0.8,2c-0.5,0.5-1.2,0.8-2,0.8C239.8,789,239.1,788.7,238.6,788.2z M238.6,795.2h3.8v28.5
			h-3.8V795.2z"/>
		<path class="st2" d="M257.4,822.1c-2.2-1.2-4-3-5.2-5.2c-1.3-2.2-1.9-4.7-1.9-7.5c0-2.8,0.6-5.3,1.9-7.5c1.3-2.2,3-3.9,5.2-5.1
			c2.2-1.2,4.7-1.8,7.6-1.8c2.5,0,4.6,0.5,6.6,1.4c1.9,1,3.5,2.4,4.6,4.2l-2.9,1.9c-0.9-1.4-2.1-2.5-3.6-3.2c-1.4-0.7-3-1.1-4.7-1.1
			c-2.1,0-3.9,0.5-5.5,1.4c-1.6,0.9-2.9,2.2-3.8,3.9c-0.9,1.7-1.4,3.6-1.4,5.8c0,2.2,0.5,4.1,1.4,5.8c0.9,1.7,2.2,3,3.8,3.9
			c1.6,0.9,3.5,1.4,5.5,1.4c1.7,0,3.3-0.3,4.7-1s2.6-1.7,3.6-3.1l2.9,1.9c-1.1,1.8-2.7,3.2-4.6,4.2c-1.9,1-4.1,1.4-6.6,1.4
			C262.2,824,259.6,823.3,257.4,822.1z"/>
		<path class="st2" d="M287.4,822.1c-2.2-1.2-3.9-3-5.2-5.2c-1.3-2.2-1.9-4.7-1.9-7.5c0-2.8,0.6-5.3,1.9-7.5c1.3-2.2,3-3.9,5.2-5.1
			c2.2-1.2,4.7-1.8,7.4-1.8s5.2,0.6,7.4,1.8c2.2,1.2,3.9,2.9,5.2,5.1c1.2,2.2,1.9,4.7,1.9,7.5c0,2.8-0.6,5.3-1.9,7.5
			c-1.2,2.2-3,3.9-5.2,5.2c-2.2,1.2-4.7,1.9-7.4,1.9S289.6,823.3,287.4,822.1z M300.3,819.2c1.6-0.9,2.9-2.2,3.8-3.9
			c0.9-1.7,1.4-3.6,1.4-5.8s-0.5-4.1-1.4-5.8c-0.9-1.7-2.2-3-3.8-3.9c-1.6-0.9-3.4-1.4-5.4-1.4s-3.8,0.5-5.4,1.4s-2.9,2.2-3.8,3.9
			c-0.9,1.7-1.4,3.6-1.4,5.8s0.5,4.1,1.4,5.8c0.9,1.7,2.2,3,3.8,3.9c1.6,0.9,3.4,1.4,5.4,1.4S298.6,820.1,300.3,819.2z"/>
		<path class="st2" d="M332.1,822c-0.7,0.6-1.6,1.1-2.7,1.5c-1.1,0.3-2.2,0.5-3.3,0.5c-2.7,0-4.7-0.7-6.2-2.2
			c-1.4-1.4-2.2-3.5-2.2-6.1v-17.2h-5.1v-3.2h5.1V789h3.8v6.2h8.7v3.2h-8.7v17c0,1.7,0.4,3,1.3,3.9c0.8,0.9,2.1,1.3,3.7,1.3
			c0.8,0,1.6-0.1,2.3-0.4c0.7-0.3,1.4-0.6,1.9-1.1L332.1,822z"/>
		<path class="st2" d="M70.2,874.1h7v5.9h-7.7l-1.1,8.7h-6.1l1.1-8.7h-8l-1.1,8.7h-6.1l1.1-8.7h-7.1v-5.9h7.8l1.1-8.8h-7.1v-5.9h7.8
			l1.1-8.7h6.1l-1.1,8.7h8l1.1-8.7h6.1l-1.1,8.7h7l0.1,5.9h-7.8L70.2,874.1z M64.1,874.1l1.1-8.8h-8l-1.1,8.8H64.1z"/>
		<path class="st2" d="M93.4,857.8v10H111v7H93.4v13.8h-8.8v-37.9h28.6v7H93.4z"/>
		<path class="st2" d="M128,857.8v10h17.5v7H128v13.8h-8.8v-37.9h28.6v7H128z"/>
		<path class="st2" d="M176.8,869.9c1.8,1.9,2.7,4.3,2.7,7.2c0,2.2-0.6,4.2-1.7,6.1c-1.2,1.9-2.9,3.3-5.3,4.5
			c-2.4,1.1-5.3,1.7-8.7,1.7c-2.7,0-5.3-0.4-7.9-1.1c-2.6-0.7-4.8-1.7-6.6-3l3.4-6.7c1.4,1.1,3.1,1.9,5,2.5c1.9,0.6,3.8,0.9,5.8,0.9
			c2.2,0,3.9-0.4,5.2-1.3c1.3-0.8,1.9-2,1.9-3.6c0-3.1-2.4-4.7-7.1-4.7h-4v-5.8l7.8-8.8h-16.1v-7h26.5v5.7l-8.6,9.7
			C172.5,866.7,175.1,868,176.8,869.9z"/>
		<path class="st2" d="M207.8,868.2c2.5,2.1,3.8,5,3.8,8.6c0,2.3-0.6,4.4-1.7,6.3c-1.2,1.9-2.9,3.4-5.3,4.5s-5.3,1.7-8.7,1.7
			c-2.7,0-5.3-0.4-7.9-1.1c-2.6-0.7-4.8-1.7-6.6-3l3.5-6.7c1.4,1.1,3.1,1.9,5,2.5c1.9,0.6,3.8,0.9,5.8,0.9c2.2,0,3.9-0.4,5.2-1.3
			c1.3-0.9,1.9-2.1,1.9-3.6c0-1.6-0.7-2.9-2-3.7c-1.3-0.8-3.6-1.2-6.8-1.2h-9.7l1.9-21.3h23.1v7h-15.8l-0.6,7.2h3.1
			C201.3,865,205.3,866.1,207.8,868.2z"/>
		<path class="st2" d="M223.1,887c-2.5-1.6-4.4-3.8-5.8-6.7c-1.4-2.9-2.1-6.5-2.1-10.5s0.7-7.6,2.1-10.5c1.4-2.9,3.3-5.2,5.8-6.7
			c2.5-1.6,5.3-2.3,8.4-2.3c3.1,0,5.9,0.8,8.4,2.3c2.5,1.6,4.4,3.8,5.8,6.7c1.4,2.9,2.1,6.5,2.1,10.5s-0.7,7.6-2.1,10.5
			c-1.4,2.9-3.3,5.2-5.8,6.7c-2.5,1.6-5.3,2.3-8.4,2.3C228.3,889.3,225.5,888.5,223.1,887z M236.9,878.9c1.3-2,2-5.1,2-9.2
			s-0.7-7.2-2-9.2c-1.3-2-3.1-3-5.4-3c-2.3,0-4.1,1-5.4,3c-1.3,2-2,5.1-2,9.2s0.7,7.2,2,9.2c1.3,2,3.1,3,5.4,3
			C233.8,881.9,235.6,880.9,236.9,878.9z"/>
		<path class="st2" d="M259.8,887c-2.5-1.6-4.4-3.8-5.8-6.7c-1.4-2.9-2.1-6.5-2.1-10.5s0.7-7.6,2.1-10.5c1.4-2.9,3.3-5.2,5.8-6.7
			c2.5-1.6,5.3-2.3,8.4-2.3c3.1,0,5.9,0.8,8.4,2.3c2.5,1.6,4.4,3.8,5.8,6.7c1.4,2.9,2.1,6.5,2.1,10.5s-0.7,7.6-2.1,10.5
			c-1.4,2.9-3.3,5.2-5.8,6.7c-2.5,1.6-5.3,2.3-8.4,2.3C265.1,889.3,262.3,888.5,259.8,887z M273.7,878.9c1.3-2,2-5.1,2-9.2
			s-0.7-7.2-2-9.2c-1.3-2-3.1-3-5.4-3c-2.3,0-4.1,1-5.4,3c-1.3,2-2,5.1-2,9.2s0.7,7.2,2,9.2c1.3,2,3.1,3,5.4,3
			C270.5,881.9,272.3,880.9,273.7,878.9z"/>
	</g>
	<g>
		<g>
			<path d="M71,1285.7H49.9l-4.5,10.1h-4.2l17.3-37.9h4l17.3,37.9h-4.2L71,1285.7z M69.6,1282.5l-9.1-20.4l-9.1,20.4H69.6z"/>
			<path d="M108.3,1270.3c2.1,2.1,3.2,5.1,3.2,9.1v16.5h-3.8v-16.1c0-3-0.7-5.2-2.2-6.8c-1.5-1.6-3.6-2.3-6.3-2.3
				c-3.1,0-5.5,0.9-7.3,2.7c-1.8,1.8-2.7,4.3-2.7,7.6v14.9h-3.8v-28.5H89v5.3c1-1.7,2.5-3.1,4.4-4c1.9-1,4-1.4,6.5-1.4
				C103.4,1267.2,106.2,1268.2,108.3,1270.3z"/>
			<path d="M136.9,1294.1c-0.7,0.6-1.6,1.1-2.7,1.5c-1.1,0.3-2.2,0.5-3.3,0.5c-2.7,0-4.7-0.7-6.2-2.2c-1.4-1.4-2.2-3.5-2.2-6.1
				v-17.2h-5.1v-3.2h5.1v-6.2h3.8v6.2h8.7v3.2h-8.7v17c0,1.7,0.4,3,1.3,3.9c0.8,0.9,2.1,1.3,3.7,1.3c0.8,0,1.6-0.1,2.3-0.4
				c0.7-0.3,1.4-0.6,1.9-1.1L136.9,1294.1z"/>
			<path d="M143.9,1260.4c-0.5-0.5-0.8-1.2-0.8-1.9c0-0.7,0.3-1.4,0.8-1.9c0.5-0.5,1.2-0.8,2-0.8c0.8,0,1.5,0.3,2,0.8
				c0.5,0.5,0.8,1.1,0.8,1.9c0,0.8-0.3,1.5-0.8,2c-0.5,0.5-1.2,0.8-2,0.8C145.1,1261.2,144.4,1260.9,143.9,1260.4z M143.9,1267.4
				h3.8v28.5h-3.8V1267.4z"/>
			<path d="M156.4,1279.5h14.2v3.4h-14.2V1279.5z"/>
			<path d="M184,1261.4v14.9h19.6v3.5H184v16.1h-4V1258h26v3.5H184z"/>
			<path d="M213.4,1255.7h3.8v40.2h-3.8V1255.7z"/>
			<path d="M246.5,1270c2,1.9,3,4.6,3,8.3v17.7h-3.7v-4.4c-0.9,1.5-2.1,2.6-3.8,3.5c-1.7,0.8-3.7,1.2-6,1.2c-3.2,0-5.7-0.8-7.6-2.3
				c-1.9-1.5-2.8-3.5-2.8-6c0-2.4,0.9-4.4,2.6-5.8c1.8-1.5,4.5-2.2,8.4-2.2h9v-1.7c0-2.5-0.7-4.3-2.1-5.6c-1.4-1.3-3.4-1.9-6-1.9
				c-1.8,0-3.5,0.3-5.2,0.9c-1.7,0.6-3.1,1.4-4.3,2.5l-1.7-2.9c1.4-1.2,3.2-2.2,5.2-2.8c2-0.7,4.2-1,6.4-1
				C241.7,1267.2,244.5,1268.1,246.5,1270z M242.2,1291.6c1.6-1,2.7-2.4,3.5-4.3v-4.7h-8.9c-4.9,0-7.3,1.7-7.3,5.1
				c0,1.7,0.6,3,1.9,3.9c1.3,1,3,1.4,5.3,1.4C238.8,1293.1,240.6,1292.6,242.2,1291.6z"/>
			<path d="M260.9,1295.1c-2.1-0.7-3.8-1.5-5-2.5l1.7-3c1.2,0.9,2.7,1.7,4.5,2.3c1.8,0.6,3.7,0.9,5.6,0.9c2.6,0,4.5-0.4,5.8-1.2
				c1.2-0.8,1.9-2,1.9-3.4c0-1-0.3-1.9-1-2.5c-0.7-0.6-1.6-1-2.6-1.4c-1-0.3-2.4-0.6-4.2-0.9c-2.3-0.4-4.2-0.9-5.6-1.3
				c-1.4-0.5-2.6-1.2-3.6-2.3c-1-1.1-1.5-2.6-1.5-4.5c0-2.4,1-4.3,3-5.8c2-1.5,4.7-2.3,8.3-2.3c1.8,0,3.7,0.2,5.5,0.7
				s3.4,1.1,4.5,1.9l-1.7,3.1c-2.3-1.6-5.1-2.4-8.4-2.4c-2.5,0-4.3,0.4-5.5,1.3c-1.2,0.9-1.9,2-1.9,3.4c0,1.1,0.4,1.9,1.1,2.6
				c0.7,0.6,1.6,1.1,2.6,1.4c1,0.3,2.5,0.6,4.3,0.9c2.3,0.4,4.1,0.9,5.5,1.3c1.4,0.4,2.5,1.2,3.5,2.2c1,1,1.5,2.5,1.5,4.3
				c0,2.5-1,4.5-3.1,5.9c-2.1,1.5-5,2.2-8.6,2.2C265.3,1296.1,263.1,1295.8,260.9,1295.1z"/>
			<path d="M309.5,1270.3c2.1,2.1,3.2,5.1,3.2,9.1v16.5h-3.8v-16.1c0-3-0.7-5.2-2.2-6.8c-1.5-1.6-3.6-2.3-6.3-2.3
				c-3.1,0-5.5,0.9-7.3,2.7c-1.8,1.8-2.7,4.3-2.7,7.6v14.9h-3.8v-40.2h3.8v16.7c1-1.7,2.5-2.9,4.3-3.8s4-1.4,6.3-1.4
				C304.5,1267.2,307.3,1268.2,309.5,1270.3z"/>
			<path d="M390.1,1258l-12.8,37.9h-4.2l-11.1-32.3l-11.2,32.3h-4.2l-12.8-37.9h4.1l10.9,32.6l11.3-32.6h3.7l11.2,32.8l11.1-32.8
				H390.1z"/>
			<path d="M420.4,1270.3c2.1,2.1,3.2,5.1,3.2,9.1v16.5h-3.8v-16.1c0-3-0.7-5.2-2.2-6.8c-1.5-1.6-3.6-2.3-6.3-2.3
				c-3.1,0-5.5,0.9-7.3,2.7c-1.8,1.8-2.7,4.3-2.7,7.6v14.9h-3.8v-40.2h3.8v16.7c1-1.7,2.5-2.9,4.3-3.8s4-1.4,6.3-1.4
				C415.5,1267.2,418.3,1268.2,420.4,1270.3z"/>
			<path d="M434,1260.4c-0.5-0.5-0.8-1.2-0.8-1.9c0-0.7,0.3-1.4,0.8-1.9c0.5-0.5,1.2-0.8,2-0.8c0.8,0,1.5,0.3,2,0.8
				c0.5,0.5,0.8,1.1,0.8,1.9c0,0.8-0.3,1.5-0.8,2c-0.5,0.5-1.2,0.8-2,0.8C435.2,1261.2,434.6,1260.9,434,1260.4z M434.1,1267.4h3.8
				v28.5h-3.8V1267.4z"/>
			<path d="M463.6,1294.1c-0.7,0.6-1.6,1.1-2.7,1.5c-1.1,0.3-2.2,0.5-3.3,0.5c-2.7,0-4.7-0.7-6.2-2.2c-1.4-1.4-2.2-3.5-2.2-6.1
				v-17.2h-5.1v-3.2h5.1v-6.2h3.8v6.2h8.7v3.2h-8.7v17c0,1.7,0.4,3,1.3,3.9c0.8,0.9,2.1,1.3,3.7,1.3c0.8,0,1.6-0.1,2.3-0.4
				c0.7-0.3,1.4-0.6,1.9-1.1L463.6,1294.1z"/>
			<path d="M494.4,1282.8h-23.8c0.2,3,1.4,5.4,3.4,7.2c2.1,1.8,4.7,2.7,7.8,2.7c1.8,0,3.4-0.3,4.9-0.9c1.5-0.6,2.8-1.6,3.8-2.8
				l2.2,2.5c-1.3,1.5-2.8,2.7-4.7,3.5c-1.9,0.8-4,1.2-6.3,1.2c-2.9,0-5.5-0.6-7.8-1.9c-2.3-1.2-4-3-5.3-5.2
				c-1.3-2.2-1.9-4.7-1.9-7.5c0-2.8,0.6-5.3,1.8-7.5c1.2-2.2,2.9-3.9,5-5.1c2.1-1.2,4.5-1.8,7.1-1.8c2.6,0,5,0.6,7.1,1.8
				c2.1,1.2,3.7,2.9,4.9,5.1c1.2,2.2,1.8,4.7,1.8,7.5L494.4,1282.8z M473.7,1273.1c-1.9,1.8-2.9,4-3.2,6.8h20.2
				c-0.3-2.8-1.3-5.1-3.2-6.8c-1.9-1.8-4.2-2.6-7-2.6C477.9,1270.5,475.6,1271.4,473.7,1273.1z"/>
			<path d="M70.1,1346.3h7v5.9h-7.7l-1.1,8.7h-6.1l1.1-8.7h-8l-1.1,8.7h-6.1l1.1-8.7h-7.1v-5.9H50l1.1-8.8H44v-5.9h7.8l1.1-8.7H59
				l-1.1,8.7h8l1.1-8.7H73l-1.1,8.7h7l0.1,5.9h-7.8L70.1,1346.3z M64,1346.3l1.1-8.8h-8l-1.1,8.8H64z"/>
			<path d="M93.3,1330v10h17.5v7H93.3v13.8h-8.8v-37.9h28.6v7H93.3z"/>
			<path d="M124,1359.2c-2.5-1.6-4.4-3.8-5.8-6.7c-1.4-2.9-2.1-6.5-2.1-10.5s0.7-7.6,2.1-10.5c1.4-2.9,3.3-5.2,5.8-6.7
				c2.5-1.6,5.3-2.3,8.4-2.3c3.1,0,5.9,0.8,8.4,2.3c2.5,1.6,4.4,3.8,5.8,6.7c1.4,2.9,2.1,6.5,2.1,10.5s-0.7,7.6-2.1,10.5
				c-1.4,2.9-3.3,5.2-5.8,6.7c-2.5,1.6-5.3,2.3-8.4,2.3C129.2,1361.5,126.4,1360.7,124,1359.2z M137.8,1351.1c1.3-2,2-5.1,2-9.2
				s-0.7-7.2-2-9.2c-1.3-2-3.1-3-5.4-3c-2.3,0-4.1,1-5.4,3c-1.3,2-2,5.1-2,9.2s0.7,7.2,2,9.2c1.3,2,3.1,3,5.4,3
				C134.7,1354.1,136.5,1353.1,137.8,1351.1z"/>
			<path d="M164,1330v10h17.5v7H164v13.8h-8.8v-37.9h28.6v7H164z"/>
			<path d="M211.6,1340.4c2.5,2.1,3.8,5,3.8,8.6c0,2.3-0.6,4.4-1.7,6.3c-1.2,1.9-2.9,3.4-5.3,4.5s-5.3,1.7-8.7,1.7
				c-2.7,0-5.3-0.4-7.9-1.1c-2.6-0.7-4.8-1.7-6.6-3l3.5-6.7c1.4,1.1,3.1,1.9,5,2.5c1.9,0.6,3.8,0.9,5.8,0.9c2.2,0,3.9-0.4,5.2-1.3
				c1.3-0.9,1.9-2.1,1.9-3.6c0-1.6-0.7-2.9-2-3.7c-1.3-0.8-3.6-1.2-6.8-1.2H188l1.9-21.3h23.1v7h-15.8l-0.6,7.2h3.1
				C205.1,1337.2,209,1338.2,211.6,1340.4z"/>
			<path d="M230.1,1330v10h17.5v7h-17.5v13.8h-8.8v-37.9H250v7H230.1z"/>
			<path d="M283.8,1322.9v5.7l-14.1,32.2h-9.5l13.6-30.8h-12.6v6.2h-7.8v-13.3H283.8z"/>
		</g>
	</g>
</g>
<g>
</g>
<g>
</g>
<g>
</g>
<g>
</g>
<g>
</g>
<g>
</g>
<g>
</g>
<g>
</g>
<g>
</g>
<g>
</g>
<g>
</g>
<g>
</g>
<g>
</g>
<g>
</g>
<g>
</g>
</svg>
