<?xml version="1.0" encoding="utf-8"?>
<!-- Generator: Adobe Illustrator 26.3.1, SVG Export Plug-In . SVG Version: 6.00 Build 0)  -->
<svg version="1.1" id="Layer_1" xmlns="http://www.w3.org/2000/svg" xmlns:xlink="http://www.w3.org/1999/xlink" x="0px" y="0px"
	 viewBox="0 0 25.3 25.4" style="enable-background:new 0 0 25.3 25.4;" xml:space="preserve">
<style type="text/css">
	.st0{fill:#EBEFF2;}
	.st1{fill:#FFA656;}
</style>
<path class="st0" d="M17.1,7.9h-1.8c-0.3,0-0.6-0.3-0.6-0.6c0-0.1,0-0.1,0-0.2l0,0l0.9-2.4l0,0c0-0.1,0-0.1,0-0.2
	c0-0.3-0.3-0.6-0.6-0.6c0,0-6.9,0-6.9,0c-4.1,0-7.4,3.3-7.4,7.4c0,4.1,3.3,7.4,7.4,7.4H10c0.3,0,0.6,0.3,0.6,0.6c0,0.1,0,0.1,0,0.2
	l0,0l-0.9,2.4l0,0c0,0.1,0,0.1,0,0.2c0,0.3,0.3,0.6,0.6,0.6h6.9c4.1,0,7.4-3.3,7.4-7.4S21.2,7.9,17.1,7.9z M17.1,18.6
	c0,0-5.5,0-5.5,0c-0.3,0-0.6-0.3-0.6-0.6c0-0.1,0-0.1,0-0.2l0,0l0.2-0.6l0,0c0.1-0.2,0.1-0.4,0.1-0.7c0-1.1-0.9-2-2-2H8.2
	c-1.9,0-3.4-1.5-3.4-3.4c0-1.9,1.5-3.4,3.4-3.4h5.5c0.3,0,0.6,0.3,0.6,0.6c0,0.1,0,0.1,0,0.2l0,0l-0.2,0.5c0,0-0.1,0.4-0.1,0.7
	c0,1.1,0.9,2,2,2h1.2c1.9,0,3.4,1.5,3.4,3.4C20.5,17.1,19,18.6,17.1,18.6z"/>
</svg>
