<?xml version="1.0" encoding="utf-8"?>
<!-- Generator: Adobe Illustrator 26.3.1, SVG Export Plug-In . SVG Version: 6.00 Build 0)  -->
<svg version="1.1" id="Layer_1" xmlns="http://www.w3.org/2000/svg" xmlns:xlink="http://www.w3.org/1999/xlink" x="0px" y="0px"
	 viewBox="0 0 1206 384" style="enable-background:new 0 0 1206 384;" xml:space="preserve">
<style type="text/css">
	.st0{fill:#1A6979;}
	.st1{fill:#8CB3C4;}
</style>
<g>
	<g>
		<path class="st0" d="M684.3,169.4v10.8h-45v-58.1h43.9v10.8h-30.5v12.6h27V156h-27v13.4H684.3z"/>
		<path class="st0" d="M747.9,180.2l-0.1-34.9l-17.1,28.7h-6.1l-17-28v34.1H695v-58.1h11.1l21.7,36.1l21.4-36.1h11l0.2,58.1H747.9z"
			/>
		<path class="st0" d="M812.9,124.7c3.8,1.7,6.7,4.1,8.8,7.3c2,3.2,3.1,6.9,3.1,11.2c0,4.3-1,8-3.1,11.2c-2,3.2-5,5.6-8.8,7.3
			c-3.8,1.7-8.3,2.5-13.4,2.5h-11.7v16h-13.4v-58.1h25.2C804.6,122.1,809.1,123,812.9,124.7z M807.9,150.6c2.1-1.7,3.2-4.2,3.2-7.4
			c0-3.3-1.1-5.8-3.2-7.5c-2.1-1.7-5.2-2.6-9.2-2.6h-11v20.2h11C802.7,153.3,805.8,152.4,807.9,150.6z"/>
		<path class="st0" d="M862.1,159.7v20.6h-13.4v-20.8l-22.5-37.4h14.3L856,148l15.5-25.8h13.2L862.1,159.7z"/>
		<path class="st0" d="M926.8,180.2l-11.2-16.2h-0.7h-11.7v16.2h-13.4v-58.1h25.1c5.1,0,9.6,0.9,13.4,2.6c3.8,1.7,6.7,4.1,8.8,7.3
			c2,3.2,3.1,6.9,3.1,11.2c0,4.3-1,8-3.1,11.2c-2.1,3.1-5,5.5-8.8,7.2l13,18.7H926.8z M923.4,135.7c-2.1-1.7-5.2-2.6-9.2-2.6h-11
			v20.3h11c4,0,7.1-0.9,9.2-2.7c2.1-1.8,3.2-4.3,3.2-7.5C926.5,140,925.5,137.5,923.4,135.7z"/>
		<path class="st0" d="M995.8,169.4v10.8h-45v-58.1h43.9v10.8h-30.5v12.6h27V156h-27v13.4H995.8z"/>
		<path class="st0" d="M1044.7,167.8h-27l-5.1,12.5h-13.8l25.9-58.1h13.3l26,58.1h-14.1L1044.7,167.8z M1040.5,157.6l-9.2-22.2
			l-9.2,22.2H1040.5z"/>
		<path class="st0" d="M1123.3,122.1v58.1h-11l-29-35.3v35.3H1070v-58.1h11.1l28.9,35.3v-35.3H1123.3z"/>
		<path class="st0" d="M639.3,221.7h13.4v58.1h-13.4V221.7z"/>
		<path class="st0" d="M719.8,221.7v58.1h-11l-29-35.3v35.3h-13.3v-58.1h11.1l28.9,35.3v-35.3H719.8z"/>
		<path class="st0" d="M745.7,232.7h-18.6v-11h50.6v11h-18.6v47.1h-13.4V232.7z"/>
		<path class="st0" d="M829.9,269.1v10.8h-45v-58.1h43.9v10.8h-30.5v12.6h27v10.5h-27v13.4H829.9z"/>
		<path class="st0" d="M879.7,249.9H892v23.6c-3.2,2.4-6.8,4.2-11,5.5c-4.2,1.3-8.3,1.9-12.5,1.9c-6,0-11.5-1.3-16.3-3.9
			c-4.8-2.6-8.6-6.1-11.3-10.7c-2.7-4.6-4.1-9.7-4.1-15.5c0-5.8,1.4-10.9,4.1-15.5c2.7-4.6,6.5-8.1,11.4-10.7
			c4.9-2.6,10.3-3.9,16.4-3.9c5.1,0,9.7,0.9,13.9,2.6c4.2,1.7,7.6,4.2,10.5,7.5l-8.6,8c-4.1-4.4-9.2-6.6-15-6.6
			c-3.7,0-7,0.8-9.9,2.3c-2.9,1.5-5.1,3.7-6.7,6.6c-1.6,2.8-2.4,6.1-2.4,9.7c0,3.6,0.8,6.8,2.4,9.6c1.6,2.8,3.8,5,6.7,6.6
			c2.8,1.6,6.1,2.4,9.8,2.4c3.9,0,7.4-0.8,10.5-2.5V249.9z"/>
		<path class="st0" d="M941.5,279.8l-11.2-16.2h-0.7h-11.7v16.2h-13.4v-58.1h25.1c5.1,0,9.6,0.9,13.4,2.6c3.8,1.7,6.7,4.1,8.8,7.3
			c2,3.2,3.1,6.9,3.1,11.2c0,4.3-1,8-3.1,11.2c-2.1,3.1-5,5.5-8.8,7.2l13,18.7H941.5z M938.1,235.3c-2.1-1.7-5.2-2.6-9.2-2.6h-11
			V253h11c4,0,7.1-0.9,9.2-2.7c2.1-1.8,3.2-4.3,3.2-7.5C941.2,239.6,940.2,237.1,938.1,235.3z"/>
		<path class="st0" d="M1003.7,267.4h-27l-5.1,12.5h-13.8l25.9-58.1H997l26,58.1h-14.1L1003.7,267.4z M999.5,257.2l-9.2-22.2
			l-9.2,22.2H999.5z"/>
		<path class="st0" d="M1038.2,232.7h-18.6v-11h50.6v11h-18.6v47.1h-13.4V232.7z"/>
		<path class="st0" d="M1122.4,269.1v10.8h-45v-58.1h43.9v10.8h-30.5v12.6h27v10.5h-27v13.4H1122.4z"/>
		<path class="st0" d="M1133.1,221.7h26.4c6.3,0,11.9,1.2,16.7,3.6c4.8,2.4,8.6,5.8,11.3,10.2c2.7,4.4,4,9.5,4,15.3
			c0,5.8-1.3,10.9-4,15.3c-2.7,4.4-6.4,7.8-11.3,10.2c-4.8,2.4-10.4,3.6-16.7,3.6h-26.4V221.7z M1158.9,268.8
			c5.8,0,10.4-1.6,13.9-4.9c3.5-3.2,5.2-7.6,5.2-13.2c0-5.5-1.7-9.9-5.2-13.2c-3.5-3.2-8.1-4.9-13.9-4.9h-12.3v36H1158.9z"/>
		<path class="st0" d="M642.7,357.2c-3.2-1.1-5.7-2.5-7.5-4.2l2.4-5.1c1.7,1.6,4,2.8,6.7,3.8c2.7,1,5.5,1.5,8.4,1.5
			c3.8,0,6.6-0.6,8.5-1.9c1.9-1.3,2.8-3,2.8-5.1c0-1.6-0.5-2.8-1.5-3.8c-1-1-2.3-1.7-3.8-2.3c-1.5-0.5-3.6-1.1-6.4-1.8
			c-3.4-0.8-6.2-1.7-8.3-2.5c-2.1-0.8-3.9-2.1-5.4-3.8c-1.5-1.7-2.3-4-2.3-7c0-2.4,0.6-4.6,1.9-6.6c1.3-2,3.2-3.5,5.8-4.7
			c2.6-1.2,5.9-1.8,9.7-1.8c2.7,0,5.4,0.3,8,1c2.6,0.7,4.9,1.7,6.7,3l-2.2,5.2c-1.9-1.2-4-2.1-6.1-2.8c-2.2-0.6-4.3-0.9-6.4-0.9
			c-3.7,0-6.5,0.7-8.3,2c-1.9,1.4-2.8,3.1-2.8,5.2c0,1.6,0.5,2.8,1.6,3.8c1,1,2.3,1.7,3.9,2.3s3.6,1.1,6.3,1.7
			c3.4,0.8,6.2,1.7,8.3,2.5c2.1,0.8,3.9,2.1,5.4,3.8s2.3,4,2.3,6.9c0,2.4-0.7,4.6-2,6.6c-1.3,2-3.3,3.6-5.9,4.7
			c-2.7,1.2-5.9,1.7-9.8,1.7C649.2,358.8,645.9,358.3,642.7,357.2z"/>
		<path class="st0" d="M688.1,355.8c-3.7-2-6.6-4.8-8.7-8.4c-2.1-3.6-3.2-7.6-3.2-12c0-4.4,1.1-8.4,3.2-12c2.1-3.6,5-6.4,8.7-8.4
			c3.7-2,7.9-3,12.5-3c4.6,0,8.7,1,12.4,3c3.7,2,6.6,4.8,8.7,8.4c2.1,3.6,3.1,7.5,3.1,12s-1,8.4-3.1,12c-2.1,3.6-5,6.3-8.7,8.4
			c-3.7,2-7.8,3-12.4,3C695.9,358.8,691.8,357.8,688.1,355.8z M709.6,350.7c2.7-1.5,4.8-3.6,6.3-6.3c1.5-2.7,2.3-5.7,2.3-9
			c0-3.3-0.8-6.3-2.3-9c-1.5-2.7-3.7-4.8-6.3-6.3c-2.7-1.5-5.7-2.3-9.1-2.3c-3.4,0-6.4,0.8-9.1,2.3c-2.7,1.5-4.9,3.6-6.4,6.3
			c-1.5,2.7-2.3,5.7-2.3,9c0,3.3,0.8,6.3,2.3,9c1.5,2.7,3.7,4.8,6.4,6.3c2.7,1.5,5.8,2.3,9.1,2.3C703.9,353,706.9,352.2,709.6,350.7
			z"/>
		<path class="st0" d="M734.8,312.5h6.5v40.1h24.8v5.7h-31.3V312.5z"/>
		<path class="st0" d="M777.5,353.6c-3.4-3.5-5.1-8.5-5.1-15v-26h6.5v25.7c0,9.8,4.3,14.7,12.9,14.7c4.2,0,7.4-1.2,9.6-3.6
			c2.2-2.4,3.3-6.1,3.3-11.1v-25.7h6.3v26c0,6.6-1.7,11.6-5.1,15.1s-8.1,5.2-14.2,5.2S780.9,357,777.5,353.6z"/>
		<path class="st0" d="M832.8,318.2h-15.7v-5.7h37.8v5.7h-15.7v40.1h-6.5V318.2z"/>
		<path class="st0" d="M862,312.5h6.5v45.7H862V312.5z"/>
		<path class="st0" d="M890.5,355.8c-3.7-2-6.6-4.8-8.7-8.4c-2.1-3.6-3.2-7.6-3.2-12c0-4.4,1.1-8.4,3.2-12c2.1-3.6,5-6.4,8.7-8.4
			c3.7-2,7.9-3,12.5-3c4.6,0,8.7,1,12.4,3c3.7,2,6.6,4.8,8.7,8.4c2.1,3.6,3.1,7.5,3.1,12s-1,8.4-3.1,12c-2.1,3.6-5,6.3-8.7,8.4
			c-3.7,2-7.8,3-12.4,3C898.3,358.8,894.2,357.8,890.5,355.8z M912,350.7c2.7-1.5,4.8-3.6,6.3-6.3c1.5-2.7,2.3-5.7,2.3-9
			c0-3.3-0.8-6.3-2.3-9c-1.5-2.7-3.7-4.8-6.3-6.3c-2.7-1.5-5.7-2.3-9.1-2.3c-3.4,0-6.4,0.8-9.1,2.3c-2.7,1.5-4.9,3.6-6.4,6.3
			s-2.3,5.7-2.3,9c0,3.3,0.8,6.3,2.3,9s3.7,4.8,6.4,6.3c2.7,1.5,5.8,2.3,9.1,2.3C906.3,353,909.3,352.2,912,350.7z"/>
		<path class="st0" d="M976.5,312.5v45.7h-5.4l-27.4-34.1v34.1h-6.5v-45.7h5.4l27.4,34.1v-34.1H976.5z"/>
		<path class="st0" d="M993.6,357.2c-3.2-1.1-5.7-2.5-7.5-4.2l2.4-5.1c1.7,1.6,4,2.8,6.7,3.8c2.7,1,5.5,1.5,8.4,1.5
			c3.8,0,6.6-0.6,8.5-1.9s2.8-3,2.8-5.1c0-1.6-0.5-2.8-1.5-3.8s-2.3-1.7-3.8-2.3c-1.5-0.5-3.6-1.1-6.4-1.8c-3.4-0.8-6.2-1.7-8.3-2.5
			c-2.1-0.8-3.9-2.1-5.4-3.8c-1.5-1.7-2.3-4-2.3-7c0-2.4,0.6-4.6,1.9-6.6c1.3-2,3.2-3.5,5.8-4.7c2.6-1.2,5.9-1.8,9.7-1.8
			c2.7,0,5.4,0.3,8,1c2.6,0.7,4.9,1.7,6.7,3l-2.2,5.2c-1.9-1.2-4-2.1-6.1-2.8c-2.2-0.6-4.3-0.9-6.4-0.9c-3.7,0-6.5,0.7-8.3,2
			c-1.9,1.4-2.8,3.1-2.8,5.2c0,1.6,0.5,2.8,1.6,3.8s2.3,1.7,3.9,2.3c1.5,0.5,3.6,1.1,6.3,1.7c3.4,0.8,6.2,1.7,8.3,2.5
			c2.1,0.8,3.9,2.1,5.4,3.8c1.5,1.7,2.3,4,2.3,6.9c0,2.4-0.7,4.6-2,6.6c-1.3,2-3.3,3.6-5.9,4.7c-2.7,1.2-5.9,1.7-9.8,1.7
			C1000.2,358.8,996.8,358.3,993.6,357.2z"/>
	</g>
	<path class="st1" d="M308.1,47c0-11,4-20.2,12-27.5c8-7.3,18.7-11,32.2-11c11.7,0,21.2,3,28.4,9c7.2,6,10.8,13.7,10.8,23
		c0,11.7-4.1,21.4-12.2,28.9c-8.1,7.5-18.9,11.3-32.3,11.3c-12,0-21.4-3.3-28.4-9.9C311.6,64.3,308.1,56.3,308.1,47z M303.8,102
		L265,297.1h67.9L372.1,102H303.8z M530.9,188.6c-7.4-3.6-15.5-6.3-24.3-8.1c-8.7-1.8-16.9-3.4-24.4-4.9c-7.5-1.4-13.8-3.1-18.7-5
		c-4.9-1.9-7.4-4.8-7.4-8.6c0-3.8,2.4-7.1,7.2-9.9c4.8-2.8,12.8-4.1,24.1-4.1c8.6,0,18,1,28.2,2.9c10.2,1.9,20.1,5.8,29.6,11.5
		l24.1-47.8c-9.6-5-20.8-8.9-33.8-11.7c-12.9-2.8-26.4-4.1-40.2-4.1c-19.6,0-37.3,2.7-53,8.1c-15.7,5.4-28.1,13.4-37.2,23.9
		c-9.1,10.5-13.7,23.6-13.7,39.2c0,11,2.4,19.8,7.2,26.4c4.8,6.6,11,11.7,18.7,15.5c7.7,3.7,15.8,6.5,24.4,8.3s16.8,3.3,24.4,4.5
		c7.7,1.2,14,2.7,18.9,4.5c4.9,1.8,7.4,4.6,7.4,8.4c0,4.1-2.4,7.5-7.2,10.2c-4.8,2.8-12.8,4.1-24.1,4.1c-11.5,0-23.4-1.6-35.6-4.7
		c-12.2-3.1-22.9-7.7-32-13.7l-24.8,47.8c8.4,5.3,20.2,9.8,35.6,13.5c15.3,3.7,31.5,5.6,48.5,5.6c19.6,0,37.3-2.6,52.8-7.7
		c15.6-5.1,28-13,37.2-23.5c9.2-10.5,13.8-23.6,13.8-39.2c0-11-2.5-19.8-7.4-26.2C544.5,197.2,538.4,192.2,530.9,188.6z
		 M138.5,249.2c-30-7.8-34.5-29-34-33.5c0,0,0,0,0,0c15.7,5,33.2,8.3,52.4,8.3c90.5,0,134.6-87,60.6-115.9
		c-74-28.9-127.5,18.7-127.5,18.7c13.2,15.8,28.6,23.4,47.6,30.8c25.7-14,52.3-9.5,55.6,0.5c1.5,9-12.4,17.6-42.1,15.9
		c-55.1-2.7-89.2-51.9-89.2-51.9l-48.8,30.4c0,0,12.7,17,36.2,34.4c0,0,0,0,0,0s-30.8,102,93,113.1c57.5,4.2,98-32.2,98-32.2
		l-43.8-31.1C196.3,236.7,168.4,257,138.5,249.2z"/>
</g>
</svg>
