<?xml version="1.0" encoding="utf-8"?>
<!-- Generator: Adobe Illustrator 26.3.1, SVG Export Plug-In . SVG Version: 6.00 Build 0)  -->
<svg version="1.1" id="Layer_1" xmlns="http://www.w3.org/2000/svg" xmlns:xlink="http://www.w3.org/1999/xlink" x="0px" y="0px"
	 viewBox="0 0 293.2 91.8" style="enable-background:new 0 0 293.2 91.8;" xml:space="preserve">
<style type="text/css">
	.st0{fill:#FFFFFF;}
</style>
<g>
	<g>
		<g>
			<path class="st0" d="M116.3,68.9l-2.5,2.6v3.6h-2V61.3h2V69l7.5-7.7h2.2l-5.9,6.2l6.3,7.6h-2.3L116.3,68.9z"/>
			<path class="st0" d="M127.9,61.3h2v13.8h-2V61.3z"/>
			<path class="st0" d="M138.7,63H134v-1.7h11.4V63h-4.7v12.1h-1.9V63z"/>
			<path class="st0" d="M151.7,74.3c-1.1-0.6-2-1.4-2.6-2.5c-0.6-1.1-0.9-2.3-0.9-3.6c0-1.3,0.3-2.5,0.9-3.6
				c0.6-1.1,1.5-1.9,2.6-2.5c1.1-0.6,2.4-0.9,3.7-0.9c1.1,0,2.1,0.2,2.9,0.5c0.9,0.4,1.7,0.9,2.3,1.6l-1.3,1.2
				c-1-1.1-2.3-1.6-3.9-1.6c-1,0-1.9,0.2-2.8,0.7c-0.8,0.5-1.5,1.1-1.9,1.9c-0.5,0.8-0.7,1.7-0.7,2.7c0,1,0.2,1.9,0.7,2.7
				c0.5,0.8,1.1,1.4,1.9,1.9c0.8,0.5,1.7,0.7,2.8,0.7c1.5,0,2.8-0.6,3.9-1.7l1.3,1.2c-0.6,0.7-1.4,1.2-2.3,1.6
				c-0.9,0.4-1.9,0.6-3,0.6C154,75.2,152.8,74.9,151.7,74.3z"/>
			<path class="st0" d="M177.3,61.3v13.8h-2v-6.1h-7.9v6.1h-2V61.3h2v5.9h7.9v-5.9H177.3z"/>
			<path class="st0" d="M193.3,73.3v1.7h-10V61.3h9.7V63h-7.7v4.2h6.9v1.7h-6.9v4.4H193.3z"/>
			<path class="st0" d="M210.3,61.3v13.8h-1.6l-8.3-10.3v10.3h-2V61.3h1.6l8.3,10.3V61.3H210.3z"/>
			<path class="st0" d="M217.4,74.7c-1-0.3-1.7-0.7-2.3-1.2l0.7-1.5c0.5,0.5,1.2,0.9,2,1.1c0.8,0.3,1.7,0.4,2.5,0.4
				c1.1,0,2-0.2,2.6-0.6c0.6-0.4,0.8-0.9,0.8-1.5c0-0.5-0.2-0.9-0.5-1.2c-0.3-0.3-0.7-0.5-1.1-0.7c-0.5-0.2-1.1-0.3-1.9-0.5
				c-1-0.2-1.9-0.5-2.5-0.7c-0.6-0.2-1.2-0.6-1.6-1.1s-0.7-1.2-0.7-2.1c0-0.7,0.2-1.4,0.6-2c0.4-0.6,1-1.1,1.8-1.4
				c0.8-0.4,1.8-0.5,2.9-0.5c0.8,0,1.6,0.1,2.4,0.3c0.8,0.2,1.5,0.5,2,0.9l-0.6,1.6c-0.6-0.4-1.2-0.6-1.8-0.8
				c-0.7-0.2-1.3-0.3-1.9-0.3c-1.1,0-1.9,0.2-2.5,0.6c-0.6,0.4-0.8,0.9-0.8,1.6c0,0.5,0.2,0.9,0.5,1.1c0.3,0.3,0.7,0.5,1.2,0.7
				c0.5,0.2,1.1,0.3,1.9,0.5c1,0.2,1.9,0.5,2.5,0.7c0.6,0.2,1.2,0.6,1.6,1.1c0.5,0.5,0.7,1.2,0.7,2.1c0,0.7-0.2,1.4-0.6,2
				c-0.4,0.6-1,1.1-1.8,1.4c-0.8,0.3-1.8,0.5-2.9,0.5C219.4,75.2,218.4,75.1,217.4,74.7z"/>
		</g>
		<g>
			<path class="st0" d="M111.8,17.2h8.4v29.6h18.3v6.9h-26.8V17.2z"/>
			<path class="st0" d="M155.3,51.9c-3-1.6-5.4-3.9-7.1-6.8c-1.7-2.9-2.6-6.1-2.6-9.7c0-3.6,0.9-6.8,2.6-9.7
				c1.7-2.9,4.1-5.1,7.1-6.8c3-1.6,6.5-2.5,10.2-2.5c3.8,0,7.2,0.8,10.2,2.5c3,1.6,5.4,3.9,7.1,6.8c1.7,2.9,2.6,6.1,2.6,9.7
				c0,3.6-0.9,6.8-2.6,9.7c-1.7,2.9-4.1,5.1-7.1,6.8c-3,1.6-6.4,2.5-10.2,2.5C161.8,54.3,158.3,53.5,155.3,51.9z M171.4,45.7
				c1.7-1,3.1-2.4,4.1-4.1c1-1.8,1.5-3.8,1.5-6c0-2.3-0.5-4.3-1.5-6c-1-1.8-2.4-3.2-4.1-4.1c-1.7-1-3.7-1.5-5.8-1.5
				c-2.2,0-4.1,0.5-5.8,1.5c-1.7,1-3.1,2.4-4.1,4.1c-1,1.8-1.5,3.8-1.5,6c0,2.3,0.5,4.3,1.5,6c1,1.8,2.4,3.2,4.1,4.1
				c1.7,1,3.7,1.5,5.8,1.5C167.7,47.2,169.7,46.7,171.4,45.7z"/>
			<path class="st0" d="M201.1,50c-2.9-2.9-4.4-7-4.4-12.4V17.2h8.4v20.1c0,6.5,2.7,9.8,8.1,9.8c2.6,0,4.7-0.8,6-2.4
				c1.4-1.6,2.1-4.1,2.1-7.4V17.2h8.3v20.4c0,5.4-1.5,9.5-4.4,12.4c-2.9,2.9-7,4.3-12.2,4.3C208.1,54.3,204,52.9,201.1,50z"/>
			<path class="st0" d="M243.4,17.2h8.4v36.5h-8.4V17.2z"/>
			<path class="st0" d="M269.4,53.2c-2.7-0.8-4.9-1.8-6.5-3.1l2.9-6.4c1.6,1.1,3.4,2.1,5.6,2.8c2.2,0.7,4.3,1,6.5,1
				c2.4,0,4.2-0.4,5.3-1.1c1.1-0.7,1.7-1.7,1.7-2.8c0-0.9-0.3-1.6-1-2.2c-0.7-0.6-1.5-1-2.6-1.4c-1.1-0.3-2.5-0.7-4.3-1.1
				c-2.8-0.7-5.1-1.3-6.8-2c-1.8-0.7-3.3-1.7-4.6-3.2c-1.3-1.5-1.9-3.4-1.9-5.8c0-2.1,0.6-4,1.7-5.8c1.1-1.7,2.9-3.1,5.2-4.1
				c2.3-1,5.1-1.5,8.5-1.5c2.3,0,4.6,0.3,6.8,0.8c2.2,0.6,4.2,1.4,5.8,2.4l-2.6,6.4c-3.4-1.9-6.7-2.9-10.1-2.9
				c-2.4,0-4.1,0.4-5.2,1.1c-1.1,0.8-1.7,1.8-1.7,3c0,1.3,0.7,2.2,2,2.8c1.3,0.6,3.3,1.2,6,1.8c2.8,0.7,5.1,1.3,6.8,2
				c1.8,0.7,3.3,1.7,4.6,3.1c1.3,1.4,1.9,3.4,1.9,5.8c0,2.1-0.6,4-1.7,5.7c-1.2,1.7-2.9,3.1-5.2,4.1c-2.3,1-5.2,1.5-8.5,1.5
				C274.8,54.3,272,54,269.4,53.2z"/>
		</g>
	</g>
	<path class="st0" d="M0,0v91.8h91.8V0H0z M9.8,72.6V31.8l8.9-8.9h5.3v40.8l-8.9,8.9H9.8z M53,74.3l-8.9,8.9H19.2v-5.3l8.9-8.9H53
		V74.3z"/>
</g>
</svg>
