<?xml version="1.0" encoding="utf-8"?>
<!-- Generator: Adobe Illustrator 26.3.1, SVG Export Plug-In . SVG Version: 6.00 Build 0)  -->
<svg version="1.1" id="Layer_1" xmlns="http://www.w3.org/2000/svg" xmlns:xlink="http://www.w3.org/1999/xlink" x="0px" y="0px"
	 viewBox="0 0 98.7 30.9" style="enable-background:new 0 0 98.7 30.9;" xml:space="preserve">
<style type="text/css">
	.st0{fill:#925F38;}
	.st1{fill:#686165;}
	.st2{fill:#382E2B;}
</style>
<g>
	<g>
		<g>
			<path class="st0" d="M39.1,23.2l-0.8,0.9v1.2h-0.7v-4.6h0.7v2.6l2.5-2.6h0.8l-2,2.1l2.1,2.5h-0.8L39.1,23.2z"/>
			<path class="st0" d="M43,20.6h0.7v4.6H43V20.6z"/>
			<path class="st0" d="M46.7,21.2h-1.6v-0.6h3.8v0.6h-1.6v4.1h-0.7V21.2z"/>
			<path class="st0" d="M51,25c-0.4-0.2-0.7-0.5-0.9-0.8c-0.2-0.4-0.3-0.8-0.3-1.2c0-0.4,0.1-0.9,0.3-1.2s0.5-0.6,0.9-0.8
				c0.4-0.2,0.8-0.3,1.3-0.3c0.4,0,0.7,0.1,1,0.2c0.3,0.1,0.6,0.3,0.8,0.5l-0.4,0.4c-0.3-0.4-0.8-0.5-1.3-0.5
				c-0.3,0-0.7,0.1-0.9,0.2c-0.3,0.2-0.5,0.4-0.7,0.6c-0.2,0.3-0.2,0.6-0.2,0.9c0,0.3,0.1,0.6,0.2,0.9c0.2,0.3,0.4,0.5,0.7,0.6
				c0.3,0.2,0.6,0.2,0.9,0.2c0.5,0,1-0.2,1.3-0.6l0.4,0.4c-0.2,0.2-0.5,0.4-0.8,0.5c-0.3,0.1-0.6,0.2-1,0.2
				C51.8,25.3,51.4,25.2,51,25z"/>
			<path class="st0" d="M59.7,20.6v4.6H59v-2.1h-2.7v2.1h-0.7v-4.6h0.7v2H59v-2H59.7z"/>
			<path class="st0" d="M65.1,24.7v0.6h-3.4v-4.6H65v0.6h-2.6v1.4h2.3v0.6h-2.3v1.5H65.1z"/>
			<path class="st0" d="M70.8,20.6v4.6h-0.5l-2.8-3.5v3.5h-0.7v-4.6h0.5l2.8,3.5v-3.5H70.8z"/>
			<path class="st0" d="M73.2,25.2c-0.3-0.1-0.6-0.2-0.8-0.4l0.2-0.5c0.2,0.2,0.4,0.3,0.7,0.4c0.3,0.1,0.6,0.1,0.9,0.1
				c0.4,0,0.7-0.1,0.9-0.2c0.2-0.1,0.3-0.3,0.3-0.5c0-0.2-0.1-0.3-0.2-0.4c-0.1-0.1-0.2-0.2-0.4-0.2c-0.2-0.1-0.4-0.1-0.6-0.2
				c-0.3-0.1-0.6-0.2-0.8-0.3c-0.2-0.1-0.4-0.2-0.5-0.4c-0.2-0.2-0.2-0.4-0.2-0.7c0-0.2,0.1-0.5,0.2-0.7c0.1-0.2,0.3-0.4,0.6-0.5
				c0.3-0.1,0.6-0.2,1-0.2c0.3,0,0.5,0,0.8,0.1c0.3,0.1,0.5,0.2,0.7,0.3l-0.2,0.5c-0.2-0.1-0.4-0.2-0.6-0.3
				c-0.2-0.1-0.4-0.1-0.6-0.1c-0.4,0-0.7,0.1-0.8,0.2c-0.2,0.1-0.3,0.3-0.3,0.5c0,0.2,0.1,0.3,0.2,0.4c0.1,0.1,0.2,0.2,0.4,0.2
				c0.2,0.1,0.4,0.1,0.6,0.2c0.3,0.1,0.6,0.2,0.8,0.3c0.2,0.1,0.4,0.2,0.5,0.4c0.2,0.2,0.2,0.4,0.2,0.7c0,0.2-0.1,0.5-0.2,0.7
				c-0.1,0.2-0.3,0.4-0.6,0.5c-0.3,0.1-0.6,0.2-1,0.2C73.8,25.3,73.5,25.3,73.2,25.2z"/>
		</g>
		<g>
			<path class="st1" d="M37.6,5.8h2.8v10h6.2v2.3h-9V5.8z"/>
			<path class="st1" d="M52.3,17.5c-1-0.5-1.8-1.3-2.4-2.3c-0.6-1-0.9-2.1-0.9-3.3c0-1.2,0.3-2.3,0.9-3.3c0.6-1,1.4-1.7,2.4-2.3
				c1-0.5,2.2-0.8,3.4-0.8c1.3,0,2.4,0.3,3.4,0.8c1,0.6,1.8,1.3,2.4,2.3c0.6,1,0.9,2.1,0.9,3.3c0,1.2-0.3,2.3-0.9,3.3
				c-0.6,1-1.4,1.7-2.4,2.3c-1,0.6-2.2,0.8-3.4,0.8C54.4,18.3,53.3,18,52.3,17.5z M57.7,15.4c0.6-0.3,1-0.8,1.4-1.4
				c0.3-0.6,0.5-1.3,0.5-2c0-0.8-0.2-1.4-0.5-2c-0.3-0.6-0.8-1.1-1.4-1.4c-0.6-0.3-1.2-0.5-2-0.5c-0.7,0-1.4,0.2-2,0.5
				c-0.6,0.3-1,0.8-1.4,1.4c-0.3,0.6-0.5,1.3-0.5,2c0,0.8,0.2,1.4,0.5,2c0.3,0.6,0.8,1.1,1.4,1.4c0.6,0.3,1.2,0.5,2,0.5
				C56.4,15.9,57.1,15.7,57.7,15.4z"/>
			<path class="st1" d="M67.7,16.8c-1-1-1.5-2.4-1.5-4.2V5.8h2.8v6.8c0,2.2,0.9,3.3,2.7,3.3c0.9,0,1.6-0.3,2-0.8
				c0.5-0.5,0.7-1.4,0.7-2.5V5.8h2.8v6.9c0,1.8-0.5,3.2-1.5,4.2c-1,1-2.3,1.5-4.1,1.5C70,18.3,68.7,17.8,67.7,16.8z"/>
			<path class="st1" d="M81.9,5.8h2.8v12.3h-2.8V5.8z"/>
			<path class="st1" d="M90.7,17.9c-0.9-0.3-1.6-0.6-2.2-1l1-2.1c0.5,0.4,1.2,0.7,1.9,0.9c0.7,0.2,1.5,0.4,2.2,0.4
				c0.8,0,1.4-0.1,1.8-0.4c0.4-0.2,0.6-0.6,0.6-1c0-0.3-0.1-0.5-0.3-0.7c-0.2-0.2-0.5-0.3-0.9-0.5c-0.4-0.1-0.8-0.2-1.4-0.4
				c-0.9-0.2-1.7-0.4-2.3-0.7c-0.6-0.2-1.1-0.6-1.5-1.1c-0.4-0.5-0.6-1.1-0.6-2c0-0.7,0.2-1.4,0.6-1.9c0.4-0.6,1-1,1.7-1.4
				c0.8-0.3,1.7-0.5,2.9-0.5c0.8,0,1.6,0.1,2.3,0.3c0.7,0.2,1.4,0.5,2,0.8l-0.9,2.2c-1.1-0.6-2.3-1-3.4-1c-0.8,0-1.4,0.1-1.8,0.4
				c-0.4,0.3-0.6,0.6-0.6,1c0,0.4,0.2,0.7,0.7,0.9c0.4,0.2,1.1,0.4,2,0.6c0.9,0.2,1.7,0.4,2.3,0.7c0.6,0.2,1.1,0.6,1.5,1.1
				c0.4,0.5,0.6,1.1,0.6,1.9c0,0.7-0.2,1.3-0.6,1.9c-0.4,0.6-1,1-1.8,1.4c-0.8,0.3-1.7,0.5-2.9,0.5C92.5,18.3,91.6,18.2,90.7,17.9z"
				/>
		</g>
	</g>
	<path class="st2" d="M0,0v30.9h30.9V0H0z M3.3,24.4V10.7l3-3h1.8v13.7l-3,3H3.3z M17.9,25l-3,3H6.5v-1.8l3-3h8.4V25z"/>
</g>
<g>
</g>
<g>
</g>
<g>
</g>
<g>
</g>
<g>
</g>
<g>
</g>
<g>
</g>
<g>
</g>
<g>
</g>
<g>
</g>
<g>
</g>
<g>
</g>
<g>
</g>
<g>
</g>
<g>
</g>
</svg>
