<?xml version="1.0" encoding="utf-8"?>
<!-- Generator: Adobe Illustrator 26.3.1, SVG Export Plug-In . SVG Version: 6.00 Build 0)  -->
<svg version="1.1" id="Layer_1" xmlns="http://www.w3.org/2000/svg" xmlns:xlink="http://www.w3.org/1999/xlink" x="0px" y="0px"
	 viewBox="0 0 289 47.9" style="enable-background:new 0 0 289 47.9;" xml:space="preserve">
<style type="text/css">
	.st0{fill:#176332;}
	.st1{fill:#761213;}
</style>
<g>
	<g>
		<path class="st0" d="M198.9,44.6c-0.2,0.2-0.5,0.3-0.8,0.5c-0.3,0.1-0.6,0.2-0.9,0.3c-0.3,0.1-0.7,0.1-1.1,0.1
			c-0.6,0-1.2-0.1-1.7-0.3c-0.5-0.2-1-0.5-1.4-0.9c-0.4-0.4-0.7-0.9-0.9-1.4c-0.2-0.5-0.3-1.1-0.3-1.7c0-0.6,0.1-1.2,0.3-1.7
			c0.2-0.5,0.5-1,0.9-1.4c0.4-0.4,0.8-0.7,1.4-1c0.5-0.2,1.1-0.3,1.7-0.3c0.4,0,0.7,0,1.1,0.1c0.3,0.1,0.6,0.2,0.9,0.3
			c0.3,0.1,0.5,0.3,0.7,0.4c0.2,0.2,0.4,0.4,0.7,0.6l-0.7,0.7c-0.4-0.3-0.8-0.6-1.2-0.8c-0.4-0.2-0.9-0.3-1.5-0.3
			c-0.5,0-0.9,0.1-1.3,0.3c-0.4,0.2-0.8,0.4-1,0.7c-0.3,0.3-0.5,0.7-0.7,1.1c-0.2,0.4-0.3,0.9-0.3,1.4s0.1,1,0.3,1.4
			c0.2,0.4,0.4,0.8,0.7,1.1c0.3,0.3,0.6,0.6,1,0.8c0.4,0.2,0.8,0.3,1.3,0.3c0.6,0,1.1-0.1,1.5-0.3c0.4-0.2,0.8-0.5,1.2-0.9l0.6,0.6
			C199.3,44.2,199.1,44.5,198.9,44.6z"/>
		<path class="st0" d="M206.9,43.5c-0.2,0.4-0.4,0.8-0.7,1.1c-0.3,0.3-0.6,0.5-1,0.7c-0.4,0.2-0.8,0.3-1.3,0.3
			c-0.5,0-0.9-0.1-1.3-0.3c-0.4-0.2-0.7-0.4-1-0.7c-0.3-0.3-0.5-0.6-0.7-1c-0.2-0.4-0.2-0.8-0.2-1.3c0-0.4,0.1-0.9,0.2-1.3
			c0.2-0.4,0.4-0.8,0.7-1.1c0.3-0.3,0.6-0.5,1-0.7c0.4-0.2,0.8-0.3,1.3-0.3c0.5,0,0.9,0.1,1.3,0.3c0.4,0.2,0.7,0.4,1,0.7
			c0.3,0.3,0.5,0.6,0.7,1c0.2,0.4,0.2,0.8,0.2,1.3C207.1,42.7,207.1,43.1,206.9,43.5z M206,41.3c-0.1-0.3-0.3-0.6-0.5-0.8
			c-0.2-0.2-0.5-0.4-0.7-0.5c-0.3-0.1-0.6-0.2-0.9-0.2c-0.3,0-0.7,0.1-0.9,0.2c-0.3,0.1-0.5,0.3-0.7,0.5c-0.2,0.2-0.4,0.5-0.5,0.8
			c-0.1,0.3-0.2,0.6-0.2,1s0.1,0.7,0.2,1c0.1,0.3,0.3,0.6,0.5,0.8c0.2,0.2,0.5,0.4,0.7,0.5c0.3,0.1,0.6,0.2,0.9,0.2
			c0.3,0,0.7-0.1,0.9-0.2c0.3-0.1,0.5-0.3,0.7-0.5c0.2-0.2,0.4-0.5,0.5-0.8c0.1-0.3,0.2-0.6,0.2-1C206.2,41.9,206.1,41.6,206,41.3z"
			/>
		<path class="st0" d="M209.8,45.4h-0.9v-6.3h0.9v1.1c0.2-0.3,0.5-0.6,0.8-0.9c0.3-0.2,0.8-0.4,1.3-0.4c0.4,0,0.7,0.1,1,0.2
			c0.3,0.1,0.5,0.3,0.8,0.5c0.2,0.2,0.4,0.5,0.5,0.8c0.1,0.3,0.2,0.7,0.2,1v3.9h-0.9v-3.7c0-0.6-0.2-1-0.5-1.4
			c-0.3-0.3-0.7-0.5-1.3-0.5c-0.3,0-0.5,0-0.7,0.1c-0.2,0.1-0.4,0.2-0.6,0.4c-0.2,0.2-0.3,0.4-0.4,0.6c-0.1,0.2-0.1,0.5-0.1,0.8
			V45.4z"/>
		<path class="st0" d="M220.5,44.4c-0.1,0.2-0.3,0.4-0.5,0.6c-0.2,0.2-0.4,0.3-0.7,0.4c-0.3,0.1-0.6,0.1-0.9,0.1
			c-0.5,0-0.9-0.1-1.4-0.3c-0.5-0.2-0.9-0.4-1.2-0.7l0.5-0.7c0.3,0.3,0.7,0.5,1.1,0.6c0.4,0.1,0.7,0.2,1.1,0.2
			c0.4,0,0.7-0.1,0.9-0.3c0.2-0.2,0.4-0.4,0.4-0.7v0c0-0.2,0-0.3-0.1-0.4s-0.2-0.2-0.3-0.3c-0.1-0.1-0.3-0.2-0.5-0.2
			c-0.2-0.1-0.4-0.1-0.6-0.2c-0.2-0.1-0.5-0.2-0.7-0.2c-0.2-0.1-0.5-0.2-0.7-0.3c-0.2-0.1-0.4-0.3-0.5-0.5c-0.1-0.2-0.2-0.4-0.2-0.7
			v0c0-0.3,0.1-0.5,0.2-0.7c0.1-0.2,0.3-0.4,0.4-0.6c0.2-0.2,0.4-0.3,0.7-0.4c0.3-0.1,0.6-0.1,0.9-0.1c0.4,0,0.8,0.1,1.2,0.2
			c0.4,0.1,0.8,0.3,1.1,0.5l-0.4,0.7c-0.3-0.2-0.6-0.3-0.9-0.4c-0.3-0.1-0.6-0.2-0.9-0.2c-0.4,0-0.7,0.1-0.9,0.3s-0.3,0.4-0.3,0.7v0
			c0,0.1,0,0.3,0.1,0.4c0.1,0.1,0.2,0.2,0.4,0.3c0.2,0.1,0.3,0.2,0.5,0.2c0.2,0.1,0.4,0.1,0.6,0.2c0.2,0.1,0.5,0.2,0.7,0.2
			c0.2,0.1,0.5,0.2,0.7,0.3c0.2,0.1,0.4,0.3,0.5,0.5c0.1,0.2,0.2,0.4,0.2,0.7v0C220.7,43.9,220.6,44.2,220.5,44.4z"/>
		<path class="st0" d="M223.6,43.6c0,0.4,0.1,0.7,0.3,0.8c0.2,0.2,0.5,0.2,0.8,0.2c0.2,0,0.3,0,0.5,0c0.1,0,0.3-0.1,0.5-0.2v0.8
			c-0.2,0.1-0.3,0.2-0.5,0.2c-0.2,0-0.4,0.1-0.6,0.1c-0.3,0-0.5,0-0.7-0.1c-0.2-0.1-0.4-0.2-0.6-0.3c-0.2-0.1-0.3-0.3-0.4-0.6
			c-0.1-0.2-0.1-0.5-0.1-0.8v-3.8h-0.9v-0.8h0.9v-1.9h0.9v1.9h2v0.8h-2V43.6z"/>
		<path class="st0" d="M228.2,45.4h-0.9v-6.3h0.9v1.6c0.1-0.3,0.3-0.5,0.4-0.7c0.2-0.2,0.4-0.4,0.6-0.6c0.2-0.2,0.5-0.3,0.7-0.4
			c0.3-0.1,0.5-0.1,0.8-0.1v1h-0.1c-0.3,0-0.7,0.1-1,0.2c-0.3,0.1-0.6,0.3-0.8,0.5c-0.2,0.2-0.4,0.5-0.5,0.9
			c-0.1,0.4-0.2,0.8-0.2,1.3V45.4z"/>
		<path class="st0" d="M236.6,39.1h0.9v6.3h-0.9v-1.1c-0.2,0.3-0.5,0.6-0.8,0.9s-0.8,0.4-1.3,0.4c-0.4,0-0.7-0.1-1-0.2
			c-0.3-0.1-0.5-0.3-0.8-0.5c-0.2-0.2-0.4-0.5-0.5-0.8c-0.1-0.3-0.2-0.7-0.2-1v-3.9h0.9v3.7c0,0.6,0.2,1,0.5,1.4
			c0.3,0.3,0.7,0.5,1.3,0.5c0.3,0,0.5,0,0.7-0.1s0.4-0.2,0.6-0.4c0.2-0.2,0.3-0.4,0.4-0.6c0.1-0.2,0.1-0.5,0.1-0.8V39.1z"/>
		<path class="st0" d="M244,45.2c-0.4,0.2-0.9,0.3-1.5,0.3c-0.5,0-0.9-0.1-1.3-0.3c-0.4-0.2-0.7-0.4-1-0.7c-0.3-0.3-0.5-0.6-0.7-1
			c-0.2-0.4-0.2-0.8-0.2-1.3c0-0.4,0.1-0.9,0.2-1.3c0.2-0.4,0.4-0.8,0.7-1.1c0.3-0.3,0.6-0.5,1-0.7c0.4-0.2,0.8-0.3,1.3-0.3
			c0.3,0,0.6,0,0.8,0.1c0.2,0.1,0.5,0.1,0.7,0.2c0.2,0.1,0.4,0.2,0.6,0.4c0.2,0.1,0.3,0.3,0.5,0.4l-0.6,0.7
			c-0.3-0.3-0.5-0.5-0.8-0.7c-0.3-0.2-0.7-0.3-1.1-0.3c-0.3,0-0.6,0.1-0.9,0.2c-0.3,0.1-0.5,0.3-0.7,0.5c-0.2,0.2-0.4,0.5-0.5,0.8
			c-0.1,0.3-0.2,0.6-0.2,1s0.1,0.7,0.2,1c0.1,0.3,0.3,0.6,0.5,0.8c0.2,0.2,0.5,0.4,0.7,0.5c0.3,0.1,0.6,0.2,0.9,0.2
			c0.4,0,0.8-0.1,1.1-0.3c0.3-0.2,0.6-0.4,0.8-0.7l0.6,0.6C244.8,44.6,244.4,44.9,244,45.2z"/>
		<path class="st0" d="M247.9,43.6c0,0.4,0.1,0.7,0.3,0.8c0.2,0.2,0.5,0.2,0.8,0.2c0.2,0,0.3,0,0.5,0c0.1,0,0.3-0.1,0.5-0.2v0.8
			c-0.2,0.1-0.3,0.2-0.5,0.2c-0.2,0-0.4,0.1-0.6,0.1c-0.3,0-0.5,0-0.7-0.1c-0.2-0.1-0.4-0.2-0.6-0.3c-0.2-0.1-0.3-0.3-0.4-0.6
			c-0.1-0.2-0.1-0.5-0.1-0.8v-3.8h-0.9v-0.8h0.9v-1.9h0.9v1.9h2v0.8h-2V43.6z"/>
		<path class="st0" d="M251.6,37.7v-1h1.1v1H251.6z M251.7,45.4v-6.3h0.9v6.3H251.7z"/>
		<path class="st0" d="M260.7,43.5c-0.2,0.4-0.4,0.8-0.7,1.1c-0.3,0.3-0.6,0.5-1,0.7c-0.4,0.2-0.8,0.3-1.3,0.3
			c-0.5,0-0.9-0.1-1.3-0.3c-0.4-0.2-0.7-0.4-1-0.7c-0.3-0.3-0.5-0.6-0.7-1c-0.2-0.4-0.2-0.8-0.2-1.3c0-0.4,0.1-0.9,0.2-1.3
			c0.2-0.4,0.4-0.8,0.7-1.1c0.3-0.3,0.6-0.5,1-0.7c0.4-0.2,0.8-0.3,1.3-0.3c0.5,0,0.9,0.1,1.3,0.3c0.4,0.2,0.7,0.4,1,0.7
			c0.3,0.3,0.5,0.6,0.7,1c0.2,0.4,0.2,0.8,0.2,1.3C261,42.7,260.9,43.1,260.7,43.5z M259.8,41.3c-0.1-0.3-0.3-0.6-0.5-0.8
			c-0.2-0.2-0.5-0.4-0.7-0.5c-0.3-0.1-0.6-0.2-0.9-0.2c-0.3,0-0.7,0.1-0.9,0.2c-0.3,0.1-0.5,0.3-0.7,0.5c-0.2,0.2-0.4,0.5-0.5,0.8
			c-0.1,0.3-0.2,0.6-0.2,1s0.1,0.7,0.2,1c0.1,0.3,0.3,0.6,0.5,0.8c0.2,0.2,0.5,0.4,0.7,0.5c0.3,0.1,0.6,0.2,0.9,0.2
			c0.3,0,0.7-0.1,0.9-0.2c0.3-0.1,0.5-0.3,0.7-0.5c0.2-0.2,0.4-0.5,0.5-0.8c0.1-0.3,0.2-0.6,0.2-1C260,41.9,259.9,41.6,259.8,41.3z"
			/>
		<path class="st0" d="M263.6,45.4h-0.9v-6.3h0.9v1.1c0.2-0.3,0.5-0.6,0.8-0.9c0.3-0.2,0.8-0.4,1.3-0.4c0.4,0,0.7,0.1,1,0.2
			c0.3,0.1,0.5,0.3,0.8,0.5c0.2,0.2,0.4,0.5,0.5,0.8c0.1,0.3,0.2,0.7,0.2,1v3.9h-0.9v-3.7c0-0.6-0.2-1-0.5-1.4
			c-0.3-0.3-0.7-0.5-1.3-0.5c-0.3,0-0.5,0-0.7,0.1c-0.2,0.1-0.4,0.2-0.6,0.4c-0.2,0.2-0.3,0.4-0.4,0.6c-0.1,0.2-0.1,0.5-0.1,0.8
			V45.4z"/>
	</g>
	<g>
		<path d="M171.8,30.4l-2.5-6h-11.4l-2.5,6h-6l11.5-27h5.4l11.5,27H171.8z M163.6,10.4l-3.6,8.7h7.1L163.6,10.4z"/>
		<path d="M195.4,30.4v-3c-1.4,1.9-3.4,3.3-6.4,3.3c-4.8,0-9.4-3.8-9.4-10.6V20c0-6.9,4.5-10.6,9.4-10.6c3.1,0,5,1.4,6.4,3.1V2.4
			h5.8v28H195.4z M195.4,20c0-3.4-2.3-5.7-5-5.7c-2.7,0-5,2.2-5,5.7v0.1c0,3.4,2.3,5.7,5,5.7C193.2,25.8,195.4,23.5,195.4,20
			L195.4,20z"/>
		<path d="M225.5,22.1h-14.3c0.6,2.6,2.4,4,5,4c2,0,3.4-0.6,5-2.1l3.3,3c-1.9,2.4-4.7,3.8-8.4,3.8c-6.2,0-10.7-4.3-10.7-10.6v-0.1
			c0-5.9,4.2-10.7,10.2-10.7c6.9,0,10,5.3,10,11.2v0.1C225.6,21.2,225.5,21.6,225.5,22.1z M215.6,14.1c-2.4,0-4,1.7-4.5,4.4h8.8
			C219.6,15.9,218,14.1,215.6,14.1z"/>
		<path d="M242.2,30.7c-3.1,0-5-1.4-6.4-3.1v8.8h-5.8V9.8h5.8v3c1.4-1.9,3.4-3.3,6.4-3.3c4.8,0,9.4,3.8,9.4,10.6v0.1
			C251.5,27,247,30.7,242.2,30.7z M245.7,20c0-3.4-2.3-5.7-5-5.7c-2.7,0-5,2.3-5,5.7v0.1c0,3.4,2.3,5.7,5,5.7
			C243.4,25.8,245.7,23.6,245.7,20L245.7,20z"/>
		<path d="M262.8,30.7c-3.6,0-6-1.4-6-6.2v-9.7h-2.5v-5h2.5V4.5h5.8v5.3h4.8v5h-4.8v8.8c0,1.3,0.6,2,1.9,2c1.1,0,2-0.3,2.9-0.7v4.7
			C266.1,30.2,264.7,30.7,262.8,30.7z"/>
	</g>
	<g>
		<path d="M283.6,16c-3,0-5.4-2.4-5.4-5.4c0-2.9,2.4-5.4,5.4-5.4c3,0,5.4,2.4,5.4,5.4C289,13.5,286.6,16,283.6,16z M283.6,5.8
			c-2.7,0-4.8,2.2-4.8,4.8c0,2.6,2,4.8,4.7,4.8c2.7,0,4.8-2.2,4.8-4.8C288.3,7.9,286.3,5.8,283.6,5.8z M284.9,11.3l1.4,2.1h-1.5
			l-1.2-1.8h-1v1.8h-1.3V7.6h2.5c1.4,0,2.2,0.7,2.2,1.9C286.2,10.4,285.6,11,284.9,11.3z M283.9,8.7h-1.2v1.7h1.3c0.6,0,1-0.3,1-0.8
			C284.9,9,284.5,8.7,283.9,8.7z"/>
	</g>
	<g>
		<polygon class="st0" points="6.9,37.2 55.2,37.2 60.6,31.9 12.2,31.9 		"/>
		<path class="st0" d="M43.5,42.6H2.7H1.6l-0.8,0.8l0,0C0.3,43.8,0,44.5,0,45.2c0,1.5,1.2,2.7,2.7,2.7h40.8c0.7,0,1.4-0.3,1.9-0.8
			l0,0l4.5-4.5H43.5z"/>
		<polygon class="st0" points="22.8,21.3 17.5,26.6 65.9,26.6 68.4,24.1 65.6,21.3 		"/>
		<path class="st0" d="M49.7,5.3H38.8c0,0,4.5-4.5,4.5-4.5c0.3-0.3,0.7-0.6,1.2-0.7L49.7,5.3z"/>
		<polygon class="st0" points="60.3,16 28.2,16 33.5,10.6 55,10.6 		"/>
	</g>
	<path class="st1" d="M136,43.3L93.5,0.8C93,0.3,92.3,0,91.6,0H45.2c-0.3,0-0.5,0-0.7,0.1l47,47c0.5,0.4,1.1,0.7,1.8,0.7
		c0,0,40.9,0,40.9,0c1.5,0,2.7-1.2,2.7-2.7C136.8,44.5,136.5,43.8,136,43.3z"/>
</g>
</svg>
