<?xml version="1.0" encoding="utf-8"?>
<!-- Generator: Adobe Illustrator 26.3.1, SVG Export Plug-In . SVG Version: 6.00 Build 0)  -->
<svg version="1.1" id="Layer_1" xmlns="http://www.w3.org/2000/svg" xmlns:xlink="http://www.w3.org/1999/xlink" x="0px" y="0px"
	 viewBox="0 0 102.3 102.1" style="enable-background:new 0 0 102.3 102.1;" xml:space="preserve">
<style type="text/css">
	.st0{fill:none;stroke:#929497;stroke-width:0.5;stroke-miterlimit:10;stroke-dasharray:2;}
	.st1{fill:#176332;}
	.st2{fill:#761213;}
	.st3{fill:#EC1C24;}
	.st4{fill:#FFFFFF;}
</style>
<path class="st2" d="M79.2-0.1H23C10.3-0.1,0,10.2,0,23v56.2c0,12.7,10.3,23,23,23h56.2c12.7,0,23-10.3,23-23V23
	C102.2,10.2,91.9-0.1,79.2-0.1z"/>
<g>
	<g>
		<g>
			<polygon class="st4" points="12.9,59.3 43,59.3 46.3,56 16.2,56 			"/>
			<path class="st4" d="M35.7,62.6H10.3H9.6l-0.5,0.5l0,0c-0.3,0.3-0.5,0.7-0.5,1.2c0,0.9,0.7,1.7,1.7,1.7h25.4
				c0.5,0,0.9-0.2,1.2-0.5l0,0l2.8-2.8L35.7,62.6L35.7,62.6z"/>
			<polygon class="st4" points="22.8,49.4 19.5,52.7 49.6,52.7 51.2,51.1 49.4,49.4 			"/>
			<path class="st4" d="M39.5,39.5h-6.8l2.8-2.8c0.2-0.2,0.4-0.4,0.7-0.4L39.5,39.5z"/>
			<polygon class="st4" points="46.1,46.1 26.2,46.1 29.5,42.8 42.8,42.8 			"/>
		</g>
		<path class="st4" d="M93.2,63.1L66.7,36.6c-0.3-0.3-0.7-0.5-1.2-0.5H36.7c-0.2,0-0.3,0-0.5,0.1l29.2,29.2c0.3,0.3,0.7,0.4,1.1,0.4
			h25.4c0.9,0,1.7-0.7,1.7-1.7C93.7,63.8,93.5,63.4,93.2,63.1z"/>
	</g>
	<g>
		<path class="st4" d="M80.4,44.9c-2.4,0-4.2-1.9-4.2-4.2s1.9-4.2,4.2-4.2s4.2,1.9,4.2,4.2C84.7,42.9,82.8,44.9,80.4,44.9z
			 M80.4,36.9c-2.1,0-3.8,1.7-3.8,3.8s1.6,3.8,3.7,3.8s3.8-1.7,3.8-3.8C84.2,38.5,82.6,36.9,80.4,36.9z M81.5,41.1l1.1,1.6h-1.2
			l-1-1.4h-0.7v1.4h-1v-4.5h2c1.1,0,1.8,0.5,1.8,1.5C82.5,40.5,82.1,40.9,81.5,41.1z M80.7,39.1h-1v1.3h1c0.5,0,0.8-0.3,0.8-0.7
			C81.4,39.3,81.1,39.1,80.7,39.1z"/>
	</g>
</g>
</svg>
