<?xml version="1.0" encoding="utf-8"?>
<!-- Generator: Adobe Illustrator 26.3.1, SVG Export Plug-In . SVG Version: 6.00 Build 0)  -->
<svg version="1.1" id="Layer_1" xmlns="http://www.w3.org/2000/svg" xmlns:xlink="http://www.w3.org/1999/xlink" x="0px" y="0px"
	 viewBox="0 0 280.9 497.3" style="enable-background:new 0 0 280.9 497.3;" xml:space="preserve">
<style type="text/css">
	.st0{fill:#176332;}
	.st1{fill:#FFFFFF;}
	.st2{fill:#761213;}
	.st3{fill:none;stroke:#D0D2D3;stroke-width:0.25;stroke-miterlimit:10;}
	.st4{opacity:0.4;fill:#FFFFFF;}
	.st5{opacity:0.5;fill:#00ADEE;}
	.st6{fill:none;stroke:#2A5748;stroke-width:0.25;stroke-miterlimit:10;}
	.st7{fill:none;stroke:#D0D2D3;stroke-width:0.1;stroke-miterlimit:10;stroke-dasharray:1;}
</style>
<g>
	<g>
		<g>
			<g>
				<polygon class="st0" points="37.1,59.8 73.4,59.8 77.4,55.8 41.1,55.8 				"/>
				<path class="st0" d="M64.6,63.8H33.9h-0.8l-0.6,0.6l0,0c-0.4,0.4-0.6,0.9-0.6,1.4c0,1.1,0.9,2,2,2h30.7c0.5,0,1-0.2,1.4-0.6l0,0
					l3.4-3.4H64.6z"/>
				<polygon class="st0" points="49.1,47.8 45.1,51.8 81.4,51.8 83.3,49.9 81.2,47.8 				"/>
				<path class="st0" d="M69.2,35.8h-8.2c0,0,3.4-3.4,3.4-3.4c0.2-0.2,0.5-0.4,0.9-0.5L69.2,35.8z"/>
				<polygon class="st0" points="77.2,43.8 53.1,43.8 57.1,39.8 73.2,39.8 				"/>
			</g>
			<g>
				<g>
					<path class="st1" d="M180.8,65.4c-0.2,0.1-0.4,0.3-0.6,0.4c-0.2,0.1-0.4,0.2-0.7,0.2c-0.2,0.1-0.5,0.1-0.8,0.1
						c-0.5,0-0.9-0.1-1.3-0.3c-0.4-0.2-0.7-0.4-1-0.7c-0.3-0.3-0.5-0.6-0.7-1c-0.2-0.4-0.2-0.8-0.2-1.3c0-0.5,0.1-0.9,0.2-1.3
						c0.2-0.4,0.4-0.8,0.7-1.1c0.3-0.3,0.6-0.5,1-0.7c0.4-0.2,0.8-0.3,1.3-0.3c0.3,0,0.6,0,0.8,0.1c0.2,0,0.5,0.1,0.7,0.2
						s0.4,0.2,0.6,0.3c0.2,0.1,0.3,0.3,0.5,0.4l-0.5,0.5c-0.3-0.3-0.6-0.5-0.9-0.6c-0.3-0.2-0.7-0.2-1.1-0.2c-0.4,0-0.7,0.1-1,0.2
						c-0.3,0.1-0.6,0.3-0.8,0.6c-0.2,0.2-0.4,0.5-0.5,0.8c-0.1,0.3-0.2,0.7-0.2,1c0,0.4,0.1,0.7,0.2,1c0.1,0.3,0.3,0.6,0.5,0.8
						c0.2,0.2,0.5,0.4,0.8,0.6c0.3,0.1,0.6,0.2,1,0.2c0.4,0,0.8-0.1,1.1-0.2c0.3-0.2,0.6-0.4,0.9-0.7l0.5,0.5
						C181.1,65.1,180.9,65.2,180.8,65.4z"/>
					<path class="st1" d="M186.8,64.5c-0.1,0.3-0.3,0.6-0.5,0.8c-0.2,0.2-0.5,0.4-0.8,0.5c-0.3,0.1-0.6,0.2-1,0.2
						c-0.4,0-0.7-0.1-1-0.2c-0.3-0.1-0.6-0.3-0.8-0.5c-0.2-0.2-0.4-0.5-0.5-0.8c-0.1-0.3-0.2-0.6-0.2-1s0.1-0.7,0.2-1
						c0.1-0.3,0.3-0.6,0.5-0.8c0.2-0.2,0.5-0.4,0.8-0.5c0.3-0.1,0.6-0.2,1-0.2c0.4,0,0.7,0.1,1,0.2c0.3,0.1,0.6,0.3,0.8,0.5
						c0.2,0.2,0.4,0.5,0.5,0.8c0.1,0.3,0.2,0.6,0.2,1C187,63.9,186.9,64.2,186.8,64.5z M186.1,62.8c-0.1-0.2-0.2-0.4-0.4-0.6
						c-0.2-0.2-0.3-0.3-0.6-0.4c-0.2-0.1-0.4-0.1-0.7-0.1c-0.3,0-0.5,0-0.7,0.1c-0.2,0.1-0.4,0.2-0.5,0.4c-0.1,0.2-0.3,0.4-0.4,0.6
						c-0.1,0.2-0.1,0.5-0.1,0.7s0,0.5,0.1,0.7c0.1,0.2,0.2,0.4,0.4,0.6c0.2,0.2,0.3,0.3,0.6,0.4c0.2,0.1,0.4,0.1,0.7,0.1
						c0.3,0,0.5,0,0.7-0.1c0.2-0.1,0.4-0.2,0.5-0.4c0.2-0.2,0.3-0.4,0.4-0.6c0.1-0.2,0.1-0.5,0.1-0.7S186.2,63.1,186.1,62.8z"/>
					<path class="st1" d="M189,65.9h-0.7v-4.7h0.7V62c0.2-0.3,0.4-0.5,0.6-0.7s0.6-0.3,1-0.3c0.3,0,0.5,0,0.8,0.1
						c0.2,0.1,0.4,0.2,0.6,0.4c0.2,0.2,0.3,0.4,0.4,0.6c0.1,0.2,0.1,0.5,0.1,0.8v2.9h-0.7v-2.8c0-0.4-0.1-0.8-0.3-1
						c-0.2-0.3-0.5-0.4-1-0.4c-0.2,0-0.4,0-0.6,0.1c-0.2,0.1-0.3,0.2-0.5,0.3c-0.1,0.1-0.2,0.3-0.3,0.5c-0.1,0.2-0.1,0.4-0.1,0.6
						V65.9z"/>
					<path class="st1" d="M197,65.2c-0.1,0.2-0.2,0.3-0.4,0.4c-0.1,0.1-0.3,0.2-0.5,0.3c-0.2,0.1-0.4,0.1-0.7,0.1
						c-0.3,0-0.7-0.1-1-0.2c-0.3-0.1-0.7-0.3-0.9-0.5l0.4-0.5c0.3,0.2,0.5,0.3,0.8,0.4c0.3,0.1,0.6,0.2,0.8,0.2
						c0.3,0,0.5-0.1,0.7-0.2c0.2-0.1,0.3-0.3,0.3-0.5v0c0-0.1,0-0.2-0.1-0.3c-0.1-0.1-0.2-0.2-0.3-0.2c-0.1-0.1-0.2-0.1-0.4-0.2
						c-0.1,0-0.3-0.1-0.4-0.1c-0.2-0.1-0.4-0.1-0.6-0.2c-0.2-0.1-0.4-0.1-0.5-0.2c-0.1-0.1-0.3-0.2-0.4-0.4
						c-0.1-0.1-0.1-0.3-0.1-0.5v0c0-0.2,0-0.4,0.1-0.6c0.1-0.2,0.2-0.3,0.3-0.4c0.1-0.1,0.3-0.2,0.5-0.3c0.2-0.1,0.4-0.1,0.6-0.1
						c0.3,0,0.6,0,0.9,0.1c0.3,0.1,0.6,0.2,0.8,0.4l-0.3,0.5c-0.2-0.1-0.5-0.3-0.7-0.3c-0.2-0.1-0.5-0.1-0.7-0.1
						c-0.3,0-0.5,0.1-0.7,0.2s-0.2,0.3-0.2,0.5v0c0,0.1,0,0.2,0.1,0.3c0.1,0.1,0.2,0.2,0.3,0.2c0.1,0.1,0.2,0.1,0.4,0.2
						c0.1,0,0.3,0.1,0.5,0.1c0.2,0.1,0.4,0.1,0.5,0.2c0.2,0.1,0.3,0.2,0.5,0.3c0.1,0.1,0.3,0.2,0.4,0.4c0.1,0.1,0.1,0.3,0.1,0.5v0
						C197.2,64.8,197.1,65,197,65.2z"/>
					<path class="st1" d="M199.3,64.6c0,0.3,0.1,0.5,0.2,0.6c0.1,0.1,0.3,0.2,0.6,0.2c0.1,0,0.2,0,0.3,0c0.1,0,0.2-0.1,0.3-0.1v0.6
						c-0.1,0.1-0.3,0.1-0.4,0.2c-0.1,0-0.3,0.1-0.5,0.1c-0.2,0-0.4,0-0.5-0.1c-0.2,0-0.3-0.1-0.4-0.2c-0.1-0.1-0.2-0.2-0.3-0.4
						c-0.1-0.2-0.1-0.4-0.1-0.6v-2.9H198v-0.6h0.7v-1.4h0.7v1.4h1.5v0.6h-1.5V64.6z"/>
					<path class="st1" d="M202.8,65.9h-0.7v-4.7h0.7v1.2c0.1-0.2,0.2-0.4,0.3-0.5c0.1-0.2,0.3-0.3,0.4-0.4s0.3-0.2,0.5-0.3
						c0.2-0.1,0.4-0.1,0.6-0.1v0.8h-0.1c-0.3,0-0.5,0-0.7,0.1c-0.2,0.1-0.4,0.2-0.6,0.4c-0.2,0.2-0.3,0.4-0.4,0.7
						c-0.1,0.3-0.1,0.6-0.1,0.9V65.9z"/>
					<path class="st1" d="M209.1,61.2h0.7v4.7h-0.7v-0.8c-0.2,0.3-0.4,0.5-0.6,0.7s-0.6,0.3-1,0.3c-0.3,0-0.5,0-0.8-0.1
						c-0.2-0.1-0.4-0.2-0.6-0.4s-0.3-0.4-0.4-0.6c-0.1-0.2-0.1-0.5-0.1-0.8v-2.9h0.7v2.8c0,0.4,0.1,0.8,0.3,1c0.2,0.3,0.5,0.4,1,0.4
						c0.2,0,0.4,0,0.6-0.1c0.2-0.1,0.3-0.2,0.4-0.3c0.1-0.1,0.2-0.3,0.3-0.5s0.1-0.4,0.1-0.6V61.2z"/>
					<path class="st1" d="M214.7,65.8c-0.3,0.2-0.7,0.3-1.1,0.3c-0.3,0-0.7-0.1-1-0.2c-0.3-0.1-0.6-0.3-0.8-0.5
						c-0.2-0.2-0.4-0.5-0.5-0.8c-0.1-0.3-0.2-0.6-0.2-1s0.1-0.7,0.2-1c0.1-0.3,0.3-0.6,0.5-0.8c0.2-0.2,0.5-0.4,0.8-0.5
						c0.3-0.1,0.6-0.2,1-0.2c0.2,0,0.4,0,0.6,0.1c0.2,0,0.4,0.1,0.5,0.2c0.2,0.1,0.3,0.2,0.4,0.3c0.1,0.1,0.2,0.2,0.4,0.3l-0.5,0.5
						c-0.2-0.2-0.4-0.4-0.6-0.5c-0.2-0.1-0.5-0.2-0.8-0.2c-0.2,0-0.5,0-0.7,0.1c-0.2,0.1-0.4,0.2-0.5,0.4c-0.2,0.2-0.3,0.4-0.4,0.6
						c-0.1,0.2-0.1,0.5-0.1,0.7s0,0.5,0.1,0.7c0.1,0.2,0.2,0.4,0.4,0.6c0.2,0.2,0.3,0.3,0.5,0.4c0.2,0.1,0.4,0.1,0.7,0.1
						c0.3,0,0.6-0.1,0.8-0.2c0.2-0.1,0.4-0.3,0.6-0.5l0.4,0.4C215.3,65.4,215,65.6,214.7,65.8z"/>
					<path class="st1" d="M217.6,64.6c0,0.3,0.1,0.5,0.2,0.6c0.1,0.1,0.3,0.2,0.6,0.2c0.1,0,0.2,0,0.3,0c0.1,0,0.2-0.1,0.3-0.1v0.6
						c-0.1,0.1-0.3,0.1-0.4,0.2c-0.1,0-0.3,0.1-0.5,0.1c-0.2,0-0.4,0-0.5-0.1c-0.2,0-0.3-0.1-0.4-0.2c-0.1-0.1-0.2-0.2-0.3-0.4
						c-0.1-0.2-0.1-0.4-0.1-0.6v-2.9h-0.7v-0.6h0.7v-1.4h0.7v1.4h1.5v0.6h-1.5V64.6z"/>
					<path class="st1" d="M220.4,60.1v-0.8h0.8v0.8H220.4z M220.4,65.9v-4.7h0.7v4.7H220.4z"/>
					<path class="st1" d="M227.2,64.5c-0.1,0.3-0.3,0.6-0.5,0.8c-0.2,0.2-0.5,0.4-0.8,0.5c-0.3,0.1-0.6,0.2-1,0.2
						c-0.4,0-0.7-0.1-1-0.2c-0.3-0.1-0.6-0.3-0.8-0.5c-0.2-0.2-0.4-0.5-0.5-0.8c-0.1-0.3-0.2-0.6-0.2-1s0.1-0.7,0.2-1
						c0.1-0.3,0.3-0.6,0.5-0.8c0.2-0.2,0.5-0.4,0.8-0.5c0.3-0.1,0.6-0.2,1-0.2c0.4,0,0.7,0.1,1,0.2s0.6,0.3,0.8,0.5
						c0.2,0.2,0.4,0.5,0.5,0.8c0.1,0.3,0.2,0.6,0.2,1C227.4,63.9,227.3,64.2,227.2,64.5z M226.6,62.8c-0.1-0.2-0.2-0.4-0.4-0.6
						c-0.2-0.2-0.3-0.3-0.6-0.4c-0.2-0.1-0.4-0.1-0.7-0.1c-0.3,0-0.5,0-0.7,0.1c-0.2,0.1-0.4,0.2-0.5,0.4c-0.1,0.2-0.3,0.4-0.4,0.6
						c-0.1,0.2-0.1,0.5-0.1,0.7s0,0.5,0.1,0.7c0.1,0.2,0.2,0.4,0.4,0.6c0.2,0.2,0.3,0.3,0.6,0.4c0.2,0.1,0.4,0.1,0.7,0.1
						c0.3,0,0.5,0,0.7-0.1c0.2-0.1,0.4-0.2,0.5-0.4c0.2-0.2,0.3-0.4,0.4-0.6c0.1-0.2,0.1-0.5,0.1-0.7S226.6,63.1,226.6,62.8z"/>
					<path class="st1" d="M229.4,65.9h-0.7v-4.7h0.7V62c0.2-0.3,0.4-0.5,0.6-0.7s0.6-0.3,1-0.3c0.3,0,0.5,0,0.8,0.1
						c0.2,0.1,0.4,0.2,0.6,0.4c0.2,0.2,0.3,0.4,0.4,0.6c0.1,0.2,0.1,0.5,0.1,0.8v2.9h-0.7v-2.8c0-0.4-0.1-0.8-0.3-1
						c-0.2-0.3-0.5-0.4-1-0.4c-0.2,0-0.4,0-0.6,0.1c-0.2,0.1-0.3,0.2-0.5,0.3c-0.1,0.1-0.2,0.3-0.3,0.5c-0.1,0.2-0.1,0.4-0.1,0.6
						V65.9z"/>
				</g>
				<g>
					<path class="st1" d="M160.9,54.6l-1.8-4.5h-8.5l-1.8,4.5h-4.5l8.6-20.3h4.1l8.6,20.3H160.9z M154.8,39.6l-2.7,6.5h5.4
						L154.8,39.6z"/>
					<path class="st1" d="M178.7,54.6v-2.2c-1.1,1.4-2.5,2.5-4.8,2.5c-3.6,0-7-2.8-7-8v-0.1c0-5.2,3.4-8,7-8c2.3,0,3.8,1.1,4.8,2.3
						v-7.6h4.4v21H178.7z M178.7,46.9c0-2.6-1.7-4.3-3.7-4.3c-2,0-3.8,1.7-3.8,4.3v0.1c0,2.6,1.7,4.3,3.8,4.3
						C177,51.2,178.7,49.5,178.7,46.9L178.7,46.9z"/>
					<path class="st1" d="M201.3,48.4h-10.8c0.4,2,1.8,3,3.8,3c1.5,0,2.5-0.5,3.7-1.6l2.5,2.2c-1.4,1.8-3.5,2.9-6.3,2.9
						c-4.6,0-8.1-3.3-8.1-8v-0.1c0-4.4,3.1-8,7.6-8c5.2,0,7.5,4,7.5,8.4v0.1C201.4,47.8,201.4,48,201.3,48.4z M193.9,42.4
						c-1.8,0-3,1.3-3.3,3.3h6.6C196.9,43.7,195.7,42.4,193.9,42.4z"/>
					<path class="st1" d="M213.8,54.9c-2.3,0-3.8-1.1-4.8-2.3v6.6h-4.4V39.2h4.4v2.2c1.1-1.4,2.5-2.5,4.8-2.5c3.6,0,7,2.8,7,8v0.1
						C220.9,52.1,217.5,54.9,213.8,54.9z M216.5,46.9c0-2.6-1.7-4.3-3.8-4.3c-2,0-3.7,1.7-3.7,4.3v0.1c0,2.6,1.7,4.3,3.7,4.3
						C214.8,51.2,216.5,49.5,216.5,46.9L216.5,46.9z"/>
					<path class="st1" d="M229.3,54.9c-2.7,0-4.5-1.1-4.5-4.6v-7.3H223v-3.7h1.8v-3.9h4.4v3.9h3.6v3.7h-3.6v6.6c0,1,0.4,1.5,1.4,1.5
						c0.8,0,1.5-0.2,2.2-0.5V54C231.8,54.5,230.8,54.9,229.3,54.9z"/>
				</g>
				<g>
					<path class="st1" d="M244.9,43.8c-2.3,0-4-1.8-4-4c0-2.2,1.8-4.1,4.1-4.1c2.3,0,4,1.8,4,4C249,42,247.2,43.8,244.9,43.8z
						 M245,36.2c-2,0-3.6,1.6-3.6,3.6c0,2,1.5,3.6,3.6,3.6c2,0,3.6-1.6,3.6-3.6C248.5,37.8,247,36.2,245,36.2z M246,40.3l1.1,1.5
						h-1.1l-0.9-1.4h-0.7v1.4h-0.9v-4.3h1.9c1,0,1.7,0.5,1.7,1.4C246.9,39.6,246.5,40.1,246,40.3z M245.2,38.4h-0.9v1.3h0.9
						c0.5,0,0.7-0.3,0.7-0.6C245.9,38.6,245.6,38.4,245.2,38.4z"/>
				</g>
				<path class="st2" d="M134.1,64.4l-32-32c-0.4-0.4-0.9-0.6-1.4-0.6H65.9c-0.2,0-0.4,0-0.6,0.1l35.3,35.3c0.4,0.3,0.8,0.5,1.3,0.5
					c0,0,30.7,0,30.7,0c1.1,0,2-0.9,2-2C134.7,65.2,134.5,64.7,134.1,64.4z"/>
			</g>
		</g>
		<line class="st3" x1="134.7" y1="34.3" x2="249" y2="34.3"/>
		<rect y="67.8" class="st4" width="31.9" height="31.9"/>
		<rect class="st4" width="31.9" height="31.9"/>
		<rect x="249" y="67.8" class="st4" width="31.9" height="31.9"/>
		<rect x="249" class="st4" width="31.9" height="31.9"/>
		<rect x="134.7" y="34.3" class="st5" width="9.5" height="33.5"/>
		<rect x="232.8" y="34.3" class="st5" width="8.1" height="33.5"/>
		<rect x="165.6" y="34.3" class="st5" width="1.2" height="20.3"/>
		<rect x="183.1" y="34.3" class="st5" width="3.2" height="20.3"/>
		<rect x="201.4" y="34.3" class="st5" width="3.2" height="20.3"/>
		<rect x="220.9" y="34.3" class="st5" width="2" height="20.3"/>
		<line class="st3" x1="0" y1="31.9" x2="280.9" y2="31.9"/>
		<line class="st3" x1="31.9" y1="0" x2="31.9" y2="99.7"/>
		<line class="st3" x1="0" y1="67.8" x2="280.9" y2="67.8"/>
		<line class="st3" x1="249" y1="0" x2="249" y2="99.3"/>
		<line class="st3" x1="134.7" y1="0" x2="134.7" y2="99.7"/>
		<line class="st3" x1="232.8" y1="0" x2="232.8" y2="99.7"/>
		<line class="st3" x1="240.9" y1="0" x2="240.9" y2="99.7"/>
		<rect class="st6" width="280.9" height="99.7"/>
	</g>
	<g>
		<rect x="64.2" y="171.6" class="st4" width="31.9" height="31.9"/>
		<rect x="184.8" y="171.6" class="st4" width="31.9" height="31.9"/>
		<rect x="64.2" y="283.1" class="st4" width="31.9" height="31.9"/>
		<rect x="184.8" y="283.1" class="st4" width="31.9" height="31.9"/>
		<g>
			<g>
				<path class="st1" d="M174.9,213.3c-2.3,0-4-1.8-4-4c0-2.2,1.8-4.1,4.1-4.1c2.3,0,4,1.8,4,4C179,211.4,177.2,213.3,174.9,213.3z
					 M174.9,205.6c-2,0-3.6,1.6-3.6,3.6c0,2,1.5,3.6,3.6,3.6c2,0,3.6-1.6,3.6-3.6C178.5,207.2,177,205.6,174.9,205.6z M175.9,209.7
					l1.1,1.5h-1.1l-0.9-1.4h-0.7v1.4h-0.9v-4.3h1.9c1,0,1.7,0.5,1.7,1.4C176.8,209.1,176.5,209.5,175.9,209.7z M175.1,207.8h-0.9
					v1.3h0.9c0.5,0,0.7-0.3,0.7-0.6C175.9,208,175.6,207.8,175.1,207.8z"/>
			</g>
			<g>
				<g>
					<path class="st1" d="M117.1,282.5c-0.2,0.1-0.4,0.3-0.6,0.4c-0.2,0.1-0.4,0.2-0.7,0.2c-0.2,0.1-0.5,0.1-0.8,0.1
						c-0.5,0-0.9-0.1-1.3-0.3c-0.4-0.2-0.7-0.4-1-0.7c-0.3-0.3-0.5-0.6-0.7-1c-0.2-0.4-0.2-0.8-0.2-1.3c0-0.5,0.1-0.9,0.2-1.3
						c0.2-0.4,0.4-0.8,0.7-1.1c0.3-0.3,0.6-0.5,1-0.7c0.4-0.2,0.8-0.3,1.3-0.3c0.3,0,0.6,0,0.8,0.1c0.2,0,0.5,0.1,0.7,0.2
						s0.4,0.2,0.6,0.3c0.2,0.1,0.3,0.3,0.5,0.4l-0.5,0.5c-0.3-0.3-0.6-0.5-0.9-0.6c-0.3-0.2-0.7-0.2-1.1-0.2c-0.4,0-0.7,0.1-1,0.2
						c-0.3,0.1-0.6,0.3-0.8,0.6c-0.2,0.2-0.4,0.5-0.5,0.8c-0.1,0.3-0.2,0.7-0.2,1s0.1,0.7,0.2,1c0.1,0.3,0.3,0.6,0.5,0.8
						c0.2,0.2,0.5,0.4,0.8,0.6c0.3,0.1,0.6,0.2,1,0.2c0.4,0,0.8-0.1,1.1-0.2c0.3-0.2,0.6-0.4,0.9-0.7l0.5,0.5
						C117.4,282.2,117.2,282.4,117.1,282.5z"/>
					<path class="st1" d="M123.1,281.7c-0.1,0.3-0.3,0.6-0.5,0.8s-0.5,0.4-0.8,0.5c-0.3,0.1-0.6,0.2-1,0.2c-0.4,0-0.7-0.1-1-0.2
						c-0.3-0.1-0.6-0.3-0.8-0.5c-0.2-0.2-0.4-0.5-0.5-0.8c-0.1-0.3-0.2-0.6-0.2-1c0-0.3,0.1-0.7,0.2-1c0.1-0.3,0.3-0.6,0.5-0.8
						s0.5-0.4,0.8-0.5c0.3-0.1,0.6-0.2,1-0.2c0.4,0,0.7,0.1,1,0.2s0.6,0.3,0.8,0.5c0.2,0.2,0.4,0.5,0.5,0.8c0.1,0.3,0.2,0.6,0.2,1
						C123.3,281,123.2,281.4,123.1,281.7z M122.4,280c-0.1-0.2-0.2-0.4-0.4-0.6c-0.2-0.2-0.3-0.3-0.6-0.4c-0.2-0.1-0.4-0.1-0.7-0.1
						c-0.3,0-0.5,0-0.7,0.1c-0.2,0.1-0.4,0.2-0.5,0.4c-0.1,0.2-0.3,0.4-0.4,0.6c-0.1,0.2-0.1,0.5-0.1,0.7c0,0.3,0,0.5,0.1,0.7
						c0.1,0.2,0.2,0.4,0.4,0.6c0.2,0.2,0.3,0.3,0.6,0.4c0.2,0.1,0.4,0.1,0.7,0.1c0.3,0,0.5,0,0.7-0.1c0.2-0.1,0.4-0.2,0.5-0.4
						c0.2-0.2,0.3-0.4,0.4-0.6c0.1-0.2,0.1-0.5,0.1-0.7C122.6,280.5,122.5,280.2,122.4,280z"/>
					<path class="st1" d="M125.3,283.1h-0.7v-4.7h0.7v0.8c0.2-0.3,0.4-0.5,0.6-0.7c0.3-0.2,0.6-0.3,1-0.3c0.3,0,0.5,0,0.8,0.1
						c0.2,0.1,0.4,0.2,0.6,0.4c0.2,0.2,0.3,0.4,0.4,0.6c0.1,0.2,0.1,0.5,0.1,0.8v2.9H128v-2.8c0-0.4-0.1-0.8-0.3-1
						c-0.2-0.3-0.5-0.4-1-0.4c-0.2,0-0.4,0-0.6,0.1c-0.2,0.1-0.3,0.2-0.5,0.3c-0.1,0.1-0.2,0.3-0.3,0.5c-0.1,0.2-0.1,0.4-0.1,0.6
						V283.1z"/>
					<path class="st1" d="M133.3,282.3c-0.1,0.2-0.2,0.3-0.4,0.4c-0.1,0.1-0.3,0.2-0.5,0.3c-0.2,0.1-0.4,0.1-0.7,0.1
						c-0.3,0-0.7-0.1-1-0.2c-0.3-0.1-0.7-0.3-0.9-0.5l0.4-0.5c0.3,0.2,0.5,0.3,0.8,0.4c0.3,0.1,0.6,0.2,0.8,0.2
						c0.3,0,0.5-0.1,0.7-0.2c0.2-0.1,0.3-0.3,0.3-0.5v0c0-0.1,0-0.2-0.1-0.3c-0.1-0.1-0.2-0.2-0.3-0.2c-0.1-0.1-0.2-0.1-0.4-0.2
						c-0.1,0-0.3-0.1-0.4-0.1c-0.2-0.1-0.4-0.1-0.6-0.2c-0.2-0.1-0.4-0.1-0.5-0.2c-0.1-0.1-0.3-0.2-0.4-0.4
						c-0.1-0.1-0.1-0.3-0.1-0.5v0c0-0.2,0-0.4,0.1-0.6c0.1-0.2,0.2-0.3,0.3-0.4c0.1-0.1,0.3-0.2,0.5-0.3c0.2-0.1,0.4-0.1,0.6-0.1
						c0.3,0,0.6,0,0.9,0.1c0.3,0.1,0.6,0.2,0.8,0.4l-0.3,0.5c-0.2-0.1-0.5-0.3-0.7-0.3c-0.2-0.1-0.5-0.1-0.7-0.1
						c-0.3,0-0.5,0.1-0.7,0.2s-0.2,0.3-0.2,0.5v0c0,0.1,0,0.2,0.1,0.3c0.1,0.1,0.2,0.2,0.3,0.2c0.1,0.1,0.2,0.1,0.4,0.2
						c0.1,0,0.3,0.1,0.5,0.1c0.2,0.1,0.4,0.1,0.5,0.2c0.2,0.1,0.3,0.2,0.5,0.3c0.1,0.1,0.3,0.2,0.4,0.4c0.1,0.1,0.1,0.3,0.1,0.5v0
						C133.4,282,133.4,282.2,133.3,282.3z"/>
					<path class="st1" d="M135.6,281.7c0,0.3,0.1,0.5,0.2,0.6c0.1,0.1,0.3,0.2,0.6,0.2c0.1,0,0.2,0,0.3,0c0.1,0,0.2-0.1,0.3-0.1v0.6
						c-0.1,0.1-0.3,0.1-0.4,0.2c-0.1,0-0.3,0.1-0.5,0.1c-0.2,0-0.4,0-0.5-0.1c-0.2,0-0.3-0.1-0.4-0.2c-0.1-0.1-0.2-0.2-0.3-0.4
						c-0.1-0.2-0.1-0.4-0.1-0.6V279h-0.7v-0.6h0.7v-1.4h0.7v1.4h1.5v0.6h-1.5V281.7z"/>
					<path class="st1" d="M139.1,283.1h-0.7v-4.7h0.7v1.2c0.1-0.2,0.2-0.4,0.3-0.5c0.1-0.2,0.3-0.3,0.4-0.4s0.3-0.2,0.5-0.3
						c0.2-0.1,0.4-0.1,0.6-0.1v0.8h-0.1c-0.3,0-0.5,0-0.7,0.1c-0.2,0.1-0.4,0.2-0.6,0.4c-0.2,0.2-0.3,0.4-0.4,0.7
						c-0.1,0.3-0.1,0.6-0.1,0.9V283.1z"/>
					<path class="st1" d="M145.4,278.3h0.7v4.7h-0.7v-0.8c-0.2,0.3-0.4,0.5-0.6,0.7s-0.6,0.3-1,0.3c-0.3,0-0.5,0-0.8-0.1
						c-0.2-0.1-0.4-0.2-0.6-0.4c-0.2-0.2-0.3-0.4-0.4-0.6c-0.1-0.2-0.1-0.5-0.1-0.8v-2.9h0.7v2.8c0,0.4,0.1,0.8,0.3,1
						c0.2,0.3,0.5,0.4,1,0.4c0.2,0,0.4,0,0.6-0.1c0.2-0.1,0.3-0.2,0.4-0.3c0.1-0.1,0.2-0.3,0.3-0.5c0.1-0.2,0.1-0.4,0.1-0.6V278.3z"
						/>
					<path class="st1" d="M151,282.9c-0.3,0.2-0.7,0.3-1.1,0.3c-0.3,0-0.7-0.1-1-0.2c-0.3-0.1-0.6-0.3-0.8-0.5
						c-0.2-0.2-0.4-0.5-0.5-0.8c-0.1-0.3-0.2-0.6-0.2-1c0-0.3,0.1-0.7,0.2-1c0.1-0.3,0.3-0.6,0.5-0.8c0.2-0.2,0.5-0.4,0.8-0.5
						c0.3-0.1,0.6-0.2,1-0.2c0.2,0,0.4,0,0.6,0.1c0.2,0,0.4,0.1,0.5,0.2c0.2,0.1,0.3,0.2,0.4,0.3c0.1,0.1,0.2,0.2,0.4,0.3l-0.5,0.5
						c-0.2-0.2-0.4-0.4-0.6-0.5c-0.2-0.1-0.5-0.2-0.8-0.2c-0.2,0-0.5,0-0.7,0.1c-0.2,0.1-0.4,0.2-0.5,0.4c-0.2,0.2-0.3,0.4-0.4,0.6
						c-0.1,0.2-0.1,0.5-0.1,0.7c0,0.3,0,0.5,0.1,0.7c0.1,0.2,0.2,0.4,0.4,0.6s0.3,0.3,0.5,0.4c0.2,0.1,0.4,0.1,0.7,0.1
						c0.3,0,0.6-0.1,0.8-0.2c0.2-0.1,0.4-0.3,0.6-0.5l0.4,0.4C151.5,282.5,151.3,282.7,151,282.9z"/>
					<path class="st1" d="M153.9,281.7c0,0.3,0.1,0.5,0.2,0.6c0.1,0.1,0.3,0.2,0.6,0.2c0.1,0,0.2,0,0.3,0c0.1,0,0.2-0.1,0.3-0.1v0.6
						c-0.1,0.1-0.3,0.1-0.4,0.2c-0.1,0-0.3,0.1-0.5,0.1c-0.2,0-0.4,0-0.5-0.1c-0.2,0-0.3-0.1-0.4-0.2c-0.1-0.1-0.2-0.2-0.3-0.4
						c-0.1-0.2-0.1-0.4-0.1-0.6V279h-0.7v-0.6h0.7v-1.4h0.7v1.4h1.5v0.6h-1.5V281.7z"/>
					<path class="st1" d="M156.7,277.3v-0.8h0.8v0.8H156.7z M156.7,283.1v-4.7h0.7v4.7H156.7z"/>
					<path class="st1" d="M163.5,281.7c-0.1,0.3-0.3,0.6-0.5,0.8c-0.2,0.2-0.5,0.4-0.8,0.5c-0.3,0.1-0.6,0.2-1,0.2
						c-0.4,0-0.7-0.1-1-0.2c-0.3-0.1-0.6-0.3-0.8-0.5c-0.2-0.2-0.4-0.5-0.5-0.8c-0.1-0.3-0.2-0.6-0.2-1c0-0.3,0.1-0.7,0.2-1
						c0.1-0.3,0.3-0.6,0.5-0.8c0.2-0.2,0.5-0.4,0.8-0.5c0.3-0.1,0.6-0.2,1-0.2c0.4,0,0.7,0.1,1,0.2c0.3,0.1,0.6,0.3,0.8,0.5
						c0.2,0.2,0.4,0.5,0.5,0.8c0.1,0.3,0.2,0.6,0.2,1C163.7,281,163.6,281.4,163.5,281.7z M162.8,280c-0.1-0.2-0.2-0.4-0.4-0.6
						c-0.2-0.2-0.3-0.3-0.6-0.4c-0.2-0.1-0.4-0.1-0.7-0.1c-0.3,0-0.5,0-0.7,0.1c-0.2,0.1-0.4,0.2-0.5,0.4c-0.1,0.2-0.3,0.4-0.4,0.6
						c-0.1,0.2-0.1,0.5-0.1,0.7c0,0.3,0,0.5,0.1,0.7c0.1,0.2,0.2,0.4,0.4,0.6c0.2,0.2,0.3,0.3,0.6,0.4c0.2,0.1,0.4,0.1,0.7,0.1
						c0.3,0,0.5,0,0.7-0.1c0.2-0.1,0.4-0.2,0.5-0.4c0.2-0.2,0.3-0.4,0.4-0.6c0.1-0.2,0.1-0.5,0.1-0.7
						C163,280.5,162.9,280.2,162.8,280z"/>
					<path class="st1" d="M165.7,283.1H165v-4.7h0.7v0.8c0.2-0.3,0.4-0.5,0.6-0.7s0.6-0.3,1-0.3c0.3,0,0.5,0,0.8,0.1
						c0.2,0.1,0.4,0.2,0.6,0.4c0.2,0.2,0.3,0.4,0.4,0.6c0.1,0.2,0.1,0.5,0.1,0.8v2.9h-0.7v-2.8c0-0.4-0.1-0.8-0.3-1
						c-0.2-0.3-0.5-0.4-1-0.4c-0.2,0-0.4,0-0.6,0.1c-0.2,0.1-0.3,0.2-0.5,0.3c-0.1,0.1-0.2,0.3-0.3,0.5c-0.1,0.2-0.1,0.4-0.1,0.6
						V283.1z"/>
				</g>
				<g>
					<path class="st1" d="M112.9,268.8l-1.8-4.5h-8.5l-1.8,4.5h-4.5l8.6-20.3h4.1l8.6,20.3H112.9z M106.8,253.8l-2.7,6.5h5.4
						L106.8,253.8z"/>
					<path class="st1" d="M130.6,268.8v-2.2c-1.1,1.4-2.5,2.5-4.8,2.5c-3.6,0-7-2.8-7-8V261c0-5.2,3.4-8,7-8c2.3,0,3.8,1.1,4.8,2.3
						v-7.6h4.4v21H130.6z M130.7,261c0-2.6-1.7-4.3-3.7-4.3c-2,0-3.8,1.7-3.8,4.3v0.1c0,2.6,1.7,4.3,3.8,4.3
						C129,265.4,130.7,263.7,130.7,261L130.7,261z"/>
					<path class="st1" d="M153.3,262.6h-10.8c0.4,2,1.8,3,3.8,3c1.5,0,2.5-0.5,3.7-1.6l2.5,2.2c-1.4,1.8-3.5,2.9-6.3,2.9
						c-4.6,0-8.1-3.3-8.1-8v-0.1c0-4.4,3.1-8,7.6-8c5.2,0,7.5,4,7.5,8.4v0.1C153.3,261.9,153.3,262.2,153.3,262.6z M145.8,256.6
						c-1.8,0-3,1.3-3.3,3.3h6.6C148.8,257.9,147.6,256.6,145.8,256.6z"/>
					<path class="st1" d="M165.8,269.1c-2.3,0-3.8-1.1-4.8-2.3v6.6h-4.4v-20.1h4.4v2.2c1.1-1.4,2.5-2.5,4.8-2.5c3.6,0,7,2.8,7,8v0.1
						C172.8,266.3,169.4,269.1,165.8,269.1z M168.4,261c0-2.6-1.7-4.3-3.8-4.3c-2,0-3.7,1.7-3.7,4.3v0.1c0,2.6,1.7,4.3,3.7,4.3
						C166.7,265.4,168.4,263.7,168.4,261L168.4,261z"/>
					<path class="st1" d="M181.3,269.1c-2.7,0-4.5-1.1-4.5-4.6v-7.3h-1.8v-3.7h1.8v-3.9h4.4v3.9h3.6v3.7h-3.6v6.6
						c0,1,0.4,1.5,1.4,1.5c0.8,0,1.5-0.2,2.2-0.5v3.5C183.8,268.7,182.7,269.1,181.3,269.1z"/>
				</g>
				<g>
					<g>
						<polygon class="st0" points="100.6,228.4 131.9,228.4 135.4,225 104,225 						"/>
						<path class="st0" d="M124.3,231.8H97.9h-0.7l-0.5,0.5l0,0c-0.3,0.3-0.5,0.7-0.5,1.2c0,1,0.8,1.7,1.7,1.7h26.5
							c0.5,0,0.9-0.2,1.2-0.5l0,0l2.9-2.9H124.3z"/>
						<polygon class="st0" points="110.9,218.1 107.5,221.5 138.8,221.5 140.5,219.9 138.7,218.1 						"/>
						<path class="st0" d="M128.3,207.7h-7c0,0,2.9-2.9,2.9-2.9c0.2-0.2,0.5-0.4,0.8-0.5L128.3,207.7z"/>
						<polygon class="st0" points="135.2,214.6 114.4,214.6 117.8,211.2 131.8,211.2 						"/>
					</g>
					<path class="st2" d="M184.3,232.4l-27.6-27.6c-0.3-0.3-0.7-0.5-1.2-0.5h-30.1c-0.2,0-0.3,0-0.5,0.1l30.5,30.5
						c0.3,0.3,0.7,0.5,1.2,0.5c0,0,26.5,0,26.5,0c1,0,1.7-0.8,1.7-1.7C184.8,233.1,184.6,232.7,184.3,232.4z"/>
				</g>
			</g>
		</g>
		<line class="st3" x1="64.2" y1="203.5" x2="216.7" y2="203.5"/>
		<line class="st3" x1="64.2" y1="283.1" x2="216.7" y2="283.1"/>
		<line class="st3" x1="96.1" y1="171.6" x2="96.1" y2="315"/>
		<line class="st3" x1="184.8" y1="171.6" x2="184.8" y2="315"/>
		<rect x="64.2" y="171.6" class="st6" width="152.4" height="143.4"/>
		<line class="st3" x1="64.2" y1="235.3" x2="216.7" y2="235.3"/>
		<line class="st3" x1="64.2" y1="248.5" x2="216.7" y2="248.5"/>
		<line class="st3" x1="64.2" y1="268.8" x2="216.7" y2="268.8"/>
		<line class="st7" x1="96.1" y1="276.5" x2="184.8" y2="276.5"/>
	</g>
	<g>
		<rect x="27.7" y="376.2" class="st4" width="31.9" height="31.9"/>
		<rect x="221.3" y="376.2" class="st4" width="31.9" height="31.9"/>
		<rect x="27.7" y="465.4" class="st4" width="31.9" height="31.9"/>
		<rect x="221.3" y="465.4" class="st4" width="31.9" height="31.9"/>
		<g>
			<g>
				<polygon class="st0" points="67.7,452.8 124.9,452.8 131.2,446.5 74,446.5 				"/>
				<path class="st0" d="M111,459.1H62.7h-1.3l-0.9,0.9l0,0c-0.6,0.6-0.9,1.3-0.9,2.2c0,1.7,1.4,3.1,3.1,3.1H111
					c0.9,0,1.6-0.3,2.2-0.9l0,0l5.4-5.4H111z"/>
				<polygon class="st0" points="86.6,434 80.3,440.3 137.5,440.3 140.5,437.3 137.2,434 				"/>
				<path class="st0" d="M118.3,415.1h-12.9c0,0,5.3-5.3,5.3-5.3c0.4-0.4,0.8-0.7,1.4-0.8L118.3,415.1z"/>
				<polygon class="st0" points="130.9,427.7 92.9,427.7 99.2,421.4 124.6,421.4 				"/>
			</g>
			<path class="st2" d="M220.4,460.1l-50.3-50.3c-0.6-0.6-1.3-0.9-2.2-0.9H113c-0.3,0-0.6,0.1-0.9,0.1l55.6,55.6
				c0.6,0.5,1.3,0.8,2.1,0.9c0,0,48.3,0,48.3,0c1.7,0,3.1-1.4,3.1-3.1C221.3,461.4,221,460.6,220.4,460.1z"/>
		</g>
		<line class="st3" x1="27.7" y1="408.1" x2="253.2" y2="408.1"/>
		<line class="st3" x1="27.7" y1="465.4" x2="253.2" y2="465.4"/>
		<rect x="27.7" y="376.2" class="st6" width="225.5" height="121.2"/>
		<line class="st3" x1="59.6" y1="376.2" x2="59.6" y2="497.3"/>
		<line class="st3" x1="221.3" y1="376.2" x2="221.3" y2="497.3"/>
	</g>
</g>
</svg>
