<?xml version="1.0" encoding="utf-8"?>
<!-- Generator: Adobe Illustrator 26.3.1, SVG Export Plug-In . SVG Version: 6.00 Build 0)  -->
<svg version="1.1" id="Layer_1" xmlns="http://www.w3.org/2000/svg" xmlns:xlink="http://www.w3.org/1999/xlink" x="0px" y="0px"
	 viewBox="0 0 531.2 248" style="enable-background:new 0 0 531.2 248;" xml:space="preserve">
<style type="text/css">
	.st0{fill:#A6A8AB;stroke:#231F20;stroke-width:0.25;stroke-miterlimit:10;}
	.st1{fill:none;stroke:#FFFFFF;stroke-width:0.5;stroke-miterlimit:10;}
	.st2{fill:none;stroke:#FFFFFF;stroke-width:0.5;stroke-miterlimit:10;stroke-dasharray:1.0121,1.0121;}
	.st3{fill:#FFFFFF;}
	.st4{fill:none;stroke:#FFFFFF;stroke-width:0.5;stroke-miterlimit:10;stroke-dasharray:1.0171,1.0171;}
	.st5{fill:none;stroke:#FFFFFF;stroke-width:0.5;stroke-miterlimit:10;stroke-dasharray:1.0231,1.0231;}
	.st6{fill:none;stroke:#FFFFFF;stroke-width:0.5;stroke-miterlimit:10;stroke-dasharray:1.0372,1.0372;}
	.st7{font-family:'Gotham-Bold';}
	.st8{font-size:7.054px;}
	.st9{fill:#D0D2D3;}
	.st10{fill:none;stroke:#FFFFFF;stroke-width:0.5;stroke-miterlimit:10;stroke-dasharray:1,1;}
</style>
<g>
	<g>
		<polygon class="st0" points="74.1,164 239.3,164 257.5,145.8 92.2,145.8 		"/>
		<path class="st0" d="M199.2,182.2H59.6h-3.8l-2.6,2.6l-0.1,0.1c-1.6,1.6-2.6,3.9-2.6,6.4c0,5,4.1,9.1,9.1,9.1h139.6
			c2.5,0,4.7-1,6.4-2.6l0.1-0.1l15.5-15.5H199.2z"/>
		<path class="st0" d="M515.5,184.9L370,39.3c-1.6-1.6-3.9-2.6-6.3-2.6H205.1c-2.6,0-4.9,1.1-6.5,2.8l-15.4,15.4h37.2l18.2,18.2
			h-73.5l-18.2,18.2h109.9l18.2,18.2H128.6l-18.2,18.1h165.2l8.7-8.7l78.9,78.9c1.6,1.5,3.7,2.4,6.1,2.5H509c5,0,9.1-4.1,9.1-9.1
			C518.1,188.8,517.1,186.5,515.5,184.9z"/>
	</g>
	<line class="st1" x1="201.6" y1="8.8" x2="201.6" y2="45.5"/>
	<line class="st1" x1="367" y1="45.5" x2="367" y2="8.8"/>
	<circle class="st1" cx="59.6" cy="191.2" r="9.1"/>
	<circle class="st1" cx="199.2" cy="191.2" r="9.1"/>
	<circle class="st1" cx="369.5" cy="191.2" r="9.1"/>
	<circle class="st1" cx="509" cy="191.2" r="9.1"/>
	<circle class="st1" cx="363.6" cy="45.8" r="9.1"/>
	
		<ellipse transform="matrix(0.2298 -0.9732 0.9732 0.2298 113.4029 234.8907)" class="st1" cx="205.1" cy="45.8" rx="9.1" ry="9.1"/>
	<line class="st1" x1="37.7" y1="200.3" x2="208.3" y2="29.7"/>
	<g>
		<g>
			<line class="st1" x1="123.9" y1="71.2" x2="124.3" y2="70.8"/>
			<line class="st2" x1="125" y1="70.1" x2="137.5" y2="57.6"/>
			<line class="st1" x1="137.9" y1="57.2" x2="138.2" y2="56.9"/>
			<g>
				<polygon class="st3" points="122.1,68.8 126.3,73.1 122.1,73.1 				"/>
			</g>
			<g>
				<polygon class="st3" points="135.8,55 140.1,59.3 140.1,55 				"/>
			</g>
		</g>
	</g>
	<g>
		<g>
			<line class="st1" x1="87.6" y1="107.5" x2="88" y2="107.2"/>
			<line class="st4" x1="88.7" y1="106.4" x2="101.3" y2="93.8"/>
			<line class="st1" x1="101.6" y1="93.5" x2="102" y2="93.1"/>
			<g>
				<polygon class="st3" points="85.7,105.1 90,109.4 85.7,109.4 				"/>
			</g>
			<g>
				<polygon class="st3" points="99.5,91.3 103.8,95.6 103.8,91.3 				"/>
			</g>
		</g>
	</g>
	<g>
		<g>
			<line class="st1" x1="51.2" y1="143.9" x2="51.5" y2="143.6"/>
			<line class="st5" x1="52.2" y1="142.9" x2="64.9" y2="130.2"/>
			<line class="st1" x1="65.3" y1="129.8" x2="65.6" y2="129.5"/>
			<g>
				<polygon class="st3" points="49.3,141.5 53.6,145.8 49.3,145.8 				"/>
			</g>
			<g>
				<polygon class="st3" points="63.2,127.6 67.5,131.9 67.5,127.6 				"/>
			</g>
		</g>
	</g>
	<g>
		<g>
			<line class="st1" x1="14.7" y1="180.5" x2="15" y2="180.1"/>
			<line class="st6" x1="15.7" y1="179.4" x2="28.6" y2="166.5"/>
			<line class="st1" x1="28.9" y1="166.2" x2="29.3" y2="165.8"/>
			<g>
				<polygon class="st3" points="12.8,178 17.1,182.3 12.8,182.3 				"/>
			</g>
			<g>
				<polygon class="st3" points="26.9,164 31.2,168.3 31.2,164 				"/>
			</g>
		</g>
	</g>
	<line class="st1" x1="18.8" y1="200.3" x2="189.4" y2="29.7"/>
	<line class="st1" x1="203" y1="200.3" x2="373.5" y2="29.7"/>
	<line class="st1" x1="365.6" y1="200.3" x2="195" y2="29.7"/>
	<line class="st1" x1="531" y1="200.3" x2="360.4" y2="29.7"/>
	<path class="st1" d="M15.3,182.3"/>
	<path class="st1" d="M24.5,164"/>
	<path class="st1" d="M33.1,164"/>
	<path class="st1" d="M51.3,145.8"/>
	<text transform="matrix(1 0 0 1 14.0631 173.1406)" class="st3 st7 st8">X</text>
	<text transform="matrix(1 0 0 1 49.9874 136.7179)" class="st3 st7 st8">X</text>
	<text transform="matrix(1 0 0 1 87.1822 100.0398)" class="st3 st7 st8">X</text>
	<text transform="matrix(1 0 0 1 123.5201 64.1386)" class="st3 st7 st8">X</text>
	<text transform="matrix(1 0 0 1 165.1129 45.209)" class="st3 st7 st8">X</text>
	<text transform="matrix(1 0 0 1 126.8648 84.3567)" class="st3 st7 st8">X</text>
	<text transform="matrix(1 0 0 1 91.3702 120.2569)" class="st3 st7 st8">X</text>
	<text transform="matrix(1 0 0 1 53.9683 157.0202)" class="st3 st7 st8">X</text>
	<text transform="matrix(1 0 0 1 16.773 193.3318)" class="st3 st7 st8">X</text>
	<line class="st1" x1="50.5" y1="191.2" x2="50.5" y2="224.9"/>
	<line class="st1" x1="208.3" y1="191.2" x2="208.3" y2="238.3"/>
	<line class="st1" x1="360.4" y1="191.2" x2="360.4" y2="238.3"/>
	<line class="st1" x1="518.2" y1="191.2" x2="518.2" y2="224.9"/>
	<line class="st1" x1="0" y1="200.3" x2="531" y2="200.3"/>
	<g>
		<path class="st9" d="M55.8,182H37.2h-0.4l-0.2,0.2l-0.8,0.8l-0.2,0.2l-0.8,0.8l-0.2,0.2l-0.8,0.8l-0.2,0.2l-0.8,0.8l-0.2,0.2
			l-0.8,0.8l-0.2,0.2l-0.8,0.8l-0.2,0.2l-0.8,0.8l-0.2,0.2l-0.8,0.8l-0.2,0.2l-0.8,0.8l-0.2,0.2l-0.8,0.8l-0.2,0.2l-0.8,0.8
			l-0.2,0.2l-0.8,0.8l-0.2,0.2l-0.8,0.8l-0.2,0.2l-0.8,0.8l-0.2,0.2l-0.8,0.8l-0.2,0.2l-0.8,0.8l-0.2,0.2l-0.8,0.8h0.4l0.8-0.8h18.6
			l-0.8,0.8H19.1l-0.2,0.2h18.8h0.1L38,199l0.8-0.8L39,198l0.8-0.8L40,197l0.8-0.8L41,196l0.8-0.8L42,195l0.8-0.8L43,194l0.8-0.8
			L44,193l0.8-0.8L45,192l0.8-0.8L46,191l0.8-0.8L47,190l0.8-0.8L48,189l0.8-0.8L49,188l0.8-0.8L50,187l0.8-0.8L51,186l0.8-0.8
			L52,185l0.8-0.8L53,184l0.8-0.8L54,183l0.8-0.8L55,182H55.8z M38.8,199.1H20.2l0.8-0.8h18.6L38.8,199.1z M39.8,198H21.3l0.8-0.8
			h18.6L39.8,198z M40.9,196.9H22.3l0.8-0.8h18.6L40.9,196.9z M42,195.9H23.4l0.8-0.8h18.6L42,195.9z M43,194.8H24.5l0.8-0.8h18.6
			L43,194.8z M44.1,193.7H25.5l0.8-0.8h18.6L44.1,193.7z M45.2,192.7H26.6l0.8-0.8H46L45.2,192.7z M46.2,191.6H27.7l0.8-0.8h18.6
			L46.2,191.6z M47.3,190.5H28.7l0.8-0.8h18.6L47.3,190.5z M48.3,189.5H29.8l0.8-0.8h18.6L48.3,189.5z M49.4,188.4H30.8l0.8-0.8
			h18.6L49.4,188.4z M50.5,187.4H31.9l0.8-0.8h18.6L50.5,187.4z M51.5,186.3H33l0.8-0.8h18.6L51.5,186.3z M52.6,185.2H34l0.8-0.8
			h18.6L52.6,185.2z M53.7,184.2H35.1l0.8-0.8h18.6L53.7,184.2z M54.7,183.1H36.2l0.8-0.8h18.6L54.7,183.1z"/>
		<path class="st9" d="M54.9,164H36.4H36l-0.2,0.2L35,165l-0.2,0.2L34,166l-0.2,0.2L33,167l-0.2,0.2L32,168l-0.2,0.2L31,169
			l-0.2,0.2L30,170l-0.2,0.2L29,171l-0.2,0.2L28,172l-0.2,0.2L27,173l-0.2,0.2L26,174l-0.2,0.2L25,175l-0.2,0.2L24,176l-0.2,0.2
			L23,177l-0.2,0.2L22,178l-0.2,0.2L21,179l-0.2,0.2L20,180l-0.2,0.2L19,181h0.4l0.8-0.8h18.6L38,181H18.3l-0.2,0.2h18.8H37l0.2-0.2
			l0.8-0.8l0.2-0.2l0.8-0.8l0.2-0.2l0.8-0.8l0.2-0.2l0.8-0.8l0.2-0.2l0.8-0.8l0.2-0.2l0.8-0.8l0.2-0.2l0.8-0.8l0.2-0.2l0.8-0.8
			l0.2-0.2l0.8-0.8l0.2-0.2l0.8-0.8l0.2-0.2l0.8-0.8l0.2-0.2l0.8-0.8l0.2-0.2l0.8-0.8l0.2-0.2l0.8-0.8l0.2-0.2l0.8-0.8l0.2-0.2
			l0.8-0.8l0.2-0.2l0.8-0.8l0.2-0.2H54.9z M37.9,181H19.4l0.8-0.8h18.6L37.9,181z M39,179.9H20.4l0.8-0.8h18.6L39,179.9z M40,178.9
			H21.5l0.8-0.8h18.6L40,178.9z M41.1,177.8H22.5l0.9-0.8H42L41.1,177.8z M42.2,176.7H23.6l0.8-0.8H43L42.2,176.7z M43.2,175.7H24.7
			l0.8-0.8h18.6L43.2,175.7z M44.3,174.6H25.7l0.8-0.8h18.6L44.3,174.6z M45.4,173.6H26.8l0.8-0.8h18.6L45.4,173.6z M46.4,172.5
			H27.9l0.8-0.8h18.6L46.4,172.5z M47.5,171.4H28.9l0.8-0.8h18.6L47.5,171.4z M48.6,170.4H30l0.8-0.8h18.6L48.6,170.4z M49.6,169.3
			H31.1l0.8-0.8h18.5L49.6,169.3z M50.7,168.2H32.1l0.8-0.8h18.6L50.7,168.2z M51.8,167.2H33.2l0.8-0.8h18.6L51.8,167.2z
			 M52.8,166.1H34.3l0.8-0.8h18.6L52.8,166.1z M53.9,165H35.3l0.8-0.8h18.6L53.9,165z"/>
		<path class="st9" d="M92.1,145.7H73.5h-0.4l-0.2,0.2l-0.8,0.8l-0.2,0.2l-0.8,0.8l-0.2,0.2l-0.8,0.8l-0.2,0.2l-0.8,0.8l-0.2,0.2
			l-0.8,0.8l-0.2,0.2l-0.8,0.8l-0.2,0.2l-0.8,0.8l-0.2,0.2l-0.8,0.8l-0.2,0.2l-0.8,0.8l-0.2,0.2l-0.8,0.8l-0.2,0.2l-0.8,0.8
			l-0.2,0.2l-0.8,0.8l-0.2,0.2l-0.8,0.8l-0.2,0.2l-0.8,0.8l-0.2,0.2l-0.8,0.8l-0.2,0.2l-0.8,0.8l-0.2,0.2l-0.8,0.8h0.4l0.8-0.8h18.6
			l-0.8,0.8H56.5l-0.2,0.2h18.8h0.1l0.2-0.2l0.8-0.8l0.2-0.2l0.8-0.8l0.2-0.2l0.8-0.8l0.2-0.2l0.8-0.8l0.2-0.2l0.8-0.8l0.2-0.2
			l0.8-0.8l0.2-0.2l0.8-0.8l0.2-0.2l0.8-0.8l0.2-0.2l0.8-0.8l0.2-0.2l0.8-0.8l0.2-0.2l0.8-0.8l0.2-0.2l0.8-0.8l0.2-0.2l0.8-0.8
			l0.2-0.2l0.8-0.8l0.2-0.2l0.8-0.8l0.2-0.2l0.8-0.8l0.2-0.2l0.8-0.8l0.2-0.2H92.1z M75.1,162.7H56.5l0.8-0.8h18.6L75.1,162.7z
			 M76.2,161.7H57.6l0.8-0.8H77L76.2,161.7z M77.2,160.6H58.6l0.8-0.8H78L77.2,160.6z M78.3,159.6H59.7l0.8-0.8h18.6L78.3,159.6z
			 M79.4,158.5H60.8l0.8-0.8h18.6L79.4,158.5z M80.4,157.4H61.8l0.8-0.8h18.6L80.4,157.4z M81.5,156.4H62.9l0.8-0.8h18.6L81.5,156.4
			z M82.6,155.3H64l0.8-0.8h18.6L82.6,155.3z M83.6,154.2H65l0.8-0.8h18.6L83.6,154.2z M84.7,153.2H66.1l0.8-0.8h18.6L84.7,153.2z
			 M85.8,152.1H67.2l0.8-0.8h18.6L85.8,152.1z M86.8,151H68.2l0.8-0.8h18.6L86.8,151z M87.9,150H69.3l0.8-0.8h18.6L87.9,150z
			 M88.9,148.9H70.4l0.8-0.8h18.6L88.9,148.9z M90,147.9H71.4l0.8-0.8h18.6L90,147.9z M91.1,146.8H72.5l0.8-0.8h18.6L91.1,146.8z"/>
		<path class="st9" d="M91.3,127.6H72.7h-0.3l-0.2,0.2l-0.8,0.8l-0.2,0.2l-0.8,0.8l-0.2,0.2l-0.8,0.8l-0.2,0.2l-0.8,0.8l-0.2,0.2
			l-0.8,0.8l-0.2,0.2l-0.8,0.8l-0.2,0.2l-0.8,0.8l-0.2,0.2l-0.8,0.8l-0.2,0.2l-0.8,0.8l-0.2,0.2l-0.8,0.8l-0.2,0.2l-0.8,0.8
			l-0.2,0.2l-0.8,0.8l-0.2,0.2l-0.8,0.8l-0.2,0.2l-0.8,0.8l-0.2,0.2l-0.8,0.8l-0.2,0.2l-0.8,0.8l-0.2,0.2l-0.8,0.8h0.4l0.8-0.8h18.6
			l-0.8,0.8H55.8l-1.4,1.4h18.8h0.1l0.2-0.2l0.8-0.8l0.2-0.2l0.8-0.8l0.2-0.2l0.8-0.8l0.2-0.2l0.8-0.8l0.2-0.2l0.8-0.8l0.2-0.2
			l0.8-0.8l0.2-0.2l0.8-0.8l0.2-0.2l0.8-0.8l0.2-0.2l0.8-0.8l0.2-0.2l0.8-0.8l0.2-0.2l0.8-0.8l0.2-0.2l0.8-0.8l0.2-0.2l0.8-0.8
			l0.2-0.2l0.8-0.8l0.2-0.2l0.8-0.8l0.2-0.2l0.8-0.8l0.2-0.2l0.8-0.8l0.2-0.2h0.8V127.6z M74.3,144.7H55.7l0.8-0.8h18.6L74.3,144.7z
			 M75.4,143.6H56.8l0.8-0.8h18.6L75.4,143.6z M76.4,142.5H57.8l0.8-0.8h18.6L76.4,142.5z M77.5,141.5H58.9l0.8-0.8h18.6L77.5,141.5
			z M78.5,140.4H59.9l0.8-0.8h18.7L78.5,140.4z M79.6,139.3H61l0.8-0.8h18.6L79.6,139.3z M80.7,138.3H62.1l0.8-0.8h18.6L80.7,138.3z
			 M81.7,137.2H63.1l0.8-0.8h18.6L81.7,137.2z M82.8,136.1H64.2l0.8-0.8h18.6L82.8,136.1z M83.9,135.1H65.3l0.8-0.8h18.6L83.9,135.1
			z M84.9,134H66.4l0.8-0.8h18.6L84.9,134z M86,133H67.4l0.8-0.8h18.6L86,133z M87.1,131.9H68.5l0.8-0.8h18.6L87.1,131.9z
			 M88.1,130.8H69.5l0.8-0.8h18.6L88.1,130.8z M89.2,129.8H70.6l0.8-0.8H90L89.2,129.8z M90.3,128.7H71.7l0.8-0.8h18.6L90.3,128.7z"
			/>
		<path class="st9" d="M128.5,109.4h-18.6h-0.4l-0.2,0.2l-0.8,0.8l-0.2,0.2l-0.8,0.8l-0.2,0.2l-0.8,0.8l-0.2,0.2l-0.8,0.8l-0.2,0.2
			l-0.8,0.8l-0.2,0.2l-0.8,0.8l-0.2,0.2l-0.8,0.8l-0.2,0.2l-0.8,0.8l-0.2,0.2l-0.8,0.8l-0.2,0.2l-0.8,0.8l-0.2,0.2l-0.8,0.8
			l-0.2,0.2l-0.8,0.8l-0.2,0.2l-0.8,0.8l-0.2,0.2l-0.8,0.8l-0.2,0.2l-0.8,0.8l-0.2,0.2l-0.8,0.8l-0.2,0.2l-0.8,0.8h0.4l0.8-0.8h18.6
			l-0.8,0.8H92.9l-0.2,0.2h17.7h0.1l0.2-0.2l0.8-0.8l0.2-0.2l0.8-0.8l0.2-0.2l0.8-0.8l0.2-0.2l0.8-0.8l0.2-0.2l0.8-0.8l0.2-0.2
			l0.8-0.8l0.2-0.2l0.8-0.8l0.2-0.2l0.8-0.8l0.2-0.2l0.8-0.8l0.2-0.2l0.8-0.8l0.2-0.2l0.8-0.8l0.2-0.2l0.8-0.8l0.2-0.2l0.8-0.8
			l0.2-0.2l0.8-0.8l0.2-0.2l0.8-0.8l0.2-0.2l0.8-0.8l0.2-0.2l0.8-0.8l0.2-0.2H128.5z M111.5,126.4H92.9l0.8-0.8h18.6L111.5,126.4z
			 M112.5,125.3H93.9l0.8-0.8h18.6L112.5,125.3z M113.6,124.3H95l0.8-0.8h18.6L113.6,124.3z M114.6,123.2H96l0.8-0.8h18.6
			L114.6,123.2z M115.7,122.1H97.1l0.8-0.8h18.6L115.7,122.1z M116.8,121.1H98.2l0.8-0.8h18.6L116.8,121.1z M117.8,120H99.2l0.8-0.8
			h18.6L117.8,120z M118.9,118.9h-18.6l0.8-0.8h18.6L118.9,118.9z M120,117.9h-18.6l0.8-0.8h18.6L120,117.9z M121,116.8h-18.6
			l0.8-0.8h18.6L121,116.8z M122.1,115.8h-18.6l0.8-0.8h18.6L122.1,115.8z M123.2,114.7h-18.6l0.8-0.8H124L123.2,114.7z
			 M124.2,113.6h-18.6l0.8-0.8H125L124.2,113.6z M125.3,112.6h-18.6l0.8-0.8h18.6L125.3,112.6z M126.4,111.5h-18.6l0.8-0.8h18.6
			L126.4,111.5z M127.4,110.4h-18.6l0.8-0.8h18.6L127.4,110.4z"/>
		<path class="st9" d="M127.7,91.3h-18.6h-0.4l-0.2,0.2l-0.8,0.8l-0.2,0.2l-0.8,0.8l-0.2,0.2l-0.8,0.8l-0.2,0.2l-0.8,0.8l-0.2,0.2
			l-0.8,0.8l-0.2,0.2l-0.8,0.8l-0.2,0.2l-0.8,0.8l-0.2,0.2l-0.8,0.8l-0.2,0.2l-0.8,0.8l-0.2,0.2l-0.8,0.8l-0.2,0.2l-0.8,0.8
			l-0.2,0.2l-0.8,0.8l-0.2,0.2l-0.8,0.8l-0.2,0.2l-0.8,0.8l-0.2,0.2l-0.8,0.8l-0.2,0.2l-0.8,0.8l-0.2,0.2l-0.8,0.8h0.4l0.8-0.8h17.5
			l-0.8,0.8H91l-0.2,0.2h18.8h0.1l0.2-0.2l0.8-0.8l0.2-0.2l0.8-0.8l0.2-0.2l0.8-0.8l0.2-0.2l0.8-0.8l0.2-0.2l0.8-0.8l0.2-0.2
			l0.8-0.8l0.2-0.2l0.8-0.8l0.2-0.2l0.8-0.8l0.2-0.2l0.8-0.8l0.2-0.2l0.8-0.8l0.2-0.2l0.8-0.8l0.2-0.2l0.8-0.8l0.2-0.2l0.8-0.8
			l0.2-0.2l0.8-0.8l0.2-0.2l0.8-0.8l0.2-0.2l0.8-0.8l0.2-0.2l0.8-0.8l0.2-0.2H127.7z M110.7,108.3H92.1l0.8-0.8h18.6L110.7,108.3z
			 M111.7,107.2H93.1l0.8-0.8h18.6L111.7,107.2z M112.8,106.2H94.2l0.8-0.8h18.6L112.8,106.2z M113.8,105.1H95.2l0.8-0.8h18.6
			L113.8,105.1z M114.9,104H96.3l0.8-0.8h18.6L114.9,104z M116,103H97.4l0.8-0.8h18.6L116,103z M117,101.9H98.4l0.8-0.8h18.6
			L117,101.9z M118.1,100.9H99.5l0.8-0.8h18.6L118.1,100.9z M119.2,99.8h-18.6l0.8-0.8H120L119.2,99.8z M120.2,98.7h-18.6l0.8-0.8
			H121L120.2,98.7z M121.3,97.7h-18.6l0.8-0.8h18.6L121.3,97.7z M122.4,96.6h-18.6l0.8-0.8h18.6L122.4,96.6z M123.4,95.5h-18.6
			l0.8-0.8h18.6L123.4,95.5z M124.5,94.5h-18.6l0.8-0.8h18.6L124.5,94.5z M125.6,93.4H107l0.8-0.8h18.6L125.6,93.4z M126.6,92.3H108
			l0.8-0.8h18.6L126.6,92.3z"/>
		<path class="st9" d="M164.8,73.1h-18.6h-0.4l-0.2,0.2l-0.8,0.8l-0.2,0.2l-0.8,0.8l-0.2,0.2l-0.8,0.8l-0.2,0.2l-0.8,0.8l-0.2,0.2
			l-0.8,0.8l-0.2,0.2l-0.8,0.8l-0.2,0.2l-0.8,0.8l-0.2,0.2l-0.8,0.8l-0.2,0.2l-0.8,0.8l-0.2,0.2l-0.8,0.8l-0.2,0.2l-0.8,0.8
			l-0.2,0.2l-0.8,0.8l-0.2,0.2l-0.8,0.8l-0.2,0.2l-0.8,0.8l-0.2,0.2l-0.8,0.8l-0.2,0.2l-0.8,0.8l-0.2,0.2l-0.8,0.8h0.4l0.8-0.8h18.6
			l-0.8,0.8h-18.6l-0.2,0.2h18.8h0.1l0.2-0.2l0.8-0.8l0.2-0.2l0.8-0.8l0.2-0.2l0.8-0.8l0.2-0.2l0.8-0.8l0.2-0.2l0.8-0.8l0.2-0.2
			l0.8-0.8l0.2-0.2l0.8-0.8l0.2-0.2l0.8-0.8l0.2-0.2l0.8-0.8l0.2-0.2l0.8-0.8l0.2-0.2l0.8-0.8l0.2-0.2l0.8-0.8l0.2-0.2l0.8-0.8
			l0.2-0.2l0.8-0.8l0.2-0.2l0.8-0.8l0.2-0.2l0.8-0.8l0.2-0.2l0.8-0.8l0.2-0.2H164.8z M147.8,90.1h-18.6l0.8-0.8h18.6L147.8,90.1z
			 M148.8,89h-18.6l0.8-0.8h18.6L148.8,89z M149.9,88h-18.6l0.8-0.8h18.6L149.9,88z M151,86.9h-18.6l0.8-0.8h18.6L151,86.9z
			 M152,85.8h-18.6l0.8-0.8h18.6L152,85.8z M153.1,84.8h-18.6l0.8-0.8h18.6L153.1,84.8z M154.2,83.7h-18.6l0.8-0.8H155L154.2,83.7z
			 M155.2,82.6h-18.6l0.8-0.8H156L155.2,82.6z M156.3,81.6h-18.6l0.8-0.8h18.6L156.3,81.6z M157.4,80.5h-18.6l0.8-0.8h18.6
			L157.4,80.5z M158.4,79.4h-18.6l0.8-0.8h18.6L158.4,79.4z M159.5,78.4h-18.6l0.8-0.8h18.6L159.5,78.4z M160.5,77.3h-18.6l0.8-0.8
			h18.7L160.5,77.3z M161.6,76.3H143l0.8-0.8h18.6L161.6,76.3z M162.7,75.2h-18.6l0.8-0.8h18.6L162.7,75.2z M163.7,74.1h-18.6
			l0.8-0.8h18.6L163.7,74.1z"/>
		<path class="st9" d="M164,55h-18.6H145l-0.2,0.2L144,56l-0.2,0.2L143,57l-0.2,0.2L142,58l-0.2,0.2L141,59l-0.2,0.2L140,60
			l-0.2,0.2L139,61l-0.2,0.2L138,62l-0.2,0.2L137,63l-0.2,0.2L136,64l-0.2,0.2L135,65l-0.2,0.2L134,66l-0.2,0.2L133,67l-0.2,0.2
			L132,68l-0.2,0.2L131,69l-0.2,0.2L130,70l-0.2,0.2L129,71l-0.2,0.2L128,72h0.4l0.8-0.8h18.6L147,72h-18.6l-0.2,0.2H147h0.1
			l0.2-0.2l0.8-0.8l0.2-0.2l0.8-0.8l0.2-0.2l0.8-0.8l0.2-0.2l0.8-0.8l0.2-0.2l0.8-0.8l0.2-0.2l0.8-0.8l0.2-0.2l0.8-0.8l0.2-0.2
			l0.8-0.8l0.2-0.2l0.8-0.8l0.2-0.2l0.8-0.8l0.2-0.2l0.8-0.8l0.2-0.2l0.8-0.8l0.2-0.2l0.8-0.8l0.2-0.2l0.8-0.8l0.2-0.2l0.8-0.8
			l0.2-0.2l0.8-0.8l0.2-0.2l0.8-0.8l0.2-0.2C164.3,55,164,55,164,55z M146.9,72h-18.5l0.8-0.8h18.6L146.9,72z M148,70.9h-18.6
			l0.8-0.8h18.6L148,70.9z M149.1,69.9h-18.6l0.8-0.8h18.6L149.1,69.9z M150.1,68.8h-18.6l0.9-0.8H151L150.1,68.8z M151.2,67.7
			h-18.6l0.8-0.8H152L151.2,67.7z M152.3,66.7h-18.6l0.8-0.8h18.6L152.3,66.7z M153.3,65.6h-18.6l0.8-0.8h18.6L153.3,65.6z
			 M154.4,64.5h-18.6l0.8-0.8h18.6L154.4,64.5z M155.5,63.5h-18.6l0.8-0.8h18.6L155.5,63.5z M156.5,62.4h-18.6l0.8-0.8h18.6
			L156.5,62.4z M157.6,61.4H139l0.8-0.8h18.6L157.6,61.4z M158.7,60.3h-18.6l0.8-0.8h18.6L158.7,60.3z M159.7,59.2h-18.6l0.8-0.8
			h18.6L159.7,59.2z M160.8,58.2h-18.6l0.8-0.8h18.6L160.8,58.2z M161.8,57.1h-18.6l0.8-0.8h18.6L161.8,57.1z M162.9,56h-18.6
			l0.8-0.8h18.6L162.9,56z"/>
		<path class="st9" d="M201.2,36.7h-18.6h-0.4l-0.2,0.2l-0.8,0.8l-0.2,0.2l-0.8,0.8l-0.2,0.2l-0.8,0.8l-0.2,0.2l-0.8,0.8l-0.2,0.2
			l-0.8,0.8l-0.2,0.2l-0.8,0.8l-0.2,0.2l-0.8,0.8l-0.2,0.2l-0.8,0.8l-0.2,0.2l-0.8,0.8l-0.2,0.2l-0.8,0.8l-0.2,0.2l-0.8,0.8
			l-0.2,0.2l-0.8,0.8l-0.2,0.2l-0.8,0.8l-0.2,0.2l-0.8,0.8l-0.2,0.2l-0.8,0.8l-0.2,0.2l-0.8,0.8l-0.2,0.2l-0.8,0.8h0.4l0.8-0.8H185
			l-0.8,0.8h-18.6l-0.2,0.2h18.8h0.1l0.2-0.2l0.8-0.8l0.2-0.2l0.8-0.8l0.2-0.2l0.8-0.8l0.2-0.2l0.8-0.8l0.2-0.2l0.8-0.8l0.2-0.2
			l0.8-0.8l0.2-0.2l0.8-0.8l0.2-0.2l0.8-0.8l0.2-0.2l0.8-0.8l0.2-0.2l0.8-0.8l0.2-0.2l0.8-0.8l0.2-0.2l0.8-0.8l0.2-0.2l0.8-0.8
			l0.2-0.2l0.8-0.8l0.2-0.2l0.8-0.8l0.2-0.2l0.8-0.8l0.2-0.2l0.8-0.8l0.2-0.2H201.2z M184.1,53.7h-18.6l0.8-0.8h18.6L184.1,53.7z
			 M185.2,52.7h-18.6l0.8-0.8H186L185.2,52.7z M186.3,51.6h-18.6l0.8-0.8h18.6L186.3,51.6z M187.3,50.5h-18.6l0.8-0.8h18.6
			L187.3,50.5z M188.4,49.5h-18.6l0.8-0.8h18.6L188.4,49.5z M189.5,48.4h-18.6l0.8-0.8h18.6L189.5,48.4z M190.5,47.3h-18.6l0.8-0.8
			h18.6L190.5,47.3z M191.6,46.3H173l0.8-0.8h18.6L191.6,46.3z M192.6,45.2H174l0.8-0.8h18.6L192.6,45.2z M193.7,44.1h-18.6l0.8-0.8
			h18.6L193.7,44.1z M194.8,43.1h-18.6l0.8-0.8h18.6L194.8,43.1z M195.8,42h-18.6l0.8-0.8h18.6L195.8,42z M196.9,41h-18.6l0.8-0.8
			h18.6L196.9,41z M198,39.9h-18.6l0.8-0.8h18.6L198,39.9z M199,38.8h-18.6l0.8-0.8h18.6L199,38.8z M200.1,37.8h-18.6l0.8-0.8h18.6
			L200.1,37.8z"/>
		<g>
			<polygon class="st9" points="50.5,213.9 51.2,212 50.9,212 50.5,213.1 			"/>
			<polygon class="st9" points="50.5,220.9 53.7,212 53.4,212 50.5,220.1 			"/>
			<polygon class="st9" points="55.9,212 51.6,224.2 51.8,224.2 56.1,212 			"/>
			<polygon class="st9" points="58.3,212 54,224.2 54.3,224.2 58.6,212 			"/>
			<polygon class="st9" points="60.8,212 56.5,224.2 56.8,224.2 61,212 			"/>
			<polygon class="st9" points="63.2,212 58.9,224.2 59.2,224.2 63.5,212 			"/>
			<polygon class="st9" points="65.7,212 61.4,224.2 61.7,224.2 66,212 			"/>
			<polygon class="st9" points="68.1,212 63.9,224.2 64.1,224.2 68.4,212 			"/>
			<polygon class="st9" points="70.6,212 66.3,224.2 66.6,224.2 70.9,212 			"/>
			<polygon class="st9" points="73.1,212 68.8,224.2 69,224.2 73.3,212 			"/>
			<polygon class="st9" points="75.5,212 71.2,224.2 71.5,224.2 75.8,212 			"/>
			<polygon class="st9" points="78,212 73.7,224.2 74,224.2 78.2,212 			"/>
			<polygon class="st9" points="80.4,212 76.1,224.2 76.4,224.2 80.7,212 			"/>
			<polygon class="st9" points="82.9,212 78.6,224.2 78.9,224.2 83.2,212 			"/>
			<polygon class="st9" points="85.3,212 81.1,224.2 81.3,224.2 85.6,212 			"/>
			<polygon class="st9" points="87.8,212 83.5,224.2 83.8,224.2 88.1,212 			"/>
			<polygon class="st9" points="90.3,212 86,224.2 86.2,224.2 90.5,212 			"/>
			<polygon class="st9" points="92.7,212 88.4,224.2 88.7,224.2 93,212 			"/>
			<polygon class="st9" points="95.2,212 90.9,224.2 91.2,224.2 95.4,212 			"/>
			<polygon class="st9" points="97.6,212 93.3,224.2 93.6,224.2 97.9,212 			"/>
			<polygon class="st9" points="100.1,212 95.8,224.2 96.1,224.2 100.4,212 			"/>
			<polygon class="st9" points="102.5,212 98.3,224.2 98.5,224.2 102.8,212 			"/>
			<polygon class="st9" points="105,212 100.7,224.2 101,224.2 105.3,212 			"/>
			<polygon class="st9" points="107.5,212 103.2,224.2 103.4,224.2 107.7,212 			"/>
			<polygon class="st9" points="109.9,212 105.6,224.2 105.9,224.2 110.2,212 			"/>
			<polygon class="st9" points="112.4,212 108.1,224.2 108.4,224.2 112.6,212 			"/>
			<polygon class="st9" points="114.8,212 110.5,224.2 110.8,224.2 115.1,212 			"/>
			<polygon class="st9" points="117.3,212 113,224.2 113.3,224.2 117.6,212 			"/>
			<polygon class="st9" points="119.7,212 115.5,224.2 115.7,224.2 120,212 			"/>
			<polygon class="st9" points="122.2,212 117.9,224.2 118.2,224.2 122.5,212 			"/>
			<polygon class="st9" points="124.7,212 120.4,224.2 120.6,224.2 124.9,212 			"/>
			<polygon class="st9" points="127.1,212 122.8,224.2 123.1,224.2 127.4,212 			"/>
			<polygon class="st9" points="129.6,212 125.3,224.2 125.6,224.2 129.8,212 			"/>
			<polygon class="st9" points="132,212 127.8,224.2 128,224.2 132.3,212 			"/>
			<polygon class="st9" points="134.5,212 130.2,224.2 130.5,224.2 134.8,212 			"/>
			<polygon class="st9" points="136.9,212 132.7,224.2 132.9,224.2 137.2,212 			"/>
			<polygon class="st9" points="139.4,212 135.1,224.2 135.4,224.2 139.7,212 			"/>
			<polygon class="st9" points="141.9,212 137.6,224.2 137.8,224.2 142.1,212 			"/>
			<polygon class="st9" points="144.3,212 140,224.2 140.3,224.2 144.6,212 			"/>
			<polygon class="st9" points="146.8,212 142.5,224.2 142.8,224.2 147,212 			"/>
			<polygon class="st9" points="149.2,212 145,224.2 145.2,224.2 149.5,212 			"/>
			<polygon class="st9" points="151.7,212 147.4,224.2 147.7,224.2 152,212 			"/>
			<polygon class="st9" points="154.1,212 149.9,224.2 150.1,224.2 154.4,212 			"/>
			<polygon class="st9" points="156.6,212 152.3,224.2 152.6,224.2 156.9,212 			"/>
			<polygon class="st9" points="159.1,212 154.8,224.2 155,224.2 159.3,212 			"/>
			<polygon class="st9" points="161.5,212 157.2,224.2 157.5,224.2 161.8,212 			"/>
			<polygon class="st9" points="164,212 159.7,224.2 160,224.2 164.2,212 			"/>
			<polygon class="st9" points="166.4,212 162.2,224.2 162.4,224.2 166.7,212 			"/>
			<polygon class="st9" points="168.9,212 164.6,224.2 164.9,224.2 169.2,212 			"/>
			<polygon class="st9" points="171.3,212 167.1,224.2 167.3,224.2 171.6,212 			"/>
			<polygon class="st9" points="173.8,212 169.5,224.2 169.8,224.2 174.1,212 			"/>
			<polygon class="st9" points="176.3,212 172,224.2 172.2,224.2 176.5,212 			"/>
			<polygon class="st9" points="178.7,212 174.4,224.2 174.7,224.2 179,212 			"/>
			<polygon class="st9" points="181.2,212 176.9,224.2 177.2,224.2 181.4,212 			"/>
			<polygon class="st9" points="183.6,212 179.4,224.2 179.6,224.2 183.9,212 			"/>
			<polygon class="st9" points="186.1,212 181.8,224.2 182.1,224.2 186.4,212 			"/>
			<polygon class="st9" points="188.5,212 184.3,224.2 184.5,224.2 188.8,212 			"/>
			<polygon class="st9" points="191,212 186.7,224.2 187,224.2 191.3,212 			"/>
			<polygon class="st9" points="193.5,212 189.2,224.2 189.4,224.2 193.7,212 			"/>
			<polygon class="st9" points="195.9,212 191.6,224.2 191.9,224.2 196.2,212 			"/>
			<polygon class="st9" points="198.4,212 194.1,224.2 194.4,224.2 198.6,212 			"/>
			<polygon class="st9" points="200.8,212 196.6,224.2 196.8,224.2 201.1,212 			"/>
			<polygon class="st9" points="203.3,212 199,224.2 199.3,224.2 203.6,212 			"/>
			<polygon class="st9" points="205.7,212 201.5,224.2 201.7,224.2 206,212 			"/>
			<polygon class="st9" points="208.3,212 208.2,212 203.9,224.2 204.2,224.2 208.3,212.5 			"/>
			<polygon class="st9" points="208.3,218.7 206.4,224.2 206.6,224.2 208.3,219.5 			"/>
		</g>
		<g>
			<polygon class="st9" points="360.6,213.9 361.3,212 361,212 360.6,213.1 			"/>
			<polygon class="st9" points="360.6,220.9 363.7,212 363.5,212 360.6,220.1 			"/>
			<polygon class="st9" points="365.9,212 361.6,224.2 361.9,224.2 366.2,212 			"/>
			<polygon class="st9" points="368.4,212 364.1,224.2 364.4,224.2 368.6,212 			"/>
			<polygon class="st9" points="370.8,212 366.5,224.2 366.8,224.2 371.1,212 			"/>
			<polygon class="st9" points="373.3,212 369,224.2 369.3,224.2 373.5,212 			"/>
			<polygon class="st9" points="375.7,212 371.5,224.2 371.7,224.2 376,212 			"/>
			<polygon class="st9" points="378.2,212 373.9,224.2 374.2,224.2 378.5,212 			"/>
			<polygon class="st9" points="380.7,212 376.4,224.2 376.6,224.2 380.9,212 			"/>
			<polygon class="st9" points="383.1,212 378.8,224.2 379.1,224.2 383.4,212 			"/>
			<polygon class="st9" points="385.6,212 381.3,224.2 381.6,224.2 385.8,212 			"/>
			<polygon class="st9" points="388,212 383.7,224.2 384,224.2 388.3,212 			"/>
			<polygon class="st9" points="390.5,212 386.2,224.2 386.5,224.2 390.7,212 			"/>
			<polygon class="st9" points="392.9,212 388.7,224.2 388.9,224.2 393.2,212 			"/>
			<polygon class="st9" points="395.4,212 391.1,224.2 391.4,224.2 395.7,212 			"/>
			<polygon class="st9" points="397.9,212 393.6,224.2 393.8,224.2 398.1,212 			"/>
			<polygon class="st9" points="400.3,212 396,224.2 396.3,224.2 400.6,212 			"/>
			<polygon class="st9" points="402.8,212 398.5,224.2 398.8,224.2 403,212 			"/>
			<polygon class="st9" points="405.2,212 400.9,224.2 401.2,224.2 405.5,212 			"/>
			<polygon class="st9" points="407.7,212 403.4,224.2 403.7,224.2 407.9,212 			"/>
			<polygon class="st9" points="410.1,212 405.9,224.2 406.1,224.2 410.4,212 			"/>
			<polygon class="st9" points="412.6,212 408.3,224.2 408.6,224.2 412.9,212 			"/>
			<polygon class="st9" points="415.1,212 410.8,224.2 411,224.2 415.3,212 			"/>
			<polygon class="st9" points="417.5,212 413.2,224.2 413.5,224.2 417.8,212 			"/>
			<polygon class="st9" points="420,212 415.7,224.2 416,224.2 420.2,212 			"/>
			<polygon class="st9" points="422.4,212 418.1,224.2 418.4,224.2 422.7,212 			"/>
			<polygon class="st9" points="424.9,212 420.6,224.2 420.9,224.2 425.1,212 			"/>
			<polygon class="st9" points="427.3,212 423.1,224.2 423.3,224.2 427.6,212 			"/>
			<polygon class="st9" points="429.8,212 425.5,224.2 425.8,224.2 430.1,212 			"/>
			<polygon class="st9" points="432.3,212 428,224.2 428.2,224.2 432.5,212 			"/>
			<polygon class="st9" points="434.7,212 430.4,224.2 430.7,224.2 435,212 			"/>
			<polygon class="st9" points="437.2,212 432.9,224.2 433.2,224.2 437.4,212 			"/>
			<polygon class="st9" points="439.6,212 435.3,224.2 435.6,224.2 439.9,212 			"/>
			<polygon class="st9" points="442.1,212 437.8,224.2 438.1,224.2 442.3,212 			"/>
			<polygon class="st9" points="444.5,212 440.3,224.2 440.5,224.2 444.8,212 			"/>
			<polygon class="st9" points="447,212 442.7,224.2 443,224.2 447.3,212 			"/>
			<polygon class="st9" points="449.5,212 445.2,224.2 445.4,224.2 449.7,212 			"/>
			<polygon class="st9" points="451.9,212 447.6,224.2 447.9,224.2 452.2,212 			"/>
			<polygon class="st9" points="454.4,212 450.1,224.2 450.4,224.2 454.6,212 			"/>
			<polygon class="st9" points="456.8,212 452.5,224.2 452.8,224.2 457.1,212 			"/>
			<polygon class="st9" points="459.3,212 455,224.2 455.3,224.2 459.6,212 			"/>
			<polygon class="st9" points="461.7,212 457.5,224.2 457.7,224.2 462,212 			"/>
			<polygon class="st9" points="464.2,212 459.9,224.2 460.2,224.2 464.5,212 			"/>
			<polygon class="st9" points="466.7,212 462.4,224.2 462.6,224.2 466.9,212 			"/>
			<polygon class="st9" points="469.1,212 464.8,224.2 465.1,224.2 469.4,212 			"/>
			<polygon class="st9" points="471.6,212 467.3,224.2 467.6,224.2 471.8,212 			"/>
			<polygon class="st9" points="474,212 469.7,224.2 470,224.2 474.3,212 			"/>
			<polygon class="st9" points="476.5,212 472.2,224.2 472.5,224.2 476.8,212 			"/>
			<polygon class="st9" points="478.9,212 474.7,224.2 474.9,224.2 479.2,212 			"/>
			<polygon class="st9" points="481.4,212 477.1,224.2 477.4,224.2 481.7,212 			"/>
			<polygon class="st9" points="483.9,212 479.6,224.2 479.8,224.2 484.1,212 			"/>
			<polygon class="st9" points="486.3,212 482,224.2 482.3,224.2 486.6,212 			"/>
			<polygon class="st9" points="488.8,212 484.5,224.2 484.8,224.2 489,212 			"/>
			<polygon class="st9" points="491.2,212 486.9,224.2 487.2,224.2 491.5,212 			"/>
			<polygon class="st9" points="493.7,212 489.4,224.2 489.7,224.2 494,212 			"/>
			<polygon class="st9" points="496.1,212 491.9,224.2 492.1,224.2 496.4,212 			"/>
			<polygon class="st9" points="498.6,212 494.3,224.2 494.6,224.2 498.9,212 			"/>
			<polygon class="st9" points="501.1,212 496.8,224.2 497,224.2 501.3,212 			"/>
			<polygon class="st9" points="503.5,212 499.2,224.2 499.5,224.2 503.8,212 			"/>
			<polygon class="st9" points="506,212 501.7,224.2 502,224.2 506.2,212 			"/>
			<polygon class="st9" points="508.4,212 504.1,224.2 504.4,224.2 508.7,212 			"/>
			<polygon class="st9" points="510.9,212 506.6,224.2 506.9,224.2 511.2,212 			"/>
			<polygon class="st9" points="513.3,212 509.1,224.2 509.3,224.2 513.6,212 			"/>
			<polygon class="st9" points="515.8,212 511.5,224.2 511.8,224.2 516.1,212 			"/>
			<polygon class="st9" points="518.4,212 518.3,212 514,224.2 514.2,224.2 518.4,212.5 			"/>
			<polygon class="st9" points="518.4,218.7 516.4,224.2 516.7,224.2 518.4,219.5 			"/>
		</g>
		<g>
			<polygon class="st9" points="201.6,10.8 202.3,8.8 202.1,8.8 201.6,10 			"/>
			<polygon class="st9" points="201.6,18.1 204.9,8.8 204.6,8.8 201.6,17.3 			"/>
			<polygon class="st9" points="207.2,8.8 202.7,21.6 203,21.6 207.5,8.8 			"/>
			<polygon class="st9" points="209.8,8.8 205.3,21.6 205.6,21.6 210.1,8.8 			"/>
			<polygon class="st9" points="212.4,8.8 207.9,21.6 208.2,21.6 212.6,8.8 			"/>
			<polygon class="st9" points="214.9,8.8 210.5,21.6 210.7,21.6 215.2,8.8 			"/>
			<polygon class="st9" points="217.5,8.8 213,21.6 213.3,21.6 217.8,8.8 			"/>
			<polygon class="st9" points="220.1,8.8 215.6,21.6 215.9,21.6 220.4,8.8 			"/>
			<polygon class="st9" points="222.7,8.8 218.2,21.6 218.5,21.6 222.9,8.8 			"/>
			<polygon class="st9" points="225.2,8.8 220.8,21.6 221,21.6 225.5,8.8 			"/>
			<polygon class="st9" points="227.8,8.8 223.3,21.6 223.6,21.6 228.1,8.8 			"/>
			<polygon class="st9" points="230.4,8.8 225.9,21.6 226.2,21.6 230.7,8.8 			"/>
			<polygon class="st9" points="233,8.8 228.5,21.6 228.8,21.6 233.2,8.8 			"/>
			<polygon class="st9" points="235.5,8.8 231.1,21.6 231.3,21.6 235.8,8.8 			"/>
			<polygon class="st9" points="238.1,8.8 233.6,21.6 233.9,21.6 238.4,8.8 			"/>
			<polygon class="st9" points="240.7,8.8 236.2,21.6 236.5,21.6 241,8.8 			"/>
			<polygon class="st9" points="243.3,8.8 238.8,21.6 239.1,21.6 243.5,8.8 			"/>
			<polygon class="st9" points="245.8,8.8 241.4,21.6 241.6,21.6 246.1,8.8 			"/>
			<polygon class="st9" points="248.4,8.8 243.9,21.6 244.2,21.6 248.7,8.8 			"/>
			<polygon class="st9" points="251,8.8 246.5,21.6 246.8,21.6 251.3,8.8 			"/>
			<polygon class="st9" points="253.6,8.8 249.1,21.6 249.4,21.6 253.8,8.8 			"/>
			<polygon class="st9" points="256.1,8.8 251.7,21.6 251.9,21.6 256.4,8.8 			"/>
			<polygon class="st9" points="258.7,8.8 254.2,21.6 254.5,21.6 259,8.8 			"/>
			<polygon class="st9" points="261.3,8.8 256.8,21.6 257.1,21.6 261.6,8.8 			"/>
			<polygon class="st9" points="263.9,8.8 259.4,21.6 259.7,21.6 264.2,8.8 			"/>
			<polygon class="st9" points="266.4,8.8 262,21.6 262.2,21.6 266.7,8.8 			"/>
			<polygon class="st9" points="269,8.8 264.5,21.6 264.8,21.6 269.3,8.8 			"/>
			<polygon class="st9" points="271.6,8.8 267.1,21.6 267.4,21.6 271.9,8.8 			"/>
			<polygon class="st9" points="274.2,8.8 269.7,21.6 270,21.6 274.5,8.8 			"/>
			<polygon class="st9" points="276.8,8.8 272.3,21.6 272.5,21.6 277,8.8 			"/>
			<polygon class="st9" points="279.3,8.8 274.8,21.6 275.1,21.6 279.6,8.8 			"/>
			<polygon class="st9" points="281.9,8.8 277.4,21.6 277.7,21.6 282.2,8.8 			"/>
			<polygon class="st9" points="284.5,8.8 280,21.6 280.3,21.6 284.8,8.8 			"/>
			<polygon class="st9" points="287.1,8.8 282.6,21.6 282.8,21.6 287.3,8.8 			"/>
			<polygon class="st9" points="289.6,8.8 285.1,21.6 285.4,21.6 289.9,8.8 			"/>
			<polygon class="st9" points="292.2,8.8 287.7,21.6 288,21.6 292.5,8.8 			"/>
			<polygon class="st9" points="294.8,8.8 290.3,21.6 290.6,21.6 295.1,8.8 			"/>
			<polygon class="st9" points="297.4,8.8 292.9,21.6 293.1,21.6 297.6,8.8 			"/>
			<polygon class="st9" points="299.9,8.8 295.4,21.6 295.7,21.6 300.2,8.8 			"/>
			<polygon class="st9" points="302.5,8.8 298,21.6 298.3,21.6 302.8,8.8 			"/>
			<polygon class="st9" points="305.1,8.8 300.6,21.6 300.9,21.6 305.4,8.8 			"/>
			<polygon class="st9" points="307.7,8.8 303.2,21.6 303.4,21.6 307.9,8.8 			"/>
			<polygon class="st9" points="310.2,8.8 305.7,21.6 306,21.6 310.5,8.8 			"/>
			<polygon class="st9" points="312.8,8.8 308.3,21.6 308.6,21.6 313.1,8.8 			"/>
			<polygon class="st9" points="315.4,8.8 310.9,21.6 311.2,21.6 315.7,8.8 			"/>
			<polygon class="st9" points="318,8.8 313.5,21.6 313.7,21.6 318.2,8.8 			"/>
			<polygon class="st9" points="320.5,8.8 316,21.6 316.3,21.6 320.8,8.8 			"/>
			<polygon class="st9" points="323.1,8.8 318.6,21.6 318.9,21.6 323.4,8.8 			"/>
			<polygon class="st9" points="325.7,8.8 321.2,21.6 321.5,21.6 326,8.8 			"/>
			<polygon class="st9" points="328.3,8.8 323.8,21.6 324.1,21.6 328.5,8.8 			"/>
			<polygon class="st9" points="330.8,8.8 326.3,21.6 326.6,21.6 331.1,8.8 			"/>
			<polygon class="st9" points="333.4,8.8 328.9,21.6 329.2,21.6 333.7,8.8 			"/>
			<polygon class="st9" points="336,8.8 331.5,21.6 331.8,21.6 336.3,8.8 			"/>
			<polygon class="st9" points="338.6,8.8 334.1,21.6 334.4,21.6 338.8,8.8 			"/>
			<polygon class="st9" points="341.1,8.8 336.7,21.6 336.9,21.6 341.4,8.8 			"/>
			<polygon class="st9" points="343.7,8.8 339.2,21.6 339.5,21.6 344,8.8 			"/>
			<polygon class="st9" points="346.3,8.8 341.8,21.6 342.1,21.6 346.6,8.8 			"/>
			<polygon class="st9" points="348.9,8.8 344.4,21.6 344.7,21.6 349.1,8.8 			"/>
			<polygon class="st9" points="351.4,8.8 347,21.6 347.2,21.6 351.7,8.8 			"/>
			<polygon class="st9" points="354,8.8 349.5,21.6 349.8,21.6 354.3,8.8 			"/>
			<polygon class="st9" points="356.6,8.8 352.1,21.6 352.4,21.6 356.9,8.8 			"/>
			<polygon class="st9" points="359.2,8.8 354.7,21.6 355,21.6 359.4,8.8 			"/>
			<polygon class="st9" points="361.7,8.8 357.3,21.6 357.5,21.6 362,8.8 			"/>
			<polygon class="st9" points="364.3,8.8 359.8,21.6 360.1,21.6 364.6,8.8 			"/>
			<polygon class="st9" points="367,8.8 366.9,8.8 362.4,21.6 362.7,21.6 367,9.3 			"/>
			<polygon class="st9" points="367,15.9 365,21.6 365.3,21.6 367,16.6 			"/>
		</g>
		<g>
			<polygon class="st9" points="208.6,225.8 208.2,227 208.2,227.7 208.9,225.8 			"/>
			<polygon class="st9" points="211.1,225.8 208.2,234 208.2,234.7 211.3,225.8 			"/>
			<polygon class="st9" points="213.5,225.8 209.2,238 209.5,238 213.8,225.8 			"/>
			<polygon class="st9" points="216,225.8 211.7,238 212,238 216.2,225.8 			"/>
			<polygon class="st9" points="218.4,225.8 214.2,238 214.4,238 218.7,225.8 			"/>
			<polygon class="st9" points="220.9,225.8 216.6,238 216.9,238 221.2,225.8 			"/>
			<polygon class="st9" points="223.3,225.8 219.1,238 219.3,238 223.6,225.8 			"/>
			<polygon class="st9" points="225.8,225.8 221.5,238 221.8,238 226.1,225.8 			"/>
			<polygon class="st9" points="228.3,225.8 224,238 224.2,238 228.5,225.8 			"/>
			<polygon class="st9" points="230.7,225.8 226.4,238 226.7,238 231,225.8 			"/>
			<polygon class="st9" points="233.2,225.8 228.9,238 229.2,238 233.4,225.8 			"/>
			<polygon class="st9" points="235.6,225.8 231.4,238 231.6,238 235.9,225.8 			"/>
			<polygon class="st9" points="238.1,225.8 233.8,238 234.1,238 238.4,225.8 			"/>
			<polygon class="st9" points="240.5,225.8 236.3,238 236.5,238 240.8,225.8 			"/>
			<polygon class="st9" points="243,225.8 238.7,238 239,238 243.3,225.8 			"/>
			<polygon class="st9" points="245.5,225.8 241.2,238 241.4,238 245.7,225.8 			"/>
			<polygon class="st9" points="247.9,225.8 243.6,238 243.9,238 248.2,225.8 			"/>
			<polygon class="st9" points="250.4,225.8 246.1,238 246.4,238 250.6,225.8 			"/>
			<polygon class="st9" points="252.8,225.8 248.6,238 248.8,238 253.1,225.8 			"/>
			<polygon class="st9" points="255.3,225.8 251,238 251.3,238 255.6,225.8 			"/>
			<polygon class="st9" points="257.7,225.8 253.5,238 253.7,238 258,225.8 			"/>
			<polygon class="st9" points="260.2,225.8 255.9,238 256.2,238 260.5,225.8 			"/>
			<polygon class="st9" points="262.7,225.8 258.4,238 258.6,238 262.9,225.8 			"/>
			<polygon class="st9" points="265.1,225.8 260.8,238 261.1,238 265.4,225.8 			"/>
			<polygon class="st9" points="267.6,225.8 263.3,238 263.6,238 267.8,225.8 			"/>
			<polygon class="st9" points="270,225.8 265.8,238 266,238 270.3,225.8 			"/>
			<polygon class="st9" points="272.5,225.8 268.2,238 268.5,238 272.8,225.8 			"/>
			<polygon class="st9" points="274.9,225.8 270.7,238 270.9,238 275.2,225.8 			"/>
			<polygon class="st9" points="277.4,225.8 273.1,238 273.4,238 277.7,225.8 			"/>
			<polygon class="st9" points="279.9,225.8 275.6,238 275.8,238 280.1,225.8 			"/>
			<polygon class="st9" points="282.3,225.8 278,238 278.3,238 282.6,225.8 			"/>
			<polygon class="st9" points="284.8,225.8 280.5,238 280.8,238 285,225.8 			"/>
			<polygon class="st9" points="287.2,225.8 283,238 283.2,238 287.5,225.8 			"/>
			<polygon class="st9" points="289.7,225.8 285.4,238 285.7,238 290,225.8 			"/>
			<polygon class="st9" points="292.1,225.8 287.9,238 288.1,238 292.4,225.8 			"/>
			<polygon class="st9" points="294.6,225.8 290.3,238 290.6,238 294.9,225.8 			"/>
			<polygon class="st9" points="297.1,225.8 292.8,238 293,238 297.3,225.8 			"/>
			<polygon class="st9" points="299.5,225.8 295.2,238 295.5,238 299.8,225.8 			"/>
			<polygon class="st9" points="302,225.8 297.7,238 298,238 302.2,225.8 			"/>
			<polygon class="st9" points="304.4,225.8 300.2,238 300.4,238 304.7,225.8 			"/>
			<polygon class="st9" points="306.9,225.8 302.6,238 302.9,238 307.2,225.8 			"/>
			<polygon class="st9" points="309.3,225.8 305.1,238 305.3,238 309.6,225.8 			"/>
			<polygon class="st9" points="311.8,225.8 307.5,238 307.8,238 312.1,225.8 			"/>
			<polygon class="st9" points="314.3,225.8 310,238 310.2,238 314.5,225.8 			"/>
			<polygon class="st9" points="316.7,225.8 312.4,238 312.7,238 317,225.8 			"/>
			<polygon class="st9" points="319.2,225.8 314.9,238 315.2,238 319.4,225.8 			"/>
			<polygon class="st9" points="321.6,225.8 317.4,238 317.6,238 321.9,225.8 			"/>
			<polygon class="st9" points="324.1,225.8 319.8,238 320.1,238 324.4,225.8 			"/>
			<polygon class="st9" points="326.6,225.8 322.3,238 322.5,238 326.8,225.8 			"/>
			<polygon class="st9" points="329,225.8 324.7,238 325,238 329.3,225.8 			"/>
			<polygon class="st9" points="331.5,225.8 327.2,238 327.4,238 331.7,225.8 			"/>
			<polygon class="st9" points="333.9,225.8 329.6,238 329.9,238 334.2,225.8 			"/>
			<polygon class="st9" points="336.4,225.8 332.1,238 332.4,238 336.6,225.8 			"/>
			<polygon class="st9" points="338.8,225.8 334.6,238 334.8,238 339.1,225.8 			"/>
			<polygon class="st9" points="341.3,225.8 337,238 337.3,238 341.6,225.8 			"/>
			<polygon class="st9" points="343.8,225.8 339.5,238 339.7,238 344,225.8 			"/>
			<polygon class="st9" points="346.2,225.8 341.9,238 342.2,238 346.5,225.8 			"/>
			<polygon class="st9" points="348.7,225.8 344.4,238 344.6,238 348.9,225.8 			"/>
			<polygon class="st9" points="351.1,225.8 346.8,238 347.1,238 351.4,225.8 			"/>
			<polygon class="st9" points="353.6,225.8 349.3,238 349.6,238 353.8,225.8 			"/>
			<polygon class="st9" points="356,225.8 351.8,238 352,238 356.3,225.8 			"/>
			<polygon class="st9" points="358.5,225.8 354.2,238 354.5,238 358.8,225.8 			"/>
			<polygon class="st9" points="360.4,227.3 356.7,238 356.9,238 360.4,228.1 			"/>
			<polygon class="st9" points="360.4,234.3 359.1,238 359.4,238 360.4,235.1 			"/>
		</g>
	</g>
	<g>
		<g>
			<line class="st10" x1="204.1" y1="3" x2="364.4" y2="3"/>
			<g>
				<polygon class="st3" points="204.5,0 204.5,6.1 201.5,3 				"/>
			</g>
			<g>
				<polygon class="st3" points="364,0 364,6.1 367,3 				"/>
			</g>
		</g>
	</g>
	<g>
		<g>
			<line class="st10" x1="53.2" y1="231.9" x2="205.6" y2="231.9"/>
			<g>
				<polygon class="st3" points="53.6,228.9 53.6,235 50.5,231.9 				"/>
			</g>
			<g>
				<polygon class="st3" points="205.2,228.9 205.2,235 208.2,231.9 				"/>
			</g>
		</g>
	</g>
	<g>
		<g>
			<line class="st10" x1="210.9" y1="245" x2="357.8" y2="245"/>
			<g>
				<polygon class="st3" points="211.3,241.9 211.3,248 208.3,245 				"/>
			</g>
			<g>
				<polygon class="st3" points="357.4,241.9 357.4,248 360.4,245 				"/>
			</g>
		</g>
	</g>
	<g>
		<g>
			<line class="st10" x1="362.7" y1="231.9" x2="515.1" y2="231.9"/>
			<g>
				<polygon class="st3" points="363.1,228.9 363.1,235 360.1,231.9 				"/>
			</g>
			<g>
				<polygon class="st3" points="514.7,228.9 514.7,235 517.7,231.9 				"/>
			</g>
		</g>
	</g>
</g>
</svg>
