<?xml version="1.0" encoding="utf-8"?>
<!-- Generator: Adobe Illustrator 26.3.1, SVG Export Plug-In . SVG Version: 6.00 Build 0)  -->
<svg version="1.1" id="Layer_1" xmlns="http://www.w3.org/2000/svg" xmlns:xlink="http://www.w3.org/1999/xlink" x="0px" y="0px"
	 viewBox="0 0 137.9 122.7" style="enable-background:new 0 0 137.9 122.7;" xml:space="preserve">
<style type="text/css">
	.st0{fill:#176332;}
	.st1{fill:#761213;}
</style>
<g>
	<g>
		<path d="M122.5,14c-3.5,0-6.3-2.8-6.3-6.3c0-3.4,2.8-6.3,6.3-6.3s6.3,2.8,6.3,6.3C128.8,11.1,126,14,122.5,14z M122.5,2.1
			c-3.2,0-5.6,2.5-5.6,5.6c0,3.1,2.4,5.6,5.5,5.6c3.2,0,5.6-2.5,5.6-5.6C128.1,4.6,125.7,2.1,122.5,2.1z M124.1,8.4l1.6,2.4H124
			l-1.4-2.2h-1.2v2.2h-1.5V4.1h3c1.6,0,2.6,0.8,2.6,2.2C125.5,7.4,124.9,8.1,124.1,8.4z M122.9,5.5h-1.4v2h1.5c0.7,0,1.1-0.4,1.1-1
			C124,5.8,123.6,5.5,122.9,5.5z"/>
	</g>
	<g>
		<path class="st0" d="M32.5,121.7c-0.3,0.2-0.6,0.4-0.9,0.5c-0.3,0.2-0.7,0.3-1,0.4c-0.4,0.1-0.8,0.1-1.2,0.1c-0.7,0-1.4-0.1-2-0.4
			c-0.6-0.3-1.1-0.6-1.6-1.1c-0.4-0.5-0.8-1-1-1.6c-0.3-0.6-0.4-1.3-0.4-2c0-0.7,0.1-1.4,0.4-2c0.3-0.6,0.6-1.2,1-1.6
			c0.4-0.5,1-0.8,1.6-1.1c0.6-0.3,1.3-0.4,2-0.4c0.5,0,0.9,0,1.2,0.1c0.4,0.1,0.7,0.2,1,0.3c0.3,0.1,0.6,0.3,0.9,0.5
			c0.3,0.2,0.5,0.4,0.8,0.6l-0.8,0.8c-0.4-0.4-0.9-0.7-1.4-1c-0.5-0.3-1.1-0.4-1.8-0.4c-0.6,0-1.1,0.1-1.5,0.3
			c-0.5,0.2-0.9,0.5-1.2,0.9c-0.3,0.4-0.6,0.8-0.8,1.3c-0.2,0.5-0.3,1-0.3,1.6c0,0.6,0.1,1.1,0.3,1.6c0.2,0.5,0.5,0.9,0.8,1.3
			c0.3,0.4,0.8,0.7,1.2,0.9c0.5,0.2,1,0.3,1.5,0.3c0.7,0,1.3-0.1,1.8-0.4c0.5-0.3,1-0.6,1.5-1.1l0.7,0.7
			C33.1,121.3,32.8,121.5,32.5,121.7z"/>
		<path class="st0" d="M41.9,120.4c-0.2,0.5-0.5,0.9-0.8,1.2c-0.3,0.4-0.8,0.6-1.2,0.8c-0.5,0.2-1,0.3-1.5,0.3
			c-0.6,0-1.1-0.1-1.5-0.3c-0.5-0.2-0.9-0.5-1.2-0.8c-0.3-0.3-0.6-0.8-0.8-1.2c-0.2-0.5-0.3-1-0.3-1.5c0-0.5,0.1-1,0.3-1.5
			c0.2-0.5,0.5-0.9,0.8-1.2c0.3-0.4,0.7-0.6,1.2-0.8c0.5-0.2,1-0.3,1.5-0.3c0.6,0,1.1,0.1,1.5,0.3c0.5,0.2,0.9,0.5,1.2,0.8
			c0.3,0.3,0.6,0.8,0.8,1.2c0.2,0.5,0.3,1,0.3,1.5C42.2,119.4,42.1,119.9,41.9,120.4z M40.9,117.8c-0.1-0.4-0.3-0.7-0.6-0.9
			c-0.2-0.3-0.5-0.5-0.9-0.6c-0.3-0.2-0.7-0.2-1.1-0.2c-0.4,0-0.8,0.1-1.1,0.2c-0.3,0.1-0.6,0.4-0.8,0.6c-0.2,0.3-0.4,0.6-0.5,0.9
			c-0.1,0.3-0.2,0.7-0.2,1.1c0,0.4,0.1,0.8,0.2,1.1c0.1,0.4,0.3,0.7,0.6,0.9c0.2,0.3,0.5,0.5,0.9,0.6c0.3,0.2,0.7,0.2,1.1,0.2
			c0.4,0,0.8-0.1,1.1-0.2c0.3-0.1,0.6-0.3,0.9-0.6c0.2-0.3,0.4-0.6,0.6-0.9c0.1-0.3,0.2-0.7,0.2-1.1C41.1,118.5,41,118.1,40.9,117.8
			z"/>
		<path class="st0" d="M45.3,122.6h-1.1v-7.4h1.1v1.3c0.2-0.4,0.6-0.7,1-1c0.4-0.3,0.9-0.4,1.6-0.4c0.4,0,0.8,0.1,1.2,0.2
			c0.3,0.1,0.6,0.3,0.9,0.6s0.4,0.6,0.6,0.9c0.1,0.4,0.2,0.8,0.2,1.2v4.6h-1.1v-4.3c0-0.7-0.2-1.2-0.5-1.6c-0.4-0.4-0.9-0.6-1.5-0.6
			c-0.3,0-0.6,0.1-0.9,0.2c-0.3,0.1-0.5,0.3-0.7,0.5c-0.2,0.2-0.4,0.4-0.5,0.7c-0.1,0.3-0.2,0.6-0.2,0.9V122.6z"/>
		<path class="st0" d="M57.8,121.4c-0.1,0.3-0.3,0.5-0.6,0.7c-0.2,0.2-0.5,0.3-0.8,0.4c-0.3,0.1-0.7,0.1-1,0.1
			c-0.5,0-1.1-0.1-1.6-0.3c-0.5-0.2-1-0.5-1.4-0.8l0.6-0.8c0.4,0.3,0.8,0.5,1.2,0.7c0.4,0.2,0.9,0.2,1.3,0.2c0.4,0,0.8-0.1,1.1-0.3
			c0.3-0.2,0.4-0.5,0.4-0.9v0c0-0.2,0-0.3-0.1-0.5c-0.1-0.1-0.2-0.2-0.4-0.3c-0.2-0.1-0.4-0.2-0.6-0.3c-0.2-0.1-0.5-0.1-0.7-0.2
			c-0.3-0.1-0.6-0.2-0.9-0.3c-0.3-0.1-0.6-0.2-0.8-0.4c-0.2-0.2-0.4-0.3-0.6-0.6c-0.1-0.2-0.2-0.5-0.2-0.9v0c0-0.3,0.1-0.6,0.2-0.9
			c0.1-0.3,0.3-0.5,0.5-0.7c0.2-0.2,0.5-0.3,0.8-0.4c0.3-0.1,0.6-0.1,1-0.1c0.5,0,0.9,0.1,1.4,0.2c0.5,0.1,0.9,0.3,1.3,0.6l-0.5,0.8
			c-0.3-0.2-0.7-0.4-1.1-0.5c-0.4-0.1-0.7-0.2-1.1-0.2c-0.4,0-0.8,0.1-1,0.3c-0.3,0.2-0.4,0.5-0.4,0.8v0c0,0.2,0.1,0.3,0.2,0.4
			c0.1,0.1,0.2,0.2,0.4,0.3c0.2,0.1,0.4,0.2,0.6,0.3c0.2,0.1,0.5,0.2,0.7,0.2c0.3,0.1,0.6,0.2,0.8,0.3c0.3,0.1,0.5,0.2,0.8,0.4
			c0.2,0.2,0.4,0.4,0.5,0.6c0.1,0.2,0.2,0.5,0.2,0.8v0C58,120.9,58,121.2,57.8,121.4z"/>
		<path class="st0" d="M61.4,120.5c0,0.5,0.1,0.8,0.3,1c0.2,0.2,0.5,0.3,0.9,0.3c0.2,0,0.4,0,0.5-0.1c0.2,0,0.3-0.1,0.5-0.2v0.9
			c-0.2,0.1-0.4,0.2-0.6,0.2c-0.2,0.1-0.5,0.1-0.7,0.1c-0.3,0-0.6,0-0.8-0.1c-0.3-0.1-0.5-0.2-0.7-0.4c-0.2-0.2-0.3-0.4-0.4-0.6
			c-0.1-0.3-0.2-0.6-0.2-1v-4.4h-1v-1h1V113h1.1v2.2h2.3v1h-2.3V120.5z"/>
		<path class="st0" d="M66.8,122.6h-1.1v-7.4h1.1v1.9c0.1-0.3,0.3-0.6,0.5-0.8c0.2-0.3,0.4-0.5,0.7-0.7c0.3-0.2,0.5-0.3,0.8-0.4
			c0.3-0.1,0.6-0.1,1-0.1v1.2h-0.1c-0.4,0-0.8,0.1-1.1,0.2c-0.4,0.1-0.7,0.4-0.9,0.6c-0.3,0.3-0.5,0.6-0.6,1.1
			c-0.2,0.4-0.2,0.9-0.2,1.5V122.6z"/>
		<path class="st0" d="M76.7,115.2h1.1v7.4h-1.1v-1.3c-0.2,0.4-0.6,0.7-1,1c-0.4,0.3-0.9,0.4-1.6,0.4c-0.4,0-0.8-0.1-1.2-0.2
			c-0.3-0.1-0.6-0.3-0.9-0.6c-0.2-0.3-0.4-0.6-0.6-0.9c-0.1-0.4-0.2-0.8-0.2-1.2v-4.6h1.1v4.3c0,0.7,0.2,1.2,0.5,1.6
			c0.4,0.4,0.9,0.6,1.5,0.6c0.3,0,0.6-0.1,0.9-0.2c0.3-0.1,0.5-0.3,0.7-0.5c0.2-0.2,0.3-0.4,0.5-0.7s0.2-0.6,0.2-0.9V115.2z"/>
		<path class="st0" d="M85.3,122.3c-0.5,0.3-1.1,0.4-1.7,0.4c-0.5,0-1-0.1-1.5-0.3c-0.5-0.2-0.9-0.5-1.2-0.8
			c-0.3-0.3-0.6-0.8-0.8-1.2c-0.2-0.5-0.3-1-0.3-1.5c0-0.5,0.1-1,0.3-1.5c0.2-0.5,0.5-0.9,0.8-1.2c0.3-0.4,0.7-0.6,1.2-0.8
			c0.5-0.2,1-0.3,1.5-0.3c0.4,0,0.7,0,1,0.1c0.3,0.1,0.5,0.2,0.8,0.3c0.2,0.1,0.5,0.3,0.7,0.4c0.2,0.2,0.4,0.3,0.6,0.5l-0.7,0.8
			c-0.3-0.3-0.6-0.6-1-0.8c-0.3-0.2-0.8-0.3-1.3-0.3c-0.4,0-0.7,0.1-1,0.2c-0.3,0.1-0.6,0.4-0.8,0.6c-0.2,0.3-0.4,0.6-0.6,0.9
			c-0.1,0.3-0.2,0.7-0.2,1.1c0,0.4,0.1,0.8,0.2,1.1c0.1,0.4,0.3,0.7,0.6,0.9c0.2,0.3,0.5,0.5,0.9,0.6c0.3,0.1,0.7,0.2,1.1,0.2
			c0.5,0,0.9-0.1,1.3-0.3c0.4-0.2,0.7-0.5,1-0.8l0.7,0.7C86.2,121.7,85.8,122.1,85.3,122.3z"/>
		<path class="st0" d="M89.8,120.5c0,0.5,0.1,0.8,0.3,1c0.2,0.2,0.5,0.3,0.9,0.3c0.2,0,0.4,0,0.5-0.1c0.2,0,0.3-0.1,0.5-0.2v0.9
			c-0.2,0.1-0.4,0.2-0.6,0.2c-0.2,0.1-0.5,0.1-0.7,0.1c-0.3,0-0.6,0-0.8-0.1c-0.3-0.1-0.5-0.2-0.7-0.4c-0.2-0.2-0.3-0.4-0.4-0.6
			c-0.1-0.3-0.2-0.6-0.2-1v-4.4h-1v-1h1V113h1.1v2.2h2.3v1h-2.3V120.5z"/>
		<path class="st0" d="M94.1,113.6v-1.2h1.3v1.2H94.1z M94.2,122.6v-7.4h1.1v7.4H94.2z"/>
		<path class="st0" d="M104.8,120.4c-0.2,0.5-0.5,0.9-0.8,1.2c-0.3,0.4-0.8,0.6-1.2,0.8c-0.5,0.2-1,0.3-1.5,0.3
			c-0.6,0-1.1-0.1-1.5-0.3c-0.5-0.2-0.9-0.5-1.2-0.8c-0.3-0.3-0.6-0.8-0.8-1.2c-0.2-0.5-0.3-1-0.3-1.5c0-0.5,0.1-1,0.3-1.5
			c0.2-0.5,0.5-0.9,0.8-1.2c0.3-0.4,0.7-0.6,1.2-0.8c0.5-0.2,1-0.3,1.5-0.3c0.6,0,1.1,0.1,1.5,0.3c0.5,0.2,0.9,0.5,1.2,0.8
			c0.3,0.3,0.6,0.8,0.8,1.2c0.2,0.5,0.3,1,0.3,1.5C105.1,119.4,105,119.9,104.8,120.4z M103.8,117.8c-0.1-0.4-0.3-0.7-0.6-0.9
			c-0.2-0.3-0.5-0.5-0.9-0.6c-0.3-0.2-0.7-0.2-1.1-0.2c-0.4,0-0.8,0.1-1.1,0.2c-0.3,0.1-0.6,0.4-0.8,0.6c-0.2,0.3-0.4,0.6-0.5,0.9
			c-0.1,0.3-0.2,0.7-0.2,1.1c0,0.4,0.1,0.8,0.2,1.1c0.1,0.4,0.3,0.7,0.6,0.9c0.2,0.3,0.5,0.5,0.9,0.6c0.3,0.2,0.7,0.2,1.1,0.2
			c0.4,0,0.8-0.1,1.1-0.2c0.3-0.1,0.6-0.3,0.9-0.6c0.2-0.3,0.4-0.6,0.6-0.9c0.1-0.3,0.2-0.7,0.2-1.1
			C104,118.5,103.9,118.1,103.8,117.8z"/>
		<path class="st0" d="M108.2,122.6h-1.1v-7.4h1.1v1.3c0.2-0.4,0.6-0.7,1-1s0.9-0.4,1.6-0.4c0.4,0,0.8,0.1,1.2,0.2
			c0.3,0.1,0.6,0.3,0.9,0.6c0.2,0.3,0.4,0.6,0.6,0.9c0.1,0.4,0.2,0.8,0.2,1.2v4.6h-1.1v-4.3c0-0.7-0.2-1.2-0.5-1.6
			c-0.4-0.4-0.9-0.6-1.5-0.6c-0.3,0-0.6,0.1-0.9,0.2c-0.3,0.1-0.5,0.3-0.7,0.5c-0.2,0.2-0.4,0.4-0.5,0.7c-0.1,0.3-0.2,0.6-0.2,0.9
			V122.6z"/>
	</g>
	<g>
		<path d="M26,100.4l-2.9-7H9.9l-2.9,7H0l13.5-31.6h6.4l13.5,31.6H26z M16.5,77.1l-4.2,10.2h8.3L16.5,77.1z"/>
		<path d="M53.6,100.4v-3.5c-1.7,2.2-3.9,3.9-7.5,3.9c-5.6,0-10.9-4.4-10.9-12.4v-0.1c0-8,5.2-12.4,10.9-12.4c3.6,0,5.9,1.7,7.5,3.6
			V67.6h6.8v32.7H53.6z M53.7,88.3c0-4-2.6-6.6-5.8-6.6c-3.2,0-5.9,2.6-5.9,6.6v0.1c0,4,2.7,6.6,5.9,6.6
			C51.1,95,53.7,92.4,53.7,88.3L53.7,88.3z"/>
		<path d="M88.9,90.7H72.1c0.7,3.1,2.8,4.7,5.9,4.7c2.3,0,3.9-0.7,5.8-2.5l3.9,3.5c-2.2,2.8-5.5,4.5-9.8,4.5
			c-7.2,0-12.6-5.1-12.6-12.4v-0.1c0-6.9,4.9-12.5,11.9-12.5c8,0,11.7,6.2,11.7,13V89C88.9,89.7,88.9,90.1,88.9,90.7z M77.2,81.4
			c-2.8,0-4.7,2-5.2,5.1h10.3C81.9,83.4,80.1,81.4,77.2,81.4z"/>
		<path d="M108.3,100.8c-3.6,0-5.9-1.7-7.5-3.6v10.3H94V76.3h6.8v3.5c1.7-2.2,3.9-3.9,7.5-3.9c5.6,0,10.9,4.4,10.9,12.4v0.1
			C119.3,96.4,114,100.8,108.3,100.8z M112.4,88.3c0-4-2.7-6.6-5.9-6.6s-5.8,2.6-5.8,6.6v0.1c0,4,2.6,6.6,5.8,6.6
			S112.4,92.4,112.4,88.3L112.4,88.3z"/>
		<path d="M132.4,100.8c-4.2,0-7-1.7-7-7.2V82.2h-2.9v-5.8h2.9v-6.1h6.8v6.1h5.6v5.8h-5.6v10.3c0,1.6,0.7,2.3,2.2,2.3
			c1.3,0,2.4-0.3,3.4-0.9v5.5C136.3,100.2,134.7,100.8,132.4,100.8z"/>
	</g>
	<g>
		<g>
			<polygon class="st0" points="6.9,37.5 55.7,37.5 61,32.2 12.3,32.2 			"/>
			<path class="st0" d="M43.8,42.9H2.7H1.6l-0.8,0.8l0,0C0.3,44.2,0,44.8,0,45.6c0,1.5,1.2,2.7,2.7,2.7h41.2c0.7,0,1.4-0.3,1.9-0.8
				l0,0l4.6-4.6H43.8z"/>
			<polygon class="st0" points="23,21.4 17.7,26.8 66.4,26.8 68.9,24.2 66.1,21.4 			"/>
			<path class="st0" d="M50.1,5.4h-11c0,0,4.6-4.5,4.6-4.5c0.3-0.3,0.7-0.6,1.2-0.7L50.1,5.4z"/>
			<polygon class="st0" points="60.8,16.1 28.4,16.1 33.7,10.7 55.4,10.7 			"/>
		</g>
		<path class="st1" d="M137.1,43.7L94.2,0.8C93.7,0.3,93,0,92.3,0H45.6c-0.3,0-0.5,0.1-0.8,0.1l47.4,47.4c0.5,0.4,1.1,0.7,1.8,0.7
			c0,0,41.2,0,41.2,0c1.5,0,2.7-1.2,2.7-2.7C137.9,44.8,137.6,44.2,137.1,43.7z"/>
	</g>
</g>
</svg>
