<?xml version="1.0" encoding="utf-8"?>
<!-- Generator: Adobe Illustrator 26.3.1, SVG Export Plug-In . SVG Version: 6.00 Build 0)  -->
<svg version="1.1" id="Layer_1" xmlns="http://www.w3.org/2000/svg" xmlns:xlink="http://www.w3.org/1999/xlink" x="0px" y="0px"
	 viewBox="0 0 204 50.8" style="enable-background:new 0 0 204 50.8;" xml:space="preserve">
<style type="text/css">
	.st0{fill-rule:evenodd;clip-rule:evenodd;fill:#1B3561;}
	.st1{fill-rule:evenodd;clip-rule:evenodd;fill:#E3C16A;}
	.st2{fill:#221F1F;}
</style>
<g id="Group_2004" transform="translate(-290.744 -317.577)">
	<g id="Group_2003" transform="translate(290.744 317.577)">
		<g id="Group_1998" transform="translate(0 0.046)">
			<path id="Path_1591" class="st0" d="M75.8,0.1L57.2,0.1L51,9.6l0.8,3.1L45.1,23l4.1-22.9L31,0l-6.1,10c1.2,1.1,1.5,2.5-0.1,4.6
				L11,36.7c-0.6,1.7-2.4,2.8-4.2,2.6L0,50.4l17.2,0.1l6.2-9.8l0-2.5l5.4-7.5l-0.3,20.1l14.8-0.2l24-38.5l3-2.1L75.8,0.1z"/>
		</g>
		<g id="Group_1999" transform="translate(48.642)">
			<path id="Path_1592" class="st0" d="M53.8,50.5l-20-0.1l6.7-10.9c2.6-1.8,3.6-4.4,4.5-7.3L29.5,50.5l-7.9,0l5.4-18.3L24,35.9
				l-1.2,3.7l-6.3,10.8L-1,50.3l6.5-10.4L9,38.7L24,13.5l0-3.6L30.2,0l20.6,0.1l-4.8,20L62.6,0.1l23.1,0.1l-6.4,10.1
				c-2.2,0.8-3.9,1.7-4.4,3.1L60.9,37c-1,0.6-1.2,1.9-0.8,3.5L53.8,50.5z"/>
		</g>
		<g id="Group_2000" transform="translate(107.729 0.188)">
			<path id="Path_1593" class="st0" d="M38.7,50l-40.8,0L4,40l2.9-1l16.7-26.5L22.5,10l6.1-10l32.4,0C66,0.7,69.1,2.9,69,7.7
				c-3.9,7.9-8,15.5-14.7,20.6C56.6,39.3,48.9,46.9,38.7,50 M29.9,40.3c9-3.6,9.7-10.2,1.3-9.7l-6.4,9.6L29.9,40.3z M47.7,15
				c1.5-2.5,0-4-4.2-3.8l-5.7,8.6C42.6,21.5,45.6,19.2,47.7,15"/>
		</g>
		<g id="Group_2001" transform="translate(23.182 8.05)">
			<path id="Path_1594" class="st1" d="M152.9-0.2l20.6,0c4,0,7.2,3.2,7.2,7.2l0,16.1c0,4-3.2,7.2-7.2,7.2l-20.6,0
				c-4,0-7.2-3.2-7.2-7.2v-3.1l-7.6-0.1c-3.5,0.9-7.1,0.9-10.5-0.1L43,19.1v5.7l5.4-0.1l0.1,6.1l-9.7,0.1v-2.7l-12,0V31l-9.6,0.1v-6
				l4.4-0.1v-6.2l-21-0.2c-1.4-0.9-1.4-2.8,0-3.1L127,15.7c3.6-1.5,7.7-1.5,11.3,0l7.3,0l0-8.7C145.7,3,148.9-0.2,152.9-0.2
				 M157.5,4.1l10.3,0c1.8,0,3.2,1.5,3.2,3.2l0,15.2c0,1.8-1.5,3.2-3.2,3.2l-10.3,0c-1.8,0-3.2-1.5-3.2-3.2l0-15.2
				C154.3,5.6,155.7,4.1,157.5,4.1"/>
		</g>
		<g id="Group_2002" transform="translate(22.971 7.837)">
			<path id="Path_1595" class="st2" d="M153.1-0.2l20.6,0c4.1,0,7.4,3.3,7.4,7.4l0,16.1c0,4.1-3.3,7.4-7.4,7.4l-20.6,0
				c-4.1,0-7.4-3.3-7.4-7.4v-2.9l-7.4-0.1c-1.8,0.5-3.6,0.7-5.4,0.7c-1.7,0-3.5-0.3-5.2-0.8l-84.3-0.7v5.3l5.2-0.1h0.2l0,0.2
				l0.1,6.1v0.2h-0.2L39,31.4h-0.2v-2.7l-11.6,0v2.8H27l-9.6,0.1h-0.2v-6.4l0.2,0l4.2-0.1v-5.7L0.8,19.2H0.7l-0.1,0
				c-0.5-0.3-0.9-0.8-1.1-1.4c-0.1-0.2-0.1-0.5-0.1-0.8c0-0.2,0.1-0.5,0.3-0.7C0,16,0.3,15.7,0.7,15.6h0l126.5,0.1
				c1.8-0.7,3.6-1.1,5.5-1.1c2,0,4.1,0.3,5.9,1.1l7,0l0-8.5C145.7,3.1,149-0.2,153.1-0.2 M171.5,15.2l9.1,0l0-8c0-3.8-3.1-7-7-7
				l-20.6,0c-3.8,0-7,3.1-7,7l0,8.9h-0.2l-7.3,0h0l0,0c-1.8-0.8-3.8-1.2-5.8-1.1c-1.8,0.1-3.7,0.5-5.4,1.1l0,0h0L0.8,16.1
				c-0.3,0.1-0.5,0.2-0.7,0.5C0,16.7,0,16.8,0,17c0,0.2,0,0.4,0,0.6c0.1,0.5,0.4,0.9,0.8,1.1l21,0.2l0.2,0l0,6.5l-0.2,0l-4.2,0.1
				v5.5l9.2-0.1v-2.8l12.4,0v2.7l9.2-0.1l-0.1-5.7l-5.2,0.1H43v-6.1h0.2l84.6,0.7h0l0,0c1.7,0.5,3.4,0.7,5.1,0.8
				c1.8,0,3.6-0.2,5.3-0.7h0h0l7.6,0.1h0.2v3.3c0,3.8,3.1,6.9,7,7l20.6,0c3.8,0,7-3.1,7-7l0-7.7l-9.1,0l0,7.2c0,1.9-1.6,3.4-3.5,3.5
				l-10.3,0c-1.9,0-3.5-1.5-3.5-3.5l0-15.2c0-1.9,1.6-3.4,3.5-3.5l10.3,0c1.9,0,3.4,1.6,3.4,3.5L171.5,15.2z M168.1,4.5l-10.3,0
				c-1.7,0-3,1.4-3,3l0,15.2c0,1.7,1.4,3,3,3l10.3,0c1.7,0,3-1.4,3-3l0-15.2C171.1,5.9,169.7,4.6,168.1,4.5"/>
		</g>
	</g>
</g>
<g>
</g>
<g>
</g>
<g>
</g>
<g>
</g>
<g>
</g>
<g>
</g>
<g>
</g>
<g>
</g>
<g>
</g>
<g>
</g>
<g>
</g>
<g>
</g>
<g>
</g>
<g>
</g>
<g>
</g>
</svg>
