<?xml version="1.0" encoding="utf-8"?>
<!-- Generator: Adobe Illustrator 26.3.1, SVG Export Plug-In . SVG Version: 6.00 Build 0)  -->
<svg version="1.1" id="Layer_1" xmlns="http://www.w3.org/2000/svg" xmlns:xlink="http://www.w3.org/1999/xlink" x="0px" y="0px"
	 viewBox="0 0 213.2 213.2" style="enable-background:new 0 0 213.2 213.2;" xml:space="preserve">
<style type="text/css">
	.st0{fill:#EDF0F4;}
	.st1{fill:#14294F;}
</style>
<circle class="st0" cx="106.6" cy="106.6" r="103.8"/>
<g id="HdEq6v.tif">
	<g>
		<path class="st1" d="M152.6,77.4c-0.3,0.8-0.5,1.6-0.8,2.4c-0.7,1.8-1.8,3.5-3.1,4.9c-20.9,20.9-41.7,41.7-62.6,62.5
			c-3.9,3.9-8.6,5.8-14.1,5.8c-2.5,0-5.1,0-7.6,0c-1.9,0-3.6-1.3-3.7-3.1c-0.1-4.2-0.5-8.3,0.4-12.5c0.8-4,2.8-7.3,5.7-10.2
			c17.5-17.5,35-35,52.5-52.5c3-3,6-5.9,9-9c2.4-2.5,5.3-4.1,8.8-4.5c0.1,0,0.2-0.1,0.3-0.1c0.9,0,1.8,0,2.7,0
			c0.2,0.1,0.4,0.1,0.6,0.2c5.8,0.9,9.6,4.2,11.4,9.7c0.1,0.4,0.3,0.8,0.4,1.3C152.6,73.9,152.6,75.6,152.6,77.4z M68.4,145.3
			c0.9,0,1.9,0,2.8,0c4,0.1,7.3-1.3,10.1-4.2c15.3-15.4,30.7-30.7,46.1-46.1c0.2-0.2,0.5-0.3,0.6-0.4c-3-3.1-6-6-8.9-8.9
			c-0.1,0.1-0.2,0.2-0.3,0.3c-15.6,15.6-31.3,31.3-46.9,46.9C68.4,136.4,68,140.7,68.4,145.3z M133.5,88.8c3.4-3.3,6.8-6.6,10.1-10
			c2.3-2.4,1.9-6.3-0.4-8.5c-2.4-2.2-6.2-2.2-8.6,0c-1.4,1.4-2.8,2.8-4.2,4.2c-1.9,1.9-3.7,3.7-5.6,5.5
			C127.7,83,130.6,85.9,133.5,88.8z"/>
		<path class="st1" d="M152.6,145.9c-0.1,0.3-0.3,0.6-0.4,0.9c-1.3,3.6-4.9,6.1-8.7,6.1c-4.9,0-9.9,0.1-14.8,0
			c-6.7-0.2-15.2-5.1-17.5-13c-2.1-7.1,1.3-15.4,8.1-19.1c6.8-3.7,13.6-3,20,1.1c4.6,2.9,7.7,7.2,10,12c1.2,2.4,2.1,5,3.1,7.4
			c0.1,0.2,0.1,0.3,0.2,0.5C152.6,143.1,152.6,144.5,152.6,145.9z M136.1,145.2v0.1c2.2,0,4.4,0,6.6,0c0.4,0,0.8,0,1.2-0.2
			c0.9-0.3,1.4-1,1-2c-1.2-2.8-2.4-5.7-3.9-8.4c-1.9-3.4-4.5-6.1-8.1-7.7c-4.6-1.9-9.3-1.1-12.3,2.3c-2.9,3.2-3.2,7.7-0.7,11
			c2.1,2.7,4.9,4.4,8.3,4.8C130.8,145.4,133.5,145.2,136.1,145.2z"/>
		<path class="st1" d="M76,61c1,0.2,2,0.4,2.9,0.7c2.1,0.6,3.9,1.7,5.4,3.2c4.9,4.9,9.8,9.7,14.6,14.6c2.2,2.2,1.4,5.6-1.4,6.5
			c-1.5,0.5-2.9,0-4-1.1c-4.8-4.8-9.6-9.6-14.4-14.4c-1.9-1.9-4.2-2.4-6.8-1.6c-4.2,1.5-5.4,6.9-2.2,10.2c3.3,3.4,6.7,6.7,10,10.1
			c1.5,1.5,3,3,4.5,4.5c1.7,1.7,1.8,4,0.2,5.6c-1.6,1.6-3.9,1.5-5.6-0.2c-4.8-4.8-9.7-9.6-14.5-14.5c-7.6-7.8-4.2-20.5,6.2-23.2
			c0.7-0.2,1.4-0.3,2.1-0.5C74.1,61,75,61,76,61z"/>
	</g>
</g>
</svg>
