<svg width="468" height="71" viewBox="0 0 468 71" fill="none" xmlns="http://www.w3.org/2000/svg">
<path d="M100.747 47.2768H86.3984V45.7607C87.8684 45.7607 88.9574 45.6529 89.659 45.4306C90.3605 45.2116 90.8115 44.7568 91.012 44.0661C91.2124 43.3755 91.3126 42.3547 91.3126 41.0071V19.8059C91.3126 18.5593 91.1623 17.6396 90.8616 17.05C90.561 16.4605 90.0599 16.0629 89.3583 15.8608C88.6568 15.6586 87.6679 15.5576 86.3984 15.5576V14.0415H100.196C102.805 14.0415 105.237 14.3211 107.495 14.877C109.753 15.4329 111.718 16.3526 113.388 17.6329C115.058 18.9165 116.371 20.601 117.327 22.6931C118.279 24.7853 118.757 27.3828 118.757 30.4823C118.757 33.383 118.329 35.8963 117.477 38.0221C116.625 40.148 115.403 41.8931 113.816 43.2576C112.226 44.622 110.328 45.6361 108.123 46.293C105.915 46.95 103.456 47.2768 100.747 47.2768ZM98.8927 45.3565C101.936 45.3565 104.545 44.9454 106.72 44.1167C108.895 43.2912 110.565 41.8325 111.738 39.7403C112.907 37.6482 113.495 34.7137 113.495 30.9371C113.495 26.116 112.276 22.4371 109.834 19.9069C107.392 17.3768 103.58 16.1134 98.395 16.1134C97.9941 16.1134 97.5999 16.1134 97.2157 16.1134C96.8315 16.1134 96.4039 16.1471 95.9362 16.2145V45.2048C96.4373 45.2385 96.9317 45.2722 97.4161 45.3059C97.8972 45.3396 98.3883 45.3565 98.8927 45.3565Z" fill="#09315F"/>
<path d="M133.656 47.786C131.648 47.786 129.834 47.3042 128.214 46.3441C126.59 45.3839 125.31 43.9655 124.375 42.0957C123.44 40.2226 122.972 37.9384 122.972 35.2398C122.972 32.4065 123.45 30.0717 124.402 28.2323C125.354 26.3928 126.633 25.0182 128.24 24.1086C129.847 23.199 131.618 22.7441 133.559 22.7441C136.301 22.7441 138.506 23.7043 140.18 25.628C141.85 27.5517 142.756 30.2806 142.889 33.8248H126.587L126.536 31.9516H138.176C138.142 30.7051 137.925 29.5327 137.524 28.4378C137.123 27.3428 136.535 26.4568 135.767 25.783C134.999 25.1092 134.01 24.7723 132.807 24.7723C130.866 24.7723 129.413 25.5404 128.444 27.0733C127.475 28.6096 126.991 30.7759 126.991 33.5721C126.991 35.9001 127.358 37.8407 128.093 39.3904C128.828 40.9402 129.8 42.0957 131.003 42.8538C132.206 43.6118 133.495 43.9925 134.865 43.9925C136.235 43.9925 137.347 43.8072 138.202 43.4366C139.054 43.066 139.782 42.5842 140.384 41.9947C140.985 41.4051 141.553 40.7549 142.091 40.0474L143.043 40.7549C142.609 41.6982 142.108 42.6011 141.54 43.4602C140.972 44.3193 140.327 45.0706 139.609 45.7107C138.89 46.3508 138.045 46.8595 137.076 47.2267C136.094 47.5973 134.958 47.786 133.656 47.786Z" fill="#09315F"/>
<path d="M157.585 47.2768H146.047V45.8113C147.149 45.8113 147.954 45.7035 148.455 45.4812C148.956 45.2622 149.267 44.8916 149.384 44.3694C149.501 43.8472 149.561 43.1127 149.561 42.1694V16.7705C149.561 15.7261 149.367 15.0994 148.983 14.8973C148.599 14.6951 148.088 14.5941 147.453 14.5941C147.019 14.5941 146.484 14.6278 145.846 14.6951V13.3307L152.468 11.5586H153.72V42.1661C153.72 43.1431 153.797 43.8944 153.947 44.4165C154.098 44.9421 154.442 45.3026 154.976 45.5047C155.511 45.7069 156.379 45.808 157.585 45.808V47.2768Z" fill="#09315F"/>
<path d="M173.437 42.7252L174.389 43.5337C173.754 44.4433 173.16 45.2115 172.608 45.8347C172.057 46.4614 171.446 46.9398 170.778 47.2767C170.11 47.6136 169.238 47.782 168.169 47.782C166.495 47.782 165.276 47.2834 164.507 46.2896C163.739 45.2957 163.355 43.6685 163.355 41.4079V25.7251H160.595V24.5628C161.764 23.8216 162.777 22.8177 163.629 21.5543C164.48 20.2909 165.359 18.5795 166.261 16.4199H167.514V23.6027H173.183V25.7285H167.514V39.9963C167.514 41.7852 167.671 43.0317 167.992 43.7392C168.309 44.4467 168.954 44.8005 169.923 44.8005C170.724 44.8005 171.352 44.632 171.803 44.2951C172.258 43.9548 172.799 43.4326 173.437 42.7252Z" fill="#09315F"/>
<path d="M182.414 47.6343C180.473 47.6343 178.993 47.0952 177.974 46.0138C176.955 44.9357 176.444 43.5847 176.444 41.9676C176.444 40.62 176.755 39.4813 177.373 38.5514C177.991 37.625 178.809 36.84 179.831 36.1999C180.85 35.5598 181.956 35.0207 183.142 34.5794C184.328 34.1414 185.491 33.7674 186.63 33.4642C187.766 33.161 188.771 32.8747 189.64 32.6051V30.3782C189.64 28.185 189.262 26.6285 188.511 25.6987C187.759 24.7722 186.63 24.3073 185.123 24.3073C183.683 24.3073 182.764 24.6105 182.364 25.2169C181.963 25.8233 181.762 26.8879 181.762 28.404C181.762 29.1822 181.569 29.7617 181.184 30.1491C180.8 30.5366 180.256 30.732 179.554 30.732C179.053 30.732 178.575 30.5399 178.124 30.1491C177.673 29.7617 177.446 29.1452 177.446 28.3029C177.446 27.3596 177.807 26.4668 178.525 25.6212C179.243 24.7789 180.262 24.0883 181.585 23.5459C182.905 23.0068 184.468 22.7373 186.276 22.7373C189.018 22.7373 190.956 23.3774 192.095 24.661C193.231 25.9446 193.802 27.8986 193.802 30.5298V42.0148C193.802 43.0625 193.919 43.7363 194.153 44.0396C194.387 44.3428 194.771 44.4944 195.306 44.4944C195.773 44.4944 196.201 44.3765 196.585 44.1406C196.969 43.9048 197.33 43.6016 197.664 43.231L198.416 44.0396C197.581 45.2524 196.785 46.1384 196.034 46.6943C195.282 47.2502 194.27 47.5298 193 47.5298C191.828 47.5298 191.07 47.1929 190.719 46.5191C190.368 45.8453 190.107 44.8852 189.94 43.6353L189.64 43.0289V34.2762C188.136 34.6468 186.713 35.0881 185.374 35.5934C184.037 36.0988 182.948 36.7558 182.113 37.5677C181.278 38.3762 180.86 39.4409 180.86 40.7548C180.86 42.0047 181.194 42.9985 181.863 43.7397C182.531 44.4809 183.399 44.8515 184.472 44.8515C185.34 44.8515 186.252 44.6325 187.208 44.1945C188.16 43.7566 189.088 43.1333 189.99 42.3214L190.391 44.144H189.79C189.022 44.8178 188.277 45.4276 187.558 45.9666C186.84 46.5057 186.068 46.9201 185.25 47.2064C184.428 47.4894 183.483 47.6343 182.414 47.6343Z" fill="#09315F"/>
<path d="M228.666 47.8364C225.222 47.8364 222.329 47.0952 219.987 45.6095C217.645 44.1271 215.881 42.0855 214.695 39.488C213.509 36.8905 212.915 33.9561 212.915 30.6848C212.915 27.0092 213.616 23.8895 215.023 21.3257C216.426 18.7619 218.367 16.8078 220.842 15.4569C223.318 14.1093 226.161 13.4321 229.371 13.4321C231.145 13.4321 232.565 13.5837 233.634 13.8869C234.703 14.1901 235.558 14.4933 236.193 14.7965C236.827 15.0997 237.345 15.2513 237.746 15.2513C238.147 15.2513 238.454 15.0762 238.675 14.719C238.892 14.3653 239.153 13.9341 239.453 13.4287H240.957V25.0147H239.249C238.715 21.7097 237.586 19.3144 235.862 17.832C234.138 16.3496 231.99 15.6051 229.418 15.6051C225.806 15.6051 223.02 16.9055 221.066 19.4997C219.108 22.0972 218.133 25.6548 218.133 30.1727C218.133 33.5451 218.644 36.2942 219.663 38.42C220.682 40.5459 222.095 42.1125 223.902 43.1232C225.709 44.1339 227.781 44.6392 230.123 44.6392C232.431 44.6392 234.452 44.208 236.193 43.3489C237.93 42.4898 239.503 41.2837 240.91 39.7306L242.112 40.7918C241.21 42.1428 240.131 43.3455 238.875 44.4101C237.623 45.4714 236.159 46.3069 234.486 46.9133C232.812 47.5298 230.874 47.8364 228.666 47.8364Z" fill="#09315F"/>
<path d="M256.958 47.786C253.447 47.786 250.695 46.681 248.707 44.4709C246.716 42.2642 245.72 39.1175 245.72 35.0377C245.72 32.5749 246.188 30.4255 247.123 28.586C248.059 26.7465 249.372 25.3147 251.062 24.2871C252.749 23.2596 254.717 22.7441 256.955 22.7441C260.399 22.7441 263.115 23.8256 265.106 25.9818C267.097 28.1413 268.09 31.0925 268.09 34.8355C268.09 37.6689 267.612 40.0474 266.66 41.9677C265.708 43.8914 264.395 45.3401 262.721 46.3171C261.054 47.2941 259.133 47.786 256.958 47.786ZM257.159 45.7612C258.532 45.7612 259.684 45.4412 260.62 44.801C261.555 44.1609 262.267 43.066 262.751 41.5129C263.236 39.9632 263.479 37.8205 263.479 35.0882C263.479 31.9853 262.918 29.4721 261.799 27.5483C260.68 25.6246 258.996 24.6645 256.758 24.6645C254.85 24.6645 253.314 25.473 252.144 27.0935C250.975 28.714 250.387 31.1397 250.387 34.3773C250.387 38.3932 250.982 41.3006 252.168 43.1031C253.354 44.9089 255.021 45.7949 257.159 45.7612Z" fill="#09315F"/>
<path d="M283.798 47.2765H271.257V45.811C272.359 45.811 273.171 45.72 273.689 45.5314C274.207 45.3461 274.541 45.0092 274.691 44.5207C274.841 44.0322 274.915 43.3146 274.915 42.3713V28.4572C274.915 27.5476 274.841 26.8637 274.691 26.4089C274.541 25.9541 274.013 25.725 273.111 25.725C272.61 25.725 272.092 25.7587 271.554 25.826V24.4111L277.775 22.895H278.977V28.1069H279.128C279.996 26.8603 280.765 25.8294 281.436 25.0209C282.108 24.2123 282.766 23.6059 283.417 23.1982C284.069 22.7939 284.797 22.5918 285.599 22.5918C286.567 22.5918 287.296 22.8445 287.78 23.3498C288.264 23.8552 288.508 24.5492 288.508 25.4251C288.508 26.3685 288.285 27.0625 287.83 27.5004C287.379 27.9384 286.868 28.1574 286.3 28.1574C285.766 28.1574 285.288 28.0159 284.87 27.7295C284.453 27.4432 284.092 27.1568 283.791 26.8704C283.491 26.5841 283.24 26.4392 283.04 26.4392C282.472 26.4392 281.82 26.8772 281.082 27.7531C280.347 28.6324 279.679 29.5758 279.074 30.5865V42.1219C279.074 43.1697 279.208 43.9614 279.475 44.5005C279.742 45.0395 280.22 45.3933 280.905 45.5617C281.59 45.7302 282.552 45.8144 283.788 45.8144V47.2765H283.798Z" fill="#09315F"/>
<path d="M302.659 58.4085H289.968V56.9935C291.538 56.9935 292.543 56.7307 292.978 56.2085C293.412 55.683 293.629 54.716 293.629 53.2977V28.2558C293.629 27.2788 293.519 26.605 293.305 26.2311C293.088 25.8605 292.56 25.6752 291.725 25.6752C291.391 25.6752 290.856 25.7089 290.118 25.7762V24.3107L296.439 22.8957H297.692V27.1441H297.842C299.045 25.7291 300.274 24.6409 301.53 23.8829C302.783 23.1248 304.146 22.7441 305.619 22.7441C307.293 22.7441 308.756 23.2259 310.009 24.1861C311.262 25.1462 312.25 26.4804 312.969 28.1817C313.687 29.8864 314.048 31.8506 314.048 34.0741C314.048 36.9411 313.553 39.3972 312.568 41.4354C311.579 43.477 310.253 45.047 308.579 46.1419C306.905 47.2402 305.068 47.786 303.06 47.786C302.125 47.786 301.229 47.6748 300.377 47.4592C299.526 47.2402 298.73 46.8764 297.996 46.371H297.795V52.9979C297.795 54.0759 297.929 54.9047 298.196 55.4774C298.463 56.0502 298.948 56.4376 299.649 56.6398C300.351 56.8419 301.356 56.943 302.659 56.943V58.4085ZM303.311 45.8118C305.085 45.8118 306.554 44.9695 307.724 43.2816C308.893 41.5938 309.481 38.9996 309.481 35.4925C309.481 32.2885 308.963 29.937 307.927 28.4344C306.892 26.9352 305.435 26.1839 303.565 26.1839C302.228 26.1839 301.049 26.5376 300.03 27.2451C299.008 27.9526 298.266 28.6298 297.798 29.2699V42.4731C298.132 42.81 298.55 43.2479 299.051 43.787C299.552 44.326 300.154 44.7977 300.859 45.202C301.557 45.6096 302.375 45.8118 303.311 45.8118Z" fill="#09315F"/>
<path d="M328.744 47.786C325.233 47.786 322.48 46.681 320.492 44.4709C318.501 42.2642 317.506 39.1175 317.506 35.0377C317.506 32.5749 317.973 30.4255 318.909 28.586C319.844 26.7465 321.157 25.3147 322.847 24.2871C324.535 23.2596 326.502 22.7441 328.74 22.7441C332.185 22.7441 334.901 23.8256 336.892 25.9818C338.883 28.1413 339.875 31.0925 339.875 34.8355C339.875 37.6689 339.397 40.0474 338.445 41.9677C337.493 43.8914 336.18 45.3401 334.507 46.3171C332.843 47.2941 330.919 47.786 328.744 47.786ZM328.944 45.7612C330.317 45.7612 331.47 45.4412 332.405 44.801C333.341 44.1609 334.052 43.066 334.537 41.5129C335.021 39.9632 335.265 37.8205 335.265 35.0882C335.265 31.9853 334.704 29.4721 333.585 27.5483C332.465 25.6246 330.782 24.6645 328.543 24.6645C326.636 24.6645 325.099 25.473 323.93 27.0935C322.761 28.714 322.173 31.1397 322.173 34.3773C322.173 38.3932 322.767 41.3006 323.953 43.1031C325.139 44.9089 326.806 45.7949 328.944 45.7612Z" fill="#09315F"/>
<path d="M355.583 47.2765H343.042V45.811C344.145 45.811 344.956 45.72 345.474 45.5314C345.992 45.3461 346.326 45.0092 346.477 44.5207C346.627 44.0322 346.7 43.3146 346.7 42.3713V28.4572C346.7 27.5476 346.627 26.8637 346.477 26.4089C346.326 25.9541 345.798 25.725 344.896 25.725C344.395 25.725 343.877 25.7587 343.343 25.826V24.4111L349.563 22.895H350.766V28.1069H350.916C351.785 26.8603 352.553 25.8294 353.225 25.0209C353.893 24.2123 354.554 23.6059 355.206 23.1982C355.857 22.7939 356.586 22.5918 357.387 22.5918C358.356 22.5918 359.084 22.8445 359.569 23.3498C360.053 23.8552 360.297 24.5492 360.297 25.4251C360.297 26.3685 360.073 27.0625 359.619 27.5004C359.168 27.9384 358.657 28.1574 358.089 28.1574C357.554 28.1574 357.077 28.0159 356.659 27.7295C356.241 27.4432 355.881 27.1568 355.58 26.8704C355.279 26.5841 355.029 26.4392 354.828 26.4392C354.26 26.4392 353.609 26.8772 352.871 27.7531C352.136 28.6324 351.468 29.5758 350.863 30.5865V42.1219C350.863 43.1697 350.996 43.9614 351.264 44.5005C351.531 45.0395 352.009 45.3933 352.694 45.5617C353.378 45.7302 354.341 45.8144 355.577 45.8144V47.2765H355.583Z" fill="#09315F"/>
<path d="M367.774 47.6343C365.833 47.6343 364.353 47.0952 363.334 46.0138C362.311 44.9357 361.804 43.5847 361.804 41.9676C361.804 40.62 362.111 39.4813 362.732 38.5514C363.35 37.625 364.169 36.84 365.191 36.1999C366.21 35.5598 367.313 35.0207 368.502 34.5794C369.688 34.1414 370.85 33.7674 371.986 33.4642C373.122 33.161 374.128 32.8747 374.996 32.6051V30.3782C374.996 28.185 374.622 26.6285 373.867 25.6987C373.115 24.7722 371.986 24.3073 370.48 24.3073C369.043 24.3073 368.121 24.6105 367.72 25.2169C367.319 25.8233 367.119 26.8879 367.119 28.404C367.119 29.1822 366.925 29.7617 366.541 30.1491C366.157 30.5366 365.612 30.732 364.911 30.732C364.409 30.732 363.932 30.5399 363.481 30.1491C363.03 29.7617 362.803 29.1452 362.803 28.3029C362.803 27.3596 363.16 26.4668 363.882 25.6212C364.6 24.7789 365.619 24.0883 366.942 23.5459C368.261 23.0068 369.825 22.7373 371.632 22.7373C374.375 22.7373 376.316 23.3774 377.452 24.661C378.587 25.9446 379.159 27.8986 379.159 30.5298V42.0148C379.159 43.0625 379.276 43.7363 379.51 44.0396C379.743 44.3428 380.128 44.4944 380.662 44.4944C381.13 44.4944 381.557 44.3765 381.942 44.1406C382.326 43.9048 382.687 43.6016 383.021 43.231L383.772 44.0396C382.937 45.2524 382.142 46.1384 381.39 46.6943C380.639 47.2502 379.626 47.5298 378.354 47.5298C377.184 47.5298 376.423 47.1929 376.072 46.5191C375.721 45.8453 375.461 44.8852 375.294 43.6353L374.993 43.0289V34.2762C373.49 34.6468 372.066 35.0881 370.73 35.5934C369.394 36.0988 368.305 36.7558 367.47 37.5677C366.634 38.3796 366.217 39.4409 366.217 40.7548C366.217 42.0047 366.551 42.9985 367.219 43.7397C367.887 44.4809 368.756 44.8515 369.828 44.8515C370.697 44.8515 371.609 44.6325 372.564 44.1945C373.516 43.7566 374.445 43.1333 375.347 42.3214L375.748 44.144H375.147C374.378 44.8178 373.633 45.4276 372.915 45.9666C372.197 46.5057 371.425 46.9201 370.606 47.2064C369.788 47.4894 368.843 47.6343 367.774 47.6343Z" fill="#09315F"/>
<path d="M398.675 42.7252L399.627 43.5337C398.993 44.4433 398.398 45.2115 397.847 45.8347C397.296 46.4614 396.684 46.9398 396.016 47.2767C395.348 47.6136 394.479 47.782 393.407 47.782C391.733 47.782 390.514 47.2834 389.746 46.2896C388.977 45.2957 388.593 43.6685 388.593 41.4079V25.7251H385.833V24.5628C387.003 23.8216 388.015 22.8177 388.87 21.5543C389.722 20.2909 390.601 18.5795 391.503 16.4199H392.755V23.6027H398.425V25.7285H392.755V39.9963C392.755 41.7852 392.912 43.0317 393.233 43.7392C393.551 44.4467 394.195 44.8005 395.164 44.8005C395.966 44.8005 396.594 44.632 397.045 44.2951C397.496 43.9548 398.041 43.4326 398.675 42.7252Z" fill="#09315F"/>
<path d="M412.669 47.2767H401.381V45.8617C402.517 45.8617 403.329 45.7539 403.813 45.5316C404.298 45.3126 404.598 44.9352 404.715 44.3928C404.832 43.8538 404.889 43.1126 404.889 42.1659V28.0498C404.889 26.9717 404.705 26.3046 404.338 26.0519C403.97 25.7993 403.419 25.6712 402.681 25.6712C402.347 25.6712 401.929 25.7049 401.428 25.7723V24.3068L407.749 22.8918H409.051V42.1659C409.051 43.1429 409.118 43.9043 409.252 44.4434C409.385 44.9824 409.71 45.353 410.231 45.5551C410.748 45.7573 411.56 45.8584 412.663 45.8584V47.2767H412.669ZM407.05 18.9467C406.215 18.9467 405.527 18.6603 404.992 18.0876C404.458 17.5149 404.191 16.8411 404.191 16.0628C404.191 15.288 404.448 14.6209 404.969 14.065C405.487 13.5091 406.182 13.2295 407.05 13.2295C407.919 13.2295 408.614 13.5091 409.132 14.065C409.649 14.6209 409.91 15.288 409.91 16.0628C409.91 16.8377 409.649 17.5149 409.132 18.0876C408.614 18.6603 407.922 18.9467 407.05 18.9467Z" fill="#09315F"/>
<path d="M427.018 47.786C423.507 47.786 420.754 46.681 418.766 44.4709C416.775 42.2642 415.78 39.1175 415.78 35.0377C415.78 32.5749 416.248 30.4255 417.183 28.586C418.118 26.7465 419.431 25.3147 421.122 24.2871C422.809 23.2596 424.776 22.7441 427.015 22.7441C430.459 22.7441 433.175 23.8256 435.166 25.9818C437.157 28.1413 438.149 31.0925 438.149 34.8355C438.149 37.6689 437.672 40.0474 436.719 41.9677C435.767 43.8914 434.454 45.3401 432.781 46.3171C431.114 47.2941 429.189 47.786 427.018 47.786ZM427.218 45.7612C428.591 45.7612 429.744 45.4412 430.679 44.801C431.615 44.1609 432.326 43.066 432.811 41.5129C433.295 39.9632 433.539 37.8205 433.539 35.0882C433.539 31.9853 432.978 29.4721 431.859 27.5483C430.74 25.6246 429.056 24.6645 426.818 24.6645C424.91 24.6645 423.373 25.473 422.204 27.0935C421.035 28.714 420.447 31.1397 420.447 34.3773C420.447 38.3932 421.041 41.3006 422.227 43.1031C423.413 44.9089 425.077 45.7949 427.218 45.7612Z" fill="#09315F"/>
<path d="M452.952 47.2773H441.463V45.8623C442.599 45.8623 443.411 45.7545 443.895 45.5321C444.379 45.3131 444.68 44.9358 444.797 44.3934C444.914 43.8544 444.971 43.1132 444.971 42.1665V27.9493C444.971 27.0396 444.787 26.4399 444.419 26.1536C444.052 25.8672 443.534 25.7223 442.863 25.7223C442.428 25.7223 441.977 25.756 441.51 25.8234V24.3579L447.88 22.8924H449.033L448.983 27.545L449.133 28.6062V42.1665C449.133 43.1098 449.2 43.8544 449.334 44.3934C449.467 44.9324 449.801 45.3131 450.336 45.5321C450.87 45.7511 451.739 45.8623 452.945 45.8623V47.2773H452.952ZM467.701 47.2773H456.112V45.8623C457.315 45.8623 458.177 45.7545 458.694 45.5321C459.212 45.3131 459.53 44.9358 459.646 44.3934C459.763 43.8544 459.82 43.1132 459.82 42.1665V33.0129C459.82 30.9881 459.596 29.4721 459.142 28.4614C458.688 27.4506 458.113 26.7836 457.411 26.4635C456.71 26.1435 455.975 25.9818 455.203 25.9818C454.234 25.9818 453.363 26.1772 452.594 26.5646C451.826 26.952 451.131 27.417 450.513 27.956C449.892 28.495 449.317 29.0038 448.782 29.4721L448.432 26.9925H449.183C450.556 25.7796 451.849 24.7655 453.072 23.957C454.291 23.1484 455.688 22.7441 457.261 22.7441C459.536 22.7441 461.223 23.5224 462.329 25.0721C463.431 26.6252 463.986 28.8488 463.986 31.7495V42.1732C463.986 43.1165 464.063 43.8611 464.213 44.4001C464.364 44.9392 464.708 45.3199 465.242 45.5389C465.777 45.7578 466.595 45.869 467.701 45.869V47.2773Z" fill="#09315F"/>
<path d="M387.35 70.6147H377.512V70.015C378.04 70.015 378.434 69.9679 378.691 69.8769C378.948 69.7826 379.119 69.604 379.199 69.3379C379.279 69.0717 379.316 68.6775 379.316 68.1587V60.0158C379.316 59.497 379.276 59.0961 379.199 58.8165C379.119 58.5368 378.952 58.3448 378.691 58.237C378.434 58.1292 378.04 58.0753 377.512 58.0753V57.4756H383.088V58.0753C382.56 58.0753 382.152 58.1325 381.868 58.2437C381.584 58.3583 381.391 58.5537 381.294 58.8333C381.193 59.1129 381.147 59.5138 381.147 60.0327V68.7146C381.147 69.1559 381.25 69.4423 381.464 69.5737C381.674 69.7085 382.072 69.7725 382.653 69.7725H383.565C384.227 69.7725 384.761 69.7219 385.172 69.6242C385.583 69.5232 385.911 69.3547 386.154 69.1121C386.398 68.8729 386.605 68.5563 386.769 68.1621C386.936 67.7679 387.117 67.2861 387.314 66.71H387.948L387.35 70.6147Z" fill="#09315F"/>
<path d="M396.156 70.6147H390.444V70.015C391.038 70.015 391.476 69.9645 391.753 69.8668C392.031 69.7657 392.211 69.5737 392.288 69.2873C392.368 69.001 392.405 68.5697 392.405 67.997V60.1169C392.405 59.5981 392.371 59.187 392.308 58.8872C392.241 58.5874 392.071 58.3751 391.8 58.2572C391.53 58.1359 391.075 58.0753 390.44 58.0753V57.4756H396.153V58.0753C395.532 58.0753 395.081 58.1359 394.803 58.2572C394.526 58.3751 394.359 58.5874 394.299 58.8872C394.239 59.187 394.209 59.5981 394.209 60.1169V67.997C394.209 68.5697 394.249 69.001 394.326 69.2873C394.406 69.5737 394.583 69.7691 394.86 69.8668C395.137 69.9679 395.568 70.015 396.15 70.015V70.6147H396.156Z" fill="#09315F"/>
<path d="M403.556 70.6148H398.896V70.0151C399.437 70.0151 399.841 69.9646 400.105 69.8669C400.369 69.7658 400.549 69.5502 400.64 69.2166C400.73 68.8831 400.78 68.3778 400.78 67.6972V59.9148C400.78 59.4094 400.733 59.0254 400.64 58.766C400.546 58.5065 400.372 58.3246 400.115 58.2269C399.858 58.1259 399.464 58.0787 398.936 58.0787V57.479H402.981L407.167 67.5422H407.248L411.413 57.479H415.182V58.0787C414.717 58.0787 414.36 58.1292 414.109 58.2269C413.859 58.328 413.685 58.5065 413.595 58.766C413.501 59.0254 413.455 59.4027 413.455 59.8946V68.2363C413.455 68.718 413.501 69.0852 413.595 69.348C413.688 69.6074 413.859 69.786 414.109 69.8803C414.36 69.9713 414.724 70.0185 415.202 70.0185V70.6181H409.923V70.0185C410.438 70.0185 410.822 69.9713 411.073 69.8803C411.323 69.786 411.49 69.6108 411.567 69.348C411.647 69.0886 411.687 68.718 411.687 68.2363V59.615H411.607L406.987 70.6181H406.509L401.829 59.6352H401.749V67.6972C401.749 68.3778 401.795 68.8831 401.889 69.2166C401.979 69.5502 402.156 69.7658 402.413 69.8669C402.671 69.9679 403.052 70.0151 403.553 70.0151V70.6148H403.556Z" fill="#09315F"/>
<path d="M423.971 70.6147H418.258V70.015C418.853 70.015 419.291 69.9645 419.568 69.8668C419.845 69.7657 420.026 69.5737 420.103 69.2873C420.183 69.001 420.219 68.5697 420.219 67.997V60.1169C420.219 59.5981 420.186 59.187 420.123 58.8872C420.056 58.5874 419.885 58.3751 419.615 58.2572C419.344 58.1359 418.89 58.0753 418.255 58.0753V57.4756H423.968V58.0753C423.346 58.0753 422.895 58.1359 422.618 58.2572C422.341 58.3751 422.174 58.5874 422.114 58.8872C422.054 59.187 422.023 59.5981 422.023 60.1169V67.997C422.023 68.5697 422.064 69.001 422.14 69.2873C422.221 69.5737 422.398 69.7691 422.675 69.8668C422.952 69.9679 423.383 70.015 423.964 70.015V70.6147H423.971Z" fill="#09315F"/>
<path d="M435.019 70.6146H429.266V70.0149C429.821 70.0149 430.238 69.9711 430.515 69.8835C430.793 69.796 430.98 69.6107 431.07 69.3243C431.16 69.0379 431.207 68.5932 431.207 67.9935V58.3716H429.937C429.209 58.3716 428.665 58.4458 428.301 58.5906C427.936 58.7389 427.676 59.005 427.515 59.3891C427.355 59.7765 427.205 60.3358 427.058 61.0702H426.443L426.66 57.4688H437.631L437.792 61.0702H437.177C437.03 60.3358 436.88 59.7765 436.719 59.3891C436.559 59.0016 436.302 58.7355 435.947 58.5906C435.59 58.4424 435.042 58.3716 434.3 58.3716H433.051V67.9935C433.051 68.5932 433.098 69.0379 433.188 69.3243C433.282 69.6107 433.465 69.7993 433.743 69.8835C434.02 69.9711 434.444 70.0149 435.012 70.0149V70.6146H435.019Z" fill="#09315F"/>
<path d="M450.907 70.6147H440.314V70.015C440.855 70.015 441.262 69.9779 441.533 69.9038C441.804 69.8297 441.991 69.668 442.088 69.4119C442.188 69.1593 442.235 68.7718 442.235 68.253V59.9113C442.235 59.406 442.185 59.0185 442.088 58.7524C441.991 58.4862 441.804 58.3043 441.533 58.2133C441.262 58.119 440.855 58.0719 440.314 58.0719V57.4722H450.727L450.844 60.7536H450.209C450.115 60.0865 449.975 59.5845 449.781 59.2443C449.591 58.904 449.28 58.6749 448.849 58.5536C448.418 58.4323 447.794 58.3717 446.975 58.3717H444.059V63.4522H446.38C446.988 63.4522 447.453 63.3983 447.77 63.2904C448.088 63.186 448.305 62.9839 448.425 62.6908C448.542 62.3977 448.602 61.9833 448.602 61.451H449.237V66.0935H448.602C448.602 65.5477 448.542 65.14 448.425 64.8739C448.305 64.6077 448.088 64.4325 447.77 64.3551C447.453 64.2742 446.988 64.2338 446.38 64.2338H444.059V69.7354H446.618C447.386 69.7354 448.004 69.6983 448.472 69.6242C448.943 69.5501 449.31 69.4119 449.584 69.2132C449.855 69.0144 450.079 68.728 450.259 68.3541C450.439 67.9801 450.627 67.4916 450.824 66.8953H451.458L450.907 70.6147Z" fill="#09315F"/>
<path d="M459.874 70.6147H454.201V70.015C454.782 70.015 455.213 69.9712 455.491 69.8836C455.768 69.796 455.948 69.6175 456.025 69.3446C456.105 69.0717 456.142 68.6674 456.142 68.1351V59.753C456.142 59.2611 456.082 58.8973 455.965 58.6614C455.845 58.429 455.648 58.2706 455.37 58.1931C455.093 58.1123 454.702 58.0719 454.201 58.0719V57.4722H459.657C460.689 57.4722 461.651 57.5833 462.543 57.8023C463.435 58.0213 464.21 58.3852 464.875 58.8939C465.536 59.3992 466.054 60.0663 466.432 60.8951C466.809 61.7239 466.996 62.748 466.996 63.9777C466.996 65.1266 466.829 66.117 466.488 66.9593C466.151 67.7982 465.67 68.4888 465.042 69.0312C464.414 69.5703 463.662 69.9712 462.79 70.2306C461.918 70.4833 460.946 70.6147 459.874 70.6147ZM459.142 69.8533C460.345 69.8533 461.377 69.6916 462.236 69.3614C463.094 69.0346 463.756 68.4585 464.22 67.6297C464.684 66.8043 464.915 65.642 464.915 64.1495C464.915 62.2427 464.434 60.7873 463.468 59.7867C462.503 58.7861 460.996 58.2875 458.945 58.2875C458.785 58.2875 458.631 58.2875 458.477 58.2875C458.324 58.2875 458.157 58.3009 457.973 58.3279V69.7926C458.17 69.8061 458.367 69.8196 458.557 69.8331C458.748 69.8465 458.942 69.8533 459.142 69.8533Z" fill="#09315F"/>
<path d="M466.816 0H67.4963V2.93104H466.816V0Z" fill="#B49963"/>
<path d="M374.739 67.9331H108.203V70.8641H374.739V67.9331Z" fill="#B49963"/>
<path d="M80.3677 62.0673H14.315L36.8582 20.3791L39.1466 24.3074L20.8494 58.1559H78.0927L44.2345 0H24.9953L31.7702 11.6399L0 70.3753H85.2051L80.3677 62.0673ZM53.3179 48.6451H35.5052L44.0841 32.7805L53.3179 48.6451Z" fill="#B49963"/>
</svg>
