<?xml version="1.0" encoding="utf-8"?>
<!-- Generator: Adobe Illustrator 24.0.2, SVG Export Plug-In . SVG Version: 6.00 Build 0)  -->
<svg version="1.1" id="Layer_1" xmlns="http://www.w3.org/2000/svg" xmlns:xlink="http://www.w3.org/1999/xlink" x="0px" y="0px"
	 viewBox="0 0 303.11 303.11" style="enable-background:new 0 0 303.11 303.11;" xml:space="preserve">
<style type="text/css">
	.st0{fill:#E5EBF8;}
	.st1{opacity:0.8;}
	.st2{fill:#00D4D9;}
	.st3{fill:url(#SVGID_1_);}
	.st4{fill:url(#SVGID_2_);}
	.st5{fill:#FFFFFF;}
	.st6{fill:none;stroke:#000000;stroke-miterlimit:10;}
</style>
<g>
	<path class="st0" d="M246.36,121.77c-0.57,7.13-0.86,14.26-2,21.1c-2.28,14.26-6.56,27.95-14.54,40.49
		c-8.84,13.97-21.1,23.67-37.07,29.09c-6.27,2-12.83,3.14-19.39,4.28c-2.28,0.29-4.85,0.57-7.13,0.57s-4.56-0.57-6.84-1.14
		c-5.7-1.43-11.41-2.57-16.83-4.56c-7.13-2.28-14.26-5.13-21.39-7.98c-9.41-3.71-17.97-8.84-26.24-14.54
		c-7.13-5.13-13.69-10.84-19.68-17.11c-8.27-9.13-14.26-19.39-18.25-31.08c-1.14-3.42,1.71-7.41,5.13-7.41
		c1.43,0,3.14,0.29,4.56,0.29c9.7,0,19.11,0,28.8-0.29c6.84-0.29,13.97-1.14,20.82-2c8.84-1.14,17.68-2.85,26.24-5.13
		c8.27-2.28,16.54-4.56,24.24-7.98c6.27-2.85,11.69-6.84,16.83-11.12c4.56-3.71,8.84-7.7,13.4-11.69c4.85-4.28,10.27-7.7,16.83-9.13
		c4.28-1.14,8.84-0.57,13.12,1.14c9.13,3.42,15.4,10.27,17.68,20.25C245.79,112.36,245.79,117.2,246.36,121.77z M107.2,182.51
		c0,0.29,0,0.29,0,0.57c0.29,0.29,0.86,0.57,1.14,0.86c5.7,2.85,11.12,5.99,16.83,8.84c0.57,0.29,1.14,0.29,1.71,0.29
		c9.7-1.14,19.39-2.28,29.09-4.56c7.13-1.43,13.97-3.42,20.53-5.99c0.57-0.29,1.14,0,1.43,0c-0.29,0.29-0.29,0.86-0.86,1.14
		c-7.98,6.27-16.26,12.55-25.67,16.83c-0.29,0-0.57,0.29-0.86,0.57c0.57,0.29,1.14,0.57,1.71,0.86c2.28,0.57,4.56,1.14,6.84,1.71
		c2.28,0.57,4.85,1.14,7.41,1.14c6.84,0,13.69-1.14,20.53-3.14c12.55-3.71,22.81-10.55,30.23-21.1c4.56-6.27,7.98-13.4,9.98-21.1
		c1.43-5.13,2.28-10.55,3.14-15.68c0.29-2-0.57-3.42-2.57-4.28c-0.86-0.29-1.71-0.57-2.85-1.14c-12.26-4.85-23.95-11.12-35.36-17.4
		c-2-1.14-3.42-1.14-5.42,0c-8.84,5.13-18.25,9.13-27.95,12.26c-10.84,3.42-21.67,5.7-32.8,7.41c-9.41,1.43-18.82,2.57-28.52,2.85
		c-6.27,0.29-12.55,0.29-18.82,0.57c-0.57,0-1.14,0-1.71,0c-2,0.29-2.85,1.71-1.71,3.42c2,3.14,3.99,6.27,5.99,9.13
		c0.29,0.57,1.14,0.86,1.71,0.86c11.98,0.86,23.95,0.57,35.93-0.29c0.29,0,0.57,0,0.86,0.29c-0.57,0.57-1.14,0.86-1.71,1.14
		c-4.56,1.43-9.13,3.14-13.97,4.56c-4.28,1.14-8.84,2-13.12,2.85c-0.29,0-0.57,0.29-1.14,0.57c0.29,0.29,0.29,0.86,0.57,1.14
		c1.71,1.71,3.42,3.14,5.42,4.85c0.57,0.29,1.14,0.57,1.71,0.57c7.98,0.29,15.97,0.57,23.95,0.57c5.7,0,11.41-0.57,17.11-0.86
		c0.29,0,0.86,0,1.14,0c0,0.29,0,0.29,0,0.57C127.44,178.23,117.46,181.37,107.2,182.51z"/>
</g>
</svg>
