<?xml version="1.0" encoding="utf-8"?>
<!-- Generator: Adobe Illustrator 26.3.1, SVG Export Plug-In . SVG Version: 6.00 Build 0)  -->
<svg version="1.1" id="Layer_1" xmlns="http://www.w3.org/2000/svg" xmlns:xlink="http://www.w3.org/1999/xlink" x="0px" y="0px"
	 viewBox="0 0 273.8 187.2" style="enable-background:new 0 0 273.8 187.2;" xml:space="preserve">
<style type="text/css">
	.st0{fill:#FFFFFF;}
</style>
<g>
	<g>
		<path class="st0" d="M158.6,187.2c-0.5,0-1.1,0-1.6,0c-3-0.1-6.3-0.6-10.1-1.6c-1.4-0.3-2.8-0.7-4.2-1c-6.4-1.5-12.9-3.1-19.3-5.2
			c-9.7-3.2-19.6-6.9-29.7-11.1c-12.4-5.1-24.8-12-36.8-20.5c-10.7-7.6-19.7-15.5-27.4-24.2c-11.7-13.2-20.4-28-25.8-43.8
			c-1-3.1-0.5-6.6,1.5-9.5c2-2.9,5.2-4.7,8.5-4.8c1.3,0,2.5,0.1,3.7,0.1c1,0.1,1.9,0.1,2.8,0.1c3.5,0,7.1,0,10.6-0.1
			c9.5,0,19.3-0.1,28.8-0.5c9.8-0.4,19.4-1.6,28.3-2.8c13.4-1.8,25-4,35.6-6.8c12-3.2,22.7-6.2,33-10.9c7.1-3.3,14.2-8,22.3-14.9
			c2.9-2.4,5.7-4.9,8.5-7.4c3.3-2.9,6.7-5.8,10.1-8.7c8.4-7.1,16.1-11.2,24.3-13.1c6.3-1.5,13-0.9,19.7,1.7
			c14.5,5.6,23.6,15.9,27,30.5c1,4.5,1.4,9.1,1.7,13.6c0.1,2,0.3,4.1,0.5,6.1l0,0.3l0,0.3c-0.3,3-0.5,6-0.7,9
			c-0.5,6.7-1,13.6-2.1,20.4c-3.4,21.9-10,40.5-20.3,56.9c-12.6,20-30.3,33.8-52.5,41.2c-9.8,3.2-19.8,4.8-27.4,5.8
			C164.9,186.9,161.8,187.2,158.6,187.2z M14.3,71.6c-0.2,0-0.3,0-0.5,0c-1.5,0-2.9,0.9-3.8,2.2c-0.9,1.3-1.1,2.8-0.7,4.1
			C14.5,92.9,22.8,107,34,119.6c7.4,8.4,16.1,16,26.4,23.3c11.7,8.2,23.7,14.9,35.7,19.9c9.9,4.1,19.8,7.8,29.3,10.9
			c6.1,2,12.6,3.6,18.8,5.1c1.4,0.3,2.8,0.7,4.2,1c3.4,0.8,6.3,1.3,8.9,1.4c3.3,0.1,6.6-0.2,9.5-0.6c7.3-1,17-2.5,26.3-5.6
			c20.9-6.9,37.5-19.9,49.3-38.7c9.9-15.6,16.2-33.5,19.5-54.6c1-6.6,1.5-13.4,2-19.9c0.2-2.9,0.4-5.9,0.7-8.8c-0.2-2-0.4-4-0.5-6
			c-0.3-4.4-0.6-8.6-1.6-12.7c-2.9-12.6-10.8-21.4-23.3-26.3c-5.6-2.2-10.9-2.7-16.1-1.4c-7.3,1.7-14.2,5.5-21.8,11.9
			c-3.3,2.8-6.7,5.8-10,8.6c-2.8,2.4-5.7,5-8.6,7.4c-8.5,7.2-16,12.2-23.7,15.8c-10.7,4.9-21.7,8-34,11.2c-10.9,2.9-22.7,5.1-36.4,7
			c-9.1,1.2-18.8,2.4-28.8,2.8c-9.7,0.4-19.6,0.5-29.1,0.5c-3.5,0-7,0-10.6,0.1c-1.1,0-2.2-0.1-3.3-0.1C16,71.6,15.2,71.6,14.3,71.6
			z M157.5,171c-2.8,0-5.6-0.6-8.2-1.2c-0.7-0.2-1.5-0.3-2.2-0.5c-2.9-0.6-5.8-1.4-8.5-2.1l-1-0.3c-0.8-0.2-1.5-0.6-2-0.9
			c-0.2-0.1-0.5-0.3-0.7-0.4l-4.4-2.2l4-2.9c0.2-0.2,0.4-0.3,0.5-0.4c0.4-0.3,0.8-0.6,1.3-0.8c9.2-4.4,17.7-10,25.7-15.9
			c-5.4,1.6-11.3,3.2-18,4.6c-13.5,3-27.3,4.7-40.3,6.2c-1.4,0.2-3-0.1-4.2-0.8c-8.1-4.2-16.3-8.5-23.3-12.2
			c-0.7-0.4-1.3-0.9-1.7-1.2c-0.1-0.1-0.3-0.2-0.4-0.3l-1.3-1l0.4-4.6l2.4-0.3c7.8-1,15.7-2.7,24.5-5.4c-2.5,0.1-5,0.2-7.6,0.2
			c-8.8,0-17.6-0.2-26.2-0.5c-2.3-0.1-4.5-0.1-6.8-0.2c-1.5,0-3.2-0.7-4.4-1.7c-2.6-2.2-5.1-4.5-7.4-6.7c-0.8-0.7-1.1-1.6-1.3-2.1
			c0-0.1-0.1-0.2-0.1-0.3l-1.4-2.8l2.8-1.3c0.1,0,0.2-0.1,0.3-0.1c0.4-0.2,1-0.5,1.7-0.7c2-0.4,4-0.8,6-1.2c4-0.8,8.1-1.6,12.1-2.7
			c1.3-0.4,2.7-0.8,4-1.2c-11.3,0.3-22.1,0.2-32.8-0.6c-1.8-0.1-3.8-1.2-4.7-2.6c-2.9-4.3-5.6-8.6-8.2-12.8c-1.1-1.9-1.3-4-0.4-5.8
			c0.9-1.9,2.8-3.1,5.1-3.3c0.6-0.1,1.2-0.1,1.7-0.1c0.2,0,0.5,0,0.7,0c2.6-0.1,5.2-0.1,7.7-0.2c5.9-0.2,12.1-0.3,18.1-0.5
			c13.8-0.5,27.4-2.3,38.9-4c15.6-2.3,30.7-5.7,44.6-10.2c14.4-4.6,26.8-10,37.9-16.6c3.4-2,6.8-2,10.5,0
			c15.1,8.3,31.4,16.8,48.3,23.6c0.6,0.2,1.1,0.4,1.7,0.6c0.7,0.3,1.4,0.5,2.1,0.8c5.4,2.2,6,6.1,5.5,9c-1.1,6.8-2.4,14.5-4.4,22
			c-2.7,10.6-7.4,20.6-14.1,29.9c-10.5,14.5-25.1,24.7-43.3,30.1c-9.6,2.9-19.4,4.4-29,4.5C157.7,171,157.6,171,157.5,171z
			 M143.6,162.3c1.6,0.4,3.2,0.8,4.7,1.1c0.8,0.2,1.5,0.3,2.3,0.5c2.5,0.6,4.9,1.1,7.1,1.1c9.1-0.2,18.4-1.6,27.4-4.3
			c17.2-5.1,30.4-14.2,40.2-27.9c6.2-8.6,10.6-18,13.2-27.9c1.8-7.3,3.1-14.9,4.3-21.5c0.2-0.9,0.3-1.6-1.9-2.4
			c-0.6-0.2-1.2-0.5-1.8-0.7c-0.6-0.2-1.3-0.5-1.9-0.7c-17.2-6.9-33.7-15.6-49-23.9c-1.8-1-2.9-1-4.5-0.1
			c-11.5,6.8-24.3,12.4-39.1,17.1c-14.3,4.5-29.6,8-45.6,10.4c-11.7,1.7-25.6,3.6-39.6,4.1c-6.1,0.2-12.2,0.4-18.2,0.5
			c-2.6,0.1-5.2,0.1-7.7,0.2c-0.3,0-0.6,0-0.9,0c-0.4,0-0.8,0-1.1,0c-0.1,0-0.1,0-0.2,0c2.5,4.1,5.2,8.3,7.9,12.4
			c0.1,0.1,0.2,0.1,0.3,0.1c15.5,1.1,31.6,0.9,48.9-0.3c0.8-0.1,1.5,0.1,1.9,0.3l0.2,0l4.7,1.2l-3.1,3.7c-1,1.1-2.1,1.9-3.5,2.4
			c-1.8,0.6-3.6,1.2-5.3,1.8c-4.5,1.6-9.2,3.2-13.9,4.5c-4.1,1.1-8.4,2-12.5,2.8c-0.9,0.2-1.7,0.3-2.6,0.5c1.5,1.4,3.1,2.9,4.7,4.2
			c0.1,0.1,0.5,0.3,0.7,0.3c2.3,0.1,4.5,0.1,6.8,0.2c8.5,0.2,17.4,0.5,26,0.5c5.2,0,10.6-0.3,15.8-0.6c2.5-0.1,5-0.3,7.6-0.4
			c0.6,0,1.2,0,1.6,0.1c0.1,0,0.3,0,0.4,0l2.4,0.2l0.7,5.4l-2.2,0.8c-13.3,5.2-24.4,8.5-34.9,10.4c5.8,3,12.1,6.4,18.4,9.6
			c0.2,0.1,0.6,0.2,0.8,0.2c12.8-1.5,26.5-3.2,39.7-6.1c11.2-2.4,20.1-5,28-8.1c1.2-0.5,2.4-0.2,3.1-0.1c0.1,0,0.3,0.1,0.4,0.1
			l4.5,0.5l-2.2,4c-0.1,0.1-0.1,0.2-0.2,0.3c-0.3,0.6-0.7,1.6-1.6,2.3C165.3,148.6,155,156.2,143.6,162.3z"/>
	</g>
</g>
</svg>
