<?xml version="1.0" encoding="utf-8"?>
<!-- Generator: Adobe Illustrator 26.3.1, SVG Export Plug-In . SVG Version: 6.00 Build 0)  -->
<svg version="1.1" id="Layer_1" xmlns="http://www.w3.org/2000/svg" xmlns:xlink="http://www.w3.org/1999/xlink" x="0px" y="0px"
	 viewBox="0 0 253.7 46.2" style="enable-background:new 0 0 253.7 46.2;" xml:space="preserve">
<style type="text/css">
	.st0{fill:#79BB02;}
	.st1{fill:#004A2E;}
</style>
<g>
	<g>
		<path class="st0" d="M66.6,12.7c-0.2,2.5-0.3,5-0.7,7.4c-0.8,5-2.3,9.8-5.1,14.2c-3.1,4.9-7.4,8.3-13,10.2
			c-2.2,0.7-4.5,1.1-6.8,1.5c-0.8,0.1-1.7,0.2-2.5,0.2c-0.8,0-1.6-0.2-2.4-0.4c-2-0.5-4-0.9-5.9-1.6c-2.5-0.8-5-1.8-7.5-2.8
			c-3.3-1.3-6.3-3.1-9.2-5.1c-2.5-1.8-4.8-3.8-6.9-6c-2.9-3.2-5-6.8-6.4-10.9c-0.4-1.2,0.6-2.6,1.8-2.6c0.5,0,1.1,0.1,1.6,0.1
			c3.4,0,6.7,0,10.1-0.1c2.4-0.1,4.9-0.4,7.3-0.7c3.1-0.4,6.2-1,9.2-1.8c2.9-0.8,5.8-1.6,8.5-2.8c2.2-1,4.1-2.4,5.9-3.9
			c1.6-1.3,3.1-2.7,4.7-4.1c1.7-1.5,3.6-2.7,5.9-3.2c1.5-0.4,3.1-0.2,4.6,0.4C63,1.9,65.2,4.3,66,7.8C66.4,9.4,66.4,11.1,66.6,12.7z
			 M17.8,34c0,0.1,0,0.1,0,0.2c0.1,0.1,0.3,0.2,0.4,0.3c2,1,3.9,2.1,5.9,3.1c0.2,0.1,0.4,0.1,0.6,0.1c3.4-0.4,6.8-0.8,10.2-1.6
			c2.5-0.5,4.9-1.2,7.2-2.1c0.2-0.1,0.4,0,0.5,0c-0.1,0.1-0.1,0.3-0.3,0.4c-2.8,2.2-5.7,4.4-9,5.9c-0.1,0-0.2,0.1-0.3,0.2
			c0.2,0.1,0.4,0.2,0.6,0.3c0.8,0.2,1.6,0.4,2.4,0.6c0.8,0.2,1.7,0.4,2.6,0.4c2.4,0,4.8-0.4,7.2-1.1c4.4-1.3,8-3.7,10.6-7.4
			c1.6-2.2,2.8-4.7,3.5-7.4c0.5-1.8,0.8-3.7,1.1-5.5c0.1-0.7-0.2-1.2-0.9-1.5c-0.3-0.1-0.6-0.2-1-0.4c-4.3-1.7-8.4-3.9-12.4-6.1
			c-0.7-0.4-1.2-0.4-1.9,0c-3.1,1.8-6.4,3.2-9.8,4.3c-3.8,1.2-7.6,2-11.5,2.6c-3.3,0.5-6.6,0.9-10,1c-2.2,0.1-4.4,0.1-6.6,0.2
			c-0.2,0-0.4,0-0.6,0c-0.7,0.1-1,0.6-0.6,1.2c0.7,1.1,1.4,2.2,2.1,3.2c0.1,0.2,0.4,0.3,0.6,0.3c4.2,0.3,8.4,0.2,12.6-0.1
			c0.1,0,0.2,0,0.3,0.1c-0.2,0.2-0.4,0.3-0.6,0.4c-1.6,0.5-3.2,1.1-4.9,1.6c-1.5,0.4-3.1,0.7-4.6,1c-0.1,0-0.2,0.1-0.4,0.2
			c0.1,0.1,0.1,0.3,0.2,0.4c0.6,0.6,1.2,1.1,1.9,1.7c0.2,0.1,0.4,0.2,0.6,0.2c2.8,0.1,5.6,0.2,8.4,0.2c2,0,4-0.2,6-0.3
			c0.1,0,0.3,0,0.4,0c0,0.1,0,0.1,0,0.2C24.9,32.5,21.4,33.6,17.8,34z"/>
	</g>
	<g>
		<path class="st1" d="M79.1,37.4l0.5-3.7c1.6-0.1,3.2-1,3.6-3.6l2-14.5c0.4-2.6-1-3.4-2.5-3.6l0.5-3.7h16.8
			c8.9,0,13.9,4.4,13.9,12.4c0,9.8-7.2,16.6-17.4,16.6H79.1z M103.6,19.8c0-5.1-1.5-7.2-5.2-7.2c-2.1,0-3.2,0.8-3.5,2.7l-2.2,15.4
			c-0.3,1.9,0.6,2.7,2.7,2.7C100.1,33.2,103.6,27.5,103.6,19.8z"/>
		<path class="st1" d="M116.9,29.9l1.1-6.2c0.3-1.5-0.3-2.1-1.9-2.4l0.5-3.7l10.9-1.8l0.4,0.4l-2,13.1c-0.3,2.1,0.1,3,1.2,3
			c2.1,0,4.1-3.4,5.1-9.9l0.7-5.1l8.7-1.6l0.4,0.4l-2.1,14.6c-0.1,0.7,0.1,1.1,0.8,1.1c0.4,0,0.9-0.2,1.5-0.6l1.1,3.5
			c-1.6,1.4-4.7,2.9-7.8,2.9c-2.8,0-4.4-1.4-4.4-3.7c0-0.6,0-0.8,0-1.1H131c-1.7,3.1-4.4,4.9-8,4.9C118,37.8,116,34.9,116.9,29.9z"
			/>
		<path class="st1" d="M144.8,33.3c0-1.7,1.4-3,3.1-3c3,0,3.2,3.9,7.4,3.9c1.9,0,2.7-0.8,2.7-1.7c0-1.2-1.5-1.6-3.4-2.2
			c-3.3-1-7.6-2.1-7.6-6.6c0-4.9,4.9-8,11.1-8c4.1,0,8.4,1.4,8.3,4.1c-0.1,1.7-1.4,2.8-3,2.8c-2.9,0-3-3.3-6-3.3
			c-1.4,0-2.2,0.7-2.2,1.7c0,1.7,2.4,2.1,4.8,2.8c2.7,0.8,6.2,1.8,6.2,5.7c0,4.8-4.9,8.3-12.1,8.3C149.5,37.8,144.8,36.4,144.8,33.3
			z"/>
		<path class="st1" d="M183.7,30.2l2.7,2.3c-1.7,2.8-5,5.3-9.8,5.3c-4.9,0-7.4-2.8-6.7-7.5l1.4-9.6h-3.1l0.6-4.1
			c5.4,0,7.2-3.2,8.2-7.4h5l-1,7h6.1l-0.6,4.6h-6.1l-1.1,8.1c-0.3,2.5,0.1,3.4,1.5,3.4C181.6,32.3,182.8,31.4,183.7,30.2z"/>
		<path class="st0" d="M218.7,8.4h13.2l-0.5,3.7c-1.7,0.1-3.2,1-3.6,3.6l-2,14.5c-0.4,2.6,0.9,3.4,2.5,3.6l-0.5,3.7h-15.7l0.5-3.7
			c1.6-0.1,3.2-1,3.6-3.6l1.7-11.9l-9.4,15.1h-5.9l-5.2-15l-1.7,11.8c-0.4,2.6,0.9,3.4,2.5,3.6l-0.5,3.7h-10.7l0.5-3.7
			c1.6-0.1,3.2-1,3.6-3.6l2-14.5c0.4-2.6-1-3.4-2.5-3.6l0.5-3.7H204l5.3,14.9L218.7,8.4z"/>
		<path class="st0" d="M250.6,30l2.1,2.7c-3.3,4-7.7,5-11.3,5c-6.6,0-10.2-3.6-10.2-8.9c0-6.4,5.2-13.1,14-13.1
			c5.2,0,8.5,2.4,8.5,5.9c0,4.8-6.2,7.4-13.1,7.6c0.5,2,1.8,3.4,4.1,3.4C247.1,32.7,249.3,31.1,250.6,30z M240.3,26.3
			c4.4-0.6,6.1-3.4,6.1-5.3c0-1.1-0.8-1.8-1.9-1.8C242,19.2,240.5,22.8,240.3,26.3z"/>
	</g>
</g>
<g>
</g>
<g>
</g>
<g>
</g>
<g>
</g>
<g>
</g>
<g>
</g>
<g>
</g>
<g>
</g>
<g>
</g>
<g>
</g>
<g>
</g>
<g>
</g>
<g>
</g>
<g>
</g>
<g>
</g>
</svg>
