<?xml version="1.0" encoding="utf-8"?>
<!-- Generator: Adobe Illustrator 26.3.1, SVG Export Plug-In . SVG Version: 6.00 Build 0)  -->
<svg version="1.1" id="Layer_1" xmlns="http://www.w3.org/2000/svg" xmlns:xlink="http://www.w3.org/1999/xlink" x="0px" y="0px"
	 viewBox="0 0 1001.9 187.2" style="enable-background:new 0 0 1001.9 187.2;" xml:space="preserve">
<style type="text/css">
	.st0{opacity:0.29;}
	.st1{fill:#FFFFFF;}
</style>
<g class="st0">
	<g>
		<g>
			<path class="st1" d="M155.5,187.2c-0.5,0-1.1,0-1.6,0c-3-0.1-6.3-0.6-10.1-1.6c-1.4-0.3-2.8-0.7-4.2-1
				c-6.4-1.5-12.9-3.1-19.3-5.2c-9.7-3.2-19.6-6.9-29.7-11.1c-12.4-5.1-24.8-12-36.8-20.5c-10.7-7.6-19.7-15.5-27.4-24.2
				c-11.7-13.2-20.4-28-25.8-43.8c-1-3.1-0.5-6.6,1.5-9.5c2-2.9,5.2-4.7,8.5-4.8c1.3,0,2.5,0.1,3.7,0.1c1,0.1,1.9,0.1,2.8,0.1
				c3.5,0,7.1,0,10.6-0.1c9.5,0,19.3-0.1,28.8-0.5c9.8-0.4,19.4-1.6,28.3-2.8c13.4-1.8,25-4,35.6-6.8c12-3.2,22.7-6.2,33-10.9
				c7.1-3.3,14.2-8,22.3-14.9c2.9-2.4,5.7-4.9,8.5-7.4c3.3-2.9,6.7-5.8,10.1-8.7c8.4-7.1,16.1-11.2,24.3-13.1
				c6.3-1.5,13-0.9,19.7,1.7c14.5,5.6,23.6,15.9,27,30.5c1,4.5,1.4,9.1,1.7,13.6c0.1,2,0.3,4.1,0.5,6.1l0,0.3l0,0.3
				c-0.3,3-0.5,6-0.7,9c-0.5,6.7-1,13.6-2.1,20.4c-3.4,21.9-10,40.5-20.3,56.9c-12.6,20-30.3,33.8-52.5,41.2
				c-9.8,3.2-19.8,4.8-27.4,5.8C161.7,186.9,158.6,187.2,155.5,187.2z M11.2,71.6c-0.2,0-0.3,0-0.5,0c-1.5,0-2.9,0.9-3.8,2.2
				C6,75,5.8,76.6,6.2,77.9c5.1,15.1,13.4,29.1,24.6,41.8c7.4,8.4,16.1,16,26.4,23.3c11.7,8.2,23.7,14.9,35.7,19.9
				c9.9,4.1,19.8,7.8,29.3,10.9c6.1,2,12.6,3.6,18.8,5.1c1.4,0.3,2.8,0.7,4.2,1c3.4,0.8,6.3,1.3,8.9,1.4c3.3,0.1,6.6-0.2,9.5-0.6
				c7.3-1,17-2.5,26.3-5.6c20.9-6.9,37.5-19.9,49.3-38.7c9.9-15.6,16.2-33.5,19.5-54.6c1-6.6,1.5-13.4,2-19.9
				c0.2-2.9,0.4-5.9,0.7-8.8c-0.2-2-0.4-4-0.5-6c-0.3-4.4-0.6-8.6-1.6-12.7c-2.9-12.6-10.8-21.4-23.3-26.3
				c-5.6-2.2-10.9-2.7-16.1-1.4c-7.3,1.7-14.2,5.5-21.8,11.9c-3.3,2.8-6.7,5.8-10,8.6c-2.8,2.4-5.7,5-8.6,7.4
				c-8.5,7.2-16,12.2-23.7,15.8c-10.7,4.9-21.7,8-34,11.2c-10.9,2.9-22.7,5.1-36.4,7c-9.1,1.2-18.8,2.4-28.8,2.8
				c-9.7,0.4-19.6,0.5-29.1,0.5c-3.5,0-7,0-10.6,0.1c-1.1,0-2.2-0.1-3.3-0.1C12.9,71.6,12,71.6,11.2,71.6z M154.3,171
				c-2.8,0-5.6-0.6-8.2-1.2c-0.7-0.2-1.5-0.3-2.2-0.5c-2.9-0.6-5.8-1.4-8.5-2.1l-1-0.3c-0.8-0.2-1.5-0.6-2-0.9
				c-0.2-0.1-0.5-0.3-0.7-0.4l-4.4-2.2l4-2.9c0.2-0.2,0.4-0.3,0.5-0.4c0.4-0.3,0.8-0.6,1.3-0.8c9.2-4.4,17.7-10,25.7-15.9
				c-5.4,1.6-11.3,3.2-18,4.6c-13.5,3-27.3,4.7-40.3,6.2c-1.4,0.2-3-0.1-4.2-0.8c-8.1-4.2-16.3-8.5-23.3-12.2
				c-0.7-0.4-1.3-0.9-1.7-1.2c-0.1-0.1-0.3-0.2-0.4-0.3l-1.3-1l0.4-4.6l2.4-0.3c7.8-1,15.7-2.7,24.5-5.4c-2.5,0.1-5,0.2-7.6,0.2
				c-8.8,0-17.6-0.2-26.2-0.5c-2.3-0.1-4.5-0.1-6.8-0.2c-1.5,0-3.2-0.7-4.4-1.7c-2.6-2.2-5.1-4.5-7.4-6.7c-0.8-0.7-1.1-1.6-1.3-2.1
				c0-0.1-0.1-0.2-0.1-0.3l-1.4-2.8l2.8-1.3c0.1,0,0.2-0.1,0.3-0.1c0.4-0.2,1-0.5,1.7-0.7c2-0.4,4-0.8,6-1.2c4-0.8,8.1-1.6,12.1-2.7
				c1.3-0.4,2.7-0.8,4-1.2c-11.3,0.3-22.1,0.2-32.8-0.6c-1.8-0.1-3.8-1.2-4.7-2.6c-2.9-4.3-5.6-8.6-8.2-12.8c-1.1-1.9-1.3-4-0.4-5.8
				c0.9-1.9,2.8-3.1,5.1-3.3c0.6-0.1,1.2-0.1,1.7-0.1c0.2,0,0.5,0,0.7,0c2.6-0.1,5.2-0.1,7.7-0.2c5.9-0.2,12.1-0.3,18.1-0.5
				c13.8-0.5,27.4-2.3,38.9-4c15.6-2.3,30.7-5.7,44.6-10.2c14.4-4.6,26.8-10,37.9-16.6c3.4-2,6.8-2,10.5,0
				c15.1,8.3,31.4,16.8,48.3,23.6c0.6,0.2,1.1,0.4,1.7,0.6c0.7,0.3,1.4,0.5,2.1,0.8c5.4,2.2,6,6.1,5.5,9c-1.1,6.8-2.4,14.5-4.4,22
				c-2.7,10.6-7.4,20.6-14.1,29.9c-10.5,14.5-25.1,24.7-43.3,30.1c-9.6,2.9-19.4,4.4-29,4.5C154.5,171,154.4,171,154.3,171z
				 M140.4,162.3c1.6,0.4,3.2,0.8,4.7,1.1c0.8,0.2,1.5,0.3,2.3,0.5c2.5,0.6,4.9,1.1,7.1,1.1c9.1-0.2,18.4-1.6,27.4-4.3
				c17.2-5.1,30.4-14.2,40.2-27.9c6.2-8.6,10.6-18,13.2-27.9c1.8-7.3,3.1-14.9,4.3-21.5c0.2-0.9,0.3-1.6-1.9-2.4
				c-0.6-0.2-1.2-0.5-1.8-0.7c-0.6-0.2-1.3-0.5-1.9-0.7c-17.2-6.9-33.7-15.6-49-23.9c-1.8-1-2.9-1-4.5-0.1
				c-11.5,6.8-24.3,12.4-39.1,17.1c-14.3,4.5-29.6,8-45.6,10.4c-11.7,1.7-25.6,3.6-39.6,4.1c-6.1,0.2-12.2,0.4-18.2,0.5
				c-2.6,0.1-5.2,0.1-7.7,0.2c-0.3,0-0.6,0-0.9,0c-0.4,0-0.8,0-1.1,0c-0.1,0-0.1,0-0.2,0c2.5,4.1,5.2,8.3,7.9,12.4
				c0.1,0.1,0.2,0.1,0.3,0.1c15.5,1.1,31.6,0.9,48.9-0.3c0.8-0.1,1.5,0.1,1.9,0.3l0.2,0l4.7,1.2l-3.1,3.7c-1,1.1-2.1,1.9-3.5,2.4
				c-1.8,0.6-3.6,1.2-5.3,1.8c-4.5,1.6-9.2,3.2-13.9,4.5c-4.1,1.1-8.4,2-12.5,2.8c-0.9,0.2-1.7,0.3-2.6,0.5c1.5,1.4,3.1,2.9,4.7,4.2
				c0.1,0.1,0.5,0.3,0.7,0.3c2.3,0.1,4.5,0.1,6.8,0.2c8.5,0.2,17.4,0.5,26,0.5c5.2,0,10.6-0.3,15.8-0.6c2.5-0.1,5-0.3,7.6-0.4
				c0.6,0,1.2,0,1.6,0.1c0.1,0,0.3,0,0.4,0l2.4,0.2l0.7,5.4l-2.2,0.8c-13.3,5.2-24.4,8.5-34.9,10.4c5.8,3,12.1,6.4,18.4,9.6
				c0.2,0.1,0.6,0.2,0.8,0.2c12.8-1.5,26.5-3.2,39.7-6.1c11.2-2.4,20.1-5,28-8.1c1.2-0.5,2.4-0.2,3.1-0.1c0.1,0,0.3,0.1,0.4,0.1
				l4.5,0.5l-2.2,4c-0.1,0.1-0.1,0.2-0.2,0.3c-0.3,0.6-0.7,1.6-1.6,2.3C162.1,148.6,151.8,156.2,140.4,162.3z"/>
		</g>
	</g>
	<g>
		<g>
			<path class="st1" d="M381.3,152.7h-71.4l2.8-20.3l2.4-0.2c6.5-0.5,10.2-4.2,11.2-11.4l8-57c0.5-3.6,0.1-6.3-1.2-8
				c-1.2-1.5-3.2-2.3-6-2.6l-3.2-0.3l2.8-20.2h68.4c36.7,0,57.7,18.8,57.7,51.7C452.8,124.7,423.4,152.7,381.3,152.7z M316.8,146.7
				h64.5c38.5,0,65.5-25.6,65.5-62.1c0-29.5-18.4-45.7-51.7-45.7h-63.2l-1.2,9c3,0.7,5.4,2.2,7.1,4.3c2.4,3,3.2,7.3,2.5,12.6l-8,57
				c-1.3,9-6.4,14.7-14.3,16.2L316.8,146.7z M377.5,136.4c-5.4,0-9.1-1.3-11.4-3.9c-2.1-2.4-2.8-5.7-2.2-10l8.5-60.3
				c1.2-8.8,6.6-13.1,16.6-13.1c20.9,0,23.6,16.8,23.6,31.4C412.6,112.9,397.8,136.4,377.5,136.4z M389,55.1c-8,0-10,3.1-10.7,7.9
				l-8.5,60.4c-0.3,2.5-0.1,4.3,0.8,5.2c1.1,1.2,3.4,1.8,6.9,1.8c16.6,0,29.1-21.4,29.1-49.9C406.6,59.4,399.8,55.1,389,55.1z"/>
		</g>
		<g>
			<path class="st1" d="M535.2,154.4c-11,0-18.3-5.2-19.9-13.8c-7.3,9-17.4,13.8-29.6,13.8c-10,0-17.4-2.8-22.1-8.4
				c-5.1-6-6.7-14.8-4.8-26.2l0,0l4.2-24.4c0.6-3.5,0.3-4.9-4.9-5.9l-2.8-0.5l2.7-19.5l46.4-7.8l3.8,3.8l-8,53
				c-0.9,5.9,0,7.6,0.3,7.9c0.1,0.1,0.4,0.4,1.4,0.4c5.7,0,13.4-11.3,17-36.2l3.1-22.1l37.7-7l3.8,3.8l-8.4,59c-0.1,0.5,0,0.9,0,1
				c0.1,0,0.2,0,0.4,0c0.5,0,1.9-0.2,4.3-1.8l3.3-2.2l6.3,19.2l-1.4,1.3C561.6,148,548.6,154.4,535.2,154.4z M515.5,129.2h6
				l-0.4,3.3c-0.1,1.3-0.1,2-0.1,4.2c0,10.1,9,11.6,14.3,11.6c10.4,0,21.1-4.6,27.3-9.4l-2.7-8.3c-1.5,0.6-2.9,1-4.3,1
				c-2.1,0-3.7-0.7-4.9-1.9c-1.2-1.4-1.7-3.3-1.4-5.9l7.9-55.5l-29.8,5.5l-2.5,17.8c-3.7,25.9-12.3,41.3-22.9,41.3
				c-3.1,0-5-1.4-5.9-2.5c-2.1-2.5-2.7-6.6-1.7-12.8l7.5-49.4l-38.4,6.4l-1.3,9.6c4.4,1.4,8.3,4.3,6.9,12.1l-4.2,24.4
				c-1.6,9.5-0.4,16.7,3.4,21.3c3.5,4.2,9.4,6.3,17.5,6.3c12.8,0,22.6-5.9,28.9-17.6L515.5,129.2z M555.2,125.8
				C555.2,125.8,555.2,125.8,555.2,125.8C555.2,125.8,555.2,125.8,555.2,125.8z"/>
		</g>
		<g>
			<path class="st1" d="M608,154.4c-19.7,0-39.6-6.4-39.6-20.8c0-8.2,6.6-14.6,15.1-14.6c6.8,0,10.7,4.1,14.2,7.7
				c3.8,4,7.3,7.7,14.9,7.7c1.8,0,7.5-0.3,7.5-3.6c0-2.4-5.4-3.9-11-5.6l-1.3-0.4c-13-3.8-30.9-9-30.9-28.6
				c0-20.2,19.1-34.2,46.5-34.2c11,0,25,2.5,31.7,9.5c2.7,2.8,4,6.2,3.8,9.7c-0.4,7.9-6.7,13.7-15,13.7c-7,0-10.8-4.1-13.9-7.3
				c-2.8-3-5.1-5.4-9.5-5.4c-2.6,0-5.6,0.9-5.6,3.5c0,3.2,5.2,4.8,13.1,7.1c1.2,0.3,2.4,0.7,3.6,1c9.9,2.8,26.6,7.5,26.6,25.3
				C658.4,139.8,637.7,154.4,608,154.4z M583.6,124.9c-5.1,0-9.1,3.8-9.1,8.6c0,9.7,16.9,14.8,33.6,14.8c26.1,0,44.4-12.1,44.4-29.4
				c0-12.3-10.1-16.1-22.2-19.5c-1.2-0.4-2.4-0.7-3.6-1C617.9,96,609,93.5,609,85.5c0-5.6,4.8-9.5,11.6-9.5c7,0,10.8,4.1,13.9,7.3
				c2.8,3,5.1,5.4,9.5,5.4c5,0,8.7-3.3,9-8c0.1-1.9-0.6-3.7-2.2-5.3c-4.4-4.7-15.2-7.7-27.4-7.7c-23.9,0-40.5,11.6-40.5,28.2
				c0,14.1,11,18.4,26.6,22.9l1.2,0.3c8,2.3,15.5,4.5,15.5,11.4c0,4.7-3.5,9.6-13.5,9.6c-10.2,0-15.2-5.3-19.3-9.6
				C589.8,127.1,587.6,124.9,583.6,124.9z"/>
		</g>
		<g>
			<path class="st1" d="M696.4,154.4c-10.5,0-18.8-3.1-24-9.1c-5-5.7-6.8-13.9-5.4-23.6l4.8-34.1h-12.3l3-22.3l2.6,0
				c18.9-0.1,25.3-10.8,29.2-26.8l0.6-2.3h25.3l-3.8,27.4h24.1l-3.3,23.9H713l-4.1,29.2c-0.9,6.5,0,8.7,0.6,9.3
				c0.2,0.2,0.6,0.7,2.3,0.7c3,0,6.8-2.6,10-7.1l1.9-2.6l15,12.9l-1.3,2.2C728.8,146.1,713.5,154.4,696.4,154.4z M666.4,81.5h12.3
				l-5.8,41c-1.2,7.9,0.2,14.4,4,18.8c4,4.6,10.7,7,19.4,7c19.3,0,29.8-10.8,34.4-17.2l-6.3-5.4c-4,4.5-8.5,7-12.9,7
				c-2.9,0-5.2-0.9-6.8-2.7c-2.4-2.7-3-7.1-2-14.1l4.9-34.3h24.1l1.7-11.9h-24.1l3.8-27.4h-13.7c-3.7,14.1-10.8,27.8-31.8,29
				L666.4,81.5z"/>
		</g>
		<g>
			<path class="st1" d="M900.1,152.7h-67.7l2.8-20.3l2.4-0.2c6.5-0.5,10.2-4.2,11.2-11.4l4.6-32.5l-30.1,48.5h-26.9l-17.2-49.2
				l-4.8,34.1c-0.5,3.7-0.1,6.4,1.2,8c1.2,1.5,3.2,2.3,6,2.5l3.2,0.2l-2.8,20.2H734l2.8-20.3l2.4-0.2c6.5-0.5,10.2-4.2,11.2-11.4
				l8-57c0.5-3.6,0.1-6.3-1.2-8c-1.2-1.5-3.2-2.3-6-2.6L748,53l2.8-20.2h55.3l19.6,54.8l34.2-54.8h57.1l-2.8,20.3l-2.4,0.2
				c-6.6,0.5-10.1,4.1-11.2,11.4l-8,57c-0.5,3.7-0.1,6.4,1.2,8c1.2,1.5,3.2,2.3,6,2.5l3.2,0.2L900.1,152.7z M839.3,146.7h55.6l1.2-9
				c-3-0.7-5.4-2.2-7.1-4.3c-2.4-3-3.2-7.3-2.4-12.6l8-57c1.7-11.2,8.2-15.1,14.3-16.2l1.2-8.8h-46.9l-39,62.5l-22.3-62.5H756
				l-1.2,9c3,0.7,5.4,2.2,7.1,4.3c2.4,3,3.2,7.3,2.5,12.6l-8,57c-1.3,9-6.4,14.7-14.3,16.2l-1.2,8.8h36l1.2-9
				c-3-0.7-5.4-2.2-7.1-4.3c-2.4-3-3.2-7.3-2.4-12.6l8.2-58.6l24,68.5h19.3l43.4-69.9l-8.7,60.8c-1.3,9-6.4,14.7-14.3,16.2
				L839.3,146.7z"/>
		</g>
		<g>
			<path class="st1" d="M950.7,154.4c-26.6,0-43.1-14.6-43.1-38.1c0-26.7,21.7-54.4,58-54.4c22,0,36.2,10.2,36.2,26.1
				c0,18-19.6,30.6-50.4,32.7c2.3,5,6.4,7.5,12.2,7.5c6.5,0,13.7-3.2,21.3-9.6l2.4-2l11.5,15l-1.5,1.8
				C982.9,150.7,964,154.4,950.7,154.4z M965.7,67.9c-25.6,0-52,18.1-52,48.4c0,20.1,13.9,32.1,37.1,32.1c11.5,0,27.7-3,40.5-16.9
				l-4.8-6.3c-7.9,6-15.5,9.1-22.7,9.1c-9.9,0-16.7-5.5-19.2-15.6l-0.9-3.6l3.7-0.1c24.2-0.9,48.6-9.6,48.6-26.9
				C995.9,75.8,984,67.9,965.7,67.9z M943.2,109.7l0.2-3.6c0.4-7.7,2.2-15,5.2-20.6c3.6-6.7,8.7-10.4,14.4-10.4
				c6.1,0,10.3,4.2,10.3,10.1c0,9.9-8.3,21.7-26.6,23.9L943.2,109.7z M963,81.2c-7,0-11.9,10.4-13.3,21.5
				c13.8-3.1,17.6-12.4,17.6-17.3C967.3,81.9,965,81.2,963,81.2z"/>
		</g>
	</g>
</g>
</svg>
