<?xml version="1.0" encoding="UTF-8" standalone="no"?>
<!DOCTYPE svg PUBLIC "-//W3C//DTD SVG 1.1//EN" "http://www.w3.org/Graphics/SVG/1.1/DTD/svg11.dtd">
<svg width="100%" height="100%" viewBox="0 0 370 257" version="1.1" xmlns="http://www.w3.org/2000/svg" xmlns:xlink="http://www.w3.org/1999/xlink" xml:space="preserve" xmlns:serif="http://www.serif.com/" style="fill-rule:evenodd;clip-rule:evenodd;stroke-linejoin:round;stroke-miterlimit:2;">
    <g transform="matrix(5.555556,0,0,5.555556,-0.613444,-0.510535)">
        <g>
            <g>
                <path d="M66.6,12.7C66.4,15.2 66.3,17.7 65.9,20.1C65.1,25.1 63.6,29.9 60.8,34.3C57.7,39.2 53.4,42.6 47.8,44.5C45.6,45.2 43.3,45.6 41,46C40.2,46.1 39.3,46.2 38.5,46.2C37.7,46.2 36.9,46 36.1,45.8C34.1,45.3 32.1,44.9 30.2,44.2C27.7,43.4 25.2,42.4 22.7,41.4C19.4,40.1 16.4,38.3 13.5,36.3C11,34.5 8.7,32.5 6.6,30.3C3.7,27.1 1.6,23.5 0.2,19.4C-0.2,18.2 0.8,16.8 2,16.8C2.5,16.8 3.1,16.9 3.6,16.9C7,16.9 10.3,16.9 13.7,16.8C16.1,16.7 18.6,16.4 21,16.1C24.1,15.7 27.2,15.1 30.2,14.3C33.1,13.5 36,12.7 38.7,11.5C40.9,10.5 42.8,9.1 44.6,7.6C46.2,6.3 47.7,4.9 49.3,3.5C51,2 52.9,0.8 55.2,0.3C56.7,-0.1 58.3,0.1 59.8,0.7C63,1.9 65.2,4.3 66,7.8C66.4,9.4 66.4,11.1 66.6,12.7ZM17.8,34L17.8,34.2C17.9,34.3 18.1,34.4 18.2,34.5C20.2,35.5 22.1,36.6 24.1,37.6C24.3,37.7 24.5,37.7 24.7,37.7C28.1,37.3 31.5,36.9 34.9,36.1C37.4,35.6 39.8,34.9 42.1,34C42.3,33.9 42.5,34 42.6,34C42.5,34.1 42.5,34.3 42.3,34.4C39.5,36.6 36.6,38.8 33.3,40.3C33.2,40.3 33.1,40.4 33,40.5C33.2,40.6 33.4,40.7 33.6,40.8C34.4,41 35.2,41.2 36,41.4C36.8,41.6 37.7,41.8 38.6,41.8C41,41.8 43.4,41.4 45.8,40.7C50.2,39.4 53.8,37 56.4,33.3C58,31.1 59.2,28.6 59.9,25.9C60.4,24.1 60.7,22.2 61,20.4C61.1,19.7 60.8,19.2 60.1,18.9C59.8,18.8 59.5,18.7 59.1,18.5C54.8,16.8 50.7,14.6 46.7,12.4C46,12 45.5,12 44.8,12.4C41.7,14.2 38.4,15.6 35,16.7C31.2,17.9 27.4,18.7 23.5,19.3C20.2,19.8 16.9,20.2 13.5,20.3C11.3,20.4 9.1,20.4 6.9,20.5L6.3,20.5C5.6,20.6 5.3,21.1 5.7,21.7C6.4,22.8 7.1,23.9 7.8,24.9C7.9,25.1 8.2,25.2 8.4,25.2C12.6,25.5 16.8,25.4 21,25.1C21.1,25.1 21.2,25.1 21.3,25.2C21.1,25.4 20.9,25.5 20.7,25.6C19.1,26.1 17.5,26.7 15.8,27.2C14.3,27.6 12.7,27.9 11.2,28.2C11.1,28.2 11,28.3 10.8,28.4C10.9,28.5 10.9,28.7 11,28.8C11.6,29.4 12.2,29.9 12.9,30.5C13.1,30.6 13.3,30.7 13.5,30.7C16.3,30.8 19.1,30.9 21.9,30.9C23.9,30.9 25.9,30.7 27.9,30.6L28.3,30.6L28.3,30.8C24.9,32.5 21.4,33.6 17.8,34Z" style="fill:rgb(121,187,2);fill-rule:nonzero;"/>
            </g>
        </g>
    </g>
</svg>
