<?xml version="1.0" encoding="utf-8"?>
<!-- Generator: Adobe Illustrator 26.3.1, SVG Export Plug-In . SVG Version: 6.00 Build 0)  -->
<svg version="1.1" id="Layer_1" xmlns="http://www.w3.org/2000/svg" xmlns:xlink="http://www.w3.org/1999/xlink" x="0px" y="0px"
	 viewBox="0 0 152 27.2" style="enable-background:new 0 0 152 27.2;" xml:space="preserve">
<g>
	<g>
		<path d="M49.4,10.5c-0.4,0.6-0.9,1-1.5,1.4c-0.7,0.3-1.4,0.5-2.3,0.5h-2.3v3.4h-2.1V4.6h4.4c0.9,0,1.7,0.2,2.3,0.5
			c0.7,0.3,1.2,0.8,1.5,1.4C49.8,7,50,7.7,50,8.4C50,9.2,49.8,9.9,49.4,10.5z M47.6,7.3c-0.2-0.3-0.5-0.5-1-0.6s-1.1-0.2-1.9-0.2
			h-1.4v4h1.4c0.8,0,1.5-0.1,1.9-0.2c0.5-0.1,0.8-0.4,1-0.6c0.2-0.3,0.3-0.7,0.3-1.1C47.9,8,47.8,7.6,47.6,7.3z"/>
		<path d="M60.3,10.5c-0.4,0.6-0.9,1-1.5,1.4c-0.7,0.3-1.4,0.5-2.3,0.5h-2.3v3.4H52V4.6h4.4c0.9,0,1.7,0.2,2.3,0.5
			c0.7,0.3,1.2,0.8,1.5,1.4c0.4,0.6,0.5,1.3,0.5,2C60.8,9.2,60.6,9.9,60.3,10.5z M58.5,7.3c-0.2-0.3-0.5-0.5-1-0.6s-1.1-0.2-1.9-0.2
			h-1.4v4h1.4c0.8,0,1.5-0.1,1.9-0.2c0.5-0.1,0.8-0.4,1-0.6c0.2-0.3,0.3-0.7,0.3-1.1C58.8,8,58.7,7.6,58.5,7.3z"/>
		<path d="M71,10.7c-0.4,0.6-1.1,1.1-1.9,1.3H69l3.3,3.7h-2.8l-2.8-3.4H65v3.4h-2.1V4.6h4.4c0.9,0,1.7,0.2,2.3,0.5
			c0.7,0.3,1.2,0.8,1.5,1.4c0.4,0.6,0.5,1.3,0.5,2C71.7,9.3,71.4,10.1,71,10.7z M69.3,7.3c-0.2-0.3-0.5-0.5-1-0.6s-1.1-0.2-1.9-0.2
			H65v4h1.4c0.8,0,1.5-0.1,1.9-0.2c0.5-0.1,0.8-0.4,1-0.6c0.2-0.3,0.3-0.7,0.3-1.1C69.6,8,69.5,7.6,69.3,7.3z"/>
		<path d="M74.2,15.8V4.6h8.6v1.9h-6.6v7.3h6.6v2H74.2z M81.3,11h-4V9.1h4V11z"/>
		<path d="M92.4,15.4c-0.8,0.3-1.6,0.5-2.5,0.5c-1.1,0-2.1-0.2-3-0.7s-1.6-1.2-2.2-2c-0.5-0.9-0.8-1.9-0.8-3s0.3-2.1,0.8-3
			s1.3-1.6,2.2-2c0.9-0.5,1.9-0.7,3-0.7c0.9,0,1.7,0.2,2.5,0.5s1.5,0.8,2,1.4L93,7.7c-0.4-0.4-0.8-0.8-1.4-1
			c-0.5-0.2-1.1-0.4-1.8-0.4c-0.7,0-1.4,0.2-2,0.5s-1.1,0.8-1.4,1.4c-0.4,0.6-0.5,1.3-0.5,2c0,0.8,0.2,1.5,0.5,2
			c0.4,0.6,0.8,1,1.4,1.4c0.6,0.3,1.3,0.5,2,0.5c0.6,0,1.2-0.1,1.8-0.4c0.5-0.2,1-0.6,1.4-1l1.4,1.4C93.9,14.6,93.2,15.1,92.4,15.4z
			"/>
		<path d="M96.8,15.8V4.6h2.1v11.2C98.9,15.8,96.8,15.8,96.8,15.8z"/>
		<path d="M110.6,15.8l-3.9-8.6l-3.9,8.6h-2.4l5.2-11.2h2l5.2,11.2H110.6z"/>
		<path d="M117.9,6.4v9.3h-2.1V6.4h-3.7V4.6h9.5v1.9L117.9,6.4L117.9,6.4z"/>
		<path d="M123.2,15.8V4.6h2.1v11.2C125.3,15.8,123.2,15.8,123.2,15.8z"/>
		<path d="M138.6,13.1c-0.5,0.9-1.3,1.6-2.2,2c-0.9,0.5-1.9,0.7-3,0.7s-2.1-0.2-3-0.7s-1.6-1.2-2.2-2c-0.5-0.9-0.8-1.9-0.8-3
			s0.3-2.1,0.8-3s1.3-1.6,2.2-2c0.9-0.5,1.9-0.7,3-0.7s2.1,0.2,3,0.7s1.6,1.2,2.2,2c0.5,0.9,0.8,1.9,0.8,3
			C139.4,11.3,139.1,12.3,138.6,13.1z M136.8,8.1c-0.4-0.6-0.8-1-1.4-1.4c-0.6-0.3-1.3-0.5-2-0.5s-1.4,0.2-2,0.5s-1.1,0.8-1.4,1.4
			c-0.4,0.6-0.5,1.3-0.5,2c0,0.8,0.2,1.5,0.5,2c0.4,0.6,0.8,1,1.4,1.4c0.6,0.3,1.3,0.5,2,0.5s1.4-0.2,2-0.5s1.1-0.8,1.4-1.4
			c0.4-0.6,0.5-1.3,0.5-2C137.3,9.4,137.2,8.7,136.8,8.1z"/>
		<path d="M151.9,15.8h-2.1l-6.3-8.2v8.2h-2.1V4.6h2.1l6.2,8.1V4.6h2.1v11.2H151.9z"/>
	</g>
	<g>
		<path d="M100.5,19.1l3.7,8h-1l-0.9-2h-3.5l-0.9,2h-1L100.5,19.1z M100.5,21.2l-1.3,2.9h2.7L100.5,21.2z"/>
		<path d="M110.7,20.1c-0.5,0-0.9,0.1-1.3,0.2c-0.4,0.2-0.7,0.4-1,0.7c-0.3,0.3-0.5,0.6-0.7,1s-0.3,0.7-0.3,1.1s0.1,0.8,0.2,1.2
			c0.1,0.4,0.4,0.8,0.7,1.1c0.3,0.3,0.7,0.5,1,0.7c0.4,0.1,0.8,0.2,1.2,0.2c0.4,0,0.7-0.1,1.1-0.2c0.3-0.1,0.7-0.3,0.9-0.5
			c0.3-0.2,0.5-0.5,0.6-0.8c0.2-0.3,0.2-0.7,0.2-1.1v-1h0.9v1c0,0.5-0.1,1-0.3,1.5c-0.2,0.4-0.5,0.8-0.9,1.1
			c-0.4,0.3-0.8,0.5-1.2,0.7c-0.5,0.2-0.9,0.2-1.4,0.2s-1-0.1-1.5-0.3s-0.9-0.5-1.4-0.9c-0.4-0.4-0.7-0.9-0.9-1.4
			c-0.2-0.5-0.3-1-0.3-1.5s0.1-1,0.3-1.5c0.2-0.5,0.5-0.9,0.9-1.3s0.8-0.6,1.3-0.9c0.5-0.2,1-0.3,1.6-0.3h2.5V20L110.7,20.1
			L110.7,20.1z"/>
		<path d="M117.6,20v-0.9h5.6V20H117.6z M117.6,23.5v-0.9h5.6v0.9H117.6z M117.6,27v-0.9h5.6V27H117.6z"/>
		<path d="M132.8,27l-6.3-6.7V19l5.4,5.7v-5.6h0.9L132.8,27L132.8,27z"/>
		<path d="M139.9,27c-0.5,0-1.1-0.1-1.5-0.3c-0.5-0.2-0.9-0.5-1.3-0.8c-0.4-0.4-0.6-0.8-0.8-1.3s-0.3-1-0.3-1.5s0.1-1.1,0.3-1.5
			c0.2-0.5,0.5-0.9,0.8-1.3c0.4-0.4,0.8-0.6,1.3-0.8c0.5-0.2,1-0.3,1.5-0.3h1.9V20h-1.9c-0.4,0-0.8,0.1-1.2,0.2
			c-0.4,0.2-0.7,0.4-1,0.7c-0.3,0.3-0.5,0.6-0.7,1s-0.2,0.8-0.2,1.2c0,0.4,0.1,0.8,0.2,1.2c0.2,0.4,0.4,0.7,0.7,1s0.6,0.5,1,0.7
			s0.8,0.2,1.2,0.2h1.9V27H139.9z"/>
		<path d="M144.7,19.1h1.1l2.7,3.9l2.5-3.9h1.1l-5,7.9h-1l2-3.2L144.7,19.1z"/>
	</g>
	<g>
		<polygon points="21.9,21.1 28.2,21.1 19.1,6.7 12.9,6.7 0,27.2 6.3,27.2 16,11.7 		"/>
		<polygon points="26.2,0 20,0 20,0.2 37,27.2 43.3,27.2 		"/>
	</g>
</g>
</svg>
