<svg width="512" height="512" viewBox="0 0 512 512" fill="none" xmlns="http://www.w3.org/2000/svg">
<g clip-path="url(#clip0_11_11)">
<path d="M256 46.1C324.4 46.1 332.5 46.4 359.4 47.6C387.3 48.9 416 55.2 436.4 75.6C456.9 96.1 463.1 124.6 464.4 152.6C465.6 179.6 465.9 187.7 465.9 256C465.9 324.3 465.6 332.5 464.4 359.4C463.1 387.2 456.6 416.2 436.4 436.4C415.9 456.9 387.4 463.1 359.4 464.4C332.4 465.6 324.3 465.9 256 465.9C187.7 465.9 179.5 465.6 152.6 464.4C125.1 463.1 95.7 456.5 75.6 436.4C55.2 416 48.9 387.2 47.6 359.4C46.4 332.4 46.1 324.3 46.1 256C46.1 187.7 46.4 179.5 47.6 152.6C48.9 125 55.4 95.8 75.6 75.6C96.1 55.1 124.6 48.9 152.6 47.6C179.5 46.4 187.6 46.1 256 46.1ZM256 0C186.5 0 177.7 0.3 150.4 1.5C110.9 3.3 71.6 14.4 43 43C14.3 71.7 3.3 110.9 1.5 150.4C0.3 177.7 0 186.5 0 256C0 325.5 0.3 334.3 1.5 361.6C3.3 401.1 14.4 440.5 43 469C71.7 497.7 111 508.6 150.5 510.4C177.8 511.6 186.5 511.9 256.1 511.9C325.7 511.9 334.4 511.6 361.7 510.4C401.3 508.6 440.6 497.6 469.2 469C497.9 440.3 508.8 401.1 510.6 361.5C511.8 334.2 512.1 325.5 512.1 255.9C512.1 186.3 511.8 177.6 510.6 150.3C508.7 110.9 497.6 71.6 469 43C440.4 14.3 401 3.3 361.6 1.5C334.3 0.3 325.5 0 256 0Z" fill="black"/>
<path d="M256 124.5C183.4 124.5 124.5 183.4 124.5 256C124.5 328.6 183.4 387.5 256 387.5C328.6 387.5 387.5 328.6 387.5 256C387.5 183.4 328.6 124.5 256 124.5ZM256 341.3C208.9 341.3 170.7 303.1 170.7 256C170.7 208.9 208.9 170.7 256 170.7C303.1 170.7 341.3 208.9 341.3 256C341.3 303.1 303.1 341.3 256 341.3Z" fill="black"/>
<path d="M392.7 150C409.655 150 423.4 136.255 423.4 119.3C423.4 102.345 409.655 88.6 392.7 88.6C375.745 88.6 362 102.345 362 119.3C362 136.255 375.745 150 392.7 150Z" fill="black"/>
</g>
<defs>
<clipPath id="clip0_11_11">
<rect width="512" height="512" fill="white"/>
</clipPath>
</defs>
</svg>
