<svg width="512" height="512" viewBox="0 0 512 512" fill="none" xmlns="http://www.w3.org/2000/svg">
<g clip-path="url(#clip0_11_9)">
<path d="M436.3 436.3H360.4V317.5C360.4 289.2 359.9 252.7 320.9 252.7C281.4 252.7 275.3 283.6 275.3 315.4V436.3H199.5V191.9H272.3V225.3H273.3C288.2 199.9 315.8 184.8 345.2 185.8C422.1 185.8 436.3 236.4 436.3 302.2V436.3ZM113.9 158.5C89.6 158.5 69.9 138.8 69.9 114.5C69.9 90.2 89.6 70.5 113.9 70.5C138.2 70.5 157.9 90.2 157.9 114.5C157.9 138.8 138.2 158.5 113.9 158.5ZM151.8 436.3H75.9V191.9H151.8V436.3ZM474.1 5.34626e-06H37.8C17.2 -0.199995 0.3 16.3 0 37V475.1C0.3 495.7 17.2 512.3 37.8 512H474.1C494.8 512.3 511.7 495.7 512 475.1V36.9C511.7 16.3 494.7 -0.299995 474.1 5.34626e-06Z" fill="black"/>
</g>
<defs>
<clipPath id="clip0_11_9">
<rect width="512" height="512" fill="white"/>
</clipPath>
</defs>
</svg>
