<?xml version="1.0" encoding="utf-8"?>
<!-- Generator: Adobe Illustrator 24.0.2, SVG Export Plug-In . SVG Version: 6.00 Build 0)  -->
<svg version="1.1" id="Layer_1" xmlns="http://www.w3.org/2000/svg" xmlns:xlink="http://www.w3.org/1999/xlink" x="0px" y="0px"
	 viewBox="0 0 303.11 303.11" style="enable-background:new 0 0 303.11 303.11;" xml:space="preserve">
<style type="text/css">
	.st0{fill:#E5EBF8;}
	.st1{opacity:0.8;}
	.st2{fill:#00D4D9;}
	.st3{fill:url(#SVGID_1_);}
	.st4{fill:url(#SVGID_2_);}
	.st5{fill:#FFFFFF;}
	.st6{fill:none;stroke:#000000;stroke-miterlimit:10;}
</style>
<g>
	<polygon class="st5" points="206.51,126.06 171.74,176.7 150.43,176.7 185.2,126.06 	"/>
	<path class="st0" d="M33.26,168.58l9.62-11.5c5.76,4.82,11.64,7.12,16.95,7.12c2.15,0,3.68-0.8,3.68-2.22
		c0-1.59-0.94-2.08-8.27-4.82c-9.34-3.44-13.72-6.74-13.72-14.14c0-9.69,8.9-17.61,22.64-17.61c8.99,0,16.95,2.88,22.43,7.54
		l-9.62,11.5c-3.82-3.09-9.2-5.6-14.52-5.6c-2.15,0-3.68,0.59-3.68,2.01c0,1.5,1.08,1.8,8.06,4.38c8.55,3.16,14,6.74,14,14.45
		c0,10.14-8.34,18.03-22.78,18.03C48.06,177.71,39.37,174.13,33.26,168.58z"/>
	<polygon class="st5" points="238.29,126.06 203.52,176.7 182.21,176.7 217,126.06 	"/>
	<polygon class="st0" points="269.85,126.06 246.51,160.08 242.08,176.7 221.76,176.7 226.79,157.74 248.55,126.06 	"/>
	<polygon class="st0" points="165.02,155.47 160.59,126.06 142.82,126.06 150.43,176.7 	"/>
	<polygon class="st0" points="139.96,176.7 122.19,176.7 118.05,149.24 99.2,176.7 80.89,176.7 115.66,126.06 132.33,126.06 	"/>
</g>
</svg>
