<?xml version="1.0" encoding="utf-8"?>
<!-- Generator: Adobe Illustrator 26.3.1, SVG Export Plug-In . SVG Version: 6.00 Build 0)  -->
<svg version="1.1" id="Layer_1" xmlns="http://www.w3.org/2000/svg" xmlns:xlink="http://www.w3.org/1999/xlink" x="0px" y="0px"
	 viewBox="0 0 637 101" style="enable-background:new 0 0 637 101;" xml:space="preserve">
<style type="text/css">
	.st0{fill:#999999;}
</style>
<g>
	<path class="st0" d="M0,57.8c0-15.5,5.7-29.2,16.2-39.7C27.3,7.1,43.6,0,63.9,0c18.3,0,33.9,7.9,40.5,16.1L84.3,36.8
		c-5.5-5.1-13.7-8.7-22.4-8.7c-9.3,0-16.5,3.2-21.4,8.2c-5.3,5.3-7.9,11.9-7.9,20.1c0,12,8.7,18,18.8,18c3.3,0,6.1-0.6,8.4-1.5
		L63,62.4H47l5.3-20.8h46.6L85.1,91.1c-9.5,5.7-23.2,10-37.2,10C23.8,101,0,88.3,0,57.8z"/>
	<path class="st0" d="M208.7,44c0,15.5-6.4,29.8-16.9,40.3c-10.1,10.1-24.1,16.6-40.1,16.6c-28.4,0-48.2-19.1-48.2-43.9
		c0-15.5,6.4-29.8,16.9-40.3c10.1-10.1,24.1-16.6,40.1-16.6C188.9,0.1,208.7,19.2,208.7,44z M168.3,66.3c5-5,7.9-12.3,7.9-19.4
		c0-10.4-6.2-18.3-17.9-18.3c-6,0-10.7,2.4-14.4,6.1c-5,5-7.9,12.3-7.9,19.4c0,10.4,6.2,18.3,17.9,18.3
		C159.8,72.4,164.5,70,168.3,66.3z"/>
	<path class="st0" d="M239.3,29.5h-28.5l7.3-27.4h89.4l-7.3,27.4h-28.5L253,98.9h-32.4L239.3,29.5z"/>
	<path class="st0" d="M314.6,2.1h32.4l-9.3,34.2h29.6l9.3-34.2h32.4l-26,96.9h-32.4l9.3-34.7h-29.6l-9.3,34.7h-32.4L314.6,2.1z"/>
	<path class="st0" d="M452.8,1.4h32.1l14.7,97.6h-34.5l-1.7-13h-33.9l-8.4,13h-35.3L452.8,1.4z M461.7,63L459,39.4L443.9,63H461.7z"
		/>
	<path class="st0" d="M527.9,2.1h32l11.6,34l29.9-34H637l-26,96.9h-32.2l12.9-48L560,85.4h-0.6l-13-34.5l-12.9,48h-31.7L527.9,2.1z"
		/>
</g>
</svg>
