<?xml version="1.0" encoding="utf-8"?>
<!-- Generator: Adobe Illustrator 26.3.1, SVG Export Plug-In . SVG Version: 6.00 Build 0)  -->
<svg version="1.1" id="Layer_1" xmlns="http://www.w3.org/2000/svg" xmlns:xlink="http://www.w3.org/1999/xlink" x="0px" y="0px"
	 viewBox="0 0 1086.7 436" style="enable-background:new 0 0 1086.7 436;" xml:space="preserve">
<style type="text/css">
	.st0{fill:#CBCBCB;}
	.st1{fill:none;stroke:#192872;stroke-miterlimit:10;}
	.st2{fill:none;stroke:#FF0000;stroke-miterlimit:10;}
</style>
<g>
	<polygon class="st0" points="740.6,109.8 592.1,326.2 501.1,326.2 649.6,109.8 	"/>
	<polygon class="st0" points="876.3,109.8 727.8,326.2 636.8,326.2 785.3,109.8 	"/>
	<polygon class="st0" points="1011.1,109.8 911.4,255.2 892.5,326.2 805.7,326.2 827.2,245.2 920.1,109.8 	"/>
	<polygon class="st0" points="456.4,326.2 380.4,326.2 362.8,208.9 282.3,326.2 204.1,326.2 352.6,109.8 423.8,109.8 	"/>
	<path class="st1" d="M0.7,291.5l41.1-49.1c24.6,20.6,49.7,30.4,72.4,30.4c9.2,0,15.7-3.4,15.7-9.5c0-6.8-4-8.9-35.3-20.6
		C54.7,228,36,213.9,36,182.3c0-41.4,38.1-75.2,96.7-75.2c38.4,0,72.4,12.3,95.8,32.2l-41.1,49.1c-16.3-13.2-39.3-23.9-62-23.9
		c-9.2,0-15.7,2.5-15.7,8.6c0,6.4,4.6,7.7,34.4,18.7c36.5,13.5,59.8,28.8,59.8,61.7c0,43.3-35.6,77-97.3,77
		C63.9,330.5,26.8,315.1,0.7,291.5z"/>
	<polygon class="st0" points="563.4,235.5 544.5,109.8 468.6,109.8 501.1,326.2 	"/>
	<line class="st2" x1="128.9" y1="435.8" x2="427.8" y2="0.3"/>
	<line class="st2" x1="207.1" y1="435.8" x2="506" y2="0.3"/>
	<line class="st2" x1="472.8" y1="435.8" x2="407.4" y2="0.3"/>
	<line class="st2" x1="396.9" y1="435.8" x2="331.5" y2="1"/>
	<line class="st2" x1="517.6" y1="435.8" x2="452.1" y2="0.3"/>
	<line class="st2" x1="528" y1="0.3" x2="593.5" y2="435.8"/>
	<line class="st2" x1="425.9" y1="435.8" x2="724.8" y2="0.3"/>
	<line class="st2" x1="516.9" y1="435.8" x2="815.8" y2="0.3"/>
	<line class="st2" x1="561.6" y1="435.8" x2="860.6" y2="0.3"/>
	<line class="st2" x1="652.6" y1="435.8" x2="951.5" y2="0.3"/>
	<line class="st2" x1="728.7" y1="388.6" x2="995.3" y2="0.3"/>
	<line class="st2" x1="819.7" y1="388.6" x2="1086.3" y2="0.3"/>
	<line class="st2" x1="784.6" y1="405.6" x2="848.3" y2="165.8"/>
	<line class="st2" x1="870.1" y1="410.5" x2="933.8" y2="170.8"/>
	<line class="st2" x1="263.5" y1="109.8" x2="1075" y2="109.8"/>
	<line class="st2" x1="155" y1="326.2" x2="966.5" y2="326.2"/>
</g>
</svg>
