<?xml version="1.0" encoding="utf-8"?>
<!-- Generator: Adobe Illustrator 26.3.1, SVG Export Plug-In . SVG Version: 6.00 Build 0)  -->
<svg version="1.1" id="Layer_1" xmlns="http://www.w3.org/2000/svg" xmlns:xlink="http://www.w3.org/1999/xlink" x="0px" y="0px"
	 viewBox="0 0 1010.4 223.4" style="enable-background:new 0 0 1010.4 223.4;" xml:space="preserve">
<style type="text/css">
	.st0{fill:#FF0000;}
	.st1{fill:#192872;}
	.st2{fill:#CBD2D5;}
	.st3{fill:#F0F5F7;}
</style>
<g>
	<polygon class="st0" points="739.9,2.8 591.4,219.1 500.4,219.1 648.9,2.8 	"/>
	<path class="st1" d="M0,184.4l41.1-49.1c24.6,20.6,49.7,30.4,72.4,30.4c9.2,0,15.7-3.4,15.7-9.5c0-6.8-4-8.9-35.3-20.6
		C54,120.9,35.3,106.8,35.3,75.2C35.3,33.8,73.3,0,132,0c38.4,0,72.4,12.3,95.8,32.2l-41.1,49.1c-16.3-13.2-39.3-23.9-62-23.9
		c-9.2,0-15.7,2.5-15.7,8.6c0,6.4,4.6,7.7,34.4,18.7c36.5,13.5,59.8,28.8,59.8,61.7c0,43.3-35.6,77-97.3,77
		C63.2,223.4,26.1,208.1,0,184.4z"/>
	<polygon class="st0" points="875.6,2.8 727.1,219.1 636.1,219.1 784.7,2.8 	"/>
	<polygon class="st1" points="1010.4,2.8 910.7,148.1 891.8,219.1 805,219.1 826.5,138.1 919.4,2.8 	"/>
	<polygon class="st1" points="562.7,128.4 543.8,2.8 467.9,2.8 500.4,219.1 	"/>
	<polygon class="st1" points="455.7,219.1 379.8,219.1 362.1,101.8 281.6,219.1 203.4,219.1 351.9,2.8 423.1,2.8 	"/>
</g>
</svg>
