<?xml version="1.0" encoding="utf-8"?>
<!-- Generator: Adobe Illustrator 26.3.1, SVG Export Plug-In . SVG Version: 6.00 Build 0)  -->
<svg version="1.1" id="Layer_1" xmlns="http://www.w3.org/2000/svg" xmlns:xlink="http://www.w3.org/1999/xlink" x="0px" y="0px"
	 viewBox="0 0 1065 110.4" style="enable-background:new 0 0 1065 110.4;" xml:space="preserve">
<style type="text/css">
	.st0{fill:#FF0000;}
	.st1{fill:#192872;}
</style>
<g>
	<g>
		<polygon class="st0" points="371,1.4 297.7,108.2 252.8,108.2 326.1,1.4 		"/>
		<path class="st1" d="M5.6,91.1l20.3-24.3c12.1,10.2,24.6,15,35.8,15c4.5,0,7.7-1.7,7.7-4.7c0-3.3-2-4.4-17.4-10.2
			c-19.7-7.3-29-14.2-29-29.9C23,16.7,41.8,0,70.8,0c18.9,0,35.8,6.1,47.3,15.9L97.7,40.2c-8-6.5-19.4-11.8-30.6-11.8
			c-4.5,0-7.7,1.2-7.7,4.2c0,3.2,2.3,3.8,17,9.2c18,6.7,29.6,14.2,29.6,30.5c0,21.4-17.6,38-48.1,38C36.8,110.4,18.5,102.8,5.6,91.1
			z"/>
		<polygon class="st0" points="438.1,1.4 364.7,108.2 319.8,108.2 393.1,1.4 		"/>
		<polygon class="st1" points="504.7,1.4 455.4,73.1 446.1,108.2 403.2,108.2 413.8,68.2 459.7,1.4 		"/>
		<polygon class="st1" points="283.5,63.4 274.2,1.4 236.7,1.4 252.8,108.2 		"/>
		<polygon class="st1" points="230.6,108.2 193.2,108.2 184.4,50.3 144.7,108.2 106,108.2 179.4,1.4 214.6,1.4 		"/>
	</g>
	<g>
		<path class="st0" d="M545,78.4c-3.2,0-6-0.5-8.6-1.6c-2.6-1.1-4.7-2.7-6.3-4.7c-1.7-2-2.7-4.5-3.2-7.3l6.7-1
			c0.7,2.7,2.1,4.8,4.2,6.3c2.2,1.5,4.7,2.3,7.5,2.3c1.8,0,3.4-0.3,4.9-0.8c1.5-0.6,2.7-1.4,3.6-2.4c0.9-1.1,1.4-2.3,1.4-3.8
			c0-0.8-0.1-1.5-0.4-2.1c-0.3-0.6-0.7-1.2-1.1-1.6c-0.5-0.5-1.1-0.9-1.8-1.2c-0.7-0.3-1.4-0.6-2.3-0.9l-11.4-3.4
			c-1.1-0.3-2.2-0.8-3.4-1.3c-1.1-0.5-2.2-1.2-3.2-2.1c-1-0.9-1.7-1.9-2.3-3.2c-0.6-1.3-0.9-2.8-0.9-4.6c0-2.7,0.7-5,2.1-6.9
			c1.4-1.9,3.3-3.3,5.7-4.3s5.1-1.5,8.1-1.5c3,0,5.7,0.6,8,1.6c2.4,1,4.3,2.5,5.9,4.4c1.6,1.9,2.6,4.2,3.2,7l-6.9,1.2
			c-0.3-1.7-1-3.1-2-4.3c-1-1.2-2.2-2.1-3.7-2.8c-1.5-0.6-3-1-4.7-1c-1.6,0-3.1,0.2-4.5,0.7c-1.4,0.5-2.5,1.3-3.3,2.2
			c-0.8,1-1.2,2.1-1.2,3.3c0,1.2,0.4,2.2,1.1,3c0.7,0.8,1.6,1.4,2.7,1.8c1.1,0.4,2.1,0.8,3.2,1.1l8.2,2.3c1,0.3,2.2,0.7,3.5,1.2
			c1.3,0.5,2.6,1.2,3.8,2c1.2,0.9,2.2,2,3,3.4c0.8,1.4,1.2,3.2,1.2,5.4c0,2.2-0.5,4.2-1.4,5.9c-0.9,1.7-2.1,3.1-3.7,4.2
			c-1.6,1.1-3.4,2-5.4,2.6C549.5,78.1,547.3,78.4,545,78.4z"/>
		<path class="st0" d="M586.2,78.4c-3.5,0-6.5-0.7-9.2-2.1c-2.7-1.4-4.7-3.4-6.2-6c-1.5-2.6-2.2-5.6-2.2-9.1v-28l6.5,0v27.7
			c0,1.9,0.3,3.5,1,5s1.5,2.6,2.6,3.6c1.1,1,2.3,1.7,3.6,2.2c1.3,0.5,2.7,0.7,4,0.7c1.4,0,2.8-0.3,4.1-0.8c1.3-0.5,2.5-1.2,3.6-2.2
			c1.1-1,1.9-2.2,2.5-3.6c0.6-1.4,0.9-3.1,0.9-5V33.2h6.5v28c0,3.5-0.7,6.5-2.2,9.1c-1.5,2.6-3.6,4.6-6.2,6
			C592.7,77.7,589.7,78.4,586.2,78.4z"/>
		<path class="st0" d="M612.5,77.5V33.2h17.4c2.8,0,5.2,0.6,7.1,1.7s3.3,2.6,4.3,4.4s1.4,3.7,1.4,5.7c0,2.4-0.6,4.5-1.8,6.3
			c-1.2,1.7-2.8,2.9-4.8,3.6l-0.1-1.5c2.8,0.7,5,2.1,6.5,4.1c1.5,2,2.3,4.4,2.3,7.1c0,2.6-0.5,4.9-1.6,6.8c-1,1.9-2.5,3.4-4.5,4.5
			c-2,1.1-4.4,1.6-7.2,1.6H612.5z M619,51.2h10.8c1.2,0,2.3-0.2,3.2-0.7c1-0.5,1.7-1.2,2.3-2.1c0.6-0.9,0.8-2,0.8-3.3
			c0-1.7-0.6-3.1-1.7-4.2s-2.7-1.7-4.6-1.7H619V51.2z M619,71.3h11.6c1.5,0,2.8-0.3,3.9-0.8s2.1-1.3,2.7-2.4c0.7-1,1-2.3,1-3.7
			c0-1.3-0.3-2.5-0.9-3.6c-0.6-1.1-1.4-1.9-2.5-2.6c-1.1-0.6-2.4-0.9-3.9-0.9h-12V71.3z"/>
		<path class="st0" d="M667,78.4c-3.2,0-6-0.5-8.6-1.6c-2.6-1.1-4.7-2.7-6.3-4.7c-1.7-2-2.7-4.5-3.2-7.3l6.7-1
			c0.7,2.7,2.1,4.8,4.2,6.3c2.2,1.5,4.7,2.3,7.5,2.3c1.8,0,3.4-0.3,4.9-0.8c1.5-0.6,2.7-1.4,3.6-2.4c0.9-1.1,1.4-2.3,1.4-3.8
			c0-0.8-0.1-1.5-0.4-2.1c-0.3-0.6-0.7-1.2-1.1-1.6c-0.5-0.5-1.1-0.9-1.8-1.2c-0.7-0.3-1.4-0.6-2.3-0.9l-11.4-3.4
			c-1.1-0.3-2.2-0.8-3.4-1.3c-1.1-0.5-2.2-1.2-3.2-2.1c-1-0.9-1.7-1.9-2.3-3.2c-0.6-1.3-0.9-2.8-0.9-4.6c0-2.7,0.7-5,2.1-6.9
			c1.4-1.9,3.3-3.3,5.7-4.3s5.1-1.5,8.1-1.5c3,0,5.7,0.6,8,1.6c2.4,1,4.3,2.5,5.9,4.4c1.6,1.9,2.6,4.2,3.2,7l-6.9,1.2
			c-0.3-1.7-1-3.1-2-4.3c-1-1.2-2.2-2.1-3.7-2.8c-1.5-0.6-3-1-4.7-1c-1.6,0-3.1,0.2-4.5,0.7c-1.4,0.5-2.5,1.3-3.3,2.2
			c-0.8,1-1.2,2.1-1.2,3.3c0,1.2,0.4,2.2,1.1,3c0.7,0.8,1.6,1.4,2.7,1.8c1.1,0.4,2.1,0.8,3.2,1.1l8.2,2.3c1,0.3,2.2,0.7,3.5,1.2
			c1.3,0.5,2.6,1.2,3.8,2c1.2,0.9,2.2,2,3,3.4c0.8,1.4,1.2,3.2,1.2,5.4c0,2.2-0.5,4.2-1.4,5.9c-0.9,1.7-2.1,3.1-3.7,4.2
			c-1.6,1.1-3.4,2-5.4,2.6C671.4,78.1,669.3,78.4,667,78.4z"/>
		<path class="st0" d="M691.1,77.5V33.2h6.4v44.3H691.1z"/>
		<path class="st0" d="M706.8,77.5V33.2h13.9c0.4,0,1.2,0,2.3,0c1.1,0,2.2,0.1,3.2,0.2c3.5,0.4,6.4,1.7,8.8,3.7
			c2.4,2.1,4.2,4.6,5.4,7.8c1.2,3.1,1.8,6.6,1.8,10.4c0,3.8-0.6,7.2-1.8,10.4c-1.2,3.1-3,5.7-5.4,7.8c-2.4,2-5.3,3.3-8.8,3.7
			c-1,0.1-2.1,0.2-3.2,0.2c-1.1,0-1.9,0-2.3,0H706.8z M713.4,71.3h7.3c0.7,0,1.5,0,2.5-0.1c1,0,1.8-0.1,2.6-0.2
			c2.3-0.4,4.1-1.4,5.5-2.9c1.4-1.5,2.4-3.4,3.1-5.6c0.7-2.2,1-4.6,1-7.1c0-2.6-0.3-5-1-7.2s-1.7-4.1-3.1-5.6
			c-1.4-1.5-3.2-2.5-5.4-2.9c-0.7-0.1-1.6-0.2-2.6-0.3c-1,0-1.8,0-2.5,0h-7.3V71.3z"/>
		<path class="st0" d="M749.9,77.5V33.2h6.4v44.3H749.9z"/>
		<path class="st0" d="M762.5,77.5l14.4-44.3h9.3l14.4,44.3h-6.7L780.6,37h1.7l-13.1,40.4H762.5z M769.9,67.5v-6h23.1v6H769.9z"/>
		<path class="st0" d="M806.1,77.5V33.2H824c0.4,0,1,0,1.6,0s1.2,0.1,1.8,0.2c2.5,0.4,4.5,1.2,6.2,2.5c1.7,1.3,2.9,2.9,3.7,4.9
			s1.2,4.1,1.2,6.5c0,3.5-0.9,6.6-2.7,9.1c-1.8,2.6-4.5,4.1-8.1,4.8l-2.6,0.3h-12.5v15.9H806.1z M812.5,55.5h11.2
			c0.4,0,0.9,0,1.4-0.1c0.5,0,1-0.1,1.4-0.2c1.3-0.3,2.4-0.9,3.2-1.7s1.4-1.8,1.7-2.9c0.3-1.1,0.5-2.2,0.5-3.3
			c0-1.1-0.2-2.2-0.5-3.2c-0.3-1.1-0.9-2-1.7-2.9c-0.8-0.8-1.9-1.4-3.2-1.7c-0.5-0.1-0.9-0.2-1.4-0.2c-0.5,0-1-0.1-1.4-0.1h-11.2
			V55.5z M832,77.5l-8.7-18l6.5-1.7l9.6,19.7H832z"/>
		<path class="st0" d="M856.1,77.5V59.2l-15-26h7.5l10.7,18.6l10.7-18.6h7.5l-15,26v18.3H856.1z"/>
		<path class="st0" d="M891.8,77.5V33.2h6.5l21.8,32.9V33.2h6.5v44.3h-6.5l-21.8-32.9v32.9H891.8z"/>
		<path class="st0" d="M932.2,77.5l14.4-44.3h9.3l14.4,44.3h-6.7L950.3,37h1.7l-13.1,40.4H932.2z M939.6,67.5v-6h23.1v6H939.6z"/>
		<path class="st0" d="M975.8,77.5V33.2h5.8l16.1,33.3l16-33.3h5.9v44.3h-6.1V47.1l-14.3,30.3h-2.9l-14.3-30.3v30.3H975.8z"/>
		<path class="st0" d="M1028.1,77.5V33.2h28.3v6.1h-21.9v12.4h18.2v6.1h-18.2v13.7h21.9v6.1H1028.1z"/>
	</g>
</g>
</svg>
