<?xml version="1.0" encoding="utf-8"?>
<!-- Generator: Adobe Illustrator 26.3.1, SVG Export Plug-In . SVG Version: 6.00 Build 0)  -->
<svg version="1.1" id="Layer_1" xmlns="http://www.w3.org/2000/svg" xmlns:xlink="http://www.w3.org/1999/xlink" x="0px" y="0px"
	 viewBox="0 0 1391.6 223.4" style="enable-background:new 0 0 1391.6 223.4;" xml:space="preserve">
<style type="text/css">
	.st0{fill:#FF0000;}
	.st1{fill:#192872;}
</style>
<g>
	<g>
		<polygon class="st0" points="1121.1,2.8 972.6,219.1 881.6,219.1 1030.1,2.8 		"/>
		<path class="st1" d="M381.2,184.4l41.1-49.1c24.6,20.6,49.7,30.4,72.4,30.4c9.2,0,15.7-3.4,15.7-9.5c0-6.8-4-8.9-35.3-20.6
			c-39.9-14.7-58.6-28.8-58.6-60.5c0-41.4,38.1-75.2,96.7-75.2c38.4,0,72.4,12.3,95.8,32.2l-41.1,49.1c-16.3-13.2-39.3-23.9-62-23.9
			c-9.2,0-15.7,2.5-15.7,8.6c0,6.4,4.6,7.7,34.4,18.7c36.5,13.5,59.8,28.8,59.8,61.7c0,43.3-35.6,77-97.3,77
			C444.4,223.4,407.3,208.1,381.2,184.4z"/>
		<polygon class="st0" points="1256.8,2.8 1108.3,219.1 1017.3,219.1 1165.8,2.8 		"/>
		<polygon class="st1" points="1391.6,2.8 1291.8,148.1 1272.9,219.1 1186.1,219.1 1207.7,138.1 1300.6,2.8 		"/>
		<polygon class="st1" points="943.9,128.4 925,2.8 849.1,2.8 881.6,219.1 		"/>
		<polygon class="st1" points="836.8,219.1 760.9,219.1 743.3,101.8 662.8,219.1 584.6,219.1 733.1,2.8 804.3,2.8 		"/>
	</g>
	<g>
		<path class="st0" d="M37.2,158.5c-6.6,0-12.5-1.1-17.7-3.4s-9.6-5.6-13-9.8c-3.4-4.3-5.5-9.3-6.5-15.2l15.6-2.4
			c1.3,5.3,4.1,9.4,8.2,12.3c4.1,2.9,8.9,4.4,14.3,4.4c3.2,0,6.2-0.5,9-1.5c2.8-1,5.1-2.5,6.9-4.4c1.8-1.9,2.7-4.3,2.7-7
			c0-1.2-0.2-2.4-0.6-3.5c-0.4-1.1-1-2-1.8-2.8c-0.8-0.8-1.9-1.6-3.1-2.3c-1.3-0.7-2.7-1.3-4.4-1.8l-23.2-6.9
			c-2-0.6-4.1-1.4-6.5-2.3c-2.3-1-4.5-2.3-6.5-4.1c-2.1-1.7-3.7-3.9-5-6.6c-1.3-2.7-2-6-2-9.9c0-5.8,1.5-10.6,4.4-14.6
			s6.9-6.9,11.8-8.8c5-2,10.5-2.9,16.6-2.9c6.2,0,11.6,1.1,16.5,3.1c4.8,2.1,8.9,5,12.1,8.9c3.2,3.9,5.5,8.6,6.9,14.2l-16.1,2.8
			c-0.7-3.2-1.9-5.8-3.8-8.1c-1.9-2.2-4.2-3.9-6.9-5.1c-2.7-1.2-5.6-1.8-8.7-1.9c-3,0-5.8,0.4-8.3,1.3c-2.6,0.9-4.6,2.3-6.2,4
			c-1.6,1.7-2.3,3.8-2.3,6.1c0,2.2,0.7,4,2,5.4c1.3,1.4,3,2.5,5,3.3c2,0.8,4,1.5,6,2l16.1,4.5c2.2,0.6,4.7,1.4,7.4,2.4
			c2.7,1,5.4,2.4,7.9,4.2c2.5,1.8,4.6,4.1,6.3,7c1.6,2.9,2.5,6.6,2.5,11.1c0,4.7-1,8.7-2.9,12.3c-1.9,3.5-4.5,6.4-7.8,8.8
			c-3.3,2.3-7,4.1-11.3,5.2C46.2,157.9,41.8,158.5,37.2,158.5z"/>
		<path class="st0" d="M85.9,156.6V66.8h15v37.8h42.5V66.8h15v89.8h-15v-37.9h-42.5v37.9H85.9z"/>
		<path class="st0" d="M213.8,158.5c-9,0-16.7-2-23.1-5.9c-6.4-3.9-11.3-9.4-14.7-16.4c-3.4-7-5.1-15.2-5.1-24.4
			c0-9.3,1.7-17.4,5.1-24.4c3.4-7,8.3-12.5,14.7-16.4s14.1-5.9,23.1-5.9c9,0,16.7,2,23.1,5.9c6.4,3.9,11.3,9.4,14.8,16.4
			c3.4,7,5.1,15.2,5.1,24.4c0,9.3-1.7,17.4-5.1,24.4c-3.4,7-8.4,12.5-14.8,16.4C230.5,156.5,222.8,158.5,213.8,158.5z M213.8,144.3
			c6,0,11-1.3,15.1-4c4-2.7,7-6.5,9-11.4c2-4.9,3-10.6,3-17.2c0-6.6-1-12.3-3-17.1c-2-4.8-5-8.6-9-11.3c-4-2.7-9-4.1-15.1-4.2
			c-6,0-11,1.3-15,4c-4,2.7-7,6.5-9,11.4s-3,10.6-3,17.2c0,6.6,1,12.3,3,17.1c2,4.8,5,8.6,9,11.3
			C202.8,142.9,207.8,144.3,213.8,144.3z"/>
		<path class="st0" d="M269.3,156.6V66.8h37.1c0.9,0,2,0,3.4,0.1c1.4,0.1,2.6,0.2,3.8,0.4c5.2,0.8,9.5,2.5,12.9,5.2
			c3.4,2.7,5.9,6,7.5,10.1s2.5,8.6,2.5,13.5c0,4.9-0.8,9.4-2.5,13.4c-1.7,4.1-4.2,7.4-7.6,10.1c-3.4,2.7-7.7,4.4-12.8,5.2
			c-1.2,0.2-2.4,0.3-3.8,0.4c-1.4,0.1-2.5,0.1-3.3,0.1h-22.1v31.4H269.3z M284.4,111.2h21.4c0.8,0,1.8,0,2.8-0.1
			c1-0.1,2-0.2,2.9-0.5c2.5-0.6,4.5-1.7,5.9-3.3s2.5-3.4,3.1-5.4c0.6-2,0.9-3.9,0.9-5.9c0-1.9-0.3-3.9-0.9-5.9
			c-0.6-2-1.6-3.8-3.1-5.4c-1.4-1.6-3.4-2.7-5.9-3.3c-0.9-0.2-1.8-0.4-2.9-0.5c-1-0.1-2-0.1-2.8-0.1h-21.4V111.2z"/>
	</g>
</g>
</svg>
