<?xml version="1.0" encoding="utf-8"?>
<!-- Generator: Adobe Illustrator 26.3.1, SVG Export Plug-In . SVG Version: 6.00 Build 0)  -->
<svg version="1.1" id="Layer_1" xmlns="http://www.w3.org/2000/svg" xmlns:xlink="http://www.w3.org/1999/xlink" x="0px" y="0px"
	 viewBox="0 0 899.7 1080" style="enable-background:new 0 0 899.7 1080;" xml:space="preserve">
<style type="text/css">
	.st0{fill:#FFFFFF;}
	.st1{fill:#A5B3CB;}
	.st2{fill:#EFEFFA;}
	.st3{fill:none;stroke:#000000;stroke-miterlimit:10;}
	.st4{fill:none;stroke:#000000;stroke-miterlimit:10;stroke-dasharray:6.978,6.978;}
	.st5{fill:none;stroke:#000000;stroke-miterlimit:10;stroke-dasharray:7;}
</style>
<g>
	<path class="st0" d="M489.4,708.7h-78.8c-36.1,0-65.3-29.2-65.3-65.3v-78.8c0-36.1,29.2-65.3,65.3-65.3h78.8
		c36.1,0,65.3,29.2,65.3,65.3v78.8C554.7,679.5,525.5,708.7,489.4,708.7z"/>
	<path class="st1" d="M769,708.7h-78.8c-36.1,0-65.3-29.2-65.3-65.3v-78.8c0-36.1,29.2-65.3,65.3-65.3H769
		c36.1,0,65.3,29.2,65.3,65.3v78.8C834.3,679.5,805.1,708.7,769,708.7z"/>
	<path class="st1" d="M219.7,708.7h-78.8c-36.1,0-65.3-29.2-65.3-65.3v-78.8c0-36.1,29.2-65.3,65.3-65.3h78.8
		c36.1,0,65.3,29.2,65.3,65.3v78.8C285,679.5,255.8,708.7,219.7,708.7z"/>
	<path class="st0" d="M219.7,987.9h-78.8c-36.1,0-65.3-29.2-65.3-65.3v-78.8c0-36.1,29.2-65.3,65.3-65.3h78.8
		c36.1,0,65.3,29.2,65.3,65.3v78.8C285,958.6,255.8,987.9,219.7,987.9z"/>
	<path class="st0" d="M769,987.9h-78.8c-36.1,0-65.3-29.2-65.3-65.3v-78.8c0-36.1,29.2-65.3,65.3-65.3H769
		c36.1,0,65.3,29.2,65.3,65.3v78.8C834.3,958.6,805.1,987.9,769,987.9z"/>
	<path class="st1" d="M490.6,987.9h-78.8c-36.1,0-65.3-29.2-65.3-65.3v-78.8c0-36.1,29.2-65.3,65.3-65.3h78.8
		c36.1,0,65.3,29.2,65.3,65.3v78.8C556,958.6,526.7,987.9,490.6,987.9z"/>
	<path class="st1" d="M501.6,604c0,19-15.4,34.4-34.4,34.4h-55.9l9.9,9.9c1.7,1.7,1.7,4.4,0,6.1c-0.8,0.8-1.9,1.3-3,1.3
		c-1.1,0-2.2-0.4-3-1.3l-14.2-14.2c-3.4-3.4-3.4-8.8,0-12.2l14.2-14.2c1.7-1.7,4.4-1.7,6.1,0s1.7,4.4,0,6.1l-9.9,9.9h55.9
		c14.2,0,25.8-11.6,25.8-25.8c0-2.4,1.9-4.3,4.3-4.3C499.7,599.7,501.6,601.6,501.6,604L501.6,604z M402.7,608.3
		c2.4,0,4.3-1.9,4.3-4.3c0-14.2,11.6-25.8,25.8-25.8h55.9l-9.9,9.9c-1.7,1.7-1.7,4.4,0,6.1c0.8,0.8,1.9,1.3,3,1.3s2.2-0.4,3-1.3
		l14.2-14.2c3.4-3.4,3.4-8.8,0-12.2l-14.2-14.2c-1.7-1.7-4.4-1.7-6.1,0c-1.7,1.7-1.7,4.4,0,6.1l9.9,9.9h-55.9
		c-19,0-34.4,15.4-34.4,34.4C398.4,606.3,400.3,608.3,402.7,608.3z"/>
	<path class="st2" d="M230.5,600.9c-1.7-27.7-25.6-48.8-53.3-47.1c-27.7,1.7-48.8,25.6-47.1,53.3c1.6,26.5,23.6,47.2,50.2,47.2h29.2
		c11.6,0,20.9-9.4,20.9-20.9V600.9z M222.2,633.3c0,6.9-5.6,12.6-12.6,12.6h-29.2c-11.9,0-23.3-5.1-31.3-14
		c-8-8.9-11.8-20.8-10.4-32.7c2.3-19.1,17.2-34.2,36.2-36.7c1.8-0.2,3.6-0.3,5.4-0.3c9.8,0,19.2,3.4,26.7,9.6
		c8.8,7.4,14.3,18,15.1,29.5V633.3z M163.6,591.5h16.7c2.3,0,4.2-1.9,4.2-4.2s-1.9-4.2-4.2-4.2h-16.7c-2.3,0-4.2,1.9-4.2,4.2
		S161.3,591.5,163.6,591.5z M197.1,599.8h-33.5c-2.3,0-4.2,1.9-4.2,4.2s1.9,4.2,4.2,4.2h33.5c2.3,0,4.2-1.9,4.2-4.2
		S199.4,599.8,197.1,599.8z M197.1,616.6h-33.5c-2.3,0-4.2,1.9-4.2,4.2s1.9,4.2,4.2,4.2h33.5c2.3,0,4.2-1.9,4.2-4.2
		S199.4,616.6,197.1,616.6z"/>
	<path class="st1" d="M235.1,901.4v22.8c0,7.6-6.1,13.7-13.7,13.7h-22.8c-13,0-25.1-7-31.6-18.3c3.4,0,6.9-0.4,10.2-1.1
		c5.2,6.5,13,10.3,21.3,10.3h22.8c2.5,0,4.6-2,4.6-4.6v-22.8c0-8.3-3.8-16.2-10.3-21.3c0.7-3.4,1.1-6.8,1.1-10.2
		C228.1,876.3,235,888.3,235.1,901.4z M207.6,872.4c1.6-22.6-15.4-42.3-38-43.9c-2-0.1-4-0.1-5.9,0c-21.6,2.5-37.9,20.6-38.1,42.3
		v23c0,11.6,6.9,16.7,13.7,16.7h26C187,910.3,205.1,894,207.6,872.4z M189.2,846.9c6.6,6.6,9.9,15.7,9.3,24.9
		c-2,16.8-16.3,29.5-33.2,29.6h-26c-4.2,0-4.6-5.8-4.6-7.6v-23c0.1-17,12.8-31.2,29.6-33.2c0.8-0.1,1.5-0.1,2.3-0.1
		C175.1,837.5,183.2,840.9,189.2,846.9L189.2,846.9z"/>
	<path class="st2" d="M483,937.6h-63.5c-12.5,0-22.7-10.2-22.7-22.7v-42.1c0-7.6,3.7-14.6,10-18.8l31.8-21.4
		c7.7-5.2,17.7-5.2,25.4,0l31.8,21.4c6.3,4.2,10,11.3,10,18.8v42.1C505.7,927.4,495.5,937.6,483,937.6z M451.2,837.7
		c-2.7,0-5.3,0.8-7.6,2.3l-31.8,21.4c-3.8,2.5-6,6.7-6,11.3v42.1c0,7.5,6.1,13.6,13.6,13.6H483c7.5,0,13.6-6.1,13.6-13.6v-42.1
		c0-4.5-2.2-8.8-6-11.3l-31.8-21.4C456.5,838.5,453.9,837.7,451.2,837.7z"/>
	<path class="st1" d="M485.2,304.5H357.7c-25.1,0-45.5-20.4-45.5-45.5v-84.5c0-15.2,7.5-29.3,20.1-37.8l63.7-43
		c15.5-10.4,35.5-10.4,51,0l63.8,43c12.6,8.5,20.1,22.6,20.1,37.8V259C530.8,284.1,510.4,304.5,485.2,304.5z M421.5,104.1
		c-5.3,0-10.6,1.6-15.3,4.7l-63.8,43c-7.5,5.1-12,13.5-12,22.6V259c0,15.1,12.3,27.3,27.3,27.3h127.5c15.1,0,27.3-12.3,27.3-27.3
		v-84.5c0-9.1-4.5-17.6-12-22.6l-63.8-43C432.1,105.7,426.8,104.1,421.5,104.1z"/>
	<path class="st2" d="M743.2,550.2c-0.1,0-27.2,0-27.3,0c-12.3,0.1-22.2,10.1-22.2,22.4v62.8c0,12.4,10.1,22.4,22.4,22.4H743
		c12.4,0,22.4-10.1,22.4-22.4v-62.8C765.4,560.3,755.5,550.3,743.2,550.2z M756.5,635.3c0,7.4-6,13.4-13.4,13.4h-26.9
		c-7.4,0-13.4-6-13.4-13.4v-62.8c0-6.5,4.7-12,10.8-13.2l3.1,6.2c0.8,1.5,2.3,2.5,4,2.5h17.9c1.7,0,3.3-1,4-2.5l3.1-6.2
		c6.2,1.2,10.8,6.7,10.8,13.2V635.3L756.5,635.3z M734,639.8h-9c-2.5,0-4.5-2-4.5-4.5l0,0c0-2.5,2-4.5,4.5-4.5h9
		c2.5,0,4.5,2,4.5,4.5l0,0C738.5,637.8,736.5,639.8,734,639.8z"/>
	<g>
		<path class="st1" d="M729.6,863.3c-11,0-19.8,8.9-19.8,19.8s8.9,19.8,19.8,19.8c11,0,19.8-8.9,19.8-19.8S740.5,863.3,729.6,863.3z
			 M729.6,893c-5.5,0-9.9-4.4-9.9-9.9s4.4-9.9,9.9-9.9c5.5,0,9.9,4.4,9.9,9.9S735.1,893,729.6,893z"/>
		<path class="st1" d="M775.7,892.5l-2.2-1.3c1-5.4,1-10.9,0-16.3l2.2-1.3c7.1-4.1,9.6-13.2,5.5-20.3c-4.1-7.1-13.2-9.6-20.3-5.5
			l-2.2,1.3c-4.2-3.6-9-6.3-14.1-8.1v-2.5c0-8.2-6.7-14.9-14.9-14.9c-8.2,0-14.9,6.7-14.9,14.9v2.5c-5.2,1.8-10,4.6-14.1,8.2
			l-2.2-1.3c-7.1-4.1-16.2-1.7-20.3,5.5c-4.1,7.1-1.7,16.2,5.5,20.3l0,0l2.2,1.3c-1,5.4-1,10.9,0,16.3l-2.2,1.3
			c-7.1,4.1-9.6,13.2-5.5,20.3c4.1,7.1,13.2,9.6,20.3,5.5l0,0l2.2-1.3c4.2,3.6,9,6.3,14.1,8.1v2.5c0,8.2,6.7,14.9,14.9,14.9
			c8.2,0,14.9-6.7,14.9-14.9v-2.5c5.2-1.8,10-4.6,14.1-8.2l2.2,1.3c7.1,4.1,16.2,1.7,20.3-5.5C785.2,905.8,782.8,896.6,775.7,892.5
			L775.7,892.5L775.7,892.5z M763,873.8c1.7,6.1,1.7,12.5,0,18.6c-0.6,2.2,0.3,4.5,2.3,5.6l5.4,3.1c2.4,1.4,3.2,4.4,1.8,6.8
			c-1.4,2.4-4.4,3.2-6.8,1.8l0,0l-5.4-3.1c-2-1.1-4.4-0.8-6,0.8c-4.4,4.5-10,7.7-16.1,9.3c-2.2,0.6-3.7,2.5-3.7,4.8v6.2
			c0,2.7-2.2,5-5,5c-2.7,0-5-2.2-5-5v-6.2c0-2.3-1.5-4.2-3.7-4.8c-6.1-1.6-11.7-4.8-16.1-9.3c-1.6-1.6-4.1-2-6-0.8l-5.4,3.1
			c-2.4,1.4-5.4,0.6-6.8-1.8c-1.4-2.4-0.6-5.4,1.8-6.8c0,0,0,0,0.1,0l5.4-3.1c2-1.1,2.9-3.4,2.3-5.6c-1.7-6.1-1.7-12.5,0-18.6
			c0.6-2.2-0.4-4.5-2.3-5.6l-5.4-3.1c-2.4-1.4-3.2-4.4-1.8-6.8c1.4-2.4,4.4-3.2,6.8-1.8l5.4,3.1c2,1.1,4.4,0.8,6-0.8
			c4.4-4.5,10-7.7,16.1-9.3c2.2-0.6,3.7-2.6,3.7-4.8v-6.2c0-2.7,2.2-5,5-5c2.7,0,5,2.2,5,5v6.2c0,2.3,1.5,4.2,3.7,4.8
			c6.1,1.6,11.7,4.8,16.1,9.3c1.6,1.6,4.1,2,6,0.8l5.4-3.1c2.4-1.4,5.4-0.6,6.8,1.8c1.4,2.4,0.6,5.4-1.8,6.8c0,0,0,0-0.1,0l-5.4,3.1
			C763.4,869.3,762.4,871.6,763,873.8L763,873.8z"/>
	</g>
	<g>
		<g>
			<g>
				<line class="st3" x1="17.4" y1="499.2" x2="20.9" y2="499.2"/>
				<line class="st4" x1="27.8" y1="499.2" x2="875.7" y2="499.2"/>
				<line class="st3" x1="879.1" y1="499.2" x2="882.6" y2="499.2"/>
			</g>
		</g>
		<g>
			<g>
				<line class="st3" x1="17.4" y1="708.7" x2="20.9" y2="708.7"/>
				<line class="st4" x1="27.8" y1="708.7" x2="875.7" y2="708.7"/>
				<line class="st3" x1="879.1" y1="708.7" x2="882.6" y2="708.7"/>
			</g>
		</g>
		<g>
			<g>
				<line class="st3" x1="17.4" y1="778.4" x2="20.9" y2="778.4"/>
				<line class="st4" x1="27.8" y1="778.4" x2="875.7" y2="778.4"/>
				<line class="st3" x1="879.1" y1="778.4" x2="882.6" y2="778.4"/>
			</g>
		</g>
		<g>
			<g>
				<line class="st3" x1="17.4" y1="987.9" x2="20.9" y2="987.9"/>
				<line class="st4" x1="27.8" y1="987.9" x2="875.7" y2="987.9"/>
				<line class="st3" x1="879.1" y1="987.9" x2="882.6" y2="987.9"/>
			</g>
		</g>
		<line class="st5" x1="75.6" y1="442.8" x2="75.6" y2="1044.2"/>
		<line class="st5" x1="285" y1="442.8" x2="285" y2="1044.2"/>
		<line class="st5" x1="345.3" y1="442.8" x2="345.3" y2="1044.2"/>
		<line class="st5" x1="554.7" y1="442.8" x2="554.7" y2="1044.2"/>
		<line class="st5" x1="624.8" y1="442.8" x2="624.8" y2="1044.2"/>
		<line class="st5" x1="834.3" y1="442.8" x2="834.3" y2="1044.2"/>
	</g>
	<path class="st3" d="M512.3,354.6H330.6c-37.9,0-68.6-30.7-68.6-68.6V104.3c0-37.9,30.7-68.6,68.6-68.6h181.7
		c37.9,0,68.6,30.7,68.6,68.6v181.7C580.9,323.9,550.2,354.6,512.3,354.6z"/>
	<circle class="st5" cx="421.5" cy="195.2" r="139.3"/>
	<line class="st5" x1="262.1" y1="55.9" x2="580.9" y2="55.9"/>
	<line class="st5" x1="262.1" y1="134.1" x2="580.9" y2="134.1"/>
	<line class="st5" x1="262.1" y1="256.3" x2="580.9" y2="256.3"/>
	<line class="st5" x1="262.1" y1="334.5" x2="580.9" y2="334.5"/>
	<line class="st3" x1="262.1" y1="195.2" x2="580.9" y2="195.2"/>
	<line class="st5" x1="282.1" y1="354.6" x2="282.1" y2="35.8"/>
	<line class="st5" x1="560.8" y1="354.6" x2="560.8" y2="35.8"/>
	<line class="st5" x1="421.5" y1="354.6" x2="421.5" y2="35.8"/>
	<line class="st3" x1="262.1" y1="354.6" x2="580.9" y2="35.8"/>
	<line class="st3" x1="262.1" y1="35.8" x2="580.9" y2="354.6"/>
	<circle class="st5" cx="421.5" cy="195.2" r="61.1"/>
	<circle class="st5" cx="421.5" cy="195.2" r="86.6"/>
	<line class="st5" x1="360.4" y1="354.6" x2="360.4" y2="35.8"/>
	<line class="st5" x1="482.6" y1="354.6" x2="482.6" y2="35.8"/>
</g>
<g>
</g>
<g>
</g>
<g>
</g>
<g>
</g>
<g>
</g>
<g>
</g>
<g>
</g>
<g>
</g>
<g>
</g>
<g>
</g>
<g>
</g>
<g>
</g>
<g>
</g>
<g>
</g>
<g>
</g>
</svg>
