<?xml version="1.0" encoding="utf-8"?>
<!-- Generator: Adobe Illustrator 26.3.1, SVG Export Plug-In . SVG Version: 6.00 Build 0)  -->
<svg version="1.1" id="Layer_1" xmlns="http://www.w3.org/2000/svg" xmlns:xlink="http://www.w3.org/1999/xlink" x="0px" y="0px"
	 viewBox="0 0 441.9 218.7" style="enable-background:new 0 0 441.9 218.7;" xml:space="preserve">
<style type="text/css">
	.st0{fill:#4D4D4D;}
</style>
<g>
	<g>
		<path class="st0" d="M6.1,72.9V0h11l25.2,51.6L67.5,0h11v72.9H67.1V26.2L44.7,72.9h-4.9L17.5,26.2v46.7H6.1z"/>
		<path class="st0" d="M107.9,74.4c-3.9,0-7.3-0.8-10-2.3c-2.7-1.5-4.8-3.5-6.2-6c-1.4-2.5-2.1-5.2-2.1-8.3c0-2.6,0.4-5,1.3-7.1
			c0.9-2.1,2.2-3.9,4-5.5c1.8-1.5,4.2-2.8,7.1-3.8c2.2-0.7,4.8-1.3,7.7-1.9s6.2-1.1,9.6-1.6c3.5-0.5,7.1-1,10.9-1.6l-4.4,2.5
			c0-3.8-0.8-6.6-2.5-8.4c-1.7-1.8-4.6-2.7-8.7-2.7c-2.5,0-4.8,0.6-7.1,1.7c-2.3,1.1-3.9,3.1-4.8,5.9L91.6,32
			c1.3-4.6,3.9-8.3,7.7-11.1c3.8-2.8,8.9-4.2,15.4-4.2c4.9,0,9.1,0.8,12.8,2.4s6.4,4.2,8.2,7.8c1,1.9,1.6,3.9,1.8,5.9
			c0.2,2,0.3,4.2,0.3,6.6v33.6h-10.7V61.1l1.8,1.9c-2.5,3.9-5.3,6.8-8.6,8.7C117,73.5,112.9,74.4,107.9,74.4z M110.4,64.7
			c2.8,0,5.1-0.5,7.1-1.5c2-1,3.5-2.2,4.7-3.6c1.2-1.4,1.9-2.8,2.4-4c0.6-1.6,1-3.3,1.1-5.3c0.1-2,0.1-3.6,0.1-4.9l3.7,1.1
			c-3.7,0.6-6.8,1.1-9.5,1.5c-2.6,0.4-4.9,0.9-6.8,1.2c-1.9,0.4-3.6,0.8-5,1.3c-1.4,0.5-2.6,1.1-3.6,1.8c-1,0.7-1.7,1.5-2.3,2.3
			c-0.5,0.9-0.8,1.9-0.8,3.1c0,1.3,0.3,2.5,1,3.6c0.7,1,1.7,1.8,3,2.5C106.8,64.4,108.4,64.7,110.4,64.7z"/>
		<path class="st0" d="M150.9,72.9V18.2h10.9v17h1.5v37.7H150.9z M188.8,72.9V46.6c0-1.7-0.1-3.6-0.4-5.7c-0.2-2.1-0.8-4.1-1.6-6
			c-0.9-1.9-2.1-3.5-3.8-4.8c-1.7-1.2-4-1.9-6.9-1.9c-1.6,0-3.1,0.3-4.6,0.8c-1.5,0.5-2.9,1.4-4.1,2.6c-1.2,1.2-2.2,2.9-3,5.1
			c-0.7,2.1-1.1,4.9-1.1,8.2l-7.2-3.1c0-4.7,0.9-8.9,2.7-12.7c1.8-3.8,4.5-6.8,8-9c3.5-2.2,7.8-3.4,13-3.4c4.1,0,7.4,0.7,10,2
			c2.6,1.4,4.7,3.1,6.3,5.2c1.6,2.1,2.7,4.3,3.4,6.7c0.7,2.4,1.2,4.6,1.4,6.7c0.2,2.1,0.3,3.8,0.3,5.1v30.5H188.8z"/>
		<path class="st0" d="M214.3,72.9V18.2h10.8v13.3l-1.3-1.7c0.7-1.8,1.6-3.5,2.7-5c1.1-1.5,2.5-2.7,4.1-3.7c1.3-0.9,2.8-1.6,4.5-2.2
			c1.6-0.5,3.3-0.8,5-1c1.7-0.1,3.4,0,5,0.2v11.4c-1.6-0.5-3.5-0.6-5.6-0.5c-2.1,0.2-4,0.8-5.7,1.8c-1.7,0.9-3.1,2.1-4.1,3.5
			c-1.1,1.4-1.8,3-2.4,4.8c-0.5,1.8-0.8,3.8-0.8,5.8v27.8H214.3z"/>
		<path class="st0" d="M277.8,74.4c-5.5,0-10.2-1.2-14.3-3.7c-4.1-2.5-7.2-5.9-9.5-10.2c-2.2-4.3-3.4-9.3-3.4-15
			c0-5.7,1.1-10.8,3.4-15.1c2.3-4.3,5.5-7.7,9.6-10.1c4.1-2.4,8.8-3.6,14.2-3.6c5.5,0,10.3,1.2,14.4,3.7c4.1,2.5,7.3,5.9,9.5,10.2
			c2.3,4.3,3.4,9.3,3.4,15c0,5.7-1.1,10.7-3.4,15c-2.3,4.3-5.5,7.7-9.5,10.2C288.1,73.2,283.3,74.4,277.8,74.4z M277.8,63
			c4.9,0,8.5-1.6,10.8-4.9c2.4-3.2,3.5-7.4,3.5-12.6c0-5.3-1.2-9.5-3.6-12.7c-2.4-3.2-6-4.7-10.8-4.7c-3.3,0-6,0.7-8.1,2.2
			c-2.1,1.5-3.7,3.5-4.7,6.1s-1.5,5.6-1.5,9.1c0,5.3,1.2,9.5,3.6,12.7C269.6,61.4,273.1,63,277.8,63z"/>
		<path class="st0" d="M316.2,97.2v-79h10.8v38.4h1.5v40.6H316.2z M342.5,74.4c-5.3,0-9.8-1.3-13.4-3.8c-3.6-2.5-6.3-6-8.2-10.4
			c-1.8-4.4-2.7-9.3-2.7-14.7c0-5.5,0.9-10.4,2.7-14.8c1.8-4.4,4.5-7.8,8-10.3c3.5-2.5,7.9-3.8,13.1-3.8c5.2,0,9.6,1.3,13.4,3.8
			c3.8,2.5,6.7,5.9,8.8,10.3c2.1,4.3,3.1,9.3,3.1,14.8c0,5.5-1,10.4-3.1,14.7c-2.1,4.4-5,7.8-8.7,10.3
			C351.9,73.2,347.6,74.4,342.5,74.4z M340.7,63.5c3.2,0,5.8-0.8,7.8-2.4c2.1-1.6,3.6-3.7,4.6-6.5c1-2.7,1.5-5.7,1.5-9.1
			c0-3.3-0.5-6.3-1.5-9c-1-2.7-2.6-4.9-4.7-6.5c-2.1-1.6-4.8-2.4-8.1-2.4c-3.1,0-5.6,0.8-7.6,2.3c-2,1.5-3.4,3.6-4.3,6.3
			c-0.9,2.7-1.4,5.8-1.4,9.4c0,3.5,0.5,6.7,1.4,9.4c0.9,2.7,2.4,4.8,4.4,6.3C334.7,62.7,337.4,63.5,340.7,63.5z"/>
		<path class="st0" d="M403.5,74.4c-5.5,0-10.4-1.2-14.6-3.6c-4.2-2.4-7.5-5.7-9.8-10c-2.3-4.3-3.5-9.1-3.5-14.7
			c0-6,1.1-11.2,3.4-15.6c2.3-4.4,5.5-7.8,9.6-10.3c4.1-2.4,8.8-3.6,14.2-3.6c5.7,0,10.5,1.3,14.5,4c4,2.6,6.9,6.4,8.8,11.2
			c1.9,4.8,2.6,10.5,2.2,17.1h-12.1v-4.5c0-5.9-1.1-10.3-3.1-13c-2.1-2.7-5.3-4.1-9.7-4.1c-5,0-8.7,1.5-11.1,4.6
			c-2.4,3.1-3.6,7.6-3.6,13.5c0,5.5,1.2,9.8,3.6,12.9c2.4,3,6,4.6,10.6,4.6c3,0,5.6-0.7,7.8-2c2.2-1.3,3.9-3.3,5-5.8l12,3.6
			c-2.1,4.9-5.3,8.8-9.7,11.5C413.6,73.1,408.7,74.4,403.5,74.4z M384.6,49v-9.2h37.6V49H384.6z"/>
		<path class="st0" d="M23.6,194.4v-61.5H0v-11.4h59.4v11.4H35.8v61.5H23.6z"/>
		<path class="st0" d="M67.6,218.7l10.5-28.9l0.2,8.5l-23.8-58.6h12.7l16.9,43.3h-3.2l16.5-43.3h12.2l-30.5,79H67.6z"/>
		<path class="st0" d="M116.9,218.7v-79h10.8v38.4h1.5v40.6H116.9z M143.3,195.9c-5.3,0-9.8-1.3-13.4-3.8c-3.6-2.5-6.3-6-8.2-10.4
			c-1.8-4.4-2.7-9.3-2.7-14.7c0-5.5,0.9-10.4,2.7-14.8c1.8-4.4,4.5-7.8,8-10.3c3.5-2.5,7.9-3.8,13.1-3.8c5.2,0,9.6,1.3,13.4,3.8
			c3.8,2.5,6.7,5.9,8.8,10.3c2.1,4.3,3.1,9.3,3.1,14.8c0,5.5-1,10.4-3.1,14.7s-5,7.8-8.7,10.3C152.7,194.7,148.3,195.9,143.3,195.9z
			 M141.4,185c3.2,0,5.8-0.8,7.8-2.4c2.1-1.6,3.6-3.7,4.6-6.5c1-2.7,1.5-5.7,1.5-9.1c0-3.3-0.5-6.3-1.5-9c-1-2.7-2.6-4.9-4.7-6.5
			c-2.1-1.6-4.8-2.4-8.1-2.4c-3.1,0-5.6,0.8-7.6,2.3c-2,1.5-3.4,3.6-4.3,6.3c-0.9,2.7-1.4,5.8-1.4,9.4c0,3.5,0.5,6.7,1.4,9.4
			c0.9,2.7,2.4,4.8,4.4,6.3C135.5,184.2,138.2,185,141.4,185z"/>
		<path class="st0" d="M204.3,195.9c-5.5,0-10.4-1.2-14.6-3.6c-4.2-2.4-7.5-5.7-9.8-10c-2.3-4.3-3.5-9.1-3.5-14.7
			c0-6,1.1-11.2,3.4-15.6c2.3-4.4,5.5-7.8,9.6-10.3c4.1-2.4,8.8-3.6,14.2-3.6c5.7,0,10.5,1.3,14.5,4c4,2.7,6.9,6.4,8.8,11.2
			c1.9,4.8,2.6,10.5,2.2,17.1h-12.1V166c0-5.9-1.1-10.3-3.1-13c-2.1-2.7-5.3-4.1-9.7-4.1c-5,0-8.7,1.5-11.1,4.6
			c-2.4,3.1-3.6,7.6-3.6,13.5c0,5.5,1.2,9.8,3.6,12.9c2.4,3,6,4.6,10.6,4.6c3,0,5.6-0.7,7.8-2c2.2-1.3,3.9-3.3,5-5.8l12,3.6
			c-2.1,4.9-5.3,8.8-9.7,11.5C214.4,194.6,209.5,195.9,204.3,195.9z M185.4,170.5v-9.2h37.6v9.2H185.4z"/>
		<path class="st0" d="M236.3,149.3v-9.6h34.2v9.6H236.3z M245.1,194.4v-55.5c0-1.4,0.1-2.9,0.2-4.6s0.4-3.3,0.9-5s1.3-3.2,2.6-4.5
			c1.6-1.7,3.2-2.9,5-3.6c1.8-0.7,3.6-1,5.3-1.1c1.8-0.1,3.3-0.1,4.6-0.1h6.8v9.9h-6.3c-2.3,0-4.1,0.6-5.2,1.7
			c-1.1,1.2-1.7,2.7-1.7,4.6v58.2H245.1z"/>
		<path class="st0" d="M292.4,195.9c-3.9,0-7.3-0.8-10-2.3c-2.7-1.5-4.8-3.5-6.2-6c-1.4-2.5-2.1-5.2-2.1-8.3c0-2.6,0.4-5,1.3-7.1
			c0.9-2.1,2.2-3.9,4-5.5c1.8-1.5,4.2-2.8,7.1-3.8c2.2-0.7,4.8-1.3,7.7-1.9c3-0.6,6.2-1.1,9.6-1.6c3.5-0.5,7.1-1,10.9-1.6l-4.4,2.5
			c0-3.8-0.8-6.6-2.5-8.4s-4.6-2.7-8.7-2.7c-2.5,0-4.8,0.6-7.1,1.7c-2.3,1.1-3.9,3.1-4.8,5.9l-11.1-3.5c1.3-4.6,3.9-8.3,7.7-11.1
			c3.8-2.8,8.9-4.2,15.4-4.2c4.9,0,9.1,0.8,12.8,2.4c3.7,1.6,6.4,4.2,8.2,7.8c1,1.9,1.6,3.9,1.8,5.9s0.3,4.2,0.3,6.6v33.6h-10.7
			v-11.8l1.8,1.9c-2.5,3.9-5.3,6.8-8.6,8.7S297.3,195.9,292.4,195.9z M294.8,186.2c2.8,0,5.1-0.5,7.1-1.5c2-1,3.5-2.2,4.7-3.6
			c1.2-1.4,1.9-2.8,2.4-4c0.6-1.6,1-3.3,1.1-5.3c0.1-2,0.1-3.6,0.1-4.9l3.7,1.1c-3.7,0.6-6.8,1.1-9.5,1.5c-2.6,0.4-4.9,0.9-6.8,1.2
			c-1.9,0.4-3.6,0.8-5,1.3c-1.4,0.5-2.6,1.1-3.6,1.8c-1,0.7-1.7,1.5-2.3,2.3c-0.5,0.9-0.8,1.9-0.8,3.1c0,1.4,0.3,2.5,1,3.6
			c0.7,1,1.7,1.8,3,2.5C291.3,185.9,292.9,186.2,294.8,186.2z"/>
		<path class="st0" d="M359.2,195.9c-5.6,0-10.4-1.3-14.4-3.8c-4-2.5-7-5.9-9.1-10.3c-2.1-4.4-3.2-9.3-3.2-14.8
			c0-5.6,1.1-10.6,3.3-14.9s5.3-7.7,9.3-10.2c4-2.5,8.8-3.7,14.3-3.7c6.2,0,11.5,1.6,15.8,4.7c4.3,3.1,7.1,7.4,8.4,12.8l-12.1,3.3
			c-0.9-2.9-2.5-5.2-4.7-6.9c-2.2-1.6-4.7-2.5-7.5-2.5c-3.2,0-5.8,0.8-7.8,2.3c-2.1,1.5-3.6,3.6-4.6,6.2c-1,2.6-1.5,5.6-1.5,9
			c0,5.2,1.2,9.4,3.5,12.6c2.3,3.2,5.8,4.8,10.4,4.8c3.2,0,5.8-0.7,7.7-2.2s3.3-3.6,4.2-6.4l12.5,2.8c-1.7,5.6-4.6,9.8-8.9,12.8
			C370.5,194.4,365.3,195.9,359.2,195.9z"/>
		<path class="st0" d="M417,195.9c-5.5,0-10.4-1.2-14.6-3.6c-4.2-2.4-7.5-5.7-9.8-10c-2.3-4.3-3.5-9.1-3.5-14.7
			c0-6,1.1-11.2,3.4-15.6c2.3-4.4,5.5-7.8,9.6-10.3c4.1-2.4,8.8-3.6,14.2-3.6c5.7,0,10.5,1.3,14.5,4c4,2.7,6.9,6.4,8.8,11.2
			s2.6,10.5,2.2,17.1h-12.1V166c0-5.9-1.1-10.3-3.1-13c-2.1-2.7-5.3-4.1-9.7-4.1c-5,0-8.7,1.5-11.1,4.6c-2.4,3.1-3.6,7.6-3.6,13.5
			c0,5.5,1.2,9.8,3.6,12.9c2.4,3,6,4.6,10.6,4.6c3,0,5.6-0.7,7.8-2c2.2-1.3,3.9-3.3,5-5.8l12,3.6c-2.1,4.9-5.3,8.8-9.7,11.5
			C427.1,194.6,422.3,195.9,417,195.9z M398.2,170.5v-9.2h37.6v9.2H398.2z"/>
	</g>
</g>
</svg>
