<?xml version="1.0" encoding="utf-8"?>
<!-- Generator: Adobe Illustrator 26.3.1, SVG Export Plug-In . SVG Version: 6.00 Build 0)  -->
<svg version="1.1" id="Layer_1" xmlns="http://www.w3.org/2000/svg" xmlns:xlink="http://www.w3.org/1999/xlink" x="0px" y="0px"
	 viewBox="0 0 637.2 261.9" style="enable-background:new 0 0 637.2 261.9;" xml:space="preserve">
<style type="text/css">
	.st0{fill:#4D4D4D;}
</style>
<g>
	<path class="st0" d="M0,94.3L29.1,1.9h22.7l29.1,92.4H65L38.6,11.4H42L15.9,94.3H0z M16.2,74.3V59.9h48.5v14.4H16.2z"/>
	<path class="st0" d="M111.9,96.3c-5,0-9.2-1-12.7-2.9c-3.5-1.9-6.1-4.4-7.9-7.6c-1.8-3.2-2.7-6.7-2.7-10.5c0-3.3,0.6-6.3,1.7-9
		c1.1-2.7,2.8-5,5.1-6.9c2.3-1.9,5.3-3.5,9-4.8c2.8-0.9,6-1.7,9.8-2.4c3.7-0.7,7.8-1.4,12.2-2c4.4-0.6,9-1.3,13.8-2l-5.5,3.1
		c0-4.8-1-8.3-3.2-10.6c-2.2-2.3-5.9-3.4-11-3.4c-3.1,0-6.1,0.7-9,2.2c-2.9,1.5-4.9,4-6.1,7.5l-14.1-4.4c1.7-5.9,5-10.6,9.8-14.1
		c4.8-3.6,11.3-5.3,19.5-5.3c6.2,0,11.6,1,16.3,3c4.7,2,8.2,5.3,10.4,9.9c1.2,2.4,2,4.9,2.2,7.5c0.3,2.5,0.4,5.3,0.4,8.3v42.6h-13.5
		v-15l2.2,2.4c-3.1,5-6.8,8.7-10.9,11S118.1,96.3,111.9,96.3z M114.9,83.9c3.5,0,6.5-0.6,9-1.9c2.5-1.2,4.5-2.8,5.9-4.6
		c1.5-1.8,2.5-3.5,3-5.1c0.8-2,1.3-4.2,1.4-6.8c0.1-2.5,0.2-4.6,0.2-6.2l4.7,1.4c-4.7,0.7-8.7,1.4-12,1.9c-3.3,0.6-6.2,1.1-8.6,1.6
		c-2.4,0.5-4.5,1-6.4,1.6c-1.8,0.6-3.3,1.4-4.6,2.2c-1.2,0.9-2.2,1.8-2.9,3c-0.7,1.1-1,2.4-1,3.9c0,1.7,0.4,3.2,1.3,4.5
		c0.9,1.3,2.1,2.3,3.8,3.1C110.5,83.6,112.5,83.9,114.9,83.9z"/>
	<path class="st0" d="M166.4,94.3V1.9h36.6c6.2,0,11.4,1.3,15.4,3.8c4,2.5,7,5.7,8.9,9.6c1.9,3.9,2.9,7.9,2.9,12.1
		c0,5.1-1.2,9.4-3.6,13c-2.4,3.6-5.7,5.9-9.9,7.2v-3.2c5.8,1.3,10.2,4.1,13.3,8.3c3,4.2,4.5,9,4.5,14.3c0,5.5-1,10.3-3.1,14.4
		c-2.1,4.1-5.2,7.3-9.3,9.6c-4.1,2.3-9.2,3.5-15.3,3.5H166.4z M182.1,38.8h20.8c2.2,0,4.2-0.4,6-1.3c1.8-0.9,3.1-2.1,4.2-3.8
		c1-1.7,1.5-3.7,1.5-6.2c0-3.2-1-5.9-3.1-8c-2.1-2.1-4.9-3.2-8.6-3.2h-20.8V38.8z M182.1,79.8h22.8c2.7,0,5.1-0.5,7.3-1.6
		c2.1-1.1,3.8-2.6,5-4.6c1.2-2,1.8-4.4,1.8-7.1c0-2.5-0.5-4.7-1.6-6.7c-1.1-2-2.6-3.5-4.7-4.7c-2.1-1.2-4.5-1.8-7.4-1.8h-23.2V79.8z
		"/>
	<path class="st0" d="M247.3,94.3V1.9h15.6v43.8H261v48.6H247.3z M280.7,96.3c-6.8,0-12.4-1.6-17-4.8c-4.6-3.2-8-7.6-10.3-13.1
		c-2.3-5.5-3.5-11.8-3.5-18.6c0-7,1.2-13.2,3.5-18.7s5.7-9.9,10.2-13.1c4.5-3.2,10-4.8,16.6-4.8c6.5,0,12.2,1.6,17,4.8
		c4.8,3.2,8.5,7.5,11.2,13c2.7,5.5,4,11.8,4,18.8c0,6.9-1.3,13.2-3.9,18.7c-2.6,5.5-6.3,9.9-11,13.1
		C292.7,94.7,287.1,96.3,280.7,96.3z M278.3,82.4c4,0,7.3-1,9.9-3c2.6-2,4.5-4.7,5.8-8.2c1.3-3.4,1.9-7.3,1.9-11.5
		c0-4.2-0.6-8-1.9-11.5c-1.3-3.4-3.3-6.2-6-8.2c-2.7-2-6.1-3-10.3-3c-3.9,0-7.1,1-9.6,2.9c-2.5,1.9-4.3,4.6-5.5,8
		c-1.2,3.4-1.8,7.4-1.8,11.9c0,4.5,0.6,8.5,1.8,11.9c1.2,3.4,3,6.1,5.6,8C270.9,81.5,274.2,82.4,278.3,82.4z"/>
	<path class="st0" d="M365.6,96.3c-9.2,0-17.2-2-23.7-6.1s-11.6-9.7-15.2-16.9c-3.5-7.2-5.3-15.6-5.3-25.2c0-9.5,1.8-17.9,5.3-25.2
		c3.5-7.2,8.6-12.9,15.2-16.9S356.3,0,365.6,0c10.7,0,19.5,2.7,26.6,8c7.1,5.3,12.1,12.5,15,21.5l-15.6,4.3
		c-1.8-6-4.9-10.8-9.2-14.2c-4.3-3.4-9.9-5.1-16.8-5.1c-6.2,0-11.4,1.4-15.5,4.2c-4.1,2.8-7.2,6.7-9.3,11.7
		c-2.1,5-3.1,10.9-3.2,17.7c0,6.8,1,12.7,3.1,17.7c2.1,5,5.2,8.9,9.3,11.7c4.1,2.8,9.3,4.2,15.5,4.2c6.9,0,12.5-1.7,16.8-5.1
		c4.3-3.4,7.4-8.1,9.2-14.1l15.6,4.3c-2.9,9-7.9,16.2-15,21.5C385.1,93.6,376.2,96.3,365.6,96.3z"/>
	<path class="st0" d="M451.4,96.3c-7.1,0-13.2-1.6-18.3-4.8c-5-3.2-8.9-7.5-11.6-13.1c-2.7-5.5-4-11.8-4.1-18.7
		c0-7.1,1.4-13.4,4.2-18.9c2.8-5.5,6.7-9.8,11.8-13s11.1-4.7,18.2-4.7c7.9,0,14.5,2,20,5.9c5.5,4,9,9.4,10.7,16.2l-15.4,4.2
		c-1.2-3.7-3.2-6.6-6-8.7c-2.8-2.1-5.9-3.1-9.5-3.1c-4,0-7.3,1-9.9,2.9c-2.6,1.9-4.5,4.5-5.8,7.9c-1.2,3.3-1.9,7.1-1.9,11.4
		c0,6.6,1.5,11.9,4.4,16c3,4.1,7.3,6.1,13.2,6.1c4.1,0,7.3-0.9,9.7-2.8c2.4-1.9,4.2-4.6,5.4-8.2l15.8,3.5
		c-2.1,7.1-5.9,12.5-11.2,16.3C465.7,94.4,459.1,96.3,451.4,96.3z"/>
	<path class="st0" d="M22.5,248.4v-75.5L5.1,183.4v-17.1L22.5,156h15.8v92.4H22.5z"/>
	<path class="st0" d="M60.1,248.3v-13.5l39.5-35.2c3.1-2.7,5.2-5.3,6.4-7.8c1.2-2.4,1.8-4.8,1.8-7.1c0-3.1-0.7-5.8-2-8.2
		s-3.2-4.3-5.5-5.7c-2.3-1.4-5-2.1-8.1-2.1c-3.2,0-6,0.7-8.5,2.2c-2.5,1.5-4.4,3.4-5.7,5.9c-1.4,2.4-2,5.1-1.9,7.9H60.2
		c0-6.2,1.4-11.5,4.1-16.1c2.8-4.6,6.6-8.1,11.4-10.7c4.9-2.5,10.5-3.8,16.8-3.8c5.9,0,11.2,1.3,15.9,3.9c4.7,2.6,8.4,6.3,11.1,10.9
		c2.7,4.6,4,10,4,16c0,4.4-0.6,8.1-1.8,11.1c-1.2,3-3,5.8-5.4,8.3s-5.3,5.3-8.8,8.4l-28,24.8l-1.4-3.8h45.4v14.6H60.1z"/>
	<path class="st0" d="M165.5,250.1c-4.6,0-9-0.9-13.1-2.7s-7.7-4.3-10.7-7.6c-3-3.3-5.2-7.2-6.5-11.7l15-4c1.1,3.7,3,6.5,5.9,8.5
		s6,3,9.4,2.9c3,0,5.8-0.7,8.2-2.1c2.4-1.4,4.3-3.3,5.6-5.7c1.4-2.4,2.1-5.1,2.1-8.1c0-4.6-1.5-8.4-4.4-11.5s-6.8-4.6-11.4-4.6
		c-1.4,0-2.8,0.2-4.1,0.6c-1.3,0.4-2.6,0.9-3.9,1.6l-7.1-12.2l31.1-26.6l1.3,3.7h-44V156h56.7v14.6l-25,24l-0.1-4.6
		c5.6,0.4,10.4,1.9,14.3,4.7c4,2.7,7,6.3,9.1,10.6c2.1,4.3,3.2,9,3.2,14.2c0,5.8-1.4,11-4.3,15.7c-2.8,4.6-6.7,8.3-11.4,10.9
		C176.6,248.8,171.3,250.1,165.5,250.1z"/>
	<path class="st0" d="M252.1,248.4v-15.3h-40.9v-14.4l29.6-62.7h17.6l-29.6,62.7h23.3v-24.1h15.7v24.1h8.7v14.4h-8.7v15.3H252.1z"/>
	<path class="st0" d="M341.3,261.9c-7.1,0-13.6-1.1-19.5-3.4c-5.9-2.3-11-5.5-15.3-9.7s-7.6-9.1-9.9-14.7s-3.5-11.8-3.5-18.5
		c0-8.3,1.3-15.6,3.8-21.8s6-11.5,10.4-15.6s9.5-7.3,15.3-9.4c5.8-2.1,11.8-3.1,18.3-3.1c8.2,0,15.3,1.2,21.5,3.7
		s11.3,5.9,15.4,10.2c4.1,4.3,7.2,9.2,9.2,14.7c2,5.5,3,11.3,2.9,17.5c-0.1,8.4-1.8,14.9-4.9,19.5c-3.2,4.6-8.4,6.9-15.7,6.9
		c-3.5,0-6.8-0.8-9.9-2.4c-3.1-1.6-5.3-4-6.5-7.1l4,0.1c-1.8,3.4-4.3,5.7-7.4,7.1c-3.1,1.3-6.2,2-9.4,2c-4.5,0-8.5-1-12-3
		c-3.5-2-6.2-4.8-8.2-8.3c-2-3.6-3-7.7-3-12.4c0-4.8,1-9,3.1-12.6c2.1-3.6,4.9-6.3,8.4-8.2c3.6-1.9,7.5-2.9,11.9-2.9
		c2.8,0,5.7,0.6,8.7,1.7c3,1.1,5.4,2.7,7.1,4.6l-2.6,3.5v-8h9.5l-0.2,24.2c0,3.3,0.6,5.7,1.7,7.2c1.2,1.5,2.8,2.3,4.9,2.3
		c2.2,0,3.9-0.6,4.9-1.9c1-1.2,1.7-2.9,2-5c0.3-2.1,0.5-4.5,0.5-7.1c0.1-6.7-1-12.3-3.2-16.7c-2.2-4.4-5.1-7.9-8.6-10.4
		c-3.6-2.6-7.4-4.4-11.5-5.5c-4.1-1.1-8-1.6-11.6-1.6c-5.8,0-10.9,0.9-15.4,2.7c-4.5,1.8-8.3,4.3-11.4,7.6s-5.4,7.2-6.9,11.8
		c-1.5,4.6-2.2,9.7-2.1,15.3c0.2,5.5,1.1,10.4,2.9,14.6c1.8,4.3,4.2,7.9,7.4,10.9c3.2,3,6.9,5.2,11.2,6.8c4.3,1.5,9.1,2.3,14.3,2.3
		c2.7,0,5.3-0.3,7.9-0.8c2.6-0.5,5.1-1.2,7.3-2.2l4,11.4c-3.1,1.2-6.3,2.1-9.7,2.7C348.2,261.5,344.8,261.9,341.3,261.9z
		 M340.9,225.5c2.9,0,5.4-0.8,7.4-2.5c2-1.7,3-4.6,3-8.9c0-3.8-0.9-6.6-2.6-8.6c-1.7-1.9-4.2-2.9-7.4-2.9c-3.9,0-6.8,1-8.7,3.1
		c-1.9,2.1-2.9,4.9-2.9,8.4c0,3.6,1,6.3,2.9,8.4C334.7,224.5,337.4,225.5,340.9,225.5z"/>
	<path class="st0" d="M415.5,225.3V156H431v69.3H415.5z M415.5,248.4v-14.2H431v14.2H415.5z"/>
	<path class="st0" d="M477.2,200.2c-4.2,0-8.1-1-11.6-3.1c-3.5-2.1-6.3-4.9-8.4-8.3c-2.1-3.5-3.1-7.4-3.1-11.6c0-4.2,1.1-8,3.2-11.6
		c2.1-3.5,5-6.3,8.5-8.4c3.5-2.1,7.3-3.1,11.4-3.1c4.2,0,8.1,1,11.6,3.1c3.5,2.1,6.3,4.9,8.4,8.3c2.1,3.5,3.1,7.4,3.1,11.6
		s-1,8.2-3.1,11.6c-2.1,3.5-4.9,6.3-8.4,8.3C485.3,199.2,481.4,200.2,477.2,200.2z M468.2,248.4l-10.3-10.3l82.2-82.2l10.3,10.3
		L468.2,248.4z M477.2,187c1.8,0,3.4-0.4,4.9-1.3c1.5-0.9,2.7-2.1,3.6-3.6s1.3-3.1,1.3-4.9c0-1.8-0.4-3.4-1.3-4.9
		c-0.9-1.5-2.1-2.7-3.6-3.6c-1.5-0.9-3.1-1.3-4.9-1.3s-3.4,0.4-4.9,1.3c-1.5,0.9-2.7,2.1-3.6,3.6c-0.9,1.5-1.3,3.1-1.3,4.9
		c0,1.8,0.4,3.4,1.3,4.9s2.1,2.7,3.6,3.6C473.7,186.6,475.4,187,477.2,187z M531.2,250.3c-4.2,0-8.1-1-11.6-3.1
		c-3.5-2.1-6.3-4.9-8.4-8.3c-2.1-3.5-3.1-7.4-3.1-11.6c0-4.2,1.1-8,3.2-11.6c2.1-3.5,5-6.3,8.5-8.4c3.5-2.1,7.3-3.1,11.4-3.1
		c4.2,0,8.1,1,11.6,3.1c3.5,2.1,6.3,4.9,8.4,8.3c2.1,3.5,3.1,7.4,3.1,11.6s-1,8.2-3.1,11.6c-2.1,3.5-4.9,6.3-8.4,8.3
		C539.3,249.3,535.4,250.3,531.2,250.3z M531.2,237.1c1.8,0,3.4-0.4,4.9-1.3s2.7-2.1,3.6-3.6c0.9-1.5,1.3-3.1,1.3-4.9
		s-0.4-3.4-1.3-4.9c-0.9-1.5-2.1-2.7-3.6-3.6s-3.2-1.3-4.9-1.3c-1.8,0-3.4,0.4-4.9,1.3c-1.5,0.9-2.7,2.1-3.6,3.6
		c-0.9,1.5-1.4,3.1-1.4,4.9s0.5,3.4,1.4,4.9c0.9,1.5,2.1,2.7,3.6,3.6C527.7,236.6,529.4,237.1,531.2,237.1z"/>
	<path class="st0" d="M575.5,184.8l30.7-30.9l30.9,30.8l-9.6,9.6l-21.4-21.9l-21.2,21.9L575.5,184.8z"/>
</g>
</svg>
