<?xml version="1.0" encoding="UTF-8"?>
<svg id="Layer_1" xmlns="http://www.w3.org/2000/svg" version="1.1" viewBox="0 0 1557.79 690.55">
  <!-- Generator: Adobe Illustrator 29.5.0, SVG Export Plug-In . SVG Version: 2.1.0 Build 137)  -->
  <defs>
    <style>
      .st0 {
        stroke: #a7a9ac;
        stroke-width: 3px;
      }

      .st0, .st1, .st2, .st3, .st4 {
        fill: none;
        stroke-miterlimit: 10;
      }

      .st5 {
        opacity: .3;
      }

      .st6 {
        fill: #fff;
      }

      .st1, .st2, .st3, .st4 {
        stroke: #fff;
      }

      .st2 {
        stroke-dasharray: 8.08 8.08;
      }

      .st3 {
        stroke-dasharray: 8 8;
      }

      .st4 {
        stroke-dasharray: 8;
      }
    </style>
  </defs>
  <path class="st0" d="M386.9,156.91l-203.53,75.1c-14.52,5.36-24.94,18.25-27.13,33.57,0,0-14.34,100.22-18.92,132.19l-1.3,9.12c1.57-10.97,23.1-18.3,23.1-18.3l101.11-37.31,108.43-40.01c14.52-5.36,24.94-18.25,27.13-33.57l14.57-101.82c1.88-13.17-10.98-23.57-23.46-18.96Z"/>
  <path class="st0" d="M353.16,420.36l-92.81-69.12-101.18,37.63s-21.53,7.33-23.1,18.3l-.08.56-.44,3.08c-1.64,11.49,3.14,22.96,12.47,29.87l179.38,132.92c10.69,7.92,25.95,1.54,27.84-11.62l14.57-101.78c2.19-15.33-4.19-30.62-16.63-39.83Z"/>
  <g>
    <line class="st1" x1="432.99" y1="17.73" x2="432.42" y2="21.69"/>
    <line class="st2" x1="431.28" y1="29.69" x2="340.25" y2="665.8"/>
    <line class="st1" x1="339.68" y1="669.8" x2="339.11" y2="673.76"/>
    <polygon class="st6" points="428.47 20.43 429.1 21.21 432.93 18.11 435.75 22.16 436.57 21.59 433.14 16.66 428.47 20.43"/>
    <polygon class="st6" points="335.53 669.9 336.35 669.33 339.16 673.38 343 670.28 343.63 671.06 338.96 674.83 335.53 669.9"/>
  </g>
  <g>
    <line class="st1" x1="191.65" y1="17.73" x2="191.08" y2="21.69"/>
    <line class="st2" x1="189.93" y1="29.69" x2="98.9" y2="665.8"/>
    <line class="st1" x1="98.33" y1="669.8" x2="97.77" y2="673.76"/>
    <polygon class="st6" points="187.13 20.43 187.76 21.21 191.59 18.11 194.4 22.16 195.22 21.59 191.8 16.66 187.13 20.43"/>
    <polygon class="st6" points="94.19 669.9 95.01 669.33 97.82 673.38 101.65 670.28 102.28 671.06 97.61 674.83 94.19 669.9"/>
  </g>
  <g>
    <line class="st3" x1="15.92" y1="293.8" x2="548.83" y2="97.16"/>
    <polygon class="st6" points="20.45 296.49 20.83 295.57 16.28 293.67 18.51 289.27 17.62 288.82 14.91 294.18 20.45 296.49"/>
    <polygon class="st6" points="547.13 102.14 546.24 101.69 548.47 97.29 543.92 95.4 544.3 94.47 549.85 96.79 547.13 102.14"/>
  </g>
  <g>
    <line class="st3" x1="15.92" y1="441.28" x2="548.83" y2="244.64"/>
    <polygon class="st6" points="20.45 443.97 20.83 443.05 16.28 441.15 18.51 436.75 17.62 436.3 14.91 441.66 20.45 443.97"/>
    <polygon class="st6" points="547.13 249.62 546.24 249.17 548.47 244.77 543.92 242.88 544.3 241.95 549.85 244.27 547.13 249.62"/>
  </g>
  <g>
    <line class="st3" x1="419.2" y1="469.54" x2="238.8" y2="335.19"/>
    <polygon class="st6" points="418.98 464.28 418 464.46 418.89 469.31 413.99 469.85 414.1 470.84 420.07 470.19 418.98 464.28"/>
    <polygon class="st6" points="243.9 333.88 244.01 334.88 239.11 335.41 240 340.26 239.01 340.44 237.93 334.54 243.9 333.88"/>
  </g>
  <g>
    <line class="st3" x1="419.2" y1="642.22" x2="39.07" y2="359.11"/>
    <polygon class="st6" points="418.98 636.96 418 637.14 418.89 641.99 413.99 642.53 414.1 643.52 420.07 642.87 418.98 636.96"/>
    <polygon class="st6" points="44.17 357.81 44.28 358.81 39.37 359.34 40.27 364.19 39.28 364.37 38.2 358.46 44.17 357.81"/>
  </g>
  <circle class="st4" cx="199.51" cy="273.26" r="44.42"/>
  <circle class="st4" cx="325.46" cy="455.17" r="44.42"/>
  <circle class="st4" cx="352.4" cy="270.07" r="44.42"/>
  <circle class="st4" cx="165.91" cy="415.72" r="30.69"/>
  <circle class="st4" cx="337.17" cy="558.49" r="18.58"/>
  <circle class="st4" cx="391.96" cy="174.39" r="18.58"/>
  <g class="st5">
    <g>
      <path class="st6" d="M593.27,388.82c6.8,4.25,12.32,10.83,16.78,19.11l23.36,44.6c4.03,7.01,1.06,11.04-5.31,11.04h-14.02c-5.31,0-8.71-1.91-11.04-6.8l-16.99-35.68c-4.46-9.13-11.47-19.96-22.09-19.96h-23.79l-7.43,52.88c-.85,6.8-4.46,9.56-11.04,9.56h-9.13c-5.73,0-8.49-3.4-7.65-9.77l18.05-130.18c.64-5.95,3.61-8.71,9.77-8.71h10.19c6.37,0,8.71,3.4,7.86,9.34l-7.22,52.03h21.45c13.17,0,22.72-12.74,28.46-20.39l26.97-35.47c2.97-3.82,5.73-5.52,11.26-5.52h12.74c7.43,0,9.34,5.52,5.1,10.83l-33.98,42.05c-7.65,9.56-12.74,15.72-22.3,21.02Z"/>
      <path class="st6" d="M658.89,433.84l-1.49-77.73c0-5.95,2.97-9.34,8.92-9.34h9.13c5.73,0,8.92,3.4,8.92,9.34l1.49,72.63c.21,9.13,3.19,12.96,9.13,12.96s10.19-3.4,12.96-12.53l22.09-74.54c1.49-5.1,5.31-7.86,10.83-7.86h25.7c5.95,0,9.34,3.4,9.34,9.34l.42,72.63c.21,9.13,3.61,12.96,9.77,12.96,5.73,0,9.98-3.82,12.96-12.96l21.02-73.91c1.49-5.31,4.67-8.07,10.19-8.07h9.77c6.58,0,9.34,4.04,7.65,10.41l-23.57,76.67c-7.65,25.7-24.85,32.07-41.62,32.07-14.44,0-31.22-6.37-31.01-32.07l.21-63.71h-1.91l-18.48,63.71c-7.43,25.49-24.21,32.07-40.99,32.07-13.8,0-31.01-6.16-31.43-32.07Z"/>
      <path class="st6" d="M969.37,454.86c-.85,5.95-4.46,8.71-10.19,8.71h-4.88c-5.73,0-9.34-3.19-9.98-8.5v-9.98c-13.38,14.44-28.25,20.6-45.45,20.6-25.7,0-43.11-14.23-43.11-49.48,0-40.14,21.66-71.57,68.38-71.57,17.2,0,33.13,2.97,48.63,8.07,5.95,1.91,9.56,7.65,8.71,14.65l-12.11,87.5ZM947.07,419.61l6.58-46.72c-11.89-3.61-20.17-4.46-28.46-4.46-30.58,0-41.2,19.75-41.2,44.81,0,18.26,6.16,28.25,22.94,28.25,13.38,0,25.48-5.1,40.14-21.87Z"/>
      <path class="st6" d="M1191.93,389.67l-8.92,65.2c-.85,5.95-4.46,8.71-10.19,8.71h-8.28c-6.16,0-9.56-3.4-8.71-9.98l8.71-61.16c2.12-16.14-3.19-23.36-18.48-23.36-10.19,0-19.33,3.61-32.07,17.63v.21l-9.34,67.96c-.64,5.95-4.25,8.71-10.19,8.71h-8.07c-6.37,0-9.56-3.4-8.71-9.98l8.5-61.16c2.34-16.14-2.97-23.36-18.26-23.36-10.62,0-21.03,4.67-33.34,19.33l-9.34,66.47c-.64,5.95-4.25,8.71-9.98,8.71h-8.28c-6.37,0-9.56-3.4-8.71-9.98l13.59-98.12c.85-5.95,3.4-8.71,9.34-8.71h6.16c5.52,0,8.71,2.97,9.34,8.92.21,2.55.42,4.88.42,6.8,12.96-12.95,26.76-17.84,42.69-17.84s27.4,6.8,32.07,18.48c13.38-13.59,27.4-18.48,44.6-18.48,25.91,0,39.93,13.17,35.47,45.02Z"/>
      <path class="st6" d="M1334,356.75l-13.59,98.12c-.85,5.95-4.46,8.71-10.19,8.71h-4.88c-5.73,0-9.13-2.76-9.98-8.5-.21-2.97-.42-5.52-.42-7.86-12.74,13.17-26.76,18.48-44.6,18.48-27.61,0-39.5-17.2-35.68-45.24l8.92-64.99c.64-5.95,4.25-8.71,9.98-8.71h8.5c6.16,0,9.34,3.4,8.49,9.98l-8.28,59.68c-2.34,16.57,1.7,25.06,18.48,25.06,12.95,0,26.12-5.73,36.95-20.39l9.34-65.62c.64-5.95,4.25-8.71,9.98-8.71h8.28c6.37,0,9.56,3.4,8.71,9.98Z"/>
      <path class="st6" d="M1435.72,369.7h-8.28c-18.48,0-30.16,4.67-41.84,20.81l-9.13,64.35c-.64,5.95-4.25,8.71-9.98,8.71h-8.28c-6.37,0-9.56-3.4-8.71-9.98l13.59-98.12c.85-5.95,4.25-8.71,9.98-8.71h5.1c5.73,0,9.13,2.97,9.77,8.92.42,3.4.42,6.37.64,8.71,11.89-13.38,24.85-18.69,42.47-18.69h3.4c5.95,0,9.56,3.19,9.56,9.13l.21,5.31c.21,6.16-2.76,9.56-8.5,9.56Z"/>
      <path class="st6" d="M1448.25,453.59l13.59-98.12c.64-5.95,4.25-8.71,10.19-8.71h8.07c6.37,0,9.56,3.4,8.71,9.98l-13.59,98.12c-.64,5.95-4.46,8.71-10.19,8.71h-8.07c-6.37,0-9.56-3.4-8.71-9.98ZM1463.75,317.25c0-10.41,6.37-17.41,19.54-17.41,10.41,0,15.29,4.88,15.29,12.95,0,10.62-6.16,17.63-19.54,17.63-10.41,0-15.29-4.88-15.29-13.17Z"/>
    </g>
  </g>
  <g>
    <line class="st3" x1="501.25" y1="314.91" x2="1541.46" y2="314.91"/>
    <polygon class="st6" points="504.56 319 505.24 318.27 501.63 314.91 505.24 311.55 504.56 310.82 500.16 314.91 504.56 319"/>
    <polygon class="st6" points="1538.14 319 1537.46 318.27 1541.07 314.91 1537.46 311.55 1538.14 310.82 1542.54 314.91 1538.14 319"/>
  </g>
  <g>
    <line class="st3" x1="659.3" y1="344.64" x2="1533.56" y2="344.64"/>
    <polygon class="st6" points="662.62 348.73 663.3 348 659.69 344.64 663.3 341.29 662.62 340.55 658.22 344.64 662.62 348.73"/>
    <polygon class="st6" points="1530.25 348.73 1529.56 348 1533.18 344.64 1529.56 341.29 1530.25 340.55 1534.64 344.64 1530.25 348.73"/>
  </g>
  <g>
    <line class="st3" x1="478.43" y1="463.57" x2="1518.64" y2="463.57"/>
    <polygon class="st6" points="481.74 467.66 482.43 466.93 478.81 463.57 482.43 460.22 481.74 459.48 477.35 463.57 481.74 467.66"/>
    <polygon class="st6" points="1515.33 467.66 1514.64 466.93 1518.26 463.57 1514.64 460.22 1515.33 459.48 1519.72 463.57 1515.33 467.66"/>
  </g>
</svg>