<?xml version="1.0" encoding="UTF-8"?>
<svg id="Layer_1" xmlns="http://www.w3.org/2000/svg" version="1.1" xmlns:xlink="http://www.w3.org/1999/xlink" viewBox="0 0 1359.91 467.15">
  <!-- Generator: Adobe Illustrator 29.5.0, SVG Export Plug-In . SVG Version: 2.1.0 Build 137)  -->
  <defs>
    <style>
      .st0 {
        fill: url(#linear-gradient1);
      }

      .st1 {
        fill: url(#linear-gradient);
      }

      .st2 {
        fill: #006891;
      }
    </style>
    <linearGradient id="linear-gradient" x1="434.9" y1="-690.24" x2="525.73" y2="-528.69" gradientTransform="translate(-417 851.49) rotate(8.14)" gradientUnits="userSpaceOnUse">
      <stop offset="0" stop-color="#3c560d"/>
      <stop offset=".03" stop-color="#435e13"/>
      <stop offset=".11" stop-color="#567423"/>
      <stop offset=".21" stop-color="#65852f"/>
      <stop offset=".34" stop-color="#6f9137"/>
      <stop offset=".51" stop-color="#75983c"/>
      <stop offset="1" stop-color="#779a3e"/>
    </linearGradient>
    <linearGradient id="linear-gradient1" x1="352.94" y1="-776.28" x2="584.6" y2="-776.28" gradientTransform="translate(-417 851.49) rotate(8.14)" gradientUnits="userSpaceOnUse">
      <stop offset=".07" stop-color="#30bcd3"/>
      <stop offset=".16" stop-color="#21a8cb"/>
      <stop offset=".28" stop-color="#1396c5"/>
      <stop offset=".42" stop-color="#0989c0"/>
      <stop offset=".61" stop-color="#0382bd"/>
      <stop offset="1" stop-color="#0280bd"/>
    </linearGradient>
  </defs>
  <g>
    <path class="st1" d="M239.25,287.35l-92.88-68.8-101.11,37.31s-21.53,7.33-23.1,18.3l-.08.56-.44,3.08c-1.64,11.49,3.14,22.96,12.47,29.87l179.38,132.92c10.69,7.92,25.95,1.54,27.84-11.62l14.57-101.78c2.19-15.33-4.19-30.62-16.63-39.83Z"/>
    <path class="st0" d="M273.03,24.18L69.5,99.29c-14.52,5.36-24.94,18.25-27.13,33.57,0,0-14.34,100.22-18.92,132.19l-1.3,9.12c1.57-10.97,23.1-18.3,23.1-18.3l101.11-37.31,108.43-40.01c14.52-5.36,24.94-18.25,27.13-33.57l14.57-101.82c1.88-13.17-10.98-23.57-23.46-18.96Z"/>
  </g>
  <g>
    <path class="st2" d="M434.27,231.41c6.8,4.25,12.32,10.83,16.78,19.11l23.36,44.6c4.03,7.01,1.06,11.04-5.31,11.04h-14.02c-5.31,0-8.71-1.91-11.04-6.8l-16.99-35.68c-4.46-9.13-11.47-19.96-22.09-19.96h-23.79l-7.43,52.88c-.85,6.8-4.46,9.56-11.04,9.56h-9.13c-5.73,0-8.49-3.4-7.65-9.77l18.05-130.18c.64-5.95,3.61-8.71,9.77-8.71h10.19c6.37,0,8.71,3.4,7.86,9.34l-7.22,52.03h21.45c13.17,0,22.72-12.74,28.46-20.39l26.97-35.47c2.97-3.82,5.73-5.52,11.26-5.52h12.74c7.43,0,9.34,5.52,5.1,10.83l-33.98,42.05c-7.65,9.56-12.74,15.72-22.3,21.02Z"/>
    <path class="st2" d="M499.89,276.43l-1.49-77.73c0-5.95,2.97-9.34,8.92-9.34h9.13c5.73,0,8.92,3.4,8.92,9.34l1.49,72.63c.21,9.13,3.19,12.96,9.13,12.96s10.19-3.4,12.96-12.53l22.09-74.54c1.49-5.1,5.31-7.86,10.83-7.86h25.7c5.95,0,9.34,3.4,9.34,9.34l.42,72.63c.21,9.13,3.61,12.96,9.77,12.96,5.73,0,9.98-3.82,12.96-12.96l21.02-73.91c1.49-5.31,4.67-8.07,10.19-8.07h9.77c6.58,0,9.34,4.04,7.65,10.41l-23.57,76.67c-7.65,25.7-24.85,32.07-41.62,32.07-14.44,0-31.22-6.37-31.01-32.07l.21-63.71h-1.91l-18.48,63.71c-7.43,25.49-24.21,32.07-40.99,32.07-13.8,0-31.01-6.16-31.43-32.07Z"/>
    <path class="st2" d="M810.38,297.46c-.85,5.95-4.46,8.71-10.19,8.71h-4.88c-5.73,0-9.34-3.19-9.98-8.5v-9.98c-13.38,14.44-28.25,20.6-45.45,20.6-25.7,0-43.11-14.23-43.11-49.48,0-40.14,21.66-71.57,68.38-71.57,17.2,0,33.13,2.97,48.63,8.07,5.95,1.91,9.56,7.65,8.71,14.65l-12.11,87.5ZM788.08,262.21l6.58-46.72c-11.89-3.61-20.17-4.46-28.46-4.46-30.58,0-41.2,19.75-41.2,44.81,0,18.26,6.16,28.25,22.94,28.25,13.38,0,25.48-5.1,40.14-21.87Z"/>
    <path class="st2" d="M1032.94,232.26l-8.92,65.2c-.85,5.95-4.46,8.71-10.19,8.71h-8.28c-6.16,0-9.56-3.4-8.71-9.98l8.71-61.16c2.12-16.14-3.19-23.36-18.48-23.36-10.19,0-19.33,3.61-32.07,17.63v.21l-9.34,67.96c-.64,5.95-4.25,8.71-10.19,8.71h-8.07c-6.37,0-9.56-3.4-8.71-9.98l8.5-61.16c2.34-16.14-2.97-23.36-18.26-23.36-10.62,0-21.03,4.67-33.34,19.33l-9.34,66.47c-.64,5.95-4.25,8.71-9.98,8.71h-8.28c-6.37,0-9.56-3.4-8.71-9.98l13.59-98.12c.85-5.95,3.4-8.71,9.34-8.71h6.16c5.52,0,8.71,2.97,9.34,8.92.21,2.55.42,4.88.42,6.8,12.96-12.95,26.76-17.84,42.69-17.84s27.4,6.8,32.07,18.48c13.38-13.59,27.4-18.48,44.6-18.48,25.91,0,39.93,13.17,35.47,45.02Z"/>
    <path class="st2" d="M1175.01,199.34l-13.59,98.12c-.85,5.95-4.46,8.71-10.19,8.71h-4.88c-5.73,0-9.13-2.76-9.98-8.5-.21-2.97-.42-5.52-.42-7.86-12.74,13.17-26.76,18.48-44.6,18.48-27.61,0-39.5-17.2-35.68-45.24l8.92-64.99c.64-5.95,4.25-8.71,9.98-8.71h8.5c6.16,0,9.34,3.4,8.49,9.98l-8.28,59.68c-2.34,16.57,1.7,25.06,18.48,25.06,12.95,0,26.12-5.73,36.95-20.39l9.34-65.62c.64-5.95,4.25-8.71,9.98-8.71h8.28c6.37,0,9.56,3.4,8.71,9.98Z"/>
    <path class="st2" d="M1276.73,212.3h-8.28c-18.48,0-30.16,4.67-41.84,20.81l-9.13,64.35c-.64,5.95-4.25,8.71-9.98,8.71h-8.28c-6.37,0-9.56-3.4-8.71-9.98l13.59-98.12c.85-5.95,4.25-8.71,9.98-8.71h5.1c5.73,0,9.13,2.97,9.77,8.92.42,3.4.42,6.37.64,8.71,11.89-13.38,24.85-18.69,42.47-18.69h3.4c5.95,0,9.56,3.19,9.56,9.13l.21,5.31c.21,6.16-2.76,9.56-8.5,9.56Z"/>
    <path class="st2" d="M1289.26,296.19l13.59-98.12c.64-5.95,4.25-8.71,10.19-8.71h8.07c6.37,0,9.56,3.4,8.71,9.98l-13.59,98.12c-.64,5.95-4.46,8.71-10.19,8.71h-8.07c-6.37,0-9.56-3.4-8.71-9.98ZM1304.76,159.84c0-10.41,6.37-17.41,19.54-17.41,10.41,0,15.29,4.88,15.29,12.95,0,10.62-6.16,17.63-19.54,17.63-10.41,0-15.29-4.88-15.29-13.17Z"/>
  </g>
</svg>