<?xml version="1.0" encoding="UTF-8"?>
<svg id="Layer_1" xmlns="http://www.w3.org/2000/svg" version="1.1" xmlns:xlink="http://www.w3.org/1999/xlink" viewBox="0 0 472.4 472.4">
  <!-- Generator: Adobe Illustrator 29.5.0, SVG Export Plug-In . SVG Version: 2.1.0 Build 137)  -->
  <defs>
    <style>
      .st0 {
        fill: url(#linear-gradient1);
      }

      .st1 {
        fill: url(#linear-gradient);
      }
    </style>
    <linearGradient id="linear-gradient" x1="563.44" y1="-973.2" x2="654.27" y2="-811.65" gradientTransform="translate(-507.13 1116.01) rotate(8.14)" gradientUnits="userSpaceOnUse">
      <stop offset="0" stop-color="#3c560d"/>
      <stop offset=".03" stop-color="#435e13"/>
      <stop offset=".11" stop-color="#567423"/>
      <stop offset=".21" stop-color="#65852f"/>
      <stop offset=".34" stop-color="#6f9137"/>
      <stop offset=".51" stop-color="#75983c"/>
      <stop offset="1" stop-color="#779a3e"/>
    </linearGradient>
    <linearGradient id="linear-gradient1" x1="481.49" y1="-1059.24" x2="713.14" y2="-1059.24" gradientTransform="translate(-507.13 1116.01) rotate(8.14)" gradientUnits="userSpaceOnUse">
      <stop offset=".07" stop-color="#30bcd3"/>
      <stop offset=".16" stop-color="#21a8cb"/>
      <stop offset=".28" stop-color="#1396c5"/>
      <stop offset=".42" stop-color="#0989c0"/>
      <stop offset=".61" stop-color="#0382bd"/>
      <stop offset="1" stop-color="#0280bd"/>
    </linearGradient>
  </defs>
  <path class="st1" d="M316.45,289.98l-92.88-68.8-101.11,37.31s-21.53,7.33-23.1,18.3l-.08.56-.44,3.08c-1.64,11.49,3.14,22.96,12.47,29.87l179.38,132.92c10.69,7.92,25.95,1.54,27.84-11.62l14.57-101.78c2.19-15.33-4.19-30.62-16.63-39.83Z"/>
  <path class="st0" d="M350.23,26.81l-203.53,75.1c-14.52,5.36-24.94,18.25-27.13,33.57,0,0-14.34,100.22-18.92,132.19l-1.3,9.12c1.57-10.97,23.1-18.3,23.1-18.3l101.11-37.31,108.43-40.01c14.52-5.36,24.94-18.25,27.13-33.57l14.57-101.82c1.88-13.17-10.98-23.57-23.46-18.96Z"/>
</svg>