<?xml version="1.0" encoding="utf-8"?>
<!-- Generator: Adobe Illustrator 24.0.2, SVG Export Plug-In . SVG Version: 6.00 Build 0)  -->
<svg version="1.1" id="Layer_1" xmlns="http://www.w3.org/2000/svg" xmlns:xlink="http://www.w3.org/1999/xlink" x="0px" y="0px"
	 viewBox="0 0 144.2 55.1" style="enable-background:new 0 0 144.2 55.1;" xml:space="preserve">
<style type="text/css">
	.st0{fill:none;}
	.st1{fill:#003060;}
	.st2{fill:#34B4EE;}
</style>
<g>
	<line class="st0" x1="86.1" y1="52.1" x2="86.1" y2="52.1"/>
	<path class="st1" d="M133.5,0v52.1c0,0,4.8-0.2,10.7,0V11C144.2,5,139.4,0.2,133.5,0z"/>
	<path class="st1" d="M108.4,32.1l10.7-14.5l0.2-0.3l0,0c1.3-1.8,2-4,2-6.3c0-0.1,0-0.2,0-0.3c-0.1-3.4-1.7-6.4-4.2-8.4
		c-1.9-1.5-4.2-2.3-6.8-2.3H91.1v10.7h19.8L104,20L93.3,34.6c-1.4,1.8-2.2,4.1-2.2,6.6c0,0.1,0,0.2,0,0.3c0.1,3.4,1.7,6.4,4.2,8.4
		c1.8,1.4,4,2.3,6.5,2.3h19.6V41.4h-19.8L108.4,32.1z"/>
	<g>
		<circle class="st2" cx="57" cy="48.5" r="6.6"/>
		<path class="st1" d="M83.9,52.1H73.2L61.7,20.9L57,8.2l-4.7,12.7L40.7,52.1H30L46.5,7.5l0.3-0.7c1.3-3.1,4-5.5,7.3-6.4
			C55,0.1,56,0,57,0s2,0.1,2.9,0.4c3.3,0.9,6,3.3,7.3,6.4l0.3,0.7L83.9,52.1z"/>
		<path class="st1" d="M37.4,7.5l-0.3-0.7c-1.3-3.1-4-5.5-7.3-6.4C28.9,0.1,28,0,27,0s-2,0.1-2.9,0.4c-3.3,0.9-6,3.3-7.3,6.4
			l-0.3,0.7L0,52.1h10.7l11.6-31.2L27,8.2L32,22L37.4,7.5L37.4,7.5z"/>
	</g>
</g>
</svg>
