<?xml version="1.0" encoding="utf-8"?>
<!-- Generator: Adobe Illustrator 26.3.1, SVG Export Plug-In . SVG Version: 6.00 Build 0)  -->
<svg version="1.1" id="Layer_1" xmlns="http://www.w3.org/2000/svg" xmlns:xlink="http://www.w3.org/1999/xlink" x="0px" y="0px"
	 viewBox="0 0 260.9 55.1" style="enable-background:new 0 0 260.9 55.1;" xml:space="preserve">
<style type="text/css">
	.st0{enable-background:new    ;}
	.st1{fill:#34B4EE;}
	.st2{fill:none;}
	.st3{fill:#003060;}
</style>
<g>
	<g class="st0">
		<path class="st1" d="M169.1,36.1V15.4h8.1c1.2,0,2.3,0.3,3.2,0.8c0.9,0.5,1.5,1.2,2,2c0.5,0.8,0.7,1.7,0.7,2.7
			c0,1.1-0.3,2.1-0.9,2.9s-1.3,1.4-2.3,1.7l0-0.7c1.3,0.4,2.4,1,3.1,2c0.7,0.9,1.1,2.1,1.1,3.4c0,1.2-0.2,2.2-0.7,3.1
			c-0.5,0.9-1.2,1.6-2.1,2.1c-0.9,0.5-2,0.7-3.3,0.7H169.1z M171.7,24h5.4c0.6,0,1.2-0.1,1.7-0.4c0.5-0.3,0.9-0.6,1.2-1.1
			s0.4-1,0.4-1.7c0-0.9-0.3-1.6-0.9-2.2c-0.6-0.6-1.4-0.8-2.4-0.8h-5.4V24z M171.7,33.6h5.7c0.8,0,1.4-0.1,2.1-0.4
			c0.6-0.3,1.1-0.7,1.4-1.2c0.3-0.5,0.5-1.1,0.5-1.9c0-0.7-0.2-1.3-0.5-1.9c-0.3-0.6-0.7-1-1.3-1.3s-1.2-0.5-1.9-0.5h-6V33.6z"/>
		<path class="st1" d="M186.9,36.1V20.6h2.3v3.7l-0.4-0.5c0.2-0.5,0.4-0.9,0.7-1.3c0.3-0.4,0.6-0.7,1-1c0.4-0.3,0.9-0.6,1.4-0.7
			c0.5-0.2,1-0.3,1.5-0.3s1,0,1.5,0.1V23c-0.5-0.1-1.1-0.2-1.8-0.1c-0.6,0.1-1.2,0.3-1.8,0.7c-0.5,0.4-0.9,0.8-1.2,1.3
			c-0.3,0.5-0.5,1.1-0.6,1.6c-0.1,0.6-0.2,1.2-0.2,1.8v7.8H186.9z"/>
		<path class="st1" d="M201.5,36.5c-1.2,0-2.1-0.2-2.9-0.6c-0.8-0.4-1.4-1-1.8-1.7c-0.4-0.7-0.6-1.5-0.6-2.3c0-0.8,0.2-1.5,0.5-2.1
			c0.3-0.6,0.7-1.1,1.3-1.5c0.6-0.4,1.2-0.7,2-0.9c0.7-0.2,1.6-0.4,2.5-0.5s1.8-0.3,2.8-0.4c0.9-0.1,1.8-0.2,2.6-0.4l-0.9,0.5
			c0-1.4-0.2-2.4-0.8-3.1s-1.6-1-3-1c-0.9,0-1.8,0.2-2.5,0.6s-1.2,1.1-1.5,2.1l-2.4-0.7c0.4-1.4,1.1-2.4,2.2-3.2
			c1.1-0.8,2.5-1.2,4.2-1.2c1.4,0,2.6,0.3,3.6,0.8c1,0.5,1.7,1.3,2.2,2.3c0.2,0.5,0.4,1,0.4,1.6s0.1,1.1,0.1,1.8v9.6h-2.3v-3.7
			l0.5,0.3c-0.6,1.3-1.4,2.2-2.4,2.8C204.3,36.2,203,36.5,201.5,36.5z M201.9,34.4c0.9,0,1.7-0.2,2.4-0.5s1.2-0.8,1.6-1.3
			c0.4-0.5,0.7-1.1,0.8-1.8c0.1-0.5,0.2-1,0.2-1.6c0-0.6,0-1,0-1.4l0.9,0.4c-0.8,0.1-1.7,0.2-2.5,0.3s-1.6,0.2-2.3,0.3
			c-0.7,0.1-1.4,0.3-1.9,0.4c-0.4,0.1-0.8,0.3-1.2,0.5c-0.4,0.2-0.7,0.5-0.9,0.8c-0.2,0.3-0.3,0.7-0.3,1.2c0,0.4,0.1,0.8,0.3,1.2
			c0.2,0.4,0.5,0.7,1,0.9C200.6,34.3,201.2,34.4,201.9,34.4z"/>
		<path class="st1" d="M213.3,36.1V20.6h2.3v4.1h0.3v11.4H213.3z M224.3,36.1v-7.8c0-0.7-0.1-1.4-0.2-2.1c-0.1-0.7-0.4-1.3-0.7-1.8
			c-0.3-0.5-0.8-1-1.3-1.3c-0.5-0.3-1.2-0.5-2-0.5c-0.6,0-1.2,0.1-1.7,0.3s-1,0.5-1.3,1s-0.7,1-0.9,1.7c-0.2,0.7-0.3,1.4-0.3,2.3
			l-1.7-0.5c0-1.5,0.3-2.8,0.8-3.9c0.5-1.1,1.3-1.9,2.3-2.5c1-0.6,2.1-0.9,3.5-0.9c1,0,1.9,0.2,2.6,0.5c0.7,0.3,1.3,0.7,1.8,1.3
			c0.5,0.5,0.8,1.1,1.1,1.8c0.3,0.6,0.5,1.3,0.6,2c0.1,0.7,0.2,1.3,0.2,1.9v8.6H224.3z"/>
		<path class="st1" d="M236.6,36.5c-1.4,0-2.7-0.4-3.7-1.1c-1-0.7-1.8-1.7-2.4-2.9s-0.8-2.6-0.8-4.2s0.3-2.9,0.8-4.2
			s1.4-2.2,2.4-2.9s2.3-1.1,3.7-1.1c1.5,0,2.7,0.4,3.7,1.1s1.7,1.7,2.3,2.9s0.8,2.6,0.8,4.2c0,1.5-0.3,2.9-0.8,4.2
			c-0.5,1.2-1.3,2.2-2.3,2.9C239.2,36.2,238,36.5,236.6,36.5z M236.9,34.2c1,0,1.9-0.3,2.6-0.8c0.7-0.5,1.2-1.2,1.5-2.1
			c0.3-0.9,0.5-1.9,0.5-3c0-1.1-0.2-2.2-0.5-3c-0.3-0.9-0.8-1.6-1.5-2.1c-0.7-0.5-1.5-0.7-2.5-0.7c-1.1,0-1.9,0.3-2.6,0.8
			c-0.7,0.5-1.2,1.2-1.5,2.1c-0.3,0.9-0.5,1.9-0.5,3c0,1.1,0.2,2.1,0.5,3c0.3,0.9,0.8,1.6,1.5,2.1S235.9,34.2,236.9,34.2z
			 M241.4,36.1V24.7h-0.3v-9.3h2.6v20.7H241.4z"/>
		<path class="st1" d="M253.6,36.5c-1.8,0-3.4-0.4-4.5-1.2s-1.9-1.9-2.2-3.4l2.6-0.4c0.2,0.8,0.7,1.5,1.5,2c0.8,0.5,1.7,0.7,2.8,0.7
			c1.1,0,1.9-0.2,2.5-0.7c0.6-0.4,0.9-1,0.9-1.8c0-0.4-0.1-0.8-0.3-1.1s-0.6-0.5-1.2-0.8c-0.6-0.2-1.6-0.5-2.8-0.9
			c-1.4-0.4-2.4-0.7-3.2-1.1c-0.8-0.4-1.3-0.8-1.7-1.4c-0.3-0.5-0.5-1.1-0.5-1.9c0-0.9,0.2-1.7,0.7-2.4c0.5-0.7,1.2-1.2,2.1-1.6
			s1.9-0.6,3.1-0.6c1.2,0,2.2,0.2,3.2,0.6c0.9,0.4,1.7,0.9,2.2,1.6c0.6,0.7,0.9,1.5,1,2.4l-2.6,0.5c-0.1-0.8-0.5-1.5-1.2-2
			s-1.5-0.7-2.6-0.8c-1,0-1.8,0.1-2.4,0.5c-0.6,0.4-0.9,0.9-0.9,1.6c0,0.4,0.1,0.7,0.4,1s0.7,0.5,1.3,0.8c0.6,0.2,1.6,0.5,2.8,0.8
			c1.4,0.3,2.4,0.7,3.2,1.1c0.8,0.4,1.4,0.9,1.7,1.4c0.3,0.6,0.5,1.2,0.5,2c0,1.5-0.6,2.7-1.7,3.5C257,36.1,255.5,36.5,253.6,36.5z"
			/>
	</g>
	<g>
		<line class="st2" x1="86.1" y1="52.1" x2="86.1" y2="52.1"/>
		<path class="st3" d="M133.5,0v52.1c0,0,4.8-0.2,10.7,0V11C144.2,5,139.4,0.2,133.5,0z"/>
		<path class="st3" d="M108.4,32.1l10.7-14.5l0.2-0.3l0,0c1.3-1.8,2-4,2-6.3c0-0.1,0-0.2,0-0.3c-0.1-3.4-1.7-6.4-4.2-8.4
			c-1.9-1.5-4.2-2.3-6.8-2.3H91.1v10.7h19.8L104,20L93.3,34.6c-1.4,1.8-2.2,4.1-2.2,6.6c0,0.1,0,0.2,0,0.3c0.1,3.4,1.7,6.4,4.2,8.4
			c1.8,1.4,4,2.3,6.5,2.3h19.6V41.4h-19.8L108.4,32.1z"/>
		<g>
			<circle class="st1" cx="57" cy="48.5" r="6.6"/>
			<path class="st3" d="M83.9,52.1H73.2L61.7,20.9L57,8.2l-4.7,12.7L40.7,52.1H30L46.5,7.5l0.3-0.7c1.3-3.1,4-5.5,7.3-6.4
				C55,0.1,56,0,57,0s2,0.1,2.9,0.4c3.3,0.9,6,3.3,7.3,6.4l0.3,0.7L83.9,52.1z"/>
			<path class="st3" d="M37.4,7.5l-0.3-0.7c-1.3-3.1-4-5.5-7.3-6.4C28.9,0.1,28,0,27,0s-2,0.1-2.9,0.4c-3.3,0.9-6,3.3-7.3,6.4
				l-0.3,0.7L0,52.1h10.7l11.6-31.2L27,8.2L32,22L37.4,7.5L37.4,7.5z"/>
		</g>
	</g>
</g>
</svg>
