<?xml version="1.0" encoding="utf-8"?>
<!-- Generator: Adobe Illustrator 24.0.2, SVG Export Plug-In . SVG Version: 6.00 Build 0)  -->
<svg version="1.1" id="Layer_1" xmlns="http://www.w3.org/2000/svg" xmlns:xlink="http://www.w3.org/1999/xlink" x="0px" y="0px"
	 viewBox="0 0 303.11 303.11" style="enable-background:new 0 0 303.11 303.11;" xml:space="preserve">
<style type="text/css">
	.st0{fill:#E5EBF8;}
	.st1{opacity:0.8;}
	.st2{fill:#00D4D9;}
	.st3{fill:url(#SVGID_1_);}
	.st4{fill:url(#SVGID_2_);}
	.st5{fill:#FFFFFF;}
	.st6{fill:none;stroke:#000000;stroke-miterlimit:10;}
</style>
<path class="st0" d="M151.56,66.81c-46.81,0-84.75,37.94-84.75,84.75s37.94,84.75,84.75,84.75s84.75-37.94,84.75-84.75
	S198.36,66.81,151.56,66.81z M121.96,150.02c-4.79-1.92-7.11-7.36-5.19-12.14l8.17-20.42c5.85-14.6,22.42-21.7,37.02-15.85
	l20.48,8.2c4.75,1.9,7.06,7.3,5.16,12.04l0,0c-1.66,4.15-6.05,6.52-10.43,5.63c-17.06-3.46-34.55,4.09-43.82,18.83
	C130.93,150.14,126.15,151.7,121.96,150.02L121.96,150.02z M178.17,185.65c-5.85,14.6-22.42,21.7-37.02,15.85l-20.48-8.2
	c-4.75-1.9-7.06-7.3-5.16-12.04c1.66-4.15,6.05-6.52,10.43-5.63c17.06,3.46,34.55-4.09,43.82-18.83c2.4-3.82,7.19-5.39,11.39-3.7
	l0,0c4.79,1.92,7.11,7.36,5.19,12.14L178.17,185.65z"/>
</svg>
