<?xml version="1.0" encoding="utf-8"?>
<!-- Generator: Adobe Illustrator 24.0.2, SVG Export Plug-In . SVG Version: 6.00 Build 0)  -->
<svg version="1.1" id="Layer_1" xmlns="http://www.w3.org/2000/svg" xmlns:xlink="http://www.w3.org/1999/xlink" x="0px" y="0px"
	 viewBox="0 0 660.31 660.31" style="enable-background:new 0 0 660.31 660.31;" xml:space="preserve">
<style type="text/css">
	.st0{fill:#FFFFFF;}
</style>
<path class="st0" d="M330.16,0C147.82,0,0,147.82,0,330.16s147.82,330.16,330.16,330.16S660.31,512.5,660.31,330.16
	S512.5,0,330.16,0z M214.85,324.17c-18.64-7.49-27.69-28.66-20.22-47.3l31.85-79.53c22.77-56.87,87.34-84.52,144.21-61.74
	l79.78,31.94c18.5,7.41,27.5,28.42,20.09,46.92l0,0c-6.47,16.16-23.56,25.4-40.63,21.93c-66.44-13.49-134.58,15.93-170.72,73.36
	C249.83,324.64,231.18,330.73,214.85,324.17L214.85,324.17z M433.84,462.98c-22.77,56.87-87.34,84.52-144.21,61.74l-79.78-31.94
	c-18.5-7.41-27.5-28.42-20.09-46.92c6.47-16.16,23.56-25.4,40.63-21.93c66.44,13.49,134.58-15.93,170.72-73.36
	c9.37-14.89,28.03-20.98,44.36-14.42l0,0c18.64,7.49,27.69,28.66,20.22,47.3L433.84,462.98z"/>
<g>
</g>
<g>
</g>
<g>
</g>
<g>
</g>
<g>
</g>
<g>
</g>
<g>
</g>
<g>
</g>
<g>
</g>
<g>
</g>
<g>
</g>
<g>
</g>
<g>
</g>
<g>
</g>
<g>
</g>
</svg>
