<?xml version="1.0" encoding="utf-8"?>
<!-- Generator: Adobe Illustrator 24.0.2, SVG Export Plug-In . SVG Version: 6.00 Build 0)  -->
<svg version="1.1" id="Layer_1" xmlns="http://www.w3.org/2000/svg" xmlns:xlink="http://www.w3.org/1999/xlink" x="0px" y="0px"
	 viewBox="0 0 1117.26 667.1" style="enable-background:new 0 0 1117.26 667.1;" xml:space="preserve">
<style type="text/css">
	.st0{opacity:0.4;fill:#FFFFFF;}
	.st1{fill:#FFFFFF;}
</style>
<g>
	<path class="st0" d="M558.63,0C374.41,0,225.08,149.34,225.08,333.55S374.41,667.1,558.63,667.1s333.55-149.34,333.55-333.55
		S742.84,0,558.63,0z M442.13,327.5c-18.83-7.56-27.97-28.95-20.43-47.79l32.17-80.35c23.01-57.46,88.24-85.38,145.69-62.38
		l80.6,32.27c18.69,7.49,27.78,28.71,20.29,47.4l0,0c-6.54,16.33-23.81,25.66-41.04,22.16c-67.12-13.63-135.96,16.09-172.47,74.11
		C477.48,327.98,458.63,334.13,442.13,327.5L442.13,327.5z M663.38,467.74c-23.01,57.46-88.24,85.38-145.69,62.38l-80.6-32.27
		c-18.69-7.49-27.78-28.71-20.29-47.4c6.54-16.33,23.81-25.66,41.04-22.16c67.12,13.63,135.96-16.09,172.47-74.11
		c9.47-15.05,28.31-21.2,44.81-14.57l0,0c18.83,7.56,27.97,28.95,20.43,47.79L663.38,467.74z"/>
	<g>
		<path class="st1" d="M91.21,414.89c-16.32,0-31.96-2.19-46.92-6.56c-14.96-4.37-27.01-10.05-36.13-17.05l16.03-35.55
			c8.74,6.22,19.09,11.32,31.04,15.3c11.95,3.98,24.04,5.97,36.28,5.97c9.33,0,16.85-0.92,22.58-2.77
			c5.73-1.84,9.95-4.42,12.68-7.72c2.72-3.3,4.08-7.09,4.08-11.37c0-5.44-2.14-9.76-6.41-12.97c-4.28-3.21-9.91-5.83-16.9-7.87
			c-6.99-2.04-14.72-3.98-23.17-5.83c-8.45-1.84-16.9-4.12-25.35-6.85c-8.45-2.72-16.17-6.22-23.17-10.49
			c-6.99-4.27-12.68-9.91-17.05-16.9c-4.37-6.99-6.56-15.93-6.56-26.81c0-11.66,3.16-22.29,9.47-31.91
			c6.31-9.62,15.83-17.29,28.56-23.02c12.72-5.73,28.7-8.6,47.94-8.6c12.82,0,25.45,1.51,37.88,4.52
			c12.43,3.01,23.41,7.53,32.93,13.55l-14.57,35.84c-9.52-5.44-19.04-9.47-28.56-12.09c-9.52-2.62-18.85-3.93-27.98-3.93
			c-9.13,0-16.61,1.07-22.44,3.21c-5.83,2.14-10.01,4.91-12.53,8.31c-2.53,3.4-3.79,7.34-3.79,11.8c0,5.25,2.14,9.47,6.41,12.68
			c4.27,3.21,9.91,5.78,16.9,7.72c6.99,1.94,14.72,3.89,23.17,5.83c8.45,1.94,16.9,4.18,25.35,6.7c8.45,2.53,16.17,5.93,23.17,10.2
			c6.99,4.28,12.68,9.91,17.05,16.9c4.37,6.99,6.56,15.84,6.56,26.52c0,11.46-3.21,21.96-9.62,31.47
			c-6.41,9.52-15.98,17.19-28.7,23.02C126.71,411.98,110.64,414.89,91.21,414.89z"/>
		<path class="st1" d="M255.27,413.72c-12.24,0-22.73-2.09-31.47-6.27c-8.74-4.17-15.44-9.86-20.11-17.05
			c-4.66-7.19-6.99-15.25-6.99-24.19c0-9.33,2.28-17.48,6.85-24.48c4.56-6.99,11.8-12.48,21.71-16.46
			c9.91-3.98,22.83-5.97,38.76-5.97h41.67v26.52h-36.72c-10.69,0-18.02,1.75-22,5.25c-3.98,3.5-5.97,7.87-5.97,13.11
			c0,5.83,2.28,10.44,6.85,13.84c4.56,3.4,10.83,5.1,18.8,5.1c7.58,0,14.38-1.79,20.4-5.39c6.02-3.59,10.39-8.89,13.11-15.88
			l6.99,20.98c-3.31,10.1-9.33,17.78-18.07,23.02C280.33,411.1,269.06,413.72,255.27,413.72z M303.06,411.39v-30.6l-2.91-6.7v-54.79
			c0-9.71-2.96-17.29-8.89-22.73c-5.93-5.44-15.01-8.16-27.25-8.16c-8.35,0-16.56,1.31-24.62,3.93
			c-8.06,2.62-14.91,6.17-20.54,10.64l-16.32-31.76c8.55-6.02,18.84-10.68,30.89-13.99c12.04-3.3,24.28-4.95,36.72-4.95
			c23.9,0,42.45,5.64,55.66,16.9c13.21,11.27,19.82,28.85,19.82,52.75v89.46H303.06z"/>
		<path class="st1" d="M386.7,411.39V254.61h43.42v43.42l-8.16-13.11c5.63-10.49,13.7-18.55,24.19-24.19
			c10.49-5.63,22.44-8.45,35.84-8.45c12.43,0,23.55,2.48,33.37,7.43c9.81,4.95,17.53,12.53,23.17,22.73
			c5.63,10.2,8.45,23.27,8.45,39.19v89.75h-45.46v-82.76c0-12.63-2.77-21.95-8.31-27.98c-5.54-6.02-13.36-9.03-23.46-9.03
			c-7.19,0-13.65,1.51-19.38,4.52c-5.73,3.01-10.2,7.63-13.4,13.84c-3.21,6.22-4.81,14.18-4.81,23.9v77.52H386.7z"/>
		<path class="st1" d="M588.06,411.39V195.17h45.46v216.23H588.06z M625.65,379.34l1.17-55.37l73.14-69.36h54.2l-70.23,71.4
			l-23.6,19.23L625.65,379.34z M704.92,411.39l-53.04-65.86l28.56-35.26l79.56,101.12H704.92z"/>
		<path class="st1" d="M801.67,232.76c-8.36,0-15.15-2.43-20.4-7.29c-5.25-4.85-7.87-10.88-7.87-18.07c0-7.19,2.62-13.21,7.87-18.07
			c5.25-4.85,12.04-7.29,20.4-7.29c8.35,0,15.15,2.29,20.4,6.85c5.25,4.57,7.87,10.45,7.87,17.63c0,7.58-2.58,13.84-7.72,18.8
			C817.06,230.28,810.21,232.76,801.67,232.76z M778.93,411.39V254.61h45.46v156.78H778.93z"/>
		<path class="st1" d="M944.46,413.72c-17.88,0-33.56-3.5-47.06-10.49c-13.5-6.99-23.95-16.56-31.33-28.71
			c-7.39-12.14-11.07-25.98-11.07-41.53c0-15.74,3.64-29.67,10.93-41.82c7.29-12.14,17.24-21.66,29.87-28.56
			c12.63-6.89,26.91-10.35,42.84-10.35c15.34,0,29.19,3.26,41.53,9.76c12.33,6.51,22.1,15.84,29.29,27.98
			c7.19,12.14,10.78,26.66,10.78,43.57c0,1.75-0.1,3.74-0.29,5.97c-0.2,2.24-0.39,4.33-0.58,6.27H892v-26.52h103.45l-17.48,7.87
			c0-8.16-1.65-15.25-4.96-21.27c-3.3-6.02-7.87-10.73-13.7-14.13c-5.83-3.4-12.63-5.1-20.4-5.1c-7.77,0-14.62,1.7-20.54,5.1
			c-5.93,3.4-10.54,8.16-13.84,14.28c-3.31,6.12-4.95,13.36-4.95,21.71v6.99c0,8.55,1.89,16.08,5.68,22.58
			c3.79,6.51,9.13,11.47,16.03,14.86c6.89,3.4,15.01,5.1,24.33,5.1c8.35,0,15.69-1.26,22-3.79c6.31-2.52,12.09-6.31,17.34-11.37
			l24.19,26.23c-7.19,8.16-16.22,14.42-27.1,18.8C971.17,411.54,958.63,413.72,944.46,413.72z"/>
		<path class="st1" d="M1073.26,232.76c-8.36,0-15.15-2.43-20.4-7.29c-5.25-4.85-7.87-10.88-7.87-18.07
			c0-7.19,2.62-13.21,7.87-18.07c5.25-4.85,12.04-7.29,20.4-7.29c8.35,0,15.15,2.29,20.4,6.85c5.25,4.57,7.87,10.45,7.87,17.63
			c0,7.58-2.58,13.84-7.72,18.8C1088.65,230.28,1081.8,232.76,1073.26,232.76z M1050.53,411.39V254.61h45.46v156.78H1050.53z"/>
	</g>
</g>
<g>
</g>
<g>
</g>
<g>
</g>
<g>
</g>
<g>
</g>
<g>
</g>
<g>
</g>
<g>
</g>
<g>
</g>
<g>
</g>
<g>
</g>
<g>
</g>
<g>
</g>
<g>
</g>
<g>
</g>
</svg>
