<?xml version="1.0" encoding="utf-8"?>
<!-- Generator: Adobe Illustrator 24.0.2, SVG Export Plug-In . SVG Version: 6.00 Build 0)  -->
<svg version="1.1" id="Layer_1" xmlns="http://www.w3.org/2000/svg" xmlns:xlink="http://www.w3.org/1999/xlink" x="0px" y="0px"
	 viewBox="0 0 900 294" style="enable-background:new 0 0 900 294;" xml:space="preserve">
<style type="text/css">
	.st0{fill:#FFFFFF;}
</style>
<g>
	<g>
		<path class="st0" d="M416.45,117.15c-3.57-2.18-7.51-3.91-11.82-5.2c-4.31-1.29-8.62-2.43-12.94-3.42
			c-4.31-0.99-8.25-1.98-11.82-2.97c-3.57-0.99-6.44-2.3-8.62-3.94c-2.18-1.64-3.27-3.79-3.27-6.47c0-2.28,0.64-4.29,1.93-6.02
			c1.29-1.73,3.42-3.15,6.39-4.24c2.97-1.09,6.79-1.64,11.45-1.64c4.66,0,9.42,0.67,14.27,2.01c4.86,1.34,9.71,3.4,14.57,6.17
			l7.43-18.29c-4.86-3.07-10.46-5.38-16.8-6.91c-6.34-1.54-12.79-2.3-19.33-2.3c-9.81,0-17.97,1.46-24.46,4.39
			c-6.49,2.93-11.35,6.84-14.57,11.75c-3.22,4.91-4.83,10.33-4.83,16.28c0,5.55,1.12,10.11,3.35,13.68c2.23,3.57,5.13,6.44,8.7,8.62
			c3.57,2.18,7.51,3.97,11.82,5.35c4.31,1.39,8.62,2.55,12.94,3.49c4.31,0.94,8.25,1.93,11.82,2.97c3.57,1.04,6.44,2.38,8.62,4.01
			c2.18,1.64,3.27,3.84,3.27,6.62c0,2.18-0.69,4.11-2.08,5.8c-1.39,1.69-3.55,3-6.47,3.94c-2.92,0.94-6.77,1.41-11.52,1.41
			c-6.24,0-12.42-1.02-18.51-3.05c-6.1-2.03-11.38-4.63-15.84-7.81l-8.18,18.14c4.66,3.57,10.8,6.47,18.44,8.7
			c7.63,2.23,15.61,3.35,23.94,3.35c9.91,0,18.11-1.49,24.61-4.46c6.49-2.97,11.38-6.89,14.65-11.75
			c3.27-4.86,4.91-10.21,4.91-16.06c0-5.45-1.12-9.96-3.35-13.53C422.92,122.21,420.02,119.33,416.45,117.15z"/>
		<path class="st0" d="M504.03,97.23c-6.74-5.75-16.21-8.62-28.4-8.62c-6.34,0-12.59,0.84-18.73,2.53
			c-6.15,1.69-11.4,4.07-15.76,7.14l8.33,16.21c2.87-2.28,6.37-4.09,10.48-5.43c4.11-1.34,8.3-2.01,12.56-2.01
			c6.24,0,10.88,1.39,13.9,4.16c3.02,2.78,4.54,6.64,4.54,11.6h-18.44c-8.13,0-14.72,1.02-19.78,3.05
			c-5.06,2.03-8.75,4.83-11.08,8.4c-2.33,3.57-3.49,7.73-3.49,12.49c0,4.56,1.19,8.68,3.57,12.34c2.38,3.67,5.8,6.57,10.26,8.7
			c4.46,2.13,9.81,3.2,16.06,3.2c7.04,0,12.79-1.34,17.25-4.01c3.02-1.81,5.39-4.21,7.14-7.16v9.98h21.71v-45.65
			C514.14,111.95,510.77,102.98,504.03,97.23z M484.25,152.62c-3.07,1.84-6.54,2.75-10.41,2.75c-4.07,0-7.26-0.87-9.59-2.6
			c-2.33-1.73-3.49-4.09-3.49-7.06c0-2.68,1.02-4.91,3.05-6.69c2.03-1.78,5.77-2.68,11.23-2.68h15.91v8.18
			C489.56,148.08,487.33,150.78,484.25,152.62z"/>
		<path class="st0" d="M600.75,92.4c-5.01-2.53-10.68-3.79-17.02-3.79c-6.84,0-12.94,1.44-18.29,4.31c-3.16,1.7-5.88,3.84-8.18,6.4
			v-9.53H535.1v80h23.2v-39.55c0-4.96,0.82-9.02,2.45-12.19c1.64-3.17,3.92-5.52,6.84-7.06c2.92-1.54,6.22-2.3,9.89-2.3
			c5.15,0,9.14,1.54,11.97,4.61c2.83,3.07,4.24,7.83,4.24,14.27v42.23h23.2v-45.8c0-8.13-1.44-14.79-4.31-20
			C609.7,98.79,605.76,94.92,600.75,92.4z"/>
		<polygon class="st0" points="722.6,89.79 694.95,89.79 661.04,121.94 661.04,59.46 637.85,59.46 637.85,169.79 661.04,169.79 
			661.04,149.49 672.25,138.47 697.47,169.79 725.58,169.79 689.29,123.66 		"/>
		<rect x="735.24" y="89.79" class="st0" width="23.2" height="80"/>
		<path class="st0" d="M757.25,56.26c-2.68-2.33-6.15-3.49-10.41-3.49c-4.26,0-7.73,1.24-10.41,3.72c-2.68,2.48-4.01,5.55-4.01,9.22
			c0,3.67,1.34,6.74,4.01,9.22c2.68,2.48,6.14,3.72,10.41,3.72c4.36,0,7.85-1.26,10.48-3.79c2.62-2.53,3.94-5.72,3.94-9.59
			C761.26,61.59,759.92,58.59,757.25,56.26z"/>
		<path class="st0" d="M837.91,93.59c-6.3-3.32-13.36-4.98-21.19-4.98c-8.13,0-15.41,1.76-21.86,5.28
			c-6.44,3.52-11.52,8.38-15.24,14.57c-3.72,6.2-5.58,13.31-5.58,21.34c0,7.93,1.88,14.99,5.65,21.19
			c3.77,6.2,9.09,11.08,15.98,14.65c6.89,3.57,14.89,5.35,24.01,5.35c7.23,0,13.63-1.12,19.18-3.35c5.55-2.23,10.16-5.43,13.83-9.59
			l-12.34-13.38c-2.68,2.58-5.63,4.51-8.85,5.8c-3.22,1.29-6.96,1.93-11.23,1.93c-4.76,0-8.9-0.87-12.42-2.6
			c-3.52-1.73-6.25-4.26-8.18-7.58c-1.05-1.8-1.8-3.76-2.28-5.87h60.5c0.1-0.99,0.2-2.06,0.3-3.2c0.1-1.14,0.15-2.16,0.15-3.05
			c0-8.62-1.84-16.03-5.5-22.23C849.18,101.67,844.2,96.91,837.91,93.59z M806.39,108.75c3.02-1.73,6.52-2.6,10.48-2.6
			c3.96,0,7.43,0.87,10.41,2.6c2.97,1.74,5.3,4.14,6.99,7.21c1.12,2.04,1.86,4.32,2.23,6.84h-39.38c0.39-2.49,1.12-4.75,2.21-6.77
			C801.01,112.91,803.36,110.49,806.39,108.75z"/>
		<path class="st0" d="M885.42,78.64c4.36,0,7.85-1.26,10.48-3.79c2.62-2.53,3.94-5.72,3.94-9.59c0-3.67-1.34-6.67-4.01-9
			c-2.68-2.33-6.15-3.49-10.41-3.49c-4.26,0-7.73,1.24-10.41,3.72c-2.68,2.48-4.01,5.55-4.01,9.22c0,3.67,1.34,6.74,4.01,9.22
			C877.68,77.4,881.15,78.64,885.42,78.64z"/>
		<rect x="873.82" y="89.79" class="st0" width="23.2" height="80"/>
	</g>
	<g>
		<path class="st0" d="M343.3,240.81v-36.69h5.24v36.69H343.3z"/>
		<path class="st0" d="M363.48,240.81v-36.69h4.3l24.27,30.14h-2.25v-30.14h5.24v36.69h-4.3l-24.27-30.14h2.25v30.14H363.48z"/>
		<path class="st0" d="M419.77,240.81l-16.14-36.69h5.66l14.83,33.86h-3.25l14.94-33.86h5.24l-16.09,36.69H419.77z"/>
		<path class="st0" d="M449.64,240.81v-36.69h25.89v4.56h-20.65v27.57h21.38v4.56H449.64z M454.41,224.41v-4.46h18.87v4.46H454.41z"
			/>
		<path class="st0" d="M499.38,241.23c-2.8,0-5.47-0.43-8.02-1.28c-2.55-0.86-4.56-1.96-6.03-3.33l1.94-4.09
			c1.4,1.22,3.18,2.24,5.35,3.04c2.17,0.8,4.42,1.21,6.76,1.21c2.13,0,3.86-0.24,5.19-0.73c1.33-0.49,2.31-1.16,2.94-2.02
			c0.63-0.86,0.94-1.83,0.94-2.91c0-1.26-0.41-2.27-1.23-3.04c-0.82-0.77-1.89-1.39-3.2-1.86c-1.31-0.47-2.75-0.88-4.32-1.23
			c-1.57-0.35-3.15-0.76-4.74-1.23c-1.59-0.47-3.04-1.07-4.35-1.81c-1.31-0.73-2.37-1.72-3.17-2.96c-0.8-1.24-1.21-2.84-1.21-4.8
			c0-1.89,0.5-3.62,1.49-5.21c1-1.59,2.53-2.86,4.61-3.83c2.08-0.96,4.73-1.44,7.94-1.44c2.13,0,4.25,0.28,6.34,0.84
			c2.1,0.56,3.91,1.36,5.45,2.41l-1.73,4.19c-1.57-1.05-3.23-1.81-4.98-2.28c-1.75-0.47-3.44-0.71-5.08-0.71
			c-2.06,0-3.76,0.26-5.08,0.79c-1.33,0.52-2.3,1.22-2.91,2.1c-0.61,0.87-0.92,1.85-0.92,2.94c0,1.29,0.41,2.32,1.23,3.09
			c0.82,0.77,1.89,1.38,3.2,1.83c1.31,0.45,2.75,0.86,4.32,1.23s3.15,0.78,4.74,1.23c1.59,0.45,3.04,1.05,4.35,1.78
			c1.31,0.73,2.37,1.71,3.17,2.93c0.8,1.22,1.21,2.8,1.21,4.72c0,1.85-0.51,3.57-1.52,5.16c-1.01,1.59-2.58,2.87-4.69,3.83
			C505.26,240.75,502.59,241.23,499.38,241.23z"/>
		<path class="st0" d="M531.92,240.81v-32.13h-12.58v-4.56h30.35v4.56h-12.58v32.13H531.92z"/>
		<path class="st0" d="M559.33,240.81v-36.69h4.3l16.46,27.73h-2.31l16.25-27.73h4.3l0.05,36.69h-5.03l-0.05-28.77h1.21
			l-14.47,24.32h-2.41l-14.57-24.32h1.31v28.77H559.33z"/>
		<path class="st0" d="M613.32,240.81v-36.69h25.89v4.56h-20.65v27.57h21.38v4.56H613.32z M618.09,224.41v-4.46h18.87v4.46H618.09z"
			/>
		<path class="st0" d="M652.36,240.81v-36.69h4.3l24.27,30.14h-2.25v-30.14h5.24v36.69h-4.3l-24.27-30.14h2.25v30.14H652.36z"/>
		<path class="st0" d="M706.13,240.81v-32.13h-12.58v-4.56h30.35v4.56h-12.58v32.13H706.13z"/>
		<path class="st0" d="M743.77,241.23c-2.8,0-5.47-0.43-8.02-1.28c-2.55-0.86-4.56-1.96-6.03-3.33l1.94-4.09
			c1.4,1.22,3.18,2.24,5.35,3.04c2.17,0.8,4.42,1.21,6.76,1.21c2.13,0,3.86-0.24,5.19-0.73c1.33-0.49,2.31-1.16,2.93-2.02
			c0.63-0.86,0.94-1.83,0.94-2.91c0-1.26-0.41-2.27-1.23-3.04c-0.82-0.77-1.89-1.39-3.2-1.86s-2.75-0.88-4.32-1.23
			c-1.57-0.35-3.15-0.76-4.74-1.23c-1.59-0.47-3.04-1.07-4.35-1.81c-1.31-0.73-2.37-1.72-3.17-2.96c-0.8-1.24-1.21-2.84-1.21-4.8
			c0-1.89,0.5-3.62,1.49-5.21c1-1.59,2.53-2.86,4.61-3.83c2.08-0.96,4.73-1.44,7.94-1.44c2.13,0,4.25,0.28,6.34,0.84
			c2.1,0.56,3.91,1.36,5.45,2.41l-1.73,4.19c-1.57-1.05-3.23-1.81-4.98-2.28c-1.75-0.47-3.44-0.71-5.08-0.71
			c-2.06,0-3.76,0.26-5.08,0.79c-1.33,0.52-2.3,1.22-2.91,2.1c-0.61,0.87-0.92,1.85-0.92,2.94c0,1.29,0.41,2.32,1.23,3.09
			c0.82,0.77,1.89,1.38,3.2,1.83c1.31,0.45,2.75,0.86,4.32,1.23s3.15,0.78,4.74,1.23c1.59,0.45,3.04,1.05,4.35,1.78
			c1.31,0.73,2.37,1.71,3.17,2.93c0.8,1.22,1.21,2.8,1.21,4.72c0,1.85-0.51,3.57-1.52,5.16s-2.58,2.87-4.69,3.83
			C749.64,240.75,746.98,241.23,743.77,241.23z"/>
	</g>
</g>
<path class="st0" d="M146.91,0.25C65.86,0.25,0.16,65.95,0.16,147s65.7,146.75,146.75,146.75S293.65,228.05,293.65,147
	S227.95,0.25,146.91,0.25z M95.65,144.34c-8.28-3.33-12.31-12.74-8.99-21.02l14.15-35.35c10.12-25.28,38.82-37.57,64.1-27.44
	l35.46,14.2c8.22,3.29,12.22,12.63,8.93,20.85l0,0c-2.88,7.18-10.47,11.29-18.06,9.75c-29.53-6-59.82,7.08-75.88,32.61
	C111.2,144.55,102.91,147.25,95.65,144.34L95.65,144.34z M192.99,206.04c-10.12,25.28-38.82,37.57-64.1,27.44l-35.46-14.2
	c-8.22-3.29-12.22-12.63-8.93-20.85c2.88-7.18,10.47-11.29,18.06-9.75c29.53,6,59.82-7.08,75.88-32.61
	c4.17-6.62,12.46-9.33,19.71-6.41l0,0c8.28,3.33,12.31,12.74,8.99,21.02L192.99,206.04z"/>
<g>
</g>
<g>
</g>
<g>
</g>
<g>
</g>
<g>
</g>
<g>
</g>
<g>
</g>
<g>
</g>
<g>
</g>
<g>
</g>
<g>
</g>
<g>
</g>
<g>
</g>
<g>
</g>
<g>
</g>
</svg>
