<?xml version="1.0" encoding="utf-8"?>
<!-- Generator: Adobe Illustrator 24.0.2, SVG Export Plug-In . SVG Version: 6.00 Build 0)  -->
<svg version="1.1" id="Layer_1" xmlns="http://www.w3.org/2000/svg" xmlns:xlink="http://www.w3.org/1999/xlink" x="0px" y="0px"
	 viewBox="0 0 1344 438" style="enable-background:new 0 0 1344 438;" xml:space="preserve">
<style type="text/css">
	.st0{fill:#BB9C8F;}
	.st1{fill:#583F35;}
</style>
<g>
	<g>
		<path class="st0" d="M621.89,174.41c-5.33-3.26-11.22-5.85-17.66-7.77c-6.44-1.92-12.88-3.63-19.32-5.11
			c-6.44-1.48-12.33-2.96-17.66-4.44c-5.33-1.48-9.63-3.44-12.88-5.89c-3.26-2.44-4.89-5.66-4.89-9.66c0-3.4,0.96-6.4,2.89-9
			c1.92-2.59,5.11-4.7,9.55-6.33c4.44-1.63,10.14-2.44,17.1-2.44c6.96,0,14.07,1,21.32,3c7.25,2,14.51,5.07,21.77,9.22l11.11-27.32
			c-7.26-4.59-15.63-8.03-25.1-10.33c-9.48-2.29-19.1-3.44-28.88-3.44c-14.66,0-26.84,2.19-36.54,6.55
			c-9.7,4.37-16.96,10.22-21.77,17.55c-4.81,7.33-7.22,15.44-7.22,24.32c0,8.29,1.67,15.1,5,20.43c3.33,5.33,7.66,9.63,12.99,12.88
			c5.33,3.26,11.22,5.92,17.66,8c6.44,2.08,12.88,3.81,19.32,5.22c6.44,1.41,12.33,2.89,17.66,4.44c5.33,1.56,9.62,3.55,12.88,6
			c3.26,2.44,4.89,5.74,4.89,9.88c0,3.26-1.04,6.15-3.11,8.66c-2.08,2.52-5.3,4.48-9.66,5.89c-4.37,1.41-10.11,2.11-17.21,2.11
			c-9.33,0-18.55-1.52-27.65-4.55c-9.11-3.03-16.99-6.92-23.66-11.66l-12.22,27.1c6.96,5.33,16.14,9.66,27.54,12.99
			c11.4,3.33,23.32,5,35.76,5c14.81,0,27.06-2.22,36.76-6.66c9.7-4.44,16.99-10.29,21.88-17.55c4.89-7.25,7.33-15.25,7.33-23.99
			c0-8.14-1.67-14.88-5-20.21C631.55,181.96,627.22,177.67,621.89,174.41z"/>
		<path class="st0" d="M752.71,144.65c-10.07-8.59-24.21-12.88-42.43-12.88c-9.48,0-18.81,1.26-27.99,3.78
			c-9.18,2.52-17.03,6.07-23.55,10.66l12.44,24.21c4.29-3.4,9.51-6.11,15.66-8.11c6.14-2,12.4-3,18.77-3
			c9.33,0,16.25,2.08,20.77,6.22c4.52,4.15,6.77,9.92,6.77,17.33h-27.54c-12.14,0-21.99,1.52-29.54,4.55
			c-7.55,3.04-13.07,7.22-16.55,12.55c-3.48,5.33-5.22,11.55-5.22,18.66c0,6.81,1.78,12.96,5.33,18.44c3.55,5.48,8.66,9.81,15.33,13
			c6.66,3.18,14.66,4.77,23.99,4.77c10.51,0,19.1-2,25.77-6c4.51-2.71,8.05-6.29,10.66-10.69v14.91h32.43v-68.19
			C767.82,166.64,762.78,153.24,752.71,144.65z M723.17,227.39c-4.59,2.74-9.77,4.11-15.55,4.11c-6.07,0-10.85-1.29-14.33-3.89
			c-3.48-2.59-5.22-6.11-5.22-10.55c0-4,1.52-7.33,4.55-10c3.03-2.67,8.62-4,16.77-4h23.77v12.22
			C731.09,220.61,727.76,224.65,723.17,227.39z"/>
		<path class="st0" d="M897.2,137.43c-7.48-3.78-15.96-5.66-25.43-5.66c-10.22,0-19.32,2.15-27.32,6.44
			c-4.72,2.54-8.79,5.74-12.22,9.57v-14.23h-33.1v119.5h34.65v-59.09c0-7.4,1.22-13.47,3.66-18.21c2.44-4.74,5.85-8.25,10.22-10.55
			c4.37-2.29,9.29-3.44,14.77-3.44c7.7,0,13.66,2.3,17.88,6.89c4.22,4.59,6.33,11.7,6.33,21.32v63.08h34.65v-68.41
			c0-12.14-2.15-22.1-6.44-29.88C910.56,146.98,904.68,141.2,897.2,137.43z"/>
		<polygon class="st0" points="1079.23,133.54 1037.92,133.54 987.27,181.56 987.27,88.23 952.62,88.23 952.62,253.04 
			987.27,253.04 987.27,222.71 1004.01,206.25 1041.69,253.04 1083.67,253.04 1029.46,184.14 		"/>
		<rect x="1098.11" y="133.54" class="st0" width="34.65" height="119.5"/>
		<path class="st0" d="M1130.99,83.45c-4-3.48-9.18-5.22-15.55-5.22c-6.37,0-11.55,1.85-15.55,5.55c-4,3.7-6,8.3-6,13.77
			c0,5.48,2,10.07,6,13.77c4,3.7,9.18,5.55,15.55,5.55c6.51,0,11.73-1.89,15.66-5.66c3.92-3.78,5.89-8.55,5.89-14.33
			C1136.98,91.41,1134.98,86.93,1130.99,83.45z"/>
		<path class="st0" d="M1251.49,139.21c-9.41-4.96-19.96-7.44-31.65-7.44c-12.14,0-23.03,2.63-32.65,7.89
			c-9.63,5.26-17.21,12.52-22.77,21.77c-5.55,9.26-8.33,19.88-8.33,31.87c0,11.85,2.81,22.4,8.44,31.65
			c5.63,9.26,13.58,16.55,23.88,21.88c10.29,5.33,22.25,8,35.87,8c10.81,0,20.36-1.67,28.65-5c8.29-3.33,15.18-8.11,20.66-14.33
			l-18.44-19.99c-4,3.85-8.41,6.74-13.22,8.66c-4.81,1.93-10.4,2.89-16.77,2.89c-7.11,0-13.29-1.29-18.55-3.89
			c-5.26-2.59-9.33-6.36-12.22-11.33c-1.57-2.69-2.69-5.62-3.41-8.77h90.37c0.15-1.48,0.29-3.07,0.44-4.78
			c0.14-1.7,0.22-3.22,0.22-4.55c0-12.88-2.74-23.95-8.22-33.21C1268.33,151.28,1260.89,144.17,1251.49,139.21z M1204.39,161.86
			c4.52-2.59,9.74-3.89,15.66-3.89c5.92,0,11.11,1.3,15.55,3.89c4.44,2.59,7.92,6.18,10.44,10.77c1.67,3.05,2.77,6.46,3.33,10.22
			h-58.83c0.58-3.72,1.67-7.1,3.29-10.11C1196.36,168.08,1199.88,164.45,1204.39,161.86z"/>
		<path class="st0" d="M1322.45,116.88c6.51,0,11.73-1.89,15.66-5.66c3.92-3.78,5.89-8.55,5.89-14.33c0-5.48-2-9.96-6-13.44
			c-4-3.48-9.18-5.22-15.55-5.22c-6.37,0-11.55,1.85-15.55,5.55c-4,3.7-6,8.3-6,13.77c0,5.48,2,10.07,6,13.77
			C1310.9,115.03,1316.08,116.88,1322.45,116.88z"/>
		<rect x="1305.13" y="133.54" class="st0" width="34.65" height="119.5"/>
	</g>
	<g>
		<path class="st0" d="M512.6,359.14v-54.81h7.83v54.81H512.6z"/>
		<path class="st0" d="M542.75,359.14v-54.81h6.42l36.25,45.02h-3.37v-45.02h7.83v54.81h-6.42l-36.25-45.02h3.37v45.02H542.75z"/>
		<path class="st0" d="M626.83,359.14l-24.11-54.81h8.46l22.16,50.58h-4.85l22.31-50.58h7.83l-24.04,54.81H626.83z"/>
		<path class="st0" d="M671.46,359.14v-54.81h38.68v6.81h-30.85v41.18h31.94v6.81H671.46z M678.59,334.64v-6.66h28.19v6.66H678.59z"
			/>
		<path class="st0" d="M745.76,359.77c-4.18,0-8.17-0.64-11.98-1.92c-3.81-1.28-6.81-2.94-9-4.97l2.9-6.11
			c2.09,1.83,4.75,3.34,7.99,4.54c3.24,1.2,6.6,1.8,10.1,1.8c3.18,0,5.77-0.36,7.75-1.1c1.98-0.73,3.45-1.73,4.38-3.01
			c0.94-1.28,1.41-2.73,1.41-4.35c0-1.88-0.61-3.39-1.84-4.54c-1.23-1.15-2.82-2.08-4.78-2.78c-1.96-0.7-4.11-1.32-6.46-1.84
			c-2.35-0.52-4.71-1.13-7.09-1.84c-2.38-0.7-4.54-1.6-6.5-2.7c-1.96-1.1-3.54-2.57-4.74-4.42c-1.2-1.85-1.8-4.24-1.8-7.16
			c0-2.82,0.74-5.41,2.23-7.79c1.49-2.37,3.78-4.28,6.89-5.71c3.11-1.44,7.06-2.15,11.86-2.15c3.18,0,6.34,0.42,9.47,1.25
			c3.13,0.83,5.84,2.04,8.14,3.6l-2.58,6.26c-2.35-1.57-4.83-2.7-7.44-3.41c-2.61-0.7-5.14-1.06-7.59-1.06
			c-3.08,0-5.61,0.39-7.59,1.17c-1.98,0.78-3.43,1.83-4.35,3.13c-0.91,1.31-1.37,2.77-1.37,4.39c0,1.93,0.61,3.47,1.84,4.62
			c1.23,1.15,2.82,2.06,4.78,2.74c1.96,0.68,4.11,1.29,6.46,1.84c2.35,0.55,4.71,1.16,7.09,1.84c2.37,0.68,4.54,1.57,6.5,2.66
			c1.96,1.1,3.54,2.56,4.74,4.38c1.2,1.83,1.8,4.18,1.8,7.05c0,2.77-0.76,5.34-2.27,7.71c-1.52,2.38-3.85,4.28-7.01,5.71
			C754.54,359.05,750.56,359.77,745.76,359.77z"/>
		<path class="st0" d="M794.38,359.14v-47.99h-18.79v-6.81h45.33v6.81h-18.79v47.99H794.38z"/>
		<path class="st0" d="M835.33,359.14v-54.81h6.42l24.58,41.42h-3.45l24.27-41.42h6.42l0.08,54.81h-7.52l-0.08-42.98h1.8
			l-21.61,36.33h-3.6l-21.77-36.33h1.96v42.98H835.33z"/>
		<path class="st0" d="M915.97,359.14v-54.81h38.68v6.81H923.8v41.18h31.94v6.81H915.97z M923.1,334.64v-6.66h28.19v6.66H923.1z"/>
		<path class="st0" d="M974.3,359.14v-54.81h6.42l36.25,45.02h-3.37v-45.02h7.83v54.81h-6.42l-36.25-45.02h3.37v45.02H974.3z"/>
		<path class="st0" d="M1054.63,359.14v-47.99h-18.79v-6.81h45.33v6.81h-18.79v47.99H1054.63z"/>
		<path class="st0" d="M1110.85,359.77c-4.18,0-8.17-0.64-11.98-1.92c-3.81-1.28-6.81-2.94-9-4.97l2.9-6.11
			c2.09,1.83,4.75,3.34,7.99,4.54c3.24,1.2,6.6,1.8,10.1,1.8c3.18,0,5.77-0.36,7.75-1.1c1.98-0.73,3.44-1.73,4.38-3.01
			c0.94-1.28,1.41-2.73,1.41-4.35c0-1.88-0.61-3.39-1.84-4.54c-1.23-1.15-2.82-2.08-4.78-2.78s-4.11-1.32-6.46-1.84
			c-2.35-0.52-4.71-1.13-7.09-1.84c-2.38-0.7-4.54-1.6-6.5-2.7c-1.96-1.1-3.54-2.57-4.74-4.42c-1.2-1.85-1.8-4.24-1.8-7.16
			c0-2.82,0.74-5.41,2.23-7.79c1.49-2.37,3.78-4.28,6.89-5.71c3.1-1.44,7.06-2.15,11.86-2.15c3.18,0,6.34,0.42,9.47,1.25
			c3.13,0.83,5.84,2.04,8.14,3.6l-2.58,6.26c-2.35-1.57-4.83-2.7-7.44-3.41c-2.61-0.7-5.14-1.06-7.59-1.06
			c-3.08,0-5.61,0.39-7.59,1.17c-1.98,0.78-3.43,1.83-4.35,3.13c-0.91,1.31-1.37,2.77-1.37,4.39c0,1.93,0.61,3.47,1.84,4.62
			c1.23,1.15,2.82,2.06,4.78,2.74c1.96,0.68,4.11,1.29,6.46,1.84c2.35,0.55,4.71,1.16,7.09,1.84c2.38,0.68,4.54,1.57,6.5,2.66
			c1.96,1.1,3.54,2.56,4.74,4.38c1.2,1.83,1.8,4.18,1.8,7.05c0,2.77-0.76,5.34-2.27,7.71c-1.51,2.38-3.85,4.28-7.01,5.71
			C1119.63,359.05,1115.65,359.77,1110.85,359.77z"/>
	</g>
</g>
<path class="st1" d="M219.22-0.22C98.15-0.22,0,97.93,0,219s98.15,219.22,219.22,219.22S438.44,340.07,438.44,219
	S340.29-0.22,219.22-0.22z M142.66,215.02c-12.38-4.97-18.38-19.03-13.43-31.41l21.14-52.81c15.12-37.76,57.99-56.12,95.75-41
	l52.97,21.21c12.29,4.92,18.26,18.87,13.34,31.15l0,0c-4.3,10.73-15.65,16.86-26.98,14.56c-44.12-8.96-89.36,10.58-113.36,48.71
	C165.88,215.34,153.5,219.38,142.66,215.02L142.66,215.02z M288.07,307.19c-15.12,37.76-57.99,56.12-95.75,41l-52.97-21.21
	c-12.29-4.92-18.26-18.87-13.34-31.15c4.3-10.73,15.65-16.86,26.98-14.56c44.12,8.96,89.36-10.58,113.36-48.71
	c6.22-9.89,18.61-13.93,29.45-9.58l0,0c12.38,4.97,18.38,19.03,13.43,31.41L288.07,307.19z"/>
<g>
</g>
<g>
</g>
<g>
</g>
<g>
</g>
<g>
</g>
<g>
</g>
<g>
</g>
<g>
</g>
<g>
</g>
<g>
</g>
<g>
</g>
<g>
</g>
<g>
</g>
<g>
</g>
<g>
</g>
</svg>
