<?xml version="1.0" encoding="utf-8"?>
<!-- Generator: Adobe Illustrator 24.0.2, SVG Export Plug-In . SVG Version: 6.00 Build 0)  -->
<svg version="1.1" id="Layer_1" xmlns="http://www.w3.org/2000/svg" xmlns:xlink="http://www.w3.org/1999/xlink" x="0px" y="0px"
	 viewBox="0 0 438.44 438" style="enable-background:new 0 0 438.44 438;" xml:space="preserve">
<style type="text/css">
	.st0{fill:#583F35;}
</style>
<path class="st0" d="M219.22-0.22C98.15-0.22,0,97.93,0,219s98.15,219.22,219.22,219.22S438.44,340.07,438.44,219
	S340.29-0.22,219.22-0.22z M142.66,215.02c-12.38-4.97-18.38-19.03-13.43-31.41l21.14-52.81c15.12-37.76,57.99-56.12,95.75-41
	l52.97,21.21c12.29,4.92,18.26,18.87,13.34,31.15l0,0c-4.3,10.73-15.65,16.86-26.98,14.56c-44.12-8.96-89.36,10.58-113.36,48.71
	C165.88,215.34,153.5,219.38,142.66,215.02L142.66,215.02z M288.07,307.19c-15.12,37.76-57.99,56.12-95.75,41l-52.97-21.21
	c-12.29-4.92-18.26-18.87-13.34-31.15c4.3-10.73,15.65-16.86,26.98-14.56c44.12,8.96,89.36-10.58,113.36-48.71
	c6.22-9.89,18.61-13.93,29.45-9.58l0,0c12.38,4.97,18.38,19.03,13.43,31.41L288.07,307.19z"/>
</svg>
