<?xml version="1.0" encoding="utf-8"?>
<!-- Generator: Adobe Illustrator 26.3.1, SVG Export Plug-In . SVG Version: 6.00 Build 0)  -->
<svg version="1.1" id="Layer_1" xmlns="http://www.w3.org/2000/svg" xmlns:xlink="http://www.w3.org/1999/xlink" x="0px" y="0px"
	 viewBox="0 0 825 481.2" style="enable-background:new 0 0 825 481.2;" xml:space="preserve">
<style type="text/css">
	.st0{fill:#FFFFFF;}
</style>
<g>
	<path class="st0" d="M380.3,81.8H366V20.2h46.5v11.4h-32.2V81.8z M379.2,47.9h29.6v11.4h-29.6V47.9z"/>
	<path class="st0" d="M411.6,81.8L439,20.2h14l27.6,61.6h-15L443,27.4h5.7l-22.6,54.4H411.6z M425.4,68.6l3.6-10.8h31.8l3.7,10.8
		H425.4z"/>
	<path class="st0" d="M487,81.8V20.2h14.3v61.6H487z"/>
	<path class="st0" d="M528.6,81.8v-50h-19.7V20.2h53.7v11.6h-19.7v50H528.6z"/>
	<path class="st0" d="M584.6,81.8h-14.3V20.2h14.3V81.8z M613.5,56.5h-30.1v-12h30.1V56.5z M612.4,20.2h14.2v61.6h-14.2V20.2z"/>
	<path class="st0" d="M376.7,187.3h-8.8v-61.6h8.8V187.3z M412.9,159.9h-37v-7.7h37V159.9z M412.1,125.8h8.8v61.6h-8.8V125.8z"/>
	<path class="st0" d="M448.1,179.7H484v7.7h-44.7v-61.6h43.4v7.7H448v46.2H448.1z M447.4,152.3H479v7.5h-31.7v-7.5H447.4z"/>
	<path class="st0" d="M498.3,187.3v-61.6h24c5.4,0,10,0.9,13.8,2.6s6.7,4.2,8.8,7.4s3.1,7.1,3.1,11.5c0,4.5-1,8.3-3.1,11.5
		s-5,5.6-8.8,7.3s-8.4,2.6-13.8,2.6h-19.2l4-4v22.8h-8.8V187.3z M507.1,165.4l-4-4.3H522c5.6,0,9.9-1.2,12.8-3.6
		c2.9-2.4,4.4-5.8,4.4-10.2s-1.5-7.8-4.4-10.2s-7.2-3.6-12.8-3.6h-18.9l4-4.4V165.4z M539.4,187.3L523.8,165h9.4l15.8,22.3H539.4z"
		/>
	<path class="st0" d="M562.2,187.3v-61.6h8.8v61.6H562.2z"/>
	<path class="st0" d="M601.7,187.3v-53.9h-21.1v-7.7h50.9v7.7h-21.1v53.9L601.7,187.3L601.7,187.3z"/>
	<path class="st0" d="M628.7,187.3l27.9-61.6h8.7l28,61.6H684l-24.9-56.6h3.5l-24.9,56.6L628.7,187.3L628.7,187.3z M640.6,171.9
		l2.4-7h34.7l2.6,7H640.6z"/>
	<path class="st0" d="M729.3,188c-4.8,0-9.1-0.8-13.1-2.3c-4-1.6-7.4-3.8-10.4-6.6c-2.9-2.8-5.2-6.2-6.9-10c-1.6-3.8-2.5-8-2.5-12.6
		s0.8-8.8,2.5-12.6c1.6-3.8,3.9-7.1,6.9-10c3-2.8,6.4-5,10.4-6.6s8.4-2.3,13.2-2.3c4.9,0,9.3,0.8,13.4,2.4c4,1.6,7.5,4,10.3,7.1
		l-5.5,5.5c-2.5-2.5-5.3-4.3-8.2-5.4c-3-1.1-6.2-1.7-9.6-1.7c-3.5,0-6.8,0.6-9.8,1.8s-5.6,2.8-7.8,4.9c-2.2,2.1-3.9,4.6-5.1,7.5
		c-1.2,2.9-1.8,6.1-1.8,9.5c0,3.3,0.6,6.5,1.8,9.4s2.9,5.4,5.1,7.6c2.2,2.1,4.8,3.8,7.8,5s6.2,1.8,9.8,1.8c3.3,0,6.4-0.5,9.5-1.5
		c3-1,5.8-2.7,8.4-5.1l5,6.7c-3,2.6-6.6,4.5-10.7,5.8C737.9,187.4,733.7,188,729.3,188z M744.2,179.1v-22.9h8.4v24L744.2,179.1z"/>
	<path class="st0" d="M778.2,179.7h35.9v7.7h-44.7v-61.6h43.5v7.7h-34.7V179.7z M777.5,152.3h31.7v7.5h-31.7V152.3z"/>
	<path class="st0" d="M385.9,293.6c-4.7,0-9.2-0.7-13.5-2.2c-4.3-1.4-7.7-3.3-10.1-5.6l3.3-6.9c2.3,2.1,5.3,3.8,9,5.1
		c3.6,1.3,7.4,2,11.3,2c3.6,0,6.5-0.4,8.7-1.2c2.2-0.8,3.9-1.9,4.9-3.4c1.1-1.4,1.6-3.1,1.6-4.9c0-2.1-0.7-3.8-2.1-5.1
		c-1.4-1.3-3.2-2.3-5.4-3.1c-2.2-0.8-4.6-1.5-7.3-2.1c-2.6-0.6-5.3-1.3-8-2.1c-2.7-0.8-5.1-1.8-7.3-3s-4-2.9-5.3-5s-2-4.8-2-8
		s0.8-6.1,2.5-8.8s4.3-4.8,7.7-6.4c3.5-1.6,7.9-2.4,13.3-2.4c3.6,0,7.1,0.5,10.6,1.4s6.6,2.3,9.1,4l-2.9,7c-2.6-1.8-5.4-3-8.4-3.8
		c-2.9-0.8-5.8-1.2-8.5-1.2c-3.5,0-6.3,0.4-8.5,1.3c-2.2,0.9-3.9,2.1-4.9,3.5c-1,1.5-1.5,3.1-1.5,4.9c0,2.2,0.7,3.9,2.1,5.2
		s3.2,2.3,5.4,3.1c2.2,0.8,4.6,1.5,7.3,2.1c2.6,0.6,5.3,1.3,8,2.1c2.7,0.8,5.1,1.8,7.3,3c2.2,1.2,4,2.9,5.3,4.9c1.3,2.1,2,4.7,2,7.9
		c0,3.1-0.9,6-2.6,8.7s-4.3,4.8-7.9,6.4C395.7,292.8,391.3,293.6,385.9,293.6z"/>
	<path class="st0" d="M450.1,293.6c-4.7,0-9-0.8-13-2.3c-4-1.6-7.4-3.8-10.3-6.6c-2.9-2.8-5.2-6.2-6.8-10c-1.6-3.8-2.5-8-2.5-12.6
		s0.8-8.8,2.5-12.6c1.6-3.8,3.9-7.1,6.9-10c2.9-2.8,6.4-5,10.3-6.6s8.3-2.3,13-2.3s9.1,0.8,13.1,2.4c4,1.6,7.4,4,10.2,7.2l-5.7,5.5
		c-2.3-2.5-5-4.3-7.9-5.5s-6.1-1.8-9.4-1.8c-3.5,0-6.7,0.6-9.6,1.8c-3,1.2-5.5,2.8-7.7,4.9c-2.2,2.1-3.9,4.6-5.1,7.5
		s-1.8,6.1-1.8,9.5s0.6,6.6,1.8,9.5c1.2,2.9,2.9,5.4,5.1,7.5s4.7,3.8,7.7,4.9c3,1.2,6.2,1.8,9.6,1.8c3.3,0,6.5-0.6,9.4-1.8
		c2.9-1.2,5.6-3.1,7.9-5.6l5.7,5.5c-2.8,3.2-6.2,5.6-10.2,7.2C459.3,292.8,454.9,293.6,450.1,293.6z"/>
	<path class="st0" d="M494.9,292.9h-8.8v-61.6h8.8V292.9z M531.1,265.4h-37v-7.7h37V265.4z M530.3,231.3h8.8v61.6h-8.8V231.3z"/>
	<path class="st0" d="M585.4,293.6c-4.7,0-9-0.8-13.1-2.4c-4-1.6-7.5-3.8-10.4-6.6c-2.9-2.8-5.2-6.2-6.9-10c-1.6-3.8-2.5-8-2.5-12.5
		s0.8-8.7,2.5-12.5c1.6-3.8,3.9-7.1,6.9-10c2.9-2.8,6.4-5.1,10.4-6.6c4-1.6,8.4-2.4,13.1-2.4c4.7,0,9,0.8,13,2.3
		c4,1.6,7.4,3.8,10.4,6.6c2.9,2.8,5.2,6.2,6.8,10s2.4,8,2.4,12.5c0,4.6-0.8,8.8-2.4,12.6c-1.6,3.8-3.9,7.1-6.8,10
		c-2.9,2.8-6.4,5-10.4,6.6C594.4,292.8,590,293.6,585.4,293.6z M585.3,285.8c3.5,0,6.6-0.6,9.5-1.8c2.9-1.2,5.4-2.8,7.6-5
		c2.1-2.1,3.8-4.6,5-7.5s1.8-6,1.8-9.4s-0.6-6.5-1.8-9.4c-1.2-2.8-2.9-5.4-5-7.5c-2.1-2.2-4.7-3.8-7.6-5c-2.9-1.2-6.1-1.8-9.5-1.8
		s-6.6,0.6-9.5,1.8s-5.4,2.8-7.6,5c-2.2,2.2-3.9,4.7-5.1,7.5c-1.2,2.8-1.8,6-1.8,9.4s0.6,6.5,1.8,9.4s2.9,5.4,5.1,7.5
		c2.2,2.1,4.7,3.8,7.6,5C578.7,285.2,581.9,285.8,585.3,285.8z"/>
	<path class="st0" d="M659.2,293.6c-4.7,0-9-0.8-13.1-2.4c-4-1.6-7.5-3.8-10.4-6.6c-2.9-2.8-5.2-6.2-6.9-10c-1.6-3.8-2.5-8-2.5-12.5
		s0.8-8.7,2.5-12.5c1.6-3.8,3.9-7.1,6.9-10c2.9-2.8,6.4-5.1,10.4-6.6c4-1.6,8.4-2.4,13.1-2.4c4.7,0,9,0.8,13,2.3
		c4,1.6,7.4,3.8,10.4,6.6c2.9,2.8,5.2,6.2,6.8,10s2.4,8,2.4,12.5c0,4.6-0.8,8.8-2.4,12.6c-1.6,3.8-3.9,7.1-6.8,10
		c-2.9,2.8-6.4,5-10.4,6.6C668.3,292.8,663.9,293.6,659.2,293.6z M659.2,285.8c3.5,0,6.6-0.6,9.5-1.8c2.9-1.2,5.4-2.8,7.6-5
		c2.1-2.1,3.8-4.6,5-7.5s1.8-6,1.8-9.4s-0.6-6.5-1.8-9.4c-1.2-2.8-2.9-5.4-5-7.5c-2.1-2.2-4.7-3.8-7.6-5c-2.9-1.2-6.1-1.8-9.5-1.8
		s-6.6,0.6-9.5,1.8s-5.4,2.8-7.6,5c-2.2,2.2-3.9,4.7-5.1,7.5c-1.2,2.8-1.8,6-1.8,9.4s0.6,6.5,1.8,9.4s2.9,5.4,5.1,7.5
		c2.2,2.1,4.7,3.8,7.6,5S655.8,285.8,659.2,285.8z"/>
	<path class="st0" d="M705.3,292.9v-61.6h8.8v53.9h33.3v7.7H705.3z"/>
</g>
<g>
	<path class="st0" d="M366.3,375.9v-25.8h3.9l11.3,18.8h-2.1l11.1-18.8h3.9l0.1,25.8h-4.6v-18.7h0.9l-9.4,15.8h-2.2l-9.6-15.8h1.1
		v18.7H366.3z"/>
	<path class="st0" d="M397.8,375.9l11.6-25.8h4.7l11.6,25.8h-5l-9.9-23.2h1.9l-10,23.2H397.8z M403.1,369.9l1.3-3.8h13.9l1.3,3.8
		H403.1z"/>
	<path class="st0" d="M429,375.9v-25.8h3.9l16.2,19.9h-2v-19.9h4.7v25.8h-3.9L431.8,356h2v19.9H429z"/>
	<path class="st0" d="M455.2,375.9l11.6-25.8h4.7l11.6,25.8h-5l-9.9-23.2h1.9l-10,23.2H455.2z M460.5,369.9l1.3-3.8h13.9l1.3,3.8
		H460.5z"/>
	<path class="st0" d="M498.1,376.2c-2,0-3.9-0.3-5.5-1c-1.7-0.6-3.1-1.6-4.4-2.8c-1.3-1.2-2.2-2.6-2.9-4.2c-0.7-1.6-1-3.4-1-5.3
		s0.3-3.7,1-5.3s1.7-3,2.9-4.2c1.3-1.2,2.7-2.1,4.4-2.8c1.7-0.7,3.6-1,5.6-1c2.2,0,4.1,0.4,5.9,1.1s3.2,1.8,4.4,3.1l-3,2.9
		c-1-1-2.1-1.7-3.3-2.2s-2.4-0.7-3.8-0.7s-2.6,0.2-3.8,0.7c-1.1,0.4-2.1,1.1-3,1.9c-0.8,0.8-1.5,1.8-2,2.9s-0.7,2.3-0.7,3.6
		c0,1.3,0.2,2.5,0.7,3.6s1.1,2.1,2,2.9c0.8,0.8,1.8,1.4,2.9,1.9s2.4,0.7,3.8,0.7c1.3,0,2.5-0.2,3.7-0.6s2.3-1.1,3.4-2l2.7,3.6
		c-1.3,1.1-2.9,1.9-4.6,2.4C501.7,375.9,499.9,376.2,498.1,376.2z M503.7,372.3v-9.6h4.5v10.2L503.7,372.3z"/>
	<path class="st0" d="M519.3,371.8h14.5v4h-19.3V350h18.8v4h-14V371.8z M518.9,360.8h12.8v3.9h-12.8V360.8z"/>
	<path class="st0" d="M539.1,375.9v-25.8h11.3c2.7,0,5.2,0.5,7.3,1.6s3.8,2.6,5,4.5s1.8,4.2,1.8,6.8c0,2.6-0.6,4.8-1.8,6.8
		c-1.2,1.9-2.8,3.4-5,4.5c-2.1,1.1-4.6,1.6-7.3,1.6H539.1z M543.9,371.8h6.2c1.9,0,3.6-0.4,5-1.1s2.5-1.8,3.3-3.1
		c0.8-1.3,1.2-2.9,1.2-4.6c0-1.8-0.4-3.4-1.2-4.7c-0.8-1.3-1.9-2.3-3.3-3.1c-1.4-0.7-3.1-1.1-5-1.1h-6.2V371.8z"/>
	<path class="st0" d="M579.7,375.9v-25.8h12.1c3.1,0,5.4,0.6,7,1.8c1.6,1.2,2.4,2.8,2.4,4.9c0,1.4-0.3,2.5-1,3.5
		c-0.6,1-1.5,1.7-2.6,2.2s-2.2,0.8-3.5,0.8l0.7-1.3c1.4,0,2.7,0.3,3.9,0.8s2.1,1.3,2.7,2.3c0.7,1,1,2.3,1,3.8c0,2.2-0.8,3.9-2.5,5.2
		c-1.7,1.2-4.2,1.8-7.5,1.8L579.7,375.9L579.7,375.9z M584.5,372.1h7.8c1.8,0,3.1-0.3,4.1-0.9s1.4-1.5,1.4-2.8s-0.5-2.2-1.4-2.8
		c-1-0.6-2.3-0.9-4.1-0.9h-8.1V361h7.1c1.6,0,2.9-0.3,3.8-0.9c0.9-0.6,1.4-1.5,1.4-2.7s-0.5-2.1-1.4-2.7s-2.2-0.9-3.8-0.9h-6.8
		V372.1z"/>
	<path class="st0" d="M613.5,375.9v-10.2l1.1,2.9l-11.2-18.5h5.1l9.1,14.9h-2.9l9-14.9h4.7l-11.2,18.5l1.1-2.9v10.2H613.5z"/>
	<path class="st0" d="M371.1,420h-4.8v-25.8h18.8v4h-14V420z M370.7,406.2h12.8v4h-12.8V406.2z"/>
	<path class="st0" d="M385,420l11.6-25.8h4.7l11.6,25.8h-5l-9.9-23.2h1.9l-10,23.2H385z M390.3,414.1l1.3-3.8h13.9l1.3,3.8H390.3z"
		/>
	<path class="st0" d="M416.2,420v-25.8h4.8V420H416.2z"/>
	<path class="st0" d="M433.2,420v-21.7h-8.5v-4h21.9v4H438V420H433.2z"/>
	<path class="st0" d="M454.9,420h-4.8v-25.8h4.8V420z M468.6,409h-14.1v-4.1h14.1V409z M468.2,394.3h4.7V420h-4.7V394.3z"/>
	<path class="st0" d="M490.1,420v-25.8h3.9l11.3,18.8h-2.1l11.1-18.8h3.9l0.1,25.8h-4.6v-18.7h0.9l-9.4,15.8H503l-9.6-15.8h1.1V420
		H490.1z"/>
	<path class="st0" d="M525.3,420v-25.8h4.8V420H525.3z"/>
	<path class="st0" d="M537,420v-25.8h3.9l16.2,19.9h-2v-19.9h4.7V420h-3.9l-16.1-19.9h2V420H537z"/>
	<path class="st0" d="M566.8,420v-25.8h4.8V420H566.8z"/>
	<path class="st0" d="M586.6,420.4c-2,0-3.9-0.3-5.8-0.9c-1.8-0.6-3.3-1.3-4.4-2.2l1.7-3.7c1,0.8,2.3,1.5,3.8,2s3.1,0.8,4.7,0.8
		c1.3,0,2.4-0.1,3.3-0.4c0.8-0.3,1.4-0.7,1.8-1.2c0.4-0.5,0.6-1.1,0.6-1.7c0-0.8-0.3-1.4-0.8-1.9c-0.6-0.5-1.3-0.9-2.2-1.1
		c-0.9-0.3-1.9-0.5-3-0.8c-1.1-0.2-2.2-0.5-3.3-0.9c-1.1-0.3-2.1-0.8-3-1.3s-1.6-1.2-2.2-2.1c-0.6-0.9-0.8-2-0.8-3.4
		s0.4-2.7,1.1-3.8c0.7-1.2,1.9-2.1,3.4-2.8c1.5-0.7,3.5-1,5.8-1c1.5,0,3.1,0.2,4.6,0.6s2.8,1,4,1.7l-1.5,3.7
		c-1.2-0.7-2.3-1.2-3.6-1.5c-1.2-0.3-2.4-0.5-3.5-0.5c-1.3,0-2.4,0.2-3.2,0.5s-1.4,0.7-1.8,1.3c-0.4,0.5-0.6,1.1-0.6,1.7
		c0,0.8,0.3,1.4,0.8,1.9c0.6,0.5,1.3,0.9,2.2,1.1c0.9,0.3,1.9,0.5,3,0.8s2.2,0.5,3.3,0.9c1.1,0.3,2.1,0.8,3,1.3s1.6,1.2,2.2,2.1
		c0.6,0.9,0.8,2,0.8,3.3c0,1.4-0.4,2.6-1.1,3.8c-0.7,1.2-1.9,2.1-3.4,2.8C590.9,420.1,588.9,420.4,586.6,420.4z"/>
	<path class="st0" d="M606.6,420v-21.7H598v-4h21.9v4h-8.5V420H606.6z"/>
	<path class="st0" d="M623.5,420v-25.8h10.6c2.3,0,4.2,0.4,5.9,1.1c1.6,0.7,2.9,1.8,3.8,3.1c0.9,1.4,1.3,3,1.3,4.9s-0.4,3.5-1.3,4.9
		c-0.9,1.4-2.1,2.4-3.8,3.1c-1.6,0.7-3.6,1.1-5.9,1.1h-7.9l2.1-2.1v9.6L623.5,420L623.5,420z M628.3,410.9l-2.1-2.3h7.7
		c2.1,0,3.7-0.5,4.8-1.4s1.6-2.2,1.6-3.8s-0.5-2.9-1.6-3.8s-2.7-1.3-4.8-1.3h-7.7l2.1-2.4V410.9z M640.4,420l-6.5-9.4h5.1l6.6,9.4
		H640.4z"/>
	<path class="st0" d="M650.4,420v-25.8h4.8V420H650.4z"/>
	<path class="st0" d="M667,416h14.5v4h-19.3v-25.8H681v4h-14V416z M666.6,405h12.8v3.9h-12.8V405z"/>
	<path class="st0" d="M694.8,420.4c-2,0-3.9-0.3-5.8-0.9c-1.8-0.6-3.3-1.3-4.4-2.2l1.7-3.7c1,0.8,2.3,1.5,3.8,2s3.1,0.8,4.7,0.8
		c1.3,0,2.4-0.1,3.3-0.4c0.8-0.3,1.4-0.7,1.8-1.2c0.4-0.5,0.6-1.1,0.6-1.7c0-0.8-0.3-1.4-0.8-1.9c-0.6-0.5-1.3-0.9-2.2-1.1
		c-0.9-0.3-1.9-0.5-3-0.8c-1.1-0.2-2.2-0.5-3.3-0.9c-1.1-0.3-2.1-0.8-3-1.3s-1.6-1.2-2.2-2.1c-0.6-0.9-0.8-2-0.8-3.4
		s0.4-2.7,1.1-3.8c0.7-1.2,1.9-2.1,3.4-2.8c1.5-0.7,3.5-1,5.8-1c1.5,0,3.1,0.2,4.6,0.6s2.8,1,4,1.7l-1.5,3.7
		c-1.2-0.7-2.3-1.2-3.6-1.5c-1.2-0.3-2.4-0.5-3.5-0.5c-1.3,0-2.4,0.2-3.2,0.5s-1.4,0.7-1.8,1.3c-0.4,0.5-0.6,1.1-0.6,1.7
		c0,0.8,0.3,1.4,0.8,1.9c0.6,0.5,1.3,0.9,2.2,1.1c0.9,0.3,1.9,0.5,3,0.8s2.2,0.5,3.3,0.9c1.1,0.3,2.1,0.8,3,1.3s1.6,1.2,2.2,2.1
		c0.6,0.9,0.8,2,0.8,3.3c0,1.4-0.4,2.6-1.1,3.8c-0.7,1.2-1.9,2.1-3.4,2.8C699.1,420.1,697.2,420.4,694.8,420.4z"/>
	<path class="st0" d="M378.2,464.6c-2,0-3.8-0.3-5.5-1s-3.1-1.6-4.4-2.8c-1.2-1.2-2.2-2.6-2.9-4.2c-0.7-1.6-1-3.4-1-5.3
		s0.3-3.7,1-5.3c0.7-1.6,1.7-3,2.9-4.2c1.3-1.2,2.7-2.1,4.4-2.8c1.7-0.6,3.5-1,5.5-1c2.1,0,4,0.4,5.8,1.1c1.7,0.7,3.2,1.8,4.4,3.2
		l-3.1,2.9c-1-1-2-1.8-3.2-2.3s-2.4-0.8-3.7-0.8c-1.3,0-2.6,0.2-3.7,0.7c-1.1,0.4-2.1,1.1-2.9,1.9s-1.5,1.8-1.9,2.9
		c-0.5,1.1-0.7,2.3-0.7,3.6s0.2,2.5,0.7,3.6s1.1,2.1,1.9,2.9s1.8,1.4,2.9,1.9c1.1,0.4,2.4,0.7,3.7,0.7c1.3,0,2.6-0.3,3.7-0.8
		c1.2-0.5,2.2-1.3,3.2-2.3l3.1,2.9c-1.2,1.4-2.7,2.5-4.4,3.2C382.3,464.2,380.4,464.6,378.2,464.6z"/>
	<path class="st0" d="M397.8,464.2H393v-25.8h4.8V464.2z M411.5,453.2h-14.1v-4.1h14.1V453.2z M411.2,438.4h4.7v25.8h-4.7V438.4z"/>
	<path class="st0" d="M433.9,464.6c-3.5,0-6.3-1-8.3-3s-3-4.9-3-8.7v-14.5h4.8v14.4c0,2.7,0.6,4.6,1.7,5.8c1.1,1.2,2.8,1.8,4.8,1.8
		c2.1,0,3.7-0.6,4.8-1.8c1.1-1.2,1.7-3.1,1.7-5.8v-14.4h4.7v14.5c0,3.8-1,6.7-3,8.7C440.2,463.6,437.5,464.6,433.9,464.6z"/>
	<path class="st0" d="M451.9,464.2v-25.8h10.6c2.3,0,4.2,0.4,5.9,1.1c1.6,0.7,2.9,1.8,3.8,3.1c0.9,1.4,1.3,3,1.3,4.9
		s-0.4,3.5-1.3,4.9s-2.1,2.4-3.8,3.1c-1.6,0.7-3.6,1.1-5.9,1.1h-7.9l2.1-2.1v9.6L451.9,464.2L451.9,464.2z M456.7,455.1l-2.1-2.3
		h7.7c2.1,0,3.7-0.5,4.8-1.4s1.6-2.2,1.6-3.8c0-1.6-0.5-2.9-1.6-3.8s-2.7-1.3-4.8-1.3h-7.7l2.1-2.4V455.1z M468.8,464.2l-6.5-9.4
		h5.1l6.6,9.4H468.8z"/>
	<path class="st0" d="M490.8,464.6c-2,0-3.8-0.3-5.5-1s-3.1-1.6-4.4-2.8c-1.2-1.2-2.2-2.6-2.9-4.2c-0.7-1.6-1-3.4-1-5.3
		s0.3-3.7,1-5.3c0.7-1.6,1.7-3,2.9-4.2c1.3-1.2,2.7-2.1,4.4-2.8c1.7-0.6,3.5-1,5.5-1c2.1,0,4,0.4,5.8,1.1c1.7,0.7,3.2,1.8,4.4,3.2
		l-3.1,2.9c-1-1-2-1.8-3.2-2.3s-2.4-0.8-3.7-0.8c-1.3,0-2.6,0.2-3.7,0.7c-1.1,0.4-2.1,1.1-2.9,1.9s-1.5,1.8-1.9,2.9
		c-0.5,1.1-0.7,2.3-0.7,3.6s0.2,2.5,0.7,3.6s1.1,2.1,1.9,2.9s1.8,1.4,2.9,1.9c1.1,0.4,2.4,0.7,3.7,0.7c1.3,0,2.6-0.3,3.7-0.8
		c1.2-0.5,2.2-1.3,3.2-2.3l3.1,2.9c-1.2,1.4-2.7,2.5-4.4,3.2C494.8,464.2,492.9,464.6,490.8,464.6z"/>
	<path class="st0" d="M510.4,464.2h-4.8v-25.8h4.8V464.2z M524.1,453.2H510v-4.1h14.1V453.2z M523.7,438.4h4.7v25.8h-4.7V438.4z"/>
</g>
<path class="st0" d="M14.9,13.8v286h286v-286L14.9,13.8L14.9,13.8z M224.4,105.3L217,221.1l-51.7,27.1c0,0,4.6-72.6,4.9-80.3
	c1.9-20.2,2.3-45.4,33.8-55.9C216,107.7,224.4,105.3,224.4,105.3z M66.5,237.8L51,117.6l31.3,3.9l7.1,106.7l61.1,24.4L66.5,237.8z
	 M98.8,221.1l-7.4-115.8c0,0,8.4,2.5,20.5,6.7c31.4,10.5,31.8,35.7,33.8,55.9c0.3,7.7,4.9,80.3,4.9,80.3L98.8,221.1z M129.6,89.3
	c0-15.6,12.7-28.3,28.3-28.3s28.3,12.7,28.3,28.3s-12.7,28.3-28.3,28.3C142.2,117.6,129.6,104.9,129.6,89.3z M249.2,237.8l-84,14.8
	l61.1-24.4l7.1-106.7l31.3-3.9L249.2,237.8z"/>
</svg>
