<?xml version="1.0" encoding="utf-8"?>
<!-- Generator: Adobe Illustrator 26.3.1, SVG Export Plug-In . SVG Version: 6.00 Build 0)  -->
<svg version="1.1" id="Layer_1" xmlns="http://www.w3.org/2000/svg" xmlns:xlink="http://www.w3.org/1999/xlink" x="0px" y="0px"
	 viewBox="0 0 119.9 120" style="enable-background:new 0 0 119.9 120;" xml:space="preserve">
<style type="text/css">
	.st0{fill:#FFFFFF;}
</style>
<g>
	<path class="st0" d="M107,70.2c-10.1-4.4-21.9,0.4-26.3,10.5c-1.6,3.9-4.2,7.5-7.8,10.7C60.4,102.8,40.3,103,25.8,94
		c7.2,12,19.9,20.6,34,23.6c16,3.4,33.6-0.5,47.4-10.2l3.3-2.2C123.2,96.4,121.4,76.3,107,70.2z"/>
	<path class="st0" d="M60,2.4C43.9-1,26.4,3,12.6,12.6l-3.3,2.2c-12.7,8.7-10.7,28.7,3.5,34.8C23,54,34.8,49.3,39.1,39.1
		c1.6-3.9,4.2-7.5,7.8-10.7C59.4,17.1,79.5,16.9,94,25.8C86.8,13.9,74.1,5.3,60,2.4z"/>
</g>
<g>
</g>
<g>
</g>
<g>
</g>
<g>
</g>
<g>
</g>
<g>
</g>
<g>
</g>
<g>
</g>
<g>
</g>
<g>
</g>
<g>
</g>
<g>
</g>
<g>
</g>
<g>
</g>
<g>
</g>
</svg>
