<?xml version="1.0" encoding="utf-8"?>
<!-- Generator: Adobe Illustrator 26.3.1, SVG Export Plug-In . SVG Version: 6.00 Build 0)  -->
<svg version="1.1" id="Layer_1" xmlns="http://www.w3.org/2000/svg" xmlns:xlink="http://www.w3.org/1999/xlink" x="0px" y="0px"
	 viewBox="0 0 267.8 742.3" style="enable-background:new 0 0 267.8 742.3;" xml:space="preserve">
<style type="text/css">
	.st0{fill:none;stroke:#F4F9F8;stroke-miterlimit:10;}
	.st1{fill:#F4F9F8;}
	.st2{fill:#00447B;}
	.st3{fill:#FFFFFF;}
</style>
<g>
	<g>
		<path class="st0" d="M198.9,241.1H69.2c-27,0-49-21.9-49-49V62.3c0-27,21.9-49,49-49h129.8c27,0,49,21.9,49,49v129.8
			C247.9,219.2,226,241.1,198.9,241.1z"/>
		<circle class="st0" cx="134" cy="127.2" r="99.5"/>
		<line class="st0" x1="20.2" y1="27.7" x2="247.9" y2="27.7"/>
		<line class="st0" x1="20.2" y1="83.6" x2="247.9" y2="83.6"/>
		<line class="st0" x1="20.2" y1="170.8" x2="247.9" y2="170.8"/>
		<line class="st0" x1="20.2" y1="226.7" x2="247.9" y2="226.7"/>
		<line class="st0" x1="20.2" y1="127.2" x2="247.9" y2="127.2"/>
		<line class="st0" x1="34.5" y1="241.1" x2="34.5" y2="13.4"/>
		<line class="st0" x1="233.6" y1="241.1" x2="233.6" y2="13.4"/>
		<line class="st0" x1="134" y1="241.1" x2="134" y2="13.4"/>
		<line class="st0" x1="20.2" y1="241.1" x2="247.9" y2="13.4"/>
		<line class="st0" x1="20.2" y1="13.4" x2="247.9" y2="241.1"/>
		<circle class="st0" cx="134" cy="127.2" r="43.6"/>
		<circle class="st0" cx="134" cy="127.2" r="61.9"/>
		<line class="st0" x1="90.4" y1="241.1" x2="90.4" y2="13.4"/>
		<line class="st0" x1="177.7" y1="241.1" x2="177.7" y2="13.4"/>
	</g>
	<path class="st1" d="M137.5,370.2v-48.3c0-1.2-0.9-2.1-2.1-2.1h-2.8c-1.2,0-2.1,0.9-2.1,2.1v48.3h-12.3c-2.7,0-4.5,3-3.1,5.4
		l15.8,27.4c1.4,2.4,4.8,2.4,6.2,0l15.8-27.4c1.4-2.4-0.3-5.4-3.1-5.4H137.5z"/>
	<path class="st2" d="M191.8,729H76.3c-36,0-65.1-29.1-65.1-65.1V548.5c0-36,29.1-65.1,65.1-65.1h115.4c36,0,65.1,29.1,65.1,65.1
		v115.4C256.9,699.9,227.7,729,191.8,729z"/>
	<g>
		<path class="st3" d="M180.9,616.6c-10.2-4.4-22.1,0.3-26.5,10.6c-1.7,3.9-4.2,7.6-7.8,10.8c-12.6,11.4-32.8,11.7-47.5,2.6
			c7.2,12.1,20,20.8,34.3,23.7c16.1,3.4,33.8-0.5,47.7-10.3c0,0,3.3-2.3,3.3-2.3C197.3,642.8,195.3,622.6,180.9,616.6z"/>
		<path class="st3" d="M133.4,548.2c-16.1-3.4-33.8,0.5-47.7,10.3c0,0-3.3,2.3-3.3,2.3c-12.8,8.8-10.8,29,3.6,35
			c10.2,4.4,22.1-0.3,26.5-10.6c1.7-3.9,4.2-7.6,7.8-10.8c12.6-11.4,32.8-11.7,47.5-2.6C160.5,559.8,147.7,551.1,133.4,548.2z"/>
	</g>
</g>
<g>
</g>
<g>
</g>
<g>
</g>
<g>
</g>
<g>
</g>
<g>
</g>
<g>
</g>
<g>
</g>
<g>
</g>
<g>
</g>
<g>
</g>
<g>
</g>
<g>
</g>
<g>
</g>
<g>
</g>
</svg>
