<?xml version="1.0" encoding="utf-8"?>
<!-- Generator: Adobe Illustrator 24.0.2, SVG Export Plug-In . SVG Version: 6.00 Build 0)  -->
<svg version="1.1" id="Layer_1" xmlns="http://www.w3.org/2000/svg" xmlns:xlink="http://www.w3.org/1999/xlink" x="0px" y="0px"
	 viewBox="0 0 303.11 303.11" style="enable-background:new 0 0 303.11 303.11;" xml:space="preserve">
<style type="text/css">
	.st0{fill:#E5EBF8;}
	.st1{opacity:0.8;}
	.st2{fill:#00D4D9;}
	.st3{fill:url(#SVGID_1_);}
	.st4{fill:url(#SVGID_2_);}
	.st5{fill:#FFFFFF;}
	.st6{fill:none;stroke:#000000;stroke-miterlimit:10;}
</style>
<g>
	<path class="st0" d="M213.23,164.98c-13.28-5.71-28.73,0.46-34.44,13.74c-2.16,5.1-5.56,9.88-10.19,14.05
		c-16.37,14.83-42.78,15.13-61.77,3.4c9.42,15.75,26.1,27.03,44.63,30.89c21,4.48,44.01-0.62,62.08-13.44l4.32-2.93
		C234.54,199.27,232.07,172.86,213.23,164.98z"/>
	<path class="st0" d="M151.61,76.03c-21-4.48-44.01,0.77-62.08,13.44L85.2,92.4c-16.68,11.43-14.05,37.68,4.63,45.56
		c13.28,5.71,28.73-0.46,34.44-13.74c2.16-5.1,5.56-9.88,10.19-14.05c16.37-14.83,42.78-15.13,61.77-3.4
		C186.82,91.16,170.14,79.89,151.61,76.03z"/>
</g>
</svg>
