<?xml version="1.0" encoding="utf-8"?>
<!-- Generator: Adobe Illustrator 26.3.1, SVG Export Plug-In . SVG Version: 6.00 Build 0)  -->
<svg version="1.1" id="Layer_1" xmlns="http://www.w3.org/2000/svg" xmlns:xlink="http://www.w3.org/1999/xlink" x="0px" y="0px"
	 viewBox="0 0 425.5 99.8" style="enable-background:new 0 0 425.5 99.8;" xml:space="preserve">
<style type="text/css">
	.st0{fill:#3BB4E5;}
	.st1{fill:#4D4D4D;}
	.st2{fill:#00447B;}
	.st3{fill:#3BB6E7;}
</style>
<g>
	<g>
		<polygon class="st0" points="348.7,43.9 340.8,43.9 340.8,39.5 347.6,39.5 347.6,37.9 340.8,37.9 340.8,33.8 348.4,33.8 
			348.4,32.1 338.9,32.1 338.9,45.6 348.7,45.6 		"/>
		<polygon class="st0" points="355.9,40.3 359.7,35.4 357.7,35.4 354.9,39 352.1,35.4 350,35.4 353.8,40.3 349.8,45.6 351.9,45.6 
			354.9,41.6 357.8,45.6 359.9,45.6 		"/>
		<path class="st0" d="M363.2,45c0.8,0.4,1.7,0.7,2.8,0.7c0.9,0,1.7-0.2,2.5-0.6c0.7-0.4,1.3-0.9,1.7-1.6l-1.4-0.9
			c-0.3,0.5-0.7,0.9-1.2,1.1c-0.5,0.2-1,0.4-1.5,0.4c-0.7,0-1.3-0.1-1.8-0.4c-0.5-0.3-0.9-0.7-1.3-1.3c-0.3-0.5-0.5-1.2-0.5-1.9
			c0-0.7,0.2-1.4,0.5-1.9c0.3-0.5,0.7-0.9,1.3-1.2c0.5-0.3,1.1-0.4,1.8-0.4c0.6,0,1.1,0.1,1.5,0.4c0.5,0.2,0.9,0.6,1.2,1.1l1.4-0.9
			c-0.4-0.7-1-1.3-1.7-1.6c-0.7-0.4-1.5-0.5-2.5-0.5c-1,0-2,0.2-2.8,0.7c-0.8,0.4-1.5,1.1-1.9,1.8c-0.5,0.8-0.7,1.7-0.7,2.7
			s0.2,1.9,0.7,2.7C361.8,43.9,362.4,44.6,363.2,45z"/>
		<rect x="372.4" y="31.3" class="st0" width="1.8" height="14.3"/>
		<path class="st0" d="M385.5,40.6c0,0.7-0.1,1.3-0.4,1.8c-0.3,0.5-0.6,0.9-1.1,1.2c-0.5,0.3-1,0.4-1.7,0.4c-0.9,0-1.5-0.3-2-0.8
			c-0.5-0.5-0.7-1.3-0.7-2.3v-5.7h-1.8v5.9c0,1,0.2,1.8,0.5,2.5c0.4,0.7,0.9,1.2,1.5,1.5c0.7,0.3,1.4,0.5,2.3,0.5
			c0.8,0,1.6-0.2,2.3-0.6c0.5-0.3,0.9-0.6,1.2-1.1v1.5h1.8V35.4h-1.8V40.6z"/>
		<path class="st0" d="M395.8,43.7c-0.4,0.2-1,0.4-1.9,0.4c-0.7,0-1.3-0.1-2-0.3c-0.6-0.2-1.2-0.5-1.6-0.8l-0.8,1.5
			c0.4,0.3,1,0.6,1.8,0.8c0.8,0.2,1.6,0.3,2.4,0.3c0.9,0,1.7-0.1,2.3-0.4c0.7-0.3,1.2-0.6,1.5-1c0.4-0.4,0.5-1,0.5-1.6
			c0-0.6-0.1-1-0.4-1.4c-0.2-0.3-0.5-0.6-0.9-0.8c-0.4-0.2-0.8-0.3-1.3-0.5c-0.5-0.1-0.9-0.2-1.4-0.3c-0.5-0.1-0.9-0.2-1.3-0.3
			c-0.4-0.1-0.7-0.2-0.9-0.4c-0.2-0.2-0.4-0.5-0.4-0.8c0-0.4,0.2-0.7,0.6-1c0.4-0.3,1-0.4,1.8-0.4c0.5,0,1,0.1,1.5,0.2
			c0.5,0.1,1,0.3,1.4,0.6l0.8-1.5c-0.4-0.3-1-0.5-1.7-0.7c-0.7-0.2-1.4-0.2-2-0.2c-0.9,0-1.6,0.1-2.3,0.4c-0.6,0.3-1.1,0.6-1.5,1.1
			c-0.3,0.5-0.5,1-0.5,1.6c0,0.6,0.1,1.1,0.3,1.4c0.2,0.4,0.5,0.6,0.9,0.8c0.4,0.2,0.8,0.4,1.3,0.5c0.5,0.1,0.9,0.2,1.4,0.3
			c0.5,0.1,0.9,0.2,1.3,0.2c0.4,0.1,0.7,0.2,0.9,0.4c0.2,0.2,0.3,0.4,0.3,0.8C396.3,43.1,396.1,43.5,395.8,43.7z"/>
		<path class="st0" d="M401.4,31c-0.4,0-0.7,0.1-0.9,0.3c-0.2,0.2-0.4,0.5-0.4,0.9c0,0.3,0.1,0.6,0.4,0.8c0.2,0.2,0.5,0.3,0.9,0.3
			c0.4,0,0.7-0.1,0.9-0.4c0.2-0.2,0.3-0.5,0.3-0.9c0-0.3-0.1-0.6-0.4-0.8C402.1,31.1,401.8,31,401.4,31z"/>
		<rect x="400.5" y="35.4" class="st0" width="1.8" height="10.2"/>
		<polygon class="st0" points="409.5,43.5 406,35.4 404.1,35.4 408.5,45.6 410.4,45.6 414.9,35.4 413.1,35.4 		"/>
		<path class="st0" d="M424.9,37.8c-0.4-0.8-1-1.4-1.8-1.8c-0.8-0.4-1.6-0.7-2.6-0.7c-1,0-1.9,0.2-2.6,0.7s-1.4,1.1-1.8,1.8
			c-0.4,0.8-0.7,1.7-0.7,2.7s0.2,1.9,0.7,2.7c0.5,0.8,1.1,1.4,1.9,1.8c0.8,0.4,1.8,0.7,2.9,0.7c0.8,0,1.6-0.1,2.3-0.4
			c0.7-0.3,1.3-0.7,1.7-1.2l-1-1.2c-0.4,0.4-0.8,0.7-1.3,0.9c-0.5,0.2-1,0.3-1.6,0.3c-0.7,0-1.4-0.1-1.9-0.4c-0.6-0.3-1-0.7-1.3-1.2
			c-0.2-0.4-0.4-0.8-0.4-1.3h8.3c0-0.1,0-0.2,0-0.3c0-0.1,0-0.2,0-0.3C425.5,39.5,425.3,38.5,424.9,37.8z M418.8,37.3
			c0.5-0.3,1.1-0.4,1.7-0.4c0.7,0,1.2,0.1,1.7,0.4c0.5,0.3,0.9,0.7,1.2,1.2c0.2,0.4,0.3,0.8,0.4,1.3h-6.6c0.1-0.5,0.2-0.9,0.4-1.3
			C417.9,37.9,418.3,37.5,418.8,37.3z"/>
		<path class="st0" d="M343,55.2l-6.1,13.5h2l1.5-3.4h7.2l1.5,3.4h2l-6.1-13.5H343z M341,63.7l2.9-6.6l2.9,6.6H341z"/>
		<path class="st0" d="M353.7,54.1c-0.4,0-0.7,0.1-0.9,0.3s-0.4,0.5-0.4,0.9c0,0.3,0.1,0.6,0.4,0.8c0.2,0.2,0.5,0.3,0.9,0.3
			c0.4,0,0.7-0.1,0.9-0.4c0.2-0.2,0.3-0.5,0.3-0.9c0-0.3-0.1-0.6-0.4-0.8C354.3,54.2,354,54.1,353.7,54.1z"/>
		<rect x="352.7" y="58.5" class="st0" width="1.8" height="10.2"/>
		<path class="st0" d="M359.9,60.2v-1.7h-1.8v10.2h1.8v-5.1c0-1.1,0.3-2,0.9-2.6c0.6-0.6,1.4-0.9,2.3-0.9c0.1,0,0.1,0,0.2,0
			c0.1,0,0.1,0,0.2,0v-1.8c-1,0-1.8,0.2-2.5,0.6C360.6,59.2,360.2,59.7,359.9,60.2z"/>
		<path class="st0" d="M368.4,60.4c0.5-0.3,1.1-0.4,1.8-0.4c0.6,0,1.1,0.1,1.5,0.4c0.5,0.2,0.9,0.6,1.2,1.1l1.4-0.9
			c-0.4-0.7-1-1.3-1.7-1.6c-0.7-0.4-1.5-0.5-2.5-0.5c-1,0-2,0.2-2.8,0.7s-1.5,1.1-1.9,1.8c-0.5,0.8-0.7,1.7-0.7,2.7s0.2,1.9,0.7,2.7
			c0.5,0.8,1.1,1.4,1.9,1.8s1.7,0.7,2.8,0.7c0.9,0,1.7-0.2,2.5-0.6c0.7-0.4,1.3-0.9,1.7-1.6l-1.4-0.9c-0.3,0.5-0.7,0.9-1.2,1.1
			c-0.5,0.2-1,0.4-1.5,0.4c-0.7,0-1.3-0.1-1.8-0.4c-0.5-0.3-0.9-0.7-1.3-1.3c-0.3-0.5-0.5-1.2-0.5-1.9c0-0.7,0.2-1.4,0.5-1.9
			C367.5,61.1,367.9,60.7,368.4,60.4z"/>
		<path class="st0" d="M383.7,59c-0.8-0.4-1.7-0.7-2.7-0.7c-1,0-1.9,0.2-2.7,0.7c-0.8,0.4-1.4,1.1-1.9,1.8c-0.5,0.8-0.7,1.7-0.7,2.7
			c0,1,0.2,1.9,0.7,2.7c0.5,0.8,1.1,1.4,1.9,1.9c0.8,0.4,1.7,0.7,2.7,0.7c1,0,1.9-0.2,2.7-0.7c0.8-0.4,1.4-1.1,1.9-1.8
			c0.5-0.8,0.7-1.7,0.7-2.7c0-1-0.2-1.9-0.7-2.7C385.1,60.1,384.5,59.5,383.7,59z M383.9,65.5c-0.3,0.5-0.7,1-1.2,1.3
			c-0.5,0.3-1.1,0.4-1.8,0.4c-0.7,0-1.2-0.1-1.8-0.4c-0.5-0.3-0.9-0.7-1.2-1.3c-0.3-0.5-0.5-1.2-0.5-1.9c0-0.7,0.2-1.4,0.5-1.9
			c0.3-0.5,0.7-0.9,1.2-1.2c0.5-0.3,1.1-0.4,1.8-0.4c0.7,0,1.2,0.1,1.8,0.4c0.5,0.3,0.9,0.7,1.2,1.2c0.3,0.5,0.4,1.2,0.4,1.9
			C384.4,64.3,384.2,64.9,383.9,65.5z"/>
		<path class="st0" d="M396.5,58.8c-0.6-0.3-1.4-0.5-2.2-0.5c-0.9,0-1.7,0.2-2.4,0.6c-0.5,0.3-0.9,0.6-1.3,1.1v-1.5h-1.8v10.2h1.8
			v-5.3c0-0.7,0.1-1.4,0.4-1.9c0.3-0.5,0.6-0.9,1.1-1.1c0.5-0.3,1.1-0.4,1.7-0.4c0.9,0,1.5,0.3,2,0.8c0.5,0.5,0.7,1.2,0.7,2.2v5.7
			h1.8v-5.9c0-1-0.2-1.8-0.5-2.5C397.6,59.6,397.1,59.2,396.5,58.8z"/>
	</g>
	<g>
		<path class="st1" d="M169.5,22.3c-4.7-2.6-10-3.9-16-3.9c-6.1,0-11.6,1.3-16.4,4c-4.8,2.7-8.6,6.4-11.3,11.1
			c-2.7,4.7-4.1,10.2-4.1,16.3c0,6.1,1.4,11.5,4.2,16.2c2.8,4.8,6.8,8.5,11.9,11.2c5.1,2.7,11.1,4.1,17.9,4.1
			c5.4,0,10.1-0.9,14.3-2.6c4.2-1.7,7.7-4.2,10.4-7.4l-7.7-8.9c-2.1,2.3-4.6,4-7.4,5.1c-2.8,1.1-5.9,1.6-9.3,1.6
			c-4,0-7.5-0.8-10.6-2.3c-3.1-1.5-5.5-3.7-7.1-6.6c-1.1-1.8-1.8-3.7-2.2-5.9h48.2c0.1-0.7,0.1-1.4,0.2-2.2c0-0.8,0.1-1.5,0.1-2.1
			c0-6.4-1.3-12-4-16.8C177.9,28.6,174.2,24.9,169.5,22.3z M138,38.6c1.5-2.7,3.6-4.9,6.2-6.4c2.6-1.5,5.7-2.3,9.3-2.3
			c3.5,0,6.5,0.8,9.2,2.3c2.6,1.5,4.7,3.6,6.3,6.3c1.1,1.9,1.8,4,2,6.3h-35C136.3,42.6,137,40.5,138,38.6z"/>
		<path class="st1" d="M240.8,24.8c-4.9-4.3-11.8-6.4-20.7-6.4c-4.9,0-9.7,0.6-14.2,1.9c-4.6,1.3-8.5,3.2-11.8,5.7l5.6,10.5
			c2.3-1.9,5.1-3.4,8.5-4.5c3.3-1.1,6.7-1.6,10.2-1.6c5.1,0,9,1.2,11.5,3.5c2.5,2.3,3.8,5.6,3.8,9.8v0.9h-15.9
			c-6.2,0-11.2,0.8-15,2.4c-3.8,1.6-6.5,3.8-8.1,6.6c-1.7,2.8-2.5,5.9-2.5,9.3c0,3.5,0.9,6.7,2.8,9.5c1.9,2.8,4.5,5,8,6.6
			c3.5,1.6,7.5,2.4,12.1,2.4c5.4,0,10-1,13.5-3c2.5-1.4,4.4-3.1,5.8-5.3v7.5h13.6v-36C248.2,35.6,245.7,29,240.8,24.8z M227.7,68.5
			c-2.8,1.6-6,2.4-9.5,2.4c-3.7,0-6.6-0.8-8.6-2.3c-2.1-1.5-3.1-3.6-3.1-6.2c0-2.3,0.8-4.2,2.5-5.8c1.7-1.6,5-2.4,9.9-2.4h14.9v7.1
			C232.5,64.5,230.5,66.9,227.7,68.5z"/>
		<path class="st1" d="M303.4,67c-2.6,1.4-5.5,2.1-8.6,2.1c-3.5,0-6.7-0.8-9.6-2.3c-2.8-1.5-5.1-3.7-6.7-6.6
			c-1.6-2.9-2.4-6.3-2.4-10.3c0-4,0.8-7.4,2.4-10.3c1.6-2.9,3.8-5.1,6.7-6.6c2.8-1.5,6-2.3,9.6-2.3c3.1,0,5.9,0.7,8.6,2.1
			c2.6,1.4,4.9,3.5,6.7,6.4l11.1-6.4c-2.4-4.7-5.9-8.2-10.4-10.6c-4.6-2.4-9.8-3.6-15.8-3.6c-6.4,0-12.2,1.3-17.2,4
			c-5,2.7-9,6.4-11.8,11.1c-2.8,4.7-4.3,10.2-4.3,16.3c0,6.1,1.4,11.5,4.3,16.2c2.8,4.8,6.8,8.5,11.8,11.2c5,2.7,10.8,4.1,17.2,4.1
			c6,0,11.3-1.2,15.8-3.7c4.6-2.5,8-6,10.4-10.6l-11.1-6.4C308.2,63.4,306,65.6,303.4,67z"/>
	</g>
	<g>
		<path class="st2" d="M90.1,58.6c-8.6-3.7-18.6,0.3-22.3,8.9c-1.4,3.3-3.6,6.4-6.6,9.1c-10.6,9.6-27.7,9.8-40,2.2
			c6.1,10.2,16.9,17.5,28.9,20c13.6,2.9,28.5-0.4,40.2-8.7c0,0,2.8-1.9,2.8-1.9C103.9,80.8,102.3,63.7,90.1,58.6z"/>
		<path class="st3" d="M50.2,1C36.6-1.9,21.7,1.5,10,9.7c0,0-2.8,1.9-2.8,1.9c-10.8,7.4-9.1,24.4,3,29.5c8.6,3.7,18.6-0.3,22.3-8.9
			c1.4-3.3,3.6-6.4,6.6-9.1c10.6-9.6,27.7-9.8,40-2.2C73,10.8,62.2,3.5,50.2,1z"/>
	</g>
</g>
</svg>
