<?xml version="1.0" encoding="utf-8"?>
<!-- Generator: Adobe Illustrator 24.0.2, SVG Export Plug-In . SVG Version: 6.00 Build 0)  -->
<svg version="1.1" id="Layer_1" xmlns="http://www.w3.org/2000/svg" xmlns:xlink="http://www.w3.org/1999/xlink" x="0px" y="0px"
	 viewBox="0 0 100.31 99.8" style="enable-background:new 0 0 100.31 99.8;" xml:space="preserve">
<style type="text/css">
	.st0{fill:#00447B;}
	.st1{fill:#3BB6E7;}
</style>
<g>
	<path class="st0" d="M90.1,58.6c-8.6-3.7-18.6,0.3-22.3,8.9c-1.4,3.3-3.6,6.4-6.6,9.1c-10.6,9.6-27.7,9.8-40,2.2
		c6.1,10.2,16.9,17.5,28.9,20c13.6,2.9,28.5-0.4,40.2-8.7l2.8-1.9C103.9,80.8,102.3,63.7,90.1,58.6z"/>
	<path class="st1" d="M50.2,1C36.6-1.9,21.7,1.5,10,9.7l-2.8,1.9C-3.6,19-1.9,36,10.2,41.1c8.6,3.7,18.6-0.3,22.3-8.9
		c1.4-3.3,3.6-6.4,6.6-9.1c10.6-9.6,27.7-9.8,40-2.2C73,10.8,62.2,3.5,50.2,1z"/>
</g>
</svg>
