<?xml version="1.0" encoding="utf-8"?>
<!-- Generator: Adobe Illustrator 26.3.1, SVG Export Plug-In . SVG Version: 6.00 Build 0)  -->
<svg version="1.1" id="Layer_1" xmlns="http://www.w3.org/2000/svg" xmlns:xlink="http://www.w3.org/1999/xlink" x="0px" y="0px"
	 viewBox="0 0 99.8 425.5" style="enable-background:new 0 0 99.8 425.5;" xml:space="preserve">
<style type="text/css">
	.st0{fill:#3BB4E5;}
	.st1{fill:#4D4D4D;}
	.st2{fill:#00447B;}
	.st3{fill:#3BB6E7;}
</style>
<g>
	<g>
		<polygon class="st0" points="43.9,76.8 43.9,84.7 39.5,84.7 39.5,77.9 37.9,77.9 37.9,84.7 33.8,84.7 33.8,77.1 32.1,77.1 
			32.1,86.6 45.6,86.6 45.6,76.8 		"/>
		<polygon class="st0" points="40.3,69.7 35.4,65.8 35.4,67.9 39,70.7 35.4,73.5 35.4,75.5 40.3,71.7 45.6,75.7 45.6,73.6 
			41.6,70.7 45.6,67.7 45.6,65.6 		"/>
		<path class="st0" d="M45,62.3c0.4-0.8,0.7-1.7,0.7-2.8c0-0.9-0.2-1.7-0.6-2.5c-0.4-0.7-0.9-1.3-1.6-1.7l-0.9,1.4
			c0.5,0.3,0.9,0.7,1.1,1.2c0.2,0.5,0.4,1,0.4,1.5c0,0.7-0.1,1.3-0.4,1.8c-0.3,0.5-0.7,0.9-1.3,1.3c-0.5,0.3-1.2,0.5-1.9,0.5
			c-0.7,0-1.4-0.2-1.9-0.5c-0.5-0.3-0.9-0.7-1.2-1.3c-0.3-0.5-0.4-1.1-0.4-1.8c0-0.6,0.1-1.1,0.4-1.5c0.2-0.5,0.6-0.9,1.1-1.2
			l-0.9-1.4c-0.7,0.4-1.3,1-1.6,1.7c-0.4,0.7-0.5,1.5-0.5,2.5c0,1,0.2,2,0.7,2.8c0.4,0.8,1.1,1.5,1.8,1.9c0.8,0.5,1.7,0.7,2.7,0.7
			s1.9-0.2,2.7-0.7C43.9,63.7,44.6,63.1,45,62.3z"/>
		<rect x="31.3" y="51.2" class="st0" width="14.3" height="1.8"/>
		<path class="st0" d="M40.6,40.1c0.7,0,1.3,0.1,1.8,0.4c0.5,0.3,0.9,0.6,1.2,1.1c0.3,0.5,0.4,1,0.4,1.7c0,0.9-0.3,1.5-0.8,2
			C42.8,45.7,42,46,41,46h-5.7v1.8h5.9c1,0,1.8-0.2,2.5-0.5c0.7-0.4,1.2-0.9,1.5-1.5c0.3-0.7,0.5-1.4,0.5-2.3c0-0.8-0.2-1.6-0.6-2.3
			c-0.3-0.5-0.6-0.9-1.1-1.2h1.5v-1.8H35.4v1.8H40.6z"/>
		<path class="st0" d="M43.7,29.8c0.2,0.4,0.4,1,0.4,1.9c0,0.7-0.1,1.3-0.3,2c-0.2,0.6-0.5,1.2-0.8,1.6l1.5,0.8
			c0.3-0.4,0.6-1,0.8-1.8c0.2-0.8,0.3-1.6,0.3-2.4c0-0.9-0.1-1.7-0.4-2.3c-0.3-0.7-0.6-1.2-1-1.5c-0.4-0.4-1-0.5-1.6-0.5
			c-0.6,0-1,0.1-1.4,0.4c-0.3,0.2-0.6,0.5-0.8,0.9c-0.2,0.4-0.3,0.8-0.5,1.3c-0.1,0.5-0.2,0.9-0.3,1.4c-0.1,0.5-0.2,0.9-0.3,1.3
			c-0.1,0.4-0.2,0.7-0.4,0.9c-0.2,0.2-0.5,0.4-0.8,0.4c-0.4,0-0.7-0.2-1-0.6c-0.3-0.4-0.4-1-0.4-1.8c0-0.5,0.1-1,0.2-1.5
			c0.1-0.5,0.3-1,0.6-1.4l-1.5-0.8c-0.3,0.4-0.5,1-0.7,1.7c-0.2,0.7-0.2,1.4-0.2,2c0,0.9,0.1,1.6,0.4,2.3c0.3,0.6,0.6,1.1,1.1,1.5
			c0.5,0.3,1,0.5,1.6,0.5c0.6,0,1.1-0.1,1.4-0.3c0.4-0.2,0.6-0.5,0.8-0.9c0.2-0.4,0.4-0.8,0.5-1.3c0.1-0.5,0.2-0.9,0.3-1.4
			c0.1-0.5,0.2-0.9,0.2-1.3c0.1-0.4,0.2-0.7,0.4-0.9c0.2-0.2,0.4-0.3,0.8-0.3C43.1,29.2,43.5,29.4,43.7,29.8z"/>
		<path class="st0" d="M31,24.1c0,0.4,0.1,0.7,0.3,0.9c0.2,0.2,0.5,0.4,0.9,0.4c0.3,0,0.6-0.1,0.8-0.4c0.2-0.2,0.3-0.5,0.3-0.9
			c0-0.4-0.1-0.7-0.4-0.9c-0.2-0.2-0.5-0.3-0.9-0.3c-0.3,0-0.6,0.1-0.8,0.4C31.1,23.5,31,23.8,31,24.1z"/>
		<rect x="35.4" y="23.2" class="st0" width="10.2" height="1.8"/>
		<polygon class="st0" points="43.5,16 35.4,19.6 35.4,21.5 45.6,17 45.6,15.1 35.4,10.7 35.4,12.5 		"/>
		<path class="st0" d="M37.8,0.6c-0.8,0.4-1.4,1-1.8,1.8c-0.4,0.8-0.7,1.6-0.7,2.6c0,1,0.2,1.9,0.7,2.6s1.1,1.4,1.8,1.8
			c0.8,0.4,1.7,0.7,2.7,0.7s1.9-0.2,2.7-0.7C43.9,9,44.6,8.4,45,7.6c0.4-0.8,0.7-1.8,0.7-2.9c0-0.8-0.1-1.6-0.4-2.3
			C45,1.7,44.6,1.1,44,0.7l-1.2,1C43.2,2,43.5,2.5,43.8,3c0.2,0.5,0.3,1,0.3,1.6c0,0.7-0.1,1.4-0.4,1.9c-0.3,0.6-0.7,1-1.2,1.3
			c-0.4,0.2-0.8,0.4-1.3,0.4V0c-0.1,0-0.2,0-0.3,0c-0.1,0-0.2,0-0.3,0C39.5,0,38.5,0.2,37.8,0.6z M37.3,6.8C37,6.3,36.8,5.7,36.8,5
			c0-0.7,0.1-1.2,0.4-1.7c0.3-0.5,0.7-0.9,1.2-1.2c0.4-0.2,0.8-0.3,1.3-0.4v6.6c-0.5-0.1-0.9-0.2-1.3-0.4
			C37.9,7.6,37.5,7.3,37.3,6.8z"/>
		<path class="st0" d="M55.2,82.6l13.5,6.1v-2l-3.4-1.5V78l3.4-1.5v-2l-13.5,6.1V82.6z M63.7,84.5l-6.6-2.9l6.6-2.9V84.5z"/>
		<path class="st0" d="M54.1,71.9c0,0.4,0.1,0.7,0.3,0.9s0.5,0.4,0.9,0.4c0.3,0,0.6-0.1,0.8-0.4c0.2-0.2,0.3-0.5,0.3-0.9
			c0-0.4-0.1-0.7-0.4-0.9c-0.2-0.2-0.5-0.3-0.9-0.3c-0.3,0-0.6,0.1-0.8,0.4C54.2,71.2,54.1,71.5,54.1,71.9z"/>
		<rect x="58.5" y="71" class="st0" width="10.2" height="1.8"/>
		<path class="st0" d="M60.2,65.7h-1.7v1.8h10.2v-1.8h-5.1c-1.1,0-2-0.3-2.6-0.9c-0.6-0.6-0.9-1.4-0.9-2.3c0-0.1,0-0.1,0-0.2
			c0-0.1,0-0.1,0-0.2h-1.8c0,1,0.2,1.8,0.6,2.5C59.2,65,59.7,65.4,60.2,65.7z"/>
		<path class="st0" d="M60.4,57.1C60.1,56.6,60,56,60,55.3c0-0.6,0.1-1.1,0.4-1.5c0.2-0.5,0.6-0.9,1.1-1.2l-0.9-1.4
			c-0.7,0.4-1.3,1-1.6,1.7c-0.4,0.7-0.5,1.5-0.5,2.5c0,1,0.2,2,0.7,2.8c0.4,0.8,1.1,1.5,1.8,1.9c0.8,0.5,1.7,0.7,2.7,0.7
			s1.9-0.2,2.7-0.7c0.8-0.5,1.4-1.1,1.8-1.9c0.4-0.8,0.7-1.7,0.7-2.8c0-0.9-0.2-1.7-0.6-2.5c-0.4-0.7-0.9-1.3-1.6-1.7l-0.9,1.4
			c0.5,0.3,0.9,0.7,1.1,1.2c0.2,0.5,0.4,1,0.4,1.5c0,0.7-0.1,1.3-0.4,1.8c-0.3,0.5-0.7,0.9-1.3,1.3c-0.5,0.3-1.2,0.5-1.9,0.5
			c-0.7,0-1.4-0.2-1.9-0.5C61.1,58.1,60.7,57.7,60.4,57.1z"/>
		<path class="st0" d="M59,41.8c-0.4,0.8-0.7,1.7-0.7,2.7c0,1,0.2,1.9,0.7,2.7c0.4,0.8,1.1,1.4,1.8,1.9c0.8,0.5,1.7,0.7,2.7,0.7
			c1,0,1.9-0.2,2.7-0.7c0.8-0.5,1.4-1.1,1.9-1.9c0.4-0.8,0.7-1.7,0.7-2.7c0-1-0.2-1.9-0.7-2.7C67.6,41,67,40.4,66.2,40
			c-0.8-0.5-1.7-0.7-2.7-0.7c-1,0-1.9,0.2-2.7,0.7C60.1,40.4,59.5,41,59,41.8z M65.5,41.6c0.5,0.3,1,0.7,1.3,1.2
			c0.3,0.5,0.4,1.1,0.4,1.8c0,0.7-0.1,1.2-0.4,1.8c-0.3,0.5-0.7,0.9-1.3,1.2c-0.5,0.3-1.2,0.5-1.9,0.5c-0.7,0-1.4-0.2-1.9-0.5
			c-0.5-0.3-0.9-0.7-1.2-1.2c-0.3-0.5-0.4-1.1-0.4-1.8c0-0.7,0.1-1.2,0.4-1.8c0.3-0.5,0.7-0.9,1.2-1.2c0.5-0.3,1.2-0.4,1.9-0.4
			C64.3,41.1,64.9,41.3,65.5,41.6z"/>
		<path class="st0" d="M58.8,29.1c-0.3,0.6-0.5,1.4-0.5,2.2c0,0.9,0.2,1.7,0.6,2.4c0.3,0.5,0.6,0.9,1.1,1.3h-1.5v1.8h10.2v-1.8h-5.3
			c-0.7,0-1.4-0.1-1.9-0.4c-0.5-0.3-0.9-0.6-1.1-1.1c-0.3-0.5-0.4-1.1-0.4-1.7c0-0.9,0.3-1.5,0.8-2c0.5-0.5,1.2-0.7,2.2-0.7h5.7V27
			h-5.9c-1,0-1.8,0.2-2.5,0.5C59.6,27.9,59.2,28.4,58.8,29.1z"/>
	</g>
	<g>
		<path class="st1" d="M22.3,256c-2.6,4.7-3.9,10-3.9,16c0,6.1,1.3,11.6,4,16.4c2.7,4.8,6.4,8.6,11.1,11.3
			c4.7,2.7,10.2,4.1,16.3,4.1c6.1,0,11.5-1.4,16.2-4.2c4.8-2.8,8.5-6.8,11.2-11.9c2.7-5.1,4.1-11.1,4.1-17.9
			c0-5.4-0.9-10.1-2.6-14.3c-1.7-4.2-4.2-7.7-7.4-10.4l-8.9,7.7c2.3,2.1,4,4.6,5.1,7.4c1.1,2.8,1.6,5.9,1.6,9.3
			c0,4-0.8,7.5-2.3,10.6c-1.5,3.1-3.7,5.5-6.6,7.1c-1.8,1.1-3.7,1.8-5.9,2.2v-48.2c-0.7-0.1-1.4-0.1-2.2-0.2c-0.8,0-1.5-0.1-2.1-0.1
			c-6.4,0-12,1.3-16.8,4C28.6,247.6,24.9,251.3,22.3,256z M38.6,287.5c-2.7-1.5-4.9-3.6-6.4-6.2c-1.5-2.6-2.3-5.7-2.3-9.3
			c0-3.5,0.8-6.5,2.3-9.2c1.5-2.6,3.6-4.7,6.3-6.3c1.9-1.1,4-1.8,6.3-2v35C42.6,289.2,40.5,288.5,38.6,287.5z"/>
		<path class="st1" d="M24.8,184.7c-4.3,4.9-6.4,11.8-6.4,20.7c0,4.9,0.6,9.7,1.9,14.2c1.3,4.6,3.2,8.5,5.7,11.8l10.5-5.6
			c-1.9-2.3-3.4-5.1-4.5-8.5c-1.1-3.3-1.6-6.7-1.6-10.2c0-5.1,1.2-9,3.5-11.5c2.3-2.5,5.6-3.8,9.8-3.8h0.9v15.9
			c0,6.2,0.8,11.2,2.4,15c1.6,3.8,3.8,6.5,6.6,8.1c2.8,1.7,5.9,2.5,9.3,2.5c3.5,0,6.7-0.9,9.5-2.8c2.8-1.9,5-4.5,6.6-8
			c1.6-3.5,2.4-7.5,2.4-12.1c0-5.4-1-10-3-13.5c-1.4-2.5-3.1-4.4-5.3-5.8h7.5v-13.6h-36C35.6,177.4,29,179.8,24.8,184.7z
			 M68.5,197.8c1.6,2.8,2.4,6,2.4,9.5c0,3.7-0.8,6.6-2.3,8.6c-1.5,2.1-3.6,3.1-6.2,3.1c-2.3,0-4.2-0.8-5.8-2.5
			c-1.6-1.7-2.4-5-2.4-9.9v-14.9h7.1C64.5,193,66.9,195,68.5,197.8z"/>
		<path class="st1" d="M67,122.2c1.4,2.6,2.1,5.5,2.1,8.6c0,3.5-0.8,6.7-2.3,9.6c-1.5,2.8-3.7,5.1-6.6,6.7
			c-2.9,1.6-6.3,2.4-10.3,2.4c-4,0-7.4-0.8-10.3-2.4c-2.9-1.6-5.1-3.8-6.6-6.7c-1.5-2.8-2.3-6-2.3-9.6c0-3.1,0.7-5.9,2.1-8.6
			c1.4-2.6,3.5-4.9,6.4-6.7l-6.4-11.1c-4.7,2.4-8.2,5.9-10.6,10.4c-2.4,4.6-3.6,9.8-3.6,15.8c0,6.4,1.3,12.2,4,17.2
			c2.7,5,6.4,9,11.1,11.8c4.7,2.8,10.2,4.3,16.3,4.3c6.1,0,11.5-1.4,16.2-4.3c4.8-2.8,8.5-6.8,11.2-11.8c2.7-5,4.1-10.8,4.1-17.2
			c0-6-1.2-11.3-3.7-15.8c-2.5-4.6-6-8-10.6-10.4l-6.4,11.1C63.4,117.3,65.6,119.5,67,122.2z"/>
	</g>
	<g>
		<path class="st2" d="M58.6,335.4c-3.7,8.6,0.3,18.6,8.9,22.3c3.3,1.4,6.4,3.6,9.1,6.6c9.6,10.6,9.8,27.7,2.2,40
			c10.2-6.1,17.5-16.9,20-28.9c2.9-13.6-0.4-28.5-8.7-40.2c0,0-1.9-2.8-1.9-2.8C80.8,321.6,63.7,323.3,58.6,335.4z"/>
		<path class="st3" d="M1,375.4c-2.9,13.6,0.4,28.5,8.7,40.2c0,0,1.9,2.8,1.9,2.8c7.4,10.8,24.4,9.1,29.5-3
			c3.7-8.6-0.3-18.6-8.9-22.3c-3.3-1.4-6.4-3.6-9.1-6.6c-9.6-10.6-9.8-27.7-2.2-40C10.8,352.5,3.5,363.3,1,375.4z"/>
	</g>
</g>
</svg>
