<?xml version="1.0" encoding="utf-8"?>
<!-- Generator: Adobe Illustrator 26.3.1, SVG Export Plug-In . SVG Version: 6.00 Build 0)  -->
<svg version="1.1" id="Layer_1" xmlns="http://www.w3.org/2000/svg" xmlns:xlink="http://www.w3.org/1999/xlink" x="0px" y="0px"
	 viewBox="0 0 152.5 115.4" style="enable-background:new 0 0 152.5 115.4;" xml:space="preserve">
<style type="text/css">
	.st0{fill:#353535;}
</style>
<g>
	<path class="st0" d="M7.6,5.6h56.6v59.5H38v44.7c-4.4-3.5-8.2-7.1-11.4-10.7c-3.2-3.6-5.9-7.2-8.1-10.7c-6-9.5-9.4-19.3-10.2-29.5
		C7.5,48.7,7.2,37,7.6,23.7c0-2.9,0-5.7,0-8.6c0-2.9,0-5.9,0-9V5.6z M88.4,5.6H145v59.5h-26.2v44.7c-4.4-3.5-8.2-7.1-11.4-10.7
		c-3.2-3.6-5.9-7.2-8.1-10.7c-6-9.5-9.4-19.3-10.2-29.5c-0.8-10.1-1-21.9-0.7-35.2c0-2.9,0-5.7,0-8.6c0-2.9,0-5.9,0-9V5.6z"/>
</g>
</svg>
