<?xml version="1.0" encoding="utf-8"?>
<!-- Generator: Adobe Illustrator 26.3.1, SVG Export Plug-In . SVG Version: 6.00 Build 0)  -->
<svg version="1.1" id="Layer_1" xmlns="http://www.w3.org/2000/svg" xmlns:xlink="http://www.w3.org/1999/xlink" x="0px" y="0px"
	 viewBox="0 0 960 1280.91" style="enable-background:new 0 0 960 1280.91;" xml:space="preserve">
<style type="text/css">
	.st0{fill:#C6C6C6;}
	.st1{fill:#939393;}
	.st2{fill:none;stroke:#FFFFFF;stroke-width:2;stroke-miterlimit:10;}
	.st3{fill:none;stroke:#FFFFFF;stroke-width:2;stroke-miterlimit:10;stroke-dasharray:4.9952,4.9952;}
	.st4{fill:none;stroke:#FFFFFF;stroke-width:2;stroke-miterlimit:10;stroke-dasharray:4.9913,4.9913;}
	.st5{fill:none;stroke:#FFFFFF;stroke-width:2;stroke-miterlimit:10;stroke-dasharray:5.0036,5.0036;}
	.st6{fill:none;stroke:#FFFFFF;stroke-width:2;stroke-miterlimit:10;stroke-dasharray:5.0109,5.0109;}
	.st7{fill:none;stroke:#FFFFFF;stroke-width:2;stroke-miterlimit:10;stroke-dasharray:5,5;}
	.st8{fill:none;stroke:#FFFFFF;stroke-width:2;stroke-miterlimit:10;stroke-dasharray:4.9982,4.9982;}
	.st9{fill:none;stroke:#FFFFFF;stroke-width:2;stroke-miterlimit:10;stroke-dasharray:4.9904,4.9904;}
	.st10{fill:none;stroke:#FFFFFF;stroke-width:2;stroke-miterlimit:10;stroke-dasharray:5.0078,5.0078;}
	.st11{fill:none;stroke:#FFFFFF;stroke-width:2;stroke-miterlimit:10;stroke-dasharray:4.982,4.982;}
	.st12{fill:#969696;stroke:#004B8D;stroke-miterlimit:10;}
</style>
<rect class="st0" width="960" height="1280.91"/>
<g>
	<polygon class="st1" points="630.9,586.83 583.22,634.51 528.47,689.25 480,737.72 431.53,689.25 376.79,634.51 329.11,586.83 
		480,435.93 	"/>
	<path class="st1" d="M679.96,586.92h66.69v66.69v0L555.28,844.98l0,0h-66.69v-66.69L679.96,586.92L679.96,586.92z M280.04,586.92
		h-66.69v66.69v0l191.37,191.37l0,0h66.69v-66.69L280.04,586.92L280.04,586.92z"/>
	<g>
		<polygon class="st1" points="480,747.57 376.79,644.36 376.79,667.49 480,770.71 583.22,667.49 583.22,644.36 		"/>
	</g>
</g>
<g>
	<g>
		<line class="st2" x1="119.34" y1="1280.91" x2="121.11" y2="1279.15"/>
		<line class="st3" x1="124.64" y1="1275.61" x2="956.47" y2="443.79"/>
		<line class="st2" x1="958.23" y1="442.03" x2="960" y2="440.26"/>
	</g>
</g>
<g>
	<g>
		<line class="st2" x1="0" y1="1266.88" x2="1.77" y2="1265.12"/>
		<line class="st4" x1="5.3" y1="1261.59" x2="956.47" y2="310.42"/>
		<line class="st2" x1="958.23" y1="308.65" x2="960" y2="306.88"/>
	</g>
</g>
<g>
	<g>
		<line class="st2" x1="0" y1="306.88" x2="1.77" y2="308.65"/>
		<line class="st4" x1="5.3" y1="312.18" x2="956.47" y2="1263.35"/>
		<line class="st2" x1="958.23" y1="1265.12" x2="960" y2="1266.88"/>
	</g>
</g>
<g>
	<g>
		<line class="st2" x1="0" y1="440.26" x2="1.77" y2="442.02"/>
		<line class="st3" x1="5.3" y1="445.56" x2="837.12" y2="1277.38"/>
		<line class="st2" x1="838.89" y1="1279.15" x2="840.66" y2="1280.91"/>
	</g>
</g>
<g>
	<g>
		<line class="st2" x1="213.35" y1="0" x2="213.35" y2="2.5"/>
		<line class="st5" x1="213.35" y1="7.5" x2="213.35" y2="1275.91"/>
		<line class="st2" x1="213.35" y1="1278.41" x2="213.35" y2="1280.91"/>
	</g>
</g>
<g>
	<g>
		<line class="st2" x1="746.65" y1="0" x2="746.65" y2="2.5"/>
		<line class="st6" x1="746.65" y1="7.51" x2="746.65" y2="1277.76"/>
		<line class="st2" x1="746.65" y1="1280.27" x2="746.65" y2="1282.77"/>
	</g>
</g>
<g>
	<g>
		<line class="st2" x1="583.22" y1="0" x2="583.22" y2="2.5"/>
		<line class="st6" x1="583.22" y1="7.51" x2="583.22" y2="1277.76"/>
		<line class="st2" x1="583.22" y1="1280.27" x2="583.22" y2="1282.77"/>
	</g>
</g>
<g>
	<g>
		<line class="st2" x1="488.59" y1="0" x2="488.59" y2="2.5"/>
		<line class="st6" x1="488.59" y1="7.51" x2="488.59" y2="1277.76"/>
		<line class="st2" x1="488.59" y1="1280.27" x2="488.59" y2="1282.77"/>
	</g>
</g>
<g>
	<g>
		<line class="st2" x1="472.48" y1="0" x2="472.48" y2="2.5"/>
		<line class="st5" x1="472.48" y1="7.5" x2="472.48" y2="1275.91"/>
		<line class="st2" x1="472.48" y1="1278.41" x2="472.48" y2="1280.91"/>
	</g>
</g>
<g>
	<g>
		<line class="st2" x1="376.79" y1="0" x2="376.79" y2="2.5"/>
		<line class="st5" x1="376.79" y1="7.5" x2="376.79" y2="1275.91"/>
		<line class="st2" x1="376.79" y1="1278.41" x2="376.79" y2="1280.91"/>
	</g>
</g>
<g>
	<g>
		<line class="st2" x1="0" y1="586.83" x2="2.5" y2="586.83"/>
		<line class="st7" x1="7.5" y1="586.83" x2="955" y2="586.83"/>
		<line class="st2" x1="957.5" y1="586.83" x2="960" y2="586.83"/>
	</g>
</g>
<g>
	<g>
		<line class="st2" x1="0" y1="844.98" x2="2.5" y2="844.98"/>
		<line class="st7" x1="7.5" y1="844.98" x2="955" y2="844.98"/>
		<line class="st2" x1="957.5" y1="844.98" x2="960" y2="844.98"/>
	</g>
</g>
<g>
	<g>
		<line class="st2" x1="0" y1="1249.65" x2="1.77" y2="1247.88"/>
		<line class="st4" x1="5.3" y1="1244.35" x2="956.47" y2="293.19"/>
		<line class="st2" x1="958.23" y1="291.42" x2="960" y2="289.66"/>
	</g>
</g>
<g>
	<g>
		<line class="st2" x1="0" y1="1227.74" x2="1.77" y2="1225.97"/>
		<line class="st8" x1="5.3" y1="1222.44" x2="957.79" y2="269.96"/>
		<line class="st2" x1="959.56" y1="268.19" x2="961.32" y2="266.42"/>
	</g>
</g>
<g>
	<g>
		<line class="st2" x1="0" y1="1217.72" x2="1.77" y2="1215.95"/>
		<line class="st4" x1="5.3" y1="1212.42" x2="956.47" y2="261.26"/>
		<line class="st2" x1="958.23" y1="259.49" x2="960" y2="257.73"/>
	</g>
</g>
<g>
	<g>
		<line class="st2" x1="0" y1="290.48" x2="1.77" y2="292.25"/>
		<line class="st4" x1="5.3" y1="295.78" x2="956.47" y2="1246.95"/>
		<line class="st2" x1="958.23" y1="1248.71" x2="960" y2="1250.48"/>
	</g>
</g>
<g>
	<g>
		<line class="st2" x1="0" y1="267.31" x2="1.77" y2="269.07"/>
		<line class="st9" x1="5.3" y1="272.6" x2="963.34" y2="1230.65"/>
	</g>
</g>
<g>
	<g>
		<line class="st2" x1="0" y1="257.72" x2="1.77" y2="259.49"/>
		<line class="st10" x1="5.31" y1="263.03" x2="959.62" y2="1217.34"/>
	</g>
</g>
<g>
	<g>
		<line class="st2" x1="915.94" y1="0" x2="914.17" y2="1.77"/>
		<line class="st11" x1="910.65" y1="5.29" x2="3.53" y2="912.41"/>
		<line class="st2" x1="1.77" y1="914.17" x2="0" y2="915.94"/>
	</g>
</g>
<g>
	<g>
		<line class="st2" x1="960" y1="915.93" x2="958.23" y2="914.16"/>
		<line class="st11" x1="954.71" y1="910.64" x2="47.59" y2="3.53"/>
		<line class="st2" x1="45.83" y1="1.77" x2="44.06" y2="0"/>
	</g>
</g>
</svg>
