<?xml version="1.0" encoding="utf-8"?>
<!-- Generator: Adobe Illustrator 26.3.1, SVG Export Plug-In . SVG Version: 6.00 Build 0)  -->
<svg version="1.1" id="Layer_1" xmlns="http://www.w3.org/2000/svg" xmlns:xlink="http://www.w3.org/1999/xlink" x="0px" y="0px"
	 viewBox="0 0 1193 270.4" style="enable-background:new 0 0 1193 270.4;" xml:space="preserve">
<style type="text/css">
	.st0{fill:#CEA065;}
	.st1{fill:#0E3556;}
</style>
<g>
	<g>
		<path class="st0" d="M308.5,99.8h44.1v44.1v0L226,270.4l0,0H182v-44.1L308.5,99.8L308.5,99.8z M44.1,99.8H0l0,44.1v0l126.5,126.5
			l0,0h44.1v-44.1L44.1,99.8L44.1,99.8z"/>
		<g>
			<path class="st0" d="M424.9,268.2c-2.2,0-4.1-0.4-5.8-1.1c-1.7-0.7-3.1-1.8-4.3-3.1c-1.1-1.4-1.8-3-2.2-4.8l3.9-0.6
				c0.5,1.9,1.5,3.4,3.1,4.5c1.6,1.1,3.4,1.6,5.5,1.6c1.4,0,2.6-0.2,3.7-0.6c1.1-0.4,2-1,2.6-1.8c0.6-0.8,1-1.8,1-2.8
				c0-0.7-0.1-1.3-0.3-1.7c-0.2-0.5-0.5-0.9-0.9-1.2c-0.4-0.3-0.9-0.6-1.4-0.9c-0.5-0.2-1-0.4-1.6-0.6l-7.7-2.3
				c-0.8-0.3-1.7-0.6-2.4-1c-0.8-0.4-1.5-0.9-2.1-1.5c-0.6-0.6-1.1-1.3-1.5-2.1c-0.4-0.8-0.5-1.8-0.5-2.9c0-1.8,0.5-3.3,1.4-4.6
				c0.9-1.3,2.2-2.2,3.8-2.9c1.6-0.7,3.4-1,5.4-1c2,0,3.9,0.4,5.5,1.1c1.6,0.7,2.9,1.7,4,3c1.1,1.3,1.8,2.9,2.1,4.7l-4,0.7
				c-0.2-1.2-0.7-2.3-1.4-3.2c-0.7-0.9-1.6-1.6-2.7-2.1c-1.1-0.5-2.3-0.7-3.6-0.7c-1.2,0-2.4,0.2-3.4,0.6c-1,0.4-1.8,1-2.4,1.7
				c-0.6,0.7-0.9,1.6-0.9,2.5c0,0.9,0.3,1.7,0.8,2.2c0.5,0.6,1.2,1,2,1.3c0.8,0.3,1.5,0.6,2.3,0.8l5.8,1.7c0.7,0.2,1.4,0.4,2.3,0.8
				c0.9,0.3,1.7,0.8,2.5,1.4c0.8,0.6,1.5,1.4,2,2.3c0.5,1,0.8,2.2,0.8,3.6c0,1.5-0.3,2.8-0.9,3.9c-0.6,1.1-1.4,2.1-2.4,2.9
				c-1,0.8-2.2,1.3-3.6,1.8C427.9,268,426.4,268.2,424.9,268.2z"/>
			<path class="st0" d="M470,268.2c-3,0-5.6-0.7-7.7-2c-2.1-1.3-3.7-3.2-4.8-5.6c-1.1-2.4-1.7-5.1-1.7-8.2s0.6-5.9,1.7-8.2
				c1.1-2.4,2.7-4.2,4.8-5.6c2.1-1.3,4.7-2,7.7-2c3,0,5.6,0.7,7.7,2c2.1,1.3,3.7,3.2,4.8,5.6c1.1,2.4,1.6,5.1,1.6,8.2
				s-0.5,5.9-1.6,8.2c-1.1,2.4-2.7,4.2-4.8,5.6C475.6,267.6,473.1,268.2,470,268.2z M470,264.7c2.3,0,4.2-0.5,5.7-1.5
				c1.5-1,2.6-2.5,3.4-4.3c0.8-1.8,1.1-4,1.1-6.4c0-2.4-0.4-4.6-1.1-6.4c-0.8-1.8-1.9-3.3-3.4-4.3c-1.5-1-3.4-1.5-5.7-1.6
				c-2.3,0-4.1,0.5-5.6,1.5c-1.5,1-2.6,2.5-3.4,4.3c-0.8,1.8-1.1,4-1.2,6.4c0,2.4,0.4,4.5,1.1,6.4c0.8,1.8,1.9,3.3,3.4,4.3
				C465.9,264.1,467.8,264.6,470,264.7z"/>
			<path class="st0" d="M505.7,267.6v-30.4h3.8V264h14.1v3.6H505.7z"/>
			<path class="st0" d="M556,268.2c-2.3,0-4.4-0.5-6.2-1.5c-1.8-1-3.2-2.3-4.2-4.1c-1-1.8-1.5-3.8-1.5-6.2v-19.3l3.8,0v19
				c0,1.4,0.2,2.7,0.7,3.7c0.5,1.1,1.1,1.9,1.9,2.6c0.8,0.7,1.7,1.2,2.6,1.6c1,0.3,1.9,0.5,2.9,0.5c1,0,1.9-0.2,2.9-0.5
				c1-0.4,1.9-0.9,2.6-1.6c0.8-0.7,1.4-1.6,1.9-2.6c0.5-1.1,0.7-2.3,0.7-3.7v-19h3.8v19.3c0,2.3-0.5,4.4-1.5,6.2
				c-1,1.8-2.4,3.1-4.2,4.1C560.4,267.8,558.3,268.2,556,268.2z"/>
			<path class="st0" d="M598.5,267.6v-26.8h-10.4v-3.6h24.5v3.6h-10.4v26.8H598.5z"/>
			<path class="st0" d="M633.3,267.6v-30.4h3.8v30.4H633.3z"/>
			<path class="st0" d="M672.7,268.2c-3,0-5.6-0.7-7.7-2c-2.1-1.3-3.7-3.2-4.8-5.6c-1.1-2.4-1.7-5.1-1.7-8.2s0.6-5.9,1.7-8.2
				c1.1-2.4,2.7-4.2,4.8-5.6c2.1-1.3,4.7-2,7.7-2c3,0,5.6,0.7,7.7,2c2.1,1.3,3.7,3.2,4.8,5.6c1.1,2.4,1.6,5.1,1.6,8.2
				s-0.5,5.9-1.6,8.2c-1.1,2.4-2.7,4.2-4.8,5.6C678.4,267.6,675.8,268.2,672.7,268.2z M672.7,264.7c2.3,0,4.2-0.5,5.7-1.5
				c1.5-1,2.6-2.5,3.4-4.3c0.8-1.8,1.1-4,1.1-6.4c0-2.4-0.4-4.6-1.1-6.4c-0.8-1.8-1.9-3.3-3.4-4.3c-1.5-1-3.4-1.5-5.7-1.6
				c-2.3,0-4.1,0.5-5.6,1.5c-1.5,1-2.6,2.5-3.4,4.3c-0.8,1.8-1.1,4-1.2,6.4c0,2.4,0.4,4.5,1.1,6.4c0.8,1.8,1.9,3.3,3.4,4.3
				C668.6,264.1,670.5,264.6,672.7,264.7z"/>
			<path class="st0" d="M708,267.6v-30.4h3.8l15.8,23.7v-23.7h3.8v30.4h-3.8l-15.8-23.7v23.7H708z"/>
			<path class="st0" d="M765,268.2c-2.2,0-4.1-0.4-5.8-1.1c-1.7-0.7-3.1-1.8-4.3-3.1c-1.1-1.4-1.8-3-2.2-4.8l3.9-0.6
				c0.5,1.9,1.5,3.4,3.1,4.5c1.6,1.1,3.4,1.6,5.5,1.6c1.4,0,2.6-0.2,3.7-0.6c1.1-0.4,2-1,2.6-1.8c0.6-0.8,1-1.8,1-2.8
				c0-0.7-0.1-1.3-0.3-1.7c-0.2-0.5-0.5-0.9-0.9-1.2c-0.4-0.3-0.9-0.6-1.4-0.9c-0.5-0.2-1-0.4-1.6-0.6l-7.7-2.3
				c-0.8-0.3-1.7-0.6-2.4-1c-0.8-0.4-1.5-0.9-2.1-1.5c-0.6-0.6-1.1-1.3-1.5-2.1c-0.4-0.8-0.5-1.8-0.5-2.9c0-1.8,0.5-3.3,1.4-4.6
				c0.9-1.3,2.2-2.2,3.8-2.9c1.6-0.7,3.4-1,5.4-1c2,0,3.9,0.4,5.5,1.1c1.6,0.7,2.9,1.7,4,3c1.1,1.3,1.8,2.9,2.1,4.7l-4,0.7
				c-0.2-1.2-0.7-2.3-1.4-3.2c-0.7-0.9-1.6-1.6-2.7-2.1c-1.1-0.5-2.3-0.7-3.6-0.7c-1.2,0-2.4,0.2-3.4,0.6c-1,0.4-1.8,1-2.4,1.7
				c-0.6,0.7-0.9,1.6-0.9,2.5c0,0.9,0.3,1.7,0.8,2.2c0.5,0.6,1.2,1,2,1.3c0.8,0.3,1.5,0.6,2.3,0.8l5.8,1.7c0.7,0.2,1.4,0.4,2.3,0.8
				c0.9,0.3,1.7,0.8,2.5,1.4c0.8,0.6,1.5,1.4,2,2.3c0.5,1,0.8,2.2,0.8,3.6c0,1.5-0.3,2.8-0.9,3.9c-0.6,1.1-1.4,2.1-2.4,2.9
				c-1,0.8-2.2,1.3-3.6,1.8C768,268,766.6,268.2,765,268.2z"/>
		</g>
	</g>
	<g>
		<polygon class="st1" points="276,99.8 244.5,131.3 208.3,167.5 176.3,199.5 144.2,167.5 108,131.3 76.5,99.8 176.3,0 		"/>
		<g>
			<path class="st1" d="M482.3,132.7v81.5h-23v-91.5h-46.7v-23h36.7c3.5,0,6.8,0.5,10,1.5c10.2,3.2,18.2,11.3,21.5,21.5
				C481.8,125.9,482.3,129.3,482.3,132.7z M482.3,99.8v23h46.7v-23H482.3z"/>
			<path class="st1" d="M776.3,191.2v23h-50.1c-3.5,0-6.8-0.5-10-1.5c-10.2-3.2-18.2-11.3-21.5-21.5c-1-3.2-1.5-6.5-1.5-10V99.8h23
				v91.5H776.3z"/>
			<path class="st1" d="M1052.8,132.7v81.5h-23v-91.5h-68.5v91.5h-23v-90.8c2.3,0,4.6-0.2,6.8-0.7c6.2-1.3,11.8-4.4,16.2-8.7
				c4-3.9,7-8.8,8.6-14.3h49.8c3.5,0,6.8,0.5,10,1.5c10.2,3.2,18.2,11.3,21.5,21.5C1052.3,125.9,1052.8,129.3,1052.8,132.7z"/>
			<path class="st1" d="M823.1,122.8v22.7h63.6v23H856l-26.4-17.2h-6.4v39.9h91.5v23h-81.5c-3.5,0-6.8-0.5-10-1.5
				c-10.2-3.2-18.2-11.3-21.5-21.5c-1-3.2-1.5-6.5-1.5-10v-58.5c9,0,17.1-3.6,23-9.4c3.8-3.7,6.8-8.4,8.4-13.7h83v23H823.1z"/>
			<path class="st1" d="M1193,99.8v23h-46.7v-23H1193z M1144.8,122.8c-3.2-10.2-11.3-18.2-21.5-21.5c-3.2-1-6.5-1.5-10-1.5h-36.7v23
				h46.7v91.5h23v-81.5C1146.3,129.3,1145.8,125.9,1144.8,122.8z"/>
			<path class="st1" d="M667.5,122.8c-8.1-0.5-15.5-3.9-21-9.3c-3.9-3.8-6.8-8.5-8.5-13.7h-85v23h93.4v21.1h-82.2
				c-19.5,0-35.2,15.8-35.2,35.2s15.8,35.2,35.2,35.2h57.2l20.9-13.6h4.1v13.5h23v-91.4C668.8,122.8,668.2,122.8,667.5,122.8z
				 M646.5,171.7l-29.1,18.9h-64.4v-23h62.1l25-16.2h6.3V171.7z"/>
		</g>
		<g>
			<polygon class="st1" points="176.3,206 108,137.8 108,153.1 176.3,221.3 244.5,153.1 244.5,137.8 			"/>
		</g>
	</g>
</g>
<g>
</g>
<g>
</g>
<g>
</g>
<g>
</g>
<g>
</g>
<g>
</g>
<g>
</g>
<g>
</g>
<g>
</g>
<g>
</g>
<g>
</g>
<g>
</g>
<g>
</g>
<g>
</g>
<g>
</g>
</svg>
