<?xml version="1.0" encoding="utf-8"?>
<!-- Generator: Adobe Illustrator 26.3.1, SVG Export Plug-In . SVG Version: 6.00 Build 0)  -->
<svg version="1.1" id="Layer_1" xmlns="http://www.w3.org/2000/svg" xmlns:xlink="http://www.w3.org/1999/xlink" x="0px" y="0px"
	 viewBox="0 0 1080 1080" style="enable-background:new 0 0 1080 1080;" xml:space="preserve">
<style type="text/css">
	.st0{fill:#004B8D;}
	.st1{fill:#FFB500;}
</style>
<g>
	<polygon class="st0" points="824.67,438.83 734.72,528.78 631.45,632.06 540,723.5 448.56,632.06 345.28,528.78 255.33,438.83 
		540,154.16 	"/>
	<path class="st1" d="M917.24,439h125.81v125.81v0L682.02,925.84l0,0H556.21V800.03L917.24,439L917.24,439z M162.75,439H36.95
		v125.81v0l361.04,361.04l0,0h125.81V800.03L162.75,439L162.75,439z"/>
	<g>
		<polygon class="st0" points="540,742.07 345.28,547.36 345.28,591 540,785.72 734.72,591 734.72,547.35 		"/>
	</g>
</g>
<g>
</g>
<g>
</g>
<g>
</g>
<g>
</g>
<g>
</g>
<g>
</g>
<g>
</g>
<g>
</g>
<g>
</g>
<g>
</g>
<g>
</g>
<g>
</g>
<g>
</g>
<g>
</g>
<g>
</g>
</svg>
