<?xml version="1.0" encoding="utf-8"?>
<!-- Generator: Adobe Illustrator 24.0.2, SVG Export Plug-In . SVG Version: 6.00 Build 0)  -->
<svg version="1.1" id="Layer_1" xmlns="http://www.w3.org/2000/svg" xmlns:xlink="http://www.w3.org/1999/xlink" x="0px" y="0px"
	 viewBox="0 0 1006.1 771.69" style="enable-background:new 0 0 1006.1 771.69;" xml:space="preserve">
<style type="text/css">
	.st0{fill:#004B8D;}
	.st1{fill:#FFB500;}
</style>
<g>
	<polygon class="st0" points="787.72,284.67 697.77,374.62 594.5,477.9 503.05,569.34 411.61,477.9 308.33,374.62 218.38,284.67 
		503.05,0 	"/>
	<path class="st1" d="M880.29,284.84h125.81v125.81l0,0L645.07,771.68l0,0H519.26V645.87L880.29,284.84L880.29,284.84z
		 M125.8,284.84H0v125.81l0,0l361.04,361.04l0,0h125.81V645.87L125.8,284.84L125.8,284.84z"/>
	<g>
		<polygon class="st0" points="503.05,587.91 308.33,393.2 308.33,436.84 503.05,631.56 697.77,436.84 697.77,393.19 		"/>
	</g>
</g>
</svg>
