<?xml version="1.0" encoding="utf-8"?>
<!-- Generator: Adobe Illustrator 26.3.1, SVG Export Plug-In . SVG Version: 6.00 Build 0)  -->
<svg version="1.1" id="Layer_1" xmlns="http://www.w3.org/2000/svg" xmlns:xlink="http://www.w3.org/1999/xlink" x="0px" y="0px"
	 viewBox="0 0 533.3 409" style="enable-background:new 0 0 533.3 409;" xml:space="preserve">
<style type="text/css">
	.st0{fill:#FFFFFF;}
	.st1{fill:#ADADAD;}
</style>
<g>
	<polygon class="st0" points="417.5,150.9 369.9,198.6 315.1,253.3 266.7,301.8 218.2,253.3 163.4,198.6 115.8,150.9 266.7,0 	"/>
	<path class="st0" d="M466.6,151h66.7v66.7v0L341.9,409l0,0h-66.7v-66.7L466.6,151L466.6,151z M66.7,151H0l0,66.7v0L191.4,409l0,0
		h66.7v-66.7L66.7,151L66.7,151z"/>
	<polygon class="st1" points="369.9,198.6 369.9,221.9 266.7,325.1 163.4,221.9 163.4,198.6 266.7,301.8 	"/>
</g>
<g>
</g>
<g>
</g>
<g>
</g>
<g>
</g>
<g>
</g>
<g>
</g>
<g>
</g>
<g>
</g>
<g>
</g>
<g>
</g>
<g>
</g>
<g>
</g>
<g>
</g>
<g>
</g>
<g>
</g>
</svg>
