<?xml version="1.0" encoding="utf-8"?>
<!-- Generator: Adobe Illustrator 26.3.1, SVG Export Plug-In . SVG Version: 6.00 Build 0)  -->
<svg version="1.1" id="Layer_1" xmlns="http://www.w3.org/2000/svg" xmlns:xlink="http://www.w3.org/1999/xlink" x="0px" y="0px"
	 viewBox="0 0 1920 1371.8" style="enable-background:new 0 0 1920 1371.8;" xml:space="preserve">
<style type="text/css">
	.st0{fill:#8FA3B7;}
	.st1{fill:#1D2121;}
	.st2{fill:#363B3E;}
	.st3{fill:#FFFFFF;}
	.st4{fill:none;stroke:#FF0000;stroke-miterlimit:10;}
	.st5{fill:#FF0000;}
	.st6{fill:#1B3561;}
	.st7{fill:#E0BE6A;}
	.st8{fill:#EDF0F4;stroke:#000000;stroke-miterlimit:10;}
	.st9{fill:#D5E1EF;}
	.st10{fill:#EDF0F4;}
</style>
<g>
	<path class="st6" d="M409.2,1214.6H209.3c-20.6,0-37.3-16.7-37.3-37.3V194.2c0-20.6,16.7-37.3,37.3-37.3h199.9
		c20.6,0,37.3,16.7,37.3,37.3v983.1C446.6,1197.9,429.9,1214.6,409.2,1214.6z"/>
	<path class="st7" d="M734.6,1214.6H534.7c-20.6,0-37.3-16.7-37.3-37.3V194.2c0-20.6,16.7-37.3,37.3-37.3h199.9
		c20.6,0,37.3,16.7,37.3,37.3v983.1C771.9,1197.9,755.2,1214.6,734.6,1214.6z"/>
	<path class="st8" d="M1060,1214.6H860c-20.6,0-37.3-16.7-37.3-37.3V194.2c0-20.6,16.7-37.3,37.3-37.3H1060
		c20.6,0,37.3,16.7,37.3,37.3v983.1C1097.3,1197.9,1080.6,1214.6,1060,1214.6z"/>
	<path class="st9" d="M1385.3,1214.6h-199.9c-20.6,0-37.3-16.7-37.3-37.3V194.2c0-20.6,16.7-37.3,37.3-37.3h199.9
		c20.6,0,37.3,16.7,37.3,37.3v983.1C1422.7,1197.9,1405.9,1214.6,1385.3,1214.6z"/>
	<path class="st0" d="M1710.7,1214.6h-199.9c-20.6,0-37.3-16.7-37.3-37.3V194.2c0-20.6,16.7-37.3,37.3-37.3h199.9
		c20.6,0,37.3,16.7,37.3,37.3v983.1C1748,1197.9,1731.3,1214.6,1710.7,1214.6z"/>
	<g>
		<path class="st10" d="M361.8,1163.1v-5.4H405v5.4H361.8z"/>
		<path class="st10" d="M373.8,1150.2v-5.2h4.4v-0.1c-2.9-1.7-5-4.8-5-9.6c0-6.8,4.4-10.8,11.5-10.8H405v5.2h-19.3
			c-5.1,0-7.8,2.4-7.8,7.1c0,4.9,3.5,8.1,8.8,8.1H405v5.2H373.8z"/>
		<path class="st10" d="M389.4,1119.4L389.4,1119.4c-9.8,0-16.2-5.3-16.2-13.1c0-4.4,2.2-8,5.8-10v-0.1h-17.3v-5.2H405v5.2h-5.3v0.1
			c3.6,1.9,5.9,5.4,5.9,9.9C405.6,1114.2,399.2,1119.4,389.4,1119.4z M389.4,1096.2L389.4,1096.2c-7,0-11.5,3.8-11.5,9
			c0,5.5,4.4,8.9,11.5,8.9h0c7.1,0,11.5-3.4,11.5-8.9C400.9,1099.9,396.4,1096.2,389.4,1096.2z"/>
		<path class="st10" d="M365.3,1084.3c-1.8,0-3.3-1.5-3.3-3.3c0-1.8,1.4-3.3,3.3-3.3c1.8,0,3.3,1.4,3.3,3.3
			C368.6,1082.8,367.1,1084.3,365.3,1084.3z M373.8,1083.6v-5.2H405v5.2H373.8z"/>
		<path class="st10" d="M407.8,1071.7l-0.3,0.1v-5.2l0.3-0.1c2.2-1,3.6-3.9,3.6-8.2c0-5.5-3-8.6-7.8-8.6h-4v0.1
			c3.4,1.9,5.7,5.4,5.7,9.9c0,7.8-6.3,13.2-16,13.2h0c-9.7,0-15.9-5.4-15.9-13.3c0-4.4,2.4-7.9,5.9-9.8v-0.1h-5.3v-5.2h30.2
			c7.2,0,11.9,5.3,11.9,13.7C416,1065.9,412.4,1070.7,407.8,1071.7z M389.2,1049.7L389.2,1049.7c-6.9,0-11.4,3.6-11.4,8.9
			c0,5.5,4.4,9,11.3,9h0c7.1,0,11.4-3.5,11.4-9C400.6,1053.3,396.1,1049.7,389.2,1049.7z"/>
		<path class="st10" d="M389.4,1039.3L389.4,1039.3c-10,0-16.2-5.8-16.2-14.4c0-8.6,6.2-14.4,16.1-14.4h0.1
			c9.9,0,16.2,5.8,16.2,14.4C405.6,1033.5,399.3,1039.3,389.4,1039.3z M389.4,1015.8L389.4,1015.8c-7.4,0-11.5,3.6-11.5,9.1
			c0,5.4,4.2,9.1,11.5,9.1h0.1c7.3,0,11.5-3.6,11.5-9.1C400.9,1019.3,396.7,1015.8,389.4,1015.8z"/>
		<path class="st10" d="M388.6,990.3c-10.6,0-19.4-2.7-26.8-8.5v-4.4c5,4.3,16.8,7.6,26.8,7.6s21.8-3.3,26.8-7.6v4.4
			C408,987.7,399.2,990.3,388.6,990.3z"/>
		<path class="st10" d="M361.8,972.1v-16.2c0-8.3,5.1-13.8,12.9-13.8h0.1c6,0,10.6,3.3,12.3,8.7l17.9-10v6.3l-17.1,9.2v10.3H405v5.4
			H361.8z M383.1,956.4c0-5.5-3-8.7-8.3-8.7h-0.1c-5.1,0-8.2,3.4-8.2,8.9v10.1h16.5V956.4z"/>
		<path class="st10" d="M396.2,938L396.2,938c-5.4,0-8.7-4.1-9.1-11.3l-0.5-8.9H384c-3.8,0-6.1,2.5-6.1,6.8c0,4,1.9,6.5,4.7,7.1
			l0.3,0.1v5l-0.3,0c-5.1-0.4-9.2-4.9-9.2-12.2c0-7.4,4-12,10.2-12H405v5.2h-5.1v0.1c3.4,1.8,5.7,5.6,5.7,9.7
			C405.6,933.9,401.8,938,396.2,938z M401,926.5c0-4.9-3.4-8.7-7.9-8.7h-2.5l0.5,8.3c0.2,4.2,2.1,6.5,5,6.5h0.1
			C399.2,932.7,401,930.3,401,926.5z"/>
		<path class="st10" d="M365.3,906.4c-1.8,0-3.3-1.5-3.3-3.3c0-1.8,1.4-3.3,3.3-3.3c1.8,0,3.3,1.4,3.3,3.3
			C368.6,904.9,367.1,906.4,365.3,906.4z M373.8,905.7v-5.2H405v5.2H373.8z"/>
		<path class="st10" d="M373.8,893.4v-5.2h4.4v-0.1c-2.9-1.7-5-4.8-5-9.6c0-6.8,4.4-10.8,11.5-10.8H405v5.2h-19.3
			c-5.1,0-7.8,2.4-7.8,7.1c0,4.9,3.5,8.1,8.8,8.1H405v5.2H373.8z"/>
		<path class="st10" d="M399.7,855.5v0.1h5.3v5.2h-43.2v-5.2h17.3v-0.1c-3.6-1.9-5.8-5.6-5.8-10c0-7.8,6.3-13.1,16.1-13.1h0
			c9.8,0,16.2,5.3,16.2,13.2C405.6,850.1,403.3,853.6,399.7,855.5z M389.4,837.8L389.4,837.8c-7.1,0-11.5,3.4-11.5,8.9
			c0,5.2,4.6,9,11.5,9h0c7,0,11.5-3.7,11.5-9C400.9,841.2,396.5,837.8,389.4,837.8z"/>
		<path class="st10" d="M389.4,828.7L389.4,828.7c-10,0-16.2-5.8-16.2-14.4c0-8.6,6.2-14.4,16.1-14.4h0.1c9.9,0,16.2,5.8,16.2,14.4
			C405.6,823,399.3,828.7,389.4,828.7z M389.4,805.3L389.4,805.3c-7.4,0-11.5,3.6-11.5,9.1c0,5.4,4.2,9.1,11.5,9.1h0.1
			c7.3,0,11.5-3.6,11.5-9.1C400.9,808.8,396.7,805.3,389.4,805.3z"/>
		<path class="st10" d="M373.8,797.2v-5.2l25.3-6.2v-0.1l-25.3-7v-5l25.3-7.1v-0.1l-25.3-6.2v-5.1l31.1,8.7v5.3l-24.1,7v0.1l24.1,7
			v5.3L373.8,797.2z"/>
		<path class="st10" d="M415.4,753.1c-5-4.3-16.8-7.6-26.8-7.6s-21.8,3.3-26.8,7.6v-4.4c7.4-5.8,16.2-8.5,26.8-8.5
			c10.6,0,19.4,2.7,26.8,8.5V753.1z"/>
	</g>
	<g>
		<path class="st10" d="M211.1,229.7l1.2-6.7h-4l0.5-2.5h4l1.2-6.6h-4.2l0.5-2.5h4.1l1.2-6.5h2.5l-1.2,6.5h5.7l1.2-6.5h2.5l-1.2,6.5
			h4.3L229,214h-4.2l-1.2,6.6h4.4l-0.5,2.5h-4.3l-1.2,6.7h-2.5l1.2-6.7h-5.7l-1.2,6.7H211.1z M221.1,220.6l1.3-6.7h-5.9l-1.3,6.7
			H221.1z"/>
		<path class="st10" d="M237.8,208.3L237.8,208.3l-6.6,4.6v-3.1l6.6-4.7h3v24.7h-3V208.3z"/>
		<path class="st10" d="M247.5,205h9.4c4.2,0,7.1,2.5,7.1,6.2v0c0,2.6-1.9,5-4.5,5.4v0.1c3.6,0.4,5.7,2.8,5.7,6.1v0
			c0,4.3-3.1,6.9-8.4,6.9h-9.3V205z M250.5,207.8v7.9h4.6c3.6,0,5.6-1.5,5.6-4.1v0c0-2.4-1.7-3.8-4.7-3.8H250.5z M250.5,218.3v8.7
			h5.8c3.7,0,5.7-1.5,5.7-4.3v0c0-2.9-2-4.3-6-4.3H250.5z"/>
		<path class="st10" d="M267.8,223.4l0-0.2h3l0,0.2c0.3,2.4,2.5,4.1,5.8,4.1c3.2,0,5.4-1.8,5.4-4.4v0c0-3-2.2-4.7-5.6-4.7h-3.1v-2.6
			h3c2.9,0,5-1.8,5-4.3v0c0-2.6-1.7-4.1-4.7-4.1c-2.9,0-5,1.5-5.2,4l0,0.2h-3l0-0.2c0.4-4,3.6-6.7,8.2-6.7c4.7,0,7.8,2.6,7.8,6.4v0
			c0,3-2.2,5.1-5.2,5.8v0.1c3.6,0.3,6,2.6,6,6.1v0c0,4.1-3.6,7.2-8.6,7.2C271.5,230.1,268.2,227.3,267.8,223.4z"/>
		<path class="st10" d="M289,223.2l0-0.2h3l0,0.1c0.3,2.4,2.5,4.3,5.5,4.3c3.4,0,5.7-2.3,5.7-5.6v0c0-3.3-2.4-5.6-5.6-5.6
			c-1.7,0-3.1,0.5-4.2,1.5c-0.4,0.4-0.8,0.9-1.2,1.5h-2.7l1.3-14.1h14.1v2.7h-11.6l-0.8,8.3h0.1c1.2-1.7,3.2-2.6,5.6-2.6
			c4.7,0,8.2,3.4,8.2,8.2v0c0,4.9-3.7,8.4-8.8,8.4C292.8,230.1,289.4,227.2,289,223.2z"/>
		<path class="st10" d="M309.1,217.8L309.1,217.8c0-8.4,3.5-13.2,9.6-13.2c4.2,0,7.3,2.4,8.1,6l0.1,0.2h-3.1l-0.1-0.2
			c-0.7-2-2.5-3.3-5-3.3c-4.6,0-6.4,4.5-6.6,9.7c0,0.2,0,0.3,0,0.5h0.1c1-2.2,3.5-4,6.9-4c4.7,0,8.2,3.5,8.2,8.2v0
			c0,4.9-3.7,8.4-8.7,8.4C313.9,230.1,309.1,227,309.1,217.8z M318.4,227.4c3.2,0,5.6-2.5,5.6-5.6v0c0-3.2-2.3-5.5-5.6-5.5
			c-3.2,0-5.7,2.3-5.7,5.4v0C312.8,224.9,315.3,227.4,318.4,227.4z"/>
		<path class="st10" d="M337.5,208.3L337.5,208.3l-6.6,4.6v-3.1l6.6-4.7h3v24.7h-3V208.3z"/>
	</g>
	<g>
		<path class="st10" d="M533.6,229.7l1.2-6.7h-4l0.5-2.5h4l1.2-6.6h-4.2l0.5-2.5h4.1l1.2-6.5h2.5l-1.2,6.5h5.7l1.2-6.5h2.5l-1.2,6.5
			h4.3l-0.5,2.5h-4.2l-1.2,6.6h4.4l-0.5,2.5h-4.3l-1.2,6.7h-2.5l1.2-6.7h-5.7l-1.2,6.7H533.6z M543.6,220.6l1.3-6.7H539l-1.3,6.7
			H543.6z"/>
		<path class="st10" d="M554.4,205h15.3v2.8h-12.2v7.9h11.6v2.7h-11.6v8.5h12.2v2.8h-15.3V205z"/>
		<path class="st10" d="M572.9,217.4L572.9,217.4c0-7.9,3.4-12.8,9.1-12.8c5.7,0,9.1,4.9,9.1,12.7v0c0,7.8-3.4,12.8-9.1,12.8
			C576.3,230.1,572.9,225.2,572.9,217.4z M588,217.4L588,217.4c0-6.2-2.2-10.1-6-10.1s-6,3.8-6,10v0c0,6.2,2.2,10.1,6,10.1
			S588,223.6,588,217.4z"/>
		<path class="st10" d="M595,205h9.4c4.2,0,7.1,2.5,7.1,6.2v0c0,2.6-1.9,5-4.5,5.4v0.1c3.6,0.4,5.7,2.8,5.7,6.1v0
			c0,4.3-3.1,6.9-8.4,6.9H595V205z M598.1,207.8v7.9h4.6c3.6,0,5.6-1.5,5.6-4.1v0c0-2.4-1.7-3.8-4.7-3.8H598.1z M598.1,218.3v8.7
			h5.8c3.7,0,5.7-1.5,5.7-4.3v0c0-2.9-2-4.3-6-4.3H598.1z"/>
		<path class="st10" d="M616.2,205h15.3v2.8h-12.2v7.9h11.6v2.7h-11.6v8.5h12.2v2.8h-15.3V205z"/>
		<path class="st10" d="M634.8,217.8L634.8,217.8c0-8.4,3.5-13.2,9.6-13.2c4.2,0,7.3,2.4,8.1,6l0.1,0.2h-3.1l-0.1-0.2
			c-0.7-2-2.5-3.3-5-3.3c-4.6,0-6.4,4.5-6.6,9.7c0,0.2,0,0.3,0,0.5h0.1c1-2.2,3.5-4,6.9-4c4.7,0,8.2,3.5,8.2,8.2v0
			c0,4.9-3.7,8.4-8.7,8.4C639.6,230.1,634.8,227,634.8,217.8z M644.1,227.4c3.2,0,5.6-2.5,5.6-5.6v0c0-3.2-2.3-5.5-5.6-5.5
			c-3.2,0-5.7,2.3-5.7,5.4v0C638.5,224.9,640.9,227.4,644.1,227.4z"/>
		<path class="st10" d="M664.5,205h3l9.2,24.7h-3.2l-2.5-7.1H661l-2.5,7.1h-3.2L664.5,205z M661.9,220h8.1l-4-11.3H666L661.9,220z"
			/>
	</g>
	<g>
		<path class="st6" d="M856.1,229.7l1.2-6.7h-4l0.5-2.5h4l1.2-6.6h-4.2l0.5-2.5h4.1l1.2-6.5h2.5l-1.2,6.5h5.7l1.2-6.5h2.5l-1.2,6.5
			h4.3L874,214h-4.2l-1.2,6.6h4.4l-0.5,2.5h-4.3l-1.2,6.7h-2.5l1.2-6.7h-5.7l-1.2,6.7H856.1z M866.1,220.6l1.3-6.7h-5.9l-1.3,6.7
			H866.1z"/>
		<path class="st6" d="M876.9,205h15.3v2.8H880v7.9h11.6v2.7H880v8.5h12.2v2.8h-15.3V205z"/>
		<path class="st6" d="M896.3,205h8.3c7.3,0,11.7,4.6,11.7,12.3v0c0,7.8-4.3,12.4-11.7,12.4h-8.3V205z M904.4,227
			c5.6,0,8.7-3.4,8.7-9.6v0c0-6.2-3.1-9.6-8.7-9.6h-5V227H904.4z"/>
		<path class="st6" d="M920.1,205h15v2.8h-11.9v8.5h10.9v2.7h-10.9v10.7h-3.1V205z"/>
		<path class="st6" d="M937.7,217.4L937.7,217.4c0-7.9,3.4-12.8,9.1-12.8c5.7,0,9.1,4.9,9.1,12.7v0c0,7.8-3.4,12.8-9.1,12.8
			C941.1,230.1,937.7,225.2,937.7,217.4z M952.8,217.4L952.8,217.4c0-6.2-2.2-10.1-6-10.1s-6,3.8-6,10v0c0,6.2,2.2,10.1,6,10.1
			S952.8,223.6,952.8,217.4z"/>
		<path class="st6" d="M959.8,205h15v2.8h-11.9v8.5h10.9v2.7h-10.9v10.7h-3.1V205z"/>
		<path class="st6" d="M989.7,224.6h-12.4v-2.8l10.8-16.8h4.6v16.9h3.5v2.7h-3.5v5.1h-3V224.6z M989.7,221.9v-14.2h-0.1l-9.3,14.2
			v0.1H989.7z"/>
	</g>
	<g>
		<path class="st6" d="M1178.6,229.7l1.2-6.7h-4l0.5-2.5h4l1.2-6.6h-4.2l0.5-2.5h4.1l1.2-6.5h2.5l-1.2,6.5h5.7l1.2-6.5h2.5l-1.2,6.5
			h4.3l-0.5,2.5h-4.2l-1.2,6.6h4.4l-0.5,2.5h-4.3l-1.2,6.7h-2.5l1.2-6.7h-5.7l-1.2,6.7H1178.6z M1188.6,220.6l1.3-6.7h-5.9l-1.3,6.7
			H1188.6z"/>
		<path class="st6" d="M1199.4,205h8.3c7.3,0,11.7,4.6,11.7,12.3v0c0,7.8-4.3,12.4-11.7,12.4h-8.3V205z M1207.5,227
			c5.6,0,8.7-3.4,8.7-9.6v0c0-6.2-3.1-9.6-8.7-9.6h-5V227H1207.5z"/>
		<path class="st6" d="M1222.8,223.2l0-0.2h3l0,0.1c0.3,2.4,2.5,4.3,5.5,4.3c3.4,0,5.7-2.3,5.7-5.6v0c0-3.3-2.4-5.6-5.6-5.6
			c-1.7,0-3.1,0.5-4.2,1.5c-0.4,0.4-0.8,0.9-1.2,1.5h-2.7l1.3-14.1h14.1v2.7h-11.6l-0.8,8.3h0.1c1.2-1.7,3.2-2.6,5.6-2.6
			c4.7,0,8.2,3.4,8.2,8.2v0c0,4.9-3.7,8.4-8.8,8.4C1226.6,230.1,1223.2,227.2,1222.8,223.2z"/>
		<path class="st6" d="M1243.7,205h15.3v2.8h-12.2v7.9h11.6v2.7h-11.6v8.5h12.2v2.8h-15.3V205z"/>
		<path class="st6" d="M1269,208.3L1269,208.3l-6.6,4.6v-3.1l6.6-4.7h3v24.7h-3V208.3z"/>
		<path class="st6" d="M1278.6,205h15.3v2.8h-12.2v7.9h11.6v2.7h-11.6v8.5h12.2v2.8h-15.3V205z"/>
		<path class="st6" d="M1298,205h15v2.8h-11.9v8.5h10.9v2.7h-10.9v10.7h-3.1V205z"/>
	</g>
	<g>
		<path class="st10" d="M1501.1,229.7l1.2-6.7h-4l0.5-2.5h4l1.2-6.6h-4.2l0.5-2.5h4.1l1.2-6.5h2.5l-1.2,6.5h5.7l1.2-6.5h2.5
			l-1.2,6.5h4.3l-0.5,2.5h-4.2l-1.2,6.6h4.4l-0.5,2.5h-4.3l-1.2,6.7h-2.5l1.2-6.7h-5.7l-1.2,6.7H1501.1z M1511.1,220.6l1.3-6.7h-5.9
			l-1.3,6.7H1511.1z"/>
		<path class="st10" d="M1521,223.1L1521,223.1c0-3.1,2.1-5.6,5.3-6.4v-0.1c-2.7-0.8-4.4-2.9-4.4-5.5v0c0-3.7,3.4-6.5,8.1-6.5
			s8.1,2.8,8.1,6.5v0c0,2.6-1.7,4.7-4.4,5.5v0.1c3.2,0.7,5.3,3.3,5.3,6.3v0c0,4.1-3.7,7.1-9,7.1S1521,227.2,1521,223.1z
			 M1535.8,222.9L1535.8,222.9c0-2.7-2.4-4.7-5.8-4.7s-5.8,1.9-5.8,4.6v0c0,2.7,2.4,4.6,5.8,4.6S1535.8,225.5,1535.8,222.9z
			 M1535,211.4L1535,211.4c0-2.4-2-4.1-5-4.1c-3,0-5,1.7-5,4.1v0c0,2.4,2,4.1,5,4.1C1533,215.5,1535,213.8,1535,211.4z"/>
		<path class="st10" d="M1542.9,205h15v2.8H1546v8.5h10.9v2.7H1546v10.7h-3.1V205z"/>
		<path class="st10" d="M1566.9,205h3l9.2,24.7h-3.2l-2.5-7.1h-9.9l-2.5,7.1h-3.2L1566.9,205z M1564.4,220h8.1l-4-11.3h-0.1
			L1564.4,220z"/>
		<path class="st10" d="M1581.2,223.4l0-0.2h3l0,0.2c0.3,2.4,2.5,4.1,5.8,4.1c3.2,0,5.4-1.8,5.4-4.4v0c0-3-2.2-4.7-5.6-4.7h-3.1
			v-2.6h3c2.9,0,5-1.8,5-4.3v0c0-2.6-1.7-4.1-4.7-4.1c-2.9,0-5,1.5-5.2,4l0,0.2h-3l0-0.2c0.4-4,3.6-6.7,8.2-6.7
			c4.7,0,7.8,2.6,7.8,6.4v0c0,3-2.2,5.1-5.2,5.8v0.1c3.6,0.3,6,2.6,6,6.1v0c0,4.1-3.6,7.2-8.6,7.2
			C1584.8,230.1,1581.5,227.3,1581.2,223.4z"/>
		<path class="st10" d="M1602.7,205h9.4c4.2,0,7.1,2.5,7.1,6.2v0c0,2.6-1.9,5-4.5,5.4v0.1c3.6,0.4,5.7,2.8,5.7,6.1v0
			c0,4.3-3.1,6.9-8.4,6.9h-9.3V205z M1605.8,207.8v7.9h4.6c3.6,0,5.6-1.5,5.6-4.1v0c0-2.4-1.7-3.8-4.7-3.8H1605.8z M1605.8,218.3
			v8.7h5.8c3.7,0,5.7-1.5,5.7-4.3v0c0-2.9-2-4.3-6-4.3H1605.8z"/>
		<path class="st10" d="M1636.1,207.8L1636.1,207.8l-13.3-0.1V205h16.3v2.9l-11,21.8h-3.2L1636.1,207.8z"/>
	</g>
	<g>
		<path class="st10" d="M698.3,1163.1v-6.2l36.4-15v-0.2l-36.4-15v-6.2h43.2v5h-33.3v0.2l33.3,13.8v4.5l-33.3,13.8v0.2h33.3v5H698.3
			z"/>
		<path class="st10" d="M701.8,1113.3c-1.8,0-3.3-1.5-3.3-3.3c0-1.8,1.4-3.3,3.3-3.3c1.8,0,3.3,1.4,3.3,3.3
			C705.1,1111.9,703.6,1113.3,701.8,1113.3z M710.3,1112.7v-5.2h31.1v5.2H710.3z"/>
		<path class="st10" d="M725.9,1101.9L725.9,1101.9c-9.8,0-16.2-5.3-16.2-13.1c0-4.4,2.2-8,5.8-10v-0.1h-17.3v-5.2h43.2v5.2h-5.3
			v0.1c3.6,1.9,5.9,5.4,5.9,9.9C742.1,1096.7,735.7,1101.9,725.9,1101.9z M725.9,1078.7L725.9,1078.7c-7,0-11.5,3.8-11.5,9
			c0,5.5,4.4,8.9,11.5,8.9h0c7.1,0,11.5-3.4,11.5-8.9C737.4,1082.4,732.9,1078.7,725.9,1078.7z"/>
		<path class="st10" d="M725.9,1068L725.9,1068c-9.8,0-16.2-5.3-16.2-13.1c0-4.4,2.2-8,5.8-10v-0.1h-17.3v-5.2h43.2v5.2h-5.3v0.1
			c3.6,1.9,5.9,5.4,5.9,9.9C742.1,1062.7,735.7,1068,725.9,1068z M725.9,1044.8L725.9,1044.8c-7,0-11.5,3.8-11.5,9
			c0,5.5,4.4,8.9,11.5,8.9h0c7.1,0,11.5-3.4,11.5-8.9C737.4,1048.5,732.9,1044.8,725.9,1044.8z"/>
		<path class="st10" d="M698.3,1032.3v-5.2h43.2v5.2H698.3z"/>
		<path class="st10" d="M726,1021.6L726,1021.6c-9.7,0-16.3-5.5-16.3-14c0-8.5,6.3-13.7,15.6-13.7h1.9v22.4
			c6.4-0.1,10.1-3.6,10.1-9.2c0-3.9-2-6.7-4.6-7.6l-0.3-0.1v-5.1l0.3,0.1c5.1,1,9.2,6.1,9.2,12.9
			C742.1,1016.2,735.8,1021.6,726,1021.6z M723.2,1016.2v-17c-6,0.5-8.9,3.9-8.9,8.4C714.4,1012.1,717.4,1015.6,723.2,1016.2z"/>
		<path class="st10" d="M722.9,963.4l-24.6,15.3v-6.1l19.4-11.8v-0.2l-19.4-11.8v-6.1l24.6,15.3h18.6v5.4H722.9z"/>
		<path class="st10" d="M726,945.8L726,945.8c-9.7,0-16.3-5.5-16.3-14c0-8.5,6.3-13.7,15.6-13.7h1.9v22.4c6.4-0.1,10.1-3.6,10.1-9.2
			c0-3.9-2-6.7-4.6-7.6l-0.3-0.1v-5.1l0.3,0.1c5.1,1,9.2,6.1,9.2,12.9C742.1,940.4,735.8,945.8,726,945.8z M723.2,940.4v-17
			c-6,0.5-8.9,3.9-8.9,8.4C714.4,936.3,717.4,939.9,723.2,940.4z"/>
		<path class="st10" d="M698.3,912.6v-5.2h43.2v5.2H698.3z"/>
		<path class="st10" d="M698.3,900.1v-5.2h43.2v5.2H698.3z"/>
		<path class="st10" d="M725.9,889.4L725.9,889.4c-10,0-16.2-5.8-16.2-14.4c0-8.6,6.2-14.4,16.1-14.4h0.1c9.9,0,16.2,5.8,16.2,14.4
			C742.1,883.6,735.8,889.4,725.9,889.4z M725.9,865.9L725.9,865.9c-7.4,0-11.5,3.6-11.5,9.1c0,5.4,4.2,9.1,11.5,9.1h0.1
			c7.3,0,11.5-3.6,11.5-9.1C737.4,869.5,733.2,865.9,725.9,865.9z"/>
		<path class="st10" d="M710.3,857.9v-5.2l25.3-6.2v-0.1l-25.3-7v-5l25.3-7.1v-0.1l-25.3-6.2v-5.1l31.1,8.7v5.3l-24.1,7v0.1l24.1,7
			v5.3L710.3,857.9z"/>
		<path class="st10" d="M698.3,798.2V782c0-8.3,5.1-13.8,12.9-13.8h0.1c6,0,10.6,3.3,12.3,8.7l17.9-10v6.3l-17.1,9.2v10.3h17.1v5.4
			H698.3z M719.6,782.5c0-5.5-3-8.7-8.3-8.7h-0.1c-5.1,0-8.2,3.4-8.2,8.9v10.1h16.5V782.5z"/>
		<path class="st10" d="M726,763.8L726,763.8c-9.7,0-16.3-5.5-16.3-14c0-8.5,6.3-13.7,15.6-13.7h1.9v22.4c6.4-0.1,10.1-3.6,10.1-9.2
			c0-3.9-2-6.7-4.6-7.6l-0.3-0.1v-5.1l0.3,0.1c5.1,1,9.2,6.1,9.2,12.9C742.1,758.4,735.8,763.8,726,763.8z M723.2,758.4v-17
			c-6,0.5-8.9,3.9-8.9,8.4C714.4,754.3,717.4,757.9,723.2,758.4z"/>
		<path class="st10" d="M725.9,732.4L725.9,732.4c-9.8,0-16.2-5.3-16.2-13.1c0-4.4,2.2-8,5.8-10v-0.1h-17.3V704h43.2v5.2h-5.3v0.1
			c3.6,1.9,5.9,5.4,5.9,9.9C742.1,727.2,735.7,732.4,725.9,732.4z M725.9,709.2L725.9,709.2c-7,0-11.5,3.8-11.5,9
			c0,5.5,4.4,8.9,11.5,8.9h0c7.1,0,11.5-3.4,11.5-8.9C737.4,712.9,732.9,709.2,725.9,709.2z"/>
	</g>
	<g>
		<path class="st6" d="M1019.2,1150.5v-5.3l43.2-16v5.7l-12.4,4.4v17.4l12.4,4.4v5.7L1019.2,1150.5z M1045.4,1154.9v-14.1l-19.8,7
			v0.1L1045.4,1154.9z"/>
		<path class="st6" d="M1031.2,1125v-5.2h4.4v-0.1c-2.9-1.7-5-4.8-5-9.6c0-6.8,4.4-10.8,11.5-10.8h20.2v5.2h-19.3
			c-5.1,0-7.8,2.4-7.8,7.1c0,4.9,3.5,8.1,8.8,8.1h18.3v5.2H1031.2z"/>
		<path class="st6" d="M1054.4,1091.2h-18.9v4.5h-4.3v-4.5h-8.4v-5.4h8.4v-5.9h4.3v5.9h18.8c3.3,0,4.2-1.5,4.2-4.2
			c0-0.6-0.1-1.2-0.1-1.7h4.2c0.1,0.7,0.2,1.8,0.2,2.8C1062.9,1088.3,1060.4,1091.2,1054.4,1091.2z"/>
		<path class="st6" d="M1022.7,1074.6c-1.8,0-3.3-1.5-3.3-3.3c0-1.8,1.4-3.3,3.3-3.3c1.8,0,3.3,1.4,3.3,3.3
			C1026,1073.1,1024.5,1074.6,1022.7,1074.6z M1031.2,1074v-5.2h31.1v5.2H1031.2z"/>
		<path class="st6" d="M1042.4,1061.5v-19.1h4.8v19.1H1042.4z"/>
		<path class="st6" d="M1019.2,1034.6v-26.2h4.8v20.8h14.8v-19.1h4.8v19.1h18.7v5.4H1019.2z"/>
		<path class="st6" d="M1019.2,1002.8v-5.2h43.2v5.2H1019.2z"/>
		<path class="st6" d="M1053.6,991.8L1053.6,991.8c-5.4,0-8.7-4.1-9.1-11.3l-0.5-8.9h-2.6c-3.8,0-6.1,2.5-6.1,6.8
			c0,4,1.9,6.5,4.7,7.1l0.3,0.1v5l-0.3,0c-5.1-0.4-9.2-4.9-9.2-12.2c0-7.4,4-12,10.2-12h21.5v5.2h-5.1v0.1c3.4,1.8,5.7,5.6,5.7,9.7
			C1062.9,987.6,1059.2,991.8,1053.6,991.8z M1058.4,980.3c0-4.9-3.4-8.7-7.9-8.7h-2.5l0.5,8.3c0.2,4.2,2.1,6.5,5,6.5h0.1
			C1056.5,986.5,1058.4,984,1058.4,980.3z"/>
		<path class="st6" d="M1053.6,961.1l-0.3,0V956l0.3-0.1c3.1-0.6,4.9-2.9,4.9-7.2c0-4.2-1.8-6.7-4.6-6.7h0c-2.2,0-3.5,1.2-4.4,4.7
			l-1.2,4.9c-1.4,5.9-4.1,8.7-8.6,8.7h0c-5.4,0-9.2-4.7-9.2-11.4c0-6.8,4-11.2,9.2-11.5l0.4,0v5l-0.2,0c-3,0.4-5,2.7-5,6.6
			c0,3.8,1.8,6.1,4.6,6.1h0c2.1,0,3.6-1.4,4.4-4.8l1.2-4.9c1.5-6.3,4-8.6,8.4-8.6h0c5.4,0,9.3,5.1,9.3,12.1
			C1062.9,956.1,1059.2,960.5,1053.6,961.1z"/>
		<path class="st6" d="M1019.2,931v-5.2h17v-0.1c-3.5-1.7-5.6-5.1-5.6-9.7c0-6.6,5.1-11.1,12.7-11.1h19.1v5.2h-18.2
			c-5.6,0-8.9,2.9-8.9,7.7c0,4.8,3.6,8,8.9,8h18.2v5.2H1019.2z"/>
		<path class="st6" d="M1019.2,887.7v-5.6l35.4-8.7v-0.1l-35.4-9.8v-5.4l35.4-9.8v-0.1l-35.4-8.7v-5.6l43.2,11.8v5.1l-34.6,10v0.1
			l34.6,10v5.1L1019.2,887.7z"/>
		<path class="st6" d="M1019.2,828.8v-5.2h17v-0.1c-3.5-1.7-5.6-5.1-5.6-9.7c0-6.6,5.1-11.1,12.7-11.1h19.1v5.2h-18.2
			c-5.6,0-8.9,2.9-8.9,7.7c0,4.8,3.6,8,8.9,8h18.2v5.2H1019.2z"/>
		<path class="st6" d="M1022.7,796.4c-1.8,0-3.3-1.5-3.3-3.3c0-1.8,1.4-3.3,3.3-3.3c1.8,0,3.3,1.4,3.3,3.3
			C1026,794.9,1024.5,796.4,1022.7,796.4z M1031.2,795.7v-5.2h31.1v5.2H1031.2z"/>
		<path class="st6" d="M1054.4,781.9h-18.9v4.5h-4.3v-4.5h-8.4v-5.4h8.4v-5.9h4.3v5.9h18.8c3.3,0,4.2-1.5,4.2-4.2
			c0-0.6-0.1-1.2-0.1-1.7h4.2c0.1,0.7,0.2,1.8,0.2,2.8C1062.9,779.1,1060.4,781.9,1054.4,781.9z"/>
		<path class="st6" d="M1046.9,767.4L1046.9,767.4c-9.7,0-16.3-5.5-16.3-14c0-8.5,6.3-13.7,15.6-13.7h1.9v22.4
			c6.4-0.1,10.1-3.6,10.1-9.2c0-3.9-2-6.7-4.6-7.6l-0.3-0.1v-5.1l0.3,0.1c5.1,1,9.2,6.1,9.2,12.9
			C1062.9,762,1056.7,767.4,1046.9,767.4z M1044.1,762.1v-17c-6,0.5-8.9,3.9-8.9,8.4C1035.3,758,1038.3,761.5,1044.1,762.1z"/>
	</g>
	<g>
		<path class="st6" d="M1346.9,1150.5v-5.3l43.2-16v5.7l-12.4,4.4v17.4l12.4,4.4v5.7L1346.9,1150.5z M1373.1,1154.9v-14.1l-19.8,7
			v0.1L1373.1,1154.9z"/>
		<path class="st6" d="M1386.4,1125.7l-23-17.2h-0.1v17.2h-4.3v-23.1h3.8l22.9,17.1h0.1v-17.2h4.3v23.2H1386.4z"/>
		<path class="st6" d="M1379.1,1096.5H1359v-5.2h19.3c5.1,0,7.8-2.4,7.8-7.1c0-4.9-3.5-8.1-8.8-8.1H1359v-5.2h31.1v5.2h-4.4v0.1
			c2.9,1.7,5,4.8,5,9.6C1390.7,1092.6,1386.2,1096.5,1379.1,1096.5z"/>
		<path class="st6" d="M1359,1064.1v-5.2h5.3v-0.1c-3.6-1-5.9-3.7-5.9-7.2c0-0.9,0.2-1.7,0.2-2.1h5.1c-0.1,0.4-0.3,1.5-0.3,2.8
			c0,4,2.8,6.7,7.5,6.7h19.2v5.2H1359z"/>
		<path class="st6" d="M1374.6,1048.2L1374.6,1048.2c-9.7,0-16.3-5.5-16.3-14c0-8.5,6.3-13.7,15.6-13.7h1.9v22.4
			c6.4-0.1,10.1-3.6,10.1-9.2c0-3.9-2-6.7-4.6-7.6l-0.3-0.1v-5.1l0.3,0.1c5.1,1,9.2,6.1,9.2,12.9
			C1390.7,1042.8,1384.4,1048.2,1374.6,1048.2z M1371.8,1042.9v-17c-6,0.5-8.9,3.9-8.9,8.4C1363,1038.8,1366,1042.3,1371.8,1042.9z"
			/>
		<path class="st6" d="M1350.4,1015.6c-1.8,0-3.3-1.5-3.3-3.3c0-1.8,1.4-3.3,3.3-3.3c1.8,0,3.3,1.4,3.3,3.3
			C1353.7,1014.2,1352.2,1015.6,1350.4,1015.6z M1359,1015v-5.2h31.1v5.2H1359z"/>
		<path class="st6" d="M1381.4,1004l-0.3,0v-5.2l0.3-0.1c3.1-0.6,4.9-2.9,4.9-7.2c0-4.2-1.8-6.7-4.6-6.7h0c-2.2,0-3.5,1.2-4.4,4.7
			l-1.2,4.9c-1.4,5.9-4.1,8.7-8.6,8.7h0c-5.4,0-9.2-4.7-9.2-11.4c0-6.8,4-11.2,9.2-11.5l0.4,0v5l-0.2,0c-3,0.4-5,2.7-5,6.6
			c0,3.8,1.8,6.1,4.6,6.1h0c2.1,0,3.6-1.4,4.4-4.8l1.2-4.9c1.5-6.3,4-8.6,8.4-8.6h0c5.4,0,9.3,5.1,9.3,12.1
			C1390.7,999,1386.9,1003.4,1381.4,1004z"/>
		<path class="st6" d="M1346.9,973.9v-5.2h17v-0.1c-3.5-1.7-5.6-5.1-5.6-9.7c0-6.6,5.1-11.1,12.7-11.1h19.1v5.2h-18.2
			c-5.6,0-8.9,2.9-8.9,7.7c0,4.8,3.6,8,8.9,8h18.2v5.2H1346.9z"/>
		<path class="st6" d="M1346.9,930.6V925l35.4-8.7v-0.1l-35.4-9.8V901l35.4-9.8v-0.1l-35.4-8.7v-5.6l43.2,11.8v5.1l-34.6,10v0.1
			l34.6,10v5.1L1346.9,930.6z"/>
		<path class="st6" d="M1346.9,871.7v-5.2h17v-0.1c-3.5-1.7-5.6-5.1-5.6-9.7c0-6.6,5.1-11.1,12.7-11.1h19.1v5.2h-18.2
			c-5.6,0-8.9,2.9-8.9,7.7c0,4.8,3.6,8,8.9,8h18.2v5.2H1346.9z"/>
		<path class="st6" d="M1350.4,839.3c-1.8,0-3.3-1.5-3.3-3.3c0-1.8,1.4-3.3,3.3-3.3c1.8,0,3.3,1.4,3.3,3.3
			C1353.7,837.8,1352.2,839.3,1350.4,839.3z M1359,838.6v-5.2h31.1v5.2H1359z"/>
		<path class="st6" d="M1382.1,824.8h-18.9v4.5h-4.3v-4.5h-8.4v-5.4h8.4v-5.9h4.3v5.9h18.8c3.3,0,4.2-1.5,4.2-4.2
			c0-0.6-0.1-1.2-0.1-1.7h4.2c0.1,0.7,0.2,1.8,0.2,2.8C1390.7,822,1388.1,824.8,1382.1,824.8z"/>
		<path class="st6" d="M1374.6,810.3L1374.6,810.3c-9.7,0-16.3-5.5-16.3-14c0-8.5,6.3-13.7,15.6-13.7h1.9V805
			c6.4-0.1,10.1-3.6,10.1-9.2c0-3.9-2-6.7-4.6-7.6l-0.3-0.1V783l0.3,0.1c5.1,1,9.2,6.1,9.2,12.9
			C1390.7,804.9,1384.4,810.3,1374.6,810.3z M1371.8,805v-17c-6,0.5-8.9,3.9-8.9,8.4C1363,800.9,1366,804.4,1371.8,805z"/>
	</g>
	<g>
		<path class="st10" d="M1668.4,1163.1v-15.4c0-8.1,5.6-13.8,13.8-13.8h0.1c8.2,0,13.9,5.7,13.9,13.8v10h15.4v5.4H1668.4z
			 M1673.2,1157.7h18.2v-8.6c0-6.2-3.4-9.7-9.1-9.7h-0.1c-5.7,0-9.1,3.6-9.1,9.7V1157.7z"/>
		<path class="st10" d="M1696.1,1131.6L1696.1,1131.6c-9.7,0-16.3-5.5-16.3-14c0-8.5,6.3-13.7,15.6-13.7h1.9v22.4
			c6.4-0.1,10.1-3.6,10.1-9.2c0-3.9-2-6.7-4.6-7.6l-0.3-0.1v-5.1l0.3,0.1c5.1,1,9.2,6.1,9.2,12.9
			C1712.2,1126.2,1705.9,1131.6,1696.1,1131.6z M1693.3,1126.2v-17c-6,0.5-8.9,3.9-8.9,8.4
			C1684.5,1122.1,1687.5,1125.6,1693.3,1126.2z"/>
		<path class="st10" d="M1680.4,1101.2v-5.2l25.3-6.2v-0.1l-25.3-7v-5l25.3-7.1v-0.1l-25.3-6.2v-5.1l31.1,8.7v5.3l-24.1,7v0.1
			l24.1,7v5.3L1680.4,1101.2z"/>
		<path class="st10" d="M1703.6,1053.3h-18.9v4.5h-4.3v-4.5h-8.4v-5.4h8.4v-5.9h4.3v5.9h18.8c3.3,0,4.2-1.5,4.2-4.2
			c0-0.6-0.1-1.2-0.1-1.7h4.2c0.1,0.7,0.2,1.8,0.2,2.8C1712.2,1050.4,1709.6,1053.3,1703.6,1053.3z"/>
		<path class="st10" d="M1696.1,1038.8L1696.1,1038.8c-9.7,0-16.3-5.5-16.3-14c0-8.5,6.3-13.7,15.6-13.7h1.9v22.4
			c6.4-0.1,10.1-3.6,10.1-9.2c0-3.9-2-6.7-4.6-7.6l-0.3-0.1v-5.1l0.3,0.1c5.1,1,9.2,6.1,9.2,12.9
			C1712.2,1033.4,1705.9,1038.8,1696.1,1038.8z M1693.3,1033.4v-17c-6,0.5-8.9,3.9-8.9,8.4
			C1684.5,1029.4,1687.5,1032.9,1693.3,1033.4z"/>
		<path class="st10" d="M1680.4,1005.9v-5.2h5.3v-0.1c-3.6-1-5.9-3.7-5.9-7.2c0-0.9,0.2-1.7,0.2-2.1h5.1c-0.1,0.4-0.3,1.5-0.3,2.8
			c0,4,2.8,6.7,7.5,6.7h19.2v5.2H1680.4z"/>
		<path class="st10" d="M1668.4,973.6v-16.4c0-7.4,4.3-12.4,10.8-12.4h0.1c4.5,0,8.8,3.3,9.4,7.8h0.1c0.7-6.2,4.9-10,10.6-10h0.1
			c7.6,0,12.1,5.4,12.1,14.6v16.3H1668.4z M1673.2,968.3h13.8v-8.1c0-6.4-2.5-9.8-7.2-9.8h-0.1c-4.2,0-6.6,3-6.6,8.2V968.3z
			 M1691.6,968.3h15.2v-10.1c0-6.5-2.6-9.9-7.6-9.9h-0.1c-5,0-7.5,3.5-7.5,10.4V968.3z"/>
		<path class="st10" d="M1668.4,937.2v-5.2h43.2v5.2H1668.4z"/>
		<path class="st10" d="M1700.6,925.1h-20.2v-5.2h19.3c5.1,0,7.8-2.4,7.8-7.1c0-4.9-3.5-8.1-8.8-8.1h-18.3v-5.2h31.1v5.2h-4.4v0.1
			c2.9,1.7,5,4.8,5,9.6C1712.2,921.1,1707.7,925.1,1700.6,925.1z"/>
		<path class="st10" d="M1696.1,894.2L1696.1,894.2c-9.7,0-16.3-5.5-16.3-14c0-8.5,6.3-13.7,15.6-13.7h1.9v22.4
			c6.4-0.1,10.1-3.6,10.1-9.2c0-3.9-2-6.7-4.6-7.6l-0.3-0.1v-5.1l0.3,0.1c5.1,1,9.2,6.1,9.2,12.9
			C1712.2,888.8,1705.9,894.2,1696.1,894.2z M1693.3,888.8v-17c-6,0.5-8.9,3.9-8.9,8.4C1684.5,884.7,1687.5,888.2,1693.3,888.8z"/>
	</g>
</g>
</svg>
