<?xml version="1.0" encoding="utf-8"?>
<!-- Generator: Adobe Illustrator 26.3.1, SVG Export Plug-In . SVG Version: 6.00 Build 0)  -->
<svg version="1.1" id="Layer_1" xmlns="http://www.w3.org/2000/svg" xmlns:xlink="http://www.w3.org/1999/xlink" x="0px" y="0px"
	 viewBox="0 0 91.4 91.4" style="enable-background:new 0 0 91.4 91.4;" xml:space="preserve">
<style type="text/css">
	.st0{stroke:#969696;stroke-width:6;stroke-miterlimit:10;}
	.st1{fill:none;stroke:#000000;stroke-miterlimit:10;}
	.st2{fill:#D5E1EF;}
	.st3{fill:#EBD4D4;}
	.st4{fill:none;stroke:#000000;stroke-width:0.5;stroke-miterlimit:10;}
	.st5{fill:#FF0000;}
	.st6{fill:none;}
	.st7{fill:#D4E8DF;}
	.st8{fill:#22B273;}
</style>
<g id="_x33_38bGP.tif">
	<g>
		<path class="st5" d="M0,48.6c0-1.9,0-3.8,0-5.7c0.1-0.3,0.1-0.6,0.2-0.9c0.3-2.2,0.5-4.4,1-6.5C4.7,21.4,13,11,26,4.6
			c8.6-4.3,17.7-5.5,27.2-3.9c8.6,1.4,16.2,5,22.6,10.7c10,8.9,15.2,20.1,15.6,33.5c0.2,8.6-1.9,16.7-6.4,24
			c-7.2,11.9-17.7,19.2-31.4,21.8c-1.7,0.3-3.3,0.5-5,0.7c-1.9,0-3.8,0-5.7,0c-1.1-0.1-2.2-0.3-3.3-0.4c-9.1-1.3-17.1-4.9-24-11
			C7.7,73,2.7,64.2,0.8,53.7C0.4,52,0.2,50.3,0,48.6z M54.9,61.5c1.8,1.9,3.5,3.7,5.2,5.4c2.3,2.3,5.7,2.2,8.1,0
			c0.6-0.5,1.1-1.1,1.6-1.7c1.7-1.8,3.5-3.5,5.1-5.3c2-2.2,1.2-5.5-1.6-6.3c-1.5-0.5-2.8,0-4,1.1c-1.8,1.7-3.7,3.4-5.6,5.1
			c0,0.1-0.2-0.1-0.4-0.3c-1.4-1.4-2.9-2.9-4.3-4.3c-2.6-2.5-5.9-2.5-8.5,0c-1.5,1.5-3,2.9-4.4,4.4c-0.2,0.2-0.4,0.3-0.7,0.6
			c-1.6-1.6-3.1-3.2-4.6-4.8c-2.8-2.8-6.1-2.8-8.9,0c-1.6,1.6-3.1,3.2-4.8,4.9c-0.3-0.4-0.5-0.7-0.7-0.9c-1.5-1.6-3-3.2-4.6-4.7
			c-1.6-1.7-4-1.7-5.6-0.2c-1.5,1.5-1.5,3.8,0.1,5.5c2.1,2.2,4.3,4.4,6.5,6.7c2.5,2.6,5.9,2.6,8.5,0.1c1.5-1.4,2.9-2.9,4.4-4.3
			c0.2-0.2,0.4-0.4,0.7-0.7c1.6,1.7,3.2,3.3,4.8,4.9c2.7,2.7,6,2.7,8.7,0C51.6,64.9,53.2,63.3,54.9,61.5z M31.2,34.3
			c-0.4,0.3-0.7,0.5-1,0.7c-1.9,1.3-3.8,2.5-5.6,3.8c-1.8,1.2-2.3,3.5-1.1,5.2c1.1,1.8,3.4,2.3,5.2,1.1c3.9-2.5,7.7-5.1,11.6-7.7
			c2.2-1.5,2.2-4.6,0-6.2c-0.4-0.3-0.9-0.6-1.3-0.9c-3.4-2.2-6.7-4.5-10.1-6.7c-2-1.3-4.5-0.7-5.6,1.3c-0.9,1.8-0.4,3.8,1.3,5
			C26.7,31.4,28.9,32.8,31.2,34.3z M60.2,34.3c0.3-0.2,0.6-0.4,0.8-0.6c1.9-1.3,3.8-2.5,5.6-3.8c2-1.3,2.5-3.6,1.2-5.4
			c-1.2-1.8-3.5-2.2-5.5-0.9c-3.7,2.4-7.4,4.9-11,7.4c-2.5,1.7-2.5,4.8,0,6.5c1,0.7,2,1.3,3,2c2.7,1.8,5.5,3.7,8.2,5.5
			c2.4,1.5,5.3,0.4,5.9-2.3c0.4-1.5-0.2-3-1.7-4C64.6,37.2,62.5,35.8,60.2,34.3z"/>
	</g>
</g>
</svg>
