<?xml version="1.0" encoding="utf-8"?>
<!-- Generator: Adobe Illustrator 26.3.1, SVG Export Plug-In . SVG Version: 6.00 Build 0)  -->
<svg version="1.1" id="Layer_1" xmlns="http://www.w3.org/2000/svg" xmlns:xlink="http://www.w3.org/1999/xlink" x="0px" y="0px"
	 viewBox="0 0 91.3 91.3" style="enable-background:new 0 0 91.3 91.3;" xml:space="preserve">
<style type="text/css">
	.st0{stroke:#969696;stroke-width:6;stroke-miterlimit:10;}
	.st1{fill:none;stroke:#000000;stroke-miterlimit:10;}
	.st2{fill:#D5E1EF;}
	.st3{fill:#EBD4D4;}
	.st4{fill:none;stroke:#000000;stroke-width:0.5;stroke-miterlimit:10;}
	.st5{fill:#FF0000;}
	.st6{fill:none;}
	.st7{fill:#D4E8DF;}
	.st8{fill:#22B273;}
</style>
<path class="st8" d="M75.8,11.3C69.3,5.5,61.7,2,53.2,0.6C43.8-0.9,34.6,0.3,26,4.5C13,11,4.7,21.3,1.2,35.4c-0.5,2.1-0.7,4.3-1,6.5
	c0,0.3-0.1,0.6-0.2,0.9c0,1.9,0,3.8,0,5.7c0.2,1.7,0.4,3.4,0.7,5.1c1.9,10.5,6.8,19.2,14.8,26.3c6.9,6.1,14.9,9.7,24,11
	c1.1,0.2,2.2,0.3,3.3,0.4c1.9,0,3.8,0,5.7,0c1.7-0.2,3.4-0.4,5-0.7c13.7-2.6,24.2-9.9,31.4-21.8c4.5-7.4,6.6-15.4,6.4-24
	C91.1,31.4,85.8,20.2,75.8,11.3z M26.1,47.6c-0.2,0-0.4,0-0.6,0c0,0.2,0,0.4,0,0.6c0,6.4,0,12.8,0,19.2c0,1.3-0.4,2.2-1.6,2.6
	c-0.3,0-0.6,0-0.9,0c-1.2-0.4-1.6-1.3-1.6-2.5c0-12.7,0-25.4,0-38c0-4,2.7-7.3,6.6-8.1c0.5-0.1,1-0.1,1.6-0.1c4.7,0,9.4,0,14.1,0
	c4.6,0,8.2,3.6,8.2,8.2c0,3.3,0,6.6,0,9.9c0,4.7-3.5,8.3-8.3,8.3C37.8,47.6,31.9,47.6,26.1,47.6z M70.2,48.5c-0.1,0.3-0.1,0.7-0.2,1
	c-0.9,3.6-4.1,6.2-7.9,6.2c-4.1,0-8.1,0-12.2,0c-2.8,0-5-1.2-6.7-3.5C43.1,52.1,43,52,43,51.8v-0.1c1-0.1,2-0.1,2.9-0.3
	c5-0.8,9.3-5.1,9.9-10.2c0.1-0.8,0.2-1.5,0.2-2.3c0-3,0-6.1,0-9.1c0-0.2,0-0.4,0-0.6c0.1,0,0.1-0.1,0.2-0.1c2.2,0,4.5-0.1,6.7,0.1
	c3.7,0.2,6.7,3.2,7.3,6.8c0,0.1,0.1,0.2,0.1,0.4C70.2,40.5,70.2,44.5,70.2,48.5z"/>
</svg>
