<?xml version="1.0" encoding="utf-8"?>
<!-- Generator: Adobe Illustrator 26.3.1, SVG Export Plug-In . SVG Version: 6.00 Build 0)  -->
<svg version="1.1" id="Layer_1" xmlns="http://www.w3.org/2000/svg" xmlns:xlink="http://www.w3.org/1999/xlink" x="0px" y="0px"
	 viewBox="0 0 1330.5 565.8" style="enable-background:new 0 0 1330.5 565.8;" xml:space="preserve">
<style type="text/css">
	.st0{fill:#F6E2F7;stroke:#8A9EB2;stroke-width:2;stroke-miterlimit:10;}
	.st1{fill:#DADCF2;stroke:#8A9EB2;stroke-width:2;stroke-miterlimit:10;}
	.st2{fill:#D5F2D8;stroke:#8A9EB2;stroke-width:2;stroke-miterlimit:10;}
	.st3{fill:#DBDBDB;stroke:#8A9EB2;stroke-width:2;stroke-miterlimit:10;}
	.st4{fill:none;stroke:#8A9EB2;stroke-miterlimit:10;}
	.st5{fill:#F7E6D0;stroke:#8A9EB2;stroke-width:2;stroke-miterlimit:10;}
</style>
<g>
	<g>
		<path d="M77.3,111.7L77.3,111.7c0-3.5,2-5.7,5.1-5.7c3.1,0,5.1,2.2,5.1,5.7v0c0,3.5-2,5.7-5.1,5.7
			C79.3,117.5,77.3,115.3,77.3,111.7z M86.2,111.7L86.2,111.7c0-2.7-1.4-4.5-3.7-4.5c-2.3,0-3.7,1.7-3.7,4.5v0
			c0,2.7,1.4,4.5,3.7,4.5C84.8,116.2,86.2,114.5,86.2,111.7z"/>
		<path d="M89.1,114.5v-5.2h1.3v5c0,1.3,0.6,2,1.8,2c1.3,0,2.1-0.9,2.1-2.3v-4.7h1.3v8h-1.3v-1.1h0c-0.4,0.7-1.2,1.3-2.5,1.3
			C90.1,117.5,89.1,116.3,89.1,114.5z"/>
		<path d="M97.4,109.3h1.3v1.4h0c0.3-0.9,1-1.5,1.9-1.5c0.2,0,0.4,0,0.5,0.1v1.3c-0.1,0-0.4-0.1-0.7-0.1c-1,0-1.7,0.7-1.7,1.9v4.9
			h-1.3V109.3z"/>
		<path d="M105.7,106.2h4c2.1,0,3.6,1.4,3.6,3.6v0c0,2.1-1.5,3.6-3.6,3.6h-2.6v4h-1.4V106.2z M107.1,107.4v4.7h2.2
			c1.6,0,2.5-0.9,2.5-2.3v0c0-1.5-0.9-2.3-2.5-2.3H107.1z"/>
		<path d="M114.6,114.5v-5.2h1.3v5c0,1.3,0.6,2,1.8,2c1.3,0,2.1-0.9,2.1-2.3v-4.7h1.3v8h-1.3v-1.1h0c-0.4,0.7-1.2,1.3-2.5,1.3
			C115.6,117.5,114.6,116.3,114.6,114.5z"/>
		<path d="M122.9,109.3h1.3v1.4h0c0.3-0.9,1-1.5,1.9-1.5c0.2,0,0.4,0,0.5,0.1v1.3c-0.1,0-0.4-0.1-0.7-0.1c-1,0-1.7,0.7-1.7,1.9v4.9
			h-1.3V109.3z"/>
		<path d="M127.8,109.3h1.3v1.4h0c0.5-0.9,1.4-1.5,2.5-1.5c2,0,3.4,1.6,3.4,4.2v0c0,2.5-1.4,4.2-3.4,4.2c-1.1,0-2.1-0.6-2.6-1.5h0v4
			h-1.3V109.3z M133.7,113.3L133.7,113.3c0-1.8-0.9-3-2.3-3c-1.4,0-2.3,1.2-2.3,3v0c0,1.8,1,3,2.3,3
			C132.9,116.3,133.7,115.1,133.7,113.3z"/>
		<path d="M136.1,113.3L136.1,113.3c0-2.6,1.5-4.2,3.7-4.2c2.2,0,3.7,1.6,3.7,4.1v0c0,2.6-1.5,4.2-3.7,4.2
			C137.5,117.5,136.1,115.8,136.1,113.3z M142.1,113.3L142.1,113.3c0-1.9-0.9-3-2.3-3c-1.4,0-2.3,1.1-2.3,3v0c0,1.9,0.9,3,2.3,3
			C141.2,116.3,142.1,115.2,142.1,113.3z"/>
		<path d="M144.5,115.1L144.5,115.1l1.3-0.1l0,0.1c0.2,0.8,0.8,1.3,1.8,1.3c1.1,0,1.7-0.5,1.7-1.2v0c0-0.6-0.3-0.9-1.2-1.1l-1.3-0.3
			c-1.5-0.4-2.2-1.1-2.2-2.2v0c0-1.4,1.2-2.4,2.9-2.4c1.8,0,2.9,1,3,2.4l0,0.1h-1.3l0-0.1c-0.1-0.8-0.7-1.3-1.7-1.3
			c-1,0-1.6,0.5-1.6,1.2v0c0,0.5,0.4,0.9,1.2,1.1l1.3,0.3c1.6,0.4,2.2,1,2.2,2.2v0c0,1.4-1.3,2.4-3.1,2.4
			C145.8,117.5,144.6,116.5,144.5,115.1z"/>
		<path d="M151.8,113.3L151.8,113.3c0-2.5,1.4-4.2,3.6-4.2s3.5,1.6,3.5,4v0.5h-5.8c0,1.6,0.9,2.6,2.4,2.6c1,0,1.7-0.5,2-1.2l0-0.1
			h1.3l0,0.1c-0.3,1.3-1.6,2.4-3.3,2.4C153.2,117.5,151.8,115.8,151.8,113.3z M153.1,112.6h4.4c-0.1-1.6-1-2.3-2.2-2.3
			C154.2,110.3,153.3,111.1,153.1,112.6z"/>
	</g>
</g>
<g>
	<g>
		<path d="M77.3,143.5L77.3,143.5c0-3.5,2-5.7,5.1-5.7c2.6,0,4.1,1.5,4.6,3.4l0,0.1h-1.5l0-0.1c-0.5-1.4-1.6-2.2-3.2-2.2
			c-2.3,0-3.7,1.7-3.7,4.4v0c0,2.8,1.4,4.5,3.7,4.5c2,0,3.3-1.3,3.3-3.1v-0.2h-3.1v-1.2h4.5v1.1c0,3-1.8,4.8-4.7,4.8
			C79.3,149.3,77.3,147.1,77.3,143.5z"/>
		<path d="M88.3,145.1L88.3,145.1c0-2.6,1.5-4.2,3.7-4.2c2.2,0,3.7,1.6,3.7,4.1v0c0,2.6-1.5,4.2-3.7,4.2
			C89.8,149.3,88.3,147.7,88.3,145.1z M94.4,145.1L94.4,145.1c0-1.9-0.9-3-2.3-3c-1.4,0-2.3,1.1-2.3,3v0c0,1.9,0.9,3,2.3,3
			C93.5,148.1,94.4,147,94.4,145.1z"/>
		<path d="M96.1,141.1h1.4l2.2,6.6h0l2.2-6.6h1.4l-2.9,8H99L96.1,141.1z"/>
		<path d="M103.7,145.2L103.7,145.2c0-2.5,1.4-4.2,3.6-4.2s3.5,1.6,3.5,4v0.5H105c0,1.6,0.9,2.6,2.4,2.6c1,0,1.7-0.5,2-1.2l0-0.1
			h1.3l0,0.1c-0.3,1.3-1.6,2.4-3.3,2.4C105.1,149.3,103.7,147.7,103.7,145.2z M105.1,144.4h4.4c-0.1-1.6-1-2.3-2.2-2.3
			C106.1,142.1,105.2,142.9,105.1,144.4z"/>
		<path d="M112.2,141.1h1.3v1.4h0c0.3-0.9,1-1.5,1.9-1.5c0.2,0,0.4,0,0.5,0.1v1.3c-0.1,0-0.4-0.1-0.7-0.1c-1,0-1.7,0.7-1.7,1.9v4.9
			h-1.3V141.1z"/>
		<path d="M117,141.1h1.3v1.1h0c0.4-0.7,1.2-1.3,2.5-1.3c1.8,0,2.8,1.1,2.8,3v5.2h-1.3v-5c0-1.3-0.6-2-1.8-2c-1.3,0-2.1,0.9-2.1,2.3
			v4.7H117V141.1z"/>
		<path d="M125,146.9L125,146.9c0-1.4,1.1-2.2,2.9-2.3l2.3-0.1v-0.7c0-1-0.6-1.6-1.8-1.6c-1,0-1.7,0.5-1.8,1.2l0,0.1h-1.3l0-0.1
			c0.1-1.3,1.3-2.4,3.2-2.4c1.9,0,3.1,1,3.1,2.6v5.5h-1.3v-1.3h0c-0.5,0.9-1.4,1.5-2.5,1.5C126.1,149.3,125,148.3,125,146.9z
			 M128,148.1c1.3,0,2.2-0.9,2.2-2v-0.7l-2.1,0.1c-1.1,0.1-1.7,0.5-1.7,1.3v0C126.4,147.6,127,148.1,128,148.1z"/>
		<path d="M133.2,141.1h1.3v1.1h0c0.4-0.7,1.2-1.3,2.5-1.3c1.8,0,2.8,1.1,2.8,3v5.2h-1.3v-5c0-1.3-0.6-2-1.8-2
			c-1.3,0-2.1,0.9-2.1,2.3v4.7h-1.3V141.1z"/>
		<path d="M141.2,145.1L141.2,145.1c0-2.5,1.5-4.2,3.7-4.2c2,0,3.2,1.3,3.3,2.7l0,0.1h-1.3l0-0.1c-0.2-0.8-0.8-1.5-2-1.5
			c-1.4,0-2.3,1.2-2.3,3v0c0,1.9,1,3,2.3,3c1.1,0,1.8-0.6,2-1.5l0-0.1h1.3l0,0.1c-0.2,1.5-1.5,2.7-3.3,2.7
			C142.6,149.3,141.2,147.7,141.2,145.1z"/>
		<path d="M149.1,145.2L149.1,145.2c0-2.5,1.4-4.2,3.6-4.2s3.5,1.6,3.5,4v0.5h-5.8c0,1.6,0.9,2.6,2.4,2.6c1,0,1.7-0.5,2-1.2l0-0.1
			h1.3l0,0.1c-0.3,1.3-1.6,2.4-3.3,2.4C150.5,149.3,149.1,147.7,149.1,145.2z M150.4,144.4h4.4c-0.1-1.6-1-2.3-2.2-2.3
			C151.5,142.1,150.6,142.9,150.4,144.4z"/>
	</g>
</g>
<g>
	<g>
		<path d="M77.3,175.4L77.3,175.4c0-3.5,2-5.7,5.1-5.7c3.1,0,5.1,2.2,5.1,5.7v0c0,3.5-2,5.7-5.1,5.7
			C79.3,181.1,77.3,178.9,77.3,175.4z M86.2,175.4L86.2,175.4c0-2.7-1.4-4.5-3.7-4.5c-2.3,0-3.7,1.7-3.7,4.5v0
			c0,2.7,1.4,4.5,3.7,4.5C84.8,179.9,86.2,178.1,86.2,175.4z"/>
		<path d="M89.1,178.1v-5.2h1.3v5c0,1.3,0.6,2,1.8,2c1.3,0,2.1-0.9,2.1-2.3v-4.7h1.3v8h-1.3v-1.1h0c-0.4,0.7-1.2,1.3-2.5,1.3
			C90.1,181.1,89.1,180,89.1,178.1z"/>
		<path d="M97.4,172.9h1.3v1.4h0c0.3-0.9,1-1.5,1.9-1.5c0.2,0,0.4,0,0.5,0.1v1.3c-0.1,0-0.4-0.1-0.7-0.1c-1,0-1.7,0.7-1.7,1.9v4.9
			h-1.3V172.9z"/>
		<path d="M105.7,169.8h4c2.1,0,3.6,1.4,3.6,3.6v0c0,2.1-1.5,3.6-3.6,3.6h-2.6v4h-1.4V169.8z M107.1,171.1v4.7h2.2
			c1.6,0,2.5-0.9,2.5-2.3v0c0-1.5-0.9-2.3-2.5-2.3H107.1z"/>
		<path d="M113.8,177L113.8,177c0-2.5,1.4-4.2,3.6-4.2s3.5,1.6,3.5,4v0.5h-5.8c0,1.6,0.9,2.6,2.4,2.6c1,0,1.7-0.5,2-1.2l0-0.1h1.3
			l0,0.1c-0.3,1.3-1.6,2.4-3.3,2.4C115.2,181.1,113.8,179.5,113.8,177z M115.2,176.3h4.4c-0.1-1.6-1-2.3-2.2-2.3
			C116.3,174,115.4,174.8,115.2,176.3z"/>
		<path d="M121.9,176.9L121.9,176.9c0-2.6,1.5-4.2,3.7-4.2c2.2,0,3.7,1.6,3.7,4.1v0c0,2.6-1.5,4.2-3.7,4.2
			C123.4,181.1,121.9,179.5,121.9,176.9z M128,176.9L128,176.9c0-1.9-0.9-3-2.3-3c-1.4,0-2.3,1.1-2.3,3v0c0,1.9,0.9,3,2.3,3
			C127.1,179.9,128,178.8,128,176.9z"/>
		<path d="M130.7,172.9h1.3v1.4h0c0.5-0.9,1.4-1.5,2.5-1.5c2,0,3.4,1.6,3.4,4.2v0c0,2.5-1.4,4.2-3.4,4.2c-1.1,0-2.1-0.6-2.6-1.5h0v4
			h-1.3V172.9z M136.6,177L136.6,177c0-1.8-0.9-3-2.3-3c-1.4,0-2.3,1.2-2.3,3v0c0,1.8,1,3,2.3,3C135.8,179.9,136.6,178.8,136.6,177z
			"/>
		<path d="M139.4,169.8h1.3V181h-1.3V169.8z"/>
		<path d="M142.2,177L142.2,177c0-2.5,1.4-4.2,3.6-4.2s3.5,1.6,3.5,4v0.5h-5.8c0,1.6,0.9,2.6,2.4,2.6c1,0,1.7-0.5,2-1.2l0-0.1h1.3
			l0,0.1c-0.3,1.3-1.6,2.4-3.3,2.4C143.6,181.1,142.2,179.5,142.2,177z M143.6,176.3h4.4c-0.1-1.6-1-2.3-2.2-2.3
			C144.6,174,143.7,174.8,143.6,176.3z"/>
	</g>
</g>
<g>
	<g>
		<path d="M77.3,207.2L77.3,207.2c0-3.5,2-5.7,5.1-5.7c3.1,0,5.1,2.2,5.1,5.7v0c0,3.5-2,5.7-5.1,5.7C79.3,213,77.3,210.8,77.3,207.2
			z M86.2,207.2L86.2,207.2c0-2.7-1.4-4.5-3.7-4.5c-2.3,0-3.7,1.7-3.7,4.5v0c0,2.7,1.4,4.5,3.7,4.5
			C84.8,211.7,86.2,209.9,86.2,207.2z"/>
		<path d="M89.1,210v-5.2h1.3v5c0,1.3,0.6,2,1.8,2c1.3,0,2.1-0.9,2.1-2.3v-4.7h1.3v8h-1.3v-1.1h0c-0.4,0.7-1.2,1.3-2.5,1.3
			C90.1,212.9,89.1,211.8,89.1,210z"/>
		<path d="M97.4,204.8h1.3v1.4h0c0.3-0.9,1-1.5,1.9-1.5c0.2,0,0.4,0,0.5,0.1v1.3c-0.1,0-0.4-0.1-0.7-0.1c-1,0-1.7,0.7-1.7,1.9v4.9
			h-1.3V204.8z"/>
		<path d="M105,210.2l0-0.1h1.4l0,0.1c0.1,0.8,0.6,1.5,1.7,1.5c1.2,0,1.9-0.7,1.9-2.1v-7.9h1.4v8c0,2.1-1.2,3.4-3.3,3.4
			C106.2,213,105.1,211.8,105,210.2z"/>
		<path d="M112.9,208.8L112.9,208.8c0-2.6,1.5-4.2,3.7-4.2c2.2,0,3.7,1.6,3.7,4.1v0c0,2.6-1.5,4.2-3.7,4.2
			C114.4,212.9,112.9,211.3,112.9,208.8z M119,208.8L119,208.8c0-1.9-0.9-3-2.3-3c-1.4,0-2.3,1.1-2.3,3v0c0,1.9,0.9,3,2.3,3
			C118.1,211.7,119,210.7,119,208.8z"/>
		<path d="M121.7,210v-5.2h1.3v5c0,1.3,0.6,2,1.8,2c1.3,0,2.1-0.9,2.1-2.3v-4.7h1.3v8h-1.3v-1.1h0c-0.4,0.7-1.2,1.3-2.5,1.3
			C122.7,212.9,121.7,211.8,121.7,210z"/>
		<path d="M130,204.8h1.3v1.4h0c0.3-0.9,1-1.5,1.9-1.5c0.2,0,0.4,0,0.5,0.1v1.3c-0.1,0-0.4-0.1-0.7-0.1c-1,0-1.7,0.7-1.7,1.9v4.9
			H130V204.8z"/>
		<path d="M134.9,204.8h1.3v1.1h0c0.4-0.7,1.2-1.3,2.5-1.3c1.8,0,2.8,1.1,2.8,3v5.2h-1.3v-5c0-1.3-0.6-2-1.8-2
			c-1.3,0-2.1,0.9-2.1,2.3v4.7h-1.3V204.8z"/>
		<path d="M142.8,208.8L142.8,208.8c0-2.5,1.4-4.2,3.6-4.2s3.5,1.6,3.5,4v0.5h-5.8c0,1.6,0.9,2.6,2.4,2.6c1,0,1.7-0.5,2-1.2l0-0.1
			h1.3l0,0.1c-0.3,1.3-1.6,2.4-3.3,2.4C144.2,212.9,142.8,211.3,142.8,208.8z M144.2,208.1h4.4c-0.1-1.6-1-2.3-2.2-2.3
			C145.2,205.8,144.3,206.6,144.2,208.1z"/>
		<path d="M151,215.4v-1.1c0.1,0,0.3,0,0.4,0c0.8,0,1.3-0.2,1.6-1.1l0.2-0.5l-3-8h1.4l2.2,6.7h0l2.2-6.7h1.4l-3.1,8.5
			c-0.6,1.5-1.3,2.2-2.7,2.2C151.4,215.5,151.2,215.4,151,215.4z"/>
	</g>
</g>
<g>
	<g>
		<path d="M77.8,233.5h1.4v11.1h-1.4V233.5z"/>
		<path d="M81.1,236.6h1.3v1.1h0c0.4-0.7,1.2-1.3,2.5-1.3c1.8,0,2.8,1.1,2.8,3v5.2h-1.3v-5c0-1.3-0.6-2-1.8-2
			c-1.3,0-2.1,0.9-2.1,2.3v4.7h-1.3V236.6z"/>
		<path d="M88.7,236.6h1.4l2.2,6.6h0l2.2-6.6H96l-2.9,8h-1.4L88.7,236.6z"/>
		<path d="M96.3,240.6L96.3,240.6c0-2.5,1.4-4.2,3.6-4.2s3.5,1.6,3.5,4v0.5h-5.8c0,1.6,0.9,2.6,2.4,2.6c1,0,1.7-0.5,2-1.2l0-0.1h1.3
			l0,0.1c-0.3,1.3-1.6,2.4-3.3,2.4C97.7,244.8,96.3,243.1,96.3,240.6z M97.7,239.9h4.4c-0.1-1.6-1-2.3-2.2-2.3
			C98.8,237.6,97.9,238.4,97.7,239.9z"/>
		<path d="M104.5,242.4L104.5,242.4l1.3-0.1l0,0.1c0.2,0.8,0.8,1.3,1.8,1.3c1.1,0,1.7-0.5,1.7-1.2v0c0-0.6-0.3-0.9-1.2-1.1l-1.3-0.3
			c-1.5-0.4-2.2-1.1-2.2-2.2v0c0-1.4,1.2-2.4,2.9-2.4c1.8,0,2.9,1,3,2.4l0,0.1h-1.3l0-0.1c-0.1-0.8-0.7-1.3-1.7-1.3
			c-1,0-1.6,0.5-1.6,1.2v0c0,0.5,0.4,0.9,1.2,1.1l1.3,0.3c1.6,0.4,2.2,1,2.2,2.2v0c0,1.4-1.3,2.4-3.1,2.4
			C105.8,244.8,104.6,243.8,104.5,242.4z"/>
		<path d="M112.6,242.6v-4.9h-1.2v-1.1h1.2v-2.2h1.4v2.2h1.5v1.1h-1.5v4.9c0,0.9,0.4,1.1,1.1,1.1c0.2,0,0.3,0,0.4,0v1.1
			c-0.2,0-0.5,0.1-0.7,0.1C113.3,244.8,112.6,244.1,112.6,242.6z"/>
		<path d="M116.3,240.6L116.3,240.6c0-2.6,1.5-4.2,3.7-4.2c2.2,0,3.7,1.6,3.7,4.1v0c0,2.6-1.5,4.2-3.7,4.2
			C117.8,244.8,116.3,243.1,116.3,240.6z M122.3,240.6L122.3,240.6c0-1.9-0.9-3-2.3-3c-1.4,0-2.3,1.1-2.3,3v0c0,1.9,0.9,3,2.3,3
			C121.4,243.6,122.3,242.5,122.3,240.6z"/>
		<path d="M125,236.6h1.3v1.4h0c0.3-0.9,1-1.5,1.9-1.5c0.2,0,0.4,0,0.5,0.1v1.3c-0.1,0-0.4-0.1-0.7-0.1c-1,0-1.7,0.7-1.7,1.9v4.9
			H125V236.6z"/>
		<path d="M129.6,242.4L129.6,242.4l1.3-0.1l0,0.1c0.2,0.8,0.8,1.3,1.8,1.3c1.1,0,1.7-0.5,1.7-1.2v0c0-0.6-0.3-0.9-1.2-1.1L132,241
			c-1.5-0.4-2.2-1.1-2.2-2.2v0c0-1.4,1.2-2.4,2.9-2.4c1.8,0,2.9,1,3,2.4l0,0.1h-1.3l0-0.1c-0.1-0.8-0.7-1.3-1.7-1.3
			c-1,0-1.6,0.5-1.6,1.2v0c0,0.5,0.4,0.9,1.2,1.1l1.3,0.3c1.6,0.4,2.2,1,2.2,2.2v0c0,1.4-1.3,2.4-3.1,2.4
			C130.9,244.8,129.7,243.8,129.6,242.4z"/>
		<path d="M140.7,233.5h4.2c2.1,0,3.5,1.3,3.5,3.3v0c0,1.5-0.8,2.7-2.2,3.2l2.6,4.6h-1.6l-2.4-4.4h-2.7v4.4h-1.4V233.5z M144.7,239
			c1.4,0,2.2-0.8,2.2-2.1v0c0-1.3-0.9-2.1-2.3-2.1h-2.6v4.3H144.7z"/>
		<path d="M149.5,240.6L149.5,240.6c0-2.5,1.4-4.2,3.6-4.2s3.5,1.6,3.5,4v0.5h-5.8c0,1.6,0.9,2.6,2.4,2.6c1,0,1.7-0.5,2-1.2l0-0.1
			h1.3l0,0.1c-0.3,1.3-1.6,2.4-3.3,2.4C150.9,244.8,149.5,243.1,149.5,240.6z M150.9,239.9h4.4c-0.1-1.6-1-2.3-2.2-2.3
			C152,237.6,151.1,238.4,150.9,239.9z"/>
		<path d="M158.1,233.5h1.3v11.1h-1.3V233.5z"/>
		<path d="M160.9,242.3L160.9,242.3c0-1.4,1.1-2.2,2.9-2.3l2.3-0.1v-0.7c0-1-0.6-1.6-1.8-1.6c-1,0-1.7,0.5-1.8,1.2l0,0.1h-1.3l0-0.1
			c0.1-1.3,1.3-2.4,3.2-2.4c1.9,0,3.1,1,3.1,2.6v5.5h-1.3v-1.3h0c-0.5,0.9-1.4,1.5-2.5,1.5C162,244.8,160.9,243.8,160.9,242.3z
			 M163.9,243.6c1.3,0,2.2-0.9,2.2-2v-0.7L164,241c-1.1,0.1-1.7,0.5-1.7,1.3v0C162.3,243.1,162.9,243.6,163.9,243.6z"/>
		<path d="M169.5,242.6v-4.9h-1.2v-1.1h1.2v-2.2h1.4v2.2h1.5v1.1h-1.5v4.9c0,0.9,0.4,1.1,1.1,1.1c0.2,0,0.3,0,0.4,0v1.1
			c-0.2,0-0.5,0.1-0.7,0.1C170.3,244.8,169.5,244.1,169.5,242.6z"/>
		<path d="M173.8,234.4c0-0.5,0.4-0.8,0.8-0.8c0.5,0,0.8,0.4,0.8,0.8c0,0.5-0.4,0.8-0.8,0.8C174.2,235.2,173.8,234.9,173.8,234.4z
			 M174,236.6h1.3v8H174V236.6z"/>
		<path d="M176.7,240.6L176.7,240.6c0-2.6,1.5-4.2,3.7-4.2c2.2,0,3.7,1.6,3.7,4.1v0c0,2.6-1.5,4.2-3.7,4.2
			C178.2,244.8,176.7,243.1,176.7,240.6z M182.8,240.6L182.8,240.6c0-1.9-0.9-3-2.3-3c-1.4,0-2.3,1.1-2.3,3v0c0,1.9,0.9,3,2.3,3
			C181.9,243.6,182.8,242.5,182.8,240.6z"/>
		<path d="M185.5,236.6h1.3v1.1h0c0.4-0.7,1.2-1.3,2.5-1.3c1.8,0,2.8,1.1,2.8,3v5.2h-1.3v-5c0-1.3-0.6-2-1.8-2
			c-1.3,0-2.1,0.9-2.1,2.3v4.7h-1.3V236.6z"/>
		<path d="M193.5,242.4L193.5,242.4l1.3-0.1l0,0.1c0.2,0.8,0.8,1.3,1.8,1.3c1.1,0,1.7-0.5,1.7-1.2v0c0-0.6-0.3-0.9-1.2-1.1l-1.3-0.3
			c-1.5-0.4-2.2-1.1-2.2-2.2v0c0-1.4,1.2-2.4,2.9-2.4c1.8,0,2.9,1,3,2.4l0,0.1h-1.3l0-0.1c-0.1-0.8-0.7-1.3-1.7-1.3
			c-1,0-1.6,0.5-1.6,1.2v0c0,0.5,0.4,0.9,1.2,1.1l1.3,0.3c1.6,0.4,2.2,1,2.2,2.2v0c0,1.4-1.3,2.4-3.1,2.4
			C194.8,244.8,193.6,243.8,193.5,242.4z"/>
	</g>
</g>
<g>
	<g>
		<path d="M121.8,265.3h1.4l4.1,11.1h-1.5l-1.1-3.2h-4.5l-1.1,3.2h-1.5L121.8,265.3z M120.6,272.1h3.6l-1.8-5.1h0L120.6,272.1z"/>
		<path d="M128,274.2L128,274.2l1.3-0.1l0,0.1c0.2,0.8,0.8,1.3,1.8,1.3c1.1,0,1.7-0.5,1.7-1.2v0c0-0.6-0.3-0.9-1.2-1.1l-1.3-0.3
			c-1.5-0.4-2.2-1.1-2.2-2.2v0c0-1.4,1.2-2.4,2.9-2.4c1.8,0,2.9,1,3,2.4l0,0.1h-1.3l0-0.1c-0.1-0.8-0.7-1.3-1.7-1.3
			c-1,0-1.6,0.5-1.6,1.2v0c0,0.5,0.4,0.9,1.2,1.1l1.3,0.3c1.6,0.4,2.2,1,2.2,2.2v0c0,1.4-1.3,2.4-3.1,2.4
			C129.3,276.6,128.1,275.6,128,274.2z"/>
		<path d="M135.8,265.3h1.3v6.6h0l3.5-3.5h1.6l-3.5,3.5l3.6,4.6h-1.6l-3-3.7l-0.7,0.7v3h-1.3V265.3z"/>
		<path d="M146.2,274.2L146.2,274.2c0-1.4,1.1-2.2,2.9-2.3l2.3-0.1V271c0-1-0.6-1.6-1.8-1.6c-1,0-1.7,0.5-1.8,1.2l0,0.1h-1.3l0-0.1
			c0.1-1.3,1.3-2.4,3.2-2.4c1.9,0,3.1,1,3.1,2.6v5.5h-1.3v-1.3h0c-0.5,0.9-1.4,1.5-2.5,1.5C147.3,276.6,146.2,275.6,146.2,274.2z
			 M149.2,275.4c1.3,0,2.2-0.9,2.2-2v-0.7l-2.1,0.1c-1.1,0.1-1.7,0.5-1.7,1.3v0C147.6,274.9,148.2,275.4,149.2,275.4z"/>
		<path d="M157.5,270.9L157.5,270.9c0-3.5,2-5.7,5.1-5.7c3.1,0,5.1,2.2,5.1,5.7v0c0,2.2-0.7,3.8-2,4.8l1.5,2h-1.6l-1-1.4
			c-0.6,0.2-1.3,0.3-2,0.3C159.4,276.6,157.5,274.4,157.5,270.9z M163.8,275.2l-1.4-1.9h1.6l0.9,1.3c0.9-0.8,1.4-2,1.4-3.7v0
			c0-2.7-1.4-4.5-3.7-4.5c-2.3,0-3.7,1.7-3.7,4.5v0c0,2.7,1.4,4.5,3.7,4.5C163,275.3,163.4,275.3,163.8,275.2z"/>
		<path d="M169.2,273.6v-5.2h1.3v5c0,1.3,0.6,2,1.8,2c1.3,0,2.1-0.9,2.1-2.3v-4.7h1.3v8h-1.3v-1.1h0c-0.4,0.7-1.2,1.3-2.5,1.3
			C170.2,276.6,169.2,275.4,169.2,273.6z"/>
		<path d="M177.1,272.5L177.1,272.5c0-2.5,1.4-4.2,3.6-4.2s3.5,1.6,3.5,4v0.5h-5.8c0,1.6,0.9,2.6,2.4,2.6c1,0,1.7-0.5,2-1.2l0-0.1
			h1.3l0,0.1c-0.3,1.3-1.6,2.4-3.3,2.4C178.5,276.6,177.1,275,177.1,272.5z M178.5,271.7h4.4c-0.1-1.6-1-2.3-2.2-2.3
			C179.6,269.4,178.7,270.2,178.5,271.7z"/>
		<path d="M185.3,274.2L185.3,274.2l1.3-0.1l0,0.1c0.2,0.8,0.8,1.3,1.8,1.3c1.1,0,1.7-0.5,1.7-1.2v0c0-0.6-0.3-0.9-1.2-1.1l-1.3-0.3
			c-1.5-0.4-2.2-1.1-2.2-2.2v0c0-1.4,1.2-2.4,2.9-2.4c1.8,0,2.9,1,3,2.4l0,0.1h-1.3l0-0.1c-0.1-0.8-0.7-1.3-1.7-1.3
			c-1,0-1.6,0.5-1.6,1.2v0c0,0.5,0.4,0.9,1.2,1.1l1.3,0.3c1.6,0.4,2.2,1,2.2,2.2v0c0,1.4-1.3,2.4-3.1,2.4
			C186.6,276.6,185.4,275.6,185.3,274.2z"/>
		<path d="M193.4,274.4v-4.9h-1.2v-1.1h1.2v-2.2h1.4v2.2h1.5v1.1h-1.5v4.9c0,0.9,0.4,1.1,1.1,1.1c0.2,0,0.3,0,0.4,0v1.1
			c-0.2,0-0.5,0.1-0.7,0.1C194.1,276.6,193.4,275.9,193.4,274.4z"/>
		<path d="M197.6,266.2c0-0.5,0.4-0.8,0.8-0.8c0.5,0,0.8,0.4,0.8,0.8c0,0.5-0.4,0.8-0.8,0.8C198,267.1,197.6,266.7,197.6,266.2z
			 M197.8,268.4h1.3v8h-1.3V268.4z"/>
		<path d="M200.6,272.4L200.6,272.4c0-2.6,1.5-4.2,3.7-4.2c2.2,0,3.7,1.6,3.7,4.1v0c0,2.6-1.5,4.2-3.7,4.2
			C202.1,276.6,200.6,275,200.6,272.4z M206.6,272.4L206.6,272.4c0-1.9-0.9-3-2.3-3c-1.4,0-2.3,1.1-2.3,3v0c0,1.9,0.9,3,2.3,3
			C205.7,275.4,206.6,274.3,206.6,272.4z"/>
		<path d="M209.3,268.4h1.3v1.1h0c0.4-0.7,1.2-1.3,2.5-1.3c1.8,0,2.8,1.1,2.8,3v5.2h-1.3v-5c0-1.3-0.6-2-1.8-2
			c-1.3,0-2.1,0.9-2.1,2.3v4.7h-1.3V268.4z"/>
	</g>
</g>
<g>
	<g>
		<path d="M118.5,297.3h6.9v1.2h-5.5v3.6h5.2v1.2h-5.2v3.8h5.5v1.2h-6.9V297.3z"/>
		<path d="M126.3,300.4h1.4l2.2,6.6h0l2.2-6.6h1.4l-2.9,8h-1.4L126.3,300.4z"/>
		<path d="M133.9,304.4L133.9,304.4c0-2.5,1.4-4.2,3.6-4.2s3.5,1.6,3.5,4v0.5h-5.8c0,1.6,0.9,2.6,2.4,2.6c1,0,1.7-0.5,2-1.2l0-0.1
			h1.3l0,0.1c-0.3,1.3-1.6,2.4-3.3,2.4C135.3,308.6,133.9,307,133.9,304.4z M135.3,303.7h4.4c-0.1-1.6-1-2.3-2.2-2.3
			C136.4,301.4,135.4,302.2,135.3,303.7z"/>
		<path d="M142.4,300.4h1.3v1.1h0c0.4-0.7,1.2-1.3,2.5-1.3c1.8,0,2.8,1.1,2.8,3v5.2h-1.3v-5c0-1.3-0.6-2-1.8-2
			c-1.3,0-2.1,0.9-2.1,2.3v4.7h-1.3V300.4z"/>
		<path d="M151.1,306.4v-4.9h-1.2v-1.1h1.2v-2.2h1.4v2.2h1.5v1.1h-1.5v4.9c0,0.9,0.4,1.1,1.1,1.1c0.2,0,0.3,0,0.4,0v1.1
			c-0.2,0-0.5,0.1-0.7,0.1C151.8,308.6,151.1,307.9,151.1,306.4z"/>
		<path d="M155.1,306.2L155.1,306.2l1.3-0.1l0,0.1c0.2,0.8,0.8,1.3,1.8,1.3c1.1,0,1.7-0.5,1.7-1.2v0c0-0.6-0.3-0.9-1.2-1.1l-1.3-0.3
			c-1.5-0.4-2.2-1.1-2.2-2.2v0c0-1.4,1.2-2.4,2.9-2.4c1.8,0,2.9,1,3,2.4l0,0.1H160l0-0.1c-0.1-0.8-0.7-1.3-1.7-1.3
			c-1,0-1.6,0.5-1.6,1.2v0c0,0.5,0.4,0.9,1.2,1.1l1.3,0.3c1.6,0.4,2.2,1,2.2,2.2v0c0,1.4-1.3,2.4-3.1,2.4
			C156.4,308.6,155.3,307.6,155.1,306.2z"/>
		<path d="M165.8,302.8L165.8,302.8c0-3.5,2-5.7,5.1-5.7c2.3,0,4.1,1.4,4.5,3.5l0,0.1H174l-0.1-0.2c-0.4-1.3-1.5-2.1-3.1-2.1
			c-2.2,0-3.7,1.7-3.7,4.5v0c0,2.7,1.4,4.5,3.7,4.5c1.6,0,2.6-0.8,3.1-2.2l0-0.1h1.4l0,0.1c-0.4,2.1-2.2,3.5-4.5,3.5
			C167.8,308.6,165.8,306.3,165.8,302.8z"/>
		<path d="M176.5,306.1L176.5,306.1c0-1.4,1.1-2.2,2.9-2.3l2.3-0.1V303c0-1-0.6-1.6-1.8-1.6c-1,0-1.7,0.5-1.8,1.2l0,0.1h-1.3l0-0.1
			c0.1-1.3,1.3-2.4,3.2-2.4c1.9,0,3.1,1,3.1,2.6v5.5h-1.3v-1.3h0c-0.5,0.9-1.4,1.5-2.5,1.5C177.6,308.6,176.5,307.6,176.5,306.1z
			 M179.5,307.4c1.3,0,2.2-0.9,2.2-2v-0.7l-2.1,0.1c-1.1,0.1-1.7,0.5-1.7,1.3v0C177.9,306.9,178.5,307.4,179.5,307.4z"/>
		<path d="M184.8,297.3h1.3v11.1h-1.3V297.3z"/>
		<path d="M187.6,304.4L187.6,304.4c0-2.5,1.4-4.2,3.6-4.2s3.5,1.6,3.5,4v0.5h-5.8c0,1.6,0.9,2.6,2.4,2.6c1,0,1.7-0.5,2-1.2l0-0.1
			h1.3l0,0.1c-0.3,1.3-1.6,2.4-3.3,2.4C189,308.6,187.6,307,187.6,304.4z M189,303.7h4.4c-0.1-1.6-1-2.3-2.2-2.3
			C190,301.4,189.1,302.2,189,303.7z"/>
		<path d="M196.1,300.4h1.3v1.1h0c0.4-0.7,1.2-1.3,2.5-1.3c1.8,0,2.8,1.1,2.8,3v5.2h-1.3v-5c0-1.3-0.6-2-1.8-2
			c-1.3,0-2.1,0.9-2.1,2.3v4.7h-1.3V300.4z"/>
		<path d="M204,304.4L204,304.4c0-2.5,1.4-4.2,3.4-4.2c1.1,0,2.1,0.6,2.6,1.5h0v-4.4h1.3v11.1H210v-1.4h0c-0.5,0.9-1.4,1.5-2.5,1.5
			C205.3,308.6,204,306.9,204,304.4z M210,304.4L210,304.4c0-1.8-1-3-2.3-3c-1.4,0-2.3,1.1-2.3,3v0c0,1.8,0.9,3,2.3,3
			C209,307.4,210,306.2,210,304.4z"/>
		<path d="M212.8,306.1L212.8,306.1c0-1.4,1.1-2.2,2.9-2.3l2.3-0.1V303c0-1-0.6-1.6-1.8-1.6c-1,0-1.7,0.5-1.8,1.2l0,0.1h-1.3l0-0.1
			c0.1-1.3,1.3-2.4,3.2-2.4c1.9,0,3.1,1,3.1,2.6v5.5H218v-1.3h0c-0.5,0.9-1.4,1.5-2.5,1.5C213.9,308.6,212.8,307.6,212.8,306.1z
			 M215.7,307.4c1.3,0,2.2-0.9,2.2-2v-0.7l-2.1,0.1c-1.1,0.1-1.7,0.5-1.7,1.3v0C214.2,306.9,214.8,307.4,215.7,307.4z"/>
		<path d="M221,300.4h1.3v1.4h0c0.3-0.9,1-1.5,1.9-1.5c0.2,0,0.4,0,0.5,0.1v1.3c-0.1,0-0.4-0.1-0.7-0.1c-1,0-1.7,0.7-1.7,1.9v4.9
			H221V300.4z"/>
	</g>
</g>
<g>
	<g>
		<path d="M118.5,329.3h6.8v1.2h-5.4v3.8h4.9v1.2h-4.9v4.8h-1.4V329.3z"/>
		<path d="M126.5,330.2c0-0.5,0.4-0.8,0.8-0.8c0.5,0,0.8,0.4,0.8,0.8c0,0.5-0.4,0.8-0.8,0.8C126.9,331,126.5,330.6,126.5,330.2z
			 M126.7,332.4h1.3v8h-1.3V332.4z"/>
		<path d="M129.9,332.4h1.3v1.1h0c0.4-0.7,1.2-1.3,2.5-1.3c1.8,0,2.8,1.1,2.8,3v5.2h-1.3v-5c0-1.3-0.6-2-1.8-2
			c-1.3,0-2.1,0.9-2.1,2.3v4.7h-1.3V332.4z"/>
		<path d="M137.9,338.1L137.9,338.1c0-1.4,1.1-2.2,2.9-2.3l2.3-0.1V335c0-1-0.6-1.6-1.8-1.6c-1,0-1.7,0.5-1.8,1.2l0,0.1h-1.3l0-0.1
			c0.1-1.3,1.3-2.4,3.2-2.4c1.9,0,3.1,1,3.1,2.6v5.5h-1.3v-1.3h0c-0.5,0.9-1.4,1.5-2.5,1.5C138.9,340.5,137.9,339.6,137.9,338.1z
			 M140.8,339.4c1.3,0,2.2-0.9,2.2-2v-0.7l-2.1,0.1c-1.1,0.1-1.7,0.5-1.7,1.3v0C139.2,338.9,139.9,339.4,140.8,339.4z"/>
		<path d="M146.1,332.4h1.3v1.1h0c0.4-0.7,1.2-1.3,2.5-1.3c1.8,0,2.8,1.1,2.8,3v5.2h-1.3v-5c0-1.3-0.6-2-1.8-2
			c-1.3,0-2.1,0.9-2.1,2.3v4.7h-1.3V332.4z"/>
		<path d="M154,336.4L154,336.4c0-2.5,1.5-4.2,3.7-4.2c2,0,3.2,1.3,3.3,2.7l0,0.1h-1.3l0-0.1c-0.2-0.8-0.8-1.5-2-1.5
			c-1.4,0-2.3,1.2-2.3,3v0c0,1.9,1,3,2.3,3c1.1,0,1.8-0.6,2-1.5l0-0.1h1.3l0,0.1c-0.2,1.5-1.5,2.7-3.3,2.7
			C155.5,340.5,154,338.9,154,336.4z"/>
		<path d="M162.2,330.2c0-0.5,0.4-0.8,0.8-0.8c0.5,0,0.8,0.4,0.8,0.8c0,0.5-0.4,0.8-0.8,0.8C162.6,331,162.2,330.6,162.2,330.2z
			 M162.4,332.4h1.3v8h-1.3V332.4z"/>
		<path d="M165.2,338.1L165.2,338.1c0-1.4,1.1-2.2,2.9-2.3l2.3-0.1V335c0-1-0.6-1.6-1.8-1.6c-1,0-1.7,0.5-1.8,1.2l0,0.1h-1.3l0-0.1
			c0.1-1.3,1.3-2.4,3.2-2.4c1.9,0,3.1,1,3.1,2.6v5.5h-1.3v-1.3h0c-0.5,0.9-1.4,1.5-2.5,1.5C166.3,340.5,165.2,339.6,165.2,338.1z
			 M168.2,339.4c1.3,0,2.2-0.9,2.2-2v-0.7l-2.1,0.1c-1.1,0.1-1.7,0.5-1.7,1.3v0C166.6,338.9,167.2,339.4,168.2,339.4z"/>
		<path d="M173.5,329.3h1.3v11.1h-1.3V329.3z"/>
		<path d="M180.1,329.3h4.2c2.1,0,3.5,1.3,3.5,3.3v0c0,1.5-0.8,2.7-2.2,3.2l2.6,4.6h-1.6l-2.4-4.4h-2.7v4.4h-1.4V329.3z
			 M184.2,334.8c1.4,0,2.2-0.8,2.2-2.1v0c0-1.3-0.9-2.1-2.3-2.1h-2.6v4.3H184.2z"/>
		<path d="M189,336.4L189,336.4c0-2.5,1.4-4.2,3.6-4.2s3.5,1.6,3.5,4v0.5h-5.8c0,1.6,0.9,2.6,2.4,2.6c1,0,1.7-0.5,2-1.2l0-0.1h1.3
			l0,0.1c-0.3,1.3-1.6,2.4-3.3,2.4C190.4,340.5,189,338.9,189,336.4z M190.4,335.7h4.4c-0.1-1.6-1-2.3-2.2-2.3
			C191.4,333.4,190.5,334.2,190.4,335.7z"/>
		<path d="M197.5,332.4h1.3v1.4h0c0.5-0.9,1.4-1.5,2.5-1.5c2,0,3.4,1.6,3.4,4.2v0c0,2.5-1.4,4.2-3.4,4.2c-1.1,0-2.1-0.6-2.6-1.5h0v4
			h-1.3V332.4z M203.4,336.4L203.4,336.4c0-1.8-0.9-3-2.3-3c-1.4,0-2.3,1.2-2.3,3v0c0,1.8,1,3,2.3,3
			C202.5,339.4,203.4,338.2,203.4,336.4z"/>
		<path d="M205.7,336.4L205.7,336.4c0-2.6,1.5-4.2,3.7-4.2c2.2,0,3.7,1.6,3.7,4.1v0c0,2.6-1.5,4.2-3.7,4.2
			C207.2,340.5,205.7,338.9,205.7,336.4z M211.8,336.4L211.8,336.4c0-1.9-0.9-3-2.3-3c-1.4,0-2.3,1.1-2.3,3v0c0,1.9,0.9,3,2.3,3
			C210.9,339.4,211.8,338.3,211.8,336.4z"/>
		<path d="M214.5,332.4h1.3v1.4h0c0.3-0.9,1-1.5,1.9-1.5c0.2,0,0.4,0,0.5,0.1v1.3c-0.1,0-0.4-0.1-0.7-0.1c-1,0-1.7,0.7-1.7,1.9v4.9
			h-1.3V332.4z"/>
		<path d="M220.1,338.3v-4.9H219v-1.1h1.2v-2.2h1.4v2.2h1.5v1.1h-1.5v4.9c0,0.9,0.4,1.1,1.1,1.1c0.2,0,0.3,0,0.4,0v1.1
			c-0.2,0-0.5,0.1-0.7,0.1C220.9,340.5,220.1,339.9,220.1,338.3z"/>
		<path d="M224.1,338.1L224.1,338.1l1.3-0.1l0,0.1c0.2,0.8,0.8,1.3,1.8,1.3c1.1,0,1.7-0.5,1.7-1.2v0c0-0.6-0.3-0.9-1.2-1.1l-1.3-0.3
			c-1.5-0.4-2.2-1.1-2.2-2.2v0c0-1.4,1.2-2.4,2.9-2.4c1.8,0,2.9,1,3,2.4l0,0.1H229l0-0.1c-0.1-0.8-0.7-1.3-1.7-1.3
			c-1,0-1.6,0.5-1.6,1.2v0c0,0.5,0.4,0.9,1.2,1.1l1.3,0.3c1.6,0.4,2.2,1,2.2,2.2v0c0,1.4-1.3,2.4-3.1,2.4
			C225.4,340.5,224.3,339.6,224.1,338.1z"/>
	</g>
</g>
<g>
	<g>
		<path d="M118,369.5l0-0.1h1.4l0,0.1c0.2,1.1,1.2,1.8,2.9,1.8c1.6,0,2.6-0.7,2.6-1.9v0c0-1-0.6-1.5-2.2-1.9l-1.2-0.3
			c-2.2-0.5-3.2-1.5-3.2-3.1v0c0-1.8,1.6-3.1,3.9-3.1c2.2,0,3.8,1.3,3.9,3.1l0,0.1h-1.4l0-0.1c-0.2-1.1-1.1-1.8-2.5-1.8
			c-1.5,0-2.5,0.7-2.5,1.8v0c0,0.9,0.7,1.5,2.1,1.8l1.2,0.3c2.3,0.5,3.2,1.4,3.2,3.1v0c0,2-1.6,3.2-4.1,3.2
			C119.7,372.6,118.1,371.4,118,369.5z"/>
		<path d="M127.7,361.2h1.3v4.4h0c0.4-0.9,1.3-1.4,2.5-1.4c1.7,0,2.9,1.3,2.9,3.3v4.9h-1.3v-4.7c0-1.4-0.7-2.3-2-2.3
			c-1.2,0-2.1,0.9-2.1,2.3v4.7h-1.3V361.2z"/>
		<path d="M135.8,370.1L135.8,370.1c0-1.4,1.1-2.2,2.9-2.3l2.3-0.1V367c0-1-0.6-1.6-1.8-1.6c-1,0-1.7,0.5-1.8,1.2l0,0.1h-1.3l0-0.1
			c0.1-1.3,1.3-2.4,3.2-2.4c1.9,0,3.1,1,3.1,2.6v5.5H141v-1.3h0c-0.5,0.9-1.4,1.5-2.5,1.5C136.9,372.5,135.8,371.6,135.8,370.1z
			 M138.8,371.4c1.3,0,2.2-0.9,2.2-2v-0.7l-2.1,0.1c-1.1,0.1-1.7,0.5-1.7,1.3v0C137.2,370.9,137.8,371.4,138.8,371.4z"/>
		<path d="M144.1,364.4h1.3v1.4h0c0.3-0.9,1-1.5,1.9-1.5c0.2,0,0.4,0,0.5,0.1v1.3c-0.1,0-0.4-0.1-0.7-0.1c-1,0-1.7,0.7-1.7,1.9v4.9
			h-1.3V364.4z"/>
		<path d="M148.2,368.4L148.2,368.4c0-2.5,1.4-4.2,3.6-4.2s3.5,1.6,3.5,4v0.5h-5.8c0,1.7,0.9,2.6,2.4,2.6c1,0,1.7-0.5,2-1.2l0-0.1
			h1.3l0,0.1c-0.3,1.3-1.6,2.4-3.3,2.4C149.5,372.5,148.2,370.9,148.2,368.4z M149.5,367.7h4.4c-0.1-1.6-1-2.3-2.2-2.3
			C150.6,365.4,149.7,366.2,149.5,367.7z"/>
		<path d="M159.6,366.8L159.6,366.8c0-3.5,2-5.7,5.1-5.7c2.3,0,4.1,1.4,4.5,3.5l0,0.1h-1.4l-0.1-0.2c-0.4-1.3-1.5-2.1-3.1-2.1
			c-2.2,0-3.7,1.7-3.7,4.5v0c0,2.7,1.4,4.5,3.7,4.5c1.6,0,2.6-0.8,3.1-2.2l0-0.1h1.4l0,0.1c-0.4,2.1-2.2,3.5-4.5,3.5
			C161.6,372.6,159.6,370.3,159.6,366.8z"/>
		<path d="M170.7,361.2h1.3v4.4h0c0.4-0.9,1.3-1.4,2.5-1.4c1.7,0,2.9,1.3,2.9,3.3v4.9h-1.3v-4.7c0-1.4-0.7-2.3-2-2.3
			c-1.2,0-2.1,0.9-2.1,2.3v4.7h-1.3V361.2z"/>
		<path d="M178.9,370.1L178.9,370.1c0-1.4,1.1-2.2,2.9-2.3l2.3-0.1V367c0-1-0.6-1.6-1.8-1.6c-1,0-1.7,0.5-1.8,1.2l0,0.1h-1.3l0-0.1
			c0.1-1.3,1.3-2.4,3.2-2.4c1.9,0,3.1,1,3.1,2.6v5.5h-1.3v-1.3h0c-0.5,0.9-1.4,1.5-2.5,1.5C179.9,372.5,178.9,371.6,178.9,370.1z
			 M181.8,371.4c1.3,0,2.2-0.9,2.2-2v-0.7l-2.1,0.1c-1.1,0.1-1.7,0.5-1.7,1.3v0C180.2,370.9,180.9,371.4,181.8,371.4z"/>
		<path d="M187.1,364.4h1.3v1.4h0c0.3-0.9,1-1.5,1.9-1.5c0.2,0,0.4,0,0.5,0.1v1.3c-0.1,0-0.4-0.1-0.7-0.1c-1,0-1.7,0.7-1.7,1.9v4.9
			h-1.3V364.4z"/>
		<path d="M192.8,370.3v-4.9h-1.2v-1.1h1.2v-2.2h1.4v2.2h1.5v1.1h-1.5v4.9c0,0.9,0.4,1.1,1.1,1.1c0.2,0,0.3,0,0.4,0v1.1
			c-0.2,0-0.5,0.1-0.7,0.1C193.5,372.5,192.8,371.9,192.8,370.3z"/>
	</g>
</g>
<g>
	<g>
		<path d="M118.5,393.2h6.8v1.2h-5.4v3.8h4.9v1.2h-4.9v4.8h-1.4V393.2z"/>
		<path d="M126.5,394.1c0-0.5,0.4-0.8,0.8-0.8c0.5,0,0.8,0.4,0.8,0.8c0,0.5-0.4,0.8-0.8,0.8C126.9,395,126.5,394.6,126.5,394.1z
			 M126.7,396.3h1.3v8h-1.3V396.3z"/>
		<path d="M129.9,396.3h1.3v1.1h0c0.4-0.7,1.2-1.3,2.5-1.3c1.8,0,2.8,1.1,2.8,3v5.2h-1.3v-5c0-1.3-0.6-2-1.8-2
			c-1.3,0-2.1,0.9-2.1,2.3v4.7h-1.3V396.3z"/>
		<path d="M137.9,402.1L137.9,402.1c0-1.4,1.1-2.2,2.9-2.3l2.3-0.1v-0.7c0-1-0.6-1.6-1.8-1.6c-1,0-1.7,0.5-1.8,1.2l0,0.1h-1.3l0-0.1
			c0.1-1.3,1.3-2.4,3.2-2.4c1.9,0,3.1,1,3.1,2.6v5.5h-1.3V403h0c-0.5,0.9-1.4,1.5-2.5,1.5C138.9,404.5,137.9,403.5,137.9,402.1z
			 M140.8,403.3c1.3,0,2.2-0.9,2.2-2v-0.7l-2.1,0.1c-1.1,0.1-1.7,0.5-1.7,1.3v0C139.2,402.9,139.9,403.3,140.8,403.3z"/>
		<path d="M146.1,396.3h1.3v1.1h0c0.4-0.7,1.2-1.3,2.5-1.3c1.8,0,2.8,1.1,2.8,3v5.2h-1.3v-5c0-1.3-0.6-2-1.8-2
			c-1.3,0-2.1,0.9-2.1,2.3v4.7h-1.3V396.3z"/>
		<path d="M154,400.3L154,400.3c0-2.5,1.5-4.2,3.7-4.2c2,0,3.2,1.3,3.3,2.7l0,0.1h-1.3l0-0.1c-0.2-0.8-0.8-1.5-2-1.5
			c-1.4,0-2.3,1.2-2.3,3v0c0,1.9,1,3,2.3,3c1.1,0,1.8-0.6,2-1.5l0-0.1h1.3l0,0.1c-0.2,1.5-1.5,2.7-3.3,2.7
			C155.5,404.5,154,402.9,154,400.3z"/>
		<path d="M162.2,394.1c0-0.5,0.4-0.8,0.8-0.8c0.5,0,0.8,0.4,0.8,0.8c0,0.5-0.4,0.8-0.8,0.8C162.6,395,162.2,394.6,162.2,394.1z
			 M162.4,396.3h1.3v8h-1.3V396.3z"/>
		<path d="M165.2,402.1L165.2,402.1c0-1.4,1.1-2.2,2.9-2.3l2.3-0.1v-0.7c0-1-0.6-1.6-1.8-1.6c-1,0-1.7,0.5-1.8,1.2l0,0.1h-1.3l0-0.1
			c0.1-1.3,1.3-2.4,3.2-2.4c1.9,0,3.1,1,3.1,2.6v5.5h-1.3V403h0c-0.5,0.9-1.4,1.5-2.5,1.5C166.3,404.5,165.2,403.5,165.2,402.1z
			 M168.2,403.3c1.3,0,2.2-0.9,2.2-2v-0.7l-2.1,0.1c-1.1,0.1-1.7,0.5-1.7,1.3v0C166.6,402.9,167.2,403.3,168.2,403.3z"/>
		<path d="M173.5,393.2h1.3v11.1h-1.3V393.2z"/>
		<path d="M176.3,402.1L176.3,402.1l1.3-0.1l0,0.1c0.2,0.8,0.8,1.3,1.8,1.3c1.1,0,1.7-0.5,1.7-1.2v0c0-0.6-0.3-0.9-1.2-1.1l-1.3-0.3
			c-1.5-0.4-2.2-1.1-2.2-2.2v0c0-1.4,1.2-2.4,2.9-2.4c1.8,0,2.9,1,3,2.4l0,0.1h-1.3l0-0.1c-0.1-0.8-0.7-1.3-1.7-1.3
			c-1,0-1.6,0.5-1.6,1.2v0c0,0.5,0.4,0.9,1.2,1.1l1.3,0.3c1.6,0.4,2.2,1,2.2,2.2v0c0,1.4-1.3,2.4-3.1,2.4
			C177.6,404.5,176.5,403.5,176.3,402.1z"/>
		<path d="M186.9,401.4l0-0.1h1.4l0,0.1c0.2,1.1,1.2,1.8,2.9,1.8c1.6,0,2.6-0.7,2.6-1.9v0c0-1-0.6-1.5-2.2-1.9l-1.2-0.3
			c-2.2-0.5-3.2-1.5-3.2-3.1v0c0-1.8,1.6-3.1,3.9-3.1c2.2,0,3.8,1.3,3.9,3.1l0,0.1h-1.4l0-0.1c-0.2-1.1-1.1-1.8-2.5-1.8
			c-1.5,0-2.5,0.7-2.5,1.8v0c0,0.9,0.7,1.5,2.1,1.8l1.2,0.3c2.3,0.5,3.2,1.4,3.2,3.1v0c0,2-1.6,3.2-4.1,3.2
			C188.7,404.5,187.1,403.4,186.9,401.4z"/>
		<path d="M196.6,401.5v-5.2h1.3v5c0,1.3,0.6,2,1.8,2c1.3,0,2.1-0.9,2.1-2.3v-4.7h1.3v8h-1.3v-1.1h0c-0.4,0.7-1.2,1.3-2.5,1.3
			C197.6,404.5,196.6,403.4,196.6,401.5z"/>
		<path d="M204.9,396.3h1.3v1.2h0c0.4-0.8,1.2-1.3,2.2-1.3c1.1,0,1.9,0.6,2.2,1.5h0c0.4-1,1.4-1.5,2.5-1.5c1.6,0,2.6,1,2.6,2.6v5.5
			h-1.3v-5.2c0-1.1-0.6-1.8-1.7-1.8c-1.1,0-1.8,0.8-1.8,1.9v5.1h-1.3V399c0-1-0.6-1.6-1.6-1.6c-1.1,0-1.8,0.8-1.8,2v5h-1.3V396.3z"
			/>
		<path d="M217.6,396.3h1.3v1.2h0c0.4-0.8,1.2-1.3,2.2-1.3c1.1,0,1.9,0.6,2.2,1.5h0c0.4-1,1.4-1.5,2.5-1.5c1.6,0,2.6,1,2.6,2.6v5.5
			h-1.3v-5.2c0-1.1-0.6-1.8-1.7-1.8c-1.1,0-1.8,0.8-1.8,1.9v5.1h-1.3V399c0-1-0.6-1.6-1.6-1.6c-1.1,0-1.8,0.8-1.8,2v5h-1.3V396.3z"
			/>
		<path d="M229.9,400.4L229.9,400.4c0-2.5,1.4-4.2,3.6-4.2s3.5,1.6,3.5,4v0.5h-5.8c0,1.6,0.9,2.6,2.4,2.6c1,0,1.7-0.5,2-1.2l0-0.1
			h1.3l0,0.1c-0.3,1.3-1.6,2.4-3.3,2.4C231.3,404.5,229.9,402.9,229.9,400.4z M231.3,399.7h4.4c-0.1-1.6-1-2.3-2.2-2.3
			C232.3,397.4,231.4,398.2,231.3,399.7z"/>
		<path d="M238.4,396.3h1.3v1.4h0c0.3-0.9,1-1.5,1.9-1.5c0.2,0,0.4,0,0.5,0.1v1.3c-0.1,0-0.4-0.1-0.7-0.1c-1,0-1.7,0.7-1.7,1.9v4.9
			h-1.3V396.3z"/>
		<path d="M243.5,407v-1.1c0.1,0,0.3,0,0.4,0c0.8,0,1.3-0.2,1.6-1.1l0.2-0.5l-3-8h1.4l2.2,6.7h0l2.2-6.7h1.4l-3.1,8.5
			c-0.6,1.5-1.3,2.2-2.7,2.2C243.9,407,243.7,407,243.5,407z"/>
	</g>
</g>
<g>
	<g>
		<path d="M118,433.4l0-0.1h1.4l0,0.1c0.2,1.1,1.2,1.8,2.9,1.8c1.6,0,2.6-0.7,2.6-1.9v0c0-1-0.6-1.5-2.2-1.9l-1.2-0.3
			c-2.2-0.5-3.2-1.5-3.2-3.1v0c0-1.8,1.6-3.1,3.9-3.1c2.2,0,3.8,1.3,3.9,3.1l0,0.1h-1.4l0-0.1c-0.2-1.1-1.1-1.8-2.5-1.8
			c-1.5,0-2.5,0.7-2.5,1.8v0c0,0.9,0.7,1.5,2.1,1.8l1.2,0.3c2.3,0.5,3.2,1.4,3.2,3.1v0c0,2-1.6,3.2-4.1,3.2
			C119.7,436.5,118.1,435.3,118,433.4z"/>
		<path d="M127.7,425.2h1.3v4.4h0c0.4-0.9,1.3-1.4,2.5-1.4c1.7,0,2.9,1.3,2.9,3.3v4.9h-1.3v-4.7c0-1.4-0.7-2.3-2-2.3
			c-1.2,0-2.1,0.9-2.1,2.3v4.7h-1.3V425.2z"/>
		<path d="M135.8,434.1L135.8,434.1c0-1.4,1.1-2.2,2.9-2.3l2.3-0.1v-0.7c0-1-0.6-1.6-1.8-1.6c-1,0-1.7,0.5-1.8,1.2l0,0.1h-1.3l0-0.1
			c0.1-1.3,1.3-2.4,3.2-2.4c1.9,0,3.1,1,3.1,2.6v5.5H141V435h0c-0.5,0.9-1.4,1.5-2.5,1.5C136.9,436.5,135.8,435.5,135.8,434.1z
			 M138.8,435.3c1.3,0,2.2-0.9,2.2-2v-0.7l-2.1,0.1c-1.1,0.1-1.7,0.5-1.7,1.3v0C137.2,434.8,137.8,435.3,138.8,435.3z"/>
		<path d="M144.1,428.3h1.3v1.4h0c0.3-0.9,1-1.5,1.9-1.5c0.2,0,0.4,0,0.5,0.1v1.3c-0.1,0-0.4-0.1-0.7-0.1c-1,0-1.7,0.7-1.7,1.9v4.9
			h-1.3V428.3z"/>
		<path d="M148.2,432.3L148.2,432.3c0-2.5,1.4-4.2,3.6-4.2s3.5,1.6,3.5,4v0.5h-5.8c0,1.6,0.9,2.6,2.4,2.6c1,0,1.7-0.5,2-1.2l0-0.1
			h1.3l0,0.1c-0.3,1.3-1.6,2.4-3.3,2.4C149.5,436.5,148.2,434.9,148.2,432.3z M149.5,431.6h4.4c-0.1-1.6-1-2.3-2.2-2.3
			C150.6,429.3,149.7,430.1,149.5,431.6z"/>
		<path d="M156.7,425.2h1.3v4.4h0c0.4-0.9,1.3-1.4,2.5-1.4c1.7,0,2.9,1.3,2.9,3.3v4.9h-1.3v-4.7c0-1.4-0.7-2.3-2-2.3
			c-1.2,0-2.1,0.9-2.1,2.3v4.7h-1.3V425.2z"/>
		<path d="M164.7,432.3L164.7,432.3c0-2.6,1.5-4.2,3.7-4.2c2.2,0,3.7,1.6,3.7,4.1v0c0,2.6-1.5,4.2-3.7,4.2
			C166.2,436.5,164.7,434.9,164.7,432.3z M170.8,432.3L170.8,432.3c0-1.9-0.9-3-2.3-3c-1.4,0-2.3,1.1-2.3,3v0c0,1.9,0.9,3,2.3,3
			C169.9,435.3,170.8,434.2,170.8,432.3z"/>
		<path d="M173.6,425.2h1.3v11.1h-1.3V425.2z"/>
		<path d="M176.3,432.3L176.3,432.3c0-2.5,1.4-4.2,3.4-4.2c1.1,0,2.1,0.6,2.6,1.5h0v-4.4h1.3v11.1h-1.3V435h0
			c-0.5,0.9-1.4,1.5-2.5,1.5C177.7,436.5,176.3,434.8,176.3,432.3z M182.3,432.3L182.3,432.3c0-1.8-1-3-2.3-3c-1.4,0-2.3,1.1-2.3,3
			v0c0,1.8,0.9,3,2.3,3C181.3,435.3,182.3,434.1,182.3,432.3z"/>
		<path d="M185.1,432.3L185.1,432.3c0-2.5,1.4-4.2,3.6-4.2s3.5,1.6,3.5,4v0.5h-5.8c0,1.6,0.9,2.6,2.4,2.6c1,0,1.7-0.5,2-1.2l0-0.1
			h1.3l0,0.1c-0.3,1.3-1.6,2.4-3.3,2.4C186.4,436.5,185.1,434.9,185.1,432.3z M186.4,431.6h4.4c-0.1-1.6-1-2.3-2.2-2.3
			C187.5,429.3,186.6,430.1,186.4,431.6z"/>
		<path d="M193.5,428.3h1.3v1.4h0c0.3-0.9,1-1.5,1.9-1.5c0.2,0,0.4,0,0.5,0.1v1.3c-0.1,0-0.4-0.1-0.7-0.1c-1,0-1.7,0.7-1.7,1.9v4.9
			h-1.3V428.3z"/>
		<path d="M198,434.1L198,434.1l1.3-0.1l0,0.1c0.2,0.8,0.8,1.3,1.8,1.3c1.1,0,1.7-0.5,1.7-1.2v0c0-0.6-0.3-0.9-1.2-1.1l-1.3-0.3
			c-1.5-0.4-2.2-1.1-2.2-2.2v0c0-1.4,1.2-2.4,2.9-2.4c1.8,0,2.9,1,3,2.4l0,0.1h-1.3l0-0.1c-0.1-0.8-0.7-1.3-1.7-1.3
			c-1,0-1.6,0.5-1.6,1.2v0c0,0.5,0.4,0.9,1.2,1.1l1.3,0.3c1.6,0.4,2.2,1,2.2,2.2v0c0,1.4-1.3,2.4-3.1,2.4
			C199.3,436.5,198.2,435.5,198,434.1z"/>
	</g>
</g>
<g>
	<g>
		<path d="M118.5,457.2h6.9v1.2h-5.5v3.6h5.2v1.2h-5.2v3.8h5.5v1.2h-6.9V457.2z"/>
		<path d="M129.1,464.3l-2.7-4h1.5l1.9,3h0l1.9-3h1.5l-2.7,4l2.7,4.1h-1.5l-1.9-3.1h0l-1.9,3.1h-1.5L129.1,464.3z"/>
		<path d="M133.8,464.3L133.8,464.3c0-2.5,1.5-4.2,3.7-4.2c2,0,3.2,1.3,3.3,2.7l0,0.1h-1.3l0-0.1c-0.2-0.8-0.8-1.5-2-1.5
			c-1.4,0-2.3,1.2-2.3,3v0c0,1.9,1,3,2.3,3c1.1,0,1.8-0.6,2-1.5l0-0.1h1.3l0,0.1c-0.2,1.5-1.5,2.7-3.3,2.7
			C135.3,468.5,133.8,466.8,133.8,464.3z"/>
		<path d="M142.2,457.2h1.3v4.4h0c0.4-0.9,1.3-1.4,2.5-1.4c1.7,0,2.9,1.3,2.9,3.3v4.9h-1.3v-4.7c0-1.4-0.7-2.3-2-2.3
			c-1.2,0-2.1,0.9-2.1,2.3v4.7h-1.3V457.2z"/>
		<path d="M150.3,466L150.3,466c0-1.4,1.1-2.2,2.9-2.3l2.3-0.1v-0.7c0-1-0.6-1.6-1.8-1.6c-1,0-1.7,0.5-1.8,1.2l0,0.1h-1.3l0-0.1
			c0.1-1.3,1.3-2.4,3.2-2.4c1.9,0,3.1,1,3.1,2.6v5.5h-1.3V467h0c-0.5,0.9-1.4,1.5-2.5,1.5C151.4,468.5,150.3,467.5,150.3,466z
			 M153.3,467.3c1.3,0,2.2-0.9,2.2-2v-0.7l-2.1,0.1c-1.1,0.1-1.7,0.5-1.7,1.3v0C151.7,466.8,152.3,467.3,153.3,467.3z"/>
		<path d="M158.6,460.3h1.3v1.1h0c0.4-0.7,1.2-1.3,2.5-1.3c1.8,0,2.8,1.1,2.8,3v5.2h-1.3v-5c0-1.3-0.6-2-1.8-2
			c-1.3,0-2.1,0.9-2.1,2.3v4.7h-1.3V460.3z"/>
		<path d="M166.8,469L166.8,469l1.3-0.1l0,0.1c0.3,0.6,1,0.9,2.1,0.9c1.4,0,2.2-0.8,2.2-2v-1h0c-0.5,0.9-1.4,1.5-2.6,1.5
			c-2,0-3.4-1.6-3.4-4.1v0c0-2.5,1.4-4.1,3.4-4.1c1.1,0,2,0.6,2.5,1.5h0v-1.4h1.3v7.8c0,1.9-1.4,3.1-3.5,3.1
			C168.3,471.2,167,470.2,166.8,469z M172.5,464.3L172.5,464.3c0-1.8-0.9-2.9-2.3-2.9c-1.4,0-2.3,1.1-2.3,2.9v0
			c0,1.8,0.9,2.9,2.3,2.9C171.5,467.2,172.5,466,172.5,464.3z"/>
		<path d="M175.1,464.3L175.1,464.3c0-2.5,1.4-4.2,3.6-4.2s3.5,1.6,3.5,4v0.5h-5.8c0,1.6,0.9,2.6,2.4,2.6c1,0,1.7-0.5,2-1.2l0-0.1
			h1.3l0,0.1c-0.3,1.3-1.6,2.4-3.3,2.4C176.5,468.5,175.1,466.8,175.1,464.3z M176.5,463.6h4.4c-0.1-1.6-1-2.3-2.2-2.3
			C177.6,461.3,176.7,462.1,176.5,463.6z"/>
		<path d="M187,457.2h4.2c2.1,0,3.5,1.3,3.5,3.3v0c0,1.5-0.8,2.7-2.2,3.2l2.6,4.6h-1.6l-2.4-4.4h-2.7v4.4H187V457.2z M191.1,462.7
			c1.4,0,2.2-0.8,2.2-2.1v0c0-1.3-0.9-2.1-2.3-2.1h-2.6v4.3H191.1z"/>
		<path d="M195.8,466L195.8,466c0-1.4,1.1-2.2,2.9-2.3l2.3-0.1v-0.7c0-1-0.6-1.6-1.8-1.6c-1,0-1.7,0.5-1.8,1.2l0,0.1h-1.3l0-0.1
			c0.1-1.3,1.3-2.4,3.2-2.4c1.9,0,3.1,1,3.1,2.6v5.5H201V467h0c-0.5,0.9-1.4,1.5-2.5,1.5C196.9,468.5,195.8,467.5,195.8,466z
			 M198.8,467.3c1.3,0,2.2-0.9,2.2-2v-0.7l-2.1,0.1c-1.1,0.1-1.7,0.5-1.7,1.3v0C197.2,466.8,197.8,467.3,198.8,467.3z"/>
		<path d="M204.5,466.3v-4.9h-1.2v-1.1h1.2v-2.2h1.4v2.2h1.5v1.1h-1.5v4.9c0,0.9,0.4,1.1,1.1,1.1c0.2,0,0.3,0,0.4,0v1.1
			c-0.2,0-0.5,0.1-0.7,0.1C205.2,468.5,204.5,467.8,204.5,466.3z"/>
		<path d="M208.2,464.3L208.2,464.3c0-2.5,1.4-4.2,3.6-4.2s3.5,1.6,3.5,4v0.5h-5.8c0,1.6,0.9,2.6,2.4,2.6c1,0,1.7-0.5,2-1.2l0-0.1
			h1.3l0,0.1c-0.3,1.3-1.6,2.4-3.3,2.4C209.6,468.5,208.2,466.8,208.2,464.3z M209.6,463.6h4.4c-0.1-1.6-1-2.3-2.2-2.3
			C210.6,461.3,209.7,462.1,209.6,463.6z"/>
		<path d="M216.3,466.1L216.3,466.1l1.3-0.1l0,0.1c0.2,0.8,0.8,1.3,1.8,1.3c1.1,0,1.7-0.5,1.7-1.2v0c0-0.6-0.3-0.9-1.2-1.1l-1.3-0.3
			c-1.5-0.4-2.2-1.1-2.2-2.2v0c0-1.4,1.2-2.4,2.9-2.4c1.8,0,2.9,1,3,2.4l0,0.1h-1.3l0-0.1c-0.1-0.8-0.7-1.3-1.7-1.3
			c-1,0-1.6,0.5-1.6,1.2v0c0,0.5,0.4,0.9,1.2,1.1l1.3,0.3c1.6,0.4,2.2,1,2.2,2.2v0c0,1.4-1.3,2.4-3.1,2.4
			C217.6,468.5,216.5,467.5,216.3,466.1z"/>
	</g>
</g>
<g>
	<g>
		<path d="M118.5,489.2h6.9v1.2h-5.5v3.6h5.2v1.2h-5.2v3.8h5.5v1.2h-6.9V489.2z"/>
		<path d="M127,492.3h1.3v1.2h0c0.4-0.8,1.2-1.3,2.2-1.3c1.1,0,1.9,0.6,2.2,1.5h0c0.4-1,1.4-1.5,2.5-1.5c1.6,0,2.6,1,2.6,2.6v5.5
			h-1.3v-5.2c0-1.1-0.6-1.8-1.7-1.8c-1.1,0-1.8,0.8-1.8,1.9v5.1h-1.3v-5.4c0-1-0.6-1.6-1.6-1.6c-1.1,0-1.8,0.8-1.8,2v5H127V492.3z"
			/>
		<path d="M139.4,498L139.4,498c0-1.4,1.1-2.2,2.9-2.3l2.3-0.1v-0.7c0-1-0.6-1.6-1.8-1.6c-1,0-1.7,0.5-1.8,1.2l0,0.1h-1.3l0-0.1
			c0.1-1.3,1.3-2.4,3.2-2.4c1.9,0,3.1,1,3.1,2.6v5.5h-1.3V499h0c-0.5,0.9-1.4,1.5-2.5,1.5C140.4,500.4,139.4,499.5,139.4,498z
			 M142.3,499.3c1.3,0,2.2-0.9,2.2-2v-0.7l-2.1,0.1c-1.1,0.1-1.7,0.5-1.7,1.3v0C140.7,498.8,141.4,499.3,142.3,499.3z"/>
		<path d="M147.5,490.1c0-0.5,0.4-0.8,0.8-0.8c0.5,0,0.8,0.4,0.8,0.8c0,0.5-0.4,0.8-0.8,0.8C147.9,490.9,147.5,490.5,147.5,490.1z
			 M147.7,492.3h1.3v8h-1.3V492.3z"/>
		<path d="M150.9,489.2h1.3v11.1h-1.3V489.2z"/>
		<path d="M160.8,489.2h1.4l4.1,11.1h-1.5l-1.1-3.2h-4.5l-1.1,3.2h-1.5L160.8,489.2z M159.6,495.9h3.6l-1.8-5.1h0L159.6,495.9z"/>
		<path d="M167.3,492.3h1.3v1.4h0c0.3-0.9,1-1.5,1.9-1.5c0.2,0,0.4,0,0.5,0.1v1.3c-0.1,0-0.4-0.1-0.7-0.1c-1,0-1.7,0.7-1.7,1.9v4.9
			h-1.3V492.3z"/>
		<path d="M172.2,489.2h1.3v11.1h-1.3V489.2z"/>
		<path d="M175,496.3L175,496.3c0-2.5,1.4-4.2,3.6-4.2s3.5,1.6,3.5,4v0.5h-5.8c0,1.6,0.9,2.6,2.4,2.6c1,0,1.7-0.5,2-1.2l0-0.1h1.3
			l0,0.1c-0.3,1.3-1.6,2.4-3.3,2.4C176.4,500.4,175,498.8,175,496.3z M176.4,495.6h4.4c-0.1-1.6-1-2.3-2.2-2.3
			C177.4,493.3,176.5,494.1,176.4,495.6z"/>
		<path d="M183.9,498.2v-4.9h-1.2v-1.1h1.2v-2.2h1.4v2.2h1.5v1.1h-1.5v4.9c0,0.9,0.4,1.1,1.1,1.1c0.2,0,0.3,0,0.4,0v1.1
			c-0.2,0-0.5,0.1-0.7,0.1C184.6,500.4,183.9,499.8,183.9,498.2z"/>
		<path d="M187.9,498L187.9,498l1.3-0.1l0,0.1c0.2,0.8,0.8,1.3,1.8,1.3c1.1,0,1.7-0.5,1.7-1.2v0c0-0.6-0.3-0.9-1.2-1.1l-1.3-0.3
			c-1.5-0.4-2.2-1.1-2.2-2.2v0c0-1.4,1.2-2.4,2.9-2.4c1.8,0,2.9,1,3,2.4l0,0.1h-1.3l0-0.1c-0.1-0.8-0.7-1.3-1.7-1.3
			c-1,0-1.6,0.5-1.6,1.2v0c0,0.5,0.4,0.9,1.2,1.1l1.3,0.3c1.6,0.4,2.2,1,2.2,2.2v0c0,1.4-1.3,2.4-3.1,2.4
			C189.2,500.4,188,499.5,187.9,498z"/>
	</g>
</g>
<g>
	<g>
		<path d="M118.5,521.1h3.7c3.3,0,5.2,2,5.2,5.5v0c0,3.5-1.9,5.6-5.2,5.6h-3.7V521.1z M122.1,531c2.5,0,3.9-1.5,3.9-4.3v0
			c0-2.8-1.4-4.3-3.9-4.3h-2.3v8.6H122.1z"/>
		<path d="M128.6,528.3L128.6,528.3c0-2.6,1.5-4.2,3.7-4.2c2.2,0,3.7,1.6,3.7,4.1v0c0,2.6-1.5,4.2-3.7,4.2
			C130.1,532.4,128.6,530.8,128.6,528.3z M134.7,528.3L134.7,528.3c0-1.9-0.9-3-2.3-3c-1.4,0-2.3,1.1-2.3,3v0c0,1.9,0.9,3,2.3,3
			C133.7,531.2,134.7,530.1,134.7,528.3z"/>
		<path d="M136.7,524.2h1.3l1.6,6.5h0l1.8-6.5h1.3l1.8,6.5h0l1.6-6.5h1.3l-2.2,8H144l-1.8-6.2h0l-1.8,6.2H139L136.7,524.2z"/>
		<path d="M148.7,524.2h1.3v1.1h0c0.4-0.7,1.2-1.3,2.5-1.3c1.8,0,2.8,1.1,2.8,3v5.2h-1.3v-5c0-1.3-0.6-2-1.8-2
			c-1.3,0-2.1,0.9-2.1,2.3v4.7h-1.3V524.2z"/>
		<path d="M157,521.1h1.3v11.1H157V521.1z"/>
		<path d="M159.8,528.3L159.8,528.3c0-2.6,1.5-4.2,3.7-4.2c2.2,0,3.7,1.6,3.7,4.1v0c0,2.6-1.5,4.2-3.7,4.2
			C161.3,532.4,159.8,530.8,159.8,528.3z M165.8,528.3L165.8,528.3c0-1.9-0.9-3-2.3-3c-1.4,0-2.3,1.1-2.3,3v0c0,1.9,0.9,3,2.3,3
			C164.9,531.2,165.8,530.1,165.8,528.3z"/>
		<path d="M168.2,530L168.2,530c0-1.4,1.1-2.2,2.9-2.3l2.3-0.1v-0.7c0-1-0.6-1.6-1.8-1.6c-1,0-1.7,0.5-1.8,1.2l0,0.1h-1.3l0-0.1
			c0.1-1.3,1.3-2.4,3.2-2.4c1.9,0,3.1,1,3.1,2.6v5.5h-1.3V531h0c-0.5,0.9-1.4,1.5-2.5,1.5C169.3,532.4,168.2,531.5,168.2,530z
			 M171.2,531.3c1.3,0,2.2-0.9,2.2-2v-0.7l-2.1,0.1c-1.1,0.1-1.7,0.5-1.7,1.3v0C169.6,530.8,170.2,531.3,171.2,531.3z"/>
		<path d="M176.1,528.3L176.1,528.3c0-2.5,1.4-4.2,3.4-4.2c1.1,0,2.1,0.6,2.6,1.5h0v-4.4h1.3v11.1h-1.3v-1.4h0
			c-0.5,0.9-1.4,1.5-2.5,1.5C177.4,532.4,176.1,530.8,176.1,528.3z M182.1,528.3L182.1,528.3c0-1.8-1-3-2.3-3c-1.4,0-2.3,1.1-2.3,3
			v0c0,1.8,0.9,3,2.3,3C181.1,531.2,182.1,530.1,182.1,528.3z"/>
		<path d="M184.9,530L184.9,530l1.3-0.1l0,0.1c0.2,0.8,0.8,1.3,1.8,1.3c1.1,0,1.7-0.5,1.7-1.2v0c0-0.6-0.3-0.9-1.2-1.1l-1.3-0.3
			c-1.5-0.4-2.2-1.1-2.2-2.2v0c0-1.4,1.2-2.4,2.9-2.4c1.8,0,2.9,1,3,2.4l0,0.1h-1.3l0-0.1c-0.1-0.8-0.7-1.3-1.7-1.3
			c-1,0-1.6,0.5-1.6,1.2v0c0,0.5,0.4,0.9,1.2,1.1l1.3,0.3c1.6,0.4,2.2,1,2.2,2.2v0c0,1.4-1.3,2.4-3.1,2.4
			C186.2,532.4,185,531.5,184.9,530z"/>
	</g>
</g>
<path class="st0" d="M166.6,78.9H30.1c-8.1,0-14.7-6.6-14.7-14.7V39c0-8.1,6.6-14.7,14.7-14.7h136.6c8.1,0,14.7,6.6,14.7,14.7v25.1
	C181.4,72.3,174.8,78.9,166.6,78.9z"/>
<path class="st1" d="M460.4,78.9H323.8c-8.1,0-14.7-6.6-14.7-14.7V39c0-8.1,6.6-14.7,14.7-14.7h136.6c8.1,0,14.7,6.6,14.7,14.7v25.1
	C475.1,72.3,468.5,78.9,460.4,78.9z"/>
<path class="st2" d="M993.1,78.9H856.6c-8.1,0-14.7-6.6-14.7-14.7V39c0-8.1,6.6-14.7,14.7-14.7h136.6c8.1,0,14.7,6.6,14.7,14.7v25.1
	C1007.9,72.3,1001.3,78.9,993.1,78.9z"/>
<path class="st3" d="M1297.9,78.9h-136.6c-8.1,0-14.7-6.6-14.7-14.7V39c0-8.1,6.6-14.7,14.7-14.7h136.6c8.1,0,14.7,6.6,14.7,14.7
	v25.1C1312.6,72.3,1306,78.9,1297.9,78.9z"/>
<line class="st4" x1="57.8" y1="111.6" x2="69.8" y2="111.6"/>
<line class="st4" x1="57.8" y1="143.7" x2="69.8" y2="143.7"/>
<line class="st4" x1="57.8" y1="175.7" x2="69.8" y2="175.7"/>
<line class="st4" x1="57.8" y1="207.7" x2="69.8" y2="207.7"/>
<polyline class="st4" points="57.8,78.9 57.8,239.8 69.8,239.8 "/>
<g>
	<g>
		<path d="M374.7,106.2h1.4l4.1,11.1h-1.5l-1.1-3.2h-4.5l-1.1,3.2h-1.5L374.7,106.2z M373.6,112.9h3.6l-1.8-5.1h0L373.6,112.9z"/>
		<path d="M380.7,113.3L380.7,113.3c0-2.5,1.5-4.2,3.7-4.2c2,0,3.2,1.3,3.3,2.7l0,0.1h-1.3l0-0.1c-0.2-0.8-0.8-1.5-2-1.5
			c-1.4,0-2.3,1.2-2.3,3v0c0,1.9,1,3,2.3,3c1.1,0,1.8-0.6,2-1.5l0-0.1h1.3l0,0.1c-0.2,1.5-1.5,2.7-3.3,2.7
			C382.2,117.5,380.7,115.8,380.7,113.3z"/>
		<path d="M388.6,113.3L388.6,113.3c0-2.5,1.5-4.2,3.7-4.2c2,0,3.2,1.3,3.3,2.7l0,0.1h-1.3l0-0.1c-0.2-0.8-0.8-1.5-2-1.5
			c-1.4,0-2.3,1.2-2.3,3v0c0,1.9,1,3,2.3,3c1.1,0,1.8-0.6,2-1.5l0-0.1h1.3l0,0.1c-0.2,1.5-1.5,2.7-3.3,2.7
			C390.1,117.5,388.6,115.8,388.6,113.3z"/>
		<path d="M396.5,113.3L396.5,113.3c0-2.6,1.5-4.2,3.7-4.2c2.2,0,3.7,1.6,3.7,4.1v0c0,2.6-1.5,4.2-3.7,4.2
			C398,117.5,396.5,115.8,396.5,113.3z M402.6,113.3L402.6,113.3c0-1.9-0.9-3-2.3-3c-1.4,0-2.3,1.1-2.3,3v0c0,1.9,0.9,3,2.3,3
			C401.6,116.3,402.6,115.2,402.6,113.3z"/>
		<path d="M405.2,114.5v-5.2h1.3v5c0,1.3,0.6,2,1.8,2c1.3,0,2.1-0.9,2.1-2.3v-4.7h1.3v8h-1.3v-1.1h0c-0.4,0.7-1.2,1.3-2.5,1.3
			C406.3,117.5,405.2,116.3,405.2,114.5z"/>
		<path d="M413.6,109.3h1.3v1.1h0c0.4-0.7,1.2-1.3,2.5-1.3c1.8,0,2.8,1.1,2.8,3v5.2h-1.3v-5c0-1.3-0.6-2-1.8-2
			c-1.3,0-2.1,0.9-2.1,2.3v4.7h-1.3V109.3z"/>
		<path d="M422.3,115.3v-4.9h-1.2v-1.1h1.2v-2.2h1.4v2.2h1.5v1.1h-1.5v4.9c0,0.9,0.4,1.1,1.1,1.1c0.2,0,0.3,0,0.4,0v1.1
			c-0.2,0-0.5,0.1-0.7,0.1C423,117.5,422.3,116.8,422.3,115.3z"/>
		<path d="M426.3,115.1L426.3,115.1l1.3-0.1l0,0.1c0.2,0.8,0.8,1.3,1.8,1.3c1.1,0,1.7-0.5,1.7-1.2v0c0-0.6-0.3-0.9-1.2-1.1l-1.3-0.3
			c-1.5-0.4-2.2-1.1-2.2-2.2v0c0-1.4,1.2-2.4,2.9-2.4c1.8,0,2.9,1,3,2.4l0,0.1h-1.3l0-0.1c-0.1-0.8-0.7-1.3-1.7-1.3
			c-1,0-1.6,0.5-1.6,1.2v0c0,0.5,0.4,0.9,1.2,1.1l1.3,0.3c1.6,0.4,2.2,1,2.2,2.2v0c0,1.4-1.3,2.4-3.1,2.4
			C427.6,117.5,426.5,116.5,426.3,115.1z"/>
	</g>
</g>
<g>
	<g>
		<path d="M371,143.6L371,143.6c0-3.5,2-5.7,5.1-5.7c2.3,0,4.1,1.4,4.5,3.5l0,0.1h-1.4l-0.1-0.2c-0.4-1.3-1.5-2.1-3.1-2.1
			c-2.2,0-3.7,1.7-3.7,4.5v0c0,2.7,1.4,4.5,3.7,4.5c1.6,0,2.6-0.8,3.1-2.2l0-0.1h1.4l0,0.1c-0.4,2.1-2.2,3.5-4.5,3.5
			C373,149.3,371,147.1,371,143.6z"/>
		<path d="M381.7,146.9L381.7,146.9c0-1.4,1.1-2.2,2.9-2.3l2.3-0.1v-0.7c0-1-0.6-1.6-1.8-1.6c-1,0-1.7,0.5-1.8,1.2l0,0.1H382l0-0.1
			c0.1-1.3,1.3-2.4,3.2-2.4c1.9,0,3.1,1,3.1,2.6v5.5h-1.3v-1.3h0c-0.5,0.9-1.4,1.5-2.5,1.5C382.8,149.3,381.7,148.3,381.7,146.9z
			 M384.7,148.1c1.3,0,2.2-0.9,2.2-2v-0.7l-2.1,0.1c-1.1,0.1-1.7,0.5-1.7,1.3v0C383.1,147.6,383.7,148.1,384.7,148.1z"/>
		<path d="M390,141.1h1.3v1.4h0c0.3-0.9,1-1.5,1.9-1.5c0.2,0,0.4,0,0.5,0.1v1.3c-0.1,0-0.4-0.1-0.7-0.1c-1,0-1.7,0.7-1.7,1.9v4.9
			H390V141.1z"/>
		<path d="M394.1,145.1L394.1,145.1c0-2.5,1.4-4.2,3.4-4.2c1.1,0,2.1,0.6,2.6,1.5h0V138h1.3v11.1H400v-1.4h0
			c-0.5,0.9-1.4,1.5-2.5,1.5C395.4,149.3,394.1,147.6,394.1,145.1z M400,145.1L400,145.1c0-1.8-1-3-2.3-3c-1.4,0-2.3,1.1-2.3,3v0
			c0,1.8,0.9,3,2.3,3C399.1,148.1,400,146.9,400,145.1z"/>
		<path d="M402.8,146.9L402.8,146.9l1.3-0.1l0,0.1c0.2,0.8,0.8,1.3,1.8,1.3c1.1,0,1.7-0.5,1.7-1.2v0c0-0.6-0.3-0.9-1.2-1.1l-1.3-0.3
			c-1.5-0.4-2.2-1.1-2.2-2.2v0c0-1.4,1.2-2.4,2.9-2.4c1.8,0,2.9,1,3,2.4l0,0.1h-1.3l0-0.1c-0.1-0.8-0.7-1.3-1.7-1.3
			c-1,0-1.6,0.5-1.6,1.2v0c0,0.5,0.4,0.9,1.2,1.1l1.3,0.3c1.6,0.4,2.2,1,2.2,2.2v0c0,1.4-1.3,2.4-3.1,2.4
			C404.1,149.3,403,148.3,402.8,146.9z"/>
	</g>
</g>
<g>
	<g>
		<path d="M371.4,169.8h1.3l6.1,8.8h0v-8.8h1.4V181H379l-6.1-8.8h0v8.8h-1.4V169.8z"/>
		<path d="M382.5,169.8h1.6l3.9,9.4h0l3.9-9.4h1.6V181h-1.3v-8.6h0l-3.6,8.6h-1.2l-3.6-8.6h0v8.6h-1.3V169.8z"/>
		<path d="M395.6,169.8h4.2c1.9,0,3.2,1.1,3.2,2.8v0c0,1.1-0.9,2.3-2,2.4v0c1.6,0.2,2.6,1.3,2.6,2.7v0c0,2-1.4,3.1-3.8,3.1h-4.2
			V169.8z M397,171.1v3.6h2.1c1.6,0,2.5-0.7,2.5-1.9v0c0-1.1-0.8-1.7-2.1-1.7H397z M397,175.8v3.9h2.6c1.7,0,2.6-0.7,2.6-1.9v0
			c0-1.3-0.9-1.9-2.7-1.9H397z"/>
		<path d="M404.7,175.4L404.7,175.4c0-3.5,2-5.7,5.1-5.7c2.3,0,4.1,1.4,4.5,3.5l0,0.1h-1.4l-0.1-0.2c-0.4-1.3-1.5-2.1-3.1-2.1
			c-2.2,0-3.7,1.7-3.7,4.5v0c0,2.7,1.4,4.5,3.7,4.5c1.6,0,2.6-0.8,3.1-2.2l0-0.1h1.4l0,0.1c-0.4,2.1-2.2,3.5-4.5,3.5
			C406.7,181.1,404.7,178.9,404.7,175.4z"/>
		<path d="M415.3,176.9L415.3,176.9c0-2.6,1.5-4.2,3.7-4.2c2.2,0,3.7,1.6,3.7,4.1v0c0,2.6-1.5,4.2-3.7,4.2
			C416.8,181.1,415.3,179.5,415.3,176.9z M421.4,176.9L421.4,176.9c0-1.9-0.9-3-2.3-3c-1.4,0-2.3,1.1-2.3,3v0c0,1.9,0.9,3,2.3,3
			C420.5,179.9,421.4,178.8,421.4,176.9z"/>
		<path d="M424.1,172.9h1.3v1.1h0c0.4-0.7,1.2-1.3,2.5-1.3c1.8,0,2.8,1.1,2.8,3v5.2h-1.3v-5c0-1.3-0.6-2-1.8-2
			c-1.3,0-2.1,0.9-2.1,2.3v4.7h-1.3V172.9z"/>
		<path d="M432.4,172.9h1.3v1.1h0c0.4-0.7,1.2-1.3,2.5-1.3c1.8,0,2.8,1.1,2.8,3v5.2h-1.3v-5c0-1.3-0.6-2-1.8-2
			c-1.3,0-2.1,0.9-2.1,2.3v4.7h-1.3V172.9z"/>
		<path d="M440.3,177L440.3,177c0-2.5,1.4-4.2,3.6-4.2s3.5,1.6,3.5,4v0.5h-5.8c0,1.6,0.9,2.6,2.4,2.6c1,0,1.7-0.5,2-1.2l0-0.1h1.3
			l0,0.1c-0.3,1.3-1.6,2.4-3.3,2.4C441.7,181.1,440.3,179.5,440.3,177z M441.7,176.3h4.4c-0.1-1.6-1-2.3-2.2-2.3
			C442.8,174,441.9,174.8,441.7,176.3z"/>
		<path d="M448.4,176.9L448.4,176.9c0-2.5,1.5-4.2,3.7-4.2c2,0,3.2,1.3,3.3,2.7l0,0.1h-1.3l0-0.1c-0.2-0.8-0.8-1.5-2-1.5
			c-1.4,0-2.3,1.2-2.3,3v0c0,1.9,1,3,2.3,3c1.1,0,1.8-0.6,2-1.5l0-0.1h1.3l0,0.1c-0.2,1.5-1.5,2.7-3.3,2.7
			C449.8,181.1,448.4,179.5,448.4,176.9z"/>
		<path d="M457.1,178.9V174h-1.2v-1.1h1.2v-2.2h1.4v2.2h1.5v1.1h-1.5v4.9c0,0.9,0.4,1.1,1.1,1.1c0.2,0,0.3,0,0.4,0v1.1
			c-0.2,0-0.5,0.1-0.7,0.1C457.8,181.1,457.1,180.4,457.1,178.9z"/>
	</g>
</g>
<g>
	<g>
		<path d="M371.4,201.7h1.3l6.1,8.8h0v-8.8h1.4v11.1H379l-6.1-8.8h0v8.8h-1.4V201.7z"/>
		<path d="M382.5,201.7h1.6l3.9,9.4h0l3.9-9.4h1.6v11.1h-1.3v-8.6h0l-3.6,8.6h-1.2l-3.6-8.6h0v8.6h-1.3V201.7z"/>
		<path d="M395.6,201.7h4.2c1.9,0,3.2,1.1,3.2,2.8v0c0,1.1-0.9,2.3-2,2.4v0c1.6,0.2,2.6,1.3,2.6,2.7v0c0,2-1.4,3.1-3.8,3.1h-4.2
			V201.7z M397,202.9v3.6h2.1c1.6,0,2.5-0.7,2.5-1.9v0c0-1.1-0.8-1.7-2.1-1.7H397z M397,207.6v3.9h2.6c1.7,0,2.6-0.7,2.6-1.9v0
			c0-1.3-0.9-1.9-2.7-1.9H397z"/>
		<path d="M404.6,209.9l0-0.1h1.4l0,0.1c0.2,1.1,1.2,1.8,2.9,1.8c1.6,0,2.6-0.7,2.6-1.9v0c0-1-0.6-1.5-2.2-1.9l-1.2-0.3
			c-2.2-0.5-3.2-1.5-3.2-3.1v0c0-1.8,1.6-3.1,3.9-3.1c2.2,0,3.8,1.3,3.9,3.1l0,0.1h-1.4l0-0.1c-0.2-1.1-1.1-1.8-2.5-1.8
			c-1.5,0-2.5,0.7-2.5,1.8v0c0,0.9,0.7,1.5,2.1,1.8l1.2,0.3c2.3,0.5,3.2,1.4,3.2,3.1v0c0,2-1.6,3.2-4.1,3.2
			C406.3,213,404.7,211.8,404.6,209.9z"/>
		<path d="M414.2,210v-5.2h1.3v5c0,1.3,0.6,2,1.8,2c1.3,0,2.1-0.9,2.1-2.3v-4.7h1.3v8h-1.3v-1.1h0c-0.4,0.7-1.2,1.3-2.5,1.3
			C415.2,212.9,414.2,211.8,414.2,210z"/>
		<path d="M422.6,204.8h1.3v1.4h0c0.3-0.9,1-1.5,1.9-1.5c0.2,0,0.4,0,0.5,0.1v1.3c-0.1,0-0.4-0.1-0.7-0.1c-1,0-1.7,0.7-1.7,1.9v4.9
			h-1.3V204.8z"/>
		<path d="M426.7,208.8L426.7,208.8c0-2.5,1.4-4.2,3.6-4.2s3.5,1.6,3.5,4v0.5H428c0,1.6,0.9,2.6,2.4,2.6c1,0,1.7-0.5,2-1.2l0-0.1
			h1.3l0,0.1c-0.3,1.3-1.6,2.4-3.3,2.4C428,212.9,426.7,211.3,426.7,208.8z M428,208.1h4.4c-0.1-1.6-1-2.3-2.2-2.3
			C429.1,205.8,428.2,206.6,428,208.1z"/>
	</g>
</g>
<g>
	<g>
		<path d="M371.4,233.5h1.4v9.9h5.4v1.2h-6.8V233.5z"/>
		<path d="M378.9,240.6L378.9,240.6c0-2.6,1.5-4.2,3.7-4.2c2.2,0,3.7,1.6,3.7,4.1v0c0,2.6-1.5,4.2-3.7,4.2
			C380.4,244.8,378.9,243.1,378.9,240.6z M384.9,240.6L384.9,240.6c0-1.9-0.9-3-2.3-3c-1.4,0-2.3,1.1-2.3,3v0c0,1.9,0.9,3,2.3,3
			C384,243.6,384.9,242.5,384.9,240.6z"/>
		<path d="M387.3,242.3L387.3,242.3c0-1.4,1.1-2.2,2.9-2.3l2.3-0.1v-0.7c0-1-0.6-1.6-1.8-1.6c-1,0-1.7,0.5-1.8,1.2l0,0.1h-1.3l0-0.1
			c0.1-1.3,1.3-2.4,3.2-2.4c1.9,0,3.1,1,3.1,2.6v5.5h-1.3v-1.3h0c-0.5,0.9-1.4,1.5-2.5,1.5C388.4,244.8,387.3,243.8,387.3,242.3z
			 M390.3,243.6c1.3,0,2.2-0.9,2.2-2v-0.7l-2.1,0.1c-1.1,0.1-1.7,0.5-1.7,1.3v0C388.7,243.1,389.3,243.6,390.3,243.6z"/>
		<path d="M395.6,236.6h1.3v1.1h0c0.4-0.7,1.2-1.3,2.5-1.3c1.8,0,2.8,1.1,2.8,3v5.2h-1.3v-5c0-1.3-0.6-2-1.8-2
			c-1.3,0-2.1,0.9-2.1,2.3v4.7h-1.3V236.6z"/>
		<path d="M403.5,242.4L403.5,242.4l1.3-0.1l0,0.1c0.2,0.8,0.8,1.3,1.8,1.3c1.1,0,1.7-0.5,1.7-1.2v0c0-0.6-0.3-0.9-1.2-1.1L406,241
			c-1.5-0.4-2.2-1.1-2.2-2.2v0c0-1.4,1.2-2.4,2.9-2.4c1.8,0,2.9,1,3,2.4l0,0.1h-1.3l0-0.1c-0.1-0.8-0.7-1.3-1.7-1.3
			c-1,0-1.6,0.5-1.6,1.2v0c0,0.5,0.4,0.9,1.2,1.1l1.3,0.3c1.6,0.4,2.2,1,2.2,2.2v0c0,1.4-1.3,2.4-3.1,2.4
			C404.8,244.8,403.7,243.8,403.5,242.4z"/>
	</g>
</g>
<g>
	<g>
		<path d="M371.4,265.3h1.4v11.1h-1.4V265.3z"/>
		<path d="M374.8,268.4h1.3v1.1h0c0.4-0.7,1.2-1.3,2.5-1.3c1.8,0,2.8,1.1,2.8,3v5.2h-1.3v-5c0-1.3-0.6-2-1.8-2
			c-1.3,0-2.1,0.9-2.1,2.3v4.7h-1.3V268.4z"/>
		<path d="M382.4,268.4h1.4l2.2,6.6h0l2.2-6.6h1.4l-2.9,8h-1.4L382.4,268.4z"/>
		<path d="M390,272.5L390,272.5c0-2.5,1.4-4.2,3.6-4.2s3.5,1.6,3.5,4v0.5h-5.8c0,1.6,0.9,2.6,2.4,2.6c1,0,1.7-0.5,2-1.2l0-0.1h1.3
			l0,0.1c-0.3,1.3-1.6,2.4-3.3,2.4C391.4,276.6,390,275,390,272.5z M391.4,271.7h4.4c-0.1-1.6-1-2.3-2.2-2.3
			C392.4,269.4,391.5,270.2,391.4,271.7z"/>
		<path d="M398.1,274.2L398.1,274.2l1.3-0.1l0,0.1c0.2,0.8,0.8,1.3,1.8,1.3c1.1,0,1.7-0.5,1.7-1.2v0c0-0.6-0.3-0.9-1.2-1.1l-1.3-0.3
			c-1.5-0.4-2.2-1.1-2.2-2.2v0c0-1.4,1.2-2.4,2.9-2.4c1.8,0,2.9,1,3,2.4l0,0.1H403l0-0.1c-0.1-0.8-0.7-1.3-1.7-1.3
			c-1,0-1.6,0.5-1.6,1.2v0c0,0.5,0.4,0.9,1.2,1.1l1.3,0.3c1.6,0.4,2.2,1,2.2,2.2v0c0,1.4-1.3,2.4-3.1,2.4
			C399.4,276.6,398.3,275.6,398.1,274.2z"/>
		<path d="M406.2,274.4v-4.9h-1.2v-1.1h1.2v-2.2h1.4v2.2h1.5v1.1h-1.5v4.9c0,0.9,0.4,1.1,1.1,1.1c0.2,0,0.3,0,0.4,0v1.1
			c-0.2,0-0.5,0.1-0.7,0.1C407,276.6,406.2,275.9,406.2,274.4z"/>
		<path d="M410.6,268.4h1.3v1.2h0c0.4-0.8,1.2-1.3,2.2-1.3c1.1,0,1.9,0.6,2.2,1.5h0c0.4-1,1.4-1.5,2.5-1.5c1.6,0,2.6,1,2.6,2.6v5.5
			h-1.3v-5.2c0-1.1-0.6-1.8-1.7-1.8c-1.1,0-1.8,0.8-1.8,1.9v5.1h-1.3v-5.4c0-1-0.6-1.6-1.6-1.6c-1.1,0-1.8,0.8-1.8,2v5h-1.3V268.4z"
			/>
		<path d="M422.8,272.5L422.8,272.5c0-2.5,1.4-4.2,3.6-4.2s3.5,1.6,3.5,4v0.5h-5.8c0,1.6,0.9,2.6,2.4,2.6c1,0,1.7-0.5,2-1.2l0-0.1
			h1.3l0,0.1c-0.3,1.3-1.6,2.4-3.3,2.4C424.2,276.6,422.8,275,422.8,272.5z M424.2,271.7h4.4c-0.1-1.6-1-2.3-2.2-2.3
			C425.3,269.4,424.4,270.2,424.2,271.7z"/>
		<path d="M431.3,268.4h1.3v1.1h0c0.4-0.7,1.2-1.3,2.5-1.3c1.8,0,2.8,1.1,2.8,3v5.2h-1.3v-5c0-1.3-0.6-2-1.8-2
			c-1.3,0-2.1,0.9-2.1,2.3v4.7h-1.3V268.4z"/>
		<path d="M440,274.4v-4.9h-1.2v-1.1h1.2v-2.2h1.4v2.2h1.5v1.1h-1.5v4.9c0,0.9,0.4,1.1,1.1,1.1c0.2,0,0.3,0,0.4,0v1.1
			c-0.2,0-0.5,0.1-0.7,0.1C440.8,276.6,440,275.9,440,274.4z"/>
		<path d="M444,274.2L444,274.2l1.3-0.1l0,0.1c0.2,0.8,0.8,1.3,1.8,1.3c1.1,0,1.7-0.5,1.7-1.2v0c0-0.6-0.3-0.9-1.2-1.1l-1.3-0.3
			c-1.5-0.4-2.2-1.1-2.2-2.2v0c0-1.4,1.2-2.4,2.9-2.4c1.8,0,2.9,1,3,2.4l0,0.1h-1.3l0-0.1c-0.1-0.8-0.7-1.3-1.7-1.3
			c-1,0-1.6,0.5-1.6,1.2v0c0,0.5,0.4,0.9,1.2,1.1l1.3,0.3c1.6,0.4,2.2,1,2.2,2.2v0c0,1.4-1.3,2.4-3.1,2.4
			C445.3,276.6,444.2,275.6,444,274.2z"/>
	</g>
</g>
<g>
	<g>
		<path d="M371.4,297.1h4.2c2.1,0,3.5,1.3,3.5,3.3v0c0,1.5-0.8,2.7-2.2,3.2l2.6,4.6h-1.6l-2.4-4.4h-2.7v4.4h-1.4V297.1z
			 M375.5,302.6c1.4,0,2.2-0.8,2.2-2.1v0c0-1.3-0.9-2.1-2.3-2.1h-2.6v4.3H375.5z"/>
		<path d="M380.3,304.3L380.3,304.3c0-2.5,1.4-4.2,3.6-4.2s3.5,1.6,3.5,4v0.5h-5.8c0,1.6,0.9,2.6,2.4,2.6c1,0,1.7-0.5,2-1.2l0-0.1
			h1.3l0,0.1c-0.3,1.3-1.6,2.4-3.3,2.4C381.7,308.4,380.3,306.8,380.3,304.3z M381.7,303.6h4.4c-0.1-1.6-1-2.3-2.2-2.3
			C382.7,301.3,381.8,302.1,381.7,303.6z"/>
		<path d="M388.8,300.2h1.3v1.2h0c0.4-0.8,1.2-1.3,2.2-1.3c1.1,0,1.9,0.6,2.2,1.5h0c0.4-1,1.4-1.5,2.5-1.5c1.6,0,2.6,1,2.6,2.6v5.5
			h-1.3V303c0-1.1-0.6-1.8-1.7-1.8c-1.1,0-1.8,0.8-1.8,1.9v5.1h-1.3v-5.4c0-1-0.6-1.6-1.6-1.6c-1.1,0-1.8,0.8-1.8,2v5h-1.3V300.2z"
			/>
		<path d="M401.4,298c0-0.5,0.4-0.8,0.8-0.8c0.5,0,0.8,0.4,0.8,0.8c0,0.5-0.4,0.8-0.8,0.8C401.7,298.9,401.4,298.5,401.4,298z
			 M401.5,300.2h1.3v8h-1.3V300.2z"/>
		<path d="M405.1,306.2v-4.9h-1.2v-1.1h1.2v-2.2h1.4v2.2h1.5v1.1h-1.5v4.9c0,0.9,0.4,1.1,1.1,1.1c0.2,0,0.3,0,0.4,0v1.1
			c-0.2,0-0.5,0.1-0.7,0.1C405.8,308.4,405.1,307.7,405.1,306.2z"/>
		<path d="M409.8,306.2v-4.9h-1.2v-1.1h1.2v-2.2h1.4v2.2h1.5v1.1h-1.5v4.9c0,0.9,0.4,1.1,1.1,1.1c0.2,0,0.3,0,0.4,0v1.1
			c-0.2,0-0.5,0.1-0.7,0.1C410.6,308.4,409.8,307.7,409.8,306.2z"/>
		<path d="M413.7,306L413.7,306c0-1.4,1.1-2.2,2.9-2.3l2.3-0.1v-0.7c0-1-0.6-1.6-1.8-1.6c-1,0-1.7,0.5-1.8,1.2l0,0.1H414l0-0.1
			c0.1-1.3,1.3-2.4,3.2-2.4c1.9,0,3.1,1,3.1,2.6v5.5h-1.3V307h0c-0.5,0.9-1.4,1.5-2.5,1.5C414.8,308.4,413.7,307.4,413.7,306z
			 M416.7,307.2c1.3,0,2.2-0.9,2.2-2v-0.7l-2.1,0.1c-1.1,0.1-1.7,0.5-1.7,1.3v0C415.1,306.8,415.7,307.2,416.7,307.2z"/>
		<path d="M422,300.2h1.3v1.1h0c0.4-0.7,1.2-1.3,2.5-1.3c1.8,0,2.8,1.1,2.8,3v5.2h-1.3v-5c0-1.3-0.6-2-1.8-2c-1.3,0-2.1,0.9-2.1,2.3
			v4.7H422V300.2z"/>
		<path d="M429.9,304.2L429.9,304.2c0-2.5,1.5-4.2,3.7-4.2c2,0,3.2,1.3,3.3,2.7l0,0.1h-1.3l0-0.1c-0.2-0.8-0.8-1.5-2-1.5
			c-1.4,0-2.3,1.2-2.3,3v0c0,1.9,1,3,2.3,3c1.1,0,1.8-0.6,2-1.5l0-0.1h1.3l0,0.1c-0.2,1.5-1.5,2.7-3.3,2.7
			C431.3,308.4,429.9,306.8,429.9,304.2z"/>
		<path d="M437.8,304.3L437.8,304.3c0-2.5,1.4-4.2,3.6-4.2s3.5,1.6,3.5,4v0.5h-5.8c0,1.6,0.9,2.6,2.4,2.6c1,0,1.7-0.5,2-1.2l0-0.1
			h1.3l0,0.1c-0.3,1.3-1.6,2.4-3.3,2.4C439.2,308.4,437.8,306.8,437.8,304.3z M439.1,303.6h4.4c-0.1-1.6-1-2.3-2.2-2.3
			C440.2,301.3,439.3,302.1,439.1,303.6z"/>
		<path d="M445.9,306L445.9,306l1.3-0.1l0,0.1c0.2,0.8,0.8,1.3,1.8,1.3c1.1,0,1.7-0.5,1.7-1.2v0c0-0.6-0.3-0.9-1.2-1.1l-1.3-0.3
			c-1.5-0.4-2.2-1.1-2.2-2.2v0c0-1.4,1.2-2.4,2.9-2.4c1.8,0,2.9,1,3,2.4l0,0.1h-1.3l0-0.1c-0.1-0.8-0.7-1.3-1.7-1.3
			c-1,0-1.6,0.5-1.6,1.2v0c0,0.5,0.4,0.9,1.2,1.1l1.3,0.3c1.6,0.4,2.2,1,2.2,2.2v0c0,1.4-1.3,2.4-3.1,2.4
			C447.2,308.4,446.1,307.4,445.9,306z"/>
	</g>
</g>
<line class="st4" x1="351.4" y1="111.6" x2="363.5" y2="111.6"/>
<line class="st4" x1="351.4" y1="143.7" x2="363.5" y2="143.7"/>
<line class="st4" x1="351.4" y1="175.7" x2="363.5" y2="175.7"/>
<line class="st4" x1="351.4" y1="207.7" x2="363.5" y2="207.7"/>
<line class="st4" x1="351.4" y1="239.8" x2="363.5" y2="239.8"/>
<line class="st4" x1="351.4" y1="271.8" x2="363.5" y2="271.8"/>
<polyline class="st4" points="351.4,78.9 351.4,302.6 363.5,302.6 "/>
<g>
	<g>
		<path d="M634.1,106.2h4.2c1.9,0,3.2,1.1,3.2,2.8v0c0,1.1-0.9,2.3-2,2.4v0c1.6,0.2,2.6,1.3,2.6,2.7v0c0,2-1.4,3.1-3.8,3.1h-4.2
			V106.2z M635.5,107.4v3.6h2.1c1.6,0,2.5-0.7,2.5-1.9v0c0-1.1-0.8-1.7-2.1-1.7H635.5z M635.5,112.2v3.9h2.6c1.7,0,2.6-0.7,2.6-2v0
			c0-1.3-0.9-1.9-2.7-1.9H635.5z"/>
		<path d="M643.4,114.5v-5.2h1.3v5c0,1.3,0.6,2,1.8,2c1.3,0,2.1-0.9,2.1-2.3v-4.7h1.3v8h-1.3v-1.1h0c-0.4,0.7-1.2,1.3-2.5,1.3
			C644.4,117.5,643.4,116.3,643.4,114.5z"/>
		<path d="M651.4,115.1L651.4,115.1l1.3-0.1l0,0.1c0.2,0.8,0.8,1.3,1.8,1.3c1.1,0,1.7-0.5,1.7-1.2v0c0-0.6-0.3-0.9-1.2-1.1l-1.3-0.3
			c-1.5-0.4-2.2-1.1-2.2-2.2v0c0-1.4,1.2-2.4,2.9-2.4c1.8,0,2.9,1,3,2.4l0,0.1h-1.3l0-0.1c-0.1-0.8-0.7-1.3-1.7-1.3
			c-1,0-1.6,0.5-1.6,1.2v0c0,0.5,0.4,0.9,1.2,1.1l1.3,0.3c1.6,0.4,2.2,1,2.2,2.2v0c0,1.4-1.3,2.4-3.1,2.4
			C652.7,117.5,651.6,116.5,651.4,115.1z"/>
		<path d="M659,107.1c0-0.5,0.4-0.8,0.8-0.8c0.5,0,0.8,0.4,0.8,0.8c0,0.5-0.4,0.8-0.8,0.8C659.4,107.9,659,107.6,659,107.1z
			 M659.2,109.3h1.3v8h-1.3V109.3z"/>
		<path d="M662.3,109.3h1.3v1.1h0c0.4-0.7,1.2-1.3,2.5-1.3c1.8,0,2.8,1.1,2.8,3v5.2h-1.3v-5c0-1.3-0.6-2-1.8-2
			c-1.3,0-2.1,0.9-2.1,2.3v4.7h-1.3V109.3z"/>
		<path d="M670.3,113.3L670.3,113.3c0-2.5,1.4-4.2,3.6-4.2s3.5,1.6,3.5,4v0.5h-5.8c0,1.6,0.9,2.6,2.4,2.6c1,0,1.7-0.5,2-1.2l0-0.1
			h1.3l0,0.1c-0.3,1.3-1.6,2.4-3.3,2.4C671.6,117.5,670.3,115.8,670.3,113.3z M671.6,112.6h4.4c-0.1-1.6-1-2.3-2.2-2.3
			C672.7,110.3,671.8,111.1,671.6,112.6z"/>
		<path d="M678.4,115.1L678.4,115.1l1.3-0.1l0,0.1c0.2,0.8,0.8,1.3,1.8,1.3c1.1,0,1.7-0.5,1.7-1.2v0c0-0.6-0.3-0.9-1.2-1.1l-1.3-0.3
			c-1.5-0.4-2.2-1.1-2.2-2.2v0c0-1.4,1.2-2.4,2.9-2.4c1.8,0,2.9,1,3,2.4l0,0.1h-1.3l0-0.1c-0.1-0.8-0.7-1.3-1.7-1.3
			c-1,0-1.6,0.5-1.6,1.2v0c0,0.5,0.4,0.9,1.2,1.1l1.3,0.3c1.6,0.4,2.2,1,2.2,2.2v0c0,1.4-1.3,2.4-3.1,2.4
			C679.7,117.5,678.5,116.5,678.4,115.1z"/>
		<path d="M685.7,115.1L685.7,115.1l1.3-0.1l0,0.1c0.2,0.8,0.8,1.3,1.8,1.3c1.1,0,1.7-0.5,1.7-1.2v0c0-0.6-0.3-0.9-1.2-1.1l-1.3-0.3
			c-1.5-0.4-2.2-1.1-2.2-2.2v0c0-1.4,1.2-2.4,2.9-2.4c1.8,0,2.9,1,3,2.4l0,0.1h-1.3l0-0.1c-0.1-0.8-0.7-1.3-1.7-1.3
			c-1,0-1.6,0.5-1.6,1.2v0c0,0.5,0.4,0.9,1.2,1.1l1.3,0.3c1.6,0.4,2.2,1,2.2,2.2v0c0,1.4-1.3,2.4-3.1,2.4
			C687,117.5,685.9,116.5,685.7,115.1z"/>
		<path d="M696.8,106.2h4.2c1.9,0,3.2,1.1,3.2,2.8v0c0,1.1-0.9,2.3-2,2.4v0c1.6,0.2,2.6,1.3,2.6,2.7v0c0,2-1.4,3.1-3.8,3.1h-4.2
			V106.2z M698.2,107.4v3.6h2.1c1.6,0,2.5-0.7,2.5-1.9v0c0-1.1-0.8-1.7-2.1-1.7H698.2z M698.2,112.2v3.9h2.6c1.7,0,2.6-0.7,2.6-2v0
			c0-1.3-0.9-1.9-2.7-1.9H698.2z"/>
		<path d="M705.8,115L705.8,115c0-1.4,1.1-2.2,2.9-2.3l2.3-0.1v-0.7c0-1-0.6-1.6-1.8-1.6c-1,0-1.7,0.5-1.8,1.2l0,0.1h-1.3l0-0.1
			c0.1-1.3,1.3-2.4,3.2-2.4c1.9,0,3.1,1,3.1,2.6v5.5H711V116h0c-0.5,0.9-1.4,1.5-2.5,1.5C706.9,117.5,705.8,116.5,705.8,115z
			 M708.8,116.3c1.3,0,2.2-0.9,2.2-2v-0.7l-2.1,0.1c-1.1,0.1-1.7,0.5-1.7,1.3v0C707.2,115.8,707.8,116.3,708.8,116.3z"/>
		<path d="M714.1,109.3h1.3v1.1h0c0.4-0.7,1.2-1.3,2.5-1.3c1.8,0,2.8,1.1,2.8,3v5.2h-1.3v-5c0-1.3-0.6-2-1.8-2
			c-1.3,0-2.1,0.9-2.1,2.3v4.7h-1.3V109.3z"/>
		<path d="M722.5,106.2h1.3v6.6h0l3.5-3.5h1.6l-3.5,3.5l3.6,4.6h-1.6l-3-3.7l-0.7,0.7v3h-1.3V106.2z"/>
		<path d="M730,107.1c0-0.5,0.4-0.8,0.8-0.8c0.5,0,0.8,0.4,0.8,0.8c0,0.5-0.4,0.8-0.8,0.8C730.3,107.9,730,107.6,730,107.1z
			 M730.1,109.3h1.3v8h-1.3V109.3z"/>
		<path d="M733.3,109.3h1.3v1.1h0c0.4-0.7,1.2-1.3,2.5-1.3c1.8,0,2.8,1.1,2.8,3v5.2h-1.3v-5c0-1.3-0.6-2-1.8-2
			c-1.3,0-2.1,0.9-2.1,2.3v4.7h-1.3V109.3z"/>
		<path d="M741.5,118L741.5,118l1.3-0.1l0,0.1c0.3,0.6,1,0.9,2.1,0.9c1.4,0,2.2-0.8,2.2-2v-1h0c-0.5,0.9-1.4,1.5-2.6,1.5
			c-2,0-3.4-1.6-3.4-4.1v0c0-2.5,1.4-4.1,3.4-4.1c1.1,0,2,0.6,2.5,1.5h0v-1.4h1.3v7.8c0,1.9-1.4,3.1-3.5,3.1
			C743,120.2,741.8,119.2,741.5,118z M747.2,113.2L747.2,113.2c0-1.8-0.9-2.9-2.3-2.9c-1.4,0-2.3,1.1-2.3,2.9v0
			c0,1.8,0.9,2.9,2.3,2.9C746.3,116.2,747.2,115,747.2,113.2z"/>
	</g>
</g>
<g>
	<g>
		<path d="M634.1,138h1.4v11.1h-1.4V138z"/>
		<path d="M637.4,141.1h1.3v1.1h0c0.4-0.7,1.2-1.3,2.5-1.3c1.8,0,2.8,1.1,2.8,3v5.2h-1.3v-5c0-1.3-0.6-2-1.8-2
			c-1.3,0-2.1,0.9-2.1,2.3v4.7h-1.3V141.1z"/>
		<path d="M645.1,141.1h1.4l2.2,6.6h0l2.2-6.6h1.4l-2.9,8H648L645.1,141.1z"/>
		<path d="M652.7,145.2L652.7,145.2c0-2.5,1.4-4.2,3.6-4.2s3.5,1.6,3.5,4v0.5H654c0,1.6,0.9,2.6,2.4,2.6c1,0,1.7-0.5,2-1.2l0-0.1
			h1.3l0,0.1c-0.3,1.3-1.6,2.4-3.3,2.4C654.1,149.3,652.7,147.7,652.7,145.2z M654,144.4h4.4c-0.1-1.6-1-2.3-2.2-2.3
			C655.1,142.1,654.2,142.9,654,144.4z"/>
		<path d="M660.8,146.9L660.8,146.9l1.3-0.1l0,0.1c0.2,0.8,0.8,1.3,1.8,1.3c1.1,0,1.7-0.5,1.7-1.2v0c0-0.6-0.3-0.9-1.2-1.1l-1.3-0.3
			c-1.5-0.4-2.2-1.1-2.2-2.2v0c0-1.4,1.2-2.4,2.9-2.4c1.8,0,2.9,1,3,2.4l0,0.1h-1.3l0-0.1c-0.1-0.8-0.7-1.3-1.7-1.3
			c-1,0-1.6,0.5-1.6,1.2v0c0,0.5,0.4,0.9,1.2,1.1l1.3,0.3c1.6,0.4,2.2,1,2.2,2.2v0c0,1.4-1.3,2.4-3.1,2.4
			C662.1,149.3,661,148.3,660.8,146.9z"/>
		<path d="M668.9,147.1v-4.9h-1.2v-1.1h1.2v-2.2h1.4v2.2h1.5v1.1h-1.5v4.9c0,0.9,0.4,1.1,1.1,1.1c0.2,0,0.3,0,0.4,0v1.1
			c-0.2,0-0.5,0.1-0.7,0.1C669.6,149.3,668.9,148.6,668.9,147.1z"/>
		<path d="M673.2,141.1h1.3v1.2h0c0.4-0.8,1.2-1.3,2.2-1.3c1.1,0,1.9,0.6,2.2,1.5h0c0.4-1,1.4-1.5,2.5-1.5c1.6,0,2.6,1,2.6,2.6v5.5
			h-1.3v-5.2c0-1.1-0.6-1.8-1.7-1.8c-1.1,0-1.8,0.8-1.8,1.9v5.1H678v-5.4c0-1-0.6-1.6-1.6-1.6c-1.1,0-1.8,0.8-1.8,2v5h-1.3V141.1z"
			/>
		<path d="M685.5,145.2L685.5,145.2c0-2.5,1.4-4.2,3.6-4.2s3.5,1.6,3.5,4v0.5h-5.8c0,1.6,0.9,2.6,2.4,2.6c1,0,1.7-0.5,2-1.2l0-0.1
			h1.3l0,0.1c-0.3,1.3-1.6,2.4-3.3,2.4C686.9,149.3,685.5,147.7,685.5,145.2z M686.9,144.4h4.4c-0.1-1.6-1-2.3-2.2-2.3
			C687.9,142.1,687,142.9,686.9,144.4z"/>
		<path d="M694,141.1h1.3v1.1h0c0.4-0.7,1.2-1.3,2.5-1.3c1.8,0,2.8,1.1,2.8,3v5.2h-1.3v-5c0-1.3-0.6-2-1.8-2c-1.3,0-2.1,0.9-2.1,2.3
			v4.7H694V141.1z"/>
		<path d="M702.7,147.1v-4.9h-1.2v-1.1h1.2v-2.2h1.4v2.2h1.5v1.1h-1.5v4.9c0,0.9,0.4,1.1,1.1,1.1c0.2,0,0.3,0,0.4,0v1.1
			c-0.2,0-0.5,0.1-0.7,0.1C703.4,149.3,702.7,148.6,702.7,147.1z"/>
		<path d="M706.7,146.9L706.7,146.9l1.3-0.1l0,0.1c0.2,0.8,0.8,1.3,1.8,1.3c1.1,0,1.7-0.5,1.7-1.2v0c0-0.6-0.3-0.9-1.2-1.1l-1.3-0.3
			c-1.5-0.4-2.2-1.1-2.2-2.2v0c0-1.4,1.2-2.4,2.9-2.4c1.8,0,2.9,1,3,2.4l0,0.1h-1.3l0-0.1c-0.1-0.8-0.7-1.3-1.7-1.3
			c-1,0-1.6,0.5-1.6,1.2v0c0,0.5,0.4,0.9,1.2,1.1l1.3,0.3c1.6,0.4,2.2,1,2.2,2.2v0c0,1.4-1.3,2.4-3.1,2.4
			C708,149.3,706.9,148.3,706.7,146.9z"/>
	</g>
</g>
<g>
	<g>
		<path d="M633.4,169.8h1.4l2.2,9.1h0l2.5-9.1h1.4l2.5,9.1h0l2.2-9.1h1.4l-3,11.1h-1.3l-2.6-8.9h0l-2.6,8.9h-1.3L633.4,169.8z"/>
		<path d="M647.1,178.7L647.1,178.7c0-1.4,1.1-2.2,2.9-2.3l2.3-0.1v-0.7c0-1-0.6-1.6-1.8-1.6c-1,0-1.7,0.5-1.8,1.2l0,0.1h-1.3l0-0.1
			c0.1-1.3,1.3-2.4,3.2-2.4c1.9,0,3.1,1,3.1,2.6v5.5h-1.3v-1.3h0c-0.5,0.9-1.4,1.5-2.5,1.5C648.1,181.1,647.1,180.1,647.1,178.7z
			 M650,179.9c1.3,0,2.2-0.9,2.2-2v-0.7l-2.1,0.1c-1.1,0.1-1.7,0.5-1.7,1.3v0C648.4,179.5,649.1,179.9,650,179.9z"/>
		<path d="M655.4,183.6v-1.1c0.1,0,0.3,0,0.4,0c0.8,0,1.3-0.2,1.6-1.1l0.2-0.5l-3-8h1.4l2.2,6.7h0l2.2-6.7h1.4l-3.1,8.5
			c-0.6,1.5-1.3,2.2-2.7,2.2C655.8,183.6,655.5,183.6,655.4,183.6z"/>
		<path d="M662.6,178.7L662.6,178.7l1.3-0.1l0,0.1c0.2,0.8,0.8,1.3,1.8,1.3c1.1,0,1.7-0.5,1.7-1.2v0c0-0.6-0.3-0.9-1.2-1.1l-1.3-0.3
			c-1.5-0.4-2.2-1.1-2.2-2.2v0c0-1.4,1.2-2.4,2.9-2.4c1.8,0,2.9,1,3,2.4l0,0.1h-1.3l0-0.1c-0.1-0.8-0.7-1.3-1.7-1.3
			c-1,0-1.6,0.5-1.6,1.2v0c0,0.5,0.4,0.9,1.2,1.1l1.3,0.3c1.6,0.4,2.2,1,2.2,2.2v0c0,1.4-1.3,2.4-3.1,2.4
			C663.9,181.1,662.8,180.1,662.6,178.7z"/>
		<path d="M674,178.9V174h-1.2v-1.1h1.2v-2.2h1.4v2.2h1.5v1.1h-1.5v4.9c0,0.9,0.4,1.1,1.1,1.1c0.2,0,0.3,0,0.4,0v1.1
			c-0.2,0-0.5,0.1-0.7,0.1C674.7,181.1,674,180.4,674,178.9z"/>
		<path d="M677.7,176.9L677.7,176.9c0-2.6,1.5-4.2,3.7-4.2c2.2,0,3.7,1.6,3.7,4.1v0c0,2.6-1.5,4.2-3.7,4.2
			C679.2,181.1,677.7,179.5,677.7,176.9z M683.7,176.9L683.7,176.9c0-1.9-0.9-3-2.3-3c-1.4,0-2.3,1.1-2.3,3v0c0,1.9,0.9,3,2.3,3
			C682.8,179.9,683.7,178.8,683.7,176.9z"/>
		<path d="M689.9,169.8h4.2c1.9,0,3.2,1.1,3.2,2.8v0c0,1.1-0.9,2.3-2,2.4v0c1.6,0.2,2.6,1.3,2.6,2.7v0c0,2-1.4,3.1-3.8,3.1h-4.2
			V169.8z M691.3,171.1v3.6h2.1c1.6,0,2.5-0.7,2.5-1.9v0c0-1.1-0.8-1.7-2.1-1.7H691.3z M691.3,175.8v3.9h2.6c1.7,0,2.6-0.7,2.6-1.9
			v0c0-1.3-0.9-1.9-2.7-1.9H691.3z"/>
		<path d="M698.9,178.7L698.9,178.7c0-1.4,1.1-2.2,2.9-2.3l2.3-0.1v-0.7c0-1-0.6-1.6-1.8-1.6c-1,0-1.7,0.5-1.8,1.2l0,0.1h-1.3l0-0.1
			c0.1-1.3,1.3-2.4,3.2-2.4c1.9,0,3.1,1,3.1,2.6v5.5h-1.3v-1.3h0c-0.5,0.9-1.4,1.5-2.5,1.5C700,181.1,698.9,180.1,698.9,178.7z
			 M701.9,179.9c1.3,0,2.2-0.9,2.2-2v-0.7l-2.1,0.1c-1.1,0.1-1.7,0.5-1.7,1.3v0C700.3,179.5,700.9,179.9,701.9,179.9z"/>
		<path d="M707.1,172.9h1.3v1.1h0c0.4-0.7,1.2-1.3,2.5-1.3c1.8,0,2.8,1.1,2.8,3v5.2h-1.3v-5c0-1.3-0.6-2-1.8-2
			c-1.3,0-2.1,0.9-2.1,2.3v4.7h-1.3V172.9z"/>
		<path d="M715.6,169.8h1.3v6.6h0l3.5-3.5h1.6l-3.5,3.5l3.6,4.6h-1.6l-3-3.7l-0.7,0.7v3h-1.3V169.8z"/>
	</g>
</g>
<g>
	<g>
		<path d="M634.1,201.7h1.3l6.1,8.8h0v-8.8h1.4v11.1h-1.3l-6.1-8.8h0v8.8h-1.4V201.7z"/>
		<path d="M645.1,201.7h1.6l3.9,9.4h0l3.9-9.4h1.6v11.1h-1.3v-8.6h0l-3.6,8.6H650l-3.6-8.6h0v8.6h-1.3V201.7z"/>
		<path d="M658.2,201.7h4.2c1.9,0,3.2,1.1,3.2,2.8v0c0,1.1-0.9,2.3-2,2.4v0c1.6,0.2,2.6,1.3,2.6,2.7v0c0,2-1.4,3.1-3.8,3.1h-4.2
			V201.7z M659.6,202.9v3.6h2.1c1.6,0,2.5-0.7,2.5-1.9v0c0-1.1-0.8-1.7-2.1-1.7H659.6z M659.6,207.6v3.9h2.6c1.7,0,2.6-0.7,2.6-1.9
			v0c0-1.3-0.9-1.9-2.7-1.9H659.6z"/>
		<path d="M667.2,209.9l0-0.1h1.4l0,0.1c0.2,1.1,1.2,1.8,2.9,1.8c1.6,0,2.6-0.7,2.6-1.9v0c0-1-0.6-1.5-2.2-1.9l-1.2-0.3
			c-2.2-0.5-3.2-1.5-3.2-3.1v0c0-1.8,1.6-3.1,3.9-3.1c2.2,0,3.8,1.3,3.9,3.1l0,0.1h-1.4l0-0.1c-0.2-1.1-1.1-1.8-2.5-1.8
			c-1.5,0-2.5,0.7-2.5,1.8v0c0,0.9,0.7,1.5,2.1,1.8l1.2,0.3c2.3,0.5,3.2,1.4,3.2,3.1v0c0,2-1.6,3.2-4.1,3.2
			C669,213,667.4,211.8,667.2,209.9z"/>
		<path d="M676.9,210v-5.2h1.3v5c0,1.3,0.6,2,1.8,2c1.3,0,2.1-0.9,2.1-2.3v-4.7h1.3v8h-1.3v-1.1h0c-0.4,0.7-1.2,1.3-2.5,1.3
			C677.9,212.9,676.9,211.8,676.9,210z"/>
		<path d="M685.2,204.8h1.3v1.4h0c0.3-0.9,1-1.5,1.9-1.5c0.2,0,0.4,0,0.5,0.1v1.3c-0.1,0-0.4-0.1-0.7-0.1c-1,0-1.7,0.7-1.7,1.9v4.9
			h-1.3V204.8z"/>
		<path d="M689.3,208.8L689.3,208.8c0-2.5,1.4-4.2,3.6-4.2s3.5,1.6,3.5,4v0.5h-5.8c0,1.6,0.9,2.6,2.4,2.6c1,0,1.7-0.5,2-1.2l0-0.1
			h1.3l0,0.1c-0.3,1.3-1.6,2.4-3.3,2.4C690.7,212.9,689.3,211.3,689.3,208.8z M690.7,208.1h4.4c-0.1-1.6-1-2.3-2.2-2.3
			C691.8,205.8,690.8,206.6,690.7,208.1z"/>
	</g>
</g>
<line class="st4" x1="614.1" y1="111.6" x2="626.2" y2="111.6"/>
<line class="st4" x1="614.1" y1="143.7" x2="626.2" y2="143.7"/>
<line class="st4" x1="614.1" y1="175.7" x2="626.2" y2="175.7"/>
<polyline class="st4" points="614.1,78.9 614.1,207.7 626.2,207.7 "/>
<g>
	<g>
		<path d="M904.7,106.2h1.6l3.9,9.4h0l3.9-9.4h1.6v11.1h-1.3v-8.6h0l-3.6,8.6h-1.2l-3.6-8.6h0v8.6h-1.3V106.2z"/>
		<path d="M917.2,113.3L917.2,113.3c0-2.6,1.5-4.2,3.7-4.2s3.7,1.6,3.7,4.1v0c0,2.6-1.5,4.2-3.7,4.2
			C918.7,117.5,917.2,115.8,917.2,113.3z M923.2,113.3L923.2,113.3c0-1.9-0.9-3-2.3-3c-1.4,0-2.3,1.1-2.3,3v0c0,1.9,0.9,3,2.3,3
			C922.3,116.3,923.2,115.2,923.2,113.3z"/>
		<path d="M925.9,109.3h1.3v1.4h0c0.3-0.9,1-1.5,1.9-1.5c0.2,0,0.4,0,0.5,0.1v1.3c-0.1,0-0.4-0.1-0.7-0.1c-1,0-1.7,0.7-1.7,1.9v4.9
			h-1.3V109.3z"/>
		<path d="M931.6,115.3v-4.9h-1.2v-1.1h1.2v-2.2h1.4v2.2h1.5v1.1H933v4.9c0,0.9,0.4,1.1,1.1,1.1c0.2,0,0.3,0,0.4,0v1.1
			c-0.2,0-0.5,0.1-0.7,0.1C932.3,117.5,931.6,116.8,931.6,115.3z"/>
		<path d="M935.6,118L935.6,118l1.3-0.1l0,0.1c0.3,0.6,1,0.9,2.1,0.9c1.4,0,2.2-0.8,2.2-2v-1h0c-0.5,0.9-1.4,1.5-2.6,1.5
			c-2,0-3.4-1.6-3.4-4.1v0c0-2.5,1.4-4.1,3.4-4.1c1.1,0,2,0.6,2.5,1.5h0v-1.4h1.3v7.8c0,1.9-1.4,3.1-3.5,3.1
			C937.1,120.2,935.9,119.2,935.6,118z M941.3,113.2L941.3,113.2c0-1.8-0.9-2.9-2.3-2.9c-1.4,0-2.3,1.1-2.3,2.9v0
			c0,1.8,0.9,2.9,2.3,2.9C940.4,116.2,941.3,115,941.3,113.2z"/>
		<path d="M944,115L944,115c0-1.4,1.1-2.2,2.9-2.3l2.3-0.1v-0.7c0-1-0.6-1.6-1.8-1.6c-1,0-1.7,0.5-1.8,1.2l0,0.1h-1.3l0-0.1
			c0.1-1.3,1.3-2.4,3.2-2.4c1.9,0,3.1,1,3.1,2.6v5.5h-1.3V116h0c-0.5,0.9-1.4,1.5-2.5,1.5C945.1,117.5,944,116.5,944,115z
			 M947,116.3c1.3,0,2.2-0.9,2.2-2v-0.7l-2.1,0.1c-1.1,0.1-1.7,0.5-1.7,1.3v0C945.4,115.8,946,116.3,947,116.3z"/>
		<path d="M952.2,118L952.2,118l1.3-0.1l0,0.1c0.3,0.6,1,0.9,2.1,0.9c1.4,0,2.2-0.8,2.2-2v-1h0c-0.5,0.9-1.4,1.5-2.6,1.5
			c-2,0-3.4-1.6-3.4-4.1v0c0-2.5,1.4-4.1,3.4-4.1c1.1,0,2,0.6,2.5,1.5h0v-1.4h1.3v7.8c0,1.9-1.4,3.1-3.5,3.1
			C953.7,120.2,952.4,119.2,952.2,118z M957.9,113.2L957.9,113.2c0-1.8-0.9-2.9-2.3-2.9c-1.4,0-2.3,1.1-2.3,2.9v0
			c0,1.8,0.9,2.9,2.3,2.9C956.9,116.2,957.9,115,957.9,113.2z"/>
		<path d="M960.5,113.3L960.5,113.3c0-2.5,1.4-4.2,3.6-4.2c2.2,0,3.5,1.6,3.5,4v0.5h-5.8c0,1.6,0.9,2.6,2.4,2.6c1,0,1.7-0.5,2-1.2
			l0-0.1h1.3l0,0.1c-0.3,1.3-1.6,2.4-3.3,2.4C961.9,117.5,960.5,115.8,960.5,113.3z M961.9,112.6h4.4c-0.1-1.6-1-2.3-2.2-2.3
			C963,110.3,962.1,111.1,961.9,112.6z"/>
		<path d="M972,111.7L972,111.7c0-3.5,2-5.7,5.1-5.7c2.3,0,4.1,1.4,4.5,3.5l0,0.1h-1.4l-0.1-0.2c-0.4-1.3-1.5-2.1-3.1-2.1
			c-2.2,0-3.7,1.7-3.7,4.5v0c0,2.7,1.4,4.5,3.7,4.5c1.6,0,2.6-0.8,3.1-2.2l0-0.1h1.4l0,0.1c-0.4,2.1-2.2,3.5-4.5,3.5
			C974,117.5,972,115.2,972,111.7z"/>
		<path d="M982.7,115L982.7,115c0-1.4,1.1-2.2,2.9-2.3l2.3-0.1v-0.7c0-1-0.6-1.6-1.8-1.6c-1,0-1.7,0.5-1.8,1.2l0,0.1H983l0-0.1
			c0.1-1.3,1.3-2.4,3.2-2.4c1.9,0,3.1,1,3.1,2.6v5.5h-1.3V116h0c-0.5,0.9-1.4,1.5-2.5,1.5C983.8,117.5,982.7,116.5,982.7,115z
			 M985.7,116.3c1.3,0,2.2-0.9,2.2-2v-0.7l-2.1,0.1c-1.1,0.1-1.7,0.5-1.7,1.3v0C984.1,115.8,984.7,116.3,985.7,116.3z"/>
		<path d="M991,106.2h1.3v11.1H991V106.2z"/>
		<path d="M993.8,113.3L993.8,113.3c0-2.5,1.5-4.2,3.7-4.2c2,0,3.2,1.3,3.3,2.7l0,0.1h-1.3l0-0.1c-0.2-0.8-0.8-1.5-2-1.5
			c-1.4,0-2.3,1.2-2.3,3v0c0,1.9,1,3,2.3,3c1.1,0,1.8-0.6,2-1.5l0-0.1h1.3l0,0.1c-0.2,1.5-1.5,2.7-3.3,2.7
			C995.2,117.5,993.8,115.8,993.8,113.3z"/>
		<path d="M1002.1,114.5v-5.2h1.3v5c0,1.3,0.6,2,1.8,2c1.3,0,2.1-0.9,2.1-2.3v-4.7h1.3v8h-1.3v-1.1h0c-0.4,0.7-1.2,1.3-2.5,1.3
			C1003.1,117.5,1002.1,116.3,1002.1,114.5z"/>
		<path d="M1010.5,106.2h1.3v11.1h-1.3V106.2z"/>
		<path d="M1013.3,115L1013.3,115c0-1.4,1.1-2.2,2.9-2.3l2.3-0.1v-0.7c0-1-0.6-1.6-1.8-1.6c-1,0-1.7,0.5-1.8,1.2l0,0.1h-1.3l0-0.1
			c0.1-1.3,1.3-2.4,3.2-2.4c1.9,0,3.1,1,3.1,2.6v5.5h-1.3V116h0c-0.5,0.9-1.4,1.5-2.5,1.5C1014.4,117.5,1013.3,116.5,1013.3,115z
			 M1016.3,116.3c1.3,0,2.2-0.9,2.2-2v-0.7l-2.1,0.1c-1.1,0.1-1.7,0.5-1.7,1.3v0C1014.7,115.8,1015.3,116.3,1016.3,116.3z"/>
		<path d="M1021.9,115.3v-4.9h-1.2v-1.1h1.2v-2.2h1.4v2.2h1.5v1.1h-1.5v4.9c0,0.9,0.4,1.1,1.1,1.1c0.2,0,0.3,0,0.4,0v1.1
			c-0.2,0-0.5,0.1-0.7,0.1C1022.7,117.5,1021.9,116.8,1021.9,115.3z"/>
		<path d="M1025.7,113.3L1025.7,113.3c0-2.6,1.5-4.2,3.7-4.2c2.2,0,3.7,1.6,3.7,4.1v0c0,2.6-1.5,4.2-3.7,4.2
			C1027.2,117.5,1025.7,115.8,1025.7,113.3z M1031.7,113.3L1031.7,113.3c0-1.9-0.9-3-2.3-3c-1.4,0-2.3,1.1-2.3,3v0
			c0,1.9,0.9,3,2.3,3C1030.8,116.3,1031.7,115.2,1031.7,113.3z"/>
		<path d="M1034.4,109.3h1.3v1.4h0c0.3-0.9,1-1.5,1.9-1.5c0.2,0,0.4,0,0.5,0.1v1.3c-0.1,0-0.4-0.1-0.7-0.1c-1,0-1.7,0.7-1.7,1.9v4.9
			h-1.3V109.3z"/>
	</g>
</g>
<g>
	<g>
		<path d="M903.8,138h1.5l3.3,9.5h0l3.3-9.5h1.5l-4.1,11.1h-1.4L903.8,138z"/>
		<path d="M912.9,145.2L912.9,145.2c0-2.5,1.4-4.2,3.6-4.2c2.2,0,3.5,1.6,3.5,4v0.5h-5.8c0,1.6,0.9,2.6,2.4,2.6c1,0,1.7-0.5,2-1.2
			l0-0.1h1.3l0,0.1c-0.3,1.3-1.6,2.4-3.3,2.4C914.3,149.3,912.9,147.7,912.9,145.2z M914.3,144.4h4.4c-0.1-1.6-1-2.3-2.2-2.3
			C915.4,142.1,914.5,142.9,914.3,144.4z"/>
		<path d="M921.5,138h1.3v4.4h0c0.4-0.9,1.3-1.4,2.5-1.4c1.7,0,2.9,1.3,2.9,3.3v4.9h-1.3v-4.7c0-1.4-0.7-2.3-2-2.3
			c-1.2,0-2.1,0.9-2.1,2.3v4.7h-1.3V138z"/>
		<path d="M929.8,138.9c0-0.5,0.4-0.8,0.8-0.8c0.5,0,0.8,0.4,0.8,0.8c0,0.5-0.4,0.8-0.8,0.8C930.2,139.8,929.8,139.4,929.8,138.9z
			 M930,141.1h1.3v8H930V141.1z"/>
		<path d="M932.8,145.1L932.8,145.1c0-2.5,1.5-4.2,3.7-4.2c2,0,3.2,1.3,3.3,2.7l0,0.1h-1.3l0-0.1c-0.2-0.8-0.8-1.5-2-1.5
			c-1.4,0-2.3,1.2-2.3,3v0c0,1.9,1,3,2.3,3c1.1,0,1.8-0.6,2-1.5l0-0.1h1.3l0,0.1c-0.2,1.5-1.5,2.7-3.3,2.7
			C934.2,149.3,932.8,147.7,932.8,145.1z"/>
		<path d="M941.1,138h1.3v11.1h-1.3V138z"/>
		<path d="M943.9,145.2L943.9,145.2c0-2.5,1.4-4.2,3.6-4.2c2.2,0,3.5,1.6,3.5,4v0.5h-5.8c0,1.6,0.9,2.6,2.4,2.6c1,0,1.7-0.5,2-1.2
			l0-0.1h1.3l0,0.1c-0.3,1.3-1.6,2.4-3.3,2.4C945.3,149.3,943.9,147.7,943.9,145.2z M945.3,144.4h4.4c-0.1-1.6-1-2.3-2.2-2.3
			C946.3,142.1,945.4,142.9,945.3,144.4z"/>
		<path d="M955.8,138h1.4v11.1h-1.4V138z"/>
		<path d="M959.1,141.1h1.3v1.1h0c0.4-0.7,1.2-1.3,2.5-1.3c1.8,0,2.8,1.1,2.8,3v5.2h-1.3v-5c0-1.3-0.6-2-1.8-2
			c-1.3,0-2.1,0.9-2.1,2.3v4.7h-1.3V141.1z"/>
		<path d="M967.1,146.9L967.1,146.9l1.3-0.1l0,0.1c0.2,0.8,0.8,1.3,1.8,1.3c1.1,0,1.7-0.5,1.7-1.2v0c0-0.6-0.3-0.9-1.2-1.1l-1.3-0.3
			c-1.5-0.4-2.2-1.1-2.2-2.2v0c0-1.4,1.2-2.4,2.9-2.4c1.8,0,2.9,1,3,2.4l0,0.1h-1.3l0-0.1c-0.1-0.8-0.7-1.3-1.7-1.3
			c-1,0-1.6,0.5-1.6,1.2v0c0,0.5,0.4,0.9,1.2,1.1l1.3,0.3c1.6,0.4,2.2,1,2.2,2.2v0c0,1.4-1.3,2.4-3.1,2.4
			C968.4,149.3,967.3,148.3,967.1,146.9z"/>
		<path d="M974.7,146.3v-5.2h1.3v5c0,1.3,0.6,2,1.8,2c1.3,0,2.1-0.9,2.1-2.3v-4.7h1.3v8H980V148h0c-0.4,0.7-1.2,1.3-2.5,1.3
			C975.8,149.3,974.7,148.1,974.7,146.3z"/>
		<path d="M983.1,141.1h1.3v1.4h0c0.3-0.9,1-1.5,1.9-1.5c0.2,0,0.4,0,0.5,0.1v1.3c-0.1,0-0.4-0.1-0.7-0.1c-1,0-1.7,0.7-1.7,1.9v4.9
			h-1.3V141.1z"/>
		<path d="M987.5,146.9L987.5,146.9c0-1.4,1.1-2.2,2.9-2.3l2.3-0.1v-0.7c0-1-0.6-1.6-1.8-1.6c-1,0-1.7,0.5-1.8,1.2l0,0.1h-1.3l0-0.1
			c0.1-1.3,1.3-2.4,3.2-2.4c1.9,0,3.1,1,3.1,2.6v5.5h-1.3v-1.3h0c-0.5,0.9-1.4,1.5-2.5,1.5C988.5,149.3,987.5,148.3,987.5,146.9z
			 M990.4,148.1c1.3,0,2.2-0.9,2.2-2v-0.7l-2.1,0.1c-1.1,0.1-1.7,0.5-1.7,1.3v0C988.8,147.6,989.5,148.1,990.4,148.1z"/>
		<path d="M995.7,141.1h1.3v1.1h0c0.4-0.7,1.2-1.3,2.5-1.3c1.8,0,2.8,1.1,2.8,3v5.2h-1.3v-5c0-1.3-0.6-2-1.8-2
			c-1.3,0-2.1,0.9-2.1,2.3v4.7h-1.3V141.1z"/>
		<path d="M1003.6,145.1L1003.6,145.1c0-2.5,1.5-4.2,3.7-4.2c2,0,3.2,1.3,3.3,2.7l0,0.1h-1.3l0-0.1c-0.2-0.8-0.8-1.5-2-1.5
			c-1.4,0-2.3,1.2-2.3,3v0c0,1.9,1,3,2.3,3c1.1,0,1.8-0.6,2-1.5l0-0.1h1.3l0,0.1c-0.2,1.5-1.5,2.7-3.3,2.7
			C1005.1,149.3,1003.6,147.7,1003.6,145.1z"/>
		<path d="M1011.5,145.2L1011.5,145.2c0-2.5,1.4-4.2,3.6-4.2c2.2,0,3.5,1.6,3.5,4v0.5h-5.8c0,1.6,0.9,2.6,2.4,2.6c1,0,1.7-0.5,2-1.2
			l0-0.1h1.3l0,0.1c-0.3,1.3-1.6,2.4-3.3,2.4C1012.9,149.3,1011.5,147.7,1011.5,145.2z M1012.9,144.4h4.4c-0.1-1.6-1-2.3-2.2-2.3
			C1014,142.1,1013.1,142.9,1012.9,144.4z"/>
		<path d="M1023,143.6L1023,143.6c0-3.5,2-5.7,5.1-5.7c2.3,0,4.1,1.4,4.5,3.5l0,0.1h-1.4l-0.1-0.2c-0.4-1.3-1.5-2.1-3.1-2.1
			c-2.2,0-3.7,1.7-3.7,4.5v0c0,2.7,1.4,4.5,3.7,4.5c1.6,0,2.6-0.8,3.1-2.2l0-0.1h1.4l0,0.1c-0.4,2.1-2.2,3.5-4.5,3.5
			C1025,149.3,1023,147.1,1023,143.6z"/>
		<path d="M1033.7,146.9L1033.7,146.9c0-1.4,1.1-2.2,2.9-2.3l2.3-0.1v-0.7c0-1-0.6-1.6-1.8-1.6c-1,0-1.7,0.5-1.8,1.2l0,0.1h-1.3
			l0-0.1c0.1-1.3,1.3-2.4,3.2-2.4c1.9,0,3.1,1,3.1,2.6v5.5h-1.3v-1.3h0c-0.5,0.9-1.4,1.5-2.5,1.5
			C1034.8,149.3,1033.7,148.3,1033.7,146.9z M1036.7,148.1c1.3,0,2.2-0.9,2.2-2v-0.7l-2.1,0.1c-1.1,0.1-1.7,0.5-1.7,1.3v0
			C1035.1,147.6,1035.7,148.1,1036.7,148.1z"/>
		<path d="M1042,138h1.3v11.1h-1.3V138z"/>
		<path d="M1044.8,145.1L1044.8,145.1c0-2.5,1.5-4.2,3.7-4.2c2,0,3.2,1.3,3.3,2.7l0,0.1h-1.3l0-0.1c-0.2-0.8-0.8-1.5-2-1.5
			c-1.4,0-2.3,1.2-2.3,3v0c0,1.9,1,3,2.3,3c1.1,0,1.8-0.6,2-1.5l0-0.1h1.3l0,0.1c-0.2,1.5-1.5,2.7-3.3,2.7
			C1046.2,149.3,1044.8,147.7,1044.8,145.1z"/>
		<path d="M1053.1,146.3v-5.2h1.3v5c0,1.3,0.6,2,1.8,2c1.3,0,2.1-0.9,2.1-2.3v-4.7h1.3v8h-1.3V148h0c-0.4,0.7-1.2,1.3-2.5,1.3
			C1054.1,149.3,1053.1,148.1,1053.1,146.3z"/>
		<path d="M1061.5,138h1.3v11.1h-1.3V138z"/>
		<path d="M1064.3,146.9L1064.3,146.9c0-1.4,1.1-2.2,2.9-2.3l2.3-0.1v-0.7c0-1-0.6-1.6-1.8-1.6c-1,0-1.7,0.5-1.8,1.2l0,0.1h-1.3
			l0-0.1c0.1-1.3,1.3-2.4,3.2-2.4c1.9,0,3.1,1,3.1,2.6v5.5h-1.3v-1.3h0c-0.5,0.9-1.4,1.5-2.5,1.5
			C1065.4,149.3,1064.3,148.3,1064.3,146.9z M1067.3,148.1c1.3,0,2.2-0.9,2.2-2v-0.7l-2.1,0.1c-1.1,0.1-1.7,0.5-1.7,1.3v0
			C1065.7,147.6,1066.3,148.1,1067.3,148.1z"/>
		<path d="M1072.9,147.1v-4.9h-1.2v-1.1h1.2v-2.2h1.4v2.2h1.5v1.1h-1.5v4.9c0,0.9,0.4,1.1,1.1,1.1c0.2,0,0.3,0,0.4,0v1.1
			c-0.2,0-0.5,0.1-0.7,0.1C1073.7,149.3,1072.9,148.6,1072.9,147.1z"/>
		<path d="M1076.7,145.1L1076.7,145.1c0-2.6,1.5-4.2,3.7-4.2s3.7,1.6,3.7,4.1v0c0,2.6-1.5,4.2-3.7,4.2
			C1078.2,149.3,1076.7,147.7,1076.7,145.1z M1082.7,145.1L1082.7,145.1c0-1.9-0.9-3-2.3-3c-1.4,0-2.3,1.1-2.3,3v0
			c0,1.9,0.9,3,2.3,3C1081.8,148.1,1082.7,147,1082.7,145.1z"/>
		<path d="M1085.4,141.1h1.3v1.4h0c0.3-0.9,1-1.5,1.9-1.5c0.2,0,0.4,0,0.5,0.1v1.3c-0.1,0-0.4-0.1-0.7-0.1c-1,0-1.7,0.7-1.7,1.9v4.9
			h-1.3V141.1z"/>
	</g>
</g>
<line class="st4" x1="884.7" y1="111.6" x2="896.7" y2="111.6"/>
<polyline class="st4" points="884.7,78.9 884.7,144.4 896.7,144.4 "/>
<g>
	<g>
		<path d="M1213.2,106.2h4.2c1.9,0,3.2,1.1,3.2,2.8v0c0,1.1-0.9,2.3-2,2.4v0c1.6,0.2,2.6,1.3,2.6,2.7v0c0,2-1.4,3.1-3.8,3.1h-4.2
			V106.2z M1214.6,107.4v3.6h2.1c1.6,0,2.5-0.7,2.5-1.9v0c0-1.1-0.8-1.7-2.1-1.7H1214.6z M1214.6,112.2v3.9h2.6c1.7,0,2.6-0.7,2.6-2
			v0c0-1.3-0.9-1.9-2.7-1.9H1214.6z"/>
		<path d="M1222.5,109.3h1.3v1.4h0c0.3-0.9,1-1.5,1.9-1.5c0.2,0,0.4,0,0.5,0.1v1.3c-0.1,0-0.4-0.1-0.7-0.1c-1,0-1.7,0.7-1.7,1.9v4.9
			h-1.3V109.3z"/>
		<path d="M1226.9,115L1226.9,115c0-1.4,1.1-2.2,2.9-2.3l2.3-0.1v-0.7c0-1-0.6-1.6-1.8-1.6c-1,0-1.7,0.5-1.8,1.2l0,0.1h-1.3l0-0.1
			c0.1-1.3,1.3-2.4,3.2-2.4c1.9,0,3.1,1,3.1,2.6v5.5h-1.3V116h0c-0.5,0.9-1.4,1.5-2.5,1.5C1228,117.5,1226.9,116.5,1226.9,115z
			 M1229.9,116.3c1.3,0,2.2-0.9,2.2-2v-0.7l-2.1,0.1c-1.1,0.1-1.7,0.5-1.7,1.3v0C1228.3,115.8,1228.9,116.3,1229.9,116.3z"/>
		<path d="M1235.1,109.3h1.3v1.1h0c0.4-0.7,1.2-1.3,2.5-1.3c1.8,0,2.8,1.1,2.8,3v5.2h-1.3v-5c0-1.3-0.6-2-1.8-2
			c-1.3,0-2.1,0.9-2.1,2.3v4.7h-1.3V109.3z"/>
		<path d="M1243,113.3L1243,113.3c0-2.5,1.5-4.2,3.7-4.2c2,0,3.2,1.3,3.3,2.7l0,0.1h-1.3l0-0.1c-0.2-0.8-0.8-1.5-2-1.5
			c-1.4,0-2.3,1.2-2.3,3v0c0,1.9,1,3,2.3,3c1.1,0,1.8-0.6,2-1.5l0-0.1h1.3l0,0.1c-0.2,1.5-1.5,2.7-3.3,2.7
			C1244.5,117.5,1243,115.8,1243,113.3z"/>
		<path d="M1251.4,106.2h1.3v4.4h0c0.4-0.9,1.3-1.4,2.5-1.4c1.7,0,2.9,1.3,2.9,3.3v4.9h-1.3v-4.7c0-1.4-0.7-2.3-2-2.3
			c-1.2,0-2.1,0.9-2.1,2.3v4.7h-1.3V106.2z"/>
		<path d="M1263.3,106.2h1.4v9.9h5.4v1.2h-6.8V106.2z"/>
		<path d="M1270.7,113.3L1270.7,113.3c0-2.6,1.5-4.2,3.7-4.2s3.7,1.6,3.7,4.1v0c0,2.6-1.5,4.2-3.7,4.2
			C1272.2,117.5,1270.7,115.8,1270.7,113.3z M1276.8,113.3L1276.8,113.3c0-1.9-0.9-3-2.3-3c-1.4,0-2.3,1.1-2.3,3v0
			c0,1.9,0.9,3,2.3,3C1275.9,116.3,1276.8,115.2,1276.8,113.3z"/>
		<path d="M1279.1,113.3L1279.1,113.3c0-2.5,1.5-4.2,3.7-4.2c2,0,3.2,1.3,3.3,2.7l0,0.1h-1.3l0-0.1c-0.2-0.8-0.8-1.5-2-1.5
			c-1.4,0-2.3,1.2-2.3,3v0c0,1.9,1,3,2.3,3c1.1,0,1.8-0.6,2-1.5l0-0.1h1.3l0,0.1c-0.2,1.5-1.5,2.7-3.3,2.7
			C1280.5,117.5,1279.1,115.8,1279.1,113.3z"/>
		<path d="M1287.1,115L1287.1,115c0-1.4,1.1-2.2,2.9-2.3l2.3-0.1v-0.7c0-1-0.6-1.6-1.8-1.6c-1,0-1.7,0.5-1.8,1.2l0,0.1h-1.3l0-0.1
			c0.1-1.3,1.3-2.4,3.2-2.4c1.9,0,3.1,1,3.1,2.6v5.5h-1.3V116h0c-0.5,0.9-1.4,1.5-2.5,1.5C1288.1,117.5,1287.1,116.5,1287.1,115z
			 M1290,116.3c1.3,0,2.2-0.9,2.2-2v-0.7l-2.1,0.1c-1.1,0.1-1.7,0.5-1.7,1.3v0C1288.4,115.8,1289.1,116.3,1290,116.3z"/>
		<path d="M1295.7,115.3v-4.9h-1.2v-1.1h1.2v-2.2h1.4v2.2h1.5v1.1h-1.5v4.9c0,0.9,0.4,1.1,1.1,1.1c0.2,0,0.3,0,0.4,0v1.1
			c-0.2,0-0.5,0.1-0.7,0.1C1296.4,117.5,1295.7,116.8,1295.7,115.3z"/>
		<path d="M1299.4,113.3L1299.4,113.3c0-2.6,1.5-4.2,3.7-4.2c2.2,0,3.7,1.6,3.7,4.1v0c0,2.6-1.5,4.2-3.7,4.2
			C1300.9,117.5,1299.4,115.8,1299.4,113.3z M1305.5,113.3L1305.5,113.3c0-1.9-0.9-3-2.3-3c-1.4,0-2.3,1.1-2.3,3v0
			c0,1.9,0.9,3,2.3,3C1304.6,116.3,1305.5,115.2,1305.5,113.3z"/>
		<path d="M1308.2,109.3h1.3v1.4h0c0.3-0.9,1-1.5,1.9-1.5c0.2,0,0.4,0,0.5,0.1v1.3c-0.1,0-0.4-0.1-0.7-0.1c-1,0-1.7,0.7-1.7,1.9v4.9
			h-1.3V109.3z"/>
	</g>
</g>
<g>
	<g>
		<path d="M1212.8,143.6L1212.8,143.6c0-3.5,2-5.7,5.1-5.7c2.3,0,4.1,1.4,4.5,3.5l0,0.1h-1.4l-0.1-0.2c-0.4-1.3-1.5-2.1-3.1-2.1
			c-2.2,0-3.7,1.7-3.7,4.5v0c0,2.7,1.4,4.5,3.7,4.5c1.6,0,2.6-0.8,3.1-2.2l0-0.1h1.4l0,0.1c-0.4,2.1-2.2,3.5-4.5,3.5
			C1214.7,149.3,1212.8,147.1,1212.8,143.6z"/>
		<path d="M1223.9,138h1.3v4.4h0c0.4-0.9,1.3-1.4,2.5-1.4c1.7,0,2.9,1.3,2.9,3.3v4.9h-1.3v-4.7c0-1.4-0.7-2.3-2-2.3
			c-1.2,0-2.1,0.9-2.1,2.3v4.7h-1.3V138z"/>
		<path d="M1232,146.9L1232,146.9c0-1.4,1.1-2.2,2.9-2.3l2.3-0.1v-0.7c0-1-0.6-1.6-1.8-1.6c-1,0-1.7,0.5-1.8,1.2l0,0.1h-1.3l0-0.1
			c0.1-1.3,1.3-2.4,3.2-2.4c1.9,0,3.1,1,3.1,2.6v5.5h-1.3v-1.3h0c-0.5,0.9-1.4,1.5-2.5,1.5C1233,149.3,1232,148.3,1232,146.9z
			 M1234.9,148.1c1.3,0,2.2-0.9,2.2-2v-0.7l-2.1,0.1c-1.1,0.1-1.7,0.5-1.7,1.3v0C1233.3,147.6,1234,148.1,1234.9,148.1z"/>
		<path d="M1240.6,147.1v-4.9h-1.2v-1.1h1.2v-2.2h1.4v2.2h1.5v1.1h-1.5v4.9c0,0.9,0.4,1.1,1.1,1.1c0.2,0,0.3,0,0.4,0v1.1
			c-0.2,0-0.5,0.1-0.7,0.1C1241.3,149.3,1240.6,148.6,1240.6,147.1z"/>
		<path d="M1247.5,141.1h1.3l1.6,6.5h0l1.8-6.5h1.3l1.8,6.5h0l1.6-6.5h1.3l-2.2,8h-1.4l-1.8-6.2h0l-1.8,6.2h-1.4L1247.5,141.1z"/>
		<path d="M1259.4,138.9c0-0.5,0.4-0.8,0.8-0.8c0.5,0,0.8,0.4,0.8,0.8c0,0.5-0.4,0.8-0.8,0.8
			C1259.8,139.8,1259.4,139.4,1259.4,138.9z M1259.6,141.1h1.3v8h-1.3V141.1z"/>
		<path d="M1263.1,147.1v-4.9h-1.2v-1.1h1.2v-2.2h1.4v2.2h1.5v1.1h-1.5v4.9c0,0.9,0.4,1.1,1.1,1.1c0.2,0,0.3,0,0.4,0v1.1
			c-0.2,0-0.5,0.1-0.7,0.1C1263.9,149.3,1263.1,148.6,1263.1,147.1z"/>
		<path d="M1267.6,138h1.3v4.4h0c0.4-0.9,1.3-1.4,2.5-1.4c1.7,0,2.9,1.3,2.9,3.3v4.9h-1.3v-4.7c0-1.4-0.7-2.3-2-2.3
			c-1.2,0-2.1,0.9-2.1,2.3v4.7h-1.3V138z"/>
		<path d="M1278.9,146.2l0-0.1h1.4l0,0.1c0.2,1.1,1.2,1.8,2.9,1.8c1.6,0,2.6-0.7,2.6-1.9v0c0-1-0.6-1.5-2.2-1.9l-1.2-0.3
			c-2.2-0.5-3.2-1.5-3.2-3.1v0c0-1.8,1.6-3.1,3.9-3.1c2.2,0,3.8,1.3,3.9,3.1l0,0.1h-1.4l0-0.1c-0.2-1.1-1.1-1.8-2.5-1.8
			c-1.5,0-2.5,0.7-2.5,1.8v0c0,0.9,0.7,1.5,2.1,1.8l1.2,0.3c2.3,0.5,3.2,1.4,3.2,3.1v0c0,2-1.6,3.2-4.1,3.2
			C1280.7,149.3,1279,148.1,1278.9,146.2z"/>
		<path d="M1288.2,145.2L1288.2,145.2c0-2.5,1.4-4.2,3.6-4.2c2.2,0,3.5,1.6,3.5,4v0.5h-5.8c0,1.6,0.9,2.6,2.4,2.6c1,0,1.7-0.5,2-1.2
			l0-0.1h1.3l0,0.1c-0.3,1.3-1.6,2.4-3.3,2.4C1289.6,149.3,1288.2,147.7,1288.2,145.2z M1289.6,144.4h4.4c-0.1-1.6-1-2.3-2.2-2.3
			C1290.6,142.1,1289.7,142.9,1289.6,144.4z"/>
		<path d="M1296.7,141.1h1.3v1.4h0c0.3-0.9,1-1.5,1.9-1.5c0.2,0,0.4,0,0.5,0.1v1.3c-0.1,0-0.4-0.1-0.7-0.1c-1,0-1.7,0.7-1.7,1.9v4.9
			h-1.3V141.1z"/>
		<path d="M1301,146.9L1301,146.9c0-1.4,1.1-2.2,2.9-2.3l2.3-0.1v-0.7c0-1-0.6-1.6-1.8-1.6c-1,0-1.7,0.5-1.8,1.2l0,0.1h-1.3l0-0.1
			c0.1-1.3,1.3-2.4,3.2-2.4c1.9,0,3.1,1,3.1,2.6v5.5h-1.3v-1.3h0c-0.5,0.9-1.4,1.5-2.5,1.5C1302.1,149.3,1301,148.3,1301,146.9z
			 M1304,148.1c1.3,0,2.2-0.9,2.2-2v-0.7l-2.1,0.1c-1.1,0.1-1.7,0.5-1.7,1.3v0C1302.4,147.6,1303,148.1,1304,148.1z"/>
	</g>
</g>
<line class="st4" x1="1193.2" y1="111.6" x2="1205.3" y2="111.6"/>
<polyline class="st4" points="1193.2,78.9 1193.2,144.4 1205.3,144.4 "/>
<line class="st4" x1="92.3" y1="271.3" x2="104.4" y2="271.3"/>
<line class="st4" x1="92.3" y1="303.3" x2="104.4" y2="303.3"/>
<line class="st4" x1="92.3" y1="335.4" x2="104.4" y2="335.4"/>
<line class="st4" x1="92.3" y1="367.4" x2="104.4" y2="367.4"/>
<line class="st4" x1="92.3" y1="399.4" x2="104.4" y2="399.4"/>
<line class="st4" x1="92.3" y1="431.5" x2="104.4" y2="431.5"/>
<line class="st4" x1="92.3" y1="463.5" x2="104.4" y2="463.5"/>
<line class="st4" x1="92.3" y1="495.5" x2="104.4" y2="495.5"/>
<polyline class="st4" points="92.3,252 92.3,527.6 104.4,527.6 "/>
<g>
	<g>
		<path d="M67.5,51.6L67.5,51.6c0-3.5,2-5.7,5.1-5.7c3.1,0,5.1,2.2,5.1,5.7v0c0,3.5-2,5.7-5.1,5.7C69.5,57.3,67.5,55.1,67.5,51.6z
			 M76.4,51.6L76.4,51.6c0-2.7-1.4-4.5-3.7-4.5c-2.3,0-3.7,1.7-3.7,4.5v0c0,2.7,1.4,4.5,3.7,4.5C74.9,56.1,76.4,54.3,76.4,51.6z"/>
		<path d="M79.2,54.4v-5.2h1.3v5c0,1.3,0.6,2,1.8,2c1.3,0,2.1-0.9,2.1-2.3v-4.7h1.3v8h-1.3V56h0c-0.4,0.7-1.2,1.3-2.5,1.3
			C80.3,57.3,79.2,56.2,79.2,54.4z"/>
		<path d="M87.6,49.2h1.3v1.4h0c0.3-0.9,1-1.5,1.9-1.5c0.2,0,0.4,0,0.5,0.1v1.3c-0.1,0-0.4-0.1-0.7-0.1c-1,0-1.7,0.7-1.7,1.9v4.9
			h-1.3V49.2z"/>
		<path d="M95.4,54.3l0-0.1h1.4l0,0.1c0.2,1.1,1.2,1.8,2.9,1.8c1.6,0,2.6-0.7,2.6-1.9v0c0-1-0.6-1.5-2.2-1.9l-1.2-0.3
			c-2.2-0.5-3.2-1.5-3.2-3.1v0c0-1.8,1.6-3.1,3.9-3.1c2.2,0,3.8,1.3,3.9,3.1l0,0.1h-1.4l0-0.1c-0.2-1.1-1.1-1.8-2.5-1.8
			c-1.5,0-2.5,0.7-2.5,1.8v0c0,0.9,0.7,1.5,2.1,1.8l1.2,0.3c2.3,0.5,3.2,1.4,3.2,3.1v0c0,2-1.6,3.2-4.1,3.2
			C97.1,57.3,95.5,56.2,95.4,54.3z"/>
		<path d="M105.5,55.1v-4.9h-1.2v-1.1h1.2V47h1.4v2.2h1.5v1.1h-1.5v4.9c0,0.9,0.4,1.1,1.1,1.1c0.2,0,0.3,0,0.4,0v1.1
			c-0.2,0-0.5,0.1-0.7,0.1C106.2,57.3,105.5,56.7,105.5,55.1z"/>
		<path d="M109.2,53.2L109.2,53.2c0-2.6,1.5-4.2,3.7-4.2c2.2,0,3.7,1.6,3.7,4.1v0c0,2.6-1.5,4.2-3.7,4.2
			C110.7,57.3,109.2,55.7,109.2,53.2z M115.2,53.2L115.2,53.2c0-1.9-0.9-3-2.3-3c-1.4,0-2.3,1.1-2.3,3v0c0,1.9,0.9,3,2.3,3
			C114.3,56.1,115.2,55,115.2,53.2z"/>
		<path d="M117.9,49.2h1.3v1.4h0c0.3-0.9,1-1.5,1.9-1.5c0.2,0,0.4,0,0.5,0.1v1.3c-0.1,0-0.4-0.1-0.7-0.1c-1,0-1.7,0.7-1.7,1.9v4.9
			h-1.3V49.2z"/>
		<path d="M123.1,59.8v-1.1c0.1,0,0.3,0,0.4,0c0.8,0,1.3-0.2,1.6-1.1l0.2-0.5l-3-8h1.4l2.2,6.7h0l2.2-6.7h1.4l-3.1,8.5
			c-0.6,1.5-1.3,2.2-2.7,2.2C123.5,59.9,123.3,59.8,123.1,59.8z"/>
	</g>
</g>
<g>
	<g>
		<path d="M370.4,46h6.8v1.2h-5.4v3.8h4.9v1.2h-4.9v4.8h-1.4V46z"/>
		<path d="M377.8,53.2L377.8,53.2c0-2.6,1.5-4.2,3.7-4.2c2.2,0,3.7,1.6,3.7,4.1v0c0,2.6-1.5,4.2-3.7,4.2
			C379.3,57.3,377.8,55.7,377.8,53.2z M383.8,53.2L383.8,53.2c0-1.9-0.9-3-2.3-3c-1.4,0-2.3,1.1-2.3,3v0c0,1.9,0.9,3,2.3,3
			C382.9,56.1,383.8,55,383.8,53.2z"/>
		<path d="M386.6,49.2h1.3v1.4h0c0.3-0.9,1-1.5,1.9-1.5c0.2,0,0.4,0,0.5,0.1v1.3c-0.1,0-0.4-0.1-0.7-0.1c-1,0-1.7,0.7-1.7,1.9v4.9
			h-1.3V49.2z"/>
		<path d="M394.9,46h1.6l3.9,9.4h0l3.9-9.4h1.6v11.1h-1.3v-8.6h0l-3.6,8.6h-1.2l-3.6-8.6h0v8.6h-1.3V46z"/>
		<path d="M407.4,53.2L407.4,53.2c0-2.5,1.4-4.2,3.6-4.2s3.5,1.6,3.5,4v0.5h-5.8c0,1.6,0.9,2.6,2.4,2.6c1,0,1.7-0.5,2-1.2l0-0.1h1.3
			l0,0.1c-0.3,1.3-1.6,2.4-3.3,2.4C408.7,57.3,407.4,55.7,407.4,53.2z M408.7,52.5h4.4c-0.1-1.6-1-2.3-2.2-2.3
			C409.8,50.2,408.9,51,408.7,52.5z"/>
	</g>
</g>
<g>
	<g>
		<path d="M888.3,51.6L888.3,51.6c0-3.5,2-5.7,5.1-5.7c2.3,0,4.1,1.4,4.5,3.5l0,0.1h-1.4l-0.1-0.2c-0.4-1.3-1.5-2.1-3.1-2.1
			c-2.2,0-3.7,1.7-3.7,4.5v0c0,2.7,1.4,4.5,3.7,4.5c1.6,0,2.6-0.8,3.1-2.2l0-0.1h1.4l0,0.1c-0.4,2.1-2.2,3.5-4.5,3.5
			C890.3,57.3,888.3,55.1,888.3,51.6z"/>
		<path d="M899,54.9L899,54.9c0-1.4,1.1-2.2,2.9-2.3l2.3-0.1v-0.7c0-1-0.6-1.6-1.8-1.6c-1,0-1.7,0.5-1.8,1.2l0,0.1h-1.3l0-0.1
			c0.1-1.3,1.3-2.4,3.2-2.4c1.9,0,3.1,1,3.1,2.6v5.5h-1.3v-1.3h0c-0.5,0.9-1.4,1.5-2.5,1.5C900.1,57.3,899,56.4,899,54.9z M902,56.2
			c1.3,0,2.2-0.9,2.2-2v-0.7l-2.1,0.1c-1.1,0.1-1.7,0.5-1.7,1.3v0C900.4,55.7,901,56.2,902,56.2z"/>
		<path d="M907.3,46h1.3v11.1h-1.3V46z"/>
		<path d="M910.1,53.1L910.1,53.1c0-2.5,1.5-4.2,3.7-4.2c2,0,3.2,1.3,3.3,2.7l0,0.1h-1.3l0-0.1c-0.2-0.8-0.8-1.5-2-1.5
			c-1.4,0-2.3,1.2-2.3,3v0c0,1.9,1,3,2.3,3c1.1,0,1.8-0.6,2-1.5l0-0.1h1.3l0,0.1c-0.2,1.5-1.5,2.7-3.3,2.7
			C911.5,57.3,910.1,55.7,910.1,53.1z"/>
		<path d="M918.3,54.4v-5.2h1.3v5c0,1.3,0.6,2,1.8,2c1.3,0,2.1-0.9,2.1-2.3v-4.7h1.3v8h-1.3V56h0c-0.4,0.7-1.2,1.3-2.5,1.3
			C919.4,57.3,918.3,56.2,918.3,54.4z"/>
		<path d="M926.8,46h1.3v11.1h-1.3V46z"/>
		<path d="M929.6,54.9L929.6,54.9c0-1.4,1.1-2.2,2.9-2.3l2.3-0.1v-0.7c0-1-0.6-1.6-1.8-1.6c-1,0-1.7,0.5-1.8,1.2l0,0.1h-1.3l0-0.1
			c0.1-1.3,1.3-2.4,3.2-2.4c1.9,0,3.1,1,3.1,2.6v5.5h-1.3v-1.3h0c-0.5,0.9-1.4,1.5-2.5,1.5C930.7,57.3,929.6,56.4,929.6,54.9z
			 M932.5,56.2c1.3,0,2.2-0.9,2.2-2v-0.7l-2.1,0.1c-1.1,0.1-1.7,0.5-1.7,1.3v0C931,55.7,931.6,56.2,932.5,56.2z"/>
		<path d="M938.2,55.1v-4.9h-1.2v-1.1h1.2V47h1.4v2.2h1.5v1.1h-1.5v4.9c0,0.9,0.4,1.1,1.1,1.1c0.2,0,0.3,0,0.4,0v1.1
			c-0.2,0-0.5,0.1-0.7,0.1C939,57.3,938.2,56.7,938.2,55.1z"/>
		<path d="M941.9,53.2L941.9,53.2c0-2.6,1.5-4.2,3.7-4.2c2.2,0,3.7,1.6,3.7,4.1v0c0,2.6-1.5,4.2-3.7,4.2
			C943.4,57.3,941.9,55.7,941.9,53.2z M948,53.2L948,53.2c0-1.9-0.9-3-2.3-3c-1.4,0-2.3,1.1-2.3,3v0c0,1.9,0.9,3,2.3,3
			C947.1,56.1,948,55,948,53.2z"/>
		<path d="M950.7,49.2h1.3v1.4h0c0.3-0.9,1-1.5,1.9-1.5c0.2,0,0.4,0,0.5,0.1v1.3c-0.1,0-0.4-0.1-0.7-0.1c-1,0-1.7,0.7-1.7,1.9v4.9
			h-1.3V49.2z"/>
		<path d="M955.2,54.9L955.2,54.9l1.3-0.1l0,0.1c0.2,0.8,0.8,1.3,1.8,1.3c1.1,0,1.7-0.5,1.7-1.2v0c0-0.6-0.3-0.9-1.2-1.1l-1.3-0.3
			c-1.5-0.4-2.2-1.1-2.2-2.2v0c0-1.4,1.2-2.4,2.9-2.4c1.8,0,2.9,1,3,2.4l0,0.1h-1.3l0-0.1c-0.1-0.8-0.7-1.3-1.7-1.3
			c-1,0-1.6,0.5-1.6,1.2v0c0,0.5,0.4,0.9,1.2,1.1l1.3,0.3c1.6,0.4,2.2,1,2.2,2.2v0c0,1.4-1.3,2.4-3.1,2.4
			C956.5,57.3,955.4,56.4,955.2,54.9z"/>
	</g>
</g>
<g>
	<g>
		<path d="M1193.2,51.6L1193.2,51.6c0-3.5,2-5.7,5.1-5.7c2.3,0,4.1,1.4,4.5,3.5l0,0.1h-1.4l-0.1-0.2c-0.4-1.3-1.5-2.1-3.1-2.1
			c-2.2,0-3.7,1.7-3.7,4.5v0c0,2.7,1.4,4.5,3.7,4.5c1.6,0,2.6-0.8,3.1-2.2l0-0.1h1.4l0,0.1c-0.4,2.1-2.2,3.5-4.5,3.5
			C1195.2,57.3,1193.2,55.1,1193.2,51.6z"/>
		<path d="M1203.8,53.2L1203.8,53.2c0-2.6,1.5-4.2,3.7-4.2s3.7,1.6,3.7,4.1v0c0,2.6-1.5,4.2-3.7,4.2
			C1205.3,57.3,1203.8,55.7,1203.8,53.2z M1209.9,53.2L1209.9,53.2c0-1.9-0.9-3-2.3-3c-1.4,0-2.3,1.1-2.3,3v0c0,1.9,0.9,3,2.3,3
			C1209,56.1,1209.9,55,1209.9,53.2z"/>
		<path d="M1212.6,49.2h1.3v1.1h0c0.4-0.7,1.2-1.3,2.5-1.3c1.8,0,2.8,1.1,2.8,3v5.2h-1.3v-5c0-1.3-0.6-2-1.8-2
			c-1.3,0-2.1,0.9-2.1,2.3v4.7h-1.3V49.2z"/>
		<path d="M1221.3,55.1v-4.9h-1.2v-1.1h1.2V47h1.4v2.2h1.5v1.1h-1.5v4.9c0,0.9,0.4,1.1,1.1,1.1c0.2,0,0.3,0,0.4,0v1.1
			c-0.2,0-0.5,0.1-0.7,0.1C1222,57.3,1221.3,56.7,1221.3,55.1z"/>
		<path d="M1225.2,54.9L1225.2,54.9c0-1.4,1.1-2.2,2.9-2.3l2.3-0.1v-0.7c0-1-0.6-1.6-1.8-1.6c-1,0-1.7,0.5-1.8,1.2l0,0.1h-1.3l0-0.1
			c0.1-1.3,1.3-2.4,3.2-2.4c1.9,0,3.1,1,3.1,2.6v5.5h-1.3v-1.3h0c-0.5,0.9-1.4,1.5-2.5,1.5C1226.3,57.3,1225.2,56.4,1225.2,54.9z
			 M1228.1,56.2c1.3,0,2.2-0.9,2.2-2v-0.7l-2.1,0.1c-1.1,0.1-1.7,0.5-1.7,1.3v0C1226.6,55.7,1227.2,56.2,1228.1,56.2z"/>
		<path d="M1233,53.1L1233,53.1c0-2.5,1.5-4.2,3.7-4.2c2,0,3.2,1.3,3.3,2.7l0,0.1h-1.3l0-0.1c-0.2-0.8-0.8-1.5-2-1.5
			c-1.4,0-2.3,1.2-2.3,3v0c0,1.9,1,3,2.3,3c1.1,0,1.8-0.6,2-1.5l0-0.1h1.3l0,0.1c-0.2,1.5-1.5,2.7-3.3,2.7
			C1234.5,57.3,1233,55.7,1233,53.1z"/>
		<path d="M1241.7,55.1v-4.9h-1.2v-1.1h1.2V47h1.4v2.2h1.5v1.1h-1.5v4.9c0,0.9,0.4,1.1,1.1,1.1c0.2,0,0.3,0,0.4,0v1.1
			c-0.2,0-0.5,0.1-0.7,0.1C1242.5,57.3,1241.7,56.7,1241.7,55.1z"/>
		<path d="M1249.5,53.3V46h1.4v7.1c0,1.7,1.1,2.9,3,2.9c1.9,0,3-1.2,3-2.9V46h1.4v7.2c0,2.4-1.6,4.1-4.4,4.1
			C1251.2,57.3,1249.5,55.7,1249.5,53.3z"/>
		<path d="M1259.8,54.9L1259.8,54.9l1.3-0.1l0,0.1c0.2,0.8,0.8,1.3,1.8,1.3c1.1,0,1.7-0.5,1.7-1.2v0c0-0.6-0.3-0.9-1.2-1.1l-1.3-0.3
			c-1.5-0.4-2.2-1.1-2.2-2.2v0c0-1.4,1.2-2.4,2.9-2.4c1.8,0,2.9,1,3,2.4l0,0.1h-1.3l0-0.1c-0.1-0.8-0.7-1.3-1.7-1.3
			c-1,0-1.6,0.5-1.6,1.2v0c0,0.5,0.4,0.9,1.2,1.1l1.3,0.3c1.6,0.4,2.2,1,2.2,2.2v0c0,1.4-1.3,2.4-3.1,2.4
			C1261.1,57.3,1260,56.4,1259.8,54.9z"/>
	</g>
</g>
<path class="st5" d="M723.3,78.9H586.7c-8.1,0-14.7-6.6-14.7-14.7V39c0-8.1,6.6-14.7,14.7-14.7h136.6c8.1,0,14.7,6.6,14.7,14.7v25.1
	C738,72.3,731.4,78.9,723.3,78.9z"/>
<g>
	<g>
		<path d="M614.1,46h6.8v1.2h-5.4v3.8h4.9v1.2h-4.9v4.8h-1.4V46z"/>
		<path d="M621.5,53.2L621.5,53.2c0-2.6,1.5-4.2,3.7-4.2c2.2,0,3.7,1.6,3.7,4.1v0c0,2.6-1.5,4.2-3.7,4.2
			C623,57.3,621.5,55.7,621.5,53.2z M627.6,53.2L627.6,53.2c0-1.9-0.9-3-2.3-3c-1.4,0-2.3,1.1-2.3,3v0c0,1.9,0.9,3,2.3,3
			C626.7,56.1,627.6,55,627.6,53.2z"/>
		<path d="M630.3,49.2h1.3v1.4h0c0.3-0.9,1-1.5,1.9-1.5c0.2,0,0.4,0,0.5,0.1v1.3c-0.1,0-0.4-0.1-0.7-0.1c-1,0-1.7,0.7-1.7,1.9v4.9
			h-1.3V49.2z"/>
		<path d="M638.6,46h4.2c1.9,0,3.2,1.1,3.2,2.8v0c0,1.1-0.9,2.3-2,2.4v0c1.6,0.2,2.6,1.3,2.6,2.7v0c0,2-1.4,3.1-3.8,3.1h-4.2V46z
			 M640,47.3v3.6h2.1c1.6,0,2.5-0.7,2.5-1.9v0c0-1.1-0.8-1.7-2.1-1.7H640z M640,52v3.9h2.6c1.7,0,2.6-0.7,2.6-2v0
			c0-1.3-0.9-1.9-2.7-1.9H640z"/>
		<path d="M647.9,54.4v-5.2h1.3v5c0,1.3,0.6,2,1.8,2c1.3,0,2.1-0.9,2.1-2.3v-4.7h1.3v8h-1.3V56h0c-0.4,0.7-1.2,1.3-2.5,1.3
			C648.9,57.3,647.9,56.2,647.9,54.4z"/>
		<path d="M655.9,54.9L655.9,54.9l1.3-0.1l0,0.1c0.2,0.8,0.8,1.3,1.8,1.3c1.1,0,1.7-0.5,1.7-1.2v0c0-0.6-0.3-0.9-1.2-1.1l-1.3-0.3
			c-1.5-0.4-2.2-1.1-2.2-2.2v0c0-1.4,1.2-2.4,2.9-2.4c1.8,0,2.9,1,3,2.4l0,0.1h-1.3l0-0.1c-0.1-0.8-0.7-1.3-1.7-1.3
			c-1,0-1.6,0.5-1.6,1.2v0c0,0.5,0.4,0.9,1.2,1.1l1.3,0.3c1.6,0.4,2.2,1,2.2,2.2v0c0,1.4-1.3,2.4-3.1,2.4
			C657.2,57.3,656,56.4,655.9,54.9z"/>
		<path d="M663.5,47c0-0.5,0.4-0.8,0.8-0.8c0.5,0,0.8,0.4,0.8,0.8c0,0.5-0.4,0.8-0.8,0.8C663.9,47.8,663.5,47.4,663.5,47z
			 M663.7,49.2h1.3v8h-1.3V49.2z"/>
		<path d="M666.8,49.2h1.3v1.1h0c0.4-0.7,1.2-1.3,2.5-1.3c1.8,0,2.8,1.1,2.8,3v5.2h-1.3v-5c0-1.3-0.6-2-1.8-2
			c-1.3,0-2.1,0.9-2.1,2.3v4.7h-1.3V49.2z"/>
		<path d="M674.7,53.2L674.7,53.2c0-2.5,1.4-4.2,3.6-4.2c2.2,0,3.5,1.6,3.5,4v0.5h-5.8c0,1.6,0.9,2.6,2.4,2.6c1,0,1.7-0.5,2-1.2
			l0-0.1h1.3l0,0.1c-0.3,1.3-1.6,2.4-3.3,2.4C676.1,57.3,674.7,55.7,674.7,53.2z M676.1,52.5h4.4c-0.1-1.6-1-2.3-2.2-2.3
			C677.2,50.2,676.3,51,676.1,52.5z"/>
		<path d="M682.9,54.9L682.9,54.9l1.3-0.1l0,0.1c0.2,0.8,0.8,1.3,1.8,1.3c1.1,0,1.7-0.5,1.7-1.2v0c0-0.6-0.3-0.9-1.2-1.1l-1.3-0.3
			c-1.5-0.4-2.2-1.1-2.2-2.2v0c0-1.4,1.2-2.4,2.9-2.4c1.8,0,2.9,1,3,2.4l0,0.1h-1.3l0-0.1c-0.1-0.8-0.7-1.3-1.7-1.3
			c-1,0-1.6,0.5-1.6,1.2v0c0,0.5,0.4,0.9,1.2,1.1l1.3,0.3c1.6,0.4,2.2,1,2.2,2.2v0c0,1.4-1.3,2.4-3.1,2.4
			C684.2,57.3,683,56.4,682.9,54.9z"/>
		<path d="M690.2,54.9L690.2,54.9l1.3-0.1l0,0.1c0.2,0.8,0.8,1.3,1.8,1.3c1.1,0,1.7-0.5,1.7-1.2v0c0-0.6-0.3-0.9-1.2-1.1l-1.3-0.3
			c-1.5-0.4-2.2-1.1-2.2-2.2v0c0-1.4,1.2-2.4,2.9-2.4c1.8,0,2.9,1,3,2.4l0,0.1h-1.3l0-0.1c-0.1-0.8-0.7-1.3-1.7-1.3
			c-1,0-1.6,0.5-1.6,1.2v0c0,0.5,0.4,0.9,1.2,1.1l1.3,0.3c1.6,0.4,2.2,1,2.2,2.2v0c0,1.4-1.3,2.4-3.1,2.4
			C691.5,57.3,690.4,56.4,690.2,54.9z"/>
	</g>
</g>
</svg>
