<?xml version="1.0" encoding="utf-8"?>
<!-- Generator: Adobe Illustrator 26.3.1, SVG Export Plug-In . SVG Version: 6.00 Build 0)  -->
<svg version="1.1" id="Layer_1" xmlns="http://www.w3.org/2000/svg" xmlns:xlink="http://www.w3.org/1999/xlink" x="0px" y="0px"
	 viewBox="0 0 501.9 813.5" style="enable-background:new 0 0 501.9 813.5;" xml:space="preserve">
<style type="text/css">
	.st0{fill:#F6E2F7;stroke:#8A9EB2;stroke-width:2;stroke-miterlimit:10;}
	.st1{fill:#DADCF2;stroke:#8A9EB2;stroke-width:2;stroke-miterlimit:10;}
	.st2{fill:#D5F2D8;stroke:#8A9EB2;stroke-width:2;stroke-miterlimit:10;}
	.st3{fill:#DBDBDB;stroke:#8A9EB2;stroke-width:2;stroke-miterlimit:10;}
	.st4{fill:none;stroke:#8A9EB2;stroke-miterlimit:10;}
	.st5{fill:#F7E6D0;stroke:#8A9EB2;stroke-width:2;stroke-miterlimit:10;}
</style>
<g>
	<g>
		<g>
			<path d="M82.6,126.9L82.6,126.9c0-3.5,2-5.7,5.1-5.7c3.1,0,5.1,2.2,5.1,5.7v0c0,3.5-2,5.7-5.1,5.7
				C84.5,132.7,82.6,130.5,82.6,126.9z M91.4,126.9L91.4,126.9c0-2.7-1.4-4.5-3.7-4.5c-2.3,0-3.7,1.7-3.7,4.5v0
				c0,2.7,1.4,4.5,3.7,4.5C90,131.4,91.4,129.7,91.4,126.9z"/>
			<path d="M94.3,129.7v-5.2h1.3v5c0,1.3,0.6,2,1.8,2c1.3,0,2.1-0.9,2.1-2.3v-4.7h1.3v8h-1.3v-1.1h0c-0.4,0.7-1.2,1.3-2.5,1.3
				C95.3,132.7,94.3,131.5,94.3,129.7z"/>
			<path d="M102.6,124.5h1.3v1.4h0c0.3-0.9,1-1.5,1.9-1.5c0.2,0,0.4,0,0.5,0.1v1.3c-0.1,0-0.4-0.1-0.7-0.1c-1,0-1.7,0.7-1.7,1.9v4.9
				h-1.3V124.5z"/>
			<path d="M110.9,121.4h4c2.1,0,3.6,1.4,3.6,3.6v0c0,2.1-1.5,3.6-3.6,3.6h-2.6v4h-1.4V121.4z M112.3,122.6v4.7h2.2
				c1.6,0,2.5-0.9,2.5-2.3v0c0-1.5-0.9-2.3-2.5-2.3H112.3z"/>
			<path d="M119.8,129.7v-5.2h1.3v5c0,1.3,0.6,2,1.8,2c1.3,0,2.1-0.9,2.1-2.3v-4.7h1.3v8h-1.3v-1.1h0c-0.4,0.7-1.2,1.3-2.5,1.3
				C120.8,132.7,119.8,131.5,119.8,129.7z"/>
			<path d="M128.1,124.5h1.3v1.4h0c0.3-0.9,1-1.5,1.9-1.5c0.2,0,0.4,0,0.5,0.1v1.3c-0.1,0-0.4-0.1-0.7-0.1c-1,0-1.7,0.7-1.7,1.9v4.9
				h-1.3V124.5z"/>
			<path d="M133,124.5h1.3v1.4h0c0.5-0.9,1.4-1.5,2.5-1.5c2,0,3.4,1.6,3.4,4.2v0c0,2.5-1.4,4.2-3.4,4.2c-1.1,0-2.1-0.6-2.6-1.5h0v4
				H133V124.5z M139,128.5L139,128.5c0-1.8-0.9-3-2.3-3c-1.4,0-2.3,1.2-2.3,3v0c0,1.8,1,3,2.3,3C138.1,131.5,139,130.3,139,128.5z"
				/>
			<path d="M141.3,128.5L141.3,128.5c0-2.6,1.5-4.2,3.7-4.2c2.2,0,3.7,1.6,3.7,4.1v0c0,2.6-1.5,4.2-3.7,4.2
				C142.8,132.7,141.3,131,141.3,128.5z M147.3,128.5L147.3,128.5c0-1.9-0.9-3-2.3-3c-1.4,0-2.3,1.1-2.3,3v0c0,1.9,0.9,3,2.3,3
				C146.4,131.5,147.3,130.4,147.3,128.5z"/>
			<path d="M149.7,130.3L149.7,130.3l1.3-0.1l0,0.1c0.2,0.8,0.8,1.3,1.8,1.3c1.1,0,1.7-0.5,1.7-1.2v0c0-0.6-0.3-0.9-1.2-1.1
				l-1.3-0.3c-1.5-0.4-2.2-1.1-2.2-2.2v0c0-1.4,1.2-2.4,2.9-2.4c1.8,0,2.9,1,3,2.4l0,0.1h-1.3l0-0.1c-0.1-0.8-0.7-1.3-1.7-1.3
				c-1,0-1.6,0.5-1.6,1.2v0c0,0.5,0.4,0.9,1.2,1.1l1.3,0.3c1.6,0.4,2.2,1,2.2,2.2v0c0,1.4-1.3,2.4-3.1,2.4
				C151,132.7,149.9,131.7,149.7,130.3z"/>
			<path d="M157,128.5L157,128.5c0-2.5,1.4-4.2,3.6-4.2s3.5,1.6,3.5,4v0.5h-5.8c0,1.6,0.9,2.6,2.4,2.6c1,0,1.7-0.5,2-1.2l0-0.1h1.3
				l0,0.1c-0.3,1.3-1.6,2.4-3.3,2.4C158.4,132.7,157,131,157,128.5z M158.4,127.8h4.4c-0.1-1.6-1-2.3-2.2-2.3
				C159.4,125.5,158.5,126.3,158.4,127.8z"/>
		</g>
	</g>
	<g>
		<g>
			<path d="M82.6,158.7L82.6,158.7c0-3.5,2-5.7,5.1-5.7c2.6,0,4.1,1.5,4.6,3.4l0,0.1h-1.5l0-0.1c-0.5-1.4-1.6-2.2-3.2-2.2
				c-2.3,0-3.7,1.7-3.7,4.4v0c0,2.8,1.4,4.5,3.7,4.5c2,0,3.3-1.3,3.3-3.1v-0.2h-3.1v-1.2h4.5v1.1c0,3-1.8,4.8-4.7,4.8
				C84.6,164.5,82.6,162.3,82.6,158.7z"/>
			<path d="M93.5,160.3L93.5,160.3c0-2.6,1.5-4.2,3.7-4.2c2.2,0,3.7,1.6,3.7,4.1v0c0,2.6-1.5,4.2-3.7,4.2
				C95,164.5,93.5,162.9,93.5,160.3z M99.6,160.3L99.6,160.3c0-1.9-0.9-3-2.3-3c-1.4,0-2.3,1.1-2.3,3v0c0,1.9,0.9,3,2.3,3
				C98.7,163.3,99.6,162.2,99.6,160.3z"/>
			<path d="M101.3,156.3h1.4l2.2,6.6h0l2.2-6.6h1.4l-2.9,8h-1.4L101.3,156.3z"/>
			<path d="M108.9,160.4L108.9,160.4c0-2.5,1.4-4.2,3.6-4.2s3.5,1.6,3.5,4v0.5h-5.8c0,1.6,0.9,2.6,2.4,2.6c1,0,1.7-0.5,2-1.2l0-0.1
				h1.3l0,0.1c-0.3,1.3-1.6,2.4-3.3,2.4C110.3,164.5,108.9,162.9,108.9,160.4z M110.3,159.6h4.4c-0.1-1.6-1-2.3-2.2-2.3
				C111.3,157.3,110.4,158.1,110.3,159.6z"/>
			<path d="M117.4,156.3h1.3v1.4h0c0.3-0.9,1-1.5,1.9-1.5c0.2,0,0.4,0,0.5,0.1v1.3c-0.1,0-0.4-0.1-0.7-0.1c-1,0-1.7,0.7-1.7,1.9v4.9
				h-1.3V156.3z"/>
			<path d="M122.2,156.3h1.3v1.1h0c0.4-0.7,1.2-1.3,2.5-1.3c1.8,0,2.8,1.1,2.8,3v5.2h-1.3v-5c0-1.3-0.6-2-1.8-2
				c-1.3,0-2.1,0.9-2.1,2.3v4.7h-1.3V156.3z"/>
			<path d="M130.2,162.1L130.2,162.1c0-1.4,1.1-2.2,2.9-2.3l2.3-0.1v-0.7c0-1-0.6-1.6-1.8-1.6c-1,0-1.7,0.5-1.8,1.2l0,0.1h-1.3
				l0-0.1c0.1-1.3,1.3-2.4,3.2-2.4c1.9,0,3.1,1,3.1,2.6v5.5h-1.3V163h0c-0.5,0.9-1.4,1.5-2.5,1.5
				C131.3,164.5,130.2,163.5,130.2,162.1z M133.2,163.3c1.3,0,2.2-0.9,2.2-2v-0.7l-2.1,0.1c-1.1,0.1-1.7,0.5-1.7,1.3v0
				C131.6,162.8,132.2,163.3,133.2,163.3z"/>
			<path d="M138.5,156.3h1.3v1.1h0c0.4-0.7,1.2-1.3,2.5-1.3c1.8,0,2.8,1.1,2.8,3v5.2h-1.3v-5c0-1.3-0.6-2-1.8-2
				c-1.3,0-2.1,0.9-2.1,2.3v4.7h-1.3V156.3z"/>
			<path d="M146.4,160.3L146.4,160.3c0-2.5,1.5-4.2,3.7-4.2c2,0,3.2,1.3,3.3,2.7l0,0.1h-1.3l0-0.1c-0.2-0.8-0.8-1.5-2-1.5
				c-1.4,0-2.3,1.2-2.3,3v0c0,1.9,1,3,2.3,3c1.1,0,1.8-0.6,2-1.5l0-0.1h1.3l0,0.1c-0.2,1.5-1.5,2.7-3.3,2.7
				C147.8,164.5,146.4,162.9,146.4,160.3z"/>
			<path d="M154.3,160.4L154.3,160.4c0-2.5,1.4-4.2,3.6-4.2s3.5,1.6,3.5,4v0.5h-5.8c0,1.6,0.9,2.6,2.4,2.6c1,0,1.7-0.5,2-1.2l0-0.1
				h1.3l0,0.1c-0.3,1.3-1.6,2.4-3.3,2.4C155.7,164.5,154.3,162.9,154.3,160.4z M155.7,159.6h4.4c-0.1-1.6-1-2.3-2.2-2.3
				C156.7,157.3,155.8,158.1,155.7,159.6z"/>
		</g>
	</g>
	<g>
		<g>
			<path d="M82.6,190.6L82.6,190.6c0-3.5,2-5.7,5.1-5.7c3.1,0,5.1,2.2,5.1,5.7v0c0,3.5-2,5.7-5.1,5.7
				C84.5,196.3,82.6,194.1,82.6,190.6z M91.4,190.6L91.4,190.6c0-2.7-1.4-4.5-3.7-4.5c-2.3,0-3.7,1.7-3.7,4.5v0
				c0,2.7,1.4,4.5,3.7,4.5C90,195.1,91.4,193.3,91.4,190.6z"/>
			<path d="M94.3,193.3v-5.2h1.3v5c0,1.3,0.6,2,1.8,2c1.3,0,2.1-0.9,2.1-2.3v-4.7h1.3v8h-1.3V195h0c-0.4,0.7-1.2,1.3-2.5,1.3
				C95.3,196.3,94.3,195.2,94.3,193.3z"/>
			<path d="M102.6,188.1h1.3v1.4h0c0.3-0.9,1-1.5,1.9-1.5c0.2,0,0.4,0,0.5,0.1v1.3c-0.1,0-0.4-0.1-0.7-0.1c-1,0-1.7,0.7-1.7,1.9v4.9
				h-1.3V188.1z"/>
			<path d="M110.9,185h4c2.1,0,3.6,1.4,3.6,3.6v0c0,2.1-1.5,3.6-3.6,3.6h-2.6v4h-1.4V185z M112.3,186.3v4.7h2.2
				c1.6,0,2.5-0.9,2.5-2.3v0c0-1.5-0.9-2.3-2.5-2.3H112.3z"/>
			<path d="M119.1,192.2L119.1,192.2c0-2.5,1.4-4.2,3.6-4.2s3.5,1.6,3.5,4v0.5h-5.8c0,1.6,0.9,2.6,2.4,2.6c1,0,1.7-0.5,2-1.2l0-0.1
				h1.3l0,0.1c-0.3,1.3-1.6,2.4-3.3,2.4C120.4,196.3,119.1,194.7,119.1,192.2z M120.4,191.5h4.4c-0.1-1.6-1-2.3-2.2-2.3
				C121.5,189.2,120.6,190,120.4,191.5z"/>
			<path d="M127.1,192.1L127.1,192.1c0-2.6,1.5-4.2,3.7-4.2c2.2,0,3.7,1.6,3.7,4.1v0c0,2.6-1.5,4.2-3.7,4.2
				C128.6,196.3,127.1,194.7,127.1,192.1z M133.2,192.1L133.2,192.1c0-1.9-0.9-3-2.3-3c-1.4,0-2.3,1.1-2.3,3v0c0,1.9,0.9,3,2.3,3
				C132.3,195.1,133.2,194,133.2,192.1z"/>
			<path d="M135.9,188.1h1.3v1.4h0c0.5-0.9,1.4-1.5,2.5-1.5c2,0,3.4,1.6,3.4,4.2v0c0,2.5-1.4,4.2-3.4,4.2c-1.1,0-2.1-0.6-2.6-1.5h0
				v4h-1.3V188.1z M141.9,192.2L141.9,192.2c0-1.8-0.9-3-2.3-3c-1.4,0-2.3,1.2-2.3,3v0c0,1.8,1,3,2.3,3
				C141,195.1,141.9,194,141.9,192.2z"/>
			<path d="M144.6,185h1.3v11.1h-1.3V185z"/>
			<path d="M147.4,192.2L147.4,192.2c0-2.5,1.4-4.2,3.6-4.2s3.5,1.6,3.5,4v0.5h-5.8c0,1.6,0.9,2.6,2.4,2.6c1,0,1.7-0.5,2-1.2l0-0.1
				h1.3l0,0.1c-0.3,1.3-1.6,2.4-3.3,2.4C148.8,196.3,147.4,194.7,147.4,192.2z M148.8,191.5h4.4c-0.1-1.6-1-2.3-2.2-2.3
				C149.8,189.2,148.9,190,148.8,191.5z"/>
		</g>
	</g>
	<g>
		<g>
			<path d="M82.6,222.4L82.6,222.4c0-3.5,2-5.7,5.1-5.7c3.1,0,5.1,2.2,5.1,5.7v0c0,3.5-2,5.7-5.1,5.7
				C84.5,228.2,82.6,226,82.6,222.4z M91.4,222.4L91.4,222.4c0-2.7-1.4-4.5-3.7-4.5c-2.3,0-3.7,1.7-3.7,4.5v0c0,2.7,1.4,4.5,3.7,4.5
				C90,226.9,91.4,225.1,91.4,222.4z"/>
			<path d="M94.3,225.2V220h1.3v5c0,1.3,0.6,2,1.8,2c1.3,0,2.1-0.9,2.1-2.3V220h1.3v8h-1.3v-1.1h0c-0.4,0.7-1.2,1.3-2.5,1.3
				C95.3,228.1,94.3,227,94.3,225.2z"/>
			<path d="M102.6,220h1.3v1.4h0c0.3-0.9,1-1.5,1.9-1.5c0.2,0,0.4,0,0.5,0.1v1.3c-0.1,0-0.4-0.1-0.7-0.1c-1,0-1.7,0.7-1.7,1.9v4.9
				h-1.3V220z"/>
			<path d="M110.2,225.4l0-0.1h1.4l0,0.1c0.1,0.8,0.6,1.5,1.7,1.5c1.2,0,1.9-0.7,1.9-2.1v-7.9h1.4v8c0,2.1-1.2,3.4-3.3,3.4
				C111.4,228.2,110.3,227,110.2,225.4z"/>
			<path d="M118.1,224L118.1,224c0-2.6,1.5-4.2,3.7-4.2c2.2,0,3.7,1.6,3.7,4.1v0c0,2.6-1.5,4.2-3.7,4.2
				C119.6,228.1,118.1,226.5,118.1,224z M124.2,224L124.2,224c0-1.9-0.9-3-2.3-3c-1.4,0-2.3,1.1-2.3,3v0c0,1.9,0.9,3,2.3,3
				C123.3,226.9,124.2,225.9,124.2,224z"/>
			<path d="M126.9,225.2V220h1.3v5c0,1.3,0.6,2,1.8,2c1.3,0,2.1-0.9,2.1-2.3V220h1.3v8h-1.3v-1.1h0c-0.4,0.7-1.2,1.3-2.5,1.3
				C127.9,228.1,126.9,227,126.9,225.2z"/>
			<path d="M135.2,220h1.3v1.4h0c0.3-0.9,1-1.5,1.9-1.5c0.2,0,0.4,0,0.5,0.1v1.3c-0.1,0-0.4-0.1-0.7-0.1c-1,0-1.7,0.7-1.7,1.9v4.9
				h-1.3V220z"/>
			<path d="M140.1,220h1.3v1.1h0c0.4-0.7,1.2-1.3,2.5-1.3c1.8,0,2.8,1.1,2.8,3v5.2h-1.3v-5c0-1.3-0.6-2-1.8-2
				c-1.3,0-2.1,0.9-2.1,2.3v4.7h-1.3V220z"/>
			<path d="M148,224L148,224c0-2.5,1.4-4.2,3.6-4.2s3.5,1.6,3.5,4v0.5h-5.8c0,1.6,0.9,2.6,2.4,2.6c1,0,1.7-0.5,2-1.2l0-0.1h1.3
				l0,0.1c-0.3,1.3-1.6,2.4-3.3,2.4C149.4,228.1,148,226.5,148,224z M149.4,223.3h4.4c-0.1-1.6-1-2.3-2.2-2.3
				C150.4,221,149.5,221.8,149.4,223.3z"/>
			<path d="M156.2,230.6v-1.1c0.1,0,0.3,0,0.4,0c0.8,0,1.3-0.2,1.6-1.1l0.2-0.5l-3-8h1.4l2.2,6.7h0l2.2-6.7h1.4l-3.1,8.5
				c-0.6,1.5-1.3,2.2-2.7,2.2C156.7,230.7,156.4,230.6,156.2,230.6z"/>
		</g>
	</g>
	<g>
		<g>
			<path d="M83,248.7h1.4v11.1H83V248.7z"/>
			<path d="M86.3,251.8h1.3v1.1h0c0.4-0.7,1.2-1.3,2.5-1.3c1.8,0,2.8,1.1,2.8,3v5.2h-1.3v-5c0-1.3-0.6-2-1.8-2
				c-1.3,0-2.1,0.9-2.1,2.3v4.7h-1.3V251.8z"/>
			<path d="M93.9,251.8h1.4l2.2,6.6h0l2.2-6.6h1.4l-2.9,8h-1.4L93.9,251.8z"/>
			<path d="M101.6,255.8L101.6,255.8c0-2.5,1.4-4.2,3.6-4.2s3.5,1.6,3.5,4v0.5h-5.8c0,1.6,0.9,2.6,2.4,2.6c1,0,1.7-0.5,2-1.2l0-0.1
				h1.3l0,0.1c-0.3,1.3-1.6,2.4-3.3,2.4C102.9,260,101.6,258.3,101.6,255.8z M102.9,255.1h4.4c-0.1-1.6-1-2.3-2.2-2.3
				C104,252.8,103.1,253.6,102.9,255.1z"/>
			<path d="M109.7,257.6L109.7,257.6l1.3-0.1l0,0.1c0.2,0.8,0.8,1.3,1.8,1.3c1.1,0,1.7-0.5,1.7-1.2v0c0-0.6-0.3-0.9-1.2-1.1
				l-1.3-0.3c-1.5-0.4-2.2-1.1-2.2-2.2v0c0-1.4,1.2-2.4,2.9-2.4c1.8,0,2.9,1,3,2.4l0,0.1h-1.3l0-0.1c-0.1-0.8-0.7-1.3-1.7-1.3
				c-1,0-1.6,0.5-1.6,1.2v0c0,0.5,0.4,0.9,1.2,1.1l1.3,0.3c1.6,0.4,2.2,1,2.2,2.2v0c0,1.4-1.3,2.4-3.1,2.4
				C111,260,109.8,259,109.7,257.6z"/>
			<path d="M117.8,257.8v-4.9h-1.2v-1.1h1.2v-2.2h1.4v2.2h1.5v1.1h-1.5v4.9c0,0.9,0.4,1.1,1.1,1.1c0.2,0,0.3,0,0.4,0v1.1
				c-0.2,0-0.5,0.1-0.7,0.1C118.5,260,117.8,259.3,117.8,257.8z"/>
			<path d="M121.5,255.8L121.5,255.8c0-2.6,1.5-4.2,3.7-4.2c2.2,0,3.7,1.6,3.7,4.1v0c0,2.6-1.5,4.2-3.7,4.2
				C123,260,121.5,258.3,121.5,255.8z M127.5,255.8L127.5,255.8c0-1.9-0.9-3-2.3-3c-1.4,0-2.3,1.1-2.3,3v0c0,1.9,0.9,3,2.3,3
				C126.6,258.8,127.5,257.7,127.5,255.8z"/>
			<path d="M130.3,251.8h1.3v1.4h0c0.3-0.9,1-1.5,1.9-1.5c0.2,0,0.4,0,0.5,0.1v1.3c-0.1,0-0.4-0.1-0.7-0.1c-1,0-1.7,0.7-1.7,1.9v4.9
				h-1.3V251.8z"/>
			<path d="M134.8,257.6L134.8,257.6l1.3-0.1l0,0.1c0.2,0.8,0.8,1.3,1.8,1.3c1.1,0,1.7-0.5,1.7-1.2v0c0-0.6-0.3-0.9-1.2-1.1
				l-1.3-0.3c-1.5-0.4-2.2-1.1-2.2-2.2v0c0-1.4,1.2-2.4,2.9-2.4c1.8,0,2.9,1,3,2.4l0,0.1h-1.3l0-0.1c-0.1-0.8-0.7-1.3-1.7-1.3
				c-1,0-1.6,0.5-1.6,1.2v0c0,0.5,0.4,0.9,1.2,1.1l1.3,0.3c1.6,0.4,2.2,1,2.2,2.2v0c0,1.4-1.3,2.4-3.1,2.4
				C136.1,260,134.9,259,134.8,257.6z"/>
			<path d="M145.9,248.7h4.2c2.1,0,3.5,1.3,3.5,3.3v0c0,1.5-0.8,2.7-2.2,3.2l2.6,4.6h-1.6l-2.4-4.4h-2.7v4.4h-1.4V248.7z
				 M149.9,254.2c1.4,0,2.2-0.8,2.2-2.1v0c0-1.3-0.9-2.1-2.3-2.1h-2.6v4.3H149.9z"/>
			<path d="M154.7,255.8L154.7,255.8c0-2.5,1.4-4.2,3.6-4.2s3.5,1.6,3.5,4v0.5h-5.8c0,1.6,0.9,2.6,2.4,2.6c1,0,1.7-0.5,2-1.2l0-0.1
				h1.3l0,0.1c-0.3,1.3-1.6,2.4-3.3,2.4C156.1,260,154.7,258.3,154.7,255.8z M156.1,255.1h4.4c-0.1-1.6-1-2.3-2.2-2.3
				C157.2,252.8,156.3,253.6,156.1,255.1z"/>
			<path d="M163.3,248.7h1.3v11.1h-1.3V248.7z"/>
			<path d="M166.1,257.5L166.1,257.5c0-1.4,1.1-2.2,2.9-2.3l2.3-0.1v-0.7c0-1-0.6-1.6-1.8-1.6c-1,0-1.7,0.5-1.8,1.2l0,0.1h-1.3
				l0-0.1c0.1-1.3,1.3-2.4,3.2-2.4c1.9,0,3.1,1,3.1,2.6v5.5h-1.3v-1.3h0c-0.5,0.9-1.4,1.5-2.5,1.5C167.2,260,166.1,259,166.1,257.5z
				 M169.1,258.8c1.3,0,2.2-0.9,2.2-2v-0.7l-2.1,0.1c-1.1,0.1-1.7,0.5-1.7,1.3v0C167.5,258.3,168.1,258.8,169.1,258.8z"/>
			<path d="M174.8,257.8v-4.9h-1.2v-1.1h1.2v-2.2h1.4v2.2h1.5v1.1h-1.5v4.9c0,0.9,0.4,1.1,1.1,1.1c0.2,0,0.3,0,0.4,0v1.1
				c-0.2,0-0.5,0.1-0.7,0.1C175.5,260,174.8,259.3,174.8,257.8z"/>
			<path d="M179,249.6c0-0.5,0.4-0.8,0.8-0.8c0.5,0,0.8,0.4,0.8,0.8c0,0.5-0.4,0.8-0.8,0.8C179.4,250.4,179,250.1,179,249.6z
				 M179.2,251.8h1.3v8h-1.3V251.8z"/>
			<path d="M182,255.8L182,255.8c0-2.6,1.5-4.2,3.7-4.2c2.2,0,3.7,1.6,3.7,4.1v0c0,2.6-1.5,4.2-3.7,4.2
				C183.5,260,182,258.3,182,255.8z M188,255.8L188,255.8c0-1.9-0.9-3-2.3-3c-1.4,0-2.3,1.1-2.3,3v0c0,1.9,0.9,3,2.3,3
				C187.1,258.8,188,257.7,188,255.8z"/>
			<path d="M190.7,251.8h1.3v1.1h0c0.4-0.7,1.2-1.3,2.5-1.3c1.8,0,2.8,1.1,2.8,3v5.2H196v-5c0-1.3-0.6-2-1.8-2
				c-1.3,0-2.1,0.9-2.1,2.3v4.7h-1.3V251.8z"/>
			<path d="M198.7,257.6L198.7,257.6l1.3-0.1l0,0.1c0.2,0.8,0.8,1.3,1.8,1.3c1.1,0,1.7-0.5,1.7-1.2v0c0-0.6-0.3-0.9-1.2-1.1
				l-1.3-0.3c-1.5-0.4-2.2-1.1-2.2-2.2v0c0-1.4,1.2-2.4,2.9-2.4c1.8,0,2.9,1,3,2.4l0,0.1h-1.3l0-0.1c-0.1-0.8-0.7-1.3-1.7-1.3
				c-1,0-1.6,0.5-1.6,1.2v0c0,0.5,0.4,0.9,1.2,1.1l1.3,0.3c1.6,0.4,2.2,1,2.2,2.2v0c0,1.4-1.3,2.4-3.1,2.4
				C200,260,198.9,259,198.7,257.6z"/>
		</g>
	</g>
	<g>
		<g>
			<path d="M127,280.5h1.4l4.1,11.1H131l-1.1-3.2h-4.5l-1.1,3.2h-1.5L127,280.5z M125.8,287.3h3.6l-1.8-5.1h0L125.8,287.3z"/>
			<path d="M133.2,289.4L133.2,289.4l1.3-0.1l0,0.1c0.2,0.8,0.8,1.3,1.8,1.3c1.1,0,1.7-0.5,1.7-1.2v0c0-0.6-0.3-0.9-1.2-1.1
				l-1.3-0.3c-1.5-0.4-2.2-1.1-2.2-2.2v0c0-1.4,1.2-2.4,2.9-2.4c1.8,0,2.9,1,3,2.4l0,0.1H138l0-0.1c-0.1-0.8-0.7-1.3-1.7-1.3
				c-1,0-1.6,0.5-1.6,1.2v0c0,0.5,0.4,0.9,1.2,1.1l1.3,0.3c1.6,0.4,2.2,1,2.2,2.2v0c0,1.4-1.3,2.4-3.1,2.4
				C134.5,291.8,133.3,290.8,133.2,289.4z"/>
			<path d="M141,280.5h1.3v6.6h0l3.5-3.5h1.6l-3.5,3.5l3.6,4.6H146l-3-3.7l-0.7,0.7v3H141V280.5z"/>
			<path d="M151.4,289.4L151.4,289.4c0-1.4,1.1-2.2,2.9-2.3l2.3-0.1v-0.7c0-1-0.6-1.6-1.8-1.6c-1,0-1.7,0.5-1.8,1.2l0,0.1h-1.3
				l0-0.1c0.1-1.3,1.3-2.4,3.2-2.4c1.9,0,3.1,1,3.1,2.6v5.5h-1.3v-1.3h0c-0.5,0.9-1.4,1.5-2.5,1.5
				C152.5,291.8,151.4,290.8,151.4,289.4z M154.4,290.6c1.3,0,2.2-0.9,2.2-2v-0.7l-2.1,0.1c-1.1,0.1-1.7,0.5-1.7,1.3v0
				C152.8,290.1,153.4,290.6,154.4,290.6z"/>
			<path d="M162.7,286.1L162.7,286.1c0-3.5,2-5.7,5.1-5.7c3.1,0,5.1,2.2,5.1,5.7v0c0,2.2-0.7,3.8-2,4.8l1.5,2h-1.6l-1-1.4
				c-0.6,0.2-1.3,0.3-2,0.3C164.7,291.8,162.7,289.6,162.7,286.1z M169,290.4l-1.4-1.9h1.6l0.9,1.3c0.9-0.8,1.4-2,1.4-3.7v0
				c0-2.7-1.4-4.5-3.7-4.5c-2.3,0-3.7,1.7-3.7,4.5v0c0,2.7,1.4,4.5,3.7,4.5C168.2,290.5,168.6,290.5,169,290.4z"/>
			<path d="M174.4,288.8v-5.2h1.3v5c0,1.3,0.6,2,1.8,2c1.3,0,2.1-0.9,2.1-2.3v-4.7h1.3v8h-1.3v-1.1h0c-0.4,0.7-1.2,1.3-2.5,1.3
				C175.4,291.8,174.4,290.6,174.4,288.8z"/>
			<path d="M182.4,287.7L182.4,287.7c0-2.5,1.4-4.2,3.6-4.2s3.5,1.6,3.5,4v0.5h-5.8c0,1.6,0.9,2.6,2.4,2.6c1,0,1.7-0.5,2-1.2l0-0.1
				h1.3l0,0.1c-0.3,1.3-1.6,2.4-3.3,2.4C183.8,291.8,182.4,290.2,182.4,287.7z M183.7,286.9h4.4c-0.1-1.6-1-2.3-2.2-2.3
				C184.8,284.6,183.9,285.4,183.7,286.9z"/>
			<path d="M190.5,289.4L190.5,289.4l1.3-0.1l0,0.1c0.2,0.8,0.8,1.3,1.8,1.3c1.1,0,1.7-0.5,1.7-1.2v0c0-0.6-0.3-0.9-1.2-1.1
				l-1.3-0.3c-1.5-0.4-2.2-1.1-2.2-2.2v0c0-1.4,1.2-2.4,2.9-2.4c1.8,0,2.9,1,3,2.4l0,0.1h-1.3l0-0.1c-0.1-0.8-0.7-1.3-1.7-1.3
				c-1,0-1.6,0.5-1.6,1.2v0c0,0.5,0.4,0.9,1.2,1.1l1.3,0.3c1.6,0.4,2.2,1,2.2,2.2v0c0,1.4-1.3,2.4-3.1,2.4
				C191.8,291.8,190.7,290.8,190.5,289.4z"/>
			<path d="M198.6,289.6v-4.9h-1.2v-1.1h1.2v-2.2h1.4v2.2h1.5v1.1H200v4.9c0,0.9,0.4,1.1,1.1,1.1c0.2,0,0.3,0,0.4,0v1.1
				c-0.2,0-0.5,0.1-0.7,0.1C199.3,291.8,198.6,291.1,198.6,289.6z"/>
			<path d="M202.8,281.4c0-0.5,0.4-0.8,0.8-0.8c0.5,0,0.8,0.4,0.8,0.8c0,0.5-0.4,0.8-0.8,0.8C203.2,282.3,202.8,281.9,202.8,281.4z
				 M203,283.6h1.3v8H203V283.6z"/>
			<path d="M205.8,287.6L205.8,287.6c0-2.6,1.5-4.2,3.7-4.2c2.2,0,3.7,1.6,3.7,4.1v0c0,2.6-1.5,4.2-3.7,4.2
				C207.3,291.8,205.8,290.2,205.8,287.6z M211.8,287.6L211.8,287.6c0-1.9-0.9-3-2.3-3c-1.4,0-2.3,1.1-2.3,3v0c0,1.9,0.9,3,2.3,3
				C210.9,290.6,211.8,289.5,211.8,287.6z"/>
			<path d="M214.5,283.6h1.3v1.1h0c0.4-0.7,1.2-1.3,2.5-1.3c1.8,0,2.8,1.1,2.8,3v5.2h-1.3v-5c0-1.3-0.6-2-1.8-2
				c-1.3,0-2.1,0.9-2.1,2.3v4.7h-1.3V283.6z"/>
		</g>
	</g>
	<g>
		<g>
			<path d="M123.7,312.5h6.9v1.2h-5.5v3.6h5.2v1.2h-5.2v3.8h5.5v1.2h-6.9V312.5z"/>
			<path d="M131.5,315.6h1.4l2.2,6.6h0l2.2-6.6h1.4l-2.9,8h-1.4L131.5,315.6z"/>
			<path d="M139.1,319.6L139.1,319.6c0-2.5,1.4-4.2,3.6-4.2s3.5,1.6,3.5,4v0.5h-5.8c0,1.6,0.9,2.6,2.4,2.6c1,0,1.7-0.5,2-1.2l0-0.1
				h1.3l0,0.1c-0.3,1.3-1.6,2.4-3.3,2.4C140.5,323.8,139.1,322.2,139.1,319.6z M140.5,318.9h4.4c-0.1-1.6-1-2.3-2.2-2.3
				C141.6,316.6,140.7,317.4,140.5,318.9z"/>
			<path d="M147.6,315.6h1.3v1.1h0c0.4-0.7,1.2-1.3,2.5-1.3c1.8,0,2.8,1.1,2.8,3v5.2h-1.3v-5c0-1.3-0.6-2-1.8-2
				c-1.3,0-2.1,0.9-2.1,2.3v4.7h-1.3V315.6z"/>
			<path d="M156.3,321.6v-4.9h-1.2v-1.1h1.2v-2.2h1.4v2.2h1.5v1.1h-1.5v4.9c0,0.9,0.4,1.1,1.1,1.1c0.2,0,0.3,0,0.4,0v1.1
				c-0.2,0-0.5,0.1-0.7,0.1C157.1,323.8,156.3,323.1,156.3,321.6z"/>
			<path d="M160.3,321.4L160.3,321.4l1.3-0.1l0,0.1c0.2,0.8,0.8,1.3,1.8,1.3c1.1,0,1.7-0.5,1.7-1.2v0c0-0.6-0.3-0.9-1.2-1.1
				l-1.3-0.3c-1.5-0.4-2.2-1.1-2.2-2.2v0c0-1.4,1.2-2.4,2.9-2.4c1.8,0,2.9,1,3,2.4l0,0.1h-1.3l0-0.1c-0.1-0.8-0.7-1.3-1.7-1.3
				c-1,0-1.6,0.5-1.6,1.2v0c0,0.5,0.4,0.9,1.2,1.1l1.3,0.3c1.6,0.4,2.2,1,2.2,2.2v0c0,1.4-1.3,2.4-3.1,2.4
				C161.6,323.8,160.5,322.8,160.3,321.4z"/>
			<path d="M171,318L171,318c0-3.5,2-5.7,5.1-5.7c2.3,0,4.1,1.4,4.5,3.5l0,0.1h-1.4l-0.1-0.2c-0.4-1.3-1.5-2.1-3.1-2.1
				c-2.2,0-3.7,1.7-3.7,4.5v0c0,2.7,1.4,4.5,3.7,4.5c1.6,0,2.6-0.8,3.1-2.2l0-0.1h1.4l0,0.1c-0.4,2.1-2.2,3.5-4.5,3.5
				C173,323.8,171,321.5,171,318z"/>
			<path d="M181.7,321.3L181.7,321.3c0-1.4,1.1-2.2,2.9-2.3l2.3-0.1v-0.7c0-1-0.6-1.6-1.8-1.6c-1,0-1.7,0.5-1.8,1.2l0,0.1H182l0-0.1
				c0.1-1.3,1.3-2.4,3.2-2.4c1.9,0,3.1,1,3.1,2.6v5.5h-1.3v-1.3h0c-0.5,0.9-1.4,1.5-2.5,1.5C182.8,323.8,181.7,322.8,181.7,321.3z
				 M184.7,322.6c1.3,0,2.2-0.9,2.2-2v-0.7l-2.1,0.1c-1.1,0.1-1.7,0.5-1.7,1.3v0C183.1,322.1,183.7,322.6,184.7,322.6z"/>
			<path d="M190.1,312.5h1.3v11.1h-1.3V312.5z"/>
			<path d="M192.8,319.6L192.8,319.6c0-2.5,1.4-4.2,3.6-4.2s3.5,1.6,3.5,4v0.5h-5.8c0,1.6,0.9,2.6,2.4,2.6c1,0,1.7-0.5,2-1.2l0-0.1
				h1.3l0,0.1c-0.3,1.3-1.6,2.4-3.3,2.4C194.2,323.8,192.8,322.2,192.8,319.6z M194.2,318.9h4.4c-0.1-1.6-1-2.3-2.2-2.3
				C195.2,316.6,194.3,317.4,194.2,318.9z"/>
			<path d="M201.3,315.6h1.3v1.1h0c0.4-0.7,1.2-1.3,2.5-1.3c1.8,0,2.8,1.1,2.8,3v5.2h-1.3v-5c0-1.3-0.6-2-1.8-2
				c-1.3,0-2.1,0.9-2.1,2.3v4.7h-1.3V315.6z"/>
			<path d="M209.2,319.6L209.2,319.6c0-2.5,1.4-4.2,3.4-4.2c1.1,0,2.1,0.6,2.6,1.5h0v-4.4h1.3v11.1h-1.3v-1.4h0
				c-0.5,0.9-1.4,1.5-2.5,1.5C210.6,323.8,209.2,322.1,209.2,319.6z M215.2,319.6L215.2,319.6c0-1.8-1-3-2.3-3c-1.4,0-2.3,1.1-2.3,3
				v0c0,1.8,0.9,3,2.3,3C214.2,322.6,215.2,321.4,215.2,319.6z"/>
			<path d="M218,321.3L218,321.3c0-1.4,1.1-2.2,2.9-2.3l2.3-0.1v-0.7c0-1-0.6-1.6-1.8-1.6c-1,0-1.7,0.5-1.8,1.2l0,0.1h-1.3l0-0.1
				c0.1-1.3,1.3-2.4,3.2-2.4c1.9,0,3.1,1,3.1,2.6v5.5h-1.3v-1.3h0c-0.5,0.9-1.4,1.5-2.5,1.5C219.1,323.8,218,322.8,218,321.3z
				 M221,322.6c1.3,0,2.2-0.9,2.2-2v-0.7l-2.1,0.1c-1.1,0.1-1.7,0.5-1.7,1.3v0C219.4,322.1,220,322.6,221,322.6z"/>
			<path d="M226.2,315.6h1.3v1.4h0c0.3-0.9,1-1.5,1.9-1.5c0.2,0,0.4,0,0.5,0.1v1.3c-0.1,0-0.4-0.1-0.7-0.1c-1,0-1.7,0.7-1.7,1.9v4.9
				h-1.3V315.6z"/>
		</g>
	</g>
	<g>
		<g>
			<path d="M123.7,344.5h6.8v1.2h-5.4v3.8h4.9v1.2h-4.9v4.8h-1.4V344.5z"/>
			<path d="M131.8,345.4c0-0.5,0.4-0.8,0.8-0.8c0.5,0,0.8,0.4,0.8,0.8c0,0.5-0.4,0.8-0.8,0.8C132.1,346.2,131.8,345.8,131.8,345.4z
				 M131.9,347.6h1.3v8h-1.3V347.6z"/>
			<path d="M135.1,347.6h1.3v1.1h0c0.4-0.7,1.2-1.3,2.5-1.3c1.8,0,2.8,1.1,2.8,3v5.2h-1.3v-5c0-1.3-0.6-2-1.8-2
				c-1.3,0-2.1,0.9-2.1,2.3v4.7h-1.3V347.6z"/>
			<path d="M143.1,353.3L143.1,353.3c0-1.4,1.1-2.2,2.9-2.3l2.3-0.1v-0.7c0-1-0.6-1.6-1.8-1.6c-1,0-1.7,0.5-1.8,1.2l0,0.1h-1.3
				l0-0.1c0.1-1.3,1.3-2.4,3.2-2.4c1.9,0,3.1,1,3.1,2.6v5.5h-1.3v-1.3h0c-0.5,0.9-1.4,1.5-2.5,1.5
				C144.1,355.7,143.1,354.8,143.1,353.3z M146,354.6c1.3,0,2.2-0.9,2.2-2v-0.7l-2.1,0.1c-1.1,0.1-1.7,0.5-1.7,1.3v0
				C144.4,354.1,145.1,354.6,146,354.6z"/>
			<path d="M151.3,347.6h1.3v1.1h0c0.4-0.7,1.2-1.3,2.5-1.3c1.8,0,2.8,1.1,2.8,3v5.2h-1.3v-5c0-1.3-0.6-2-1.8-2
				c-1.3,0-2.1,0.9-2.1,2.3v4.7h-1.3V347.6z"/>
			<path d="M159.2,351.6L159.2,351.6c0-2.5,1.5-4.2,3.7-4.2c2,0,3.2,1.3,3.3,2.7l0,0.1H165l0-0.1c-0.2-0.8-0.8-1.5-2-1.5
				c-1.4,0-2.3,1.2-2.3,3v0c0,1.9,1,3,2.3,3c1.1,0,1.8-0.6,2-1.5l0-0.1h1.3l0,0.1c-0.2,1.5-1.5,2.7-3.3,2.7
				C160.7,355.7,159.2,354.1,159.2,351.6z"/>
			<path d="M167.4,345.4c0-0.5,0.4-0.8,0.8-0.8c0.5,0,0.8,0.4,0.8,0.8c0,0.5-0.4,0.8-0.8,0.8C167.8,346.2,167.4,345.8,167.4,345.4z
				 M167.6,347.6h1.3v8h-1.3V347.6z"/>
			<path d="M170.5,353.3L170.5,353.3c0-1.4,1.1-2.2,2.9-2.3l2.3-0.1v-0.7c0-1-0.6-1.6-1.8-1.6c-1,0-1.7,0.5-1.8,1.2l0,0.1h-1.3
				l0-0.1c0.1-1.3,1.3-2.4,3.2-2.4c1.9,0,3.1,1,3.1,2.6v5.5h-1.3v-1.3h0c-0.5,0.9-1.4,1.5-2.5,1.5
				C171.5,355.7,170.5,354.8,170.5,353.3z M173.4,354.6c1.3,0,2.2-0.9,2.2-2v-0.7l-2.1,0.1c-1.1,0.1-1.7,0.5-1.7,1.3v0
				C171.8,354.1,172.5,354.6,173.4,354.6z"/>
			<path d="M178.8,344.5h1.3v11.1h-1.3V344.5z"/>
			<path d="M185.4,344.5h4.2c2.1,0,3.5,1.3,3.5,3.3v0c0,1.5-0.8,2.7-2.2,3.2l2.6,4.6h-1.6l-2.4-4.4h-2.7v4.4h-1.4V344.5z M189.4,350
				c1.4,0,2.2-0.8,2.2-2.1v0c0-1.3-0.9-2.1-2.3-2.1h-2.6v4.3H189.4z"/>
			<path d="M194.2,351.6L194.2,351.6c0-2.5,1.4-4.2,3.6-4.2s3.5,1.6,3.5,4v0.5h-5.8c0,1.7,0.9,2.6,2.4,2.6c1,0,1.7-0.5,2-1.2l0-0.1
				h1.3l0,0.1c-0.3,1.3-1.6,2.4-3.3,2.4C195.6,355.7,194.2,354.1,194.2,351.6z M195.6,350.9h4.4c-0.1-1.6-1-2.3-2.2-2.3
				C196.6,348.6,195.7,349.4,195.6,350.9z"/>
			<path d="M202.7,347.6h1.3v1.4h0c0.5-0.9,1.4-1.5,2.5-1.5c2,0,3.4,1.6,3.4,4.2v0c0,2.5-1.4,4.2-3.4,4.2c-1.1,0-2.1-0.6-2.6-1.5h0
				v4h-1.3V347.6z M208.6,351.6L208.6,351.6c0-1.8-0.9-3-2.3-3c-1.4,0-2.3,1.2-2.3,3v0c0,1.8,1,3,2.3,3
				C207.7,354.6,208.6,353.4,208.6,351.6z"/>
			<path d="M210.9,351.6L210.9,351.6c0-2.6,1.5-4.2,3.7-4.2c2.2,0,3.7,1.6,3.7,4.1v0c0,2.6-1.5,4.2-3.7,4.2
				C212.4,355.7,210.9,354.1,210.9,351.6z M217,351.6L217,351.6c0-1.9-0.9-3-2.3-3c-1.4,0-2.3,1.1-2.3,3v0c0,1.9,0.9,3,2.3,3
				C216.1,354.6,217,353.5,217,351.6z"/>
			<path d="M219.7,347.6h1.3v1.4h0c0.3-0.9,1-1.5,1.9-1.5c0.2,0,0.4,0,0.5,0.1v1.3c-0.1,0-0.4-0.1-0.7-0.1c-1,0-1.7,0.7-1.7,1.9v4.9
				h-1.3V347.6z"/>
			<path d="M225.4,353.5v-4.9h-1.2v-1.1h1.2v-2.2h1.4v2.2h1.5v1.1h-1.5v4.9c0,0.9,0.4,1.1,1.1,1.1c0.2,0,0.3,0,0.4,0v1.1
				c-0.2,0-0.5,0.1-0.7,0.1C226.1,355.7,225.4,355.1,225.4,353.5z"/>
			<path d="M229.4,353.3L229.4,353.3l1.3-0.1l0,0.1c0.2,0.8,0.8,1.3,1.8,1.3c1.1,0,1.7-0.5,1.7-1.2v0c0-0.6-0.3-0.9-1.2-1.1
				l-1.3-0.3c-1.5-0.4-2.2-1.1-2.2-2.2v0c0-1.4,1.2-2.4,2.9-2.4c1.8,0,2.9,1,3,2.4l0,0.1h-1.3l0-0.1c-0.1-0.8-0.7-1.3-1.7-1.3
				c-1,0-1.6,0.5-1.6,1.2v0c0,0.5,0.4,0.9,1.2,1.1l1.3,0.3c1.6,0.4,2.2,1,2.2,2.2v0c0,1.4-1.3,2.4-3.1,2.4
				C230.7,355.7,229.5,354.8,229.4,353.3z"/>
		</g>
	</g>
	<g>
		<g>
			<path d="M123.2,384.7l0-0.1h1.4l0,0.1c0.2,1.1,1.2,1.8,2.9,1.8c1.6,0,2.6-0.7,2.6-1.9v0c0-1-0.6-1.5-2.2-1.9l-1.2-0.3
				c-2.2-0.5-3.2-1.5-3.2-3.1v0c0-1.8,1.6-3.1,3.9-3.1c2.2,0,3.8,1.3,3.9,3.1l0,0.1h-1.4l0-0.1c-0.2-1.1-1.1-1.8-2.5-1.8
				c-1.5,0-2.5,0.7-2.5,1.8v0c0,0.9,0.7,1.5,2.1,1.8l1.2,0.3c2.3,0.5,3.2,1.4,3.2,3.1v0c0,2-1.6,3.2-4.1,3.2
				C125,387.8,123.3,386.6,123.2,384.7z"/>
			<path d="M132.9,376.4h1.3v4.4h0c0.4-0.9,1.3-1.4,2.5-1.4c1.7,0,2.9,1.3,2.9,3.3v4.9h-1.3v-4.7c0-1.4-0.7-2.3-2-2.3
				c-1.2,0-2.1,0.9-2.1,2.3v4.7h-1.3V376.4z"/>
			<path d="M141,385.3L141,385.3c0-1.4,1.1-2.2,2.9-2.3l2.3-0.1v-0.7c0-1-0.6-1.6-1.8-1.6c-1,0-1.7,0.5-1.8,1.2l0,0.1h-1.3l0-0.1
				c0.1-1.3,1.3-2.4,3.2-2.4c1.9,0,3.1,1,3.1,2.6v5.5h-1.3v-1.3h0c-0.5,0.9-1.4,1.5-2.5,1.5C142.1,387.7,141,386.8,141,385.3z
				 M144,386.6c1.3,0,2.2-0.9,2.2-2v-0.7l-2.1,0.1c-1.1,0.1-1.7,0.5-1.7,1.3v0C142.4,386.1,143.1,386.6,144,386.6z"/>
			<path d="M149.3,379.6h1.3v1.4h0c0.3-0.9,1-1.5,1.9-1.5c0.2,0,0.4,0,0.5,0.1v1.3c-0.1,0-0.4-0.1-0.7-0.1c-1,0-1.7,0.7-1.7,1.9v4.9
				h-1.3V379.6z"/>
			<path d="M153.4,383.6L153.4,383.6c0-2.5,1.4-4.2,3.6-4.2s3.5,1.6,3.5,4v0.5h-5.8c0,1.6,0.9,2.6,2.4,2.6c1,0,1.7-0.5,2-1.2l0-0.1
				h1.3l0,0.1c-0.3,1.3-1.6,2.4-3.3,2.4C154.8,387.7,153.4,386.1,153.4,383.6z M154.8,382.9h4.4c-0.1-1.6-1-2.3-2.2-2.3
				C155.8,380.6,154.9,381.4,154.8,382.9z"/>
			<path d="M164.9,382L164.9,382c0-3.5,2-5.7,5.1-5.7c2.3,0,4.1,1.4,4.5,3.5l0,0.1h-1.4l-0.1-0.2c-0.4-1.3-1.5-2.1-3.1-2.1
				c-2.2,0-3.7,1.7-3.7,4.5v0c0,2.7,1.4,4.5,3.7,4.5c1.6,0,2.6-0.8,3.1-2.2l0-0.1h1.4l0,0.1c-0.4,2.1-2.2,3.5-4.5,3.5
				C166.8,387.8,164.9,385.5,164.9,382z"/>
			<path d="M176,376.4h1.3v4.4h0c0.4-0.9,1.3-1.4,2.5-1.4c1.7,0,2.9,1.3,2.9,3.3v4.9h-1.3v-4.7c0-1.4-0.7-2.3-2-2.3
				c-1.2,0-2.1,0.9-2.1,2.3v4.7H176V376.4z"/>
			<path d="M184.1,385.3L184.1,385.3c0-1.4,1.1-2.2,2.9-2.3l2.3-0.1v-0.7c0-1-0.6-1.6-1.8-1.6c-1,0-1.7,0.5-1.8,1.2l0,0.1h-1.3
				l0-0.1c0.1-1.3,1.3-2.4,3.2-2.4c1.9,0,3.1,1,3.1,2.6v5.5h-1.3v-1.3h0c-0.5,0.9-1.4,1.5-2.5,1.5
				C185.1,387.7,184.1,386.8,184.1,385.3z M187,386.6c1.3,0,2.2-0.9,2.2-2v-0.7l-2.1,0.1c-1.1,0.1-1.7,0.5-1.7,1.3v0
				C185.4,386.1,186.1,386.6,187,386.6z"/>
			<path d="M192.3,379.6h1.3v1.4h0c0.3-0.9,1-1.5,1.9-1.5c0.2,0,0.4,0,0.5,0.1v1.3c-0.1,0-0.4-0.1-0.7-0.1c-1,0-1.7,0.7-1.7,1.9v4.9
				h-1.3V379.6z"/>
			<path d="M198,385.5v-4.9h-1.2v-1.1h1.2v-2.2h1.4v2.2h1.5v1.1h-1.5v4.9c0,0.9,0.4,1.1,1.1,1.1c0.2,0,0.3,0,0.4,0v1.1
				c-0.2,0-0.5,0.1-0.7,0.1C198.7,387.7,198,387.1,198,385.5z"/>
		</g>
	</g>
	<g>
		<g>
			<path d="M123.7,408.4h6.8v1.2h-5.4v3.8h4.9v1.2h-4.9v4.8h-1.4V408.4z"/>
			<path d="M131.8,409.3c0-0.5,0.4-0.8,0.8-0.8c0.5,0,0.8,0.4,0.8,0.8c0,0.5-0.4,0.8-0.8,0.8C132.1,410.2,131.8,409.8,131.8,409.3z
				 M131.9,411.5h1.3v8h-1.3V411.5z"/>
			<path d="M135.1,411.5h1.3v1.1h0c0.4-0.7,1.2-1.3,2.5-1.3c1.8,0,2.8,1.1,2.8,3v5.2h-1.3v-5c0-1.3-0.6-2-1.8-2
				c-1.3,0-2.1,0.9-2.1,2.3v4.7h-1.3V411.5z"/>
			<path d="M143.1,417.3L143.1,417.3c0-1.4,1.1-2.2,2.9-2.3l2.3-0.1v-0.7c0-1-0.6-1.6-1.8-1.6c-1,0-1.7,0.5-1.8,1.2l0,0.1h-1.3
				l0-0.1c0.1-1.3,1.3-2.4,3.2-2.4c1.9,0,3.1,1,3.1,2.6v5.5h-1.3v-1.3h0c-0.5,0.9-1.4,1.5-2.5,1.5
				C144.1,419.7,143.1,418.7,143.1,417.3z M146,418.5c1.3,0,2.2-0.9,2.2-2v-0.7l-2.1,0.1c-1.1,0.1-1.7,0.5-1.7,1.3v0
				C144.4,418.1,145.1,418.5,146,418.5z"/>
			<path d="M151.3,411.5h1.3v1.1h0c0.4-0.7,1.2-1.3,2.5-1.3c1.8,0,2.8,1.1,2.8,3v5.2h-1.3v-5c0-1.3-0.6-2-1.8-2
				c-1.3,0-2.1,0.9-2.1,2.3v4.7h-1.3V411.5z"/>
			<path d="M159.2,415.5L159.2,415.5c0-2.5,1.5-4.2,3.7-4.2c2,0,3.2,1.3,3.3,2.7l0,0.1H165l0-0.1c-0.2-0.8-0.8-1.5-2-1.5
				c-1.4,0-2.3,1.2-2.3,3v0c0,1.9,1,3,2.3,3c1.1,0,1.8-0.6,2-1.5l0-0.1h1.3l0,0.1c-0.2,1.5-1.5,2.7-3.3,2.7
				C160.7,419.7,159.2,418.1,159.2,415.5z"/>
			<path d="M167.4,409.3c0-0.5,0.4-0.8,0.8-0.8c0.5,0,0.8,0.4,0.8,0.8c0,0.5-0.4,0.8-0.8,0.8C167.8,410.2,167.4,409.8,167.4,409.3z
				 M167.6,411.5h1.3v8h-1.3V411.5z"/>
			<path d="M170.5,417.3L170.5,417.3c0-1.4,1.1-2.2,2.9-2.3l2.3-0.1v-0.7c0-1-0.6-1.6-1.8-1.6c-1,0-1.7,0.5-1.8,1.2l0,0.1h-1.3
				l0-0.1c0.1-1.3,1.3-2.4,3.2-2.4c1.9,0,3.1,1,3.1,2.6v5.5h-1.3v-1.3h0c-0.5,0.9-1.4,1.5-2.5,1.5
				C171.5,419.7,170.5,418.7,170.5,417.3z M173.4,418.5c1.3,0,2.2-0.9,2.2-2v-0.7l-2.1,0.1c-1.1,0.1-1.7,0.5-1.7,1.3v0
				C171.8,418.1,172.5,418.5,173.4,418.5z"/>
			<path d="M178.8,408.4h1.3v11.1h-1.3V408.4z"/>
			<path d="M181.6,417.3L181.6,417.3l1.3-0.1l0,0.1c0.2,0.8,0.8,1.3,1.8,1.3c1.1,0,1.7-0.5,1.7-1.2v0c0-0.6-0.3-0.9-1.2-1.1L184,416
				c-1.5-0.4-2.2-1.1-2.2-2.2v0c0-1.4,1.2-2.4,2.9-2.4c1.8,0,2.9,1,3,2.4l0,0.1h-1.3l0-0.1c-0.1-0.8-0.7-1.3-1.7-1.3
				c-1,0-1.6,0.5-1.6,1.2v0c0,0.5,0.4,0.9,1.2,1.1l1.3,0.3c1.6,0.4,2.2,1,2.2,2.2v0c0,1.4-1.3,2.4-3.1,2.4
				C182.9,419.7,181.7,418.7,181.6,417.3z"/>
			<path d="M192.2,416.6l0-0.1h1.4l0,0.1c0.2,1.1,1.2,1.8,2.9,1.8c1.6,0,2.6-0.7,2.6-1.9v0c0-1-0.6-1.5-2.2-1.9l-1.2-0.3
				c-2.2-0.5-3.2-1.5-3.2-3.1v0c0-1.8,1.6-3.1,3.9-3.1c2.2,0,3.8,1.3,3.9,3.1l0,0.1h-1.4l0-0.1c-0.2-1.1-1.1-1.8-2.5-1.8
				c-1.5,0-2.5,0.7-2.5,1.8v0c0,0.9,0.7,1.5,2.1,1.8l1.2,0.3c2.3,0.5,3.2,1.4,3.2,3.1v0c0,2-1.6,3.2-4.1,3.2
				C193.9,419.7,192.3,418.6,192.2,416.6z"/>
			<path d="M201.8,416.7v-5.2h1.3v5c0,1.3,0.6,2,1.8,2c1.3,0,2.1-0.9,2.1-2.3v-4.7h1.3v8h-1.3v-1.1h0c-0.4,0.7-1.2,1.3-2.5,1.3
				C202.8,419.7,201.8,418.6,201.8,416.7z"/>
			<path d="M210.2,411.5h1.3v1.2h0c0.4-0.8,1.2-1.3,2.2-1.3c1.1,0,1.9,0.6,2.2,1.5h0c0.4-1,1.4-1.5,2.5-1.5c1.6,0,2.6,1,2.6,2.6v5.5
				h-1.3v-5.2c0-1.1-0.6-1.8-1.7-1.8c-1.1,0-1.8,0.8-1.8,1.9v5.1H215v-5.4c0-1-0.6-1.6-1.6-1.6c-1.1,0-1.8,0.8-1.8,2v5h-1.3V411.5z"
				/>
			<path d="M222.8,411.5h1.3v1.2h0c0.4-0.8,1.2-1.3,2.2-1.3c1.1,0,1.9,0.6,2.2,1.5h0c0.4-1,1.4-1.5,2.5-1.5c1.6,0,2.6,1,2.6,2.6v5.5
				h-1.3v-5.2c0-1.1-0.6-1.8-1.7-1.8c-1.1,0-1.8,0.8-1.8,1.9v5.1h-1.3v-5.4c0-1-0.6-1.6-1.6-1.6c-1.1,0-1.8,0.8-1.8,2v5h-1.3V411.5z
				"/>
			<path d="M235.1,415.6L235.1,415.6c0-2.5,1.4-4.2,3.6-4.2s3.5,1.6,3.5,4v0.5h-5.8c0,1.6,0.9,2.6,2.4,2.6c1,0,1.7-0.5,2-1.2l0-0.1
				h1.3l0,0.1c-0.3,1.3-1.6,2.4-3.3,2.4C236.5,419.7,235.1,418.1,235.1,415.6z M236.5,414.9h4.4c-0.1-1.6-1-2.3-2.2-2.3
				C237.5,412.6,236.6,413.4,236.5,414.9z"/>
			<path d="M243.6,411.5h1.3v1.4h0c0.3-0.9,1-1.5,1.9-1.5c0.2,0,0.4,0,0.5,0.1v1.3c-0.1,0-0.4-0.1-0.7-0.1c-1,0-1.7,0.7-1.7,1.9v4.9
				h-1.3V411.5z"/>
			<path d="M248.7,422.2v-1.1c0.1,0,0.3,0,0.4,0c0.8,0,1.3-0.2,1.6-1.1l0.2-0.5l-3-8h1.4l2.2,6.7h0l2.2-6.7h1.4l-3.1,8.5
				c-0.6,1.5-1.3,2.2-2.7,2.2C249.2,422.2,248.9,422.2,248.7,422.2z"/>
		</g>
	</g>
	<g>
		<g>
			<path d="M123.2,448.6l0-0.1h1.4l0,0.1c0.2,1.1,1.2,1.8,2.9,1.8c1.6,0,2.6-0.7,2.6-1.9v0c0-1-0.6-1.5-2.2-1.9l-1.2-0.3
				c-2.2-0.5-3.2-1.5-3.2-3.1v0c0-1.8,1.6-3.1,3.9-3.1c2.2,0,3.8,1.3,3.9,3.1l0,0.1h-1.4l0-0.1c-0.2-1.1-1.1-1.8-2.5-1.8
				c-1.5,0-2.5,0.7-2.5,1.8v0c0,0.9,0.7,1.5,2.1,1.8l1.2,0.3c2.3,0.5,3.2,1.4,3.2,3.1v0c0,2-1.6,3.2-4.1,3.2
				C125,451.7,123.3,450.5,123.2,448.6z"/>
			<path d="M132.9,440.4h1.3v4.4h0c0.4-0.9,1.3-1.4,2.5-1.4c1.7,0,2.9,1.3,2.9,3.3v4.9h-1.3v-4.7c0-1.4-0.7-2.3-2-2.3
				c-1.2,0-2.1,0.9-2.1,2.3v4.7h-1.3V440.4z"/>
			<path d="M141,449.3L141,449.3c0-1.4,1.1-2.2,2.9-2.3l2.3-0.1v-0.7c0-1-0.6-1.6-1.8-1.6c-1,0-1.7,0.5-1.8,1.2l0,0.1h-1.3l0-0.1
				c0.1-1.3,1.3-2.4,3.2-2.4c1.9,0,3.1,1,3.1,2.6v5.5h-1.3v-1.3h0c-0.5,0.9-1.4,1.5-2.5,1.5C142.1,451.7,141,450.7,141,449.3z
				 M144,450.5c1.3,0,2.2-0.9,2.2-2v-0.7l-2.1,0.1c-1.1,0.1-1.7,0.5-1.7,1.3v0C142.4,450,143.1,450.5,144,450.5z"/>
			<path d="M149.3,443.5h1.3v1.4h0c0.3-0.9,1-1.5,1.9-1.5c0.2,0,0.4,0,0.5,0.1v1.3c-0.1,0-0.4-0.1-0.7-0.1c-1,0-1.7,0.7-1.7,1.9v4.9
				h-1.3V443.5z"/>
			<path d="M153.4,447.6L153.4,447.6c0-2.5,1.4-4.2,3.6-4.2s3.5,1.6,3.5,4v0.5h-5.8c0,1.6,0.9,2.6,2.4,2.6c1,0,1.7-0.5,2-1.2l0-0.1
				h1.3l0,0.1c-0.3,1.3-1.6,2.4-3.3,2.4C154.8,451.7,153.4,450.1,153.4,447.6z M154.8,446.8h4.4c-0.1-1.6-1-2.3-2.2-2.3
				C155.8,444.5,154.9,445.3,154.8,446.8z"/>
			<path d="M161.9,440.4h1.3v4.4h0c0.4-0.9,1.3-1.4,2.5-1.4c1.7,0,2.9,1.3,2.9,3.3v4.9h-1.3v-4.7c0-1.4-0.7-2.3-2-2.3
				c-1.2,0-2.1,0.9-2.1,2.3v4.7h-1.3V440.4z"/>
			<path d="M170,447.5L170,447.5c0-2.6,1.5-4.2,3.7-4.2c2.2,0,3.7,1.6,3.7,4.1v0c0,2.6-1.5,4.2-3.7,4.2
				C171.4,451.7,170,450.1,170,447.5z M176,447.5L176,447.5c0-1.9-0.9-3-2.3-3c-1.4,0-2.3,1.1-2.3,3v0c0,1.9,0.9,3,2.3,3
				C175.1,450.5,176,449.4,176,447.5z"/>
			<path d="M178.8,440.4h1.3v11.1h-1.3V440.4z"/>
			<path d="M181.5,447.5L181.5,447.5c0-2.5,1.4-4.2,3.4-4.2c1.1,0,2.1,0.6,2.6,1.5h0v-4.4h1.3v11.1h-1.3v-1.4h0
				c-0.5,0.9-1.4,1.5-2.5,1.5C182.9,451.7,181.5,450,181.5,447.5z M187.5,447.5L187.5,447.5c0-1.8-1-3-2.3-3c-1.4,0-2.3,1.1-2.3,3v0
				c0,1.8,0.9,3,2.3,3C186.6,450.5,187.5,449.3,187.5,447.5z"/>
			<path d="M190.3,447.6L190.3,447.6c0-2.5,1.4-4.2,3.6-4.2s3.5,1.6,3.5,4v0.5h-5.8c0,1.6,0.9,2.6,2.4,2.6c1,0,1.7-0.5,2-1.2l0-0.1
				h1.3l0,0.1c-0.3,1.3-1.6,2.4-3.3,2.4C191.7,451.7,190.3,450.1,190.3,447.6z M191.7,446.8h4.4c-0.1-1.6-1-2.3-2.2-2.3
				C192.7,444.5,191.8,445.3,191.7,446.8z"/>
			<path d="M198.7,443.5h1.3v1.4h0c0.3-0.9,1-1.5,1.9-1.5c0.2,0,0.4,0,0.5,0.1v1.3c-0.1,0-0.4-0.1-0.7-0.1c-1,0-1.7,0.7-1.7,1.9v4.9
				h-1.3V443.5z"/>
			<path d="M203.3,449.3L203.3,449.3l1.3-0.1l0,0.1c0.2,0.8,0.8,1.3,1.8,1.3c1.1,0,1.7-0.5,1.7-1.2v0c0-0.6-0.3-0.9-1.2-1.1
				l-1.3-0.3c-1.5-0.4-2.2-1.1-2.2-2.2v0c0-1.4,1.2-2.4,2.9-2.4c1.8,0,2.9,1,3,2.4l0,0.1h-1.3l0-0.1c-0.1-0.8-0.7-1.3-1.7-1.3
				c-1,0-1.6,0.5-1.6,1.2v0c0,0.5,0.4,0.9,1.2,1.1l1.3,0.3c1.6,0.4,2.2,1,2.2,2.2v0c0,1.4-1.3,2.4-3.1,2.4
				C204.6,451.7,203.4,450.7,203.3,449.3z"/>
		</g>
	</g>
	<g>
		<g>
			<path d="M123.7,472.4h6.9v1.2h-5.5v3.6h5.2v1.2h-5.2v3.8h5.5v1.2h-6.9V472.4z"/>
			<path d="M134.3,479.5l-2.7-4h1.5l1.9,3h0l1.9-3h1.5l-2.7,4l2.7,4.1H137l-1.9-3.1h0l-1.9,3.1h-1.5L134.3,479.5z"/>
			<path d="M139.1,479.5L139.1,479.5c0-2.5,1.5-4.2,3.7-4.2c2,0,3.2,1.3,3.3,2.7l0,0.1h-1.3l0-0.1c-0.2-0.8-0.8-1.5-2-1.5
				c-1.4,0-2.3,1.2-2.3,3v0c0,1.9,1,3,2.3,3c1.1,0,1.8-0.6,2-1.5l0-0.1h1.3l0,0.1c-0.2,1.5-1.5,2.7-3.3,2.7
				C140.5,483.7,139.1,482,139.1,479.5z"/>
			<path d="M147.4,472.4h1.3v4.4h0c0.4-0.9,1.3-1.4,2.5-1.4c1.7,0,2.9,1.3,2.9,3.3v4.9h-1.3v-4.7c0-1.4-0.7-2.3-2-2.3
				c-1.2,0-2.1,0.9-2.1,2.3v4.7h-1.3V472.4z"/>
			<path d="M155.5,481.2L155.5,481.2c0-1.4,1.1-2.2,2.9-2.3l2.3-0.1v-0.7c0-1-0.6-1.6-1.8-1.6c-1,0-1.7,0.5-1.8,1.2l0,0.1h-1.3
				l0-0.1c0.1-1.3,1.3-2.4,3.2-2.4c1.9,0,3.1,1,3.1,2.6v5.5h-1.3v-1.3h0c-0.5,0.9-1.4,1.5-2.5,1.5
				C156.6,483.7,155.5,482.7,155.5,481.2z M158.5,482.5c1.3,0,2.2-0.9,2.2-2v-0.7l-2.1,0.1c-1.1,0.1-1.7,0.5-1.7,1.3v0
				C156.9,482,157.5,482.5,158.5,482.5z"/>
			<path d="M163.8,475.5h1.3v1.1h0c0.4-0.7,1.2-1.3,2.5-1.3c1.8,0,2.8,1.1,2.8,3v5.2H169v-5c0-1.3-0.6-2-1.8-2
				c-1.3,0-2.1,0.9-2.1,2.3v4.7h-1.3V475.5z"/>
			<path d="M172,484.2L172,484.2l1.3-0.1l0,0.1c0.3,0.6,1,0.9,2.1,0.9c1.4,0,2.2-0.8,2.2-2v-1h0c-0.5,0.9-1.4,1.5-2.6,1.5
				c-2,0-3.4-1.6-3.4-4.1v0c0-2.5,1.4-4.1,3.4-4.1c1.1,0,2,0.6,2.5,1.5h0v-1.4h1.3v7.8c0,1.9-1.4,3.1-3.5,3.1
				C173.5,486.4,172.2,485.4,172,484.2z M177.7,479.5L177.7,479.5c0-1.8-0.9-2.9-2.3-2.9c-1.4,0-2.3,1.1-2.3,2.9v0
				c0,1.8,0.9,2.9,2.3,2.9C176.7,482.4,177.7,481.2,177.7,479.5z"/>
			<path d="M180.3,479.5L180.3,479.5c0-2.5,1.4-4.2,3.6-4.2s3.5,1.6,3.5,4v0.5h-5.8c0,1.6,0.9,2.6,2.4,2.6c1,0,1.7-0.5,2-1.2l0-0.1
				h1.3l0,0.1c-0.3,1.3-1.6,2.4-3.3,2.4C181.7,483.7,180.3,482,180.3,479.5z M181.7,478.8h4.4c-0.1-1.6-1-2.3-2.2-2.3
				C182.8,476.5,181.9,477.3,181.7,478.8z"/>
			<path d="M192.3,472.4h4.2c2.1,0,3.5,1.3,3.5,3.3v0c0,1.5-0.8,2.7-2.2,3.2l2.6,4.6h-1.6l-2.4-4.4h-2.7v4.4h-1.4V472.4z
				 M196.3,477.9c1.4,0,2.2-0.8,2.2-2.1v0c0-1.3-0.9-2.1-2.3-2.1h-2.6v4.3H196.3z"/>
			<path d="M201,481.2L201,481.2c0-1.4,1.1-2.2,2.9-2.3l2.3-0.1v-0.7c0-1-0.6-1.6-1.8-1.6c-1,0-1.7,0.5-1.8,1.2l0,0.1h-1.3l0-0.1
				c0.1-1.3,1.3-2.4,3.2-2.4c1.9,0,3.1,1,3.1,2.6v5.5h-1.3v-1.3h0c-0.5,0.9-1.4,1.5-2.5,1.5C202.1,483.7,201,482.7,201,481.2z
				 M204,482.5c1.3,0,2.2-0.9,2.2-2v-0.7l-2.1,0.1c-1.1,0.1-1.7,0.5-1.7,1.3v0C202.4,482,203,482.5,204,482.5z"/>
			<path d="M209.7,481.5v-4.9h-1.2v-1.1h1.2v-2.2h1.4v2.2h1.5v1.1h-1.5v4.9c0,0.9,0.4,1.1,1.1,1.1c0.2,0,0.3,0,0.4,0v1.1
				c-0.2,0-0.5,0.1-0.7,0.1C210.4,483.7,209.7,483,209.7,481.5z"/>
			<path d="M213.4,479.5L213.4,479.5c0-2.5,1.4-4.2,3.6-4.2s3.5,1.6,3.5,4v0.5h-5.8c0,1.6,0.9,2.6,2.4,2.6c1,0,1.7-0.5,2-1.2l0-0.1
				h1.3l0,0.1c-0.3,1.3-1.6,2.4-3.3,2.4C214.8,483.7,213.4,482,213.4,479.5z M214.8,478.8h4.4c-0.1-1.6-1-2.3-2.2-2.3
				C215.8,476.5,214.9,477.3,214.8,478.8z"/>
			<path d="M221.5,481.3L221.5,481.3l1.3-0.1l0,0.1c0.2,0.8,0.8,1.3,1.8,1.3c1.1,0,1.7-0.5,1.7-1.2v0c0-0.6-0.3-0.9-1.2-1.1
				l-1.3-0.3c-1.5-0.4-2.2-1.1-2.2-2.2v0c0-1.4,1.2-2.4,2.9-2.4c1.8,0,2.9,1,3,2.4l0,0.1h-1.3l0-0.1c-0.1-0.8-0.7-1.3-1.7-1.3
				c-1,0-1.6,0.5-1.6,1.2v0c0,0.5,0.4,0.9,1.2,1.1l1.3,0.3c1.6,0.4,2.2,1,2.2,2.2v0c0,1.4-1.3,2.4-3.1,2.4
				C222.8,483.7,221.7,482.7,221.5,481.3z"/>
		</g>
	</g>
	<g>
		<g>
			<path d="M123.7,504.4h6.9v1.2h-5.5v3.6h5.2v1.2h-5.2v3.8h5.5v1.2h-6.9V504.4z"/>
			<path d="M132.2,507.5h1.3v1.2h0c0.4-0.8,1.2-1.3,2.2-1.3c1.1,0,1.9,0.6,2.2,1.5h0c0.4-1,1.4-1.5,2.5-1.5c1.6,0,2.6,1,2.6,2.6v5.5
				h-1.3v-5.2c0-1.1-0.6-1.8-1.7-1.8c-1.1,0-1.8,0.8-1.8,1.9v5.1H137v-5.4c0-1-0.6-1.6-1.6-1.6c-1.1,0-1.8,0.8-1.8,2v5h-1.3V507.5z"
				/>
			<path d="M144.6,513.2L144.6,513.2c0-1.4,1.1-2.2,2.9-2.3l2.3-0.1v-0.7c0-1-0.6-1.6-1.8-1.6c-1,0-1.7,0.5-1.8,1.2l0,0.1h-1.3
				l0-0.1c0.1-1.3,1.3-2.4,3.2-2.4c1.9,0,3.1,1,3.1,2.6v5.5h-1.3v-1.3h0c-0.5,0.9-1.4,1.5-2.5,1.5
				C145.6,515.6,144.6,514.7,144.6,513.2z M147.5,514.5c1.3,0,2.2-0.9,2.2-2v-0.7l-2.1,0.1c-1.1,0.1-1.7,0.5-1.7,1.3v0
				C145.9,514,146.6,514.5,147.5,514.5z"/>
			<path d="M152.7,505.3c0-0.5,0.4-0.8,0.8-0.8c0.5,0,0.8,0.4,0.8,0.8c0,0.5-0.4,0.8-0.8,0.8C153.1,506.1,152.7,505.7,152.7,505.3z
				 M152.9,507.5h1.3v8h-1.3V507.5z"/>
			<path d="M156.1,504.4h1.3v11.1h-1.3V504.4z"/>
			<path d="M166,504.4h1.4l4.1,11.1H170l-1.1-3.2h-4.5l-1.1,3.2h-1.5L166,504.4z M164.8,511.1h3.6l-1.8-5.1h0L164.8,511.1z"/>
			<path d="M172.5,507.5h1.3v1.4h0c0.3-0.9,1-1.5,1.9-1.5c0.2,0,0.4,0,0.5,0.1v1.3c-0.1,0-0.4-0.1-0.7-0.1c-1,0-1.7,0.7-1.7,1.9v4.9
				h-1.3V507.5z"/>
			<path d="M177.5,504.4h1.3v11.1h-1.3V504.4z"/>
			<path d="M180.2,511.5L180.2,511.5c0-2.5,1.4-4.2,3.6-4.2s3.5,1.6,3.5,4v0.5h-5.8c0,1.6,0.9,2.6,2.4,2.6c1,0,1.7-0.5,2-1.2l0-0.1
				h1.3l0,0.1c-0.3,1.3-1.6,2.4-3.3,2.4C181.6,515.6,180.2,514,180.2,511.5z M181.6,510.8h4.4c-0.1-1.6-1-2.3-2.2-2.3
				C182.7,508.5,181.7,509.3,181.6,510.8z"/>
			<path d="M189.1,513.4v-4.9h-1.2v-1.1h1.2v-2.2h1.4v2.2h1.5v1.1h-1.5v4.9c0,0.9,0.4,1.1,1.1,1.1c0.2,0,0.3,0,0.4,0v1.1
				c-0.2,0-0.5,0.1-0.7,0.1C189.8,515.6,189.1,515,189.1,513.4z"/>
			<path d="M193.1,513.2L193.1,513.2l1.3-0.1l0,0.1c0.2,0.8,0.8,1.3,1.8,1.3c1.1,0,1.7-0.5,1.7-1.2v0c0-0.6-0.3-0.9-1.2-1.1
				l-1.3-0.3c-1.5-0.4-2.2-1.1-2.2-2.2v0c0-1.4,1.2-2.4,2.9-2.4c1.8,0,2.9,1,3,2.4l0,0.1h-1.3l0-0.1c-0.1-0.8-0.7-1.3-1.7-1.3
				c-1,0-1.6,0.5-1.6,1.2v0c0,0.5,0.4,0.9,1.2,1.1l1.3,0.3c1.6,0.4,2.2,1,2.2,2.2v0c0,1.4-1.3,2.4-3.1,2.4
				C194.4,515.6,193.3,514.7,193.1,513.2z"/>
		</g>
	</g>
	<g>
		<g>
			<path d="M123.7,536.3h3.7c3.3,0,5.2,2,5.2,5.5v0c0,3.5-1.9,5.6-5.2,5.6h-3.7V536.3z M127.4,546.2c2.5,0,3.9-1.5,3.9-4.3v0
				c0-2.8-1.4-4.3-3.9-4.3h-2.3v8.6H127.4z"/>
			<path d="M133.8,543.5L133.8,543.5c0-2.6,1.5-4.2,3.7-4.2c2.2,0,3.7,1.6,3.7,4.1v0c0,2.6-1.5,4.2-3.7,4.2
				C135.3,547.6,133.8,546,133.8,543.5z M139.9,543.5L139.9,543.5c0-1.9-0.9-3-2.3-3c-1.4,0-2.3,1.1-2.3,3v0c0,1.9,0.9,3,2.3,3
				C139,546.4,139.9,545.3,139.9,543.5z"/>
			<path d="M141.9,539.4h1.3l1.6,6.5h0l1.8-6.5h1.3l1.8,6.5h0l1.6-6.5h1.3l-2.2,8h-1.4l-1.8-6.2h0l-1.8,6.2h-1.4L141.9,539.4z"/>
			<path d="M153.9,539.4h1.3v1.1h0c0.4-0.7,1.2-1.3,2.5-1.3c1.8,0,2.8,1.1,2.8,3v5.2h-1.3v-5c0-1.3-0.6-2-1.8-2
				c-1.3,0-2.1,0.9-2.1,2.3v4.7h-1.3V539.4z"/>
			<path d="M162.3,536.3h1.3v11.1h-1.3V536.3z"/>
			<path d="M165,543.5L165,543.5c0-2.6,1.5-4.2,3.7-4.2c2.2,0,3.7,1.6,3.7,4.1v0c0,2.6-1.5,4.2-3.7,4.2
				C166.5,547.6,165,546,165,543.5z M171.1,543.5L171.1,543.5c0-1.9-0.9-3-2.3-3c-1.4,0-2.3,1.1-2.3,3v0c0,1.9,0.9,3,2.3,3
				C170.1,546.4,171.1,545.3,171.1,543.5z"/>
			<path d="M173.4,545.2L173.4,545.2c0-1.4,1.1-2.2,2.9-2.3l2.3-0.1v-0.7c0-1-0.6-1.6-1.8-1.6c-1,0-1.7,0.5-1.8,1.2l0,0.1h-1.3
				l0-0.1c0.1-1.3,1.3-2.4,3.2-2.4c1.9,0,3.1,1,3.1,2.6v5.5h-1.3v-1.3h0c-0.5,0.9-1.4,1.5-2.5,1.5
				C174.5,547.6,173.4,546.7,173.4,545.2z M176.4,546.5c1.3,0,2.2-0.9,2.2-2v-0.7l-2.1,0.1c-1.1,0.1-1.7,0.5-1.7,1.3v0
				C174.8,546,175.5,546.5,176.4,546.5z"/>
			<path d="M181.3,543.5L181.3,543.5c0-2.5,1.4-4.2,3.4-4.2c1.1,0,2.1,0.6,2.6,1.5h0v-4.4h1.3v11.1h-1.3v-1.4h0
				c-0.5,0.9-1.4,1.5-2.5,1.5C182.7,547.6,181.3,546,181.3,543.5z M187.3,543.5L187.3,543.5c0-1.8-1-3-2.3-3c-1.4,0-2.3,1.1-2.3,3v0
				c0,1.8,0.9,3,2.3,3C186.3,546.4,187.3,545.3,187.3,543.5z"/>
			<path d="M190.1,545.2L190.1,545.2l1.3-0.1l0,0.1c0.2,0.8,0.8,1.3,1.8,1.3c1.1,0,1.7-0.5,1.7-1.2v0c0-0.6-0.3-0.9-1.2-1.1
				l-1.3-0.3c-1.5-0.4-2.2-1.1-2.2-2.2v0c0-1.4,1.2-2.4,2.9-2.4c1.8,0,2.9,1,3,2.4l0,0.1h-1.3l0-0.1c-0.1-0.8-0.7-1.3-1.7-1.3
				c-1,0-1.6,0.5-1.6,1.2v0c0,0.5,0.4,0.9,1.2,1.1l1.3,0.3c1.6,0.4,2.2,1,2.2,2.2v0c0,1.4-1.3,2.4-3.1,2.4
				C191.4,547.6,190.2,546.7,190.1,545.2z"/>
		</g>
	</g>
	<path class="st0" d="M171.9,94.1H35.3c-8.1,0-14.7-6.6-14.7-14.7V54.2c0-8.1,6.6-14.7,14.7-14.7h136.6c8.1,0,14.7,6.6,14.7,14.7
		v25.1C186.6,87.5,180,94.1,171.9,94.1z"/>
	<path class="st1" d="M465.6,94.1H329.1c-8.1,0-14.7-6.6-14.7-14.7V54.2c0-8.1,6.6-14.7,14.7-14.7h136.6c8.1,0,14.7,6.6,14.7,14.7
		v25.1C480.3,87.5,473.8,94.1,465.6,94.1z"/>
	<path class="st2" d="M161.5,694.9H24.9c-8.1,0-14.7-6.6-14.7-14.7v-25.1c0-8.1,6.6-14.7,14.7-14.7h136.6c8.1,0,14.7,6.6,14.7,14.7
		v25.1C176.2,688.3,169.6,694.9,161.5,694.9z"/>
	<path class="st3" d="M466.2,694.9H329.7c-8.1,0-14.7-6.6-14.7-14.7v-25.1c0-8.1,6.6-14.7,14.7-14.7h136.6c8.1,0,14.7,6.6,14.7,14.7
		v25.1C481,688.3,474.4,694.9,466.2,694.9z"/>
	<line class="st4" x1="63" y1="126.8" x2="75.1" y2="126.8"/>
	<line class="st4" x1="63" y1="158.9" x2="75.1" y2="158.9"/>
	<line class="st4" x1="63" y1="190.9" x2="75.1" y2="190.9"/>
	<line class="st4" x1="63" y1="222.9" x2="75.1" y2="222.9"/>
	<polyline class="st4" points="63,94.1 63,255 75.1,255 	"/>
	<g>
		<g>
			<path d="M379.9,121.4h1.4l4.1,11.1H384l-1.1-3.2h-4.5l-1.1,3.2h-1.5L379.9,121.4z M378.8,128.1h3.6l-1.8-5.1h0L378.8,128.1z"/>
			<path d="M385.9,128.5L385.9,128.5c0-2.5,1.5-4.2,3.7-4.2c2,0,3.2,1.3,3.3,2.7l0,0.1h-1.3l0-0.1c-0.2-0.8-0.8-1.5-2-1.5
				c-1.4,0-2.3,1.2-2.3,3v0c0,1.9,1,3,2.3,3c1.1,0,1.8-0.6,2-1.5l0-0.1h1.3l0,0.1c-0.2,1.5-1.5,2.7-3.3,2.7
				C387.4,132.7,385.9,131,385.9,128.5z"/>
			<path d="M393.8,128.5L393.8,128.5c0-2.5,1.5-4.2,3.7-4.2c2,0,3.2,1.3,3.3,2.7l0,0.1h-1.3l0-0.1c-0.2-0.8-0.8-1.5-2-1.5
				c-1.4,0-2.3,1.2-2.3,3v0c0,1.9,1,3,2.3,3c1.1,0,1.8-0.6,2-1.5l0-0.1h1.3l0,0.1c-0.2,1.5-1.5,2.7-3.3,2.7
				C395.3,132.7,393.8,131,393.8,128.5z"/>
			<path d="M401.7,128.5L401.7,128.5c0-2.6,1.5-4.2,3.7-4.2c2.2,0,3.7,1.6,3.7,4.1v0c0,2.6-1.5,4.2-3.7,4.2
				C403.2,132.7,401.7,131,401.7,128.5z M407.8,128.5L407.8,128.5c0-1.9-0.9-3-2.3-3c-1.4,0-2.3,1.1-2.3,3v0c0,1.9,0.9,3,2.3,3
				C406.9,131.5,407.8,130.4,407.8,128.5z"/>
			<path d="M410.5,129.7v-5.2h1.3v5c0,1.3,0.6,2,1.8,2c1.3,0,2.1-0.9,2.1-2.3v-4.7h1.3v8h-1.3v-1.1h0c-0.4,0.7-1.2,1.3-2.5,1.3
				C411.5,132.7,410.5,131.5,410.5,129.7z"/>
			<path d="M418.8,124.5h1.3v1.1h0c0.4-0.7,1.2-1.3,2.5-1.3c1.8,0,2.8,1.1,2.8,3v5.2h-1.3v-5c0-1.3-0.6-2-1.8-2
				c-1.3,0-2.1,0.9-2.1,2.3v4.7h-1.3V124.5z"/>
			<path d="M427.5,130.5v-4.9h-1.2v-1.1h1.2v-2.2h1.4v2.2h1.5v1.1h-1.5v4.9c0,0.9,0.4,1.1,1.1,1.1c0.2,0,0.3,0,0.4,0v1.1
				c-0.2,0-0.5,0.1-0.7,0.1C428.2,132.7,427.5,132,427.5,130.5z"/>
			<path d="M431.5,130.3L431.5,130.3l1.3-0.1l0,0.1c0.2,0.8,0.8,1.3,1.8,1.3c1.1,0,1.7-0.5,1.7-1.2v0c0-0.6-0.3-0.9-1.2-1.1
				l-1.3-0.3c-1.5-0.4-2.2-1.1-2.2-2.2v0c0-1.4,1.2-2.4,2.9-2.4c1.8,0,2.9,1,3,2.4l0,0.1h-1.3l0-0.1c-0.1-0.8-0.7-1.3-1.7-1.3
				c-1,0-1.6,0.5-1.6,1.2v0c0,0.5,0.4,0.9,1.2,1.1l1.3,0.3c1.6,0.4,2.2,1,2.2,2.2v0c0,1.4-1.3,2.4-3.1,2.4
				C432.8,132.7,431.7,131.7,431.5,130.3z"/>
		</g>
	</g>
	<g>
		<g>
			<path d="M376.2,158.8L376.2,158.8c0-3.5,2-5.7,5.1-5.7c2.3,0,4.1,1.4,4.5,3.5l0,0.1h-1.4l-0.1-0.2c-0.4-1.3-1.5-2.1-3.1-2.1
				c-2.2,0-3.7,1.7-3.7,4.5v0c0,2.7,1.4,4.5,3.7,4.5c1.6,0,2.6-0.8,3.1-2.2l0-0.1h1.4l0,0.1c-0.4,2.1-2.2,3.5-4.5,3.5
				C378.2,164.5,376.2,162.3,376.2,158.8z"/>
			<path d="M387,162.1L387,162.1c0-1.4,1.1-2.2,2.9-2.3l2.3-0.1v-0.7c0-1-0.6-1.6-1.8-1.6c-1,0-1.7,0.5-1.8,1.2l0,0.1h-1.3l0-0.1
				c0.1-1.3,1.3-2.4,3.2-2.4c1.9,0,3.1,1,3.1,2.6v5.5h-1.3V163h0c-0.5,0.9-1.4,1.5-2.5,1.5C388,164.5,387,163.5,387,162.1z
				 M389.9,163.3c1.3,0,2.2-0.9,2.2-2v-0.7l-2.1,0.1c-1.1,0.1-1.7,0.5-1.7,1.3v0C388.3,162.8,389,163.3,389.9,163.3z"/>
			<path d="M395.2,156.3h1.3v1.4h0c0.3-0.9,1-1.5,1.9-1.5c0.2,0,0.4,0,0.5,0.1v1.3c-0.1,0-0.4-0.1-0.7-0.1c-1,0-1.7,0.7-1.7,1.9v4.9
				h-1.3V156.3z"/>
			<path d="M399.3,160.3L399.3,160.3c0-2.5,1.4-4.2,3.4-4.2c1.1,0,2.1,0.6,2.6,1.5h0v-4.4h1.3v11.1h-1.3V163h0
				c-0.5,0.9-1.4,1.5-2.5,1.5C400.6,164.5,399.3,162.8,399.3,160.3z M405.3,160.3L405.3,160.3c0-1.8-1-3-2.3-3c-1.4,0-2.3,1.1-2.3,3
				v0c0,1.8,0.9,3,2.3,3C404.3,163.3,405.3,162.1,405.3,160.3z"/>
			<path d="M408.1,162.1L408.1,162.1l1.3-0.1l0,0.1c0.2,0.8,0.8,1.3,1.8,1.3c1.1,0,1.7-0.5,1.7-1.2v0c0-0.6-0.3-0.9-1.2-1.1
				l-1.3-0.3c-1.5-0.4-2.2-1.1-2.2-2.2v0c0-1.4,1.2-2.4,2.9-2.4c1.8,0,2.9,1,3,2.4l0,0.1h-1.3l0-0.1c-0.1-0.8-0.7-1.3-1.7-1.3
				c-1,0-1.6,0.5-1.6,1.2v0c0,0.5,0.4,0.9,1.2,1.1l1.3,0.3c1.6,0.4,2.2,1,2.2,2.2v0c0,1.4-1.3,2.4-3.1,2.4
				C409.4,164.5,408.2,163.5,408.1,162.1z"/>
		</g>
	</g>
	<g>
		<g>
			<path d="M376.7,185h1.3l6.1,8.8h0V185h1.4v11.1h-1.3l-6.1-8.8h0v8.8h-1.4V185z"/>
			<path d="M387.7,185h1.6l3.9,9.4h0l3.9-9.4h1.6v11.1h-1.3v-8.6h0l-3.6,8.6h-1.2l-3.6-8.6h0v8.6h-1.3V185z"/>
			<path d="M400.8,185h4.2c1.9,0,3.2,1.1,3.2,2.8v0c0,1.1-0.9,2.3-2,2.4v0c1.6,0.2,2.6,1.3,2.6,2.7v0c0,2-1.4,3.1-3.8,3.1h-4.2V185z
				 M402.2,186.3v3.6h2.1c1.6,0,2.5-0.7,2.5-1.9v0c0-1.1-0.8-1.7-2.1-1.7H402.2z M402.2,191v3.9h2.6c1.7,0,2.6-0.7,2.6-1.9v0
				c0-1.3-0.9-1.9-2.7-1.9H402.2z"/>
			<path d="M409.9,190.6L409.9,190.6c0-3.5,2-5.7,5.1-5.7c2.3,0,4.1,1.4,4.5,3.5l0,0.1h-1.4l-0.1-0.2c-0.4-1.3-1.5-2.1-3.1-2.1
				c-2.2,0-3.7,1.7-3.7,4.5v0c0,2.7,1.4,4.5,3.7,4.5c1.6,0,2.6-0.8,3.1-2.2l0-0.1h1.4l0,0.1c-0.4,2.1-2.2,3.5-4.5,3.5
				C411.9,196.3,409.9,194.1,409.9,190.6z"/>
			<path d="M420.6,192.1L420.6,192.1c0-2.6,1.5-4.2,3.7-4.2c2.2,0,3.7,1.6,3.7,4.1v0c0,2.6-1.5,4.2-3.7,4.2
				C422,196.3,420.6,194.7,420.6,192.1z M426.6,192.1L426.6,192.1c0-1.9-0.9-3-2.3-3c-1.4,0-2.3,1.1-2.3,3v0c0,1.9,0.9,3,2.3,3
				C425.7,195.1,426.6,194,426.6,192.1z"/>
			<path d="M429.3,188.1h1.3v1.1h0c0.4-0.7,1.2-1.3,2.5-1.3c1.8,0,2.8,1.1,2.8,3v5.2h-1.3v-5c0-1.3-0.6-2-1.8-2
				c-1.3,0-2.1,0.9-2.1,2.3v4.7h-1.3V188.1z"/>
			<path d="M437.6,188.1h1.3v1.1h0c0.4-0.7,1.2-1.3,2.5-1.3c1.8,0,2.8,1.1,2.8,3v5.2h-1.3v-5c0-1.3-0.6-2-1.8-2
				c-1.3,0-2.1,0.9-2.1,2.3v4.7h-1.3V188.1z"/>
			<path d="M445.5,192.2L445.5,192.2c0-2.5,1.4-4.2,3.6-4.2s3.5,1.6,3.5,4v0.5h-5.8c0,1.6,0.9,2.6,2.4,2.6c1,0,1.7-0.5,2-1.2l0-0.1
				h1.3l0,0.1c-0.3,1.3-1.6,2.4-3.3,2.4C446.9,196.3,445.5,194.7,445.5,192.2z M446.9,191.5h4.4c-0.1-1.6-1-2.3-2.2-2.3
				C448,189.2,447.1,190,446.9,191.5z"/>
			<path d="M453.6,192.1L453.6,192.1c0-2.5,1.5-4.2,3.7-4.2c2,0,3.2,1.3,3.3,2.7l0,0.1h-1.3l0-0.1c-0.2-0.8-0.8-1.5-2-1.5
				c-1.4,0-2.3,1.2-2.3,3v0c0,1.9,1,3,2.3,3c1.1,0,1.8-0.6,2-1.5l0-0.1h1.3l0,0.1c-0.2,1.5-1.5,2.7-3.3,2.7
				C455.1,196.3,453.6,194.7,453.6,192.1z"/>
			<path d="M462.3,194.1v-4.9h-1.2v-1.1h1.2V186h1.4v2.2h1.5v1.1h-1.5v4.9c0,0.9,0.4,1.1,1.1,1.1c0.2,0,0.3,0,0.4,0v1.1
				c-0.2,0-0.5,0.1-0.7,0.1C463.1,196.3,462.3,195.6,462.3,194.1z"/>
		</g>
	</g>
	<g>
		<g>
			<path d="M376.7,216.9h1.3l6.1,8.8h0v-8.8h1.4V228h-1.3l-6.1-8.8h0v8.8h-1.4V216.9z"/>
			<path d="M387.7,216.9h1.6l3.9,9.4h0l3.9-9.4h1.6V228h-1.3v-8.6h0l-3.6,8.6h-1.2l-3.6-8.6h0v8.6h-1.3V216.9z"/>
			<path d="M400.8,216.9h4.2c1.9,0,3.2,1.1,3.2,2.8v0c0,1.1-0.9,2.3-2,2.4v0c1.6,0.2,2.6,1.3,2.6,2.7v0c0,2-1.4,3.1-3.8,3.1h-4.2
				V216.9z M402.2,218.1v3.6h2.1c1.6,0,2.5-0.7,2.5-1.9v0c0-1.1-0.8-1.7-2.1-1.7H402.2z M402.2,222.8v3.9h2.6c1.7,0,2.6-0.7,2.6-1.9
				v0c0-1.3-0.9-1.9-2.7-1.9H402.2z"/>
			<path d="M409.8,225.1l0-0.1h1.4l0,0.1c0.2,1.1,1.2,1.8,2.9,1.8c1.6,0,2.6-0.7,2.6-1.9v0c0-1-0.6-1.5-2.2-1.9l-1.2-0.3
				c-2.2-0.5-3.2-1.5-3.2-3.1v0c0-1.8,1.6-3.1,3.9-3.1c2.2,0,3.8,1.3,3.9,3.1l0,0.1h-1.4l0-0.1c-0.2-1.1-1.1-1.8-2.5-1.8
				c-1.5,0-2.5,0.7-2.5,1.8v0c0,0.9,0.7,1.5,2.1,1.8l1.2,0.3c2.3,0.5,3.2,1.4,3.2,3.1v0c0,2-1.6,3.2-4.1,3.2
				C411.6,228.2,409.9,227,409.8,225.1z"/>
			<path d="M419.4,225.2V220h1.3v5c0,1.3,0.6,2,1.8,2c1.3,0,2.1-0.9,2.1-2.3V220h1.3v8h-1.3v-1.1h0c-0.4,0.7-1.2,1.3-2.5,1.3
				C420.5,228.1,419.4,227,419.4,225.2z"/>
			<path d="M427.8,220h1.3v1.4h0c0.3-0.9,1-1.5,1.9-1.5c0.2,0,0.4,0,0.5,0.1v1.3c-0.1,0-0.4-0.1-0.7-0.1c-1,0-1.7,0.7-1.7,1.9v4.9
				h-1.3V220z"/>
			<path d="M431.9,224L431.9,224c0-2.5,1.4-4.2,3.6-4.2s3.5,1.6,3.5,4v0.5h-5.8c0,1.6,0.9,2.6,2.4,2.6c1,0,1.7-0.5,2-1.2l0-0.1h1.3
				l0,0.1c-0.3,1.3-1.6,2.4-3.3,2.4C433.3,228.1,431.9,226.5,431.9,224z M433.3,223.3h4.4c-0.1-1.6-1-2.3-2.2-2.3
				C434.3,221,433.4,221.8,433.3,223.3z"/>
		</g>
	</g>
	<g>
		<g>
			<path d="M376.7,248.7h1.4v9.9h5.4v1.2h-6.8V248.7z"/>
			<path d="M384.1,255.8L384.1,255.8c0-2.6,1.5-4.2,3.7-4.2c2.2,0,3.7,1.6,3.7,4.1v0c0,2.6-1.5,4.2-3.7,4.2
				C385.6,260,384.1,258.3,384.1,255.8z M390.2,255.8L390.2,255.8c0-1.9-0.9-3-2.3-3c-1.4,0-2.3,1.1-2.3,3v0c0,1.9,0.9,3,2.3,3
				C389.2,258.8,390.2,257.7,390.2,255.8z"/>
			<path d="M392.5,257.5L392.5,257.5c0-1.4,1.1-2.2,2.9-2.3l2.3-0.1v-0.7c0-1-0.6-1.6-1.8-1.6c-1,0-1.7,0.5-1.8,1.2l0,0.1h-1.3
				l0-0.1c0.1-1.3,1.3-2.4,3.2-2.4c1.9,0,3.1,1,3.1,2.6v5.5h-1.3v-1.3h0c-0.5,0.9-1.4,1.5-2.5,1.5C393.6,260,392.5,259,392.5,257.5z
				 M395.5,258.8c1.3,0,2.2-0.9,2.2-2v-0.7l-2.1,0.1c-1.1,0.1-1.7,0.5-1.7,1.3v0C393.9,258.3,394.5,258.8,395.5,258.8z"/>
			<path d="M400.8,251.8h1.3v1.1h0c0.4-0.7,1.2-1.3,2.5-1.3c1.8,0,2.8,1.1,2.8,3v5.2h-1.3v-5c0-1.3-0.6-2-1.8-2
				c-1.3,0-2.1,0.9-2.1,2.3v4.7h-1.3V251.8z"/>
			<path d="M408.7,257.6L408.7,257.6l1.3-0.1l0,0.1c0.2,0.8,0.8,1.3,1.8,1.3c1.1,0,1.7-0.5,1.7-1.2v0c0-0.6-0.3-0.9-1.2-1.1
				l-1.3-0.3c-1.5-0.4-2.2-1.1-2.2-2.2v0c0-1.4,1.2-2.4,2.9-2.4c1.8,0,2.9,1,3,2.4l0,0.1h-1.3l0-0.1c-0.1-0.8-0.7-1.3-1.7-1.3
				c-1,0-1.6,0.5-1.6,1.2v0c0,0.5,0.4,0.9,1.2,1.1l1.3,0.3c1.6,0.4,2.2,1,2.2,2.2v0c0,1.4-1.3,2.4-3.1,2.4
				C410,260,408.9,259,408.7,257.6z"/>
		</g>
	</g>
	<g>
		<g>
			<path d="M376.7,280.5h1.4v11.1h-1.4V280.5z"/>
			<path d="M380,283.6h1.3v1.1h0c0.4-0.7,1.2-1.3,2.5-1.3c1.8,0,2.8,1.1,2.8,3v5.2h-1.3v-5c0-1.3-0.6-2-1.8-2
				c-1.3,0-2.1,0.9-2.1,2.3v4.7H380V283.6z"/>
			<path d="M387.6,283.6h1.4l2.2,6.6h0l2.2-6.6h1.4l-2.9,8h-1.4L387.6,283.6z"/>
			<path d="M395.2,287.7L395.2,287.7c0-2.5,1.4-4.2,3.6-4.2s3.5,1.6,3.5,4v0.5h-5.8c0,1.6,0.9,2.6,2.4,2.6c1,0,1.7-0.5,2-1.2l0-0.1
				h1.3l0,0.1c-0.3,1.3-1.6,2.4-3.3,2.4C396.6,291.8,395.2,290.2,395.2,287.7z M396.6,286.9h4.4c-0.1-1.6-1-2.3-2.2-2.3
				C397.7,284.6,396.8,285.4,396.6,286.9z"/>
			<path d="M403.3,289.4L403.3,289.4l1.3-0.1l0,0.1c0.2,0.8,0.8,1.3,1.8,1.3c1.1,0,1.7-0.5,1.7-1.2v0c0-0.6-0.3-0.9-1.2-1.1
				l-1.3-0.3c-1.5-0.4-2.2-1.1-2.2-2.2v0c0-1.4,1.2-2.4,2.9-2.4c1.8,0,2.9,1,3,2.4l0,0.1h-1.3l0-0.1c-0.1-0.8-0.7-1.3-1.7-1.3
				c-1,0-1.6,0.5-1.6,1.2v0c0,0.5,0.4,0.9,1.2,1.1l1.3,0.3c1.6,0.4,2.2,1,2.2,2.2v0c0,1.4-1.3,2.4-3.1,2.4
				C404.7,291.8,403.5,290.8,403.3,289.4z"/>
			<path d="M411.4,289.6v-4.9h-1.2v-1.1h1.2v-2.2h1.4v2.2h1.5v1.1h-1.5v4.9c0,0.9,0.4,1.1,1.1,1.1c0.2,0,0.3,0,0.4,0v1.1
				c-0.2,0-0.5,0.1-0.7,0.1C412.2,291.8,411.4,291.1,411.4,289.6z"/>
			<path d="M415.8,283.6h1.3v1.2h0c0.4-0.8,1.2-1.3,2.2-1.3c1.1,0,1.9,0.6,2.2,1.5h0c0.4-1,1.4-1.5,2.5-1.5c1.6,0,2.6,1,2.6,2.6v5.5
				h-1.3v-5.2c0-1.1-0.6-1.8-1.7-1.8c-1.1,0-1.8,0.8-1.8,1.9v5.1h-1.3v-5.4c0-1-0.6-1.6-1.6-1.6c-1.1,0-1.8,0.8-1.8,2v5h-1.3V283.6z
				"/>
			<path d="M428.1,287.7L428.1,287.7c0-2.5,1.4-4.2,3.6-4.2s3.5,1.6,3.5,4v0.5h-5.8c0,1.6,0.9,2.6,2.4,2.6c1,0,1.7-0.5,2-1.2l0-0.1
				h1.3l0,0.1c-0.3,1.3-1.6,2.4-3.3,2.4C429.5,291.8,428.1,290.2,428.1,287.7z M429.4,286.9h4.4c-0.1-1.6-1-2.3-2.2-2.3
				C430.5,284.6,429.6,285.4,429.4,286.9z"/>
			<path d="M436.5,283.6h1.3v1.1h0c0.4-0.7,1.2-1.3,2.5-1.3c1.8,0,2.8,1.1,2.8,3v5.2h-1.3v-5c0-1.3-0.6-2-1.8-2
				c-1.3,0-2.1,0.9-2.1,2.3v4.7h-1.3V283.6z"/>
			<path d="M445.3,289.6v-4.9h-1.2v-1.1h1.2v-2.2h1.4v2.2h1.5v1.1h-1.5v4.9c0,0.9,0.4,1.1,1.1,1.1c0.2,0,0.3,0,0.4,0v1.1
				c-0.2,0-0.5,0.1-0.7,0.1C446,291.8,445.3,291.1,445.3,289.6z"/>
			<path d="M449.2,289.4L449.2,289.4l1.3-0.1l0,0.1c0.2,0.8,0.8,1.3,1.8,1.3c1.1,0,1.7-0.5,1.7-1.2v0c0-0.6-0.3-0.9-1.2-1.1
				l-1.3-0.3c-1.5-0.4-2.2-1.1-2.2-2.2v0c0-1.4,1.2-2.4,2.9-2.4c1.8,0,2.9,1,3,2.4l0,0.1h-1.3l0-0.1c-0.1-0.8-0.7-1.3-1.7-1.3
				c-1,0-1.6,0.5-1.6,1.2v0c0,0.5,0.4,0.9,1.2,1.1l1.3,0.3c1.6,0.4,2.2,1,2.2,2.2v0c0,1.4-1.3,2.4-3.1,2.4
				C450.6,291.8,449.4,290.8,449.2,289.4z"/>
		</g>
	</g>
	<g>
		<g>
			<path d="M376.7,312.3h4.2c2.1,0,3.5,1.3,3.5,3.3v0c0,1.5-0.8,2.7-2.2,3.2l2.6,4.6h-1.6l-2.4-4.4h-2.7v4.4h-1.4V312.3z
				 M380.7,317.8c1.4,0,2.2-0.8,2.2-2.1v0c0-1.3-0.9-2.1-2.3-2.1h-2.6v4.3H380.7z"/>
			<path d="M385.5,319.5L385.5,319.5c0-2.5,1.4-4.2,3.6-4.2s3.5,1.6,3.5,4v0.5h-5.8c0,1.7,0.9,2.6,2.4,2.6c1,0,1.7-0.5,2-1.2l0-0.1
				h1.3l0,0.1c-0.3,1.3-1.6,2.4-3.3,2.4C386.9,323.6,385.5,322,385.5,319.5z M386.9,318.8h4.4c-0.1-1.6-1-2.3-2.2-2.3
				C387.9,316.5,387,317.3,386.9,318.8z"/>
			<path d="M394,315.4h1.3v1.2h0c0.4-0.8,1.2-1.3,2.2-1.3c1.1,0,1.9,0.6,2.2,1.5h0c0.4-1,1.4-1.5,2.5-1.5c1.6,0,2.6,1,2.6,2.6v5.5
				h-1.3v-5.2c0-1.1-0.6-1.8-1.7-1.8c-1.1,0-1.8,0.8-1.8,1.9v5.1h-1.3v-5.4c0-1-0.6-1.6-1.6-1.6c-1.1,0-1.8,0.8-1.8,2v5H394V315.4z"
				/>
			<path d="M406.6,313.2c0-0.5,0.4-0.8,0.8-0.8c0.5,0,0.8,0.4,0.8,0.8c0,0.5-0.4,0.8-0.8,0.8C406.9,314.1,406.6,313.7,406.6,313.2z
				 M406.7,315.4h1.3v8h-1.3V315.4z"/>
			<path d="M410.3,321.4v-4.9h-1.2v-1.1h1.2v-2.2h1.4v2.2h1.5v1.1h-1.5v4.9c0,0.9,0.4,1.1,1.1,1.1c0.2,0,0.3,0,0.4,0v1.1
				c-0.2,0-0.5,0.1-0.7,0.1C411,323.6,410.3,322.9,410.3,321.4z"/>
			<path d="M415.1,321.4v-4.9h-1.2v-1.1h1.2v-2.2h1.4v2.2h1.5v1.1h-1.5v4.9c0,0.9,0.4,1.1,1.1,1.1c0.2,0,0.3,0,0.4,0v1.1
				c-0.2,0-0.5,0.1-0.7,0.1C415.8,323.6,415.1,322.9,415.1,321.4z"/>
			<path d="M418.9,321.2L418.9,321.2c0-1.4,1.1-2.2,2.9-2.3l2.3-0.1V318c0-1-0.6-1.6-1.8-1.6c-1,0-1.7,0.5-1.8,1.2l0,0.1h-1.3l0-0.1
				c0.1-1.3,1.3-2.4,3.2-2.4c1.9,0,3.1,1,3.1,2.6v5.5h-1.3v-1.3h0c-0.5,0.9-1.4,1.5-2.5,1.5C420,323.6,418.9,322.6,418.9,321.2z
				 M421.9,322.4c1.3,0,2.2-0.9,2.2-2v-0.7l-2.1,0.1c-1.1,0.1-1.7,0.5-1.7,1.3v0C420.3,322,420.9,322.4,421.9,322.4z"/>
			<path d="M427.2,315.4h1.3v1.1h0c0.4-0.7,1.2-1.3,2.5-1.3c1.8,0,2.8,1.1,2.8,3v5.2h-1.3v-5c0-1.3-0.6-2-1.8-2
				c-1.3,0-2.1,0.9-2.1,2.3v4.7h-1.3V315.4z"/>
			<path d="M435.1,319.4L435.1,319.4c0-2.5,1.5-4.2,3.7-4.2c2,0,3.2,1.3,3.3,2.7l0,0.1h-1.3l0-0.1c-0.2-0.8-0.8-1.5-2-1.5
				c-1.4,0-2.3,1.2-2.3,3v0c0,1.9,1,3,2.3,3c1.1,0,1.8-0.6,2-1.5l0-0.1h1.3l0,0.1c-0.2,1.5-1.5,2.7-3.3,2.7
				C436.5,323.6,435.1,322,435.1,319.4z"/>
			<path d="M443,319.5L443,319.5c0-2.5,1.4-4.2,3.6-4.2s3.5,1.6,3.5,4v0.5h-5.8c0,1.7,0.9,2.6,2.4,2.6c1,0,1.7-0.5,2-1.2l0-0.1h1.3
				l0,0.1c-0.3,1.3-1.6,2.4-3.3,2.4C444.4,323.6,443,322,443,319.5z M444.4,318.8h4.4c-0.1-1.6-1-2.3-2.2-2.3
				C445.4,316.5,444.5,317.3,444.4,318.8z"/>
			<path d="M451.1,321.2L451.1,321.2l1.3-0.1l0,0.1c0.2,0.8,0.8,1.3,1.8,1.3c1.1,0,1.7-0.5,1.7-1.2v0c0-0.6-0.3-0.9-1.2-1.1
				l-1.3-0.3c-1.5-0.4-2.2-1.1-2.2-2.2v0c0-1.4,1.2-2.4,2.9-2.4c1.8,0,2.9,1,3,2.4l0,0.1H456l0-0.1c-0.1-0.8-0.7-1.3-1.7-1.3
				c-1,0-1.6,0.5-1.6,1.2v0c0,0.5,0.4,0.9,1.2,1.1l1.3,0.3c1.6,0.4,2.2,1,2.2,2.2v0c0,1.4-1.3,2.4-3.1,2.4
				C452.4,323.6,451.3,322.6,451.1,321.2z"/>
		</g>
	</g>
	<line class="st4" x1="356.7" y1="126.8" x2="368.7" y2="126.8"/>
	<line class="st4" x1="356.7" y1="158.9" x2="368.7" y2="158.9"/>
	<line class="st4" x1="356.7" y1="190.9" x2="368.7" y2="190.9"/>
	<line class="st4" x1="356.7" y1="222.9" x2="368.7" y2="222.9"/>
	<line class="st4" x1="356.7" y1="255" x2="368.7" y2="255"/>
	<line class="st4" x1="356.7" y1="287" x2="368.7" y2="287"/>
	<polyline class="st4" points="356.7,94.1 356.7,317.8 368.7,317.8 	"/>
	<g>
		<g>
			<path d="M376.4,474h4.2c1.9,0,3.2,1.1,3.2,2.8v0c0,1.1-0.9,2.3-2,2.4v0c1.6,0.2,2.6,1.3,2.6,2.7v0c0,2-1.4,3.1-3.8,3.1h-4.2V474z
				 M377.8,475.2v3.6h2.1c1.6,0,2.5-0.7,2.5-1.9v0c0-1.1-0.8-1.7-2.1-1.7H377.8z M377.8,480v3.9h2.6c1.7,0,2.6-0.7,2.6-2v0
				c0-1.3-0.9-1.9-2.7-1.9H377.8z"/>
			<path d="M385.7,482.3v-5.2h1.3v5c0,1.3,0.6,2,1.8,2c1.3,0,2.1-0.9,2.1-2.3v-4.7h1.3v8H391V484h0c-0.4,0.7-1.2,1.3-2.5,1.3
				C386.7,485.3,385.7,484.1,385.7,482.3z"/>
			<path d="M393.7,482.9L393.7,482.9l1.3-0.1l0,0.1c0.2,0.8,0.8,1.3,1.8,1.3c1.1,0,1.7-0.5,1.7-1.2v0c0-0.6-0.3-0.9-1.2-1.1
				l-1.3-0.3c-1.5-0.4-2.2-1.1-2.2-2.2v0c0-1.4,1.2-2.4,2.9-2.4c1.8,0,2.9,1,3,2.4l0,0.1h-1.3l0-0.1c-0.1-0.8-0.7-1.3-1.7-1.3
				c-1,0-1.6,0.5-1.6,1.2v0c0,0.5,0.4,0.9,1.2,1.1l1.3,0.3c1.6,0.4,2.2,1,2.2,2.2v0c0,1.4-1.3,2.4-3.1,2.4
				C395,485.3,393.9,484.3,393.7,482.9z"/>
			<path d="M401.3,474.9c0-0.5,0.4-0.8,0.8-0.8c0.5,0,0.8,0.4,0.8,0.8c0,0.5-0.4,0.8-0.8,0.8C401.7,475.7,401.3,475.4,401.3,474.9z
				 M401.5,477.1h1.3v8h-1.3V477.1z"/>
			<path d="M404.7,477.1h1.3v1.1h0c0.4-0.7,1.2-1.3,2.5-1.3c1.8,0,2.8,1.1,2.8,3v5.2h-1.3v-5c0-1.3-0.6-2-1.8-2
				c-1.3,0-2.1,0.9-2.1,2.3v4.7h-1.3V477.1z"/>
			<path d="M412.6,481.1L412.6,481.1c0-2.5,1.4-4.2,3.6-4.2s3.5,1.6,3.5,4v0.5h-5.8c0,1.6,0.9,2.6,2.4,2.6c1,0,1.7-0.5,2-1.2l0-0.1
				h1.3l0,0.1c-0.3,1.3-1.6,2.4-3.3,2.4C414,485.3,412.6,483.7,412.6,481.1z M413.9,480.4h4.4c-0.1-1.6-1-2.3-2.2-2.3
				C415,478.1,414.1,478.9,413.9,480.4z"/>
			<path d="M420.7,482.9L420.7,482.9l1.3-0.1l0,0.1c0.2,0.8,0.8,1.3,1.8,1.3c1.1,0,1.7-0.5,1.7-1.2v0c0-0.6-0.3-0.9-1.2-1.1
				l-1.3-0.3c-1.5-0.4-2.2-1.1-2.2-2.2v0c0-1.4,1.2-2.4,2.9-2.4c1.8,0,2.9,1,3,2.4l0,0.1h-1.3l0-0.1c-0.1-0.8-0.7-1.3-1.7-1.3
				c-1,0-1.6,0.5-1.6,1.2v0c0,0.5,0.4,0.9,1.2,1.1l1.3,0.3c1.6,0.4,2.2,1,2.2,2.2v0c0,1.4-1.3,2.4-3.1,2.4
				C422,485.3,420.9,484.3,420.7,482.9z"/>
			<path d="M428,482.9L428,482.9l1.3-0.1l0,0.1c0.2,0.8,0.8,1.3,1.8,1.3c1.1,0,1.7-0.5,1.7-1.2v0c0-0.6-0.3-0.9-1.2-1.1l-1.3-0.3
				c-1.5-0.4-2.2-1.1-2.2-2.2v0c0-1.4,1.2-2.4,2.9-2.4c1.8,0,2.9,1,3,2.4l0,0.1h-1.3l0-0.1c-0.1-0.8-0.7-1.3-1.7-1.3
				c-1,0-1.6,0.5-1.6,1.2v0c0,0.5,0.4,0.9,1.2,1.1l1.3,0.3c1.6,0.4,2.2,1,2.2,2.2v0c0,1.4-1.3,2.4-3.1,2.4
				C429.3,485.3,428.2,484.3,428,482.9z"/>
			<path d="M439.2,474h4.2c1.9,0,3.2,1.1,3.2,2.8v0c0,1.1-0.9,2.3-2,2.4v0c1.6,0.2,2.6,1.3,2.6,2.7v0c0,2-1.4,3.1-3.8,3.1h-4.2V474z
				 M440.5,475.2v3.6h2.1c1.6,0,2.5-0.7,2.5-1.9v0c0-1.1-0.8-1.7-2.1-1.7H440.5z M440.5,480v3.9h2.6c1.7,0,2.6-0.7,2.6-2v0
				c0-1.3-0.9-1.9-2.7-1.9H440.5z"/>
			<path d="M448.2,482.8L448.2,482.8c0-1.4,1.1-2.2,2.9-2.3l2.3-0.1v-0.7c0-1-0.6-1.6-1.8-1.6c-1,0-1.7,0.5-1.8,1.2l0,0.1h-1.3
				l0-0.1c0.1-1.3,1.3-2.4,3.2-2.4c1.9,0,3.1,1,3.1,2.6v5.5h-1.3v-1.3h0c-0.5,0.9-1.4,1.5-2.5,1.5
				C449.2,485.3,448.2,484.3,448.2,482.8z M451.1,484.1c1.3,0,2.2-0.9,2.2-2v-0.7l-2.1,0.1c-1.1,0.1-1.7,0.5-1.7,1.3v0
				C449.5,483.6,450.2,484.1,451.1,484.1z"/>
			<path d="M456.4,477.1h1.3v1.1h0c0.4-0.7,1.2-1.3,2.5-1.3c1.8,0,2.8,1.1,2.8,3v5.2h-1.3v-5c0-1.3-0.6-2-1.8-2
				c-1.3,0-2.1,0.9-2.1,2.3v4.7h-1.3V477.1z"/>
			<path d="M464.8,474h1.3v6.6h0l3.5-3.5h1.6l-3.5,3.5l3.6,4.6h-1.6l-3-3.7l-0.7,0.7v3h-1.3V474z"/>
			<path d="M472.3,474.9c0-0.5,0.4-0.8,0.8-0.8c0.5,0,0.8,0.4,0.8,0.8c0,0.5-0.4,0.8-0.8,0.8C472.7,475.7,472.3,475.4,472.3,474.9z
				 M472.5,477.1h1.3v8h-1.3V477.1z"/>
			<path d="M475.6,477.1h1.3v1.1h0c0.4-0.7,1.2-1.3,2.5-1.3c1.8,0,2.8,1.1,2.8,3v5.2h-1.3v-5c0-1.3-0.6-2-1.8-2
				c-1.3,0-2.1,0.9-2.1,2.3v4.7h-1.3V477.1z"/>
			<path d="M483.8,485.8L483.8,485.8l1.3-0.1l0,0.1c0.3,0.6,1,0.9,2.1,0.9c1.4,0,2.2-0.8,2.2-2v-1h0c-0.5,0.9-1.4,1.5-2.6,1.5
				c-2,0-3.4-1.6-3.4-4.1v0c0-2.5,1.4-4.1,3.4-4.1c1.1,0,2,0.6,2.5,1.5h0v-1.4h1.3v7.8c0,1.9-1.4,3.1-3.5,3.1
				C485.3,488,484.1,487,483.8,485.8z M489.5,481.1L489.5,481.1c0-1.8-0.9-2.9-2.3-2.9c-1.4,0-2.3,1.1-2.3,2.9v0
				c0,1.8,0.9,2.9,2.3,2.9C488.6,484,489.5,482.8,489.5,481.1z"/>
		</g>
	</g>
	<g>
		<g>
			<path d="M376.4,505.8h1.4v11.1h-1.4V505.8z"/>
			<path d="M379.8,508.9h1.3v1.1h0c0.4-0.7,1.2-1.3,2.5-1.3c1.8,0,2.8,1.1,2.8,3v5.2H385v-5c0-1.3-0.6-2-1.8-2
				c-1.3,0-2.1,0.9-2.1,2.3v4.7h-1.3V508.9z"/>
			<path d="M387.4,508.9h1.4l2.2,6.6h0l2.2-6.6h1.4l-2.9,8h-1.4L387.4,508.9z"/>
			<path d="M395,513L395,513c0-2.5,1.4-4.2,3.6-4.2s3.5,1.6,3.5,4v0.5h-5.8c0,1.6,0.9,2.6,2.4,2.6c1,0,1.7-0.5,2-1.2l0-0.1h1.3
				l0,0.1c-0.3,1.3-1.6,2.4-3.3,2.4C396.4,517.1,395,515.5,395,513z M396.4,512.2h4.4c-0.1-1.6-1-2.3-2.2-2.3
				C397.4,510,396.5,510.7,396.4,512.2z"/>
			<path d="M403.1,514.7L403.1,514.7l1.3-0.1l0,0.1c0.2,0.8,0.8,1.3,1.8,1.3c1.1,0,1.7-0.5,1.7-1.2v0c0-0.6-0.3-0.9-1.2-1.1
				l-1.3-0.3c-1.5-0.4-2.2-1.1-2.2-2.2v0c0-1.4,1.2-2.4,2.9-2.4c1.8,0,2.9,1,3,2.4l0,0.1H408l0-0.1c-0.1-0.8-0.7-1.3-1.7-1.3
				c-1,0-1.6,0.5-1.6,1.2v0c0,0.5,0.4,0.9,1.2,1.1l1.3,0.3c1.6,0.4,2.2,1,2.2,2.2v0c0,1.4-1.3,2.4-3.1,2.4
				C404.4,517.1,403.3,516.1,403.1,514.7z"/>
			<path d="M411.2,514.9V510H410v-1.1h1.2v-2.2h1.4v2.2h1.5v1.1h-1.5v4.9c0,0.9,0.4,1.1,1.1,1.1c0.2,0,0.3,0,0.4,0v1.1
				c-0.2,0-0.5,0.1-0.7,0.1C411.9,517.1,411.2,516.4,411.2,514.9z"/>
			<path d="M415.6,508.9h1.3v1.2h0c0.4-0.8,1.2-1.3,2.2-1.3c1.1,0,1.9,0.6,2.2,1.5h0c0.4-1,1.4-1.5,2.5-1.5c1.6,0,2.6,1,2.6,2.6v5.5
				h-1.3v-5.2c0-1.1-0.6-1.8-1.7-1.8c-1.1,0-1.8,0.8-1.8,1.9v5.1h-1.3v-5.4c0-1-0.6-1.6-1.6-1.6c-1.1,0-1.8,0.8-1.8,2v5h-1.3V508.9z
				"/>
			<path d="M427.8,513L427.8,513c0-2.5,1.4-4.2,3.6-4.2s3.5,1.6,3.5,4v0.5h-5.8c0,1.6,0.9,2.6,2.4,2.6c1,0,1.7-0.5,2-1.2l0-0.1h1.3
				l0,0.1c-0.3,1.3-1.6,2.4-3.3,2.4C429.2,517.1,427.8,515.5,427.8,513z M429.2,512.2h4.4c-0.1-1.6-1-2.3-2.2-2.3
				C430.3,510,429.4,510.7,429.2,512.2z"/>
			<path d="M436.3,508.9h1.3v1.1h0c0.4-0.7,1.2-1.3,2.5-1.3c1.8,0,2.8,1.1,2.8,3v5.2h-1.3v-5c0-1.3-0.6-2-1.8-2
				c-1.3,0-2.1,0.9-2.1,2.3v4.7h-1.3V508.9z"/>
			<path d="M445,514.9V510h-1.2v-1.1h1.2v-2.2h1.4v2.2h1.5v1.1h-1.5v4.9c0,0.9,0.4,1.1,1.1,1.1c0.2,0,0.3,0,0.4,0v1.1
				c-0.2,0-0.5,0.1-0.7,0.1C445.7,517.1,445,516.4,445,514.9z"/>
			<path d="M449,514.7L449,514.7l1.3-0.1l0,0.1c0.2,0.8,0.8,1.3,1.8,1.3c1.1,0,1.7-0.5,1.7-1.2v0c0-0.6-0.3-0.9-1.2-1.1l-1.3-0.3
				c-1.5-0.4-2.2-1.1-2.2-2.2v0c0-1.4,1.2-2.4,2.9-2.4c1.8,0,2.9,1,3,2.4l0,0.1h-1.3l0-0.1c-0.1-0.8-0.7-1.3-1.7-1.3
				c-1,0-1.6,0.5-1.6,1.2v0c0,0.5,0.4,0.9,1.2,1.1l1.3,0.3c1.6,0.4,2.2,1,2.2,2.2v0c0,1.4-1.3,2.4-3.1,2.4
				C450.3,517.1,449.2,516.1,449,514.7z"/>
		</g>
	</g>
	<g>
		<g>
			<path d="M375.7,537.6h1.4l2.2,9.1h0l2.5-9.1h1.4l2.5,9.1h0l2.2-9.1h1.4l-3,11.1h-1.3l-2.6-8.9h0l-2.6,8.9h-1.3L375.7,537.6z"/>
			<path d="M389.4,546.5L389.4,546.5c0-1.4,1.1-2.2,2.9-2.3l2.3-0.1v-0.7c0-1-0.6-1.6-1.8-1.6c-1,0-1.7,0.5-1.8,1.2l0,0.1h-1.3
				l0-0.1c0.1-1.3,1.3-2.4,3.2-2.4c1.9,0,3.1,1,3.1,2.6v5.5h-1.3v-1.3h0c-0.5,0.9-1.4,1.5-2.5,1.5
				C390.5,548.9,389.4,548,389.4,546.5z M392.4,547.8c1.3,0,2.2-0.9,2.2-2v-0.7l-2.1,0.1c-1.1,0.1-1.7,0.5-1.7,1.3v0
				C390.8,547.3,391.4,547.8,392.4,547.8z"/>
			<path d="M397.7,551.4v-1.1c0.1,0,0.3,0,0.4,0c0.8,0,1.3-0.2,1.6-1.1l0.2-0.5l-3-8h1.4l2.2,6.7h0l2.2-6.7h1.4l-3.1,8.5
				c-0.6,1.5-1.3,2.2-2.7,2.2C398.1,551.5,397.9,551.4,397.7,551.4z"/>
			<path d="M405,546.5L405,546.5l1.3-0.1l0,0.1c0.2,0.8,0.8,1.3,1.8,1.3c1.1,0,1.7-0.5,1.7-1.2v0c0-0.6-0.3-0.9-1.2-1.1l-1.3-0.3
				c-1.5-0.4-2.2-1.1-2.2-2.2v0c0-1.4,1.2-2.4,2.9-2.4c1.8,0,2.9,1,3,2.4l0,0.1h-1.3l0-0.1c-0.1-0.8-0.7-1.3-1.7-1.3
				c-1,0-1.6,0.5-1.6,1.2v0c0,0.5,0.4,0.9,1.2,1.1l1.3,0.3c1.6,0.4,2.2,1,2.2,2.2v0c0,1.4-1.3,2.4-3.1,2.4
				C406.3,548.9,405.1,548,405,546.5z"/>
			<path d="M416.3,546.7v-4.9h-1.2v-1.1h1.2v-2.2h1.4v2.2h1.5v1.1h-1.5v4.9c0,0.9,0.4,1.1,1.1,1.1c0.2,0,0.3,0,0.4,0v1.1
				c-0.2,0-0.5,0.1-0.7,0.1C417,548.9,416.3,548.3,416.3,546.7z"/>
			<path d="M420,544.8L420,544.8c0-2.6,1.5-4.2,3.7-4.2c2.2,0,3.7,1.6,3.7,4.1v0c0,2.6-1.5,4.2-3.7,4.2
				C421.5,548.9,420,547.3,420,544.8z M426,544.8L426,544.8c0-1.9-0.9-3-2.3-3c-1.4,0-2.3,1.1-2.3,3v0c0,1.9,0.9,3,2.3,3
				C425.1,547.7,426,546.6,426,544.8z"/>
			<path d="M432.2,537.6h4.2c1.9,0,3.2,1.1,3.2,2.8v0c0,1.1-0.9,2.3-2,2.4v0c1.6,0.2,2.6,1.3,2.6,2.7v0c0,2-1.4,3.1-3.8,3.1h-4.2
				V537.6z M433.6,538.9v3.6h2.1c1.6,0,2.5-0.7,2.5-1.9v0c0-1.1-0.8-1.7-2.1-1.7H433.6z M433.6,543.6v3.9h2.6c1.7,0,2.6-0.7,2.6-1.9
				v0c0-1.3-0.9-1.9-2.7-1.9H433.6z"/>
			<path d="M441.2,546.5L441.2,546.5c0-1.4,1.1-2.2,2.9-2.3l2.3-0.1v-0.7c0-1-0.6-1.6-1.8-1.6c-1,0-1.7,0.5-1.8,1.2l0,0.1h-1.3
				l0-0.1c0.1-1.3,1.3-2.4,3.2-2.4c1.9,0,3.1,1,3.1,2.6v5.5h-1.3v-1.3h0c-0.5,0.9-1.4,1.5-2.5,1.5
				C442.3,548.9,441.2,548,441.2,546.5z M444.2,547.8c1.3,0,2.2-0.9,2.2-2v-0.7l-2.1,0.1c-1.1,0.1-1.7,0.5-1.7,1.3v0
				C442.6,547.3,443.2,547.8,444.2,547.8z"/>
			<path d="M449.5,540.7h1.3v1.1h0c0.4-0.7,1.2-1.3,2.5-1.3c1.8,0,2.8,1.1,2.8,3v5.2h-1.3v-5c0-1.3-0.6-2-1.8-2
				c-1.3,0-2.1,0.9-2.1,2.3v4.7h-1.3V540.7z"/>
			<path d="M457.9,537.6h1.3v6.6h0l3.5-3.5h1.6l-3.5,3.5l3.6,4.6h-1.6l-3-3.7l-0.7,0.7v3h-1.3V537.6z"/>
		</g>
	</g>
	<g>
		<g>
			<path d="M376.4,569.5h1.3l6.1,8.8h0v-8.8h1.4v11.1H384l-6.1-8.8h0v8.8h-1.4V569.5z"/>
			<path d="M387.5,569.5h1.6l3.9,9.4h0l3.9-9.4h1.6v11.1h-1.3V572h0l-3.6,8.6h-1.2l-3.6-8.6h0v8.6h-1.3V569.5z"/>
			<path d="M400.6,569.5h4.2c1.9,0,3.2,1.1,3.2,2.8v0c0,1.1-0.9,2.3-2,2.4v0c1.6,0.2,2.6,1.3,2.6,2.7v0c0,2-1.4,3.1-3.8,3.1h-4.2
				V569.5z M402,570.7v3.6h2.1c1.6,0,2.5-0.7,2.5-1.9v0c0-1.1-0.8-1.7-2.1-1.7H402z M402,575.5v3.9h2.6c1.7,0,2.6-0.7,2.6-1.9v0
				c0-1.3-0.9-1.9-2.7-1.9H402z"/>
			<path d="M409.6,577.7l0-0.1h1.4l0,0.1c0.2,1.1,1.2,1.8,2.9,1.8c1.6,0,2.6-0.7,2.6-1.9v0c0-1-0.6-1.5-2.2-1.9l-1.2-0.3
				c-2.2-0.5-3.2-1.5-3.2-3.1v0c0-1.8,1.6-3.1,3.9-3.1c2.2,0,3.8,1.3,3.9,3.1l0,0.1h-1.4l0-0.1c-0.2-1.1-1.1-1.8-2.5-1.8
				c-1.5,0-2.5,0.7-2.5,1.8v0c0,0.9,0.7,1.5,2.1,1.8l1.2,0.3c2.3,0.5,3.2,1.4,3.2,3.1v0c0,2-1.6,3.2-4.1,3.2
				C411.3,580.8,409.7,579.6,409.6,577.7z"/>
			<path d="M419.2,577.8v-5.2h1.3v5c0,1.3,0.6,2,1.8,2c1.3,0,2.1-0.9,2.1-2.3v-4.7h1.3v8h-1.3v-1.1h0c-0.4,0.7-1.2,1.3-2.5,1.3
				C420.2,580.7,419.2,579.6,419.2,577.8z"/>
			<path d="M427.6,572.6h1.3v1.4h0c0.3-0.9,1-1.5,1.9-1.5c0.2,0,0.4,0,0.5,0.1v1.3c-0.1,0-0.4-0.1-0.7-0.1c-1,0-1.7,0.7-1.7,1.9v4.9
				h-1.3V572.6z"/>
			<path d="M431.6,576.6L431.6,576.6c0-2.5,1.4-4.2,3.6-4.2s3.5,1.6,3.5,4v0.5H433c0,1.6,0.9,2.6,2.4,2.6c1,0,1.7-0.5,2-1.2l0-0.1
				h1.3l0,0.1c-0.3,1.3-1.6,2.4-3.3,2.4C433,580.7,431.6,579.1,431.6,576.6z M433,575.9h4.4c-0.1-1.6-1-2.3-2.2-2.3
				C434.1,573.6,433.2,574.4,433,575.9z"/>
		</g>
	</g>
	<line class="st4" x1="356.4" y1="479.5" x2="368.5" y2="479.5"/>
	<line class="st4" x1="356.4" y1="511.5" x2="368.5" y2="511.5"/>
	<line class="st4" x1="356.4" y1="543.5" x2="368.5" y2="543.5"/>
	<polyline class="st4" points="356.4,446.7 356.4,575.6 368.5,575.6 	"/>
	<g>
		<g>
			<path d="M73,722.2h1.6l3.9,9.4h0l3.9-9.4H84v11.1h-1.3v-8.6h0l-3.6,8.6h-1.2l-3.6-8.6h0v8.6H73V722.2z"/>
			<path d="M85.5,729.3L85.5,729.3c0-2.6,1.5-4.2,3.7-4.2s3.7,1.6,3.7,4.1v0c0,2.6-1.5,4.2-3.7,4.2C87,733.5,85.5,731.9,85.5,729.3z
				 M91.6,729.3L91.6,729.3c0-1.9-0.9-3-2.3-3c-1.4,0-2.3,1.1-2.3,3v0c0,1.9,0.9,3,2.3,3C90.7,732.3,91.6,731.2,91.6,729.3z"/>
			<path d="M94.3,725.3h1.3v1.4h0c0.3-0.9,1-1.5,1.9-1.5c0.2,0,0.4,0,0.5,0.1v1.3c-0.1,0-0.4-0.1-0.7-0.1c-1,0-1.7,0.7-1.7,1.9v4.9
				h-1.3V725.3z"/>
			<path d="M100,731.3v-4.9h-1.2v-1.1h1.2v-2.2h1.4v2.2h1.5v1.1h-1.5v4.9c0,0.9,0.4,1.1,1.1,1.1c0.2,0,0.3,0,0.4,0v1.1
				c-0.2,0-0.5,0.1-0.7,0.1C100.7,733.5,100,732.8,100,731.3z"/>
			<path d="M104,734L104,734l1.3-0.1l0,0.1c0.3,0.6,1,0.9,2.1,0.9c1.4,0,2.2-0.8,2.2-2v-1h0c-0.5,0.9-1.4,1.5-2.6,1.5
				c-2,0-3.4-1.6-3.4-4.1v0c0-2.5,1.4-4.1,3.4-4.1c1.1,0,2,0.6,2.5,1.5h0v-1.4h1.3v7.8c0,1.9-1.4,3.1-3.5,3.1
				C105.5,736.2,104.2,735.2,104,734z M109.7,729.3L109.7,729.3c0-1.8-0.9-2.9-2.3-2.9c-1.4,0-2.3,1.1-2.3,2.9v0
				c0,1.8,0.9,2.9,2.3,2.9C108.7,732.2,109.7,731,109.7,729.3z"/>
			<path d="M112.4,731.1L112.4,731.1c0-1.4,1.1-2.2,2.9-2.3l2.3-0.1v-0.7c0-1-0.6-1.6-1.8-1.6c-1,0-1.7,0.5-1.8,1.2l0,0.1h-1.3
				l0-0.1c0.1-1.3,1.3-2.4,3.2-2.4c1.9,0,3.1,1,3.1,2.6v5.5h-1.3V732h0c-0.5,0.9-1.4,1.5-2.5,1.5
				C113.5,733.5,112.4,732.5,112.4,731.1z M115.4,732.3c1.3,0,2.2-0.9,2.2-2v-0.7l-2.1,0.1c-1.1,0.1-1.7,0.5-1.7,1.3v0
				C113.8,731.8,114.4,732.3,115.4,732.3z"/>
			<path d="M120.5,734L120.5,734l1.3-0.1l0,0.1c0.3,0.6,1,0.9,2.1,0.9c1.4,0,2.2-0.8,2.2-2v-1h0c-0.5,0.9-1.4,1.5-2.6,1.5
				c-2,0-3.4-1.6-3.4-4.1v0c0-2.5,1.4-4.1,3.4-4.1c1.1,0,2,0.6,2.5,1.5h0v-1.4h1.3v7.8c0,1.9-1.4,3.1-3.5,3.1
				C122.1,736.2,120.8,735.2,120.5,734z M126.2,729.3L126.2,729.3c0-1.8-0.9-2.9-2.3-2.9c-1.4,0-2.3,1.1-2.3,2.9v0
				c0,1.8,0.9,2.9,2.3,2.9C125.3,732.2,126.2,731,126.2,729.3z"/>
			<path d="M128.9,729.3L128.9,729.3c0-2.5,1.4-4.2,3.6-4.2c2.2,0,3.5,1.6,3.5,4v0.5h-5.8c0,1.6,0.9,2.6,2.4,2.6c1,0,1.7-0.5,2-1.2
				l0-0.1h1.3l0,0.1c-0.3,1.3-1.6,2.4-3.3,2.4C130.3,733.5,128.9,731.9,128.9,729.3z M130.3,728.6h4.4c-0.1-1.6-1-2.3-2.2-2.3
				C131.3,726.3,130.4,727.1,130.3,728.6z"/>
			<path d="M140.4,727.8L140.4,727.8c0-3.5,2-5.7,5.1-5.7c2.3,0,4.1,1.4,4.5,3.5l0,0.1h-1.4l-0.1-0.2c-0.4-1.3-1.5-2.1-3.1-2.1
				c-2.2,0-3.7,1.7-3.7,4.5v0c0,2.7,1.4,4.5,3.7,4.5c1.6,0,2.6-0.8,3.1-2.2l0-0.1h1.4l0,0.1c-0.4,2.1-2.2,3.5-4.5,3.5
				C142.4,733.5,140.4,731.3,140.4,727.8z"/>
			<path d="M151.1,731.1L151.1,731.1c0-1.4,1.1-2.2,2.9-2.3l2.3-0.1v-0.7c0-1-0.6-1.6-1.8-1.6c-1,0-1.7,0.5-1.8,1.2l0,0.1h-1.3
				l0-0.1c0.1-1.3,1.3-2.4,3.2-2.4c1.9,0,3.1,1,3.1,2.6v5.5h-1.3V732h0c-0.5,0.9-1.4,1.5-2.5,1.5
				C152.2,733.5,151.1,732.5,151.1,731.1z M154.1,732.3c1.3,0,2.2-0.9,2.2-2v-0.7l-2.1,0.1c-1.1,0.1-1.7,0.5-1.7,1.3v0
				C152.5,731.8,153.1,732.3,154.1,732.3z"/>
			<path d="M159.4,722.2h1.3v11.1h-1.3V722.2z"/>
			<path d="M162.2,729.3L162.2,729.3c0-2.5,1.5-4.2,3.7-4.2c2,0,3.2,1.3,3.3,2.7l0,0.1h-1.3l0-0.1c-0.2-0.8-0.8-1.5-2-1.5
				c-1.4,0-2.3,1.2-2.3,3v0c0,1.9,1,3,2.3,3c1.1,0,1.8-0.6,2-1.5l0-0.1h1.3l0,0.1c-0.2,1.5-1.5,2.7-3.3,2.7
				C163.6,733.5,162.2,731.9,162.2,729.3z"/>
			<path d="M170.4,730.5v-5.2h1.3v5c0,1.3,0.6,2,1.8,2c1.3,0,2.1-0.9,2.1-2.3v-4.7h1.3v8h-1.3v-1.1h0c-0.4,0.7-1.2,1.3-2.5,1.3
				C171.4,733.5,170.4,732.3,170.4,730.5z"/>
			<path d="M178.8,722.2h1.3v11.1h-1.3V722.2z"/>
			<path d="M181.7,731.1L181.7,731.1c0-1.4,1.1-2.2,2.9-2.3l2.3-0.1v-0.7c0-1-0.6-1.6-1.8-1.6c-1,0-1.7,0.5-1.8,1.2l0,0.1H182l0-0.1
				c0.1-1.3,1.3-2.4,3.2-2.4c1.9,0,3.1,1,3.1,2.6v5.5h-1.3V732h0c-0.5,0.9-1.4,1.5-2.5,1.5C182.7,733.5,181.7,732.5,181.7,731.1z
				 M184.6,732.3c1.3,0,2.2-0.9,2.2-2v-0.7l-2.1,0.1c-1.1,0.1-1.7,0.5-1.7,1.3v0C183,731.8,183.7,732.3,184.6,732.3z"/>
			<path d="M190.3,731.3v-4.9h-1.2v-1.1h1.2v-2.2h1.4v2.2h1.5v1.1h-1.5v4.9c0,0.9,0.4,1.1,1.1,1.1c0.2,0,0.3,0,0.4,0v1.1
				c-0.2,0-0.5,0.1-0.7,0.1C191,733.5,190.3,732.8,190.3,731.3z"/>
			<path d="M194,729.3L194,729.3c0-2.6,1.5-4.2,3.7-4.2c2.2,0,3.7,1.6,3.7,4.1v0c0,2.6-1.5,4.2-3.7,4.2
				C195.5,733.5,194,731.9,194,729.3z M200.1,729.3L200.1,729.3c0-1.9-0.9-3-2.3-3c-1.4,0-2.3,1.1-2.3,3v0c0,1.9,0.9,3,2.3,3
				C199.2,732.3,200.1,731.2,200.1,729.3z"/>
			<path d="M202.8,725.3h1.3v1.4h0c0.3-0.9,1-1.5,1.9-1.5c0.2,0,0.4,0,0.5,0.1v1.3c-0.1,0-0.4-0.1-0.7-0.1c-1,0-1.7,0.7-1.7,1.9v4.9
				h-1.3V725.3z"/>
		</g>
	</g>
	<g>
		<g>
			<path d="M72.1,754h1.5l3.3,9.5h0l3.3-9.5h1.5l-4.1,11.1h-1.4L72.1,754z"/>
			<path d="M81.3,761.2L81.3,761.2c0-2.5,1.4-4.2,3.6-4.2c2.2,0,3.5,1.6,3.5,4v0.5h-5.8c0,1.7,0.9,2.6,2.4,2.6c1,0,1.7-0.5,2-1.2
				l0-0.1h1.3l0,0.1c-0.3,1.3-1.6,2.4-3.3,2.4C82.7,765.3,81.3,763.7,81.3,761.2z M82.7,760.4h4.4c-0.1-1.6-1-2.3-2.2-2.3
				C83.7,758.2,82.8,759,82.7,760.4z"/>
			<path d="M89.8,754h1.3v4.4h0c0.4-0.9,1.3-1.4,2.5-1.4c1.7,0,2.9,1.3,2.9,3.3v4.9h-1.3v-4.7c0-1.4-0.7-2.3-2-2.3
				c-1.2,0-2.1,0.9-2.1,2.3v4.7h-1.3V754z"/>
			<path d="M98.2,754.9c0-0.5,0.4-0.8,0.8-0.8c0.5,0,0.8,0.4,0.8,0.8c0,0.5-0.4,0.8-0.8,0.8C98.6,755.8,98.2,755.4,98.2,754.9z
				 M98.4,757.1h1.3v8h-1.3V757.1z"/>
			<path d="M101.1,761.1L101.1,761.1c0-2.5,1.5-4.2,3.7-4.2c2,0,3.2,1.3,3.3,2.7l0,0.1h-1.3l0-0.1c-0.2-0.8-0.8-1.5-2-1.5
				c-1.4,0-2.3,1.2-2.3,3v0c0,1.9,1,3,2.3,3c1.1,0,1.8-0.6,2-1.5l0-0.1h1.3l0,0.1c-0.2,1.5-1.5,2.7-3.3,2.7
				C102.6,765.3,101.1,763.7,101.1,761.1z"/>
			<path d="M109.5,754h1.3v11.1h-1.3V754z"/>
			<path d="M112.3,761.2L112.3,761.2c0-2.5,1.4-4.2,3.6-4.2c2.2,0,3.5,1.6,3.5,4v0.5h-5.8c0,1.7,0.9,2.6,2.4,2.6c1,0,1.7-0.5,2-1.2
				l0-0.1h1.3l0,0.1c-0.3,1.3-1.6,2.4-3.3,2.4C113.6,765.3,112.3,763.7,112.3,761.2z M113.6,760.4h4.4c-0.1-1.6-1-2.3-2.2-2.3
				C114.7,758.2,113.8,759,113.6,760.4z"/>
			<path d="M124.2,754h1.4v11.1h-1.4V754z"/>
			<path d="M127.5,757.1h1.3v1.1h0c0.4-0.7,1.2-1.3,2.5-1.3c1.8,0,2.8,1.1,2.8,3v5.2h-1.3v-5c0-1.3-0.6-2-1.8-2
				c-1.3,0-2.1,0.9-2.1,2.3v4.7h-1.3V757.1z"/>
			<path d="M135.5,762.9L135.5,762.9l1.3-0.1l0,0.1c0.2,0.8,0.8,1.3,1.8,1.3c1.1,0,1.7-0.5,1.7-1.2v0c0-0.6-0.3-0.9-1.2-1.1
				l-1.3-0.3c-1.5-0.4-2.2-1.1-2.2-2.2v0c0-1.4,1.2-2.4,2.9-2.4c1.8,0,2.9,1,3,2.4l0,0.1h-1.3l0-0.1c-0.1-0.8-0.7-1.3-1.7-1.3
				c-1,0-1.6,0.5-1.6,1.2v0c0,0.5,0.4,0.9,1.2,1.1l1.3,0.3c1.6,0.4,2.2,1,2.2,2.2v0c0,1.4-1.3,2.4-3.1,2.4
				C136.8,765.3,135.6,764.3,135.5,762.9z"/>
			<path d="M143.1,762.3v-5.2h1.3v5c0,1.3,0.6,2,1.8,2c1.3,0,2.1-0.9,2.1-2.3v-4.7h1.3v8h-1.3V764h0c-0.4,0.7-1.2,1.3-2.5,1.3
				C144.1,765.3,143.1,764.2,143.1,762.3z"/>
			<path d="M151.5,757.1h1.3v1.4h0c0.3-0.9,1-1.5,1.9-1.5c0.2,0,0.4,0,0.5,0.1v1.3c-0.1,0-0.4-0.1-0.7-0.1c-1,0-1.7,0.7-1.7,1.9v4.9
				h-1.3V757.1z"/>
			<path d="M155.8,762.9L155.8,762.9c0-1.4,1.1-2.2,2.9-2.3l2.3-0.1v-0.7c0-1-0.6-1.6-1.8-1.6c-1,0-1.7,0.5-1.8,1.2l0,0.1h-1.3
				l0-0.1c0.1-1.3,1.3-2.4,3.2-2.4c1.9,0,3.1,1,3.1,2.6v5.5H161v-1.3h0c-0.5,0.9-1.4,1.5-2.5,1.5
				C156.9,765.3,155.8,764.3,155.8,762.9z M158.8,764.1c1.3,0,2.2-0.9,2.2-2v-0.7l-2.1,0.1c-1.1,0.1-1.7,0.5-1.7,1.3v0
				C157.2,763.6,157.8,764.1,158.8,764.1z"/>
			<path d="M164.1,757.1h1.3v1.1h0c0.4-0.7,1.2-1.3,2.5-1.3c1.8,0,2.8,1.1,2.8,3v5.2h-1.3v-5c0-1.3-0.6-2-1.8-2
				c-1.3,0-2.1,0.9-2.1,2.3v4.7h-1.3V757.1z"/>
			<path d="M172,761.1L172,761.1c0-2.5,1.5-4.2,3.7-4.2c2,0,3.2,1.3,3.3,2.7l0,0.1h-1.3l0-0.1c-0.2-0.8-0.8-1.5-2-1.5
				c-1.4,0-2.3,1.2-2.3,3v0c0,1.9,1,3,2.3,3c1.1,0,1.8-0.6,2-1.5l0-0.1h1.3l0,0.1c-0.2,1.5-1.5,2.7-3.3,2.7
				C173.4,765.3,172,763.7,172,761.1z"/>
			<path d="M179.9,761.2L179.9,761.2c0-2.5,1.4-4.2,3.6-4.2c2.2,0,3.5,1.6,3.5,4v0.5h-5.8c0,1.7,0.9,2.6,2.4,2.6c1,0,1.7-0.5,2-1.2
				l0-0.1h1.3l0,0.1c-0.3,1.3-1.6,2.4-3.3,2.4C181.3,765.3,179.9,763.7,179.9,761.2z M181.3,760.4h4.4c-0.1-1.6-1-2.3-2.2-2.3
				C182.3,758.2,181.4,759,181.3,760.4z"/>
			<path d="M191.4,759.6L191.4,759.6c0-3.5,2-5.7,5.1-5.7c2.3,0,4.1,1.4,4.5,3.5l0,0.1h-1.4l-0.1-0.2c-0.4-1.3-1.5-2.1-3.1-2.1
				c-2.2,0-3.7,1.7-3.7,4.5v0c0,2.7,1.4,4.5,3.7,4.5c1.6,0,2.6-0.8,3.1-2.2l0-0.1h1.4l0,0.1c-0.4,2.1-2.2,3.5-4.5,3.5
				C193.4,765.3,191.4,763.1,191.4,759.6z"/>
			<path d="M202.1,762.9L202.1,762.9c0-1.4,1.1-2.2,2.9-2.3l2.3-0.1v-0.7c0-1-0.6-1.6-1.8-1.6c-1,0-1.7,0.5-1.8,1.2l0,0.1h-1.3
				l0-0.1c0.1-1.3,1.3-2.4,3.2-2.4c1.9,0,3.1,1,3.1,2.6v5.5h-1.3v-1.3h0c-0.5,0.9-1.4,1.5-2.5,1.5
				C203.2,765.3,202.1,764.3,202.1,762.9z M205.1,764.1c1.3,0,2.2-0.9,2.2-2v-0.7l-2.1,0.1c-1.1,0.1-1.7,0.5-1.7,1.3v0
				C203.5,763.6,204.1,764.1,205.1,764.1z"/>
			<path d="M210.4,754h1.3v11.1h-1.3V754z"/>
			<path d="M213.2,761.1L213.2,761.1c0-2.5,1.5-4.2,3.7-4.2c2,0,3.2,1.3,3.3,2.7l0,0.1h-1.3l0-0.1c-0.2-0.8-0.8-1.5-2-1.5
				c-1.4,0-2.3,1.2-2.3,3v0c0,1.9,1,3,2.3,3c1.1,0,1.8-0.6,2-1.5l0-0.1h1.3l0,0.1c-0.2,1.5-1.5,2.7-3.3,2.7
				C214.6,765.3,213.2,763.7,213.2,761.1z"/>
			<path d="M221.4,762.3v-5.2h1.3v5c0,1.3,0.6,2,1.8,2c1.3,0,2.1-0.9,2.1-2.3v-4.7h1.3v8h-1.3V764h0c-0.4,0.7-1.2,1.3-2.5,1.3
				C222.4,765.3,221.4,764.2,221.4,762.3z"/>
			<path d="M229.8,754h1.3v11.1h-1.3V754z"/>
			<path d="M232.7,762.9L232.7,762.9c0-1.4,1.1-2.2,2.9-2.3l2.3-0.1v-0.7c0-1-0.6-1.6-1.8-1.6c-1,0-1.7,0.5-1.8,1.2l0,0.1H233l0-0.1
				c0.1-1.3,1.3-2.4,3.2-2.4c1.9,0,3.1,1,3.1,2.6v5.5h-1.3v-1.3h0c-0.5,0.9-1.4,1.5-2.5,1.5C233.7,765.3,232.7,764.3,232.7,762.9z
				 M235.6,764.1c1.3,0,2.2-0.9,2.2-2v-0.7l-2.1,0.1c-1.1,0.1-1.7,0.5-1.7,1.3v0C234,763.6,234.7,764.1,235.6,764.1z"/>
			<path d="M241.3,763.1v-4.9h-1.2v-1.1h1.2V755h1.4v2.2h1.5v1.1h-1.5v4.9c0,0.9,0.4,1.1,1.1,1.1c0.2,0,0.3,0,0.4,0v1.1
				c-0.2,0-0.5,0.1-0.7,0.1C242,765.3,241.3,764.6,241.3,763.1z"/>
			<path d="M245,761.1L245,761.1c0-2.6,1.5-4.2,3.7-4.2s3.7,1.6,3.7,4.1v0c0,2.6-1.5,4.2-3.7,4.2C246.5,765.3,245,763.7,245,761.1z
				 M251.1,761.1L251.1,761.1c0-1.9-0.9-3-2.3-3c-1.4,0-2.3,1.1-2.3,3v0c0,1.9,0.9,3,2.3,3C250.2,764.1,251.1,763,251.1,761.1z"/>
			<path d="M253.8,757.1h1.3v1.4h0c0.3-0.9,1-1.5,1.9-1.5c0.2,0,0.4,0,0.5,0.1v1.3c-0.1,0-0.4-0.1-0.7-0.1c-1,0-1.7,0.7-1.7,1.9v4.9
				h-1.3V757.1z"/>
		</g>
	</g>
	<line class="st4" x1="53" y1="727.7" x2="65.1" y2="727.7"/>
	<polyline class="st4" points="53,694.9 53,760.4 65.1,760.4 	"/>
	<g>
		<g>
			<path d="M381.6,722.2h4.2c1.9,0,3.2,1.1,3.2,2.8v0c0,1.1-0.9,2.3-2,2.4v0c1.6,0.2,2.6,1.3,2.6,2.7v0c0,2-1.4,3.1-3.8,3.1h-4.2
				V722.2z M382.9,723.4v3.6h2.1c1.6,0,2.5-0.7,2.5-1.9v0c0-1.1-0.8-1.7-2.1-1.7H382.9z M382.9,728.2v3.9h2.6c1.7,0,2.6-0.7,2.6-1.9
				v0c0-1.3-0.9-1.9-2.7-1.9H382.9z"/>
			<path d="M390.9,725.3h1.3v1.4h0c0.3-0.9,1-1.5,1.9-1.5c0.2,0,0.4,0,0.5,0.1v1.3c-0.1,0-0.4-0.1-0.7-0.1c-1,0-1.7,0.7-1.7,1.9v4.9
				h-1.3V725.3z"/>
			<path d="M395.3,731.1L395.3,731.1c0-1.4,1.1-2.2,2.9-2.3l2.3-0.1v-0.7c0-1-0.6-1.6-1.8-1.6c-1,0-1.7,0.5-1.8,1.2l0,0.1h-1.3
				l0-0.1c0.1-1.3,1.3-2.4,3.2-2.4c1.9,0,3.1,1,3.1,2.6v5.5h-1.3V732h0c-0.5,0.9-1.4,1.5-2.5,1.5
				C396.3,733.5,395.3,732.5,395.3,731.1z M398.2,732.3c1.3,0,2.2-0.9,2.2-2v-0.7l-2.1,0.1c-1.1,0.1-1.7,0.5-1.7,1.3v0
				C396.6,731.8,397.3,732.3,398.2,732.3z"/>
			<path d="M403.5,725.3h1.3v1.1h0c0.4-0.7,1.2-1.3,2.5-1.3c1.8,0,2.8,1.1,2.8,3v5.2h-1.3v-5c0-1.3-0.6-2-1.8-2
				c-1.3,0-2.1,0.9-2.1,2.3v4.7h-1.3V725.3z"/>
			<path d="M411.4,729.3L411.4,729.3c0-2.5,1.5-4.2,3.7-4.2c2,0,3.2,1.3,3.3,2.7l0,0.1h-1.3l0-0.1c-0.2-0.8-0.8-1.5-2-1.5
				c-1.4,0-2.3,1.2-2.3,3v0c0,1.9,1,3,2.3,3c1.1,0,1.8-0.6,2-1.5l0-0.1h1.3l0,0.1c-0.2,1.5-1.5,2.7-3.3,2.7
				C412.9,733.5,411.4,731.9,411.4,729.3z"/>
			<path d="M419.8,722.2h1.3v4.4h0c0.4-0.9,1.3-1.4,2.5-1.4c1.7,0,2.9,1.3,2.9,3.3v4.9h-1.3v-4.7c0-1.4-0.7-2.3-2-2.3
				c-1.2,0-2.1,0.9-2.1,2.3v4.7h-1.3V722.2z"/>
			<path d="M431.7,722.2h1.4v9.9h5.4v1.2h-6.8V722.2z"/>
			<path d="M439.1,729.3L439.1,729.3c0-2.6,1.5-4.2,3.7-4.2s3.7,1.6,3.7,4.1v0c0,2.6-1.5,4.2-3.7,4.2
				C440.6,733.5,439.1,731.9,439.1,729.3z M445.1,729.3L445.1,729.3c0-1.9-0.9-3-2.3-3c-1.4,0-2.3,1.1-2.3,3v0c0,1.9,0.9,3,2.3,3
				C444.2,732.3,445.1,731.2,445.1,729.3z"/>
			<path d="M447.5,729.3L447.5,729.3c0-2.5,1.5-4.2,3.7-4.2c2,0,3.2,1.3,3.3,2.7l0,0.1h-1.3l0-0.1c-0.2-0.8-0.8-1.5-2-1.5
				c-1.4,0-2.3,1.2-2.3,3v0c0,1.9,1,3,2.3,3c1.1,0,1.8-0.6,2-1.5l0-0.1h1.3l0,0.1c-0.2,1.5-1.5,2.7-3.3,2.7
				C448.9,733.5,447.5,731.9,447.5,729.3z"/>
			<path d="M455.4,731.1L455.4,731.1c0-1.4,1.1-2.2,2.9-2.3l2.3-0.1v-0.7c0-1-0.6-1.6-1.8-1.6c-1,0-1.7,0.5-1.8,1.2l0,0.1h-1.3
				l0-0.1c0.1-1.3,1.3-2.4,3.2-2.4c1.9,0,3.1,1,3.1,2.6v5.5h-1.3V732h0c-0.5,0.9-1.4,1.5-2.5,1.5
				C456.5,733.5,455.4,732.5,455.4,731.1z M458.4,732.3c1.3,0,2.2-0.9,2.2-2v-0.7l-2.1,0.1c-1.1,0.1-1.7,0.5-1.7,1.3v0
				C456.8,731.8,457.4,732.3,458.4,732.3z"/>
			<path d="M464.1,731.3v-4.9h-1.2v-1.1h1.2v-2.2h1.4v2.2h1.5v1.1h-1.5v4.9c0,0.9,0.4,1.1,1.1,1.1c0.2,0,0.3,0,0.4,0v1.1
				c-0.2,0-0.5,0.1-0.7,0.1C464.8,733.5,464.1,732.8,464.1,731.3z"/>
			<path d="M467.8,729.3L467.8,729.3c0-2.6,1.5-4.2,3.7-4.2c2.2,0,3.7,1.6,3.7,4.1v0c0,2.6-1.5,4.2-3.7,4.2
				C469.3,733.5,467.8,731.9,467.8,729.3z M473.9,729.3L473.9,729.3c0-1.9-0.9-3-2.3-3c-1.4,0-2.3,1.1-2.3,3v0c0,1.9,0.9,3,2.3,3
				C472.9,732.3,473.9,731.2,473.9,729.3z"/>
			<path d="M476.6,725.3h1.3v1.4h0c0.3-0.9,1-1.5,1.9-1.5c0.2,0,0.4,0,0.5,0.1v1.3c-0.1,0-0.4-0.1-0.7-0.1c-1,0-1.7,0.7-1.7,1.9v4.9
				h-1.3V725.3z"/>
		</g>
	</g>
	<g>
		<g>
			<path d="M381.1,759.6L381.1,759.6c0-3.5,2-5.7,5.1-5.7c2.3,0,4.1,1.4,4.5,3.5l0,0.1h-1.4l-0.1-0.2c-0.4-1.3-1.5-2.1-3.1-2.1
				c-2.2,0-3.7,1.7-3.7,4.5v0c0,2.7,1.4,4.5,3.7,4.5c1.6,0,2.6-0.8,3.1-2.2l0-0.1h1.4l0,0.1c-0.4,2.1-2.2,3.5-4.5,3.5
				C383.1,765.3,381.1,763.1,381.1,759.6z"/>
			<path d="M392.2,754h1.3v4.4h0c0.4-0.9,1.3-1.4,2.5-1.4c1.7,0,2.9,1.3,2.9,3.3v4.9h-1.3v-4.7c0-1.4-0.7-2.3-2-2.3
				c-1.2,0-2.1,0.9-2.1,2.3v4.7h-1.3V754z"/>
			<path d="M400.3,762.9L400.3,762.9c0-1.4,1.1-2.2,2.9-2.3l2.3-0.1v-0.7c0-1-0.6-1.6-1.8-1.6c-1,0-1.7,0.5-1.8,1.2l0,0.1h-1.3
				l0-0.1c0.1-1.3,1.3-2.4,3.2-2.4c1.9,0,3.1,1,3.1,2.6v5.5h-1.3v-1.3h0c-0.5,0.9-1.4,1.5-2.5,1.5
				C401.4,765.3,400.3,764.3,400.3,762.9z M403.3,764.1c1.3,0,2.2-0.9,2.2-2v-0.7l-2.1,0.1c-1.1,0.1-1.7,0.5-1.7,1.3v0
				C401.7,763.6,402.4,764.1,403.3,764.1z"/>
			<path d="M409,763.1v-4.9h-1.2v-1.1h1.2V755h1.4v2.2h1.5v1.1h-1.5v4.9c0,0.9,0.4,1.1,1.1,1.1c0.2,0,0.3,0,0.4,0v1.1
				c-0.2,0-0.5,0.1-0.7,0.1C409.7,765.3,409,764.6,409,763.1z"/>
			<path d="M415.9,757.1h1.3l1.6,6.5h0l1.8-6.5h1.3l1.8,6.5h0l1.6-6.5h1.3l-2.2,8h-1.4l-1.8-6.2h0l-1.8,6.2h-1.4L415.9,757.1z"/>
			<path d="M427.8,754.9c0-0.5,0.4-0.8,0.8-0.8c0.5,0,0.8,0.4,0.8,0.8c0,0.5-0.4,0.8-0.8,0.8C428.1,755.8,427.8,755.4,427.8,754.9z
				 M427.9,757.1h1.3v8h-1.3V757.1z"/>
			<path d="M431.5,763.1v-4.9h-1.2v-1.1h1.2V755h1.4v2.2h1.5v1.1h-1.5v4.9c0,0.9,0.4,1.1,1.1,1.1c0.2,0,0.3,0,0.4,0v1.1
				c-0.2,0-0.5,0.1-0.7,0.1C432.2,765.3,431.5,764.6,431.5,763.1z"/>
			<path d="M435.9,754h1.3v4.4h0c0.4-0.9,1.3-1.4,2.5-1.4c1.7,0,2.9,1.3,2.9,3.3v4.9h-1.3v-4.7c0-1.4-0.7-2.3-2-2.3
				c-1.2,0-2.1,0.9-2.1,2.3v4.7h-1.3V754z"/>
			<path d="M447.3,762.2l0-0.1h1.4l0,0.1c0.2,1.1,1.2,1.8,2.9,1.8c1.6,0,2.6-0.7,2.6-1.9v0c0-1-0.6-1.5-2.2-1.9l-1.2-0.3
				c-2.2-0.5-3.2-1.5-3.2-3.1v0c0-1.8,1.6-3.1,3.9-3.1c2.2,0,3.8,1.3,3.9,3.1l0,0.1H454l0-0.1c-0.2-1.1-1.1-1.8-2.5-1.8
				c-1.5,0-2.5,0.7-2.5,1.8v0c0,0.9,0.7,1.5,2.1,1.8l1.2,0.3c2.3,0.5,3.2,1.4,3.2,3.1v0c0,2-1.6,3.2-4.1,3.2
				C449,765.3,447.4,764.1,447.3,762.2z"/>
			<path d="M456.6,761.2L456.6,761.2c0-2.5,1.4-4.2,3.6-4.2c2.2,0,3.5,1.6,3.5,4v0.5h-5.8c0,1.7,0.9,2.6,2.4,2.6c1,0,1.7-0.5,2-1.2
				l0-0.1h1.3l0,0.1c-0.3,1.3-1.6,2.4-3.3,2.4C457.9,765.3,456.6,763.7,456.6,761.2z M457.9,760.4h4.4c-0.1-1.6-1-2.3-2.2-2.3
				C459,758.2,458.1,759,457.9,760.4z"/>
			<path d="M465,757.1h1.3v1.4h0c0.3-0.9,1-1.5,1.9-1.5c0.2,0,0.4,0,0.5,0.1v1.3c-0.1,0-0.4-0.1-0.7-0.1c-1,0-1.7,0.7-1.7,1.9v4.9
				H465V757.1z"/>
			<path d="M469.4,762.9L469.4,762.9c0-1.4,1.1-2.2,2.9-2.3l2.3-0.1v-0.7c0-1-0.6-1.6-1.8-1.6c-1,0-1.7,0.5-1.8,1.2l0,0.1h-1.3
				l0-0.1c0.1-1.3,1.3-2.4,3.2-2.4c1.9,0,3.1,1,3.1,2.6v5.5h-1.3v-1.3h0c-0.5,0.9-1.4,1.5-2.5,1.5
				C470.5,765.3,469.4,764.3,469.4,762.9z M472.4,764.1c1.3,0,2.2-0.9,2.2-2v-0.7l-2.1,0.1c-1.1,0.1-1.7,0.5-1.7,1.3v0
				C470.8,763.6,471.4,764.1,472.4,764.1z"/>
		</g>
	</g>
	<line class="st4" x1="361.6" y1="727.7" x2="373.6" y2="727.7"/>
	<polyline class="st4" points="361.6,694.9 361.6,760.4 373.6,760.4 	"/>
	<line class="st4" x1="97.5" y1="286.5" x2="109.6" y2="286.5"/>
	<line class="st4" x1="97.5" y1="318.5" x2="109.6" y2="318.5"/>
	<line class="st4" x1="97.5" y1="350.6" x2="109.6" y2="350.6"/>
	<line class="st4" x1="97.5" y1="382.6" x2="109.6" y2="382.6"/>
	<line class="st4" x1="97.5" y1="414.6" x2="109.6" y2="414.6"/>
	<line class="st4" x1="97.5" y1="446.7" x2="109.6" y2="446.7"/>
	<line class="st4" x1="97.5" y1="478.7" x2="109.6" y2="478.7"/>
	<line class="st4" x1="97.5" y1="510.7" x2="109.6" y2="510.7"/>
	<polyline class="st4" points="97.5,267.2 97.5,542.8 109.6,542.8 	"/>
	<g>
		<g>
			<path d="M72.7,66.8L72.7,66.8c0-3.5,2-5.7,5.1-5.7c3.1,0,5.1,2.2,5.1,5.7v0c0,3.5-2,5.7-5.1,5.7C74.7,72.5,72.7,70.3,72.7,66.8z
				 M81.6,66.8L81.6,66.8c0-2.7-1.4-4.5-3.7-4.5c-2.3,0-3.7,1.7-3.7,4.5v0c0,2.7,1.4,4.5,3.7,4.5C80.2,71.3,81.6,69.5,81.6,66.8z"/>
			<path d="M84.5,69.6v-5.2h1.3v5c0,1.3,0.6,2,1.8,2c1.3,0,2.1-0.9,2.1-2.3v-4.7h1.3v8h-1.3v-1.1h0c-0.4,0.7-1.2,1.3-2.5,1.3
				C85.5,72.5,84.5,71.4,84.5,69.6z"/>
			<path d="M92.8,64.4h1.3v1.4h0c0.3-0.9,1-1.5,1.9-1.5c0.2,0,0.4,0,0.5,0.1v1.3c-0.1,0-0.4-0.1-0.7-0.1c-1,0-1.7,0.7-1.7,1.9v4.9
				h-1.3V64.4z"/>
			<path d="M100.6,69.5l0-0.1h1.4l0,0.1c0.2,1.1,1.2,1.8,2.9,1.8c1.6,0,2.6-0.7,2.6-1.9v0c0-1-0.6-1.5-2.2-1.9l-1.2-0.3
				c-2.2-0.5-3.2-1.5-3.2-3.1v0c0-1.8,1.6-3.1,3.9-3.1c2.2,0,3.8,1.3,3.9,3.1l0,0.1h-1.4l0-0.1c-0.2-1.1-1.1-1.8-2.5-1.8
				c-1.5,0-2.5,0.7-2.5,1.8v0c0,0.9,0.7,1.5,2.1,1.8l1.2,0.3c2.3,0.5,3.2,1.4,3.2,3.1v0c0,2-1.6,3.2-4.1,3.2
				C102.3,72.5,100.7,71.4,100.6,69.5z"/>
			<path d="M110.7,70.3v-4.9h-1.2v-1.1h1.2v-2.2h1.4v2.2h1.5v1.1h-1.5v4.9c0,0.9,0.4,1.1,1.1,1.1c0.2,0,0.3,0,0.4,0v1.1
				c-0.2,0-0.5,0.1-0.7,0.1C111.4,72.5,110.7,71.9,110.7,70.3z"/>
			<path d="M114.4,68.4L114.4,68.4c0-2.6,1.5-4.2,3.7-4.2s3.7,1.6,3.7,4.1v0c0,2.6-1.5,4.2-3.7,4.2
				C115.9,72.5,114.4,70.9,114.4,68.4z M120.4,68.4L120.4,68.4c0-1.9-0.9-3-2.3-3c-1.4,0-2.3,1.1-2.3,3v0c0,1.9,0.9,3,2.3,3
				C119.5,71.3,120.4,70.2,120.4,68.4z"/>
			<path d="M123.2,64.4h1.3v1.4h0c0.3-0.9,1-1.5,1.9-1.5c0.2,0,0.4,0,0.5,0.1v1.3c-0.1,0-0.4-0.1-0.7-0.1c-1,0-1.7,0.7-1.7,1.9v4.9
				h-1.3V64.4z"/>
			<path d="M128.3,75v-1.1c0.1,0,0.3,0,0.4,0c0.8,0,1.3-0.2,1.6-1.1l0.2-0.5l-3-8h1.4l2.2,6.7h0l2.2-6.7h1.4l-3.1,8.5
				c-0.6,1.5-1.3,2.2-2.7,2.2C128.8,75.1,128.5,75,128.3,75z"/>
		</g>
	</g>
	<g>
		<g>
			<path d="M375.6,61.2h6.8v1.2H377v3.8h4.9v1.2H377v4.8h-1.4V61.2z"/>
			<path d="M383,68.4L383,68.4c0-2.6,1.5-4.2,3.7-4.2s3.7,1.6,3.7,4.1v0c0,2.6-1.5,4.2-3.7,4.2C384.5,72.5,383,70.9,383,68.4z
				 M389.1,68.4L389.1,68.4c0-1.9-0.9-3-2.3-3c-1.4,0-2.3,1.1-2.3,3v0c0,1.9,0.9,3,2.3,3C388.1,71.3,389.1,70.2,389.1,68.4z"/>
			<path d="M391.8,64.4h1.3v1.4h0c0.3-0.9,1-1.5,1.9-1.5c0.2,0,0.4,0,0.5,0.1v1.3c-0.1,0-0.4-0.1-0.7-0.1c-1,0-1.7,0.7-1.7,1.9v4.9
				h-1.3V64.4z"/>
			<path d="M400.1,61.2h1.6l3.9,9.4h0l3.9-9.4h1.6v11.1h-1.3v-8.6h0l-3.6,8.6H405l-3.6-8.6h0v8.6h-1.3V61.2z"/>
			<path d="M412.6,68.4L412.6,68.4c0-2.5,1.4-4.2,3.6-4.2c2.2,0,3.5,1.6,3.5,4v0.5h-5.8c0,1.6,0.9,2.6,2.4,2.6c1,0,1.7-0.5,2-1.2
				l0-0.1h1.3l0,0.1c-0.3,1.3-1.6,2.4-3.3,2.4C414,72.5,412.6,70.9,412.6,68.4z M414,67.7h4.4c-0.1-1.6-1-2.3-2.2-2.3
				C415,65.4,414.1,66.2,414,67.7z"/>
		</g>
	</g>
	<g>
		<g>
			<path d="M56.7,667.6L56.7,667.6c0-3.5,2-5.7,5.1-5.7c2.3,0,4.1,1.4,4.5,3.5l0,0.1h-1.4l-0.1-0.2c-0.4-1.3-1.5-2.1-3.1-2.1
				c-2.2,0-3.7,1.7-3.7,4.5v0c0,2.7,1.4,4.5,3.7,4.5c1.6,0,2.6-0.8,3.1-2.2l0-0.1h1.4l0,0.1c-0.4,2.1-2.2,3.5-4.5,3.5
				C58.7,673.4,56.7,671.1,56.7,667.6z"/>
			<path d="M67.4,670.9L67.4,670.9c0-1.4,1.1-2.2,2.9-2.3l2.3-0.1v-0.7c0-1-0.6-1.6-1.8-1.6c-1,0-1.7,0.5-1.8,1.2l0,0.1h-1.3l0-0.1
				c0.1-1.3,1.3-2.4,3.2-2.4c1.9,0,3.1,1,3.1,2.6v5.5h-1.3v-1.3h0c-0.5,0.9-1.4,1.5-2.5,1.5C68.5,673.3,67.4,672.4,67.4,670.9z
				 M70.4,672.2c1.3,0,2.2-0.9,2.2-2v-0.7l-2.1,0.1c-1.1,0.1-1.7,0.5-1.7,1.3v0C68.8,671.7,69.4,672.2,70.4,672.2z"/>
			<path d="M75.7,662.1H77v11.1h-1.3V662.1z"/>
			<path d="M78.5,669.2L78.5,669.2c0-2.5,1.5-4.2,3.7-4.2c2,0,3.2,1.3,3.3,2.7l0,0.1h-1.3l0-0.1c-0.2-0.8-0.8-1.5-2-1.5
				c-1.4,0-2.3,1.2-2.3,3v0c0,1.9,1,3,2.3,3c1.1,0,1.8-0.6,2-1.5l0-0.1h1.3l0,0.1c-0.2,1.5-1.5,2.7-3.3,2.7
				C79.9,673.3,78.5,671.7,78.5,669.2z"/>
			<path d="M86.7,670.4v-5.2h1.3v5c0,1.3,0.6,2,1.8,2c1.3,0,2.1-0.9,2.1-2.3v-4.7h1.3v8H92V672h0c-0.4,0.7-1.2,1.3-2.5,1.3
				C87.7,673.3,86.7,672.2,86.7,670.4z"/>
			<path d="M95.1,662.1h1.3v11.1h-1.3V662.1z"/>
			<path d="M98,670.9L98,670.9c0-1.4,1.1-2.2,2.9-2.3l2.3-0.1v-0.7c0-1-0.6-1.6-1.8-1.6c-1,0-1.7,0.5-1.8,1.2l0,0.1h-1.3l0-0.1
				c0.1-1.3,1.3-2.4,3.2-2.4c1.9,0,3.1,1,3.1,2.6v5.5h-1.3v-1.3h0c-0.5,0.9-1.4,1.5-2.5,1.5C99,673.3,98,672.4,98,670.9z
				 M100.9,672.2c1.3,0,2.2-0.9,2.2-2v-0.7l-2.1,0.1c-1.1,0.1-1.7,0.5-1.7,1.3v0C99.3,671.7,100,672.2,100.9,672.2z"/>
			<path d="M106.6,671.1v-4.9h-1.2v-1.1h1.2V663h1.4v2.2h1.5v1.1H108v4.9c0,0.9,0.4,1.1,1.1,1.1c0.2,0,0.3,0,0.4,0v1.1
				c-0.2,0-0.5,0.1-0.7,0.1C107.3,673.3,106.6,672.7,106.6,671.1z"/>
			<path d="M110.3,669.2L110.3,669.2c0-2.6,1.5-4.2,3.7-4.2c2.2,0,3.7,1.6,3.7,4.1v0c0,2.6-1.5,4.2-3.7,4.2
				C111.8,673.3,110.3,671.7,110.3,669.2z M116.4,669.2L116.4,669.2c0-1.9-0.9-3-2.3-3c-1.4,0-2.3,1.1-2.3,3v0c0,1.9,0.9,3,2.3,3
				C115.5,672.1,116.4,671.1,116.4,669.2z"/>
			<path d="M119.1,665.2h1.3v1.4h0c0.3-0.9,1-1.5,1.9-1.5c0.2,0,0.4,0,0.5,0.1v1.3c-0.1,0-0.4-0.1-0.7-0.1c-1,0-1.7,0.7-1.7,1.9v4.9
				h-1.3V665.2z"/>
			<path d="M123.6,670.9L123.6,670.9l1.3-0.1l0,0.1c0.2,0.8,0.8,1.3,1.8,1.3c1.1,0,1.7-0.5,1.7-1.2v0c0-0.6-0.3-0.9-1.2-1.1
				l-1.3-0.3c-1.5-0.4-2.2-1.1-2.2-2.2v0c0-1.4,1.2-2.4,2.9-2.4c1.8,0,2.9,1,3,2.4l0,0.1h-1.3l0-0.1c-0.1-0.8-0.7-1.3-1.7-1.3
				c-1,0-1.6,0.5-1.6,1.2v0c0,0.5,0.4,0.9,1.2,1.1l1.3,0.3c1.6,0.4,2.2,1,2.2,2.2v0c0,1.4-1.3,2.4-3.1,2.4
				C124.9,673.3,123.8,672.4,123.6,670.9z"/>
		</g>
	</g>
	<g>
		<g>
			<path d="M361.6,667.6L361.6,667.6c0-3.5,2-5.7,5.1-5.7c2.3,0,4.1,1.4,4.5,3.5l0,0.1h-1.4l-0.1-0.2c-0.4-1.3-1.5-2.1-3.1-2.1
				c-2.2,0-3.7,1.7-3.7,4.5v0c0,2.7,1.4,4.5,3.7,4.5c1.6,0,2.6-0.8,3.1-2.2l0-0.1h1.4l0,0.1c-0.4,2.1-2.2,3.5-4.5,3.5
				C363.5,673.4,361.6,671.1,361.6,667.6z"/>
			<path d="M372.2,669.2L372.2,669.2c0-2.6,1.5-4.2,3.7-4.2s3.7,1.6,3.7,4.1v0c0,2.6-1.5,4.2-3.7,4.2
				C373.7,673.3,372.2,671.7,372.2,669.2z M378.3,669.2L378.3,669.2c0-1.9-0.9-3-2.3-3c-1.4,0-2.3,1.1-2.3,3v0c0,1.9,0.9,3,2.3,3
				C377.3,672.1,378.3,671.1,378.3,669.2z"/>
			<path d="M381,665.2h1.3v1.1h0c0.4-0.7,1.2-1.3,2.5-1.3c1.8,0,2.8,1.1,2.8,3v5.2h-1.3v-5c0-1.3-0.6-2-1.8-2
				c-1.3,0-2.1,0.9-2.1,2.3v4.7H381V665.2z"/>
			<path d="M389.7,671.1v-4.9h-1.2v-1.1h1.2V663h1.4v2.2h1.5v1.1h-1.5v4.9c0,0.9,0.4,1.1,1.1,1.1c0.2,0,0.3,0,0.4,0v1.1
				c-0.2,0-0.5,0.1-0.7,0.1C390.4,673.3,389.7,672.7,389.7,671.1z"/>
			<path d="M393.6,670.9L393.6,670.9c0-1.4,1.1-2.2,2.9-2.3l2.3-0.1v-0.7c0-1-0.6-1.6-1.8-1.6c-1,0-1.7,0.5-1.8,1.2l0,0.1h-1.3
				l0-0.1c0.1-1.3,1.3-2.4,3.2-2.4c1.9,0,3.1,1,3.1,2.6v5.5h-1.3v-1.3h0c-0.5,0.9-1.4,1.5-2.5,1.5
				C394.6,673.3,393.6,672.4,393.6,670.9z M396.5,672.2c1.3,0,2.2-0.9,2.2-2v-0.7l-2.1,0.1c-1.1,0.1-1.7,0.5-1.7,1.3v0
				C394.9,671.7,395.6,672.2,396.5,672.2z"/>
			<path d="M401.4,669.2L401.4,669.2c0-2.5,1.5-4.2,3.7-4.2c2,0,3.2,1.3,3.3,2.7l0,0.1h-1.3l0-0.1c-0.2-0.8-0.8-1.5-2-1.5
				c-1.4,0-2.3,1.2-2.3,3v0c0,1.9,1,3,2.3,3c1.1,0,1.8-0.6,2-1.5l0-0.1h1.3l0,0.1c-0.2,1.5-1.5,2.7-3.3,2.7
				C402.8,673.3,401.4,671.7,401.4,669.2z"/>
			<path d="M410.1,671.1v-4.9h-1.2v-1.1h1.2V663h1.4v2.2h1.5v1.1h-1.5v4.9c0,0.9,0.4,1.1,1.1,1.1c0.2,0,0.3,0,0.4,0v1.1
				c-0.2,0-0.5,0.1-0.7,0.1C410.8,673.3,410.1,672.7,410.1,671.1z"/>
			<path d="M417.9,669.3v-7.2h1.4v7.1c0,1.7,1.1,2.9,3,2.9c1.9,0,3-1.2,3-2.9v-7.1h1.4v7.2c0,2.4-1.6,4.1-4.4,4.1
				C419.6,673.4,417.9,671.7,417.9,669.3z"/>
			<path d="M428.2,670.9L428.2,670.9l1.3-0.1l0,0.1c0.2,0.8,0.8,1.3,1.8,1.3c1.1,0,1.7-0.5,1.7-1.2v0c0-0.6-0.3-0.9-1.2-1.1
				l-1.3-0.3c-1.5-0.4-2.2-1.1-2.2-2.2v0c0-1.4,1.2-2.4,2.9-2.4c1.8,0,2.9,1,3,2.4l0,0.1H433l0-0.1c-0.1-0.8-0.7-1.3-1.7-1.3
				c-1,0-1.6,0.5-1.6,1.2v0c0,0.5,0.4,0.9,1.2,1.1l1.3,0.3c1.6,0.4,2.2,1,2.2,2.2v0c0,1.4-1.3,2.4-3.1,2.4
				C429.5,673.3,428.3,672.4,428.2,670.9z"/>
		</g>
	</g>
	<path class="st5" d="M465.6,446.7H329.1c-8.1,0-14.7-6.6-14.7-14.7v-25.1c0-8.1,6.6-14.7,14.7-14.7h136.6c8.1,0,14.7,6.6,14.7,14.7
		V432C480.3,440.1,473.8,446.7,465.6,446.7z"/>
	<g>
		<g>
			<path d="M356.4,413.9h6.8v1.2h-5.4v3.8h4.9v1.2h-4.9v4.8h-1.4V413.9z"/>
			<path d="M363.8,421L363.8,421c0-2.6,1.5-4.2,3.7-4.2c2.2,0,3.7,1.6,3.7,4.1v0c0,2.6-1.5,4.2-3.7,4.2
				C365.3,425.1,363.8,423.5,363.8,421z M369.9,421L369.9,421c0-1.9-0.9-3-2.3-3c-1.4,0-2.3,1.1-2.3,3v0c0,1.9,0.9,3,2.3,3
				C369,423.9,369.9,422.8,369.9,421z"/>
			<path d="M372.6,417h1.3v1.4h0c0.3-0.9,1-1.5,1.9-1.5c0.2,0,0.4,0,0.5,0.1v1.3c-0.1,0-0.4-0.1-0.7-0.1c-1,0-1.7,0.7-1.7,1.9v4.9
				h-1.3V417z"/>
			<path d="M380.9,413.9h4.2c1.9,0,3.2,1.1,3.2,2.8v0c0,1.1-0.9,2.3-2,2.4v0c1.6,0.2,2.6,1.3,2.6,2.7v0c0,2-1.4,3.1-3.8,3.1h-4.2
				V413.9z M382.3,415.1v3.6h2.1c1.6,0,2.5-0.7,2.5-1.9v0c0-1.1-0.8-1.7-2.1-1.7H382.3z M382.3,419.8v3.9h2.6c1.7,0,2.6-0.7,2.6-1.9
				v0c0-1.3-0.9-1.9-2.7-1.9H382.3z"/>
			<path d="M390.2,422.2V417h1.3v5c0,1.3,0.6,2,1.8,2c1.3,0,2.1-0.9,2.1-2.3V417h1.3v8h-1.3v-1.1h0c-0.4,0.7-1.2,1.3-2.5,1.3
				C391.2,425.1,390.2,424,390.2,422.2z"/>
			<path d="M398.2,422.7L398.2,422.7l1.3-0.1l0,0.1c0.2,0.8,0.8,1.3,1.8,1.3c1.1,0,1.7-0.5,1.7-1.2v0c0-0.6-0.3-0.9-1.2-1.1
				l-1.3-0.3c-1.5-0.4-2.2-1.1-2.2-2.2v0c0-1.4,1.2-2.4,2.9-2.4c1.8,0,2.9,1,3,2.4l0,0.1h-1.3l0-0.1c-0.1-0.8-0.7-1.3-1.7-1.3
				c-1,0-1.6,0.5-1.6,1.2v0c0,0.5,0.4,0.9,1.2,1.1l1.3,0.3c1.6,0.4,2.2,1,2.2,2.2v0c0,1.4-1.3,2.4-3.1,2.4
				C399.5,425.1,398.4,424.2,398.2,422.7z"/>
			<path d="M405.8,414.8c0-0.5,0.4-0.8,0.8-0.8c0.5,0,0.8,0.4,0.8,0.8c0,0.5-0.4,0.8-0.8,0.8C406.2,415.6,405.8,415.2,405.8,414.8z
				 M406,417h1.3v8H406V417z"/>
			<path d="M409.1,417h1.3v1.1h0c0.4-0.7,1.2-1.3,2.5-1.3c1.8,0,2.8,1.1,2.8,3v5.2h-1.3v-5c0-1.3-0.6-2-1.8-2
				c-1.3,0-2.1,0.9-2.1,2.3v4.7h-1.3V417z"/>
			<path d="M417.1,421L417.1,421c0-2.5,1.4-4.2,3.6-4.2c2.2,0,3.5,1.6,3.5,4v0.5h-5.8c0,1.7,0.9,2.6,2.4,2.6c1,0,1.7-0.5,2-1.2
				l0-0.1h1.3l0,0.1c-0.3,1.3-1.6,2.4-3.3,2.4C418.4,425.1,417.1,423.5,417.1,421z M418.4,420.3h4.4c-0.1-1.6-1-2.3-2.2-2.3
				C419.5,418,418.6,418.8,418.4,420.3z"/>
			<path d="M425.2,422.7L425.2,422.7l1.3-0.1l0,0.1c0.2,0.8,0.8,1.3,1.8,1.3c1.1,0,1.7-0.5,1.7-1.2v0c0-0.6-0.3-0.9-1.2-1.1
				l-1.3-0.3c-1.5-0.4-2.2-1.1-2.2-2.2v0c0-1.4,1.2-2.4,2.9-2.4c1.8,0,2.9,1,3,2.4l0,0.1H430l0-0.1c-0.1-0.8-0.7-1.3-1.7-1.3
				c-1,0-1.6,0.5-1.6,1.2v0c0,0.5,0.4,0.9,1.2,1.1l1.3,0.3c1.6,0.4,2.2,1,2.2,2.2v0c0,1.4-1.3,2.4-3.1,2.4
				C426.5,425.1,425.3,424.2,425.2,422.7z"/>
			<path d="M432.5,422.7L432.5,422.7l1.3-0.1l0,0.1c0.2,0.8,0.8,1.3,1.8,1.3c1.1,0,1.7-0.5,1.7-1.2v0c0-0.6-0.3-0.9-1.2-1.1
				l-1.3-0.3c-1.5-0.4-2.2-1.1-2.2-2.2v0c0-1.4,1.2-2.4,2.9-2.4c1.8,0,2.9,1,3,2.4l0,0.1h-1.3l0-0.1c-0.1-0.8-0.7-1.3-1.7-1.3
				c-1,0-1.6,0.5-1.6,1.2v0c0,0.5,0.4,0.9,1.2,1.1l1.3,0.3c1.6,0.4,2.2,1,2.2,2.2v0c0,1.4-1.3,2.4-3.1,2.4
				C433.8,425.1,432.7,424.2,432.5,422.7z"/>
		</g>
	</g>
</g>
</svg>
