<?xml version="1.0" encoding="utf-8"?>
<!-- Generator: Adobe Illustrator 26.3.1, SVG Export Plug-In . SVG Version: 6.00 Build 0)  -->
<svg version="1.1" id="Layer_1" xmlns="http://www.w3.org/2000/svg" xmlns:xlink="http://www.w3.org/1999/xlink" x="0px" y="0px"
	 viewBox="0 0 347.9 347.9" style="enable-background:new 0 0 347.9 347.9;" xml:space="preserve">
<style type="text/css">
	.st0{fill:#1B3561;}
	.st1{fill-rule:evenodd;clip-rule:evenodd;fill:#FFFFFF;}
	.st2{fill-rule:evenodd;clip-rule:evenodd;fill:#E0BE6A;}
	.st3{fill:#221F1F;}
</style>
<g>
	<circle class="st0" cx="174" cy="174" r="167.9"/>
	<g id="Group_2004" transform="translate(-290.744 -317.577)">
		<g id="Group_2003" transform="translate(290.744 317.577)">
			<g id="Group_1998" transform="translate(0 0.046)">
				<path id="Path_1591" class="st1" d="M141.3,142.5l-23.2-0.1l-7.7,11.9l1,3.9L103,171l5.1-28.6l-22.6-0.1l-7.7,12.5
					c1.5,1.3,1.9,3.1-0.1,5.7l-17.1,27.6c-0.8,2.2-2.9,3.5-5.2,3.2l-8.5,13.9l21.5,0.2l7.7-12.2l0-3.1l6.8-9.4l-0.3,25.1l18.5-0.3
					l29.9-47.9l3.7-2.6L141.3,142.5z"/>
			</g>
			<g id="Group_1999" transform="translate(48.642)">
				<path id="Path_1592" class="st1" d="M125.9,205.3l-24.9-0.1l8.3-13.6c3.2-2.2,4.5-5.5,5.6-9.1l-19.2,22.6l-9.8,0l6.8-22.8
					l-3.9,4.8l-1.5,4.6l-7.8,13.4L57.6,205l8-13l4.3-1.5l18.8-31.3l0-4.5l7.6-12.3l25.6,0.1l-6,24.9l20.7-24.8l28.8,0.1l-8,12.6
					c-2.7,0.9-4.8,2.1-5.5,3.8l-17.4,29.4c-1.3,0.8-1.5,2.3-1,4.4L125.9,205.3z"/>
			</g>
			<g id="Group_2000" transform="translate(107.729 0.188)">
				<path id="Path_1593" class="st1" d="M121.5,204.7l-50.8,0l7.6-12.4L82,191l20.8-33.1l-1.5-3.1l7.7-12.4l40.4,0
					c6.2,0.9,10,3.7,9.9,9.6c-4.9,9.8-10,19.3-18.4,25.6C143.9,191.4,134.4,200.8,121.5,204.7 M110.6,192.6
					c11.2-4.5,12.1-12.7,1.6-12.1l-8,11.9L110.6,192.6z M132.8,161c1.9-3.1,0.1-5-5.2-4.7l-7.1,10.7
					C126.4,169.2,130.1,166.3,132.8,161"/>
			</g>
			<g id="Group_2001" transform="translate(23.182 8.05)">
				<path id="Path_1594" class="st2" d="M243,144.1l25.6,0c4.9,0,8.9,4,8.9,8.9l0,20c0,4.9-4,8.9-8.9,8.9l-25.6,0
					c-4.9,0-8.9-4-8.9-8.9v-3.9l-9.5-0.1c-4.3,1.2-8.8,1.1-13.1-0.1l-105.3-0.9v7.1l6.7-0.1l0.1,7.7l-12,0.1v-3.4l-15,0v3.5L74,183
					v-7.4l5.5-0.1v-7.7l-26.2-0.2c-1.7-1.2-1.8-3.4,0-3.9l157.6,0.1c4.5-1.9,9.6-1.9,14.1,0l9.1,0l0-10.9
					C234.1,148.1,238.1,144.1,243,144.1 M248.8,149.4l12.9,0c2.2,0,4,1.8,4,4l0,19c0,2.2-1.8,4-4,4l-12.9,0c-2.2,0-4-1.8-4-4l0-19
					C244.8,151.2,246.6,149.4,248.8,149.4"/>
			</g>
			<g id="Group_2002" transform="translate(22.971 7.837)">
				<path id="Path_1595" class="st3" d="M243.3,144l25.6,0c5.1,0,9.2,4.1,9.2,9.2l0,20c0,5.1-4.1,9.2-9.2,9.2l-25.6,0
					c-5.1,0-9.2-4.1-9.2-9.2v-3.6l-9.2-0.1c-2.2,0.6-4.5,0.9-6.8,0.9c-2.2,0-4.3-0.3-6.4-1l-105.1-0.8v6.6l6.4-0.1h0.3l0,0.3
					l0.1,7.6v0.3h-0.3l-12,0.1h-0.3v-3.4l-14.5,0v3.5h-0.3l-11.9,0.1H74v-7.9l0.3,0l5.2-0.1v-7.1l-26-0.2h-0.1l-0.1,0
					c-0.6-0.4-1.1-1-1.3-1.8c-0.1-0.3-0.1-0.6-0.1-1c0-0.3,0.1-0.6,0.3-0.9c0.3-0.4,0.7-0.7,1.2-0.8h0l157.6,0.1
					c2.2-0.8,4.5-1.3,6.8-1.4c2.5-0.1,5.1,0.4,7.4,1.4l8.8,0l0-10.6C234.1,148.1,238.2,144,243.3,144 M266.2,163.2l11.3,0l0-9.9
					c0-4.8-3.9-8.7-8.7-8.7l-25.6,0c-4.8,0-8.7,3.9-8.7,8.7l0,11.1h-0.3l-9.1,0h0l-0.1,0c-2.3-1-4.7-1.5-7.2-1.4
					c-2.3,0.1-4.6,0.6-6.7,1.4l0,0h-0.1l-157.5-0.1c-0.3,0.1-0.6,0.3-0.8,0.6c-0.1,0.2-0.2,0.4-0.2,0.6c0,0.3,0,0.5,0.1,0.8
					c0.2,0.6,0.5,1.1,1,1.4l26.1,0.2l0.3,0l0,8.2l-0.3,0l-5.2,0.1v6.9l11.4-0.1v-3.5l15.5,0v3.4l11.5-0.1l-0.1-7.1l-6.4,0.1h-0.3
					V168h0.3l105.3,0.9h0l0,0c2.1,0.6,4.2,0.9,6.3,0.9c2.2,0,4.5-0.3,6.7-0.8h0h0l9.5,0.1h0.3v4.2c0,4.8,3.9,8.7,8.7,8.7l25.6,0
					c4.8,0,8.7-3.9,8.7-8.7l0-9.6l-11.3,0l0,8.9c0,2.4-1.9,4.3-4.3,4.3l-12.9,0c-2.4,0-4.3-1.9-4.3-4.3l0-18.9
					c0-2.4,1.9-4.3,4.3-4.3l12.9,0c2.4,0,4.3,1.9,4.3,4.3L266.2,163.2z M261.9,149.9l-12.9,0c-2.1,0-3.8,1.7-3.8,3.8l0,19
					c0,2.1,1.7,3.8,3.8,3.8l12.9,0c2.1,0,3.8-1.7,3.8-3.8l0-19C265.7,151.6,264,149.9,261.9,149.9"/>
			</g>
		</g>
	</g>
</g>
</svg>
