<?xml version="1.0" encoding="utf-8"?>
<!-- Generator: Adobe Illustrator 26.3.1, SVG Export Plug-In . SVG Version: 6.00 Build 0)  -->
<svg version="1.1" id="Capa_1" xmlns="http://www.w3.org/2000/svg" xmlns:xlink="http://www.w3.org/1999/xlink" x="0px" y="0px"
	 viewBox="0 0 512 512" style="enable-background:new 0 0 512 512;" xml:space="preserve">
<style type="text/css">
	.st0{fill:#EBEFF2;}
</style>
<g>
	<path class="st0" d="M160.6,108.7c14,0,26.8,1.2,38.4,3.7c11.6,2.5,21.5,6.5,29.7,12.2c8.2,5.6,14.6,13.1,19.2,22.5
		c4.5,9.4,6.8,20.9,6.8,34.7c0,14.9-3.4,27.2-10.1,37.1c-6.7,9.9-16.7,18-29.9,24.3c18.2,5.2,31.7,14.4,40.6,27.4
		c8.9,13.1,13.4,28.8,13.4,47.2c0,14.9-2.9,27.7-8.7,38.6c-5.8,10.9-13.5,19.7-23.3,26.6c-9.8,6.9-20.9,12-33.4,15.3
		c-12.5,3.3-25.4,4.9-38.6,4.9H22V108.7H160.6z M152.4,228c11.6,0,21-2.7,28.5-8.3c7.4-5.5,11.1-14.4,11.1-26.8
		c0-6.9-1.2-12.5-3.7-16.9c-2.5-4.4-5.8-7.8-9.9-10.3c-4.1-2.5-8.9-4.2-14.2-5.2c-5.4-1-10.9-1.4-16.7-1.4H86.8V228L152.4,228
		L152.4,228z M156.1,352.9c6.3,0,12.4-0.6,18.2-1.9c5.8-1.2,10.9-3.3,15.3-6.2c4.4-2.9,7.9-6.8,10.5-11.8c2.6-4.9,3.9-11.3,3.9-19
		c0-15.1-4.3-25.9-12.8-32.4c-8.5-6.5-19.8-9.7-33.8-9.7H86.8v80.9L156.1,352.9L156.1,352.9z"/>
	<path class="st0" d="M350.2,346.8c8.8,8.5,21.5,12.8,38,12.8c11.8,0,22-3,30.5-8.9c8.5-5.9,13.8-12.2,15.7-18.8h51.6
		c-8.2,25.6-20.9,43.9-38,54.9c-17.1,11-37.7,16.5-61.9,16.5c-16.8,0-31.9-2.7-45.4-8c-13.5-5.4-24.9-13-34.2-22.9
		c-9.4-9.9-16.6-21.7-21.7-35.5c-5.1-13.7-7.6-28.9-7.6-45.4c0-15.9,2.6-30.8,7.8-44.6c5.2-13.7,12.6-25.6,22.3-35.7
		c9.6-10,21.1-17.9,34.4-23.7c13.3-5.8,28.1-8.7,44.4-8.7c18.2,0,34,3.5,47.4,10.5c13.5,7,24.5,16.4,33.2,28.3
		c8.7,11.8,14.9,25.3,18.8,40.4c3.9,15.1,5.2,30.9,4.1,47.4H335.8C336.6,324.5,341.4,338.2,350.2,346.8z M416.4,234.5
		c-7-7.7-17.7-11.6-32-11.6c-9.4,0-17.1,1.6-23.3,4.7c-6.2,3.2-11.1,7.1-14.9,11.8c-3.7,4.7-6.3,9.6-7.8,14.9
		c-1.5,5.2-2.4,9.9-2.7,14h95.3C428.3,253.5,423.4,242.3,416.4,234.5z"/>
	<rect x="325.8" y="123.7" class="st0" width="119.1" height="33"/>
</g>
</svg>
