<?xml version="1.0" encoding="utf-8"?>
<!-- Generator: Adobe Illustrator 26.3.1, SVG Export Plug-In . SVG Version: 6.00 Build 0)  -->
<svg version="1.1" id="Capa_1" xmlns="http://www.w3.org/2000/svg" xmlns:xlink="http://www.w3.org/1999/xlink" x="0px" y="0px"
	 viewBox="0 0 512 512" style="enable-background:new 0 0 512 512;" xml:space="preserve">
<style type="text/css">
	.st0{fill:#2E465E;}
</style>
<g>
	<path class="st0" d="M256,46.2c68.4,0,76.5,0.3,103.4,1.5c27.9,1.3,56.6,7.6,77,28c20.5,20.5,26.7,49,28,77
		c1.2,27,1.5,35.1,1.5,103.4s-0.3,76.5-1.5,103.4c-1.3,27.8-7.8,56.8-28,77c-20.5,20.5-49,26.7-77,28c-27,1.2-35.1,1.5-103.4,1.5
		s-76.5-0.3-103.4-1.5c-27.5-1.3-56.9-7.9-77-28c-20.4-20.4-26.7-49.2-28-77c-1.2-27-1.5-35.1-1.5-103.4s0.3-76.5,1.5-103.4
		c1.3-27.6,7.8-56.8,28-77c20.5-20.5,49-26.7,77-28C179.5,46.5,187.6,46.2,256,46.2 M256,0.1c-69.5,0-78.3,0.3-105.6,1.5
		C110.9,3.4,71.6,14.5,43,43.1C14.3,71.8,3.3,111,1.5,150.4C0.3,177.8,0,186.6,0,256s0.3,78.3,1.5,105.6
		C3.3,401.2,14.4,440.5,43,469c28.7,28.7,68,39.6,107.5,41.4c27.3,1.2,36,1.5,105.6,1.5s78.3-0.3,105.6-1.5
		c39.6-1.8,78.9-12.8,107.5-41.4c28.7-28.7,39.6-67.9,41.4-107.5c1.2-27.3,1.5-36,1.5-105.6s-0.3-78.3-1.5-105.6
		c-1.9-39.4-13-78.7-41.6-107.3C440.4,14.4,401,3.4,361.6,1.6C334.2,0.4,325.5,0.1,256,0.1z"/>
	<path class="st0" d="M256,124.6c-72.6,0-131.5,58.9-131.5,131.5S183.4,387.5,256,387.5S387.5,328.7,387.5,256
		S328.6,124.6,256,124.6z M256,341.3c-47.1,0-85.3-38.2-85.3-85.3s38.2-85.3,85.3-85.3s85.3,38.2,85.3,85.3S303.1,341.3,256,341.3z"
		/>
	<circle class="st0" cx="392.7" cy="119.4" r="30.7"/>
</g>
</svg>
