<?xml version="1.0" encoding="utf-8"?>
<!-- Generator: Adobe Illustrator 26.3.1, SVG Export Plug-In . SVG Version: 6.00 Build 0)  -->
<svg version="1.1" id="Capa_1" xmlns="http://www.w3.org/2000/svg" xmlns:xlink="http://www.w3.org/1999/xlink" x="0px" y="0px"
	 viewBox="0 0 512 512" style="enable-background:new 0 0 512 512;" xml:space="preserve">
<style type="text/css">
	.st0{fill:#EBEFF2;}
</style>
<path id="Path_2520" class="st0" d="M431,431h-73.7V315.7c0-27.5-0.5-62.9-38.3-62.9c-38.4,0-44.2,30-44.2,60.9V431h-73.6V193.8
	h70.7v32.4h1c14.4-24.6,41.2-39.4,69.8-38.3c74.7,0,88.4,49.1,88.4,113L431,431z M118.1,161.4c-23.6,0-42.7-19.1-42.7-42.7
	s19.1-42.7,42.7-42.7s42.7,19.1,42.7,42.7C160.8,142.3,141.7,161.4,118.1,161.4L118.1,161.4 M154.9,431H81.1V193.8h73.7V431z
	 M467.7,7.5H44.1C24.1,7.3,7.7,23.3,7.5,43.3v425.3c0.2,20,16.7,36.1,36.7,35.9h423.6c20.1,0.2,36.5-15.8,36.8-35.9V43.3
	C504.2,23.3,487.7,7.2,467.7,7.5"/>
</svg>
