<svg width="436" height="399" viewBox="0 0 436 399" fill="none" xmlns="http://www.w3.org/2000/svg">
<g clip-path="url(#clip0_2_9)">
<path d="M344.982 0H90.7847C66.716 0.0288306 43.6413 9.60288 26.6221 26.6221C9.60288 43.6413 0.0288306 66.716 0 90.7847L0 308.668C0.0288306 332.737 9.60288 355.811 26.6221 372.831C43.6413 389.85 66.716 399.424 90.7847 399.453H344.982C369.051 399.424 392.125 389.85 409.145 372.831C426.164 355.811 435.738 332.737 435.767 308.668V90.7847C435.738 66.716 426.164 43.6413 409.145 26.6221C392.125 9.60288 369.051 0.0288306 344.982 0ZM90.7847 36.3139H344.982C355.854 36.3353 366.471 39.6096 375.467 45.7156C384.462 51.8216 391.425 60.4798 395.458 70.576L256.412 209.64C246.18 219.832 232.326 225.554 217.883 225.554C203.441 225.554 189.587 219.832 179.354 209.64L40.3084 70.576C44.342 60.4798 51.3045 51.8216 60.3001 45.7156C69.2956 39.6096 79.9126 36.3353 90.7847 36.3139ZM344.982 363.139H90.7847C76.3382 363.139 62.4833 357.4 52.268 347.185C42.0528 336.969 36.3139 323.115 36.3139 308.668V118.02L153.68 235.314C170.723 252.313 193.812 261.86 217.883 261.86C241.955 261.86 265.044 252.313 282.086 235.314L399.453 118.02V308.668C399.453 323.115 393.714 336.969 383.499 347.185C373.283 357.4 359.428 363.139 344.982 363.139Z" fill="#1B2F3F"/>
</g>
<defs>
<clipPath id="clip0_2_9">
<rect width="436" height="399" fill="white"/>
</clipPath>
</defs>
</svg>
