<?xml version="1.0" encoding="utf-8"?>
<!-- Generator: Adobe Illustrator 26.3.1, SVG Export Plug-In . SVG Version: 6.00 Build 0)  -->
<svg version="1.1" id="Layer_1" xmlns="http://www.w3.org/2000/svg" xmlns:xlink="http://www.w3.org/1999/xlink" x="0px" y="0px"
	 viewBox="0 0 1109.5 215.4" style="enable-background:new 0 0 1109.5 215.4;" xml:space="preserve">
<style type="text/css">
	.st0{fill:#FFA656;}
	.st1{fill:#2E465E;}
	.st2{fill:#EBEFF2;}
</style>
<g>
	<path class="st0" d="M187.4,45.7h-20.2c-3.6,0-6.6-2.9-6.6-6.6c0-0.8,0.1-1.5,0.4-2.2l0,0l9.9-28.1l0,0c0.2-0.7,0.4-1.4,0.4-2.2
		c0-3.6-2.9-6.6-6.6-6.6c0,0-79.9,0-79.9,0C38,0,0,38,0,84.8s38,84.8,84.8,84.8H105c3.6,0,6.6,2.9,6.6,6.6c0,0.8-0.1,1.5-0.4,2.2
		l0,0l-9.9,28.2l0,0c-0.2,0.7-0.4,1.4-0.4,2.2c0,3.6,2.9,6.6,6.6,6.6h80c46.9,0,84.8-38,84.8-84.8S234.3,45.7,187.4,45.7z
		 M187.4,169.7c0,0-63.9,0-63.9,0c-3.6,0-6.6-2.9-6.6-6.6c0-0.8,0.1-1.5,0.4-2.2l0,0l2.2-6.3l0,0c0.9-2.4,1.3-5,1.3-7.7
		c0-12.6-10.2-22.8-22.8-22.8H84.8c-21.6,0-39.2-17.5-39.2-39.2c0-21.6,17.5-39.2,39.2-39.2h63.8c3.6,0,6.6,2.9,6.6,6.6
		c0,0.8-0.1,1.5-0.4,2.2l0,0l-2.2,6.3c0,0-1.3,5-1.3,7.7c0,12.6,10.2,22.8,22.8,22.8h13.4c21.6,0,39.2,17.5,39.2,39.2
		C226.6,152.2,209.1,169.7,187.4,169.7z"/>
	<g>
		<g>
			<path class="st1" d="M340.4,149.7l18.6-14.7c5.6,9.6,14,14.9,24.1,14.9c10.8,0,16.7-7.1,16.7-14.7c0-9.2-11.3-12.2-22.9-15.8
				c-14.9-4.8-31.1-10.4-31.1-31.3c0-17.6,15.3-31.4,36.4-31.4c17.6,0,28,6.8,36.8,15.9l-16.8,12.8c-4.7-7.1-11.3-10.5-19.8-10.5
				c-10.1,0-15.3,5.4-15.3,12.5c0,8.9,10.4,11.4,22.4,15.5c14.9,4.8,31.7,11.4,31.7,32.5c0,17.3-13.8,34.1-37.9,34.1
				C363.6,169.4,350.5,161,340.4,149.7z"/>
			<path class="st1" d="M448.2,45.7c8,0,12.8,5.1,12.8,12.8c0,7.7-4.8,12.6-12.8,12.6c-8.3,0-12.8-5-12.8-12.6
				C435.5,50.8,440.4,45.7,448.2,45.7z M438,79.9h20.4v88H438V79.9z"/>
			<path class="st1" d="M477.7,79.9h20.1v10.2c5.6-7.4,14.3-12,25.1-12c13.8,0,23.3,5.6,28.6,15.2c6-9.2,16.2-15.2,28.9-15.2
				c23.9,0,35.8,13.8,35.8,36.8v52.9h-20.7v-51.3c0-12.8-6.5-20.9-19.1-20.9c-11,0-19.4,7.5-19.4,23v49.2h-20.6V116
				c0-12.6-6.3-20.3-18.5-20.3c-11.4,0-19.8,7.8-19.8,23.5v48.7h-20.3V79.9z"/>
			<path class="st1" d="M655.4,156.5v11.4h-20.1V56.6h20.3v34.4c6.2-7.8,16.5-12.9,28.4-12.9c22.1,0,43.3,16.7,43.3,45.9
				c0,28.9-22,45.7-43,45.7C672.3,169.7,661.9,164.9,655.4,156.5z M707.3,123.7c0-15.2-11.6-27.1-26.5-27.1c-15,0-26.2,12-26.2,27.1
				c0,15.2,11.1,27.4,26.2,27.4C695.7,151.1,707.3,139,707.3,123.7z"/>
			<path class="st1" d="M741.1,124c0-29.2,21.3-45.9,43.6-45.9c11.6,0,21.8,4.7,28.3,12.3V79.9h20.3v88H813v-11.4
				c-6.5,8.3-17,13.2-28.6,13.2C763.2,169.7,741.1,152.9,741.1,124z M814.1,123.7c0-15-11.1-27.1-26.3-27.1
				c-15,0-26.6,11.9-26.6,27.1c0,15.3,11.6,27.4,26.6,27.4C802.9,151.1,814.1,138.9,814.1,123.7z"/>
			<path class="st1" d="M852.4,56.6h20.3v33.8c6-7.7,15-12.3,26.3-12.3c22.1,0,34.9,13.7,34.9,37.6v52.2h-20.7V118
				c0-13.8-6.6-22.3-19.8-22.3c-11.4,0-20.4,8.6-20.4,23.9v48.3h-20.4V56.6z"/>
		</g>
		<path class="st1" d="M1002,58.1h20.3l33.2,46.2l34.6-46.2h19.4v109.8h-20.4v-77l-33.7,45.4l-32.9-44.7v76.2H1002V58.1z"/>
	</g>
</g>
</svg>
