<?xml version="1.0" encoding="utf-8"?>
<!-- Generator: Adobe Illustrator 26.3.1, SVG Export Plug-In . SVG Version: 6.00 Build 0)  -->
<svg version="1.1" id="Layer_1" xmlns="http://www.w3.org/2000/svg" xmlns:xlink="http://www.w3.org/1999/xlink" x="0px" y="0px"
	 viewBox="0 0 30.8 24.3" style="enable-background:new 0 0 30.8 24.3;" xml:space="preserve">
<style type="text/css">
	.st0{fill:#EBEFF2;}
</style>
<path class="st0" d="M21.2,5.2h-2.3c-0.4,0-0.7-0.3-0.7-0.7c0-0.1,0-0.2,0-0.3l0,0L19.3,1l0,0c0-0.1,0-0.2,0-0.2
	C19.4,0.3,19,0,18.6,0c0,0-9,0-9,0C4.3,0,0,4.3,0,9.6c0,5.3,4.3,9.6,9.6,9.6h2.3c0.4,0,0.7,0.3,0.7,0.7c0,0.1,0,0.2,0,0.2l0,0
	l-1.1,3.2l0,0c0,0.1,0,0.2,0,0.2c0,0.4,0.3,0.7,0.7,0.7h9c5.3,0,9.6-4.3,9.6-9.6C30.8,9.5,26.5,5.2,21.2,5.2z M21.2,19.2
	c0,0-7.2,0-7.2,0c-0.4,0-0.7-0.3-0.7-0.7c0-0.1,0-0.2,0-0.3l0,0l0.3-0.7l0,0c0.1-0.3,0.2-0.6,0.2-0.9c0-1.4-1.2-2.6-2.6-2.6H9.6
	c-2.4,0-4.4-2-4.4-4.4c0-2.4,2-4.4,4.4-4.4h7.2c0.4,0,0.7,0.3,0.7,0.7c0,0.1,0,0.2,0,0.3l0,0l-0.3,0.7c0,0-0.2,0.6-0.2,0.9
	c0,1.4,1.2,2.6,2.6,2.6h1.5c2.4,0,4.4,2,4.4,4.4C25.6,17.2,23.6,19.2,21.2,19.2z"/>
</svg>
