<svg width="397" height="399" viewBox="0 0 397 399" fill="none" xmlns="http://www.w3.org/2000/svg">
<g clip-path="url(#clip0_2_10)">
<path fill-rule="evenodd" clip-rule="evenodd" d="M339.25 57.988C301.91 20.615 252.268 0.016625 199.384 0C90.4068 0 1.71238 88.6778 1.6625 197.705C1.64588 232.551 10.7564 266.565 28.063 296.557L0 399L104.804 371.502C133.682 387.263 166.2 395.559 199.284 395.575H199.367C308.327 395.575 397.038 306.881 397.088 197.854C397.121 145.036 376.573 95.3444 339.25 57.988ZM199.384 362.176H199.317C169.824 362.176 140.913 354.245 115.677 339.266L109.675 335.709L47.481 352.018L64.0894 291.37L60.1825 285.152C43.7238 258.984 35.0455 228.743 35.0621 197.705C35.0954 107.098 108.827 33.383 199.467 33.383C243.357 33.383 284.62 50.5068 315.642 81.5623C346.665 112.634 363.738 153.914 363.722 197.821C363.672 288.46 289.957 362.176 199.384 362.176ZM289.524 239.101C284.587 236.624 260.298 224.67 255.759 223.024C251.237 221.378 247.945 220.547 244.637 225.485C241.329 230.422 231.886 241.561 228.993 244.87C226.117 248.161 223.224 248.577 218.286 246.1C213.349 243.623 197.422 238.419 178.552 221.578C163.873 208.478 153.947 192.301 151.071 187.347C148.195 182.393 150.772 179.733 153.233 177.272C155.46 175.061 158.17 171.504 160.647 168.611C163.141 165.751 163.956 163.69 165.618 160.381C167.264 157.09 166.45 154.197 165.203 151.72C163.956 149.259 154.08 124.937 149.974 115.045C145.967 105.403 141.894 106.716 138.852 106.566C135.976 106.417 132.684 106.4 129.376 106.4C126.084 106.4 120.731 107.63 116.209 112.584C111.687 117.539 98.9187 129.492 98.9187 153.798C98.9187 178.12 116.624 201.611 119.085 204.903C121.545 208.195 153.914 258.103 203.473 279.5C215.26 284.587 224.471 287.629 231.636 289.907C243.473 293.664 254.246 293.132 262.758 291.868C272.251 290.455 291.985 279.915 296.108 268.377C300.231 256.84 300.231 246.931 298.984 244.886C297.754 242.808 294.462 241.578 289.524 239.101Z" fill="#1B2F3F"/>
</g>
<defs>
<clipPath id="clip0_2_10">
<rect width="397" height="399" fill="white"/>
</clipPath>
</defs>
</svg>
