<?xml version="1.0" encoding="utf-8"?>
<!-- Generator: Adobe Illustrator 24.0.2, SVG Export Plug-In . SVG Version: 6.00 Build 0)  -->
<svg version="1.1" id="Layer_1" xmlns="http://www.w3.org/2000/svg" xmlns:xlink="http://www.w3.org/1999/xlink" x="0px" y="0px"
	 viewBox="0 0 303.11 303.11" style="enable-background:new 0 0 303.11 303.11;" xml:space="preserve">
<style type="text/css">
	.st0{fill:#E5EBF8;}
	.st1{opacity:0.8;}
	.st2{fill:#00D4D9;}
	.st3{fill:url(#SVGID_1_);}
	.st4{fill:url(#SVGID_2_);}
	.st5{fill:#FFFFFF;}
	.st6{fill:none;stroke:#000000;stroke-miterlimit:10;}
</style>
<path class="st0" d="M132.76,102.91l-52.04,52.04c-0.91-19.24,5.96-38.81,20.68-53.53c27.7-27.7,72.58-27.7,100.28,0
	c6.78,6.78,11.93,14.62,15.39,22.99l-57.86,57.91c-0.1,0.05-0.29,0.05-0.53,0.05c-0.53,0-1.11-0.14-1.59-0.38
	c-0.14-0.1-0.29-0.14-0.38-0.24l0,0c0.96-5.34,7.12-35.06,10.44-51.03l0.29-1.49c0.87-4.14,1.49-7.21,1.78-8.61v-0.1l0.05-0.34
	v-0.14c0.87-5.87-1.25-11.88-5.82-16.4c-1.73-1.73-3.75-3.17-6.01-4.33c-3.22-1.59-6.69-2.45-10.15-2.45
	C141.85,96.9,136.65,99.01,132.76,102.91z M173.73,197.22c-3.85,3.85-9.23,6.01-15.05,6.01l0,0c-3.9,0-7.79-0.96-11.3-2.79
	c-2.07-1.11-3.9-2.45-5.48-4.04c-4.86-4.86-6.88-11.54-5.63-18.32c1.01-5.58,7.21-35.59,10.58-51.7c0,0,1.35-6.54,1.68-8.22
	c-0.1-0.05-0.19-0.14-0.29-0.19c-0.24-0.14-0.58-0.24-0.82-0.24l-61.27,61.22c3.46,8.27,8.56,16.02,15.29,22.75
	c27.7,27.7,72.58,27.7,100.28,0c14.62-14.62,21.5-34.05,20.68-53.19L173.73,197.22z"/>
</svg>
