<?xml version="1.0" encoding="utf-8"?>
<!-- Generator: Adobe Illustrator 26.3.1, SVG Export Plug-In . SVG Version: 6.00 Build 0)  -->
<svg version="1.1" id="Layer_1" xmlns="http://www.w3.org/2000/svg" xmlns:xlink="http://www.w3.org/1999/xlink" x="0px" y="0px"
	 viewBox="0 0 988.2 312" style="enable-background:new 0 0 988.2 312;" xml:space="preserve">
<style type="text/css">
	.st0{fill:#262B28;}
	.st1{fill:#65932E;}
	.st2{fill:#2F7996;}
</style>
<g>
	<g>
		<path class="st0" d="M25.6,284.3v-36.6H11.4v-4.9h33.4v4.9H30.7v36.6H25.6z"/>
		<path class="st0" d="M58.3,285.2c-3.1,0-5.7-0.7-8-2c-2.3-1.4-4-3.2-5.3-5.7c-1.3-2.4-1.9-5.3-1.9-8.5c0-3.4,0.6-6.3,1.9-8.8
			c1.2-2.5,3-4.4,5.2-5.8c2.2-1.4,4.9-2,7.9-2c3.1,0,5.8,0.7,8,2.2c2.2,1.4,3.9,3.5,5,6.2s1.6,5.9,1.4,9.5h-5.2v-1.8
			c-0.1-3.8-0.8-6.7-2.3-8.6c-1.5-1.9-3.7-2.8-6.7-2.8c-3.2,0-5.6,1-7.2,3.1c-1.7,2-2.5,5-2.5,8.8c0,3.7,0.8,6.5,2.5,8.5
			c1.7,2,4,3,7.1,3c2.1,0,3.8-0.5,5.4-1.4c1.5-0.9,2.7-2.3,3.6-4.1l4.9,1.7c-1.2,2.7-3,4.9-5.5,6.4
			C64.1,284.4,61.4,285.2,58.3,285.2z M46.8,270.2v-4.1h23v4.1H46.8z"/>
		<path class="st0" d="M92,285.2c-3.2,0-5.8-0.7-8-2.1c-2.2-1.4-3.9-3.4-5-5.8c-1.2-2.5-1.7-5.3-1.8-8.5c0-3.2,0.6-6.1,1.8-8.6
			c1.2-2.5,2.9-4.4,5.1-5.8c2.2-1.4,4.9-2.1,8-2.1c3.3,0,6.1,0.8,8.5,2.4c2.4,1.6,4,3.8,4.8,6.6l-5.1,1.5c-0.7-1.8-1.7-3.2-3.2-4.2
			s-3.2-1.5-5.1-1.5c-2.1,0-3.9,0.5-5.3,1.5c-1.4,1-2.4,2.4-3.1,4.1c-0.7,1.7-1,3.7-1,6c0,3.5,0.8,6.2,2.4,8.4
			c1.6,2.1,3.9,3.2,7,3.2c2,0,3.7-0.5,5.1-1.4c1.3-0.9,2.4-2.3,3.1-4l5.2,1.4c-1.1,2.9-2.8,5.1-5,6.7C98,284.4,95.2,285.2,92,285.2z
			"/>
		<path class="st0" d="M111.2,284.3v-41.5h4.6v22.9h0.6v18.6H111.2z M133.4,284.3v-15.6c0-1.5-0.1-2.9-0.4-4.3
			c-0.3-1.4-0.7-2.6-1.4-3.7c-0.6-1.1-1.5-1.9-2.6-2.6c-1.1-0.6-2.5-1-4.1-1c-1.3,0-2.5,0.2-3.5,0.6s-1.9,1.1-2.7,2s-1.3,2-1.7,3.3
			c-0.4,1.3-0.6,2.9-0.6,4.7l-3.4-1c0-3,0.5-5.6,1.6-7.8c1.1-2.2,2.6-3.8,4.6-5c2-1.2,4.3-1.7,7-1.7c2,0,3.7,0.3,5.2,1
			c1.4,0.6,2.6,1.5,3.5,2.5c0.9,1,1.7,2.2,2.2,3.5c0.5,1.3,0.9,2.6,1.1,3.9c0.2,1.3,0.3,2.6,0.3,3.8v17.2H133.4z"/>
		<path class="st0" d="M146.1,284.3v-31.1h4.6v8.3h0.6v22.8H146.1z M168.3,284.3v-15.6c0-1.5-0.1-2.9-0.4-4.3
			c-0.3-1.4-0.7-2.6-1.4-3.7c-0.6-1.1-1.5-1.9-2.6-2.6c-1.1-0.6-2.5-1-4.1-1c-1.3,0-2.5,0.2-3.5,0.6s-1.9,1.1-2.7,2s-1.3,2-1.7,3.3
			c-0.4,1.3-0.6,2.9-0.6,4.7l-3.4-1c0-3,0.5-5.6,1.6-7.8c1.1-2.2,2.6-3.8,4.6-5c2-1.2,4.3-1.7,7-1.7c2,0,3.7,0.3,5.2,1
			c1.4,0.6,2.6,1.5,3.5,2.5c0.9,1,1.7,2.2,2.2,3.5c0.5,1.3,0.9,2.6,1.1,3.9c0.2,1.3,0.3,2.6,0.3,3.8v17.2H168.3z"/>
		<path class="st0" d="M193.9,285.2c-3.1,0-5.8-0.7-8-2.1c-2.2-1.4-4-3.3-5.2-5.8c-1.2-2.5-1.8-5.3-1.8-8.5c0-3.3,0.6-6.1,1.8-8.6
			c1.2-2.5,3-4.4,5.2-5.8c2.2-1.4,4.9-2.1,7.9-2.1c3.1,0,5.8,0.7,8,2.1c2.2,1.4,4,3.3,5.2,5.8c1.2,2.5,1.8,5.3,1.8,8.5
			c0,3.2-0.6,6.1-1.8,8.6c-1.2,2.5-2.9,4.4-5.2,5.8C199.7,284.5,197,285.2,193.9,285.2z M193.9,280.3c3.2,0,5.6-1.1,7.2-3.2
			c1.6-2.2,2.4-4.9,2.4-8.4c0-3.5-0.8-6.3-2.4-8.4s-4-3.1-7.2-3.1c-2.2,0-4,0.5-5.4,1.5c-1.4,1-2.5,2.3-3.1,4.1s-1,3.7-1,6
			c0,3.5,0.8,6.3,2.4,8.4C188.4,279.3,190.8,280.3,193.9,280.3z"/>
		<path class="st0" d="M215.8,284.3v-42.4h5.1v42.4H215.8z"/>
		<path class="st0" d="M242.9,285.2c-3.1,0-5.8-0.7-8-2.1c-2.2-1.4-4-3.3-5.2-5.8c-1.2-2.5-1.8-5.3-1.8-8.5c0-3.3,0.6-6.1,1.8-8.6
			c1.2-2.5,3-4.4,5.2-5.8c2.2-1.4,4.9-2.1,7.9-2.1c3.1,0,5.8,0.7,8,2.1c2.2,1.4,4,3.3,5.2,5.8c1.2,2.5,1.8,5.3,1.8,8.5
			c0,3.2-0.6,6.1-1.8,8.6c-1.2,2.5-2.9,4.4-5.2,5.8C248.6,284.5,246,285.2,242.9,285.2z M242.9,280.3c3.2,0,5.6-1.1,7.2-3.2
			c1.6-2.2,2.4-4.9,2.4-8.4c0-3.5-0.8-6.3-2.4-8.4s-4-3.1-7.2-3.1c-2.2,0-4,0.5-5.4,1.5c-1.4,1-2.5,2.3-3.1,4.1s-1,3.7-1,6
			c0,3.5,0.8,6.3,2.4,8.4C237.4,279.3,239.8,280.3,242.9,280.3z"/>
		<path class="st0" d="M276.5,285.2c-2.9,0-5.4-0.7-7.5-2.2s-3.7-3.4-4.8-5.9c-1.1-2.5-1.7-5.3-1.7-8.4s0.6-5.9,1.7-8.4
			c1.1-2.5,2.7-4.4,4.8-5.9c2.1-1.4,4.6-2.1,7.4-2.1c2.9,0,5.4,0.7,7.4,2.1s3.5,3.4,4.5,5.9c1,2.5,1.5,5.3,1.5,8.4
			c0,3.1-0.5,5.9-1.5,8.4c-1,2.5-2.5,4.5-4.5,5.9S279.4,285.2,276.5,285.2z M276.8,299c-1.6,0-3.2-0.2-4.8-0.7
			c-1.6-0.5-3-1.3-4.3-2.3c-1.3-1-2.4-2.3-3.2-3.8l4.7-2.5c0.8,1.5,1.9,2.6,3.3,3.3c1.4,0.7,2.9,1,4.4,1c2,0,3.6-0.4,4.9-1.1
			c1.3-0.7,2.3-1.8,2.9-3.2c0.6-1.4,0.9-3.2,0.9-5.3V276h0.6v-22.8h4.6v31.3c0,0.8,0,1.7-0.1,2.5c0,0.8-0.1,1.6-0.3,2.3
			c-0.4,2.2-1.2,4-2.4,5.5c-1.2,1.4-2.7,2.5-4.6,3.2C281.5,298.7,279.3,299,276.8,299z M277.1,280.5c2.1,0,3.8-0.5,5.2-1.5
			c1.3-1,2.3-2.4,3-4.2c0.6-1.8,1-3.8,1-6.1c0-2.3-0.3-4.3-1-6.1c-0.6-1.8-1.6-3.1-3-4.1c-1.3-1-3-1.5-5-1.5c-2.1,0-3.9,0.5-5.2,1.6
			c-1.4,1-2.4,2.4-3.1,4.2c-0.7,1.8-1,3.7-1,5.9c0,2.2,0.3,4.2,1,6c0.7,1.8,1.7,3.2,3,4.2C273.4,280,275.1,280.5,277.1,280.5z"/>
		<path class="st0" d="M299.4,247.7v-5.3h5.1v5.3H299.4z M299.4,284.3v-31.1h5.1v31.1H299.4z"/>
		<path class="st0" d="M326.7,285.2c-3.1,0-5.7-0.7-8-2c-2.3-1.4-4-3.2-5.3-5.7c-1.3-2.4-1.9-5.3-1.9-8.5c0-3.4,0.6-6.3,1.9-8.8
			c1.2-2.5,3-4.4,5.2-5.8c2.2-1.4,4.9-2,7.9-2c3.1,0,5.8,0.7,8,2.2c2.2,1.4,3.9,3.5,5,6.2s1.6,5.9,1.4,9.5h-5.2v-1.8
			c-0.1-3.8-0.8-6.7-2.3-8.6s-3.7-2.8-6.7-2.8c-3.2,0-5.6,1-7.2,3.1c-1.7,2-2.5,5-2.5,8.8c0,3.7,0.8,6.5,2.5,8.5c1.7,2,4,3,7.1,3
			c2.1,0,3.8-0.5,5.4-1.4s2.7-2.3,3.6-4.1l4.9,1.7c-1.2,2.7-3,4.9-5.5,6.4C332.4,284.4,329.7,285.2,326.7,285.2z M315.2,270.2v-4.1
			h23v4.1H315.2z"/>
		<path class="st0" d="M359,285.2c-3.7,0-6.8-0.8-9.1-2.4c-2.4-1.6-3.8-3.9-4.4-6.8l5.2-0.8c0.4,1.7,1.4,3,2.9,4
			c1.5,1,3.4,1.5,5.6,1.5c2.1,0,3.8-0.4,5-1.3c1.2-0.9,1.8-2.1,1.8-3.6c0-0.9-0.2-1.6-0.6-2.1c-0.4-0.5-1.2-1.1-2.5-1.5
			s-3.2-1.1-5.7-1.7c-2.7-0.7-4.9-1.5-6.5-2.3c-1.6-0.8-2.7-1.7-3.4-2.7c-0.7-1-1-2.3-1-3.8c0-1.8,0.5-3.4,1.5-4.8
			c1-1.4,2.4-2.4,4.2-3.2c1.8-0.8,3.9-1.1,6.3-1.1c2.4,0,4.5,0.4,6.3,1.1c1.9,0.7,3.4,1.8,4.5,3.2c1.1,1.4,1.8,3,2,4.8l-5.2,1
			c-0.2-1.7-1.1-3-2.4-3.9s-3.1-1.5-5.2-1.5c-2-0.1-3.7,0.3-4.9,1.1s-1.9,1.9-1.9,3.2c0,0.8,0.2,1.4,0.7,1.9c0.5,0.5,1.3,1,2.6,1.5
			c1.3,0.5,3.1,1,5.6,1.6c2.7,0.7,4.9,1.4,6.5,2.3c1.6,0.8,2.7,1.8,3.4,2.9c0.7,1.1,1,2.5,1,4.1c0,3-1.1,5.4-3.3,7.1
			C365.9,284.3,362.9,285.2,359,285.2z"/>
	</g>
	<g>
		<path class="st1" d="M146.4,95.1V192c0,4.3-4.3,9.1-9.7,10.8c-1.3,0.4-2.6,0.6-3.8,0.6c-3.1,0-5.6-1.4-7.4-4
			c-5.7-8.2-36.1-54.5-52.4-79.4l-0.3-0.5c-4.6-7-8.1-12.4-9.6-14.6l-0.3-0.4c-4.7-6.3-12.3-9.8-21-9.8c-3.4,0-6.9,0.6-10.3,1.7
			c-12.6,4.2-20.8,15-20.8,27.5v96.4h19v-96.4c0-6.4,5.9-8.8,7.8-9.4c1.4-0.5,2.9-0.7,4.4-0.7c1.4,0,4.1,0.3,5.5,2
			c1.5,2.2,4.6,7,8.7,13.2l1.1,1.6c16.4,24.9,46.8,71.3,52.6,79.7c5.3,7.8,13.7,12.2,23,12.2h0c3.1,0,6.3-0.5,9.4-1.5
			c13.6-4.2,23.1-16.1,23.1-28.9V95.1H146.4z"/>
		<rect x="185.7" y="96" class="st1" width="19" height="125"/>
		<path class="st1" d="M271,114.1h64.1v-19H271c-25.4,0-46,20.6-46,46v34.9c0,25.4,20.6,46,46,46h64.1v-19H271
			c-14.9,0-27-12.1-27-27V141C244,126.2,256.1,114.1,271,114.1z"/>
		<path class="st1" d="M556.9,114.1H621v-19h-64.1c-25.3,0-46,20.6-46,46v34.9c0,25.4,20.6,46,46,46H621v-19h-64.1
			c-14.9,0-27-12.1-27-27V168h69.7v-19h-69.7V141C529.9,126.2,542,114.1,556.9,114.1z"/>
		<polygon class="st1" points="471.6,96 471.6,149 374.4,149 374.4,96 355.4,96 355.4,220.9 374.4,220.9 374.4,168 471.6,168 
			471.6,220.9 490.6,220.9 490.6,96 		"/>
	</g>
	<path class="st2" d="M790.5,54.6L682.3,162.8c-1.9-40,12.4-80.7,43-111.3c57.6-57.6,150.9-57.6,208.5,0
		c14.1,14.1,24.8,30.4,32,47.8L845.5,219.7c-0.2,0.1-0.6,0.1-1.1,0.1c-1.1,0-2.3-0.3-3.3-0.8c-0.3-0.2-0.6-0.3-0.8-0.5c0,0,0,0,0,0
		c2-11.1,14.8-72.9,21.7-106.1l0.6-3.1c1.8-8.6,3.1-15,3.7-17.9l0-0.2l0.1-0.7l0-0.3c1.8-12.2-2.6-24.7-12.1-34.1
		c-3.6-3.6-7.8-6.6-12.5-9c-6.7-3.3-13.9-5.1-21.1-5.1C809.4,42.1,798.6,46.5,790.5,54.6z M875.7,250.7c-8,8-19.2,12.5-31.3,12.5
		c0,0,0,0,0,0c-8.1,0-16.2-2-23.5-5.8c-4.3-2.3-8.1-5.1-11.4-8.4c-10.1-10.1-14.3-24-11.7-38.1c2.1-11.6,15-74,22-107.5
		c0,0,2.8-13.6,3.5-17.1c-0.2-0.1-0.4-0.3-0.6-0.4c-0.5-0.3-1.2-0.5-1.7-0.5L693.6,212.7c7.2,17.2,17.8,33.3,31.8,47.3
		c57.6,57.6,150.9,57.6,208.5,0c30.4-30.4,44.7-70.8,43-110.6L875.7,250.7z"/>
</g>
<g>
</g>
<g>
</g>
<g>
</g>
<g>
</g>
<g>
</g>
<g>
</g>
<g>
</g>
<g>
</g>
<g>
</g>
<g>
</g>
<g>
</g>
<g>
</g>
<g>
</g>
<g>
</g>
<g>
</g>
</svg>
