<?xml version="1.0" encoding="utf-8"?>
<!-- Generator: Adobe Illustrator 26.3.1, SVG Export Plug-In . SVG Version: 6.00 Build 0)  -->
<svg version="1.1" id="Layer_1" xmlns="http://www.w3.org/2000/svg" xmlns:xlink="http://www.w3.org/1999/xlink" x="0px" y="0px"
	 viewBox="0 0 857.4 265.8" style="enable-background:new 0 0 857.4 265.8;" xml:space="preserve">
<style type="text/css">
	.st0{fill:#FFFFFF;}
</style>
<g>
	<path class="st0" d="M32.2,241.5v-31h-12v-4.1h28.3v4.1h-12v31H32.2z"/>
	<path class="st0" d="M59.9,242.3c-2.6,0-4.8-0.6-6.8-1.7c-1.9-1.1-3.4-2.7-4.5-4.8c-1.1-2.1-1.6-4.5-1.6-7.2c0-2.9,0.5-5.4,1.6-7.5
		c1.1-2.1,2.5-3.7,4.4-4.9c1.9-1.1,4.1-1.7,6.7-1.7c2.7,0,4.9,0.6,6.8,1.8c1.9,1.2,3.3,3,4.2,5.2c0.9,2.3,1.3,5,1.2,8.1h-4.4V228
		c0-3.2-0.7-5.7-2-7.3c-1.3-1.6-3.2-2.4-5.7-2.4c-2.7,0-4.7,0.9-6.1,2.6s-2.1,4.2-2.1,7.4c0,3.1,0.7,5.5,2.1,7.2s3.4,2.6,6,2.6
		c1.7,0,3.3-0.4,4.5-1.2c1.3-0.8,2.3-1.9,3-3.4l4.2,1.4c-1,2.3-2.6,4.1-4.6,5.4C64.8,241.6,62.5,242.3,59.9,242.3z M50.2,229.6v-3.5
		h19.5v3.5H50.2z"/>
	<path class="st0" d="M88.4,242.3c-2.7,0-4.9-0.6-6.8-1.8c-1.9-1.2-3.3-2.8-4.3-4.9c-1-2.1-1.5-4.5-1.5-7.2c0-2.7,0.5-5.2,1.5-7.3
		c1-2.1,2.4-3.7,4.3-4.9c1.9-1.2,4.1-1.8,6.8-1.8c2.8,0,5.2,0.7,7.2,2s3.4,3.2,4,5.6l-4.3,1.3c-0.6-1.5-1.5-2.7-2.7-3.6
		c-1.2-0.8-2.7-1.3-4.3-1.3c-1.8,0-3.3,0.4-4.5,1.3c-1.2,0.8-2,2-2.6,3.5c-0.6,1.5-0.9,3.2-0.9,5.1c0,2.9,0.7,5.3,2,7.1
		c1.3,1.8,3.3,2.7,5.9,2.7c1.7,0,3.2-0.4,4.3-1.2s2-1.9,2.6-3.4l4.4,1.1c-0.9,2.5-2.3,4.3-4.3,5.6C93.5,241.6,91.1,242.3,88.4,242.3
		z"/>
	<path class="st0" d="M104.7,241.5v-35.1h3.9v19.4h0.5v15.7H104.7z M123.5,241.5v-13.2c0-1.3-0.1-2.5-0.3-3.6
		c-0.2-1.2-0.6-2.2-1.1-3.1c-0.5-0.9-1.3-1.6-2.2-2.2c-0.9-0.5-2.1-0.8-3.5-0.8c-1.1,0-2.1,0.2-3,0.5s-1.6,0.9-2.3,1.7
		c-0.6,0.7-1.1,1.7-1.5,2.8c-0.4,1.1-0.5,2.5-0.5,4l-2.9-0.9c0-2.6,0.5-4.7,1.4-6.6c0.9-1.8,2.2-3.2,3.9-4.2s3.6-1.5,5.9-1.5
		c1.7,0,3.2,0.3,4.4,0.8c1.2,0.5,2.2,1.2,3,2.1s1.4,1.9,1.9,3c0.5,1.1,0.8,2.2,1,3.3c0.2,1.1,0.3,2.2,0.3,3.2v14.6H123.5z"/>
	<path class="st0" d="M134.2,241.5v-26.4h3.9v7.1h0.5v19.3H134.2z M153,241.5v-13.2c0-1.3-0.1-2.5-0.3-3.6c-0.2-1.2-0.6-2.2-1.1-3.1
		c-0.5-0.9-1.3-1.6-2.2-2.2c-0.9-0.5-2.1-0.8-3.5-0.8c-1.1,0-2.1,0.2-3,0.5s-1.6,0.9-2.3,1.7c-0.6,0.7-1.1,1.7-1.5,2.8
		c-0.4,1.1-0.5,2.5-0.5,4l-2.9-0.9c0-2.6,0.5-4.7,1.4-6.6c0.9-1.8,2.2-3.2,3.9-4.2s3.6-1.5,5.9-1.5c1.7,0,3.2,0.3,4.4,0.8
		c1.2,0.5,2.2,1.2,3,2.1s1.4,1.9,1.9,3c0.5,1.1,0.8,2.2,1,3.3c0.2,1.1,0.3,2.2,0.3,3.2v14.6H153z"/>
	<path class="st0" d="M174.7,242.3c-2.6,0-4.9-0.6-6.8-1.8s-3.4-2.8-4.4-4.9c-1-2.1-1.5-4.5-1.5-7.2c0-2.8,0.5-5.2,1.6-7.3
		c1-2.1,2.5-3.7,4.4-4.9c1.9-1.2,4.1-1.7,6.7-1.7c2.6,0,4.9,0.6,6.8,1.8s3.4,2.8,4.4,4.9c1,2.1,1.5,4.5,1.5,7.2
		c0,2.8-0.5,5.2-1.5,7.3c-1,2.1-2.5,3.7-4.4,4.9S177.3,242.3,174.7,242.3z M174.7,238.1c2.7,0,4.8-0.9,6.1-2.7s2-4.2,2-7.1
		c0-3-0.7-5.3-2-7.1c-1.4-1.8-3.4-2.6-6.1-2.6c-1.8,0-3.4,0.4-4.5,1.2c-1.2,0.8-2.1,2-2.7,3.4s-0.9,3.2-0.9,5.1c0,3,0.7,5.3,2,7.1
		C170,237.2,172,238.1,174.7,238.1z"/>
	<path class="st0" d="M193.2,241.5v-35.9h4.3v35.9H193.2z"/>
	<path class="st0" d="M216.1,242.3c-2.6,0-4.9-0.6-6.8-1.8s-3.4-2.8-4.4-4.9c-1-2.1-1.5-4.5-1.5-7.2c0-2.8,0.5-5.2,1.6-7.3
		c1-2.1,2.5-3.7,4.4-4.9c1.9-1.2,4.1-1.7,6.7-1.7c2.6,0,4.9,0.6,6.8,1.8s3.4,2.8,4.4,4.9c1,2.1,1.5,4.5,1.5,7.2
		c0,2.8-0.5,5.2-1.5,7.3c-1,2.1-2.5,3.7-4.4,4.9S218.8,242.3,216.1,242.3z M216.1,238.1c2.7,0,4.8-0.9,6.1-2.7s2-4.2,2-7.1
		c0-3-0.7-5.3-2-7.1c-1.4-1.8-3.4-2.6-6.1-2.6c-1.8,0-3.4,0.4-4.5,1.2c-1.2,0.8-2.1,2-2.7,3.4s-0.9,3.2-0.9,5.1c0,3,0.7,5.3,2,7.1
		C211.5,237.2,213.5,238.1,216.1,238.1z"/>
	<path class="st0" d="M244.6,242.3c-2.5,0-4.6-0.6-6.3-1.8c-1.8-1.2-3.1-2.9-4.1-5s-1.4-4.5-1.4-7.1s0.5-5,1.4-7.1s2.3-3.8,4.1-5
		s3.9-1.8,6.3-1.8c2.5,0,4.6,0.6,6.3,1.8c1.7,1.2,3,2.9,3.8,5s1.3,4.5,1.3,7.1c0,2.6-0.4,5-1.3,7.1c-0.9,2.1-2.2,3.8-3.8,5
		C249.1,241.6,247,242.3,244.6,242.3z M244.9,254c-1.4,0-2.7-0.2-4.1-0.6c-1.3-0.4-2.5-1.1-3.6-1.9c-1.1-0.9-2-1.9-2.7-3.2l4-2.1
		c0.7,1.3,1.6,2.2,2.8,2.8c1.2,0.6,2.4,0.9,3.7,0.9c1.7,0,3.1-0.3,4.2-0.9c1.1-0.6,1.9-1.5,2.5-2.7c0.5-1.2,0.8-2.7,0.8-4.5v-7.2
		h0.5v-19.3h3.9v26.5c0,0.7,0,1.4-0.1,2.1c0,0.7-0.1,1.3-0.3,2c-0.3,1.9-1,3.4-2,4.6s-2.3,2.1-3.9,2.7
		C248.8,253.7,247,254,244.9,254z M245.1,238.3c1.8,0,3.2-0.4,4.4-1.3c1.1-0.9,2-2,2.5-3.5s0.8-3.2,0.8-5.1c0-2-0.3-3.7-0.8-5.2
		c-0.5-1.5-1.4-2.7-2.5-3.5s-2.5-1.3-4.3-1.3c-1.8,0-3.3,0.4-4.4,1.3c-1.2,0.9-2,2.1-2.6,3.6c-0.6,1.5-0.8,3.2-0.8,5
		c0,1.9,0.3,3.6,0.9,5.1c0.6,1.5,1.4,2.7,2.6,3.6C241.9,237.8,243.4,238.3,245.1,238.3z"/>
	<path class="st0" d="M264,210.5V206h4.3v4.5H264z M264,241.5v-26.4h4.3v26.4H264z"/>
	<path class="st0" d="M287.1,242.3c-2.6,0-4.8-0.6-6.8-1.7c-1.9-1.1-3.4-2.7-4.5-4.8c-1.1-2.1-1.6-4.5-1.6-7.2
		c0-2.9,0.5-5.4,1.6-7.5c1.1-2.1,2.5-3.7,4.4-4.9c1.9-1.1,4.1-1.7,6.7-1.7c2.7,0,4.9,0.6,6.8,1.8c1.9,1.2,3.3,3,4.2,5.2
		c0.9,2.3,1.3,5,1.2,8.1h-4.4V228c0-3.2-0.7-5.7-2-7.3c-1.3-1.6-3.2-2.4-5.7-2.4c-2.7,0-4.7,0.9-6.1,2.6s-2.1,4.2-2.1,7.4
		c0,3.1,0.7,5.5,2.1,7.2s3.4,2.6,6,2.6c1.7,0,3.3-0.4,4.5-1.2c1.3-0.8,2.3-1.9,3-3.4l4.2,1.4c-1,2.3-2.6,4.1-4.6,5.4
		C291.9,241.6,289.6,242.3,287.1,242.3z M277.3,229.6v-3.5h19.5v3.5H277.3z"/>
	<path class="st0" d="M314.4,242.2c-3.1,0-5.7-0.7-7.7-2.1c-2-1.4-3.2-3.3-3.7-5.8l4.4-0.7c0.4,1.4,1.2,2.6,2.5,3.4s2.9,1.3,4.8,1.3
		c1.8,0,3.2-0.4,4.2-1.1c1-0.7,1.5-1.8,1.5-3.1c0-0.7-0.2-1.4-0.5-1.8c-0.3-0.5-1-0.9-2.1-1.3c-1.1-0.4-2.7-0.9-4.8-1.5
		c-2.3-0.6-4.2-1.3-5.5-1.9s-2.3-1.4-2.9-2.3c-0.6-0.9-0.9-1.9-0.9-3.2c0-1.5,0.4-2.9,1.3-4.1s2-2.1,3.6-2.7c1.5-0.6,3.3-1,5.3-1
		c2,0,3.8,0.3,5.4,1c1.6,0.6,2.9,1.5,3.8,2.7s1.5,2.5,1.7,4.1l-4.4,0.8c-0.2-1.4-0.9-2.5-2-3.3c-1.1-0.8-2.6-1.2-4.4-1.3
		c-1.7-0.1-3.1,0.2-4.2,0.9c-1.1,0.7-1.6,1.6-1.6,2.7c0,0.6,0.2,1.2,0.6,1.6c0.4,0.5,1.1,0.9,2.2,1.3c1.1,0.4,2.7,0.9,4.7,1.4
		c2.3,0.6,4.2,1.2,5.5,1.9c1.3,0.7,2.3,1.5,2.9,2.4c0.6,0.9,0.9,2.1,0.9,3.5c0,2.5-0.9,4.5-2.8,6
		C320.3,241.5,317.7,242.2,314.4,242.2z"/>
</g>
<g>
	<path class="st0" d="M134.5,81.3v82c0,3.7-3.6,7.7-8.2,9.1c-1.1,0.3-2.2,0.5-3.2,0.5c-2.6,0-4.7-1.1-6.3-3.4
		c-4.9-7-30.6-46.2-44.4-67.2l-0.3-0.4c-3.9-6-6.9-10.5-8.1-12.4l-0.2-0.3c-4-5.3-10.4-8.3-17.8-8.3c-2.9,0-5.8,0.5-8.7,1.4
		C26.6,85.8,19.7,95,19.7,105.5v81.6h16.1v-81.6c0-5.4,5-7.5,6.6-8c1.2-0.4,2.5-0.6,3.7-0.6c1.2,0,3.5,0.2,4.7,1.7
		c1.3,1.9,3.9,5.9,7.3,11.2l0.9,1.4c13.8,21.1,39.6,60.4,44.6,67.5c4.5,6.6,11.6,10.4,19.5,10.4h0c2.6,0,5.3-0.4,8-1.2
		c11.5-3.6,19.6-13.6,19.6-24.5v-82H134.5z"/>
	<rect x="167.8" y="82.1" class="st0" width="16.1" height="105.8"/>
	<path class="st0" d="M240,97.4h54.2V81.3H240c-21.5,0-38.9,17.5-38.9,38.9v29.5c0,21.5,17.5,38.9,38.9,38.9h54.2v-16.1H240
		c-12.6,0-22.8-10.2-22.8-22.8v-29.5C217.1,107.6,227.4,97.4,240,97.4z"/>
	<path class="st0" d="M482,97.4h54.2V81.3H482c-21.5,0-38.9,17.5-38.9,38.9v29.5c0,21.5,17.5,38.9,38.9,38.9h54.2v-16.1H482
		c-12.6,0-22.8-10.2-22.8-22.8V143h59v-16.1h-59v-6.7C459.1,107.6,469.4,97.4,482,97.4z"/>
	<polygon class="st0" points="409.8,82.1 409.8,126.9 327.5,126.9 327.5,82.1 311.4,82.1 311.4,187.9 327.5,187.9 327.5,143 
		409.8,143 409.8,187.9 425.8,187.9 425.8,82.1 	"/>
</g>
<path class="st0" d="M679.8,47.1l-91.6,91.6c-1.6-33.9,10.5-68.3,36.4-94.2c48.7-48.7,127.8-48.7,176.5,0c12,12,21,25.8,27.1,40.5
	L726.3,186.8c-0.2,0-0.5,0.1-0.9,0.1c-0.9,0-2-0.3-2.8-0.7c-0.3-0.1-0.5-0.3-0.6-0.4c0,0,0,0,0,0c1.7-9.4,12.6-61.7,18.4-89.8
	l0.5-2.6c1.5-7.3,2.6-12.7,3.1-15.2l0-0.1l0.1-0.6l0-0.3c1.5-10.4-2.2-20.9-10.2-28.9c-3-3-6.6-5.6-10.6-7.6
	c-5.6-2.8-11.8-4.3-17.9-4.3C695.8,36.4,686.6,40.2,679.8,47.1z M751.9,213c-6.8,6.8-16.2,10.6-26.5,10.6c0,0,0,0,0,0
	c-6.8,0-13.7-1.7-19.9-5c-3.6-1.9-6.9-4.3-9.7-7.1c-8.5-8.5-12.1-20.3-9.9-32.3c1.8-9.8,12.7-62.6,18.6-91c0,0,2.4-11.5,3-14.5
	c-0.2-0.1-0.4-0.2-0.5-0.3c-0.5-0.2-1-0.4-1.4-0.4L597.7,180.9c6.1,14.6,15,28.2,26.9,40.1c48.7,48.7,127.8,48.7,176.5,0
	c25.7-25.7,37.9-59.9,36.4-93.6L751.9,213z"/>
<g>
</g>
<g>
</g>
<g>
</g>
<g>
</g>
<g>
</g>
<g>
</g>
<g>
</g>
<g>
</g>
<g>
</g>
<g>
</g>
<g>
</g>
<g>
</g>
<g>
</g>
<g>
</g>
<g>
</g>
</svg>
