<?xml version="1.0" encoding="utf-8"?>
<!-- Generator: Adobe Illustrator 26.3.1, SVG Export Plug-In . SVG Version: 6.00 Build 0)  -->
<svg version="1.1" id="Layer_1" xmlns="http://www.w3.org/2000/svg" xmlns:xlink="http://www.w3.org/1999/xlink" x="0px" y="0px"
	 viewBox="0 0 249.6 249.6" style="enable-background:new 0 0 249.6 249.6;" xml:space="preserve">
<style type="text/css">
	.st0{fill:#FFFFFF;}
</style>
<path class="st0" d="M91.7,39.1L0.1,130.7c-1.6-33.9,10.5-68.3,36.4-94.2c48.7-48.7,127.8-48.7,176.5,0c12,12,21,25.8,27.1,40.5
	L138.2,178.8c-0.2,0-0.5,0.1-0.9,0.1c-0.9,0-2-0.3-2.8-0.7c-0.3-0.1-0.5-0.3-0.6-0.4l0,0c1.7-9.4,12.6-61.7,18.4-89.8l0.5-2.6
	c1.5-7.3,2.6-12.7,3.1-15.2v-0.1l0.1-0.6v-0.3c1.5-10.4-2.2-20.9-10.2-28.9c-3-3-6.6-5.6-10.6-7.6c-5.6-2.8-11.8-4.3-17.9-4.3
	C107.7,28.4,98.5,32.2,91.7,39.1z M163.8,205c-6.8,6.8-16.2,10.6-26.5,10.6l0,0c-6.8,0-13.7-1.7-19.9-5c-3.6-1.9-6.9-4.3-9.7-7.1
	c-8.5-8.5-12.1-20.3-9.9-32.3c1.8-9.8,12.7-62.6,18.6-91c0,0,2.4-11.5,3-14.5c-0.2-0.1-0.4-0.2-0.5-0.3c-0.5-0.2-1-0.4-1.4-0.4
	L9.6,172.9c6.1,14.6,15,28.2,26.9,40.1c48.7,48.7,127.8,48.7,176.5,0c25.7-25.7,37.9-59.9,36.4-93.6L163.8,205z"/>
<g>
</g>
<g>
</g>
<g>
</g>
<g>
</g>
<g>
</g>
<g>
</g>
<g>
</g>
<g>
</g>
<g>
</g>
<g>
</g>
<g>
</g>
<g>
</g>
<g>
</g>
<g>
</g>
<g>
</g>
</svg>
