<?xml version="1.0" encoding="utf-8"?>
<!-- Generator: Adobe Illustrator 24.0.2, SVG Export Plug-In . SVG Version: 6.00 Build 0)  -->
<svg version="1.1" id="Layer_1" xmlns="http://www.w3.org/2000/svg" xmlns:xlink="http://www.w3.org/1999/xlink" x="0px" y="0px"
	 viewBox="0 0 294.9 294.9" style="enable-background:new 0 0 294.9 294.9;" xml:space="preserve">
<style type="text/css">
	.st0{fill:#2F7996;}
</style>
<path class="st0" d="M108.37,46.3L0.17,154.5c-1.9-40,12.4-80.7,43-111.3c57.6-57.6,150.9-57.6,208.5,0c14.1,14.1,24.8,30.4,32,47.8
	l-120.3,120.4c-0.2,0.1-0.6,0.1-1.1,0.1c-1.1,0-2.3-0.3-3.3-0.8c-0.3-0.2-0.6-0.3-0.8-0.5l0,0c2-11.1,14.8-72.9,21.7-106.1l0.6-3.1
	c1.8-8.6,3.1-15,3.7-17.9v-0.2l0.1-0.7v-0.3c1.8-12.2-2.6-24.7-12.1-34.1c-3.6-3.6-7.8-6.6-12.5-9c-6.7-3.3-13.9-5.1-21.1-5.1
	C127.27,33.8,116.47,38.2,108.37,46.3z M193.57,242.4c-8,8-19.2,12.5-31.3,12.5l0,0c-8.1,0-16.2-2-23.5-5.8
	c-4.3-2.3-8.1-5.1-11.4-8.4c-10.1-10.1-14.3-24-11.7-38.1c2.1-11.6,15-74,22-107.5c0,0,2.8-13.6,3.5-17.1c-0.2-0.1-0.4-0.3-0.6-0.4
	c-0.5-0.3-1.2-0.5-1.7-0.5L11.47,204.4c7.2,17.2,17.8,33.3,31.8,47.3c57.6,57.6,150.9,57.6,208.5,0c30.4-30.4,44.7-70.8,43-110.6
	L193.57,242.4z"/>
</svg>
