<?xml version="1.0" encoding="utf-8"?>
<!-- Generator: Adobe Illustrator 26.3.1, SVG Export Plug-In . SVG Version: 6.00 Build 0)  -->
<svg version="1.1" id="Layer_1" xmlns="http://www.w3.org/2000/svg" xmlns:xlink="http://www.w3.org/1999/xlink" x="0px" y="0px"
	 viewBox="0 0 371.6 372" style="enable-background:new 0 0 371.6 372;" xml:space="preserve">
<style type="text/css">
	.st0{fill:#FFFFFF;}
	.st1{fill:none;}
	.st2{opacity:0.17;}
	.st3{fill:url(#SVGID_00000137853453745854180120000002103143694709030326_);}
</style>
<g>
	<path class="st0" d="M185.8,372c-49.6,0-96.3-19.3-131.4-54.5c-17.2-17.3-30.7-37.3-40-59.7l-0.4-0.9l0.7-0.7L174.4,96.3l0.7,0.1
		c0.8,0.1,1.8,0.4,2.7,0.8c0.3,0.2,0.6,0.4,1,0.6l0.8,0.6l-0.2,1c-0.9,4.3-4.4,21.4-4.4,21.4c-8.7,41.9-24.9,119.9-27.5,134.5
		c-3.2,17.2,2,34.1,14.2,46.4c4,4,8.7,7.4,13.9,10.2c8.9,4.7,18.8,7.1,28.6,7.1c14.8,0,28.3-5.4,38.1-15.2l129-129.1l0.1,3.4
		c2.2,51.9-17.5,102.8-54.2,139.5C282.1,352.7,235.4,372,185.8,372z M17.5,257.6c9.2,21.6,22.3,41.1,39,57.8
		C91.1,350,137,369,185.8,369s94.7-19,129.3-53.6c35.3-35.3,54.7-83.9,53.5-133.8L244.5,305.8c-10.3,10.4-24.6,16.1-40.2,16.1
		c-10.3,0-20.7-2.6-30-7.5c-5.5-2.9-10.4-6.5-14.7-10.7c-12.9-13-18.4-30.8-15.1-49.1c2.6-14.6,18.8-92.6,27.5-134.5
		c0,0,3.1-14.8,4.2-20.3c-0.2-0.1-0.5-0.2-0.7-0.3L17.5,257.6z M204.3,267.7c-1.6,0-3.4-0.4-4.9-1.2c-0.5-0.2-0.8-0.5-1.2-0.7
		l-0.6-0.5l0-1c2.5-13.9,18.5-91.2,27.1-132.6l0.8-4c2.2-10.8,3.9-18.8,4.6-22.4l0.2-1.4c2.1-14.8-3.2-29.9-14.7-41.4
		c-4.4-4.4-9.5-8.1-15.2-10.9c-8.1-4.1-17-6.2-25.7-6.2c-14,0-27.1,5.4-37,15.3L0.4,198.3l-0.2-3.4C-2.3,142.6,17.5,91.5,54.4,54.5
		C89.5,19.3,136.2,0,185.8,0s96.3,19.3,131.4,54.5c17.4,17.4,31,37.7,40.3,60.3l0.4,0.9l-0.7,0.7l-150.8,151l-0.4,0.1
		C205.6,267.6,205.1,267.7,204.3,267.7z M200.8,263.8c1,0.5,2.3,0.9,3.5,0.9c0.2,0,0.4,0,0.6,0L354.3,115
		c-9.2-21.9-22.4-41.5-39.3-58.4C280.5,22,234.6,3,185.8,3S91.1,22,56.5,56.6C21,92.2,1.6,141.1,3.1,191.3L135.9,58.4
		C146.3,48,160.1,42.2,175,42.2c9.2,0,18.5,2.3,27,6.5c6,3,11.4,6.9,16,11.5c12.1,12.2,17.8,28.2,15.5,44l-0.3,1.6
		c-0.7,3.6-2.4,11.7-4.6,22.4l-0.8,4C219.3,172.9,203.8,247.7,200.8,263.8z"/>
</g>
</svg>
