<?xml version="1.0" encoding="utf-8"?>
<!-- Generator: Adobe Illustrator 26.3.1, SVG Export Plug-In . SVG Version: 6.00 Build 0)  -->
<svg version="1.1" id="Layer_1" xmlns="http://www.w3.org/2000/svg" xmlns:xlink="http://www.w3.org/1999/xlink" x="0px" y="0px"
	 viewBox="0 0 189.4 57.8" style="enable-background:new 0 0 189.4 57.8;" xml:space="preserve">
<style type="text/css">
	.st0{fill:#FFFFFF;}
	.st1{fill:none;}
	.st2{opacity:0.17;}
	.st3{fill:url(#SVGID_00000099656516761485895650000008466827940541175446_);}
</style>
<g>
	<g>
		<path class="st0" d="M2.9,54.1v-7.2H0.1v-1h6.6v1H3.9v7.2H2.9z"/>
		<path class="st0" d="M9.3,54.3c-0.6,0-1.1-0.1-1.6-0.4c-0.4-0.3-0.8-0.6-1-1.1c-0.2-0.5-0.4-1-0.4-1.7c0-0.7,0.1-1.2,0.4-1.7
			c0.2-0.5,0.6-0.9,1-1.1c0.4-0.3,1-0.4,1.5-0.4c0.6,0,1.1,0.1,1.6,0.4c0.4,0.3,0.8,0.7,1,1.2s0.3,1.1,0.3,1.9h-1V51
			c0-0.8-0.2-1.3-0.5-1.7s-0.7-0.6-1.3-0.6c-0.6,0-1.1,0.2-1.4,0.6c-0.3,0.4-0.5,1-0.5,1.7c0,0.7,0.2,1.3,0.5,1.7
			c0.3,0.4,0.8,0.6,1.4,0.6c0.4,0,0.8-0.1,1.1-0.3c0.3-0.2,0.5-0.4,0.7-0.8l1,0.3c-0.2,0.5-0.6,1-1.1,1.3
			C10.4,54.1,9.9,54.3,9.3,54.3z M7.1,51.3v-0.8h4.5v0.8H7.1z"/>
		<path class="st0" d="M15.9,54.3c-0.6,0-1.1-0.1-1.6-0.4c-0.4-0.3-0.8-0.7-1-1.1c-0.2-0.5-0.3-1-0.4-1.7c0-0.6,0.1-1.2,0.4-1.7
			c0.2-0.5,0.6-0.9,1-1.1c0.4-0.3,1-0.4,1.6-0.4c0.6,0,1.2,0.2,1.7,0.5c0.5,0.3,0.8,0.7,0.9,1.3l-1,0.3c-0.1-0.4-0.3-0.6-0.6-0.8
			c-0.3-0.2-0.6-0.3-1-0.3c-0.4,0-0.8,0.1-1,0.3c-0.3,0.2-0.5,0.5-0.6,0.8s-0.2,0.7-0.2,1.2c0,0.7,0.2,1.2,0.5,1.6
			c0.3,0.4,0.8,0.6,1.4,0.6c0.4,0,0.7-0.1,1-0.3c0.3-0.2,0.5-0.4,0.6-0.8l1,0.3c-0.2,0.6-0.5,1-1,1.3S16.5,54.3,15.9,54.3z"/>
		<path class="st0" d="M19.7,54.1V46h0.9v4.5h0.1v3.6H19.7z M24,54.1V51c0-0.3,0-0.6-0.1-0.8s-0.1-0.5-0.3-0.7s-0.3-0.4-0.5-0.5
			c-0.2-0.1-0.5-0.2-0.8-0.2c-0.3,0-0.5,0-0.7,0.1c-0.2,0.1-0.4,0.2-0.5,0.4c-0.1,0.2-0.3,0.4-0.3,0.7s-0.1,0.6-0.1,0.9L20,50.7
			c0-0.6,0.1-1.1,0.3-1.5s0.5-0.8,0.9-1c0.4-0.2,0.8-0.3,1.4-0.3c0.4,0,0.7,0.1,1,0.2c0.3,0.1,0.5,0.3,0.7,0.5s0.3,0.4,0.4,0.7
			s0.2,0.5,0.2,0.8s0.1,0.5,0.1,0.7v3.4H24z"/>
		<path class="st0" d="M26.5,54.1V48h0.9v1.6h0.1v4.5H26.5z M30.9,54.1V51c0-0.3,0-0.6-0.1-0.8s-0.1-0.5-0.3-0.7S30.2,49.1,30,49
			c-0.2-0.1-0.5-0.2-0.8-0.2c-0.3,0-0.5,0-0.7,0.1c-0.2,0.1-0.4,0.2-0.5,0.4c-0.1,0.2-0.3,0.4-0.3,0.7s-0.1,0.6-0.1,0.9l-0.7-0.2
			c0-0.6,0.1-1.1,0.3-1.5s0.5-0.8,0.9-1c0.4-0.2,0.8-0.3,1.4-0.3c0.4,0,0.7,0.1,1,0.2c0.3,0.1,0.5,0.3,0.7,0.5s0.3,0.4,0.4,0.7
			s0.2,0.5,0.2,0.8s0.1,0.5,0.1,0.7v3.4H30.9z"/>
		<path class="st0" d="M35.9,54.3c-0.6,0-1.1-0.1-1.6-0.4c-0.4-0.3-0.8-0.7-1-1.1c-0.2-0.5-0.4-1-0.4-1.7c0-0.6,0.1-1.2,0.4-1.7
			s0.6-0.9,1-1.1c0.4-0.3,1-0.4,1.6-0.4c0.6,0,1.1,0.1,1.6,0.4c0.4,0.3,0.8,0.7,1,1.1s0.4,1,0.4,1.7c0,0.6-0.1,1.2-0.4,1.7
			c-0.2,0.5-0.6,0.9-1,1.1C37,54.1,36.5,54.3,35.9,54.3z M35.9,53.3c0.6,0,1.1-0.2,1.4-0.6c0.3-0.4,0.5-1,0.5-1.6
			c0-0.7-0.2-1.2-0.5-1.6s-0.8-0.6-1.4-0.6c-0.4,0-0.8,0.1-1.1,0.3c-0.3,0.2-0.5,0.5-0.6,0.8C34.1,50.2,34,50.6,34,51
			c0,0.7,0.2,1.2,0.5,1.7S35.3,53.3,35.9,53.3z"/>
		<path class="st0" d="M40.2,54.1v-8.3h1v8.3H40.2z"/>
		<path class="st0" d="M45.5,54.3c-0.6,0-1.1-0.1-1.6-0.4c-0.4-0.3-0.8-0.7-1-1.1c-0.2-0.5-0.4-1-0.4-1.7c0-0.6,0.1-1.2,0.4-1.7
			s0.6-0.9,1-1.1c0.4-0.3,1-0.4,1.6-0.4c0.6,0,1.1,0.1,1.6,0.4c0.4,0.3,0.8,0.7,1,1.1s0.4,1,0.4,1.7c0,0.6-0.1,1.2-0.4,1.7
			c-0.2,0.5-0.6,0.9-1,1.1C46.6,54.1,46.1,54.3,45.5,54.3z M45.5,53.3c0.6,0,1.1-0.2,1.4-0.6c0.3-0.4,0.5-1,0.5-1.6
			c0-0.7-0.2-1.2-0.5-1.6s-0.8-0.6-1.4-0.6c-0.4,0-0.8,0.1-1.1,0.3c-0.3,0.2-0.5,0.5-0.6,0.8c-0.1,0.3-0.2,0.7-0.2,1.2
			c0,0.7,0.2,1.2,0.5,1.7S44.9,53.3,45.5,53.3z"/>
		<path class="st0" d="M52.1,54.3c-0.6,0-1.1-0.1-1.5-0.4s-0.7-0.7-0.9-1.2c-0.2-0.5-0.3-1-0.3-1.6s0.1-1.2,0.3-1.6
			c0.2-0.5,0.5-0.9,0.9-1.2c0.4-0.3,0.9-0.4,1.5-0.4c0.6,0,1.1,0.1,1.5,0.4c0.4,0.3,0.7,0.7,0.9,1.1c0.2,0.5,0.3,1,0.3,1.7
			c0,0.6-0.1,1.2-0.3,1.6c-0.2,0.5-0.5,0.9-0.9,1.2S52.6,54.3,52.1,54.3z M52.1,57c-0.3,0-0.6,0-0.9-0.1c-0.3-0.1-0.6-0.2-0.8-0.4
			s-0.5-0.4-0.6-0.7l0.9-0.5c0.2,0.3,0.4,0.5,0.6,0.7c0.3,0.1,0.6,0.2,0.9,0.2c0.4,0,0.7-0.1,1-0.2c0.3-0.1,0.4-0.4,0.6-0.6
			c0.1-0.3,0.2-0.6,0.2-1v-1.7H54V48h0.9v6.1c0,0.2,0,0.3,0,0.5c0,0.2,0,0.3-0.1,0.5c-0.1,0.4-0.2,0.8-0.5,1.1s-0.5,0.5-0.9,0.6
			C53.1,56.9,52.6,57,52.1,57z M52.2,53.4c0.4,0,0.7-0.1,1-0.3s0.5-0.5,0.6-0.8c0.1-0.3,0.2-0.7,0.2-1.2c0-0.5-0.1-0.9-0.2-1.2
			c-0.1-0.3-0.3-0.6-0.6-0.8c-0.3-0.2-0.6-0.3-1-0.3c-0.4,0-0.8,0.1-1,0.3c-0.3,0.2-0.5,0.5-0.6,0.8s-0.2,0.7-0.2,1.2
			c0,0.4,0.1,0.8,0.2,1.2c0.1,0.3,0.3,0.6,0.6,0.8S51.8,53.4,52.2,53.4z"/>
		<path class="st0" d="M56.6,46.9v-1h1v1H56.6z M56.6,54.1V48h1v6.1H56.6z"/>
		<path class="st0" d="M61.9,54.3c-0.6,0-1.1-0.1-1.6-0.4c-0.4-0.3-0.8-0.6-1-1.1c-0.2-0.5-0.4-1-0.4-1.7c0-0.7,0.1-1.2,0.4-1.7
			c0.2-0.5,0.6-0.9,1-1.1c0.4-0.3,1-0.4,1.5-0.4c0.6,0,1.1,0.1,1.6,0.4c0.4,0.3,0.8,0.7,1,1.2s0.3,1.1,0.3,1.9h-1V51
			c0-0.8-0.2-1.3-0.5-1.7s-0.7-0.6-1.3-0.6c-0.6,0-1.1,0.2-1.4,0.6c-0.3,0.4-0.5,1-0.5,1.7c0,0.7,0.2,1.3,0.5,1.7
			c0.3,0.4,0.8,0.6,1.4,0.6c0.4,0,0.8-0.1,1.1-0.3c0.3-0.2,0.5-0.4,0.7-0.8l1,0.3c-0.2,0.5-0.6,1-1.1,1.3
			C63,54.1,62.5,54.3,61.9,54.3z M59.7,51.3v-0.8h4.5v0.8H59.7z"/>
		<path class="st0" d="M68.3,54.3c-0.7,0-1.3-0.2-1.8-0.5c-0.5-0.3-0.8-0.8-0.9-1.3l1-0.2c0.1,0.3,0.3,0.6,0.6,0.8
			c0.3,0.2,0.7,0.3,1.1,0.3c0.4,0,0.7-0.1,1-0.3c0.2-0.2,0.4-0.4,0.4-0.7c0-0.2,0-0.3-0.1-0.4s-0.2-0.2-0.5-0.3s-0.6-0.2-1.1-0.3
			c-0.5-0.1-1-0.3-1.3-0.4s-0.5-0.3-0.7-0.5s-0.2-0.5-0.2-0.7c0-0.4,0.1-0.7,0.3-0.9c0.2-0.3,0.5-0.5,0.8-0.6
			c0.4-0.1,0.8-0.2,1.2-0.2c0.5,0,0.9,0.1,1.2,0.2s0.7,0.4,0.9,0.6c0.2,0.3,0.4,0.6,0.4,0.9l-1,0.2c0-0.3-0.2-0.6-0.5-0.8
			c-0.3-0.2-0.6-0.3-1-0.3c-0.4,0-0.7,0.1-1,0.2c-0.2,0.2-0.4,0.4-0.4,0.6c0,0.1,0,0.3,0.1,0.4c0.1,0.1,0.3,0.2,0.5,0.3
			c0.2,0.1,0.6,0.2,1.1,0.3c0.5,0.1,1,0.3,1.3,0.4c0.3,0.2,0.5,0.3,0.7,0.6s0.2,0.5,0.2,0.8c0,0.6-0.2,1-0.7,1.4
			C69.6,54.1,69,54.3,68.3,54.3z"/>
	</g>
	<g>
		<path class="st0" d="M26.6,17v19c0,0.9-0.8,1.8-1.9,2.1c-0.3,0.1-0.5,0.1-0.7,0.1c-0.6,0-1.1-0.3-1.4-0.8
			c-1.1-1.6-7.1-10.7-10.3-15.6l-0.1-0.1c-0.9-1.4-1.6-2.4-1.9-2.9l-0.1-0.1c-0.9-1.2-2.4-1.9-4.1-1.9c-0.7,0-1.4,0.1-2,0.3
			C1.6,18.1,0,20.2,0,22.6v18.9h3.7V22.6c0-1.2,1.2-1.7,1.5-1.8c0.3-0.1,0.6-0.1,0.9-0.1c0.3,0,0.8,0.1,1.1,0.4
			c0.3,0.4,0.9,1.4,1.7,2.6l0.2,0.3c3.2,4.9,9.2,14,10.3,15.6c1,1.5,2.7,2.4,4.5,2.4h0c0.6,0,1.2-0.1,1.8-0.3
			c2.7-0.8,4.5-3.2,4.5-5.7V17H26.6z"/>
		<rect x="34.3" y="17.2" class="st0" width="3.7" height="24.5"/>
		<path class="st0" d="M51,20.7h12.6V17H51c-5,0-9,4-9,9v6.8c0,5,4,9,9,9h12.6v-3.7H51c-2.9,0-5.3-2.4-5.3-5.3V26
			C45.7,23.1,48.1,20.7,51,20.7z"/>
		<path class="st0" d="M107,20.7h12.6V17H107c-5,0-9,4-9,9v6.8c0,5,4,9,9,9h12.6v-3.7H107c-2.9,0-5.3-2.4-5.3-5.3v-1.6h13.7v-3.7
			h-13.7V26C101.8,23.1,104.1,20.7,107,20.7z"/>
		<polygon class="st0" points="90.3,17.2 90.3,27.6 71.3,27.6 71.3,17.2 67.5,17.2 67.5,41.7 71.3,41.7 71.3,31.3 90.3,31.3 
			90.3,41.7 94,41.7 94,17.2 		"/>
	</g>
	<path class="st0" d="M152.8,9.1l-21.2,21.2c-0.4-7.8,2.4-15.8,8.4-21.8c11.3-11.3,29.6-11.3,40.9,0c2.8,2.8,4.9,6,6.3,9.4
		l-23.6,23.6c0,0-0.1,0-0.2,0c-0.2,0-0.5-0.1-0.7-0.2c-0.1,0-0.1-0.1-0.1-0.1c0,0,0,0,0,0c0.4-2.2,2.9-14.3,4.3-20.8l0.1-0.6
		c0.3-1.7,0.6-2.9,0.7-3.5l0,0l0-0.1l0-0.1c0.3-2.4-0.5-4.8-2.4-6.7c-0.7-0.7-1.5-1.3-2.4-1.8c-1.3-0.7-2.7-1-4.1-1
		C156.5,6.6,154.4,7.5,152.8,9.1z M169.5,47.5c-1.6,1.6-3.8,2.4-6.1,2.4c0,0,0,0,0,0c-1.6,0-3.2-0.4-4.6-1.1c-0.8-0.4-1.6-1-2.2-1.6
		c-2-2-2.8-4.7-2.3-7.5c0.4-2.3,2.9-14.5,4.3-21.1c0,0,0.6-2.7,0.7-3.3c0,0-0.1-0.1-0.1-0.1c-0.1-0.1-0.2-0.1-0.3-0.1l-25,25
		c1.4,3.4,3.5,6.5,6.2,9.3c11.3,11.3,29.6,11.3,40.9,0c6-6,8.8-13.9,8.4-21.7L169.5,47.5z"/>
</g>
</svg>
