<?xml version="1.0" encoding="utf-8"?>
<!-- Generator: Adobe Illustrator 26.3.1, SVG Export Plug-In . SVG Version: 6.00 Build 0)  -->
<svg version="1.1" id="Layer_1" xmlns="http://www.w3.org/2000/svg" xmlns:xlink="http://www.w3.org/1999/xlink" x="0px" y="0px"
	 viewBox="0 0 354.5 354.5" style="enable-background:new 0 0 354.5 354.5;" xml:space="preserve">
<style type="text/css">
	.st0{fill:#FFFFFF;}
	.st1{fill:none;}
	.st2{opacity:0.17;}
	.st3{fill:url(#SVGID_00000020389844713863042250000009397478264765650587_);}
</style>
<g>
	
		<linearGradient id="SVGID_00000013177476331942954800000015862213354228160943_" gradientUnits="userSpaceOnUse" x1="177.2606" y1="-3.6648" x2="177.2606" y2="355.7227">
		<stop  offset="0" style="stop-color:#FFFFFF"/>
		<stop  offset="1" style="stop-color:#FFFFFF;stop-opacity:0"/>
	</linearGradient>
	<path style="fill:url(#SVGID_00000013177476331942954800000015862213354228160943_);" d="M177.3,354.5
		c-47.4,0-91.9-18.4-125.3-51.9c-16.4-16.4-29.3-35.6-38.2-56.9l-0.4-0.9L166.4,91.7l0.7,0.1c0.8,0.1,1.8,0.4,2.6,0.8
		c0.3,0.2,0.6,0.3,0.9,0.6l0.8,0.6l-0.2,1c-0.9,4.1-4.2,20.4-4.2,20.4c-8.3,39.9-23.7,114.2-26.2,128.1c-3,16.4,1.9,32.5,13.6,44.1
		c3.8,3.8,8.3,7.1,13.3,9.7c8.5,4.4,17.9,6.8,27.3,6.8c14.1,0,27-5.1,36.3-14.4l123.1-123.1l0.1,3.4c2.1,49.5-16.7,98-51.7,133
		C269.1,336.1,224.6,354.5,177.3,354.5z M16.9,245.5c8.7,20.6,21.2,39.1,37.2,55c32.9,32.9,76.7,51,123.2,51
		c46.5,0,90.3-18.1,123.2-51c33.6-33.6,52.1-79.8,51-127.3L233.2,291.4c-9.9,9.9-23.5,15.3-38.4,15.3c-9.9,0-19.8-2.5-28.7-7.1
		c-5.3-2.8-10-6.2-14-10.2c-12.4-12.4-17.6-29.4-14.4-46.8c2.5-13.9,17.9-88.2,26.2-128.2c0,0,2.9-14,4-19.3
		c-0.2-0.1-0.4-0.2-0.6-0.2L16.9,245.5z M194.9,255.2c-1.6,0-3.3-0.4-4.7-1.2c-0.4-0.2-0.8-0.5-1.1-0.7l-0.6-0.5l0-1
		c2.4-13.3,17.7-87,25.9-126.6l0.8-3.6c2.1-10.2,3.7-17.9,4.4-21.3l0.2-1.3c2-14.1-3-28.5-14-39.4c-4.2-4.2-9.1-7.7-14.5-10.4
		c-7.7-3.9-16.2-5.9-24.5-5.9c-13.3,0-25.9,5.2-35.2,14.5L0.4,189.1l-0.2-3.4c-2.4-49.8,16.5-98.6,51.7-133.8
		C85.4,18.4,129.9,0,177.3,0c47.3,0,91.9,18.4,125.3,51.9c16.6,16.6,29.5,35.9,38.5,57.5l0.4,0.9l-0.7,0.7L196.9,254.9l-0.4,0.1
		C196.2,255.1,195.6,255.2,194.9,255.2z M191.7,251.4c1,0.5,2.2,0.8,3.2,0.8c0.2,0,0.4,0,0.5,0l142.5-142.5
		c-8.7-20.8-21.3-39.5-37.4-55.6C267.6,21.1,223.8,3,177.3,3C130.7,3,87,21.1,54,54c-33.8,33.8-52.3,80.3-51,128.1L129.6,55.6
		l1.1,1.1l-1.1-1.1c9.9-9.9,23.2-15.4,37.3-15.4c8.8,0,17.7,2.2,25.8,6.2c5.7,2.9,10.9,6.6,15.3,11c11.6,11.6,17,26.9,14.8,42
		l-0.3,1.5c-0.7,3.4-2.3,11.1-4.4,21.3l-0.8,3.6C209.3,164.6,194.5,235.8,191.7,251.4z"/>
</g>
</svg>
