<?xml version="1.0" encoding="utf-8"?>
<!-- Generator: Adobe Illustrator 26.3.1, SVG Export Plug-In . SVG Version: 6.00 Build 0)  -->
<svg version="1.1" id="Layer_1" xmlns="http://www.w3.org/2000/svg" xmlns:xlink="http://www.w3.org/1999/xlink" x="0px" y="0px"
	 viewBox="0 0 602.9 678.2" style="enable-background:new 0 0 602.9 678.2;" xml:space="preserve">
<style type="text/css">
	.st0{fill:#4C80B2;}
	.st1{fill:#2C5578;}
	.st2{fill:#0F283E;}
</style>
<g>
	<g>
		<path class="st0" d="M124.2,525.5c0,7.9,0,15,0.1,21.2c0.1,6.2,0.3,11.1,0.7,14.6c0.2,2.4,0.7,4.4,1.5,6.1c0.8,1.6,2.4,2.6,4.9,3
			c1.2,0.2,2.6,0.4,4,0.5c1.5,0.1,2.6,0.2,3.4,0.2c0.9,0,1.3,0.3,1.3,1c0,0.9-0.9,1.3-2.6,1.3c-2.3,0-4.6,0-6.9-0.1
			c-2.3-0.1-4.4-0.1-6.3-0.2c-1.9-0.1-3.5-0.1-4.8-0.2c-1.3-0.1-2-0.1-2.2-0.1c-0.2,0-1,0-2.2,0.1c-1.3,0.1-2.7,0.1-4.4,0.2
			c-1.6,0.1-3.3,0.1-5.1,0.2c-1.8,0.1-3.2,0.1-4.4,0.1c-1.8,0-2.6-0.4-2.6-1.3c0-0.7,0.4-1,1.3-1c0.8,0,1.6-0.1,2.5-0.2
			c0.9-0.1,1.7-0.3,2.5-0.5c1.6-0.3,2.8-1.3,3.4-3c0.6-1.6,1.1-3.7,1.4-6.1c0.4-3.5,0.7-8.4,0.7-14.6c0.1-6.2,0.1-13.3,0.1-21.2
			v-17.3c0-0.7-0.3-1-1-1H39.6c-0.7,0-1,0.3-1,1v17.3c0,7.9,0,15,0.1,21.2c0.1,6.2,0.3,11.1,0.7,14.6c0.2,2.4,0.7,4.4,1.5,6.1
			c0.8,1.6,2.4,2.6,4.9,3c1.2,0.2,2.6,0.4,4,0.5c1.5,0.1,2.6,0.2,3.4,0.2c0.9,0,1.3,0.3,1.3,1c0,0.9-0.9,1.3-2.6,1.3
			c-2.3,0-4.6,0-6.9-0.1c-2.3-0.1-4.4-0.1-6.3-0.2c-1.9-0.1-3.5-0.1-4.8-0.2c-1.3-0.1-2-0.1-2.2-0.1c-0.2,0-1,0-2.2,0.1
			c-1.3,0.1-2.7,0.1-4.4,0.2c-1.6,0.1-3.3,0.1-5.1,0.2c-1.8,0.1-3.2,0.1-4.4,0.1c-1.8,0-2.6-0.4-2.6-1.3c0-0.7,0.4-1,1.3-1
			c0.8,0,1.6-0.1,2.5-0.2c0.9-0.1,1.7-0.3,2.5-0.5c1.6-0.3,2.8-1.3,3.4-3c0.6-1.6,1.1-3.7,1.4-6.1c0.4-3.5,0.7-8.4,0.7-14.6
			c0.1-6.2,0.1-13.3,0.1-21.2v-29c0-6.4,0-11.6,0-15.6c0-4.1,0-7.3,0-9.7c0-2.5,0-4.5-0.1-6c-0.1-1.5-0.1-2.9-0.2-4.2
			c-0.2-2.9-0.8-5-1.6-6.4c-0.9-1.4-2.7-2.4-5.4-3c-0.7-0.2-1.6-0.4-2.7-0.4c-1.2-0.1-2.1-0.1-2.9-0.1c-0.9,0-1.3-0.3-1.3-1
			c0-0.9,0.9-1.3,2.6-1.3c1.9,0,3.8,0,5.9,0.1c2.1,0.1,4,0.1,5.8,0.2c1.8,0.1,3.3,0.1,4.6,0.2c1.3,0.1,2,0.1,2.2,0.1
			c0.2,0,1,0,2.2-0.1c1.3-0.1,2.7-0.1,4.4-0.2c1.6-0.1,3.3-0.1,5.1-0.2c1.8-0.1,3.2-0.1,4.4-0.1c1.8,0,2.6,0.4,2.6,1.3
			c0,0.7-0.4,1-1.3,1c-0.6,0-1.1,0-1.7,0.1c-0.6,0.1-1.4,0.2-2.4,0.4c-2.2,0.4-3.7,1.4-4.5,2.9c-0.8,1.5-1.3,3.6-1.6,6.5
			c-0.1,1.3-0.2,2.7-0.2,4.2c-0.1,1.5-0.1,3.5-0.1,6c0,2.4,0,5.7,0,9.7c0,4.1,0,9.3,0,15.6v3.5c0,0.7,0.3,1,1,1h69.8
			c0.7,0,1-0.3,1-1v-3.5c0-6.4,0-11.6,0-15.6c0-4.1,0-7.3,0-9.7c0-2.5,0-4.5-0.1-6c-0.1-1.5-0.1-2.9-0.2-4.2c-0.2-2.9-0.8-5-1.6-6.4
			c-0.9-1.4-2.7-2.4-5.4-3c-0.7-0.2-1.6-0.4-2.7-0.4c-1.2-0.1-2.1-0.1-2.9-0.1c-0.9,0-1.3-0.3-1.3-1c0-0.9,0.9-1.3,2.6-1.3
			c1.9,0,3.8,0,5.9,0.1c2.1,0.1,4,0.1,5.8,0.2c1.8,0.1,3.3,0.1,4.6,0.2c1.3,0.1,2,0.1,2.2,0.1c0.2,0,1,0,2.2-0.1
			c1.3-0.1,2.7-0.1,4.4-0.2c1.6-0.1,3.3-0.1,5.1-0.2c1.8-0.1,3.2-0.1,4.4-0.1c1.8,0,2.6,0.4,2.6,1.3c0,0.7-0.4,1-1.3,1
			c-0.6,0-1.1,0-1.7,0.1c-0.6,0.1-1.4,0.2-2.4,0.4c-2.2,0.4-3.7,1.4-4.5,2.9c-0.8,1.5-1.3,3.6-1.6,6.5c-0.1,1.3-0.2,2.7-0.2,4.2
			c-0.1,1.5-0.1,3.5-0.1,6c0,2.4,0,5.7,0,9.7c0,4.1,0,9.3,0,15.6V525.5z"/>
		<path class="st0" d="M194.5,496.8c1.1-4.9,2.8-9.8,5.1-14.6c2.3-4.8,5.2-9.3,8.6-13.7c3.5-4.3,7.6-8.1,12.4-11.4
			c4.8-3.3,10.3-5.9,16.5-7.8c6.1-1.9,13-2.9,20.6-2.9c9.2,0,17.8,1.4,25.7,4.3c7.9,2.9,14.7,6.9,20.5,12.3
			c5.8,5.3,10.3,11.8,13.6,19.4c3.3,7.6,4.9,16.2,4.9,25.8c0,9.2-1.6,17.9-4.7,26.1c-3.1,8.2-7.5,15.3-13.3,21.4
			c-5.7,6.1-12.6,10.9-20.7,14.5c-8.1,3.6-17.1,5.4-27,5.4c-11.3,0-21-2-29.1-5.9c-8.1-4-14.7-9.1-19.8-15.3
			c-5.2-6.3-8.9-13.2-11.4-20.8c-2.4-7.6-3.6-15.2-3.6-22.6C192.9,506.4,193.4,501.8,194.5,496.8z M212.5,532.2
			c2.7,7.8,6.4,14.4,11.2,19.9c4.8,5.5,10.3,9.7,16.7,12.7c6.4,3,13.3,4.4,20.7,4.4c3.7,0,8.2-0.7,13.3-2.1
			c5.2-1.4,10.1-4.1,14.9-8.1c4.8-4.1,8.8-9.8,12.2-17.2c3.3-7.4,5-17.1,5-29.1c0-9.9-1.4-18.6-4.2-26.2c-2.8-7.6-6.5-13.9-11.1-19
			c-4.6-5.1-9.9-9-16-11.6c-6-2.6-12.3-4-18.8-4c-6.9,0-13.3,1.1-19.2,3.4c-5.9,2.3-10.9,5.7-15.2,10.2c-4.3,4.6-7.6,10.2-10,17
			c-2.4,6.7-3.6,14.6-3.6,23.6C208.5,515.7,209.8,524.4,212.5,532.2z"/>
		<path class="st0" d="M395.2,496.5c0-6.4,0-11.6,0-15.6c0-4.1,0-7.3,0-9.7c0-2.5,0-4.5-0.1-6c-0.1-1.5-0.1-2.9-0.2-4.2
			c-0.2-2.9-0.8-5-1.6-6.4c-0.9-1.4-2.7-2.4-5.4-3c-0.7-0.2-1.6-0.4-2.7-0.4c-1.2-0.1-2.1-0.1-2.9-0.1c-0.9,0-1.3-0.3-1.3-1
			c0-0.9,0.9-1.3,2.6-1.3c1.9,0,3.8,0,5.8,0.1c2,0.1,4,0.1,5.8,0.2c1.8,0.1,3.3,0.1,4.6,0.2c1.3,0.1,2.1,0.1,2.4,0.1
			c1.9,0,4.8-0.1,8.9-0.2c4.1-0.2,8-0.2,11.9-0.2c5.2,0,9.5,0.4,13.1,1.2c3.6,0.8,6.6,1.6,9,2.6c2.4,1,4.3,2,5.6,3
			c1.3,1,2.3,1.9,3,2.6c1.9,1.8,3.7,4.4,5.5,7.8c1.8,3.5,2.7,7.4,2.7,11.8c0,5.8-1,11.1-3,16c-2,4.8-4.9,9-8.5,12.4
			c-3.6,3.5-7.9,6.1-12.8,8c-4.9,1.9-10.3,2.8-16.1,2.8c-0.4,0-1,0-1.8,0c-0.7,0-1.2-0.1-1.6-0.2c-0.4,0-0.9-0.1-1.2-0.2
			c-0.4-0.2-0.6-0.5-0.6-0.9c0-0.7,0.3-1.1,0.9-1.2c0.6-0.2,1.8-0.2,3.5-0.2c4,0,7.7-0.7,11.2-2.1c3.5-1.4,6.5-3.3,9.1-5.7
			c2.5-2.4,4.5-5.2,6-8.5c1.5-3.2,2.2-6.8,2.2-10.6c0-1.3-0.1-3-0.2-4.9c-0.2-2-0.5-4.1-1.2-6.4c-0.6-2.3-1.5-4.7-2.7-7.1
			c-1.2-2.4-2.9-4.7-5.1-6.9c-2.2-2.2-4.4-3.9-6.7-5c-2.2-1.2-4.4-2-6.4-2.5c-2-0.5-3.9-0.7-5.5-0.7c-1.6,0-3,0-4,0
			c-1.4,0-2.8,0.1-4,0.2c-1.3,0.2-2.3,0.4-3,0.7c-0.9,0.3-1.3,1.4-1.3,3.1v67.7c0,7.9,0,15,0.1,21.2c0.1,6.2,0.3,11.1,0.7,14.6
			c0.2,2.4,0.7,4.4,1.5,6.1c0.8,1.6,2.4,2.6,4.9,3c1.2,0.2,2.6,0.4,4,0.5c1.5,0.1,2.6,0.2,3.4,0.2c0.9,0,1.3,0.3,1.3,1
			c0,0.9-0.9,1.3-2.6,1.3c-2.3,0-4.6,0-6.9-0.1c-2.3-0.1-4.4-0.1-6.3-0.2c-1.9-0.1-3.5-0.1-4.8-0.2c-1.3-0.1-2-0.1-2.2-0.1
			c-0.1,0-0.8,0-2,0.1c-1.2,0.1-2.6,0.1-4.3,0.2c-1.6,0.1-3.3,0.1-5.1,0.2c-1.8,0.1-3.2,0.1-4.4,0.1c-1.8,0-2.6-0.4-2.6-1.3
			c0-0.7,0.4-1,1.3-1c0.8,0,1.6-0.1,2.5-0.2c0.9-0.1,1.7-0.3,2.5-0.5c1.6-0.3,2.8-1.3,3.4-3c0.6-1.6,1.1-3.7,1.4-6.1
			c0.4-3.5,0.7-8.4,0.7-14.6c0.1-6.2,0.1-13.3,0.1-21.2V496.5z"/>
		<path class="st0" d="M533.8,496.5c0-6.4,0-11.6,0-15.6c0-4.1,0-7.3,0-9.7c0-2.5,0-4.5-0.1-6c-0.1-1.5-0.1-2.9-0.2-4.2
			c-0.2-2.9-0.8-5-1.6-6.4c-0.9-1.4-2.7-2.4-5.4-3c-0.7-0.2-1.6-0.4-2.7-0.4c-1.2-0.1-2.1-0.1-2.9-0.1c-0.9,0-1.3-0.3-1.3-1
			c0-0.9,0.9-1.3,2.6-1.3c1.9,0,3.8,0,5.9,0c2.1,0,4.1,0.1,5.9,0.2l6.7,0.3c0.3,0,2.2,0,5.8,0c3.6,0,7.6,0,12,0
			c4.5,0,8.7,0,12.6-0.1c3.9-0.1,6.3-0.1,7.3-0.1c3.2-0.2,5.5-0.5,7.1-0.8c0.4-0.1,0.8-0.3,1.2-0.5c0.3-0.2,0.7-0.3,1.2-0.3
			c0.4,0,0.7,0.5,0.7,1.5c0,0.6-0.2,1.4-0.5,2.6c-0.3,1.2-0.6,2.9-0.8,5.2c0,0.4,0,1.2-0.1,2.1c-0.1,1-0.1,2.1-0.2,3.2
			c-0.1,1.2-0.2,2.3-0.2,3.3c-0.1,1-0.1,1.8-0.2,2.2c-0.1,0.4-0.2,0.9-0.4,1.2c-0.2,0.4-0.4,0.6-0.7,0.6c-0.9,0-1.3-0.7-1.3-2.1
			c0-0.5-0.1-1.4-0.2-2.6c-0.1-1.2-0.4-2.3-0.8-3.3c-0.6-1.3-1.5-2.4-3-3.4c-1.4-0.9-4.3-1.7-8.7-2.2c-0.7-0.1-2.1-0.2-4.4-0.2
			c-2.3-0.1-4.7-0.1-7.2-0.2c-2.5-0.1-4.9-0.1-7.1-0.1c-2.1,0-3.3,0-3.8,0c-0.7,0-1,0.6-1,1.6v45.4c0,1.1,0.3,1.6,1,1.6
			c0.5,0,2,0,4.4,0c2.4,0,5,0,7.9,0c3,0,5.8,0,8.4-0.1c2.6-0.1,4.4-0.1,5.4-0.2c2-0.2,3.6-0.4,4.8-0.7c1.2-0.2,2.2-0.8,3-1.6
			c1.2-1.4,2-2.1,2.5-2.1c0.5,0,0.8,0.4,0.8,1.3c0,0.6-0.2,1.5-0.5,3c-0.3,1.4-0.6,3.5-0.8,6.3c-0.1,0.9-0.2,1.8-0.2,2.9
			c-0.1,1-0.1,2.1-0.2,3.1c-0.1,1-0.1,2-0.2,2.8c-0.1,0.8-0.1,1.4-0.1,1.7c0,0.7-0.1,1.3-0.2,2.1c-0.1,0.7-0.4,1.1-1,1.1
			c-0.8,0-1.2-0.5-1.2-1.5c0-0.9,0-1.7-0.1-2.6c-0.1-0.8-0.2-1.8-0.6-2.9c-0.3-1.2-1-2.4-2.1-3.5c-1.1-1.2-3.2-1.9-6.4-2.2
			c-1.1-0.1-2.8-0.2-5.2-0.3c-2.4-0.1-4.8-0.2-7.2-0.2c-2.5-0.1-4.8-0.1-6.9-0.2c-2.1-0.1-3.5-0.1-4.2-0.1c-0.8,0-1.2,0.4-1.2,1.2
			v14.5c0,1.4,0,3.5,0,6.3c0,2.7,0,5.6,0,8.6c0,3,0,5.7,0,8.2c0,2.5,0,4.2,0,5.1c0.1,2.9,0.4,5.2,0.9,6.9c0.5,1.8,1.4,3.1,2.8,4.1
			c1.4,1,3.3,1.6,5.7,2c2.4,0.3,5.7,0.5,9.7,0.5c2.2,0,4.8-0.1,7.9-0.2c3.1-0.2,5.7-0.7,7.9-1.6c2.2-0.9,3.8-2.2,4.9-4
			c1.1-1.8,1.9-4.4,2.5-7.8c0.3-1.6,0.8-2.5,1.5-2.5c0.5,0,0.8,0.3,0.9,0.8c0.1,0.6,0.1,1.1,0.1,1.6c0,0.3-0.1,1.2-0.2,2.6
			c-0.2,1.4-0.4,2.9-0.6,4.6c-0.2,1.7-0.4,3.4-0.7,5c-0.2,1.6-0.4,2.9-0.7,3.8c-0.3,1.1-0.7,1.9-1,2.5c-0.3,0.6-0.8,1-1.5,1.2
			c-0.7,0.3-1.5,0.4-2.5,0.5c-1,0.1-2.3,0.1-4,0.1c-6.3,0-11.7-0.1-16.2-0.2c-4.6-0.1-8.4-0.2-11.6-0.3c-3.2-0.2-5.8-0.4-7.9-0.4
			c-2.1-0.1-3.7-0.1-4.9-0.1c-0.2,0-0.9,0-2.1,0c-1.2,0-2.7,0.1-4.4,0.2c-1.6,0-3.3,0.1-5.1,0.2c-1.8,0.1-3.2,0.2-4.4,0.2
			c-1.8,0-2.6-0.4-2.6-1.3c0-0.7,0.4-1,1.3-1c0.8,0,1.6-0.1,2.5-0.2c0.9-0.1,1.7-0.3,2.5-0.5c1.6-0.3,2.8-1.3,3.4-3
			c0.6-1.6,1.1-3.7,1.4-6.1c0.4-3.5,0.7-8.4,0.7-14.6c0.1-6.2,0.1-13.3,0.1-21.2V496.5z"/>
	</g>
	<g>
		<path class="st1" d="M128.8,657.6l-12-41.3h5.3l9.2,32.7l9.1-32.6l5.4,0l9.2,32.7l9.1-32.7h5.4l-12,41.3h-5.1l-9.3-32.4l-9.3,32.4
			H128.8z"/>
		<path class="st1" d="M185.9,657.6v-41.3H212v4.8h-21v12.9h17.6v4.8H191v13.8h21v4.8H185.9z"/>
		<path class="st1" d="M230.9,657.6v-41.3h5.1v36.5h19.2v4.8H230.9z"/>
		<path class="st1" d="M272.1,657.6v-41.3h5.1v36.5h19.2v4.8H272.1z"/>
		<path class="st1" d="M312.7,657.6v-41.3h5.2l21.5,32.3v-32.3h5.2v41.3h-5.2l-21.5-32.3v32.3H312.7z"/>
		<path class="st1" d="M364.1,657.6v-41.3h26.1v4.8h-21v12.9h17.6v4.8h-17.6v13.8h21v4.8H364.1z"/>
		<path class="st1" d="M422.1,658.5c-2.9,0-5.6-0.5-7.9-1.5c-2.3-1-4.3-2.4-5.8-4.3c-1.5-1.8-2.5-4-3-6.6l5.3-0.8
			c0.7,2.6,2.1,4.6,4.2,6.1c2.1,1.5,4.6,2.2,7.5,2.2c1.9,0,3.5-0.3,5-0.9c1.5-0.6,2.7-1.4,3.6-2.5c0.9-1.1,1.3-2.4,1.3-3.9
			c0-0.9-0.2-1.7-0.5-2.4c-0.3-0.7-0.7-1.2-1.3-1.7c-0.5-0.5-1.2-0.9-1.8-1.2c-0.7-0.3-1.4-0.6-2.2-0.8l-10.5-3.1
			c-1.1-0.3-2.3-0.8-3.3-1.3c-1.1-0.5-2-1.2-2.9-2c-0.8-0.8-1.5-1.7-2-2.9c-0.5-1.1-0.7-2.4-0.7-4c0-2.4,0.6-4.5,1.9-6.3
			c1.3-1.7,3-3.1,5.2-4s4.6-1.4,7.4-1.3c2.8,0,5.3,0.5,7.4,1.5c2.2,1,4,2.3,5.4,4.1c1.4,1.8,2.4,3.9,2.9,6.5l-5.4,0.9
			c-0.3-1.7-0.9-3.1-1.9-4.3c-1-1.2-2.2-2.2-3.7-2.8c-1.5-0.7-3.1-1-4.8-1c-1.7,0-3.2,0.2-4.6,0.8c-1.4,0.6-2.4,1.3-3.2,2.3
			c-0.8,1-1.2,2.1-1.2,3.4c0,1.3,0.4,2.3,1.1,3.1c0.7,0.8,1.6,1.4,2.7,1.8c1.1,0.4,2.1,0.8,3.1,1.1l7.9,2.3c0.9,0.2,1.9,0.6,3.1,1
			c1.2,0.4,2.3,1.1,3.4,1.8c1.1,0.8,2,1.8,2.8,3.2c0.7,1.3,1.1,3,1.1,4.9c0,2-0.4,3.8-1.2,5.3c-0.8,1.5-1.9,2.8-3.3,3.9
			c-1.4,1-3.1,1.8-4.9,2.4C426.2,658.2,424.2,658.5,422.1,658.5z"/>
		<path class="st1" d="M470.5,658.5c-2.9,0-5.6-0.5-7.9-1.5c-2.3-1-4.3-2.4-5.8-4.3c-1.5-1.8-2.5-4-3-6.6l5.3-0.8
			c0.7,2.6,2.1,4.6,4.2,6.1c2.1,1.5,4.6,2.2,7.5,2.2c1.9,0,3.5-0.3,5-0.9c1.5-0.6,2.7-1.4,3.6-2.5c0.9-1.1,1.3-2.4,1.3-3.9
			c0-0.9-0.2-1.7-0.5-2.4c-0.3-0.7-0.7-1.2-1.3-1.7c-0.5-0.5-1.2-0.9-1.8-1.2c-0.7-0.3-1.4-0.6-2.2-0.8l-10.5-3.1
			c-1.1-0.3-2.3-0.8-3.3-1.3c-1.1-0.5-2-1.2-2.9-2c-0.8-0.8-1.5-1.7-2-2.9c-0.5-1.1-0.7-2.4-0.7-4c0-2.4,0.6-4.5,1.9-6.3
			c1.3-1.7,3-3.1,5.2-4c2.2-0.9,4.6-1.4,7.4-1.3c2.8,0,5.3,0.5,7.4,1.5c2.2,1,4,2.3,5.4,4.1c1.4,1.8,2.4,3.9,2.9,6.5l-5.4,0.9
			c-0.3-1.7-0.9-3.1-1.9-4.3c-1-1.2-2.2-2.2-3.7-2.8c-1.5-0.7-3.1-1-4.8-1c-1.7,0-3.2,0.2-4.6,0.8s-2.4,1.3-3.2,2.3
			c-0.8,1-1.2,2.1-1.2,3.4c0,1.3,0.4,2.3,1.1,3.1c0.7,0.8,1.6,1.4,2.7,1.8c1.1,0.4,2.1,0.8,3.1,1.1l7.9,2.3c0.9,0.2,1.9,0.6,3.1,1
			c1.2,0.4,2.3,1.1,3.4,1.8c1.1,0.8,2,1.8,2.8,3.2c0.7,1.3,1.1,3,1.1,4.9c0,2-0.4,3.8-1.2,5.3c-0.8,1.5-1.9,2.8-3.3,3.9
			s-3.1,1.8-4.9,2.4C474.7,658.2,472.7,658.5,470.5,658.5z"/>
	</g>
	<g>
		<g>
			<circle class="st2" cx="390.7" cy="62.1" r="42.5"/>
			<path class="st2" d="M448.1,284.5c0,43.9-35.6,79.5-79.4,79.5c-4.2,0-8.3-0.3-12.3-0.9c0,0,0-163.4,0-166.6
				c0-43.9,35.6-79.5,79.5-79.5c4.2,0,8.3,0.3,12.3,0.9C448.1,118,448.1,281.3,448.1,284.5z"/>
		</g>
		<g>
			<path class="st2" d="M246.5,363.1c-4,0.6-8.1,0.9-12.3,0.9c-43.9,0-79.4-35.6-79.4-79.5c0-3.2,0-166.6,0-166.6
				c4-0.6,8.1-0.9,12.3-0.9c43.9,0,79.5,35.6,79.5,79.5C246.5,199.7,246.5,363.1,246.5,363.1z"/>
			<circle class="st2" cx="212.1" cy="62.1" r="42.5"/>
		</g>
		<circle class="st2" cx="301.4" cy="242.3" r="42.5"/>
	</g>
</g>
</svg>
