<?xml version="1.0" encoding="utf-8"?>
<!-- Generator: Adobe Illustrator 26.3.1, SVG Export Plug-In . SVG Version: 6.00 Build 0)  -->
<svg version="1.1" id="Layer_1" xmlns="http://www.w3.org/2000/svg" xmlns:xlink="http://www.w3.org/1999/xlink" x="0px" y="0px"
	 viewBox="0 0 328 392" style="enable-background:new 0 0 328 392;" xml:space="preserve">
<style type="text/css">
	.st0{fill:#FFFFFF;}
</style>
<g>
	<g>
		<circle class="st0" cx="253.2" cy="66.3" r="42.5"/>
		<path class="st0" d="M310.6,288.7c0,43.9-35.6,79.5-79.4,79.5c-4.2,0-8.3-0.3-12.3-0.9c0,0,0-163.4,0-166.6
			c0-43.9,35.6-79.5,79.5-79.5c4.2,0,8.3,0.3,12.3,0.9C310.6,122.2,310.6,285.5,310.6,288.7z"/>
	</g>
	<g>
		<path class="st0" d="M109,367.3c-4,0.6-8.1,0.9-12.3,0.9c-43.9,0-79.4-35.6-79.4-79.5c0-3.2,0-166.6,0-166.6
			c4-0.6,8.1-0.9,12.3-0.9c43.9,0,79.5,35.6,79.5,79.5C109,203.9,109,367.3,109,367.3z"/>
		<circle class="st0" cx="74.6" cy="66.3" r="42.5"/>
	</g>
	<circle class="st0" cx="163.9" cy="246.5" r="42.5"/>
</g>
<g>
</g>
<g>
</g>
<g>
</g>
<g>
</g>
<g>
</g>
<g>
</g>
<g>
</g>
<g>
</g>
<g>
</g>
<g>
</g>
<g>
</g>
<g>
</g>
<g>
</g>
<g>
</g>
<g>
</g>
</svg>
