<?xml version="1.0" encoding="utf-8"?>
<!-- Generator: Adobe Illustrator 26.3.1, SVG Export Plug-In . SVG Version: 6.00 Build 0)  -->
<svg version="1.1" id="Layer_1" xmlns="http://www.w3.org/2000/svg" xmlns:xlink="http://www.w3.org/1999/xlink" x="0px" y="0px"
	 viewBox="0 0 553.1 340.7" style="enable-background:new 0 0 553.1 340.7;" xml:space="preserve">
<style type="text/css">
	.st0{fill:none;stroke:#000000;stroke-miterlimit:10;}
	.st1{fill:#4C80B2;}
	.st2{fill:#2C5578;}
	.st3{fill:#0F283E;}
	.st4{fill:none;stroke:#000000;stroke-miterlimit:10;stroke-dasharray:6,6;}
</style>
<g>
	
		<rect x="382.7" y="212.8" transform="matrix(-1.836970e-16 1 -1 -1.836970e-16 637.998 -169.8661)" class="st0" width="42.5" height="42.5"/>
	
		<rect x="340.2" y="212.8" transform="matrix(-1.836970e-16 1 -1 -1.836970e-16 595.5316 -127.3996)" class="st0" width="42.5" height="42.5"/>
	
		<rect x="340.2" y="255.3" transform="matrix(-1.836970e-16 1 -1 -1.836970e-16 680.4646 -84.9331)" class="st0" width="84.9" height="84.9"/>
	
		<rect x="425.2" y="212.8" transform="matrix(-1 -1.224647e-16 1.224647e-16 -1 977.7304 553.065)" class="st0" width="127.4" height="127.4"/>
	
		<rect x="340.2" y="0.5" transform="matrix(-1.836970e-16 1 -1 -1.836970e-16 553.065 -339.7323)" class="st0" width="212.3" height="212.3"/>
	<rect x="0.5" y="0.5" class="st0" width="339.7" height="339.7"/>
	<circle class="st0" cx="170.4" cy="170.4" r="169.9"/>
	<circle class="st0" cx="446.4" cy="106.7" r="106.2"/>
	<circle class="st0" cx="403.9" cy="234.1" r="21.2"/>
	<circle class="st0" cx="361.5" cy="234.1" r="21.2"/>
	<circle class="st0" cx="382.7" cy="297.8" r="42.5"/>
	<circle class="st0" cx="488.9" cy="276.5" r="63.7"/>
	<g>
		<g>
			<path d="M363.3,234.1l6.7,9.2h-2.5l-5.5-7.6l-5.5,7.6H354l6.7-9.2l-6.4-8.7h2.5l5.2,7.2l5.2-7.2h2.4L363.3,234.1z"/>
		</g>
	</g>
	<g>
		<g>
			<path d="M406.2,234.1l6.7,9.2h-2.5l-5.5-7.6l-5.5,7.6H397l6.7-9.2l-6.4-8.7h2.5l5.2,7.2l5.2-7.2h2.4L406.2,234.1z"/>
		</g>
	</g>
	<g>
		<g>
			<path d="M368.2,290.1c0.8-1.3,2.4-3,5.5-3c3.6,0,5.7,2.4,5.7,5.5c0,2.2-1.2,3.8-2.4,5.1l-5.3,5.7h8.3v1.9h-11.3v-1.5l6.8-7.1
				c1.1-1.2,1.8-2.4,1.8-3.9c0-2.1-1.3-3.7-3.7-3.7c-2,0-3.1,1.1-4,2.2L368.2,290.1z"/>
			<path d="M391.2,296.1l6.7,9.2h-2.5l-5.5-7.6l-5.5,7.6H382l6.7-9.2l-6.4-8.7h2.5l5.2,7.2l5.2-7.2h2.4L391.2,296.1z"/>
		</g>
	</g>
	<g>
		<g>
			<path d="M483.6,273.4c0,2.1-1.1,3.5-2.8,4.2c1.9,0.7,3.2,2.1,3.2,4.2c0,3.4-3,5-6.2,5c-2.5,0-4.5-0.9-5.8-2.4l1.3-1.3
				c1.1,1.2,2.7,1.8,4.5,1.8c2.2,0,4.1-1,4.1-3.3c0-2.1-1.9-3.2-4.3-3.2h-2.4v-1.8h2.3c2.2,0,3.9-1.1,3.9-3.2c0-1.9-1.7-3.2-4-3.2
				c-1.8,0-3.2,0.9-4,2l-1.4-1.2c1-1.5,2.9-2.7,5.5-2.7C481.2,268.5,483.6,270.5,483.6,273.4z"/>
			<path d="M495.4,277.5l6.7,9.2h-2.5l-5.5-7.6l-5.5,7.6h-2.4l6.7-9.2l-6.4-8.7h2.5l5.2,7.2l5.2-7.2h2.4L495.4,277.5z"/>
		</g>
	</g>
	<g>
		<g>
			<path d="M444.1,105.3h-7.9l-0.2,5.3h2.6c4.2,0,6.3,2.4,6.3,5.3c0,3.7-2.7,5.7-6.1,5.7c-2.5,0-4.6-0.9-6.1-2.8l1.3-1.3
				c1.2,1.4,2.9,2.2,4.7,2.2c2.6,0,4.1-1.6,4.1-3.7c0-2-1.3-3.6-4.8-3.6h-3.9l0.2-9h9.7V105.3z"/>
			<path d="M456.5,112.2l6.7,9.2h-2.5l-5.5-7.6l-5.5,7.6h-2.4l6.7-9.2l-6.4-8.7h2.5l5.2,7.2l5.2-7.2h2.4L456.5,112.2z"/>
		</g>
	</g>
	<g>
		<g>
			<path d="M169.3,166.5c0,2.2-1.4,3.5-3.1,4.2c2,0.7,3.5,2,3.5,4.3c0,3.2-3,5-6.6,5c-3.7,0-6.6-1.8-6.6-5c0-2.3,1.6-3.6,3.5-4.3
				c-1.8-0.7-3.1-2-3.1-4.2c0-3.1,2.8-4.9,6.2-4.9S169.3,163.4,169.3,166.5z M158.6,174.9c0,2.2,2.1,3.3,4.6,3.3
				c2.5,0,4.5-1.1,4.5-3.3c0-2.1-2-3.3-4.5-3.3C160.6,171.6,158.6,172.7,158.6,174.9z M159,166.6c0,2.1,1.9,3.2,4.1,3.2
				s4.1-1.1,4.1-3.2c0-2.1-1.9-3.2-4.1-3.2S159,164.6,159,166.6z"/>
			<path d="M181.2,170.6l6.7,9.2h-2.5l-5.5-7.6l-5.5,7.6H172l6.7-9.2l-6.4-8.7h2.5l5.2,7.2l5.2-7.2h2.4L181.2,170.6z"/>
		</g>
	</g>
</g>
</svg>
