<?xml version="1.0" encoding="utf-8"?>
<!-- Generator: Adobe Illustrator 26.3.1, SVG Export Plug-In . SVG Version: 6.00 Build 0)  -->
<svg version="1.1" id="Layer_1" xmlns="http://www.w3.org/2000/svg" xmlns:xlink="http://www.w3.org/1999/xlink" x="0px" y="0px"
	 viewBox="0 0 722.1 1080.7" style="enable-background:new 0 0 722.1 1080.7;" xml:space="preserve">
<style type="text/css">
	.st0{fill:#8CB8E4;}
	.st1{fill:#020408;}
	.st2{fill:#0F283E;}
	.st3{fill:#2C5578;}
	.st4{fill:#4C80B2;}
	.st5{fill:#FFFFFF;}
</style>
<g>
	
		<rect x="253" y="611.5" transform="matrix(-1.836970e-16 1 -1 -1.836970e-16 1333.6323 611.5488)" class="st0" width="216.1" height="722.1"/>
	
		<rect x="253" y="-253" transform="matrix(-1.836970e-16 1 -1 -1.836970e-16 469.1074 -252.9762)" class="st1" width="216.1" height="722.1"/>
	
		<rect x="253" y="-36.8" transform="matrix(-1.836970e-16 1 -1 -1.836970e-16 685.2386 -36.8449)" class="st2" width="216.1" height="722.1"/>
	
		<rect x="253" y="179.3" transform="matrix(-1.836970e-16 1 -1 -1.836970e-16 901.3699 179.2863)" class="st3" width="216.1" height="722.1"/>
	
		<rect x="253" y="395.4" transform="matrix(-1.836970e-16 1 -1 -1.836970e-16 1117.5011 395.4175)" class="st4" width="216.1" height="722.1"/>
	<g>
		<path class="st5" d="M26.1,184v-49.6h18.3c0.5,0,1,0,1.5,0.1c0.5,0,1.1,0.1,1.7,0.2c2.4,0.4,4.5,1.2,6.2,2.6
			c1.8,1.4,3.1,3.1,4.1,5.2c1,2.1,1.4,4.4,1.4,6.8c0,3.5-1,6.6-2.9,9.3c-1.9,2.7-4.5,4.4-7.9,5.1l-0.6,0.5H29V184H26.1z M29,161.2
			h15.4c0.4,0,0.9,0,1.4-0.1c0.5,0,1.1-0.1,1.6-0.2c1.9-0.4,3.5-1.1,4.8-2.3c1.3-1.1,2.3-2.5,2.9-4.2c0.7-1.6,1-3.4,1-5.3
			c0-1.9-0.3-3.6-1-5.3c-0.7-1.6-1.6-3-2.9-4.2c-1.3-1.1-2.9-1.9-4.8-2.3c-0.6-0.1-1.1-0.2-1.6-0.2c-0.5,0-1-0.1-1.4-0.1H29V161.2z
			 M57.1,184l-9.8-20.2l2.5-1.9L60.6,184H57.1z"/>
		<path class="st5" d="M68.9,138.8v-4.4h2.9v4.4H68.9z M68.9,184v-37.2h2.9V184H68.9z"/>
		<path class="st5" d="M97,185c-3.7,0-6.8-0.8-9.3-2.5c-2.5-1.7-4.4-4-5.7-6.9c-1.3-3-2-6.4-2-10.3c0.1-4,0.8-7.4,2.1-10.4
			c1.3-2.9,3.2-5.2,5.7-6.8c2.5-1.6,5.6-2.4,9.3-2.4c3.4,0,6.5,0.8,9.2,2.5c2.7,1.6,4.6,3.9,5.7,6.8l-2.8,1.2
			c-1-2.4-2.6-4.2-4.8-5.5c-2.1-1.3-4.6-2-7.4-2c-3.1,0-5.7,0.7-7.8,2.1c-2,1.4-3.6,3.4-4.6,5.9c-1,2.5-1.5,5.4-1.6,8.7
			c0.1,5.1,1.3,9.1,3.6,12.2c2.3,3.1,5.8,4.6,10.3,4.6c2.7,0,5.2-0.6,7.3-1.9c2.1-1.3,3.7-3.1,4.9-5.5l2.8,1.2
			c-1.5,3-3.6,5.2-6.1,6.8C103.4,184.2,100.4,185,97,185z"/>
		<path class="st5" d="M119.2,184v-49.6h2.7v29.3h0.2V184H119.2z M146.9,184v-19.7c0-2.7-0.3-5-0.8-6.9c-0.5-1.9-1.3-3.5-2.4-4.8
			c-1.1-1.3-2.3-2.2-3.8-2.8c-1.5-0.6-3.2-0.9-5.2-0.9c-2.3,0-4.2,0.4-5.8,1.2c-1.6,0.8-2.9,1.9-3.9,3.3c-1,1.4-1.7,3-2.2,4.8
			c-0.5,1.8-0.7,3.7-0.7,5.7l-2.7,0.1c0-4.2,0.7-7.7,2.1-10.3c1.4-2.6,3.3-4.5,5.6-5.7c2.3-1.2,4.8-1.8,7.6-1.8
			c1.9,0,3.6,0.3,5.2,0.8c1.6,0.5,3,1.3,4.2,2.3c1.2,1,2.3,2.2,3.1,3.7s1.5,3.1,1.9,4.9c0.4,1.8,0.7,3.9,0.7,6.1V184H146.9z"/>
		<path class="st5" d="M172.5,184v-49.6h18.8c2.4,0,4.6,0.5,6.6,1.5c2,1,3.6,2.5,4.9,4.3c1.2,1.8,1.8,4,1.8,6.4c0,2.6-0.8,5-2.3,7.2
			c-1.5,2.2-3.5,3.7-6,4.6l-0.1-1.7c3.3,1.1,5.9,2.8,7.9,5.1c2,2.3,3,5.3,3,8.8c0,2.8-0.6,5.2-1.9,7.2c-1.3,2-3,3.5-5.2,4.6
			c-2.2,1.1-4.6,1.6-7.3,1.6H172.5z M175.4,156.4h15.9c1.9,0,3.6-0.4,5.1-1.3c1.6-0.9,2.8-2.1,3.7-3.6s1.4-3.2,1.4-5.1
			c0-2.8-1-5-2.9-6.7c-2-1.7-4.4-2.5-7.3-2.5h-15.9V156.4z M175.4,181.1h15.9c2.4,0,4.5-0.4,6.5-1.2c1.9-0.8,3.4-2,4.5-3.5
			c1.1-1.5,1.7-3.4,1.7-5.5c0-2.2-0.5-4.1-1.5-5.9c-1-1.8-2.4-3.2-4.1-4.2c-1.7-1-3.6-1.6-5.7-1.6h-17.2V181.1z"/>
		<path class="st5" d="M214.6,184v-50.7h2.9V184H214.6z"/>
		<path class="st5" d="M238.7,185c-2.9,0-5.3-0.5-7.2-1.5c-1.9-1-3.3-2.3-4.3-4c-0.9-1.7-1.4-3.4-1.4-5.4c0-2.2,0.5-4,1.4-5.4
			c1-1.4,2.2-2.6,3.7-3.4c1.5-0.8,3.2-1.4,5-1.8c2.2-0.4,4.5-0.8,6.9-1.2s4.8-0.6,6.8-0.8c2.1-0.2,3.7-0.4,4.7-0.6l-1,0.7
			c0.1-4.4-0.7-7.7-2.4-9.8c-1.7-2.1-4.7-3.2-9-3.2c-3.1,0-5.6,0.7-7.5,2.1c-1.9,1.4-3.2,3.5-4,6.4l-3.2-0.8
			c0.8-3.4,2.5-6.1,5.1-7.9c2.6-1.8,5.8-2.7,9.7-2.7c3.4,0,6.3,0.7,8.6,2.1c2.3,1.4,3.9,3.3,4.7,5.7c0.3,0.9,0.6,2,0.7,3.3
			c0.1,1.3,0.2,2.6,0.2,3.8V184h-2.7v-10.2l1.4,0.1c-1,3.5-3,6.3-5.9,8.2C246.1,184,242.7,185,238.7,185z M238.5,182.1
			c2.7,0,5.1-0.5,7.1-1.4c2.1-1,3.7-2.4,5-4.2c1.3-1.8,2.1-4,2.4-6.6c0.2-1.3,0.3-2.7,0.3-4.1c0-1.5,0-2.5,0-3.2l1.5,1.2
			c-1.2,0.1-2.9,0.3-5,0.5c-2.1,0.2-4.4,0.4-6.8,0.8c-2.4,0.3-4.5,0.7-6.5,1.2c-1.1,0.3-2.3,0.7-3.5,1.3c-1.2,0.6-2.2,1.4-3,2.5
			c-0.8,1.1-1.2,2.5-1.2,4.2c0,1.2,0.3,2.4,0.9,3.6c0.6,1.2,1.6,2.2,3,3.1S236.1,182.1,238.5,182.1z"/>
		<path class="st5" d="M280.2,185c-3.7,0-6.8-0.8-9.3-2.5s-4.4-4-5.7-6.9c-1.3-3-2-6.4-2-10.3c0.1-4,0.8-7.4,2.1-10.4
			c1.3-2.9,3.2-5.2,5.7-6.8c2.5-1.6,5.6-2.4,9.3-2.4c3.4,0,6.5,0.8,9.2,2.5s4.6,3.9,5.7,6.8l-2.8,1.2c-1-2.4-2.6-4.2-4.8-5.5
			s-4.6-2-7.4-2c-3.1,0-5.7,0.7-7.8,2.1c-2,1.4-3.6,3.4-4.6,5.9c-1,2.5-1.5,5.4-1.6,8.7c0.1,5.1,1.3,9.1,3.6,12.2s5.8,4.6,10.3,4.6
			c2.7,0,5.2-0.6,7.3-1.9c2.1-1.3,3.7-3.1,4.9-5.5l2.8,1.2c-1.5,3-3.6,5.2-6.1,6.8S283.6,185,280.2,185z"/>
		<path class="st5" d="M302.4,184v-49.6h2.9v30.3l18.6-17.9h4.3l-19.4,18.6l22.4,18.6h-5l-21-17.9V184H302.4z"/>
	</g>
	<g>
		<path class="st5" d="M37.7,401.8v-21.1l-16.5-28.5h3.3l14.6,25.2l14.5-25.2H57l-16.4,28.5v21.1H37.7z"/>
		<path class="st5" d="M67.1,402.8c-2.9,0-5.3-0.5-7.2-1.5c-1.9-1-3.3-2.3-4.3-4c-0.9-1.7-1.4-3.4-1.4-5.4c0-2.2,0.5-4,1.4-5.4
			c1-1.4,2.2-2.6,3.7-3.4c1.5-0.8,3.2-1.4,5-1.8c2.2-0.4,4.5-0.8,6.9-1.2s4.8-0.6,6.8-0.8c2.1-0.2,3.7-0.4,4.7-0.6l-1,0.7
			c0.1-4.4-0.7-7.7-2.4-9.8c-1.7-2.1-4.7-3.2-9-3.2c-3.1,0-5.6,0.7-7.5,2.1c-1.9,1.4-3.2,3.5-4,6.4l-3.2-0.8
			c0.8-3.4,2.5-6.1,5.1-7.9c2.6-1.8,5.8-2.7,9.7-2.7c3.4,0,6.3,0.7,8.6,2.1c2.3,1.4,3.9,3.3,4.7,5.7c0.3,0.9,0.6,2,0.7,3.3
			c0.1,1.3,0.2,2.6,0.2,3.8v23.3H82v-10.2l1.4,0.1c-1,3.5-3,6.3-5.9,8.2C74.6,401.9,71.1,402.8,67.1,402.8z M67,400
			c2.7,0,5.1-0.5,7.1-1.4c2.1-1,3.7-2.4,5-4.2c1.3-1.8,2.1-4,2.4-6.6c0.2-1.3,0.3-2.7,0.3-4.1c0-1.5,0-2.5,0-3.2l1.5,1.2
			c-1.2,0.1-2.9,0.3-5,0.5c-2.1,0.2-4.4,0.4-6.8,0.8c-2.4,0.3-4.5,0.7-6.5,1.2c-1.1,0.3-2.3,0.7-3.5,1.3c-1.2,0.6-2.2,1.4-3,2.5
			c-0.8,1.1-1.2,2.5-1.2,4.2c0,1.2,0.3,2.4,0.9,3.6c0.6,1.2,1.6,2.2,3,3.1S64.5,400,67,400z"/>
		<path class="st5" d="M93.7,401.8v-37.2h2.7v7.6h0.2v29.6H93.7z M121.3,401.8v-19.7c0-2.7-0.3-5-0.8-6.9c-0.5-1.9-1.3-3.5-2.4-4.8
			c-1.1-1.3-2.3-2.2-3.8-2.8c-1.5-0.6-3.2-0.9-5.2-0.9c-2.3,0-4.2,0.4-5.8,1.2c-1.6,0.8-2.9,1.9-3.9,3.3c-1,1.4-1.7,3-2.2,4.8
			c-0.5,1.8-0.7,3.7-0.7,5.7l-2.7,0.1c0-4.2,0.7-7.7,2.1-10.3c1.4-2.6,3.3-4.5,5.6-5.7c2.3-1.2,4.8-1.8,7.6-1.8
			c1.9,0,3.6,0.3,5.2,0.8c1.6,0.5,3,1.3,4.2,2.3c1.2,1,2.3,2.2,3.1,3.7s1.5,3.1,1.9,4.9c0.4,1.8,0.7,3.9,0.7,6.1v20.3H121.3z"/>
		<path class="st5" d="M133.2,401.8v-49.6h2.9v30.3l18.6-17.9h4.3l-19.4,18.6l22.4,18.6h-5l-21-17.9v17.9H133.2z"/>
		<path class="st5" d="M179.7,402.8c-3.5,0-6.5-0.8-9.1-2.4c-2.5-1.6-4.5-3.8-5.9-6.8s-2.1-6.4-2.1-10.5c0-4.1,0.7-7.6,2.1-10.5
			c1.4-2.9,3.3-5.2,5.9-6.8c2.5-1.6,5.6-2.4,9.1-2.4c3.6,0,6.6,0.8,9.1,2.4c2.5,1.6,4.5,3.9,5.8,7c1.3,3.1,2,6.7,2,11.1h-3.1v-1
			c-0.1-5.4-1.4-9.5-3.8-12.3c-2.4-2.9-5.7-4.3-10.1-4.3c-4.4,0-7.8,1.5-10.3,4.4c-2.4,2.9-3.7,7-3.7,12.4c0,5.3,1.2,9.4,3.7,12.4
			c2.4,2.9,5.9,4.4,10.3,4.4c3.1,0,5.8-0.7,8.1-2.2c2.3-1.4,4.2-3.5,5.5-6.2l2.4,1.4c-1.5,3.2-3.7,5.6-6.4,7.3
			C186.5,402,183.3,402.8,179.7,402.8z M164.5,384v-2.9h30.3v2.9H164.5z"/>
		<path class="st5" d="M219.2,402.8c-3.5,0-6.5-0.8-9.1-2.4c-2.5-1.6-4.5-3.8-5.9-6.8s-2.1-6.4-2.1-10.5c0-4.1,0.7-7.6,2.1-10.5
			c1.4-2.9,3.3-5.2,5.9-6.8c2.5-1.6,5.6-2.4,9.1-2.4c3.6,0,6.6,0.8,9.1,2.4c2.5,1.6,4.5,3.9,5.8,7c1.3,3.1,2,6.7,2,11.1H233v-1
			c-0.1-5.4-1.4-9.5-3.8-12.3c-2.4-2.9-5.7-4.3-10.1-4.3c-4.4,0-7.8,1.5-10.3,4.4c-2.4,2.9-3.7,7-3.7,12.4c0,5.3,1.2,9.4,3.7,12.4
			c2.4,2.9,5.9,4.4,10.3,4.4c3.1,0,5.8-0.7,8.1-2.2c2.3-1.4,4.2-3.5,5.5-6.2l2.4,1.4c-1.5,3.2-3.7,5.6-6.4,7.3
			C226,402,222.8,402.8,219.2,402.8z M204,384v-2.9h30.3v2.9H204z"/>
		<path class="st5" d="M257.3,402.8c-4.2,0-7.7-0.9-10.5-2.6c-2.8-1.8-4.5-4.2-5.2-7.3l3-0.6c0.6,2.3,2.1,4.1,4.4,5.5
			c2.3,1.4,5.1,2.1,8.4,2.1c3.4,0,6.1-0.7,8-2.2c2-1.4,3-3.4,3-5.9c0-1.4-0.3-2.5-0.9-3.3c-0.6-0.9-1.8-1.6-3.5-2.4
			c-1.7-0.7-4.3-1.5-7.7-2.4c-3.5-1-6.3-1.9-8.3-2.8s-3.3-1.9-4.1-3.1c-0.8-1.1-1.2-2.5-1.2-4.2c0-2,0.6-3.7,1.8-5.2
			c1.2-1.5,2.8-2.7,4.9-3.5c2.1-0.8,4.5-1.3,7.2-1.3c2.7,0,5.2,0.5,7.4,1.4c2.2,0.9,4,2.2,5.3,3.8c1.3,1.6,2.1,3.5,2.3,5.6l-3,0.6
			c-0.4-2.6-1.8-4.6-4-6.2c-2.2-1.5-5-2.3-8.3-2.3c-3.1,0-5.6,0.6-7.6,1.9s-2.9,3-2.9,5.1c0,1.2,0.3,2.2,1,3
			c0.7,0.8,1.8,1.6,3.5,2.3c1.7,0.7,4,1.4,6.9,2.1c3.7,0.9,6.6,1.9,8.7,2.9c2.1,1,3.5,2.1,4.4,3.4c0.8,1.3,1.3,2.9,1.3,4.8
			c0,3.4-1.3,6-3.8,7.9C265.2,401.8,261.7,402.8,257.3,402.8z"/>
		<path class="st5" d="M292.9,401.8v-49.6h18.8c2.4,0,4.6,0.5,6.6,1.5s3.6,2.5,4.9,4.3c1.2,1.8,1.8,4,1.8,6.4c0,2.6-0.8,5-2.3,7.2
			s-3.5,3.7-6,4.6l-0.1-1.7c3.3,1.1,5.9,2.8,7.9,5.1c2,2.3,3,5.3,3,8.8c0,2.8-0.6,5.2-1.9,7.2c-1.3,2-3,3.5-5.2,4.6
			c-2.2,1.1-4.6,1.6-7.3,1.6H292.9z M295.8,374.2h15.9c1.9,0,3.6-0.4,5.1-1.3c1.6-0.9,2.8-2.1,3.7-3.6c0.9-1.5,1.4-3.2,1.4-5.1
			c0-2.8-1-5-2.9-6.7c-2-1.7-4.4-2.5-7.3-2.5h-15.9V374.2z M295.8,398.9h15.9c2.4,0,4.5-0.4,6.5-1.2c1.9-0.8,3.4-2,4.5-3.5
			c1.1-1.5,1.7-3.4,1.7-5.5c0-2.2-0.5-4.1-1.5-5.9s-2.4-3.2-4.1-4.2c-1.7-1-3.6-1.6-5.7-1.6h-17.2V398.9z"/>
		<path class="st5" d="M335,401.8v-50.7h2.9v50.7H335z"/>
		<path class="st5" d="M362.7,402.6c-1.9,0-3.6-0.3-5.2-0.8c-1.6-0.5-3-1.3-4.2-2.3c-1.2-1-2.3-2.2-3.1-3.7
			c-0.8-1.4-1.5-3.1-1.9-4.9c-0.4-1.8-0.7-3.9-0.7-6.1v-20.3h2.9v19.7c0,2.6,0.3,4.9,0.8,6.9s1.3,3.6,2.4,4.8s2.3,2.2,3.8,2.8
			c1.5,0.6,3.2,0.9,5.2,0.9c2.3,0,4.2-0.4,5.8-1.2c1.6-0.8,2.9-1.9,3.9-3.3c1-1.4,1.7-3,2.2-4.8c0.5-1.8,0.7-3.7,0.7-5.7l2.7-0.1
			c0,4.2-0.7,7.7-2.1,10.3c-1.4,2.6-3.3,4.5-5.6,5.7C367.9,402,365.4,402.6,362.7,402.6z M375.4,401.8v-7.6h-0.2v-29.6h2.9v37.2
			H375.4z"/>
		<path class="st5" d="M402.7,402.8c-3.5,0-6.5-0.8-9.1-2.4c-2.5-1.6-4.5-3.8-5.9-6.8c-1.4-2.9-2.1-6.4-2.1-10.5
			c0-4.1,0.7-7.6,2.1-10.5c1.4-2.9,3.3-5.2,5.9-6.8c2.5-1.6,5.6-2.4,9.1-2.4c3.6,0,6.6,0.8,9.1,2.4c2.5,1.6,4.5,3.9,5.8,7
			s2,6.7,2,11.1h-3.1v-1c-0.1-5.4-1.4-9.5-3.8-12.3s-5.7-4.3-10.1-4.3c-4.4,0-7.8,1.5-10.3,4.4c-2.4,2.9-3.7,7-3.7,12.4
			c0,5.3,1.2,9.4,3.7,12.4c2.4,2.9,5.9,4.4,10.3,4.4c3.1,0,5.8-0.7,8.1-2.2s4.2-3.5,5.5-6.2l2.4,1.4c-1.5,3.2-3.7,5.6-6.4,7.3
			C409.6,402,406.4,402.8,402.7,402.8z M387.6,384v-2.9h30.3v2.9H387.6z"/>
	</g>
	<g>
		<path class="st5" d="M26.1,616.3v-49.6h2.8l21.1,46.1l20.9-46.1h2.9v49.6h-2.9v-42.6l-19.3,42.7h-3.2L29,573.6v42.7H26.1z"/>
		<path class="st5" d="M98.3,617.3c-3.5,0-6.5-0.8-9.1-2.4c-2.5-1.6-4.5-3.8-5.9-6.8s-2.1-6.4-2.1-10.5c0-4.1,0.7-7.6,2.1-10.5
			c1.4-2.9,3.3-5.2,5.9-6.8c2.5-1.6,5.6-2.4,9.1-2.4c3.6,0,6.6,0.8,9.1,2.4c2.5,1.6,4.5,3.9,5.8,7c1.3,3.1,2,6.7,2,11.1h-3.1v-1
			c-0.1-5.4-1.4-9.5-3.8-12.3c-2.4-2.9-5.7-4.3-10.1-4.3c-4.4,0-7.8,1.5-10.3,4.4c-2.4,2.9-3.7,7-3.7,12.4c0,5.3,1.2,9.4,3.7,12.4
			c2.4,2.9,5.9,4.4,10.3,4.4c3.1,0,5.8-0.7,8.1-2.2c2.3-1.4,4.2-3.5,5.5-6.2l2.4,1.4c-1.5,3.2-3.7,5.6-6.4,7.3
			C105.1,616.4,101.9,617.3,98.3,617.3z M83.1,598.5v-2.9h30.3v2.9H83.1z"/>
		<path class="st5" d="M118.7,581.9v-2.9h23.4v2.9H118.7z M142.1,616.3c-1.9,0.4-3.7,0.6-5.5,0.5c-1.8-0.1-3.4-0.5-4.9-1.3
			c-1.4-0.8-2.5-1.9-3.2-3.5c-0.6-1.2-0.9-2.5-0.9-3.7s-0.1-2.7-0.1-4.3v-35.2h2.9v35.2c0,1.6,0,2.9,0.1,3.9c0,1,0.3,1.9,0.7,2.8
			c0.8,1.7,2.1,2.7,3.9,3c1.8,0.4,4.1,0.3,7-0.2V616.3z"/>
		<path class="st5" d="M159.8,617.3c-2.9,0-5.3-0.5-7.2-1.5c-1.9-1-3.3-2.3-4.3-4c-0.9-1.7-1.4-3.4-1.4-5.4c0-2.2,0.5-4,1.4-5.4
			c1-1.4,2.2-2.6,3.7-3.4c1.5-0.8,3.2-1.4,5-1.8c2.2-0.4,4.5-0.8,6.9-1.2s4.8-0.6,6.8-0.8c2.1-0.2,3.7-0.4,4.7-0.6l-1,0.7
			c0.1-4.4-0.7-7.7-2.4-9.8c-1.7-2.1-4.7-3.2-9-3.2c-3.1,0-5.6,0.7-7.5,2.1c-1.9,1.4-3.2,3.5-4,6.4l-3.2-0.8
			c0.8-3.4,2.5-6.1,5.1-7.9c2.6-1.8,5.8-2.7,9.7-2.7c3.4,0,6.3,0.7,8.6,2.1c2.3,1.4,3.9,3.3,4.7,5.7c0.3,0.9,0.6,2,0.7,3.3
			c0.1,1.3,0.2,2.6,0.2,3.8v23.3h-2.7v-10.2l1.4,0.1c-1,3.5-3,6.3-5.9,8.2C167.2,616.3,163.7,617.3,159.8,617.3z M159.6,614.4
			c2.7,0,5.1-0.5,7.1-1.4c2.1-1,3.7-2.4,5-4.2c1.3-1.8,2.1-4,2.4-6.6c0.2-1.3,0.3-2.7,0.3-4.1c0-1.5,0-2.5,0-3.2l1.5,1.2
			c-1.2,0.1-2.9,0.3-5,0.5c-2.1,0.2-4.4,0.4-6.8,0.8c-2.4,0.3-4.5,0.7-6.5,1.2c-1.1,0.3-2.3,0.7-3.5,1.3c-1.2,0.6-2.2,1.4-3,2.5
			c-0.8,1.1-1.2,2.5-1.2,4.2c0,1.2,0.3,2.4,0.9,3.6c0.6,1.2,1.6,2.2,3,3.1S157.2,614.4,159.6,614.4z"/>
		<path class="st5" d="M187,616.3v-50.7h2.9v50.7H187z"/>
		<path class="st5" d="M200.9,616.3v-50.7h2.9v50.7H200.9z"/>
		<path class="st5" d="M214.8,571.1v-4.4h2.9v4.4H214.8z M214.8,616.3v-37.2h2.9v37.2H214.8z"/>
		<path class="st5" d="M243,617.3c-3.7,0-6.8-0.8-9.3-2.5c-2.5-1.7-4.4-4-5.7-6.9c-1.3-3-2-6.4-2-10.3c0.1-4,0.8-7.4,2.1-10.4
			c1.3-2.9,3.2-5.2,5.7-6.8c2.5-1.6,5.6-2.4,9.3-2.4c3.4,0,6.5,0.8,9.2,2.5c2.7,1.6,4.6,3.9,5.7,6.8l-2.8,1.2
			c-1-2.4-2.6-4.2-4.8-5.5c-2.1-1.3-4.6-2-7.4-2c-3.1,0-5.7,0.7-7.8,2.1c-2,1.4-3.6,3.4-4.6,5.9c-1,2.5-1.5,5.4-1.6,8.7
			c0.1,5.1,1.3,9.1,3.6,12.2c2.3,3.1,5.8,4.6,10.3,4.6c2.7,0,5.2-0.6,7.3-1.9c2.1-1.3,3.7-3.1,4.9-5.5l2.8,1.2
			c-1.5,3-3.6,5.2-6.1,6.8C249.4,616.5,246.4,617.3,243,617.3z"/>
		<path class="st5" d="M279,616.3v-49.6h18.8c2.4,0,4.6,0.5,6.6,1.5s3.6,2.5,4.9,4.3c1.2,1.8,1.8,4,1.8,6.4c0,2.6-0.8,5-2.3,7.2
			s-3.5,3.7-6,4.6l-0.1-1.7c3.3,1.1,5.9,2.8,7.9,5.1c2,2.3,3,5.3,3,8.8c0,2.8-0.6,5.2-1.9,7.2c-1.3,2-3,3.5-5.2,4.6
			c-2.2,1.1-4.6,1.6-7.3,1.6H279z M281.9,588.7h15.9c1.9,0,3.6-0.4,5.1-1.3c1.6-0.9,2.8-2.1,3.7-3.6c0.9-1.5,1.4-3.2,1.4-5.1
			c0-2.8-1-5-2.9-6.7c-2-1.7-4.4-2.5-7.3-2.5h-15.9V588.7z M281.9,613.4h15.9c2.4,0,4.5-0.4,6.5-1.2c1.9-0.8,3.4-2,4.5-3.5
			c1.1-1.5,1.7-3.4,1.7-5.5c0-2.2-0.5-4.1-1.5-5.9s-2.4-3.2-4.1-4.2c-1.7-1-3.6-1.6-5.7-1.6h-17.2V613.4z"/>
		<path class="st5" d="M321.1,616.3v-50.7h2.9v50.7H321.1z"/>
		<path class="st5" d="M348.8,617.1c-1.9,0-3.6-0.3-5.2-0.8c-1.6-0.5-3-1.3-4.2-2.3c-1.2-1-2.3-2.2-3.1-3.7
			c-0.8-1.4-1.5-3.1-1.9-4.9c-0.4-1.8-0.7-3.9-0.7-6.1v-20.3h2.9v19.7c0,2.6,0.3,4.9,0.8,6.9s1.3,3.6,2.4,4.8s2.3,2.2,3.8,2.8
			c1.5,0.6,3.2,0.9,5.2,0.9c2.3,0,4.2-0.4,5.8-1.2c1.6-0.8,2.9-1.9,3.9-3.3c1-1.4,1.7-3,2.2-4.8c0.5-1.8,0.7-3.7,0.7-5.7l2.7-0.1
			c0,4.2-0.7,7.7-2.1,10.3c-1.4,2.6-3.3,4.5-5.6,5.7C354,616.5,351.5,617.1,348.8,617.1z M361.5,616.3v-7.6h-0.2v-29.6h2.9v37.2
			H361.5z"/>
		<path class="st5" d="M388.8,617.3c-3.5,0-6.5-0.8-9.1-2.4c-2.5-1.6-4.5-3.8-5.9-6.8c-1.4-2.9-2.1-6.4-2.1-10.5
			c0-4.1,0.7-7.6,2.1-10.5c1.4-2.9,3.3-5.2,5.9-6.8c2.5-1.6,5.6-2.4,9.1-2.4c3.6,0,6.6,0.8,9.1,2.4c2.5,1.6,4.5,3.9,5.8,7
			s2,6.7,2,11.1h-3.1v-1c-0.1-5.4-1.4-9.5-3.8-12.3s-5.7-4.3-10.1-4.3c-4.4,0-7.8,1.5-10.3,4.4c-2.4,2.9-3.7,7-3.7,12.4
			c0,5.3,1.2,9.4,3.7,12.4c2.4,2.9,5.9,4.4,10.3,4.4c3.1,0,5.8-0.7,8.1-2.2s4.2-3.5,5.5-6.2l2.4,1.4c-1.5,3.2-3.7,5.6-6.4,7.3
			C395.6,616.4,392.4,617.3,388.8,617.3z M373.6,598.5v-2.9H404v2.9H373.6z"/>
	</g>
	<g>
		<path class="st5" d="M45.6,836.8c-4.9,0-9.1-1.1-12.4-3.3c-3.3-2.2-5.8-5.2-7.4-9.1c-1.7-3.9-2.5-8.4-2.5-13.4s0.8-9.5,2.5-13.4
			c1.7-3.9,4.1-6.9,7.4-9.1c3.3-2.2,7.4-3.3,12.4-3.3c5.8,0,10.5,1.5,14,4.5c3.5,3,5.9,7,7.2,12.1l-3,0.7c-1.1-4.4-3.2-7.9-6.2-10.5
			c-3-2.6-7-3.9-11.9-3.9c-4.3,0-7.8,1-10.6,2.9c-2.8,2-4.9,4.7-6.4,8.1c-1.4,3.5-2.2,7.4-2.2,11.9c0,4.5,0.6,8.4,2.1,11.9
			c1.4,3.4,3.6,6.2,6.4,8.1c2.9,2,6.4,2.9,10.7,2.9c4.9,0,8.9-1.3,11.9-3.9c3-2.6,5.1-6.1,6.2-10.5l3,0.7c-1.2,5-3.6,9.1-7.2,12.1
			C56,835.3,51.4,836.8,45.6,836.8z"/>
		<path class="st5" d="M79.9,852.3l7.2-19.4l0.1,5.8l-16.3-40.1H74l14.6,36.1h-2.2l13.1-36.1h3.1l-19.5,53.8H79.9z"/>
		<path class="st5" d="M118.6,836.8c-2.9,0-5.3-0.5-7.2-1.5c-1.9-1-3.3-2.3-4.3-4c-0.9-1.7-1.4-3.4-1.4-5.4c0-2.2,0.5-4,1.4-5.4
			c1-1.4,2.2-2.6,3.7-3.4c1.5-0.8,3.2-1.4,5-1.8c2.2-0.4,4.5-0.8,6.9-1.2s4.8-0.6,6.8-0.8c2.1-0.2,3.7-0.4,4.7-0.6l-1,0.7
			c0.1-4.4-0.7-7.7-2.4-9.8c-1.7-2.1-4.7-3.2-9-3.2c-3.1,0-5.6,0.7-7.5,2.1c-1.9,1.4-3.2,3.5-4,6.4l-3.2-0.8
			c0.8-3.4,2.5-6.1,5.1-7.9c2.6-1.8,5.8-2.7,9.7-2.7c3.4,0,6.3,0.7,8.6,2.1c2.3,1.4,3.9,3.3,4.7,5.7c0.3,0.9,0.6,2,0.7,3.3
			c0.1,1.3,0.2,2.6,0.2,3.8v23.3h-2.7v-10.2l1.4,0.1c-1,3.5-3,6.3-5.9,8.2C126.1,835.8,122.6,836.8,118.6,836.8z M118.5,833.9
			c2.7,0,5.1-0.5,7.1-1.4c2.1-1,3.7-2.4,5-4.2c1.3-1.8,2.1-4,2.4-6.6c0.2-1.3,0.3-2.7,0.3-4.1c0-1.5,0-2.5,0-3.2l1.5,1.2
			c-1.2,0.1-2.9,0.3-5,0.5c-2.1,0.2-4.4,0.4-6.8,0.8c-2.4,0.3-4.5,0.7-6.5,1.2c-1.1,0.3-2.3,0.7-3.5,1.3c-1.2,0.6-2.2,1.4-3,2.5
			c-0.8,1.1-1.2,2.5-1.2,4.2c0,1.2,0.3,2.4,0.9,3.6c0.6,1.2,1.6,2.2,3,3.1S116,833.9,118.5,833.9z"/>
		<path class="st5" d="M145.2,835.8v-37.2h2.7v7.6h0.2v29.6H145.2z M172.8,835.8v-19.7c0-2.7-0.3-5-0.8-6.9
			c-0.5-1.9-1.3-3.5-2.4-4.8c-1.1-1.3-2.3-2.2-3.8-2.8c-1.5-0.6-3.2-0.9-5.2-0.9c-2.3,0-4.2,0.4-5.8,1.2c-1.6,0.8-2.9,1.9-3.9,3.3
			c-1,1.4-1.7,3-2.2,4.8c-0.5,1.8-0.7,3.7-0.7,5.7l-2.7,0.1c0-4.2,0.7-7.7,2.1-10.3c1.4-2.6,3.3-4.5,5.6-5.7
			c2.3-1.2,4.8-1.8,7.6-1.8c1.9,0,3.6,0.3,5.2,0.8c1.6,0.5,3,1.3,4.2,2.3c1.2,1,2.3,2.2,3.1,3.7s1.5,3.1,1.9,4.9
			c0.4,1.8,0.7,3.9,0.7,6.1v20.3H172.8z"/>
		<path class="st5" d="M195,835.8l18.1-49.6h3.1l18.1,49.6h-3.1l-17.6-48.3h2.1l-17.5,48.3H195z M201.9,822.9v-2.8h25.4v2.8H201.9z"
			/>
		<path class="st5" d="M237,835.8v-1l26.9-33.2h-25.2v-3h30.5v1.2l-26.9,33h25.2v3H237z"/>
		<path class="st5" d="M291.1,836.6c-1.9,0-3.6-0.3-5.2-0.8c-1.6-0.5-3-1.3-4.2-2.3c-1.2-1-2.3-2.2-3.1-3.7
			c-0.8-1.4-1.5-3.1-1.9-4.9c-0.4-1.8-0.7-3.9-0.7-6.1v-20.3h2.9v19.7c0,2.6,0.3,4.9,0.8,6.9s1.3,3.6,2.4,4.8s2.3,2.2,3.8,2.8
			c1.5,0.6,3.2,0.9,5.2,0.9c2.3,0,4.2-0.4,5.8-1.2c1.6-0.8,2.9-1.9,3.9-3.3c1-1.4,1.7-3,2.2-4.8c0.5-1.8,0.7-3.7,0.7-5.7l2.7-0.1
			c0,4.2-0.7,7.7-2.1,10.3c-1.4,2.6-3.3,4.5-5.6,5.7C296.4,836,293.9,836.6,291.1,836.6z M303.9,835.8v-7.6h-0.2v-29.6h2.9v37.2
			H303.9z"/>
		<path class="st5" d="M316.2,835.8v-37.2h2.7v8.9l-0.9-1.2c0.4-1,0.9-2,1.5-2.8s1.2-1.6,1.8-2.1c1-1,2.2-1.7,3.6-2.3
			c1.4-0.5,2.8-0.8,4.2-0.9c1.4-0.1,2.6,0.1,3.7,0.4v2.8c-1.5-0.3-3.2-0.4-4.9-0.2c-1.7,0.2-3.3,1-4.8,2.4c-1.3,1.2-2.2,2.6-2.8,4.2
			c-0.5,1.6-0.9,3.2-1,4.9s-0.2,3.3-0.2,4.8v18.3H316.2z"/>
		<path class="st5" d="M353.6,836.8c-3.5,0-6.5-0.8-9.1-2.4c-2.5-1.6-4.5-3.8-5.9-6.8c-1.4-2.9-2.1-6.4-2.1-10.5
			c0-4.1,0.7-7.6,2.1-10.5c1.4-2.9,3.3-5.2,5.9-6.8c2.5-1.6,5.6-2.4,9.1-2.4c3.6,0,6.6,0.8,9.1,2.4c2.5,1.6,4.5,3.9,5.8,7
			s2,6.7,2,11.1h-3.1v-1c-0.1-5.4-1.4-9.5-3.8-12.3s-5.7-4.3-10.1-4.3c-4.4,0-7.8,1.5-10.3,4.4c-2.4,2.9-3.7,7-3.7,12.4
			c0,5.3,1.2,9.4,3.7,12.4c2.4,2.9,5.9,4.4,10.3,4.4c3.1,0,5.8-0.7,8.1-2.2s4.2-3.5,5.5-6.2l2.4,1.4c-1.5,3.2-3.7,5.6-6.4,7.3
			C360.4,836,357.2,836.8,353.6,836.8z M338.4,818v-2.9h30.3v2.9H338.4z"/>
	</g>
	<g>
		<path class="st5" d="M33.6,1056.3c-3,0-5.6-0.9-7.9-2.6c-2.3-1.7-3.8-4.1-4.4-7l3-0.7c0.5,2.1,1.6,3.8,3.3,5.3
			c1.7,1.4,3.8,2.1,6.2,2.1c1.5,0,3-0.3,4.5-1c1.5-0.7,2.7-1.8,3.6-3.4c0.6-1.1,1-2.4,1.1-3.6s0.2-2.8,0.2-4.6v-35h2.9v35
			c0,1.3,0,2.4,0,3.5c0,1.1-0.1,2.1-0.4,3.2c-0.2,1-0.6,2-1.2,3c-1.1,1.9-2.6,3.4-4.5,4.4C37.9,1055.8,35.8,1056.3,33.6,1056.3z"/>
		<path class="st5" d="M71.3,1056.3c-3.7,0-6.8-0.8-9.3-2.5c-2.5-1.7-4.4-4-5.8-7s-2-6.4-2-10.2c0-3.9,0.7-7.3,2-10.3
			c1.3-2.9,3.3-5.2,5.8-6.9c2.5-1.6,5.6-2.4,9.2-2.4c3.7,0,6.8,0.8,9.3,2.5c2.5,1.7,4.4,4,5.7,6.9s1.9,6.3,1.9,10.2
			c0,3.9-0.7,7.4-2,10.3c-1.3,3-3.2,5.3-5.8,6.9S74.9,1056.3,71.3,1056.3z M71.3,1053.4c4.7,0,8.2-1.6,10.5-4.7s3.4-7.2,3.4-12.1
			c0-5.1-1.2-9.1-3.5-12.1s-5.8-4.5-10.5-4.5c-3.1,0-5.7,0.7-7.8,2.1c-2.1,1.4-3.6,3.4-4.6,5.9c-1,2.5-1.5,5.4-1.5,8.6
			c0,5.1,1.2,9.1,3.5,12.2C63.2,1051.9,66.7,1053.4,71.3,1053.4z"/>
		<path class="st5" d="M95.9,1055.3v-37.2h2.7v8.9l-0.9-1.2c0.4-1,0.9-2,1.5-2.8c0.6-0.9,1.2-1.6,1.8-2.1c1-1,2.2-1.7,3.6-2.3
			c1.4-0.5,2.8-0.8,4.2-0.9c1.4-0.1,2.6,0.1,3.7,0.4v2.8c-1.5-0.3-3.2-0.4-4.9-0.2c-1.7,0.2-3.3,1-4.8,2.4c-1.3,1.2-2.2,2.6-2.8,4.2
			c-0.5,1.6-0.9,3.2-1,4.9c-0.1,1.7-0.2,3.3-0.2,4.8v18.3H95.9z"/>
		<path class="st5" d="M132.4,1056.3c-3.5,0-6.5-0.9-8.9-2.6s-4.2-4.1-5.5-7.1c-1.2-3-1.9-6.3-1.9-10c0-3.7,0.6-7,1.8-9.9
			c1.2-3,3-5.3,5.3-7c2.3-1.7,5.2-2.6,8.5-2.6c3.5,0,6.4,0.8,8.8,2.5c2.4,1.7,4.2,4,5.4,7c1.2,3,1.8,6.3,1.8,10.1
			c0,3.7-0.6,7-1.8,10c-1.2,3-3,5.3-5.3,7.1C138.5,1055.5,135.7,1056.3,132.4,1056.3z M132.4,1053.4c2.9,0,5.4-0.7,7.3-2.2
			c2-1.5,3.4-3.5,4.4-6c1-2.5,1.5-5.4,1.5-8.6c0-3.2-0.5-6.1-1.5-8.6c-1-2.5-2.5-4.5-4.4-5.9c-2-1.4-4.4-2.1-7.3-2.1
			c-3,0-5.4,0.7-7.4,2.2c-1.9,1.5-3.4,3.4-4.3,6c-0.9,2.5-1.4,5.4-1.4,8.5c0,3.2,0.5,6.1,1.5,8.6c1,2.5,2.5,4.5,4.4,6
			C127.1,1052.7,129.5,1053.4,132.4,1053.4z M145.6,1055.3V1026h-0.2v-20.3h2.9v49.6H145.6z"/>
		<path class="st5" d="M163.6,1071.9l7.2-19.4l0.1,5.8l-16.3-40.1h3.2l14.6,36.1h-2.2l13.1-36.1h3.1l-19.5,53.8H163.6z"/>
		<path class="st5" d="M206.6,1055.3v-49.6h18.8c2.4,0,4.6,0.5,6.6,1.5c2,1,3.6,2.5,4.9,4.3c1.2,1.8,1.8,4,1.8,6.4
			c0,2.6-0.8,5-2.3,7.2c-1.5,2.2-3.5,3.7-6,4.6l-0.1-1.7c3.3,1.1,5.9,2.8,7.9,5.1c2,2.3,3,5.3,3,8.8c0,2.8-0.6,5.2-1.9,7.2
			c-1.3,2-3,3.5-5.2,4.6c-2.2,1.1-4.6,1.6-7.3,1.6H206.6z M209.5,1027.7h15.9c1.9,0,3.6-0.4,5.1-1.3c1.6-0.9,2.8-2.1,3.7-3.6
			s1.4-3.2,1.4-5.1c0-2.8-1-5-2.9-6.7c-2-1.7-4.4-2.5-7.3-2.5h-15.9V1027.7z M209.5,1052.4h15.9c2.4,0,4.5-0.4,6.5-1.2
			c1.9-0.8,3.4-2,4.5-3.5c1.1-1.5,1.7-3.4,1.7-5.5c0-2.2-0.5-4.1-1.5-5.9c-1-1.8-2.4-3.2-4.1-4.2c-1.7-1-3.6-1.6-5.7-1.6h-17.2
			V1052.4z"/>
		<path class="st5" d="M248.8,1055.3v-50.7h2.9v50.7H248.8z"/>
		<path class="st5" d="M276.4,1056.1c-1.9,0-3.6-0.3-5.2-0.8s-3-1.3-4.2-2.3c-1.2-1-2.3-2.2-3.1-3.7c-0.8-1.4-1.5-3.1-1.9-4.9
			c-0.4-1.8-0.7-3.9-0.7-6.1v-20.3h2.9v19.7c0,2.6,0.3,4.9,0.8,6.9c0.5,2,1.3,3.6,2.4,4.8s2.3,2.2,3.8,2.8c1.5,0.6,3.2,0.9,5.2,0.9
			c2.3,0,4.2-0.4,5.8-1.2c1.6-0.8,2.9-1.9,3.9-3.3c1-1.4,1.7-3,2.2-4.8s0.7-3.7,0.7-5.7l2.7-0.1c0,4.2-0.7,7.7-2.1,10.3
			c-1.4,2.6-3.3,4.5-5.6,5.7C281.6,1055.5,279.1,1056.1,276.4,1056.1z M289.1,1055.3v-7.6h-0.2v-29.6h2.9v37.2H289.1z"/>
		<path class="st5" d="M316.4,1056.3c-3.5,0-6.5-0.8-9.1-2.4c-2.5-1.6-4.5-3.8-5.9-6.8c-1.4-2.9-2.1-6.4-2.1-10.5
			c0-4.1,0.7-7.6,2.1-10.5c1.4-2.9,3.3-5.2,5.9-6.8c2.5-1.6,5.6-2.4,9.1-2.4c3.6,0,6.6,0.8,9.1,2.4c2.5,1.6,4.5,3.9,5.8,7
			s2,6.7,2,11.1h-3.1v-1c-0.1-5.4-1.4-9.5-3.8-12.3s-5.7-4.3-10.1-4.3c-4.4,0-7.8,1.5-10.3,4.4c-2.4,2.9-3.7,7-3.7,12.4
			c0,5.3,1.2,9.4,3.7,12.4c2.4,2.9,5.9,4.4,10.3,4.4c3.1,0,5.8-0.7,8.1-2.2s4.2-3.5,5.5-6.2l2.4,1.4c-1.5,3.2-3.7,5.6-6.4,7.3
			C323.3,1055.5,320.1,1056.3,316.4,1056.3z M301.3,1037.5v-2.9h30.3v2.9H301.3z"/>
	</g>
</g>
</svg>
