<?xml version="1.0" encoding="utf-8"?>
<!-- Generator: Adobe Illustrator 26.3.1, SVG Export Plug-In . SVG Version: 6.00 Build 0)  -->
<svg version="1.1" id="Layer_1" xmlns="http://www.w3.org/2000/svg" xmlns:xlink="http://www.w3.org/1999/xlink" x="0px" y="0px"
	 viewBox="0 0 790.2 709.9" style="enable-background:new 0 0 790.2 709.9;" xml:space="preserve">
<style type="text/css">
	.st0{fill:none;stroke:#000000;stroke-miterlimit:10;}
	.st1{fill:#4C80B2;}
	.st2{fill:#2C5578;}
	.st3{fill:#0F283E;}
	.st4{fill:none;stroke:#000000;stroke-miterlimit:10;stroke-dasharray:6,6;}
</style>
<g>
	<g>
		<path class="st1" d="M224.5,576.9c0,7.9,0,15,0.1,21.2c0.1,6.2,0.3,11.1,0.7,14.6c0.2,2.4,0.7,4.4,1.5,6.1c0.8,1.6,2.4,2.6,4.9,3
			c1.2,0.2,2.6,0.4,4,0.5c1.5,0.1,2.6,0.2,3.4,0.2c0.9,0,1.3,0.3,1.3,1c0,0.9-0.9,1.3-2.6,1.3c-2.3,0-4.6,0-6.9-0.1
			c-2.3-0.1-4.4-0.1-6.3-0.2c-1.9-0.1-3.5-0.1-4.8-0.2c-1.3-0.1-2-0.1-2.2-0.1c-0.2,0-1,0-2.2,0.1c-1.3,0.1-2.7,0.1-4.4,0.2
			c-1.6,0.1-3.3,0.1-5.1,0.2c-1.8,0.1-3.2,0.1-4.4,0.1c-1.8,0-2.6-0.4-2.6-1.3c0-0.7,0.4-1,1.3-1c0.8,0,1.6-0.1,2.5-0.2
			c0.9-0.1,1.7-0.3,2.5-0.5c1.6-0.3,2.8-1.3,3.4-3c0.6-1.6,1.1-3.7,1.4-6.1c0.4-3.5,0.7-8.4,0.7-14.6c0.1-6.2,0.1-13.3,0.1-21.2
			v-17.3c0-0.7-0.3-1-1-1h-69.8c-0.7,0-1,0.3-1,1v17.3c0,7.9,0,15,0.1,21.2c0.1,6.2,0.3,11.1,0.7,14.6c0.2,2.4,0.7,4.4,1.5,6.1
			c0.8,1.6,2.4,2.6,4.9,3c1.2,0.2,2.6,0.4,4,0.5c1.5,0.1,2.6,0.2,3.4,0.2c0.9,0,1.3,0.3,1.3,1c0,0.9-0.9,1.3-2.6,1.3
			c-2.3,0-4.6,0-6.9-0.1c-2.3-0.1-4.4-0.1-6.3-0.2c-1.9-0.1-3.5-0.1-4.8-0.2c-1.3-0.1-2-0.1-2.2-0.1c-0.2,0-1,0-2.2,0.1
			c-1.3,0.1-2.7,0.1-4.4,0.2c-1.6,0.1-3.3,0.1-5.1,0.2c-1.8,0.1-3.2,0.1-4.4,0.1c-1.8,0-2.6-0.4-2.6-1.3c0-0.7,0.4-1,1.3-1
			c0.8,0,1.6-0.1,2.5-0.2c0.9-0.1,1.7-0.3,2.5-0.5c1.6-0.3,2.8-1.3,3.4-3c0.6-1.6,1.1-3.7,1.4-6.1c0.4-3.5,0.7-8.4,0.7-14.6
			c0.1-6.2,0.1-13.3,0.1-21.2v-29c0-6.4,0-11.6,0-15.6c0-4.1,0-7.3,0-9.7c0-2.5,0-4.5-0.1-6c-0.1-1.5-0.1-2.9-0.2-4.2
			c-0.2-2.9-0.8-5-1.6-6.4c-0.9-1.4-2.7-2.4-5.4-3c-0.7-0.2-1.6-0.4-2.7-0.4c-1.2-0.1-2.1-0.1-2.9-0.1c-0.9,0-1.3-0.3-1.3-1
			c0-0.9,0.9-1.3,2.6-1.3c1.9,0,3.8,0,5.9,0.1c2.1,0.1,4,0.1,5.8,0.2c1.8,0.1,3.3,0.1,4.6,0.2c1.3,0.1,2,0.1,2.2,0.1
			c0.2,0,1,0,2.2-0.1c1.3-0.1,2.7-0.1,4.4-0.2c1.6-0.1,3.3-0.1,5.1-0.2c1.8-0.1,3.2-0.1,4.4-0.1c1.8,0,2.6,0.4,2.6,1.3
			c0,0.7-0.4,1-1.3,1c-0.6,0-1.1,0-1.7,0.1c-0.6,0.1-1.4,0.2-2.4,0.4c-2.2,0.4-3.7,1.4-4.5,2.9c-0.8,1.5-1.3,3.6-1.6,6.5
			c-0.1,1.3-0.2,2.7-0.2,4.2c-0.1,1.5-0.1,3.5-0.1,6c0,2.4,0,5.7,0,9.7c0,4.1,0,9.3,0,15.6v3.5c0,0.7,0.3,1,1,1h69.8
			c0.7,0,1-0.3,1-1v-3.5c0-6.4,0-11.6,0-15.6c0-4.1,0-7.3,0-9.7c0-2.5,0-4.5-0.1-6c-0.1-1.5-0.1-2.9-0.2-4.2c-0.2-2.9-0.8-5-1.6-6.4
			c-0.9-1.4-2.7-2.4-5.4-3c-0.7-0.2-1.6-0.4-2.7-0.4c-1.2-0.1-2.1-0.1-2.9-0.1c-0.9,0-1.3-0.3-1.3-1c0-0.9,0.9-1.3,2.6-1.3
			c1.9,0,3.8,0,5.9,0.1c2.1,0.1,4,0.1,5.8,0.2c1.8,0.1,3.3,0.1,4.6,0.2c1.3,0.1,2,0.1,2.2,0.1c0.2,0,1,0,2.2-0.1
			c1.3-0.1,2.7-0.1,4.4-0.2c1.6-0.1,3.3-0.1,5.1-0.2c1.8-0.1,3.2-0.1,4.4-0.1c1.8,0,2.6,0.4,2.6,1.3c0,0.7-0.4,1-1.3,1
			c-0.6,0-1.1,0-1.7,0.1c-0.6,0.1-1.4,0.2-2.4,0.4c-2.2,0.4-3.7,1.4-4.5,2.9c-0.8,1.5-1.3,3.6-1.6,6.5c-0.1,1.3-0.2,2.7-0.2,4.2
			c-0.1,1.5-0.1,3.5-0.1,6c0,2.4,0,5.7,0,9.7c0,4.1,0,9.3,0,15.6V576.9z"/>
		<path class="st1" d="M294.7,548.2c1.1-4.9,2.8-9.8,5.1-14.6c2.3-4.8,5.2-9.3,8.6-13.7c3.5-4.3,7.6-8.1,12.4-11.4
			c4.8-3.3,10.3-5.9,16.5-7.8c6.1-1.9,13-2.9,20.6-2.9c9.2,0,17.8,1.4,25.7,4.3c7.9,2.9,14.7,6.9,20.5,12.3
			c5.8,5.3,10.3,11.8,13.6,19.4c3.3,7.6,4.9,16.2,4.9,25.8c0,9.2-1.6,17.9-4.7,26.1c-3.1,8.2-7.5,15.3-13.3,21.4
			c-5.7,6.1-12.6,10.9-20.7,14.5c-8.1,3.6-17.1,5.4-27,5.4c-11.3,0-21-2-29.1-5.9c-8.1-4-14.7-9.1-19.8-15.3
			c-5.2-6.3-8.9-13.2-11.4-20.8c-2.4-7.6-3.6-15.2-3.6-22.6C293.1,557.8,293.6,553.2,294.7,548.2z M312.8,583.6
			c2.7,7.8,6.4,14.4,11.2,19.9c4.8,5.5,10.3,9.7,16.7,12.7c6.4,3,13.3,4.4,20.7,4.4c3.7,0,8.2-0.7,13.3-2.1
			c5.2-1.4,10.1-4.1,14.9-8.1c4.8-4.1,8.8-9.8,12.2-17.2c3.3-7.4,5-17.1,5-29.1c0-9.9-1.4-18.6-4.2-26.2c-2.8-7.6-6.5-13.9-11.1-19
			c-4.6-5.1-9.9-9-16-11.6c-6-2.6-12.3-4-18.8-4c-6.9,0-13.3,1.1-19.2,3.4c-5.9,2.3-10.9,5.7-15.2,10.2c-4.3,4.6-7.6,10.2-10,17
			c-2.4,6.7-3.6,14.6-3.6,23.6C308.7,567.2,310.1,575.8,312.8,583.6z"/>
		<path class="st1" d="M495.4,547.9c0-6.4,0-11.6,0-15.6c0-4.1,0-7.3,0-9.7c0-2.5,0-4.5-0.1-6c-0.1-1.5-0.1-2.9-0.2-4.2
			c-0.2-2.9-0.8-5-1.6-6.4c-0.9-1.4-2.7-2.4-5.4-3c-0.7-0.2-1.6-0.4-2.7-0.4c-1.2-0.1-2.1-0.1-2.9-0.1c-0.9,0-1.3-0.3-1.3-1
			c0-0.9,0.9-1.3,2.6-1.3c1.9,0,3.8,0,5.8,0.1c2,0.1,4,0.1,5.8,0.2c1.8,0.1,3.3,0.1,4.6,0.2c1.3,0.1,2.1,0.1,2.4,0.1
			c1.9,0,4.8-0.1,8.9-0.2c4.1-0.2,8-0.2,11.9-0.2c5.2,0,9.5,0.4,13.1,1.2c3.6,0.8,6.6,1.6,9,2.6c2.4,1,4.3,2,5.6,3
			c1.3,1,2.3,1.9,3,2.6c1.9,1.8,3.7,4.4,5.5,7.8c1.8,3.5,2.7,7.4,2.7,11.8c0,5.8-1,11.1-3,16c-2,4.8-4.9,9-8.5,12.4
			c-3.6,3.5-7.9,6.1-12.8,8c-4.9,1.9-10.3,2.8-16.1,2.8c-0.4,0-1,0-1.8,0c-0.7,0-1.2-0.1-1.6-0.2c-0.4,0-0.9-0.1-1.2-0.2
			c-0.4-0.2-0.6-0.5-0.6-0.9c0-0.7,0.3-1.1,0.9-1.2c0.6-0.2,1.8-0.2,3.5-0.2c4,0,7.7-0.7,11.2-2.1c3.5-1.4,6.5-3.3,9.1-5.7
			c2.5-2.4,4.5-5.2,6-8.5c1.5-3.2,2.2-6.8,2.2-10.6c0-1.3-0.1-3-0.2-4.9c-0.2-2-0.5-4.1-1.2-6.4c-0.6-2.3-1.5-4.7-2.7-7.1
			c-1.2-2.4-2.9-4.7-5.1-6.9c-2.2-2.2-4.4-3.9-6.7-5c-2.2-1.2-4.4-2-6.4-2.5c-2-0.5-3.9-0.7-5.5-0.7c-1.6,0-3,0-4,0
			c-1.4,0-2.8,0.1-4,0.2c-1.3,0.2-2.3,0.4-3,0.7c-0.9,0.3-1.3,1.4-1.3,3.1v67.7c0,7.9,0,15,0.1,21.2c0.1,6.2,0.3,11.1,0.7,14.6
			c0.2,2.4,0.7,4.4,1.5,6.1c0.8,1.6,2.4,2.6,4.9,3c1.2,0.2,2.6,0.4,4,0.5c1.5,0.1,2.6,0.2,3.4,0.2c0.9,0,1.3,0.3,1.3,1
			c0,0.9-0.9,1.3-2.6,1.3c-2.3,0-4.6,0-6.9-0.1c-2.3-0.1-4.4-0.1-6.3-0.2c-1.9-0.1-3.5-0.1-4.8-0.2c-1.3-0.1-2-0.1-2.2-0.1
			c-0.1,0-0.8,0-2,0.1c-1.2,0.1-2.6,0.1-4.3,0.2c-1.6,0.1-3.3,0.1-5.1,0.2c-1.8,0.1-3.2,0.1-4.4,0.1c-1.8,0-2.6-0.4-2.6-1.3
			c0-0.7,0.4-1,1.3-1c0.8,0,1.6-0.1,2.5-0.2c0.9-0.1,1.7-0.3,2.5-0.5c1.6-0.3,2.8-1.3,3.4-3c0.6-1.6,1.1-3.7,1.4-6.1
			c0.4-3.5,0.7-8.4,0.7-14.6c0.1-6.2,0.1-13.3,0.1-21.2V547.9z"/>
		<path class="st1" d="M634,547.9c0-6.4,0-11.6,0-15.6c0-4.1,0-7.3,0-9.7c0-2.5,0-4.5-0.1-6c-0.1-1.5-0.1-2.9-0.2-4.2
			c-0.2-2.9-0.8-5-1.6-6.4c-0.9-1.4-2.7-2.4-5.4-3c-0.7-0.2-1.6-0.4-2.7-0.4c-1.2-0.1-2.1-0.1-2.9-0.1c-0.9,0-1.3-0.3-1.3-1
			c0-0.9,0.9-1.3,2.6-1.3c1.9,0,3.8,0,5.9,0c2.1,0,4.1,0.1,5.9,0.2l6.7,0.3c0.3,0,2.2,0,5.8,0c3.6,0,7.6,0,12,0
			c4.5,0,8.7,0,12.6-0.1c3.9-0.1,6.3-0.1,7.3-0.1c3.2-0.2,5.5-0.5,7.1-0.8c0.4-0.1,0.8-0.3,1.2-0.5c0.3-0.2,0.7-0.3,1.2-0.3
			c0.4,0,0.7,0.5,0.7,1.5c0,0.6-0.2,1.4-0.5,2.6c-0.3,1.2-0.6,2.9-0.8,5.2c0,0.4,0,1.2-0.1,2.1c-0.1,1-0.1,2.1-0.2,3.2
			c-0.1,1.2-0.2,2.3-0.2,3.3c-0.1,1-0.1,1.8-0.2,2.2c-0.1,0.4-0.2,0.9-0.4,1.2c-0.2,0.4-0.4,0.6-0.7,0.6c-0.9,0-1.3-0.7-1.3-2.1
			c0-0.5-0.1-1.4-0.2-2.6c-0.1-1.2-0.4-2.3-0.8-3.3c-0.6-1.3-1.5-2.4-3-3.4c-1.4-0.9-4.3-1.7-8.7-2.2c-0.7-0.1-2.1-0.2-4.4-0.2
			c-2.3-0.1-4.7-0.1-7.2-0.2c-2.5-0.1-4.9-0.1-7.1-0.1c-2.1,0-3.3,0-3.8,0c-0.7,0-1,0.6-1,1.6v45.4c0,1.1,0.3,1.6,1,1.6
			c0.5,0,2,0,4.4,0c2.4,0,5,0,7.9,0c3,0,5.8,0,8.4-0.1c2.6-0.1,4.4-0.1,5.4-0.2c2-0.2,3.6-0.4,4.8-0.7c1.2-0.2,2.2-0.8,3-1.6
			c1.2-1.4,2-2.1,2.5-2.1c0.5,0,0.8,0.4,0.8,1.3c0,0.6-0.2,1.5-0.5,3c-0.3,1.4-0.6,3.5-0.8,6.3c-0.1,0.9-0.2,1.8-0.2,2.9
			c-0.1,1-0.1,2.1-0.2,3.1c-0.1,1-0.1,2-0.2,2.8c-0.1,0.8-0.1,1.4-0.1,1.7c0,0.7-0.1,1.3-0.2,2.1c-0.1,0.7-0.4,1.1-1,1.1
			c-0.8,0-1.2-0.5-1.2-1.5c0-0.9,0-1.7-0.1-2.6c-0.1-0.8-0.2-1.8-0.6-2.9c-0.3-1.2-1-2.4-2.1-3.5c-1.1-1.2-3.2-1.9-6.4-2.2
			c-1.1-0.1-2.8-0.2-5.2-0.3c-2.4-0.1-4.8-0.2-7.2-0.2c-2.5-0.1-4.8-0.1-6.9-0.2c-2.1-0.1-3.5-0.1-4.2-0.1c-0.8,0-1.2,0.4-1.2,1.2
			v14.5c0,1.4,0,3.5,0,6.3c0,2.7,0,5.6,0,8.6c0,3,0,5.7,0,8.2c0,2.5,0,4.2,0,5.1c0.1,2.9,0.4,5.2,0.9,6.9c0.5,1.8,1.4,3.1,2.8,4.1
			c1.4,1,3.3,1.6,5.7,2c2.4,0.3,5.7,0.5,9.7,0.5c2.2,0,4.8-0.1,7.9-0.2c3.1-0.2,5.7-0.7,7.9-1.6c2.2-0.9,3.8-2.2,4.9-4
			c1.1-1.8,1.9-4.4,2.5-7.8c0.3-1.6,0.8-2.5,1.5-2.5c0.5,0,0.8,0.3,0.9,0.8c0.1,0.6,0.1,1.1,0.1,1.6c0,0.3-0.1,1.2-0.2,2.6
			c-0.2,1.4-0.4,2.9-0.6,4.6c-0.2,1.7-0.4,3.4-0.7,5c-0.2,1.6-0.4,2.9-0.7,3.8c-0.3,1.1-0.7,1.9-1,2.5c-0.3,0.6-0.8,1-1.5,1.2
			c-0.7,0.3-1.5,0.4-2.5,0.5c-1,0.1-2.3,0.1-4,0.1c-6.3,0-11.7-0.1-16.2-0.2c-4.6-0.1-8.4-0.2-11.6-0.3c-3.2-0.2-5.8-0.4-7.9-0.4
			c-2.1-0.1-3.7-0.1-4.9-0.1c-0.2,0-0.9,0-2.1,0c-1.2,0-2.7,0.1-4.4,0.2c-1.6,0-3.3,0.1-5.1,0.2c-1.8,0.1-3.2,0.2-4.4,0.2
			c-1.8,0-2.6-0.4-2.6-1.3c0-0.7,0.4-1,1.3-1c0.8,0,1.6-0.1,2.5-0.2c0.9-0.1,1.7-0.3,2.5-0.5c1.6-0.3,2.8-1.3,3.4-3
			c0.6-1.6,1.1-3.7,1.4-6.1c0.4-3.5,0.7-8.4,0.7-14.6c0.1-6.2,0.1-13.3,0.1-21.2V547.9z"/>
	</g>
	<g>
		<path class="st2" d="M229,709l-12-41.3h5.3l9.2,32.7l9.1-32.6l5.4,0l9.2,32.7l9.1-32.7h5.4l-12,41.3h-5.1l-9.3-32.4l-9.3,32.4H229
			z"/>
		<path class="st2" d="M286.1,709v-41.3h26.1v4.8h-21v12.9h17.6v4.8h-17.6v13.8h21v4.8H286.1z"/>
		<path class="st2" d="M331.2,709v-41.3h5.1v36.5h19.2v4.8H331.2z"/>
		<path class="st2" d="M372.4,709v-41.3h5.1v36.5h19.2v4.8H372.4z"/>
		<path class="st2" d="M413,709v-41.3h5.2l21.5,32.3v-32.3h5.2V709h-5.2l-21.5-32.3V709H413z"/>
		<path class="st2" d="M464.3,709v-41.3h26.1v4.8h-21v12.9H487v4.8h-17.6v13.8h21v4.8H464.3z"/>
		<path class="st2" d="M522.3,709.9c-2.9,0-5.6-0.5-7.9-1.5c-2.3-1-4.3-2.4-5.8-4.3c-1.5-1.8-2.5-4-3-6.6l5.3-0.8
			c0.7,2.6,2.1,4.6,4.2,6.1c2.1,1.5,4.6,2.2,7.5,2.2c1.9,0,3.5-0.3,5-0.9c1.5-0.6,2.7-1.4,3.6-2.5c0.9-1.1,1.3-2.4,1.3-3.9
			c0-0.9-0.2-1.7-0.5-2.4c-0.3-0.7-0.7-1.2-1.3-1.7c-0.5-0.5-1.2-0.9-1.8-1.2c-0.7-0.3-1.4-0.6-2.2-0.8l-10.5-3.1
			c-1.1-0.3-2.3-0.8-3.3-1.3c-1.1-0.5-2-1.2-2.9-2c-0.8-0.8-1.5-1.7-2-2.9c-0.5-1.1-0.7-2.4-0.7-4c0-2.4,0.6-4.5,1.9-6.3
			c1.3-1.7,3-3.1,5.2-4s4.6-1.4,7.4-1.3c2.8,0,5.3,0.5,7.4,1.5c2.2,1,4,2.3,5.4,4.1c1.4,1.8,2.4,3.9,2.9,6.5l-5.4,0.9
			c-0.3-1.7-0.9-3.1-1.9-4.3c-1-1.2-2.2-2.2-3.7-2.8c-1.5-0.7-3.1-1-4.8-1c-1.7,0-3.2,0.2-4.6,0.8c-1.4,0.6-2.4,1.3-3.2,2.3
			c-0.8,1-1.2,2.1-1.2,3.4c0,1.3,0.4,2.3,1.1,3.1c0.7,0.8,1.6,1.4,2.7,1.8c1.1,0.4,2.1,0.8,3.1,1.1l7.9,2.3c0.9,0.2,1.9,0.6,3.1,1
			c1.2,0.4,2.3,1.1,3.4,1.8c1.1,0.8,2,1.8,2.8,3.2c0.7,1.3,1.1,3,1.1,4.9c0,2-0.4,3.8-1.2,5.3s-1.9,2.8-3.3,3.9
			c-1.4,1-3.1,1.8-4.9,2.4C526.5,709.6,524.4,709.9,522.3,709.9z"/>
		<path class="st2" d="M570.8,709.9c-2.9,0-5.6-0.5-7.9-1.5c-2.3-1-4.3-2.4-5.8-4.3c-1.5-1.8-2.5-4-3-6.6l5.3-0.8
			c0.7,2.6,2.1,4.6,4.2,6.1c2.1,1.5,4.6,2.2,7.5,2.2c1.9,0,3.5-0.3,5-0.9c1.5-0.6,2.7-1.4,3.6-2.5c0.9-1.1,1.3-2.4,1.3-3.9
			c0-0.9-0.2-1.7-0.5-2.4c-0.3-0.7-0.7-1.2-1.3-1.7c-0.5-0.5-1.2-0.9-1.8-1.2c-0.7-0.3-1.4-0.6-2.2-0.8l-10.5-3.1
			c-1.1-0.3-2.3-0.8-3.3-1.3c-1.1-0.5-2-1.2-2.9-2c-0.8-0.8-1.5-1.7-2-2.9c-0.5-1.1-0.7-2.4-0.7-4c0-2.4,0.6-4.5,1.9-6.3
			c1.3-1.7,3-3.1,5.2-4s4.6-1.4,7.4-1.3c2.8,0,5.3,0.5,7.4,1.5c2.2,1,4,2.3,5.4,4.1c1.4,1.8,2.4,3.9,2.9,6.5l-5.4,0.9
			c-0.3-1.7-0.9-3.1-1.9-4.3c-1-1.2-2.2-2.2-3.7-2.8c-1.5-0.7-3.1-1-4.8-1c-1.7,0-3.2,0.2-4.6,0.8c-1.4,0.6-2.4,1.3-3.2,2.3
			c-0.8,1-1.2,2.1-1.2,3.4c0,1.3,0.4,2.3,1.1,3.1c0.7,0.8,1.6,1.4,2.7,1.8c1.1,0.4,2.1,0.8,3.1,1.1l7.9,2.3c0.9,0.2,1.9,0.6,3.1,1
			c1.2,0.4,2.3,1.1,3.4,1.8c1.1,0.8,2,1.8,2.8,3.2c0.7,1.3,1.1,3,1.1,4.9c0,2-0.4,3.8-1.2,5.3s-1.9,2.8-3.3,3.9
			c-1.4,1-3.1,1.8-4.9,2.4C574.9,709.6,572.9,709.9,570.8,709.9z"/>
	</g>
	<g>
		<g>
			<circle class="st3" cx="491" cy="113.6" r="42.5"/>
			<path class="st3" d="M548.3,336c0,43.9-35.6,79.5-79.4,79.5c-4.2,0-8.3-0.3-12.3-0.9c0,0,0-163.4,0-166.6
				c0-43.9,35.6-79.5,79.5-79.5c4.2,0,8.3,0.3,12.3,0.9C548.3,169.4,548.3,332.8,548.3,336z"/>
		</g>
		<g>
			<path class="st3" d="M346.8,414.5c-4,0.6-8.1,0.9-12.3,0.9c-43.9,0-79.4-35.6-79.4-79.5c0-3.2,0-166.6,0-166.6
				c4-0.6,8.1-0.9,12.3-0.9c43.9,0,79.5,35.6,79.5,79.5C346.8,251.1,346.8,414.5,346.8,414.5z"/>
			<circle class="st3" cx="312.3" cy="113.6" r="42.5"/>
		</g>
		<circle class="st3" cx="401.7" cy="293.7" r="42.5"/>
	</g>
	<g>
		<g>
			<path d="M14.3,238c0,2.2-1.4,3.5-3.1,4.2c2,0.7,3.5,2,3.5,4.3c0,3.2-3,5-6.6,5c-3.7,0-6.6-1.8-6.6-5c0-2.3,1.6-3.6,3.5-4.3
				c-1.8-0.7-3.1-2-3.1-4.2c0-3.1,2.8-4.9,6.2-4.9S14.3,234.9,14.3,238z M3.5,246.4c0,2.2,2.1,3.3,4.6,3.3c2.5,0,4.5-1.1,4.5-3.3
				c0-2.1-2-3.3-4.5-3.3C5.5,243.1,3.5,244.3,3.5,246.4z M3.9,238.1c0,2.1,1.9,3.2,4.1,3.2c2.3,0,4.1-1.1,4.1-3.2
				c0-2.1-1.9-3.2-4.1-3.2C5.8,235,3.9,236.1,3.9,238.1z"/>
			<path d="M26.1,242.1l6.7,9.2h-2.5l-5.5-7.6l-5.5,7.6h-2.4l6.7-9.2l-6.4-8.7h2.5l5.2,7.2l5.2-7.2h2.4L26.1,242.1z"/>
		</g>
	</g>
	<g>
		<g>
			<path d="M387.2,195.3c0.8-1.3,2.4-3,5.5-3c3.6,0,5.7,2.4,5.7,5.5c0,2.2-1.2,3.8-2.4,5.1l-5.3,5.7h8.3v1.9h-11.3v-1.5l6.8-7.1
				c1.1-1.2,1.8-2.4,1.8-3.9c0-2.1-1.3-3.7-3.7-3.7c-2,0-3.1,1.1-4,2.2L387.2,195.3z"/>
			<path d="M410.2,201.3l6.7,9.2h-2.5l-5.5-7.6l-5.5,7.6h-2.4l6.7-9.2l-6.4-8.7h2.5l5.2,7.2l5.2-7.2h2.4L410.2,201.3z"/>
		</g>
	</g>
	<g>
		<g>
			<path d="M476.5,6.6c0.8-1.3,2.4-3,5.5-3c3.6,0,5.7,2.4,5.7,5.5c0,2.2-1.2,3.8-2.4,5.1l-5.3,5.7h8.3v1.9H477v-1.5l6.8-7.1
				c1.1-1.2,1.8-2.4,1.8-3.9c0-2.1-1.3-3.7-3.7-3.7c-2,0-3.1,1.1-4,2.2L476.5,6.6z"/>
			<path d="M499.5,12.6l6.7,9.2h-2.5l-5.5-7.6l-5.5,7.6h-2.4l6.7-9.2l-6.4-8.7h2.5l5.2,7.2l5.2-7.2h2.4L499.5,12.6z"/>
		</g>
	</g>
	<g>
		<g>
			<path d="M297.9,6.6c0.8-1.3,2.4-3,5.5-3c3.6,0,5.7,2.4,5.7,5.5c0,2.2-1.2,3.8-2.4,5.1l-5.3,5.7h8.3v1.9h-11.3v-1.5l6.8-7.1
				c1.1-1.2,1.8-2.4,1.8-3.9c0-2.1-1.3-3.7-3.7-3.7c-2,0-3.1,1.1-4,2.2L297.9,6.6z"/>
			<path d="M320.9,12.6l6.7,9.2h-2.5l-5.5-7.6l-5.5,7.6h-2.4l6.7-9.2l-6.4-8.7h2.5l5.2,7.2l5.2-7.2h2.4L320.9,12.6z"/>
		</g>
	</g>
	<g>
		<g>
			<path d="M26.1,687.8l6.7,9.2h-2.5l-5.5-7.6l-5.5,7.6h-2.4l6.7-9.2l-6.4-8.7h2.5l5.2,7.2l5.2-7.2h2.4L26.1,687.8z"/>
		</g>
	</g>
	<g>
		<g>
			<path d="M14.3,561c0,2.1-1.1,3.5-2.8,4.2c1.9,0.7,3.2,2.1,3.2,4.2c0,3.4-3,5-6.2,5c-2.5,0-4.5-0.9-5.8-2.4l1.3-1.3
				c1.1,1.2,2.7,1.8,4.5,1.8c2.2,0,4.1-1,4.1-3.3c0-2.1-1.9-3.2-4.3-3.2H6v-1.8h2.3c2.2,0,3.9-1.1,3.9-3.2c0-1.9-1.7-3.2-4-3.2
				c-1.8,0-3.2,0.9-4,2l-1.4-1.2c1-1.5,2.9-2.7,5.5-2.7C11.9,556.1,14.3,558.1,14.3,561z"/>
			<path d="M26.1,565.1l6.7,9.2h-2.5l-5.5-7.6l-5.5,7.6h-2.4l6.7-9.2l-6.4-8.7h2.5l5.2,7.2l5.2-7.2h2.4L26.1,565.1z"/>
		</g>
	</g>
	<line class="st0" x1="81.2" y1="71.1" x2="13.1" y2="71.1"/>
	<line class="st0" x1="269.9" y1="53.5" x2="269.9" y2="12.3"/>
	<line class="st0" x1="354.8" y1="53.5" x2="354.8" y2="12.3"/>
	<line class="st0" x1="448.5" y1="53.5" x2="448.5" y2="12.3"/>
	<line class="st0" x1="533.4" y1="53.5" x2="533.4" y2="12.3"/>
	<line class="st0" x1="81.2" y1="415.4" x2="13.1" y2="415.4"/>
	<line class="st0" x1="81.2" y1="500.3" x2="13.1" y2="500.3"/>
	<line class="st0" x1="81.2" y1="624.6" x2="13.1" y2="624.6"/>
	<line class="st0" x1="81.2" y1="666.9" x2="13.1" y2="666.9"/>
	<line class="st0" x1="81.2" y1="709.9" x2="13.1" y2="709.9"/>
	<g>
		<g>
			<line class="st4" x1="47.2" y1="78.3" x2="47.2" y2="408.3"/>
			<g>
				<polygon points="42.2,79.7 47.2,71.1 52.2,79.7 				"/>
			</g>
			<g>
				<polygon points="42.2,406.8 47.2,415.4 52.2,406.8 				"/>
			</g>
		</g>
	</g>
	<g>
		<g>
			<path d="M712.1,453.6c0.8-1.3,2.4-3,5.5-3c3.6,0,5.7,2.4,5.7,5.5c0,2.2-1.2,3.8-2.4,5.1l-5.3,5.7h8.3v1.9h-11.3v-1.5l6.8-7.1
				c1.1-1.2,1.8-2.4,1.8-3.9c0-2.1-1.3-3.7-3.7-3.7c-2,0-3.1,1.1-4,2.2L712.1,453.6z"/>
			<path d="M735.1,459.6l6.7,9.2h-2.5l-5.5-7.6l-5.5,7.6h-2.4l6.7-9.2l-6.4-8.7h2.5l5.2,7.2l5.2-7.2h2.4L735.1,459.6z"/>
		</g>
	</g>
	<line class="st0" x1="790.2" y1="415.4" x2="722.1" y2="415.4"/>
	<line class="st0" x1="790.2" y1="500.3" x2="722.1" y2="500.3"/>
	<g>
		<g>
			<line class="st4" x1="756.1" y1="422.6" x2="756.1" y2="493.2"/>
			<g>
				<polygon points="751.2,424.1 756.1,415.4 761.1,424.1 				"/>
			</g>
			<g>
				<polygon points="751.2,491.7 756.1,500.4 761.1,491.7 				"/>
			</g>
		</g>
	</g>
	<g>
		<g>
			<line class="st4" x1="47.2" y1="507.5" x2="47.2" y2="618.9"/>
			<g>
				<polygon points="42.2,509 47.2,500.4 52.2,509 				"/>
			</g>
			<g>
				<polygon points="42.2,617.4 47.2,626 52.2,617.4 				"/>
			</g>
		</g>
	</g>
	<g>
		<g>
			<line class="st4" x1="47.2" y1="674.1" x2="47.2" y2="702.6"/>
			<g>
				<polygon points="42.2,675.5 47.2,666.9 52.2,675.5 				"/>
			</g>
			<g>
				<polygon points="42.2,701.1 47.2,709.8 52.2,701.1 				"/>
			</g>
		</g>
	</g>
	<g>
		<g>
			<path d="M735.1,645.6l6.7,9.2h-2.5l-5.5-7.6l-5.5,7.6h-2.4l6.7-9.2l-6.4-8.7h2.5l5.2,7.2l5.2-7.2h2.4L735.1,645.6z"/>
		</g>
	</g>
	<line class="st0" x1="790.2" y1="624.6" x2="722.1" y2="624.6"/>
	<line class="st0" x1="790.2" y1="666.9" x2="722.1" y2="666.9"/>
	<g>
		<g>
			<line class="st4" x1="756.1" y1="632.7" x2="756.1" y2="661.2"/>
			<g>
				<polygon points="751.2,634.1 756.1,625.5 761.1,634.1 				"/>
			</g>
			<g>
				<polygon points="751.2,659.7 756.1,668.3 761.1,659.7 				"/>
			</g>
		</g>
	</g>
	<g>
		<g>
			<line class="st4" x1="277" y1="32.9" x2="347.6" y2="32.9"/>
			<g>
				<polygon points="278.5,37.9 269.9,32.9 278.5,27.9 				"/>
			</g>
			<g>
				<polygon points="346.2,37.9 354.8,32.9 346.2,27.9 				"/>
			</g>
		</g>
	</g>
	<g>
		<g>
			<line class="st4" x1="455.7" y1="32.9" x2="526.3" y2="32.9"/>
			<g>
				<polygon points="457.1,37.9 448.5,32.9 457.1,27.9 				"/>
			</g>
			<g>
				<polygon points="524.8,37.9 533.4,32.9 524.8,27.9 				"/>
			</g>
		</g>
	</g>
	<line class="st0" x1="359.2" y1="243.3" x2="359.2" y2="202.1"/>
	<line class="st0" x1="444.1" y1="243.3" x2="444.1" y2="202.1"/>
	<g>
		<g>
			<line class="st4" x1="366.4" y1="222.7" x2="436.9" y2="222.7"/>
			<g>
				<polygon points="367.8,227.7 359.2,222.7 367.8,217.7 				"/>
			</g>
			<g>
				<polygon points="435.5,227.7 444.1,222.7 435.5,217.7 				"/>
			</g>
		</g>
	</g>
</g>
</svg>
